<?xml version="1.0" encoding="utf-8"?>
<!-- Generator: Adobe Illustrator 21.0.2, SVG Export Plug-In . SVG Version: 6.00 Build 0)  -->
<svg version="1.1" id="Capa_1" xmlns="http://www.w3.org/2000/svg" xmlns:xlink="http://www.w3.org/1999/xlink" x="0px" y="0px"
	 viewBox="0 0 920 753" style="enable-background:new 0 0 920 753;" xml:space="preserve">
<style type="text/css">
	.st0{fill:#B8B8B8;}
	.st1{fill:#E10098;stroke:#E10098;stroke-miterlimit:10;}
	.st2{fill:#F4BE00;stroke:#F4BE00;stroke-miterlimit:10;}
	.st3{fill:#2F788E;stroke:#2F788E;stroke-miterlimit:10;}
	.st4{fill:#808789;stroke:#808789;stroke-width:3;stroke-miterlimit:10;}
</style>
<rect x="280" y="151" class="st0" width="132.6" height="61.8"/>
<rect x="430.6" y="151" class="st0" width="135.7" height="61.8"/>
<path class="st1" d="M683.7,576.9c20.2,0,36.7-16.4,36.7-36.7c0-20.2-16.4-36.7-36.7-36.7c-20.2,0-36.7,16.4-36.7,36.7
	S663.4,576.9,683.7,576.9L683.7,576.9z M683.7,518.3c12.1,0,22,9.9,22,22s-9.9,22-22,22s-22-9.9-22-22
	C661.7,528.1,671.5,518.3,683.7,518.3L683.7,518.3z"/>
<path class="st2" d="M226.7,381.9c18.5,0,33.5-15,33.5-33.5s-15-33.5-33.5-33.5s-33.5,15-33.5,33.5
	C193.2,366.8,208.2,381.9,226.7,381.9L226.7,381.9z M226.7,328.2c11.1,0,20.1,9,20.1,20.1s-9,20.1-20.1,20.1s-20.1-9-20.1-20.1
	C206.6,337.2,215.6,328.2,226.7,328.2L226.7,328.2z"/>
<path class="st2" d="M178.1,457.3h97.2c3.7,0,6.7-3,6.7-6.7c0-30.5-24.8-55.3-55.3-55.3s-55.3,24.8-55.3,55.3
	C171.4,454.3,174.4,457.3,178.1,457.3L178.1,457.3z M226.7,408.7c20.8,0,38.2,15.3,41.4,35.2h-82.8
	C188.6,424,205.9,408.7,226.7,408.7L226.7,408.7z"/>
<path class="st3" d="M726.3,200.3c17.9,0,32.4-14.5,32.4-32.4s-14.5-32.4-32.4-32.4s-32.4,14.5-32.4,32.4
	C693.9,185.8,708.5,200.3,726.3,200.3L726.3,200.3z M726.3,148.5c10.7,0,19.5,8.7,19.5,19.5c0,10.7-8.7,19.5-19.5,19.5
	c-10.7,0-19.5-8.7-19.5-19.5C706.9,157.2,715.6,148.5,726.3,148.5L726.3,148.5z"/>
<path class="st3" d="M679.3,273.3h94c3.6,0,6.5-2.9,6.5-6.5c0-29.5-24-53.5-53.5-53.5s-53.5,24-53.5,53.5
	C672.8,270.4,675.7,273.3,679.3,273.3L679.3,273.3z M726.3,226.3c20.1,0,36.9,14.8,40,34.1h-80C689.4,241,706.2,226.3,726.3,226.3
	L726.3,226.3z"/>
<path class="st0" d="M612.7,204.4c0-19.3,4.8-37.5,13.3-53.4h-39.9v61.8H613C612.8,210,612.7,207.2,612.7,204.4z"/>
<path class="st4" d="M560,616.6H430.6v-57.3H557c1.1-6.2,2.6-12.2,4.5-18.1H430.6v-59.4h135.6V529c4.7-10.6,10.8-20.4,18.1-29.2v-18
	h18.1c8.9-7.3,18.8-13.4,29.5-18.1h-47.5V401h139.1v58.1c6.3,2,12.3,4.5,18.1,7.5V317c-5,0.7-10,1-15.2,1c-1,0-1.9,0-2.9,0v65.1
	H584.4v-67.8h117c-14.8-3.3-28.6-9.6-40.6-18.1h-76.4v-66.3h31.5c-1.4-5.9-2.4-11.9-2.8-18.1h-28.6V149h42.7
	c3.6-6.4,7.8-12.5,12.5-18.1H198.2c-11.6,0-21.1,9.5-21.1,21.1v127.5c5.8-2.7,11.8-5,18.1-6.7v-41.9h65.3v42.5
	c6.3,1.9,12.3,4.2,18.1,7.1v-49.6h134.1v66.3H303.8c6.2,5.4,11.9,11.5,16.9,18.1h92v67.8h-68.3c0,1,0,2,0,3c0,5.1-0.3,10.2-1,15.1
	h69.3v62.7H315c-6,6.8-12.7,12.8-20.1,18.1h117.8v59.4H278.6v-49.7c-5.8,2.8-11.8,5.2-18.1,7.1v42.6h-65.3v-42
	c-6.3-1.7-12.3-4-18.1-6.7v121.5c0,7.1,3.6,13.4,9,17.3v3.3h7.6c1.4,0.3,2.9,0.5,4.5,0.5H567C564.1,629.3,561.8,623,560,616.6z
	 M430.6,149h135.6v63.8H430.6V149z M430.6,230.9h135.6v66.3H430.6V230.9z M430.6,315.3h135.6v67.8H430.6V315.3z M430.6,401.2h135.6
	v62.7H430.6V401.2z M260.4,616.6h-63.8c-0.9-0.5-1.4-1.4-1.4-2.5v-54.8h65.3v57.3H260.4z M412.6,616.6H278.5v-57.3h134.1V616.6z
	 M412.6,212.8H278.5V149h134.1V212.8z"/>
<path class="st1" d="M630.5,659.4h106.3c4,0,7.3-3.3,7.3-7.3c0-33.4-27.1-60.5-60.5-60.5s-60.5,27.1-60.5,60.5
	C623.2,656.1,626.5,659.4,630.5,659.4L630.5,659.4z M683.7,606.2c22.8,0,41.7,16.7,45.2,38.5h-90.5
	C641.9,622.9,660.9,606.2,683.7,606.2L683.7,606.2z"/>
</svg>
