<?xml version="1.0" encoding="utf-8"?>
<!-- Generator: Adobe Illustrator 21.1.0, SVG Export Plug-In . SVG Version: 6.00 Build 0)  -->
<svg version="1.1" id="Capa_1" xmlns="http://www.w3.org/2000/svg" xmlns:xlink="http://www.w3.org/1999/xlink" x="0px" y="0px"
	 viewBox="0 0 55.7 55.7" style="enable-background:new 0 0 55.7 55.7;" xml:space="preserve">
<style type="text/css">
	.st0{fill:#C82982;}
	.st1{fill:#808789;}
	.st2{fill:#B7B7B7;}
	.st3{fill:#5B5B5B;}
	.st4{fill:#FFFFFF;}
</style>
<g id="Layer_6">
	<path class="st0" d="M26.3,13.9l-0.1-0.1c-0.1-0.1-0.2-0.1-0.2-0.2c-0.5-0.3-0.9-0.7-1.3-1.1c-0.2-0.2-0.4-0.5-0.6-0.8
		c-0.3-0.3-0.4-0.8-0.3-1.2c0.1-0.6,0.5-1,1.1-1.1h0.3c0.5,0,0.9,0.2,1.1,0.6c0.2-0.4,0.7-0.6,1.1-0.6h0.3c0.8,0.2,1.3,0.9,1.1,1.7
		c0,0.2-0.2,0.4-0.3,0.6c-0.2,0.3-0.4,0.6-0.6,0.8c-0.4,0.4-0.8,0.8-1.3,1.1c-0.1,0.1-0.2,0.1-0.2,0.2L26.3,13.9z M25.1,10L25.1,10
		c-0.4,0.1-0.6,0.3-0.7,0.6c0,0.3,0,0.5,0.2,0.7c0.1,0.2,0.3,0.5,0.5,0.7c0.3,0.4,0.7,0.7,1.1,1c0.4-0.3,0.8-0.6,1.1-1
		c0.2-0.2,0.4-0.4,0.5-0.7c0.1-0.2,0.2-0.5,0.2-0.7c-0.1-0.3-0.3-0.5-0.6-0.6c-0.3-0.1-0.6,0.1-0.8,0.3l0,0
		c-0.2,0.3-0.5,0.4-0.8,0.2c-0.1-0.1-0.2-0.1-0.2-0.2l0,0C25.6,10.2,25.4,10,25.1,10z"/>
	<path class="st0" d="M26.3,28.9l-0.1-0.1c-0.1-0.1-0.2-0.1-0.2-0.2c-0.5-0.3-0.9-0.7-1.3-1.1c-0.2-0.2-0.4-0.5-0.6-0.8
		c-0.3-0.3-0.4-0.8-0.3-1.2c0.1-0.6,0.5-1,1.1-1.1h0.3c0.5,0,0.9,0.2,1.1,0.6c0.2-0.4,0.7-0.6,1.1-0.6h0.3c0.8,0.2,1.3,0.9,1.1,1.7
		c0,0.2-0.2,0.4-0.3,0.6c-0.2,0.3-0.4,0.6-0.6,0.8c-0.4,0.4-0.8,0.8-1.3,1.1c-0.1,0.1-0.2,0.1-0.2,0.2L26.3,28.9z M25.1,25L25.1,25
		c-0.4,0.1-0.6,0.3-0.7,0.6c0,0.3,0,0.5,0.2,0.7c0.1,0.2,0.3,0.5,0.5,0.7c0.3,0.4,0.7,0.7,1.1,1c0.4-0.3,0.8-0.6,1.1-1
		c0.2-0.2,0.4-0.4,0.5-0.7c0.1-0.2,0.2-0.5,0.2-0.7c-0.1-0.3-0.3-0.5-0.6-0.6c-0.3-0.1-0.6,0.1-0.8,0.3l0,0
		c-0.2,0.3-0.5,0.4-0.8,0.2c-0.1-0.1-0.2-0.1-0.2-0.2l0,0C25.6,25.2,25.4,25,25.1,25z"/>
	<path class="st0" d="M26.3,45.2l-0.1-0.1C26.1,45,26,45,26,44.9c-0.5-0.3-0.9-0.7-1.3-1.1c-0.2-0.2-0.4-0.5-0.6-0.8
		c-0.3-0.3-0.4-0.8-0.3-1.2c0.1-0.6,0.5-1,1.1-1.1h0.3c0.5,0,0.9,0.2,1.1,0.6c0.2-0.4,0.7-0.6,1.1-0.6h0.3c0.8,0.2,1.3,0.9,1.1,1.7
		c0,0.2-0.2,0.4-0.3,0.6c-0.2,0.3-0.4,0.6-0.6,0.8c-0.4,0.4-0.8,0.8-1.3,1.1c-0.1,0.1-0.2,0.1-0.2,0.2L26.3,45.2z M25.1,41.4
		L25.1,41.4c-0.4,0.1-0.6,0.3-0.7,0.6c0,0.3,0,0.5,0.2,0.7c0.1,0.2,0.3,0.5,0.5,0.7c0.3,0.4,0.7,0.7,1.1,1c0.4-0.3,0.8-0.6,1.1-1
		c0.2-0.2,0.4-0.4,0.5-0.7c0.1-0.2,0.2-0.5,0.2-0.7c-0.1-0.3-0.3-0.5-0.6-0.6c-0.3-0.1-0.6,0.1-0.8,0.3l0,0
		c-0.2,0.3-0.5,0.4-0.8,0.2c-0.1-0.1-0.2-0.1-0.2-0.2l0,0C25.6,41.5,25.4,41.4,25.1,41.4z"/>
	<path class="st1" d="M48.6,1.7c0.2,0,0.3,0.1,0.3,0.3v51.7c0,0.2-0.1,0.3-0.3,0.3H7.1c-0.2,0-0.3-0.1-0.3-0.3V1.9
		C6.9,1.8,7,1.7,7.1,1.7L48.6,1.7 M48.6,0H7.1c-1.1,0-2,0.9-2,2v51.7c0,1.1,0.9,2,2,2h41.5c1.1,0,2-0.9,2-2V1.9
		C50.6,0.8,49.7,0,48.6,0C48.6,0,48.6,0,48.6,0z"/>
	<path class="st2" d="M44.3,12.1H30.8c-0.1,0-0.2-0.1-0.2-0.2v-1c0-0.1,0.1-0.2,0.2-0.2h13.6c0.1,0,0.2,0.1,0.2,0.2v1
		C44.5,12,44.4,12.1,44.3,12.1z"/>
	<path class="st2" d="M44.3,16.2H24c-0.1,0-0.2-0.1-0.2-0.2v-0.9c0-0.1,0.1-0.2,0.2-0.2h20.3c0.1,0,0.2,0.1,0.2,0.2V16
		C44.5,16.2,44.4,16.2,44.3,16.2z"/>
	<path class="st2" d="M44.3,27.1H30.8c-0.1,0-0.2-0.1-0.2-0.2v-1c0-0.1,0.1-0.2,0.2-0.2h13.6c0.1,0,0.2,0.1,0.2,0.2v1
		C44.5,27,44.4,27.1,44.3,27.1z"/>
	<path class="st2" d="M44.3,31.2H24c-0.1,0-0.2-0.1-0.2-0.2v-0.9c0-0.1,0.1-0.2,0.2-0.2h20.3c0.1,0,0.2,0.1,0.2,0.2V31
		C44.5,31.2,44.4,31.2,44.3,31.2z"/>
	<path class="st2" d="M44.3,43.4H30.8c-0.1,0-0.2-0.1-0.2-0.2v-1c0-0.1,0.1-0.2,0.2-0.2h13.6c0.1,0,0.2,0.1,0.2,0.2v1
		C44.5,43.3,44.4,43.4,44.3,43.4z"/>
	<path class="st2" d="M44.3,47.5H24c-0.1,0-0.2-0.1-0.2-0.2v-0.9c0-0.1,0.1-0.2,0.2-0.2h20.3c0.1,0,0.2,0.1,0.2,0.2v0.9
		C44.5,47.5,44.4,47.5,44.3,47.5z"/>
	<path class="st3" d="M19.1,11.8c0.2-1.5-0.1-4.9-4.4-5c-0.9,0-1.7,0.3-2.3,1c0,0-2.6,0-2.1,4.2c-0.3,0.2-0.5,0.6-0.5,1
		c0,0.6,0.5,1.1,1.1,1.2c0.3,1,0.9,1.9,1.8,2.5c0.4,0.3,0.9,0.5,1.4,0.6c0.2,0,0.4,0.1,0.6,0.1c1,0,1.9-0.4,2.6-1.1l0,0
		c0.6-0.6,1.1-1.3,1.4-2.1c0.7,0,1.3-0.6,1.3-1.3C19.9,12.4,19.6,12,19.1,11.8z M10.3,12.9c0-0.2,0.1-0.4,0.3-0.5
		c0,0.4,0,0.7,0.1,1.1C10.5,13.4,10.3,13.2,10.3,12.9z M16.9,15.9c-2.1,1.8-3.8,0.5-3.9,0.4c-1.2-1-1.9-2.5-1.8-4.1l0,0v-0.1
		c0.7-0.2,1.6-0.5,1.8-1.3c1.5,1.3,3.5,1.9,5.5,1.6C18.4,13.7,17.8,14.9,16.9,15.9z M18.9,13.6c0.1-0.4,0.2-0.8,0.2-1.2
		c0.2,0.1,0.3,0.4,0.3,0.6C19.4,13.3,19.2,13.5,18.9,13.6z"/>
	<path class="st3" d="M19,26.5c0.2-1.1,0.1-2.2-0.4-3.2c-0.3-0.6-0.9-1.2-1.5-1.5c-0.8-0.4-1.7-0.7-2.6-0.6c-0.8,0-1.6,0.4-2,1.1
		c-0.7,0-1.3,0.3-1.6,0.9c0,0.1,0,0.1-0.1,0.1h0c-0.5,0.9-0.4,1.8-0.4,3.2l0.1,1.5c0.2,1.1,0,2.2-0.4,3.2c-0.1,0-0.1,0.1-0.1,0.2
		c0,0.1,0,0.1,0.1,0.1c0.5,0.2,1,0.3,1.5,0.3c0.5,0,0.9-0.1,1.3-0.1c0.4-0.1,0.8-0.3,1.2-0.5c0.2,0,0.4,0.1,0.6,0.1
		c0.2,0,0.4,0,0.6-0.1c0.4,0.2,0.8,0.4,1.2,0.5c0.4,0.1,0.9,0.1,1.3,0.1c0.5,0,1-0.1,1.5-0.3c0.1,0,0.1,0,0.1-0.1
		c0-0.1,0-0.1-0.1-0.2c-0.4-0.5-0.4-1.8-0.4-3.2L19,26.5z"/>
	<path class="st4" d="M18.7,26.4c-0.1,1.4-0.7,2.8-1.7,3.8c-1.1,1.2-2.9,1.4-4.2,0.4c-1.4-1.2-2.1-3-1.8-4.8l2.6-2.9l4.6,1.9
		L18.7,26.4z"/>
	<path class="st3" d="M14.5,31.5c-0.2,0-0.4,0-0.6-0.1c-0.5-0.1-1-0.3-1.4-0.6c-1.5-1.2-2.3-3.2-1.9-5.1v-0.1l2.8-3.1l4.9,2l0.7,1.7
		l0,0c0,1.5-0.7,3-1.8,4l0,0C16.5,31,15.5,31.4,14.5,31.5z M11.1,25.9c-0.3,1.7,0.4,3.4,1.7,4.5c0.1,0.1,1.8,1.4,3.9-0.4
		c1-1,1.5-2.2,1.6-3.6L17.8,25l-4.3-1.7L11.1,25.9z"/>
	<path class="st3" d="M11.1,28.2c-0.7,0-1.3-0.6-1.3-1.3c0-0.7,0.6-1.3,1.3-1.3v0.5c-0.4-0.1-0.8,0.1-0.9,0.5
		c-0.1,0.4,0.1,0.8,0.5,0.9c0.1,0,0.2,0,0.3,0V28.2z"/>
	<path class="st3" d="M18.4,28.2v-0.5c0.4,0.1,0.8-0.1,0.9-0.5c0.1-0.4-0.1-0.8-0.5-0.9c-0.1,0-0.2,0-0.3,0v-0.6
		c0.7,0,1.4,0.6,1.4,1.3c0,0,0,0,0,0C19.8,27.7,19.2,28.2,18.4,28.2C18.4,28.2,18.4,28.2,18.4,28.2z"/>
	<path class="st3" d="M12.9,25.2c1.6,1.5,3.8,2,5.9,1.5c0.2-1,0.6-5.5-4.2-5.6c-0.9,0-1.7,0.3-2.3,1c0,0-2.7,0-2.1,4.5
		C10.4,26.6,12.6,26.5,12.9,25.2z"/>
	<path class="st4" d="M19.6,44.1c-0.1,1.4-0.7,2.8-1.7,3.8c-1.1,1.2-2.9,1.4-4.2,0.4c-1.4-1.2-2.1-3-1.8-4.8v-2l2.7-2.4l4.2,1.2
		l0.3,2.2L19.6,44.1z"/>
	<path class="st3" d="M15.5,49.2c-0.7,0-1.4-0.2-2-0.6c-1.5-1.2-2.3-3.2-1.9-5.1v-2.1l2.9-2.6l4.5,1.3l0.4,2.3L20,44l0,0
		c0,1.5-0.7,3-1.8,4l0,0C17.5,48.8,16.5,49.2,15.5,49.2z M12.1,41.6v1.9l0,0c-0.3,1.7,0.4,3.4,1.7,4.5c0.1,0.1,1.8,1.4,3.9-0.4
		c1-1,1.5-2.2,1.6-3.6l-0.6-1.6l-0.3-2l-3.8-1.1L12.1,41.6z"/>
	<path class="st3" d="M12.1,46c-0.7,0-1.3-0.6-1.3-1.3c0-0.7,0.6-1.3,1.3-1.3c0,0,0,0,0,0v0.5c-0.4-0.1-0.8,0.1-0.9,0.5
		c-0.1,0.4,0.1,0.8,0.5,0.9c0.1,0,0.2,0,0.3,0V46z"/>
	<path class="st3" d="M19.4,46v-0.5c0.4,0.1,0.8-0.1,0.9-0.5c0.1-0.4-0.1-0.8-0.5-0.9c-0.1,0-0.2,0-0.3,0v-0.5
		c0.7-0.1,1.3,0.4,1.4,1c0.1,0.7-0.4,1.3-1,1.4C19.6,46,19.5,46,19.4,46z"/>
	<path class="st3" d="M19.8,44.2v-3.7c0-0.5-0.2-0.9-0.6-1.2c-0.4-0.2-0.9-0.3-1.3-0.2l-1.4-0.5c-1-0.4-2.1-0.4-3.2-0.2
		c-1.2,0.2-2.2,1.2-2.3,2.4c0,0-0.1,0.8,0.4,1.1c0.1-0.1,0.2-0.1,0.3-0.2c0.2,0,0.2,0.1,0.4,0.2c0.9,0.6,2.1,0.9,3.2,0.6
		c0.9-0.2,1.8-0.6,2.4-1.3v0.6c0,1,0.7,1.8,1.7,1.9"/>
</g>
</svg>
