<svg xmlns="http://www.w3.org/2000/svg" width="272" height="170" viewBox="0 0 272 170">
    <defs>
        <radialGradient id="a" cx="57.425%" cy="57.169%" r="51.298%" fx="57.425%" fy="57.169%" gradientTransform="matrix(0 .97612 -1 0 1.146 .011)">
            <stop offset="0%" stop-color="#FFF"/>
            <stop offset="84.763%" stop-color="#E10098"/>
            <stop offset="100%" stop-color="#CF048D"/>
        </radialGradient>
    </defs>
    <g fill="none" fill-rule="evenodd">
        <path fill="#FFF" fill-rule="nonzero" stroke="#81898B" stroke-opacity=".341" stroke-width=".5" d="M15.976 169C7.703 169 1 163.24 1 156.132V13.868C1 6.76 7.703 1 15.976 1h240.048C264.297 1 271 6.76 271 13.868v142.264c0 7.108-6.703 12.868-14.976 12.868H15.976z"/>
        <path fill="#81898B" d="M24.786 53.99v4.833H23.68V53.99H22V53h4.526v.99h-1.74zm5.807 3.715H28.08l-.362 1.118h-1.169L28.486 53h1.66l1.966 5.823h-1.148l-.37-1.118zm-.256-.814l-1.007-3.034-.99 3.034h1.997zm2.263 1.932V53h2.87c.715 0 1.207.124 1.477.371.27.248.405.695.405 1.344 0 .589-.068.991-.203 1.207-.135.216-.411.366-.83.448v.039c.646.04.969.416.969 1.13v1.284h-1.105v-1.062c0-.6-.296-.9-.887-.9h-1.591v1.962H32.6zm1.105-2.892h1.587c.378 0 .629-.068.752-.203.124-.135.186-.406.186-.813 0-.415-.053-.683-.16-.804-.107-.12-.34-.181-.702-.181h-1.663v2zm8-2.931v4.019c0 .748-.124 1.244-.371 1.488-.248.245-.751.367-1.51.367-.808 0-1.332-.118-1.573-.354-.24-.236-.36-.752-.36-1.548l.013-.431h1.053c.017.216.026.378.026.486 0 .103.004.226.013.371.017.353.297.53.84.53.324 0 .533-.064.625-.19.093-.127.139-.412.139-.856V53h1.105zm1.998.93v1.502h2.73v.814h-2.73v1.647h2.905v.93h-4.01V53h3.984v.93h-2.88zm6.033.06v4.833h-1.105V53.99h-1.68V53h4.526v.99h-1.74zm5.808 3.715H53.03l-.363 1.118H51.5L53.436 53h1.66l1.966 5.823h-1.147l-.371-1.118zm-.256-.814l-1.007-3.034-.99 3.034h1.997zM63.464 53h1.105v3.874c0 .81-.156 1.346-.467 1.608-.312.262-.948.392-1.91.392-1.015 0-1.68-.123-1.996-.37-.315-.248-.473-.77-.473-1.566V53h1.105v3.938c0 .429.076.701.23.816.154.116.515.173 1.084.173.583 0 .949-.058 1.098-.175.15-.116.224-.402.224-.857V53zm7.514 0v5.823h-1.873l-1.664-3.195c-.082-.16-.211-.438-.388-.836l-.187-.418-.184-.418h-.043l.017.383.013.38.009.764v3.34h-1.105V53h1.873l1.514 2.952c.134.262.289.579.465.951l.222.474.222.478h.038l-.025-.751-.009-.75V53h1.105zm2.113 0v5.823h-1.105V53h1.105zm4.745 0h1.17l-1.878 5.823H75.43L73.57 53h1.148l1.092 3.298c.102.315.254.844.456 1.587h.03l.111-.397c.137-.495.253-.89.35-1.186L77.837 53zm2.625.93v1.502h2.73v.814h-2.73v1.647h2.905v.93h-4.01V53h3.985v.93h-2.88zm3.713 4.893V53h2.871c.714 0 1.206.124 1.476.371.27.248.405.695.405 1.344 0 .589-.067.991-.202 1.207-.135.216-.412.366-.83.448v.039c.646.04.968.416.968 1.13v1.284h-1.104v-1.062c0-.6-.296-.9-.888-.9H85.28v1.962h-1.105zm1.105-2.892h1.587c.378 0 .63-.068.753-.203.124-.135.185-.406.185-.813 0-.415-.053-.683-.16-.804-.106-.12-.34-.181-.701-.181h-1.664v2zm8.832-1.233h-1.08a1.269 1.269 0 0 1-.008-.12c-.025-.327-.098-.532-.217-.616-.12-.084-.401-.126-.845-.126-.523 0-.865.048-1.026.145-.16.097-.241.3-.241.61 0 .367.065.587.196.661.131.074.563.131 1.297.171.868.048 1.429.172 1.683.371.255.2.382.613.382 1.242 0 .773-.15 1.273-.448 1.5-.299.225-.957.338-1.975.338-.916 0-1.524-.11-1.824-.332-.3-.222-.45-.672-.45-1.349l-.004-.213h1.075l.004.124c0 .407.071.655.213.746.142.091.53.137 1.165.137.495 0 .81-.053.947-.158.136-.105.205-.348.205-.73 0-.28-.052-.468-.156-.56-.104-.093-.328-.149-.672-.169l-.61-.038c-.921-.054-1.51-.182-1.766-.384s-.384-.636-.384-1.301c0-.68.154-1.133.463-1.36.308-.225.925-.338 1.85-.338.875 0 1.465.104 1.77.311.304.208.456.613.456 1.216v.222zM96.11 53v5.823h-1.105V53h1.105zm3.337.99v4.833h-1.105V53.99h-1.68V53h4.526v.99h-1.74zm5.808 3.715h-2.513l-.363 1.118h-1.168L103.146 53h1.66l1.967 5.823h-1.148l-.371-1.118zm-.256-.814l-1.007-3.034-.99 3.034h1.997zm2.262 1.932V53h2.871c.714 0 1.206.124 1.476.371.27.248.406.695.406 1.344 0 .589-.068.991-.203 1.207-.135.216-.412.366-.83.448v.039c.646.04.969.416.969 1.13v1.284h-1.105v-1.062c0-.6-.296-.9-.888-.9h-1.59v1.962h-1.106zm1.105-2.892h1.587c.378 0 .63-.068.753-.203.124-.135.186-.406.186-.813 0-.415-.054-.683-.16-.804-.107-.12-.34-.181-.702-.181h-1.664v2zM113.981 53v5.823h-1.105V53h1.105zm4.54 4.705h-2.513l-.362 1.118h-1.17L116.415 53h1.66l1.966 5.823h-1.148l-.371-1.118zm-.256-.814l-1.007-3.034-.99 3.034h1.997zM64.782 62.666v.425h-.898v1.172c0 .216.082.324.246.324.181 0 .271-.13.271-.393v-.092h.476v.117c0 .107-.003.2-.01.276-.03.356-.296.534-.795.534-.498 0-.747-.228-.747-.686v-1.252h-.303v-.425h.303v-.522h.559v.522h.898zm2.467 0V65h-.56l.032-.4-.01-.003c-.108.287-.359.43-.751.43-.53 0-.794-.265-.794-.794v-1.567h.56v1.433c0 .199.027.33.082.392.056.063.17.094.345.094.358 0 .537-.215.537-.645v-1.274h.559zm2.357-.999v1.385l.012.002c.105-.276.344-.415.718-.415.545 0 .818.258.818.774V65h-.559v-1.509c0-.273-.14-.41-.417-.41-.381 0-.572.198-.572.593V65h-.559v-3.333h.56zm2.647 0v.467h-.559v-.467h.56zm0 .999V65h-.559v-2.334h.56zm2.489.642h-.547l-.007-.044c-.012-.112-.044-.182-.097-.21-.052-.027-.18-.041-.384-.041-.291 0-.437.094-.437.283 0 .128.026.205.077.23.051.024.225.043.521.058.399.02.658.072.779.159.12.086.18.263.18.53 0 .284-.08.482-.24.592-.16.11-.448.164-.863.164-.399 0-.671-.05-.818-.149-.146-.099-.22-.284-.22-.556v-.059h.581a.518.518 0 0 0-.014.078c-.023.207.136.31.478.31.353 0 .53-.102.53-.307 0-.197-.11-.296-.332-.296-.5 0-.829-.047-.987-.141-.16-.095-.239-.29-.239-.589 0-.267.073-.447.218-.542.145-.094.423-.141.835-.141.389 0 .65.045.785.136.134.092.201.27.201.535zm2.022-.642v.425h-.898v1.172c0 .216.082.324.246.324.181 0 .271-.13.271-.393v-.092h.476v.117c0 .107-.003.2-.01.276-.03.356-.295.534-.795.534-.498 0-.747-.228-.747-.686v-1.252h-.303v-.425h.303v-.522h.559v.522h.898zm1.42-.027c.45 0 .746.072.886.216.14.144.21.448.21.912 0 .518-.069.857-.205 1.018-.137.161-.425.242-.865.242-.477 0-.785-.075-.926-.225-.141-.15-.211-.48-.211-.989 0-.49.069-.808.207-.954.139-.147.44-.22.903-.22zm-.005.442c-.233 0-.381.042-.445.126-.063.084-.095.28-.095.587 0 .352.03.571.09.66.06.087.211.131.452.131.233 0 .38-.046.44-.14.062-.092.092-.315.092-.668 0-.298-.031-.488-.095-.571-.063-.083-.21-.125-.44-.125zm1.573-.415h.559l-.034.327.012.003a.668.668 0 0 1 .63-.367c.41 0 .615.26.615.777v.163h-.528c.007-.063.01-.105.01-.124 0-.25-.097-.374-.29-.374-.277 0-.415.185-.415.554V65h-.56v-2.334zm2.642-.999v.467h-.56v-.467h.56zm0 .999V65h-.56v-2.334h.56zm1.121.676h-.571c0-.28.065-.467.195-.561.13-.095.389-.142.774-.142.42 0 .704.058.852.173.148.116.222.337.222.662V65h-.559l.027-.32-.014-.002c-.108.232-.356.349-.745.349-.565 0-.847-.24-.847-.72 0-.485.289-.728.867-.728.385 0 .62.089.703.266h.01v-.378c0-.182-.032-.303-.096-.363-.063-.06-.193-.089-.39-.089-.285 0-.428.11-.428.327zm.374.613c-.316 0-.474.11-.474.327 0 .152.033.25.098.298.065.047.202.07.41.07.34 0 .51-.114.51-.343 0-.235-.181-.352-.544-.352zm4.374.154h.557v.08l-.035.354c-.068.323-.402.484-1 .484-.44 0-.732-.08-.877-.238-.145-.159-.217-.478-.217-.958 0-.47.072-.785.217-.948.145-.162.426-.244.845-.244.403 0 .677.06.82.177.143.118.215.342.215.673h-.554c0-.272-.157-.408-.472-.408-.223 0-.363.043-.42.13-.056.086-.085.297-.085.634 0 .326.031.53.094.614.063.084.216.126.46.126.192 0 .316-.029.37-.087.055-.057.082-.187.082-.39zm1.983-1.47c.45 0 .746.072.886.216.14.144.21.448.21.912 0 .518-.068.857-.205 1.018-.137.161-.425.242-.864.242-.477 0-.786-.075-.927-.225-.14-.15-.21-.48-.21-.989 0-.49.068-.808.207-.954.138-.147.44-.22.903-.22zm-.005.442c-.233 0-.38.042-.444.126-.064.084-.095.28-.095.587 0 .352.03.571.09.66.06.087.21.131.452.131.232 0 .38-.046.44-.14.061-.092.092-.315.092-.668 0-.298-.032-.488-.095-.571-.064-.083-.21-.125-.44-.125zm1.559-.415h.559l-.015.359.012.002c.114-.258.352-.388.713-.388.422 0 .656.144.703.432h.01c.11-.288.35-.432.72-.432.54 0 .81.272.81.816V65h-.558v-1.423c0-.33-.136-.496-.408-.496-.34 0-.51.185-.51.554V65h-.56v-1.445c0-.194-.025-.321-.076-.382-.052-.061-.16-.092-.326-.092-.344 0-.515.189-.515.566V65h-.56v-2.334zm4.634-.999v.467h-.559v-.467h.56zm0 .999V65h-.559v-2.334h.56zm2.044 1.587h.562v.09c0 .456-.342.684-1.026.684-.463 0-.767-.08-.91-.237-.143-.158-.215-.492-.215-1.003 0-.454.075-.76.225-.916.15-.156.441-.234.876-.234.417 0 .696.076.837.228.142.152.213.451.213.897v.171h-1.58a2.113 2.113 0 0 0-.005.103c0 .23.036.382.107.459.07.076.212.114.423.114.205 0 .339-.022.4-.067.062-.045.093-.141.093-.29zm.005-.662l-.002-.092c0-.186-.032-.306-.097-.362-.064-.055-.204-.083-.418-.083-.209 0-.344.034-.407.1-.063.067-.094.213-.094.437h1.018zm1.014-.925h.554l-.022.393.013.003c.109-.282.353-.423.732-.423.552 0 .828.257.828.772V65h-.56v-1.494l-.012-.164c-.026-.174-.162-.26-.41-.26-.376 0-.564.177-.564.534V65h-.559v-2.334zm2.567 0h1.819v.481l-1.25 1.428h1.25V65h-1.917v-.49l1.238-1.42h-1.14v-.424zm2.767.676h-.572c0-.28.065-.467.196-.561.13-.095.388-.142.774-.142.42 0 .704.058.852.174.148.115.222.336.222.661V65h-.56l.028-.32-.015-.002c-.107.232-.356.349-.745.349-.564 0-.847-.24-.847-.72 0-.485.29-.728.867-.728.386 0 .62.089.703.266h.01v-.378c0-.182-.032-.303-.095-.363-.064-.06-.194-.089-.391-.089-.285 0-.427.11-.427.327zm.373.613c-.316 0-.473.11-.473.327 0 .152.032.25.097.298.065.047.202.07.41.07.34 0 .51-.114.51-.343 0-.235-.18-.352-.544-.352zm3.469-.613h-.572c0-.28.065-.467.196-.561.13-.095.388-.142.773-.142.42 0 .704.058.853.174.148.115.222.336.222.661V65h-.56l.027-.32-.014-.002c-.108.232-.356.349-.745.349-.565 0-.847-.24-.847-.72 0-.485.289-.728.867-.728.385 0 .62.089.703.266h.01v-.378c0-.182-.032-.303-.096-.363-.063-.06-.193-.089-.39-.089-.285 0-.427.11-.427.327zm.373.613c-.316 0-.474.11-.474.327 0 .152.033.25.098.298.065.047.202.07.41.07.34 0 .51-.114.51-.343 0-.235-.181-.352-.544-.352zm2.205-2.288v1.385l.013.002c.104-.276.343-.415.717-.415.546 0 .818.258.818.774V65h-.559v-1.509c0-.273-.139-.41-.417-.41-.381 0-.572.198-.572.593V65h-.559v-3.333h.56zm3.114.972c.45 0 .746.072.886.216.14.144.21.448.21.912 0 .518-.068.857-.205 1.018-.137.161-.425.242-.864.242-.477 0-.786-.075-.927-.225-.14-.15-.21-.48-.21-.989 0-.49.068-.808.207-.954.138-.147.44-.22.903-.22zm-.005.442c-.233 0-.38.042-.444.126-.064.084-.095.28-.095.587 0 .352.03.571.09.66.06.087.21.131.451.131.233 0 .38-.046.441-.14.061-.092.092-.315.092-.668 0-.298-.032-.488-.095-.571-.064-.083-.21-.125-.44-.125zm1.573-.415h.56l-.035.327.012.003a.668.668 0 0 1 .63-.367c.41 0 .615.26.615.777v.163h-.527c.006-.063.01-.105.01-.124 0-.25-.097-.374-.29-.374-.278 0-.416.185-.416.554V65h-.559v-2.334zm2.664.676h-.57c0-.28.064-.467.194-.561.13-.095.389-.142.774-.142.42 0 .704.058.852.174.149.115.223.336.223.661V65h-.56l.027-.32-.014-.002c-.108.232-.356.349-.745.349-.565 0-.847-.24-.847-.72 0-.485.289-.728.867-.728.385 0 .62.089.703.266h.01v-.378c0-.182-.032-.303-.096-.363-.063-.06-.193-.089-.39-.089-.285 0-.428.11-.428.327zm.374.613c-.316 0-.474.11-.474.327 0 .152.033.25.098.298.065.047.202.07.41.07.34 0 .51-.114.51-.343 0-.235-.181-.352-.544-.352z"/>
        <g fill="#E10098">
            <path d="M92.937 42.75c0-.383.301-.69.699-.69h1.044v-1.125h-1.238c-.941 0-1.685.73-1.685 1.628v5.475h1.18V42.75zM74.59 48.038h1.18v-7.123h-1.18zM101.213 44.336c0 1.455-1.237 2.64-2.759 2.64-1.52 0-2.757-1.185-2.757-2.64 0-1.454 1.236-2.639 2.757-2.639 1.522 0 2.759 1.185 2.759 2.64zm6.702 0c0 1.455-1.238 2.64-2.76 2.64-1.52 0-2.759-1.185-2.759-2.64 0-1.454 1.238-2.639 2.76-2.639 1.521 0 2.76 1.185 2.76 2.64zm6.7 0c0 1.455-1.237 2.64-2.758 2.64-1.522 0-2.758-1.185-2.758-2.64 0-1.454 1.236-2.639 2.758-2.639 1.521 0 2.758 1.185 2.758 2.64zM94.517 50.77h1.19v-3.737a4.013 4.013 0 0 0 2.747 1.07c1.417 0 2.658-.716 3.35-1.789.694 1.073 1.936 1.789 3.351 1.789s2.66-.716 3.35-1.789c.694 1.073 1.935 1.789 3.352 1.789 2.174 0 3.936-1.686 3.936-3.766s-1.762-3.765-3.936-3.765c-1.417 0-2.658.716-3.351 1.79-.691-1.074-1.936-1.79-3.35-1.79-1.416 0-2.658.716-3.351 1.79-.693-1.074-1.934-1.79-3.35-1.79-2.175 0-3.938 1.686-3.938 3.765v6.433zM89.9 43.508h-5.326c.394-1.128 1.477-1.85 2.666-1.85 1.188 0 2.266.722 2.66 1.85zm1.122 1.71h-1.14c-.394 1.076-1.45 1.798-2.642 1.798-1.449 0-2.653-1.043-2.794-2.46h6.688v-.22c0-2.054-1.748-3.725-3.894-3.725-2.149 0-3.897 1.67-3.897 3.725 0 2.054 1.748 3.727 3.897 3.727 1.81 0 3.357-1.167 3.782-2.844zM80.744 48.038l2.954-7.123h-1.346l-2.378 5.733-2.377-5.733h-1.345l2.953 7.123zM116.377 48.038h1.18v-9.565h-1.18zM70.533 38.474v7.772c.004.386.237.688.698.688h2.9v1.103h-3.996c-.504 0-.796-.295-.796-.721v-8.842h1.194zM119.684 39.173c.104 0 .173-.038.173-.121 0-.073-.062-.12-.15-.12h-.218v.24h.195zm-.33-.35h.368c.208 0 .277.124.277.21 0 .13-.096.223-.236.23v.005c.071.023.123.092.192.199l.102.155h-.163l-.075-.124c-.106-.18-.146-.215-.248-.215h-.082v.34h-.135v-.8zm-.305.388c0 .342.288.621.645.621.358 0 .65-.279.65-.621 0-.343-.292-.62-.65-.62a.632.632 0 0 0-.645.62zm-.13 0c0-.412.346-.741.775-.741.43 0 .779.33.779.74 0 .412-.348.746-.779.746-.429 0-.776-.334-.776-.745zM74.589 39.616h1.18v-1.142h-1.18z"/>
        </g>
        <path fill="#E10098" d="M20.453 18.435v11.854c-.215 3.852 1.667 5.778 5.648 5.778h13.32v-4.519h-9.895c-2.284.19-3.425-.836-3.425-3.078V18.435h-5.648zM41.405 18.055h5.417v17.93h-5.417zM48.039 18.018l10.774 17.205c.261.575 1.102.863 2.523.863 1.42 0 2.329-.288 2.724-.863l10.69-17.205h-6.4l-6.955 12.048-7.032-12.048H48.04zM94.889 17.957h-13.88c-3.443.075-5.165 1.53-5.165 4.366v8.624c-.07 2.764 1.653 4.146 5.165 4.146h13.997V31.05H80.192V28.54h13.334v-3.92H80.035v-2.352h14.854v-4.31zM97.038 18h18.416c2.299-.02 3.448 1.404 3.448 4.272 0 2.49-.804 3.87-2.414 4.143l4.936 8.362h-6.045l-3.178-6.794h-10.43v7.21H97V24.56h15.576c.836-.217 1.255-.612 1.255-1.185 0-.858-.236-1.544-1.255-1.544H97.034l.004-3.83z"/>
        <path fill="#7E3578" d="M123.329 12.136V31.11c-.072 2.529 1.158 3.793 3.69 3.793h4.551v-4.338h-3.374c-.785.095-1.178-.213-1.178-.926v-8.686h4.214v-3.839H127v-4.978h-3.672zM133.354 16.93v10.6c.222 4.873 3.265 7.31 9.129 7.31 5.864 0 9-2.437 9.406-7.31V17.071h-4.413v9.69c.03 2.509-1.589 3.763-4.854 3.763-3.266 0-5.084-1.254-5.454-3.763V16.93h-3.814z"/>
        <path fill="#E10098" d="M140.902 17.34l4.752-5.943 1.025 3.97-2.889 1.973z"/>
        <path fill="#7E3578" d="M141.794 36.666h2.363v3.356l6.563-1.678v1.678l-14.783 5.244V42.02l5.857-1.512zM141.447 44.822l3.07-1.067 4.387 5.182-3.293 2.842-2.102-5.132-.983.443v8.054l-4.388 3.766z"/>
        <path fill="url(#a)" d="M229.522 0C222 7.181 220.12 16.87 223.88 29.068c5.642 18.296 25.565 22.128 33.082 18.296 5.011-2.556 9.203-7.481 12.576-14.777V14.94C269.779 4.979 264.678 0 254.234 0h-24.712z" transform="translate(1 1)"/>
    </g>
</svg>
