
<svg xmlns="http://www.w3.org/2000/svg" viewBox="0.9 373.2 610 45.6" width="144" height="10" enable-background="new 0.9 373.2 610 45.6">
    <path fill="url(#largeGradient)" d="M25.1 384.4c0 8-8.4 8.6-12 8.6-1.8 0-3.1-.1-3.1-.1v-16s1.7-.1 4.9-.1c4.9 0 10.2 2.1 10.2 7.6zm11 21.1c0-10.5-14.7-11.4-14.7-11.4s10-2.6 10-10.1c0-8.5-11.3-9.8-16.4-9.8H.9c1.3.5 2.1 1.4 2.1 2.8v37.6c0 1.4-.7 2.3-2.1 2.9h16c16 0 19.2-7 19.2-12zm-7.1-.6c0 9.5-10.8 10.1-15.5 10.1-2.2 0-3.5-.1-3.5-.1V396s3.6-.1 5.9-.1c6.2-.1 13.1 1.5 13.1 9zm462-20.5c0 8-8.4 8.6-12 8.6-1.8 0-3.1-.1-3.1-.1v-16s1.7-.1 4.9-.1c4.9 0 10.2 2.1 10.2 7.6zm11 21.1c0-10.5-14.7-11.4-14.7-11.4s10-2.6 10-10.1c0-8.5-11.3-9.8-16.4-9.8h-14.1c1.3.5 2.1 1.4 2.1 2.8v37.6c0 1.4-.7 2.3-2.1 2.9h16c16 0 19.2-7 19.2-12zm-7.1-.6c0 9.5-10.8 10.1-15.5 10.1-2.2 0-3.5-.1-3.5-.1V396s3.6-.1 5.9-.1c6.3-.1 13.1 1.5 13.1 9zm-427.8-3H50.4c3.3-6.9 8.3-17.8 8.3-17.8s4.6 9.8 8.4 17.8zm17.7 15.6c-2.6-1-3.1-1.8-3.7-3.1-1.2-2.4-20.3-41.2-20.3-41.2S41.7 412 40.4 414.4c-.7 1.2-1.3 1.9-3.4 3.1h9.1c-1.9-.6-2.1-1.7-1.6-3.1.3-.8 2.2-5 4.7-9.8h19.2c2.3 4.9 4.4 9 4.8 9.8.6 1.5.1 2.4-1.9 3.1h13.5zm44-40.4v41.6s-35.4-36.8-35.4-37.4v33.4c0 1.4.8 2.3 2.1 2.9H88c1.1-.6 1.9-1.5 1.9-2.9v-35.1c0-1.8 0-2-.9-3-.8-.8-1.7-1.7-3.4-2.3h10.2l29.4 31v-28.1c0-1.5-.8-2.4-1.9-2.9h7.5c-1.2.4-2 1.3-2 2.8zm34.4 24.8h-16.7c3.3-6.9 8.3-17.8 8.3-17.8s4.6 9.8 8.4 17.8zm17.7 15.6c-2.6-1-3.1-1.8-3.7-3.1-1.2-2.4-20.3-41.2-20.3-41.2s-19.1 38.8-20.3 41.2c-.7 1.2-1.3 1.9-3.4 3.1h9.1c-1.9-.6-2.2-1.6-1.6-3.1.3-.8 2.2-5 4.7-9.8h19.2c2.3 4.9 4.4 9 4.8 9.8.6 1.5.1 2.4-1.9 3.1h13.4zm44.3-40.4v41.6s-35.4-36.8-35.4-37.4v33.4c0 1.4.7 2.3 2.1 2.9h-7.5c1.1-.6 1.9-1.5 1.9-2.9v-35.1c0-1.8 0-2-.9-3-.8-.8-1.7-1.7-3.4-2.3h10.2l29.4 31v-28.1c0-1.5-.8-2.4-1.9-2.9h7.5c-1.2.4-2 1.3-2 2.8zm33.7 24.8h-16.7c3.3-6.9 8.3-17.8 8.3-17.8s4.5 9.7 8.4 17.8zm17.6 15.6c-2.6-1-3.1-1.8-3.7-3.1-1.2-2.4-20.3-41.2-20.3-41.2s-19.1 38.8-20.3 41.2c-.7 1.2-1.3 1.9-3.4 3.1h9.1c-1.9-.6-2.1-1.7-1.6-3.1.3-.8 2.2-5 4.7-9.8h19.2c2.3 4.9 4.4 9 4.8 9.8.6 1.5.1 2.4-1.9 3.1h13.4zm47-32.5c0 6.7-5.6 9.6-11.2 9.6-1.9 0-4.3-.1-4.3-.1V377s2.2-.2 5.6-.2c7.8-.1 9.9 5.2 9.9 8.2zm18.9 32.5s-3.1-1-4.8-2.5c-3.2-3-11.1-14.7-11.1-14.7-1.1-1.4-3.2-4.1-7.2-4.8 4.6-.3 10.9-3.8 10.9-10.7 0-4-2.3-10.6-17.2-10.6h-14c1.1.5 2 1.3 2 2.8v37.6c0 1.4-.9 2.3-2 2.9h11.1c-1.1-.6-2.1-1.5-2.1-2.9v-17.5h4.3c3.9 0 5.4 2.7 7.4 5.3 2.6 3.6 5.3 7.5 9.1 12.2 1.1 1.3 3.2 2.9 6.1 2.9h7.5zm34.2 0h-29.9c1.3-.6 2.2-1.3 2.2-2.9v-37.5c0-1.5-.9-2.4-2.1-2.9h27.9l.1 4.9c-1.5-1.5-3-2.2-6.2-2.2h-12.8v15.2H368c1 0 2.2-1 2.6-1.8v6.2c-.4-.8-1.6-1.8-2.6-1.8h-12.1v20h8.6c8-.1 10.8-.1 13.6-4.1l-1.5 6.9zm34.3-31.3c0 8.7-8.7 9.9-12.7 9.9-1.5 0-3-.2-3.6-.4V377s1.6-.2 5-.2c7.5-.1 11.3 3.5 11.3 9.4zm6.4-.2c0-5-2.7-11.8-17.5-11.8h-14.2c1.1.5 2.1 1.4 2.1 2.9v37.6c0 1.4-1 2.3-2.1 2.9h11.1c-1.3-.6-2.1-1.5-2.1-2.9v-17c5.7 2 12.4.5 14.7-.4 2.3-.9 8-4.3 8-11.3zm42.6-8.9v26.7c-.1 10.5-7.9 14.3-17.1 14.3-8.2 0-18.6-3.5-18.6-14.2v-26.8c0-1.5-1.2-2.4-2.3-2.9h11.9c-1.2.5-2.4 1.4-2.4 2.9V404c0 4.4 1.8 11.1 12.2 11.1 9.9 0 13.2-5.4 13.1-11.1v-26.9c0-1.5-.7-2.4-1.9-2.9h7.2c-1.3.5-2.1 1.4-2.1 2.9zm78 40.4h-29.6c1.3-.6 2.1-1.5 2.1-2.9v-37.5c0-1.5-.8-2.4-2.1-2.9h11.1c-1.2.5-2 1.4-2 2.9v37.7h7.9c8.9-.1 11.4-.2 14-4.1l-1.4 6.8zm8 0c1.2-.6 2-1.5 2-2.9V377c0-1.5-.8-2.4-2-2.9h11c-1.1.5-1.9 1.4-1.9 2.9v37.6c0 1.4.8 2.3 1.9 2.9h-11zm64.3-3.8c-6.2 3.2-13.1 4.4-18.7 4.4-14.7 0-27.6-8.8-27.6-22.2 0-10.8 9.6-22.4 28.5-22.4 6.2 0 11.7 1.5 17.5 3.7 0 0 .8 9.7.7 9.4-4.7-9.4-14-10.4-17.6-10.4-14.2 0-21.5 8.5-21.5 18.9 0 9.2 5.9 20.2 21.4 20.2 3.3 0 12.4-.2 18-10.3.1-.3-.7 8.7-.7 8.7z" />
    <path d="M.9 374.2h609.6v43.3H.9zm0 0" fill="none" />
    <linearGradient id="largeGradient" x2="0%" y2="0%" gradientTransform="rotate(1)">
        <stop offset="0%" stop-color="#d4b258"></stop>
        <stop offset="80%" stop-color="#fff"></stop>
        <stop offset="88%" stop-color="#fff"></stop>
        <stop offset="96%" stop-color="#d4b258"></stop>
        <animate attributeName="x2" dur="5s" from="0%" to="500%" values="0%; 100%; 250%; 500%;" repeatCount="indefinite" />
    </linearGradient>
</svg>
