<svg id="Layer_1" data-name="Layer 1" xmlns="http://www.w3.org/2000/svg" viewBox="0 0 663.01 97.58"><defs><style>.cls-1{fill:#111642;fill-opacity:0;fill-rule:evenodd;}</style></defs><title>brand</title><path id="FORWARD" class="cls-1" d="M80.07,353.43H65v-92h49.37v14.93H79.92V296.6h34.45v14.93H79.92v41.9ZM69.74,348.7h5.45V306.79h34.44v-5.31H75.19V271.63h34.44v-5.31H69.74V348.7Zm255.72,4.73H306.52l-30.85-39.75v39.75H260.6v-92h20.23q14.64,0,20.24,1.3a28.64,28.64,0,0,1,10.19,4.59,22.24,22.24,0,0,1,6.88,8.61,27,27,0,0,1-5.74,30.56c-4.44,3.88-10.62,6.18-18.22,6.89Zm-16.64-4.73h6.88l-30.85-39.76h4.88c8.61,0,15.36-2,19.8-5.88s6.6-9,6.6-15.5a22.71,22.71,0,0,0-2-9.33,19.76,19.76,0,0,0-5.46-6.88,21.78,21.78,0,0,0-8.46-3.88c-3.45-.72-9.76-1.15-19.09-1.15h-15.5v82.52h5.45V309.09h7.18ZM288,303.63H270.93V271.49h16.65c7.46,0,12.91,1.15,16.64,3.73,4,2.58,5.89,6.89,5.89,12.49s-2,9.9-6,12.48c-3.73,2.3-8.9,3.44-16.07,3.44Zm-12.34-4.73h11.62c6.46,0,11.34-.86,14.21-2.73,2.58-1.72,3.87-4.45,3.87-8.46s-1.29-6.75-3.87-8.47c-2.87-1.87-7.61-2.87-13.92-2.87H275.67V298.9Zm148.67,56.68h-6.46l-23.25-61-23.68,61h-6.31l-25.83-94.14h15.64L369.81,318l21.81-56.55h6.17l21.67,56.69,15.78-56.69h15.65Zm-29.71-74.19,26.12,68.74,23.54-83.95h-5.74l-18.66,67.16-25.4-66.59L368.8,333.2l-18.22-67h-5.74L367.94,350Zm153.27,72H531.82L518.33,324.3h-33L472,353.43H455.34L498.82,258H505Zm-13.06-4.73h5.59l-38.6-86-39.18,86h6.18l13.34-29.14h39.18Zm-15.93-34.88h-34L502,276.23Zm-26.69-4.73h19.23l-9.62-21.24Zm138,44.34H611.33l-30.86-39.75v39.75H565.4v-92h20.24q14.64,0,20.23,1.3a28.56,28.56,0,0,1,10.19,4.59,22.27,22.27,0,0,1,6.89,8.61,26.37,26.37,0,0,1,2.58,11.48,24,24,0,0,1-8.18,19.08c-4.45,3.88-10.62,6.18-18.22,6.89Zm-16.65-4.73h6.89l-30.85-39.76h4.88c8.61,0,15.35-2,19.8-5.88a19.33,19.33,0,0,0,6.6-15.5,22.71,22.71,0,0,0-2-9.33,19.73,19.73,0,0,0-5.45-6.88,21.75,21.75,0,0,0-8.47-3.88c-3.44-.72-9.76-1.15-19.08-1.15H570.14v82.52h5.45V309.09h7.18Zm-20.81-45.07H575.74V271.49h16.64c7.47,0,12.92,1.15,16.65,3.73,4,2.58,6,6.89,6,12.49s-2,9.9-6,12.48c-3.87,2.3-9,3.44-16.22,3.44Zm-12.34-4.73H592.1c6.45,0,11.33-.86,14.2-2.73,2.59-1.72,3.88-4.45,3.88-8.46s-1.29-6.75-3.88-8.47c-2.87-1.87-7.6-2.87-13.92-2.87H580.47V298.9Zm99.45,54.53H649.36v-92h20.95c12.91,0,22.1,1,28.27,2.87a41,41,0,0,1,26,24.4A54.94,54.94,0,0,1,728,309.09a48.47,48.47,0,0,1-5.17,22,39.09,39.09,0,0,1-14.92,16.36q-9.92,6-28,6Zm-25.83-4.73h25.83c11.2,0,19.81-1.73,25.4-5.17a35.39,35.39,0,0,0,13.21-14.35,43.39,43.39,0,0,0,4.73-19.8,51.44,51.44,0,0,0-3.16-18.66,36,36,0,0,0-9-13.49,38,38,0,0,0-13.92-8.18c-5.45-1.72-14.49-2.73-26.69-2.73H654.23l-.14,82.38Zm16.65-5H659.26V271.49h7.6a123.14,123.14,0,0,1,23,1.58,35.77,35.77,0,0,1,14.78,6.46A31.78,31.78,0,0,1,714.36,292a37.8,37.8,0,0,1,3.3,16.36A39.12,39.12,0,0,1,714.79,324a30.78,30.78,0,0,1-8.46,11.63,30.28,30.28,0,0,1-13.06,6.45c-4.74,1-12.2,1.58-22.53,1.58ZM664,338.94h6.75c9.9,0,17.07-.43,21.52-1.44a24.93,24.93,0,0,0,11-5.45,26,26,0,0,0,7.18-9.9,38.5,38.5,0,0,0-.43-28.27A27.59,27.59,0,0,0,689,277.8a128.23,128.23,0,0,0-22.1-1.43H664v62.57ZM183.54,304.35l-44.92-40.18v83.95Zm52.52,0-44.92-40.18v83.95Z" transform="translate(-65 -258)"/></svg>