<?xml version="1.0" encoding="utf-8"?>
<!-- Generator: Adobe Illustrator 23.0.1, SVG Export Plug-In . SVG Version: 6.00 Build 0)  -->
<svg version="1.1" id="Layer_1" xmlns="http://www.w3.org/2000/svg" xmlns:xlink="http://www.w3.org/1999/xlink" x="0px" y="0px"
	 viewBox="0 0 259.8 253.2" style="enable-background:new 0 0 259.8 253.2;" xml:space="preserve">
<style type="text/css">
	.st0{opacity:0.4;fill:#E6E7E8;enable-background:new    ;}
	.st1{fill:#FCFCFC;}
	.st2{fill:#FEFEFE;}
	.st3{fill:none;}
</style>
<title>bomberg</title>
<ellipse class="st0" cx="129.9" cy="126.6" rx="111.9" ry="109"/>
<g>
	<path d="M65.9,109.6c0.1-0.2,0.3-0.2,0.4-0.1c0.1,0.1,0.2,0.2,0.3,0.3c4.2,4.2,8.4,8.4,12.5,12.6c0.3,0.3,0.5,0.3,0.8,0
		c4.2-4.2,8.4-8.4,12.5-12.5c0.1-0.1,0.2-0.2,0.3-0.3c0.3-0.1,0.4,0,0.5,0.3c0,0.1,0,0.2,0,0.3c0,7.7,0,15.4,0,23.1
		c0,0.4-0.1,0.5-0.5,0.5c-2,0-4,0-6,0c-0.1-0.2,0-0.3,0-0.5c0-2.8,0-5.6,0-8.3c0-0.1,0-0.3,0-0.4c-0.2,0-0.3,0.2-0.4,0.3
		c-2.1,2.1-4.3,4.3-6.4,6.4c-0.4,0.4-0.6,0.4-1,0c-2.2-2.2-4.4-4.4-6.7-6.7c-0.1,0.1-0.1,0.3-0.1,0.4c0,2.8,0,5.6,0,8.5
		c0,0.3-0.1,0.4-0.4,0.4c-2,0-4,0-6,0c-0.1-0.1,0-0.3,0-0.4c0-7.7,0-15.5,0-23.2C65.8,109.9,65.8,109.8,65.9,109.6z"/>
	<path d="M107.6,109.1c0.2,0,0.4,0,0.5,0c0.5,0,1.1,0,1.6,0c0.2,0,0.4,0,0.5,0c0.1,0.1,0.3,0,0.5,0.1c1.4,0.3,2.8,0.6,4,1.3
		c3.4,1.8,5.5,4.6,6.4,8.3c0.1,0.6,0.2,1.2,0.3,1.8c0,0.7,0,1.4,0,2c-0.2,2.3-1,4.4-2.3,6.3c-1.8,2.5-4.2,4.1-7.2,4.9
		c-0.6,0.1-1.1,0.2-1.7,0.3c-0.2,0.1-0.4,0-0.6,0.1c-0.5,0-0.9,0-1.4,0c-0.2-0.1-0.4,0-0.6-0.1c-1.7-0.1-3.3-0.7-4.8-1.5
		c-0.9-0.5-1.7-1.1-2.5-1.9c-0.9-0.9-1.7-1.8-2.3-2.9c-0.6-1.1-1.1-2.3-1.4-3.5c-0.1-0.5-0.2-1-0.2-1.5c0-0.7,0-1.5,0-2.2
		c0.1-1.6,0.5-3.1,1.2-4.5c0.4-0.9,1-1.7,1.7-2.5c1.2-1.4,2.6-2.5,4.3-3.3c1.1-0.5,2.3-0.8,3.5-1
		C107.3,109.1,107.5,109.2,107.6,109.1z"/>
	<path d="M131.1,133.7c-2,0-4,0-6,0c-0.3,0-0.5,0-0.5-0.4c0-7.8,0-15.5,0-23.3c0-0.2-0.1-0.4,0.1-0.5c0.2-0.1,0.4,0.1,0.5,0.2
		c1.3,1.1,2.7,2.1,4,3.2c2,1.6,4,3.2,5.9,4.8c1.2,0.9,2.3,1.9,3.5,2.8c0.1,0.1,0.2,0.1,0.3,0.2c0-0.2,0-0.4,0-0.5
		c0-3.5,0-6.9,0-10.4c0-0.4,0.1-0.5,0.5-0.5c2,0,4,0,5.9,0c0.1,0.1,0.1,0.3,0.1,0.4c0,7.8,0,15.6,0,23.4c0,0.1,0,0.2,0,0.3
		c-0.2,0.3-0.4,0.2-0.7,0c-1-0.8-2.1-1.7-3.1-2.5c-0.7-0.6-1.4-1.2-2.2-1.8c-0.7-0.6-1.4-1.1-2.1-1.7c-0.5-0.4-1-0.9-1.6-1.3
		c-0.7-0.6-1.5-1.2-2.2-1.7c-0.7-0.6-1.4-1.1-2.1-1.7c-0.2-0.1-0.4-0.2-0.5-0.4c-0.2,0.1-0.1,0.3-0.1,0.4c0,3.4,0,6.9,0,10.3
		C131.1,133.4,131.2,133.5,131.1,133.7z"/>
	<path d="M76.9,161.8c-0.2,0-0.5,0-0.7,0c-1,0-2,0-3,0c-2.3,0-4.5,0-6.8,0c-0.3,0-0.5-0.1-0.5-0.4c0-7.8,0-15.6,0-23.4
		c0-0.3,0.1-0.4,0.4-0.4c3.4,0,6.7,0,10.1,0c0.1,0,0.2,0,0.3,0c1.4,0.1,2.7,0.4,3.8,1.3c1.5,1.1,2.4,2.6,2.7,4.4
		c0,0.2,0.1,0.3,0.1,0.5c0,0.4,0,0.8,0,1.2c-0.2,1.7-0.9,3.1-2.1,4.2c-0.2,0.2-0.1,0.2,0,0.4c1.4,1.2,2.1,2.8,2.3,4.6
		c0,0.4,0,0.8,0,1.2c-0.4,3.4-2.8,5.9-6.2,6.4C77.2,161.8,77,161.7,76.9,161.8z"/>
	<path d="M145.5,161.7c-0.5,0.3-0.7-0.1-1-0.3c-1.1-0.8-2.1-1.7-3.1-2.5c-0.7-0.6-1.4-1.2-2.2-1.8c-0.8-0.7-1.7-1.3-2.5-2
		c-0.9-0.7-1.8-1.4-2.6-2.2c-0.7-0.6-1.4-1.1-2.1-1.7c-0.3-0.2-0.5-0.5-0.8-0.7c-0.1,0.2,0,0.3,0,0.5c0,3.4,0,6.8,0,10.2
		c0,0.6,0.1,0.5-0.6,0.5c-1.8,0-3.6,0-5.4,0c-0.2,0-0.3,0.1-0.5-0.1c0-2.5,0-4.9,0-7.4c0-5.5,0-10.9,0-16.4c0-0.1-0.1-0.3,0.1-0.4
		c0.2-0.1,0.4,0,0.5,0.1c2.9,2.3,5.8,4.7,8.7,7c1.7,1.4,3.4,2.7,5.1,4.2c0-3.8,0-7.6,0-11.3c0.1-0.1,0.2-0.1,0.3-0.1
		c1.9,0,3.8,0,5.7,0c0.3,0,0.4,0.1,0.4,0.4c0,7.8,0,15.6,0,23.4C145.6,161.5,145.6,161.6,145.5,161.7z"/>
	<path d="M160.2,137.2c0.2,0,0.5,0,0.7,0c0.3,0,0.7,0,1,0c0.2,0,0.5,0,0.7,0c0.1,0.1,0.3,0,0.5,0.1c1.4,0.2,2.7,0.6,3.9,1.1
		c0.1,0.1,0,0.3,0,0.4c0,2,0,4,0,6c0,0.1,0.1,0.3-0.1,0.4c-1.2-0.9-2.6-1.5-4.1-1.6c-0.2-0.1-0.5,0-0.7-0.1c-0.1,0-0.2,0-0.4,0
		c-0.2,0.1-0.4,0-0.6,0.1c-1.2,0.1-2.3,0.5-3.3,1.3c-1.3,1-2.1,2.3-2.4,4c-0.3,1.7,0.1,3.4,1.3,4.8c1,1.3,2.4,2,3.9,2.3
		c0.2,0,0.4,0,0.6,0c0.5,0.1,0.9,0.1,1.4,0c1.5,0,2.7-0.6,3.9-1.4c0.1-0.1,0.2-0.2,0.3-0.2c0.2,0,0.1,0.1,0.1,0.2c0,2.1,0,4.3,0,6.4
		c0,0.1,0,0.1-0.1,0.2c-1,0.4-1.9,0.7-3,0.9c-0.4,0.1-0.7,0.1-1.1,0.2c-0.1,0.1-0.3,0-0.5,0.1c-0.6,0-1.3,0-1.9,0
		c-0.2-0.1-0.4,0-0.5-0.1c-2.2-0.2-4.1-1-5.9-2.3c-1.4-1-2.5-2.2-3.4-3.6c-0.7-1.1-1.2-2.3-1.5-3.6c-0.2-0.8-0.3-1.7-0.3-2.6
		c0-0.3,0-0.5,0-0.8c0-1,0.1-2,0.4-3c0.4-1.5,1.1-2.9,2-4.1c1.3-1.7,2.9-3.1,4.8-4c1.2-0.5,2.4-0.9,3.7-1.1
		C159.9,137.2,160,137.3,160.2,137.2z"/>
	<path d="M180,116.1c-1.6-0.1-3.1-0.7-4.5-1.4c-0.8-0.4-1.4-0.9-2.1-1.5c-1.2-1-2.1-2.1-2.8-3.4c-0.6-1-1-2.2-1.3-3.4
		c-0.1-0.4-0.2-0.9-0.2-1.4c-0.1-0.2,0-0.4-0.1-0.5c0-0.6,0-1.2,0-1.9c0.1-0.2,0-0.4,0.1-0.5c0.2-2.1,1-4.1,2.2-5.8
		c1.8-2.5,4.2-4.1,7.1-4.9c0.5-0.1,1-0.2,1.5-0.3c0.1-0.1,0.3,0,0.5-0.1c0.3,0,0.5,0,0.8,0c0.2,0,0.4,0,0.6,0c2.8,0.1,5.4,1,7.5,2.8
		c4,3.3,5.5,7.6,4.3,12.6c-1.2,5.1-4.5,8.2-9.6,9.4c-0.4,0.1-0.7,0.1-1.1,0.2c-0.1,0.1-0.3,0-0.5,0.1c-0.7,0-1.3,0-2,0
		C180.3,116,180.1,116.1,180,116.1z"/>
	<path d="M116.6,161.8c-0.6-1.3-1.2-2.6-1.8-4c-0.8-1.9-1.7-3.7-2.5-5.6c0-0.1-0.1-0.2-0.2-0.2c-0.1,0-0.1,0.1-0.1,0.2
		c-1.3,2.8-2.6,5.7-3.9,8.5c-0.2,0.3-0.3,0.7-0.4,1c-0.1,0.1-0.2,0-0.3,0c-2.1,0-4.2,0-6.4,0c-0.1,0-0.2,0-0.3-0.1
		c0.3-0.8,0.7-1.6,1.1-2.4c0.7-1.6,1.4-3.2,2.2-4.7c0.6-1.2,1.1-2.4,1.7-3.6c0.7-1.4,1.3-2.8,1.9-4.3c0.7-1.6,1.5-3.1,2.2-4.7
		c0.6-1.4,1.3-2.8,1.9-4.1c0.1-0.2,0.1-0.4,0.4-0.4c0.3,0,0.3,0.2,0.3,0.3c1.4,3.1,2.9,6.1,4.3,9.2c0.9,2,1.9,4,2.8,6
		c1.3,2.9,2.7,5.7,4,8.6c0,0.1-0.1,0.1-0.2,0.1C121.1,161.8,118.8,161.9,116.6,161.8z"/>
	<path d="M160.8,133.7c-2,0-4,0-6,0c-0.3,0-0.4-0.1-0.4-0.4c0-5.7,0-11.4,0-17.1c0-0.4-0.1-0.5-0.5-0.5c-1.8,0-3.5,0-5.3,0
		c-0.3,0-0.4-0.1-0.4-0.4c0-1.8,0-3.6,0-5.4c0-0.4,0.1-0.4,0.4-0.4c5.9,0,11.9,0,17.8,0c0.2,0,0.3,0,0.5,0c0.1,0.1,0.1,0.2,0.1,0.3
		c0,1.9,0,3.8,0,5.7c0,0.1,0,0.2-0.1,0.3c-2,0-4,0-6.1,0c-0.1,0.2,0,0.3,0,0.5c0,5.7,0,11.3,0,17
		C160.8,133.3,160.9,133.5,160.8,133.7z"/>
	<path d="M99.4,155.6c0,2,0,4.1,0,6.1c-0.1,0.1-0.3,0-0.4,0c-3.9,0-7.8,0-11.7,0c-0.4,0-0.5-0.1-0.5-0.5c0-7.8,0-15.6,0-23.3
		c0-0.4,0.1-0.5,0.5-0.5c1.9,0,3.7,0,5.6,0c0.1,0,0.3-0.1,0.4,0.1c0,3.2,0,6.4,0,9.6c0,2.6,0,5.2,0,7.8c0,0.2,0,0.3,0,0.5
		c0.2,0.1,0.3,0,0.5,0c1.7,0,3.5,0,5.2,0C99.1,155.6,99.3,155.5,99.4,155.6z"/>
	<path class="st1" d="M76.6,137.6c-3.4,0-6.8,0-10.3,0c-0.4,0-0.5,0.1-0.5,0.5c0,7.8,0,15.5,0,23.3c0,0.4,0.1,0.5,0.5,0.5
		c3.3,0,6.5,0,9.8,0c-0.1,0.1-0.3,0.1-0.4,0.1c-3.1,0-6.3,0-9.4,0c-0.4,0-0.5-0.1-0.5-0.5c0-7.8,0-15.5,0-23.3
		c0-0.4,0.1-0.5,0.5-0.5c3.3,0,6.5,0,9.8,0C76.3,137.5,76.4,137.5,76.6,137.6z"/>
	<path class="st1" d="M93.3,137.6c-0.1-0.1-0.3-0.1-0.4-0.1c-1.9,0-3.8,0-5.7,0c-0.3,0-0.4,0.1-0.4,0.4c0,7.8,0,15.6,0,23.5
		c0,0.2,0,0.4,0.3,0.4c4.1,0,8.1,0,12.2,0c0,0,0.1,0,0.1,0c-0.1,0.2-0.3,0.1-0.5,0.1c-3.9,0-7.8,0-11.7,0c-0.4,0-0.5-0.1-0.5-0.5
		c0-7.8,0-15.6,0-23.4c0-0.4,0.1-0.5,0.5-0.5c1.9,0,3.7,0,5.6,0C93,137.5,93.1,137.5,93.3,137.6z"/>
	<path class="st1" d="M145.5,161.7c0-0.2,0-0.3,0-0.5c0-7.7,0-15.4,0-23.2c0-0.4-0.1-0.5-0.5-0.5c-1.8,0-3.7,0-5.5,0
		c-0.2,0-0.3,0-0.5,0.1c0.1-0.2,0.3-0.1,0.4-0.1c1.9,0,3.8,0,5.7,0c0.4,0,0.4,0.1,0.4,0.5c0,7.8,0,15.5,0,23.3
		C145.6,161.4,145.7,161.6,145.5,161.7z"/>
	<path class="st1" d="M145.6,133.5c0-5.5,0-11,0-16.5c0-2.3,0-4.7,0-7c0-0.2,0-0.4,0-0.5c0.2,0.1,0.1,0.3,0.1,0.4
		c0,7.7,0,15.5,0,23.2C145.6,133.2,145.7,133.4,145.6,133.5z"/>
	<path class="st1" d="M65.9,109.6c0,8,0,15.9,0,23.9c0,0.1,0,0.1,0,0.2c-0.2-0.1-0.1-0.3-0.1-0.5c0-7.7,0-15.4,0-23.2
		C65.8,109.9,65.7,109.8,65.9,109.6z"/>
	<path class="st1" d="M160.8,133.7c0-0.2,0-0.3,0-0.5c0-5.7,0-11.4,0-17.1c0-0.1-0.1-0.3,0.1-0.4c0,5.8,0,11.7,0,17.5
		C160.9,133.4,160.9,133.5,160.8,133.7z"/>
	<path class="st1" d="M124.7,161.8c1,0,2,0,3,0c1,0,2.1,0,3.1,0c0.3,0,0.4-0.1,0.4-0.4c0-3.4,0-6.9,0-10.3c0-0.2-0.1-0.3,0-0.5
		c0,3.6,0,7.2,0,10.8c0,0.4-0.1,0.5-0.5,0.5c-1.9,0-3.7,0-5.6,0C125,161.9,124.8,161.9,124.7,161.8z"/>
	<path class="st1" d="M131.1,133.7c0-0.2,0-0.3,0-0.5c0-3.5,0-6.9,0-10.4c0-0.1,0-0.3,0-0.4c0,0,0,0,0,0c0,0,0,0,0.1,0
		c-0.1,0.2-0.1,0.3-0.1,0.5c0,3.4,0,6.8,0,10.2C131.2,133.4,131.2,133.5,131.1,133.7z"/>
	<path class="st1" d="M86.8,124.4c0.1,0.1,0,0.3,0,0.4c0,2.8,0,5.6,0,8.4c0,0.2,0,0.3,0,0.5c-0.1-0.1-0.1-0.2-0.1-0.3
		C86.8,130.4,86.8,127.4,86.8,124.4z"/>
	<path class="st1" d="M116.6,161.8c2.2,0,4.3,0,6.5,0c0.1,0,0.3,0.1,0.4-0.1c0.1,0.1,0.1,0.1,0,0.2c-0.1,0-0.2,0-0.4,0
		c-2.1,0-4.1,0-6.2,0C116.8,161.9,116.7,161.9,116.6,161.8z"/>
	<path class="st1" d="M166.9,161.1c0.1-0.1,0.1-0.3,0.1-0.4c0-2,0-4,0-5.9c0-0.1,0.1-0.3-0.1-0.4c0.3,0,0.2,0.2,0.2,0.4c0,2,0,4,0,6
		C167,160.8,167.1,161,166.9,161.1z"/>
	<path class="st1" d="M100.6,161.8c1.8,0,3.6,0,5.3,0c0.5,0,1.1,0,1.6,0c-0.1,0.1-0.3,0.1-0.4,0.1c-2,0-4.1,0-6.1,0
		C100.9,161.9,100.7,161.9,100.6,161.8z"/>
	<path class="st1" d="M166.9,145.1c0.2,0,0.1-0.2,0.1-0.3c0-2.1,0-4.2,0-6.3c0-0.1,0-0.1,0-0.2c0.1,0.1,0.1,0.2,0.1,0.4
		c0,2,0,4.1,0,6.1C167,144.9,167.2,145.2,166.9,145.1z"/>
	<path class="st1" d="M166.9,115.7c0.1-0.1,0.1-0.2,0.1-0.3c0-1.8,0-3.7,0-5.5c0-0.1,0-0.2-0.1-0.3c0.2,0.1,0.1,0.3,0.1,0.4
		c0,1.8,0,3.6,0,5.4C167,115.4,167.1,115.6,166.9,115.7z"/>
	<path class="st1" d="M99.4,155.6c-1.9,0-3.8,0-5.7,0c-0.1,0-0.3,0.1-0.4-0.1c1.9,0,3.8,0,5.7,0C99.1,155.5,99.3,155.5,99.4,155.6z"
		/>
	<path class="st1" d="M96.5,120.5c0,0.7,0,1.5,0,2.2C96.3,122,96.4,121.2,96.5,120.5z"/>
	<path class="st1" d="M121.5,122.6c0-0.7,0-1.4,0-2C121.6,121.3,121.6,121.9,121.5,122.6z"/>
	<path class="st1" d="M109.8,109.1c-0.5,0-1.1,0-1.6,0C108.7,108.9,109.2,108.9,109.8,109.1z"/>
	<path class="st1" d="M162.6,155.9c-0.5,0.1-0.9,0.1-1.4,0C161.7,155.9,162.1,155.9,162.6,155.9z"/>
	<path class="st1" d="M83.5,155.4c0-0.4,0-0.8,0-1.2C83.6,154.5,83.6,154.9,83.5,155.4z"/>
	<path class="st1" d="M83.2,144.9c0-0.4,0-0.8,0-1.2C83.3,144.2,83.3,144.5,83.2,144.9z"/>
	<path class="st1" d="M161.9,137.2c-0.3,0-0.7,0-1,0C161.2,137,161.5,137,161.9,137.2z"/>
	<path class="st1" d="M148.8,149.3c0,0.3,0,0.5,0,0.8C148.7,149.8,148.7,149.6,148.8,149.3z"/>
	<path class="st1" d="M162,143.4c0.2,0,0.5,0,0.7,0.1C162.5,143.5,162.3,143.6,162,143.4z"/>
	<path class="st1" d="M107.6,134.1c0.2,0,0.4,0,0.6,0.1C108.1,134.1,107.8,134.2,107.6,134.1z"/>
	<path class="st1" d="M161,143.5c0.2-0.1,0.4-0.1,0.6-0.1C161.5,143.6,161.3,143.5,161,143.5z"/>
	<path class="st1" d="M181.7,91c-0.2,0-0.4,0-0.6,0C181.3,90.9,181.5,90.9,181.7,91z"/>
	<path class="st1" d="M109.7,134.1c0.2,0,0.4,0,0.6-0.1C110,134.2,109.8,134.1,109.7,134.1z"/>
	<path class="st1" d="M168.9,104.5c0.1,0.2,0.1,0.4,0.1,0.5C168.8,104.9,168.9,104.7,168.9,104.5z"/>
	<path class="st1" d="M169,102.1c0,0.2,0,0.4-0.1,0.5C168.9,102.5,168.8,102.3,169,102.1z"/>
	<path class="st1" d="M159.9,162.2c0.2,0,0.4,0,0.5,0.1C160.3,162.2,160.1,162.3,159.9,162.2z"/>
	<path class="st1" d="M163,137.2c-0.2,0-0.3,0-0.5-0.1C162.7,137.2,162.9,137.1,163,137.2z"/>
	<path class="st1" d="M160.2,137.2c-0.1,0.1-0.3,0.1-0.5,0.1C159.9,137.1,160,137.2,160.2,137.2z"/>
	<path class="st1" d="M182.5,116.1c0.1-0.1,0.3-0.1,0.5-0.1C182.8,116.2,182.6,116.1,182.5,116.1z"/>
	<path class="st1" d="M180,116.1c0.2,0,0.3,0,0.5,0.1C180.3,116.1,180.1,116.2,180,116.1z"/>
	<path class="st1" d="M76.9,161.8c0.1-0.1,0.3-0.1,0.5-0.1C77.2,161.8,77,161.8,76.9,161.8z"/>
	<path class="st1" d="M110.8,109.1c-0.2,0-0.3,0-0.5-0.1C110.5,109.1,110.6,109,110.8,109.1z"/>
	<path class="st1" d="M107.6,109.1c-0.1,0.1-0.3,0.1-0.5,0.1C107.3,109,107.5,109.1,107.6,109.1z"/>
	<path class="st1" d="M180.3,91.1c-0.1,0.1-0.3,0.1-0.5,0.1C180,91,180.2,91.1,180.3,91.1z"/>
	<path class="st1" d="M162.4,162.2c0.1-0.1,0.3-0.1,0.5-0.1C162.7,162.3,162.5,162.2,162.4,162.2z"/>
	<path class="st2" d="M109,127.8c-3.4,0-6.2-2.8-6.2-6.2c0-3.4,2.8-6.2,6.3-6.2c3.4,0,6.2,2.8,6.2,6.2
		C115.2,125,112.4,127.8,109,127.8z"/>
	<path class="st2" d="M71.8,153.9c0-0.7,0-1.4,0-2.1c0-0.3,0.1-0.3,0.3-0.3c1,0,2,0,2.9,0c1.3,0,2.3,1.1,2.3,2.4
		c0,1.3-1,2.4-2.4,2.4c-0.9,0-1.9,0-2.8,0c-0.3,0-0.4-0.1-0.4-0.4C71.8,155.3,71.8,154.6,71.8,153.9z"/>
	<path class="st2" d="M71.8,144.8c0-0.7,0-1.3,0-2c0-0.2,0.1-0.3,0.3-0.3c1,0,2,0,2.9,0c1.1,0,2.2,1,2.2,2.1
		c0.1,1.3-0.7,2.4-1.9,2.5c-1.1,0.2-2.3,0-3.4,0.1c-0.2,0-0.2-0.2-0.2-0.3C71.8,146.1,71.8,145.5,71.8,144.8z"/>
	<path class="st2" d="M187.3,109.9c-0.1,0-0.1,0-0.2,0c-1.4-0.2-2.4,0.3-3,1.6c-0.2,0.5-0.5,0.9-0.9,1.4c-0.9,1.1-2.6,1.1-3.6,0.1
		c-0.4-0.4-0.7-0.9-1-1.5c-0.6-1.3-1.6-1.7-3-1.6c-0.5,0.1-1,0-1.5-0.1c-1.4-0.3-2.2-1.8-1.8-3.2c0.2-0.6,0.5-1.1,0.8-1.5
		c0.7-1,0.7-2,0-3.1c-0.4-0.6-0.7-1.1-0.9-1.8c-0.3-1.4,0.7-2.7,2.2-2.9c0.6-0.1,1.2-0.1,1.9,0c0.9,0,1.6-0.3,2-1.1
		c0.3-0.5,0.5-0.9,0.8-1.4c1.1-1.7,3.2-1.7,4.4,0c0.3,0.4,0.6,0.9,0.8,1.4c0.4,0.8,1.1,1.2,2,1.2c0.6,0,1.2,0,1.8,0
		c1.7,0.1,2.7,1.8,2.1,3.4c-0.2,0.6-0.5,1.1-0.9,1.6c-0.6,0.9-0.6,1.7,0,2.6c0.3,0.4,0.5,0.9,0.7,1.3c0.9,1.8-0.2,3.6-2.2,3.7
		C187.8,109.9,187.5,109.9,187.3,109.9z"/>
</g>
<rect x="30.4" y="55.6" class="st3" width="198.2" height="134.4"/>
<rect x="30.4" y="55.6" class="st3" width="198.2" height="134.4"/>
<g id="VXdwx9_1_">
	
		<image style="overflow:visible;" width="1280" height="704" id="VXdwx9" xlink:href="E6E603EA53B38275.png"  transform="matrix(1 0 0 1 -146 397.2)">
	</image>
</g>
</svg>
