<?xml version="1.0" encoding="utf-8"?>
<!-- Generator: Adobe Illustrator 23.0.1, SVG Export Plug-In . SVG Version: 6.00 Build 0)  -->
<svg version="1.1" id="Layer_1" xmlns="http://www.w3.org/2000/svg" xmlns:xlink="http://www.w3.org/1999/xlink" x="0px" y="0px"
	 viewBox="0 0 259.8 253.2" style="enable-background:new 0 0 259.8 253.2;" xml:space="preserve">
<style type="text/css">
	.st0{opacity:0.4;fill:#E6E7E8;enable-background:new    ;}
	.st1{fill:none;}
</style>
<title>bomberg</title>
<ellipse class="st0" cx="129.9" cy="126.6" rx="111.9" ry="109"/>
<rect x="30.4" y="55.6" class="st1" width="198.2" height="134.4"/>
<rect x="30.4" y="55.6" class="st1" width="198.2" height="134.4"/>
<g>
	<path d="M56.9,128.7c-0.7,2-3.8,1.7-8.6,1.8c0,0,0-14.3,0-14.7c-0.1-0.4,0-0.9,0.3-1.2c0.4-0.6,1.8-0.6,3.3-0.6v-2.7H40.4v2.7
		c0.4,0,2.7-0.2,3,0.6c0.1,0.4,0.2,0.8,0.2,1.1v12.9c0,0.4,0,0.8-0.1,1.3c-0.2,0.4-0.5,0.6-3.1,0.6c0,1.1,0,2.6,0,2.6h19.6v-9.3
		h-2.3C57.6,125.4,57.3,127.1,56.9,128.7z"/>
	<path d="M218.2,112.9c0-0.5-0.3-0.7-0.9-0.7h-1v2.6h0.3v-1.2h0.5l0.7,1.2h0.4l-0.8-1.2C217.9,113.6,218.2,113.3,218.2,112.9
		C218.2,112.9,218.2,112.9,218.2,112.9z M217.1,113.3h-0.4v-0.9h0.6c0.3,0,0.6,0.1,0.6,0.5S217.5,113.3,217.1,113.3z"/>
	<path d="M217.2,111.2c-1.3,0-2.3,1-2.3,2.3c0,1.3,1,2.3,2.3,2.3c1.3,0,2.3-1,2.3-2.3c0,0,0,0,0,0
		C219.5,112.2,218.5,111.2,217.2,111.2C217.2,111.2,217.2,111.2,217.2,111.2z M217.2,115.4c-1.1,0-2-0.8-2-1.9c0-1.1,0.8-2,1.9-2
		c1.1,0,2,0.8,2,1.9c0,0,0,0,0,0C219.1,114.5,218.3,115.4,217.2,115.4C217.2,115.4,217.2,115.4,217.2,115.4z"/>
	<path d="M136.9,115v14.2c0,1.5-1.6,1.2-3.1,1.3v2.7h11.1v-2.7c-2.1,0-3.1,0.2-3.1-1.3V115c0-1.2,1.1-1,3.1-1v-2.7h-11.1v2.7
		C135.5,114,136.9,113.8,136.9,115z"/>
	<path d="M205.4,119.9c-5.5-1.2-5.7-2.4-5.9-3c-0.2-0.7,0-1.4,0.4-2c0.5-0.7,1.7-1.4,3.5-1.4c5.3,0,6.5,3.7,7.2,6.2h2.3v-8.4h-1.9
		l-1.1,1.6c-1.8-1.4-4.1-2.1-6.4-2.1c-3.1,0-7.9,1.4-7.9,6.8c0,5.7,6.1,6.4,8.7,6.9c3.6,0.7,5,1.4,5.7,2.4c0.6,1.1,0.2,2.5-0.8,3.3
		c-0.9,0.7-3.4,1.3-6.6,0.3c-2.9-0.9-4-3.8-4.5-6.2h-2.2v8.8h1.7l1.2-1.7c0.3,0.6,3.3,2.5,7.2,2.5s8.3-1.8,8.3-6.9
		C214.3,121,207.3,120.2,205.4,119.9z"/>
	<path d="M161.4,114h2c1.5,0,1.4,0.6,1.4,1.4c0,3.6,0,9.6,0,9.6l-9.5-13.7h-8.9v2.7h1.9c1.2,0,1.4,0.7,1.4,1.8v12.8
		c0,2.2-0.6,1.8-3.3,1.8v2.7h10.7v-2.7c-3,0-3.8,0.3-3.8-1.6v-11.7c3.7,5.4,10.9,16,10.9,16h4.1v-17.8c0-0.5,0-1.3,0.9-1.3h2.5v-2.7
		h-10.4L161.4,114z"/>
	<path d="M173,114c2.8,0,3.6-0.3,3.6,1.3v13.6c0,1.7-0.7,1.4-3.6,1.4v2.7H194v-9.3h-2.5v2.7c0,3.1-2.2,4-4.2,3.9h-5.9v-7.3
		c0,0,2.4-0.2,3.2,0.5c1,1,0.9,4,0.9,4h2.4v-11.1h-2.3c0,0-0.1,2.8-0.9,3.5c-0.9,0.7-3.2,0.5-3.2,0.5V114h5.8c0.4,0,2.4-0.1,3.3,0.9
		c0.9,1,1,2.9,1,3.9s0,1.5,0,1.5h2.4v-9H173L173,114z"/>
	<path d="M134.7,139.4l-1.8-3h-12.2l-2,3l-1.7-3H84.4l4,3.4h6.9l2.6,2.4h6.6l3,2.4h6.5l2.4,2.4h5.1v7h10.7v-7h5l2.3-2.4h6.8l2.2-2.4
		h7.1l2.2-2.4h7.2l3.7-3.4H137L134.7,139.4z M125.2,143h3.1l-1.5,2.2L125.2,143z M128.2,149.7h-2.9l1.4-2.3L128.2,149.7z
		 M124.5,142.1l-1.3-2h7.1l-1.3,2H124.5z M125.9,146.4l-3.3,5v-10.1L125.9,146.4z M123.2,152.8l1.3-2h4.4l1.4,2H123.2z M130.9,151.6
		l-3.4-5.2l3.4-5.1V151.6z M165.8,137.5l-1.4,1.2h-18.4l-1,1.1h11.2l-1.3,1.3h-14.5l-1,1.1h7.5l-1.3,1.3h-10.9l-1,1.1h4.2l-1.1,1.2
		h-4.6v-6.8h-10.7v6.8h-4.5l-1.1-1.2h4l-1.2-1.1h-10.8l-1.5-1.3h7.7l-1.1-1.1H98.7l-1.5-1.3h11.4l-1.2-1.1H88.9l-1.5-1.2h28.9l2.4,4
		l2.7-4h10.8l2.5,4.1l2.9-4.1L165.8,137.5z"/>
	<path d="M99.8,114h2c1.5,0,1.4,0.7,1.4,1.4c0,3.6,0,9.6,0,9.6l-9.5-13.7h-8.9v2.7h2.4c1.1,0.1,0.8,0.7,0.9,1.8v12.8
		c0,2-0.4,1.8-3.3,1.8v2.7h10.7v-2.7c-2.9,0-3.8,0.3-3.8-1.6v-11.7c3.7,5.4,10.9,16,10.9,16h4.2v-17.8c0-0.5-0.1-1.3,0.9-1.3h2.3
		v-2.7H99.8V114z"/>
	<path d="M84,116.2c-1.7-2.8-4.4-4.7-7.6-5.3c-1-0.2-2-0.3-3.1-0.3c-3.3,0-6.4,1.2-8.8,3.4c-3.1,3.2-4.1,7.8-2.8,12
		c1.4,4,4.9,7,9.1,7.6c0.8,0.1,1.6,0.2,2.5,0.2c4,0.2,7.8-1.7,10.2-4.9C86,125.1,86.1,120.2,84,116.2z M80.1,122.3
		c0,3.3-0.6,7.1-4,8.4c-0.9,0.3-1.9,0.5-2.8,0.4c-1,0-2-0.1-2.9-0.5c-3-1.3-3.9-4.9-3.9-8.3c0-3,0.8-6.5,3-7.9
		c1.1-0.7,2.5-1.1,3.8-1c1.4-0.1,2.7,0.3,3.9,1C79.1,115.8,80.3,118.6,80.1,122.3z"/>
	<path d="M115,132.5c1.6,0.9,3.4,1.3,5.3,1.3c2.6,0,5-0.8,7.1-2.3c0.5,0.5,0.8,1.1,1.2,1.6h2.6v-7.6c0-2,0.8-1.6,2.9-1.6v-2.4h-11.2
		v2.4c2.9,0.1,3.6-0.4,3.6,1.6c0,4.2-2.7,5-3.3,5.2c-2.1,0.9-4.5,0.4-6-1.3c-2.8-3.4-2.7-11.1,0-14.4c1.5-1.7,3.7-2,6-1.2
		c2.6,0.8,4,3.6,4.7,5.9h2.7v-8.5h-2.6l-0.9,1.7c-3.1-2.4-7.3-3-11-1.5c-4,1.5-6.1,5.8-6.3,9.8C109.5,125.9,110.9,130.2,115,132.5z"
		/>
</g>
</svg>
