<?xml version="1.0" encoding="utf-8"?>
<!-- Generator: Adobe Illustrator 23.0.1, SVG Export Plug-In . SVG Version: 6.00 Build 0)  -->
<svg version="1.1" id="Layer_1" xmlns="http://www.w3.org/2000/svg" xmlns:xlink="http://www.w3.org/1999/xlink" x="0px" y="0px"
	 viewBox="0 0 259.8 253.2" style="enable-background:new 0 0 259.8 253.2;" xml:space="preserve">
<style type="text/css">
	.st0{opacity:0.4;fill:#E6E7E8;enable-background:new    ;}
	.st1{fill:none;}
</style>
<title>bomberg</title>
<ellipse class="st0" cx="129.9" cy="126.6" rx="111.9" ry="109"/>
<rect x="30.4" y="55.6" class="st1" width="198.2" height="134.4"/>
<rect x="30.4" y="55.6" class="st1" width="198.2" height="134.4"/>
<g>
	<circle cx="140.6" cy="105.7" r="0.4"/>
	<path d="M139.4,108.4c0,0.2,0.2,0.4,0.4,0.4c0.2,0,0.4-0.2,0.4-0.4c0-0.2-0.2-0.4-0.4-0.4C139.6,108,139.4,108.1,139.4,108.4z"/>
	<path d="M139.8,107c0,0.2,0.2,0.4,0.4,0.4c0.2,0,0.4-0.2,0.4-0.4c0-0.2-0.2-0.4-0.4-0.4C140,106.7,139.8,106.8,139.8,107z"/>
	<circle cx="141" cy="104.4" r="0.4"/>
	<path d="M142.7,104c-0.2,0-0.3,0.1-0.3,0.3c0,0.2,0.1,0.3,0.3,0.3s0.3-0.1,0.3-0.3C143,104.1,142.8,104,142.7,104z"/>
	<path d="M140,109.6c0.2,0,0.4-0.2,0.4-0.4c0-0.2-0.2-0.4-0.4-0.4c-0.2,0-0.4,0.2-0.4,0.4C139.7,109.5,139.8,109.6,140,109.6z"/>
	<path d="M143.3,103.5c-0.2,0-0.3,0.1-0.3,0.3c0,0.2,0.1,0.3,0.3,0.3c0.2,0,0.3-0.1,0.3-0.3C143.6,103.6,143.5,103.5,143.3,103.5z"
		/>
	<path d="M142.7,105.2c0,0.2,0.1,0.3,0.3,0.3c0.2,0,0.3-0.1,0.3-0.3c0-0.2-0.1-0.3-0.3-0.3C142.9,104.9,142.7,105.1,142.7,105.2z"/>
	<circle cx="141.6" cy="103.9" r="0.4"/>
	<path d="M142.3,103.1c-0.2,0-0.3,0.1-0.3,0.3c0,0.2,0.1,0.3,0.3,0.3c0.2,0,0.3-0.1,0.3-0.3C142.6,103.2,142.5,103.1,142.3,103.1z"
		/>
	<path d="M139.4,115.8c0.2,0,0.3-0.2,0.3-0.3c0-0.2-0.2-0.3-0.3-0.3c-0.2,0-0.3,0.2-0.3,0.3C139.1,115.7,139.2,115.8,139.4,115.8z"
		/>
	<path d="M138.9,119.4c0-0.2-0.1-0.3-0.3-0.3c-0.2,0-0.3,0.1-0.3,0.3c0,0.2,0.1,0.3,0.3,0.3C138.8,119.7,138.9,119.6,138.9,119.4z"
		/>
	<path d="M138.7,117.3c-0.2,0-0.3,0.1-0.3,0.3c0,0.2,0.1,0.3,0.3,0.3s0.3-0.1,0.3-0.3C139,117.4,138.9,117.3,138.7,117.3z"/>
	<path d="M138.7,118.2c-0.2,0-0.3,0.1-0.3,0.3c0,0.2,0.1,0.3,0.3,0.3c0.2,0,0.3-0.1,0.3-0.3C139,118.3,138.8,118.2,138.7,118.2z"/>
	<path d="M139.3,114.9c0.2,0,0.3-0.2,0.3-0.3c0-0.2-0.2-0.3-0.3-0.3s-0.3,0.2-0.3,0.3C139,114.7,139.2,114.9,139.3,114.9z"/>
	<path d="M138.7,116.3c-0.2,0-0.3,0.2-0.3,0.3c0,0.2,0.2,0.3,0.3,0.3c0.2,0,0.3-0.2,0.3-0.3C139,116.5,138.9,116.3,138.7,116.3z"/>
	<path d="M139.1,110.6c0,0.2,0.2,0.4,0.4,0.4c0.2,0,0.4-0.2,0.4-0.4c0-0.2-0.2-0.4-0.4-0.4C139.3,110.2,139.1,110.3,139.1,110.6z"/>
	<path d="M138,113.1c0,0.2,0.2,0.4,0.4,0.4c0.2,0,0.4-0.2,0.4-0.4c0-0.2-0.2-0.4-0.4-0.4C138.1,112.7,138,112.9,138,113.1z"/>
	<path d="M138.6,111.8c0,0.2,0.2,0.4,0.4,0.4c0.2,0,0.4-0.2,0.4-0.4c0-0.2-0.2-0.4-0.4-0.4C138.8,111.4,138.6,111.6,138.6,111.8z"/>
	<path d="M138.5,114.4c0.2,0,0.4-0.2,0.4-0.4c0-0.2-0.2-0.4-0.4-0.4c-0.2,0-0.4,0.2-0.4,0.4C138.1,114.2,138.3,114.4,138.5,114.4z"
		/>
	<path d="M138.5,120.6c0.2,0,0.3-0.1,0.3-0.3c0-0.2-0.1-0.3-0.3-0.3c-0.2,0-0.3,0.1-0.3,0.3C138.3,120.4,138.4,120.6,138.5,120.6z"
		/>
	<path d="M145,105.3c0-0.1-0.1-0.2-0.2-0.2c-0.1,0-0.2,0.1-0.2,0.2c0,0.1,0.1,0.2,0.2,0.2C144.9,105.5,145,105.4,145,105.3z"/>
	<path d="M142.5,108c0-0.2-0.1-0.3-0.3-0.3s-0.3,0.1-0.3,0.3c0,0.2,0.1,0.3,0.3,0.3C142.4,108.3,142.5,108.2,142.5,108z"/>
	<circle cx="139.5" cy="116.4" r="0.3"/>
	<path d="M142.5,109.3c0.2,0,0.3-0.1,0.3-0.3c0-0.2-0.1-0.3-0.3-0.3c-0.2,0-0.3,0.1-0.3,0.3C142.2,109.1,142.3,109.3,142.5,109.3z"
		/>
	<circle cx="141.2" cy="110.7" r="0.3"/>
	<path d="M142,109.4c0-0.2-0.1-0.3-0.3-0.3c-0.2,0-0.3,0.1-0.3,0.3c0,0.2,0.1,0.3,0.3,0.3C141.9,109.7,142,109.5,142,109.4z"/>
	<circle cx="144.1" cy="105.7" r="0.3"/>
	<path d="M140.6,112.3c0.2,0,0.3-0.2,0.3-0.3c0-0.2-0.1-0.3-0.3-0.3c-0.2,0-0.3,0.1-0.3,0.3C140.3,112.2,140.4,112.3,140.6,112.3z"
		/>
	<circle cx="142.9" cy="107.6" r="0.3"/>
	<path d="M144.4,107c0.1,0,0.2-0.1,0.2-0.2c0-0.1-0.1-0.2-0.2-0.2c-0.1,0-0.2,0.1-0.2,0.2C144.1,106.9,144.2,107,144.4,107z"/>
	<path d="M143.6,106.2c0-0.2-0.1-0.3-0.3-0.3c-0.2,0-0.3,0.1-0.3,0.3c0,0.2,0.1,0.3,0.3,0.3C143.5,106.5,143.6,106.3,143.6,106.2z"
		/>
	<path d="M143.6,107.4c0.1,0,0.3-0.1,0.3-0.3c0-0.1-0.1-0.3-0.3-0.3c-0.1,0-0.3,0.1-0.3,0.3C143.4,107.3,143.5,107.4,143.6,107.4z"
		/>
	<path d="M143.4,104.8c0,0.2,0.1,0.3,0.3,0.3c0.1,0,0.3-0.1,0.3-0.3s-0.1-0.3-0.3-0.3C143.6,104.5,143.4,104.6,143.4,104.8z"/>
	<path d="M144.7,102.6c-0.1,0-0.2,0.1-0.2,0.2c0,0.1,0.1,0.2,0.2,0.2c0.1,0,0.2-0.1,0.2-0.2C145,102.7,144.8,102.6,144.7,102.6z"/>
	<path d="M145.1,106.5c0.1,0,0.2-0.1,0.2-0.2c0-0.1-0.1-0.2-0.2-0.2c-0.1,0-0.2,0.1-0.2,0.2C144.9,106.4,145,106.5,145.1,106.5z"/>
	<path d="M145.1,103.6c-0.1,0-0.2,0.1-0.2,0.2c0,0.1,0.1,0.2,0.2,0.2s0.2-0.1,0.2-0.2C145.3,103.7,145.2,103.6,145.1,103.6z"/>
	<circle cx="144" cy="103.3" r="0.3"/>
	<path d="M144.1,104.3c0,0.1,0.1,0.3,0.3,0.3c0.1,0,0.3-0.1,0.3-0.3c0-0.1-0.1-0.3-0.3-0.3C144.3,104,144.1,104.1,144.1,104.3z"/>
	<path d="M140.8,111.1c0-0.2-0.2-0.3-0.3-0.3c-0.2,0-0.3,0.2-0.3,0.3c0,0.2,0.2,0.3,0.3,0.3S140.8,111.3,140.8,111.1z"/>
	<path d="M139.9,112.7c0.2,0,0.4-0.2,0.4-0.4s-0.2-0.4-0.4-0.4c-0.2,0-0.4,0.2-0.4,0.4C139.5,112.6,139.7,112.7,139.9,112.7z"/>
	<path d="M139.9,110.2c0,0.2,0.2,0.4,0.4,0.4c0.2,0,0.4-0.2,0.4-0.4c0-0.2-0.2-0.4-0.4-0.4C140.1,109.8,139.9,110,139.9,110.2z"/>
	<path d="M138.7,112.7c0,0.2,0.2,0.4,0.4,0.4c0.2,0,0.4-0.2,0.4-0.4c0-0.2-0.2-0.4-0.4-0.4C138.9,112.4,138.7,112.5,138.7,112.7z"/>
	<path d="M139.3,111.5c0,0.2,0.2,0.4,0.4,0.4c0.2,0,0.4-0.2,0.4-0.4c0-0.2-0.2-0.4-0.4-0.4C139.5,111.1,139.3,111.3,139.3,111.5z"/>
	<path d="M144.2,109.4c0.1,0,0.2-0.1,0.2-0.2c0-0.1-0.1-0.2-0.2-0.2c-0.1,0-0.2,0.1-0.2,0.2C143.9,109.3,144,109.4,144.2,109.4z"/>
	<path d="M147.1,102.2c-0.1,0-0.2,0.1-0.2,0.2c0,0.1,0.1,0.2,0.2,0.2c0.1,0,0.2-0.1,0.2-0.2C147.3,102.3,147.2,102.2,147.1,102.2z"
		/>
	<circle cx="147.2" cy="105" r="0.2"/>
	<path d="M146.8,103.7c-0.1,0-0.2,0.1-0.2,0.2c0,0.1,0.1,0.2,0.2,0.2c0.1,0,0.2-0.1,0.2-0.2C147,103.8,146.9,103.7,146.8,103.7z"/>
	<path d="M146.7,101.1c-0.1,0-0.2,0.1-0.2,0.2c0,0.1,0.1,0.2,0.2,0.2c0.1,0,0.2-0.1,0.2-0.2C146.9,101.2,146.8,101.1,146.7,101.1z"
		/>
	<path d="M147.1,107.8c0.1,0,0.2-0.1,0.2-0.1c0-0.1-0.1-0.1-0.2-0.1c-0.1,0-0.1,0.1-0.1,0.1C147,107.7,147.1,107.8,147.1,107.8z"/>
	<path d="M147,106.5c0-0.1-0.1-0.2-0.2-0.2c-0.1,0-0.2,0.1-0.2,0.2c0,0.1,0.1,0.2,0.2,0.2C146.9,106.7,147,106.6,147,106.5z"/>
	<path d="M145.7,108.6c0.1,0,0.2-0.1,0.2-0.2c0-0.1-0.1-0.2-0.2-0.2c-0.1,0-0.2,0.1-0.2,0.2S145.6,108.6,145.7,108.6z"/>
	<circle cx="146.1" cy="106.9" r="0.2"/>
	<path d="M146.7,109.3c0.1,0,0.2-0.1,0.2-0.2c0-0.1-0.1-0.2-0.2-0.2c-0.1,0-0.2,0.1-0.2,0.2C146.5,109.2,146.6,109.3,146.7,109.3z"
		/>
	<path d="M146.4,108.2c0.1,0,0.2-0.1,0.2-0.2c0-0.1-0.1-0.2-0.2-0.2c-0.1,0-0.2,0.1-0.2,0.2C146.2,108.1,146.3,108.2,146.4,108.2z"
		/>
	<path d="M146.3,102.8c0,0.1,0.1,0.2,0.2,0.2c0.1,0,0.2-0.1,0.2-0.2c0-0.1-0.1-0.2-0.2-0.2C146.4,102.7,146.3,102.7,146.3,102.8z"/>
	<circle cx="145.9" cy="109.5" r="0.2"/>
	<path d="M144,101.9c0,0.1,0.1,0.3,0.3,0.3c0.1,0,0.3-0.1,0.3-0.3c0-0.1-0.1-0.3-0.3-0.3C144.2,101.6,144,101.7,144,101.9z"/>
	<path d="M139.5,118c-0.2,0-0.3,0.1-0.3,0.3c0,0.2,0.1,0.3,0.3,0.3c0.2,0,0.3-0.1,0.3-0.3C139.8,118.1,139.6,118,139.5,118z"/>
	<path d="M143.3,102.4c0,0.2,0.1,0.3,0.3,0.3c0.2,0,0.3-0.1,0.3-0.3c0-0.2-0.1-0.3-0.3-0.3C143.5,102.1,143.3,102.2,143.3,102.4z"/>
	<circle cx="143.9" cy="101" r="0.3"/>
	<path d="M145,101.1c-0.1,0-0.2,0.1-0.2,0.2c0,0.1,0.1,0.2,0.2,0.2c0.1,0,0.2-0.1,0.2-0.2C145.2,101.2,145.1,101.1,145,101.1z"/>
	<path d="M145.2,102.3c0,0.1,0.1,0.2,0.2,0.2c0.1,0,0.2-0.1,0.2-0.2c0-0.1-0.1-0.2-0.2-0.2C145.3,102.1,145.2,102.2,145.2,102.3z"/>
	<path d="M146.3,100.1c-0.1,0-0.2,0.1-0.2,0.2c0,0.1,0.1,0.2,0.2,0.2s0.2-0.1,0.2-0.2C146.5,100.2,146.4,100.1,146.3,100.1z"/>
	<path d="M145.6,103.3c0,0.1,0.1,0.2,0.2,0.2c0.1,0,0.2-0.1,0.2-0.2c0-0.1-0.1-0.2-0.2-0.2C145.7,103.1,145.6,103.2,145.6,103.3z"/>
	<path d="M145.8,101.8c0,0.1,0.1,0.2,0.2,0.2c0.1,0,0.2-0.1,0.2-0.2s-0.1-0.2-0.2-0.2C145.9,101.6,145.8,101.7,145.8,101.8z"/>
	<path d="M145.6,100.6c-0.1,0-0.2,0.1-0.2,0.2c0,0.1,0.1,0.2,0.2,0.2c0.1,0,0.2-0.1,0.2-0.2C145.8,100.7,145.7,100.6,145.6,100.6z"
		/>
	<path d="M144.5,100.2c-0.1,0-0.3,0.1-0.3,0.3s0.1,0.3,0.3,0.3c0.1,0,0.3-0.1,0.3-0.3S144.7,100.2,144.5,100.2z"/>
	<path d="M142.1,111.6c0.2,0,0.3-0.1,0.3-0.3c0-0.2-0.1-0.3-0.3-0.3c-0.2,0-0.3,0.1-0.3,0.3C141.8,111.5,142,111.6,142.1,111.6z"/>
	<path d="M140.3,116.4c0.2,0,0.3-0.1,0.3-0.3c0-0.2-0.1-0.3-0.3-0.3c-0.2,0-0.3,0.1-0.3,0.3C140,116.3,140.1,116.4,140.3,116.4z"/>
	<path d="M141.9,110.6c0.2,0,0.3-0.1,0.3-0.3c0-0.2-0.1-0.3-0.3-0.3c-0.2,0-0.3,0.1-0.3,0.3C141.6,110.5,141.8,110.6,141.9,110.6z"
		/>
	<path d="M145.6,107.3c0-0.1-0.1-0.2-0.2-0.2c-0.1,0-0.2,0.1-0.2,0.2c0,0.1,0.1,0.2,0.2,0.2C145.5,107.5,145.6,107.5,145.6,107.3z"
		/>
	<path d="M140.2,115.5c0.2,0,0.3-0.1,0.3-0.3c0-0.2-0.1-0.3-0.3-0.3c-0.2,0-0.3,0.1-0.3,0.3C139.9,115.4,140,115.5,140.2,115.5z"/>
	<path d="M141.1,113c0-0.2-0.1-0.3-0.3-0.3c-0.2,0-0.3,0.1-0.3,0.3c0,0.2,0.1,0.3,0.3,0.3S141.1,113.1,141.1,113z"/>
	<path d="M139.5,117c-0.2,0-0.3,0.1-0.3,0.3c0,0.2,0.1,0.3,0.3,0.3c0.2,0,0.3-0.1,0.3-0.3C139.8,117.2,139.7,117,139.5,117z"/>
	<path d="M139.4,118.9c-0.2,0-0.3,0.1-0.3,0.3c0,0.2,0.1,0.3,0.3,0.3c0.2,0,0.3-0.1,0.3-0.3C139.7,119,139.6,118.9,139.4,118.9z"/>
	<path d="M140.1,114.6c0.2,0,0.3-0.1,0.3-0.3s-0.1-0.3-0.3-0.3c-0.2,0-0.3,0.1-0.3,0.3S139.9,114.6,140.1,114.6z"/>
	<path d="M140.4,113.3c0-0.2-0.2-0.3-0.3-0.3c-0.2,0-0.3,0.2-0.3,0.3s0.1,0.3,0.3,0.3C140.2,113.6,140.4,113.5,140.4,113.3z"/>
	<path d="M141.7,111.7c0-0.2-0.1-0.3-0.3-0.3c-0.2,0-0.3,0.1-0.3,0.3c0,0.2,0.1,0.3,0.3,0.3C141.6,112,141.7,111.8,141.7,111.7z"/>
	<circle cx="144.4" cy="110.2" r="0.2"/>
	<circle cx="144.7" cy="107.7" r="0.2"/>
	<path d="M142.7,110.2c0.2,0,0.3-0.1,0.3-0.3c0-0.2-0.1-0.3-0.3-0.3c-0.2,0-0.3,0.1-0.3,0.3C142.4,110.1,142.5,110.2,142.7,110.2z"
		/>
	<path d="M145.2,110.1c0.1,0,0.2-0.1,0.2-0.2c0-0.1-0.1-0.2-0.2-0.2s-0.2,0.1-0.2,0.2C145,110,145,110.1,145.2,110.1z"/>
	<path d="M144.9,109c0.1,0,0.2-0.1,0.2-0.2c0-0.1-0.1-0.2-0.2-0.2c-0.1,0-0.2,0.1-0.2,0.2C144.7,108.9,144.8,109,144.9,109z"/>
	<path d="M140.8,109.2c0.2,0,0.4-0.2,0.4-0.4c0-0.2-0.2-0.4-0.4-0.4c-0.2,0-0.4,0.2-0.4,0.4C140.4,109,140.6,109.2,140.8,109.2z"/>
	<path d="M143.5,108.6c0-0.2-0.1-0.3-0.3-0.3c-0.2,0-0.3,0.1-0.3,0.3c0,0.2,0.1,0.3,0.3,0.3C143.3,108.8,143.5,108.7,143.5,108.6z"
		/>
	<path d="M143.4,109.8c0.1,0,0.3-0.1,0.3-0.3c0-0.1-0.1-0.3-0.3-0.3c-0.1,0-0.3,0.1-0.3,0.3C143.2,109.7,143.3,109.8,143.4,109.8z"
		/>
	<path d="M143.7,110.8c0.1,0,0.3-0.1,0.3-0.2c0-0.1-0.1-0.2-0.3-0.2c-0.1,0-0.2,0.1-0.2,0.2C143.4,110.7,143.5,110.8,143.7,110.8z"
		/>
	<path d="M144.2,108.2c0-0.1-0.1-0.3-0.3-0.3c-0.1,0-0.3,0.1-0.3,0.3c0,0.1,0.1,0.3,0.3,0.3C144.1,108.4,144.2,108.3,144.2,108.2z"
		/>
	<circle cx="141.8" cy="114.6" r="0.3"/>
	<path d="M134.3,123.3c0-0.2-0.1-0.3-0.3-0.3s-0.3,0.1-0.3,0.3c0,0.2,0.1,0.3,0.3,0.3C134.2,123.6,134.3,123.5,134.3,123.3z"/>
	<path d="M133.9,122.6c0,0.2,0.2,0.3,0.3,0.3c0.2,0,0.3-0.2,0.3-0.3c0-0.2-0.2-0.3-0.3-0.3C134,122.3,133.9,122.4,133.9,122.6z"/>
	<path d="M133.1,124.6c0-0.1-0.1-0.2-0.2-0.2c-0.1,0-0.2,0.1-0.2,0.2c0,0.1,0.1,0.2,0.2,0.2C133,124.9,133.1,124.8,133.1,124.6z"/>
	<path d="M134.7,121.9c0-0.2-0.2-0.4-0.4-0.4c-0.2,0-0.4,0.2-0.4,0.4c0,0.2,0.2,0.4,0.4,0.4C134.5,122.3,134.7,122.1,134.7,121.9z"
		/>
	<path d="M134.1,124c0-0.2-0.1-0.3-0.3-0.3c-0.1,0-0.3,0.1-0.3,0.3c0,0.2,0.1,0.3,0.3,0.3C134,124.2,134.1,124.1,134.1,124z"/>
	<circle cx="134.3" cy="125.2" r="0.1"/>
	<circle cx="133" cy="124" r="0.3"/>
	<path d="M140.1,107.9c0,0.2,0.2,0.4,0.4,0.4c0.2,0,0.4-0.2,0.4-0.4c0-0.2-0.2-0.4-0.4-0.4C140.3,107.6,140.1,107.7,140.1,107.9z"/>
	<path d="M133.4,125.4c0.1,0,0.2-0.1,0.2-0.2c0-0.1-0.1-0.2-0.2-0.2c-0.1,0-0.2,0.1-0.2,0.2C133.3,125.3,133.4,125.4,133.4,125.4z"
		/>
	<circle cx="133.2" cy="123.4" r="0.3"/>
	<path d="M133.9,124.6c0-0.1-0.1-0.2-0.2-0.2s-0.2,0.1-0.2,0.2c0,0.1,0.1,0.2,0.2,0.2C133.8,124.8,133.9,124.7,133.9,124.6z"/>
	<path d="M134.7,124.6c0-0.1-0.1-0.2-0.2-0.2c-0.1,0-0.2,0.1-0.2,0.2c0,0.1,0.1,0.2,0.2,0.2C134.6,124.8,134.7,124.7,134.7,124.6z"
		/>
	<path d="M147.6,105.9c-0.1,0-0.1,0.1-0.1,0.1c0,0.1,0.1,0.1,0.1,0.1c0.1,0,0.1-0.1,0.1-0.1C147.7,106,147.6,105.9,147.6,105.9z"/>
	<path d="M147.3,108.8c0,0.1,0.1,0.1,0.1,0.1c0.1,0,0.1-0.1,0.1-0.1c0-0.1-0.1-0.1-0.1-0.1C147.3,108.6,147.3,108.7,147.3,108.8z"/>
	<path d="M142.6,115.1c-0.1,0-0.2,0.1-0.2,0.2c0,0.1,0.1,0.2,0.2,0.2c0.1,0,0.2-0.1,0.2-0.2C142.9,115.2,142.8,115.1,142.6,115.1z"
		/>
	<path d="M143.3,116.1c0,0.1,0.1,0.2,0.2,0.2s0.2-0.1,0.2-0.2c0-0.1-0.1-0.2-0.2-0.2S143.3,116,143.3,116.1z"/>
	<path d="M143.4,114.9c-0.1,0-0.2,0.1-0.2,0.2c0,0.1,0.1,0.2,0.2,0.2c0.1,0,0.2-0.1,0.2-0.2C143.6,115,143.5,114.9,143.4,114.9z"/>
	<path d="M135.1,123.2c0-0.2-0.1-0.3-0.3-0.3c-0.2,0-0.3,0.1-0.3,0.3c0,0.2,0.1,0.3,0.3,0.3C135,123.5,135.1,123.4,135.1,123.2z"/>
	<path d="M134.9,123.9c0-0.1-0.1-0.2-0.2-0.2c-0.1,0-0.3,0.1-0.3,0.2c0,0.1,0.1,0.2,0.3,0.2C134.8,124.2,134.9,124.1,134.9,123.9z"
		/>
	<path d="M148,104.5c0-0.1-0.1-0.1-0.1-0.1s-0.1,0.1-0.1,0.1c0,0.1,0.1,0.1,0.1,0.1S148,104.6,148,104.5z"/>
	<circle cx="147.8" cy="101.8" r="0.1"/>
	<path d="M147.7,107.2c0,0.1,0.1,0.1,0.1,0.1c0.1,0,0.1-0.1,0.1-0.1c0-0.1-0.1-0.1-0.1-0.1C147.8,107.1,147.7,107.1,147.7,107.2z"/>
	<path d="M147.5,103.3c-0.1,0-0.1,0.1-0.1,0.1c0,0.1,0.1,0.1,0.1,0.1c0.1,0,0.1-0.1,0.1-0.1C147.7,103.3,147.6,103.3,147.5,103.3z"
		/>
	<path d="M148.8,112C148.8,112,148.8,112.1,148.8,112c0.1,0.1,0.1,0,0.1,0C148.9,112,148.9,111.9,148.8,112
		C148.8,111.9,148.8,112,148.8,112z"/>
	<path d="M149.2,109.1C149.1,109.1,149.1,109.2,149.2,109.1c-0.1,0.1,0,0.1,0,0.1C149.2,109.3,149.2,109.2,149.2,109.1
		C149.2,109.2,149.2,109.1,149.2,109.1z"/>
	<path d="M149.4,103.6C149.4,103.5,149.3,103.5,149.4,103.6c-0.1-0.1-0.1,0-0.1,0C149.2,103.6,149.3,103.6,149.4,103.6
		C149.3,103.6,149.4,103.6,149.4,103.6z"/>
	<path d="M145.9,116.4c-0.1,0-0.1,0.1-0.1,0.1c0,0.1,0.1,0.1,0.1,0.1c0.1,0,0.1-0.1,0.1-0.1C146.1,116.5,146,116.4,145.9,116.4z"/>
	<path d="M149.1,100.9C149.2,100.9,149.2,100.9,149.1,100.9c0.1-0.1,0-0.1,0-0.1C149.1,100.7,149,100.8,149.1,100.9
		C149,100.9,149.1,100.9,149.1,100.9z"/>
	<path d="M149.3,99.2C149.3,99.2,149.3,99.2,149.3,99.2c0.1-0.1,0-0.1,0-0.1C149.2,99.1,149.2,99.1,149.3,99.2
		C149.2,99.2,149.2,99.2,149.3,99.2z"/>
	<path d="M149.4,95.8C149.4,95.8,149.4,95.9,149.4,95.8c-0.1,0.1,0,0.1,0,0.1C149.5,96,149.5,95.9,149.4,95.8
		C149.5,95.9,149.5,95.8,149.4,95.8z"/>
	<path d="M149.4,94.4C149.5,94.4,149.5,94.4,149.4,94.4c0.1-0.1,0-0.1,0-0.1C149.4,94.3,149.4,94.3,149.4,94.4
		C149.4,94.4,149.4,94.4,149.4,94.4z"/>
	<path d="M149.4,97.6C149.4,97.6,149.5,97.6,149.4,97.6c0.1-0.1,0-0.1,0-0.1C149.3,97.5,149.3,97.5,149.4,97.6
		C149.3,97.6,149.3,97.6,149.4,97.6z"/>
	<path d="M149.3,106.4C149.4,106.4,149.4,106.4,149.3,106.4c0.1-0.1,0-0.1,0-0.1C149.3,106.3,149.3,106.4,149.3,106.4
		C149.3,106.4,149.3,106.4,149.3,106.4z"/>
	<path d="M149,108C149,107.9,148.9,107.9,149,108c-0.1-0.1-0.2,0-0.2,0C148.8,108,148.9,108.1,149,108C148.9,108.1,149,108,149,108z
		"/>
	<path d="M146.7,116.3C146.7,116.3,146.6,116.3,146.7,116.3c-0.1,0.1-0.1,0.2,0,0.2C146.8,116.4,146.8,116.4,146.7,116.3
		C146.8,116.3,146.8,116.3,146.7,116.3z"/>
	<circle cx="146.8" cy="117.5" r="0.1"/>
	<path d="M145.9,118.8C145.9,118.9,145.9,118.9,145.9,118.8c0.1,0.1,0.1,0,0.1,0C146,118.8,146,118.8,145.9,118.8
		C145.9,118.8,145.9,118.8,145.9,118.8z"/>
	<circle cx="145.9" cy="117.7" r="0.1"/>
	<path d="M148.6,99.8c0.1,0,0.1,0,0.1-0.1c0-0.1,0-0.1-0.1-0.1c-0.1,0-0.1,0-0.1,0.1C148.5,99.8,148.6,99.8,148.6,99.8z"/>
	<path d="M148.9,102.5C148.9,102.5,149,102.5,148.9,102.5c0.1-0.1,0-0.2,0-0.2S148.8,102.4,148.9,102.5
		C148.8,102.5,148.8,102.5,148.9,102.5z"/>
	<path d="M148.9,95C149,95,149,95,148.9,95c0.1-0.1,0.1-0.2,0-0.2C148.8,94.8,148.8,94.9,148.9,95C148.8,95,148.8,95,148.9,95z"/>
	<path d="M149.1,105.2C149.1,105.2,149,105.1,149.1,105.2c-0.1-0.1-0.2,0-0.2,0C148.9,105.2,148.9,105.3,149.1,105.2
		C149,105.3,149.1,105.2,149.1,105.2z"/>
	<path d="M148.9,96.6C148.9,96.6,149,96.6,148.9,96.6c0.1-0.1,0.1-0.2,0-0.2C148.8,96.4,148.8,96.5,148.9,96.6
		C148.8,96.6,148.8,96.6,148.9,96.6z"/>
	<path d="M148.8,98.2c0.1,0,0.1,0,0.1-0.1c0-0.1,0-0.1-0.1-0.1C148.7,98,148.7,98.1,148.8,98.2C148.7,98.2,148.7,98.2,148.8,98.2z"
		/>
	<circle cx="132.6" cy="125.2" r="0.2"/>
	<path d="M145.8,105.7c-0.1,0-0.2,0.1-0.2,0.2c0,0.1,0.1,0.2,0.2,0.2c0.1,0,0.2-0.1,0.2-0.2C146,105.7,145.9,105.7,145.8,105.7z"/>
	<path d="M146.5,105.6c0.1,0,0.2-0.1,0.2-0.2c0-0.1-0.1-0.2-0.2-0.2c-0.1,0-0.2,0.1-0.2,0.2C146.3,105.5,146.4,105.6,146.5,105.6z"
		/>
	<path d="M139.6,113.6c0-0.2-0.2-0.4-0.4-0.4c-0.2,0-0.4,0.2-0.4,0.4s0.2,0.4,0.4,0.4C139.4,114,139.6,113.8,139.6,113.6z"/>
	<path d="M138.1,119.6c0-0.2-0.1-0.3-0.3-0.3c-0.2,0-0.3,0.1-0.3,0.3c0,0.2,0.1,0.3,0.3,0.3C138,119.9,138.1,119.8,138.1,119.6z"/>
	<path d="M145.5,104.6c-0.1,0-0.2,0.1-0.2,0.2s0.1,0.2,0.2,0.2s0.2-0.1,0.2-0.2S145.6,104.6,145.5,104.6z"/>
	<path d="M137.9,116.6c-0.2,0-0.4,0.2-0.4,0.4c0,0.2,0.2,0.4,0.4,0.4c0.2,0,0.4-0.2,0.4-0.4C138.2,116.8,138.1,116.6,137.9,116.6z"
		/>
	<circle cx="137.9" cy="118.7" r="0.3"/>
	<path d="M138.6,115.2c0.2,0,0.4-0.2,0.4-0.4c0-0.2-0.2-0.4-0.4-0.4c-0.2,0-0.4,0.2-0.4,0.4C138.2,115.1,138.4,115.2,138.6,115.2z"
		/>
	<circle cx="137.9" cy="116.1" r="0.4"/>
	<path d="M137.9,117.5c-0.2,0-0.3,0.2-0.3,0.3c0,0.2,0.2,0.3,0.3,0.3c0.2,0,0.3-0.2,0.3-0.3C138.2,117.7,138.1,117.5,137.9,117.5z"
		/>
	<path d="M138.6,115.4c-0.2,0-0.4,0.2-0.4,0.4c0,0.2,0.2,0.4,0.4,0.4c0.2,0,0.4-0.2,0.4-0.4C139,115.6,138.8,115.4,138.6,115.4z"/>
	<path d="M146.2,104.2c-0.1,0-0.2,0.1-0.2,0.2c0,0.1,0.1,0.2,0.2,0.2c0.1,0,0.2-0.1,0.2-0.2C146.3,104.3,146.3,104.2,146.2,104.2z"
		/>
	<path d="M142.3,105.4c-0.2,0-0.3,0.1-0.3,0.3c0,0.2,0.1,0.3,0.3,0.3c0.2,0,0.3-0.1,0.3-0.3C142.6,105.5,142.5,105.4,142.3,105.4z"
		/>
	<path d="M142.2,107.1c0-0.2-0.1-0.3-0.3-0.3c-0.2,0-0.3,0.1-0.3,0.3c0,0.2,0.1,0.3,0.3,0.3C142.1,107.4,142.2,107.2,142.2,107.1z"
		/>
	<path d="M142,104.4c-0.2,0-0.3,0.2-0.3,0.3c0,0.2,0.1,0.3,0.3,0.3c0.2,0,0.3-0.2,0.3-0.3C142.3,104.6,142.2,104.4,142,104.4z"/>
	<path d="M141.3,104.9c-0.2,0-0.4,0.2-0.4,0.4c0,0.2,0.2,0.4,0.4,0.4c0.2,0,0.4-0.2,0.4-0.4C141.6,105,141.5,104.9,141.3,104.9z"/>
	<path d="M140.6,106.6c0,0.2,0.2,0.4,0.4,0.4c0.2,0,0.4-0.2,0.4-0.4c0-0.2-0.2-0.4-0.4-0.4C140.7,106.2,140.6,106.4,140.6,106.6z"/>
	<path d="M142,106.1c0-0.2-0.2-0.3-0.3-0.3s-0.3,0.2-0.3,0.3c0,0.2,0.2,0.3,0.3,0.3S142,106.3,142,106.1z"/>
	<circle cx="142.6" cy="106.6" r="0.3"/>
	<path d="M140.9,107.5c0,0.2,0.2,0.3,0.3,0.3c0.2,0,0.3-0.2,0.3-0.3c0-0.2-0.2-0.3-0.3-0.3C141,107.1,140.9,107.3,140.9,107.5z"/>
	<path d="M141.8,108.4c0-0.2-0.1-0.3-0.3-0.3c-0.2,0-0.3,0.2-0.3,0.3c0,0.2,0.1,0.3,0.3,0.3C141.7,108.7,141.8,108.6,141.8,108.4z"
		/>
	<path d="M141,109.4c-0.2,0-0.3,0.2-0.3,0.3c0,0.2,0.2,0.3,0.3,0.3c0.2,0,0.3-0.2,0.3-0.3C141.3,109.6,141.2,109.4,141,109.4z"/>
	<path d="M140.9,113.6c-0.2,0-0.3,0.1-0.3,0.3c0,0.2,0.1,0.3,0.3,0.3c0.2,0,0.3-0.1,0.3-0.3C141.2,113.8,141.1,113.6,140.9,113.6z"
		/>
	<circle cx="136" cy="121.6" r="0.3"/>
	<path d="M142.5,116.4c0,0.1,0.1,0.2,0.2,0.2c0.1,0,0.2-0.1,0.2-0.2c0-0.1-0.1-0.2-0.2-0.2C142.6,116.1,142.5,116.2,142.5,116.4z"/>
	<path d="M140.3,116.8c-0.2,0-0.3,0.1-0.3,0.3c0,0.2,0.1,0.3,0.3,0.3c0.2,0,0.3-0.1,0.3-0.3C140.6,116.9,140.4,116.8,140.3,116.8z"
		/>
	<circle cx="140.3" cy="118.1" r="0.3"/>
	<path d="M141,114.6c-0.2,0-0.3,0.1-0.3,0.3c0,0.2,0.1,0.3,0.3,0.3c0.2,0,0.3-0.1,0.3-0.3C141.3,114.7,141.2,114.6,141,114.6z"/>
	<circle cx="141" cy="115.9" r="0.3"/>
	<path d="M143.2,110.9c0-0.1-0.1-0.3-0.3-0.3c-0.1,0-0.3,0.1-0.3,0.3c0,0.2,0.1,0.3,0.3,0.3C143,111.2,143.2,111.1,143.2,110.9z"/>
	<path d="M141.6,115.6c0,0.1,0.1,0.3,0.3,0.3c0.1,0,0.3-0.1,0.3-0.3c0-0.1-0.1-0.3-0.3-0.3C141.7,115.3,141.6,115.5,141.6,115.6z"/>
	<path d="M142.6,114.1c-0.1,0-0.3,0.1-0.3,0.3c0,0.1,0.1,0.3,0.3,0.3s0.3-0.1,0.3-0.3C142.8,114.2,142.7,114.1,142.6,114.1z"/>
	<path d="M143.2,101.2c-0.2,0-0.3,0.1-0.3,0.3c0,0.2,0.1,0.3,0.3,0.3c0.2,0,0.3-0.1,0.3-0.3C143.5,101.3,143.4,101.2,143.2,101.2z"
		/>
	<path d="M137.1,118.6c-0.2,0-0.4,0.2-0.4,0.3c0,0.2,0.2,0.4,0.4,0.4c0.2,0,0.4-0.2,0.4-0.4C137.4,118.8,137.3,118.6,137.1,118.6z"
		/>
	<circle cx="137.1" cy="117.2" r="0.4"/>
	<path d="M138,120.5c0-0.2-0.1-0.3-0.3-0.3s-0.3,0.1-0.3,0.3c0,0.2,0.1,0.3,0.3,0.3S138,120.6,138,120.5z"/>
	<path d="M137.6,121.6c0.2,0,0.3-0.1,0.3-0.3c0-0.2-0.1-0.3-0.3-0.3c-0.2,0-0.3,0.1-0.3,0.3C137.3,121.5,137.5,121.6,137.6,121.6z"
		/>
	<path d="M137.3,119.8c0-0.2-0.2-0.3-0.3-0.3c-0.2,0-0.3,0.2-0.3,0.3c0,0.2,0.2,0.3,0.3,0.3C137.2,120.1,137.3,120,137.3,119.8z"/>
	<path d="M135.5,122.4c0,0.2,0.1,0.3,0.3,0.3c0.2,0,0.3-0.1,0.3-0.3c0-0.2-0.1-0.3-0.3-0.3C135.7,122.1,135.5,122.2,135.5,122.4z"/>
	<path d="M137.1,117.7c-0.2,0-0.4,0.2-0.4,0.4c0,0.2,0.2,0.4,0.4,0.4c0.2,0,0.4-0.2,0.4-0.4C137.5,117.9,137.3,117.7,137.1,117.7z"
		/>
	<path d="M136.5,120c0-0.2-0.2-0.4-0.4-0.4c-0.2,0-0.4,0.2-0.4,0.4c0,0.2,0.2,0.4,0.4,0.4C136.4,120.4,136.5,120.2,136.5,120z"/>
	<path d="M136.4,120.8c0-0.2-0.1-0.3-0.3-0.3c-0.2,0-0.3,0.2-0.3,0.3c0,0.2,0.2,0.3,0.3,0.3C136.3,121.2,136.4,121,136.4,120.8z"/>
	<path d="M136.8,121.8c0.2,0,0.3-0.1,0.3-0.3c0-0.2-0.1-0.3-0.3-0.3s-0.3,0.1-0.3,0.3C136.5,121.6,136.6,121.8,136.8,121.8z"/>
	<path d="M137.2,120.6c0-0.2-0.1-0.3-0.3-0.3c-0.2,0-0.3,0.1-0.3,0.3s0.1,0.3,0.3,0.3S137.2,120.8,137.2,120.6z"/>
	<path d="M134.7,122.5c0,0.2,0.1,0.3,0.3,0.3s0.3-0.1,0.3-0.3c0-0.2-0.1-0.3-0.3-0.3S134.7,122.3,134.7,122.5z"/>
	<path d="M146.3,111.9c0.1,0,0.2-0.1,0.2-0.2c0-0.1-0.1-0.2-0.2-0.2c-0.1,0-0.2,0.1-0.2,0.2C146.2,111.8,146.2,111.9,146.3,111.9z"
		/>
	<path d="M145.7,113.3c0.1,0,0.2-0.1,0.2-0.2s-0.1-0.2-0.2-0.2c-0.1,0-0.2,0.1-0.2,0.2S145.6,113.3,145.7,113.3z"/>
	<circle cx="146.1" cy="110.6" r="0.2"/>
	<path d="M145.5,112.2c0.1,0,0.2-0.1,0.2-0.2c0-0.1-0.1-0.2-0.2-0.2c-0.1,0-0.2,0.1-0.2,0.2C145.4,112.2,145.5,112.2,145.5,112.2z"
		/>
	<path d="M145.9,115.6c0.1,0,0.1-0.1,0.1-0.1c0-0.1-0.1-0.1-0.1-0.1c-0.1,0-0.1,0.1-0.1,0.1C145.8,115.5,145.8,115.6,145.9,115.6z"
		/>
	<circle cx="145.8" cy="114.3" r="0.2"/>
	<path d="M145.6,110.9c0-0.1-0.1-0.2-0.2-0.2s-0.2,0.1-0.2,0.2c0,0.1,0.1,0.2,0.2,0.2S145.6,111.1,145.6,110.9z"/>
	<path d="M145.3,117.9c0-0.1-0.1-0.1-0.1-0.1c-0.1,0-0.1,0.1-0.1,0.1c0,0.1,0.1,0.1,0.1,0.1C145.2,118,145.3,117.9,145.3,117.9z"/>
	<path d="M145,120C145,120,145,120,145,120c-0.1,0.1,0,0.1,0,0.1C145.1,120.1,145.1,120.1,145,120C145.1,120,145.1,120,145,120z"/>
	<path d="M145.1,116.6c-0.1,0-0.1,0.1-0.1,0.1c0,0.1,0.1,0.1,0.1,0.1c0.1,0,0.1-0.1,0.1-0.1C145.3,116.7,145.2,116.6,145.1,116.6z"
		/>
	<path d="M147.4,113.9c0.1,0,0.1,0,0.1-0.1c0-0.1,0-0.1-0.1-0.1c-0.1,0-0.1,0-0.1,0.1C147.3,113.8,147.3,113.9,147.4,113.9z"/>
	<path d="M145.2,119c0-0.1,0-0.1-0.1-0.1c-0.1,0-0.1,0-0.1,0.1c0,0.1,0,0.1,0.1,0.1C145.2,119.1,145.2,119,145.2,119z"/>
	<path d="M147.9,111.2c0.1,0,0.1,0,0.1-0.1c0-0.1,0-0.1-0.1-0.1c-0.1,0-0.1,0-0.1,0.1C147.8,111.2,147.8,111.2,147.9,111.2z"/>
	<path d="M147.8,109.9c0-0.1-0.1-0.1-0.1-0.1c-0.1,0-0.1,0.1-0.1,0.1c0,0.1,0.1,0.1,0.1,0.1C147.7,110,147.8,110,147.8,109.9z"/>
	<path d="M147.3,112.7c0.1,0,0.1-0.1,0.1-0.1c0-0.1-0.1-0.1-0.1-0.1c-0.1,0-0.1,0.1-0.1,0.1C147.1,112.7,147.2,112.7,147.3,112.7z"
		/>
	<path d="M147.6,116.2C147.6,116.2,147.6,116.2,147.6,116.2c0.1-0.1,0-0.1,0-0.1C147.5,116.1,147.5,116.1,147.6,116.2
		C147.5,116.2,147.5,116.2,147.6,116.2z"/>
	<circle cx="146.5" cy="112.9" r="0.1"/>
	<path d="M146.7,115.3c0.1,0,0.1-0.1,0.1-0.1s-0.1-0.1-0.1-0.1c-0.1,0-0.1,0.1-0.1,0.1C146.6,115.3,146.6,115.3,146.7,115.3z"/>
	<path d="M146.6,114.2c0.1,0,0.1-0.1,0.1-0.1c0-0.1-0.1-0.1-0.1-0.1c-0.1,0-0.1,0.1-0.1,0.1C146.5,114.1,146.5,114.2,146.6,114.2z"
		/>
	<path d="M147,110.3c0-0.1-0.1-0.1-0.1-0.1c-0.1,0-0.1,0.1-0.1,0.1c0,0.1,0.1,0.1,0.1,0.1C147,110.4,147,110.3,147,110.3z"/>
	<circle cx="147.1" cy="111.4" r="0.1"/>
	<path d="M147.5,115C147.5,115,147.6,115,147.5,115c0.1-0.1,0-0.2,0-0.2C147.4,114.9,147.4,114.9,147.5,115
		C147.4,115,147.4,115,147.5,115z"/>
	<path d="M144,112.9c0.1,0,0.2-0.1,0.2-0.2c0-0.1-0.1-0.2-0.2-0.2c-0.1,0-0.2,0.1-0.2,0.2C143.8,112.8,143.9,112.9,144,112.9z"/>
	<path d="M144.1,111.6c0-0.1-0.1-0.2-0.2-0.2c-0.1,0-0.2,0.1-0.2,0.2c0,0.1,0.1,0.2,0.2,0.2C144,111.9,144.1,111.8,144.1,111.6z"/>
	<path d="M144.1,114c0.1,0,0.2-0.1,0.2-0.2c0-0.1-0.1-0.2-0.2-0.2c-0.1,0-0.2,0.1-0.2,0.2C143.9,113.9,144,114,144.1,114z"/>
	<circle cx="144.2" cy="114.8" r="0.2"/>
	<path d="M143.5,117c-0.1,0-0.2,0.1-0.2,0.2c0,0.1,0.1,0.2,0.2,0.2c0.1,0,0.2-0.1,0.2-0.2C143.7,117.1,143.6,117,143.5,117z"/>
	<path d="M145.1,115.8c0.1,0,0.2-0.1,0.2-0.2c0-0.1-0.1-0.2-0.2-0.2c-0.1,0-0.2,0.1-0.2,0.2C144.9,115.7,145,115.8,145.1,115.8z"/>
	<path d="M143.5,120.3c0-0.1-0.1-0.1-0.1-0.1c-0.1,0-0.1,0.1-0.1,0.1c0,0.1,0.1,0.1,0.1,0.1C143.5,120.5,143.5,120.4,143.5,120.3z"
		/>
	<path d="M144.1,115.9c0,0.1,0.1,0.2,0.2,0.2c0.1,0,0.2-0.1,0.2-0.2c0-0.1-0.1-0.2-0.2-0.2C144.2,115.7,144.1,115.8,144.1,115.9z"/>
	<path d="M143.3,121.5C143.3,121.5,143.4,121.4,143.3,121.5c0.1-0.1,0-0.2,0-0.2C143.2,121.3,143.2,121.3,143.3,121.5
		C143.2,121.4,143.2,121.5,143.3,121.5z"/>
	<path d="M143.6,119.3c0-0.1-0.1-0.2-0.1-0.2c-0.1,0-0.2,0.1-0.2,0.2c0,0.1,0.1,0.2,0.2,0.2C143.5,119.4,143.6,119.4,143.6,119.3z"
		/>
	<circle cx="143.5" cy="118.2" r="0.2"/>
	<path d="M144.8,111.3c0-0.1-0.1-0.2-0.2-0.2c-0.1,0-0.2,0.1-0.2,0.2c0,0.1,0.1,0.2,0.2,0.2C144.7,111.5,144.8,111.4,144.8,111.3z"
		/>
	<path d="M144.9,113.6c0.1,0,0.2-0.1,0.2-0.2c0-0.1-0.1-0.2-0.2-0.2c-0.1,0-0.2,0.1-0.2,0.2C144.7,113.6,144.8,113.6,144.9,113.6z"
		/>
	<circle cx="144.8" cy="112.4" r="0.2"/>
	<circle cx="145" cy="114.6" r="0.2"/>
	<circle cx="144.1" cy="121.3" r="0.1"/>
	<path d="M144.4,119.1c0-0.1-0.1-0.1-0.1-0.1c-0.1,0-0.1,0.1-0.1,0.1c0,0.1,0.1,0.1,0.1,0.1C144.4,119.3,144.4,119.2,144.4,119.1z"
		/>
	<path d="M144.3,120.2c0-0.1,0-0.1-0.1-0.1c-0.1,0-0.1,0-0.1,0.1c0,0.1,0,0.1,0.1,0.1C144.3,120.3,144.3,120.3,144.3,120.2z"/>
	<path d="M144.5,118.1c0-0.1-0.1-0.1-0.1-0.1c-0.1,0-0.1,0.1-0.1,0.1c0,0.1,0.1,0.1,0.1,0.1C144.4,118.2,144.5,118.1,144.5,118.1z"
		/>
	<path d="M144.3,116.8c-0.1,0-0.2,0.1-0.2,0.2c0,0.1,0.1,0.2,0.2,0.2c0.1,0,0.2-0.1,0.2-0.2C144.5,116.9,144.4,116.8,144.3,116.8z"
		/>
	<path d="M119.4,105.5c-0.1-0.2-0.2-0.3-0.3-0.4c-0.3-0.2-0.5-0.1-0.6-0.3c-0.2-0.2-0.1-0.4-0.2-0.6c-0.1-0.1-0.2-0.2-0.3-0.2
		c-0.2,0-0.3,0.2-0.3,0.3c-0.5,2.6-1.7,3.8-1.7,4.3c0,0.2,0.3,0.4,0.4,0.4C116.7,109.1,119.4,105.5,119.4,105.5z"/>
	<path d="M148,112.4C148.1,112.4,148.1,112.3,148,112.4c0.1-0.1,0.1-0.2,0-0.2C148,112.2,147.9,112.2,148,112.4
		C147.9,112.3,148,112.4,148,112.4z"/>
	<path d="M145.3,98.7c0.1,0,0.2-0.1,0.2-0.2c0-0.1-0.1-0.2-0.2-0.2c-0.1,0-0.2,0.1-0.2,0.2C145.1,98.6,145.2,98.7,145.3,98.7z"/>
	<path d="M144.7,99.3c0.1,0,0.3-0.1,0.3-0.3c0-0.1-0.1-0.3-0.3-0.3c-0.1,0-0.3,0.1-0.3,0.3C144.5,99.1,144.6,99.3,144.7,99.3z"/>
	<path d="M144.1,99.8c0.2,0,0.3-0.1,0.3-0.3c0-0.2-0.1-0.3-0.3-0.3c-0.2,0-0.3,0.1-0.3,0.3C143.8,99.7,143.9,99.8,144.1,99.8z"/>
	<path d="M143.4,100.4c0.2,0,0.3-0.1,0.3-0.3c0-0.2-0.1-0.3-0.3-0.3c-0.2,0-0.3,0.1-0.3,0.3C143.1,100.3,143.3,100.4,143.4,100.4z"
		/>
	<path d="M146,98.1c0.1,0,0.2-0.1,0.2-0.2c0-0.1-0.1-0.2-0.2-0.2c-0.1,0-0.2,0.1-0.2,0.2C145.7,98,145.8,98.1,146,98.1z"/>
	<path d="M146.4,99c0.1,0,0.2-0.1,0.2-0.2c0-0.1-0.1-0.2-0.2-0.2c-0.1,0-0.2,0.1-0.2,0.2C146.2,98.9,146.3,99,146.4,99z"/>
	<path d="M146.6,97.5c0.1,0,0.2-0.1,0.2-0.2c0-0.1-0.1-0.2-0.2-0.2c-0.1,0-0.2,0.1-0.2,0.2C146.4,97.4,146.5,97.5,146.6,97.5z"/>
	<circle cx="145.8" cy="99.4" r="0.2"/>
	<path d="M142.8,101c0.2,0,0.3-0.1,0.3-0.3c0-0.2-0.1-0.3-0.3-0.3c-0.2,0-0.3,0.1-0.3,0.3C142.5,100.8,142.6,101,142.8,101z"/>
	<path d="M130.9,124.9c-0.1,0-0.3,0.1-0.3,0.3c0,0.1,0.1,0.3,0.3,0.3c0.1,0,0.3-0.1,0.3-0.3C131.2,125.1,131.1,124.9,130.9,124.9z"
		/>
	<path d="M131.8,125c-0.1,0-0.2,0.1-0.2,0.2c0,0.1,0.1,0.2,0.2,0.2c0.1,0,0.2-0.1,0.2-0.2C132,125.1,131.9,125,131.8,125z"/>
	<path d="M143.3,114.3c0.1,0,0.2-0.1,0.2-0.2c0-0.1-0.1-0.2-0.2-0.2c-0.1,0-0.2,0.1-0.2,0.2C143.1,114.2,143.2,114.3,143.3,114.3z"
		/>
	<path d="M132.2,124.7c0-0.1-0.1-0.3-0.3-0.3s-0.3,0.1-0.3,0.3c0,0.1,0.1,0.3,0.3,0.3C132.1,124.9,132.2,124.8,132.2,124.7z"/>
	<circle cx="146.9" cy="99.8" r="0.2"/>
	<path d="M140.9,102.6c0.2,0,0.4-0.2,0.4-0.4c0-0.2-0.2-0.4-0.4-0.4c-0.2,0-0.4,0.2-0.4,0.4C140.5,102.4,140.7,102.6,140.9,102.6z"
		/>
	<circle cx="142.2" cy="101.2" r="0.3"/>
	<path d="M141.5,102.1c0.2,0,0.4-0.2,0.4-0.4c0-0.2-0.2-0.4-0.4-0.4c-0.2,0-0.4,0.2-0.4,0.4C141.1,101.9,141.3,102.1,141.5,102.1z"
		/>
	<path d="M117.3,125.6l8.8,0c0.2,0,0.3-0.1,0.4-0.3c0.1,0.1,0.2,0.2,0.3,0.2c0.2,0,0.4-0.2,0.4-0.4c0,0,0,0,0-0.1
		c0.1-0.1,0.2-0.2,0.2-0.3c0,0,0,0,0,0c0,0,0.1,0,0.1,0c0,0,0,0,0,0.1c0,0,0,0.1,0,0.1c-0.1,0.1-0.2,0.2-0.2,0.3
		c0,0.2,0.2,0.3,0.3,0.3c0.2,0,0.3-0.2,0.3-0.3c0,0,0-0.1,0-0.1c0.1-0.1,0.2-0.2,0.2-0.3c0,0,0,0,0-0.1c0.1-0.1,0.3-0.2,0.3-0.4
		c0,0,0,0,0-0.1c0,0,0,0,0,0c0,0,0,0,0,0.1c0,0.1,0,0.1,0,0.2c-0.1,0.1-0.2,0.2-0.2,0.3c0,0,0,0.1,0,0.1c-0.1,0-0.2,0.2-0.2,0.3
		c0,0.2,0.1,0.3,0.3,0.3c0.2,0,0.3-0.1,0.3-0.3c0,0,0-0.1,0-0.1c0.1,0,0.2-0.2,0.2-0.3c0,0,0-0.1,0-0.1c0.2-0.1,0.3-0.2,0.3-0.4
		c0,0,0-0.1,0-0.1c0.1,0,0.1-0.1,0.1-0.1c0,0,0,0.1,0,0.2c0,0.1,0,0.1,0.1,0.2c-0.1,0-0.2,0.2-0.2,0.3c0,0.1,0,0.1,0,0.2
		c-0.1,0-0.2,0.2-0.2,0.3c0,0.2,0.1,0.3,0.3,0.3c0.2,0,0.3-0.1,0.3-0.3c0-0.1,0-0.1,0-0.1c0.1,0,0.3-0.2,0.3-0.3c0-0.1,0-0.1,0-0.1
		c0.2,0,0.3-0.2,0.3-0.4c0-0.1,0-0.1,0-0.2c0.1-0.1,0.3-0.2,0.3-0.4c0-0.1,0-0.1,0-0.2c0.1,0,0.1-0.1,0.1-0.1c0,0.1-0.1,0.1-0.1,0.2
		c0,0.1,0,0.2,0.1,0.2c-0.1,0-0.2,0.2-0.2,0.3c0,0.1,0,0.2,0.1,0.2c-0.1,0-0.2,0.2-0.2,0.3c0,0.1,0,0.2,0.1,0.2
		c-0.1,0-0.3,0.1-0.3,0.3c0,0.2,0.1,0.3,0.3,0.3c0.2,0,0.3-0.1,0.3-0.3c0-0.1,0-0.1-0.1-0.2c0.2,0,0.3-0.1,0.3-0.3
		c0-0.1,0-0.1-0.1-0.2c0.2,0,0.3-0.2,0.3-0.3c0-0.1,0-0.1-0.1-0.2c0.2,0,0.3-0.2,0.3-0.4c0-0.1,0-0.1-0.1-0.2
		c0.2-0.1,0.3-0.2,0.3-0.4c0-0.1,0-0.1-0.1-0.2c0.1-0.1,0.2-0.2,0.2-0.4c0-0.1,0-0.2-0.1-0.2c0,0,0.1,0,0.1-0.1c0,0,0,0.1,0,0.1
		c0,0.1,0,0.2,0.1,0.3c-0.1,0.1-0.2,0.2-0.2,0.4c0,0.1,0,0.2,0.1,0.3c-0.1,0-0.3,0.2-0.3,0.3c0,0.1,0,0.2,0.1,0.3
		c-0.2,0-0.3,0.2-0.3,0.3c0,0.1,0.1,0.2,0.1,0.3c0,0,0,0,0,0c-0.2,0-0.3,0.1-0.3,0.3c0,0.2,0.1,0.3,0.3,0.3c0.2,0,0.3-0.1,0.3-0.3
		c0-0.1,0-0.2-0.1-0.2c0,0,0,0,0,0c0.2,0,0.3-0.1,0.3-0.3c0-0.1,0-0.2-0.1-0.2c0.2,0,0.3-0.2,0.3-0.4c0-0.1,0-0.2-0.1-0.2
		c0.2,0,0.3-0.2,0.3-0.4c0-0.1,0-0.2-0.1-0.2c0.2-0.1,0.3-0.2,0.3-0.4c0-0.1,0-0.2-0.1-0.3c0.1-0.1,0.3-0.2,0.3-0.4
		c0-0.1,0-0.2-0.1-0.3c0.1-0.1,0.2-0.2,0.2-0.4c0,0,0,0,0,0c0,0,0.1,0.1,0.1,0.1c-0.1,0.1-0.2,0.2-0.2,0.4c0,0.1,0.1,0.2,0.1,0.3
		c-0.2,0.1-0.3,0.2-0.3,0.4c0,0.1,0.1,0.2,0.1,0.3c-0.2,0-0.3,0.2-0.3,0.4c0,0.1,0.1,0.2,0.1,0.3c-0.2,0-0.3,0.2-0.3,0.3
		c0,0.1,0.1,0.2,0.2,0.3c0,0,0,0,0,0c-0.2,0-0.3,0.1-0.3,0.3c0,0.2,0.1,0.3,0.3,0.3c0.2,0,0.3-0.1,0.3-0.3c0-0.1-0.1-0.2-0.1-0.3
		c0,0,0,0,0,0c0.2,0,0.3-0.2,0.3-0.3c0-0.1-0.1-0.2-0.1-0.3c0.2,0,0.3-0.2,0.3-0.4c0-0.1-0.1-0.2-0.1-0.3c0.2,0,0.3-0.2,0.3-0.4
		c0-0.1-0.1-0.2-0.1-0.3c0.2-0.1,0.3-0.2,0.3-0.4c0-0.1-0.1-0.2-0.1-0.3c0.2-0.1,0.3-0.2,0.3-0.4c0-0.1-0.1-0.2-0.1-0.3
		c0.1-0.1,0.3-0.2,0.3-0.4c0,0,0,0,0-0.1c0,0.1,0.1,0.1,0.2,0.2c-0.2,0.1-0.3,0.2-0.3,0.4c0,0.1,0.1,0.3,0.2,0.3
		c-0.2,0-0.3,0.2-0.3,0.4c0,0.1,0.1,0.3,0.2,0.3c-0.2,0-0.3,0.2-0.3,0.4c0,0.1,0.1,0.3,0.2,0.3c-0.2,0-0.3,0.2-0.3,0.3
		c0,0.2,0.2,0.3,0.4,0.3c0.2,0,0.4-0.2,0.4-0.3c0-0.1-0.1-0.3-0.2-0.3c0.2,0,0.4-0.2,0.4-0.4c0-0.1-0.1-0.3-0.2-0.3
		c0.2,0,0.3-0.2,0.3-0.4c0-0.1-0.1-0.3-0.2-0.3c0.2,0,0.3-0.2,0.3-0.4c0-0.1-0.1-0.3-0.2-0.3c0.2-0.1,0.3-0.2,0.3-0.4
		c0-0.1-0.1-0.3-0.2-0.3c0.2-0.1,0.3-0.2,0.3-0.4c0,0,0-0.1,0-0.1c0,0.1,0.1,0.2,0.2,0.2c-0.2,0-0.3,0.2-0.3,0.4
		c0,0.2,0.1,0.3,0.3,0.4c-0.2,0-0.3,0.2-0.3,0.4c0,0.2,0.1,0.3,0.3,0.4c0,0,0,0,0,0c-0.2,0-0.4,0.2-0.4,0.4c0,0.2,0.2,0.4,0.4,0.4
		s0.4-0.2,0.4-0.4c0-0.2-0.1-0.3-0.3-0.4c0,0,0,0,0,0c0.2,0,0.4-0.2,0.4-0.4c0-0.2-0.1-0.3-0.3-0.4c0.2,0,0.4-0.2,0.4-0.4
		c0-0.2-0.1-0.3-0.3-0.4c0.2,0,0.3-0.2,0.3-0.4c0-0.2-0.1-0.3-0.3-0.4c0.2-0.1,0.3-0.2,0.3-0.4c0-0.2-0.1-0.3-0.2-0.4
		c0.2-0.1,0.3-0.2,0.3-0.4c0,0,0,0,0-0.1c0.1,0.1,0.2,0.2,0.3,0.2c-0.2,0-0.3,0.2-0.3,0.4c0,0.2,0.2,0.4,0.4,0.4
		c0.2,0,0.4-0.2,0.4-0.4c0-0.2-0.1-0.4-0.3-0.4c0.2,0,0.3-0.2,0.3-0.4c0-0.2-0.1-0.4-0.3-0.4c0.2-0.1,0.3-0.2,0.3-0.4
		c0,0,0-0.1,0-0.1c0.1,0.1,0.2,0.2,0.3,0.2c0.2,0,0.4-0.2,0.4-0.4c0-0.2-0.2-0.4-0.4-0.4c0.2,0,0.3-0.2,0.3-0.4c0-0.1,0-0.1,0-0.1
		c0.1,0.1,0.2,0.2,0.4,0.2c0.2,0,0.4-0.2,0.4-0.4c0-0.2-0.2-0.4-0.4-0.4c-0.2,0-0.4,0.2-0.4,0.4c0,0,0,0.1,0,0.1
		c-0.1-0.1-0.2-0.2-0.3-0.2c0.2-0.1,0.3-0.2,0.3-0.4c0,0,0-0.1,0-0.1c0.1,0.1,0.2,0.1,0.3,0.1c0.2,0,0.4-0.2,0.4-0.4
		c0-0.2-0.2-0.4-0.4-0.4c0.2-0.1,0.3-0.2,0.3-0.4c0,0,0-0.1,0-0.1c0.1,0.1,0.2,0.2,0.3,0.2c0.2,0,0.4-0.2,0.4-0.4
		c0-0.2-0.2-0.4-0.4-0.4c-0.2,0-0.4,0.2-0.4,0.4c0,0,0,0.1,0,0.1c-0.1-0.1-0.2-0.1-0.3-0.2c0.1-0.1,0.2-0.2,0.2-0.4c0,0,0-0.1,0-0.1
		c0.1,0.1,0.2,0.1,0.3,0.1c0.2,0,0.4-0.2,0.4-0.4c0-0.1,0-0.1,0-0.2c0.1,0.1,0.2,0.2,0.3,0.2c0.2,0,0.4-0.2,0.4-0.4
		c0-0.2-0.2-0.4-0.4-0.4c-0.2,0-0.4,0.2-0.4,0.4c0,0.1,0,0.1,0,0.1c-0.1-0.1-0.2-0.2-0.3-0.2c0.2-0.1,0.3-0.2,0.3-0.4
		c0,0,0-0.1,0-0.1c0.1,0.1,0.2,0.1,0.3,0.1c0.2,0,0.4-0.2,0.4-0.4c0-0.1,0-0.1,0-0.2c0.1,0.1,0.2,0.2,0.3,0.2c0.2,0,0.4-0.2,0.4-0.4
		c0-0.2-0.2-0.4-0.4-0.4c-0.2,0-0.4,0.2-0.4,0.4c0,0.1,0,0.1,0,0.2c-0.1-0.1-0.2-0.2-0.4-0.2c0,0,0,0-0.1,0c0.2-0.1,0.3-0.2,0.3-0.4
		c0,0,0-0.1,0-0.1c0.1,0.1,0.2,0.1,0.3,0.1c0.2,0,0.4-0.2,0.4-0.4c0-0.2-0.2-0.4-0.4-0.4c-0.2,0-0.4,0.2-0.4,0.4c0,0,0,0.1,0,0.1
		c-0.1-0.1-0.2-0.1-0.3-0.1c0.1-0.1,0.2-0.2,0.2-0.4c0,0,0-0.1,0-0.1c0.1,0.1,0.2,0.1,0.3,0.1c0.2,0,0.4-0.2,0.4-0.4
		c0-0.1,0-0.1,0-0.2c0.1,0.1,0.2,0.1,0.3,0.1c0.2,0,0.4-0.2,0.4-0.4c0-0.2-0.2-0.4-0.4-0.4c-0.2,0-0.4,0.2-0.4,0.4
		c0,0.1,0,0.1,0,0.1c-0.1-0.1-0.2-0.1-0.3-0.1c0,0,0,0,0,0c0.1-0.1,0.2-0.2,0.2-0.4c0,0,0-0.1,0-0.1c0.1,0.1,0.2,0.1,0.3,0.1
		c0.2,0,0.4-0.2,0.4-0.4c0-0.1,0-0.1,0-0.2c0.1,0.1,0.2,0.1,0.3,0.1c0.2,0,0.4-0.2,0.4-0.4s-0.2-0.4-0.4-0.4c-0.2,0-0.4,0.2-0.4,0.4
		c0,0.1,0,0.1,0,0.2c-0.1-0.1-0.2-0.1-0.3-0.1c0,0,0,0-0.1,0c0.1-0.1,0.2-0.2,0.2-0.4c0,0,0-0.1,0-0.1c0.1,0.1,0.2,0.1,0.3,0.1
		c0.2,0,0.4-0.2,0.4-0.4c0-0.1,0-0.2-0.1-0.2c0.1,0.1,0.2,0.1,0.3,0.1c0.2,0,0.4-0.2,0.4-0.4c0-0.2-0.2-0.4-0.4-0.4
		c-0.2,0-0.4,0.2-0.4,0.4c0,0.1,0,0.1,0.1,0.2c-0.1-0.1-0.2-0.2-0.3-0.2c0,0-0.1,0-0.1,0c0.1-0.1,0.2-0.2,0.2-0.4c0-0.1,0-0.1,0-0.2
		c0.1,0.1,0.2,0.1,0.3,0.1c0.2,0,0.4-0.2,0.4-0.4c0-0.2-0.2-0.4-0.4-0.4c0,0-0.1,0-0.1,0c0.1-0.1,0.2-0.2,0.2-0.4c0-0.1,0-0.1,0-0.2
		c0.1,0,0.2,0.1,0.2,0.1c0.2,0,0.4-0.2,0.4-0.4c0-0.2-0.2-0.4-0.4-0.4c-0.2,0-0.4,0.2-0.4,0.4c0,0.1,0,0.1,0,0.2
		c-0.1-0.1-0.2-0.1-0.3-0.1c-0.2,0-0.4,0.2-0.4,0.4c0,0,0,0.1,0,0.1c-0.1,0-0.1-0.1-0.2-0.1c-0.3,0-0.5,0.2-0.5,0.5c0,0,0,0.1,0,0.1
		c-0.1,0-0.1-0.1-0.2-0.1c-0.3,0-0.5,0.2-0.5,0.5c0,0,0,0,0,0.1c-0.1,0-0.1,0-0.2,0c-0.3,0-0.5,0.2-0.5,0.5c0,0,0,0,0,0
		c-0.1,0-0.1,0-0.2,0c-0.3,0-0.5,0.2-0.5,0.5v0c-0.1,0-0.1,0-0.2,0c-0.1,0-0.2,0-0.3,0.1c0,0-0.7,0.6-2.7,2.2
		c-8.1,6.5-7.6,11.4-10.2,11.4c-1,0-1.8-0.8-1.8-1.8c0-3.7,9.2-10.8,9.2-16.4c0-2.4-2-4.4-4.4-4.4c-3.1,0-5.4,1.5-6.8,2.9
		c-1,1.1-1.5,2.2-1.5,3c0,0.5,0.2,0.9,0.6,0.9c1.3,0,2.3-1.7,2.5-1.9c0,0,0.1-0.1,0.1-0.1c0.1,0,0.1,0,0.1,0.1c0,0.2-1,1.1-1,2.4
		c0,0.7,0.5,1.1,0.5,1.1c2-0.8,2.6-2.3,3.2-3.7c0.4-1,1-2.1,2.2-2.1c1,0,1.8,0.8,1.8,1.8c0,6.1-11.9,12.8-11.9,19.9
		C115.3,123.6,116.6,125.6,117.3,125.6z M135.7,113.7c0,0,0.1,0.1,0.2,0.1c-0.1,0.1-0.2,0.2-0.2,0.4c0,0,0,0,0,0
		c0,0-0.1-0.1-0.1-0.1C135.6,114.1,135.7,113.9,135.7,113.7C135.7,113.7,135.7,113.7,135.7,113.7z M135.6,115
		c0.1-0.1,0.2-0.2,0.2-0.4c0,0,0,0,0-0.1c0.1,0.1,0.1,0.1,0.2,0.1c-0.2,0.1-0.3,0.2-0.3,0.4c0,0,0,0,0,0.1
		C135.7,115,135.7,115,135.6,115z M136.2,111.7c0,0,0.1,0.1,0.2,0.1c-0.1,0.1-0.2,0.2-0.2,0.4c0,0,0,0,0,0c0,0-0.1-0.1-0.1-0.1
		C136.1,112,136.2,111.9,136.2,111.7C136.2,111.7,136.2,111.7,136.2,111.7z M136.7,110.5c0.1,0,0.1,0.1,0.2,0.1
		c-0.1,0.1-0.2,0.2-0.2,0.4c0,0,0,0,0,0.1c0,0-0.1-0.1-0.2-0.1C136.6,110.8,136.7,110.7,136.7,110.5
		C136.7,110.5,136.7,110.5,136.7,110.5z M136.5,112.6c-0.1,0.1-0.2,0.2-0.2,0.4c0,0,0,0,0,0.1c-0.1,0-0.1-0.1-0.2-0.1
		c0.1-0.1,0.2-0.2,0.2-0.4c0,0,0,0,0-0.1C136.4,112.6,136.5,112.6,136.5,112.6z M135.8,115.8C135.8,115.9,135.8,115.9,135.8,115.8
		c0,0-0.1,0-0.2-0.1c0.1-0.1,0.3-0.2,0.3-0.4c0,0,0,0,0-0.1c0.1,0.1,0.2,0.1,0.3,0.1C136,115.5,135.8,115.6,135.8,115.8z
		 M136.4,113.8C136.4,113.8,136.4,113.9,136.4,113.8c0,0-0.1,0-0.2-0.1c0.1-0.1,0.2-0.2,0.2-0.4c0,0,0,0,0-0.1
		c0.1,0.1,0.2,0.1,0.3,0.1C136.6,113.5,136.4,113.6,136.4,113.8z M136.9,111.7C136.9,111.8,136.9,111.8,136.9,111.7
		c-0.1,0-0.1,0-0.2,0c0.1-0.1,0.2-0.2,0.2-0.4c0,0,0,0,0-0.1c0.1,0.1,0.2,0.1,0.3,0.1h0C137,111.4,136.9,111.6,136.9,111.7z
		 M137.2,109.2c0.1,0,0.1,0.1,0.2,0.1c-0.1,0.1-0.2,0.2-0.2,0.4c0,0,0,0.1,0,0.1c-0.1,0-0.1-0.1-0.2-0.1
		C137.1,109.6,137.2,109.4,137.2,109.2C137.2,109.3,137.2,109.3,137.2,109.2z M137.7,110.1c-0.2,0.1-0.3,0.2-0.3,0.4
		c0,0,0,0.1,0,0.1c-0.1-0.1-0.2-0.1-0.3-0.1c0.1-0.1,0.2-0.2,0.2-0.4c0,0,0-0.1,0-0.1C137.5,110.1,137.5,110.1,137.7,110.1
		C137.7,110.1,137.7,110.1,137.7,110.1z M138.1,107.1c0,0,0,0.1,0,0.1c-0.1-0.1-0.2-0.1-0.3-0.1c0.1-0.1,0.2-0.2,0.2-0.3
		c0,0,0-0.1,0-0.1c0.1,0,0.1,0.1,0.2,0.1c0,0,0,0,0.1,0C138.2,106.8,138.1,107,138.1,107.1z M138.7,104.3c0,0,0-0.1,0-0.1
		c0.1,0,0.1,0.1,0.2,0.1c0,0,0.1,0,0.1,0c-0.1,0.1-0.2,0.2-0.2,0.3c0,0.1,0,0.1,0,0.1c-0.1-0.1-0.2-0.1-0.3-0.1c0,0,0,0,0,0
		C138.6,104.5,138.7,104.4,138.7,104.3z M138.6,105.5c0,0,0.1,0,0.1,0c-0.1,0.1-0.2,0.2-0.2,0.4c0,0,0,0.1,0,0.1
		c-0.1-0.1-0.2-0.1-0.3-0.1h0c0.1-0.1,0.1-0.2,0.1-0.3c0,0,0-0.1,0-0.1C138.4,105.5,138.5,105.5,138.6,105.5z M138,104.7
		c0.1,0,0.1,0,0.2,0c0,0,0,0,0,0c-0.1,0.1-0.1,0.2-0.1,0.3c0,0,0,0.1,0,0.1c-0.1,0-0.1-0.1-0.2-0.1C138,105,138,104.9,138,104.7
		C138,104.8,138,104.7,138,104.7z M137.7,106c0.1,0,0.1,0,0.2,0c0,0,0,0,0,0c-0.1,0.1-0.1,0.2-0.1,0.3c0,0,0,0.1,0,0.1
		c-0.1,0-0.1-0.1-0.2-0.1C137.7,106.3,137.7,106.2,137.7,106C137.7,106,137.7,106,137.7,106z M137.6,108.1
		C137.6,108,137.6,108,137.6,108.1c0.1,0,0.1,0,0.2,0c0,0,0,0,0,0c-0.1,0.1-0.2,0.2-0.2,0.4c0,0,0,0.1,0,0.1
		c-0.1-0.1-0.1-0.1-0.2-0.1C137.5,108.3,137.6,108.2,137.6,108.1z M137.4,105.2c0,0,0.1,0,0.1,0c-0.1,0.1-0.1,0.2-0.1,0.3
		c0,0,0,0,0,0.1c0,0-0.1,0-0.1,0C137.4,105.5,137.4,105.4,137.4,105.2C137.4,105.3,137.4,105.2,137.4,105.2z M137.3,107.3
		C137.3,107.3,137.3,107.2,137.3,107.3c0.1,0,0.1,0,0.2,0c-0.1,0.1-0.1,0.2-0.1,0.3c0,0,0,0.1,0,0.1c-0.1,0-0.1-0.1-0.2-0.1
		C137.3,107.5,137.3,107.4,137.3,107.3z M137,106.5c0,0,0.1,0,0.1,0c-0.1,0.1-0.1,0.2-0.1,0.3c0,0,0,0,0,0.1c0,0-0.1,0-0.1,0
		C137,106.7,137.1,106.6,137,106.5C137.1,106.5,137,106.5,137,106.5z M136.9,108.5c0.1,0,0.1,0,0.2,0.1c-0.1,0.1-0.1,0.2-0.1,0.3
		c0,0,0,0,0,0.1c0,0-0.1-0.1-0.2-0.1C136.9,108.8,136.9,108.6,136.9,108.5C136.9,108.5,136.9,108.5,136.9,108.5z M136.7,105.8
		C136.8,105.8,136.8,105.8,136.7,105.8c0,0.1,0,0.2,0,0.3c0,0,0,0,0,0c0,0-0.1,0-0.1,0C136.7,106,136.7,105.9,136.7,105.8
		C136.7,105.8,136.7,105.8,136.7,105.8z M136.7,107.7c0,0,0.1,0,0.1,0c-0.1,0.1-0.1,0.2-0.1,0.3c0,0,0,0,0,0c0,0-0.1,0-0.1,0
		C136.6,108,136.7,107.9,136.7,107.7C136.7,107.7,136.7,107.7,136.7,107.7z M136.6,109.8c-0.1,0.1-0.2,0.2-0.2,0.3c0,0,0,0,0,0
		c0,0-0.1,0-0.1-0.1c0.1-0.1,0.1-0.2,0.1-0.3c0,0,0,0,0,0C136.5,109.7,136.6,109.8,136.6,109.8z M136.4,107
		C136.4,107,136.4,107,136.4,107c0,0.1,0,0.2,0,0.3c0,0,0,0,0,0c0,0,0,0-0.1,0C136.4,107.2,136.4,107.1,136.4,107
		C136.4,107,136.4,107,136.4,107z M136.3,109C136.3,109,136.3,109,136.3,109C136.3,109,136.3,109,136.3,109c0,0.1,0,0.2,0,0.3
		c0,0,0,0,0,0c0,0-0.1,0-0.1,0C136.2,109.2,136.3,109.1,136.3,109z M136,108.2L136,108.2C136,108.2,136,108.2,136,108.2
		c0,0.1,0,0.2,0,0.3v0c0,0,0,0,0,0C136,108.4,136,108.3,136,108.2z M136,111C136,111,136,111,136,111c0,0,0.1,0,0.1,0
		c-0.1,0.1-0.2,0.2-0.2,0.3c0,0,0,0,0,0c0,0-0.1,0-0.1-0.1C135.9,111.2,136,111.1,136,111z M135.8,110.2
		C135.8,110.2,135.8,110.2,135.8,110.2C135.8,110.2,135.8,110.2,135.8,110.2c0,0.1-0.1,0.2-0.1,0.3c0,0,0,0,0,0c0,0,0,0-0.1,0
		C135.8,110.4,135.8,110.3,135.8,110.2z M135.5,112.2C135.5,112.2,135.5,112.2,135.5,112.2C135.5,112.2,135.5,112.2,135.5,112.2
		c0,0.1,0,0.1,0,0.1C135.5,112.3,135.5,112.2,135.5,112.2z M135.6,113C135.6,113,135.6,113,135.6,113c0,0,0.1,0,0.1,0
		c-0.1,0.1-0.2,0.2-0.2,0.4c0,0,0,0,0,0c0,0-0.1,0-0.1-0.1C135.5,113.2,135.6,113.1,135.6,113z M135.1,117
		C135.1,117,135.1,117,135.1,117c0,0-0.1,0-0.2-0.1c0.1-0.1,0.2-0.2,0.2-0.4c0,0,0,0,0,0c0.1,0.1,0.1,0.1,0.2,0.1
		C135.2,116.7,135.1,116.8,135.1,117z M135.4,112.4c0,0,0,0.1,0,0.1v0c0,0,0,0-0.1,0C135.4,112.5,135.4,112.5,135.4,112.4z
		 M135.3,115.8c-0.1,0.1-0.2,0.2-0.2,0.4c0,0,0,0,0,0c0,0-0.1-0.1-0.1-0.1c0.1-0.1,0.2-0.2,0.2-0.4c0,0,0,0,0,0
		C135.2,115.7,135.2,115.8,135.3,115.8z M135,115.4C135,115.4,135,115.4,135,115.4C135,115.4,134.9,115.3,135,115.4
		c0-0.1,0.1-0.3,0.1-0.4c0,0,0,0,0,0c0,0,0.1,0,0.1,0.1C135.1,115.1,135,115.2,135,115.4z M135,114.2L135,114.2
		C135,114.2,135.1,114.2,135,114.2c0,0.1,0,0.1,0,0.1C135,114.3,135,114.2,135,114.2z M134.9,114.4c0,0,0,0.1,0,0.1c0,0,0,0,0,0
		C134.9,114.6,134.9,114.5,134.9,114.4C134.9,114.5,134.9,114.5,134.9,114.4z M134.4,116.1C134.4,116.1,134.5,116.1,134.4,116.1
		c0,0.1,0,0.1,0,0.1C134.4,116.2,134.4,116.1,134.4,116.1z M134.4,116.9L134.4,116.9c0,0,0.1,0,0.1,0.1c-0.1,0-0.1,0.1-0.2,0.1
		C134.4,117,134.4,116.9,134.4,116.9z M134.3,116.4c0,0,0,0.1,0,0.1C134.3,116.5,134.2,116.5,134.3,116.4
		C134.3,116.4,134.3,116.4,134.3,116.4z M134.4,117.1c0,0.1,0,0.1,0,0.2c0,0,0,0,0,0c0,0-0.1-0.1-0.1-0.1
		C134.3,117.2,134.3,117.2,134.4,117.1z M134.4,117.6C134.4,117.6,134.4,117.6,134.4,117.6c0,0,0.1,0.1,0.1,0.1
		c-0.1,0.1-0.3,0.2-0.3,0.4c0,0,0,0,0,0c0,0-0.1-0.1-0.1-0.1C134.3,117.9,134.4,117.8,134.4,117.6z M134.4,118.4
		C134.4,118.4,134.4,118.4,134.4,118.4c0,0,0.1,0.1,0.2,0.1c-0.2,0.1-0.3,0.2-0.3,0.4c0,0,0,0.1,0,0.1c0-0.1-0.1-0.1-0.2-0.2
		C134.3,118.7,134.4,118.6,134.4,118.4z M133.7,118C133.7,118,133.7,118,133.7,118C133.7,118,133.7,118,133.7,118
		C133.7,118,133.7,118,133.7,118z M133.6,118.7C133.7,118.7,133.7,118.7,133.6,118.7c0,0.1,0,0.1,0,0.2
		C133.6,118.8,133.6,118.7,133.6,118.7z M133.5,118.3C133.5,118.3,133.5,118.3,133.5,118.3C133.5,118.4,133.5,118.3,133.5,118.3
		C133.5,118.3,133.5,118.3,133.5,118.3z M133.5,119c0,0,0,0.1,0,0.2c0,0,0,0,0,0c0,0,0-0.1-0.1-0.1C133.5,119,133.5,119,133.5,119z
		 M133.6,119.4C133.6,119.4,133.6,119.4,133.6,119.4c0,0,0.1,0.1,0.1,0.1c-0.1,0.1-0.3,0.2-0.3,0.4c0,0,0,0,0,0
		c0-0.1-0.1-0.1-0.1-0.1C133.5,119.7,133.6,119.6,133.6,119.4z M132.7,120.4C132.7,120.4,132.7,120.4,132.7,120.4c0,0.1,0,0.1,0,0.1
		C132.7,120.5,132.7,120.4,132.7,120.4z M132.5,120.7c0,0,0,0.1,0,0.1c0,0,0,0,0,0C132.5,120.8,132.5,120.8,132.5,120.7
		C132.5,120.7,132.5,120.7,132.5,120.7z M131.6,121.9C131.6,121.9,131.7,121.9,131.6,121.9c0,0.1,0,0.1,0,0.1
		C131.6,122,131.6,121.9,131.6,121.9z M130.4,123C130.5,123,130.5,123,130.4,123C130.5,123,130.5,123,130.4,123
		c0,0.1,0.1,0.2,0.1,0.3c-0.1,0-0.1,0.1-0.1,0.1c0-0.1,0.1-0.1,0.1-0.2C130.5,123.1,130.5,123,130.4,123z M129.4,123.7
		C129.5,123.6,129.5,123.6,129.4,123.7C129.5,123.7,129.5,123.7,129.4,123.7c0,0.1,0,0.2,0.1,0.2c0,0-0.1,0-0.1,0.1
		c0-0.1,0-0.1,0-0.2C129.5,123.7,129.4,123.7,129.4,123.7z M128.6,123.9L128.6,123.9C128.6,123.9,128.6,123.9,128.6,123.9
		L128.6,123.9z"/>
	<circle cx="143" cy="102.9" r="0.3"/>
	<path d="M145.2,100.1c0.1,0,0.2-0.1,0.2-0.2c0-0.1-0.1-0.2-0.2-0.2c-0.1,0-0.2,0.1-0.2,0.2C144.9,100,145,100.1,145.2,100.1z"/>
	<path d="M148.3,114.8C148.3,114.8,148.4,114.7,148.3,114.8c0.1-0.1,0-0.1,0-0.1C148.3,114.6,148.2,114.7,148.3,114.8
		C148.2,114.7,148.3,114.8,148.3,114.8z"/>
	<path d="M148.6,106.9c0.1,0,0.1,0,0.1-0.1c0-0.1,0-0.1-0.1-0.1C148.5,106.7,148.5,106.8,148.6,106.9
		C148.5,106.9,148.5,106.9,148.6,106.9z"/>
	<path d="M147.1,98.4c0.1,0,0.2-0.1,0.2-0.2c0-0.1-0.1-0.2-0.2-0.2c-0.1,0-0.2,0.1-0.2,0.2C146.9,98.3,147,98.4,147.1,98.4z"/>
	<path d="M148.6,110.8C148.7,110.8,148.7,110.8,148.6,110.8c0.1-0.1,0-0.2,0-0.2C148.6,110.7,148.6,110.7,148.6,110.8
		C148.6,110.8,148.6,110.8,148.6,110.8z"/>
	<path d="M148.6,104.2c0.1,0,0.1,0,0.1-0.1c0-0.1,0-0.1-0.1-0.1c-0.1,0-0.1,0-0.1,0.1C148.5,104.1,148.6,104.2,148.6,104.2z"/>
	<circle cx="148.4" cy="109.6" r="0.1"/>
	<path d="M148.2,102.8c-0.1,0-0.1,0.1-0.1,0.1c0,0.1,0.1,0.1,0.1,0.1c0.1,0,0.1-0.1,0.1-0.1C148.3,102.9,148.3,102.8,148.2,102.8z"
		/>
	<path d="M148.2,113.6C148.2,113.6,148.3,113.5,148.2,113.6c0.1-0.1,0-0.2,0-0.2C148.1,113.4,148.1,113.4,148.2,113.6
		C148.1,113.5,148.1,113.6,148.2,113.6z"/>
	<circle cx="148.3" cy="105.6" r="0.1"/>
	<path d="M148,108.4c0,0.1,0.1,0.1,0.1,0.1c0.1,0,0.1,0,0.1-0.1c0-0.1,0-0.1-0.1-0.1C148.1,108.3,148,108.3,148,108.4z"/>
	<path d="M148.4,101.3c0,0.1,0,0.1,0.1,0.1c0.1,0,0.1,0,0.1-0.1c0-0.1,0-0.1-0.1-0.1C148.4,101.2,148.4,101.3,148.4,101.3z"/>
	<path d="M147.2,100.8c0,0.1,0.1,0.2,0.2,0.2c0.1,0,0.2-0.1,0.2-0.2c0-0.1-0.1-0.2-0.2-0.2C147.3,100.6,147.2,100.7,147.2,100.8z"/>
	<path d="M147.5,99.4c0.1,0,0.2-0.1,0.2-0.2c0-0.1-0.1-0.1-0.2-0.1c-0.1,0-0.2,0.1-0.2,0.1C147.4,99.3,147.5,99.4,147.5,99.4z"/>
	<path d="M148.3,95.6c0.1,0,0.1-0.1,0.1-0.1c0-0.1-0.1-0.1-0.1-0.1c-0.1,0-0.1,0.1-0.1,0.1C148.2,95.6,148.3,95.6,148.3,95.6z"/>
	<circle cx="147.2" cy="96.7" r="0.2"/>
	<circle cx="147.7" cy="97.7" r="0.1"/>
	<path d="M147.8,96.3c0.1,0,0.1-0.1,0.1-0.1c0-0.1-0.1-0.1-0.1-0.1c-0.1,0-0.1,0.1-0.1,0.1C147.6,96.2,147.7,96.3,147.8,96.3z"/>
	<circle cx="148.3" cy="97.1" r="0.1"/>
	<path d="M148.2,98.8c0.1,0,0.1-0.1,0.1-0.1c0-0.1-0.1-0.1-0.1-0.1c-0.1,0-0.1,0.1-0.1,0.1C148,98.8,148.1,98.8,148.2,98.8z"/>
	<circle cx="148" cy="100.3" r="0.1"/>
	<path d="M140.2,103.1c0.2,0,0.4-0.2,0.4-0.4c0-0.2-0.2-0.4-0.4-0.4c-0.2,0-0.4,0.2-0.4,0.4C139.8,103,140,103.1,140.2,103.1z"/>
	<path d="M135.1,125.4c0.1,0,0.1-0.1,0.1-0.1c0-0.1-0.1-0.1-0.1-0.1c-0.1,0-0.1,0.1-0.1,0.1C135,125.3,135.1,125.4,135.1,125.4z"/>
	<circle cx="135.2" cy="121.8" r="0.3"/>
	<path d="M135.5,124.6c0-0.1-0.1-0.2-0.2-0.2c-0.1,0-0.1,0.1-0.1,0.2c0,0.1,0.1,0.2,0.1,0.2C135.4,124.7,135.5,124.7,135.5,124.6z"
		/>
	<path d="M135.7,123.9c0-0.1-0.1-0.2-0.2-0.2c-0.1,0-0.2,0.1-0.2,0.2c0,0.1,0.1,0.2,0.2,0.2C135.6,124.1,135.7,124,135.7,123.9z"/>
	<circle cx="135.7" cy="123.1" r="0.3"/>
	<circle cx="136.3" cy="119.2" r="0.4"/>
	<path d="M135.5,119.8c0.2,0,0.4-0.2,0.4-0.4c0-0.2-0.2-0.4-0.4-0.4c-0.2,0-0.4,0.2-0.4,0.4C135.1,119.6,135.2,119.8,135.5,119.8z"
		/>
	<path d="M135.5,118.2c-0.2,0-0.4,0.2-0.4,0.4c0,0.2,0.2,0.4,0.4,0.4c0.2,0,0.4-0.2,0.4-0.4C135.9,118.4,135.7,118.2,135.5,118.2z"
		/>
	<path d="M136,125.3C136,125.3,136,125.3,136,125.3c0.1-0.1,0-0.2,0-0.2S135.9,125.2,136,125.3C135.9,125.3,135.9,125.3,136,125.3z"
		/>
	<path d="M135.3,121.3c0.2,0,0.4-0.2,0.4-0.4c0-0.2-0.2-0.4-0.4-0.4s-0.4,0.2-0.4,0.4C134.9,121.2,135.1,121.3,135.3,121.3z"/>
	<path d="M135.4,120.6c0.2,0,0.4-0.2,0.4-0.4c0-0.2-0.2-0.4-0.4-0.4c-0.2,0-0.4,0.2-0.4,0.4C135,120.4,135.2,120.6,135.4,120.6z"/>
	<path d="M137,124.6c0.1,0,0.1,0,0.1-0.1c0-0.1,0-0.1-0.1-0.1c-0.1,0-0.1,0-0.1,0.1C136.9,124.6,136.9,124.6,137,124.6z"/>
	<path d="M137.6,123c0-0.1-0.1-0.2-0.2-0.2c-0.1,0-0.2,0.1-0.2,0.2c0,0.1,0.1,0.2,0.2,0.2C137.5,123.2,137.6,123.1,137.6,123z"/>
	<path d="M138.2,123.7c0-0.1-0.1-0.1-0.1-0.1c-0.1,0-0.1,0.1-0.1,0.1s0.1,0.2,0.1,0.2C138.1,123.8,138.2,123.8,138.2,123.7z"/>
	<circle cx="137.5" cy="122.1" r="0.3"/>
	<path d="M137.8,124.6C137.9,124.6,137.9,124.6,137.8,124.6c0.1-0.1,0.1-0.2,0-0.2C137.8,124.4,137.7,124.5,137.8,124.6
		C137.7,124.6,137.8,124.6,137.8,124.6z"/>
	<path d="M136.8,125.3C136.8,125.3,136.9,125.3,136.8,125.3c0.1-0.1,0-0.1,0-0.1C136.8,125.2,136.7,125.2,136.8,125.3
		C136.7,125.3,136.8,125.3,136.8,125.3z"/>
	<ellipse cx="136.7" cy="122.3" rx="0.3" ry="0.3"/>
	<path d="M136.8,123.1c0-0.1-0.1-0.2-0.2-0.2c-0.1,0-0.2,0.1-0.2,0.2c0,0.1,0.1,0.2,0.2,0.2C136.7,123.3,136.8,123.2,136.8,123.1z"
		/>
	<circle cx="136.3" cy="123.8" r="0.2"/>
	<path d="M136.2,124.7c0.1,0,0.1-0.1,0.1-0.1c0-0.1-0.1-0.1-0.1-0.1c-0.1,0-0.1,0.1-0.1,0.1C136,124.6,136.1,124.7,136.2,124.7z"/>
	<circle cx="137.2" cy="123.8" r="0.2"/>
	<circle cx="139.9" cy="104" r="0.4"/>
	<path d="M139.3,110.1c0.2,0,0.4-0.2,0.4-0.4c0-0.2-0.2-0.4-0.4-0.4c-0.2,0-0.4,0.2-0.4,0.4C138.9,109.9,139.1,110.1,139.3,110.1z"
		/>
	<circle cx="140.3" cy="104.9" r="0.4"/>
	<path d="M138.7,108.8c0,0.2,0.2,0.4,0.4,0.4c0.2,0,0.4-0.2,0.4-0.4c0-0.2-0.2-0.4-0.4-0.4C138.8,108.4,138.7,108.6,138.7,108.8z"/>
	<path d="M139.1,107.5c0,0.2,0.2,0.4,0.4,0.4c0.2,0,0.4-0.2,0.4-0.4c0-0.2-0.2-0.4-0.4-0.4C139.3,107.1,139.1,107.3,139.1,107.5z"/>
	<circle cx="139.9" cy="106.2" r="0.4"/>
	<circle cx="136.3" cy="118.4" r="0.4"/>
	<path d="M141.9,102.2c-0.2,0-0.3,0.2-0.3,0.3c0,0.2,0.2,0.4,0.3,0.4c0.2,0,0.4-0.2,0.4-0.4C142.3,102.3,142.1,102.2,141.9,102.2z"
		/>
	<path d="M142.6,101.7c-0.2,0-0.3,0.1-0.3,0.3c0,0.2,0.1,0.3,0.3,0.3c0.2,0,0.3-0.1,0.3-0.3C142.9,101.8,142.8,101.7,142.6,101.7z"
		/>
	<path d="M141.2,102.7c-0.2,0-0.4,0.2-0.4,0.4c0,0.2,0.2,0.4,0.4,0.4c0.2,0,0.4-0.2,0.4-0.4C141.6,102.8,141.5,102.7,141.2,102.7z"
		/>
	<path d="M140.6,103.1c-0.2,0-0.4,0.2-0.4,0.4c0,0.2,0.2,0.4,0.4,0.4c0.2,0,0.4-0.2,0.4-0.4C141,103.3,140.8,103.1,140.6,103.1z"/>
	<circle cx="143.2" cy="113" r="0.2"/>
	<path d="M137,115.1c-0.2,0-0.4,0.2-0.4,0.4c0,0.2,0.2,0.4,0.4,0.4c0.2,0,0.4-0.2,0.4-0.4C137.4,115.3,137.3,115.1,137,115.1z"/>
	<path d="M138.4,110.9c0,0.2,0.2,0.4,0.4,0.4c0.2,0,0.4-0.2,0.4-0.4c0-0.2-0.2-0.4-0.4-0.4C138.6,110.6,138.4,110.7,138.4,110.9z"/>
	<path d="M136.3,117.9c0.2,0,0.4-0.2,0.4-0.4c0-0.2-0.2-0.4-0.4-0.4c-0.2,0-0.4,0.2-0.4,0.4C135.9,117.7,136.1,117.9,136.3,117.9z"
		/>
	<path d="M137.1,116.8c0.2,0,0.4-0.2,0.4-0.4c0-0.2-0.2-0.4-0.4-0.4c-0.2,0-0.4,0.2-0.4,0.4C136.7,116.6,136.9,116.8,137.1,116.8z"
		/>
	<path d="M137.8,112.2c0,0.2,0.2,0.4,0.4,0.4c0.2,0,0.4-0.2,0.4-0.4c0-0.2-0.2-0.4-0.4-0.4C138,111.8,137.8,112,137.8,112.2z"/>
	<circle cx="137.6" cy="113.5" r="0.4"/>
	<circle cx="137.7" cy="114.3" r="0.4"/>
	<path d="M137.8,115.6c0.2,0,0.4-0.2,0.4-0.4c0-0.2-0.2-0.4-0.4-0.4c-0.2,0-0.4,0.2-0.4,0.4C137.4,115.4,137.6,115.6,137.8,115.6z"
		/>
	<circle cx="136.3" cy="116.7" r="0.4"/>
	<path d="M141.9,120.6c0-0.1-0.1-0.2-0.2-0.2c-0.1,0-0.2,0.1-0.2,0.2c0,0.1,0.1,0.2,0.2,0.2C141.8,120.8,141.9,120.7,141.9,120.6z"
		/>
	<circle cx="141.6" cy="121.6" r="0.1"/>
	<path d="M142,119.6c0-0.1-0.1-0.2-0.2-0.2c-0.1,0-0.2,0.1-0.2,0.2c0,0.1,0.1,0.2,0.2,0.2C141.9,119.8,142,119.7,142,119.6z"/>
	<path d="M142.1,118.6c0-0.1-0.1-0.2-0.2-0.2c-0.1,0-0.2,0.1-0.2,0.2c0,0.1,0.1,0.2,0.2,0.2C142,118.8,142.1,118.7,142.1,118.6z"/>
	<path d="M141.9,117.4c-0.1,0-0.2,0.1-0.2,0.2c0,0.1,0.1,0.2,0.2,0.2c0.1,0,0.2-0.1,0.2-0.2C142.1,117.5,142,117.4,141.9,117.4z"/>
	<path d="M141.8,112.6c0-0.2-0.1-0.3-0.3-0.3c-0.2,0-0.3,0.1-0.3,0.3c0,0.2,0.1,0.3,0.3,0.3C141.7,112.9,141.8,112.8,141.8,112.6z"
		/>
	<path d="M141.1,116.6c-0.2,0-0.3,0.1-0.3,0.3s0.1,0.3,0.3,0.3c0.1,0,0.3-0.1,0.3-0.3C141.4,116.7,141.2,116.6,141.1,116.6z"/>
	<path d="M141.9,116.4c-0.1,0-0.2,0.1-0.2,0.2c0,0.1,0.1,0.2,0.2,0.2c0.1,0,0.3-0.1,0.3-0.2S142,116.4,141.9,116.4z"/>
	<path d="M141.7,113.9c0.2,0,0.3-0.1,0.3-0.3c0-0.2-0.1-0.3-0.3-0.3s-0.3,0.1-0.3,0.3C141.4,113.8,141.5,113.9,141.7,113.9z"/>
	<path d="M141.5,122.6c0.1,0,0.1,0,0.1-0.1c0-0.1,0-0.1-0.1-0.1c-0.1,0-0.1,0-0.1,0.1C141.4,122.6,141.5,122.6,141.5,122.6z"/>
	<path d="M143.3,112c0-0.1-0.1-0.3-0.3-0.3c-0.1,0-0.3,0.1-0.3,0.3c0,0.1,0.1,0.3,0.3,0.3C143.2,112.2,143.3,112.1,143.3,112z"/>
	<path d="M142.9,118.4c0-0.1-0.1-0.2-0.2-0.2c-0.1,0-0.2,0.1-0.2,0.2c0,0.1,0.1,0.2,0.2,0.2C142.8,118.6,142.9,118.5,142.9,118.4z"
		/>
	<path d="M142.8,119.5c0-0.1-0.1-0.2-0.2-0.2c-0.1,0-0.2,0.1-0.2,0.2c0,0.1,0.1,0.2,0.2,0.2C142.7,119.6,142.8,119.5,142.8,119.5z"
		/>
	<path d="M142.7,117.2c-0.1,0-0.2,0.1-0.2,0.2c0,0.1,0.1,0.2,0.2,0.2c0.1,0,0.2-0.1,0.2-0.2C142.9,117.3,142.8,117.2,142.7,117.2z"
		/>
	<path d="M141.1,117.6c-0.1,0-0.3,0.1-0.3,0.3c0,0.1,0.1,0.3,0.3,0.3c0.1,0,0.3-0.1,0.3-0.3C141.3,117.7,141.2,117.6,141.1,117.6z"
		/>
	<circle cx="142.3" cy="112.3" r="0.3"/>
	<path d="M142.4,113.6c0.1,0,0.3-0.1,0.3-0.3c0-0.1-0.1-0.3-0.3-0.3c-0.1,0-0.3,0.1-0.3,0.3C142.2,113.4,142.3,113.6,142.4,113.6z"
		/>
	<path d="M142.3,122.5C142.4,122.5,142.4,122.5,142.3,122.5c0.1-0.1,0-0.1,0-0.1C142.3,122.4,142.3,122.4,142.3,122.5
		C142.3,122.5,142.3,122.5,142.3,122.5z"/>
	<path d="M142.6,121.5c0-0.1-0.1-0.1-0.1-0.1c-0.1,0-0.1,0.1-0.1,0.1c0,0.1,0.1,0.1,0.1,0.1C142.5,121.6,142.6,121.5,142.6,121.5z"
		/>
	<path d="M142.7,120.5c0-0.1-0.1-0.2-0.1-0.2c-0.1,0-0.2,0.1-0.2,0.2c0,0.1,0.1,0.1,0.2,0.1C142.7,120.6,142.7,120.5,142.7,120.5z"
		/>
	<path d="M141.1,120.7c0-0.1-0.1-0.2-0.2-0.2c-0.1,0-0.2,0.1-0.2,0.2c0,0.1,0.1,0.2,0.2,0.2C141,120.9,141.1,120.8,141.1,120.7z"/>
	<circle cx="139.2" cy="121.9" r="0.2"/>
	<path d="M139.2,122.8c0-0.1-0.1-0.2-0.2-0.2c-0.1,0-0.2,0.1-0.2,0.2c0,0.1,0.1,0.2,0.2,0.2C139.1,123,139.2,122.9,139.2,122.8z"/>
	<path d="M138.9,123.8c0.1,0,0.1-0.1,0.1-0.1c0-0.1-0.1-0.1-0.1-0.1c-0.1,0-0.1,0.1-0.1,0.1C138.7,123.7,138.8,123.8,138.9,123.8z"
		/>
	<path d="M139.5,121c0-0.1-0.1-0.2-0.2-0.2c-0.1,0-0.2,0.1-0.2,0.2c0,0.1,0.1,0.2,0.2,0.2C139.4,121.3,139.5,121.2,139.5,121z"/>
	<path d="M139.6,120.1c0-0.1-0.1-0.3-0.3-0.3c-0.1,0-0.3,0.1-0.3,0.3c0,0.1,0.1,0.3,0.3,0.3C139.5,120.4,139.6,120.3,139.6,120.1z"
		/>
	<path d="M138.6,122c0-0.1-0.1-0.2-0.2-0.2c-0.1,0-0.2,0.1-0.2,0.2c0,0.1,0.1,0.2,0.2,0.2C138.5,122.3,138.6,122.2,138.6,122z"/>
	<path d="M139.7,123.7C139.7,123.7,139.8,123.6,139.7,123.7c0.1-0.1,0.1-0.2,0-0.2C139.6,123.5,139.6,123.5,139.7,123.7
		C139.6,123.6,139.6,123.7,139.7,123.7z"/>
	<path d="M141.3,118.8c0-0.1-0.1-0.2-0.2-0.2c-0.1,0-0.2,0.1-0.2,0.2s0.1,0.2,0.2,0.2C141.2,119,141.3,118.9,141.3,118.8z"/>
	<path d="M138.7,124.6C138.7,124.6,138.7,124.6,138.7,124.6c0.1-0.1,0-0.1,0-0.1C138.6,124.4,138.6,124.5,138.7,124.6
		C138.6,124.6,138.6,124.6,138.7,124.6z"/>
	<circle cx="138.5" cy="121.2" r="0.3"/>
	<path d="M140.5,123.6C140.6,123.6,140.6,123.6,140.5,123.6c0.1-0.1,0-0.1,0-0.1C140.5,123.5,140.5,123.5,140.5,123.6
		C140.5,123.6,140.5,123.6,140.5,123.6z"/>
	<path d="M141,121.7c0-0.1-0.1-0.2-0.2-0.2c-0.1,0-0.2,0.1-0.2,0.2c0,0.1,0.1,0.2,0.2,0.2C140.9,121.9,141,121.8,141,121.7z"/>
	<path d="M138.4,122.9c0-0.1-0.1-0.2-0.2-0.2c-0.1,0-0.2,0.1-0.2,0.2c0,0.1,0.1,0.2,0.2,0.2C138.3,123.1,138.4,123,138.4,122.9z"/>
	<circle cx="141" cy="119.8" r="0.2"/>
	<circle cx="140.7" cy="122.6" r="0.1"/>
	<path d="M140,122.7c0-0.1-0.1-0.2-0.2-0.2c-0.1,0-0.2,0.1-0.2,0.2c0,0.1,0.1,0.2,0.2,0.2C139.9,122.9,140,122.8,140,122.7z"/>
	<path d="M140.3,120.9c0-0.1-0.1-0.2-0.2-0.2c-0.1,0-0.2,0.1-0.2,0.2c0,0.1,0.1,0.2,0.2,0.2C140.2,121.1,140.3,121,140.3,120.9z"/>
	<path d="M140.2,121.8c0-0.1-0.1-0.2-0.2-0.2c-0.1,0-0.2,0.1-0.2,0.2c0,0.1,0.1,0.2,0.2,0.2C140.1,122,140.2,121.9,140.2,121.8z"/>
	<path d="M140.4,119.9c0-0.1-0.1-0.2-0.2-0.2c-0.1,0-0.2,0.1-0.2,0.2c0,0.1,0.1,0.2,0.2,0.2C140.3,120.2,140.4,120.1,140.4,119.9z"
		/>
	<path d="M140.5,119c0-0.1-0.1-0.3-0.3-0.3c-0.1,0-0.3,0.1-0.3,0.3c0,0.1,0.1,0.3,0.3,0.3C140.4,119.3,140.5,119.1,140.5,119z"/>
	<path d="M189.1,156.7v-18.2c0-1.4,1.1-1.4,1.7-1.4v-0.5h-6.5v0.5c0.5,0,1.7,0,1.7,1.4v18.2c0,1.4-1.2,1.4-1.7,1.4v0.5h6.5v-0.5
		C190.2,158.1,189.1,158.1,189.1,156.7z"/>
	<path d="M167,136.6h-5.8v0.5c2.8,0,2.1,1.8,1.7,2.9c-0.8,2.4-5.1,15.5-5.1,15.5h-0.1l-5.4-16c-0.1-0.4-0.4-1.1-0.4-1.5
		c0-0.6,0.4-1,1.7-1v-0.5h-6.6v0.5c1.5,0,1.6,0.8,1.9,1.5l7.1,20.2h2c0,0,6-18.4,6.5-19.9c0.5-1.5,1.2-1.8,2.4-1.8L167,136.6
		L167,136.6z"/>
	<path d="M174.8,145.7c-4-0.9-5.6-1.3-5.6-3.8c0-2.5,2.1-4.4,5.6-4.4c2.5,0,5.1,1.6,5.5,4.6h0.5l-0.1-4.7c-1.4-0.8-4-1.1-5.4-1.1
		c-5.2,0-8.6,2.9-8.6,6.3c0,4.2,3,5.2,8.6,6.4c2.2,0.5,4.1,1.1,4.1,3.9c0,3.5-3,4.9-5.4,4.9c-3.4,0-5.7-2.3-6.5-5.6h-0.5l0.2,5.3
		c1.9,1.1,3.9,1.6,5.9,1.6c6,0,8.7-3.2,8.7-7C181.9,147.4,178.9,146.6,174.8,145.7z"/>
	<path d="M201.3,156.8l-9-10.3c0,0,6.3-6.9,7-7.6c1-1.1,1.8-1.8,3.1-1.8v-0.5h-6.3v0.5c2.7,0,1.9,1.3,1.4,1.8c-0.5,0.5-8,8.7-8,8.7
		l9.6,11h4.3v-0.5C202.5,158.1,201.9,157.6,201.3,156.8z"/>
	<path d="M211.7,137.1v-0.5h-6.5v0.5c0.5,0,1.7,0,1.7,1.4v18.2c0,1.4-1.2,1.4-1.7,1.4v0.5h6.5v-0.5c-0.5,0-1.7,0-1.7-1.4v-18.2
		C210.1,137.1,211.2,137.1,211.7,137.1z"/>
	<path d="M91.9,137.1l0-0.5h-6v0.5c2.2,0,2.7,0.9,1.9,3.5c-0.3,1-4.3,15-4.3,15h-0.1c0,0-4.3-14.2-4.6-15.4
		c-0.4-1.5-1.2-3.1,1.5-3.1v-0.5h-7.6v0.5c1.2,0,2.1,0.4,2.5,1.5c0.3,0.7,1.9,5.4,1.9,6c0,0.6-2,7.2-3,10.7l-0.1,0
		c0,0-4.3-13.9-4.8-15.4c-0.2-0.8-0.5-1.2-0.5-1.7c0-0.7,0.5-1,1.5-1v-0.5h-6.5v0.5c1.5,0,1.8,1,2.2,2.2l6.3,19.6h2.2l3.4-12.5h0.1
		l3.7,12.5h2.3l5.6-19.4C89.9,137.9,90.8,137.1,91.9,137.1z"/>
	<path d="M56.1,145.7c-4-0.9-5.6-1.3-5.6-3.8c0-2.5,2.1-4.4,5.6-4.4c2.5,0,5.1,1.6,5.5,4.6l0.5,0l-0.1-4.7c-1.4-0.8-4-1.1-5.4-1.1
		c-5.2,0-8.6,2.9-8.6,6.3c0,4.2,3,5.2,8.6,6.4c2.2,0.5,4.1,1.1,4.1,3.9c0,3.5-3,4.9-5.4,4.9c-3.4,0-5.7-2.3-6.5-5.6h-0.5l0.2,5.3
		c1.9,1.1,3.9,1.6,5.9,1.6c6,0,8.7-3.2,8.7-7C63.2,147.4,60.1,146.6,56.1,145.7z"/>
	<path d="M124.6,155.7l-5.8-7.9c3.5-0.2,6.1-2.5,6.1-6c0-2.8-2.5-5.2-7.1-5.2h-8.1v0.5l0,0c0.8,0,1.7,0.2,1.7,1.4v18.2c0,0,0,0,0,0
		c0,1.4-1.2,1.4-1.7,1.4v0.5l0,0h6.5v-0.5c-0.5,0-1.7,0-1.7-1.4v-18.8h1.7c4,0,5.7,1.6,5.7,4.5c0,2.6-1.2,4.9-6.6,4.9l8.1,11.4h4.2
		l0-0.5C126.6,158.1,125.6,157,124.6,155.7z"/>
	<path d="M106,155.4l-6.8-18.8l-3.9,0v0.5c0.5,0,1.1,0.1,1.1,1c0,0.3-0.1,0.7-0.3,1.2c-0.1,0.3-5.8,16.6-5.8,16.6
		c-0.6,1.9-1.2,2.3-2.5,2.3l0,0.5h5.8v-0.5c-1.6,0-2-0.6-2-1.1c0-0.5,0.2-1.1,0.5-2l1.6-4.9h7.4l1.4,4c0.7,1.9,0.9,2.5,0.9,3.1
		c0,0.6-0.3,1-1.6,1v0.5h6.6v-0.5C106.9,158.1,106.8,157.6,106,155.4z M94.1,148.8l3.3-9.4h0.1l3.2,9.4H94.1z"/>
	<path d="M137.9,136.2c-5,0-10.6,4.7-10.6,11.4c0,6.2,3.6,11.3,10.1,11.3c6.4,0,10.5-5.8,10.5-11.6
		C147.9,142.3,145.1,136.2,137.9,136.2z M138.4,157.2c-4.5,0-8.6-6-8.6-10.8c0-6.8,4.1-8.3,6.8-8.3c4.4,0,8.3,4.5,8.3,10.4
		C145,154,142.6,157.2,138.4,157.2z"/>
</g>
</svg>
