<?xml version="1.0" encoding="utf-8"?>
<!-- Generator: Adobe Illustrator 21.1.0, SVG Export Plug-In . SVG Version: 6.00 Build 0)  -->
<svg version="1.1" id="Layer_1" xmlns="http://www.w3.org/2000/svg" xmlns:xlink="http://www.w3.org/1999/xlink" x="0px" y="0px"
	 viewBox="0 0 1600 500" style="enable-background:new 0 0 1600 500;" xml:space="preserve">
<title>mask_01</title>
<g>
	<path d="M1583,499.4H33c0.1-2.4,0.4-4.8,0.8-7.1c0.7-4.4,0.3-9,1.1-13.6s-0.2-9.4,1-14.1c0.9-3.9,0.3-8,1-12.1
		c0.8-4.7,0-9.7,1.1-14.6c0.8-3.6-0.6-7.5,1.1-11.1c-0.7-5.1,1-10,1-15.1c0.1-3.2-0.9-6.5,1-9.6c-0.4-5.1,0.6-10.1,1-15.1
		c0.5-7,0.7-14,1.1-21.1c0.1-0.6,0.3-1.2,0.5-1.8c0.5-2.5,1.1-5-0.4-7.4c0.3-0.5,0.8-1,0.8-1.6c0.2-5.5-0.2-11.1,0.9-16.6
		c0.8-4.3-0.1-8.7,1-13.1c0.8-3.3,0-7,0.2-10.5s1-6.7,0.9-10.1c-0.2-6.7,1.8-13.3,1.1-20.1c1.6-2.1,0.1-5.1,1.9-7.2
		c0.4-0.5,0.1-1.5,0.1-2.3c-2.2,2.3-3.9,4.6-4.1,6.5l-2.3,3.4c-1.7,0.1-3.3,0.1-5,0c-1.5-0.2-3.1-1-4.6-0.9
		c-3.6,0.1-6.8-1.3-10.1-2.2c-2.3-0.5-4.2-2-5-4.2c1.7-5,4.3-9.7,7.7-13.7c4.1-4.9,9.9-7.7,17.1-10l8.2-1.4c0.3-2.4,0.1-4.7,0.9-7.1
		c0.7-2.1,0-4.6,0.2-6.9s0.7-4.4,0.9-6.6c0.4-4.5-0.9-9.2,1-13.6c-0.7-5.8,1.2-11.3,1.1-17.1l1.7-1.7c4.4,2,10,0.2,14.3,3.6
		c-0.1,3.4-0.4,6.9-0.8,10.3c-0.8,4.9-0.6,10-1,15.1c-0.4,6.2-2,12.3-1.2,18.6c0,0.3,0.2,0.8,0,1c-1.8,2-0.7,4.3-1,6.7
		c12.8,4.6,23.4,11.6,28.7,25c4.2,0,8.7-0.1,13.2,0s8.9-0.9,13.2-1.9c4.1-1,8-2.2,12.1-3.3c-0.2-2.8,0.1-5.6,0.8-8.3
		c0.6-2.6-0.2-5.5,1.1-8.1c-0.7-6.9,0.9-13.7,1-20.6c0.1-4-0.4-8,0.8-12.1c0.8-2.8,0-6,0.2-8.9s0.8-5.7,0.9-8.6s-0.1-6,0.1-9
		s0.9-6,1.3-9.1c5.3,0.2,10.7-0.7,15.7,2.3c-0.3,4.6,0,9.1-0.9,13.6c-1,4.9-0.1,10-1,15.1c-1,6.1,0.2,12.4-1.1,18.6
		c-0.7,3.4,0,7-0.2,10.5c-0.2,1.6-0.5,3.1-0.9,4.6c4.3,1.7,7.2,5.2,10.4,8.4c0.4-0.8,0.7-1.5,1.1-2.1c0.5-0.9,1-1.7,1.1-1.9
		c1.5-0.1,3.1-0.1,4.6,0c1.9,0.3,3.6,0.9,4.7,2.8c2,3.7,3.3,7.7,3.8,11.9c0.3,2.5,1,4.9,1.4,7.2l7.7-1.2v-13
		c-2.4-1.3-4.4-2.5-6.5-3.6c-2.2-1.1-4.1-2.6-5.5-4.5c-3.3-4.4-3.8-9.1-2.1-14.4c0.7-2.3,1.9-4.3,3.6-5.9c2.4-2.2,5.4-3.6,8.4-5.4
		l7.8,1c0.4-5.5,1.8-10.9,4.3-15.8l3.9-3.3c-0.1-1.5-0.1-3,0-4.6c0.1-1.7,0.6-3.4,1.4-4.9c2.9-4.7,7.1-8.2,10.9-12
		c1-1,2.2-1.8,3.6-2.1c3.4-0.7,6.6-2.3,10.1-2.1c1.7,0.1,3.3,0,5,0c1.7-0.1,3.3-0.1,5,0c1.7,0.2,3.7-0.9,5.2,0.7
		c1.1-1.2,2.5-0.3,4.8,0.3c-1.4-1.7-1.8-2.8-2.6-3.1c-4.9-1.9-8.7-5.5-13.1-8.2c-4.5-2.8-8.7-6.3-12.3-10.2c-1.4-1.3-3-2.3-4.9-2.7
		c-3.3-1.1-6.9-1.8-9.9-3.8c-1.8-1.2-3-3.2-5.3-3.3c-0.2-3.5-3.1-4.4-5-6.1v-2.5l-4.1-3.5v-3.2l-1.5-0.3c-1.7-5-3.1-10-2.3-15.5
		c1.5-0.9,0.9-2,0-3l1.8-1.8v-3.4c-1.3-0.9-2.5-1.6-3.6-2.5c-2-1.6-3.9-3.3-6.1-4.7c-5.4-3.4-10.9-6.7-16.3-10
		c-2.8-1.7-4.2-4.2-3.9-7l3.8-4.2c1.5,0.7,3.3-0.7,4.6,1c2.4-1,3.1,1.9,5.1,2.2s3.7,1.5,5.5,2.3c1.2,0.6,2.4,1.1,3.6,1.7
		c-1.9-2.3-4-4.4-6.3-6.3c-2.4-2.2-4.7-4.4-7.4-7c-0.4-1.8-2.9-3.7-1.5-7.1l5.1-3.1c6.7,3.4,12,7.7,17.3,12.4
		c1.1-2.2-1.1-2.7-1.8-3.7c-3.3-5.1-5.9-10.6-9.6-15.6c-1.4-1.8-3.1-4.2-2.2-7.3l3.6-3.2h3.9c1.8,1.8,3.6,3.3,5,5.1s2.4,3.7,3.6,5.4
		s3.1,3.5,4.7,5.3c0.1,0.8-0.5,1.9,1,2l1,1c0.1,0.8-0.5,1.9,1,1.9l-0.1,0.1l0.7,0.8l0.3-0.3c-0.3-0.2-0.6-0.5-0.9-0.6
		c-0.2-0.7,0.4-1.9-1-1.9l-1-1c-0.1-0.8,0.5-1.9-1-2c-0.1-0.6-0.2-1.2-0.4-1.8c-2.8-6.4-7.4-12-9.5-19.3l4.7-4.7l4.3,1.4
		c1,1.2,2,2.4,2.9,3.7c3.7,5.8,7.5,11.5,11,17.4c2.5,4.1,6.4,7,9.4,10.4h3c2.3-1.8,4.1-4.2,5.1-7c1-2.7,2.7-5.2,5-7h5l3,3.1l1.5,4.2
		l-4,8.2c-0.3,0.7-0.7,1.4-1,2.1c-1.6,3.2-0.8,6.7-1,10.1l3.4,2.8l1.2-2.5l1.5,0.5l-1,1.2l1.6,1.6l3-0.9l8.4,3.2
		c1.3,1.3,2.7,3.3,4.7,4.5s2.6,3.7,4.5,4.5c2.2,1,2.9,3.2,4.4,4.7s2.2,3.7,3.5,6.3v3.2l1.8,1.5c2.3-1.2,3.5-2.8,3.4-5.1
		c2.2,0.1,4.3-0.8,5.7-2.4c0.6-0.7,1.4-1.3,2.3-1.5c1.9-0.2,3.1-1.4,4.6-2.3c3.8-2.4,7.5-5,12-6.1c2.3-0.6,4.6-1.5,6.8-2.6
		c4.1-1.8,8.4-3.2,12.8-4c2.8-0.7,5.8-1.1,8.3-2.9c2.4-1.5,4.8-2.8,7.4-4c-3.7-4.5-3.3-10.2-4.1-15.4c-0.8-5.8,0.2-11.5,1.9-17.1
		l-0.7-0.8c0.6-1.6,1.5-3,1.7-4.5c0.5-3.6,1.8-7,2.6-10.4c0.5-2,2.2-3.2,2.4-5c0.6-4.6,3.5-8.1,6.3-11.4c1.3-1.5,2.5-3.1,3.9-4.5
		s3.1-2.4,4.4-3.9c3-3.4,7.3-5,11.2-6.8c3.6-1.6,7.4-3.1,11.1-4.6c4.9-2.1,10.2-3.2,15.5-3.4c3.5,0,6.9,0.6,10.2,1.7
		c6.4,2.1,12.3,4.8,16.9,9.9c1.6,1.8,3.1,3.7,4.6,5.6c4.8,6.2,7.8,13.2,8.2,20.7l15.6,26.6c1.4-2.1,3.5,0.7,5.1-0.5l0.6,0.7l0.7-0.6
		l6.4,3.2c4.1,2.7,6.8,6.7,9.5,11.5c0.1,1.2-0.5,3.2,0.9,4.7c-1.7,1-0.6,2.5-0.8,3.7c0.2,0.1,0.5,0.2,0.8,0.2c0-1.3,0-2.6,0.1-4
		c0.4,0.1,0.7,0.1,1.1,0.1l-0.1,0.1l0.7,0.8l0.3-0.3c-0.3-0.2-0.6-0.5-0.9-0.6c0-0.6,0-1.2,0-2.1l4.1,2.4l-0.9,3.4l1.9,0.7l-2.2,1
		l1,1.1l-0.9,1l3,4.5l-0.9,3.1c5.9-1.3,6.8,4.2,9.9,6.5c-1,3.7-4.4,1.3-5.7,3.3l-1-0.8l-1.8,1.8c4.1-0.5,2.8,3.2,4.3,4.7l-1.8,1.8
		c0.9,1.6,2.7,3.4,2.4,4.8c-0.4,2.4,2,2.9,1.8,4.4l3.3-0.6l-1.5,2.6c0.3,0.4,0.8,0.8,0.9,1.2c0.2,2.3,1.5,4.4,3.5,5.6
		c2.1,1.5,3,4.6,5.1,8.2c1.5,1.5-3.5,4.3-0.6,7l-2.2,2.3v3.9l-1.9,0.7c0.9,3.2,3.5,5.5,3.2,9c-0.1,0.9,1,1.9,1.7,2.8
		c3.8,4.3,7.6,8.6,11.3,12.6h3.7l0.5-2.9c3.3,0.2,6.7-0.7,9.3,2l1.4-4.1c-1.3-2.8-0.9-4.9,2-7.2l1.5,2.4c3-0.7,3.4,3.9,6.8,2.5
		c-0.9-1.9-1.9-3.8-2.8-5.7s-2.4-3.6-1.9-5.8l-2-0.4l1.7-1.4l6.6,3.1l1,2.1c0.3-2.6,0.8-5.2,1.4-7.8c0.2-0.8,1.5-1.3,3.1-2.5
		l-1.4,10l2.7,4.1l2.4-0.7l2.3,0.8c-1.3,4-4.9,3.4-6.4,4.5l-2.5,4.8l2.2,1.2c1.2-1.3,2.7-1,4.8-0.3l-2,2l4.5,4.4l2.1,0.3l-0.1,1.3
		l-8.8,1.9l6.5,3.4l1.1-1.1c-0.1,3.6,3.6,3,4.8,5.5l0.9-2.6c1,1.6,2.3,2.8,2.4,4.1c0.1,2,1,3.2,2,4.8s1.8,3.2,2.9,4.8
		c2.3,3.4,4.8,6.7,4.3,10.8l-1.9,3.7l5.1,5.1l3-1.6c-0.2-1.8-2.2-2.3-2.3-4.3c0-1.2-1.9-2.3-3.1-3.5l5-1.9l-0.9-2.6h6.1
		c0.3-1.1,0.7-2.1,1-3.1l0.1,0.1l0.8-0.7l-0.3-0.3c-0.2,0.3-0.5,0.6-0.6,0.9c-0.6,0-1.2,0-2.3,0l1.3-4.4l-1.2-1.9l1.8-1.5l4.5-0.4
		c-2-0.5-2.1-2.2-2.7-3.3l2.6-3.7l5.1,0.8l1.5-5.8c1.5,0.7,3,1.5,4.6,2.2c0.2,0.1,0.5-0.2,1.2-0.5l-2.3-3.1v-3.2l3.9,0.5l1.7-4.5
		l1.4,1.5c-0.9,2.1-0.9,2.1-0.8,4.1c0.9,3.7,3.5,1.6,5,2.9c-2.2,1.9-4.7,3.4-6,6.6h4.2l-1.2,1.3l3.6,3c-0.5,3.3-5-0.3-5.4,3.2
		l6.8,1.7l-0.5,1.8h-5.1l2.4,2.9l1.9,0.1v2.7l-2.4,0.4l0.5,3.4l-2.7,1c2.8,1.6,0.5,5,3.4,6.2c3.7-3.6,8.5-6,13.6-6.8
		c5.2-0.8,10.6-0.3,15,2.6l24.8-14.2l-2.1-1l0.1-1.4h3.7l-1-4l6.2-2.7c0.3-2-3.5-2.5-1.7-5c0.6-0.5,1.2-1.1,1.6-1.7
		c0.5-0.7,1.5-1.4,0-2.2c0.8-0.6,1.2-1.6,1-2.6c-0.1-0.9,0-1.9,0-2.6l4.2-2.9L664,185l1.1-3.6l4-3.5l-1.6-1.6l0.9-1.9l1.4,1l2-5.7
		l0.5,4.7l2-1.3l1.7,2l-4,2.8l0.3,0.6l3.9-1.2l1.4,1.6l-0.8,3.1l1.5-1.4l3,1.5l-2.6,5.1c1.1-0.3,1.9-0.5,2.7-0.8s1.7-0.8,2.6-1.2
		l-2.5-2.9c1.4-1.4,2.5-2.9,4.5-1.2c0.2,0.1,0.5,0.1,1,0.1l-1.3-3l1.2-2l-2.5-2.6c4.3,0,3.2-4.5,5.8-6l2.5-0.4l0.1-0.6l-4.1-1.5
		c-0.3-3,2.6-4.3,3.4-6.4c1.6-0.6,2.3,2.2,3.8-0.1l-2.6-3.5c2.2-0.9,2.1-3.6,4.2-4.1l-2.4-3.7l5.6,0.8l1.5-1.4c-2.8,0-3.8-1.4-3.4-3
		c2.2-2.6,5.6-2.8,6.6-6.8c0.4,0.8,1,1.6,1.6,2.3c0.5,0.4,0.7,1.5,1.9,1c-0.5-2.5-3-3.4-4.2-5.4l0.2-3.2c2.4-0.1,2.6,1.7,3.4,3
		c1.4-2.2,2-4.4,1.2-6.4l-4-1.8l13.6-23.6l2.7-1.2c0.9,0.6,1.9,1.1,2.9,1.6c4.2,1.6,8.5,2.8,12.3,5.3c2.8-0.3,4.7,2.9,7.7,2.1
		l-0.2,0.1l0.7,0.8l0.3-0.3c-0.3-0.2-0.6-0.5-0.9-0.6c-0.4-0.5-0.7-1.1-1-1.7c2.5-0.2,4.5-0.8,3.9-4.7l4-4l-1.2-1.6l5.1-1.4l-0.5-1
		c0.8-2.9,3.3-0.8,4.7-2.1c-2.1-1.5-3.9-3.3-7-4.6l5.1-2c0.8,2.8,3.2,1.8,6.2,2.6c0.5-0.2,0.3-0.6,0.2-0.5c-0.5,0.1-0.9,0.2-1.4,0.4
		c0.6,0.2,1.2,0.3,1.2,0.1c-1.9-1.2-4-2.1-6.2-2.6l-2-2.9l6.2-0.3l-1.1-1.2l1.6-2.8l2.3,1.3l2-1.1c0.3,0.3,0.6,0.7,1,0.9l-0.2,0.1
		l0.7,0.8l0.3-0.3c-0.3-0.2-0.6-0.5-0.9-0.6c-0.4-0.3-0.7-0.6-1-0.9c-0.6-1.8,1.4-2.4,1.7-3.1l-0.6-3.1c2.8,0.7,3.7,3.2,6.1,4.4
		l2.5-8.2l1.3,0.4l0.1,2.6c3,1.4,5.3,3.2,6,6.7l-2.9,1.8l2.4,3.6h1.9l1.6,3.3l-0.9,1.1l4.3,4.2l-2.3,0.8c-0.9,2.2,0.4,3.9,1.1,5.3
		l2.3,1.3l11.8-13.1c2.4-5.4,4.1-10.7,7.6-14.3l3.4,0.6L817,68l-1.1-1.2l3-2l0.1-2.1l2.7-0.9l-5.6-2.2l2.6-1.5l-0.9-2.5l2.7-0.3
		l1.5-3.8c1.3,0,2.1,0,3,0l-0.2,0.1l0.7,0.8l0.3-0.3c-0.3-0.2-0.6-0.5-0.9-0.6c0-1,0-2-0.1-2.9c-0.2-0.8-0.6-1.6-1-2.4l5.8,2.7
		l0.5-6.7c2.2,2.8,5.8,3.4,6.9,6.8l-2.6,1.3l5.3,3.2l0.2,1.8l-1,1l3,0.7l-1.1,1.1c3,4.9,4,6.2,7.6,8.6c0.9,0.6,1.8,1.6,2.8,1.7
		c2,0.3,2.4,1.9,2.9,2.8c4.8-1.5,9.8-2,14.2-4.5c2.1-4.5,4.2-9,6.3-13.5c1.1-2.2,2.4-4.4,2.8-6.8c0.2-1.4-0.3-3.5,0.5-4.2
		c1.7-1.6,0.2-3.7,1.7-5.4c0.9-1,0.2-3.2,1-5c0.8-1.6,0.2-3.9,0.2-5l3.7-4.3c4.8,0,7.3,3,9.1,6.5c-0.4,0.7-0.6,1.4-0.8,2.2
		c0.2,5.9-0.9,11.8,1,17.6c0.1,0.3,0.3,0.6,0.5,0.8h2l3.8,3.8l-2.5,1.7l3.7,2.9c2.2-4.8,1.5-9.4,1.6-13.8l-2.9-1.9v-3.5L917,20.3V18
		l-2.3-2.6l8.4-9V0.6h3.2c-0.4,1.2-0.7,2-0.9,2.9c-0.2,1.1-0.3,2.2-0.5,3.2l4.7,4.7l1.1,3.4l-1.1,3.3l-2,0.7c1.6,2.5,3.4,4.6,4.3,7
		c0.9,2.6,2.9,4.4,4,6.9s2.7,4.8,2.9,7.2c0.2,2.9,3.6,4.1,3.1,7.1l-3,0.5l1.5,1.8l-3.4,3.4l1.5,1.3l3.1-2.4c1,3.4,3.7,4.6,5.9,6.3
		c3.4,2.6,7,4.8,11,7.4c17.3-3.8,34.6-9.5,52-14l3.3,3c0.9,3.4,1.9,6.8,3.2,10.2c1.3,3.4,0.5,7.3,2.5,10.6l1.2-1l2,3l1.2-2.4
		l2.1,2.5v-7.3l2.4-3.2c2,3.5-2,6.5,0.1,9.2l3-0.8l-1.4,3.3l3.6-1.3l0.7,2.1c1.6,0,3.1,0,4.7-0.1l-0.2,0.1l0.7,0.8l0.3-0.3
		c-0.3-0.2-0.6-0.5-0.9-0.6c-1.7-1.5,0.1-3.3-1-5.6l4.6,2.9c1-2.2-0.7-4.8,2.1-6.2c0.1,3.5,4.5,3,5.4,6.3l-0.8,2.2l1.3,2.6h1.9
		c1.6,4,2.8,7.8,2.7,12.1l1.8-0.6c0-2.1-0.1-4.1,0-6.1c0.1-1.4,0.8-2.7,1.8-3.5c0.1-0.1,0.6,0.1,1.2,0.3v5.3l7.9-8.8
		c6.7,3.9,11.8,9.6,17.9,14.2c2.9-1.5,6.2-2.2,9.5-2c0.9-0.1,1.9-0.3,2.8-0.5c3.6-0.4,7-2.1,10.8-1.2l3.1,11.3
		c-3,3.4-3.3,4.6-2.8,13.9l6.3,6.6c2.7-1.3,4.4-0.6,7.6,3.3l1.9-1.7c0.1-2.8-0.1-5.7,0.1-8.4h2.8l0.3,2.9l5.8,2.5
		c-1.1,2.5,3.3,3.4,1.8,6.1l-1.8,0.8c0.1,2.1,2.7,2.5,2,4.6c-0.4,0.4-0.8,0.9-1,1.4c0,0.1,0-0.2,0-0.5l-2.9,0.4l0.1,0.7
		c1,0,2-0.2,2.9-0.5c0.2-0.5,0.6-1,1-1.4c1.4,1.3,3.3,0.9,4.7,1.1l1,2.4c-0.3,0.5-0.5,1-0.7,1.6l-0.1-0.1l-0.8,0.7l0.3,0.3
		c0.2-0.3,0.5-0.6,0.6-0.9c2.3,1.9,2.3,1.9,1.1,4.3l2.2,3.3c4.5-2.6,9-5.4,13.6-8c1.8-0.8,3.6-1.5,5.4-2.1l-1.2-2.1l4.4-7.5l0.7,1.9
		h3.1c1,0.8,1.8,1.8,2.4,2.9c0.5,1.5,0.9,3,1,4.6c0,0.3-0.6,0.7-0.9,1.1c2.1,2.4,5.1,3.7,7.4,5.8c2.5,2.2,6,2.1,7.8,4.4
		c7.3-2,14.8-2,22.2-3.8c0.5,0.6,1,1.2,1.5,1.8c0.4,0.7,0.7,1.4,1,2.1l-0.4,0.1l5.7,27.4l1.6-1.6l0.5-5.6l7,7.4l-2.8,1l5.2,4.8
		l2,8.4l0,0l0.7,2.4l0.8-0.3l1.1-7.5l8.6-4.6l-4.5-3.6l4.8-0.3l0.7-1.3l3.9,0.3c-1.4-2.7-4.3-3.6-5.1-6.8l2.6-0.1l2.1,2l1.6-1.6
		v-5.3h1.9v7l1.9-1.1l3.2,1.6l-4.1,3.4c-0.3,0.3-0.7,0.6-0.9,1l-0.1-0.1l-0.8,0.7l0.3,0.3c0.2-0.3,0.5-0.6,0.6-0.9
		c0.3-0.4,0.6-0.7,0.9-1c1.5,0.1,0.8,1.2,1.1,2l-0.1-0.1l-0.8,0.7l0.3,0.3c0.2-0.3,0.5-0.6,0.6-0.9c0.6,0,1.2,0,2.2,0l-1.2,3.2
		l2.5-1l2.2,1.2l-3.1,4.6h5.9c-1.6,1.3-3.2,2.8-4.6,4.4c0,0.1,0-0.2,0-0.5l-2.9,0.4l0.1,0.7c1,0,2-0.2,2.9-0.5
		c1.5,0.2,3,0.8,4.2,1.8l-2.7,1.9l0.9,2.3l2.4-1.1v2.6l-3,0.5l2.2,2.3c-0.2,2.5,0.8,5,2.7,6.6h2.3l-0.1,1.8l-1.3-0.8l-3.1,1.6
		l3.6,2.7l-0.1,2.2l-3,0.5l2.5,3.8l2-2l1.8,6.1l1.4-1.1l0.7,1.7l2.8-1.1l-0.2,3.4h-3.6l1.2,3.9h2.2l0.6,1.7l3.9,1.8l-2.5,1.2
		c11.3,3.5,21.9,7.4,32.6,11.3l9-6.1l2.2,2h2.9l2.8-4.1l-4.5,0.7l-3.4-3.3l0.5-0.5l-1-1.5l1.1-2.2l0.8-0.3l-0.8-0.7l4-4
		c1.7,0,4.1,0.5,6.2-0.1c1.9-0.6,3.4-1.4,5.2,0c2-1.7,3,0.9,4.7,1.1l-0.2,0.1l0.7,0.8l0.3-0.3c-0.3-0.2-0.6-0.5-0.9-0.6
		c0.1-2-1.6-3.3-2-5.1c0.4-2.3,2.9-1.4,4.2-2.5c-1-1.1-4.1-1.4-6-0.6l-0.5-2.9l-1.7,1.6l-2.3-0.9l3.4-6.7l-5.8,1
		c-1.2-1.7-3.4-2.9-6-3.5l-1.9,1.7l-1-2l-1.9,1.9l-3.8-2.2l0.6-5.6l-3.5-0.3v-2.3c3.6-2.7,7.8-0.9,11-1.6l4.3-4.9
		c4.1-0.1,5.8,3,7.9,4.7c5.9,1.7,11.6,2.7,17.1,2.2l4.2,2.9l0.9-0.8c1.3,1.5,2.9,0.9,4.8,0.8l-2.4-5.9l-2.3,1.3l-1.5-3.2l-1.5,3
		l-0.7-0.4l0.9-2.5l-3.3-2l-3.2,1.7c-1-1.7-2-0.5-3.1,0c-0.7-4.1-5.4-2.9-6.7-5.9c-1.6,1.5-2.8,1.4-4,0c-2.3,2.2-4.4,0.5-6.5-0.5
		l0.6-0.7l-1-4.6c-1.8-0.4-2.7-1.8-3.7-2.9l0.1-2l6.6-1l1.8,1.6h3.2l1.6-1.6l11.5-1.5l1.1-1.1v-4.2l-5.1-2.7l3.8-0.9
		c3.5-3.4,3.5-3.4,4.5-7.1l-2-2.3c2.2-2.6,5.2-2.7,8.1-2.4s5.7,0.7,8.3,1l1.9-1.9h4.9l6.7,6.7l0.2,2.2c1.5-0.3,2.9-0.7,4.4-1.1
		c1.3-0.5,1.9-2.8,1.2-3.7l-1.7-0.6c0-0.6,0-1.1,0-2c0-0.1,0,0.2,0,0.5l2.9-0.4l-0.1-0.7c-1,0-2,0.2-2.9,0.5
		c-4-2.6-6.1-7.2-9.1-11.2l2.7-1.8c0.5-1.2,0.7-2.6,1.2-2.8c2.7-1.1,4.6-3.9,7.7-3.8c4.3,6.1,5.3,6.9,10,7.9
		c-3.8-3.2-5.8-7.1-9.5-9.3l1.1-1.4l-2.5-0.2c-0.8-1.1-1.6-2.1-2.3-3.2c-0.1-0.1,0.1-0.5,0.1-0.6l2-0.7l-2.1-0.8
		c-0.2-0.9-0.5-1.8-0.8-2.7c-0.5-0.8-1.1-1.6-1.8-2.3l5.8-2.8l2-3l8.2,9l-0.9,0.9c1.5,0.8,2.9,1.5,4.2,2.3c0.7,0.4,1.9,1,1.8,1.4
		c-0.2,3.2,2.5,4.5,4,6.6c2.4-0.4,4.4-2.1,5-4.4c0.7-2.3,2.4-3.1,4.1-4.2l0.2-3.2l1.3,2.9l1.4-0.3v-2.3l-3.3-3.3
		c2.1-2.4,1.8-6.1,5.6-6.8l-1.1-3l2-2.1v-4.8l1.6,3.3l0.5-7.9l1.9,1.6c-0.2-1.4-0.2-2.3-0.4-3.2s-0.5-2-0.7-3
		c1.2,1.5,1.9,3.1,4.1,2.7l-0.2,0.1l0.7,0.8l0.3-0.3c-0.3-0.2-0.6-0.5-0.9-0.6c-0.1-1.2,0.3-2.6-1-3.6c-0.2-0.1,0.2-0.9,0.3-1.6
		l3,1.4l1.7-2.8l2.9,4l-2.2,3.2l4.4,1l-4.2,0.6l1.2,1.4l-3.2,2.1l4.7,0.6l-3.9,2.5c1.8,2.1,3.4,4,6.5,5.1h2.3l8.2,4.2l2.1,6.4
		l-2.3,1.7l2.9,1.5l-6.3,1.9v0.4h8.2l-0.8,3.8l1.2,2.2l2.8,0.1l-1.8,1.9l0.5,4.3l-1.5-1.4l-1.4,1.4l0.9,1.6l-1.8,1l-3.5-1.1l2.3,3.1
		l-4.8-1.1c0.4,1,0.9,2,1.5,2.9l-5-0.8l2.3,2.6l-0.4,0.6l-3.7-2.3l1,3.1c-0.8,0-1.3,0-1.8,0.1l0.2-0.1l-0.7-0.8l-0.3,0.3
		c0.3,0.2,0.6,0.5,0.9,0.6c1.6,3,4.7,5,8.1,5.1v4.5l1.6,0.6l-0.9,4.6l-2.7,0.5v1.7c-0.7,0.1-1.3,0.1-2,0c-0.8-0.2-1.5-0.6-2.2-0.9
		l1.5,4.2c-1.9-0.7-2.2-3-4.2-1.9l1,1.8l-5-1l1.2,3.1c-1.9-0.7-2.2-3-4.1-1.9l0.9,1.8l-4.8-1c0.2,1.1,0.6,2.1,1,3.1
		c-1-0.5-1.6-0.9-2.1-1.2l-3.8,1.2l3.4,3.5c0.9-1.1,1.8-2.3,2.4-3.5c1.4-1.6,3.3-1.1,5.2-1.3s4-0.8,6-0.9c0.9,0,1.9,0.8,2.9,1.3
		c1.1-2.2,3.9-2.7,3.6-5.4l3.3-2.2l4,5.2c2.7-1.9,5.6-0.5,8.2-1.1c1.2,1.3,2.9,2.3,3.4,3.7c0.5,1.6,2.7,1.4,2.7,3.3
		c0.1,1.5,0.3,3,0.6,4.5c-1.3,1.2-2.6,2.4-4,3.4c-1.3,0.8-2.6,1.4-3.9,2l-0.5,2.8l-6.8,1.5l-1.7-3.2c-0.3,2.5-2.8,2.6-2,4.9l1.6-1.2
		c2.2,2.5,4.5,0.3,6.9,0.3c3.2-0.1,4.8-2.3,6.7-4h3.1l1.6,1.6l-0.9,3.2l3.7,2.7v3.6l-2.6,3.7l-2,0.1l0.6,0.7l-4.2,4.2
		c2.5,1.1,4.5-1.7,7.4-2.1v5.2h4.2l-1.2,4.2l1.2,1.9l-5.8,4.5l6.7,2.2l-2.1,3.7l1.2,3.7l2.7,2c0.1,3.3-1.8,5-3.5,6.5h-2.7l-4.7,3.8
		c-0.3,1.2-0.7,2.7-1,4.3l-0.1-0.1l-0.8,0.7l0.3,0.3c0.2-0.3,0.5-0.6,0.6-0.9c1.7-1.1,3.4-2.2,5.1-3.3c0.6,0.5,1,1.1,1.3,1.1
		c2.7-0.4,4.8,1.4,7.1,2.3c0.8,0.4,1.7,0.7,2.6,0.9c3.2,0.4,3.6,1.4,2.2,4.4l0.9,6.1l-6,4.7v3.6c2.2,0.7,4-0.3,5.6-1.2
		c1.8-1,3.3-1,4.7,0.2l2.8-2.3l1.9,2.6h5.1c2.3,1.3,1.6,3,1.5,4.5l-2.5,0.9l3.4,0.7v5.4c-2.8,3-7.2,1.7-9.6,4.5l-2.2-1.3l-2.6,1.1
		l-1.1-2.6l-0.7,3.6l-1.2-1.1l-0.9,1.9l-1.1-0.9l-0.8,2l-1.1-1.1l-1.7,2l1.1,1.7l-3.6,4.8l0.8,2.1l-2.3,0.8l2.3,1.9l4.9-2.4
		c5,0,9.3,2.7,13.1,6.8l-0.9,3l1.9,0.7l-2.3,1.1l2,0.9l-3.3,4.6l-4.5-0.6l-0.4-1.4l-1.6,1.1l-3.7-2c-0.9,1.6-2,0.7-2.9,0.1l-2.6,1.4
		c1.6,0.6,3.6,0.1,4.1,2.4l-2.3,3.4c2.9,1.9,5.1-1.4,8.2,0c1.3,2.9,5.1,2,7.8,3.4c1.3-1.5,2.7-2.9,4.2-4.2c2.1-1.7,4.2-3.7,6.6-4.5
		c5.6-1.7,11.1-4.1,17.2-3.1c0.8,0.1,1.7,0.1,2.5,0c5.8-0.2,11.1,1.9,16.3,4c5,2,8.9,5.4,12.9,8.9c6.5,5.8,8.8,13.6,11.8,21.4
		c-0.5,0.5-0.9,1.2-1.4,1.4c-1.8,0.6-3.6,1.4-5.4,1.3c-3.5-0.1-7,0.6-10.7-0.7c-2.1-0.8-4.8-0.1-6.8-1.7l-2.3-8.3
		c-1.2-1.5-2.6-2.8-4.1-4c-1.9-1.3-4-2.7-6.2-3c-3.4-0.5-6.9-0.1-11.2-0.1l5,3.6l-1.3,2.5l1,1.7c-1.1,3-3.6,3.2-5.8,3.5
		c-2,0.2-4.3-1.5-6.2,1.2c-0.2,0.9-0.2,1.8,0,2.7c1.5,3.8,0.8,7.7,0.9,11.6c0,2.1,0,4.2,1,5.5l4.9,2.7l-0.8,1.5l1.8,1.8
		c-1.1,0.8-1,2.4-2.7,2.9c-1,0.3-1.6,2.2-2.2,3.1v6.3c4.2,0.4,7.4,3.4,11.3,4.2l1.9-1.8h6.8c-0.1,1.6,0.6,3.2-1.1,4.4l6.8,5.4
		l2.5,0.3l-1.2,1.3l0.7,0.8c-0.6,1-1.2,2-1.7,3c-0.8,2.4-2.3,4.6-4.2,6.2c-1.3,1-3,1.9-4.9,1.4c-1.5-0.5-2.9-1-4.4-1.7
		c-2.3,1.1-5,1.1-7.3,0l-1,0.7l-0.7-2.1l-1.4,2.8c0.2,0.2,0.9,0.6,0.8,0.9c-0.7,4.6,1.2,9,1.1,13.6c0,1.3,0,2.5,0,3.7
		c8.1,1.8,10.4,1.5,14.3,0.1c1.7,2,5.2,0.3,6.8,3.2l-1.2,1.7l2.8,0.4l-0.6,0.7l4.7,4.5l-0.8,1.2c1.5,1.7,3.7,2.6,6,2.4
		c1.8-0.2,3.4,0.6,5.1,0.9s3.4-0.6,5.1-0.8c0.8-0.2,1.6-0.1,2.4,0.2c3.2,1.9,6.7,1.8,10.3,1.8c3.1,0,6,0.9,9.1,1.2
		c3.6,0.3,7,2.1,12,3.8c2.6,0,5.1,1.1,7,2.9c-0.7,1.4-1.4,2.8-2,4.2l-0.1-0.1l-0.8,0.7l0.3,0.3c0.2-0.3,0.5-0.6,0.6-0.9
		c0.3,0.2,0.7,0.4,1.4,0.8l-3.9,5.5l-8.3-1.6l-2-2l-1.6,2.2l-1.7-1.1l-1.1,0.8l-7.7-0.9l0.9-1.8l-1.5-2.7h-2.6l1.1,1.7
		c-2.2-0.6-4.2-0.5-7.8,0.3l-0.8,2.4l-0.9-4.4l-2,3c-1.2-2-2.2-0.9-3.1-0.4l-1.1-0.8l-0.7,2h-1.6l-0.8-1c-0.4,0.3-0.8,0.6-1.2,1
		l-0.1-0.1l-0.8,0.7l0.3,0.3c0.2-0.3,0.5-0.6,0.6-0.9c0.6,0,1.3,0,1.9,0l1.2,2.6c2.8,0.7,5.3,1.5,7.9,2.1c2.3,0.5,4.9,1.8,6.8,1.1
		c2.6-0.9,5.1-0.5,7-0.8l3.8,3.7l-1.8,1.8l4.5,3.2l-2.2,4l0.6,0.8c-1.7,0.9-3.1,1.9-4.6,2.6c-1.4,0.7-2.9,1.2-4.4,1.4
		c-1.6,0.1-3.2-0.5-5.2-0.9l-1.2-1.9c-0.4,1.7-2.8,0.7-2.7,2.8c0,0.7-1.9,1.4-3,2.1c-0.2,0.1-0.5,0.1-1,0.1l-1.4-3.7
		c-2.2-0.5-4.1,2.5-6.1,0l-0.7,1.9l-3.6,0.2l1.4,2.8l1.5,0.4l-2.4,3.3c4.8,1.3,9.6,1.5,12.3,6l-0.8,0.9l1.4,1.4
		c3.8,0.2,7.9-0.9,10.8,2.8c0.2,0.3,0.9,0.3,1.4,0.3c2.5-0.1,4.2,1.3,5.8,2.9c0.7,0.7,1.5,1.4,2.1,2.1s0.9,1.6,1.5,2.4
		C1581.6,498.4,1582.3,498.9,1583,499.4z M1464.1,220.5l-0.2-0.2l-0.8,0.7l0.3,0.3c0.3-0.3,0.5-0.6,0.5-1L1464.1,220.5l0.8-0.7
		l-0.3-0.3C1464.3,219.7,1464.1,220.1,1464.1,220.5z M1452.1,203.5l-0.2-0.2l-0.8,0.7l0.3,0.3c0.3-0.3,0.5-0.6,0.5-1L1452.1,203.5
		l0.8-0.7l-0.3-0.3C1452.3,202.7,1452.1,203.1,1452.1,203.5z M1439.8,134.8c0.8-0.7,1.1-0.9,1.1-1c-0.1-0.5-0.2-0.9-0.4-1.4
		c-0.2,0.6-0.3,1.2,0.4-0.1l0.2,0.2l0.8-0.7l-0.3-0.3C1441.4,131.8,1441.1,132,1439.8,134.8L1439.8,134.8z M1029.5,85.9l-0.5-0.5
		l-2,0.1l0.1,1.9c0.9-0.6,1.6-1.1,1.4-2.5l0.5,0.5l2-0.1l-0.1-1.9C1029.9,84,1029.2,84.4,1029.5,85.9z M1589.9,443.5l0.2-0.2
		l-0.7-0.8l-0.3,0.3c0.3,0.2,0.5,0.5,0.2,0.7l4.5,2.2l0.1-2.2L1589.9,443.5z M1020.9,81.5l0.2-0.2l-0.7-0.8l-0.3,0.3
		c0.3,0.2,0.5,0.5,0.9,0.2c0,1.6,0,2.7,0,3.8c0,0.2,0.4,0.4,0.6,0.7h0.9C1023.9,83.6,1022.7,82.5,1020.9,81.5L1020.9,81.5z
		 M1489.1,300.3l-0.2,0.2l0.7,0.8l0.3-0.3c-0.2-0.3-0.6-0.4-1-0.3l0.4-0.5l-2.2-1.1l0.5-0.7l-3.5,0.3v0.5
		C1485.7,299.8,1487.4,300.1,1489.1,300.3z M1215.1,175.3l-0.2,0.2l0.7,0.8l0.3-0.3c-0.3-0.2-0.5-0.5-4.6-0.6c1.1,0,1.9,0,2.7,0
		c0.4-0.1,0.7-0.3,1-0.5l-0.9-1l1-1.4h-4.8v5.9C1210.8,176.8,1211,176.3,1215.1,175.3z M1458,203.4h-3.4l-4.4,4.5l-0.5-1.3
		c-1.8,0.7-3.6,2.9-5.1,1.7s-2.3,1-3.7-0.2c-1.1-0.9-2.6,0.5-4.1,0.7l-2.2,4.2l2.5,1.5h2.7l0.3,0.8l0.7-0.8l2.3-2.1l-1.3-1.4
		c2.9-2.4,6.4-1.1,9.3-1.6C1453.8,207.2,1455.9,205.4,1458,203.4l0.1,0.2l0.8-0.7l-0.3-0.3C1458.3,202.8,1458.1,203.1,1458,203.4z
		 M427.7,96.6c2.2,2.3,4.4,4.4,5.7,7.5c0.8,1.9,3,3.1,6.4,3.3c-4.9-3.5-4.9-8.8-7.6-12.5c1.6-2.2,0.2-4.7,0.9-6.8
		c0.8-2.1,1.9-4.2,3-6.2l-2.8-1.4C432.8,86.7,431.4,93.9,427.7,96.6z M1449.7,226.4c-1.3,0-2.7,0-4.1,0c-0.2,0-0.4,0.4-0.6,0.6
		l2.4,2.4C1447.8,228.1,1450.7,229.1,1449.7,226.4z M461.7,108.2l-3.9,0.5c0.4,0.5,0.9,1,1.4,1.3c0.4,0.2,0.9,0.3,1.3,0.3
		c0.4,0.1,0.9,0.2,1.3,0.4c0.3,0.2,0.6,0.3,0.9,0.5l0.5-0.4L461.7,108.2z M66,279.2h4.6c-1.8-1.2-2.2-2.9-4.4-2.8L66,279.2z
		 M1513.9,416.2l-1.4-2.9c-0.2,1.4-3.3,0.3-2.2,2.9H1513.9z M1413.8,154.5v-3.6l-2.3,3.2L1413.8,154.5z M1462.1,246.3l-0.2-1l-2.3,1
		H1462.1z M475,121.6v0.5h3v-0.5H475z M1136.9,144.1l-2,0.6l0.3,0.4h1.7L1136.9,144.1z M1401.9,149.1l-2,0.6l0.3,0.4h1.7
		L1401.9,149.1z M1254.8,183.2l-0.1-0.9l-2.6,0.4l0.1,0.5H1254.8z M820.2,57.6l0.1,0.9l2.6-0.4l0-0.5H820.2z M1211.8,182.2l-0.1-0.9
		l-1.6,0.4l0.1,0.5H1211.8z M1033.8,82.2l-0.1-0.9l-1.6,0.4l0.1,0.5H1033.8z M1457.8,173.2l-0.1-0.9l-1.6,0.4l0.1,0.5H1457.8z
		 M1406.2,154.6l0.1,0.9l1.7-0.4l-0.1-0.5L1406.2,154.6z M476.8,114.6l-0.9,0.1l0.4,1.6l0.5-0.1L476.8,114.6z M452.2,113.2l0.9-0.1
		l-0.4-1.6l-0.5,0.1L452.2,113.2z M1463.2,238.2h0.9l-0.4-1.7l-0.5,0.1V238.2z M543.3,192.4h0.3v-1h-0.3V192.4z M1233,196.1v-0.3h-1
		v0.3H1233z M1260,200.1v-0.3h-1v0.3H1260z M1450,201.7v0.3h1v-0.3H1450z M937,48.7v0.3h1v-0.3H937z M1595.7,444.4h-0.3v1h0.3V444.4
		z M1326.3,234.4h0.3v-1h-0.3V234.4z M1272.3,230.4h0.3v-1h-0.3V230.4z M1457.7,214.4h-0.3v1h0.3V214.4z M1118,130.7v0.3h1v-0.3
		H1118z M751,105.7v0.3h1v-0.3H751z M781,94.7v0.3h1v-0.3H781z M1035,85.7v0.3h1v-0.3H1035z M781,85.7v0.3h1v-0.3H781z M1033.3,85.4
		h0.3v-1h-0.3V85.4z M685.7,183.4h-0.3v1h0.3V183.4z M1454.7,175.4h-0.3v1h0.3V175.4z M1349,171.7v0.3h1v-0.3H1349z M1398,146.7v0.3
		h1v-0.3H1398z M1396.3,144.4h0.3v-1h-0.3V144.4z M1139.3,143.4h0.3v-1h-0.3V143.4z M1130.3,135.4h0.3v-1h-0.3V135.4z M1438,132.7
		v0.3h1v-0.3H1438z"/>
	<path d="M601.5,223.5l-0.7-2.9l1.9-0.4v3.1L601.5,223.5z"/>
	<path d="M1167.7,123.3l-2.1-2.6l2.1-0.4V123.3z"/>
	<path d="M1317,226.4v1l-0.8-0.7L1317,226.4z"/>
	<path d="M589.9,191.5l-0.8-0.7l0.3-0.3l0.7,0.8L589.9,191.5z"/>
	<path d="M1444,164.4l-1-1L1444,164.4z"/>
	<path d="M1448.1,141.3l0.8,0.7l-0.3,0.3l-0.7-0.8L1448.1,141.3z"/>
	<path d="M1451.1,138.3l0.8,0.7l-0.3,0.3l-0.7-0.8L1451.1,138.3z"/>
	<path d="M1441,214.4h-1l0.7-0.8L1441,214.4z"/>
</g>
</svg>
