<svg id="Layer_1" data-name="Layer 1" xmlns="http://www.w3.org/2000/svg" width="700" height="100" viewBox="0 0 700 100">
  <defs>
    <style>
      .cls-1 {
        fill: #00bea4;
      }

      .cls-2 {
        fill: #00ab9a;
      }

      .cls-3 {
        fill: #009d93;
      }

      .cls-4 {
        fill: #ffe5d0;
      }

      .cls-5 {
        fill: #ffd6b2;
      }

      .cls-6 {
        fill: #cea686;
      }

      .cls-7 {
        fill: #7c3f3f;
      }

      .cls-8 {
        fill: #f5b995;
      }
    </style>
  </defs>
  <g>
    <path class="cls-1" d="M49.57,0a29.4,29.4,0,0,1,6,.63A29.23,29.23,0,0,0,42.26,7.34a21.55,21.55,0,1,1-9.92,33.14v9.61a89.85,89.85,0,0,0,17.24,9.17c15-6.4,29.31-14.49,29.31-30A29.31,29.31,0,0,0,49.57,0Z"/>
    <path class="cls-1" d="M69.63,67.7A47.29,47.29,0,0,1,76,71.34a21.83,21.83,0,0,0,2.88-11V57.68A34.5,34.5,0,0,1,69.63,67.7Z"/>
    <path class="cls-1" d="M78.69,73.51l0,0A29.09,29.09,0,0,1,77.93,78c-2.88-4.66-12-8.35-21.62-12.22-7.93-3.19-16.72-6.76-24-11.58V65.61c7.15,5.17,16.51,8.94,25.27,12.47,6.47,2.6,12.49,5,17,7.83a29.36,29.36,0,0,1-2,2.85c-4.25-2.62-10.18-5-16.3-7.48-7.93-3.19-16.72-6.76-24-11.58v1A29.19,29.19,0,0,0,35,82.93c6.72,4.26,14.89,7.55,22.6,10.66,2.19.88,4.32,1.74,6.37,2.61a29.15,29.15,0,0,1-4.27,2l-3.39-1.37A191.08,191.08,0,0,1,38.77,89,29.31,29.31,0,0,0,55.61,99.37a29.41,29.41,0,0,1-6,.63A29.31,29.31,0,0,0,78.88,70.69c0,.92-.05,1.84-.14,2.74Z"/>
    <path class="cls-1" d="M54,61.09l3.64,1.47c3,1.19,5.84,2.35,8.51,3.53,7.5-5.22,12.77-11.88,12.77-21.26V42.16C73.89,50.77,64.1,56.51,54,61.09Z"/>
    <path class="cls-2" d="M38.77,89c-7.6-4-14.42-8.91-18.37-15.56-.09-.91-.14-1.83-.14-2.77A29.31,29.31,0,0,0,55.61,99.37,29.31,29.31,0,0,1,38.77,89Z"/>
    <path class="cls-2" d="M32.33,50.09V40.48A21.49,21.49,0,0,1,42.26,7.34,29.23,29.23,0,0,1,55.61.63,29.31,29.31,0,0,0,20.26,29.31C20.26,38.4,25.21,44.94,32.33,50.09Z"/>
    <path class="cls-2" d="M35,82.93a29.19,29.19,0,0,1-2.68-12.24v-1c-5-3.31-9.29-7.21-12.07-12v2.67C20.26,70.53,26.47,77.52,35,82.93Z"/>
    <path class="cls-2" d="M32.33,65.61V54.18c-5-3.31-9.29-7.21-12.07-12v2.67C20.26,53.92,25.2,60.46,32.33,65.61Z"/>
    <path class="cls-3" d="M28,27.59A21.62,21.62,0,1,0,42.26,7.34,21.43,21.43,0,0,0,28,27.59ZM43.3,9.71h0l.17-.05.88-.28.75-.19q.61-.15,1.22-.25l.92-.14L48,8.7l.26,0,0,0c.44,0,.88-.07,1.33-.07a19.15,19.15,0,0,1,2,.11h0a19,19,0,0,1,0,37.7h0a19,19,0,0,1-21-18.86A19,19,0,0,1,43.3,9.71Z"/>
    <path class="cls-3" d="M38.77,89a191.08,191.08,0,0,0,17.54,7.78l3.39,1.37a29.15,29.15,0,0,0,4.27-2c-2-.86-4.18-1.72-6.37-2.61C49.89,90.49,41.73,87.2,35,82.93c-8.53-5.41-14.74-12.4-14.74-22.59V70.69c0,.93.05,1.86.14,2.77C24.35,80.1,31.17,85,38.77,89Z"/>
    <path class="cls-3" d="M32.33,69.69c7.27,4.82,16.05,8.39,24,11.58,6.12,2.47,12.05,4.86,16.3,7.48a29.36,29.36,0,0,0,2-2.85c-4.49-2.79-10.51-5.23-17-7.83-8.77-3.53-18.12-7.3-25.27-12.47S20.26,53.92,20.26,44.83V57.68C23,62.48,27.33,66.38,32.33,69.69Z"/>
    <path class="cls-3" d="M49.57,59.26a89.85,89.85,0,0,1-17.24-9.17C25.21,44.94,20.26,38.4,20.26,29.31V42.16c2.78,4.8,7.07,8.7,12.07,12,7.27,4.82,16.05,8.39,24,11.58,9.6,3.86,18.73,7.56,21.62,12.22a29.09,29.09,0,0,0,.81-4.43l0,0,0-.08c.08-.9.14-1.81.14-2.74V60.34a21.83,21.83,0,0,1-2.88,11,47.29,47.29,0,0,0-6.38-3.63,34.5,34.5,0,0,0,9.26-10V44.83c0,9.38-5.27,16-12.77,21.26-2.67-1.17-5.55-2.33-8.51-3.53L54,61.09C64.1,56.51,73.89,50.77,78.88,42.16V29.31C78.88,44.77,64.59,52.86,49.57,59.26Z"/>
    <path class="cls-4" d="M49.57,8.62a18.75,18.75,0,0,1,2,.11A19.15,19.15,0,0,0,49.57,8.62Z"/>
    <path class="cls-4" d="M51.58,46.44a18.75,18.75,0,0,1-2,.11A19.15,19.15,0,0,0,51.58,46.44Z"/>
    <path class="cls-4" d="M46,12.53A2.57,2.57,0,0,0,48.33,15c1.84.4,2.88.09,3.25-.33a.67.67,0,0,0,.13-.69,1,1,0,0,0-.83-.62,1.58,1.58,0,1,1,.55-3.11,4.13,4.13,0,0,1,3.26,2.69,3.81,3.81,0,0,1-.74,3.82,5.18,5.18,0,0,1-4.08,1.59,10.5,10.5,0,0,1-2.21-.25,5.84,5.84,0,0,1-4.28-3.15A18.94,18.94,0,0,0,53.52,46.13a19.36,19.36,0,0,1-1.91.31,19,19,0,0,0,0-37.7A19.35,19.35,0,0,1,53.52,9,18.88,18.88,0,0,0,46,12.53ZM42.68,29.31a1.72,1.72,0,1,1-3.45,0V27.59a1.72,1.72,0,0,1,3.45,0Zm13.79-1.72a1.72,1.72,0,0,1,3.45,0v1.72a1.72,1.72,0,1,1-3.45,0Zm-1.25,9.3a1.72,1.72,0,0,1-.63,2.36,10.29,10.29,0,0,1-10,0,1.72,1.72,0,0,1,1.73-3,7,7,0,0,0,6.59,0A1.72,1.72,0,0,1,55.22,36.88Z"/>
    <path class="cls-5" d="M45.1,9.17q.6-.15,1.22-.25Q45.7,9,45.1,9.17Z"/>
    <path class="cls-5" d="M46,11.55a3.93,3.93,0,0,0-.07,1A18.88,18.88,0,0,1,53.52,9a19.35,19.35,0,0,0-1.91-.31h0a18.75,18.75,0,0,0-2-.11c-.45,0-.89,0-1.33.07A3.79,3.79,0,0,0,46,11.55Z"/>
    <path class="cls-5" d="M43.47,9.64l.88-.28Z"/>
    <path class="cls-5" d="M47.24,8.78,48,8.7Z"/>
    <path class="cls-5" d="M49.57,46.55a18.75,18.75,0,0,0,2-.11h0a19.36,19.36,0,0,0,1.91-.31A18.94,18.94,0,0,1,43.38,14.92a6.39,6.39,0,0,1-.44-4,7.63,7.63,0,0,1,.36-1.23,19,19,0,0,0,6.27,36.85Z"/>
    <path class="cls-6" d="M43.38,14.92a5.84,5.84,0,0,0,4.28,3.15,10.5,10.5,0,0,0,2.21.25,5.18,5.18,0,0,0,4.08-1.59,3.81,3.81,0,0,0,.74-3.82,4.13,4.13,0,0,0-3.26-2.69,1.58,1.58,0,1,0-.55,3.11,1,1,0,0,1,.83.62.67.67,0,0,1-.13.69c-.37.42-1.42.73-3.25.33A2.57,2.57,0,0,1,46,12.53a3.93,3.93,0,0,1,.07-1,3.79,3.79,0,0,1,2.2-2.86l0,0L48,8.7l-.77.08-.92.14q-.62.11-1.22.25l-.75.19-.88.28-.17.05h0a7.63,7.63,0,0,0-.36,1.23A6.39,6.39,0,0,0,43.38,14.92Z"/>
    <path class="cls-7" d="M41,25.86a1.72,1.72,0,0,0-1.72,1.72v1.72a1.72,1.72,0,1,0,3.45,0V27.59A1.72,1.72,0,0,0,41,25.86Z"/>
    <path class="cls-7" d="M58.19,31a1.72,1.72,0,0,0,1.72-1.72V27.59a1.72,1.72,0,0,0-3.45,0v1.72A1.72,1.72,0,0,0,58.19,31Z"/>
    <path class="cls-8" d="M52.87,36.25a7,7,0,0,1-6.59,0,1.72,1.72,0,0,0-1.73,3,10.29,10.29,0,0,0,10,0,1.72,1.72,0,0,0-1.73-3Z"/>
    <path class="cls-1" d="M170.65,67.7a41.29,41.29,0,0,1,5.7,3.63,23.88,23.88,0,0,0,2.57-11V57.68A33.35,33.35,0,0,1,170.65,67.7Z"/>
    <path class="cls-1" d="M156.66,61.09l3.25,1.47c2.65,1.19,5.21,2.35,7.6,3.53,6.69-5.22,11.4-11.88,11.4-21.26V42.16C174.45,50.77,165.71,56.51,156.66,61.09Z"/>
    <path class="cls-1" d="M149.6,0a29.4,29.4,0,0,1,6,.63,29.32,29.32,0,0,0-23.28,28.68v18c6.29,5,14,8.93,20.38,12,13.41-6.4,26.17-14.49,26.17-30A29.31,29.31,0,0,0,149.6,0Zm3.14,49.14c-10.63,0-19.24-9.65-19.24-21.55S142.11,6,152.74,6,172,15.68,172,27.59,163.37,49.14,152.74,49.14Z"/>
    <path class="cls-1" d="M178.88,72.09c0,.18,0,.35,0,.53C178.85,72.45,178.87,72.27,178.88,72.09Z"/>
    <path class="cls-1" d="M132.36,67.64v3a29.27,29.27,0,0,0,1.42,9c8,5.87,18.18,10.29,26.14,13.88,1.94.87,3.36,1.14,5.17,2a29.46,29.46,0,0,0,7.65-6.89,92.39,92.39,0,0,0-14-7.41C151.41,78,140.83,73.4,132.36,67.64Z"/>
    <path class="cls-1" d="M178.77,73.54v-.09l0,.06Z"/>
    <path class="cls-1" d="M158.76,65.76c-7.35-3.32-17.93-7.87-26.4-13.63v11c8.24,6.41,19.12,11.15,27.55,15a92.24,92.24,0,0,1,14.69,7.83c-.16.3-.33.58-.5.87A29.15,29.15,0,0,0,178,77.9C175.4,73.27,167.28,69.6,158.76,65.76Z"/>
    <path class="cls-1" d="M158.76,96.79c-6.16-2.78-14.6-6.43-22.16-10.93a29.35,29.35,0,0,0,19,13.51,29.41,29.41,0,0,1-6,.63,29.18,29.18,0,0,0,12.91-3c-.4.19-.79.38-1.2.55C160.31,97.1,159.78,97.25,158.76,96.79Z"/>
    <path class="cls-2" d="M132.36,47.28v-18A29.32,29.32,0,0,1,155.63.63a29.3,29.3,0,0,0-35.33,28C120.94,36,125.92,42.19,132.36,47.28Z"/>
    <path class="cls-2" d="M132.36,63.12v-11c-5.26-3.58-9.71-7.61-12.07-12.11V44C120.81,51.7,125.72,58,132.36,63.12Z"/>
    <path class="cls-2" d="M136.6,85.87c-7-4.17-13.27-9.06-16.24-14.65,0-.34,0-.69-.07-1v.51a29.31,29.31,0,0,0,35.34,28.68A29.35,29.35,0,0,1,136.6,85.87Z"/>
    <path class="cls-2" d="M133.78,79.71a29.27,29.27,0,0,1-1.42-9v-3c-5.26-3.58-9.71-7.61-12.07-12.11v3.93C120.85,67.76,126.43,74.34,133.78,79.71Z"/>
    <path class="cls-3" d="M152.74,6c-10.63,0-19.24,9.65-19.24,21.55s8.62,21.55,19.24,21.55S172,39.49,172,27.59,163.37,6,152.74,6Zm1.82,40.4h0a15.29,15.29,0,0,1-1.79.11c-9.35,0-16.93-8.49-16.93-19,0-8.27,4.74-15.29,11.33-17.88h0l.15-.05.78-.28.67-.19c.36-.1.72-.18,1.09-.25l.82-.14.69-.08.23,0,0,0c.4,0,.79-.07,1.19-.07a15.29,15.29,0,0,1,1.79.11h0c8.5,1,15.11,9.07,15.11,18.85S163.06,45.42,154.56,46.44Z"/>
    <path class="cls-3" d="M133.78,79.71c-7.35-5.37-12.93-12-13.49-20.24,0-.45-.06-.91-.06-1.37V68.44c0,.58,0,1.16.06,1.73,0,.35,0,.69.07,1,3,5.59,9.23,10.48,16.24,14.65,7.56,4.5,16,8.15,22.16,10.93,1,.46,1.55.31,2.55.77.41-.17.8-.36,1.2-.55a24,24,0,0,0,2.62-1.41l0,0c-1.81-.85-3.23-1.11-5.17-2C152,90,141.82,85.59,133.78,79.71Z"/>
    <path class="cls-3" d="M159.91,78.08c-8.43-3.8-19.32-8.54-27.55-15C125.72,58,120.81,51.7,120.29,44c0-.45-.06-.91-.06-1.37V55.43l.06.1c2.36,4.5,6.81,8.53,12.07,12.11,8.47,5.76,19.05,10.32,26.4,13.63a92.39,92.39,0,0,1,14,7.41l.11.08c.45-.64.86-1.3,1.25-2,.17-.29.34-.57.5-.87A92.24,92.24,0,0,0,159.91,78.08Z"/>
    <path class="cls-3" d="M152.74,59.26c-6.4-3.05-14.09-7-20.38-12S120.94,36,120.31,28.65c0-.52-.07-1.05-.07-1.59V39.91l.06.1c2.36,4.5,6.81,8.53,12.07,12.11,8.47,5.76,19.05,10.32,26.4,13.63C167.28,69.6,175.4,73.27,178,77.9l0,.08a32.24,32.24,0,0,0,.72-4.43h0l0,0,0-.06v0c0-.27,0-.54.05-.81s0-.35,0-.53c0-.46,0-.93,0-1.4V60.34a23.88,23.88,0,0,1-2.57,11,41.29,41.29,0,0,0-5.7-3.63,33.35,33.35,0,0,0,8.26-10V44.83c0,9.38-4.71,16-11.4,21.26-2.39-1.17-5-2.33-7.6-3.53l-3.25-1.47c9-4.57,17.8-10.31,22.25-18.93V29.31C178.91,44.77,166.15,52.86,152.74,59.26Z"/>
    <path class="cls-4" d="M152.74,8.62a15,15,0,0,1,1.79.11A15.29,15.29,0,0,0,152.74,8.62Z"/>
    <path class="cls-4" d="M154.53,46.44a15,15,0,0,1-1.79.11A15.29,15.29,0,0,0,154.53,46.44Z"/>
    <path class="cls-4" d="M154.56,8.73a15.57,15.57,0,0,1,1.71.31,16.1,16.1,0,0,0-6.75,3.49A2.48,2.48,0,0,0,151.63,15c1.64.4,2.57.09,2.9-.33a.73.73,0,0,0,.11-.69.92.92,0,0,0-.74-.62,1.57,1.57,0,0,1-1.14-1.83,1.43,1.43,0,0,1,1.63-1.28,3.83,3.83,0,0,1,2.91,2.69,4.16,4.16,0,0,1-.66,3.82A4.4,4.4,0,0,1,153,18.32a8.42,8.42,0,0,1-2-.25,5.32,5.32,0,0,1-3.82-3.15,20.18,20.18,0,0,0-4.35,12.66c0,9.12,5.75,16.73,13.41,18.55a15.58,15.58,0,0,1-1.71.31c8.5-1,15.11-9.07,15.11-18.85S163.06,9.75,154.56,8.73Zm-8,20.58a1.55,1.55,0,1,1-3.08,0V27.59a1.55,1.55,0,1,1,3.08,0Zm10.64,9.93a8.34,8.34,0,0,1-9,0,1.84,1.84,0,0,1-.56-2.36,1.45,1.45,0,0,1,2.1-.63,5.62,5.62,0,0,0,5.88,0,1.45,1.45,0,0,1,2.1.63A1.84,1.84,0,0,1,157.22,39.24ZM162,29.31a1.55,1.55,0,1,1-3.08,0V27.59a1.55,1.55,0,1,1,3.08,0Z"/>
    <path class="cls-5" d="M149.58,11.55a4.41,4.41,0,0,0-.06,1A16.1,16.1,0,0,1,156.27,9a15.57,15.57,0,0,0-1.71-.31h0a15,15,0,0,0-1.79-.11c-.4,0-.8,0-1.19.07A3.75,3.75,0,0,0,149.58,11.55Z"/>
    <path class="cls-5" d="M147.29,9.64l.78-.28Z"/>
    <path class="cls-5" d="M148.75,9.17q.54-.15,1.09-.25C149.47,9,149.11,9.08,148.75,9.17Z"/>
    <path class="cls-5" d="M142.86,27.59a20.18,20.18,0,0,1,4.35-12.66,7.09,7.09,0,0,1-.4-4,8.35,8.35,0,0,1,.32-1.23c-6.6,2.59-11.33,9.61-11.33,17.88,0,10.47,7.58,19,16.93,19a15,15,0,0,0,1.79-.11h0a15.58,15.58,0,0,0,1.71-.31C148.61,44.31,142.86,36.7,142.86,27.59Z"/>
    <path class="cls-5" d="M150.66,8.78l.69-.08Z"/>
    <path class="cls-6" d="M147.21,14.92A5.32,5.32,0,0,0,151,18.07a8.42,8.42,0,0,0,2,.25,4.4,4.4,0,0,0,3.64-1.59,4.16,4.16,0,0,0,.66-3.82,3.83,3.83,0,0,0-2.91-2.69,1.43,1.43,0,0,0-1.63,1.28,1.57,1.57,0,0,0,1.14,1.83.92.92,0,0,1,.74.62.73.73,0,0,1-.11.69c-.33.42-1.26.73-2.9.33a2.48,2.48,0,0,1-2.11-2.45,4.41,4.41,0,0,1,.06-1,3.75,3.75,0,0,1,2-2.86l0,0-.23,0-.69.08-.82.14q-.55.11-1.09.25l-.67.19-.78.28-.15.05h0a8.35,8.35,0,0,0-.32,1.23A7.09,7.09,0,0,0,147.21,14.92Z"/>
    <path class="cls-7" d="M145,25.86a1.64,1.64,0,0,0-1.54,1.72v1.72a1.55,1.55,0,1,0,3.08,0V27.59A1.64,1.64,0,0,0,145,25.86Z"/>
    <path class="cls-7" d="M160.44,25.86a1.64,1.64,0,0,0-1.54,1.72v1.72a1.55,1.55,0,1,0,3.08,0V27.59A1.64,1.64,0,0,0,160.44,25.86Z"/>
    <path class="cls-8" d="M155.68,36.25a5.62,5.62,0,0,1-5.88,0,1.45,1.45,0,0,0-2.1.63,1.84,1.84,0,0,0,.56,2.36,8.34,8.34,0,0,0,9,0,1.84,1.84,0,0,0,.56-2.36A1.45,1.45,0,0,0,155.68,36.25Z"/>
    <path class="cls-1" d="M478.77,73.54v-.09l0,.06Z"/>
    <path class="cls-1" d="M432.36,67.64v3a29.27,29.27,0,0,0,1.42,9c8,5.87,18.18,10.29,26.14,13.88,1.94.87,3.36,1.14,5.17,2a29.46,29.46,0,0,0,7.65-6.89,92.39,92.39,0,0,0-14-7.41C451.41,78,440.83,73.4,432.36,67.64Z"/>
    <path class="cls-1" d="M470.65,67.7a41.29,41.29,0,0,1,5.7,3.63,23.88,23.88,0,0,0,2.57-11V57.68A33.35,33.35,0,0,1,470.65,67.7Z"/>
    <path class="cls-1" d="M449.6,0a29.4,29.4,0,0,1,6,.63,29.32,29.32,0,0,0-23.28,28.68v18c6.29,5,14,8.93,20.38,12,13.41-6.4,26.17-14.49,26.17-30A29.31,29.31,0,0,0,449.6,0Z"/>
    <path class="cls-1" d="M458.76,65.76c-7.35-3.32-17.93-7.87-26.4-13.63v11c8.24,6.41,19.12,11.15,27.55,15a92.24,92.24,0,0,1,14.69,7.83c-.16.3-.33.58-.5.87A29.15,29.15,0,0,0,478,77.9C475.4,73.27,467.28,69.6,458.76,65.76Z"/>
    <path class="cls-1" d="M478.88,72.09c0,.18,0,.35,0,.53C478.85,72.45,478.87,72.27,478.88,72.09Z"/>
    <path class="cls-1" d="M456.66,61.09l3.25,1.47c2.65,1.19,5.21,2.35,7.6,3.53,6.69-5.22,11.4-11.88,11.4-21.26V42.16C474.45,50.77,465.71,56.51,456.66,61.09Z"/>
    <path class="cls-1" d="M458.76,96.79c-6.16-2.78-14.6-6.43-22.16-10.93a29.35,29.35,0,0,0,19,13.51,29.41,29.41,0,0,1-6,.63,29.18,29.18,0,0,0,12.91-3c-.4.19-.79.38-1.2.55C460.31,97.1,459.78,97.25,458.76,96.79Z"/>
    <path class="cls-2" d="M432.36,47.28v-18A29.32,29.32,0,0,1,455.63.63a29.3,29.3,0,0,0-35.33,28C420.94,36,425.92,42.19,432.36,47.28Z"/>
    <path class="cls-2" d="M432.36,63.12v-11c-5.26-3.58-9.71-7.61-12.07-12.11V44C420.81,51.7,425.72,58,432.36,63.12Z"/>
    <path class="cls-2" d="M436.6,85.87c-7-4.17-13.27-9.06-16.24-14.65,0-.34,0-.69-.07-1v.51a29.31,29.31,0,0,0,35.34,28.68A29.35,29.35,0,0,1,436.6,85.87Z"/>
    <path class="cls-2" d="M433.78,79.71a29.27,29.27,0,0,1-1.42-9v-3c-5.26-3.58-9.71-7.61-12.07-12.11v3.94C420.85,67.76,426.43,74.34,433.78,79.71Z"/>
    <path class="cls-3" d="M433.78,79.71c-7.35-5.37-12.93-12-13.49-20.24,0-.45-.06-.91-.06-1.37V68.44c0,.58,0,1.16.06,1.74,0,.35,0,.69.07,1,3,5.59,9.23,10.48,16.24,14.65,7.56,4.5,16,8.15,22.16,10.93,1,.46,1.55.31,2.55.77.41-.17.8-.36,1.2-.55a24,24,0,0,0,2.62-1.41l0,0c-1.81-.85-3.23-1.11-5.17-2C452,90,441.82,85.59,433.78,79.71Z"/>
    <path class="cls-3" d="M459.91,78.08c-8.43-3.8-19.32-8.54-27.55-15C425.72,58,420.81,51.7,420.29,44c0-.45-.06-.91-.06-1.37V55.43l.06.1c2.36,4.5,6.81,8.53,12.07,12.11,8.47,5.76,19.05,10.32,26.4,13.63a92.39,92.39,0,0,1,14,7.41l.11.08c.45-.64.86-1.3,1.25-2,.17-.29.34-.57.5-.87A92.24,92.24,0,0,0,459.91,78.08Z"/>
    <path class="cls-3" d="M452.74,59.26c-6.4-3.05-14.09-7-20.38-12S420.94,36,420.31,28.65c0-.52-.07-1.05-.07-1.59V39.91l.06.1c2.36,4.5,6.81,8.53,12.07,12.11,8.47,5.76,19.05,10.32,26.4,13.63C467.28,69.6,475.4,73.27,478,77.9l0,.08a32.24,32.24,0,0,0,.72-4.43h0l0,0,0-.06v0c0-.27,0-.54.05-.81s0-.35,0-.53c0-.46,0-.93,0-1.4V60.34a23.88,23.88,0,0,1-2.57,11,41.29,41.29,0,0,0-5.7-3.63,33.35,33.35,0,0,0,8.26-10V44.83c0,9.38-4.71,16-11.4,21.26-2.39-1.17-5-2.33-7.6-3.53l-3.25-1.47c9-4.57,17.8-10.31,22.25-18.93V29.31C478.91,44.77,466.15,52.86,452.74,59.26Z"/>
    <path class="cls-1" d="M278.88,72.09c0,.18,0,.35,0,.53C278.85,72.45,278.87,72.27,278.88,72.09Z"/>
    <path class="cls-1" d="M270.65,67.7a41.29,41.29,0,0,1,5.7,3.63,23.88,23.88,0,0,0,2.57-11V57.68A33.35,33.35,0,0,1,270.65,67.7Z"/>
    <path class="cls-1" d="M278.77,73.54v-.09l0,.06Z"/>
    <path class="cls-1" d="M258.76,65.76c-7.35-3.32-17.93-7.87-26.4-13.63v11c8.24,6.41,19.12,11.15,27.55,15a92.24,92.24,0,0,1,14.69,7.83c-.16.3-.33.58-.5.87A29.15,29.15,0,0,0,278,77.9C275.4,73.27,267.28,69.6,258.76,65.76Z"/>
    <path class="cls-1" d="M232.36,67.64v3a29.27,29.27,0,0,0,1.42,9c8,5.87,18.18,10.29,26.14,13.88,1.94.87,3.36,1.14,5.17,2a29.46,29.46,0,0,0,7.65-6.89,92.39,92.39,0,0,0-14-7.41C251.41,78,240.83,73.4,232.36,67.64Z"/>
    <path class="cls-1" d="M258.76,96.79c-6.16-2.78-14.6-6.43-22.16-10.93a29.35,29.35,0,0,0,19,13.51,29.41,29.41,0,0,1-6,.63,29.18,29.18,0,0,0,12.91-3c-.4.19-.79.38-1.2.55C260.31,97.1,259.78,97.25,258.76,96.79Z"/>
    <path class="cls-1" d="M256.66,61.09l3.25,1.47c2.65,1.19,5.21,2.35,7.6,3.53,6.69-5.22,11.4-11.88,11.4-21.26V42.16C274.45,50.77,265.71,56.51,256.66,61.09Z"/>
    <path class="cls-1" d="M249.6,0a29.4,29.4,0,0,1,6,.63,29.32,29.32,0,0,0-23.28,28.68v18c6.29,5,14,8.93,20.38,12,13.41-6.4,26.17-14.49,26.17-30A29.31,29.31,0,0,0,249.6,0Zm8.57,49.14c-8.18,0-14.82-9.65-14.82-21.55S250,6,258.17,6,273,15.68,273,27.59,266.35,49.14,258.17,49.14Z"/>
    <path class="cls-2" d="M236.6,85.87c-7-4.17-13.27-9.06-16.24-14.65,0-.34,0-.69-.07-1v.51a29.31,29.31,0,0,0,35.34,28.68A29.35,29.35,0,0,1,236.6,85.87Z"/>
    <path class="cls-2" d="M233.78,79.71a29.27,29.27,0,0,1-1.42-9v-3c-5.26-3.58-9.71-7.61-12.07-12.11v3.93C220.85,67.76,226.43,74.34,233.78,79.71Z"/>
    <path class="cls-2" d="M232.36,63.12v-11c-5.26-3.58-9.71-7.61-12.07-12.11V44C220.81,51.7,225.72,58,232.36,63.12Z"/>
    <path class="cls-2" d="M232.36,47.28v-18A29.32,29.32,0,0,1,255.63.63a29.3,29.3,0,0,0-35.33,28C220.94,36,225.92,42.19,232.36,47.28Z"/>
    <path class="cls-3" d="M258.17,6c-8.18,0-14.82,9.65-14.82,21.55S250,49.14,258.17,49.14,273,39.49,273,27.59,266.35,6,258.17,6Zm1.4,40.4h0a9.1,9.1,0,0,1-1.38.11c-7.2,0-13-8.49-13-19,0-8.27,3.65-15.29,8.73-17.88h0l.12-.05.6-.28.52-.19c.28-.1.56-.18.84-.26l.63-.14.53-.08.18,0,0,0a7.61,7.61,0,0,1,2.29,0h0c6.54,1,11.64,9.07,11.64,18.85S266.11,45.42,259.57,46.44Z"/>
    <path class="cls-3" d="M233.78,79.71c-7.35-5.37-12.93-12-13.49-20.24,0-.45-.06-.91-.06-1.37V68.44c0,.58,0,1.16.06,1.73,0,.35,0,.69.07,1,3,5.59,9.23,10.48,16.24,14.65,7.56,4.5,16,8.15,22.16,10.93,1,.46,1.55.31,2.55.77.41-.17.8-.36,1.2-.55a24,24,0,0,0,2.62-1.41l0,0c-1.81-.85-3.23-1.11-5.17-2C252,90,241.82,85.59,233.78,79.71Z"/>
    <path class="cls-3" d="M259.91,78.08c-8.43-3.8-19.32-8.54-27.55-15C225.72,58,220.81,51.7,220.29,44c0-.45-.06-.91-.06-1.37V55.43l.06.1c2.36,4.5,6.81,8.53,12.07,12.11,8.47,5.76,19.05,10.32,26.4,13.63a92.39,92.39,0,0,1,14,7.41l.11.08c.45-.64.86-1.3,1.25-2,.17-.29.34-.57.5-.87A92.24,92.24,0,0,0,259.91,78.08Z"/>
    <path class="cls-3" d="M252.74,59.26c-6.4-3.05-14.09-7-20.38-12S220.94,36,220.31,28.65c0-.52-.07-1.05-.07-1.59V39.91l.06.1c2.36,4.5,6.81,8.53,12.07,12.11,8.47,5.76,19.05,10.32,26.4,13.63C267.28,69.6,275.4,73.27,278,77.9l0,.08a32.24,32.24,0,0,0,.72-4.43h0l0,0,0-.06v0c0-.27,0-.54.05-.81s0-.35,0-.53c0-.46,0-.93,0-1.4V60.34a23.88,23.88,0,0,1-2.57,11,41.29,41.29,0,0,0-5.7-3.63,33.35,33.35,0,0,0,8.26-10V44.83c0,9.38-4.71,16-11.4,21.26-2.39-1.17-5-2.33-7.6-3.53l-3.25-1.47c9-4.57,17.8-10.31,22.25-18.93V29.31C278.91,44.77,266.15,52.86,252.74,59.26Z"/>
    <path class="cls-4" d="M259.54,46.44a8.91,8.91,0,0,1-1.38.11A9.1,9.1,0,0,0,259.54,46.44Z"/>
    <path class="cls-4" d="M258.17,8.62a8.91,8.91,0,0,1,1.38.11A9.1,9.1,0,0,0,258.17,8.62Z"/>
    <path class="cls-4" d="M259.57,8.73a9.53,9.53,0,0,1,1.32.31,11.73,11.73,0,0,0-5.19,3.49A2.41,2.41,0,0,0,257.31,15c1.26.4,2,.09,2.24-.33a.92.92,0,0,0,.09-.69.81.81,0,0,0-.57-.62,1.63,1.63,0,0,1-.88-1.83c.1-.86.67-1.44,1.26-1.28a3.4,3.4,0,0,1,2.24,2.69,5.18,5.18,0,0,1-.51,3.82,3.16,3.16,0,0,1-2.8,1.59,5.08,5.08,0,0,1-1.52-.25,4.58,4.58,0,0,1-2.94-3.15,24.25,24.25,0,0,0-3.35,12.66c0,9.12,4.43,16.73,10.32,18.55a9.53,9.53,0,0,1-1.32.31c6.54-1,11.64-9.07,11.64-18.85S266.11,9.75,259.57,8.73Zm-6.14,20.58c0,1-.53,1.72-1.19,1.72s-1.19-.77-1.19-1.72V27.59c0-1,.53-1.72,1.19-1.72s1.19.77,1.19,1.72Zm8.19,9.93a5.21,5.21,0,0,1-6.91,0,2.2,2.2,0,0,1-.43-2.36c.33-.82,1-1.1,1.62-.63a3.5,3.5,0,0,0,4.53,0c.57-.48,1.29-.2,1.62.63A2.2,2.2,0,0,1,261.62,39.24Zm3.66-9.93c0,1-.53,1.72-1.19,1.72s-1.19-.77-1.19-1.72V27.59c0-1,.53-1.72,1.19-1.72s1.19.77,1.19,1.72Z"/>
    <path class="cls-5" d="M254,9.64l.6-.28Z"/>
    <path class="cls-5" d="M255.09,9.17q.42-.15.84-.26C255.65,9,255.37,9.08,255.09,9.17Z"/>
    <path class="cls-5" d="M256.56,8.78l.53-.08Z"/>
    <path class="cls-5" d="M250.56,27.59a24.25,24.25,0,0,1,3.35-12.66,9.08,9.08,0,0,1-.3-4,10.43,10.43,0,0,1,.25-1.23c-5.08,2.59-8.73,9.61-8.73,17.88,0,10.47,5.84,19,13,19a8.91,8.91,0,0,0,1.38-.11h0a9.53,9.53,0,0,0,1.32-.31C255,44.31,250.56,36.7,250.56,27.59Z"/>
    <path class="cls-5" d="M255.74,11.55a5.72,5.72,0,0,0,0,1A11.73,11.73,0,0,1,260.88,9a9.53,9.53,0,0,0-1.32-.31h0a8.91,8.91,0,0,0-1.38-.11,9,9,0,0,0-.92.07A3.86,3.86,0,0,0,255.74,11.55Z"/>
    <path class="cls-6" d="M253.91,14.92a4.58,4.58,0,0,0,2.94,3.15,5.08,5.08,0,0,0,1.52.25,3.16,3.16,0,0,0,2.8-1.59,5.18,5.18,0,0,0,.51-3.82,3.4,3.4,0,0,0-2.24-2.69c-.59-.16-1.16.42-1.26,1.28a1.63,1.63,0,0,0,.88,1.83.81.81,0,0,1,.57.62.92.92,0,0,1-.09.69c-.26.42-1,.73-2.24.33a2.41,2.41,0,0,1-1.62-2.45,5.72,5.72,0,0,1,0-1,3.86,3.86,0,0,1,1.51-2.86l0,0-.18,0-.53.08-.63.14q-.43.11-.84.26l-.52.19-.6.28-.12.05h0a10.43,10.43,0,0,0-.25,1.23A9.08,9.08,0,0,0,253.91,14.92Z"/>
    <path class="cls-7" d="M252.24,25.86c-.65,0-1.19.77-1.19,1.72v1.72c0,1,.53,1.72,1.19,1.72s1.19-.77,1.19-1.72V27.59C253.43,26.63,252.89,25.86,252.24,25.86Z"/>
    <path class="cls-7" d="M264.09,25.86c-.65,0-1.19.77-1.19,1.72v1.72c0,1,.53,1.72,1.19,1.72s1.19-.77,1.19-1.72V27.59C265.28,26.63,264.75,25.86,264.09,25.86Z"/>
    <path class="cls-8" d="M260.43,36.25a3.5,3.5,0,0,1-4.53,0c-.57-.48-1.29-.2-1.62.63a2.2,2.2,0,0,0,.43,2.36,5.21,5.21,0,0,0,6.91,0,2.2,2.2,0,0,0,.43-2.36C261.72,36.06,261,35.78,260.43,36.25Z"/>
    <path class="cls-1" d="M658.76,65.76c-7.35-3.32-17.93-7.87-26.4-13.63v11c8.24,6.41,19.12,11.15,27.55,15a92.24,92.24,0,0,1,14.69,7.83c-.16.3-.33.58-.5.87A29.15,29.15,0,0,0,678,77.9C675.4,73.27,667.28,69.6,658.76,65.76Z"/>
    <path class="cls-1" d="M632.36,67.64v3a29.27,29.27,0,0,0,1.42,9c8,5.87,18.18,10.29,26.14,13.88,1.94.87,3.36,1.14,5.17,2a29.46,29.46,0,0,0,7.65-6.89,92.39,92.39,0,0,0-14-7.41C651.41,78,640.83,73.4,632.36,67.64Z"/>
    <path class="cls-1" d="M678.88,72.09c0,.18,0,.35,0,.53C678.85,72.45,678.87,72.27,678.88,72.09Z"/>
    <path class="cls-1" d="M658.76,96.79c-6.16-2.78-14.6-6.43-22.16-10.93a29.35,29.35,0,0,0,19,13.51,29.41,29.41,0,0,1-6,.63,29.18,29.18,0,0,0,12.91-3c-.4.19-.79.38-1.2.55C660.31,97.1,659.78,97.25,658.76,96.79Z"/>
    <path class="cls-1" d="M656.66,61.09l3.25,1.47c2.65,1.19,5.21,2.35,7.6,3.53,6.69-5.22,11.4-11.88,11.4-21.26V42.16C674.45,50.77,665.71,56.51,656.66,61.09Z"/>
    <path class="cls-1" d="M678.77,73.54v-.09l0,.06Z"/>
    <path class="cls-1" d="M670.65,67.7a41.29,41.29,0,0,1,5.7,3.63,23.88,23.88,0,0,0,2.57-11V57.68A33.35,33.35,0,0,1,670.65,67.7Z"/>
    <path class="cls-1" d="M649.6,0a29.4,29.4,0,0,1,6,.63,29.19,29.19,0,0,0-11.81,5.44c8,.37,14.34,9.85,14.34,21.52,0,11.9-6.63,21.55-14.82,21.55-4.37,0-8.28-2.76-11-7.13v5.28c6.29,5,14,8.93,20.38,12,13.41-6.4,26.17-14.49,26.17-30A29.31,29.31,0,0,0,649.6,0Z"/>
    <path class="cls-2" d="M636.6,85.87c-7-4.17-13.27-9.06-16.24-14.65,0-.34,0-.69-.07-1v.51a29.31,29.31,0,0,0,35.34,28.68A29.35,29.35,0,0,1,636.6,85.87Z"/>
    <path class="cls-2" d="M632.36,63.12v-11c-5.26-3.58-9.71-7.61-12.07-12.11V44C620.81,51.7,625.72,58,632.36,63.12Z"/>
    <path class="cls-2" d="M632.36,47.28V42a27.55,27.55,0,0,1-3.83-14.42c0-11.9,6.63-21.55,14.82-21.55.16,0,.32,0,.48,0A29.19,29.19,0,0,1,655.63.63a29.3,29.3,0,0,0-35.33,28C620.94,36,625.92,42.19,632.36,47.28Z"/>
    <path class="cls-2" d="M633.78,79.71a29.27,29.27,0,0,1-1.42-9v-3c-5.26-3.58-9.71-7.61-12.07-12.11v3.94C620.85,67.76,626.43,74.34,633.78,79.71Z"/>
    <path class="cls-3" d="M628.53,27.59A27.55,27.55,0,0,0,632.36,42c2.71,4.37,6.62,7.13,11,7.13,8.18,0,14.82-9.65,14.82-21.55,0-11.67-6.38-21.15-14.34-21.52-.16,0-.32,0-.48,0C635.17,6,628.53,15.68,628.53,27.59Zm27.86,0c0,9.79-5.1,17.84-11.64,18.85h0a9.11,9.11,0,0,1-1.38.11c-7.2,0-13-8.49-13-19,0-8.27,3.65-15.29,8.73-17.88h0l.12-.05.6-.28.52-.19c.28-.1.56-.18.84-.26l.63-.14.53-.08.18,0,0,0a7.61,7.61,0,0,1,2.29,0h0C651.29,9.75,656.39,17.8,656.39,27.59Z"/>
    <path class="cls-3" d="M633.78,79.71c-7.35-5.37-12.93-12-13.49-20.24,0-.45-.06-.91-.06-1.37V68.44c0,.58,0,1.16.06,1.74,0,.35,0,.69.07,1,3,5.59,9.23,10.48,16.24,14.65,7.56,4.5,16,8.15,22.16,10.93,1,.46,1.55.31,2.55.77.41-.17.8-.36,1.2-.55a24,24,0,0,0,2.62-1.41l0,0c-1.81-.85-3.23-1.11-5.17-2C652,90,641.82,85.59,633.78,79.71Z"/>
    <path class="cls-3" d="M659.91,78.08c-8.43-3.8-19.32-8.54-27.55-15C625.72,58,620.81,51.7,620.29,44c0-.45-.06-.91-.06-1.37V55.43l.06.1c2.36,4.5,6.81,8.53,12.07,12.11,8.47,5.76,19.05,10.32,26.4,13.63a92.39,92.39,0,0,1,14,7.41l.11.08c.45-.64.86-1.3,1.25-2,.17-.29.34-.57.5-.87A92.24,92.24,0,0,0,659.91,78.08Z"/>
    <path class="cls-3" d="M652.74,59.26c-6.4-3.05-14.09-7-20.38-12S620.94,36,620.31,28.65c0-.52-.07-1.05-.07-1.59V39.91l.06.1c2.36,4.5,6.81,8.53,12.07,12.11,8.47,5.76,19.05,10.32,26.4,13.63C667.28,69.6,675.4,73.27,678,77.9l0,.08a32.24,32.24,0,0,0,.72-4.43h0l0,0,0-.06v0c0-.27,0-.54.05-.81s0-.35,0-.53c0-.46,0-.93,0-1.4V60.34a23.88,23.88,0,0,1-2.57,11,41.29,41.29,0,0,0-5.7-3.63,33.35,33.35,0,0,0,8.26-10V44.83c0,9.38-4.71,16-11.4,21.26-2.39-1.17-5-2.33-7.6-3.53l-3.25-1.47c9-4.57,17.8-10.31,22.25-18.93V29.31C678.91,44.77,666.15,52.86,652.74,59.26Z"/>
    <path class="cls-4" d="M644.73,46.44a8.92,8.92,0,0,1-1.38.11A9.11,9.11,0,0,0,644.73,46.44Z"/>
    <path class="cls-4" d="M646.07,9a11.73,11.73,0,0,0-5.2,3.49A2.41,2.41,0,0,0,642.49,15c1.26.4,2,.09,2.24-.33a.92.92,0,0,0,.09-.69.81.81,0,0,0-.57-.62,1.63,1.63,0,0,1-.88-1.83c.1-.86.67-1.44,1.26-1.28a3.4,3.4,0,0,1,2.24,2.69,5.18,5.18,0,0,1-.51,3.82,3.16,3.16,0,0,1-2.8,1.59,5.08,5.08,0,0,1-1.52-.25,4.58,4.58,0,0,1-2.94-3.15,24.25,24.25,0,0,0-3.35,12.66c0,9.12,4.43,16.73,10.32,18.55a9.53,9.53,0,0,1-1.32.31c6.54-1,11.64-9.07,11.64-18.85s-5.1-17.84-11.64-18.85A9.53,9.53,0,0,1,646.07,9Zm-7.46,20.27c0,1-.53,1.72-1.19,1.72s-1.19-.77-1.19-1.72V27.59c0-1,.53-1.72,1.19-1.72s1.19.77,1.19,1.72Zm9.48-1.72c0-1,.53-1.72,1.19-1.72s1.19.77,1.19,1.72v1.72c0,1-.53,1.72-1.19,1.72s-1.19-.77-1.19-1.72ZM646.8,39.24a5.21,5.21,0,0,1-6.91,0,2.2,2.2,0,0,1-.43-2.36c.33-.82,1-1.1,1.62-.63a3.5,3.5,0,0,0,4.53,0c.57-.48,1.29-.2,1.62.63A2.2,2.2,0,0,1,646.8,39.24Z"/>
    <path class="cls-4" d="M643.35,8.62a8.91,8.91,0,0,1,1.38.11A9.1,9.1,0,0,0,643.35,8.62Z"/>
    <path class="cls-5" d="M640.92,11.55a5.7,5.7,0,0,0,0,1A11.73,11.73,0,0,1,646.07,9a9.53,9.53,0,0,0-1.32-.31h0a8.91,8.91,0,0,0-1.38-.11,9,9,0,0,0-.92.07A3.86,3.86,0,0,0,640.92,11.55Z"/>
    <path class="cls-5" d="M641.75,8.78l.53-.08Z"/>
    <path class="cls-5" d="M641.12,8.92c-.28.07-.56.16-.84.26Q640.69,9,641.12,8.92Z"/>
    <path class="cls-5" d="M635.74,27.59a24.25,24.25,0,0,1,3.35-12.66,9.08,9.08,0,0,1-.3-4A10.43,10.43,0,0,1,639,9.71c-5.08,2.59-8.73,9.61-8.73,17.88,0,10.47,5.84,19,13,19a8.92,8.92,0,0,0,1.38-.11h0a9.53,9.53,0,0,0,1.32-.31C640.17,44.31,635.74,36.7,635.74,27.59Z"/>
    <path class="cls-5" d="M639.15,9.64l.6-.28Z"/>
    <path class="cls-6" d="M639.09,14.92A4.58,4.58,0,0,0,642,18.07a5.08,5.08,0,0,0,1.52.25,3.16,3.16,0,0,0,2.8-1.59,5.18,5.18,0,0,0,.51-3.82,3.4,3.4,0,0,0-2.24-2.69c-.59-.16-1.16.42-1.26,1.28a1.63,1.63,0,0,0,.88,1.83.81.81,0,0,1,.57.62.92.92,0,0,1-.09.69c-.26.42-1,.73-2.24.33a2.41,2.41,0,0,1-1.62-2.45,5.7,5.7,0,0,1,0-1,3.86,3.86,0,0,1,1.51-2.86l0,0-.18,0-.53.08-.63.14q-.43.11-.84.26l-.52.19-.6.28L639,9.7h0a10.43,10.43,0,0,0-.25,1.23A9.08,9.08,0,0,0,639.09,14.92Z"/>
    <path class="cls-7" d="M637.42,25.86c-.65,0-1.19.77-1.19,1.72v1.72c0,1,.53,1.72,1.19,1.72s1.19-.77,1.19-1.72V27.59C638.61,26.63,638.08,25.86,637.42,25.86Z"/>
    <path class="cls-7" d="M649.28,31c.65,0,1.19-.77,1.19-1.72V27.59c0-1-.53-1.72-1.19-1.72s-1.19.77-1.19,1.72v1.72C648.09,30.26,648.62,31,649.28,31Z"/>
    <path class="cls-8" d="M645.62,36.25a3.5,3.5,0,0,1-4.53,0c-.57-.48-1.29-.2-1.62.63a2.2,2.2,0,0,0,.43,2.36,5.21,5.21,0,0,0,6.91,0,2.2,2.2,0,0,0,.43-2.36C646.91,36.06,646.18,35.78,645.62,36.25Z"/>
    <path class="cls-1" d="M356.66,61.09l3.25,1.47c2.65,1.19,5.21,2.35,7.6,3.53,6.69-5.22,11.4-11.88,11.4-21.26V42.16C374.45,50.77,365.71,56.51,356.66,61.09Z"/>
    <path class="cls-1" d="M358.76,65.76c-7.35-3.32-17.93-7.87-26.4-13.63v11c8.24,6.41,19.12,11.15,27.55,15a92.24,92.24,0,0,1,14.69,7.83c-.16.3-.33.58-.5.87A29.15,29.15,0,0,0,378,77.9C375.4,73.27,367.28,69.6,358.76,65.76Z"/>
    <path class="cls-1" d="M370.65,67.7a41.29,41.29,0,0,1,5.7,3.63,23.88,23.88,0,0,0,2.57-11V57.68A33.35,33.35,0,0,1,370.65,67.7Z"/>
    <path class="cls-1" d="M378.77,73.54v-.09l0,.06Z"/>
    <path class="cls-1" d="M378.88,72.09c0,.18,0,.35,0,.53C378.85,72.45,378.87,72.27,378.88,72.09Z"/>
    <path class="cls-1" d="M332.36,67.64v3a29.27,29.27,0,0,0,1.42,9c8,5.87,18.18,10.29,26.14,13.88,1.94.87,3.36,1.14,5.17,2a29.46,29.46,0,0,0,7.65-6.89,92.39,92.39,0,0,0-14-7.41C351.41,78,340.83,73.4,332.36,67.64Z"/>
    <path class="cls-1" d="M332.36,29.31v18c6.29,5,14,8.93,20.38,12a77.82,77.82,0,0,0,15.39-9.17,2.8,2.8,0,0,1-.33,0c-4.23,0-7.66-9.65-7.66-21.55S363.57,7,367.8,7a3,3,0,0,1,1.14.26A29.19,29.19,0,0,0,349.6,0a29.4,29.4,0,0,1,6,.63A29.32,29.32,0,0,0,332.36,29.31Z"/>
    <path class="cls-1" d="M375.47,28.59c0,7.37-1.32,13.87-3.32,17.75a24.37,24.37,0,0,0,6.77-17,29.19,29.19,0,0,0-7.18-19.21C374,13.87,375.47,20.73,375.47,28.59Z"/>
    <path class="cls-1" d="M358.76,96.79c-6.16-2.78-14.6-6.43-22.16-10.93a29.35,29.35,0,0,0,19,13.51,29.41,29.41,0,0,1-6,.63,29.18,29.18,0,0,0,12.91-3c-.4.19-.79.38-1.2.55C360.31,97.1,359.78,97.25,358.76,96.79Z"/>
    <path class="cls-2" d="M332.36,63.12v-11c-5.26-3.58-9.71-7.61-12.07-12.11V44C320.81,51.7,325.72,58,332.36,63.12Z"/>
    <path class="cls-2" d="M332.36,47.28v-18A29.32,29.32,0,0,1,355.63.63a29.3,29.3,0,0,0-35.33,28C320.94,36,325.92,42.19,332.36,47.28Z"/>
    <path class="cls-2" d="M336.6,85.87c-7-4.17-13.27-9.06-16.24-14.65,0-.34,0-.69-.07-1v.51a29.31,29.31,0,0,0,35.34,28.68A29.35,29.35,0,0,1,336.6,85.87Z"/>
    <path class="cls-2" d="M333.78,79.71a29.27,29.27,0,0,1-1.42-9v-3c-5.26-3.58-9.71-7.61-12.07-12.11v3.93C320.85,67.76,326.43,74.34,333.78,79.71Z"/>
    <path class="cls-3" d="M375.47,28.59c0-7.86-1.5-14.72-3.74-18.48a6.46,6.46,0,0,0-2.79-2.81A3,3,0,0,0,367.8,7c-4.23,0-7.66,9.65-7.66,21.55s3.43,21.55,7.66,21.55a2.8,2.8,0,0,0,.33,0,77.82,77.82,0,0,1-15.39,9.17c-6.4-3.05-14.09-7-20.38-12S320.94,36,320.31,28.65c0-.52-.07-1.05-.07-1.59V39.91l.06.1c2.36,4.5,6.81,8.53,12.07,12.11,8.47,5.76,19.05,10.32,26.4,13.63C367.28,69.6,375.4,73.27,378,77.9l0,.08a32.24,32.24,0,0,0,.72-4.43h0l0,0,0-.06v0c0-.27,0-.54.05-.81s0-.35,0-.53c0-.46,0-.93,0-1.4V60.34a23.88,23.88,0,0,1-2.57,11,41.29,41.29,0,0,0-5.7-3.63,33.35,33.35,0,0,0,8.26-10V44.83c0,9.38-4.71,16-11.4,21.26-2.39-1.17-5-2.33-7.6-3.53l-3.25-1.47c9-4.57,17.8-10.31,22.25-18.93V29.31a24.37,24.37,0,0,1-6.77,17C374.15,42.45,375.47,36,375.47,28.59Zm-14.41,0c0-8.27,1.89-15.29,4.51-17.88h0l.06-.05.31-.28.27-.19a3.48,3.48,0,0,1,.44-.26l.33-.14.27-.08.09,0v0a2.48,2.48,0,0,1,.47-.07,2.51,2.51,0,0,1,.71.11h0c3.38,1,6,9.07,6,18.85s-2.64,17.84-6,18.85h0a2.51,2.51,0,0,1-.71.11C364.08,47.55,361.06,39.06,361.06,28.59Z"/>
    <path class="cls-3" d="M333.78,79.71c-7.35-5.37-12.93-12-13.49-20.24,0-.45-.06-.91-.06-1.37V68.44c0,.58,0,1.16.06,1.73,0,.35,0,.69.07,1,3,5.59,9.23,10.48,16.24,14.65,7.56,4.5,16,8.15,22.16,10.93,1,.46,1.55.31,2.55.77.41-.17.8-.36,1.2-.55a24,24,0,0,0,2.62-1.41l0,0c-1.81-.85-3.23-1.11-5.17-2C352,90,341.82,85.59,333.78,79.71Z"/>
    <path class="cls-3" d="M359.91,78.08c-8.43-3.8-19.32-8.54-27.55-15C325.72,58,320.81,51.7,320.29,44c0-.45-.06-.91-.06-1.37V55.43l.06.1c2.36,4.5,6.81,8.53,12.07,12.11,8.47,5.76,19.05,10.32,26.4,13.63a92.39,92.39,0,0,1,14,7.41l.11.08c.45-.64.86-1.3,1.25-2,.17-.29.34-.57.5-.87A92.24,92.24,0,0,0,359.91,78.08Z"/>
    <path class="cls-4" d="M367.8,9.62a2.45,2.45,0,0,1,.71.11A2.51,2.51,0,0,0,367.8,9.62Z"/>
    <path class="cls-4" d="M367.8,47.55a2.51,2.51,0,0,0,.71-.11A2.45,2.45,0,0,1,367.8,47.55Z"/>
    <path class="cls-4" d="M366.52,13.53c0,1,.19,2.06.84,2.45s1,.09,1.16-.33a1.71,1.71,0,0,0,0-.69c0-.15-.09-.52-.29-.62s-.51-1-.46-1.83.35-1.44.65-1.28c.55.27,1,1.28,1.16,2.69a9.55,9.55,0,0,1-.26,3.82c-.21.66-.64,1.59-1.45,1.59a1.53,1.53,0,0,1-.79-.25,4.54,4.54,0,0,1-1.52-3.15,42.84,42.84,0,0,0-1.73,12.66c0,9.12,2.29,16.73,5.34,18.55a3.11,3.11,0,0,1-.68.31c3.38-1,6-9.07,6-18.85s-2.64-17.84-6-18.85a3.11,3.11,0,0,1,.68.31A7.81,7.81,0,0,0,366.52,13.53Zm-1.17,16.78c0,1-.27,1.72-.61,1.72s-.61-.77-.61-1.72V28.59c0-1,.27-1.72.61-1.72s.61.77.61,1.72Zm4.9-1.72c0-1,.27-1.72.61-1.72s.61.77.61,1.72v1.72c0,1-.27,1.72-.61,1.72s-.61-.77-.61-1.72Zm-.44,9.3a3.84,3.84,0,0,1-.22,2.36,1.87,1.87,0,0,1-3.57,0,3.84,3.84,0,0,1-.22-2.36c.17-.82.54-1.1.84-.63.68,1.11,1.66,1.11,2.34,0C369.27,36.78,369.64,37.06,369.81,37.88Z"/>
    <path class="cls-5" d="M368.53,47.44a3.11,3.11,0,0,0,.68-.31c-3-1.82-5.34-9.43-5.34-18.55a42.84,42.84,0,0,1,1.73-12.66,17.29,17.29,0,0,1-.16-4c0-.42.07-.83.13-1.23-2.63,2.59-4.51,9.61-4.51,17.88,0,10.47,3,19,6.74,19a2.45,2.45,0,0,0,.71-.11Z"/>
    <path class="cls-5" d="M366.21,10.17a3.47,3.47,0,0,1,.44-.26A3.48,3.48,0,0,0,366.21,10.17Z"/>
    <path class="cls-5" d="M365.63,10.64l.31-.28Z"/>
    <path class="cls-5" d="M367,9.78l.27-.08Z"/>
    <path class="cls-5" d="M366.52,13.53A7.81,7.81,0,0,1,369.21,10a3.11,3.11,0,0,0-.68-.31h0a2.07,2.07,0,0,0-1.19,0,5.45,5.45,0,0,0-.78,2.86C366.53,12.83,366.51,13.17,366.52,13.53Z"/>
    <path class="cls-6" d="M365.6,15.92a4.54,4.54,0,0,0,1.52,3.15,1.53,1.53,0,0,0,.79.25c.81,0,1.24-.93,1.45-1.59a9.55,9.55,0,0,0,.26-3.82c-.18-1.41-.61-2.42-1.16-2.69-.3-.16-.6.42-.65,1.28s.15,1.68.46,1.83.28.47.29.62a1.71,1.71,0,0,1,0,.69c-.13.42-.5.73-1.16.33s-.82-1.48-.84-2.45c0-.36,0-.7,0-1a5.45,5.45,0,0,1,.78-2.86v0l-.09,0-.27.08-.33.14a3.47,3.47,0,0,0-.44.26l-.27.19-.31.28-.06.05h0c-.05.4-.1.81-.13,1.23A17.29,17.29,0,0,0,365.6,15.92Z"/>
    <path class="cls-7" d="M364.74,26.86c-.34,0-.61.77-.61,1.72v1.72c0,1,.27,1.72.61,1.72s.61-.77.61-1.72V28.59C365.35,27.63,365.08,26.86,364.74,26.86Z"/>
    <path class="cls-7" d="M370.87,32c.34,0,.61-.77.61-1.72V28.59c0-1-.27-1.72-.61-1.72s-.61.77-.61,1.72v1.72C370.26,31.26,370.53,32,370.87,32Z"/>
    <path class="cls-8" d="M369,37.25c-.68,1.11-1.66,1.11-2.34,0-.3-.48-.67-.2-.84.63a3.84,3.84,0,0,0,.22,2.36,1.87,1.87,0,0,0,3.57,0,3.84,3.84,0,0,0,.22-2.36C369.64,37.06,369.27,36.78,369,37.25Z"/>
    <path class="cls-1" d="M570.65,67.7a41.29,41.29,0,0,1,5.7,3.63,23.88,23.88,0,0,0,2.57-11V57.68A33.35,33.35,0,0,1,570.65,67.7Z"/>
    <path class="cls-1" d="M578.77,73.54v-.09l0,.06Z"/>
    <path class="cls-1" d="M558.76,65.76c-7.35-3.32-17.93-7.87-26.4-13.63v11c8.24,6.41,19.12,11.15,27.55,15a92.24,92.24,0,0,1,14.69,7.83c-.16.3-.33.58-.5.87A29.15,29.15,0,0,0,578,77.9C575.4,73.27,567.28,69.6,558.76,65.76Z"/>
    <path class="cls-1" d="M532.36,67.64v3a29.27,29.27,0,0,0,1.42,9c8,5.87,18.18,10.29,26.14,13.88,1.94.87,3.36,1.14,5.17,2a29.46,29.46,0,0,0,7.65-6.89,92.39,92.39,0,0,0-14-7.41C551.41,78,540.83,73.4,532.36,67.64Z"/>
    <path class="cls-1" d="M549.6,0a29.4,29.4,0,0,1,6,.63,29.34,29.34,0,0,0-18.4,12.5,46.76,46.76,0,0,1,2.33,15.46c0,9.37-2.13,17.32-5.1,20.29a118.9,118.9,0,0,0,18.27,10.39c13.41-6.4,26.17-14.49,26.17-30A29.31,29.31,0,0,0,549.6,0Z"/>
    <path class="cls-1" d="M556.66,61.09l3.25,1.47c2.65,1.19,5.21,2.35,7.6,3.53,6.69-5.22,11.4-11.88,11.4-21.26V42.16C574.45,50.77,565.71,56.51,556.66,61.09Z"/>
    <path class="cls-1" d="M558.76,96.79c-6.16-2.78-14.6-6.43-22.16-10.93a29.35,29.35,0,0,0,19,13.51,29.41,29.41,0,0,1-6,.63,29.18,29.18,0,0,0,12.91-3c-.4.19-.79.38-1.2.55C560.31,97.1,559.78,97.25,558.76,96.79Z"/>
    <path class="cls-1" d="M578.88,72.09c0,.18,0,.35,0,.53C578.85,72.45,578.87,72.27,578.88,72.09Z"/>
    <path class="cls-2" d="M532.36,63.12v-11c-5.26-3.58-9.71-7.61-12.07-12.11V44C520.81,51.7,525.72,58,532.36,63.12Z"/>
    <path class="cls-2" d="M536.6,85.87c-7-4.17-13.27-9.06-16.24-14.65,0-.34,0-.69-.07-1v.51a29.31,29.31,0,0,0,35.34,28.68A29.35,29.35,0,0,1,536.6,85.87Z"/>
    <path class="cls-2" d="M524.24,28.59c0-11.9,3.43-21.55,7.66-21.55,2.07,0,4,2.33,5.33,6.09A29.34,29.34,0,0,1,555.63.63a29.3,29.3,0,0,0-35.33,28,22.17,22.17,0,0,0,5.26,12.06A52.41,52.41,0,0,1,524.24,28.59Z"/>
    <path class="cls-2" d="M533.78,79.71a29.27,29.27,0,0,1-1.42-9v-3c-5.26-3.58-9.71-7.61-12.07-12.11v3.94C520.85,67.76,526.43,74.34,533.78,79.71Z"/>
    <path class="cls-3" d="M533.78,79.71c-7.35-5.37-12.93-12-13.49-20.24,0-.45-.06-.91-.06-1.37V68.44c0,.58,0,1.16.06,1.74,0,.35,0,.69.07,1,3,5.59,9.23,10.48,16.24,14.65,7.56,4.5,16,8.15,22.16,10.93,1,.46,1.55.31,2.55.77.41-.17.8-.36,1.2-.55a24,24,0,0,0,2.62-1.41l0,0c-1.81-.85-3.23-1.11-5.17-2C552,90,541.82,85.59,533.78,79.71Z"/>
    <path class="cls-3" d="M559.91,78.08c-8.43-3.8-19.32-8.54-27.55-15C525.72,58,520.81,51.7,520.29,44c0-.45-.06-.91-.06-1.37V55.43l.06.1c2.36,4.5,6.81,8.53,12.07,12.11,8.47,5.76,19.05,10.32,26.4,13.63a92.39,92.39,0,0,1,14,7.41l.11.08c.45-.64.86-1.3,1.25-2,.17-.29.34-.57.5-.87A92.24,92.24,0,0,0,559.91,78.08Z"/>
    <path class="cls-3" d="M552.74,59.26a118.9,118.9,0,0,1-18.27-10.39c3-3,5.1-10.92,5.1-20.29a46.76,46.76,0,0,0-2.33-15.46C535.86,9.36,534,7,531.91,7c-4.23,0-7.66,9.65-7.66,21.55a52.41,52.41,0,0,0,1.33,12.12,22.17,22.17,0,0,1-5.26-12.06c0-.52-.07-1.05-.07-1.59V39.91l.06.1c2.36,4.5,6.81,8.53,12.07,12.11,8.47,5.76,19.05,10.32,26.4,13.63C567.28,69.6,575.4,73.27,578,77.9l0,.08a32.24,32.24,0,0,0,.72-4.43h0l0,0,0-.06v0c0-.27,0-.54.05-.81s0-.35,0-.53c0-.46,0-.93,0-1.4V60.34a23.88,23.88,0,0,1-2.57,11,41.29,41.29,0,0,0-5.7-3.63,33.35,33.35,0,0,0,8.26-10V44.83c0,9.38-4.71,16-11.4,21.26-2.39-1.17-5-2.33-7.6-3.53l-3.25-1.47c9-4.57,17.8-10.31,22.25-18.93V29.31C578.91,44.77,566.15,52.86,552.74,59.26ZM525.16,28.59c0-8.27,1.89-15.29,4.51-17.88h0l.06-.05.31-.28.27-.19a3.48,3.48,0,0,1,.44-.26l.33-.14.27-.08.09,0v0a2.48,2.48,0,0,1,.47-.07,2.51,2.51,0,0,1,.71.11h0c3.38,1,6,9.07,6,18.85s-2.64,17.84-6,18.85h0a2.51,2.51,0,0,1-.71.11C528.18,47.55,525.16,39.06,525.16,28.59Z"/>
    <path class="cls-4" d="M531.91,9.62a2.45,2.45,0,0,1,.71.11A2.51,2.51,0,0,0,531.91,9.62Z"/>
    <path class="cls-4" d="M530.62,13.53c0,1,.19,2.06.84,2.45s1,.09,1.16-.33a1.71,1.71,0,0,0,0-.69c0-.15-.09-.52-.29-.62s-.51-1-.46-1.83.35-1.44.65-1.28c.55.27,1,1.28,1.16,2.69a9.55,9.55,0,0,1-.26,3.82c-.21.66-.64,1.59-1.45,1.59a1.53,1.53,0,0,1-.79-.25,4.54,4.54,0,0,1-1.52-3.15A42.84,42.84,0,0,0,528,28.59c0,9.12,2.29,16.73,5.34,18.55a3.11,3.11,0,0,1-.68.31c3.38-1,6-9.07,6-18.85s-2.64-17.83-6-18.85a3.11,3.11,0,0,1,.68.31A7.81,7.81,0,0,0,530.62,13.53Zm-1.17,16.78c0,1-.27,1.72-.61,1.72s-.61-.77-.61-1.72V28.59c0-1,.27-1.72.61-1.72s.61.77.61,1.72Zm4.24,9.93a1.87,1.87,0,0,1-3.57,0,3.84,3.84,0,0,1-.22-2.36c.17-.82.54-1.1.84-.63.68,1.11,1.66,1.11,2.34,0,.29-.48.67-.2.84.63A3.84,3.84,0,0,1,533.69,40.24Zm1.89-9.93c0,1-.27,1.72-.61,1.72s-.61-.77-.61-1.72V28.59c0-1,.27-1.72.61-1.72s.61.77.61,1.72Z"/>
    <path class="cls-4" d="M531.91,47.55a2.51,2.51,0,0,0,.71-.11A2.45,2.45,0,0,1,531.91,47.55Z"/>
    <path class="cls-5" d="M530.62,13.53A7.81,7.81,0,0,1,533.31,10a3.11,3.11,0,0,0-.68-.31h0a2.07,2.07,0,0,0-1.19,0,5.45,5.45,0,0,0-.78,2.86C530.63,12.83,530.62,13.17,530.62,13.53Z"/>
    <path class="cls-5" d="M530.31,10.17a3.47,3.47,0,0,1,.44-.26A3.48,3.48,0,0,0,530.31,10.17Z"/>
    <path class="cls-5" d="M529.74,10.64l.31-.28Z"/>
    <path class="cls-5" d="M531.08,9.78l.27-.08Z"/>
    <path class="cls-5" d="M531.91,47.55a2.45,2.45,0,0,0,.71-.11h0a3.11,3.11,0,0,0,.68-.31c-3-1.82-5.34-9.43-5.34-18.55a42.84,42.84,0,0,1,1.73-12.66,17.29,17.29,0,0,1-.16-4c0-.42.07-.83.13-1.23-2.63,2.59-4.51,9.61-4.51,17.88C525.16,39.06,528.18,47.55,531.91,47.55Z"/>
    <path class="cls-6" d="M529.7,15.92a4.54,4.54,0,0,0,1.52,3.15,1.53,1.53,0,0,0,.79.25c.81,0,1.24-.93,1.45-1.59a9.55,9.55,0,0,0,.26-3.82c-.18-1.41-.61-2.42-1.16-2.69-.3-.16-.6.42-.65,1.28s.15,1.68.46,1.83.28.47.29.62a1.71,1.71,0,0,1,0,.69c-.13.42-.5.73-1.16.33s-.82-1.48-.84-2.45c0-.36,0-.7,0-1a5.45,5.45,0,0,1,.78-2.86v0l-.09,0-.27.08-.33.14a3.47,3.47,0,0,0-.44.26l-.27.19-.31.28-.06.05h0c-.05.4-.1.81-.13,1.23A17.29,17.29,0,0,0,529.7,15.92Z"/>
    <path class="cls-7" d="M528.84,26.86c-.34,0-.61.77-.61,1.72v1.72c0,1,.27,1.72.61,1.72s.61-.77.61-1.72V28.59C529.45,27.63,529.18,26.86,528.84,26.86Z"/>
    <path class="cls-7" d="M535,26.86c-.34,0-.61.77-.61,1.72v1.72c0,1,.27,1.72.61,1.72s.61-.77.61-1.72V28.59C535.58,27.63,535.31,26.86,535,26.86Z"/>
    <path class="cls-8" d="M533.08,37.25c-.68,1.11-1.66,1.11-2.34,0-.3-.48-.67-.2-.84.63a3.84,3.84,0,0,0,.22,2.36,1.87,1.87,0,0,0,3.57,0,3.84,3.84,0,0,0,.22-2.36C533.75,37.06,533.37,36.78,533.08,37.25Z"/>
  </g>
</svg>
