<?xml version="1.0" encoding="utf-8"?>
<!-- Generator: Adobe Illustrator 21.1.0, SVG Export Plug-In . SVG Version: 6.00 Build 0)  -->
<svg version="1.1" id="Layer_1" xmlns="http://www.w3.org/2000/svg" xmlns:xlink="http://www.w3.org/1999/xlink" x="0px" y="0px"
	 viewBox="0 0 102.9 100" style="enable-background:new 0 0 102.9 100;" xml:space="preserve">
<style type="text/css">
	.st0{fill:#00ABD3;}
	.st1{opacity:0.2;fill:#FFFFFF;enable-background:new    ;}
	.st2{fill:#DDD5CC;}
	.st3{fill:#EFE6D9;}
	.st4{fill:#E5DCCF;}
	.st5{fill:#F1BDD7;}
	.st6{fill:none;stroke:#000000;stroke-width:2;stroke-linecap:round;stroke-linejoin:round;stroke-miterlimit:10;}
</style>
<g>
	
		<image style="overflow:visible;opacity:0.3;enable-background:new    ;" width="105" height="51" xlink:href="F7616FD9A3A9920E.png"  transform="matrix(1 0 0 1 2 29)">
	</image>
	<g>
		<g>
			<g>
				<polygon class="st0" points="5.8,32.5 36,35.7 59.2,38 59.2,67 6.4,70 				"/>
				<polygon class="st1" points="5.8,32.5 36,35.7 59.2,38 59.2,67 6.4,70 				"/>
			</g>
			<g>
				<g>
					<g>
						<g>
							<path class="st2" d="M67.7,69.1c-0.2,0-0.4-0.2-0.4-0.4s0.2-0.4,0.4-0.4h0.6v-3c0-0.2,0.2-0.4,0.4-0.4l0,0
								c0.2,0,0.4,0.2,0.4,0.4v3.8H67.7L67.7,69.1z"/>
						</g>
					</g>
					<g>
						<g>
							<path class="st2" d="M72.6,69.1c-0.2,0-0.4-0.2-0.4-0.4s0.2-0.4,0.4-0.4h0.6v-3c0-0.2,0.2-0.4,0.4-0.4l0,0
								c0.2,0,0.4,0.2,0.4,0.4v3.8H72.6L72.6,69.1z"/>
						</g>
					</g>
					<g>
						<path class="st2" d="M93.8,47.4c0-0.1,0.1-0.2,0.2-0.3c0.2-0.1,0.4-0.1,0.6,0.1l3.1,4.7c0.1,0.2,0.1,0.4-0.1,0.5
							s-0.4,0.1-0.6-0.1l-3.1-4.7C93.8,47.6,93.8,47.5,93.8,47.4z"/>
					</g>
					<g>
						<path class="st2" d="M48.3,47.3c0,0.1,0,0.2-0.1,0.3L45,52.3c-0.1,0.2-0.4,0.2-0.5,0.1c-0.2-0.1-0.2-0.4-0.1-0.5l3.2-4.7
							c0.1-0.2,0.4-0.2,0.5-0.1C48.2,47.1,48.2,47.2,48.3,47.3z"/>
					</g>
					<rect x="48.2" y="34.6" class="st3" width="45.7" height="30.5"/>
					<polygon class="st4" points="93.9,65.1 48.2,65.1 70.9,48.1 					"/>
					<polygon class="st2" points="48.1,34.5 93.8,34.5 71.1,51.9 					"/>
					<g>
						<g>
							<path d="M64.4,51.2c0,3.6,2.9,6.5,6.5,6.5s6.6-2.9,6.6-6.5H64.4z"/>
							<path class="st5" d="M75.1,56.2c0,0-1.1-2.8-4.1-3s-4.8,2.4-4.8,2.4s3.3,3.9,8.2,1.1C74.6,56.6,74.8,56.4,75.1,56.2z"/>
						</g>
						<g>
							<path class="st6" d="M68.6,45.3"/>
							<path class="st6" d="M65.4,45.3"/>
						</g>
					</g>
				</g>
				<circle cx="67.7" cy="45.1" r="0.8"/>
				<circle cx="74.2" cy="45" r="0.8"/>
			</g>
		</g>
	</g>
</g>
</svg>
