<?xml version="1.0" encoding="utf-8"?>
<!-- Generator: Adobe Illustrator 23.0.4, SVG Export Plug-In . SVG Version: 6.00 Build 0)  -->
<svg version="1.1" id="Layer_1" xmlns="http://www.w3.org/2000/svg" xmlns:xlink="http://www.w3.org/1999/xlink" x="0px" y="0px"
	 viewBox="0 0 705.39 100" style="enable-background:new 0 0 705.39 100;" xml:space="preserve">
<style type="text/css">
	.st0{fill:#00ABD3;}
	.st1{opacity:0.2;fill:#FFFFFF;}
	.st2{fill:#DDD5CC;}
	.st3{fill:#EFE6D9;}
	.st4{fill:#E5DCCF;}
	.st5{fill:#F1BDD7;}
	.st6{fill:none;stroke:#000000;stroke-width:2;stroke-linecap:round;stroke-linejoin:round;stroke-miterlimit:10;}
</style>
<g>
	<g>
		<polygon class="st0" points="5.78,32.52 36.01,35.67 59.24,38 59.18,67 6.39,70.01 		"/>
		<polygon class="st1" points="5.79,32.53 36.02,35.67 59.25,38 59.18,67.01 6.39,70.02 		"/>
	</g>
	<g>
		<g>
			<g>
				<g>
					<path class="st2" d="M67.69,69.1c-0.22,0-0.4-0.18-0.4-0.4c0-0.22,0.18-0.4,0.4-0.4l0.64,0l0.02-3.04c0-0.22,0.18-0.4,0.4-0.4
						c0,0,0,0,0,0c0.22,0,0.4,0.18,0.4,0.4l-0.02,3.83L67.69,69.1C67.69,69.1,67.69,69.1,67.69,69.1z"/>
				</g>
			</g>
			<g>
				<g>
					<path class="st2" d="M72.64,69.1c-0.22,0-0.4-0.18-0.4-0.4c0-0.22,0.18-0.4,0.4-0.4l0.64,0l0.02-3.04c0-0.22,0.18-0.4,0.4-0.4
						c0,0,0,0,0,0c0.22,0,0.4,0.18,0.4,0.4l-0.02,3.83L72.64,69.1C72.64,69.1,72.64,69.1,72.64,69.1z"/>
				</g>
			</g>
			<g>
				<path class="st2" d="M93.79,47.43c0.02-0.1,0.08-0.2,0.17-0.26c0.18-0.12,0.43-0.07,0.55,0.11l3.11,4.7
					c0.12,0.18,0.07,0.43-0.11,0.55c-0.18,0.12-0.43,0.07-0.55-0.11l-3.11-4.7C93.79,47.63,93.77,47.53,93.79,47.43z"/>
			</g>
			<g>
				<path class="st2" d="M48.26,47.33c0.02,0.1,0,0.2-0.06,0.29L45,52.26c-0.12,0.18-0.37,0.23-0.55,0.1
					c-0.18-0.12-0.23-0.37-0.1-0.55l3.19-4.65c0.12-0.18,0.37-0.23,0.55-0.1C48.18,47.13,48.24,47.22,48.26,47.33z"/>
			</g>
			<rect x="48.15" y="34.56" class="st3" width="45.72" height="30.45"/>
			<polygon class="st4" points="93.89,65.13 48.17,65.13 70.86,48.09 			"/>
			<polygon class="st2" points="48.08,34.51 93.8,34.51 71.08,51.92 			"/>
			<g>
				<g>
					<path d="M64.41,51.15c0,3.61,2.9,6.53,6.5,6.53c3.61,0,6.55-2.93,6.55-6.53H64.41z"/>
					<path class="st5" d="M75.08,56.2c0,0-1.11-2.75-4.13-2.95s-4.75,2.39-4.75,2.39s3.3,3.91,8.15,1.09
						C74.58,56.59,74.84,56.38,75.08,56.2z"/>
				</g>
				<g>
					<path class="st6" d="M68.61,45.35"/>
					<path class="st6" d="M65.43,45.32"/>
				</g>
			</g>
		</g>
		<circle cx="67.74" cy="45.06" r="0.81"/>
		<circle cx="74.18" cy="45.05" r="0.81"/>
	</g>
</g>
<g>
	<g>
		<polygon class="st0" points="105.61,32.52 135.85,35.67 159.08,38 159.01,67 106.22,70.01 		"/>
		<polygon class="st1" points="105.62,32.53 135.85,35.67 159.08,38 159.02,67.01 106.22,70.02 		"/>
	</g>
	<g>
		<g>
			<g>
				<g>
					<path class="st2" d="M167.52,67.1c-0.22,0-0.4-0.18-0.4-0.4c0-0.22,0.18-0.4,0.4-0.4l0.64,0l0.02-3.04c0-0.22,0.18-0.4,0.4-0.4
						c0,0,0,0,0,0c0.22,0,0.4,0.18,0.4,0.4l-0.02,3.83L167.52,67.1C167.52,67.1,167.52,67.1,167.52,67.1z"/>
				</g>
			</g>
			<g>
				<g>
					<path class="st2" d="M172.47,67.1c-0.22,0-0.4-0.18-0.4-0.4c0-0.22,0.18-0.4,0.4-0.4l0.64,0l0.02-3.04c0-0.22,0.18-0.4,0.4-0.4
						c0,0,0,0,0,0c0.22,0,0.4,0.18,0.4,0.4l-0.02,3.83L172.47,67.1C172.47,67.1,172.47,67.1,172.47,67.1z"/>
				</g>
			</g>
			<g>
				<path class="st2" d="M192.82,46.41c-0.02-0.1-0.01-0.21,0.05-0.31c0.12-0.18,0.37-0.24,0.55-0.12l4.73,3.07
					c0.18,0.12,0.24,0.37,0.12,0.55c-0.12,0.18-0.37,0.24-0.55,0.12l-4.73-3.07C192.9,46.6,192.84,46.51,192.82,46.41z"/>
			</g>
			<g>
				<path class="st2" d="M148.81,46.19c-0.02,0.1-0.08,0.19-0.16,0.25l-4.64,3.21c-0.18,0.13-0.43,0.08-0.55-0.1
					c-0.12-0.18-0.08-0.43,0.1-0.55l4.64-3.21c0.18-0.13,0.43-0.08,0.55,0.1C148.81,45.98,148.83,46.09,148.81,46.19z"/>
			</g>
			<rect x="147.98" y="32.56" class="st3" width="45.72" height="30.45"/>
			<polygon class="st4" points="193.73,63.13 148.01,63.13 170.69,46.09 			"/>
			<polygon class="st2" points="147.91,32.51 193.64,32.51 170.92,49.92 			"/>
			<g>
				<g>
					<path d="M164.25,49.15c0,3.61,2.9,6.53,6.5,6.53s6.55-2.93,6.55-6.53H164.25z"/>
					<path class="st5" d="M174.91,54.2c0,0-1.11-2.75-4.13-2.95s-4.75,2.39-4.75,2.39s3.3,3.91,8.15,1.09
						C174.41,54.59,174.68,54.38,174.91,54.2z"/>
				</g>
				<g>
					<path class="st6" d="M168.45,43.35"/>
					<path class="st6" d="M165.26,43.32"/>
				</g>
			</g>
		</g>
		<circle cx="167.57" cy="43.06" r="0.81"/>
		<circle cx="174.01" cy="43.05" r="0.81"/>
	</g>
</g>
<g>
	<g>
		<polygon class="st0" points="205.64,32.52 235.87,35.67 259.11,38 259.04,67 206.25,70.01 		"/>
		<polygon class="st1" points="205.65,32.53 235.88,35.67 259.11,38 259.04,67.01 206.25,70.02 		"/>
	</g>
	<g>
		<g>
			<g>
				<g>
					<path class="st2" d="M267.55,69.1c-0.22,0-0.4-0.18-0.4-0.4c0-0.22,0.18-0.4,0.4-0.4l0.64,0l0.02-3.04c0-0.22,0.18-0.4,0.4-0.4
						c0,0,0,0,0,0c0.22,0,0.4,0.18,0.4,0.4l-0.02,3.83L267.55,69.1C267.55,69.1,267.55,69.1,267.55,69.1z"/>
				</g>
			</g>
			<g>
				<g>
					<path class="st2" d="M272.5,69.1c-0.22,0-0.4-0.18-0.4-0.4c0-0.22,0.18-0.4,0.4-0.4l0.64,0l0.02-3.04c0-0.22,0.18-0.4,0.4-0.4
						c0,0,0,0,0,0c0.22,0,0.4,0.18,0.4,0.4l-0.02,3.83L272.5,69.1C272.5,69.1,272.5,69.1,272.5,69.1z"/>
				</g>
			</g>
			<g>
				<path class="st2" d="M292.7,50.99c-0.09-0.05-0.17-0.13-0.2-0.24c-0.06-0.21,0.06-0.43,0.27-0.49l5.42-1.56
					c0.21-0.06,0.43,0.06,0.49,0.27c0.06,0.21-0.06,0.43-0.27,0.49L293,51.02C292.9,51.05,292.79,51.03,292.7,50.99z"/>
			</g>
			<g>
				<path class="st2" d="M249.19,50.24c-0.08,0.06-0.18,0.1-0.28,0.09l-5.62-0.44c-0.22-0.02-0.38-0.21-0.37-0.43
					c0.02-0.22,0.21-0.38,0.43-0.37l5.62,0.44c0.22,0.02,0.38,0.21,0.37,0.43C249.33,50.08,249.27,50.18,249.19,50.24z"/>
			</g>
			<rect x="248.01" y="34.56" class="st3" width="45.72" height="30.45"/>
			<polygon class="st4" points="293.76,65.13 248.03,65.13 270.72,48.09 			"/>
			<polygon class="st2" points="247.94,34.51 293.66,34.51 270.94,51.92 			"/>
			<g>
				<g>
					<path d="M264.27,51.15c0,3.61,2.9,6.53,6.5,6.53s6.55-2.93,6.55-6.53H264.27z"/>
					<path class="st5" d="M274.94,56.2c0,0-1.11-2.75-4.13-2.95s-4.75,2.39-4.75,2.39s3.3,3.91,8.15,1.09
						C274.44,56.59,274.7,56.38,274.94,56.2z"/>
				</g>
				<g>
					<path class="st6" d="M268.48,45.35"/>
					<path class="st6" d="M265.29,45.32"/>
				</g>
			</g>
		</g>
		<circle cx="267.6" cy="45.06" r="0.81"/>
		<circle cx="274.04" cy="45.05" r="0.81"/>
	</g>
</g>
<g>
	<g>
		<polygon class="st0" points="605.7,32.53 635.93,35.68 659.16,38 659.09,67.01 606.3,70.02 		"/>
		<polygon class="st1" points="605.7,32.52 635.93,35.67 659.16,38 659.09,67 606.3,70.01 		"/>
	</g>
	<g>
		<g>
			<g>
				<path class="st2" d="M667.61,69.13c-0.22,0-0.4-0.18-0.4-0.4c0-0.22,0.18-0.4,0.4-0.4l0.64,0l0.02-3.04c0-0.22,0.18-0.4,0.4-0.4
					c0,0,0,0,0,0c0.22,0,0.4,0.18,0.4,0.4l-0.02,3.83L667.61,69.13C667.61,69.13,667.61,69.13,667.61,69.13z"/>
			</g>
		</g>
		<g>
			<g>
				<path class="st2" d="M672.55,69.13c-0.22,0-0.4-0.18-0.4-0.4c0-0.22,0.18-0.4,0.4-0.4l0.64,0l0.02-3.04c0-0.22,0.18-0.4,0.4-0.4
					c0,0,0,0,0,0c0.22,0,0.4,0.18,0.4,0.4l-0.02,3.83L672.55,69.13C672.56,69.13,672.56,69.13,672.55,69.13z"/>
			</g>
		</g>
		<g>
			<path class="st2" d="M693.63,52.24c-0.1,0-0.21-0.04-0.29-0.12c-0.15-0.16-0.15-0.41,0.01-0.56l4.06-3.92
				c0.16-0.15,0.41-0.15,0.56,0.01c0.15,0.16,0.15,0.41-0.01,0.56l-4.06,3.92C693.83,52.21,693.73,52.24,693.63,52.24z"/>
		</g>
		<g>
			<path class="st2" d="M648.21,52.1c-0.1,0-0.2-0.04-0.28-0.11l-4.06-3.92c-0.16-0.15-0.16-0.4-0.01-0.56
				c0.15-0.16,0.41-0.16,0.56-0.01l4.06,3.92c0.16,0.15,0.16,0.4,0.01,0.56C648.42,52.06,648.32,52.1,648.21,52.1z"/>
		</g>
		<rect x="648.07" y="34.6" class="st3" width="45.72" height="30.45"/>
		<polygon class="st4" points="693.81,65.16 648.09,65.16 670.78,48.13 		"/>
		<polygon class="st2" points="648,34.54 693.72,34.54 671,51.95 		"/>
		<g>
			<g>
				<path d="M664.33,51.18c0,3.61,2.9,6.53,6.5,6.53c3.61,0,6.55-2.93,6.55-6.53H664.33z"/>
				<path class="st5" d="M674.99,56.24c0,0-1.11-2.75-4.13-2.95c-3.03-0.2-4.75,2.39-4.75,2.39s3.3,3.91,8.15,1.09
					C674.5,56.63,674.76,56.41,674.99,56.24z"/>
			</g>
			<g>
				<g>
					<path d="M673.26,45.79c-0.1,0-0.2-0.04-0.27-0.11c-0.16-0.15-0.17-0.4-0.02-0.56c1.25-1.33,2.98-0.63,3.71-0.08
						c0.18,0.13,0.21,0.38,0.08,0.56c-0.13,0.18-0.38,0.21-0.56,0.08c-0.07-0.05-1.58-1.15-2.66-0.01
						C673.47,45.74,673.37,45.79,673.26,45.79z"/>
				</g>
			</g>
			<g>
				<g>
					<path d="M668.53,45.79c-0.11,0-0.21-0.04-0.29-0.12c-1.08-1.14-2.59-0.04-2.66,0.01c-0.18,0.13-0.43,0.1-0.56-0.08
						c-0.13-0.18-0.1-0.43,0.08-0.56c0.74-0.55,2.46-1.25,3.71,0.08c0.15,0.16,0.14,0.41-0.02,0.56
						C668.73,45.75,668.63,45.79,668.53,45.79z"/>
				</g>
			</g>
		</g>
	</g>
</g>
<g>
	<g>
		<polygon class="st0" points="405.48,32.53 435.71,35.68 458.94,38 458.87,67.01 406.08,70.02 		"/>
		<polygon class="st1" points="405.48,32.52 435.71,35.67 458.94,38 458.87,67 406.08,70.01 		"/>
	</g>
	<g>
		<g>
			<g>
				<path class="st2" d="M467.39,69.13c-0.22,0-0.4-0.18-0.4-0.4c0-0.22,0.18-0.4,0.4-0.4l0.64,0l0.02-3.04c0-0.22,0.18-0.4,0.4-0.4
					c0,0,0,0,0,0c0.22,0,0.4,0.18,0.4,0.4l-0.02,3.83L467.39,69.13C467.39,69.13,467.39,69.13,467.39,69.13z"/>
			</g>
		</g>
		<g>
			<g>
				<path class="st2" d="M472.33,69.13c-0.22,0-0.4-0.18-0.4-0.4c0-0.22,0.18-0.4,0.4-0.4l0.64,0l0.02-3.04c0-0.22,0.18-0.4,0.4-0.4
					c0,0,0,0,0,0c0.22,0,0.4,0.18,0.4,0.4l-0.02,3.83L472.33,69.13C472.33,69.13,472.33,69.13,472.33,69.13z"/>
			</g>
		</g>
		<g>
			<path class="st2" d="M493.4,52.24c-0.1,0-0.21-0.04-0.29-0.12c-0.15-0.16-0.15-0.41,0.01-0.56l4.06-3.92
				c0.16-0.15,0.41-0.15,0.56,0.01c0.15,0.16,0.15,0.41-0.01,0.56l-4.06,3.92C493.6,52.21,493.5,52.24,493.4,52.24z"/>
		</g>
		<g>
			<path class="st2" d="M447.99,52.1c-0.1,0-0.2-0.04-0.28-0.11l-4.06-3.92c-0.16-0.15-0.16-0.4-0.01-0.56
				c0.15-0.16,0.41-0.16,0.56-0.01l4.06,3.92c0.16,0.15,0.16,0.4,0.01,0.56C448.2,52.06,448.1,52.1,447.99,52.1z"/>
		</g>
		<rect x="447.85" y="34.6" class="st3" width="45.72" height="30.45"/>
		<polygon class="st4" points="493.59,65.16 447.87,65.16 470.56,48.13 		"/>
		<polygon class="st2" points="447.78,34.54 493.5,34.54 470.78,51.95 		"/>
		<g>
			<g>
				<path d="M464.11,51.18c0,3.61,2.9,6.53,6.5,6.53s6.55-2.93,6.55-6.53H464.11z"/>
				<path class="st5" d="M474.77,56.24c0,0-1.11-2.75-4.13-2.95c-3.03-0.2-4.75,2.39-4.75,2.39s3.3,3.91,8.15,1.09
					C474.28,56.63,474.54,56.41,474.77,56.24z"/>
			</g>
			<g>
				<g>
					<path d="M473.04,45.79c-0.1,0-0.2-0.04-0.27-0.11c-0.16-0.15-0.17-0.4-0.02-0.56c1.25-1.33,2.98-0.63,3.71-0.08
						c0.18,0.13,0.21,0.38,0.08,0.56c-0.13,0.18-0.38,0.21-0.56,0.08c-0.07-0.05-1.58-1.15-2.66-0.01
						C473.25,45.74,473.15,45.79,473.04,45.79z"/>
				</g>
			</g>
			<g>
				<g>
					<path d="M468.31,45.79c-0.11,0-0.21-0.04-0.29-0.12c-1.08-1.14-2.59-0.04-2.66,0.01c-0.18,0.13-0.43,0.1-0.56-0.08
						c-0.13-0.18-0.1-0.43,0.08-0.56c0.74-0.55,2.46-1.25,3.71,0.08c0.15,0.16,0.14,0.41-0.02,0.56
						C468.51,45.75,468.41,45.79,468.31,45.79z"/>
				</g>
			</g>
		</g>
	</g>
</g>
<g>
	<g>
		<polygon class="st0" points="505.56,32.53 535.79,35.68 559.02,38 558.96,67.01 506.16,70.02 		"/>
		<polygon class="st1" points="505.56,32.52 535.79,35.67 559.02,38 558.96,67 506.17,70.01 		"/>
	</g>
	<g>
		<g>
			<g>
				<path class="st2" d="M567.47,69.13c-0.22,0-0.4-0.18-0.4-0.4c0-0.22,0.18-0.4,0.4-0.4l0.64,0l0.02-3.04c0-0.22,0.18-0.4,0.4-0.4
					c0,0,0,0,0,0c0.22,0,0.4,0.18,0.4,0.4l-0.02,3.83L567.47,69.13C567.47,69.13,567.47,69.13,567.47,69.13z"/>
			</g>
		</g>
		<g>
			<g>
				<path class="st2" d="M572.42,69.13c-0.22,0-0.4-0.18-0.4-0.4c0-0.22,0.18-0.4,0.4-0.4l0.64,0l0.02-3.04c0-0.22,0.18-0.4,0.4-0.4
					c0,0,0,0,0,0c0.22,0,0.4,0.18,0.4,0.4l-0.02,3.83L572.42,69.13C572.42,69.13,572.42,69.13,572.42,69.13z"/>
			</g>
		</g>
		<g>
			<path class="st2" d="M593.16,47.86c0-0.1,0.04-0.21,0.12-0.29c0.16-0.15,0.41-0.15,0.56,0.01l3.92,4.06
				c0.15,0.16,0.15,0.41-0.01,0.56c-0.16,0.15-0.41,0.15-0.56-0.01l-3.92-4.06C593.2,48.06,593.16,47.96,593.16,47.86z"/>
		</g>
		<g>
			<path class="st2" d="M548.4,47.72c0,0.1-0.04,0.2-0.11,0.28l-3.92,4.06c-0.15,0.16-0.4,0.16-0.56,0.01
				c-0.16-0.15-0.16-0.41-0.01-0.56l3.92-4.06c0.15-0.16,0.4-0.16,0.56-0.01C548.36,47.51,548.4,47.62,548.4,47.72z"/>
		</g>
		<rect x="547.93" y="34.6" class="st3" width="45.72" height="30.45"/>
		<polygon class="st4" points="593.67,65.16 547.95,65.16 570.64,48.13 		"/>
		<polygon class="st2" points="547.86,34.54 593.58,34.54 570.86,51.95 		"/>
		<g>
			<g>
				<path d="M564.19,51.18c0,3.61,2.9,6.53,6.5,6.53c3.61,0,6.55-2.93,6.55-6.53H564.19z"/>
				<path class="st5" d="M574.85,56.24c0,0-1.11-2.75-4.13-2.95c-3.03-0.2-4.75,2.39-4.75,2.39s3.3,3.91,8.15,1.09
					C574.36,56.63,574.62,56.41,574.85,56.24z"/>
			</g>
			<g>
				<g>
					<path d="M573.12,45.79c-0.1,0-0.2-0.04-0.27-0.11c-0.16-0.15-0.17-0.4-0.02-0.56c1.25-1.33,2.98-0.63,3.71-0.08
						c0.18,0.13,0.21,0.38,0.08,0.56c-0.13,0.18-0.38,0.21-0.56,0.08c-0.07-0.05-1.58-1.15-2.66-0.01
						C573.34,45.74,573.23,45.79,573.12,45.79z"/>
				</g>
			</g>
			<g>
				<g>
					<path d="M568.39,45.79c-0.11,0-0.21-0.04-0.29-0.12c-1.08-1.14-2.59-0.04-2.66,0.01c-0.18,0.13-0.43,0.1-0.56-0.08
						c-0.13-0.18-0.1-0.43,0.08-0.56c0.74-0.55,2.46-1.25,3.71,0.08c0.15,0.16,0.14,0.41-0.02,0.56
						C568.59,45.75,568.49,45.79,568.39,45.79z"/>
				</g>
			</g>
		</g>
	</g>
</g>
<g>
	<g>
		<polygon class="st0" points="305.54,32.53 335.78,35.68 359.01,38 358.94,67.01 306.15,70.02 		"/>
		<polygon class="st1" points="305.55,32.52 335.78,35.67 359.01,38 358.94,67 306.15,70.01 		"/>
	</g>
	<g>
		<g>
			<g>
				<path class="st2" d="M367.45,67.13c-0.22,0-0.4-0.18-0.4-0.4c0-0.22,0.18-0.4,0.4-0.4l0.64,0l0.02-3.04c0-0.22,0.18-0.4,0.4-0.4
					c0,0,0,0,0,0c0.22,0,0.4,0.18,0.4,0.4l-0.02,3.83L367.45,67.13C367.46,67.13,367.46,67.13,367.45,67.13z"/>
			</g>
		</g>
		<g>
			<g>
				<path class="st2" d="M372.4,67.13c-0.22,0-0.4-0.18-0.4-0.4c0-0.22,0.18-0.4,0.4-0.4l0.64,0l0.02-3.04c0-0.22,0.18-0.4,0.4-0.4
					c0,0,0,0,0,0c0.22,0,0.4,0.18,0.4,0.4l-0.02,3.83L372.4,67.13C372.4,67.13,372.4,67.13,372.4,67.13z"/>
			</g>
		</g>
		<g>
			<path class="st2" d="M393.47,50.24c-0.1,0-0.21-0.04-0.29-0.12c-0.15-0.16-0.15-0.41,0.01-0.56l4.06-3.92
				c0.16-0.15,0.41-0.15,0.56,0.01c0.15,0.16,0.15,0.41-0.01,0.56l-4.06,3.92C393.67,50.21,393.57,50.24,393.47,50.24z"/>
		</g>
		<g>
			<path class="st2" d="M348.06,50.1c-0.1,0-0.2-0.04-0.28-0.11l-4.06-3.92c-0.16-0.15-0.16-0.4-0.01-0.56
				c0.15-0.16,0.41-0.16,0.56-0.01l4.06,3.92c0.16,0.15,0.16,0.4,0.01,0.56C348.27,50.06,348.16,50.1,348.06,50.1z"/>
		</g>
		<rect x="347.92" y="32.6" class="st3" width="45.72" height="30.45"/>
		<polygon class="st4" points="393.66,63.16 347.94,63.16 370.63,46.13 		"/>
		<polygon class="st2" points="347.84,32.54 393.57,32.54 370.85,49.95 		"/>
		<g>
			<g>
				<path d="M364.18,49.18c0,3.61,2.9,6.53,6.5,6.53s6.55-2.93,6.55-6.53H364.18z"/>
				<path class="st5" d="M374.84,54.24c0,0-1.11-2.75-4.13-2.95c-3.03-0.2-4.75,2.39-4.75,2.39s3.3,3.91,8.15,1.09
					C374.35,54.63,374.61,54.41,374.84,54.24z"/>
			</g>
			<g>
				<g>
					<path d="M373.11,43.79c-0.1,0-0.2-0.04-0.27-0.11c-0.16-0.15-0.17-0.4-0.02-0.56c1.25-1.33,2.98-0.63,3.71-0.08
						c0.18,0.13,0.21,0.38,0.08,0.56c-0.13,0.18-0.38,0.21-0.56,0.08c-0.07-0.05-1.58-1.15-2.66-0.01
						C373.32,43.74,373.22,43.79,373.11,43.79z"/>
				</g>
			</g>
			<g>
				<g>
					<path d="M368.38,43.79c-0.11,0-0.21-0.04-0.29-0.12c-1.08-1.14-2.59-0.04-2.66,0.01c-0.18,0.13-0.43,0.1-0.56-0.08
						c-0.13-0.18-0.1-0.43,0.08-0.56c0.74-0.55,2.46-1.25,3.71,0.08c0.15,0.16,0.14,0.41-0.02,0.56
						C368.58,43.75,368.48,43.79,368.38,43.79z"/>
				</g>
			</g>
		</g>
	</g>
</g>
</svg>
