<svg xmlns="http://www.w3.org/2000/svg" width="800" height="100" viewBox="0 0 800 100">
  <defs>
    <style>
      .cls-1 {
        isolation: isolate;
      }

      .cls-11, .cls-2 {
        fill: none;
      }

      .cls-3 {
        fill: #ff887c;
      }

      .cls-4 {
        fill: #e8e8e8;
      }

      .cls-5 {
        fill: #ffae9e;
      }

      .cls-6, .cls-7 {
        fill: #eaeef1;
      }

      .cls-11, .cls-7 {
        mix-blend-mode: multiply;
      }

      .cls-8 {
        fill: #132127;
      }

      .cls-9 {
        fill: #ff6262;
      }

      .cls-10 {
        fill: #ff4b4b;
      }

      .cls-11 {
        stroke: #eaeef1;
        stroke-linecap: round;
        stroke-linejoin: round;
        stroke-width: 0;
      }

      .cls-12 {
        fill: #3d3d3d;
      }
    </style>
  </defs>
  <g class="cls-1">
    <g id="Layer_1" data-name="Layer 1">
      <g>
        <polygon class="cls-2" points="111.92 67.58 111.92 67.59 111.92 67.58 111.92 67.58"/>
        <polygon class="cls-2" points="211.93 67.58 211.93 67.59 211.93 67.58 211.93 67.58"/>
        <path class="cls-2" d="M210.55,49.32c-2.29,0-4.24,2.42-5.07,5.85a15,15,0,0,0-.31,1.76s0,.09,0,.13c0,.27-.06.54-.07.81s0,.64,0,1c0,5.26,2.46,9.53,5.5,9.53a3.36,3.36,0,0,0,1.39-.32c0-.16,0-.31,0-.46h0c0-.5,0-1,0-1.46,0-.15,0-.3,0-.45q0-.51.09-1c0-.16,0-.31.06-.47,0-.35.1-.7.17-1,0-.11,0-.23.06-.34q.13-.67.3-1.32l.08-.29c.09-.34.19-.67.3-1l.14-.42q.15-.44.33-.87l.16-.39q.23-.54.49-1.07l.05-.11c.19-.39.4-.76.62-1.13l.2-.33q.24-.4.5-.78l0,0,0-.13-.07-.24c-.06-.22-.13-.44-.2-.65l-.07-.19q-.12-.34-.26-.66l-.06-.13q-.15-.35-.33-.67l0-.07c-.13-.24-.26-.46-.4-.67A4.5,4.5,0,0,0,210.55,49.32Z"/>
        <path class="cls-2" d="M525.66,46.57l-1.15.61q.56-.31,1.15-.6Z"/>
        <path class="cls-2" d="M725.81,46.57l-1.15.61q.56-.31,1.15-.6Z"/>
        <path class="cls-2" d="M455.58,36.27a39.3,39.3,0,0,1,.75-4.46,44.79,44.79,0,0,1,4.4-10.57c-2.34,0-5.32,1.37-7.84,3.89-3.72,3.72-5,8.48-2.85,10.63C451.27,37,453.34,37.08,455.58,36.27Z"/>
        <path class="cls-2" d="M336.35,43h0l.69-.15-.69.15Z"/>
        <path class="cls-2" d="M336.34,43.09q0,.7-.13,1.42h0q.08-.72.13-1.42Z"/>
        <path class="cls-2" d="M343.66,17c2.28-4.74,1.92-9.65-.82-11-2.52-1.21-6.16,1-8.5,5.09,2.23,3.36,4.4,6.87,6.2,10.22A14.83,14.83,0,0,0,343.66,17Z"/>
        <path class="cls-2" d="M316,54.74q.27-.39.57-.77l.21-.27q.4-.5.83-1l.16-.17q.36-.39.74-.77l.3-.3.68-.63.32-.28q.43-.37.87-.72l.16-.13q.53-.41,1.09-.8l.32-.21.4-.27a33.48,33.48,0,0,1-2.68-5.54,12.92,12.92,0,0,0-1,1.1,15,15,0,0,0-1,1.45l-.07.12c-.14.23-.28.46-.41.69s-.3.57-.45.86a12.55,12.55,0,0,0-1.27,8.07l.05-.07Z"/>
        <path class="cls-2" d="M218.2,37.68c0-.21-.08-.43-.12-.65a13.6,13.6,0,0,1-2.36,2.44,17.64,17.64,0,0,1,5.07,7.31h0q.27.66.5,1.35h0c.1.28.19.57.28.86l.16-.11.31-.21.4-.27A36.18,36.18,0,0,1,218.2,37.68Z"/>
        <ellipse class="cls-2" cx="210.55" cy="20.11" rx="5.5" ry="9.53"/>
        <path class="cls-3" d="M77,5.92c-.2-1.09-.6-1.4-.67-1.42s-.56.1-1.22,1c-5,6.88-13.6,19.54-15.32,27.1a32.93,32.93,0,0,0-.8,9.58A46.89,46.89,0,0,1,75,46.94,32.68,32.68,0,0,0,79.1,36.88C80.82,29.32,78.51,14.24,77,5.92Z"/>
        <path class="cls-4" d="M59,42.19a32.93,32.93,0,0,1,.8-9.58C61.5,25,70.11,12.38,75.1,5.5c.66-.91,1.15-1,1.22-1s.47.32.67,1.42c1.53,8.32,3.84,23.4,2.12,31A32.68,32.68,0,0,1,75,46.94a30.76,30.76,0,0,1,3.16,1.91,35.94,35.94,0,0,0,4.51-11.17c1.77-7.78-.16-21.92-2.09-32.41-.43-2.35-1.71-3.93-3.49-4.32s-3.62.49-5,2.44C65.81,12.06,57.94,24,56.17,31.81a36.88,36.88,0,0,0-.91,10Q57.15,42,59,42.19Z"/>
        <path class="cls-5" d="M41.13,32.61C39.41,25,30.8,12.38,25.81,5.5c-.62-.86-1.09-1-1.2-1h0c-.07,0-.46.32-.67,1.42-1.53,8.32-3.84,23.4-2.12,31a32.88,32.88,0,0,0,3.84,9.69l.11-.05.17-.08,1.14-.53.43-.19,1-.4.45-.18L30,44.72l.28-.1,1.45-.47.38-.11,1.12-.32.51-.14,1.1-.27.46-.11,1.55-.33h0c1.64-.32,3.33-.58,5.06-.77A33,33,0,0,0,41.13,32.61Z"/>
        <path class="cls-4" d="M23.28,47.89l.87-.51.35-.2,1.15-.6a32.88,32.88,0,0,1-3.84-9.69c-1.72-7.56.59-22.64,2.12-31,.2-1.09.6-1.4.67-1.42h0c.11,0,.58.15,1.2,1,5,6.88,13.6,19.54,15.32,27.1a33,33,0,0,1,.81,9.47q1.82-.2,3.7-.31a36.91,36.91,0,0,0-.91-10C43,24,35.11,12.06,28.82,3.38c-1.41-1.94-3.25-2.83-5-2.44s-3.06,2-3.49,4.32C18.36,15.76,16.44,29.9,18.2,37.68a36.19,36.19,0,0,0,4.25,10.74l.44-.28Z"/>
        <path class="cls-6" d="M13.54,58.9l.16-.39Z"/>
        <path class="cls-6" d="M13.07,60.19l.14-.42Z"/>
        <path class="cls-6" d="M12.1,64.65c0-.16,0-.31.06-.47C12.14,64.33,12.12,64.49,12.1,64.65Z"/>
        <path class="cls-6" d="M12.32,63.14c0-.11,0-.23.06-.35C12.36,62.91,12.34,63,12.32,63.14Z"/>
        <path class="cls-6" d="M12.69,61.47l.08-.29Z"/>
        <path class="cls-6" d="M15.56,55.1l.24-.36Z"/>
        <path class="cls-6" d="M14.19,57.45l.05-.12Z"/>
        <path class="cls-6" d="M14.86,56.2l.2-.33Z"/>
        <path class="cls-6" d="M12.17,71.15q0-.29-.07-.58C12.12,70.76,12.15,71,12.17,71.15Z"/>
        <path class="cls-6" d="M13.4,76.36c-.12-.34-.23-.69-.34-1C13.17,75.67,13.28,76,13.4,76.36Z"/>
        <path class="cls-6" d="M13.91,77.72q-.22-.55-.42-1.12C13.62,77,13.76,77.35,13.91,77.72Z"/>
        <path class="cls-6" d="M12,66.11c0-.15,0-.3,0-.45C12,65.81,12,66,12,66.11Z"/>
        <path class="cls-6" d="M13,75.17c-.17-.57-.31-1.14-.44-1.72C12.71,74,12.86,74.6,13,75.17Z"/>
        <path class="cls-6" d="M78.2,48.85A30.76,30.76,0,0,0,75,46.94,46.89,46.89,0,0,0,59,42.19q-1.82-.23-3.71-.36c-1.72-.12-3.48-.19-5.26-.19-1.47,0-2.92,0-4.35.13q-1.88.11-3.7.31c-1.73.19-3.42.45-5.06.77,0,0-12.09,13.55-13.76,26.7C21.28,84.07,39.36,98.12,38.51,98A44.91,44.91,0,0,0,50,99.44c21,0,38.07-14.27,38.07-31.86A21.89,21.89,0,0,0,78.2,48.85Zm-46.59,31a2.12,2.12,0,1,1,2.15-2.12A2.14,2.14,0,0,1,31.61,79.82Zm21.91,5h-1.7v7.71s0,.06,0,.1a1.79,1.79,0,0,1,0,.26,1.74,1.74,0,0,1-.06.18s0,.1,0,.15a1.76,1.76,0,0,1-.12.22l0,.07a1.79,1.79,0,0,1-.19.24l0,0a1.82,1.82,0,0,1-3.12-1.24V84.8h-1.7a1.79,1.79,0,1,1,0-3.58h7a1.83,1.83,0,0,1,.71.14,1.79,1.79,0,0,1-.71,3.44Zm14.88-5a2.12,2.12,0,1,1,2.15-2.12A2.14,2.14,0,0,1,68.39,79.82Z"/>
        <path class="cls-6" d="M12,69.57c0-.16,0-.33,0-.49C12,69.25,12,69.41,12,69.57Z"/>
        <path class="cls-6" d="M12.41,72.64c0-.2-.07-.41-.11-.62C12.34,72.23,12.37,72.44,12.41,72.64Z"/>
        <path class="cls-6" d="M16.37,54l.21-.28Z"/>
        <ellipse class="cls-6" cx="11.93" cy="67.58" ry="0.01"/>
        <path class="cls-6" d="M21.73,48.9l.32-.22Z"/>
        <path class="cls-6" d="M13.93,77.77c3.82,9.46,12.79,16.93,24.14,20.07C26.75,94.62,17.76,87.2,13.93,77.77Z"/>
        <path class="cls-6" d="M17.41,52.71l.17-.18Z"/>
        <path class="cls-6" d="M20.49,49.83l.16-.13Z"/>
        <path class="cls-6" d="M18.31,51.76l.31-.3Z"/>
        <path class="cls-6" d="M19.3,50.83l.32-.28Z"/>
        <path class="cls-6" d="M27.49,45.72l-.43.19Z"/>
        <path class="cls-6" d="M33.77,43.57l-.51.14Z"/>
        <path class="cls-6" d="M35.33,43.19l-.46.11Z"/>
        <path class="cls-6" d="M25.93,46.44l-.17.08Z"/>
        <path class="cls-6" d="M32.15,44l-.38.11Z"/>
        <path class="cls-6" d="M28.9,45.14l-.45.18Z"/>
        <path class="cls-6" d="M30.31,44.62l-.28.1Z"/>
        <path class="cls-6" d="M23.28,47.89l-.39.24Z"/>
        <path class="cls-6" d="M24.51,47.18l-.35.2Z"/>
        <path class="cls-7" d="M15.06,55.88q.24-.39.5-.78Q15.3,55.48,15.06,55.88Z"/>
        <path class="cls-7" d="M12.38,62.79q.13-.67.3-1.32Q12.52,62.12,12.38,62.79Z"/>
        <path class="cls-7" d="M13.7,58.52q.23-.54.49-1.06Q13.93,58,13.7,58.52Z"/>
        <path class="cls-7" d="M13.22,59.77q.15-.44.33-.86Q13.37,59.33,13.22,59.77Z"/>
        <path class="cls-7" d="M12.77,61.18c.09-.34.19-.67.3-1C13,60.51,12.86,60.85,12.77,61.18Z"/>
        <path class="cls-7" d="M14.25,57.33c.19-.38.4-.76.62-1.13C14.65,56.57,14.44,56.95,14.25,57.33Z"/>
        <path class="cls-7" d="M18.62,51.46l.68-.63Z"/>
        <path class="cls-7" d="M15.81,54.74q.27-.39.56-.77Q16.08,54.35,15.81,54.74Z"/>
        <path class="cls-7" d="M19.62,50.55q.42-.37.87-.72Q20,50.18,19.62,50.55Z"/>
        <path class="cls-7" d="M17.58,52.53q.36-.39.74-.77Q17.94,52.14,17.58,52.53Z"/>
        <path class="cls-7" d="M16.58,53.7q.4-.5.83-1Q17,53.19,16.58,53.7Z"/>
        <path class="cls-7" d="M13.06,75.32l0-.15Z"/>
        <path class="cls-7" d="M12.3,72c0-.29-.09-.59-.13-.88C12.21,71.44,12.26,71.73,12.3,72Z"/>
        <path class="cls-7" d="M12.58,73.45c-.06-.27-.12-.54-.17-.81C12.46,72.92,12.52,73.18,12.58,73.45Z"/>
        <path class="cls-7" d="M38.51,98h0l-.45-.13Z"/>
        <path class="cls-7" d="M13.49,76.6l-.08-.25Z"/>
        <path class="cls-7" d="M13.93,77.77l0-.05Z"/>
        <path class="cls-7" d="M20.65,49.7q.53-.41,1.08-.8Q21.18,49.29,20.65,49.7Z"/>
        <path class="cls-7" d="M12,65.66q0-.51.09-1Q12,65.15,12,65.66Z"/>
        <path class="cls-7" d="M12.1,70.56c0-.33-.07-.66-.09-1C12,69.9,12.06,70.24,12.1,70.56Z"/>
        <path class="cls-7" d="M11.93,67.57c0-.5,0-1,0-1.46C11.95,66.59,11.93,67.07,11.93,67.57Z"/>
        <path class="cls-7" d="M12,69.08c0-.49,0-1,0-1.49C11.93,68.09,11.95,68.59,12,69.08Z"/>
        <path class="cls-7" d="M12.16,64.18c0-.35.1-.7.17-1C12.26,63.48,12.21,63.83,12.16,64.18Z"/>
        <path class="cls-7" d="M22.45,48.42l-.4.27.4-.26Z"/>
        <path class="cls-5" d="M28.45,45.32l-1,.4Z"/>
        <path class="cls-7" d="M28.45,45.32l-1,.4Z"/>
        <path class="cls-5" d="M33.26,43.71,32.15,44Z"/>
        <path class="cls-7" d="M33.26,43.71,32.15,44Z"/>
        <path class="cls-5" d="M35.33,43.19l1.55-.33h0Z"/>
        <path class="cls-7" d="M35.33,43.19l1.55-.33h0Z"/>
        <path class="cls-5" d="M34.86,43.3l-1.1.27Z"/>
        <path class="cls-7" d="M34.86,43.3l-1.1.27Z"/>
        <path class="cls-5" d="M31.76,44.14l-1.45.47Z"/>
        <path class="cls-7" d="M31.76,44.14l-1.45.47Z"/>
        <path class="cls-5" d="M25.65,46.58l.1-.05-.11.05Z"/>
        <path class="cls-7" d="M25.65,46.58l.1-.05-.11.05Z"/>
        <path class="cls-5" d="M30,44.72l-1.13.42Z"/>
        <path class="cls-7" d="M30,44.72l-1.13.42Z"/>
        <path class="cls-5" d="M27.07,45.9l-1.14.53Z"/>
        <path class="cls-7" d="M27.07,45.9l-1.14.53Z"/>
        <path class="cls-4" d="M22.89,48.14l-.44.28h0Z"/>
        <path class="cls-7" d="M22.89,48.14l-.44.28h0Z"/>
        <path class="cls-4" d="M23.28,47.89l.87-.51Z"/>
        <path class="cls-7" d="M23.28,47.89l.87-.51Z"/>
        <path class="cls-4" d="M24.51,47.18l1.15-.6h0Z"/>
        <path class="cls-7" d="M24.51,47.18l1.15-.6h0Z"/>
        <path class="cls-6" d="M23.12,69.55c1.67-13.15,13.75-26.68,13.76-26.7l-1.55.33-.46.11-1.1.27-.51.14L32.15,44l-.38.11-1.45.47-.28.1-1.13.42-.45.18-1,.4-.43.19-1.14.53-.17.08-.1.05-1.15.6-.35.2-.87.51-.39.24-.43.29-.4.26-.32.22q-.55.39-1.08.8l-.16.13q-.44.35-.87.72l-.32.28-.68.63-.31.3q-.38.38-.74.77l-.17.18q-.43.48-.83,1l-.21.28q-.29.38-.56.77l-.24.36q-.26.38-.5.78l-.2.33c-.22.37-.42.75-.62,1.13l-.05.12q-.26.52-.49,1.06l-.16.39q-.17.43-.33.86l-.14.42c-.11.33-.21.66-.3,1l-.08.29q-.17.65-.3,1.32c0,.11,0,.23-.06.35-.06.34-.12.69-.17,1,0,.16,0,.31-.06.47q-.06.5-.09,1c0,.15,0,.3,0,.45,0,.48,0,1,0,1.46h0c0,.5,0,1,0,1.49,0,.17,0,.33,0,.49,0,.33.05.66.09,1s0,.39.07.58.08.59.13.88.07.41.11.62.11.54.17.81c.13.58.27,1.15.44,1.72l0,.15c.1.35.22.69.34,1l.08.25q.2.56.42,1.12l0,.05c3.83,9.43,12.82,16.85,24.14,20.07l.45.13C39.36,98.12,21.28,84.07,23.12,69.55Z"/>
        <path class="cls-7" d="M23.12,69.55c1.67-13.15,13.75-26.68,13.76-26.7l-1.55.33-.46.11-1.1.27-.51.14L32.15,44l-.38.11-1.45.47-.28.1-1.13.42-.45.18-1,.4-.43.19-1.14.53-.17.08-.1.05-1.15.6-.35.2-.87.51-.39.24-.43.29-.4.26-.32.22q-.55.39-1.08.8l-.16.13q-.44.35-.87.72l-.32.28-.68.63-.31.3q-.38.38-.74.77l-.17.18q-.43.48-.83,1l-.21.28q-.29.38-.56.77l-.24.36q-.26.38-.5.78l-.2.33c-.22.37-.42.75-.62,1.13l-.05.12q-.26.52-.49,1.06l-.16.39q-.17.43-.33.86l-.14.42c-.11.33-.21.66-.3,1l-.08.29q-.17.65-.3,1.32c0,.11,0,.23-.06.35-.06.34-.12.69-.17,1,0,.16,0,.31-.06.47q-.06.5-.09,1c0,.15,0,.3,0,.45,0,.48,0,1,0,1.46h0c0,.5,0,1,0,1.49,0,.17,0,.33,0,.49,0,.33.05.66.09,1s0,.39.07.58.08.59.13.88.07.41.11.62.11.54.17.81c.13.58.27,1.15.44,1.72l0,.15c.1.35.22.69.34,1l.08.25q.2.56.42,1.12l0,.05c3.83,9.43,12.82,16.85,24.14,20.07l.45.13C39.36,98.12,21.28,84.07,23.12,69.55Z"/>
        <ellipse class="cls-8" cx="31.61" cy="77.7" rx="2.15" ry="2.12"/>
        <ellipse class="cls-8" cx="68.39" cy="77.7" rx="2.15" ry="2.12"/>
        <path class="cls-9" d="M50.08,81.22H46.49a1.79,1.79,0,1,0,0,3.58h1.7v7.71a1.82,1.82,0,0,0,3.12,1.24,1.82,1.82,0,0,1-1.23.54Z"/>
        <path class="cls-9" d="M51.52,93.5a1.77,1.77,0,0,1-.19.24A1.79,1.79,0,0,0,51.52,93.5Z"/>
        <path class="cls-9" d="M51.78,92.87a1.73,1.73,0,0,1-.06.18A1.74,1.74,0,0,0,51.78,92.87Z"/>
        <path class="cls-9" d="M51.67,93.2a1.78,1.78,0,0,1-.12.22A1.76,1.76,0,0,0,51.67,93.2Z"/>
        <path class="cls-9" d="M51.81,92.52s0,.06,0,.1,0-.06,0-.1V84.8h0Z"/>
        <path class="cls-9" d="M54.22,81.36a1.79,1.79,0,0,1-.71,3.44h0a1.79,1.79,0,0,0,.71-3.44Z"/>
        <path class="cls-10" d="M55.33,83a1.79,1.79,0,0,0-1.11-1.65,1.83,1.83,0,0,0-.71-.14H50.08V94.3a1.82,1.82,0,0,0,1.23-.54l0,0a1.77,1.77,0,0,0,.19-.24l0-.07a1.78,1.78,0,0,0,.12-.22s0-.1,0-.15a1.73,1.73,0,0,0,.06-.18,1.79,1.79,0,0,0,0-.26s0-.06,0-.1V84.8h1.7A1.8,1.8,0,0,0,55.33,83Z"/>
        <path class="cls-3" d="M459.7,33.79c.33-.28.65-.57,1-.89,3.38-3.38,4.74-7.62,3.34-10a41.39,41.39,0,0,0-4.07,9.68C459.84,33,459.77,33.4,459.7,33.79Z"/>
        <path class="cls-3" d="M477.13,5.92c-.2-1.09-.6-1.4-.67-1.42s-.56.1-1.22,1c-1,1.34-2.07,2.89-3.24,4.58.49.94,1,1.94,1.38,3a17,17,0,0,1,1.3,6.61c.08,5.32-3.1,12.15-8.84,17.89a36,36,0,0,1-5.79,4.71,46.11,46.11,0,0,1,15.12,4.62,32.68,32.68,0,0,0,4.06-10.06C481,29.32,478.66,14.24,477.13,5.92Z"/>
        <path class="cls-4" d="M455.58,36.27a13.73,13.73,0,0,0,4.11-2.47c.08-.4.15-.79.24-1.19A41.39,41.39,0,0,1,464,22.93a3.26,3.26,0,0,0-.49-.65,3.87,3.87,0,0,0-2.79-1,44.79,44.79,0,0,0-4.4,10.57A39.3,39.3,0,0,0,455.58,36.27Z"/>
        <path class="cls-4" d="M475.25,5.5c.66-.91,1.15-1,1.22-1s.47.32.67,1.42c1.53,8.32,3.84,23.4,2.12,31a32.68,32.68,0,0,1-4.06,10.06,30.81,30.81,0,0,1,3.16,1.91,35.94,35.94,0,0,0,4.51-11.17c1.77-7.78-.16-21.92-2.09-32.41-.43-2.35-1.71-3.93-3.49-4.32s-3.62.49-5,2.44c-.75,1-1.53,2.13-2.32,3.25A30.78,30.78,0,0,1,472,10.09C473.18,8.4,474.28,6.84,475.25,5.5Z"/>
        <path class="cls-5" d="M439.21,38.83c-.59-2-.4-4.78,1.36-8.62C437.88,22.59,430.46,11.7,426,5.5c-.62-.86-1.09-1-1.2-1h0c-.07,0-.46.32-.67,1.42-1.53,8.32-3.84,23.4-2.12,31a34.41,34.41,0,0,0,2.38,7C431.62,38.79,436.25,38,439.21,38.83Z"/>
        <path class="cls-4" d="M424.08,44l.26-.18a34.41,34.41,0,0,1-2.38-7c-1.72-7.56.59-22.64,2.12-31,.2-1.09.6-1.4.67-1.42h0c.11,0,.58.15,1.2,1,4.49,6.2,11.92,17.08,14.6,24.71A36.2,36.2,0,0,1,442.86,26c-3.19-7.2-9-15.92-13.89-22.65-1.41-1.94-3.25-2.83-5-2.44s-3.06,2-3.49,4.32c-1.93,10.49-3.86,24.63-2.09,32.41a37.78,37.78,0,0,0,2.89,8.26l.83-.54C422.74,45,423.41,44.51,424.08,44Z"/>
        <path class="cls-6" d="M414.08,77.77c3.82,9.46,12.79,16.93,24.14,20.07C426.91,94.62,417.91,87.2,414.08,77.77Z"/>
        <polygon class="cls-6" points="412.57 72.64 412.56 72.64 412.56 72.64 412.57 72.64"/>
        <path class="cls-6" d="M478.35,48.85a30.81,30.81,0,0,0-3.16-1.91,46.11,46.11,0,0,0-15.12-4.62c-4.68,3-9.5,4.5-13.34,4a17.64,17.64,0,0,1-1.59,8.76h0q-.28.65-.6,1.31h0q-.31.64-.67,1.29l0,0q-.34.61-.72,1.23l-.07.11q-.36.57-.74,1.14l-.12.18c-.24.35-.5.71-.76,1.06l-.18.25c-.25.33-.51.65-.78,1l-.25.3c-.26.32-.54.63-.82.94l-.27.31q-.56.61-1.16,1.21c-4.64,4.64-10,7.6-14.67,8.52C425,86.82,439.43,98.1,438.67,98a44.91,44.91,0,0,0,11.49,1.48c21,0,38.07-14.27,38.07-31.86A21.89,21.89,0,0,0,478.35,48.85Zm-46.59,31a2.12,2.12,0,1,1,2.15-2.12A2.14,2.14,0,0,1,431.76,79.82Zm21.91,5H452v7.71s0,.06,0,.1a1.79,1.79,0,0,1,0,.26,1.74,1.74,0,0,1-.06.18s0,.1,0,.15a1.78,1.78,0,0,1-.12.22l0,.07a1.8,1.8,0,0,1-.2.24v0a1.82,1.82,0,0,1-3.12-1.24V84.8h-1.7a1.79,1.79,0,1,1,0-3.58h7a1.82,1.82,0,0,1,1.15.41,1.78,1.78,0,0,1,.66,1.38A1.8,1.8,0,0,1,453.67,84.8Zm14.88-5a2.12,2.12,0,1,1,2.15-2.12A2.14,2.14,0,0,1,468.55,79.82Z"/>
        <path class="cls-6" d="M436.13,49.67a4.23,4.23,0,0,0-3.61-1,59.61,59.61,0,0,0-8,15.41c2.43.48,5.9-.93,8.76-3.79.24-.24.48-.49.7-.75l.19-.23c.15-.18.31-.36.45-.54l.19-.26c.13-.18.26-.36.39-.54l.16-.25c.12-.19.24-.38.35-.57l.12-.22c.11-.2.22-.4.32-.6l.09-.18c.1-.22.2-.43.28-.65l.05-.13q.14-.35.24-.7l0-.07c.08-.26.14-.51.19-.76A4.5,4.5,0,0,0,436.13,49.67Z"/>
        <path class="cls-7" d="M438.66,98h0l-.45-.13Z"/>
        <path class="cls-11" d="M412.74,73.45c-.06-.27-.12-.54-.17-.81"/>
        <path class="cls-6" d="M423.31,74a15.46,15.46,0,0,1-3.22.31,17,17,0,0,1-6.61-1.3l-.91-.39h0c.05.27.11.54.17.81.13.58.27,1.15.44,1.72l0,.15c.1.35.22.7.34,1l.08.25q.2.56.42,1.12l0,0c3.83,9.43,12.82,16.85,24.14,20.07l.45.13C439.43,98.1,425,86.82,423.31,74Z"/>
        <path class="cls-7" d="M423.31,74a15.46,15.46,0,0,1-3.22.31,17,17,0,0,1-6.61-1.3l-.91-.39h0c.05.27.11.54.17.81.13.58.27,1.15.44,1.72l0,.15c.1.35.22.7.34,1l.08.25q.2.56.42,1.12l0,0c3.83,9.43,12.82,16.85,24.14,20.07l.45.13C439.43,98.1,425,86.82,423.31,74Z"/>
        <path class="cls-6" d="M428.41,50.21a15,15,0,0,0-1.48,1l-.16.14-.56.47q-.36.32-.71.67c-3.72,3.72-5,8.48-2.85,10.63a3.54,3.54,0,0,0,1.87.94,59.61,59.61,0,0,1,8-15.41A10.47,10.47,0,0,0,428.41,50.21Z"/>
        <path class="cls-7" d="M428.41,50.21a15,15,0,0,0-1.48,1l-.16.14-.56.47q-.36.32-.71.67c-3.72,3.72-5,8.48-2.85,10.63a3.54,3.54,0,0,0,1.87.94,59.61,59.61,0,0,1,8-15.41A10.47,10.47,0,0,0,428.41,50.21Z"/>
        <ellipse class="cls-8" cx="431.76" cy="77.7" rx="2.15" ry="2.12"/>
        <ellipse class="cls-8" cx="468.55" cy="77.7" rx="2.15" ry="2.12"/>
        <path class="cls-9" d="M452,92.52s0,.06,0,.1,0-.06,0-.1V84.8h0Z"/>
        <path class="cls-9" d="M450.23,81.22h-3.59a1.79,1.79,0,1,0,0,3.58h1.7v7.71a1.82,1.82,0,0,0,3.12,1.24,1.82,1.82,0,0,1-1.23.54Z"/>
        <path class="cls-9" d="M455.48,83a1.8,1.8,0,0,1-1.81,1.79h0A1.8,1.8,0,0,0,455.48,83a1.78,1.78,0,0,0-.66-1.38A1.78,1.78,0,0,1,455.48,83Z"/>
        <path class="cls-10" d="M455.48,83a1.78,1.78,0,0,0-.66-1.38,1.82,1.82,0,0,0-1.15-.41h-3.44V94.3a1.82,1.82,0,0,0,1.23-.54v0a1.8,1.8,0,0,0,.2-.24l0-.07a1.78,1.78,0,0,0,.12-.22s0-.1,0-.15a1.74,1.74,0,0,0,.06-.18,1.79,1.79,0,0,0,0-.26s0-.06,0-.1V84.8h1.7A1.8,1.8,0,0,0,455.48,83Z"/>
        <path class="cls-12" d="M439.21,38.83c-3-.88-7.59,0-14.86,5l-.26.18c-.67.47-1.34.93-2,1.37h0a34.46,34.46,0,0,0,6.33,4.81,10.47,10.47,0,0,1,4.11-1.53,4.23,4.23,0,0,1,3.61,1,4.5,4.5,0,0,1,.9,4.18,37,37,0,0,0,8.13,1.27,17.64,17.64,0,0,0,1.59-8.76c3.84.46,8.66-1,13.34-4a36,36,0,0,0,5.79-4.71c5.74-5.74,8.92-12.57,8.84-17.89a17,17,0,0,0-1.3-6.61c-.43-1.07-.9-2.07-1.38-3a30.78,30.78,0,0,0-2.08-3.46A27.37,27.37,0,0,0,464,.44h-7.89a87.53,87.53,0,0,1-11.71,23.27c-.57.81-1.08,1.58-1.54,2.32a36.2,36.2,0,0,0-2.29,4.18C438.81,34.05,438.61,36.83,439.21,38.83Zm13.68-13.71c2.52-2.52,5.5-3.91,7.84-3.89a3.87,3.87,0,0,1,2.79,1,3.26,3.26,0,0,1,.49.65c1.4,2.36,0,6.59-3.34,10-.32.32-.64.61-1,.89a13.73,13.73,0,0,1-4.11,2.47c-2.24.82-4.32.71-5.54-.51C447.89,33.6,449.17,28.85,452.89,25.13Z"/>
        <path d="M420.09,74.33a15.46,15.46,0,0,0,3.22-.31c4.69-.93,10-3.89,14.67-8.52q.6-.6,1.16-1.21l.27-.31c.28-.31.56-.62.82-.94l.25-.3c.27-.32.53-.65.78-1l.18-.25c.26-.35.52-.7.76-1.06l.12-.18q.39-.57.74-1.14l.07-.11q.38-.61.72-1.23l0,0q.36-.64.67-1.29h0q.32-.66.6-1.31h0A37,37,0,0,1,437,53.85c0,.25-.11.5-.19.76l0,.07q-.1.35-.24.7l-.05.13c-.09.22-.18.43-.28.65l-.09.18c-.1.2-.21.4-.32.6l-.12.22c-.11.19-.23.38-.35.57l-.16.25c-.12.18-.25.36-.39.54l-.19.26c-.14.18-.29.36-.45.54l-.19.23c-.22.25-.46.5-.7.75-2.86,2.86-6.33,4.27-8.76,3.79a3.54,3.54,0,0,1-1.87-.94c-2.15-2.15-.87-6.91,2.85-10.63q.35-.35.71-.67l.56-.47.16-.14a15,15,0,0,1,1.48-1,34.46,34.46,0,0,1-6.33-4.81h0l-.83.54a86.36,86.36,0,0,1-21.09,10v6.76a28.52,28.52,0,0,0,12.41,9.92h0l.91.39A17,17,0,0,0,420.09,74.33Z"/>
        <path class="cls-3" d="M576.32,4.5c-.06,0-.56.1-1.22,1-5,6.88-13.6,19.54-15.32,27.1a35.23,35.23,0,0,0-.8,5.46c11.74-9.72,17.26-19.29,17.26-19.29a17.52,17.52,0,0,1,3,2.54C578.67,15.69,577.74,10,577,5.92,576.79,4.83,576.39,4.52,576.32,4.5Z"/>
        <path class="cls-3" d="M574.56,45c-1.17-2.26-4.81-2.79-8.72-1.48a41.34,41.34,0,0,1,9.06,3.39A3.5,3.5,0,0,0,574.56,45Z"/>
        <path class="cls-4" d="M559,38.07a35.23,35.23,0,0,1,.8-5.46C561.5,25,570.12,12.38,575.11,5.5c.66-.91,1.15-1,1.22-1s.47.32.67,1.42c.75,4.07,1.68,9.77,2.24,15.41A25.74,25.74,0,0,1,583.35,27a164.11,164.11,0,0,0-2.72-21.75c-.43-2.35-1.71-3.93-3.49-4.32s-3.62.49-5,2.44c-6.29,8.67-14.15,20.65-15.92,28.43a37.27,37.27,0,0,0-.94,9.22l.69-.53C557,39.69,558,38.88,559,38.07Z"/>
        <path class="cls-5" d="M541.14,32.61C539.42,25,530.81,12.38,525.82,5.5c-.62-.86-1.09-1-1.2-1h0c-.07,0-.46.32-.67,1.42-1.53,8.32-3.84,23.4-2.12,31a32.88,32.88,0,0,0,3.84,9.69l.11-.05.17-.08,1.14-.53.43-.19,1-.4.45-.18,1.14-.42.28-.1,1.45-.47.38-.11,1.12-.32.51-.14,1.1-.27.46-.11,1.55-.33h0c1.64-.32,3.33-.58,5.06-.77A33,33,0,0,0,541.14,32.61Z"/>
        <path class="cls-4" d="M523.29,47.89l.87-.51.35-.2,1.15-.61a32.88,32.88,0,0,1-3.84-9.69c-1.72-7.56.59-22.64,2.12-31,.2-1.09.6-1.4.67-1.42h0c.11,0,.58.15,1.2,1,5,6.88,13.6,19.54,15.32,27.1a33,33,0,0,1,.81,9.47q1.82-.2,3.7-.31a36.91,36.91,0,0,0-.91-10C543,24,535.11,12.06,528.83,3.38c-1.41-1.94-3.25-2.83-5-2.44s-3.06,2-3.49,4.32c-1.93,10.49-3.86,24.63-2.09,32.41a36.19,36.19,0,0,0,4.25,10.74l.44-.28Z"/>
        <path class="cls-6" d="M572.13,60.27c-7.8,4-15.88,4.79-20.89,2.5a17.64,17.64,0,0,1-4.18,7.86h0q-.46.54-1,1.06h0q-.49.52-1,1l0,0q-.51.48-1.06.95l-.1.09q-.51.44-1.06.86l-.18.14c-.34.26-.69.52-1,.77l-.26.19c-.34.24-.68.46-1,.69l-.33.22c-.35.22-.71.43-1.07.65l-.35.21q-.72.41-1.48.8a33.81,33.81,0,0,1-11.36,3.59c4.61,9.2,13.41,16.15,12.81,16A44.91,44.91,0,0,0,550,99.44c21,0,38.07-14.27,38.07-31.86a21.61,21.61,0,0,0-5.79-15.2A33.23,33.23,0,0,1,572.13,60.27ZM553.52,84.8h-1.7v7.71s0,.06,0,.1a1.78,1.78,0,0,1,0,.26,1.73,1.73,0,0,1-.06.18s0,.1,0,.15a1.76,1.76,0,0,1-.12.22l0,.08a1.82,1.82,0,0,1-.19.24l0,0a1.82,1.82,0,0,1-3.12-1.24V84.8h-1.7a1.79,1.79,0,1,1,0-3.58h7a1.82,1.82,0,0,1,1.59.94,1.76,1.76,0,0,1,.22.85A1.8,1.8,0,0,1,553.52,84.8Zm14.88-5a2.12,2.12,0,1,1,2.15-2.12A2.14,2.14,0,0,1,568.4,79.82Z"/>
        <path class="cls-6" d="M515.18,80.43h0c4.32,8.2,12.65,14.59,22.91,17.42C527.85,94.93,519.52,88.58,515.18,80.43Z"/>
        <path class="cls-6" d="M540.13,62.69c-1.05-2-4.11-2.67-7.57-1.82a14.92,14.92,0,0,0-1.67.52l-.25.1-.63.26q-.44.19-.88.42a13.08,13.08,0,0,0-5.63,5.17c-.16.74-.29,1.48-.38,2.21-.06.48-.1,1-.12,1.43a3.22,3.22,0,0,0,.18.43c1.39,2.7,6.31,2.94,11,.53.31-.16.61-.33.9-.5l.25-.16.59-.38.26-.19.53-.39.23-.19.51-.43.19-.17.49-.48.14-.15q.25-.26.47-.53l.09-.11q.24-.29.44-.59l0-.06c.15-.22.29-.44.41-.67A4.5,4.5,0,0,0,540.13,62.69Z"/>
        <path class="cls-6" d="M568.61,54.21c3.67-1.89,6.1-4.85,6.3-7.34a41.34,41.34,0,0,0-9.06-3.39,16.11,16.11,0,0,0-2.27,1c-4.68,2.41-7.34,6.55-6,9.25S563.93,56.62,568.61,54.21Z"/>
        <path class="cls-6" d="M536.89,42.85a75.53,75.53,0,0,0-8,11.24l1.47-.45c8.67-2.71,13.41-2.1,16-.34.06-2.87,2-6.68,7.95-11.55-1.41-.08-2.85-.12-4.31-.12s-2.92,0-4.35.13q-1.88.11-3.7.31C540.22,42.27,538.53,42.53,536.89,42.85Z"/>
        <path class="cls-7" d="M514.87,56.2c-.17.29-.33.59-.49.89h0C514.54,56.79,514.7,56.5,514.87,56.2Z"/>
        <path class="cls-7" d="M522.46,48.42l-.4.27.4-.26Z"/>
        <path class="cls-7" d="M538.52,98h0l-.45-.13Z"/>
        <path class="cls-5" d="M525.66,46.57h0l.1-.06-.11.05Z"/>
        <path class="cls-7" d="M525.66,46.57h0l.1-.06-.11.05Z"/>
        <path class="cls-5" d="M535.34,43.19l1.55-.33h0Z"/>
        <path class="cls-7" d="M535.34,43.19l1.55-.33h0Z"/>
        <path class="cls-4" d="M522.9,48.13l-.44.28h0Z"/>
        <path class="cls-7" d="M522.9,48.13l-.44.28h0Z"/>
        <path class="cls-4" d="M525.66,46.57q-.58.29-1.15.6l1.15-.6h0Z"/>
        <path class="cls-7" d="M525.66,46.57q-.58.29-1.15.6l1.15-.6h0Z"/>
        <path class="cls-6" d="M525.71,81.92a19.44,19.44,0,0,1-8.37-.63,15.49,15.49,0,0,1-2.15-.86c4.33,8.16,12.66,14.5,22.89,17.41l.45.13C539.12,98.07,530.31,91.12,525.71,81.92Z"/>
        <path class="cls-7" d="M525.71,81.92a19.44,19.44,0,0,1-8.37-.63,15.49,15.49,0,0,1-2.15-.86c4.33,8.16,12.66,14.5,22.89,17.41l.45.13C539.12,98.07,530.31,91.12,525.71,81.92Z"/>
        <path class="cls-6" d="M528.06,54.34h0l.85-.24a75.53,75.53,0,0,1,8-11.24l-1.55.33-.46.11-1.1.27-.51.14-1.12.32-.38.11-1.45.47-.28.1-1.14.42-.45.18-1,.4-.43.19-1.14.53-.17.08-.1.06-1.15.6-.35.2-.87.51-.39.24-.44.29-.4.26-.32.22q-.55.39-1.08.8l-.16.13q-.44.35-.87.72l-.32.28-.68.63-.31.3q-.38.38-.74.77l-.16.18q-.43.48-.83,1l-.21.28q-.29.38-.56.77l-.24.36q-.26.38-.5.78l-.2.33c-.17.29-.33.59-.49.89A90.29,90.29,0,0,0,528.06,54.34Z"/>
        <path class="cls-7" d="M528.06,54.34h0l.85-.24a75.53,75.53,0,0,1,8-11.24l-1.55.33-.46.11-1.1.27-.51.14-1.12.32-.38.11-1.45.47-.28.1-1.14.42-.45.18-1,.4-.43.19-1.14.53-.17.08-.1.06-1.15.6-.35.2-.87.51-.39.24-.44.29-.4.26-.32.22q-.55.39-1.08.8l-.16.13q-.44.35-.87.72l-.32.28-.68.63-.31.3q-.38.38-.74.77l-.16.18q-.43.48-.83,1l-.21.28q-.29.38-.56.77l-.24.36q-.26.38-.5.78l-.2.33c-.17.29-.33.59-.49.89A90.29,90.29,0,0,0,528.06,54.34Z"/>
        <path class="cls-6" d="M523.51,67.34A4.65,4.65,0,0,0,523,71c0-.48.06-1,.12-1.43C523.22,68.81,523.35,68.07,523.51,67.34Z"/>
        <path class="cls-7" d="M523.51,67.34A4.65,4.65,0,0,0,523,71c0-.48.06-1,.12-1.43C523.22,68.81,523.35,68.07,523.51,67.34Z"/>
        <ellipse class="cls-8" cx="568.4" cy="77.7" rx="2.15" ry="2.12"/>
        <path class="cls-9" d="M555.33,83a1.8,1.8,0,0,1-1.81,1.79h0A1.8,1.8,0,0,0,555.33,83a1.76,1.76,0,0,0-.22-.85A1.76,1.76,0,0,1,555.33,83Z"/>
        <path class="cls-9" d="M551.82,92.52s0,.06,0,.1,0-.06,0-.1V84.8h0Z"/>
        <path class="cls-9" d="M550.08,81.22H546.5a1.79,1.79,0,1,0,0,3.58h1.7v7.71a1.82,1.82,0,0,0,3.12,1.24,1.82,1.82,0,0,1-1.23.54Z"/>
        <path class="cls-10" d="M555.33,83a1.76,1.76,0,0,0-.22-.85,1.82,1.82,0,0,0-1.59-.94h-3.44V94.3a1.82,1.82,0,0,0,1.23-.54l0,0a1.82,1.82,0,0,0,.19-.24l0-.08a1.76,1.76,0,0,0,.12-.22s0-.1,0-.15a1.73,1.73,0,0,0,.06-.18,1.78,1.78,0,0,0,0-.26s0-.06,0-.1V84.8h1.7A1.8,1.8,0,0,0,555.33,83Z"/>
        <path class="cls-12" d="M546.37,53.31c-2.58-1.76-7.32-2.37-16,.34l-1.47.45-.85.24a34.46,34.46,0,0,0,4.56,6.51l-.06,0c3.45-.85,6.52-.22,7.57,1.82a4.5,4.5,0,0,1-.42,4.26,37,37,0,0,0,7.35,3.69,17.64,17.64,0,0,0,4.18-7.86c5,2.29,13.09,1.51,20.89-2.5a33.23,33.23,0,0,0,10.16-7.89A18.73,18.73,0,0,0,586,45.93a17,17,0,0,0,.77-6.7A29.89,29.89,0,0,0,583.35,27a25.74,25.74,0,0,0-4.12-5.69,17.52,17.52,0,0,0-3-2.54S570.73,28.36,559,38.07c-1,.81-2,1.62-3.06,2.42l-.69.53-.93.74C548.36,46.63,546.43,50.44,546.37,53.31Zm17.21-8.88a16.11,16.11,0,0,1,2.27-1c3.9-1.31,7.55-.78,8.72,1.48a3.5,3.5,0,0,1,.34,1.91c-.2,2.49-2.62,5.45-6.3,7.34-4.68,2.41-9.6,2.17-11-.53S558.9,46.84,563.58,44.43Z"/>
        <path d="M517.34,81.29a19.44,19.44,0,0,0,8.37.63,33.81,33.81,0,0,0,11.36-3.59q.75-.39,1.48-.8l.35-.21c.36-.21.72-.42,1.07-.65l.33-.22c.35-.23.7-.46,1-.69l.26-.19c.36-.25.7-.51,1-.77l.18-.14q.54-.42,1.06-.86l.1-.09q.55-.47,1.06-.95l0,0q.53-.5,1-1h0q.5-.53,1-1.06h0a37,37,0,0,1-7.35-3.69c-.12.22-.26.44-.41.67l0,.06q-.21.3-.44.59l-.09.11q-.22.27-.47.53l-.14.15-.49.48-.19.17-.51.43-.23.19-.53.39-.26.19-.59.38-.25.16c-.29.17-.59.34-.9.5-4.68,2.41-9.6,2.17-11-.53A3.22,3.22,0,0,1,523,71a4.65,4.65,0,0,1,.5-3.65,13.08,13.08,0,0,1,5.63-5.17q.44-.22.88-.42l.63-.26.25-.1a14.92,14.92,0,0,1,1.67-.52l.06,0a34.46,34.46,0,0,1-4.56-6.51h0a90.29,90.29,0,0,1-13.67,2.76h0a72.71,72.71,0,0,1-12.94.52h0l-.51,0S500.14,68.7,511.44,78a18.09,18.09,0,0,0,3.72,2.39h0A15.49,15.49,0,0,0,517.34,81.29Z"/>
        <path class="cls-3" d="M777.13,5.92c-.2-1.09-.6-1.4-.67-1.42s-.56.1-1.22,1c-5,6.88-13.6,19.54-15.32,27.1a32.93,32.93,0,0,0-.8,9.58,46.89,46.89,0,0,1,16.06,4.75,32.68,32.68,0,0,0,4.06-10.06C781,29.32,778.66,14.24,777.13,5.92Z"/>
        <path class="cls-4" d="M759.93,32.61c1.72-7.56,10.34-20.23,15.32-27.1.66-.91,1.15-1,1.22-1s.47.32.67,1.42c1.53,8.32,3.84,23.4,2.12,31a32.68,32.68,0,0,1-4.06,10.06,30.77,30.77,0,0,1,3.16,1.91,35.94,35.94,0,0,0,4.51-11.17c1.77-7.78-.16-21.92-2.09-32.41-.43-2.35-1.71-3.93-3.49-4.32s-3.62.49-5,2.44C766,12.06,758.09,24,756.33,31.81a36.88,36.88,0,0,0-.91,10q1.89.13,3.71.36A32.93,32.93,0,0,1,759.93,32.61Z"/>
        <path class="cls-5" d="M741.29,32.61C739.57,25,731,12.38,726,5.5c-.62-.86-1.09-1-1.2-1h0c-.07,0-.46.32-.67,1.42-1.53,8.32-3.84,23.4-2.12,31a32.88,32.88,0,0,0,3.84,9.69l.11-.05.17-.08,1.14-.53.43-.19,1-.4.45-.18,1.14-.42.28-.1,1.45-.47.38-.11,1.12-.32.51-.14,1.1-.27.46-.11,1.55-.33h0c1.64-.32,3.33-.58,5.06-.77A33,33,0,0,0,741.29,32.61Z"/>
        <path class="cls-4" d="M723.44,47.89l.87-.51.35-.2,1.15-.61A32.88,32.88,0,0,1,722,36.88c-1.72-7.56.59-22.64,2.12-31,.2-1.09.6-1.4.67-1.42h0c.11,0,.58.15,1.2,1,5,6.88,13.6,19.54,15.32,27.1a33,33,0,0,1,.81,9.47q1.82-.2,3.7-.31a36.91,36.91,0,0,0-.91-10C743.12,24,735.26,12.06,729,3.38c-1.41-1.94-3.25-2.83-5-2.44s-3.06,2-3.49,4.32c-1.93,10.49-3.86,24.63-2.09,32.41a36.18,36.18,0,0,0,4.25,10.74l.44-.28Z"/>
        <path class="cls-6" d="M769.52,70.44c-5.26,0-9.53,2.46-9.53,5.5s4.27,5.5,9.53,5.5S779,79,779,75.94,774.78,70.44,769.52,70.44Zm-1,9.38a2.12,2.12,0,1,1,2.15-2.12A2.14,2.14,0,0,1,768.55,79.82Z"/>
        <path class="cls-6" d="M754.37,84.66a1.83,1.83,0,0,1-.7.14H752v7.71s0,.06,0,.1a1.78,1.78,0,0,1,0,.26,1.73,1.73,0,0,1-.06.18s0,.1,0,.15a1.76,1.76,0,0,1-.12.22l0,.08a1.82,1.82,0,0,1-.19.24l0,0a1.82,1.82,0,0,1-3.12-1.24V84.8h-1.7a1.83,1.83,0,0,1-.7-.14,22.89,22.89,0,0,1-3.1,1.51h0l0,0c-.42.17-.85.33-1.3.49h0q-.68.23-1.38.44l-.05,0q-.67.19-1.37.36l-.13,0q-.66.15-1.34.28l-.22,0-1.29.21-.31,0-1.24.14-.39,0-1.25.09-.41,0c-.55,0-1.11,0-1.68,0H730c4.37,5.77,9.15,9.61,8.71,9.53a44.91,44.91,0,0,0,11.49,1.48c12.38,0,23.38-5,30.33-12.61a34.48,34.48,0,0,1-10.61,1.61A31,31,0,0,1,754.37,84.66Z"/>
        <path class="cls-6" d="M719.9,86.86l-.08,0a38.68,38.68,0,0,0,18.4,11A39.38,39.38,0,0,1,719.9,86.86Z"/>
        <path class="cls-6" d="M750.26,81.22l-.1-.12-.1.12h.2Z"/>
        <path class="cls-6" d="M732.57,70.54l-.81-.07-1,0a12.79,12.79,0,0,0-7.61,2.2,22.65,22.65,0,0,0,1.94,7.71,14.54,14.54,0,0,0,5.67,1.09c.35,0,.69,0,1,0l.3,0,.7-.07.31,0,.66-.11.29-.06.65-.15.24-.07.65-.2.19-.07.66-.26.13-.06q.35-.15.67-.33l.07,0c.24-.13.46-.26.67-.4a4.5,4.5,0,0,0,2.32-3.59c0-2.29-2.42-4.24-5.85-5.07a14.93,14.93,0,0,0-1.76-.31Zm1.35,7.16a2.15,2.15,0,1,1-2.15-2.12A2.14,2.14,0,0,1,733.91,77.7Z"/>
        <path class="cls-6" d="M737,42.85a71.91,71.91,0,0,0-11.42,18.2c2.4.71,5,1.38,7.79,1.94.78.16,1.57.31,2.38.45,8.95,1.56,12.88,4.28,14.37,7,1.49-2.74,5.42-5.46,14.37-7A89.3,89.3,0,0,0,785.72,57a23.06,23.06,0,0,0-7.36-8.13,30.77,30.77,0,0,0-3.16-1.91,46.89,46.89,0,0,0-16.06-4.75q-1.82-.23-3.71-.36c-1.72-.12-3.48-.19-5.26-.19-1.47,0-2.92,0-4.35.13q-1.88.11-3.7.31C740.36,42.27,738.67,42.53,737,42.85Z"/>
        <path class="cls-7" d="M738.66,98h0l-.45-.13Z"/>
        <path class="cls-7" d="M715,56.2c-.15.25-.29.51-.43.78h0C714.73,56.72,714.87,56.46,715,56.2Z"/>
        <path class="cls-7" d="M722.61,48.42l-.4.27.4-.26Z"/>
        <path class="cls-5" d="M725.81,46.57h0l.1-.06-.11.05Z"/>
        <path class="cls-7" d="M725.81,46.57h0l.1-.06-.11.05Z"/>
        <path class="cls-5" d="M735.48,43.19l1.55-.33h0Z"/>
        <path class="cls-7" d="M735.48,43.19l1.55-.33h0Z"/>
        <path class="cls-4" d="M723,48.13l-.44.28h0Z"/>
        <path class="cls-7" d="M723,48.13l-.44.28h0Z"/>
        <path class="cls-4" d="M725.81,46.57q-.58.29-1.15.6l1.15-.6h0Z"/>
        <path class="cls-7" d="M725.81,46.57q-.58.29-1.15.6l1.15-.6h0Z"/>
        <path class="cls-6" d="M721.26,75.94c0,1.81,1.52,3.41,3.86,4.41a22.65,22.65,0,0,1-1.94-7.71A4.27,4.27,0,0,0,721.26,75.94Z"/>
        <path class="cls-7" d="M721.26,75.94c0,1.81,1.52,3.41,3.86,4.41a22.65,22.65,0,0,1-1.94-7.71A4.27,4.27,0,0,0,721.26,75.94Z"/>
        <path class="cls-6" d="M730,88.43a34.36,34.36,0,0,1-10.06-1.58,39.38,39.38,0,0,0,18.32,11l.45.13C739.11,98,734.33,94.21,730,88.43Z"/>
        <path class="cls-7" d="M730,88.43a34.36,34.36,0,0,1-10.06-1.58,39.38,39.38,0,0,0,18.32,11l.45.13C739.11,98,734.33,94.21,730,88.43Z"/>
        <path class="cls-6" d="M725.61,61.05A71.91,71.91,0,0,1,737,42.85l-1.55.33-.46.11-1.1.27-.51.14L732.3,44l-.38.11-1.45.47-.28.1-1.14.42-.45.18-1,.4-.43.19-1.14.53-.17.08-.1.06-1.15.6-.35.2-.87.51-.39.24-.44.29-.4.26-.32.22q-.55.39-1.08.8l-.16.13q-.44.35-.87.72l-.32.28-.68.63-.31.3q-.38.38-.74.77l-.16.18q-.43.48-.83,1l-.21.28q-.29.38-.56.77l-.24.36q-.26.38-.5.78l-.2.33c-.15.25-.29.52-.42.78A87.59,87.59,0,0,0,725.61,61.05Z"/>
        <path class="cls-7" d="M725.61,61.05A71.91,71.91,0,0,1,737,42.85l-1.55.33-.46.11-1.1.27-.51.14L732.3,44l-.38.11-1.45.47-.28.1-1.14.42-.45.18-1,.4-.43.19-1.14.53-.17.08-.1.06-1.15.6-.35.2-.87.51-.39.24-.44.29-.4.26-.32.22q-.55.39-1.08.8l-.16.13q-.44.35-.87.72l-.32.28-.68.63-.31.3q-.38.38-.74.77l-.16.18q-.43.48-.83,1l-.21.28q-.29.38-.56.77l-.24.36q-.26.38-.5.78l-.2.33c-.15.25-.29.52-.42.78A87.59,87.59,0,0,0,725.61,61.05Z"/>
        <ellipse class="cls-8" cx="731.76" cy="77.7" rx="2.15" ry="2.12"/>
        <ellipse class="cls-8" cx="768.55" cy="77.7" rx="2.15" ry="2.12"/>
        <path class="cls-9" d="M748.34,84.8v7.71a1.82,1.82,0,0,0,3.12,1.24,1.82,1.82,0,0,1-1.23.54V81.22h-.18a15.27,15.27,0,0,1-4.11,3.44,1.83,1.83,0,0,0,.7.14Z"/>
        <path class="cls-9" d="M752,92.52s0,.06,0,.1,0-.06,0-.1V84.8h0Z"/>
        <path class="cls-9" d="M753.67,84.8a1.83,1.83,0,0,0,.7-.14h0a1.83,1.83,0,0,1-.7.14Z"/>
        <path class="cls-10" d="M750.23,94.3a1.82,1.82,0,0,0,1.23-.54l0,0a1.82,1.82,0,0,0,.19-.24l0-.08a1.76,1.76,0,0,0,.12-.22s0-.1,0-.15a1.73,1.73,0,0,0,.06-.18,1.78,1.78,0,0,0,0-.26s0-.06,0-.1V84.8h1.7a1.83,1.83,0,0,0,.7-.14,15.27,15.27,0,0,1-4.11-3.44h0Z"/>
        <path class="cls-12" d="M792.52,53.44A57,57,0,0,1,785.72,57a89.3,89.3,0,0,1-21.19,6.46c-8.95,1.56-12.88,4.28-14.37,7-1.49-2.74-5.42-5.46-14.37-7-.81-.14-1.6-.29-2.38-.45h0a34.39,34.39,0,0,0,.63,5.94q.19,1,.44,1.94h0c3.44.83,5.85,2.79,5.85,5.07A4.5,4.5,0,0,1,738,79.53a37,37,0,0,0,4.85,6.64,22.89,22.89,0,0,0,3.1-1.51,15.27,15.27,0,0,0,4.11-3.44l.1-.12.1.12a15.27,15.27,0,0,0,4.11,3.44h0a31,31,0,0,0,15.5,3.78,34.48,34.48,0,0,0,10.61-1.61A20.3,20.3,0,0,0,788.77,82a17,17,0,0,0,3.75-5.6C798.29,63,792.52,53.44,792.52,53.44Zm-23,28c-5.26,0-9.53-2.46-9.53-5.5s4.27-5.5,9.53-5.5,9.53,2.46,9.53,5.5S774.78,81.44,769.52,81.44Z"/>
        <path class="cls-12" d="M742.79,86.2q-.63.25-1.3.49C741.94,86.53,742.37,86.37,742.79,86.2Z"/>
        <path d="M730,88.43h.48c.57,0,1.13,0,1.68,0l.41,0,1.25-.09.39,0,1.24-.14.31,0,1.29-.21.22,0q.68-.13,1.34-.28l.13,0q.7-.17,1.37-.36l.05,0q.71-.2,1.38-.44h0q.67-.23,1.3-.49l0,0h0A37,37,0,0,1,738,79.53c-.21.14-.44.28-.67.4l-.07,0q-.32.17-.67.33l-.13.06-.66.26-.19.07-.65.2-.24.07-.65.15-.29.06-.66.11-.31,0-.7.07-.3,0c-.34,0-.68,0-1,0a14.54,14.54,0,0,1-5.67-1.09c-2.34-1-3.86-2.6-3.86-4.41a4.27,4.27,0,0,1,1.92-3.3,12.79,12.79,0,0,1,7.61-2.2l1,0,.81.07h.13a14.93,14.93,0,0,1,1.76.31h0q-.25-1-.44-1.94a34.39,34.39,0,0,1-.63-5.94h0c-2.79-.56-5.39-1.23-7.79-1.94a87.59,87.59,0,0,1-11-4.07h0A61.26,61.26,0,0,1,708,53.61l-.05,0-.09-.06h0l-.1-.06s-5.77,9.54,0,23a17,17,0,0,0,3.75,5.6,20.3,20.3,0,0,0,8.28,4.79l.08,0A34.36,34.36,0,0,0,730,88.43Z"/>
        <path class="cls-3" d="M677,5.92c-.2-1.09-.6-1.4-.67-1.42s-.56.1-1.22,1c-5,6.88-13.6,19.54-15.32,27.1a32.93,32.93,0,0,0-.8,9.58,46.89,46.89,0,0,1,16.06,4.75,32.68,32.68,0,0,0,4.06-10.06C680.85,29.32,678.54,14.24,677,5.92Z"/>
        <path class="cls-4" d="M659.8,32.61c1.72-7.56,10.34-20.23,15.32-27.1.66-.91,1.15-1,1.22-1s.47.32.67,1.42c1.53,8.32,3.84,23.4,2.12,31a32.68,32.68,0,0,1-4.06,10.06c.68.36,1.35.74,2,1.14q1.25-.68,2.37-1.35a37.28,37.28,0,0,0,3.3-9.06c1.77-7.78-.16-21.92-2.09-32.41-.43-2.35-1.71-3.93-3.49-4.32s-3.62.49-5,2.44C665.83,12.06,658,24,656.2,31.81a36.88,36.88,0,0,0-.91,10q1.89.13,3.71.36A32.93,32.93,0,0,1,659.8,32.61Z"/>
        <path class="cls-5" d="M641.16,32.61C639.44,25,630.82,12.38,625.84,5.5c-.62-.86-1.09-1-1.2-1h0c-.07,0-.46.32-.67,1.42-1.53,8.32-3.84,23.4-2.12,31a32.88,32.88,0,0,0,3.84,9.69l.11-.05.17-.08,1.14-.53.43-.19,1-.4.45-.18,1.14-.42.27-.1,1.45-.47.38-.11,1.12-.32.51-.14,1.1-.27.46-.11,1.55-.33h0c1.64-.32,3.33-.58,5.06-.77A33,33,0,0,0,641.16,32.61Z"/>
        <path class="cls-4" d="M623.31,47.89l.87-.51.35-.2q.56-.31,1.15-.61a32.88,32.88,0,0,1-3.84-9.69c-1.72-7.56.59-22.64,2.12-31,.2-1.09.6-1.4.67-1.42h0c.11,0,.58.15,1.2,1,5,6.88,13.6,19.54,15.32,27.1a33,33,0,0,1,.81,9.47q1.82-.2,3.7-.31a36.91,36.91,0,0,0-.91-10C643,24,635.13,12.06,628.84,3.38c-1.41-1.94-3.25-2.83-5-2.44s-3.06,2-3.49,4.32c-1.93,10.49-3.86,24.63-2.09,32.41a36.19,36.19,0,0,0,4.25,10.74l.44-.28Z"/>
        <path class="cls-6" d="M632.44,66.32l-.87.06-1,.12a12.3,12.3,0,0,0-7.52,3.74,18.45,18.45,0,0,0,.39,5.48,10,10,0,0,0,6,1.84,2.15,2.15,0,0,1,4.19-.48l.61-.16.3-.09.63-.21.27-.1.62-.25.23-.1.61-.3.18-.1.61-.36.12-.08q.32-.21.61-.43l.06,0c.21-.16.41-.33.6-.5a4.5,4.5,0,0,0,1.74-3.91c-.35-2.26-3-3.82-6.56-4.1a15,15,0,0,0-1.8,0Z"/>
        <path class="cls-6" d="M670.43,78.43a2.15,2.15,0,0,1-3.93.23c-6.41,0-12-1.7-15.11-4.63A17.64,17.64,0,0,1,645,80.17h0q-.61.36-1.25.71h0q-.63.33-1.3.65l-.05,0q-.63.3-1.3.57l-.12.05q-.63.25-1.28.49l-.21.08-1.24.41-.3.09-1.2.33-.38.1-1.22.28-.4.09q-.82.17-1.65.3a36.72,36.72,0,0,1-5.73.45c4.78,7.74,11.74,13.27,11.21,13.17A44.91,44.91,0,0,0,650,99.44c19.62,0,35.78-12.43,37.84-28.39-3.48,3.39-9.17,6.11-15.86,7.16Q671.22,78.34,670.43,78.43ZM653.54,84.8h-1.7v7.71s0,.06,0,.1a1.78,1.78,0,0,1,0,.26,1.73,1.73,0,0,1-.06.18s0,.1,0,.15a1.76,1.76,0,0,1-.12.22l0,.08a1.82,1.82,0,0,1-.19.24l0,0a1.82,1.82,0,0,1-3.12-1.24V84.8h-1.7a1.79,1.79,0,1,1,0-3.58h7a1.86,1.86,0,0,1,.37,0,1.81,1.81,0,0,1,1.15.77,1.76,1.76,0,0,1,.3,1A1.8,1.8,0,0,1,653.54,84.8Z"/>
        <ellipse class="cls-6" cx="669.72" cy="65.92" rx="9.53" ry="5.5" transform="translate(-2.11 104.86) rotate(-8.94)"/>
        <path class="cls-6" d="M616.59,82.77l-.05,0c4.59,7.07,12.28,12.53,21.55,15.09C628.87,95.21,621.19,89.8,616.59,82.77Z"/>
        <path class="cls-6" d="M636.91,42.85a74.25,74.25,0,0,0-10.22,15.49c1.71.18,3.49.31,5.35.39.8,0,1.6.06,2.42.08,9.08.15,13.39,2.22,15.29,4.7,1-2.94,4.51-6.24,13.1-9.17a90,90,0,0,0,14.21-6.26c-.64-.4-1.31-.78-2-1.14A46.89,46.89,0,0,0,659,42.19q-1.82-.23-3.71-.36c-1.72-.12-3.48-.19-5.26-.19-1.47,0-2.92,0-4.35.13q-1.88.11-3.7.31C640.24,42.27,638.54,42.53,636.91,42.85Z"/>
        <path class="cls-7" d="M622.48,48.42l-.4.27.4-.26Z"/>
        <path class="cls-7" d="M614.89,56.2l-.07.11h0Z"/>
        <path class="cls-7" d="M638.53,98h0l-.45-.13Z"/>
        <path class="cls-5" d="M625.68,46.58l.1-.05-.11.05Z"/>
        <path class="cls-7" d="M625.68,46.58l.1-.05-.11.05Z"/>
        <path class="cls-5" d="M635.35,43.19l1.55-.33h0Z"/>
        <path class="cls-7" d="M635.35,43.19l1.55-.33h0Z"/>
        <path class="cls-4" d="M622.92,48.13l-.44.28h0Z"/>
        <path class="cls-7" d="M622.92,48.13l-.44.28h0Z"/>
        <path class="cls-4" d="M624.53,47.18l1.15-.6h0Q625.09,46.87,624.53,47.18Z"/>
        <path class="cls-7" d="M624.53,47.18l1.15-.6h0Q625.09,46.87,624.53,47.18Z"/>
        <path class="cls-6" d="M626.68,58.34a74.25,74.25,0,0,1,10.22-15.49l-1.55.33-.46.11-1.1.27-.51.14-1.12.32-.38.11-1.45.47-.27.1-1.14.42-.45.18-1,.4-.43.19-1.14.53-.17.08-.1.05-1.15.6-.35.2-.87.51-.39.24-.44.29-.4.26-.32.22q-.56.39-1.09.8l-.16.13q-.45.35-.87.72l-.32.28-.68.63-.31.3q-.38.38-.73.77l-.17.18q-.43.48-.83,1l-.21.28q-.29.38-.57.77l-.24.36q-.26.38-.5.78l-.2.33-.06.11A89.18,89.18,0,0,0,626.68,58.34Z"/>
        <path class="cls-7" d="M626.68,58.34a74.25,74.25,0,0,1,10.22-15.49l-1.55.33-.46.11-1.1.27-.51.14-1.12.32-.38.11-1.45.47-.27.1-1.14.42-.45.18-1,.4-.43.19-1.14.53-.17.08-.1.05-1.15.6-.35.2-.87.51-.39.24-.44.29-.4.26-.32.22q-.56.39-1.09.8l-.16.13q-.45.35-.87.72l-.32.28-.68.63-.31.3q-.38.38-.73.77l-.17.18q-.43.48-.83,1l-.21.28q-.29.38-.57.77l-.24.36q-.26.38-.5.78l-.2.33-.06.11A89.18,89.18,0,0,0,626.68,58.34Z"/>
        <path class="cls-6" d="M623.09,70.25a4,4,0,0,0-1,3.17,3.77,3.77,0,0,0,1.43,2.31A18.45,18.45,0,0,1,623.09,70.25Z"/>
        <path class="cls-7" d="M623.09,70.25a4,4,0,0,0-1,3.17,3.77,3.77,0,0,0,1.43,2.31A18.45,18.45,0,0,1,623.09,70.25Z"/>
        <path class="cls-6" d="M627.33,84.79a27.29,27.29,0,0,1-10.74-2c4.6,7,12.27,12.44,21.5,15.06l.45.13C639.07,98.06,632.11,92.53,627.33,84.79Z"/>
        <path class="cls-7" d="M627.33,84.79a27.29,27.29,0,0,1-10.74-2c4.6,7,12.27,12.44,21.5,15.06l.45.13C639.07,98.06,632.11,92.53,627.33,84.79Z"/>
        <path class="cls-8" d="M631.63,75.57a2.13,2.13,0,0,0-2.14,2,16.09,16.09,0,0,0,2.82-.2c.34-.05.68-.12,1-.19l.29-.07.07,0A2.14,2.14,0,0,0,631.63,75.57Z"/>
        <path class="cls-8" d="M668.42,79.82a2.15,2.15,0,0,0,2-1.4,36.24,36.24,0,0,1-3.93.23A2.15,2.15,0,0,0,668.42,79.82Z"/>
        <path class="cls-9" d="M651.84,92.52s0,.06,0,.1,0-.06,0-.1V84.8h0Z"/>
        <path class="cls-9" d="M655.35,83a1.8,1.8,0,0,1-1.81,1.79h0A1.8,1.8,0,0,0,655.35,83a1.76,1.76,0,0,0-.3-1A1.76,1.76,0,0,1,655.35,83Z"/>
        <path class="cls-9" d="M650.1,81.22h-3.59a1.79,1.79,0,1,0,0,3.58h1.7v7.71a1.82,1.82,0,0,0,3.12,1.24,1.82,1.82,0,0,1-1.23.54Z"/>
        <path class="cls-10" d="M655.35,83a1.76,1.76,0,0,0-.3-1,1.82,1.82,0,0,0-1.15-.77,1.86,1.86,0,0,0-.37,0H650.1V94.3a1.82,1.82,0,0,0,1.23-.54l0,0a1.82,1.82,0,0,0,.19-.24l0-.08a1.76,1.76,0,0,0,.12-.22s0-.1,0-.15a1.73,1.73,0,0,0,.06-.18,1.78,1.78,0,0,0,0-.26s0-.06,0-.1V84.8h1.7A1.8,1.8,0,0,0,655.35,83Z"/>
        <path class="cls-12" d="M679.43,46.74q-1.13.66-2.37,1.35a90,90,0,0,1-14.21,6.26c-8.6,2.93-12.06,6.23-13.1,9.17-1.9-2.48-6.21-4.55-15.29-4.7-.82,0-1.62,0-2.42-.08h0a34.45,34.45,0,0,0,2.28,7.62h0c3.52.29,6.21,1.85,6.56,4.1a4.5,4.5,0,0,1-1.74,3.91A37,37,0,0,0,645,80.17,17.64,17.64,0,0,0,651.39,74c3.16,2.93,8.7,4.66,15.11,4.63a36.24,36.24,0,0,0,3.93-.23q.78-.09,1.58-.21c6.69-1.05,12.37-3.77,15.86-7.16a15.17,15.17,0,0,0,1.82-2.1,17,17,0,0,0,2.84-6.11c3.61-14.2-3.57-22.72-3.57-22.72A66.12,66.12,0,0,1,679.43,46.74Zm-8.86,24.61c-5.2.82-9.79-1-10.27-4s3.36-6.1,8.56-6.91,9.79,1,10.27,4S675.77,70.53,670.58,71.35Z"/>
        <path d="M627.33,84.79a36.72,36.72,0,0,0,5.73-.45q.84-.13,1.65-.3l.4-.09,1.22-.28.38-.1,1.2-.33.3-.09,1.24-.41.21-.08q.65-.23,1.28-.49l.12-.05q.66-.27,1.3-.57l.05,0q.67-.31,1.3-.65h0q.65-.34,1.25-.71h0a37,37,0,0,1-5.82-5.81c-.19.17-.39.34-.6.5l-.06,0q-.29.22-.61.43l-.12.08-.61.36-.18.1-.61.3-.23.1-.62.25-.27.1-.63.21-.3.09-.61.16-.07,0-.29.07c-.33.07-.66.14-1,.19a16.09,16.09,0,0,1-2.82.2,10,10,0,0,1-6-1.84A3.77,3.77,0,0,1,622,73.42a4,4,0,0,1,1-3.17,12.3,12.3,0,0,1,7.52-3.74l1-.12.87-.06h.07a15,15,0,0,1,1.8,0h0A34.45,34.45,0,0,1,632,58.74h0c-1.86-.08-3.64-.22-5.35-.39a89.18,89.18,0,0,1-11.85-2h0a64.8,64.8,0,0,1-9.46-3h0l-.12-.05S601,63.6,608.81,76A17,17,0,0,0,613.39,81a15.81,15.81,0,0,0,3.15,1.8l.05,0A27.29,27.29,0,0,0,627.33,84.79Z"/>
        <path class="cls-3" d="M177,5.92c-.2-1.09-.6-1.4-.67-1.42s-.56.1-1.22,1c-5,6.88-13.6,19.54-15.32,27.1a32.93,32.93,0,0,0-.8,9.58A46.89,46.89,0,0,1,175,46.94a32.68,32.68,0,0,0,4.06-10.06C180.81,29.32,178.5,14.24,177,5.92Z"/>
        <path class="cls-4" d="M159.77,32.61c1.72-7.56,10.34-20.23,15.32-27.1.66-.91,1.15-1,1.22-1s.47.32.67,1.42c1.53,8.32,3.84,23.4,2.12,31A32.68,32.68,0,0,1,175,46.94a30.81,30.81,0,0,1,3.16,1.91,35.94,35.94,0,0,0,4.51-11.17c1.77-7.78-.16-21.92-2.09-32.41-.43-2.35-1.71-3.93-3.49-4.32s-3.62.49-5,2.44C165.8,12.06,157.93,24,156.16,31.81a36.88,36.88,0,0,0-.91,10q1.89.13,3.71.36A32.93,32.93,0,0,1,159.77,32.61Z"/>
        <path class="cls-5" d="M141.12,32.61C139.41,25,130.79,12.38,125.81,5.5c-.62-.86-1.09-1-1.2-1h0c-.07,0-.46.32-.67,1.42-1.53,8.32-3.84,23.4-2.12,31a32.88,32.88,0,0,0,3.84,9.69l.11-.05.17-.08,1.14-.54.42-.18,1-.4.44-.18,1.14-.42.27-.1,1.45-.47.38-.11,1.12-.32.5-.13,1.11-.28.45-.11,1.56-.33h0c1.64-.32,3.33-.58,5.06-.77A33,33,0,0,0,141.12,32.61Z"/>
        <path class="cls-4" d="M123.27,47.89l.88-.52.34-.2,1.15-.61a32.88,32.88,0,0,1-3.84-9.69c-1.72-7.56.59-22.64,2.12-31,.2-1.09.6-1.4.67-1.42h0c.11,0,.58.15,1.2,1,5,6.88,13.6,19.54,15.32,27.1a33,33,0,0,1,.81,9.47q1.82-.2,3.7-.31a36.91,36.91,0,0,0-.91-10C143,24,135.1,12.06,128.81,3.38c-1.41-1.94-3.25-2.83-5-2.44s-3.06,2-3.49,4.32c-1.93,10.49-3.86,24.63-2.09,32.41a36.18,36.18,0,0,0,4.25,10.74l.44-.28Z"/>
        <path class="cls-6" d="M178.19,48.85A30.81,30.81,0,0,0,175,46.94,46.89,46.89,0,0,0,159,42.19q-1.82-.23-3.71-.36c-1.72-.12-3.48-.19-5.26-.19-1.47,0-2.92,0-4.35.13q-1.88.11-3.7.31c-1.73.19-3.42.45-5.06.77,0,0-12.09,13.55-13.76,26.7C121.27,84.07,139.35,98.12,138.5,98A44.91,44.91,0,0,0,150,99.44c21,0,38.07-14.27,38.07-31.86A21.89,21.89,0,0,0,178.19,48.85Zm-46.59,31a2.12,2.12,0,1,1,2.15-2.12A2.14,2.14,0,0,1,131.6,79.82Zm21.91,5h-1.7v7.71s0,.08,0,.12a1.79,1.79,0,0,1,0,.23,1.71,1.71,0,0,1-.06.19s0,.09,0,.14a1.76,1.76,0,0,1-.12.23l0,.07a1.79,1.79,0,0,1-.2.24h0a1.82,1.82,0,0,1-3.12-1.24V84.8h-1.7a1.79,1.79,0,1,1,0-3.58h7a1.86,1.86,0,0,1,.37,0,1.81,1.81,0,0,1,.57.22,1.78,1.78,0,0,1-.94,3.32Zm14.88-5a2.12,2.12,0,1,1,2.15-2.12A2.14,2.14,0,0,1,168.38,79.82Z"/>
        <path class="cls-6" d="M113.92,77.77c3.82,9.46,12.79,16.93,24.14,20.07C126.74,94.62,117.75,87.2,113.92,77.77Z"/>
        <polygon class="cls-6" points="111.92 67.58 111.92 67.59 111.92 67.58 111.92 67.58"/>
        <polygon class="cls-6" points="111.92 67.58 111.92 67.57 111.92 67.58 111.92 67.58 111.92 67.58 111.92 67.58"/>
        <path class="cls-7" d="M138.5,98h0l-.45-.13Z"/>
        <path class="cls-7" d="M122.44,48.42l-.4.27.4-.27Z"/>
        <path class="cls-5" d="M125.64,46.58l.11-.06-.11.05Z"/>
        <path class="cls-7" d="M125.64,46.58l.11-.06-.11.05Z"/>
        <path class="cls-5" d="M135.32,43.19l1.56-.33h0Z"/>
        <path class="cls-7" d="M135.32,43.19l1.56-.33h0Z"/>
        <path class="cls-4" d="M122.88,48.13l-.44.28h0Z"/>
        <path class="cls-7" d="M122.88,48.13l-.44.28h0Z"/>
        <path class="cls-4" d="M124.5,47.18l1.15-.6h0Z"/>
        <path class="cls-7" d="M124.5,47.18l1.15-.6h0Z"/>
        <path class="cls-6" d="M123.11,69.55c1.67-13.15,13.75-26.68,13.76-26.7l-1.56.33-.45.11-1.11.28-.5.13-1.12.32-.38.11-1.45.47-.27.1-1.14.42-.44.18-1,.4-.42.18-1.14.54-.17.08-.11.06-1.15.6-.34.2-.88.52-.39.24-.44.29-.4.27-.32.21q-.56.39-1.09.8l-.16.13q-.45.35-.87.72l-.32.28-.68.63-.31.3q-.38.38-.74.77l-.17.18q-.43.48-.83,1l-.21.28q-.29.38-.57.77l-.24.36q-.26.38-.5.78l-.2.33c-.22.37-.42.75-.62,1.13l-.05.11q-.26.53-.49,1.07l-.16.39q-.17.43-.33.87l-.14.42c-.11.33-.21.66-.3,1l-.08.29q-.17.65-.3,1.32c0,.11,0,.23-.06.35-.06.34-.12.69-.17,1,0,.16,0,.31-.06.47q-.06.5-.09,1c0,.15,0,.3,0,.45,0,.48,0,1,0,1.46h0c0,.5,0,1,0,1.49,0,.17,0,.33,0,.49,0,.33.05.66.09,1s0,.39.07.59.08.59.13.88.07.41.11.62.11.54.17.81c.13.58.27,1.15.44,1.72l0,.15c.1.35.22.7.34,1l.08.25q.2.56.42,1.12l0,0c3.83,9.43,12.82,16.85,24.14,20.07l.45.13C139.35,98.12,121.27,84.07,123.11,69.55Z"/>
        <path class="cls-7" d="M123.11,69.55c1.67-13.15,13.75-26.68,13.76-26.7l-1.56.33-.45.11-1.11.28-.5.13-1.12.32-.38.11-1.45.47-.27.1-1.14.42-.44.18-1,.4-.42.18-1.14.54-.17.08-.11.06-1.15.6-.34.2-.88.52-.39.24-.44.29-.4.27-.32.21q-.56.39-1.09.8l-.16.13q-.45.35-.87.72l-.32.28-.68.63-.31.3q-.38.38-.74.77l-.17.18q-.43.48-.83,1l-.21.28q-.29.38-.57.77l-.24.36q-.26.38-.5.78l-.2.33c-.22.37-.42.75-.62,1.13l-.05.11q-.26.53-.49,1.07l-.16.39q-.17.43-.33.87l-.14.42c-.11.33-.21.66-.3,1l-.08.29q-.17.65-.3,1.32c0,.11,0,.23-.06.35-.06.34-.12.69-.17,1,0,.16,0,.31-.06.47q-.06.5-.09,1c0,.15,0,.3,0,.45,0,.48,0,1,0,1.46h0c0,.5,0,1,0,1.49,0,.17,0,.33,0,.49,0,.33.05.66.09,1s0,.39.07.59.08.59.13.88.07.41.11.62.11.54.17.81c.13.58.27,1.15.44,1.72l0,.15c.1.35.22.7.34,1l.08.25q.2.56.42,1.12l0,0c3.83,9.43,12.82,16.85,24.14,20.07l.45.13C139.35,98.12,121.27,84.07,123.11,69.55Z"/>
        <ellipse class="cls-8" cx="131.6" cy="77.7" rx="2.15" ry="2.12"/>
        <ellipse class="cls-8" cx="168.38" cy="77.7" rx="2.15" ry="2.12"/>
        <path class="cls-9" d="M150.07,81.22h-3.59a1.79,1.79,0,1,0,0,3.58h1.7v7.71A1.81,1.81,0,0,0,151,94a1.83,1.83,0,0,1-1,.33Z"/>
        <path class="cls-9" d="M154.44,81.48a1.78,1.78,0,0,1-.94,3.32h0a1.78,1.78,0,0,0,.94-3.32Z"/>
        <path class="cls-9" d="M151.81,92.52s0,.08,0,.12,0-.08,0-.12V84.8h0Z"/>
        <path class="cls-10" d="M155.32,83a1.78,1.78,0,0,0-.87-1.53,1.81,1.81,0,0,0-.57-.22,1.86,1.86,0,0,0-.37,0h-3.44V94.3a1.83,1.83,0,0,0,1-.33,1.8,1.8,0,0,0,.26-.22h0a1.79,1.79,0,0,0,.2-.24l0-.07a1.76,1.76,0,0,0,.12-.23s0-.09,0-.14a1.71,1.71,0,0,0,.06-.19,1.79,1.79,0,0,0,0-.23s0-.08,0-.12V84.8h1.7A1.8,1.8,0,0,0,155.32,83Z"/>
        <path class="cls-12" d="M102.2,36.94v0l.61.6Z"/>
        <path d="M108.48,45.51q-.39-.75-.82-1.47l-.22-.35c-.22-.36-.43-.72-.65-1.06l-.22-.32c-.23-.35-.47-.7-.7-1l-.19-.25c-.26-.35-.52-.7-.78-1l-.14-.17c-.29-.36-.58-.71-.87-1.05l-.08-.09c-.32-.36-.64-.71-1-1.05l0,0-.61-.6V48.62c2.2,4.29,2.16,8.76,0,10.49V77a31.51,31.51,0,0,0,6.2-5.87,17,17,0,0,0,3.21-5.93C113.27,60.16,112.26,52.7,108.48,45.51Z"/>
        <path class="cls-3" d="M277,5.92c-.2-1.09-.6-1.4-.67-1.42s-.56.1-1.22,1c-5,6.88-13.6,19.54-15.32,27.1a32.93,32.93,0,0,0-.8,9.58A46.89,46.89,0,0,1,275,46.94a32.68,32.68,0,0,0,4.06-10.06C280.82,29.32,278.51,14.24,277,5.92Z"/>
        <path class="cls-4" d="M259.78,32.61C261.5,25,270.11,12.38,275.1,5.5c.66-.91,1.15-1,1.22-1s.47.32.67,1.42c1.53,8.32,3.84,23.4,2.12,31A32.68,32.68,0,0,1,275,46.94a30.81,30.81,0,0,1,3.16,1.91,35.94,35.94,0,0,0,4.51-11.17c1.77-7.78-.16-21.92-2.09-32.41-.43-2.35-1.71-3.93-3.49-4.32s-3.62.49-5,2.44c-6.29,8.67-14.15,20.65-15.92,28.43a36.88,36.88,0,0,0-.91,10q1.89.13,3.71.36A32.93,32.93,0,0,1,259.78,32.61Z"/>
        <path class="cls-5" d="M241.13,32.61C239.41,25,230.8,12.38,225.81,5.5c-.62-.86-1.09-1-1.2-1h0c-.07,0-.46.32-.67,1.42C223.51,8.19,223,11,222.6,14a36.71,36.71,0,0,1,.45,5.79A34.09,34.09,0,0,1,221.22,31a29.87,29.87,0,0,0,.59,5.85,32.88,32.88,0,0,0,3.84,9.69l.11-.05.17-.08,1.14-.54.42-.18,1-.4.45-.18,1.14-.42.27-.1,1.45-.48.38-.11,1.13-.32.5-.13,1.11-.28.46-.11,1.56-.33h0c1.64-.32,3.33-.58,5.06-.77A33,33,0,0,0,241.13,32.61Z"/>
        <path class="cls-4" d="M221.81,36.88a29.87,29.87,0,0,1-.59-5.85,22,22,0,0,1-3.14,6c0,.21.08.44.12.65a36.18,36.18,0,0,0,4.25,10.74l.44-.28.39-.24.88-.52.34-.2,1.15-.61A32.88,32.88,0,0,1,221.81,36.88Z"/>
        <path class="cls-4" d="M223.93,5.92c.2-1.09.6-1.4.67-1.42h0c.11,0,.58.15,1.2,1,5,6.88,13.6,19.54,15.32,27.1a33,33,0,0,1,.81,9.47q1.82-.2,3.7-.31a36.91,36.91,0,0,0-.91-10C243,24,235.11,12.06,228.82,3.38c-1.41-1.94-3.25-2.83-5-2.44s-3.06,2-3.49,4.32l-.12.68a29.38,29.38,0,0,1,2.43,8C223,11,223.51,8.19,223.93,5.92Z"/>
        <path class="cls-6" d="M215.59,55.05h0l0,0Z"/>
        <path class="cls-6" d="M214.8,79.69h0c4.2,8.55,12.72,15.22,23.28,18.14C227.53,94.84,219,88.2,214.8,79.69Z"/>
        <polygon class="cls-6" points="211.93 67.58 211.93 67.59 211.93 67.58 211.93 67.58"/>
        <polygon class="cls-6" points="211.93 67.58 211.93 67.57 211.93 67.58 211.93 67.58 211.93 67.58 211.93 67.58"/>
        <path class="cls-6" d="M278.2,48.85A30.81,30.81,0,0,0,275,46.94,46.89,46.89,0,0,0,259,42.19q-1.82-.23-3.71-.36c-1.72-.12-3.48-.19-5.26-.19-1.47,0-2.92,0-4.35.13q-1.88.11-3.7.31c-1.73.19-3.42.45-5.06.77,0,0-12.09,13.55-13.76,26.7C221.28,84.07,239.36,98.12,238.51,98A44.91,44.91,0,0,0,250,99.44c21,0,38.07-14.27,38.07-31.86A21.89,21.89,0,0,0,278.2,48.85Zm-46.59,31a2.12,2.12,0,1,1,2.15-2.12A2.14,2.14,0,0,1,231.61,79.82Zm21.91,5h-1.7v7.71s0,.08,0,.12a1.79,1.79,0,0,1,0,.23,1.71,1.71,0,0,1-.06.19s0,.09,0,.14a1.76,1.76,0,0,1-.12.23l0,.07a1.79,1.79,0,0,1-.2.24h0a1.82,1.82,0,0,1-3.12-1.24V84.8h-1.7a1.79,1.79,0,1,1,0-3.58h7a1.86,1.86,0,0,1,.37,0,1.81,1.81,0,0,1,.57.22,1.78,1.78,0,0,1-.94,3.32Zm14.88-5a2.12,2.12,0,1,1,2.15-2.12A2.14,2.14,0,0,1,268.39,79.82Z"/>
        <path class="cls-7" d="M222.05,48.69l.4-.27h0Z"/>
        <path class="cls-7" d="M221.58,49l.16-.11-.16.11Z"/>
        <path class="cls-7" d="M238.51,98h0l-.45-.13Z"/>
        <path class="cls-7" d="M211.94,68.05h0c0-.15,0-.31,0-.46C211.93,67.75,211.94,67.9,211.94,68.05Z"/>
        <path class="cls-5" d="M235.33,43.19l1.55-.33h0Z"/>
        <path class="cls-7" d="M235.33,43.19l1.55-.33h0Z"/>
        <path class="cls-5" d="M225.65,46.58l.11-.06-.11.05Z"/>
        <path class="cls-7" d="M225.65,46.58l.11-.06-.11.05Z"/>
        <path class="cls-4" d="M222.46,48.42l.44-.29-.44.28Z"/>
        <path class="cls-7" d="M222.46,48.42l.44-.29-.44.28Z"/>
        <path class="cls-4" d="M224.5,47.18l1.15-.6h0Z"/>
        <path class="cls-7" d="M224.5,47.18l1.15-.6h0Z"/>
        <path class="cls-6" d="M223.12,69.55c1.67-13.15,13.75-26.68,13.76-26.7l-1.55.33-.46.11-1.11.28-.5.13-1.13.32-.38.11-1.45.48-.27.1-1.14.42-.45.18-1,.4-.42.18-1.14.54-.17.08-.11.06-1.15.6-.34.2-.88.52-.39.24-.44.29-.4.27-.31.21-.16.11.15.51,0,.05q.19.67.36,1.37l0,.13q.15.66.28,1.34l0,.22c.08.42.15.85.21,1.29,0,.1,0,.21,0,.31.06.41.1.82.14,1.24,0,.13,0,.26,0,.39,0,.41.06.83.09,1.25,0,.14,0,.27,0,.41q0,.83,0,1.68c0,8.12-2.58,15.19-6.4,18.9a15.54,15.54,0,0,1-1.85,1.6c4.21,8.51,12.73,15.15,23.27,18.15l.45.13C239.36,98.12,221.28,84.07,223.12,69.55Z"/>
        <path class="cls-7" d="M223.12,69.55c1.67-13.15,13.75-26.68,13.76-26.7l-1.55.33-.46.11-1.11.28-.5.13-1.13.32-.38.11-1.45.48-.27.1-1.14.42-.45.18-1,.4-.42.18-1.14.54-.17.08-.11.06-1.15.6-.34.2-.88.52-.39.24-.44.29-.4.27-.31.21-.16.11.15.51,0,.05q.19.67.36,1.37l0,.13q.15.66.28,1.34l0,.22c.08.42.15.85.21,1.29,0,.1,0,.21,0,.31.06.41.1.82.14,1.24,0,.13,0,.26,0,.39,0,.41.06.83.09,1.25,0,.14,0,.27,0,.41q0,.83,0,1.68c0,8.12-2.58,15.19-6.4,18.9a15.54,15.54,0,0,1-1.85,1.6c4.21,8.51,12.73,15.15,23.27,18.15l.45.13C239.36,98.12,221.28,84.07,223.12,69.55Z"/>
        <path class="cls-6" d="M215.06,55.88l-.2.33c-.22.37-.42.75-.62,1.13l-.05.11q-.26.53-.49,1.07l-.16.39q-.17.43-.33.87l-.14.42c-.11.33-.21.66-.3,1l-.08.29q-.17.65-.3,1.32c0,.11,0,.23-.06.34-.06.34-.12.69-.17,1,0,.16,0,.31-.06.47q-.06.5-.09,1c0,.15,0,.3,0,.45,0,.48,0,1,0,1.46h0c0,.16,0,.31,0,.46,2.36-1.07,4.11-4.78,4.11-9.21,0-.35,0-.69,0-1,0-.1,0-.2,0-.3s0-.47-.07-.7,0-.21,0-.31-.07-.44-.11-.66l-.06-.29c0-.17-.08-.34-.12-.51l0,0Q215.3,55.48,215.06,55.88Z"/>
        <path class="cls-7" d="M215.06,55.88l-.2.33c-.22.37-.42.75-.62,1.13l-.05.11q-.26.53-.49,1.07l-.16.39q-.17.43-.33.87l-.14.42c-.11.33-.21.66-.3,1l-.08.29q-.17.65-.3,1.32c0,.11,0,.23-.06.34-.06.34-.12.69-.17,1,0,.16,0,.31-.06.47q-.06.5-.09,1c0,.15,0,.3,0,.45,0,.48,0,1,0,1.46h0c0,.16,0,.31,0,.46,2.36-1.07,4.11-4.78,4.11-9.21,0-.35,0-.69,0-1,0-.1,0-.2,0-.3s0-.47-.07-.7,0-.21,0-.31-.07-.44-.11-.66l-.06-.29c0-.17-.08-.34-.12-.51l0,0Q215.3,55.48,215.06,55.88Z"/>
        <ellipse class="cls-8" cx="231.61" cy="77.7" rx="2.15" ry="2.12"/>
        <ellipse class="cls-8" cx="268.39" cy="77.7" rx="2.15" ry="2.12"/>
        <path class="cls-9" d="M254.45,81.48a1.78,1.78,0,0,1-.94,3.32h0a1.78,1.78,0,0,0,.94-3.32Z"/>
        <path class="cls-9" d="M251.81,92.52s0,.08,0,.12,0-.08,0-.12V84.8h0Z"/>
        <path class="cls-9" d="M250.08,81.22h-3.59a1.79,1.79,0,1,0,0,3.58h1.7v7.71A1.81,1.81,0,0,0,251,94a1.83,1.83,0,0,1-1,.33Z"/>
        <path class="cls-10" d="M255.33,83a1.78,1.78,0,0,0-.87-1.53,1.81,1.81,0,0,0-.57-.22,1.86,1.86,0,0,0-.37,0h-3.44V94.3a1.83,1.83,0,0,0,1-.33,1.8,1.8,0,0,0,.26-.22h0a1.79,1.79,0,0,0,.2-.24l0-.07a1.76,1.76,0,0,0,.12-.23s0-.09,0-.14a1.71,1.71,0,0,0,.06-.19,1.79,1.79,0,0,0,0-.23s0-.08,0-.12V84.8h1.7A1.8,1.8,0,0,0,255.33,83Z"/>
        <path class="cls-12" d="M221.3,48.15q.23.68.44,1.38l-.15-.51h0C221.49,48.72,221.39,48.43,221.3,48.15Z"/>
        <path class="cls-12" d="M205.48,55.17c.83-3.44,2.79-5.85,5.07-5.85a4.5,4.5,0,0,1,3.59,2.32,37,37,0,0,0,6.64-4.85,17.64,17.64,0,0,0-5.07-7.31A13.6,13.6,0,0,0,218.08,37a22,22,0,0,0,3.14-6,34.09,34.09,0,0,0,1.84-11.27A36.71,36.71,0,0,0,222.6,14a29.38,29.38,0,0,0-2.43-8A17.78,17.78,0,0,0,216.65.86c-.14-.14-.3-.28-.45-.42h-14v36.4a8.78,8.78,0,0,0,2.86,2.64,8.78,8.78,0,0,0-2.86,2.64v13.7c1.1-.17,2.19-.38,3.27-.66Zm-.43-35.06c0-5.26,2.46-9.53,5.5-9.53s5.5,4.27,5.5,9.53-2.46,9.53-5.5,9.53S205.05,25.37,205.05,20.11Z"/>
        <path d="M216.65,78.09c3.82-3.71,6.4-10.78,6.4-18.9q0-.85,0-1.68c0-.14,0-.27,0-.41,0-.42,0-.84-.09-1.25,0-.13,0-.26,0-.39,0-.42-.09-.83-.14-1.24,0-.1,0-.21,0-.31-.06-.43-.13-.86-.21-1.29l0-.22q-.13-.68-.28-1.34l0-.13q-.17-.7-.36-1.37l0-.05q-.2-.71-.44-1.38h0q-.24-.69-.5-1.35h0a37,37,0,0,1-6.64,4.85c.14.21.28.44.4.67l0,.07q.17.32.33.67l.06.13q.14.32.26.66l.07.19c.07.21.14.43.2.65l.07.24,0,.13h0c0,.17.08.34.12.51l.06.29c0,.21.08.43.11.66s0,.21,0,.31,0,.47.07.7,0,.2,0,.3c0,.34,0,.68,0,1,0,4.43-1.75,8.14-4.11,9.21h0a3.36,3.36,0,0,1-1.39.32c-3,0-5.5-4.27-5.5-9.53q0-.49,0-1c0-.27,0-.54.07-.81,0,0,0-.09,0-.13a15,15,0,0,1,.31-1.76v0c-1.08.28-2.17.49-3.27.66V84.23a31.22,31.22,0,0,0,8.84-2.38,18.13,18.13,0,0,0,3.73-2.15h0A15.54,15.54,0,0,0,216.65,78.09Z"/>
        <path class="cls-3" d="M377.13,5.92c-.2-1.09-.6-1.4-.67-1.42s-.56.1-1.22,1c-5,6.88-13.6,19.54-15.32,27.1a32.93,32.93,0,0,0-.8,9.58,46.89,46.89,0,0,1,16.06,4.75,32.68,32.68,0,0,0,4.06-10.06C381,29.32,378.66,14.24,377.13,5.92Z"/>
        <path class="cls-4" d="M359.93,32.61c1.72-7.56,10.34-20.23,15.32-27.1.66-.91,1.15-1,1.22-1s.47.32.67,1.42c1.53,8.32,3.84,23.4,2.12,31a32.68,32.68,0,0,1-4.06,10.06,30.81,30.81,0,0,1,3.16,1.91,35.94,35.94,0,0,0,4.51-11.17c1.77-7.78-.16-21.92-2.09-32.41-.43-2.35-1.71-3.93-3.49-4.32s-3.62.49-5,2.44C366,12.06,358.09,24,356.33,31.81a36.88,36.88,0,0,0-.91,10q1.89.13,3.71.36A32.93,32.93,0,0,1,359.93,32.61Z"/>
        <path class="cls-5" d="M324.77,4.5h0c-.07,0-.46.32-.67,1.42-1.19,6.49-2.85,17.08-2.71,25a9,9,0,0,1,4-1.27c-1.83-2.53-2.57-7.26-.08-16,.67-2.36,1.21-4.65,1.65-6.83L326,5.5C325.35,4.65,324.87,4.5,324.77,4.5Z"/>
        <path class="cls-5" d="M326,40.91a3.85,3.85,0,0,0-2.92-.08,31,31,0,0,0,2.7,5.75l.11-.05.17-.08,1.14-.54.42-.18.68-.29h0s0-.05,0-.08c0-.27,0-.53-.07-.78h0A4.5,4.5,0,0,0,326,40.91Z"/>
        <path class="cls-5" d="M341.29,32.61c-.09-.4-.21-.83-.34-1.25a16,16,0,0,1-6,2.94,17.61,17.61,0,0,1,1.4,8.71l.69-.15h0c1.64-.32,3.33-.58,5.06-.77A33,33,0,0,0,341.29,32.61Z"/>
        <path class="cls-5" d="M334.57,23.18a3.82,3.82,0,0,0,2.84.11c-1.42-2.65-3.07-5.4-4.76-8C331.74,18.9,332.42,22.15,334.57,23.18Z"/>
        <path class="cls-4" d="M323,48.13l.39-.24.88-.52.34-.2,1.15-.61a31,31,0,0,1-2.7-5.75,8.56,8.56,0,0,0-3.18,2,33.48,33.48,0,0,0,2.68,5.54Z"/>
        <path class="cls-4" d="M340.55,21.34c-1.81-3.36-4-6.86-6.2-10.22-.21.35-.4.72-.59,1.1a15.85,15.85,0,0,0-1.1,3c1.69,2.63,3.34,5.37,4.76,8A8.35,8.35,0,0,0,340.55,21.34Z"/>
        <path class="cls-4" d="M324.09,5.92c.2-1.09.6-1.4.67-1.42h0c.11,0,.58.15,1.2,1l1,1.34c.33-1.65.61-3.25.83-4.78A4.37,4.37,0,0,0,323.94.95c-1.79.4-3.06,2-3.49,4.32-1.63,8.88-3.26,20.36-2.65,28.4a18.78,18.78,0,0,1,3.57-2.73C321.23,23,322.89,12.41,324.09,5.92Z"/>
        <path class="cls-4" d="M341.29,32.61a33,33,0,0,1,.81,9.47q1.82-.2,3.7-.31a36.91,36.91,0,0,0-.91-10,26,26,0,0,0-.94-3.12,25.36,25.36,0,0,1-3,2.66C341.08,31.78,341.2,32.2,341.29,32.61Z"/>
        <path class="cls-6" d="M314.08,77.77c3.82,9.46,12.79,16.93,24.13,20.06C326.91,94.62,317.91,87.2,314.08,77.77Z"/>
        <path class="cls-6" d="M378.35,48.85a30.81,30.81,0,0,0-3.16-1.91,46.89,46.89,0,0,0-16.06-4.75q-1.82-.23-3.71-.36c-1.72-.12-3.48-.19-5.26-.19-1.47,0-2.92,0-4.35.13q-1.88.11-3.7.31c-1.73.19-3.42.45-5.06.77,0,0-.27.31-.74.86,0,.26-.06.53-.09.8h0q-.08.71-.21,1.44V46q-.12.69-.27,1.4l0,.13q-.15.66-.33,1.33l-.05.21c-.11.42-.24.83-.37,1.25l-.09.3c-.13.39-.27.78-.41,1.18l-.13.37c-.15.39-.3.77-.47,1.16l-.15.38q-.33.77-.7,1.53a31.8,31.8,0,0,1-9.26,11.7c-.19.87-.35,1.74-.46,2.61C321.43,84.07,339.51,98.12,338.67,98a44.91,44.91,0,0,0,11.49,1.48c21,0,38.07-14.27,38.07-31.86A21.89,21.89,0,0,0,378.35,48.85Zm-46.59,31a2.12,2.12,0,1,1,2.15-2.12A2.14,2.14,0,0,1,331.76,79.82Zm21.91,5H352v7.71s0,.06,0,.1a1.79,1.79,0,0,1,0,.26,1.74,1.74,0,0,1-.06.18s0,.1,0,.15a1.78,1.78,0,0,1-.12.22l0,.07a1.8,1.8,0,0,1-.2.24v0a1.82,1.82,0,0,1-3.12-1.24V84.8h-1.7a1.79,1.79,0,1,1,0-3.58h7a1.82,1.82,0,0,1,1.59.94,1.76,1.76,0,0,1,.22.85A1.8,1.8,0,0,1,353.67,84.8Zm14.88-5a2.12,2.12,0,1,1,2.15-2.12A2.14,2.14,0,0,1,368.55,79.82Z"/>
        <path class="cls-7" d="M312.24,70.42l0,.14s0-.1,0-.14Z"/>
        <path class="cls-7" d="M315.67,55.17h0l.05-.08Z"/>
        <path class="cls-7" d="M338.66,98h0l-.45-.13Z"/>
        <path class="cls-7" d="M322.21,48.69l.4-.27h0Z"/>
        <path class="cls-5" d="M325.91,46.52l-.11.05h0Z"/>
        <path class="cls-7" d="M325.91,46.52l-.11.05h0Z"/>
        <path class="cls-5" d="M328.33,45.43h0l-.68.29Z"/>
        <path class="cls-7" d="M328.33,45.43h0l-.68.29Z"/>
        <path class="cls-5" d="M336.35,43h0l.69-.15h0Z"/>
        <path class="cls-7" d="M336.35,43h0l.69-.15h0Z"/>
        <path class="cls-4" d="M322.61,48.42l.44-.29-.44.28Z"/>
        <path class="cls-7" d="M322.61,48.42l.44-.29-.44.28Z"/>
        <path class="cls-4" d="M325.81,46.58h0l-1.15.61Z"/>
        <path class="cls-7" d="M325.81,46.58h0l-1.15.61Z"/>
        <path class="cls-6" d="M323.27,69.55c.11-.87.27-1.74.46-2.61a17.26,17.26,0,0,1-11.39,3.49h-.11s0,.1,0,.14,0,.39.07.58.09.59.13.88.07.41.11.61.11.54.17.82c.13.56.27,1.12.43,1.68l.05.18c.1.35.22.69.34,1l.09.25q.2.56.42,1.11l0,.05c3.83,9.43,12.82,16.85,24.13,20.06l.45.13C339.51,98.12,321.43,84.07,323.27,69.55Z"/>
        <path class="cls-7" d="M323.27,69.55c.11-.87.27-1.74.46-2.61a17.26,17.26,0,0,1-11.39,3.49h-.11s0,.1,0,.14,0,.39.07.58.09.59.13.88.07.41.11.61.11.54.17.82c.13.56.27,1.12.43,1.68l.05.18c.1.35.22.69.34,1l.09.25q.2.56.42,1.11l0,.05c3.83,9.43,12.82,16.85,24.13,20.06l.45.13C339.51,98.12,321.43,84.07,323.27,69.55Z"/>
        <path class="cls-6" d="M336.34,43.08h0c0,.21,0,.41,0,.62.46-.55.74-.86.74-.86l-.69.15Z"/>
        <path class="cls-7" d="M336.34,43.08h0c0,.21,0,.41,0,.62.46-.55.74-.86.74-.86l-.69.15Z"/>
        <path class="cls-6" d="M327.22,45.9l-1.14.54-.17.08-.11.06-1.15.6-.34.2-.88.52-.39.24-.44.29-.4.27-.32.21q-.56.39-1.09.8l-.16.13q-.45.35-.87.72l-.32.28-.68.63-.3.3q-.38.38-.74.77l-.16.17q-.43.48-.83,1l-.21.27q-.29.38-.57.77l-.24.36-.05.08a4.14,4.14,0,0,0,2.08,2.9c2.74,1.32,6.81-1.45,9.09-6.19.15-.31.29-.62.42-.94l.11-.28c.09-.22.17-.44.24-.66l.09-.3c.07-.21.13-.43.19-.64l.07-.29c.05-.22.1-.43.14-.65l0-.25c0-.23.07-.45.1-.67l0-.2q0-.36.05-.71s0-.09,0-.14q0-.37,0-.72l-.68.28Z"/>
        <path class="cls-7" d="M327.22,45.9l-1.14.54-.17.08-.11.06-1.15.6-.34.2-.88.52-.39.24-.44.29-.4.27-.32.21q-.56.39-1.09.8l-.16.13q-.45.35-.87.72l-.32.28-.68.63-.3.3q-.38.38-.74.77l-.16.17q-.43.48-.83,1l-.21.27q-.29.38-.57.77l-.24.36-.05.08a4.14,4.14,0,0,0,2.08,2.9c2.74,1.32,6.81-1.45,9.09-6.19.15-.31.29-.62.42-.94l.11-.28c.09-.22.17-.44.24-.66l.09-.3c.07-.21.13-.43.19-.64l.07-.29c.05-.22.1-.43.14-.65l0-.25c0-.23.07-.45.1-.67l0-.2q0-.36.05-.71s0-.09,0-.14q0-.37,0-.72l-.68.28Z"/>
        <ellipse class="cls-8" cx="331.76" cy="77.7" rx="2.15" ry="2.12"/>
        <ellipse class="cls-8" cx="368.55" cy="77.7" rx="2.15" ry="2.12"/>
        <path class="cls-9" d="M350.23,81.22h-3.59a1.79,1.79,0,1,0,0,3.58h1.7v7.71a1.82,1.82,0,0,0,3.12,1.24,1.82,1.82,0,0,1-1.23.54Z"/>
        <path class="cls-9" d="M355.48,83a1.8,1.8,0,0,1-1.81,1.79h0A1.8,1.8,0,0,0,355.48,83a1.76,1.76,0,0,0-.22-.85A1.76,1.76,0,0,1,355.48,83Z"/>
        <path class="cls-9" d="M352,92.52s0,.06,0,.1,0-.06,0-.1V84.8h0Z"/>
        <path class="cls-10" d="M355.48,83a1.76,1.76,0,0,0-.22-.85,1.82,1.82,0,0,0-1.59-.94h-3.44V94.3a1.82,1.82,0,0,0,1.23-.54v0a1.8,1.8,0,0,0,.2-.24l0-.07a1.78,1.78,0,0,0,.12-.22s0-.1,0-.15a1.74,1.74,0,0,0,.06-.18,1.79,1.79,0,0,0,0-.26s0-.06,0-.1V84.8h1.7A1.8,1.8,0,0,0,355.48,83Z"/>
        <path class="cls-12" d="M336.21,44.51c0-.27.07-.53.09-.8s0-.42,0-.62Q336.29,43.79,336.21,44.51Z"/>
        <path class="cls-12" d="M318.92,44h0a12.92,12.92,0,0,1,1-1.1,8.56,8.56,0,0,1,3.18-2,3.85,3.85,0,0,1,2.92.08,4.5,4.5,0,0,1,2.23,3.65,37,37,0,0,0,8.09-1.48V43h0a17.61,17.61,0,0,0-1.4-8.71,16,16,0,0,0,6-2.94,25.36,25.36,0,0,0,3-2.66,34.41,34.41,0,0,0,6.17-9c3.4-7.06,4.21-14.28,2.61-19.27H328c-.07.53-.14,1.07-.22,1.62-.22,1.53-.5,3.12-.83,4.78-.44,2.18-1,4.47-1.65,6.83-2.48,8.73-1.74,13.46.08,16a9,9,0,0,0-4,1.27,18.78,18.78,0,0,0-3.57,2.73,40.84,40.84,0,0,0-5,5.89c-.48.67-1,1.31-1.44,1.95h0A34.44,34.44,0,0,0,318.92,44Zm13.73-28.7a15.85,15.85,0,0,1,1.1-3c.18-.38.38-.74.59-1.1,2.35-4.05,6-6.31,8.5-5.09,2.74,1.32,3.1,6.23.82,11a14.83,14.83,0,0,1-3.12,4.35,8.35,8.35,0,0,1-3.14,2,3.82,3.82,0,0,1-2.84-.11C332.42,22.15,331.74,18.9,332.65,15.26Z"/>
        <path class="cls-12" d="M336.34,43.08h0Z"/>
        <path d="M312.35,70.43a17.26,17.26,0,0,0,11.39-3.49A31.8,31.8,0,0,0,333,55.24q.37-.76.7-1.53l.15-.38c.16-.39.32-.78.47-1.16l.13-.37c.14-.39.28-.79.41-1.18l.09-.3c.13-.42.26-.84.37-1.25l.05-.21q.18-.67.33-1.33l0-.13q.15-.7.27-1.4V46q.12-.73.21-1.44h0q.09-.72.13-1.42h0a37,37,0,0,1-8.09,1.48h0c0,.25.06.51.07.78,0,0,0,.05,0,.08h0q0,.35,0,.72s0,.09,0,.14q0,.35-.05.71l0,.2c0,.22-.06.45-.1.67l0,.25c0,.21-.09.43-.14.65l-.07.29c-.06.21-.12.42-.19.64l-.09.3c-.07.22-.16.44-.24.66l-.11.28c-.13.31-.26.63-.42.94-2.28,4.74-6.36,7.51-9.09,6.19a4.14,4.14,0,0,1-2.08-2.9h0a12.55,12.55,0,0,1,1.27-8.07q.21-.44.45-.86c.13-.24.27-.47.41-.69l.07-.12a15,15,0,0,1,1-1.45h0a34.44,34.44,0,0,1-7.56-2.46h0a90,90,0,0,1-11.2,12.25V67.38a29.91,29.91,0,0,0,12.08,3h.11Z"/>
      </g>
    </g>
  </g>
</svg>
