<svg id="Layer_1" data-name="Layer 1" xmlns="http://www.w3.org/2000/svg" width="800" height="100" viewBox="0 0 800 100">
  <defs>
    <style>
      .cls-1 {
        fill: #301702;
      }

      .cls-2 {
        fill: #ffe8af;
      }

      .cls-3 {
        fill: #00bea4;
      }

      .cls-4 {
        fill: #ff4600;
      }

      .cls-5 {
        fill: #00cfff;
      }

      .cls-6 {
        fill: #00bfa1;
      }

      .cls-7 {
        fill: #009d93;
      }

      .cls-8 {
        fill: #fff;
      }
    </style>
  </defs>
  <g>
    <path class="cls-1" d="M527.52,47.55v0H511a40.57,40.57,0,0,0,3.1,15.6l15.23-6.31A24.29,24.29,0,0,1,527.52,47.55Z"/>
    <path class="cls-1" d="M561.11,25A24.42,24.42,0,0,1,569,30.31l11.63-11.63a41,41,0,0,0-13.26-8.87Z"/>
    <path class="cls-2" d="M542.49,25.08,536.18,9.85A40.88,40.88,0,0,0,523,18.71l11.66,11.65A24.39,24.39,0,0,1,542.49,25.08Z"/>
    <path class="cls-2" d="M529.36,56.82l-15.23,6.31a40.85,40.85,0,0,0,3.62,6.8c1.72-2,3-3.49,3.6-4.07a8.59,8.59,0,0,1,10.12-1.51l1.69-1.25A24.4,24.4,0,0,1,529.36,56.82Z"/>
    <path class="cls-1" d="M534.63,30.36,523,18.71a40.92,40.92,0,0,0-8.84,13.22l15.24,6.31A24.4,24.4,0,0,1,534.63,30.36Z"/>
    <path class="cls-2" d="M514.13,31.93A40.58,40.58,0,0,0,511,47.52h16.5a24.24,24.24,0,0,1,1.85-9.28Z"/>
    <path class="cls-1" d="M569,64.78l11.61,11.61a40.93,40.93,0,0,0,8.87-13.23l-15.18-6.29A24.33,24.33,0,0,1,569,64.78Z"/>
    <path class="cls-2" d="M561.12,70l6.29,15.19a40.91,40.91,0,0,0,13.24-8.85L569,64.78A24.35,24.35,0,0,1,561.12,70Z"/>
    <path class="cls-2" d="M576.2,47.55a24.27,24.27,0,0,1-1.86,9.32l15.18,6.29a40.57,40.57,0,0,0,3.12-15.63H576.2Z"/>
    <path class="cls-1" d="M542.48,70a24.29,24.29,0,0,1-6.23-3.8L535,67.89A8.6,8.6,0,0,1,533.5,78c-.59.59-2.05,1.88-4.08,3.6a41,41,0,0,0,6.76,3.61Z"/>
    <path class="cls-1" d="M551.86,71.88h0V88.34a40.55,40.55,0,0,0,15.58-3.1L561.12,70A24.25,24.25,0,0,1,551.86,71.88Z"/>
    <path class="cls-2" d="M551.83,71.88A24.29,24.29,0,0,1,542.48,70l-6.3,15.21a40.57,40.57,0,0,0,15.65,3.12Z"/>
    <path class="cls-1" d="M576.2,47.53h16.44a40.54,40.54,0,0,0-3.12-15.62l-15.2,6.29A24.28,24.28,0,0,1,576.2,47.53Z"/>
    <path class="cls-2" d="M574.33,38.19l15.2-6.29a40.92,40.92,0,0,0-8.85-13.22L569,30.31A24.41,24.41,0,0,1,574.33,38.19Z"/>
    <path class="cls-2" d="M551.86,23.21A24.19,24.19,0,0,1,561.11,25l6.3-15.22a40.63,40.63,0,0,0-15.58-3.1V23.21Z"/>
    <path class="cls-1" d="M551.83,6.72a40.57,40.57,0,0,0-15.65,3.13l6.31,15.23a24.26,24.26,0,0,1,9.34-1.87Z"/>
    <path class="cls-2" d="M535.15,7.35a43.38,43.38,0,0,1,47.42,9.44c1,1,1.95,2,2.84,3.11-.89-1.09-1.84-2.12-2.84-3.11a43.34,43.34,0,0,0-61.5,0c-1,1-1.93,2-2.82,3.09.89-1.08,1.84-2.1,2.82-3.09A43.65,43.65,0,0,1,535.15,7.35Z"/>
    <path d="M511.64,64.16a43.39,43.39,0,0,1,6.62-44.26c.89-1.08,1.83-2.11,2.82-3.09a43.34,43.34,0,0,1,61.5,0c1,1,1.95,2,2.84,3.11a43.31,43.31,0,0,1,9.92,27.62h0a43.44,43.44,0,0,1-68.06,35.88l-2.11,1.73A46.15,46.15,0,0,0,598,47.53v0A46.16,46.16,0,0,0,534.12,4.85a46.37,46.37,0,0,0-25,25,45.91,45.91,0,0,0-3.5,17.62v0a45.84,45.84,0,0,0,8.54,26.66l1.74-2.11A43.64,43.64,0,0,1,511.64,64.16Z"/>
    <path class="cls-3" d="M536.18,85.21l-1,2.49A43.3,43.3,0,0,0,551.83,91V88.34A40.57,40.57,0,0,1,536.18,85.21Z"/>
    <path class="cls-4" d="M508.33,47.52a43.31,43.31,0,0,0,3.31,16.64l2.49-1a40.57,40.57,0,0,1-3.1-15.6Z"/>
    <path class="cls-4" d="M536.18,85.21a41,41,0,0,1-6.76-3.61l-2.15,1.8a43.66,43.66,0,0,0,7.87,4.29Z"/>
    <path class="cls-3" d="M514.13,31.93l-2.49-1a43.22,43.22,0,0,0-3.31,16.63H511A40.58,40.58,0,0,1,514.13,31.93Z"/>
    <path class="cls-3" d="M580.67,18.68a40.92,40.92,0,0,1,8.85,13.22l2.49-1a43.6,43.6,0,0,0-6.61-11c-.89-1.09-1.85-2.12-2.84-3.11Z"/>
    <path class="cls-4" d="M592.64,47.52h2.69A43.26,43.26,0,0,0,592,30.87l-2.49,1A40.54,40.54,0,0,1,592.64,47.52Z"/>
    <path class="cls-4" d="M523,18.71l-1.89-1.9c-1,1-1.93,2-2.82,3.09a43.55,43.55,0,0,0-6.62,11l2.49,1A40.92,40.92,0,0,1,523,18.71Z"/>
    <path class="cls-4" d="M551.83,88.34V91a43.29,43.29,0,0,0,16.61-3.3l-1-2.49A40.55,40.55,0,0,1,551.83,88.34Z"/>
    <path class="cls-3" d="M567.41,9.82l1-2.49A43.25,43.25,0,0,0,551.83,4V6.72A40.63,40.63,0,0,1,567.41,9.82Z"/>
    <path class="cls-4" d="M580.67,18.68l1.89-1.89a43.66,43.66,0,0,0-14.13-9.46l-1,2.49A41,41,0,0,1,580.67,18.68Z"/>
    <path class="cls-4" d="M551.83,6.72V4a43.25,43.25,0,0,0-16.68,3.32l1,2.49A40.57,40.57,0,0,1,551.83,6.72Z"/>
    <path class="cls-4" d="M580.65,76.39l1.9,1.9A43.58,43.58,0,0,0,592,64.19l-2.49-1A40.93,40.93,0,0,1,580.65,76.39Z"/>
    <path class="cls-3" d="M567.41,85.24l1,2.49a43.65,43.65,0,0,0,14.11-9.43l-1.9-1.9A40.91,40.91,0,0,1,567.41,85.24Z"/>
    <path class="cls-3" d="M589.52,63.16l2.49,1a43.27,43.27,0,0,0,3.32-16.66h-2.69A40.57,40.57,0,0,1,589.52,63.16Z"/>
    <path class="cls-3" d="M535.15,7.35a43.65,43.65,0,0,0-14.08,9.46l1.89,1.9a40.88,40.88,0,0,1,13.21-8.86Z"/>
    <path class="cls-2" d="M544.47,47.53H527.52v0a24.29,24.29,0,0,0,1.84,9.27L545,50.33A7.37,7.37,0,0,1,544.47,47.53Z"/>
    <path class="cls-2" d="M557.09,42.27l12-12A24.42,24.42,0,0,0,561.11,25l-6.47,15.61A7.4,7.4,0,0,1,557.09,42.27Z"/>
    <path class="cls-1" d="M549,40.7l-6.47-15.62a24.39,24.39,0,0,0-7.87,5.28l12,12A7.4,7.4,0,0,1,549,40.7Z"/>
    <path class="cls-1" d="M546.61,52.71A7.41,7.41,0,0,1,545,50.33l-15.67,6.49a24.4,24.4,0,0,0,3.79,6.28l1-.73,10.68-7.87Z"/>
    <path class="cls-2" d="M534.63,30.36a24.4,24.4,0,0,0-5.25,7.88L545,44.72a7.39,7.39,0,0,1,1.58-2.4Z"/>
    <path class="cls-1" d="M544.46,47.5a7.36,7.36,0,0,1,.55-2.78l-15.64-6.48a24.24,24.24,0,0,0-1.85,9.28h16.94Z"/>
    <path class="cls-2" d="M557,52.77l12,12a24.33,24.33,0,0,0,5.3-7.91l-15.67-6.49A7.41,7.41,0,0,1,557,52.77Z"/>
    <path class="cls-1" d="M554.62,54.36,561.12,70A24.35,24.35,0,0,0,569,64.78l-12-12A7.39,7.39,0,0,1,554.62,54.36Z"/>
    <path class="cls-1" d="M558.67,50.38l15.67,6.49a24.27,24.27,0,0,0,1.86-9.32v0H559.25A7.38,7.38,0,0,1,558.67,50.38Z"/>
    <path class="cls-2" d="M546.61,52.71l-1.78,1.78.13-.09-8,10.81-.74,1a24.29,24.29,0,0,0,6.23,3.8L549,54.31A7.41,7.41,0,0,1,546.61,52.71Z"/>
    <path class="cls-2" d="M561.12,70l-6.5-15.69a7.36,7.36,0,0,1-2.76.54h0v17h0A24.25,24.25,0,0,0,561.12,70Z"/>
    <path class="cls-1" d="M551.83,54.89a7.37,7.37,0,0,1-2.85-.58L542.48,70a24.29,24.29,0,0,0,9.35,1.88Z"/>
    <path class="cls-2" d="M559.25,47.5v0H576.2a24.28,24.28,0,0,0-1.87-9.34l-15.64,6.48A7.37,7.37,0,0,1,559.25,47.5Z"/>
    <path class="cls-1" d="M558.69,44.67l15.64-6.48A24.41,24.41,0,0,0,569,30.31l-12,12A7.4,7.4,0,0,1,558.69,44.67Z"/>
    <path class="cls-1" d="M551.83,23.21v16.9h0a7.36,7.36,0,0,1,2.78.55L561.11,25a24.19,24.19,0,0,0-9.25-1.83Z"/>
    <path class="cls-2" d="M551.83,40.11V23.21a24.26,24.26,0,0,0-9.34,1.87L549,40.7A7.38,7.38,0,0,1,551.83,40.11Z"/>
    <path class="cls-4" d="M554.62,54.36a7.37,7.37,0,0,0,4.63-6.83v0a7.4,7.4,0,0,0-7.39-7.39h0a7.4,7.4,0,0,0-7.37,7.39v0a7.38,7.38,0,0,0,7.37,7.37h0A7.36,7.36,0,0,0,554.62,54.36Z"/>
    <path class="cls-5" d="M500,89.41v3.54q.87-1.28,1.82-2.63A3.38,3.38,0,0,0,500,89.41Z"/>
    <path class="cls-5" d="M509,97.54c-1.23.87-2.44,1.7-3.59,2.46h4.64A4,4,0,0,0,509,97.54Z"/>
    <polygon class="cls-6" points="544.83 54.49 534.14 62.36 536.99 65.21 544.96 54.4 544.83 54.49"/>
    <path class="cls-5" d="M537,65.21l-2.84-2.84-1,.73-1.69,1.25A8.6,8.6,0,0,1,535,67.89l1.24-1.69Z"/>
    <path class="cls-3" d="M533.5,65.85a8.59,8.59,0,0,0-12.16,0c-.59.59-1.88,2-3.6,4.07a40.85,40.85,0,0,1-3.62-6.8l-2.49,1a43.64,43.64,0,0,0,4.31,7.91l-1.74,2.11c-3.86,4.73-8.55,10.71-12.39,16.13q-.95,1.34-1.82,2.63v6.4ZM525,65.72a1.79,1.79,0,1,1,0,2.54A1.79,1.79,0,0,1,525,65.72Z"/>
    <path class="cls-7" d="M525.17,85.14l2.11-1.73,2.15-1.8c2-1.72,3.49-3,4.08-3.6a8.59,8.59,0,0,0,0-12.15L500,99.35V100h5.43c1.16-.76,2.36-1.59,3.59-2.46C514.46,93.7,520.44,89,525.17,85.14Z"/>
    <circle class="cls-8" cx="526.28" cy="66.99" r="1.8" transform="translate(106.79 391.77) rotate(-45)"/>
    <path class="cls-1" d="M627.52,47.55v0H611a40.57,40.57,0,0,0,3.1,15.6l15.23-6.31A24.29,24.29,0,0,1,627.52,47.55Z"/>
    <path class="cls-1" d="M661.11,25A24.42,24.42,0,0,1,669,30.31l11.63-11.63a41,41,0,0,0-13.26-8.87Z"/>
    <path class="cls-2" d="M642.49,25.08,636.18,9.85A40.88,40.88,0,0,0,623,18.71l11.66,11.65A24.39,24.39,0,0,1,642.49,25.08Z"/>
    <path class="cls-2" d="M614.13,63.13a40.87,40.87,0,0,0,4.2,7.65c4.72-5.93,8.9-10.81,10.11-12a8.62,8.62,0,0,1,1.33-1.09c-.13-.29-.28-.56-.4-.86Z"/>
    <path class="cls-1" d="M634.63,30.36,623,18.71a40.92,40.92,0,0,0-8.84,13.22l15.24,6.31A24.4,24.4,0,0,1,634.63,30.36Z"/>
    <path class="cls-2" d="M629.37,38.24l-15.24-6.31A40.58,40.58,0,0,0,611,47.52h16.5A24.24,24.24,0,0,1,629.37,38.24Z"/>
    <path class="cls-1" d="M669,64.78l11.61,11.61a40.93,40.93,0,0,0,8.87-13.23l-15.18-6.29A24.33,24.33,0,0,1,669,64.78Z"/>
    <path class="cls-2" d="M661.12,70l6.29,15.19a40.91,40.91,0,0,0,13.24-8.85L669,64.78A24.35,24.35,0,0,1,661.12,70Z"/>
    <path class="cls-2" d="M676.2,47.55a24.27,24.27,0,0,1-1.86,9.32l15.18,6.29a40.57,40.57,0,0,0,3.12-15.63H676.2Z"/>
    <path class="cls-1" d="M642.48,70c-.28-.12-.55-.26-.82-.39a8.64,8.64,0,0,1-1.07,1.3c-1.2,1.2-6.09,5.39-12,10.11a41,41,0,0,0,7.61,4.19Z"/>
    <path class="cls-1" d="M651.86,71.88h0V88.34a40.55,40.55,0,0,0,15.58-3.1L661.12,70A24.25,24.25,0,0,1,651.86,71.88Z"/>
    <path class="cls-2" d="M642.48,70l-6.3,15.21a40.57,40.57,0,0,0,15.65,3.12V71.88A24.29,24.29,0,0,1,642.48,70Z"/>
    <path class="cls-1" d="M676.2,47.53h16.44a40.54,40.54,0,0,0-3.12-15.62l-15.2,6.29A24.28,24.28,0,0,1,676.2,47.53Z"/>
    <path class="cls-2" d="M674.33,38.19l15.2-6.29a40.92,40.92,0,0,0-8.85-13.22L669,30.31A24.41,24.41,0,0,1,674.33,38.19Z"/>
    <path class="cls-2" d="M651.86,23.21A24.19,24.19,0,0,1,661.11,25l6.3-15.22a40.63,40.63,0,0,0-15.58-3.1V23.21Z"/>
    <path class="cls-1" d="M651.83,6.72a40.57,40.57,0,0,0-15.65,3.13l6.31,15.23a24.26,24.26,0,0,1,9.34-1.87Z"/>
    <path class="cls-2" d="M635.15,7.35a43.38,43.38,0,0,1,47.42,9.44c1,1,1.95,2,2.84,3.11-.89-1.09-1.84-2.12-2.84-3.11a43.34,43.34,0,0,0-61.5,0c-1,1-1.93,2-2.82,3.09.89-1.08,1.84-2.1,2.82-3.09A43.65,43.65,0,0,1,635.15,7.35Z"/>
    <path d="M684.48,14.88a46.16,46.16,0,0,0-78.82,32.61v0a46,46,0,0,0,9.24,27.63L616.59,73a43.19,43.19,0,0,1-8.26-25.46,43.34,43.34,0,0,1,9.92-27.62c.89-1.08,1.83-2.11,2.82-3.09a43.34,43.34,0,0,1,61.5,0c1,1,1.95,2,2.84,3.11a43.31,43.31,0,0,1,9.92,27.62h0a43.44,43.44,0,0,1-69,35.24l-2.17,1.68A46.16,46.16,0,0,0,698,47.53v0a46.1,46.1,0,0,0-13.52-32.61Z"/>
    <path class="cls-3" d="M636.18,85.21l-1,2.49A43.3,43.3,0,0,0,651.83,91V88.34A40.57,40.57,0,0,1,636.18,85.21Z"/>
    <path class="cls-4" d="M611,47.52h-2.69a43.31,43.31,0,0,0,3.31,16.64l2.49-1A40.57,40.57,0,0,1,611,47.52Z"/>
    <path class="cls-4" d="M628.57,81l-2.2,1.74a43.65,43.65,0,0,0,8.78,4.93l1-2.49A41,41,0,0,1,628.57,81Z"/>
    <path class="cls-3" d="M614.13,31.93l-2.49-1a43.22,43.22,0,0,0-3.31,16.63H611A40.58,40.58,0,0,1,614.13,31.93Z"/>
    <path class="cls-3" d="M680.67,18.68a40.92,40.92,0,0,1,8.85,13.22l2.49-1a43.6,43.6,0,0,0-6.61-11c-.89-1.09-1.85-2.12-2.84-3.11Z"/>
    <path class="cls-4" d="M692.64,47.52h2.69A43.26,43.26,0,0,0,692,30.87l-2.49,1A40.54,40.54,0,0,1,692.64,47.52Z"/>
    <path class="cls-4" d="M623,18.71l-1.89-1.9c-1,1-1.93,2-2.82,3.09a43.55,43.55,0,0,0-6.62,11l2.49,1A40.92,40.92,0,0,1,623,18.71Z"/>
    <path class="cls-4" d="M651.83,88.34V91a43.29,43.29,0,0,0,16.61-3.3l-1-2.49A40.55,40.55,0,0,1,651.83,88.34Z"/>
    <path class="cls-3" d="M667.41,9.82l1-2.49A43.25,43.25,0,0,0,651.83,4V6.72A40.63,40.63,0,0,1,667.41,9.82Z"/>
    <path class="cls-4" d="M680.67,18.68l1.89-1.89a43.66,43.66,0,0,0-14.13-9.46l-1,2.49A41,41,0,0,1,680.67,18.68Z"/>
    <path class="cls-4" d="M651.83,6.72V4a43.25,43.25,0,0,0-16.68,3.32l1,2.49A40.57,40.57,0,0,1,651.83,6.72Z"/>
    <path class="cls-4" d="M680.65,76.39l1.9,1.9A43.58,43.58,0,0,0,692,64.19l-2.49-1A40.93,40.93,0,0,1,680.65,76.39Z"/>
    <path class="cls-3" d="M667.41,85.24l1,2.49a43.65,43.65,0,0,0,14.11-9.43l-1.9-1.9A40.91,40.91,0,0,1,667.41,85.24Z"/>
    <path class="cls-3" d="M689.52,63.16l2.49,1a43.27,43.27,0,0,0,3.32-16.66h-2.69A40.57,40.57,0,0,1,689.52,63.16Z"/>
    <path class="cls-3" d="M635.15,7.35a43.65,43.65,0,0,0-14.08,9.46l1.89,1.9a40.88,40.88,0,0,1,13.21-8.86Z"/>
    <path class="cls-2" d="M627.52,47.52v0a24.29,24.29,0,0,0,1.84,9.27L645,50.33a7.37,7.37,0,0,1-.56-2.8Z"/>
    <path class="cls-2" d="M657.09,42.27l12-12A24.42,24.42,0,0,0,661.11,25l-6.47,15.61A7.4,7.4,0,0,1,657.09,42.27Z"/>
    <path class="cls-1" d="M649,40.7l-6.47-15.62a24.39,24.39,0,0,0-7.87,5.28l12,12A7.4,7.4,0,0,1,649,40.7Z"/>
    <path class="cls-1" d="M645.89,51.85a7.37,7.37,0,0,1-.86-1.52l-15.67,6.49c.12.29.27.57.4.86a8.6,8.6,0,0,1,8.79-.42l2.69-2Z"/>
    <path class="cls-2" d="M646.59,42.32l-12-12a24.4,24.4,0,0,0-5.25,7.88L645,44.72A7.39,7.39,0,0,1,646.59,42.32Z"/>
    <path class="cls-1" d="M644.46,47.5a7.36,7.36,0,0,1,.55-2.78l-15.64-6.48a24.24,24.24,0,0,0-1.85,9.28h16.94Z"/>
    <path class="cls-2" d="M657,52.77l12,12a24.33,24.33,0,0,0,5.3-7.91l-15.67-6.49A7.41,7.41,0,0,1,657,52.77Z"/>
    <path class="cls-1" d="M654.62,54.36,661.12,70A24.35,24.35,0,0,0,669,64.78l-12-12A7.39,7.39,0,0,1,654.62,54.36Z"/>
    <path class="cls-1" d="M658.67,50.38l15.67,6.49a24.27,24.27,0,0,0,1.86-9.32v0H659.25A7.38,7.38,0,0,1,658.67,50.38Z"/>
    <path class="cls-2" d="M649,54.31a7.36,7.36,0,0,1-1.48-.85l-3.43,4.65-2,2.69a8.61,8.61,0,0,1-.44,8.81c.28.13.54.27.82.39Z"/>
    <path class="cls-2" d="M651.86,54.89h0v17h0A24.25,24.25,0,0,0,661.12,70l-6.5-15.69A7.36,7.36,0,0,1,651.86,54.89Z"/>
    <path class="cls-1" d="M651.83,54.89a7.37,7.37,0,0,1-2.85-.58L642.48,70a24.29,24.29,0,0,0,9.35,1.88Z"/>
    <path class="cls-2" d="M659.25,47.5v0H676.2a24.28,24.28,0,0,0-1.87-9.34l-15.64,6.48A7.37,7.37,0,0,1,659.25,47.5Z"/>
    <path class="cls-1" d="M658.69,44.67l15.64-6.48A24.41,24.41,0,0,0,669,30.31l-12,12A7.4,7.4,0,0,1,658.69,44.67Z"/>
    <path class="cls-1" d="M651.83,23.21v16.9h0a7.36,7.36,0,0,1,2.78.55L661.11,25a24.19,24.19,0,0,0-9.25-1.83Z"/>
    <path class="cls-2" d="M651.83,40.11V23.21a24.26,24.26,0,0,0-9.34,1.87L649,40.7A7.38,7.38,0,0,1,651.83,40.11Z"/>
    <path class="cls-4" d="M651.86,54.89a7.38,7.38,0,0,0,7.39-7.37v0a7.4,7.4,0,0,0-7.39-7.39h0a7.4,7.4,0,0,0-7.37,7.39v0a7.29,7.29,0,0,0,1.42,4.32L652,47.31l-4.54,6.16a7.24,7.24,0,0,0,4.33,1.43Z"/>
    <path class="cls-5" d="M608.91,83.23a4.21,4.21,0,0,0-2.59-1,12.7,12.7,0,0,0-6.32,1V95.44c1.15-.8,2-2,2.56-1.89h0l0,0A74.4,74.4,0,0,1,608.91,83.23Z"/>
    <path class="cls-5" d="M605.82,96.81h0c.08.62-1.54,1.72-2.27,3.19h12.31a13,13,0,0,0,1.33-7,4.18,4.18,0,0,0-1.07-2.6,74.38,74.38,0,0,1-10.28,6.38Z"/>
    <polygon class="cls-6" points="652.05 47.31 645.89 51.85 641.24 55.27 644.08 58.12 647.5 53.47 652.05 47.31"/>
    <path class="cls-5" d="M641.24,55.27l-2.69,2a8.6,8.6,0,0,1,3.55,3.55l2-2.69Z"/>
    <path class="cls-3" d="M640.59,58.76a8.59,8.59,0,0,0-12.16,0c-1.2,1.2-5.39,6.09-10.11,12a40.87,40.87,0,0,1-4.2-7.65l-2.49,1A43.66,43.66,0,0,0,616.59,73l-1.69,2.17c-2.07,2.69-4.13,5.45-6,8.08a74.4,74.4,0,0,0-6.38,10.28l0,0,1.62,1.62Zm-8.48-.13a1.79,1.79,0,1,1,0,2.54A1.79,1.79,0,0,1,632.11,58.63Z"/>
    <path class="cls-7" d="M628.57,81c5.93-4.72,10.82-8.91,12-10.11a8.59,8.59,0,0,0,0-12.15L604.18,95.17l1.64,1.64h0a74.38,74.38,0,0,0,10.28-6.38c2.63-1.86,5.4-3.92,8.08-6l2.17-1.68Z"/>
    <circle class="cls-8" cx="633.37" cy="59.9" r="1.8" transform="translate(143.17 465.42) rotate(-45)"/>
    <path class="cls-1" d="M427.52,47.55v0H411a40.57,40.57,0,0,0,3.1,15.6l15.23-6.31A24.29,24.29,0,0,1,427.52,47.55Z"/>
    <path class="cls-1" d="M461.11,25A24.42,24.42,0,0,1,469,30.31l11.63-11.63a41,41,0,0,0-13.26-8.87Z"/>
    <path class="cls-2" d="M442.49,25.08,436.18,9.85A40.88,40.88,0,0,0,423,18.71l11.66,11.65A24.39,24.39,0,0,1,442.49,25.08Z"/>
    <path class="cls-2" d="M433.79,63.81a24.36,24.36,0,0,1-4.43-7l-15.23,6.31a40.86,40.86,0,0,0,3.47,6.56,8.59,8.59,0,0,1,9.37-.85l2.69-2Z"/>
    <path class="cls-1" d="M434.63,30.36,423,18.71a40.92,40.92,0,0,0-8.84,13.22l15.24,6.31A24.4,24.4,0,0,1,434.63,30.36Z"/>
    <path class="cls-2" d="M414.13,31.93A40.58,40.58,0,0,0,411,47.52h16.5a24.24,24.24,0,0,1,1.85-9.28Z"/>
    <path class="cls-1" d="M469,64.78l11.61,11.61a40.93,40.93,0,0,0,8.87-13.23l-15.18-6.29A24.33,24.33,0,0,1,469,64.78Z"/>
    <path class="cls-2" d="M461.12,70l6.29,15.19a40.91,40.91,0,0,0,13.24-8.85L469,64.78A24.35,24.35,0,0,1,461.12,70Z"/>
    <path class="cls-2" d="M476.2,47.55a24.27,24.27,0,0,1-1.86,9.32l15.18,6.29a40.57,40.57,0,0,0,3.12-15.63H476.2Z"/>
    <path class="cls-1" d="M442.48,70a24.28,24.28,0,0,1-6.94-4.44l-3.05,4.14-2,2.68a8.6,8.6,0,0,1-.85,9.37,41,41,0,0,0,6.52,3.45Z"/>
    <path class="cls-1" d="M451.86,71.88h0V88.34a40.55,40.55,0,0,0,15.58-3.1L461.12,70A24.25,24.25,0,0,1,451.86,71.88Z"/>
    <path class="cls-2" d="M451.83,71.88A24.29,24.29,0,0,1,442.48,70l-6.3,15.21a40.57,40.57,0,0,0,15.65,3.12Z"/>
    <path class="cls-1" d="M476.2,47.53h16.44a40.54,40.54,0,0,0-3.12-15.62l-15.2,6.29A24.28,24.28,0,0,1,476.2,47.53Z"/>
    <path class="cls-2" d="M474.33,38.19l15.2-6.29a40.92,40.92,0,0,0-8.85-13.22L469,30.31A24.41,24.41,0,0,1,474.33,38.19Z"/>
    <path class="cls-2" d="M451.86,23.21A24.19,24.19,0,0,1,461.11,25l6.3-15.22a40.63,40.63,0,0,0-15.58-3.1V23.21Z"/>
    <path class="cls-1" d="M451.83,6.72a40.57,40.57,0,0,0-15.65,3.13l6.31,15.23a24.26,24.26,0,0,1,9.34-1.87Z"/>
    <path class="cls-2" d="M435.15,7.35a43.38,43.38,0,0,1,47.42,9.44c1,1,1.95,2,2.84,3.11-.89-1.09-1.84-2.12-2.84-3.11a43.34,43.34,0,0,0-61.5,0c-1,1-1.93,2-2.82,3.09.89-1.08,1.84-2.1,2.82-3.09A43.65,43.65,0,0,1,435.15,7.35Z"/>
    <path d="M411.64,64.16a43.39,43.39,0,0,1,6.62-44.26c.89-1.08,1.83-2.11,2.82-3.09a43.34,43.34,0,0,1,61.5,0c1,1,1.95,2,2.84,3.11a43.31,43.31,0,0,1,9.92,27.62h0A43.45,43.45,0,0,1,427.7,83.7c-.56.5-1.25,1.1-2,1.78a46.16,46.16,0,0,0,72.34-38v0A46.16,46.16,0,0,0,434.12,4.85a46.37,46.37,0,0,0-25,25,45.91,45.91,0,0,0-3.5,17.62v0a45.85,45.85,0,0,0,8.2,26.18c.69-.8,1.29-1.5,1.79-2.06A43.66,43.66,0,0,1,411.64,64.16Z"/>
    <path class="cls-3" d="M436.18,85.21l-1,2.49A43.3,43.3,0,0,0,451.83,91V88.34A40.57,40.57,0,0,1,436.18,85.21Z"/>
    <path class="cls-4" d="M408.33,47.52a43.31,43.31,0,0,0,3.31,16.64l2.49-1a40.57,40.57,0,0,1-3.1-15.6Z"/>
    <path class="cls-4" d="M436.18,85.21a41,41,0,0,1-6.52-3.45,8.66,8.66,0,0,1-.66.74c-.26.26-.71.67-1.3,1.2a43.66,43.66,0,0,0,7.45,4Z"/>
    <path class="cls-3" d="M414.13,31.93l-2.49-1a43.22,43.22,0,0,0-3.31,16.63H411A40.58,40.58,0,0,1,414.13,31.93Z"/>
    <path class="cls-3" d="M480.67,18.68a40.92,40.92,0,0,1,8.85,13.22l2.49-1a43.6,43.6,0,0,0-6.61-11c-.89-1.09-1.85-2.12-2.84-3.11Z"/>
    <path class="cls-4" d="M492.64,47.52h2.69A43.26,43.26,0,0,0,492,30.87l-2.49,1A40.54,40.54,0,0,1,492.64,47.52Z"/>
    <path class="cls-4" d="M423,18.71l-1.89-1.9c-1,1-1.93,2-2.82,3.09a43.55,43.55,0,0,0-6.62,11l2.49,1A40.92,40.92,0,0,1,423,18.71Z"/>
    <path class="cls-4" d="M451.83,88.34V91a43.29,43.29,0,0,0,16.61-3.3l-1-2.49A40.55,40.55,0,0,1,451.83,88.34Z"/>
    <path class="cls-3" d="M467.41,9.82l1-2.49A43.25,43.25,0,0,0,451.83,4V6.72A40.63,40.63,0,0,1,467.41,9.82Z"/>
    <path class="cls-4" d="M480.67,18.68l1.89-1.89a43.66,43.66,0,0,0-14.13-9.46l-1,2.49A41,41,0,0,1,480.67,18.68Z"/>
    <path class="cls-4" d="M451.83,6.72V4a43.25,43.25,0,0,0-16.68,3.32l1,2.49A40.57,40.57,0,0,1,451.83,6.72Z"/>
    <path class="cls-4" d="M480.65,76.39l1.9,1.9A43.58,43.58,0,0,0,492,64.19l-2.49-1A40.93,40.93,0,0,1,480.65,76.39Z"/>
    <path class="cls-3" d="M467.41,85.24l1,2.49a43.65,43.65,0,0,0,14.11-9.43l-1.9-1.9A40.91,40.91,0,0,1,467.41,85.24Z"/>
    <path class="cls-3" d="M489.52,63.16l2.49,1a43.27,43.27,0,0,0,3.32-16.66h-2.69A40.57,40.57,0,0,1,489.52,63.16Z"/>
    <path class="cls-3" d="M435.15,7.35a43.65,43.65,0,0,0-14.08,9.46l1.89,1.9a40.88,40.88,0,0,1,13.21-8.86Z"/>
    <path class="cls-2" d="M444.47,47.53H427.52v0a24.29,24.29,0,0,0,1.84,9.27L445,50.33A7.37,7.37,0,0,1,444.47,47.53Z"/>
    <path class="cls-2" d="M457.09,42.27l12-12A24.42,24.42,0,0,0,461.11,25l-6.47,15.61A7.4,7.4,0,0,1,457.09,42.27Z"/>
    <path class="cls-1" d="M449,40.7l-6.47-15.62a24.39,24.39,0,0,0-7.87,5.28l12,12A7.4,7.4,0,0,1,449,40.7Z"/>
    <path class="cls-1" d="M446.61,52.71A7.41,7.41,0,0,1,445,50.33l-15.67,6.49a24.36,24.36,0,0,0,4.43,7L440.33,59Z"/>
    <path class="cls-2" d="M434.63,30.36a24.4,24.4,0,0,0-5.25,7.88L445,44.72a7.39,7.39,0,0,1,1.58-2.4Z"/>
    <path class="cls-1" d="M444.46,47.5a7.36,7.36,0,0,1,.55-2.78l-15.64-6.48a24.24,24.24,0,0,0-1.85,9.28h16.94Z"/>
    <path class="cls-2" d="M457,52.77l12,12a24.33,24.33,0,0,0,5.3-7.91l-15.67-6.49A7.41,7.41,0,0,1,457,52.77Z"/>
    <path class="cls-1" d="M454.62,54.36,461.12,70A24.35,24.35,0,0,0,469,64.78l-12-12A7.39,7.39,0,0,1,454.62,54.36Z"/>
    <path class="cls-1" d="M458.67,50.38l15.67,6.49a24.27,24.27,0,0,0,1.86-9.32v0H459.25A7.38,7.38,0,0,1,458.67,50.38Z"/>
    <path class="cls-2" d="M446.61,52.71,440.33,59l.13-.09-4.92,6.67A24.28,24.28,0,0,0,442.48,70L449,54.31A7.41,7.41,0,0,1,446.61,52.71Z"/>
    <path class="cls-2" d="M461.12,70l-6.5-15.69a7.36,7.36,0,0,1-2.76.54h0v17h0A24.25,24.25,0,0,0,461.12,70Z"/>
    <path class="cls-1" d="M451.83,54.89a7.37,7.37,0,0,1-2.85-.58L442.48,70a24.29,24.29,0,0,0,9.35,1.88Z"/>
    <path class="cls-2" d="M459.25,47.5v0H476.2a24.28,24.28,0,0,0-1.87-9.34l-15.64,6.48A7.37,7.37,0,0,1,459.25,47.5Z"/>
    <path class="cls-1" d="M458.69,44.67l15.64-6.48A24.41,24.41,0,0,0,469,30.31l-12,12A7.4,7.4,0,0,1,458.69,44.67Z"/>
    <path class="cls-1" d="M451.83,23.21v16.9h0a7.36,7.36,0,0,1,2.78.55L461.11,25a24.19,24.19,0,0,0-9.25-1.83Z"/>
    <path class="cls-2" d="M451.83,40.11V23.21a24.26,24.26,0,0,0-9.34,1.87L449,40.7A7.38,7.38,0,0,1,451.83,40.11Z"/>
    <path class="cls-4" d="M454.62,54.36a7.37,7.37,0,0,0,4.63-6.83v0a7.4,7.4,0,0,0-7.39-7.39h0a7.4,7.4,0,0,0-7.37,7.39v0a7.38,7.38,0,0,0,7.37,7.37h0A7.36,7.36,0,0,0,454.62,54.36Z"/>
    <polygon class="cls-6" points="440.33 58.99 433.79 63.81 429.65 66.86 432.49 69.7 435.54 65.56 440.46 58.89 440.33 58.99"/>
    <path class="cls-5" d="M429.65,66.86l-2.69,2a8.6,8.6,0,0,1,3.55,3.55l2-2.68Z"/>
    <path class="cls-3" d="M429,70.35a8.59,8.59,0,0,0-11.41-.66,40.86,40.86,0,0,1-3.47-6.56l-2.49,1a43.66,43.66,0,0,0,4,7.49c-.5.56-1.1,1.25-1.79,2.06-3.44,4-9,10.83-13.86,17.42v8.23Zm-8.48-.13a1.79,1.79,0,1,1,0,2.54A1.79,1.79,0,0,1,420.52,70.22Z"/>
    <path class="cls-7" d="M427.7,83.7c.59-.53,1-.94,1.3-1.2a8.59,8.59,0,0,0,0-12.15l-29,29V100h7.35c6.86-5,14.09-10.92,18.3-14.52C426.45,84.8,427.15,84.2,427.7,83.7Z"/>
    <circle class="cls-8" cx="421.79" cy="71.48" r="1.8" transform="translate(73 319.2) rotate(-45)"/>
    <path class="cls-1" d="M327.52,47.55v0H311a40.58,40.58,0,0,0,3.1,15.6l15.23-6.31A24.29,24.29,0,0,1,327.52,47.55Z"/>
    <path class="cls-1" d="M361.11,25A24.42,24.42,0,0,1,369,30.31l11.63-11.63a41,41,0,0,0-13.26-8.87Z"/>
    <path class="cls-2" d="M342.49,25.08,336.18,9.85A40.88,40.88,0,0,0,323,18.71l11.66,11.65A24.39,24.39,0,0,1,342.49,25.08Z"/>
    <path class="cls-2" d="M333.82,65.49l.78-.78a24.37,24.37,0,0,1-5.25-7.89l-15.23,6.31a40.94,40.94,0,0,0,7.26,11.54l1.76-1.3Z"/>
    <path class="cls-1" d="M334.63,30.36,323,18.71a40.92,40.92,0,0,0-8.84,13.22l15.24,6.31A24.4,24.4,0,0,1,334.63,30.36Z"/>
    <path class="cls-2" d="M314.13,31.93A40.58,40.58,0,0,0,311,47.52h16.5a24.24,24.24,0,0,1,1.85-9.28Z"/>
    <path class="cls-1" d="M369,64.78l11.61,11.61a40.93,40.93,0,0,0,8.87-13.23l-15.18-6.29A24.33,24.33,0,0,1,369,64.78Z"/>
    <path class="cls-2" d="M361.12,70l6.29,15.19a40.91,40.91,0,0,0,13.24-8.85L369,64.78A24.35,24.35,0,0,1,361.12,70Z"/>
    <path class="cls-2" d="M376.2,47.55a24.27,24.27,0,0,1-1.86,9.32l15.18,6.29a40.57,40.57,0,0,0,3.12-15.63H376.2Z"/>
    <path class="cls-1" d="M334.61,64.71l-.78.78.13-.1-8,10.81L324.69,78a41,41,0,0,0,11.49,7.25L342.48,70A24.33,24.33,0,0,1,334.61,64.71Z"/>
    <path class="cls-1" d="M351.86,71.88h0V88.34a40.55,40.55,0,0,0,15.58-3.1L361.12,70A24.25,24.25,0,0,1,351.86,71.88Z"/>
    <path class="cls-2" d="M351.83,71.88A24.29,24.29,0,0,1,342.48,70l-6.3,15.21a40.57,40.57,0,0,0,15.65,3.12Z"/>
    <path class="cls-1" d="M376.2,47.53h16.44a40.54,40.54,0,0,0-3.12-15.62l-15.2,6.29A24.28,24.28,0,0,1,376.2,47.53Z"/>
    <path class="cls-2" d="M374.33,38.19l15.2-6.29a40.92,40.92,0,0,0-8.85-13.22L369,30.31A24.41,24.41,0,0,1,374.33,38.19Z"/>
    <path class="cls-2" d="M351.86,23.21A24.19,24.19,0,0,1,361.11,25l6.3-15.22a40.63,40.63,0,0,0-15.58-3.1V23.21Z"/>
    <path class="cls-1" d="M351.83,6.72a40.57,40.57,0,0,0-15.65,3.13l6.31,15.23a24.26,24.26,0,0,1,9.34-1.87Z"/>
    <path class="cls-2" d="M335.15,7.35a43.38,43.38,0,0,1,47.42,9.44c1,1,1.95,2,2.84,3.11-.89-1.09-1.84-2.12-2.84-3.11a43.34,43.34,0,0,0-61.5,0c-1,1-1.93,2-2.82,3.09.89-1.08,1.84-2.1,2.82-3.09A43.65,43.65,0,0,1,335.15,7.35Z"/>
    <path d="M317.69,74.44a43.22,43.22,0,0,1-9.36-26.91,43.34,43.34,0,0,1,9.92-27.62c.89-1.08,1.83-2.11,2.82-3.09a43.34,43.34,0,0,1,61.5,0c1,1,1.95,2,2.84,3.11a43.31,43.31,0,0,1,9.92,27.62h0a43.44,43.44,0,0,1-70.42,34.13,8.63,8.63,0,0,1-.13,3.21A46.16,46.16,0,0,0,398,47.53v0A46.16,46.16,0,0,0,334.12,4.85a46.37,46.37,0,0,0-25,25,45.91,45.91,0,0,0-3.5,17.62v0a45.9,45.9,0,0,0,8.81,27A8.62,8.62,0,0,1,317.69,74.44Z"/>
    <path class="cls-3" d="M336.18,85.21l-1,2.49A43.3,43.3,0,0,0,351.83,91V88.34A40.57,40.57,0,0,1,336.18,85.21Z"/>
    <path class="cls-4" d="M308.33,47.52a43.31,43.31,0,0,0,3.31,16.64l2.49-1a40.58,40.58,0,0,1-3.1-15.6Z"/>
    <path class="cls-4" d="M336.18,85.21A41,41,0,0,1,324.69,78l-.68.92a8.55,8.55,0,0,1,.9,2.77,43.67,43.67,0,0,0,10.24,6Z"/>
    <path class="cls-3" d="M314.13,31.93l-2.49-1a43.22,43.22,0,0,0-3.31,16.63H311A40.58,40.58,0,0,1,314.13,31.93Z"/>
    <path class="cls-3" d="M380.67,18.68a40.92,40.92,0,0,1,8.85,13.22l2.49-1a43.6,43.6,0,0,0-6.61-11c-.89-1.09-1.85-2.12-2.84-3.11Z"/>
    <path class="cls-4" d="M392.64,47.52h2.69A43.26,43.26,0,0,0,392,30.87l-2.49,1A40.54,40.54,0,0,1,392.64,47.52Z"/>
    <path class="cls-4" d="M323,18.71l-1.89-1.9c-1,1-1.93,2-2.82,3.09a43.55,43.55,0,0,0-6.62,11l2.49,1A40.92,40.92,0,0,1,323,18.71Z"/>
    <path class="cls-4" d="M351.83,88.34V91a43.29,43.29,0,0,0,16.61-3.3l-1-2.49A40.55,40.55,0,0,1,351.83,88.34Z"/>
    <path class="cls-3" d="M367.41,9.82l1-2.49A43.25,43.25,0,0,0,351.83,4V6.72A40.63,40.63,0,0,1,367.41,9.82Z"/>
    <path class="cls-4" d="M380.67,18.68l1.89-1.89a43.66,43.66,0,0,0-14.13-9.46l-1,2.49A41,41,0,0,1,380.67,18.68Z"/>
    <path class="cls-4" d="M351.83,6.72V4a43.25,43.25,0,0,0-16.68,3.32l1,2.49A40.57,40.57,0,0,1,351.83,6.72Z"/>
    <path class="cls-4" d="M380.65,76.39l1.9,1.9A43.58,43.58,0,0,0,392,64.19l-2.49-1A40.93,40.93,0,0,1,380.65,76.39Z"/>
    <path class="cls-3" d="M367.41,85.24l1,2.49a43.65,43.65,0,0,0,14.11-9.43l-1.9-1.9A40.91,40.91,0,0,1,367.41,85.24Z"/>
    <path class="cls-3" d="M389.52,63.16l2.49,1a43.27,43.27,0,0,0,3.32-16.66h-2.69A40.57,40.57,0,0,1,389.52,63.16Z"/>
    <path class="cls-3" d="M335.15,7.35a43.65,43.65,0,0,0-14.08,9.46l1.89,1.9a40.88,40.88,0,0,1,13.21-8.86Z"/>
    <path class="cls-2" d="M344.47,47.53H327.52v0a24.29,24.29,0,0,0,1.84,9.27L345,50.33A7.37,7.37,0,0,1,344.47,47.53Z"/>
    <path class="cls-2" d="M357.09,42.27l12-12A24.42,24.42,0,0,0,361.11,25l-6.47,15.61A7.4,7.4,0,0,1,357.09,42.27Z"/>
    <path class="cls-1" d="M349,40.7l-6.47-15.62a24.39,24.39,0,0,0-7.87,5.28l12,12A7.4,7.4,0,0,1,349,40.7Z"/>
    <path class="cls-1" d="M345,50.33l-15.67,6.49a24.37,24.37,0,0,0,5.25,7.89l12-12A7.41,7.41,0,0,1,345,50.33Z"/>
    <path class="cls-2" d="M334.63,30.36a24.4,24.4,0,0,0-5.25,7.88L345,44.72a7.4,7.4,0,0,1,1.58-2.4Z"/>
    <path class="cls-1" d="M344.46,47.5a7.36,7.36,0,0,1,.55-2.78l-15.64-6.48a24.24,24.24,0,0,0-1.85,9.28h16.94Z"/>
    <path class="cls-2" d="M357,52.77l12,12a24.33,24.33,0,0,0,5.3-7.91l-15.67-6.49A7.4,7.4,0,0,1,357,52.77Z"/>
    <path class="cls-1" d="M354.62,54.36,361.12,70A24.35,24.35,0,0,0,369,64.78l-12-12A7.39,7.39,0,0,1,354.62,54.36Z"/>
    <path class="cls-1" d="M358.67,50.38l15.67,6.49a24.27,24.27,0,0,0,1.86-9.32v0H359.25A7.38,7.38,0,0,1,358.67,50.38Z"/>
    <path class="cls-2" d="M349,54.31a7.41,7.41,0,0,1-2.37-1.6l-12,12A24.33,24.33,0,0,0,342.48,70Z"/>
    <path class="cls-2" d="M361.12,70l-6.5-15.69a7.36,7.36,0,0,1-2.76.54h0v17h0A24.25,24.25,0,0,0,361.12,70Z"/>
    <path class="cls-1" d="M349,54.31,342.48,70a24.29,24.29,0,0,0,9.35,1.88v-17A7.37,7.37,0,0,1,349,54.31Z"/>
    <path class="cls-2" d="M359.25,47.5v0H376.2a24.28,24.28,0,0,0-1.87-9.34l-15.64,6.48A7.37,7.37,0,0,1,359.25,47.5Z"/>
    <path class="cls-1" d="M358.69,44.67l15.64-6.48A24.41,24.41,0,0,0,369,30.31l-12,12A7.4,7.4,0,0,1,358.69,44.67Z"/>
    <path class="cls-1" d="M351.83,23.21v16.9h0a7.36,7.36,0,0,1,2.78.55L361.11,25a24.19,24.19,0,0,0-9.25-1.83Z"/>
    <path class="cls-2" d="M351.83,40.11V23.21a24.26,24.26,0,0,0-9.34,1.87L349,40.7A7.38,7.38,0,0,1,351.83,40.11Z"/>
    <path class="cls-4" d="M351.86,54.89a7.38,7.38,0,0,0,7.39-7.37v0a7.4,7.4,0,0,0-7.39-7.39h0a7.4,7.4,0,0,0-7.37,7.39v0a7.38,7.38,0,0,0,7.37,7.37Z"/>
    <polygon class="cls-6" points="333.82 65.5 323.14 73.36 325.99 76.21 333.95 65.4 333.82 65.5"/>
    <path class="cls-5" d="M326,76.21l-2.84-2.84-1.76,1.3-.92.68A8.6,8.6,0,0,1,324,78.89l.68-.92Z"/>
    <path class="cls-3" d="M322.5,76.85a8.59,8.59,0,0,0-2-1.51l.92-.68a40.94,40.94,0,0,1-7.26-11.54l-2.49,1a43.67,43.67,0,0,0,6.05,10.28,8.61,8.61,0,0,0-7.35,2.42c-1.22,1.22-5.53,6.25-10.34,12.31V99.35ZM314,79.26a1.8,1.8,0,1,1,2.54,0A1.79,1.79,0,0,1,314,79.26Z"/>
    <path class="cls-7" d="M324.78,84.87a8.57,8.57,0,0,0-2.29-8L300,99.35V100h9.37c6.42-5.07,11.85-9.71,13.13-11A8.55,8.55,0,0,0,324.78,84.87Z"/>
    <circle class="cls-8" cx="315.28" cy="77.99" r="1.8" transform="translate(37.21 245.79) rotate(-45)"/>
    <path class="cls-1" d="M227.52,47.52H211a40.58,40.58,0,0,0,3.1,15.6l15.23-6.31a24.29,24.29,0,0,1-1.84-9.27Z"/>
    <path class="cls-1" d="M261.11,25A24.42,24.42,0,0,1,269,30.31l11.63-11.63a41,41,0,0,0-13.26-8.87Z"/>
    <path class="cls-2" d="M242.49,25.08,236.18,9.85A40.88,40.88,0,0,0,223,18.71l11.66,11.65A24.39,24.39,0,0,1,242.49,25.08Z"/>
    <path class="cls-2" d="M229.36,56.82l-15.23,6.31a41,41,0,0,0,8.79,13.17l.41-.3,11.29-11.28A24.37,24.37,0,0,1,229.36,56.82Z"/>
    <path class="cls-1" d="M234.63,30.36,223,18.71a40.92,40.92,0,0,0-8.84,13.22l15.24,6.31A24.4,24.4,0,0,1,234.63,30.36Z"/>
    <path class="cls-2" d="M229.37,38.24l-15.24-6.31A40.58,40.58,0,0,0,211,47.52h16.5A24.24,24.24,0,0,1,229.37,38.24Z"/>
    <path class="cls-1" d="M269,64.78l11.61,11.61a40.93,40.93,0,0,0,8.87-13.23l-15.18-6.29A24.33,24.33,0,0,1,269,64.78Z"/>
    <path class="cls-2" d="M261.12,70l6.29,15.19a40.91,40.91,0,0,0,13.24-8.85L269,64.78A24.35,24.35,0,0,1,261.12,70Z"/>
    <path class="cls-2" d="M276.2,47.55a24.27,24.27,0,0,1-1.86,9.32l15.18,6.29a40.57,40.57,0,0,0,3.12-15.63H276.2Z"/>
    <path class="cls-1" d="M242.48,70a24.33,24.33,0,0,1-7.87-5.29L223.32,76l.13-.1-.4.54a41,41,0,0,0,13.12,8.78Z"/>
    <path class="cls-1" d="M251.86,71.88h0V88.34a40.55,40.55,0,0,0,15.58-3.1L261.12,70A24.25,24.25,0,0,1,251.86,71.88Z"/>
    <path class="cls-2" d="M251.83,71.88A24.29,24.29,0,0,1,242.48,70l-6.3,15.21a40.57,40.57,0,0,0,15.65,3.12Z"/>
    <path class="cls-1" d="M276.2,47.53h16.44a40.54,40.54,0,0,0-3.12-15.62l-15.2,6.29A24.28,24.28,0,0,1,276.2,47.53Z"/>
    <path class="cls-2" d="M274.33,38.19l15.2-6.29a40.92,40.92,0,0,0-8.85-13.22L269,30.31A24.41,24.41,0,0,1,274.33,38.19Z"/>
    <path class="cls-2" d="M251.86,23.21A24.19,24.19,0,0,1,261.11,25l6.3-15.22a40.63,40.63,0,0,0-15.58-3.1V23.21Z"/>
    <path class="cls-1" d="M251.83,6.72a40.57,40.57,0,0,0-15.65,3.13l6.31,15.23a24.26,24.26,0,0,1,9.34-1.87Z"/>
    <path class="cls-2" d="M235.15,7.35a43.38,43.38,0,0,1,47.42,9.44c1,1,1.95,2,2.84,3.11-.89-1.09-1.84-2.12-2.84-3.11a43.34,43.34,0,0,0-61.5,0c-1,1-1.93,2-2.82,3.09.89-1.08,1.84-2.1,2.82-3.09A43.65,43.65,0,0,1,235.15,7.35Z"/>
    <path d="M211.64,64.16a43.39,43.39,0,0,1,6.62-44.26c.89-1.08,1.83-2.11,2.82-3.09a43.34,43.34,0,0,1,61.5,0c1,1,1.95,2,2.84,3.11a43.31,43.31,0,0,1,9.92,27.62h0a43.46,43.46,0,0,1-73.88,31.09l-1.58,2.14A46.15,46.15,0,0,0,298,47.53v0A46.16,46.16,0,0,0,234.12,4.85a46.37,46.37,0,0,0-25,25,45.91,45.91,0,0,0-3.5,17.62v0a45.88,45.88,0,0,0,3.53,17.65,46.37,46.37,0,0,0,9.4,14.31l2.14-1.58A43.7,43.7,0,0,1,211.64,64.16Z"/>
    <path class="cls-3" d="M236.18,85.21l-1,2.49A43.3,43.3,0,0,0,251.83,91V88.34A40.57,40.57,0,0,1,236.18,85.21Z"/>
    <path class="cls-4" d="M211,47.52h-2.69a43.31,43.31,0,0,0,3.31,16.64l2.49-1A40.58,40.58,0,0,1,211,47.52Z"/>
    <path class="cls-3" d="M211.64,64.16a43.7,43.7,0,0,0,9.1,13.74l2.18-1.61a41,41,0,0,1-8.79-13.17Z"/>
    <path class="cls-4" d="M236.18,85.21a41,41,0,0,1-13.12-8.78l-1.61,2.18a43.68,43.68,0,0,0,13.7,9.08Z"/>
    <path class="cls-3" d="M214.13,31.93l-2.49-1a43.22,43.22,0,0,0-3.31,16.63H211A40.58,40.58,0,0,1,214.13,31.93Z"/>
    <path class="cls-3" d="M280.67,18.68a40.92,40.92,0,0,1,8.85,13.22l2.49-1a43.6,43.6,0,0,0-6.61-11c-.89-1.09-1.85-2.12-2.84-3.11Z"/>
    <path class="cls-4" d="M292.64,47.52h2.69A43.26,43.26,0,0,0,292,30.87l-2.49,1A40.54,40.54,0,0,1,292.64,47.52Z"/>
    <path class="cls-4" d="M223,18.71l-1.89-1.9c-1,1-1.93,2-2.82,3.09a43.55,43.55,0,0,0-6.62,11l2.49,1A40.92,40.92,0,0,1,223,18.71Z"/>
    <path class="cls-4" d="M251.83,88.34V91a43.29,43.29,0,0,0,16.61-3.3l-1-2.49A40.55,40.55,0,0,1,251.83,88.34Z"/>
    <path class="cls-3" d="M267.41,9.82l1-2.49A43.25,43.25,0,0,0,251.83,4V6.72A40.63,40.63,0,0,1,267.41,9.82Z"/>
    <path class="cls-4" d="M280.67,18.68l1.89-1.89a43.66,43.66,0,0,0-14.13-9.46l-1,2.49A41,41,0,0,1,280.67,18.68Z"/>
    <path class="cls-4" d="M251.83,6.72V4a43.25,43.25,0,0,0-16.68,3.32l1,2.49A40.57,40.57,0,0,1,251.83,6.72Z"/>
    <path class="cls-4" d="M280.65,76.39l1.9,1.9A43.58,43.58,0,0,0,292,64.19l-2.49-1A40.93,40.93,0,0,1,280.65,76.39Z"/>
    <path class="cls-3" d="M267.41,85.24l1,2.49a43.65,43.65,0,0,0,14.11-9.43l-1.9-1.9A40.91,40.91,0,0,1,267.41,85.24Z"/>
    <path class="cls-3" d="M289.52,63.16l2.49,1a43.27,43.27,0,0,0,3.32-16.66h-2.69A40.57,40.57,0,0,1,289.52,63.16Z"/>
    <path class="cls-3" d="M235.15,7.35a43.65,43.65,0,0,0-14.08,9.46l1.89,1.9a40.88,40.88,0,0,1,13.21-8.86Z"/>
    <path class="cls-2" d="M244.47,47.53H227.52v0a24.29,24.29,0,0,0,1.84,9.27L245,50.33A7.37,7.37,0,0,1,244.47,47.53Z"/>
    <path class="cls-2" d="M257.09,42.27l12-12A24.42,24.42,0,0,0,261.11,25l-6.47,15.61A7.4,7.4,0,0,1,257.09,42.27Z"/>
    <path class="cls-1" d="M249,40.7l-6.47-15.62a24.39,24.39,0,0,0-7.87,5.28l12,12A7.4,7.4,0,0,1,249,40.7Z"/>
    <path class="cls-1" d="M245,50.33l-15.67,6.49a24.37,24.37,0,0,0,5.25,7.89l12-12A7.41,7.41,0,0,1,245,50.33Z"/>
    <path class="cls-2" d="M246.59,42.32l-12-12a24.4,24.4,0,0,0-5.25,7.88L245,44.72A7.4,7.4,0,0,1,246.59,42.32Z"/>
    <path class="cls-1" d="M245,44.72l-15.64-6.48a24.24,24.24,0,0,0-1.85,9.28h16.94v0A7.36,7.36,0,0,1,245,44.72Z"/>
    <path class="cls-2" d="M257,52.77l12,12a24.33,24.33,0,0,0,5.3-7.91l-15.67-6.49A7.4,7.4,0,0,1,257,52.77Z"/>
    <path class="cls-1" d="M254.62,54.36,261.12,70A24.35,24.35,0,0,0,269,64.78l-12-12A7.39,7.39,0,0,1,254.62,54.36Z"/>
    <path class="cls-1" d="M258.67,50.38l15.67,6.49a24.27,24.27,0,0,0,1.86-9.32v0H259.25A7.38,7.38,0,0,1,258.67,50.38Z"/>
    <path class="cls-2" d="M246.61,52.71l-12,12A24.33,24.33,0,0,0,242.48,70L249,54.31A7.41,7.41,0,0,1,246.61,52.71Z"/>
    <path class="cls-2" d="M261.12,70l-6.5-15.69a7.36,7.36,0,0,1-2.76.54h0v17h0A24.25,24.25,0,0,0,261.12,70Z"/>
    <path class="cls-1" d="M251.83,54.89a7.37,7.37,0,0,1-2.85-.58L242.48,70a24.29,24.29,0,0,0,9.35,1.88Z"/>
    <path class="cls-2" d="M259.25,47.5v0H276.2a24.28,24.28,0,0,0-1.87-9.34l-15.64,6.48A7.37,7.37,0,0,1,259.25,47.5Z"/>
    <path class="cls-1" d="M258.69,44.67l15.64-6.48A24.41,24.41,0,0,0,269,30.31l-12,12A7.4,7.4,0,0,1,258.69,44.67Z"/>
    <path class="cls-1" d="M251.83,23.21v16.9h0a7.36,7.36,0,0,1,2.78.55L261.11,25a24.19,24.19,0,0,0-9.25-1.83Z"/>
    <path class="cls-2" d="M251.83,40.11V23.21a24.26,24.26,0,0,0-9.34,1.87L249,40.7A7.38,7.38,0,0,1,251.83,40.11Z"/>
    <path class="cls-4" d="M254.62,54.36a7.37,7.37,0,0,0,4.63-6.83v0a7.4,7.4,0,0,0-7.39-7.39h0a7.4,7.4,0,0,0-7.37,7.39v0a7.38,7.38,0,0,0,7.37,7.37h0A7.36,7.36,0,0,0,254.62,54.36Z"/>
    <polygon class="cls-6" points="219.87 80.76 221.45 78.62 223.06 76.44 223.46 75.9 223.32 76 222.91 76.3 220.73 77.9 218.59 79.48 212.65 83.86 215.49 86.71 219.87 80.76"/>
    <path class="cls-5" d="M213.51,89.39l2-2.68-2.84-2.84-2.69,2a8.6,8.6,0,0,1,3.55,3.55Z"/>
    <path class="cls-3" d="M212,87.35a8.58,8.58,0,0,0-12-.14V99.35Zm-8.48,2.4a1.8,1.8,0,1,1,2.54,0A1.79,1.79,0,0,1,203.51,89.76Z"/>
    <path class="cls-7" d="M213.51,89.39a8.58,8.58,0,0,0-1.51-2l-12,12V100h11.48l.52-.49A8.6,8.6,0,0,0,213.51,89.39Z"/>
    <circle class="cls-8" cx="204.78" cy="88.49" r="1.8" transform="translate(-2.59 170.73) rotate(-45)"/>
    <path class="cls-1" d="M127.52,47.55v0H111a40.58,40.58,0,0,0,3.1,15.6l15.23-6.31A24.29,24.29,0,0,1,127.52,47.55Z"/>
    <path class="cls-1" d="M161.11,25A24.42,24.42,0,0,1,169,30.31l11.63-11.63a41,41,0,0,0-13.26-8.87Z"/>
    <path class="cls-2" d="M142.49,25.08,136.18,9.85A40.88,40.88,0,0,0,123,18.71l11.66,11.65A24.39,24.39,0,0,1,142.49,25.08Z"/>
    <path class="cls-2" d="M129.36,56.82l-15.23,6.31A41,41,0,0,0,123,76.35l11.64-11.64A24.37,24.37,0,0,1,129.36,56.82Z"/>
    <path class="cls-1" d="M134.63,30.36,123,18.71a40.92,40.92,0,0,0-8.84,13.22l15.24,6.31A24.4,24.4,0,0,1,134.63,30.36Z"/>
    <path class="cls-2" d="M129.37,38.24l-15.24-6.31A40.58,40.58,0,0,0,111,47.52h16.5A24.24,24.24,0,0,1,129.37,38.24Z"/>
    <path class="cls-1" d="M169,64.78l11.61,11.61a40.93,40.93,0,0,0,8.87-13.23l-15.18-6.29A24.33,24.33,0,0,1,169,64.78Z"/>
    <path class="cls-2" d="M161.12,70l6.29,15.19a40.91,40.91,0,0,0,13.24-8.85L169,64.78A24.35,24.35,0,0,1,161.12,70Z"/>
    <path class="cls-2" d="M176.2,47.55a24.27,24.27,0,0,1-1.86,9.32l15.18,6.29a40.57,40.57,0,0,0,3.12-15.63H176.2Z"/>
    <path class="cls-1" d="M134.61,64.71,123,76.35a41,41,0,0,0,13.21,8.86L142.48,70A24.33,24.33,0,0,1,134.61,64.71Z"/>
    <path class="cls-1" d="M151.86,71.88h0V88.34a40.55,40.55,0,0,0,15.58-3.1L161.12,70A24.25,24.25,0,0,1,151.86,71.88Z"/>
    <path class="cls-2" d="M142.48,70l-6.3,15.21a40.57,40.57,0,0,0,15.65,3.12V71.88A24.29,24.29,0,0,1,142.48,70Z"/>
    <path class="cls-1" d="M176.2,47.53h16.44a40.54,40.54,0,0,0-3.12-15.62l-15.2,6.29A24.28,24.28,0,0,1,176.2,47.53Z"/>
    <path class="cls-2" d="M169,30.31a24.41,24.41,0,0,1,5.28,7.88l15.2-6.29a40.92,40.92,0,0,0-8.85-13.22Z"/>
    <path class="cls-2" d="M151.86,23.21A24.19,24.19,0,0,1,161.11,25l6.3-15.22a40.63,40.63,0,0,0-15.58-3.1V23.21Z"/>
    <path class="cls-1" d="M151.83,6.72a40.57,40.57,0,0,0-15.65,3.13l6.31,15.23a24.26,24.26,0,0,1,9.34-1.87Z"/>
    <path class="cls-2" d="M135.15,7.35a43.38,43.38,0,0,1,47.42,9.44c1,1,1.95,2,2.84,3.11-.89-1.09-1.84-2.12-2.84-3.11a43.34,43.34,0,0,0-61.5,0c-1,1-1.93,2-2.82,3.09.89-1.08,1.84-2.1,2.82-3.09A43.65,43.65,0,0,1,135.15,7.35Z"/>
    <path d="M194.49,29.84a46.17,46.17,0,0,0-88.83,17.65v0a45.88,45.88,0,0,0,3.53,17.65,46.18,46.18,0,0,0,42.64,28.48,46.12,46.12,0,0,0,32.59-13.5A46.08,46.08,0,0,0,198,47.53v0A45.91,45.91,0,0,0,194.49,29.84Zm.85,17.69a43.48,43.48,0,0,1-74.27,30.72,43.41,43.41,0,0,1-12.73-30.73,43.34,43.34,0,0,1,9.92-27.62c.89-1.08,1.83-2.11,2.82-3.09a43.34,43.34,0,0,1,61.5,0c1,1,1.95,2,2.84,3.11a43.31,43.31,0,0,1,9.92,27.62Z"/>
    <path class="cls-3" d="M136.18,85.21l-1,2.49A43.3,43.3,0,0,0,151.83,91V88.34A40.57,40.57,0,0,1,136.18,85.21Z"/>
    <path class="cls-4" d="M111,47.52h-2.69a43.31,43.31,0,0,0,3.31,16.64l2.49-1A40.58,40.58,0,0,1,111,47.52Z"/>
    <path class="cls-3" d="M114.13,63.13l-2.49,1a43.71,43.71,0,0,0,9.43,14.09l1.9-1.9A41,41,0,0,1,114.13,63.13Z"/>
    <path class="cls-4" d="M123,76.35l-1.9,1.9a43.69,43.69,0,0,0,14.09,9.45l1-2.49A41,41,0,0,1,123,76.35Z"/>
    <path class="cls-3" d="M114.13,31.93l-2.49-1a43.22,43.22,0,0,0-3.31,16.63H111A40.58,40.58,0,0,1,114.13,31.93Z"/>
    <path class="cls-3" d="M180.67,18.68a40.92,40.92,0,0,1,8.85,13.22l2.49-1a43.6,43.6,0,0,0-6.61-11c-.89-1.09-1.85-2.12-2.84-3.11Z"/>
    <path class="cls-4" d="M189.52,31.9a40.54,40.54,0,0,1,3.12,15.62h2.69A43.26,43.26,0,0,0,192,30.87Z"/>
    <path class="cls-4" d="M123,18.71l-1.89-1.9c-1,1-1.93,2-2.82,3.09a43.55,43.55,0,0,0-6.62,11l2.49,1A40.92,40.92,0,0,1,123,18.71Z"/>
    <path class="cls-4" d="M151.83,88.34V91a43.29,43.29,0,0,0,16.61-3.3l-1-2.49A40.55,40.55,0,0,1,151.83,88.34Z"/>
    <path class="cls-3" d="M167.41,9.82l1-2.49A43.25,43.25,0,0,0,151.83,4V6.72A40.63,40.63,0,0,1,167.41,9.82Z"/>
    <path class="cls-4" d="M180.67,18.68l1.89-1.89a43.66,43.66,0,0,0-14.13-9.46l-1,2.49A41,41,0,0,1,180.67,18.68Z"/>
    <path class="cls-4" d="M151.83,6.72V4a43.25,43.25,0,0,0-16.68,3.32l1,2.49A40.57,40.57,0,0,1,151.83,6.72Z"/>
    <path class="cls-4" d="M180.65,76.39l1.9,1.9A43.58,43.58,0,0,0,192,64.19l-2.49-1A40.93,40.93,0,0,1,180.65,76.39Z"/>
    <path class="cls-3" d="M167.41,85.24l1,2.49a43.65,43.65,0,0,0,14.11-9.43l-1.9-1.9A40.91,40.91,0,0,1,167.41,85.24Z"/>
    <path class="cls-3" d="M189.52,63.16l2.49,1a43.27,43.27,0,0,0,3.32-16.66h-2.69A40.57,40.57,0,0,1,189.52,63.16Z"/>
    <path class="cls-3" d="M135.15,7.35a43.65,43.65,0,0,0-14.08,9.46l1.89,1.9a40.88,40.88,0,0,1,13.21-8.86Z"/>
    <path class="cls-2" d="M144.47,47.53H127.52v0a24.29,24.29,0,0,0,1.84,9.27L145,50.33A7.37,7.37,0,0,1,144.47,47.53Z"/>
    <path class="cls-2" d="M154.64,40.65a7.4,7.4,0,0,1,2.45,1.62l12-12A24.42,24.42,0,0,0,161.11,25Z"/>
    <path class="cls-1" d="M149,40.7l-6.47-15.62a24.39,24.39,0,0,0-7.87,5.28l12,12A7.4,7.4,0,0,1,149,40.7Z"/>
    <path class="cls-1" d="M145,50.33l-15.67,6.49a24.37,24.37,0,0,0,5.25,7.89l12-12A7.41,7.41,0,0,1,145,50.33Z"/>
    <path class="cls-2" d="M146.59,42.32l-12-12a24.4,24.4,0,0,0-5.25,7.88L145,44.72A7.4,7.4,0,0,1,146.59,42.32Z"/>
    <path class="cls-1" d="M144.46,47.5a7.36,7.36,0,0,1,.55-2.78l-15.64-6.48a24.24,24.24,0,0,0-1.85,9.28h16.94Z"/>
    <path class="cls-2" d="M157,52.77l12,12a24.33,24.33,0,0,0,5.3-7.91l-15.67-6.49A7.4,7.4,0,0,1,157,52.77Z"/>
    <path class="cls-1" d="M154.62,54.36,161.12,70A24.35,24.35,0,0,0,169,64.78l-12-12A7.39,7.39,0,0,1,154.62,54.36Z"/>
    <path class="cls-1" d="M158.67,50.38l15.67,6.49a24.27,24.27,0,0,0,1.86-9.32v0H159.25A7.38,7.38,0,0,1,158.67,50.38Z"/>
    <path class="cls-2" d="M146.61,52.71l-12,12A24.33,24.33,0,0,0,142.48,70L149,54.31A7.41,7.41,0,0,1,146.61,52.71Z"/>
    <path class="cls-2" d="M151.86,54.89h0v17h0A24.25,24.25,0,0,0,161.12,70l-6.5-15.69A7.36,7.36,0,0,1,151.86,54.89Z"/>
    <path class="cls-1" d="M149,54.31,142.48,70a24.29,24.29,0,0,0,9.35,1.88v-17A7.37,7.37,0,0,1,149,54.31Z"/>
    <path class="cls-2" d="M159.25,47.5v0H176.2a24.28,24.28,0,0,0-1.87-9.34l-15.64,6.48A7.37,7.37,0,0,1,159.25,47.5Z"/>
    <path class="cls-1" d="M158.69,44.67l15.64-6.48A24.41,24.41,0,0,0,169,30.31l-12,12A7.4,7.4,0,0,1,158.69,44.67Z"/>
    <path class="cls-1" d="M151.83,23.21v16.9h0a7.36,7.36,0,0,1,2.78.55L161.11,25a24.19,24.19,0,0,0-9.25-1.83Z"/>
    <path class="cls-2" d="M151.83,40.11V23.21a24.26,24.26,0,0,0-9.34,1.87L149,40.7A7.38,7.38,0,0,1,151.83,40.11Z"/>
    <path class="cls-4" d="M151.83,40.11a7.4,7.4,0,0,0-7.37,7.39v0a7.38,7.38,0,0,0,7.37,7.37h0a7.38,7.38,0,0,0,7.39-7.37v0a7.4,7.4,0,0,0-7.39-7.39Z"/>
    <polygon class="cls-6" points="111.47 87.89 104.03 93.36 105.98 95.32 111.47 87.89"/>
    <path class="cls-5" d="M104.61,97.19,106,95.32l-2-2-1.87,1.38a5.36,5.36,0,0,1,2.45,2.45Z"/>
    <path class="cls-3" d="M103.59,95.77A6.17,6.17,0,0,0,100,94.09v5.26Z"/>
    <path class="cls-7" d="M104.61,97.19a5.84,5.84,0,0,0-1-1.43L100,99.35V100h5.31A5.89,5.89,0,0,0,104.61,97.19Z"/>
    <path class="cls-1" d="M27.52,47.55v0H11a40.58,40.58,0,0,0,3.1,15.6l15.23-6.31A24.29,24.29,0,0,1,27.52,47.55Z"/>
    <path class="cls-1" d="M61.11,25A24.42,24.42,0,0,1,69,30.31L80.67,18.68A41,41,0,0,0,67.41,9.82Z"/>
    <path class="cls-2" d="M42.49,25.08,36.18,9.85A40.88,40.88,0,0,0,23,18.71L34.63,30.36A24.39,24.39,0,0,1,42.49,25.08Z"/>
    <path class="cls-2" d="M34.61,64.71a24.37,24.37,0,0,1-5.25-7.89L14.13,63.13A41,41,0,0,0,23,76.35Z"/>
    <path class="cls-1" d="M34.63,30.36,23,18.71a40.92,40.92,0,0,0-8.84,13.22l15.24,6.31A24.4,24.4,0,0,1,34.63,30.36Z"/>
    <path class="cls-2" d="M29.37,38.24,14.13,31.93A40.58,40.58,0,0,0,11,47.52h16.5A24.24,24.24,0,0,1,29.37,38.24Z"/>
    <path class="cls-1" d="M69,64.78,80.65,76.39a40.93,40.93,0,0,0,8.87-13.23L74.34,56.87A24.33,24.33,0,0,1,69,64.78Z"/>
    <path class="cls-2" d="M61.12,70l6.29,15.19a40.91,40.91,0,0,0,13.24-8.85L69,64.78A24.35,24.35,0,0,1,61.12,70Z"/>
    <path class="cls-2" d="M76.2,47.55a24.27,24.27,0,0,1-1.86,9.32l15.18,6.29a40.57,40.57,0,0,0,3.12-15.63H76.2Z"/>
    <path class="cls-1" d="M34.61,64.71,23,76.35a41,41,0,0,0,13.21,8.86L42.48,70A24.33,24.33,0,0,1,34.61,64.71Z"/>
    <path class="cls-1" d="M51.86,71.88h0V88.34a40.55,40.55,0,0,0,15.58-3.1L61.12,70A24.25,24.25,0,0,1,51.86,71.88Z"/>
    <path class="cls-2" d="M42.48,70l-6.3,15.21a40.57,40.57,0,0,0,15.65,3.12V71.88A24.29,24.29,0,0,1,42.48,70Z"/>
    <path class="cls-1" d="M76.2,47.53H92.64A40.54,40.54,0,0,0,89.52,31.9l-15.2,6.29A24.28,24.28,0,0,1,76.2,47.53Z"/>
    <path class="cls-2" d="M74.33,38.19l15.2-6.29a40.92,40.92,0,0,0-8.85-13.22L69,30.31A24.41,24.41,0,0,1,74.33,38.19Z"/>
    <path class="cls-2" d="M51.86,23.21A24.19,24.19,0,0,1,61.11,25l6.3-15.22a40.63,40.63,0,0,0-15.58-3.1V23.21Z"/>
    <path class="cls-1" d="M51.83,6.72A40.57,40.57,0,0,0,36.18,9.85l6.31,15.23a24.26,24.26,0,0,1,9.34-1.87Z"/>
    <path class="cls-2" d="M35.15,7.35a43.38,43.38,0,0,1,47.42,9.44c1,1,1.95,2,2.84,3.11-.89-1.09-1.84-2.12-2.84-3.11a43.34,43.34,0,0,0-61.5,0c-1,1-1.93,2-2.82,3.09.89-1.08,1.84-2.1,2.82-3.09A43.65,43.65,0,0,1,35.15,7.35Z"/>
    <path d="M19.2,80.12A46.1,46.1,0,0,0,51.83,93.65a46.12,46.12,0,0,0,32.59-13.5A46.08,46.08,0,0,0,98,47.53v0A46.16,46.16,0,0,0,34.12,4.85a46.37,46.37,0,0,0-25,25,45.91,45.91,0,0,0-3.5,17.62v0A45.88,45.88,0,0,0,9.19,65.17,46.39,46.39,0,0,0,19.2,80.12ZM11.64,30.89a43.55,43.55,0,0,1,6.62-11c.89-1.08,1.83-2.11,2.82-3.09a43.34,43.34,0,0,1,61.5,0c1,1,1.95,2,2.84,3.11a43.31,43.31,0,0,1,9.92,27.62h0A43.48,43.48,0,0,1,21.06,78.25,43.41,43.41,0,0,1,8.33,47.52,43.22,43.22,0,0,1,11.64,30.89Z"/>
    <path class="cls-3" d="M36.18,85.21l-1,2.49A43.3,43.3,0,0,0,51.83,91V88.34A40.57,40.57,0,0,1,36.18,85.21Z"/>
    <path class="cls-4" d="M14.13,63.13A40.58,40.58,0,0,1,11,47.52H8.33a43.31,43.31,0,0,0,3.31,16.64Z"/>
    <path class="cls-3" d="M14.13,63.13l-2.49,1a43.71,43.71,0,0,0,9.43,14.09l1.9-1.9A41,41,0,0,1,14.13,63.13Z"/>
    <path class="cls-4" d="M23,76.35l-1.9,1.9A43.69,43.69,0,0,0,35.15,87.7l1-2.49A41,41,0,0,1,23,76.35Z"/>
    <path class="cls-3" d="M14.13,31.93l-2.49-1A43.22,43.22,0,0,0,8.33,47.52H11A40.58,40.58,0,0,1,14.13,31.93Z"/>
    <path class="cls-3" d="M80.67,18.68A40.92,40.92,0,0,1,89.52,31.9l2.49-1a43.6,43.6,0,0,0-6.61-11c-.89-1.09-1.85-2.12-2.84-3.11Z"/>
    <path class="cls-4" d="M92.64,47.52h2.69A43.26,43.26,0,0,0,92,30.87l-2.49,1A40.54,40.54,0,0,1,92.64,47.52Z"/>
    <path class="cls-4" d="M23,18.71l-1.89-1.9c-1,1-1.93,2-2.82,3.09a43.55,43.55,0,0,0-6.62,11l2.49,1A40.92,40.92,0,0,1,23,18.71Z"/>
    <path class="cls-4" d="M51.83,88.34V91a43.29,43.29,0,0,0,16.61-3.3l-1-2.49A40.55,40.55,0,0,1,51.83,88.34Z"/>
    <path class="cls-3" d="M67.41,9.82l1-2.49A43.25,43.25,0,0,0,51.83,4V6.72A40.63,40.63,0,0,1,67.41,9.82Z"/>
    <path class="cls-4" d="M80.67,18.68l1.89-1.89A43.66,43.66,0,0,0,68.44,7.33l-1,2.49A41,41,0,0,1,80.67,18.68Z"/>
    <path class="cls-4" d="M51.83,6.72V4A43.25,43.25,0,0,0,35.15,7.35l1,2.49A40.57,40.57,0,0,1,51.83,6.72Z"/>
    <path class="cls-4" d="M80.65,76.39l1.9,1.9A43.58,43.58,0,0,0,92,64.19l-2.49-1A40.93,40.93,0,0,1,80.65,76.39Z"/>
    <path class="cls-3" d="M67.41,85.24l1,2.49a43.65,43.65,0,0,0,14.11-9.43l-1.9-1.9A40.91,40.91,0,0,1,67.41,85.24Z"/>
    <path class="cls-3" d="M89.52,63.16l2.49,1a43.27,43.27,0,0,0,3.32-16.66H92.64A40.57,40.57,0,0,1,89.52,63.16Z"/>
    <path class="cls-3" d="M35.15,7.35a43.65,43.65,0,0,0-14.08,9.46L23,18.71A40.88,40.88,0,0,1,36.18,9.85Z"/>
    <path class="cls-2" d="M44.47,47.53H27.52v0a24.29,24.29,0,0,0,1.84,9.27L45,50.33A7.37,7.37,0,0,1,44.47,47.53Z"/>
    <path class="cls-2" d="M57.09,42.27l12-12A24.42,24.42,0,0,0,61.11,25L54.64,40.65A7.4,7.4,0,0,1,57.09,42.27Z"/>
    <path class="cls-1" d="M49,40.7,42.49,25.08a24.39,24.39,0,0,0-7.87,5.28l12,12A7.4,7.4,0,0,1,49,40.7Z"/>
    <path class="cls-1" d="M45,50.33,29.36,56.82a24.37,24.37,0,0,0,5.25,7.89l12-12A7.41,7.41,0,0,1,45,50.33Z"/>
    <path class="cls-2" d="M46.59,42.32l-12-12a24.4,24.4,0,0,0-5.25,7.88L45,44.72A7.4,7.4,0,0,1,46.59,42.32Z"/>
    <path class="cls-1" d="M44.46,47.5A7.36,7.36,0,0,1,45,44.72L29.37,38.24a24.24,24.24,0,0,0-1.85,9.28H44.47Z"/>
    <path class="cls-2" d="M57,52.77l12,12a24.33,24.33,0,0,0,5.3-7.91L58.67,50.38A7.4,7.4,0,0,1,57,52.77Z"/>
    <path class="cls-1" d="M54.62,54.36,61.12,70A24.35,24.35,0,0,0,69,64.78l-12-12A7.39,7.39,0,0,1,54.62,54.36Z"/>
    <path class="cls-1" d="M58.67,50.38l15.67,6.49a24.27,24.27,0,0,0,1.86-9.32v0H59.25A7.38,7.38,0,0,1,58.67,50.38Z"/>
    <path class="cls-2" d="M49,54.31a7.41,7.41,0,0,1-2.37-1.6l-12,12A24.33,24.33,0,0,0,42.48,70Z"/>
    <path class="cls-2" d="M51.86,54.89h0v17h0A24.25,24.25,0,0,0,61.12,70l-6.5-15.69A7.36,7.36,0,0,1,51.86,54.89Z"/>
    <path class="cls-1" d="M49,54.31,42.48,70a24.29,24.29,0,0,0,9.35,1.88v-17A7.37,7.37,0,0,1,49,54.31Z"/>
    <path class="cls-2" d="M59.25,47.5v0H76.2a24.28,24.28,0,0,0-1.87-9.34L58.69,44.67A7.37,7.37,0,0,1,59.25,47.5Z"/>
    <path class="cls-1" d="M58.69,44.67l15.64-6.48A24.41,24.41,0,0,0,69,30.31l-12,12A7.4,7.4,0,0,1,58.69,44.67Z"/>
    <path class="cls-1" d="M51.83,23.21v16.9h0a7.36,7.36,0,0,1,2.78.55L61.11,25a24.19,24.19,0,0,0-9.25-1.83Z"/>
    <path class="cls-2" d="M51.83,40.11V23.21a24.26,24.26,0,0,0-9.34,1.87L49,40.7A7.38,7.38,0,0,1,51.83,40.11Z"/>
    <path class="cls-4" d="M51.86,54.89a7.38,7.38,0,0,0,7.39-7.37v0a7.4,7.4,0,0,0-7.39-7.39h0a7.4,7.4,0,0,0-7.37,7.39v0a7.38,7.38,0,0,0,7.37,7.37Z"/>
    <path class="cls-1" d="M727.55,47.55v0h-16.5a40.58,40.58,0,0,0,3.1,15.6l15.23-6.31A24.29,24.29,0,0,1,727.55,47.55Z"/>
    <path class="cls-1" d="M761.14,25a24.42,24.42,0,0,1,7.94,5.27l11.63-11.63a41,41,0,0,0-13.26-8.87Z"/>
    <path class="cls-2" d="M742.52,25.08,736.21,9.85A40.88,40.88,0,0,0,723,18.71l11.66,11.65A24.39,24.39,0,0,1,742.52,25.08Z"/>
    <path class="cls-2" d="M714.16,63.13a40.9,40.9,0,0,0,5.12,8.94c3.78-5,7.8-10,10.86-13.66-.26-.52-.52-1-.75-1.58Z"/>
    <path class="cls-1" d="M734.66,30.36,723,18.71a40.92,40.92,0,0,0-8.84,13.22l15.24,6.31A24.4,24.4,0,0,1,734.66,30.36Z"/>
    <path class="cls-2" d="M729.4,38.24l-15.24-6.31a40.58,40.58,0,0,0-3.11,15.6h16.5A24.24,24.24,0,0,1,729.4,38.24Z"/>
    <path class="cls-1" d="M769.07,64.78l11.61,11.61a40.93,40.93,0,0,0,8.87-13.23l-15.18-6.29A24.33,24.33,0,0,1,769.07,64.78Z"/>
    <path class="cls-2" d="M761.15,70l6.29,15.19a40.91,40.91,0,0,0,13.24-8.85L769.07,64.78A24.35,24.35,0,0,1,761.15,70Z"/>
    <path class="cls-2" d="M776.23,47.55a24.27,24.27,0,0,1-1.86,9.32l15.18,6.29a40.57,40.57,0,0,0,3.12-15.63H776.23Z"/>
    <path class="cls-1" d="M742.51,70c-.23-.1-.45-.22-.68-.32-3.65,3.06-8.69,7.13-13.77,11a41,41,0,0,0,8.15,4.57Z"/>
    <path class="cls-1" d="M751.89,71.88h0V88.34a40.55,40.55,0,0,0,15.58-3.1L761.15,70A24.25,24.25,0,0,1,751.89,71.88Z"/>
    <path class="cls-2" d="M742.51,70l-6.3,15.21a40.57,40.57,0,0,0,15.65,3.12V71.88A24.29,24.29,0,0,1,742.51,70Z"/>
    <path class="cls-1" d="M776.23,47.53h16.44a40.54,40.54,0,0,0-3.12-15.62l-15.2,6.29A24.28,24.28,0,0,1,776.23,47.53Z"/>
    <path class="cls-2" d="M774.36,38.19l15.2-6.29a40.92,40.92,0,0,0-8.85-13.22L769.08,30.31A24.41,24.41,0,0,1,774.36,38.19Z"/>
    <path class="cls-2" d="M751.89,23.21A24.19,24.19,0,0,1,761.14,25l6.3-15.22a40.63,40.63,0,0,0-15.58-3.1V23.21Z"/>
    <path class="cls-1" d="M751.86,6.72a40.57,40.57,0,0,0-15.65,3.13l6.31,15.23a24.26,24.26,0,0,1,9.34-1.87Z"/>
    <path class="cls-2" d="M735.18,7.35a43.38,43.38,0,0,1,47.42,9.44c1,1,1.95,2,2.84,3.11-.89-1.09-1.84-2.12-2.84-3.11a43.34,43.34,0,0,0-61.5,0c-1,1-1.93,2-2.82,3.09.89-1.08,1.84-2.1,2.82-3.09A43.65,43.65,0,0,1,735.18,7.35Z"/>
    <path d="M784.51,14.88a46.16,46.16,0,0,0-78.82,32.61v0a46,46,0,0,0,10.31,29l1.61-2.22a43.21,43.21,0,0,1-9.26-26.78,43.34,43.34,0,0,1,9.92-27.62c.89-1.08,1.83-2.11,2.82-3.09a43.34,43.34,0,0,1,61.5,0c1,1,1.95,2,2.84,3.11a43.31,43.31,0,0,1,9.92,27.62h0a43.46,43.46,0,0,1-69.57,34.8l-2.21,1.61A46.15,46.15,0,0,0,798,47.53v0a46.1,46.1,0,0,0-13.52-32.61Z"/>
    <path class="cls-3" d="M736.21,85.21l-1,2.49A43.3,43.3,0,0,0,751.86,91V88.34A40.57,40.57,0,0,1,736.21,85.21Z"/>
    <path class="cls-4" d="M711.05,47.52h-2.69a43.31,43.31,0,0,0,3.31,16.64l2.49-1A40.58,40.58,0,0,1,711.05,47.52Z"/>
    <path class="cls-4" d="M728.06,80.64l-2.26,1.69a43.67,43.67,0,0,0,9.38,5.37l1-2.49A41,41,0,0,1,728.06,80.64Z"/>
    <path class="cls-3" d="M714.16,31.93l-2.49-1a43.22,43.22,0,0,0-3.31,16.63h2.69A40.58,40.58,0,0,1,714.16,31.93Z"/>
    <path class="cls-3" d="M780.71,18.68a40.92,40.92,0,0,1,8.85,13.22l2.49-1a43.6,43.6,0,0,0-6.61-11c-.89-1.09-1.85-2.12-2.84-3.11Z"/>
    <path class="cls-4" d="M792.67,47.52h2.69A43.26,43.26,0,0,0,792,30.87l-2.49,1A40.54,40.54,0,0,1,792.67,47.52Z"/>
    <path class="cls-4" d="M723,18.71l-1.89-1.9c-1,1-1.93,2-2.82,3.09a43.55,43.55,0,0,0-6.62,11l2.49,1A40.92,40.92,0,0,1,723,18.71Z"/>
    <path class="cls-4" d="M751.86,88.34V91a43.29,43.29,0,0,0,16.61-3.3l-1-2.49A40.55,40.55,0,0,1,751.86,88.34Z"/>
    <path class="cls-3" d="M767.44,9.82l1-2.49A43.25,43.25,0,0,0,751.86,4V6.72A40.63,40.63,0,0,1,767.44,9.82Z"/>
    <path class="cls-4" d="M780.71,18.68l1.89-1.89a43.66,43.66,0,0,0-14.13-9.46l-1,2.49A41,41,0,0,1,780.71,18.68Z"/>
    <path class="cls-4" d="M751.86,6.72V4a43.25,43.25,0,0,0-16.68,3.32l1,2.49A40.57,40.57,0,0,1,751.86,6.72Z"/>
    <path class="cls-4" d="M780.68,76.39l1.9,1.9A43.58,43.58,0,0,0,792,64.19l-2.49-1A40.93,40.93,0,0,1,780.68,76.39Z"/>
    <path class="cls-3" d="M767.44,85.24l1,2.49a43.65,43.65,0,0,0,14.11-9.43l-1.9-1.9A40.91,40.91,0,0,1,767.44,85.24Z"/>
    <path class="cls-3" d="M789.55,63.16l2.49,1a43.27,43.27,0,0,0,3.32-16.66h-2.69A40.57,40.57,0,0,1,789.55,63.16Z"/>
    <path class="cls-3" d="M735.18,7.35a43.65,43.65,0,0,0-14.08,9.46l1.89,1.9a40.88,40.88,0,0,1,13.21-8.86Z"/>
    <path class="cls-2" d="M744.5,47.53H727.55v0a24.29,24.29,0,0,0,1.84,9.27l3.23-1.34c1-1.19,1.81-2.05,2.22-2.47a8.58,8.58,0,0,1,8.76-2.08l1.45-.6A7.37,7.37,0,0,1,744.5,47.53Z"/>
    <path class="cls-2" d="M757.12,42.27l12-12A24.42,24.42,0,0,0,761.14,25l-6.47,15.61A7.4,7.4,0,0,1,757.12,42.27Z"/>
    <path class="cls-1" d="M749,40.7l-6.47-15.62a24.39,24.39,0,0,0-7.87,5.28l12,12A7.4,7.4,0,0,1,749,40.7Z"/>
    <path class="cls-1" d="M745.06,50.33l-1.45.6a8.52,8.52,0,0,1,1.35.57l.5-.37A7.35,7.35,0,0,1,745.06,50.33Z"/>
    <path class="cls-1" d="M730.14,58.4c.93-1.11,1.77-2.09,2.48-2.92l-3.23,1.34C729.61,57.36,729.88,57.88,730.14,58.4Z"/>
    <path class="cls-2" d="M746.62,42.32l-12-12a24.4,24.4,0,0,0-5.25,7.88L745,44.72A7.4,7.4,0,0,1,746.62,42.32Z"/>
    <path class="cls-1" d="M745,44.72,729.4,38.24a24.24,24.24,0,0,0-1.85,9.28H744.5v0A7.36,7.36,0,0,1,745,44.72Z"/>
    <path class="cls-2" d="M757.07,52.77l12,12a24.33,24.33,0,0,0,5.3-7.91L758.7,50.38A7.4,7.4,0,0,1,757.07,52.77Z"/>
    <path class="cls-1" d="M754.65,54.36,761.15,70a24.35,24.35,0,0,0,7.92-5.27l-12-12A7.39,7.39,0,0,1,754.65,54.36Z"/>
    <path class="cls-1" d="M758.7,50.38l15.67,6.49a24.27,24.27,0,0,0,1.86-9.32v0H759.28A7.38,7.38,0,0,1,758.7,50.38Z"/>
    <path class="cls-2" d="M748.51,55.05l.11.22.35-.84Z"/>
    <path class="cls-2" d="M743.08,68.63l-1.25,1.05c.23.1.45.23.68.32Z"/>
    <path class="cls-2" d="M761.15,70l-6.5-15.69a7.36,7.36,0,0,1-2.76.54h0v17h0A24.25,24.25,0,0,0,761.15,70Z"/>
    <path class="cls-1" d="M751.86,71.88v-17a7.37,7.37,0,0,1-2.82-.57l-.08.11-.35.84A8.6,8.6,0,0,1,747,65.17c-.57.57-2,1.82-3.92,3.47L742.51,70A24.29,24.29,0,0,0,751.86,71.88Z"/>
    <path class="cls-2" d="M759.28,47.5v0h16.95a24.28,24.28,0,0,0-1.87-9.34l-15.64,6.48A7.37,7.37,0,0,1,759.28,47.5Z"/>
    <path class="cls-1" d="M757.26,42.43l1.19-.88-.89,1.21a7.38,7.38,0,0,1,1.15,1.91l15.64-6.48a24.41,24.41,0,0,0-5.28-7.88l-12,12Z"/>
    <path class="cls-1" d="M751.86,23.21v16.9h0a7.36,7.36,0,0,1,2.78.55L761.14,25a24.19,24.19,0,0,0-9.25-1.83Z"/>
    <path class="cls-2" d="M751.86,40.11V23.21a24.26,24.26,0,0,0-9.34,1.87L749,40.7A7.38,7.38,0,0,1,751.86,40.11Z"/>
    <path class="cls-4" d="M757.26,42.43l-.15-.16a7.42,7.42,0,0,0-5.23-2.16h0a7.4,7.4,0,0,0-7.37,7.39v0a7.27,7.27,0,0,0,1,3.61l2.19-1.61Z"/>
    <path class="cls-4" d="M754.65,54.36a7.37,7.37,0,0,0,4.63-6.83v0a7.38,7.38,0,0,0-1.72-4.73l-7.08,9.6-1.44,2a7.37,7.37,0,0,0,2.82.57h0A7.36,7.36,0,0,0,754.65,54.36Z"/>
    <path class="cls-5" d="M715.32,77.48a4.21,4.21,0,0,0-2.59-1c-3.79-.48-9.14,1.51-11.56,5.16-2,3.07-1.37,6.56,1.81,8.42,2.88,1.69,5-2.32,6-2.2h0l0,0A74.4,74.4,0,0,1,715.32,77.48Z"/>
    <path class="cls-5" d="M712.23,91.06h0c.12,1-3.89,3.11-2.21,6a5.62,5.62,0,0,0,4.36,2.95h.9a6.64,6.64,0,0,0,3.17-1.14c3.65-2.43,5.63-7.77,5.15-11.57a4.18,4.18,0,0,0-1.07-2.6,74.39,74.39,0,0,1-10.28,6.38Z"/>
    <polygon class="cls-6" points="757.56 42.76 758.46 41.56 757.26 42.43 747.64 49.52 750.49 52.37 757.56 42.76"/>
    <path class="cls-5" d="M749,54.32l1.44-2-2.84-2.84-2.19,1.61-.5.37a8.6,8.6,0,0,1,3.55,3.55l.45-.62Z"/>
    <path class="cls-3" d="M747,53a8.61,8.61,0,0,0-12.16,0c-.42.42-1.2,1.28-2.22,2.47-.72.83-1.55,1.81-2.48,2.92-3.06,3.65-7.08,8.64-10.86,13.66a40.9,40.9,0,0,1-5.12-8.94l-2.49,1a43.67,43.67,0,0,0,5.95,10.14L716,76.52l-.68,1a74.4,74.4,0,0,0-6.38,10.28l0,0,1.62,1.62Zm-8.48-.13a1.79,1.79,0,1,1,0,2.54A1.79,1.79,0,0,1,738.51,52.88Z"/>
    <path class="cls-7" d="M728.06,80.64c5.08-3.83,10.13-7.91,13.77-11l1.25-1.05c1.94-1.65,3.35-2.9,3.92-3.47a8.6,8.6,0,0,0,1.62-9.89l-.11-.22A8.58,8.58,0,0,0,747,53L710.59,89.42l1.64,1.64h0a74.39,74.39,0,0,0,10.28-6.38l1.06-.75,2.21-1.61Z"/>
    <circle class="cls-8" cx="739.78" cy="54.15" r="1.8" transform="translate(178.58 539.19) rotate(-45.02)"/>
  </g>
</svg>
