<?xml version="1.0" encoding="utf-8"?>
<!-- Generator: Adobe Illustrator 19.1.0, SVG Export Plug-In . SVG Version: 6.00 Build 0)  -->
<svg version="1.1" id="Layer_1" xmlns="http://www.w3.org/2000/svg" xmlns:xlink="http://www.w3.org/1999/xlink" x="0px" y="0px"
	 viewBox="-375 287 40 40" style="enable-background:new -375 287 40 40;" xml:space="preserve">
<style type="text/css">
	.st0{fill:#cd0d63;}
</style>
<g>
	<path class="st0" d="M-338.8,326.7h-32.4v-21.6l-1.6,1.5c-0.4,0.4-1,0.4-1.4-0.1c-0.4-0.4-0.4-1,0.1-1.4l19.2-17.8l6.3,5.8V291h7.3
		v8.9l5.6,5.2c0.2,0.2,0.3,0.4,0.3,0.7s-0.1,0.5-0.3,0.7c-0.4,0.4-1,0.4-1.4,0.1l-1.6-1.5V326.7z M-349.4,324.7h8.6v-21.4
		l-14.2-13.2l-14.2,13.2v21.4h8.6v-13.6c0-1.3,1-2.3,2.3-2.3h6.7c1.3,0,2.3,1,2.3,2.3V324.7z"/>
</g>
</svg>
