<svg id="Layer_1" data-name="Layer 1" xmlns="http://www.w3.org/2000/svg" width="800" height="100" viewBox="0 0 800 100">
  <defs>
    <style>
      .cls-1 {
        fill: #804a44;
      }

      .cls-2 {
        fill: #9a5f55;
      }

      .cls-3 {
        fill: #fdd550;
      }

      .cls-4 {
        fill: #ffb440;
      }

      .cls-5 {
        fill: #00bea4;
      }

      .cls-6 {
        fill: #fc9b43;
      }

      .cls-7 {
        fill: #7c3f3f;
      }

      .cls-8 {
        fill: #aac567;
      }

      .cls-9 {
        fill: #ffc84a;
      }
    </style>
  </defs>
  <g>
    <path class="cls-1" d="M75.75,21.31a18.2,18.2,0,0,1,.11,2c0,.44,0,.88-.05,1.32,2.35,1.94,5.59,5.45,8.67,11.61l6.81-5.67C90,28.83,85.29,23.19,75.75,21.31Z"/>
    <path class="cls-2" d="M24.25,21.31c0-.44.11-.88.19-1.32s.16-.77.25-1.15a43.6,43.6,0,0,0,9.09-1.55c9.07-2.59,15.48-8,16.15-14.3A10.4,10.4,0,0,0,50,1.9,10.41,10.41,0,0,0,50.06,3c.86,8.3,11.6,15,25.25,15.88a18.2,18.2,0,0,1,.44,2.47c9.54,1.88,14.3,7.52,15.54,9.22l-6.81,5.67,10.34-8.62s-5-8.11-17.34-10C74.69,8.83,66,2.06,55.08.43,44.16,2,35.4,8.79,32.58,17.61a45,45,0,0,1-10.45,1.34c.11-.45.25-.88.39-1.32-12.35,1.84-17.34,10-17.34,10l3.54,2.95C10,28.83,14.71,23.19,24.25,21.31Z"/>
    <path class="cls-1" d="M24.25,21.31C14.71,23.19,10,28.83,8.71,30.53h0l6.81,5.67c3.08-6.16,6.32-9.68,8.67-11.61,0-.44-.05-.87-.05-1.32A18.19,18.19,0,0,1,24.25,21.31Z"/>
    <path class="cls-3" d="M44.3,96a4.58,4.58,0,0,0,2,3.18l-.19.11a4.58,4.58,0,0,0,2.19-3.9V79.31H42.07Z"/>
    <path class="cls-3" d="M44.77,99.85l-.26.06Z"/>
    <path class="cls-3" d="M45.58,99.58l-.28.11Z"/>
    <path class="cls-3" d="M39.12,96,36.44,75.86h0L39.12,96a4.59,4.59,0,0,0,2.18,3.33A4.59,4.59,0,0,1,39.12,96Z"/>
    <path class="cls-3" d="M51.72,95.4h0a4.6,4.6,0,0,0,4.6,4.6h0A4.6,4.6,0,0,1,51.72,95.4Z"/>
    <path class="cls-3" d="M56.9,95.4a4.59,4.59,0,0,0,2,3.79,4.58,4.58,0,0,0,2-3.18l2.23-16.7H56.9Z"/>
    <path class="cls-3" d="M58.24,99.56a4.62,4.62,0,0,1-.47.19A4.54,4.54,0,0,0,58.24,99.56Z"/>
    <path class="cls-3" d="M58.9,99.19a4.81,4.81,0,0,1-.51.3A4.57,4.57,0,0,0,58.9,99.19Z"/>
    <path class="cls-3" d="M57.45,99.84l-.37.09Z"/>
    <path class="cls-4" d="M51.72,75.86V95.4a4.6,4.6,0,0,0,4.6,4.6h0a4.44,4.44,0,0,0,.76-.07l.37-.09.32-.09a4.62,4.62,0,0,0,.47-.19l.14-.07a4.81,4.81,0,0,0,.51-.3h0a4.59,4.59,0,0,1-2-3.79V79.31H63.1l.46-3.45Z"/>
    <path class="cls-4" d="M36.44,75.86,39.12,96a4.55,4.55,0,0,0,5.39,3.91l.26-.06a4.55,4.55,0,0,0,.53-.16l.28-.11a4.6,4.6,0,0,0,.51-.28l.19-.11a4.58,4.58,0,0,1-2-3.18l-2.23-16.7h6.21V75.86Z"/>
    <path class="cls-3" d="M21.77,61.82a4.64,4.64,0,0,1-.72.17A4.66,4.66,0,0,0,21.77,61.82Z"/>
    <path class="cls-3" d="M19.14,61.92a4.73,4.73,0,0,1,2.21-5.24l12-6.91,1.87-6.53-17.3,10a4.74,4.74,0,0,0,3,8.8A4.79,4.79,0,0,1,19.14,61.92Z"/>
    <path class="cls-4" d="M33.32,49.77l-12,6.91a4.73,4.73,0,0,0-2.21,5.24,4.79,4.79,0,0,0,1.76.1l.16,0a4.64,4.64,0,0,0,.72-.17,4.7,4.7,0,0,0,.86-.39l8.81-5.08Z"/>
    <path class="cls-3" d="M79.06,62a4.64,4.64,0,0,1-.73-.17A4.67,4.67,0,0,0,79.06,62Z"/>
    <path class="cls-3" d="M78.75,56.68A4.73,4.73,0,0,1,81,61.92a4.79,4.79,0,0,1-1.76.1,4.74,4.74,0,0,0,3-8.8L64.8,43.17l1.87,6.53Z"/>
    <path class="cls-4" d="M81,61.92a4.73,4.73,0,0,0-2.21-5.24l-12.09-7,1.88,6.58,8.93,5.15a4.7,4.7,0,0,0,.86.39,4.64,4.64,0,0,0,.73.17l.15,0A4.79,4.79,0,0,0,81,61.92Z"/>
    <path class="cls-5" d="M58.58,43.61c-.42,2.62-4.1,4.67-8.58,4.67s-8.16-2-8.58-4.67l-.7-.22a28.26,28.26,0,0,1-3.78-1.52l-.72-.36-.48-.25-.56,2-1.87,6.53-1.88,6.58-1.66,5.81A1.7,1.7,0,0,1,31,63.79a1.72,1.72,0,0,1-1.72,1.72,1.66,1.66,0,0,1-.47-.09l-2.35,8.24a1.72,1.72,0,0,0,1.66,2.2h43.7a1.72,1.72,0,0,0,1.66-2.2l-2.35-8.24a1.66,1.66,0,0,1-.47.09A1.72,1.72,0,0,1,69,63.79a1.7,1.7,0,0,1,1.26-1.63l-1.68-5.88L66.66,49.7,64.8,43.17l-.54-1.91A28.12,28.12,0,0,1,58.58,43.61Zm1.77,23.63A1.72,1.72,0,1,1,58.62,69,1.72,1.72,0,0,1,60.35,67.24Zm-1.72-8.62a1.72,1.72,0,1,1,1.72,1.72A1.72,1.72,0,0,1,58.62,58.62Zm-1.72,6.9a1.72,1.72,0,1,1,1.72-1.72A1.72,1.72,0,0,1,56.9,65.52ZM51.72,69a1.72,1.72,0,1,1,1.72,1.72A1.72,1.72,0,0,1,51.72,69ZM53.45,56.9a1.72,1.72,0,1,1-1.72,1.72A1.72,1.72,0,0,1,53.45,56.9Zm-5.17,1.72a1.72,1.72,0,1,1-1.72-1.72A1.72,1.72,0,0,1,48.28,58.62ZM39.66,70.69A1.72,1.72,0,1,1,41.38,69,1.72,1.72,0,0,1,39.66,70.69ZM37.93,58.62a1.72,1.72,0,1,1,1.72,1.72A1.72,1.72,0,0,1,37.93,58.62Zm5.17,6.9a1.72,1.72,0,1,1,1.72-1.72A1.72,1.72,0,0,1,43.1,65.52ZM32.76,56.9A1.72,1.72,0,1,1,31,58.62,1.72,1.72,0,0,1,32.76,56.9Zm0,13.79A1.72,1.72,0,1,1,34.48,69,1.72,1.72,0,0,1,32.76,70.69Zm1.72-6.9a1.72,1.72,0,1,1,1.72,1.72A1.72,1.72,0,0,1,34.48,63.79Zm12.07,6.9A1.72,1.72,0,1,1,48.28,69,1.72,1.72,0,0,1,46.55,70.69ZM50,65.52a1.72,1.72,0,1,1,1.72-1.72A1.72,1.72,0,0,1,50,65.52Zm13.79,0a1.72,1.72,0,1,1,1.72-1.72A1.72,1.72,0,0,1,63.79,65.52Zm3.45,5.17A1.72,1.72,0,1,1,69,69,1.72,1.72,0,0,1,67.24,70.69Zm0-10.34A1.72,1.72,0,1,1,69,58.62,1.72,1.72,0,0,1,67.24,60.34Z"/>
    <path class="cls-6" d="M50,44.83a30.83,30.83,0,0,1-6.46-.68c-.72-.15-1.42-.34-2.11-.54.42,2.62,4.1,4.67,8.58,4.67s8.15-2,8.58-4.67A30.5,30.5,0,0,1,50,44.83Z"/>
    <path class="cls-3" d="M75.75,21.31a18.2,18.2,0,0,0-.44-2.47C61.66,17.95,50.92,11.27,50.06,3l-.13,0c-.67,6.33-7.09,11.71-16.15,14.3a18.19,18.19,0,0,0-1,6c0,10.68,9.32,19.52,21.55,21.23a30.94,30.94,0,0,1-4.31.32,30.5,30.5,0,0,0,8.58-1.22,28.12,28.12,0,0,0,5.67-2.35c6.58-3.63,11.05-9.7,11.56-16.67,0-.44.05-.87.05-1.32A18.2,18.2,0,0,0,75.75,21.31ZM58.62,25a2.59,2.59,0,1,1,5.17,0v3.45a2.59,2.59,0,1,1-5.17,0ZM41.38,28.45a2.59,2.59,0,1,1-5.17,0V25a2.59,2.59,0,1,1,5.17,0Zm.81,9.22A1.72,1.72,0,0,1,44,34.74a11.56,11.56,0,0,0,5.92,1.46,11.56,11.56,0,0,0,5.92-1.46,1.72,1.72,0,0,1,1.82,2.93,14.85,14.85,0,0,1-7.74,2A14.85,14.85,0,0,1,42.19,37.67Z"/>
    <path class="cls-3" d="M36.94,41.88l-.72-.36Z"/>
    <path class="cls-3" d="M43.54,44.15c-1-.21-1.9-.46-2.81-.76l.7.22C42.12,43.81,42.82,44,43.54,44.15Z"/>
    <path class="cls-7" d="M38.79,22.41A2.59,2.59,0,0,0,36.21,25v3.45a2.59,2.59,0,1,0,5.17,0V25A2.59,2.59,0,0,0,38.79,22.41Z"/>
    <path class="cls-7" d="M61.21,31a2.59,2.59,0,0,0,2.59-2.59V25a2.59,2.59,0,1,0-5.17,0v3.45A2.59,2.59,0,0,0,61.21,31Z"/>
    <path class="cls-6" d="M57.68,37.67a1.72,1.72,0,0,0-1.82-2.93,11.56,11.56,0,0,1-5.92,1.46A11.56,11.56,0,0,1,44,34.74a1.72,1.72,0,0,0-1.82,2.93,14.85,14.85,0,0,0,7.74,2A14.85,14.85,0,0,0,57.68,37.67Z"/>
    <path class="cls-4" d="M50,1.9A10.4,10.4,0,0,1,49.94,3l.13,0A10.41,10.41,0,0,1,50,1.9Z"/>
    <path class="cls-4" d="M36.94,41.88a28.26,28.26,0,0,0,3.78,1.52c.92.29,1.85.55,2.81.76a30.19,30.19,0,0,0,10.77.36C42.08,42.79,32.76,34,32.76,23.28a18.19,18.19,0,0,1,1-6,43.6,43.6,0,0,1-9.09,1.55c-.09.38-.18.76-.25,1.15s-.14.88-.19,1.32a18.19,18.19,0,0,0-.11,2c0,.44,0,.88.05,1.32s0,.59.08.89c.8,6.59,5.18,12.3,11.48,15.78l.48.25Z"/>
    <path class="cls-2" d="M47.78.09C48.51,0,49.25,0,50,0c-.75,0-1.49,0-2.22.09-.48,0-.94.08-1.41.13h0C46.83.17,47.3.12,47.78.09Z"/>
    <path class="cls-2" d="M53.64.22h0c-.47-.05-.94-.1-1.41-.13C51.49,0,50.75,0,50,0c.75,0,1.49,0,2.22.09C52.7.12,53.17.17,53.64.22Z"/>
    <path class="cls-1" d="M32.58,17.61C35.4,8.79,44.16,2,55.08.43h0c-.43-.06-.85-.14-1.29-.19h-.16c-.47,0-.94-.1-1.41-.13C51.49,0,50.75,0,50,0s-1.49,0-2.22.09c-.48,0-.94.08-1.41.13h-.16C34.73,1.52,25.42,8.48,22.51,17.63c-.14.44-.28.87-.39,1.32A45,45,0,0,0,32.58,17.61Z"/>
    <circle class="cls-8" cx="60.35" cy="68.97" r="1.72"/>
    <circle class="cls-9" cx="67.24" cy="68.97" r="1.72"/>
    <circle class="cls-8" cx="46.55" cy="68.97" r="1.72"/>
    <circle class="cls-9" cx="53.45" cy="68.97" r="1.72"/>
    <circle class="cls-9" cx="60.35" cy="58.62" r="1.72"/>
    <circle class="cls-8" cx="39.66" cy="58.62" r="1.72"/>
    <circle class="cls-9" cx="46.55" cy="58.62" r="1.72"/>
    <circle class="cls-8" cx="53.45" cy="58.62" r="1.72"/>
    <circle class="cls-9" cx="63.79" cy="63.79" r="1.72"/>
    <circle class="cls-8" cx="43.1" cy="63.79" r="1.72"/>
    <circle class="cls-8" cx="32.76" cy="68.97" r="1.72"/>
    <circle class="cls-9" cx="50" cy="63.79" r="1.72"/>
    <circle class="cls-8" cx="56.9" cy="63.79" r="1.72"/>
    <circle class="cls-8" cx="67.24" cy="58.62" r="1.72"/>
    <circle class="cls-9" cx="39.66" cy="68.97" r="1.72"/>
    <circle class="cls-9" cx="32.76" cy="58.62" r="1.72"/>
    <circle class="cls-9" cx="36.21" cy="63.79" r="1.72"/>
    <path class="cls-8" d="M69,63.79a1.72,1.72,0,0,0,1.72,1.72,1.66,1.66,0,0,0,.47-.09h0l-.93-3.26h0A1.7,1.7,0,0,0,69,63.79Z"/>
    <path class="cls-8" d="M31,63.79a1.7,1.7,0,0,0-1.26-1.63h0l-.93,3.26h0a1.66,1.66,0,0,0,.47.09A1.72,1.72,0,0,0,31,63.79Z"/>
    <path class="cls-2" d="M277.12,16.94C274.09,8.47,265.53,2,254.93.43,244,2,235.25,8.79,232.43,17.61A45,45,0,0,1,222,18.95q.22-.91.53-1.79c-12.28.38-18.14,7.7-18.14,7.7l9.17,9.86-6-6.49c1.45-1.54,6.89-6.54,16.63-7.19q.07-.53.16-1c.07-.39.16-.77.25-1.15a43.6,43.6,0,0,0,9.09-1.55c9.07-2.59,15.48-8,16.15-14.3a10.4,10.4,0,0,0,.07-1.1A10.41,10.41,0,0,0,249.91,3c.86,8.3,11.6,15,25.25,15.88a18.2,18.2,0,0,1,.4,2.15c9.76-.36,15.7,4.06,17.3,5.44l-5.34,7.07,8.11-10.75S289.16,16.19,277.12,16.94Z"/>
    <path class="cls-1" d="M275.57,21a18.19,18.19,0,0,1,.15,2.28c0,.18,0,.36,0,.54,2.72,1.22,7,3.88,11.83,9.68l5.34-7.07C291.26,25.05,285.33,20.63,275.57,21Z"/>
    <path class="cls-1" d="M224.13,21c-9.74.65-15.18,5.65-16.63,7.19l6,6.49c4-6,7.89-9.13,10.48-10.68,0-.25,0-.5,0-.76A18.2,18.2,0,0,1,224.13,21Z"/>
    <path class="cls-3" d="M236.29,75.86h0L239,96a4.59,4.59,0,0,0,1.53,2.85A4.59,4.59,0,0,1,239,96Z"/>
    <path class="cls-3" d="M245.43,99.58l-.28.11Z"/>
    <path class="cls-3" d="M244.15,96a4.58,4.58,0,0,0,2,3.18l-.19.11a4.58,4.58,0,0,0,2.19-3.9V79.31h-6.21Z"/>
    <path class="cls-3" d="M244.62,99.85l-.26.06Z"/>
    <path class="cls-3" d="M257.75,94.39a4.52,4.52,0,0,0,.21.51,4.53,4.53,0,0,1-.21-.51Z"/>
    <path class="cls-3" d="M258,77.48l4.66,15.4a4.59,4.59,0,0,0,3,3,4.58,4.58,0,0,0,1-3.62L264,75.86h-.6Z"/>
    <path class="cls-3" d="M265.19,96.48a4.64,4.64,0,0,1-.39.32A4.54,4.54,0,0,0,265.19,96.48Z"/>
    <path class="cls-3" d="M265.71,95.94a4.81,4.81,0,0,1-.41.44A4.58,4.58,0,0,0,265.71,95.94Z"/>
    <path class="cls-3" d="M258.11,95.25a4.6,4.6,0,0,0,5.37,2.21h0A4.6,4.6,0,0,1,258.11,95.25Z"/>
    <path class="cls-3" d="M264.52,97l-.32.19C264.31,97.11,264.41,97,264.52,97Z"/>
    <path class="cls-4" d="M262.7,92.89,258,77.48l5.36-1.62H252.15l5.6,18.52h0a4.53,4.53,0,0,0,.21.51c.05.11.09.24.14.35a4.6,4.6,0,0,0,5.37,2.21h0a4.43,4.43,0,0,0,.71-.29l.32-.19.28-.18a4.64,4.64,0,0,0,.39-.32l.11-.11a4.81,4.81,0,0,0,.41-.44h0A4.59,4.59,0,0,1,262.7,92.89Z"/>
    <path class="cls-4" d="M236.29,75.86,239,96a4.55,4.55,0,0,0,5.39,3.91l.26-.06a4.53,4.53,0,0,0,.53-.16l.28-.11a4.6,4.6,0,0,0,.51-.28l.19-.11a4.58,4.58,0,0,1-2-3.18l-2.23-16.7h6.21V75.86Z"/>
    <path class="cls-3" d="M218.81,51.34l15.35-5,1.44-5.05-.44-.25-19,6.23a4.74,4.74,0,0,0,1.13,9.23,4.79,4.79,0,0,1-1.7-.46A4.73,4.73,0,0,1,218.81,51.34Z"/>
    <path class="cls-3" d="M218.17,56.46a4.63,4.63,0,0,1-.74,0A4.67,4.67,0,0,0,218.17,56.46Z"/>
    <path class="cls-4" d="M234.16,46.31l-15.35,5A4.73,4.73,0,0,0,215.57,56a4.79,4.79,0,0,0,1.7.46h.16a4.63,4.63,0,0,0,.74,0,4.7,4.7,0,0,0,.92-.2l13.49-4.42Z"/>
    <path class="cls-3" d="M282.34,56.44a4.64,4.64,0,0,1-.74,0A4.66,4.66,0,0,0,282.34,56.44Z"/>
    <path class="cls-4" d="M281,51.3l-15.46-5.09,1.58,5.53,13.59,4.48a4.7,4.7,0,0,0,.92.2,4.64,4.64,0,0,0,.74,0h.16a4.79,4.79,0,0,0,1.7-.45A4.73,4.73,0,0,0,281,51.3Z"/>
    <path class="cls-5" d="M264.1,41.26a28.12,28.12,0,0,1-5.67,2.35c-.42,2.62-4.1,4.67-8.58,4.67s-8.15-2-8.58-4.67l-.31-.09c-.68-.21-1.35-.45-2-.7l-.79-.32a27.47,27.47,0,0,1-2.56-1.24l-1.44,5.05-1.58,5.52-3,10.33a1.7,1.7,0,0,1,1.26,1.63,1.72,1.72,0,0,1-1.72,1.72,1.66,1.66,0,0,1-.47-.09l-2.35,8.24a1.72,1.72,0,0,0,1.66,2.2h43.7a1.72,1.72,0,0,0,1.66-2.2L271,65.42a1.66,1.66,0,0,1-.47.09,1.72,1.72,0,0,1-1.72-1.72,1.7,1.7,0,0,1,1.26-1.63l-3-10.42-1.58-5.53Zm-3.91,26A1.72,1.72,0,1,1,258.47,69,1.72,1.72,0,0,1,260.2,67.24Zm-1.72-8.62a1.72,1.72,0,1,1,1.72,1.72A1.72,1.72,0,0,1,258.47,58.62Zm-1.72,6.9a1.72,1.72,0,1,1,1.72-1.72A1.72,1.72,0,0,1,256.75,65.52ZM253.3,56.9a1.72,1.72,0,1,1-1.72,1.72A1.72,1.72,0,0,1,253.3,56.9Zm-6.9,0a1.72,1.72,0,1,1-1.72,1.72A1.72,1.72,0,0,1,246.4,56.9Zm-6.9,13.79A1.72,1.72,0,1,1,241.23,69,1.72,1.72,0,0,1,239.51,70.69Zm-1.72-12.07a1.72,1.72,0,1,1,1.72,1.72A1.72,1.72,0,0,1,237.78,58.62Zm5.17,6.9a1.72,1.72,0,1,1,1.72-1.72A1.72,1.72,0,0,1,243,65.52ZM232.61,56.9a1.72,1.72,0,1,1-1.72,1.72A1.72,1.72,0,0,1,232.61,56.9Zm0,13.79A1.72,1.72,0,1,1,234.33,69,1.72,1.72,0,0,1,232.61,70.69Zm1.72-6.9a1.72,1.72,0,1,1,1.72,1.72A1.72,1.72,0,0,1,234.33,63.79Zm12.07,6.9A1.72,1.72,0,1,1,248.13,69,1.72,1.72,0,0,1,246.4,70.69Zm3.45-5.17a1.72,1.72,0,1,1,1.72-1.72A1.72,1.72,0,0,1,249.85,65.52Zm3.45,1.72A1.72,1.72,0,1,1,251.57,69,1.72,1.72,0,0,1,253.3,67.24Zm10.34-1.72a1.72,1.72,0,1,1,1.72-1.72A1.72,1.72,0,0,1,263.64,65.52Zm3.45,5.17A1.72,1.72,0,1,1,268.82,69,1.72,1.72,0,0,1,267.09,70.69Zm1.72-12.07a1.72,1.72,0,1,1-1.72-1.72A1.72,1.72,0,0,1,268.82,58.62Z"/>
    <path class="cls-6" d="M241.27,43.61c.42,2.62,4.1,4.67,8.58,4.67s8.16-2,8.58-4.67a30.79,30.79,0,0,1-17.16,0Z"/>
    <path class="cls-3" d="M234.75,40.77q-.52-.31-1-.64Q234.24,40.46,234.75,40.77Z"/>
    <path class="cls-3" d="M228.51,35.45l-.26-.33Z"/>
    <path class="cls-3" d="M226.26,32.1a19.39,19.39,0,0,1-.94-2A19.39,19.39,0,0,0,226.26,32.1Z"/>
    <path class="cls-3" d="M275.57,21a18.2,18.2,0,0,0-.4-2.15c-13.65-.9-24.4-7.58-25.25-15.88l-.13,0c-.67,6.33-7.09,11.71-16.15,14.3a18.19,18.19,0,0,0-1,6c0,10.68,9.32,19.52,21.55,21.23a30.94,30.94,0,0,1-4.31.32,30.5,30.5,0,0,0,8.58-1.22,28.12,28.12,0,0,0,5.67-2.35l1.42,5L281,51.3A4.73,4.73,0,0,1,284.21,56a4.79,4.79,0,0,1-1.7.45,4.74,4.74,0,0,0,1.15-9.23l-19-6.26c6.52-3.8,10.84-10,11.06-17.13,0-.18,0-.36,0-.54A18.19,18.19,0,0,0,275.57,21Zm-17.1,4a2.59,2.59,0,1,1,5.17,0v3.45a2.59,2.59,0,1,1-5.17,0Zm-19.83,6a2.59,2.59,0,0,1-2.59-2.59V25a2.59,2.59,0,1,1,5.17,0v3.45A2.59,2.59,0,0,1,238.64,31Zm3.4,6.64a1.72,1.72,0,0,1,1.82-2.93,12.71,12.71,0,0,0,11.84,0,1.72,1.72,0,1,1,1.82,2.93,16.09,16.09,0,0,1-15.48,0Z"/>
    <path class="cls-3" d="M239,42.82l-.79-.32Z"/>
    <path class="cls-7" d="M241.23,25a2.59,2.59,0,1,0-5.17,0v3.45a2.59,2.59,0,1,0,5.17,0Z"/>
    <path class="cls-7" d="M261.06,31a2.59,2.59,0,0,0,2.59-2.59V25a2.59,2.59,0,1,0-5.17,0v3.45A2.59,2.59,0,0,0,261.06,31Z"/>
    <path class="cls-6" d="M257.53,37.67a1.72,1.72,0,1,0-1.82-2.93,12.71,12.71,0,0,1-11.84,0A1.72,1.72,0,0,0,242,37.67a16.09,16.09,0,0,0,15.48,0Z"/>
    <path class="cls-4" d="M238.16,42.5l.79.32c.66.25,1.32.49,2,.7l.31.09a30.5,30.5,0,0,0,8.58,1.22,30.94,30.94,0,0,0,4.31-.32C241.93,42.79,232.61,34,232.61,23.28a18.19,18.19,0,0,1,1-6,43.6,43.6,0,0,1-9.09,1.55c-.09.38-.18.76-.25,1.15s-.12.7-.16,1a18.2,18.2,0,0,0-.14,2.24c0,.25,0,.51,0,.76,0,.49.05,1,.11,1.44a18.4,18.4,0,0,0,1.19,4.61,19.39,19.39,0,0,0,.94,2,20.74,20.74,0,0,0,2,3l.26.33a23.86,23.86,0,0,0,5.23,4.68q.5.33,1,.64l.4.24.44.25A27.47,27.47,0,0,0,238.16,42.5Z"/>
    <path class="cls-4" d="M249.85,1.9a10.4,10.4,0,0,1-.07,1.1l.13,0A10.41,10.41,0,0,1,249.85,1.9Z"/>
    <path class="cls-2" d="M253.49.22h0c-.47-.05-.94-.1-1.41-.13C251.34,0,250.6,0,249.85,0c.75,0,1.49,0,2.22.09C252.55.12,253,.17,253.49.22Z"/>
    <path class="cls-2" d="M247.63.09C248.36,0,249.1,0,249.85,0c-.75,0-1.49,0-2.22.09-.48,0-.94.08-1.41.13h0C246.68.17,247.15.12,247.63.09Z"/>
    <path class="cls-1" d="M232.43,17.61C235.25,8.79,244,2,254.93.43h0c-.43-.06-.85-.14-1.29-.19h-.16c-.47,0-.94-.1-1.41-.13C251.34,0,250.6,0,249.85,0s-1.49,0-2.22.09c-.48,0-.94.08-1.41.13h-.16c-11.28,1.26-20.48,8-23.55,16.92q-.3.88-.53,1.79A45,45,0,0,0,232.43,17.61Z"/>
    <circle class="cls-8" cx="260.2" cy="68.97" r="1.72"/>
    <circle class="cls-9" cx="267.09" cy="68.97" r="1.72"/>
    <circle class="cls-8" cx="246.4" cy="68.97" r="1.72"/>
    <circle class="cls-9" cx="253.3" cy="68.97" r="1.72"/>
    <circle class="cls-9" cx="260.2" cy="58.62" r="1.72"/>
    <circle class="cls-8" cx="239.51" cy="58.62" r="1.72"/>
    <circle class="cls-9" cx="246.4" cy="58.62" r="1.72"/>
    <circle class="cls-8" cx="253.3" cy="58.62" r="1.72"/>
    <circle class="cls-9" cx="263.64" cy="63.79" r="1.72"/>
    <circle class="cls-8" cx="242.95" cy="63.79" r="1.72"/>
    <circle class="cls-8" cx="232.61" cy="68.97" r="1.72"/>
    <circle class="cls-9" cx="249.85" cy="63.79" r="1.72"/>
    <circle class="cls-8" cx="256.75" cy="63.79" r="1.72"/>
    <circle class="cls-8" cx="267.09" cy="58.62" r="1.72"/>
    <circle class="cls-9" cx="239.51" cy="68.97" r="1.72"/>
    <circle class="cls-9" cx="232.61" cy="58.62" r="1.72"/>
    <circle class="cls-9" cx="236.06" cy="63.79" r="1.72"/>
    <path class="cls-8" d="M268.82,63.79a1.72,1.72,0,0,0,1.72,1.72,1.66,1.66,0,0,0,.47-.09h0l-.93-3.26h0A1.7,1.7,0,0,0,268.82,63.79Z"/>
    <path class="cls-8" d="M230.88,63.79a1.7,1.7,0,0,0-1.26-1.63h0l-.93,3.26h0a1.66,1.66,0,0,0,.47.09A1.72,1.72,0,0,0,230.88,63.79Z"/>
    <path class="cls-2" d="M675.11,14.4C671.4,7.2,663.55,1.86,654,.43,643.12,2,634.36,8.79,631.54,17.61a45,45,0,0,1-10.45,1.34c.87,0,1.72,0,2.56-.1a43.6,43.6,0,0,0,9.09-1.55c9.07-2.59,15.48-8,16.15-14.3A10.4,10.4,0,0,0,649,1.9,10.41,10.41,0,0,0,649,3c.86,8.3,11.6,15,25.25,15.88.07.28.13.56.18.84.36-.26.73-.53,1.09-.77l1.29,0c-.06-.24-.14-.47-.21-.71a24.9,24.9,0,0,1,16.28-3.7l.42-4.59S684.71,7.89,675.11,14.4Z"/>
    <path class="cls-1" d="M676.63,18.24c.07.24.15.47.21.71l-1.29,0c-.36.24-.72.51-1.09.77q.11.55.19,1.1l.85.85c2.57-.58,8.11-1.1,16.61,1.73l.8-8.82h0A24.9,24.9,0,0,0,676.63,18.24Z"/>
    <path class="cls-2" d="M622.22,15.63a21.92,21.92,0,0,1,2-3.62c-9.37-6-17.63-4-17.63-4l1.22,13.41-.8-8.82A24.64,24.64,0,0,1,622.22,15.63Z"/>
    <path class="cls-1" d="M621.08,18.95a45,45,0,0,0,10.45-1.34C634.36,8.79,643.12,2,654,.43h0c-.43-.06-.85-.14-1.29-.19h-.16c-.47,0-.94-.1-1.41-.13C650.45,0,649.71,0,649,0s-1.49,0-2.22.09c-.48,0-.94.08-1.41.13h-.16c-9,1-16.64,5.48-20.94,11.77a21.92,21.92,0,0,0-2,3.62A24.64,24.64,0,0,0,607,12.55l.8,8.82c7.61-2.54,12.84-2.38,15.7-1.91,0-.21.09-.41.14-.62C622.8,18.9,621.95,18.94,621.08,18.95Z"/>
    <path class="cls-3" d="M644.54,99.58l-.28.11Z"/>
    <path class="cls-3" d="M643.73,99.85l-.26.06Z"/>
    <path class="cls-3" d="M643.26,96a4.58,4.58,0,0,0,2,3.18l-.19.11a4.58,4.58,0,0,0,2.19-3.9V79.31H641Z"/>
    <path class="cls-3" d="M635.4,75.86h0L638.08,96a4.59,4.59,0,0,0,1.53,2.85A4.59,4.59,0,0,1,638.08,96Z"/>
    <path class="cls-3" d="M673.53,90.32c-.06.11-.12.22-.2.32C673.41,90.54,673.47,90.43,673.53,90.32Z"/>
    <path class="cls-3" d="M658.62,76.19,670,87.57a4.59,4.59,0,0,0,4.09,1.27,4.58,4.58,0,0,0-.85-3.65l-7.13-9.33H659Z"/>
    <path class="cls-3" d="M666.34,91.23l-15-15h0l15,15a4.6,4.6,0,0,0,5.78.59A4.6,4.6,0,0,1,666.34,91.23Z"/>
    <path class="cls-3" d="M674.1,88.84a4.83,4.83,0,0,1-.15.58A4.58,4.58,0,0,0,674.1,88.84Z"/>
    <path class="cls-3" d="M673.89,89.56a4.61,4.61,0,0,1-.2.47A4.53,4.53,0,0,0,673.89,89.56Z"/>
    <path class="cls-4" d="M670,87.57,658.62,76.19l.33-.33h-7.31l-.33.33,15,15a4.59,4.59,0,0,0,6.5,0,4.43,4.43,0,0,0,.49-.59c.07-.1.13-.21.2-.32s.12-.19.16-.29a4.61,4.61,0,0,0,.2-.47l.05-.15a4.83,4.83,0,0,0,.15-.58h0A4.59,4.59,0,0,1,670,87.57Z"/>
    <path class="cls-4" d="M635.4,75.86,638.08,96a4.55,4.55,0,0,0,5.39,3.91l.26-.06a4.53,4.53,0,0,0,.53-.16l.28-.11a4.6,4.6,0,0,0,.51-.28l.19-.11a4.58,4.58,0,0,1-2-3.18L641,79.31h6.21V75.86Z"/>
    <path class="cls-3" d="M615.86,47.09a4.64,4.64,0,0,1-.62-.39A4.66,4.66,0,0,0,615.86,47.09Z"/>
    <path class="cls-3" d="M613.93,45.3a4.73,4.73,0,0,1,5.27-2.15l13.91,3.73,1.3-4.54-15.2-4.07a4.74,4.74,0,0,0-4.1,8.35A4.79,4.79,0,0,1,613.93,45.3Z"/>
    <path class="cls-4" d="M633.1,46.88,619.2,43.15a4.73,4.73,0,0,0-5.27,2.15,4.79,4.79,0,0,0,1.17,1.31l.14.09a4.64,4.64,0,0,0,.62.39,4.7,4.7,0,0,0,.88.33l15.05,4Z"/>
    <path class="cls-3" d="M678.82,43.15a4.73,4.73,0,0,1,5.27,2.15,4.79,4.79,0,0,1-1.17,1.31,4.74,4.74,0,0,0-4.1-8.35l-15.3,4.1,1.3,4.54Z"/>
    <path class="cls-3" d="M682.79,46.69a4.64,4.64,0,0,1-.63.39A4.67,4.67,0,0,0,682.79,46.69Z"/>
    <path class="cls-4" d="M684.09,45.3a4.73,4.73,0,0,0-5.27-2.15l-14,3.75,1.31,4.58,15.15-4.06a4.7,4.7,0,0,0,.88-.33,4.64,4.64,0,0,0,.63-.39l.13-.08A4.79,4.79,0,0,0,684.09,45.3Z"/>
    <path class="cls-5" d="M649,48.28c-4.48,0-8.15-2-8.58-4.67l-.31-.09a28.05,28.05,0,0,1-5.36-2.26l-.31,1.08-1.3,4.54-1.31,4.58-3.06,10.71A1.7,1.7,0,0,1,630,63.79a1.72,1.72,0,0,1-1.72,1.72,1.66,1.66,0,0,1-.47-.09l-2.35,8.24a1.72,1.72,0,0,0,1.66,2.2h43.7a1.72,1.72,0,0,0,1.66-2.2l-2.35-8.24a1.66,1.66,0,0,1-.47.09,1.72,1.72,0,0,1-1.72-1.72,1.7,1.7,0,0,1,1.26-1.63l-3.05-10.68-1.31-4.58-1.3-4.54-.31-1.1a28.11,28.11,0,0,1-5.67,2.35C657.11,46.23,653.44,48.28,649,48.28Zm6.9,17.24a1.72,1.72,0,1,1,1.72-1.72A1.72,1.72,0,0,1,655.86,65.52Zm-3.45-8.62a1.72,1.72,0,1,1-1.72,1.72A1.72,1.72,0,0,1,652.41,56.9ZM638.61,70.69A1.72,1.72,0,1,1,640.34,69,1.72,1.72,0,0,1,638.61,70.69Zm-1.72-12.07a1.72,1.72,0,1,1,1.72,1.72A1.72,1.72,0,0,1,636.89,58.62Zm5.17,6.9a1.72,1.72,0,1,1,1.72-1.72A1.72,1.72,0,0,1,642.06,65.52Zm3.45-8.62a1.72,1.72,0,1,1-1.72,1.72A1.72,1.72,0,0,1,645.51,56.9Zm-13.79,0A1.72,1.72,0,1,1,630,58.62,1.72,1.72,0,0,1,631.72,56.9Zm0,13.79A1.72,1.72,0,1,1,633.44,69,1.72,1.72,0,0,1,631.72,70.69Zm1.72-6.9a1.72,1.72,0,1,1,1.72,1.72A1.72,1.72,0,0,1,633.44,63.79Zm12.07,6.9A1.72,1.72,0,1,1,647.24,69,1.72,1.72,0,0,1,645.51,70.69ZM649,65.52a1.72,1.72,0,1,1,1.72-1.72A1.72,1.72,0,0,1,649,65.52ZM650.68,69a1.72,1.72,0,1,1,1.72,1.72A1.72,1.72,0,0,1,650.68,69Zm6.9,0a1.72,1.72,0,1,1,1.72,1.72A1.72,1.72,0,0,1,657.58,69Zm5.17-3.45a1.72,1.72,0,1,1,1.72-1.72A1.72,1.72,0,0,1,662.75,65.52Zm-3.45-5.17A1.72,1.72,0,1,1,661,58.62,1.72,1.72,0,0,1,659.3,60.34Zm6.9,10.34A1.72,1.72,0,1,1,667.93,69,1.72,1.72,0,0,1,666.2,70.69Zm1.72-12.07a1.72,1.72,0,1,1-1.72-1.72A1.72,1.72,0,0,1,667.93,58.62Z"/>
    <path class="cls-6" d="M649,48.28c4.48,0,8.16-2,8.58-4.67a30.79,30.79,0,0,1-17.16,0C640.8,46.23,644.48,48.28,649,48.28Z"/>
    <path class="cls-3" d="M674.46,19.68c-.06-.28-.12-.56-.18-.84C660.62,17.95,649.88,11.27,649,3l-.13,0c-.67,6.33-7.09,11.71-16.15,14.3a18.19,18.19,0,0,0-1,6c0,10.68,9.32,19.52,21.55,21.23a30.94,30.94,0,0,1-4.31.32,30.5,30.5,0,0,0,8.58-1.22,28.11,28.11,0,0,0,5.67-2.35c7-3.86,11.61-10.47,11.61-18a18.17,18.17,0,0,0-.18-2.49Q674.57,20.23,674.46,19.68ZM657.58,25a2.59,2.59,0,1,1,5.17,0v3.45a2.59,2.59,0,1,1-5.17,0Zm-19.83,6a2.59,2.59,0,0,1-2.59-2.59V25a2.59,2.59,0,1,1,5.17,0v3.45A2.59,2.59,0,0,1,637.75,31ZM640,37.76a2,2,0,0,1,2.1-3.37,14.62,14.62,0,0,0,13.63,0,2,2,0,0,1,2.1,3.37,18.51,18.51,0,0,1-17.82,0Z"/>
    <path class="cls-7" d="M640.34,28.45V25a2.59,2.59,0,1,0-5.17,0v3.45a2.59,2.59,0,1,0,5.17,0Z"/>
    <path class="cls-7" d="M660.17,31a2.59,2.59,0,0,0,2.59-2.59V25a2.59,2.59,0,1,0-5.17,0v3.45A2.59,2.59,0,0,0,660.17,31Z"/>
    <path class="cls-6" d="M657.8,37.76a2,2,0,0,0-2.1-3.37,14.62,14.62,0,0,1-13.63,0,2,2,0,0,0-2.1,3.37,18.51,18.51,0,0,0,17.82,0Z"/>
    <path class="cls-4" d="M640.07,43.52l.31.09A30.5,30.5,0,0,0,649,44.83a30.94,30.94,0,0,0,4.31-.32C641,42.79,631.72,34,631.72,23.28a18.19,18.19,0,0,1,1-6,43.6,43.6,0,0,1-9.09,1.55c-.05.2-.09.41-.14.62s-.08.35-.11.53a18.23,18.23,0,0,0-.16,5.49c.8,6.59,5.18,12.3,11.48,15.78A28.05,28.05,0,0,0,640.07,43.52Z"/>
    <path class="cls-4" d="M649,1.9a10.4,10.4,0,0,1-.07,1.1L649,3A10.41,10.41,0,0,1,649,1.9Z"/>
    <path class="cls-2" d="M652.6.22h0c-.47-.05-.94-.1-1.41-.13C650.45,0,649.71,0,649,0c.75,0,1.49,0,2.22.09C651.66.12,652.13.17,652.6.22Z"/>
    <path class="cls-2" d="M646.74.09C647.47,0,648.21,0,649,0c-.75,0-1.49,0-2.22.09-.48,0-.94.08-1.41.13h0C645.79.17,646.26.12,646.74.09Z"/>
    <circle class="cls-8" cx="659.3" cy="68.97" r="1.72"/>
    <circle class="cls-9" cx="666.2" cy="68.97" r="1.72"/>
    <circle class="cls-8" cx="645.51" cy="68.97" r="1.72"/>
    <circle class="cls-9" cx="652.41" cy="68.97" r="1.72"/>
    <circle class="cls-9" cx="659.3" cy="58.62" r="1.72"/>
    <circle class="cls-8" cx="638.61" cy="58.62" r="1.72"/>
    <circle class="cls-9" cx="645.51" cy="58.62" r="1.72"/>
    <circle class="cls-8" cx="652.41" cy="58.62" r="1.72"/>
    <circle class="cls-9" cx="662.75" cy="63.79" r="1.72"/>
    <circle class="cls-8" cx="642.06" cy="63.79" r="1.72"/>
    <circle class="cls-8" cx="631.72" cy="68.97" r="1.72"/>
    <circle class="cls-9" cx="648.96" cy="63.79" r="1.72"/>
    <circle class="cls-8" cx="655.86" cy="63.79" r="1.72"/>
    <circle class="cls-8" cx="666.2" cy="58.62" r="1.72"/>
    <circle class="cls-9" cx="638.61" cy="68.97" r="1.72"/>
    <circle class="cls-9" cx="631.72" cy="58.62" r="1.72"/>
    <circle class="cls-9" cx="635.17" cy="63.79" r="1.72"/>
    <path class="cls-8" d="M667.93,63.79a1.72,1.72,0,0,0,1.72,1.72,1.66,1.66,0,0,0,.47-.09h0l-.93-3.26h0A1.7,1.7,0,0,0,667.93,63.79Z"/>
    <path class="cls-8" d="M630,63.79a1.7,1.7,0,0,0-1.26-1.63h0l-.93,3.26h0a1.66,1.66,0,0,0,.47.09A1.72,1.72,0,0,0,630,63.79Z"/>
    <polygon class="cls-2" points="475.26 21.54 475.45 21.92 475.26 21.54 475.26 21.54"/>
    <path class="cls-2" d="M476.09,15.31C472.6,7.65,464.47,1.92,454.57.43,443.65,2,434.88,8.79,432.06,17.61a45,45,0,0,1-10.45,1.34c.87,0,1.72,0,2.56-.1a43.6,43.6,0,0,0,9.09-1.55c9.07-2.59,15.48-8,16.16-14.3a10.4,10.4,0,0,0,.07-1.1A10.41,10.41,0,0,0,449.55,3c.86,8.3,11.6,15,25.25,15.88.08.3.14.61.2.92,10-3.21,17.26-.13,19.21.88l-3.52,8.13L496,16.41S487.94,11.4,476.09,15.31Z"/>
    <path class="cls-1" d="M475,19.76c.11.58.2,1.18.26,1.78l.19.39c2.62.26,8,1.49,15.23,6.84l3.52-8.13C492.26,19.64,485,16.55,475,19.76Z"/>
    <path class="cls-2" d="M422.27,16.83A21.36,21.36,0,0,1,424,13.12C411.88,9.72,404,15.23,404,15.23L406,19.35A24.82,24.82,0,0,1,422.27,16.83Z"/>
    <path class="cls-1" d="M421.61,18.95a45,45,0,0,0,10.45-1.34C434.88,8.79,443.65,2,454.57.43h0c-.43-.06-.85-.14-1.29-.19h-.16c-.47,0-.94-.1-1.41-.13C451,0,450.24,0,449.49,0S448,0,447.26.09c-.48,0-.94.08-1.41.13h-.16c-9.5,1.06-17.51,6-21.64,12.88a21.36,21.36,0,0,0-1.78,3.71A24.82,24.82,0,0,0,406,19.35h0l4,7.93c6.22-5.17,11.18-6.91,14-7.49.06-.32.13-.63.21-.94C423.33,18.9,422.48,18.94,421.61,18.95Z"/>
    <path class="cls-3" d="M445.06,99.58l-.28.11Z"/>
    <path class="cls-3" d="M435.92,75.86h0L438.61,96a4.59,4.59,0,0,0,1.53,2.85A4.59,4.59,0,0,1,438.61,96Z"/>
    <path class="cls-3" d="M443.78,96a4.58,4.58,0,0,0,2,3.18l-.19.11a4.58,4.58,0,0,0,2.19-3.9V79.31h-6.21Z"/>
    <path class="cls-3" d="M444.26,99.85l-.26.06Z"/>
    <path class="cls-3" d="M471,93.81a4.81,4.81,0,0,1-.28.53A4.57,4.57,0,0,0,471,93.81Z"/>
    <path class="cls-3" d="M458.9,77.89l8.4,13.73A4.59,4.59,0,0,0,471,93.81a4.58,4.58,0,0,0,0-3.75l-6.28-14.2h-2.51Z"/>
    <path class="cls-3" d="M462.89,94.32h0a4.6,4.6,0,0,0,6.32,1.52h0A4.6,4.6,0,0,1,462.89,94.32Z"/>
    <path class="cls-3" d="M470.62,94.47a4.61,4.61,0,0,1-.3.41A4.55,4.55,0,0,0,470.62,94.47Z"/>
    <path class="cls-3" d="M470.09,95.12c-.09.09-.17.18-.27.27C469.92,95.3,470,95.21,470.09,95.12Z"/>
    <path class="cls-4" d="M467.3,91.62l-8.4-13.73,3.32-2h-9.91l-.52.32,11.1,18.14h0a4.6,4.6,0,0,0,6.32,1.52h0a4.44,4.44,0,0,0,.61-.46c.1-.08.18-.18.27-.27l.23-.25a4.61,4.61,0,0,0,.3-.41l.08-.13a4.81,4.81,0,0,0,.28-.53h0A4.59,4.59,0,0,1,467.3,91.62Z"/>
    <path class="cls-4" d="M435.92,75.86,438.61,96A4.55,4.55,0,0,0,444,99.92l.26-.06a4.53,4.53,0,0,0,.53-.16l.28-.11a4.6,4.6,0,0,0,.51-.28l.19-.11a4.58,4.58,0,0,1-2-3.18l-2.23-16.7h6.21V75.86Z"/>
    <path class="cls-3" d="M416,53.68a4.63,4.63,0,0,1-.69-.25A4.67,4.67,0,0,0,416,53.68Z"/>
    <path class="cls-3" d="M418.46,49.12l14.33.68,1.33-4.67-16.7-.8a4.74,4.74,0,0,0-2.23,9,4.79,4.79,0,0,1-1.43-1A4.73,4.73,0,0,1,418.46,49.12Z"/>
    <path class="cls-4" d="M432.79,49.81l-14.33-.68a4.73,4.73,0,0,0-4.69,3.22,4.79,4.79,0,0,0,1.43,1l.16.06a4.63,4.63,0,0,0,.69.25,4.7,4.7,0,0,0,.93.14l14.48.69Z"/>
    <path class="cls-3" d="M480.49,48.93a4.73,4.73,0,0,1,4.71,3.19,4.79,4.79,0,0,1-1.42,1,4.74,4.74,0,0,0-2.28-9L464.82,45l1.33,4.66Z"/>
    <path class="cls-3" d="M483.64,53.21a4.65,4.65,0,0,1-.71.26A4.68,4.68,0,0,0,483.64,53.21Z"/>
    <path class="cls-4" d="M480.49,48.93l-14.35.76,1.34,4.69L482,53.61a4.7,4.7,0,0,0,.93-.14,4.65,4.65,0,0,0,.71-.26l.14-.05a4.79,4.79,0,0,0,1.42-1A4.73,4.73,0,0,0,480.49,48.93Z"/>
    <path class="cls-5" d="M449.49,48.28c-4.48,0-8.15-2-8.58-4.67l-.31-.09a28.05,28.05,0,0,1-5.36-2.26l-1.11,3.88-1.33,4.67-1.34,4.7-2.19,7.66a1.7,1.7,0,0,1,1.26,1.63,1.72,1.72,0,0,1-1.72,1.72,1.66,1.66,0,0,1-.47-.09L426,73.66a1.72,1.72,0,0,0,1.66,2.2h43.7a1.72,1.72,0,0,0,1.66-2.2l-2.35-8.24a1.66,1.66,0,0,1-.47.09,1.72,1.72,0,0,1-1.72-1.72,1.7,1.7,0,0,1,1.26-1.63l-2.22-7.78-1.34-4.69L464.82,45l-1.08-3.77a28.11,28.11,0,0,1-5.67,2.35C457.64,46.23,454,48.28,449.49,48.28Zm12.07,15.52a1.72,1.72,0,1,1,1.72,1.72A1.72,1.72,0,0,1,461.56,63.79Zm-1.72-3.45a1.72,1.72,0,1,1,1.72-1.72A1.72,1.72,0,0,1,459.83,60.34Zm0,6.9A1.72,1.72,0,1,1,458.11,69,1.72,1.72,0,0,1,459.83,67.24Zm-3.45-1.72a1.72,1.72,0,1,1,1.72-1.72A1.72,1.72,0,0,1,456.38,65.52Zm-3.45-8.62a1.72,1.72,0,1,1-1.72,1.72A1.72,1.72,0,0,1,452.94,56.9Zm-5.17,1.72A1.72,1.72,0,1,1,446,56.9,1.72,1.72,0,0,1,447.76,58.62Zm-8.62,12.07A1.72,1.72,0,1,1,440.87,69,1.72,1.72,0,0,1,439.14,70.69Zm-1.72-12.07a1.72,1.72,0,1,1,1.72,1.72A1.72,1.72,0,0,1,437.42,58.62Zm5.17,6.9a1.72,1.72,0,1,1,1.72-1.72A1.72,1.72,0,0,1,442.59,65.52ZM432.25,56.9a1.72,1.72,0,1,1-1.72,1.72A1.72,1.72,0,0,1,432.25,56.9Zm0,13.79A1.72,1.72,0,1,1,434,69,1.72,1.72,0,0,1,432.25,70.69Zm1.72-6.9a1.72,1.72,0,1,1,1.72,1.72A1.72,1.72,0,0,1,434,63.79ZM446,70.69A1.72,1.72,0,1,1,447.76,69,1.72,1.72,0,0,1,446,70.69Zm3.45-5.17a1.72,1.72,0,1,1,1.72-1.72A1.72,1.72,0,0,1,449.49,65.52ZM451.21,69a1.72,1.72,0,1,1,1.72,1.72A1.72,1.72,0,0,1,451.21,69Zm15.52,1.72A1.72,1.72,0,1,1,468.45,69,1.72,1.72,0,0,1,466.73,70.69Zm1.72-12.07a1.72,1.72,0,1,1-1.72-1.72A1.72,1.72,0,0,1,468.45,58.62Z"/>
    <path class="cls-6" d="M449.49,48.28c4.48,0,8.16-2,8.58-4.67a30.79,30.79,0,0,1-17.16,0C441.33,46.23,445,48.28,449.49,48.28Z"/>
    <path class="cls-3" d="M475,19.76c-.06-.31-.13-.61-.2-.92-13.65-.9-24.4-7.58-25.25-15.88l-.13,0c-.67,6.33-7.09,11.71-16.16,14.3a18.19,18.19,0,0,0-1,6c0,10.68,9.32,19.52,21.55,21.23a30.94,30.94,0,0,1-4.31.32,30.5,30.5,0,0,0,8.58-1.22,28.11,28.11,0,0,0,5.67-2.35c7-3.86,11.61-10.47,11.61-18,0-.59,0-1.16-.09-1.74h0C475.2,20.94,475.12,20.35,475,19.76ZM458.11,25a2.59,2.59,0,1,1,5.17,0v3.45a2.59,2.59,0,1,1-5.17,0Zm-19.83,6a2.59,2.59,0,0,1-2.59-2.59V25a2.59,2.59,0,1,1,5.17,0v3.45A2.59,2.59,0,0,1,438.28,31Zm2.23,6.73a2,2,0,0,1,2.1-3.37,14.62,14.62,0,0,0,13.63,0,2,2,0,0,1,2.1,3.37,18.51,18.51,0,0,1-17.82,0Z"/>
    <path class="cls-7" d="M440.87,28.45V25a2.59,2.59,0,1,0-5.17,0v3.45a2.59,2.59,0,1,0,5.17,0Z"/>
    <path class="cls-7" d="M460.69,31a2.59,2.59,0,0,0,2.59-2.59V25a2.59,2.59,0,1,0-5.17,0v3.45A2.59,2.59,0,0,0,460.69,31Z"/>
    <path class="cls-6" d="M458.33,37.76a2,2,0,0,0-2.1-3.37,14.62,14.62,0,0,1-13.63,0,2,2,0,0,0-2.1,3.37,18.51,18.51,0,0,0,17.82,0Z"/>
    <path class="cls-4" d="M440.6,43.52l.31.09a30.5,30.5,0,0,0,8.58,1.22,30.94,30.94,0,0,0,4.31-.32C441.57,42.79,432.25,34,432.25,23.28a18.19,18.19,0,0,1,1-6,43.6,43.6,0,0,1-9.09,1.55c-.08.31-.15.62-.21.94l0,.21a18.23,18.23,0,0,0-.16,5.49c.8,6.59,5.18,12.3,11.48,15.78A28.05,28.05,0,0,0,440.6,43.52Z"/>
    <path class="cls-4" d="M449.49,1.9a10.4,10.4,0,0,1-.07,1.1l.13,0A10.41,10.41,0,0,1,449.49,1.9Z"/>
    <path class="cls-2" d="M453.12.22h0c-.47-.05-.94-.1-1.41-.13C451,0,450.24,0,449.49,0c.75,0,1.49,0,2.22.09C452.19.12,452.66.17,453.12.22Z"/>
    <path class="cls-2" d="M447.26.09C448,0,448.74,0,449.49,0c-.75,0-1.49,0-2.22.09-.48,0-.94.08-1.41.13h0C446.32.17,446.79.12,447.26.09Z"/>
    <circle class="cls-8" cx="459.83" cy="68.97" r="1.72"/>
    <circle class="cls-9" cx="466.73" cy="68.97" r="1.72"/>
    <circle class="cls-8" cx="446.04" cy="68.97" r="1.72"/>
    <circle class="cls-9" cx="452.94" cy="68.97" r="1.72"/>
    <circle class="cls-9" cx="459.83" cy="58.62" r="1.72"/>
    <circle class="cls-8" cx="439.14" cy="58.62" r="1.72"/>
    <circle class="cls-9" cx="446.04" cy="58.62" r="1.72"/>
    <circle class="cls-8" cx="452.94" cy="58.62" r="1.72"/>
    <circle class="cls-9" cx="463.28" cy="63.79" r="1.72"/>
    <circle class="cls-8" cx="442.59" cy="63.79" r="1.72"/>
    <circle class="cls-8" cx="432.25" cy="68.97" r="1.72"/>
    <circle class="cls-9" cx="449.49" cy="63.79" r="1.72"/>
    <circle class="cls-8" cx="456.38" cy="63.79" r="1.72"/>
    <circle class="cls-8" cx="466.73" cy="58.62" r="1.72"/>
    <circle class="cls-9" cx="439.14" cy="68.97" r="1.72"/>
    <circle class="cls-9" cx="432.25" cy="58.62" r="1.72"/>
    <circle class="cls-9" cx="435.69" cy="63.79" r="1.72"/>
    <path class="cls-8" d="M468.45,63.79a1.72,1.72,0,0,0,1.72,1.72,1.66,1.66,0,0,0,.47-.09h0l-.93-3.26h0A1.7,1.7,0,0,0,468.45,63.79Z"/>
    <path class="cls-8" d="M430.52,63.79a1.7,1.7,0,0,0-1.26-1.63h0l-.93,3.26h0a1.66,1.66,0,0,0,.47.09A1.72,1.72,0,0,0,430.52,63.79Z"/>
    <path class="cls-2" d="M177.25,17.4C174.37,8.7,165.7,2,154.91.43,144,2,135.23,8.79,132.41,17.61A45,45,0,0,1,122,18.95c.13-.52.29-1,.45-1.54-12.32,1.25-17.68,9-17.68,9l9.88,9.15-6.5-6c1.33-1.64,6.36-7,16-8.4,0-.39.1-.78.17-1.17s.16-.77.25-1.15a43.6,43.6,0,0,0,9.09-1.55c9.07-2.59,15.48-8,16.15-14.3a10.4,10.4,0,0,0,.07-1.1A10.41,10.41,0,0,0,149.89,3c.86,8.3,11.6,15,25.25,15.88a18.2,18.2,0,0,1,.43,2.39c9.74.9,15.06,6.05,16.47,7.63l-6.21,6.32,9.43-9.61S189.57,18.07,177.25,17.4Z"/>
    <path class="cls-1" d="M175.57,21.24a18.19,18.19,0,0,1,.12,2c0,.32,0,.65,0,1,2.54,1.62,6.31,4.82,10.18,10.95L192,28.87C190.64,27.29,185.31,22.13,175.57,21.24Z"/>
    <path class="cls-1" d="M124.09,21.16c-9.62,1.39-14.66,6.77-16,8.4l6.5,6c3.46-6.1,6.94-9.45,9.39-11.24,0-.35,0-.71,0-1.07A18.2,18.2,0,0,1,124.09,21.16Z"/>
    <path class="cls-3" d="M144.13,96a4.58,4.58,0,0,0,2,3.18l-.19.11a4.58,4.58,0,0,0,2.19-3.9V79.31H141.9Z"/>
    <path class="cls-3" d="M145.41,99.58l-.28.11Z"/>
    <path class="cls-3" d="M144.6,99.85l-.26.06Z"/>
    <path class="cls-3" d="M136.27,75.86h0L139,96a4.59,4.59,0,0,0,1.53,2.85A4.59,4.59,0,0,1,139,96Z"/>
    <path class="cls-3" d="M154.32,95.18,151.8,75.86h0l2.52,19.32a4.6,4.6,0,0,0,4.22,4A4.6,4.6,0,0,1,154.32,95.18Z"/>
    <path class="cls-3" d="M161.92,98a4.82,4.82,0,0,1-.47.36A4.58,4.58,0,0,0,161.92,98Z"/>
    <path class="cls-3" d="M163.52,77.75l-6.15.8,2.08,16a4.59,4.59,0,0,0,2.47,3.5,4.58,4.58,0,0,0,1.55-3.41l.06-18.74h0Z"/>
    <path class="cls-3" d="M161.32,98.46a4.62,4.62,0,0,1-.44.25A4.55,4.55,0,0,0,161.32,98.46Z"/>
    <path class="cls-3" d="M160.57,98.84l-.35.13Z"/>
    <path class="cls-4" d="M159.45,94.51l-2.08-16,6.15-.8V75.86H151.8l2.52,19.32a4.59,4.59,0,0,0,5.15,4,4.43,4.43,0,0,0,.75-.17l.35-.13.31-.13a4.62,4.62,0,0,0,.44-.25l.13-.09a4.82,4.82,0,0,0,.47-.36h0A4.59,4.59,0,0,1,159.45,94.51Z"/>
    <path class="cls-4" d="M136.27,75.86,139,96a4.55,4.55,0,0,0,5.39,3.91l.26-.06a4.53,4.53,0,0,0,.53-.16l.28-.11a4.6,4.6,0,0,0,.51-.28l.19-.11a4.58,4.58,0,0,1-2-3.18l-2.23-16.7h6.21V75.86Z"/>
    <path class="cls-3" d="M120.19,54.82l13.35-6.44,1.74-6.08L117,51.11a4.74,4.74,0,0,0,2.34,9,4.79,4.79,0,0,1-1.75-.23A4.73,4.73,0,0,1,120.19,54.82Z"/>
    <path class="cls-3" d="M120.23,60a4.64,4.64,0,0,1-.73.11A4.66,4.66,0,0,0,120.23,60Z"/>
    <path class="cls-4" d="M133.55,48.38l-13.35,6.44a4.73,4.73,0,0,0-2.59,5.07,4.79,4.79,0,0,0,1.75.23l.16,0a4.64,4.64,0,0,0,.73-.11,4.7,4.7,0,0,0,.88-.32L131.8,54.5Z"/>
    <path class="cls-3" d="M180.65,59.47a4.65,4.65,0,0,1-.74-.1A4.67,4.67,0,0,0,180.65,59.47Z"/>
    <path class="cls-3" d="M179.84,54.21a4.73,4.73,0,0,1,2.71,5,4.79,4.79,0,0,1-1.74.27,4.74,4.74,0,0,0,2.14-9.05l-18.67-8.49,1.7,6Z"/>
    <path class="cls-4" d="M179.84,54.21,166,47.91l1.72,6L179,59.07a4.7,4.7,0,0,0,.89.3,4.65,4.65,0,0,0,.74.1l.15,0a4.79,4.79,0,0,0,1.74-.27A4.73,4.73,0,0,0,179.84,54.21Z"/>
    <path class="cls-5" d="M158.41,43.61c-.42,2.62-4.1,4.67-8.58,4.67s-8.15-2-8.58-4.67l-.31-.09c-.68-.21-1.35-.45-2-.7l-.79-.32a27.47,27.47,0,0,1-2.56-1.24l-.3,1-1.74,6.08L131.8,54.5l-2.19,7.66a1.7,1.7,0,0,1,1.26,1.63,1.72,1.72,0,0,1-1.72,1.72,1.66,1.66,0,0,1-.47-.09l-2.35,8.24a1.72,1.72,0,0,0,1.66,2.2h43.7a1.72,1.72,0,0,0,1.66-2.2L171,65.42a1.66,1.66,0,0,1-.47.09,1.72,1.72,0,0,1-1.72-1.72,1.7,1.7,0,0,1,1.26-1.63l-2.36-8.25-1.72-6-1.7-6-.2-.68A28.12,28.12,0,0,1,158.41,43.61Zm1.77,23.63A1.72,1.72,0,1,1,158.45,69,1.72,1.72,0,0,1,160.18,67.24Zm-1.72-8.62a1.72,1.72,0,1,1,1.72,1.72A1.72,1.72,0,0,1,158.45,58.62Zm-1.72,6.9a1.72,1.72,0,1,1,1.72-1.72A1.72,1.72,0,0,1,156.73,65.52Zm-3.45-8.62a1.72,1.72,0,1,1-1.72,1.72A1.72,1.72,0,0,1,153.28,56.9Zm-5.17,1.72a1.72,1.72,0,1,1-1.72-1.72A1.72,1.72,0,0,1,148.11,58.62Zm-8.62,12.07A1.72,1.72,0,1,1,141.21,69,1.72,1.72,0,0,1,139.49,70.69Zm-1.72-12.07a1.72,1.72,0,1,1,1.72,1.72A1.72,1.72,0,0,1,137.76,58.62Zm5.17,6.9a1.72,1.72,0,1,1,1.72-1.72A1.72,1.72,0,0,1,142.93,65.52ZM132.59,56.9a1.72,1.72,0,1,1-1.72,1.72A1.72,1.72,0,0,1,132.59,56.9Zm0,13.79A1.72,1.72,0,1,1,134.31,69,1.72,1.72,0,0,1,132.59,70.69Zm1.72-6.9A1.72,1.72,0,1,1,136,65.52,1.72,1.72,0,0,1,134.31,63.79Zm12.07,6.9A1.72,1.72,0,1,1,148.11,69,1.72,1.72,0,0,1,146.38,70.69Zm3.45-5.17a1.72,1.72,0,1,1,1.72-1.72A1.72,1.72,0,0,1,149.83,65.52Zm3.45,1.72A1.72,1.72,0,1,1,151.56,69,1.72,1.72,0,0,1,153.28,67.24Zm10.34-1.72a1.72,1.72,0,1,1,1.72-1.72A1.72,1.72,0,0,1,163.62,65.52Zm3.45,5.17A1.72,1.72,0,1,1,168.8,69,1.72,1.72,0,0,1,167.07,70.69Zm1.72-12.07a1.72,1.72,0,1,1-1.72-1.72A1.72,1.72,0,0,1,168.8,58.62Z"/>
    <path class="cls-6" d="M141.25,43.61c.42,2.62,4.1,4.67,8.58,4.67s8.16-2,8.58-4.67a30.79,30.79,0,0,1-17.16,0Z"/>
    <path class="cls-3" d="M126.24,32.1a19.39,19.39,0,0,1-.94-2A19.39,19.39,0,0,0,126.24,32.1Z"/>
    <path class="cls-3" d="M134.73,40.77q-.52-.31-1-.64Q134.22,40.46,134.73,40.77Z"/>
    <path class="cls-3" d="M128.49,35.45l-.26-.33Z"/>
    <path class="cls-3" d="M175.57,21.24a18.2,18.2,0,0,0-.43-2.39c-13.65-.9-24.4-7.58-25.25-15.88l-.13,0c-.67,6.33-7.09,11.71-16.15,14.3a18.19,18.19,0,0,0-1,6c0,10.68,9.32,19.52,21.55,21.23a30.94,30.94,0,0,1-4.31.32,30.5,30.5,0,0,0,8.58-1.22,28.12,28.12,0,0,0,5.67-2.35c6.69-3.69,11.2-9.9,11.58-17,0-.32,0-.64,0-1A18.19,18.19,0,0,0,175.57,21.24ZM158.45,25a2.59,2.59,0,1,1,5.17,0v3.45a2.59,2.59,0,1,1-5.17,0Zm-17.24,3.45a2.59,2.59,0,1,1-5.17,0V25a2.59,2.59,0,1,1,5.17,0Zm.81,9.22a1.72,1.72,0,1,1,1.82-2.93,12.71,12.71,0,0,0,11.84,0,1.72,1.72,0,1,1,1.82,2.93,16.09,16.09,0,0,1-15.48,0Z"/>
    <path class="cls-3" d="M138.93,42.82l-.79-.32Z"/>
    <path class="cls-7" d="M138.62,22.41A2.59,2.59,0,0,0,136,25v3.45a2.59,2.59,0,1,0,5.17,0V25A2.59,2.59,0,0,0,138.62,22.41Z"/>
    <path class="cls-7" d="M161,31a2.59,2.59,0,0,0,2.59-2.59V25a2.59,2.59,0,1,0-5.17,0v3.45A2.59,2.59,0,0,0,161,31Z"/>
    <path class="cls-6" d="M157.51,37.67a1.72,1.72,0,1,0-1.82-2.93,12.71,12.71,0,0,1-11.84,0A1.72,1.72,0,1,0,142,37.67a16.09,16.09,0,0,0,15.48,0Z"/>
    <path class="cls-4" d="M138.14,42.5l.79.32c.66.25,1.32.49,2,.7l.31.09a30.5,30.5,0,0,0,8.58,1.22,30.94,30.94,0,0,0,4.31-.32C141.91,42.79,132.59,34,132.59,23.28a18.19,18.19,0,0,1,1-6,43.6,43.6,0,0,1-9.09,1.55c-.09.38-.18.76-.25,1.15s-.13.78-.17,1.17a18.2,18.2,0,0,0-.13,2.11c0,.36,0,.71,0,1.07s.06.76.1,1.14a18.4,18.4,0,0,0,1.19,4.61,19.39,19.39,0,0,0,.94,2,20.74,20.74,0,0,0,2,3l.26.33a23.86,23.86,0,0,0,5.23,4.68q.5.33,1,.64l.85.49A27.47,27.47,0,0,0,138.14,42.5Z"/>
    <path class="cls-4" d="M149.83,1.9a10.4,10.4,0,0,1-.07,1.1l.13,0A10.41,10.41,0,0,1,149.83,1.9Z"/>
    <path class="cls-2" d="M153.47.22h0c-.47-.05-.94-.1-1.41-.13C151.32,0,150.58,0,149.83,0c.75,0,1.49,0,2.22.09C152.53.12,153,.17,153.47.22Z"/>
    <path class="cls-2" d="M147.61.09c.73-.05,1.47-.09,2.22-.09-.75,0-1.49,0-2.22.09-.48,0-.94.08-1.41.13h0C146.66.17,147.13.12,147.61.09Z"/>
    <path class="cls-1" d="M132.41,17.61C135.23,8.79,144,2,154.91.43h0c-.43-.06-.85-.14-1.29-.19h-.16c-.47,0-.94-.1-1.41-.13C151.32,0,150.58,0,149.83,0s-1.49,0-2.22.09c-.48,0-.94.08-1.41.13H146c-11.39,1.27-20.64,8.13-23.63,17.17-.17.51-.33,1-.45,1.54A45,45,0,0,0,132.41,17.61Z"/>
    <circle class="cls-8" cx="160.18" cy="68.97" r="1.72"/>
    <circle class="cls-9" cx="167.07" cy="68.97" r="1.72"/>
    <circle class="cls-8" cx="146.38" cy="68.97" r="1.72"/>
    <circle class="cls-9" cx="153.28" cy="68.97" r="1.72"/>
    <circle class="cls-9" cx="160.18" cy="58.62" r="1.72"/>
    <circle class="cls-8" cx="139.49" cy="58.62" r="1.72"/>
    <circle class="cls-9" cx="146.38" cy="58.62" r="1.72"/>
    <circle class="cls-8" cx="153.28" cy="58.62" r="1.72"/>
    <circle class="cls-9" cx="163.62" cy="63.79" r="1.72"/>
    <circle class="cls-8" cx="142.93" cy="63.79" r="1.72"/>
    <circle class="cls-8" cx="132.59" cy="68.97" r="1.72"/>
    <circle class="cls-9" cx="149.83" cy="63.79" r="1.72"/>
    <circle class="cls-8" cx="156.73" cy="63.79" r="1.72"/>
    <circle class="cls-8" cx="167.07" cy="58.62" r="1.72"/>
    <circle class="cls-9" cx="139.49" cy="68.97" r="1.72"/>
    <circle class="cls-9" cx="132.59" cy="58.62" r="1.72"/>
    <circle class="cls-9" cx="136.04" cy="63.79" r="1.72"/>
    <path class="cls-8" d="M168.8,63.79a1.72,1.72,0,0,0,1.72,1.72,1.66,1.66,0,0,0,.47-.09h0l-.93-3.26h0A1.7,1.7,0,0,0,168.8,63.79Z"/>
    <path class="cls-8" d="M130.87,63.79a1.7,1.7,0,0,0-1.26-1.63h0l-.93,3.26h0a1.66,1.66,0,0,0,.47.09A1.72,1.72,0,0,0,130.87,63.79Z"/>
    <path class="cls-2" d="M376.16,15.81C372.81,7.9,364.55,1.95,354.43.43,343.51,2,334.75,8.79,331.93,17.61a45,45,0,0,1-10.45,1.34c.87,0,1.72,0,2.56-.1a43.6,43.6,0,0,0,9.09-1.55c9.07-2.59,15.48-8,16.15-14.3a10.4,10.4,0,0,0,.07-1.1A10.41,10.41,0,0,0,349.41,3c.86,8.3,11.6,15,25.25,15.88q.14.54.24,1.09c10.32-1.49,17,2.73,18.71,4l2.5-3.87S388.78,13.68,376.16,15.81Z"/>
    <path class="cls-1" d="M374.9,19.94a18.15,18.15,0,0,1,.28,2.3c2.63.76,7.63,2.94,13.62,9.18L393.62,24h0C391.86,22.67,385.22,18.45,374.9,19.94Z"/>
    <path class="cls-2" d="M321.77,17.94a21,21,0,0,1,1.68-4C310.38,13.39,303.88,21,303.88,21l8.84,10.16-5.81-6.69A24.75,24.75,0,0,1,321.77,17.94Z"/>
    <path class="cls-1" d="M324,18.85c-.84.06-1.7.09-2.56.1a45,45,0,0,0,10.45-1.34C334.75,8.79,343.51,2,354.43.43h0c-.43-.06-.85-.14-1.29-.19H353c-.47,0-.94-.1-1.41-.13C350.84,0,350.1,0,349.35,0s-1.49,0-2.22.09c-.48,0-.94.08-1.41.13h-.16c-9.86,1.1-18.13,6.39-22.1,13.67a21,21,0,0,0-1.68,4,24.75,24.75,0,0,0-14.87,6.49l5.81,6.69c4.31-6,8.32-8.95,11-10.39,0-.25.07-.5.11-.75S323.94,19.23,324,18.85Z"/>
    <path class="cls-3" d="M344.93,99.58l-.28.11Z"/>
    <path class="cls-3" d="M343.65,96a4.58,4.58,0,0,0,2,3.18l-.19.11a4.58,4.58,0,0,0,2.19-3.9V79.31h-6.21Z"/>
    <path class="cls-3" d="M338.47,96l-2.69-20.15h0L338.47,96a4.59,4.59,0,0,0,2.18,3.33A4.59,4.59,0,0,1,338.47,96Z"/>
    <path class="cls-3" d="M344.12,99.85l-.26.06Z"/>
    <path class="cls-3" d="M367.09,96.67c-.1.08-.19.16-.3.23C366.9,96.83,367,96.75,367.09,96.67Z"/>
    <path class="cls-3" d="M360.35,95.49a4.58,4.58,0,0,0,5.78,1.79h0A4.58,4.58,0,0,1,360.35,95.49Z"/>
    <path class="cls-3" d="M367.7,96.09a4.61,4.61,0,0,1-.35.37A4.54,4.54,0,0,0,367.7,96.09Z"/>
    <path class="cls-3" d="M358.19,78.16l6.59,14.68a4.59,4.59,0,0,0,3.37,2.64,4.58,4.58,0,0,0,.51-3.71l-4.73-15.91h-.6Z"/>
    <path class="cls-3" d="M368.15,95.49a4.81,4.81,0,0,1-.35.49A4.57,4.57,0,0,0,368.15,95.49Z"/>
    <path class="cls-4" d="M364.77,92.85l-6.59-14.68,5.13-2.3H351.49L360.05,95a4.53,4.53,0,0,0,.3.52,4.58,4.58,0,0,0,5.78,1.79h0a4.43,4.43,0,0,0,.67-.38c.11-.07.2-.15.3-.23l.26-.21a4.61,4.61,0,0,0,.35-.37l.1-.12a4.81,4.81,0,0,0,.35-.49h0A4.59,4.59,0,0,1,364.77,92.85Z"/>
    <path class="cls-4" d="M335.79,75.86,338.47,96a4.55,4.55,0,0,0,5.39,3.91l.26-.06a4.53,4.53,0,0,0,.53-.16l.28-.11a4.6,4.6,0,0,0,.51-.28l.19-.11a4.58,4.58,0,0,1-2-3.18l-2.23-16.7h6.21V75.86Z"/>
    <path class="cls-3" d="M317.4,57.06a4.64,4.64,0,0,1-.73-.06A4.67,4.67,0,0,0,317.4,57.06Z"/>
    <path class="cls-3" d="M318.57,52l14.34-3.11,1.47-5.15-18.05,3.92a4.74,4.74,0,0,0,.18,9.3,4.79,4.79,0,0,1-1.64-.63A4.73,4.73,0,0,1,318.57,52Z"/>
    <path class="cls-4" d="M332.91,48.93,318.57,52a4.73,4.73,0,0,0-3.7,4.32,4.79,4.79,0,0,0,1.64.63l.17,0a4.64,4.64,0,0,0,.73.06,4.71,4.71,0,0,0,.93-.11l13.09-2.84Z"/>
    <path class="cls-3" d="M380.26,51.16a4.73,4.73,0,0,1,4,4.06,4.79,4.79,0,0,1-1.6.74,4.74,4.74,0,0,0-.45-9.29L364.4,44l1.42,5Z"/>
    <path class="cls-3" d="M382.5,56a4.65,4.65,0,0,1-.74.11A4.66,4.66,0,0,0,382.5,56Z"/>
    <path class="cls-4" d="M380.26,51.16,365.82,49l1.43,5,13.56,2a4.7,4.7,0,0,0,.94,0,4.65,4.65,0,0,0,.74-.11l.15,0a4.79,4.79,0,0,0,1.6-.74A4.73,4.73,0,0,0,380.26,51.16Z"/>
    <path class="cls-5" d="M357.93,43.61c-.42,2.62-4.1,4.67-8.58,4.67s-8.16-2-8.58-4.67l-.31-.09a28.34,28.34,0,0,1-4-1.56q-.55-.26-1.08-.55l-.28-.15-.72,2.51-1.47,5.15-1.48,5.19-2.3,8a1.7,1.7,0,0,1,1.26,1.63,1.72,1.72,0,0,1-1.72,1.72,1.66,1.66,0,0,1-.47-.09l-2.35,8.24a1.72,1.72,0,0,0,1.66,2.2h43.7a1.72,1.72,0,0,0,1.66-2.2l-2.35-8.24a1.66,1.66,0,0,1-.47.09,1.72,1.72,0,0,1-1.72-1.72,1.7,1.7,0,0,1,1.26-1.63l-2.32-8.11-1.43-5-1.42-5-.8-2.79A28.12,28.12,0,0,1,357.93,43.61Zm1.77,23.63A1.72,1.72,0,1,1,358,69,1.72,1.72,0,0,1,359.69,67.24ZM358,58.62a1.72,1.72,0,1,1,1.72,1.72A1.72,1.72,0,0,1,358,58.62Zm-1.72,6.9A1.72,1.72,0,1,1,358,63.79,1.72,1.72,0,0,1,356.25,65.52ZM352.8,56.9a1.72,1.72,0,1,1-1.72,1.72A1.72,1.72,0,0,1,352.8,56.9Zm-5.17,1.72a1.72,1.72,0,1,1-1.72-1.72A1.72,1.72,0,0,1,347.63,58.62ZM339,70.69A1.72,1.72,0,1,1,340.73,69,1.72,1.72,0,0,1,339,70.69Zm-1.72-12.07A1.72,1.72,0,1,1,339,60.34,1.72,1.72,0,0,1,337.28,58.62Zm5.17,6.9a1.72,1.72,0,1,1,1.72-1.72A1.72,1.72,0,0,1,342.45,65.52ZM332.11,56.9a1.72,1.72,0,1,1-1.72,1.72A1.72,1.72,0,0,1,332.11,56.9Zm0,13.79A1.72,1.72,0,1,1,333.83,69,1.72,1.72,0,0,1,332.11,70.69Zm1.72-6.9a1.72,1.72,0,1,1,1.72,1.72A1.72,1.72,0,0,1,333.83,63.79Zm12.07,6.9A1.72,1.72,0,1,1,347.63,69,1.72,1.72,0,0,1,345.9,70.69Zm3.45-5.17a1.72,1.72,0,1,1,1.72-1.72A1.72,1.72,0,0,1,349.35,65.52Zm3.45,1.72A1.72,1.72,0,1,1,351.07,69,1.72,1.72,0,0,1,352.8,67.24Zm10.34-1.72a1.72,1.72,0,1,1,1.72-1.72A1.72,1.72,0,0,1,363.14,65.52Zm3.45,5.17A1.72,1.72,0,1,1,368.32,69,1.72,1.72,0,0,1,366.59,70.69Zm1.72-12.07a1.72,1.72,0,1,1-1.72-1.72A1.72,1.72,0,0,1,368.32,58.62Z"/>
    <path class="cls-6" d="M344.14,44.39q-1.26-.22-2.48-.53l-.89-.25c.42,2.62,4.1,4.67,8.58,4.67s8.15-2,8.58-4.67a30.5,30.5,0,0,1-8.58,1.22A31,31,0,0,1,344.14,44.39Z"/>
    <path class="cls-3" d="M325.76,32.1q-.25-.47-.48-1Q325.5,31.63,325.76,32.1Z"/>
    <path class="cls-3" d="M374.66,18.85C361,17.95,350.27,11.27,349.41,3l-.13,0c-.67,6.33-7.09,11.71-16.15,14.3a18.19,18.19,0,0,0-1,6c0,10.68,9.32,19.52,21.55,21.23a30.94,30.94,0,0,1-4.31.32,30.5,30.5,0,0,0,8.58-1.22,28.12,28.12,0,0,0,5.67-2.35c7-3.86,11.61-10.47,11.61-18,0-.35,0-.69,0-1a18.15,18.15,0,0,0-.28-2.3Q374.8,19.39,374.66,18.85ZM358,25a2.59,2.59,0,1,1,5.17,0v3.45a2.59,2.59,0,1,1-5.17,0Zm-19.83,6a2.59,2.59,0,0,1-2.59-2.59V25a2.59,2.59,0,1,1,5.17,0v3.45A2.59,2.59,0,0,1,338.14,31Zm2.23,6.73a2,2,0,0,1,2.1-3.37,14.62,14.62,0,0,0,13.63,0,2,2,0,0,1,2.1,3.37,18.51,18.51,0,0,1-17.82,0Z"/>
    <path class="cls-3" d="M336.46,42q-.55-.26-1.08-.55Q335.91,41.69,336.46,42Z"/>
    <path class="cls-3" d="M341.66,43.86q1.21.31,2.48.53Q342.87,44.17,341.66,43.86Z"/>
    <path class="cls-7" d="M340.73,28.45V25a2.59,2.59,0,1,0-5.17,0v3.45a2.59,2.59,0,1,0,5.17,0Z"/>
    <path class="cls-7" d="M360.56,31a2.59,2.59,0,0,0,2.59-2.59V25A2.59,2.59,0,1,0,358,25v3.45A2.59,2.59,0,0,0,360.56,31Z"/>
    <path class="cls-6" d="M358.19,37.76a2,2,0,0,0-2.1-3.37,14.62,14.62,0,0,1-13.63,0,2,2,0,0,0-2.1,3.37,18.51,18.51,0,0,0,17.82,0Z"/>
    <path class="cls-4" d="M349.35,1.9a10.4,10.4,0,0,1-.07,1.1l.13,0A10.41,10.41,0,0,1,349.35,1.9Z"/>
    <path class="cls-4" d="M336.46,42a28.34,28.34,0,0,0,4,1.56l.31.09.89.25q1.21.31,2.48.53a30.13,30.13,0,0,0,9.52.11C341.43,42.79,332.11,34,332.11,23.28a18.19,18.19,0,0,1,1-6A43.6,43.6,0,0,1,324,18.85c-.09.38-.18.76-.25,1.15s-.08.5-.11.75a17.86,17.86,0,0,0-.05,4.74,18.53,18.53,0,0,0,1.65,5.67q.23.48.48,1a23.24,23.24,0,0,0,9.34,9.16l.28.15Q335.91,41.69,336.46,42Z"/>
    <path class="cls-2" d="M353,.22h0c-.47-.05-.94-.1-1.41-.13C350.84,0,350.1,0,349.35,0c.75,0,1.49,0,2.22.09C352,.12,352.52.17,353,.22Z"/>
    <path class="cls-2" d="M347.13.09C347.86,0,348.6,0,349.35,0c-.75,0-1.49,0-2.22.09-.48,0-.94.08-1.41.13h0C346.18.17,346.65.12,347.13.09Z"/>
    <circle class="cls-8" cx="359.69" cy="68.97" r="1.72"/>
    <circle class="cls-9" cx="366.59" cy="68.97" r="1.72"/>
    <circle class="cls-8" cx="345.9" cy="68.97" r="1.72"/>
    <circle class="cls-9" cx="352.8" cy="68.97" r="1.72"/>
    <circle class="cls-9" cx="359.69" cy="58.62" r="1.72"/>
    <circle class="cls-8" cx="339" cy="58.62" r="1.72"/>
    <circle class="cls-9" cx="345.9" cy="58.62" r="1.72"/>
    <circle class="cls-8" cx="352.8" cy="58.62" r="1.72"/>
    <circle class="cls-9" cx="363.14" cy="63.79" r="1.72"/>
    <circle class="cls-8" cx="342.45" cy="63.79" r="1.72"/>
    <circle class="cls-8" cx="332.11" cy="68.97" r="1.72"/>
    <circle class="cls-9" cx="349.35" cy="63.79" r="1.72"/>
    <circle class="cls-8" cx="356.25" cy="63.79" r="1.72"/>
    <circle class="cls-8" cx="366.59" cy="58.62" r="1.72"/>
    <circle class="cls-9" cx="339" cy="68.97" r="1.72"/>
    <circle class="cls-9" cx="332.11" cy="58.62" r="1.72"/>
    <circle class="cls-9" cx="335.56" cy="63.79" r="1.72"/>
    <path class="cls-8" d="M368.32,63.79A1.72,1.72,0,0,0,370,65.52a1.66,1.66,0,0,0,.47-.09h0l-.93-3.26h0A1.7,1.7,0,0,0,368.32,63.79Z"/>
    <path class="cls-8" d="M330.38,63.79a1.7,1.7,0,0,0-1.26-1.63h0l-.93,3.26h0a1.66,1.66,0,0,0,.47.09A1.72,1.72,0,0,0,330.38,63.79Z"/>
    <path class="cls-2" d="M575.68,15C572.11,7.48,564.08,1.9,554.33.43,543.41,2,534.64,8.79,531.82,17.61a45,45,0,0,1-10.45,1.34c.87,0,1.72,0,2.56-.1A43.6,43.6,0,0,0,533,17.3c9.07-2.59,15.48-8,16.15-14.3a10.4,10.4,0,0,0,.07-1.1A10.41,10.41,0,0,0,549.31,3c.86,8.3,11.6,15,25.25,15.88.08.33.15.66.22,1q1-.5,1.9-.9h.44c0-.06,0-.12-.05-.18a24.94,24.94,0,0,1,16.82-1.19l-2.16,8.59L595,13.12S586.49,9.59,575.68,15Z"/>
    <path class="cls-1" d="M577.07,18.77c0,.06,0,.12.05.18h-.44q-.94.4-1.9.9c.08.4.14.8.19,1.2l.62.85c2.63-.17,8.18.17,16.14,4.29l2.16-8.59A24.94,24.94,0,0,0,577.07,18.77Z"/>
    <path class="cls-2" d="M522.22,16.33a21.57,21.57,0,0,1,1.85-3.65c-10.86-4.76-19.09-1-19.09-1l1.3,4.42A24.7,24.7,0,0,1,522.22,16.33Z"/>
    <path class="cls-1" d="M521.37,18.95a45,45,0,0,0,10.45-1.34C534.64,8.79,543.41,2,554.33.43h0c-.43-.06-.85-.14-1.29-.19h-.16c-.47,0-.94-.1-1.41-.13C550.73,0,550,0,549.24,0s-1.49,0-2.22.09c-.48,0-.94.08-1.41.13h-.16c-9.3,1-17.17,5.81-21.37,12.45a21.57,21.57,0,0,0-1.85,3.65,24.7,24.7,0,0,0-15.94-.21h0l2.49,8.5c6.92-3.93,12.05-4.8,15-4.9.06-.29.12-.59.19-.88C523.09,18.9,522.23,18.94,521.37,18.95Z"/>
    <path class="cls-3" d="M544,99.85l-.26.06Z"/>
    <path class="cls-3" d="M538.37,96l-2.69-20.15h0L538.37,96a4.59,4.59,0,0,0,2.18,3.33A4.59,4.59,0,0,1,538.37,96Z"/>
    <path class="cls-3" d="M544.82,99.58l-.28.11Z"/>
    <path class="cls-3" d="M543.54,96a4.58,4.58,0,0,0,2,3.18l-.19.11a4.58,4.58,0,0,0,2.19-3.9V79.31h-6.21Z"/>
    <path class="cls-3" d="M572.78,91.33a4.81,4.81,0,0,1-.22.56A4.56,4.56,0,0,0,572.78,91.33Z"/>
    <path class="cls-3" d="M558.84,77l10,12.59a4.59,4.59,0,0,0,3.92,1.72,4.58,4.58,0,0,0-.43-3.72l-7-11.75h-5Z"/>
    <path class="cls-3" d="M564.81,92.83,551.57,76.19l13.24,16.64a4.6,4.6,0,0,0,6.46.74h0A4.6,4.6,0,0,1,564.81,92.83Z"/>
    <path class="cls-3" d="M572.05,92.74c-.07.1-.15.2-.23.3C571.91,92.94,572,92.84,572.05,92.74Z"/>
    <polygon class="cls-3" points="551.98 75.86 551.57 76.19 551.98 75.86 551.98 75.86"/>
    <path class="cls-3" d="M572.5,92a4.6,4.6,0,0,1-.25.44A4.54,4.54,0,0,0,572.5,92Z"/>
    <path class="cls-4" d="M568.86,89.61,558.84,77l1.45-1.15H552l-.41.33,13.24,16.64a4.6,4.6,0,0,0,6.46.74h0a4.43,4.43,0,0,0,.55-.53c.08-.09.16-.2.23-.3s.14-.18.2-.27a4.6,4.6,0,0,0,.25-.44l.07-.14a4.81,4.81,0,0,0,.22-.56h0A4.59,4.59,0,0,1,568.86,89.61Z"/>
    <path class="cls-4" d="M535.68,75.86,538.37,96a4.55,4.55,0,0,0,5.39,3.91l.26-.06a4.53,4.53,0,0,0,.53-.16l.28-.11a4.6,4.6,0,0,0,.51-.28l.19-.11a4.58,4.58,0,0,1-2-3.18l-2.23-16.7h6.21V75.86Z"/>
    <path class="cls-3" d="M513.84,48.82a4.73,4.73,0,0,1,5-2.69L533,48.34l1.31-4.58-15.94-2.5A4.74,4.74,0,0,0,515.15,50,4.79,4.79,0,0,1,513.84,48.82Z"/>
    <path class="cls-3" d="M516,50.39a4.63,4.63,0,0,1-.67-.32A4.67,4.67,0,0,0,516,50.39Z"/>
    <path class="cls-4" d="M533,48.34l-14.11-2.21a4.73,4.73,0,0,0-5,2.69A4.79,4.79,0,0,0,515.15,50l.14.07a4.63,4.63,0,0,0,.67.32,4.7,4.7,0,0,0,.91.24l14.78,2.32Z"/>
    <polygon class="cls-3" points="566.85 52.99 581.72 50.64 566.85 52.99 566.85 52.99"/>
    <path class="cls-3" d="M583.3,50.08a4.64,4.64,0,0,1-.68.33A4.66,4.66,0,0,0,583.3,50.08Z"/>
    <path class="cls-3" d="M579.73,46.14a4.73,4.73,0,0,1,5,2.69A4.79,4.79,0,0,1,583.44,50a4.74,4.74,0,0,0-3.2-8.73l-16,2.52,1.31,4.58Z"/>
    <path class="cls-4" d="M584.74,48.83a4.73,4.73,0,0,0-5-2.69l-14.2,2.24L566.85,53l14.87-2.34a4.7,4.7,0,0,0,.91-.24,4.64,4.64,0,0,0,.68-.33l.13-.07A4.79,4.79,0,0,0,584.74,48.83Z"/>
    <path class="cls-5" d="M549.24,48.28c-4.48,0-8.15-2-8.58-4.67l-.31-.09c-.68-.21-1.35-.45-2-.7l-.79-.32A27.47,27.47,0,0,1,535,41.26l-.71,2.5L533,48.34l-1.32,4.61L529,62.16a1.7,1.7,0,0,1,1.26,1.63,1.72,1.72,0,0,1-1.72,1.72,1.66,1.66,0,0,1-.47-.09l-2.35,8.24a1.72,1.72,0,0,0,1.66,2.2h43.7a1.72,1.72,0,0,0,1.66-2.2l-2.35-8.24a1.66,1.66,0,0,1-.47.09,1.72,1.72,0,0,1-1.72-1.72,1.7,1.7,0,0,1,1.26-1.63L566.85,53h0l-1.32-4.61-1.31-4.58-.73-2.54a28.12,28.12,0,0,1-5.67,2.35C557.4,46.23,553.72,48.28,549.24,48.28Zm8.62,15.52a1.72,1.72,0,1,1-1.72-1.72A1.72,1.72,0,0,1,557.86,63.79Zm-5.17-6.9A1.72,1.72,0,1,1,551,58.62,1.72,1.72,0,0,1,552.69,56.9ZM538.9,70.69A1.72,1.72,0,1,1,540.62,69,1.72,1.72,0,0,1,538.9,70.69Zm-1.72-12.07a1.72,1.72,0,1,1,1.72,1.72A1.72,1.72,0,0,1,537.18,58.62Zm5.17,6.9a1.72,1.72,0,1,1,1.72-1.72A1.72,1.72,0,0,1,542.35,65.52Zm3.45-8.62a1.72,1.72,0,1,1-1.72,1.72A1.72,1.72,0,0,1,545.8,56.9ZM532,56.9a1.72,1.72,0,1,1-1.72,1.72A1.72,1.72,0,0,1,532,56.9Zm0,13.79A1.72,1.72,0,1,1,533.73,69,1.72,1.72,0,0,1,532,70.69Zm1.72-6.9a1.72,1.72,0,1,1,1.72,1.72A1.72,1.72,0,0,1,533.73,63.79Zm12.07,6.9A1.72,1.72,0,1,1,547.52,69,1.72,1.72,0,0,1,545.8,70.69Zm3.45-5.17A1.72,1.72,0,1,1,551,63.79,1.72,1.72,0,0,1,549.24,65.52ZM551,69a1.72,1.72,0,1,1,1.72,1.72A1.72,1.72,0,0,1,551,69Zm8.62,1.72A1.72,1.72,0,1,1,561.31,69,1.72,1.72,0,0,1,559.59,70.69Zm0-10.34a1.72,1.72,0,1,1,1.72-1.72A1.72,1.72,0,0,1,559.59,60.34ZM563,62.07a1.72,1.72,0,1,1-1.72,1.72A1.72,1.72,0,0,1,563,62.07Zm3.45,8.62A1.72,1.72,0,1,1,568.21,69,1.72,1.72,0,0,1,566.49,70.69Zm1.72-12.07a1.72,1.72,0,1,1-1.72-1.72A1.72,1.72,0,0,1,568.21,58.62Z"/>
    <path class="cls-6" d="M549.24,48.28c4.48,0,8.16-2,8.58-4.67a30.79,30.79,0,0,1-17.16,0C541.09,46.23,544.77,48.28,549.24,48.28Z"/>
    <path class="cls-3" d="M525.65,32.1a19.39,19.39,0,0,1-.94-2A19.39,19.39,0,0,0,525.65,32.1Z"/>
    <path class="cls-3" d="M527.9,35.45l-.26-.33Z"/>
    <path class="cls-3" d="M534.15,40.77q-.52-.31-1-.64Q533.63,40.46,534.15,40.77Z"/>
    <path class="cls-3" d="M574.77,19.84c-.06-.33-.14-.66-.22-1-13.65-.9-24.4-7.58-25.25-15.88l-.13,0c-.67,6.33-7.09,11.71-16.15,14.3a18.19,18.19,0,0,0-1,6c0,10.68,9.32,19.52,21.55,21.23a30.94,30.94,0,0,1-4.31.32,30.5,30.5,0,0,0,8.58-1.22,28.12,28.12,0,0,0,5.67-2.35c7-3.86,11.61-10.47,11.61-18A18.2,18.2,0,0,0,575,21C574.92,20.63,574.85,20.23,574.77,19.84ZM557.86,25A2.59,2.59,0,1,1,563,25v3.45a2.59,2.59,0,1,1-5.17,0ZM538,31a2.59,2.59,0,0,1-2.59-2.59V25a2.59,2.59,0,1,1,5.17,0v3.45A2.59,2.59,0,0,1,538,31Zm2.23,6.73a2,2,0,0,1,2.1-3.37,14.62,14.62,0,0,0,13.63,0,2,2,0,1,1,2.1,3.37,18.51,18.51,0,0,1-17.82,0Z"/>
    <path class="cls-3" d="M538.35,42.82l-.79-.32Z"/>
    <path class="cls-7" d="M540.62,28.45V25a2.59,2.59,0,1,0-5.17,0v3.45a2.59,2.59,0,1,0,5.17,0Z"/>
    <path class="cls-7" d="M560.45,31A2.59,2.59,0,0,0,563,28.45V25a2.59,2.59,0,1,0-5.17,0v3.45A2.59,2.59,0,0,0,560.45,31Z"/>
    <path class="cls-6" d="M558.09,37.76a2,2,0,1,0-2.1-3.37,14.62,14.62,0,0,1-13.63,0,2,2,0,0,0-2.1,3.37,18.51,18.51,0,0,0,17.82,0Z"/>
    <path class="cls-4" d="M537.56,42.5l.79.32c.66.25,1.32.49,2,.7l.31.09a30.5,30.5,0,0,0,8.58,1.22,30.94,30.94,0,0,0,4.31-.32C541.33,42.79,532,34,532,23.28a18.19,18.19,0,0,1,1-6,43.6,43.6,0,0,1-9.09,1.55c-.07.29-.13.58-.19.88,0,.09,0,.18-.06.27a18.23,18.23,0,0,0-.16,5.49,18.4,18.4,0,0,0,1.19,4.61,19.39,19.39,0,0,0,.94,2,20.74,20.74,0,0,0,2,3l.26.33a23.86,23.86,0,0,0,5.23,4.68q.5.33,1,.64l.85.49A27.47,27.47,0,0,0,537.56,42.5Z"/>
    <path class="cls-4" d="M549.24,1.9a10.4,10.4,0,0,1-.07,1.1l.13,0A10.41,10.41,0,0,1,549.24,1.9Z"/>
    <path class="cls-2" d="M552.88.22h0c-.47-.05-.94-.1-1.41-.13C550.73,0,550,0,549.24,0c.75,0,1.49,0,2.22.09C551.94.12,552.41.17,552.88.22Z"/>
    <path class="cls-2" d="M547,.09c.73-.05,1.47-.09,2.22-.09-.75,0-1.49,0-2.22.09-.48,0-.94.08-1.41.13h0C546.08.17,546.54.12,547,.09Z"/>
    <circle class="cls-8" cx="559.59" cy="68.97" r="1.72"/>
    <circle class="cls-9" cx="566.49" cy="68.97" r="1.72"/>
    <circle class="cls-8" cx="545.8" cy="68.97" r="1.72"/>
    <circle class="cls-9" cx="552.69" cy="68.97" r="1.72"/>
    <circle class="cls-9" cx="559.59" cy="58.62" r="1.72"/>
    <circle class="cls-8" cx="538.9" cy="58.62" r="1.72"/>
    <circle class="cls-9" cx="545.8" cy="58.62" r="1.72"/>
    <circle class="cls-8" cx="552.69" cy="58.62" r="1.72"/>
    <circle class="cls-9" cx="563.04" cy="63.79" r="1.72"/>
    <circle class="cls-8" cx="542.35" cy="63.79" r="1.72"/>
    <circle class="cls-8" cx="532" cy="68.97" r="1.72"/>
    <circle class="cls-9" cx="549.24" cy="63.79" r="1.72"/>
    <circle class="cls-8" cx="556.14" cy="63.79" r="1.72"/>
    <circle class="cls-8" cx="566.49" cy="58.62" r="1.72"/>
    <circle class="cls-9" cx="538.9" cy="68.97" r="1.72"/>
    <circle class="cls-9" cx="532" cy="58.62" r="1.72"/>
    <circle class="cls-9" cx="535.45" cy="63.79" r="1.72"/>
    <path class="cls-8" d="M568.21,63.79a1.72,1.72,0,0,0,1.72,1.72,1.66,1.66,0,0,0,.47-.09h0l-.93-3.26h0A1.7,1.7,0,0,0,568.21,63.79Z"/>
    <path class="cls-8" d="M530.28,63.79A1.7,1.7,0,0,0,529,62.16h0l-.93,3.26h0a1.66,1.66,0,0,0,.47.09A1.72,1.72,0,0,0,530.28,63.79Z"/>
    <path class="cls-1" d="M776.53,17.93c.1.34.22.68.3,1l-1.54,0c-.28.24-.56.49-.84.74q.1.51.18,1l1,.84c2.5-.85,7.95-2,16.7,0l-.14-8.86A24.86,24.86,0,0,0,776.53,17.93Z"/>
    <path class="cls-2" d="M722.42,15.18a22.15,22.15,0,0,1,2.12-3.6C715.93,4.9,707.71,6,707.71,6l-.15,13.47.1-8.86A24.63,24.63,0,0,1,722.42,15.18Z"/>
    <path class="cls-1" d="M722.31,18.92c.46.1.88.2,1.25.31,0-.13.05-.25.09-.38Z"/>
    <path class="cls-3" d="M743.25,96a4.58,4.58,0,0,0,2,3.18l-.19.11a4.58,4.58,0,0,0,2.19-3.9V79.31H741Z"/>
    <path class="cls-3" d="M735.39,75.86h0L738.08,96a4.59,4.59,0,0,0,1.53,2.85A4.59,4.59,0,0,1,738.08,96Z"/>
    <path class="cls-3" d="M744.53,99.58l-.28.11Z"/>
    <path class="cls-3" d="M743.73,99.85l-.26.06Z"/>
    <path class="cls-3" d="M775.34,86.14a4.81,4.81,0,0,1-.09.59A4.58,4.58,0,0,0,775.34,86.14Z"/>
    <path class="cls-3" d="M775.22,86.88a4.61,4.61,0,0,1-.14.49A4.54,4.54,0,0,0,775.22,86.88Z"/>
    <path class="cls-3" d="M774.94,87.67c-.05.11-.1.23-.16.34C774.84,87.9,774.89,87.79,774.94,87.67Z"/>
    <path class="cls-3" d="M767.9,89.39h0a4.6,4.6,0,0,0,6.46-.73h0A4.6,4.6,0,0,1,767.9,89.39Z"/>
    <path class="cls-3" d="M771.13,85.34a4.59,4.59,0,0,0,4.21.8,4.58,4.58,0,0,0-1.26-3.53l-6.48-6.74h-8.37Z"/>
    <path class="cls-4" d="M771.13,85.34l-11.9-9.48h-7.73l-.22.28L767.9,89.39h0a4.6,4.6,0,0,0,6.46-.73h0a4.43,4.43,0,0,0,.42-.64c.06-.11.11-.23.16-.34s.09-.2.13-.31a4.61,4.61,0,0,0,.14-.49l0-.15a4.81,4.81,0,0,0,.09-.59h0A4.59,4.59,0,0,1,771.13,85.34Z"/>
    <path class="cls-4" d="M735.39,75.86,738.08,96a4.55,4.55,0,0,0,5.39,3.91l.26-.06a4.55,4.55,0,0,0,.53-.16l.28-.11a4.6,4.6,0,0,0,.51-.28l.19-.11a4.58,4.58,0,0,1-2-3.18L741,79.31h6.21V75.86Z"/>
    <path class="cls-3" d="M720.12,40.3l13.39,5.14,1.2-4.19q-1-.53-1.86-1.13l-12.21-4.69a4.74,4.74,0,0,0-4.95,7.87,4.79,4.79,0,0,1-1-1.43A4.73,4.73,0,0,1,720.12,40.3Z"/>
    <path class="cls-3" d="M716.39,43.86a4.64,4.64,0,0,1-.58-.45A4.67,4.67,0,0,0,716.39,43.86Z"/>
    <path class="cls-4" d="M733.51,45.44,720.12,40.3a4.73,4.73,0,0,0-5.47,1.58,4.79,4.79,0,0,0,1,1.43l.13.1a4.64,4.64,0,0,0,.58.45,4.7,4.7,0,0,0,.84.42l15,5.75Z"/>
    <path class="cls-3" d="M782.18,43.23a4.63,4.63,0,0,1-.59.46A4.67,4.67,0,0,0,782.18,43.23Z"/>
    <path class="cls-3" d="M777.32,35.28l-11.95,4.65c5.77-4,9.45-9.94,9.45-16.65a18.17,18.17,0,0,0-.19-2.61q-.07-.51-.18-1c-.05-.27-.11-.54-.18-.8C760.62,17.95,749.87,11.27,749,3l-.13,0c-.67,6.33-7.09,11.71-16.16,14.3a18.19,18.19,0,0,0-1,6,19.44,19.44,0,0,0,6.12,13.9A2.3,2.3,0,0,1,741,34a17,17,0,0,0,15.83,0,2.3,2.3,0,0,1,2.44,3.91A21.52,21.52,0,0,1,738.7,38a27.68,27.68,0,0,0,14.56,6.54,30.94,30.94,0,0,1-4.31.32,30.5,30.5,0,0,0,8.58-1.22,28.12,28.12,0,0,0,5.67-2.35l1.18,4.12,13.46-5.24a4.73,4.73,0,0,1,5.47,1.56,4.79,4.79,0,0,1-1,1.43,4.74,4.74,0,0,0-5-7.85Zm-37-6.83a2.59,2.59,0,1,1-5.17,0V25a2.59,2.59,0,1,1,5.17,0ZM760.16,31a2.59,2.59,0,0,1-2.59-2.59V25a2.59,2.59,0,1,1,5.17,0v3.45A2.59,2.59,0,0,1,760.16,31Z"/>
    <path class="cls-4" d="M777.85,40.14l-13.46,5.24L765.7,50l15.06-5.86a4.7,4.7,0,0,0,.84-.43,4.63,4.63,0,0,0,.59-.46l.12-.1a4.79,4.79,0,0,0,1-1.43A4.73,4.73,0,0,0,777.85,40.14Z"/>
    <path class="cls-5" d="M763.21,41.26a28.12,28.12,0,0,1-5.67,2.35c-.42,2.62-4.1,4.67-8.58,4.67s-8.15-2-8.58-4.67l-.31-.09a28.05,28.05,0,0,1-5.36-2.26l-1.2,4.19L732.2,50l-3.46,12.13A1.7,1.7,0,0,1,730,63.79a1.72,1.72,0,0,1-1.72,1.72,1.66,1.66,0,0,1-.47-.09l-2.35,8.24a1.72,1.72,0,0,0,1.66,2.2h43.7a1.72,1.72,0,0,0,1.66-2.2l-2.35-8.24a1.66,1.66,0,0,1-.47.09,1.72,1.72,0,0,1-1.72-1.72,1.7,1.7,0,0,1,1.26-1.63L765.7,50l-1.31-4.59ZM761,63.79a1.72,1.72,0,1,1,1.72,1.72A1.72,1.72,0,0,1,761,63.79Zm-1.72-3.45A1.72,1.72,0,1,1,761,58.62,1.72,1.72,0,0,1,759.3,60.34Zm-3.45,5.17a1.72,1.72,0,1,1,1.72-1.72A1.72,1.72,0,0,1,755.85,65.52Zm-3.45-8.62a1.72,1.72,0,1,1-1.72,1.72A1.72,1.72,0,0,1,752.41,56.9ZM738.61,70.69A1.72,1.72,0,1,1,740.34,69,1.72,1.72,0,0,1,738.61,70.69Zm-1.72-12.07a1.72,1.72,0,1,1,1.72,1.72A1.72,1.72,0,0,1,736.89,58.62Zm5.17,6.9a1.72,1.72,0,1,1,1.72-1.72A1.72,1.72,0,0,1,742.06,65.52Zm3.45-8.62a1.72,1.72,0,1,1-1.72,1.72A1.72,1.72,0,0,1,745.51,56.9Zm-13.79,0A1.72,1.72,0,1,1,730,58.62,1.72,1.72,0,0,1,731.72,56.9Zm0,13.79A1.72,1.72,0,1,1,733.44,69,1.72,1.72,0,0,1,731.72,70.69Zm1.72-6.9a1.72,1.72,0,1,1,1.72,1.72A1.72,1.72,0,0,1,733.44,63.79Zm12.07,6.9A1.72,1.72,0,1,1,747.23,69,1.72,1.72,0,0,1,745.51,70.69ZM749,65.52a1.72,1.72,0,1,1,1.72-1.72A1.72,1.72,0,0,1,749,65.52ZM750.68,69a1.72,1.72,0,1,1,1.72,1.72A1.72,1.72,0,0,1,750.68,69Zm6.9,0a1.72,1.72,0,1,1,1.72,1.72A1.72,1.72,0,0,1,757.58,69Zm8.62,1.72A1.72,1.72,0,1,1,767.92,69,1.72,1.72,0,0,1,766.2,70.69Zm1.72-12.07a1.72,1.72,0,1,1-1.72-1.72A1.72,1.72,0,0,1,767.92,58.62Z"/>
    <path class="cls-6" d="M740.38,43.61c.42,2.62,4.1,4.67,8.58,4.67s8.16-2,8.58-4.67a30.79,30.79,0,0,1-17.16,0Z"/>
    <path class="cls-7" d="M737.75,22.41A2.59,2.59,0,0,0,735.16,25v3.45a2.59,2.59,0,1,0,5.17,0V25A2.59,2.59,0,0,0,737.75,22.41Z"/>
    <path class="cls-7" d="M762.75,28.45V25a2.59,2.59,0,1,0-5.17,0v3.45a2.59,2.59,0,1,0,5.17,0Z"/>
    <path class="cls-6" d="M738.7,38a21.52,21.52,0,0,0,20.54-.09A2.3,2.3,0,0,0,756.81,34,17,17,0,0,1,741,34a2.3,2.3,0,0,0-3.14,3.22C738.11,37.45,738.41,37.7,738.7,38Z"/>
    <path class="cls-4" d="M734.71,41.26a28.05,28.05,0,0,0,5.36,2.26l.31.09A30.5,30.5,0,0,0,749,44.83a30.94,30.94,0,0,0,4.31-.32A27.68,27.68,0,0,1,738.7,38c-.29-.26-.59-.51-.87-.79a19.44,19.44,0,0,1-6.12-13.9,18.19,18.19,0,0,1,1-6,43.6,43.6,0,0,1-9.09,1.55c0,.13-.06.25-.09.38s-.12.51-.16.77a18.23,18.23,0,0,0-.16,5.49c.72,5.92,4.32,11.13,9.61,14.65Q733.74,40.73,734.71,41.26Z"/>
    <path class="cls-4" d="M748.89,3,749,3A10.41,10.41,0,0,1,749,1.9,10.4,10.4,0,0,1,748.89,3Z"/>
    <path class="cls-2" d="M746.73.09C747.47,0,748.21,0,749,0c-.75,0-1.49,0-2.22.09-.48,0-.94.08-1.41.13h0C745.79.17,746.26.12,746.73.09Z"/>
    <path class="cls-2" d="M752.59.22h0c-.47-.05-.94-.1-1.41-.13C750.45,0,749.71,0,749,0c.75,0,1.49,0,2.22.09C751.66.12,752.13.17,752.59.22Z"/>
    <path class="cls-2" d="M732.74,17.3c9.07-2.59,15.48-8,16.16-14.3A10.4,10.4,0,0,0,749,1.9,10.41,10.41,0,0,0,749,3c.86,8.3,11.6,15,25.25,15.88.07.27.12.53.18.8.28-.25.56-.51.84-.74l1.54,0c-.08-.35-.2-.68-.3-1a24.86,24.86,0,0,1,15.69-5.32l.14,8.86L792.15,8s-8.52-1.11-17.25,6C771.12,7,763.37,1.83,754,.43,743.12,2,734.35,8.79,731.53,17.61a45,45,0,0,1-10.45,1.34l1.23,0,1.33-.07A43.6,43.6,0,0,0,732.74,17.3Z"/>
    <path class="cls-1" d="M731.53,17.61C734.35,8.79,743.12,2,754,.43h0c-.43-.06-.85-.14-1.29-.19h-.16c-.47,0-.94-.1-1.41-.13C750.45,0,749.71,0,749,0s-1.49,0-2.22.09c-.48,0-.94.08-1.41.13h-.16c-8.78,1-16.28,5.28-20.63,11.34a22.15,22.15,0,0,0-2.12,3.6,24.63,24.63,0,0,0-14.76-4.56l-.1,8.86a36.39,36.39,0,0,1,13.59-.77c0,.08-.05.16-.07.25A45,45,0,0,0,731.53,17.61Z"/>
    <circle class="cls-8" cx="759.3" cy="68.97" r="1.72"/>
    <circle class="cls-9" cx="766.2" cy="68.97" r="1.72"/>
    <circle class="cls-8" cx="745.51" cy="68.97" r="1.72"/>
    <circle class="cls-9" cx="752.41" cy="68.97" r="1.72"/>
    <circle class="cls-9" cx="759.3" cy="58.62" r="1.72"/>
    <circle class="cls-8" cx="738.61" cy="58.62" r="1.72"/>
    <circle class="cls-9" cx="745.51" cy="58.62" r="1.72"/>
    <circle class="cls-8" cx="752.41" cy="58.62" r="1.72"/>
    <circle class="cls-9" cx="762.75" cy="63.79" r="1.72"/>
    <circle class="cls-8" cx="742.06" cy="63.79" r="1.72"/>
    <circle class="cls-8" cx="731.72" cy="68.97" r="1.72"/>
    <circle class="cls-9" cx="748.96" cy="63.79" r="1.72"/>
    <circle class="cls-8" cx="755.85" cy="63.79" r="1.72"/>
    <circle class="cls-8" cx="766.2" cy="58.62" r="1.72"/>
    <circle class="cls-9" cx="738.61" cy="68.97" r="1.72"/>
    <circle class="cls-9" cx="731.72" cy="58.62" r="1.72"/>
    <circle class="cls-9" cx="735.16" cy="63.79" r="1.72"/>
    <path class="cls-8" d="M767.92,63.79a1.72,1.72,0,0,0,1.72,1.72,1.66,1.66,0,0,0,.47-.09h0l-.93-3.26h0A1.7,1.7,0,0,0,767.92,63.79Z"/>
    <path class="cls-8" d="M730,63.79a1.7,1.7,0,0,0-1.26-1.63h0l-.93,3.26h0a1.66,1.66,0,0,0,.47.09A1.72,1.72,0,0,0,730,63.79Z"/>
  </g>
</svg>
