<svg id="Layer_1" data-name="Layer 1" xmlns="http://www.w3.org/2000/svg" width="800" height="100" viewBox="0 0 800 100">
  <defs>
    <style>
      .cls-1 {
        fill: none;
      }

      .cls-2 {
        fill: #ff4c61;
      }

      .cls-3 {
        fill: #fdd550;
      }

      .cls-4 {
        fill: #bc3146;
      }

      .cls-5 {
        fill: #ff7c77;
      }

      .cls-6 {
        fill: #fdaa50;
      }
    </style>
  </defs>
  <g>
    <path class="cls-1" d="M337.09,5.36a5.27,5.27,0,0,1,.09-.85A4.57,4.57,0,0,0,337.09,5.36Z"/>
    <path class="cls-1" d="M237.08,5.36a5.27,5.27,0,0,1,.09-.85A4.57,4.57,0,0,0,237.08,5.36Z"/>
    <path class="cls-1" d="M439.25,9.62l0,0Z"/>
    <path class="cls-1" d="M471.17,48.21,471,48Z"/>
    <path class="cls-1" d="M440,10.07l-.08,0Z"/>
    <path class="cls-1" d="M337.45,7.24a5.3,5.3,0,0,1-.18-.59A5.22,5.22,0,0,0,337.45,7.24Z"/>
    <path class="cls-1" d="M340,10.07l-.08,0Z"/>
    <path class="cls-1" d="M371.17,48.21,371,48Z"/>
    <path class="cls-1" d="M337.84,8c-.08-.14-.17-.28-.24-.43C337.68,7.76,337.76,7.91,337.84,8Z"/>
    <path class="cls-1" d="M339.24,9.62l0,0Z"/>
    <path class="cls-1" d="M338.22,8.61l-.13-.15Z"/>
    <path class="cls-1" d="M337.18,6.33a5.3,5.3,0,0,1-.1-1A5.25,5.25,0,0,0,337.18,6.33Z"/>
    <path class="cls-1" d="M537.85,8c-.08-.14-.17-.28-.24-.43C537.68,7.76,537.76,7.91,537.85,8Z"/>
    <path class="cls-1" d="M438.22,8.61l-.13-.15Z"/>
    <path class="cls-1" d="M538.22,8.61l-.13-.15Z"/>
    <path class="cls-1" d="M537.45,7.24a5.3,5.3,0,0,1-.18-.59A5.22,5.22,0,0,0,537.45,7.24Z"/>
    <path class="cls-1" d="M537.19,6.33a5.31,5.31,0,0,1-.1-1A5.25,5.25,0,0,0,537.19,6.33Z"/>
    <path class="cls-1" d="M539.25,9.62l0,0Z"/>
    <path class="cls-1" d="M437.19,6.33a5.3,5.3,0,0,1-.1-1A5.25,5.25,0,0,0,437.19,6.33Z"/>
    <path class="cls-1" d="M537.09,5.36a5.27,5.27,0,0,1,.09-.85A4.56,4.56,0,0,0,537.09,5.36Z"/>
    <path class="cls-1" d="M437.09,5.36a5.27,5.27,0,0,1,.09-.85A4.57,4.57,0,0,0,437.09,5.36Z"/>
    <path class="cls-1" d="M540,10.07l-.08,0Z"/>
    <path class="cls-1" d="M571.18,48.21,571,48Z"/>
    <path class="cls-1" d="M437.84,8c-.08-.14-.17-.28-.24-.43C437.68,7.76,437.76,7.91,437.84,8Z"/>
    <path class="cls-1" d="M37.84,8c-.08-.14-.17-.28-.24-.43C37.68,7.76,37.76,7.91,37.84,8Z"/>
    <path class="cls-1" d="M37.19,6.33a5.3,5.3,0,0,1-.1-1A5.25,5.25,0,0,0,37.19,6.33Z"/>
    <path class="cls-1" d="M37.45,7.24a5.31,5.31,0,0,1-.18-.59A5.22,5.22,0,0,0,37.45,7.24Z"/>
    <path class="cls-1" d="M37.09,5.36a5.27,5.27,0,0,1,.09-.85A4.57,4.57,0,0,0,37.09,5.36Z"/>
    <path class="cls-1" d="M140,10.07l-.08,0Z"/>
    <path class="cls-1" d="M171.18,48.21,171,48Z"/>
    <path class="cls-1" d="M139.25,9.62l0,0Z"/>
    <path class="cls-1" d="M71.17,48.21,71,48Z"/>
    <path class="cls-1" d="M39.24,9.62l0,0Z"/>
    <path class="cls-1" d="M38.22,8.61l-.13-.15Z"/>
    <path class="cls-1" d="M40,10.07l-.08,0Z"/>
    <path class="cls-1" d="M237.18,6.33a5.3,5.3,0,0,1-.1-1A5.25,5.25,0,0,0,237.18,6.33Z"/>
    <path class="cls-1" d="M238.21,8.61l-.13-.15Z"/>
    <path class="cls-1" d="M239.24,9.62l0,0Z"/>
    <path class="cls-1" d="M237.44,7.24a5.3,5.3,0,0,1-.18-.59A5.22,5.22,0,0,0,237.44,7.24Z"/>
    <path class="cls-1" d="M237.84,8c-.08-.14-.17-.28-.24-.43C237.67,7.76,237.75,7.91,237.84,8Z"/>
    <path class="cls-1" d="M240,10.07l-.08,0Z"/>
    <path class="cls-1" d="M138.22,8.61l-.13-.15Z"/>
    <path class="cls-1" d="M271.17,48.21,271,48Z"/>
    <path class="cls-1" d="M137.45,7.24a5.31,5.31,0,0,1-.18-.59A5.23,5.23,0,0,0,137.45,7.24Z"/>
    <path class="cls-1" d="M137.85,8c-.08-.14-.17-.28-.24-.43C137.68,7.76,137.76,7.91,137.85,8Z"/>
    <path class="cls-1" d="M137.09,5.36a5.27,5.27,0,0,1,.09-.85A4.56,4.56,0,0,0,137.09,5.36Z"/>
    <path class="cls-1" d="M137.19,6.33a5.31,5.31,0,0,1-.1-1A5.25,5.25,0,0,0,137.19,6.33Z"/>
    <path class="cls-1" d="M437.45,7.24a5.3,5.3,0,0,1-.18-.59A5.22,5.22,0,0,0,437.45,7.24Z"/>
    <path class="cls-1" d="M671.17,48.21,671,48Z"/>
    <path class="cls-1" d="M640,10.07l-.08,0Z"/>
    <path class="cls-1" d="M738.22,8.61l-.13-.15Z"/>
    <path class="cls-1" d="M639.24,9.62l0,0Z"/>
    <path class="cls-1" d="M771.17,48.21,771,48Z"/>
    <path class="cls-1" d="M739.24,9.62l0,0Z"/>
    <path class="cls-1" d="M740,10.07l-.08,0Z"/>
    <path class="cls-1" d="M637.45,7.24a5.31,5.31,0,0,1-.18-.59A5.22,5.22,0,0,0,637.45,7.24Z"/>
    <path class="cls-1" d="M637.18,6.33a5.3,5.3,0,0,1-.1-1A5.25,5.25,0,0,0,637.18,6.33Z"/>
    <path class="cls-1" d="M737.45,7.24a5.3,5.3,0,0,1-.18-.59A5.22,5.22,0,0,0,737.45,7.24Z"/>
    <path class="cls-1" d="M637.08,5.36a5.27,5.27,0,0,1,.09-.85A4.57,4.57,0,0,0,637.08,5.36Z"/>
    <path class="cls-1" d="M737.84,8c-.08-.14-.17-.28-.24-.43C737.68,7.76,737.76,7.91,737.84,8Z"/>
    <path class="cls-1" d="M737.19,6.33a5.3,5.3,0,0,1-.1-1A5.25,5.25,0,0,0,737.19,6.33Z"/>
    <path class="cls-1" d="M638.22,8.61l-.13-.15Z"/>
    <path class="cls-1" d="M637.84,8c-.08-.14-.17-.28-.24-.43C637.67,7.76,637.76,7.91,637.84,8Z"/>
    <path class="cls-1" d="M737.09,5.36a5.27,5.27,0,0,1,.09-.85A4.57,4.57,0,0,0,737.09,5.36Z"/>
    <path class="cls-2" d="M65.26,7.35a5.35,5.35,0,0,1,4,5.15,1.79,1.79,0,0,0,3.57,0,8.94,8.94,0,0,0-7.43-8.79,5.26,5.26,0,0,1,.29,1.65A5.3,5.3,0,0,1,65.26,7.35Z"/>
    <path class="cls-2" d="M65.35,3.63c6.11.43,11,3.5,11,7.09a1.79,1.79,0,0,0,3.57,0C79.94,4.71,72.89,0,63.87,0A1.78,1.78,0,0,0,62.6.54,5.37,5.37,0,0,1,65.35,3.63Z"/>
    <path class="cls-3" d="M83.93,71.43a12.5,12.5,0,1,0,12.5,12.5A12.51,12.51,0,0,0,83.93,71.43Zm0,17.86a5.36,5.36,0,1,1,5.36-5.36A5.36,5.36,0,0,1,83.93,89.29Z"/>
    <path class="cls-2" d="M83.93,67.86h-.24c-.93-6.54-4.7-12.6-10.28-17.73-.71-.66-1.46-1.3-2.24-1.92L71,48q-1.19-1-2.46-1.86h0C59,39.43,46.16,34.94,33.25,34.09c1.22-10.66,3.43-20.19,7.43-23.7h0a5.38,5.38,0,0,1-.71-.31l-.08,0a5.45,5.45,0,0,1-.64-.41l0,0a5.43,5.43,0,0,1-1-1l-.13-.15c-.09-.13-.17-.27-.25-.4s-.17-.28-.24-.43-.11-.25-.16-.37a5.22,5.22,0,0,1-.18-.59c0-.11-.06-.21-.08-.32a5.25,5.25,0,0,1-.1-1,4.57,4.57,0,0,1,.09-.85,6.58,6.58,0,0,1,.16-.68h0C29.48,9.15,26.22,24.52,25.09,46.49A26.7,26.7,0,0,0,8,54.16l-.14.11-.11.14A26.73,26.73,0,0,0,7.75,92l.09.11.11.09a26.73,26.73,0,0,0,37.65,0l.11-.09.09-.11a26.73,26.73,0,0,0,0-37.63l-.11-.14-.14-.11A26.76,26.76,0,0,0,32.21,47c.1-1.91.22-3.85.37-5.78,21.2,1.3,42.48,13.39,44.1,28.41a16,16,0,1,0,7.25-1.75ZM44.4,88.31l-6.25-6.25a1.79,1.79,0,0,0-2.52,2.53l6.25,6.25a23.11,23.11,0,0,1-15.09,5.6c-.57,0-1.14,0-1.71-.07a23.11,23.11,0,0,1-13.38-5.53l4.9-4.9,1.36-1.36a1.79,1.79,0,0,0-2.53-2.53l-.46.46L9.17,88.31a23.14,23.14,0,0,1,0-30.18l3.51,3.51,2.75,2.75a1.79,1.79,0,1,0,2.52-2.53l-4.13-4.13L11.69,55.6a23.29,23.29,0,0,1,4.54-3,23.14,23.14,0,0,1,25.65,3l-6.25,6.25a1.79,1.79,0,1,0,2.53,2.53l6.25-6.25a23.14,23.14,0,0,1,0,30.18Zm39.53,8.12a12.5,12.5,0,1,1,12.5-12.5A12.51,12.51,0,0,1,83.93,96.43Z"/>
    <circle class="cls-4" cx="83.93" cy="83.93" r="5.36"/>
    <path class="cls-5" d="M37.17,4.51a5.27,5.27,0,0,0-.09.85,5.3,5.3,0,0,0,.1,1c0,.11.05.21.08.32a5.31,5.31,0,0,0,.18.59c0,.13.1.25.16.37s.15.29.24.43.16.28.25.4l.13.15a5.43,5.43,0,0,0,1,1l0,0a5.45,5.45,0,0,0,.64.41l.08,0a5.38,5.38,0,0,0,.71.31,5.27,5.27,0,0,0,1.77.33H60.3a5.37,5.37,0,0,0,5-3.37,5.3,5.3,0,0,0,.4-2,5.26,5.26,0,0,0-.29-1.65l0-.08A5.37,5.37,0,0,0,62.6.54,5.28,5.28,0,0,0,60.3,0H42.44a5.36,5.36,0,0,0-5.11,3.83h0A6.58,6.58,0,0,0,37.17,4.51Z"/>
    <path class="cls-3" d="M73.41,27.12a34.44,34.44,0,0,0,16,11.67,5.73,5.73,0,0,0,3.42-5.25v-4.3a5.74,5.74,0,0,0-6.69-5.66l-18,5Z"/>
    <path class="cls-3" d="M89.44,38.79a5.74,5.74,0,0,1-1.52.43A5.67,5.67,0,0,0,89.44,38.79Z"/>
    <path class="cls-3" d="M87.78,39.24a5.67,5.67,0,0,1-.63,0A5.7,5.7,0,0,0,87.78,39.24Z"/>
    <path class="cls-3" d="M87,39.28a5.72,5.72,0,0,1-.79-.07A5.8,5.8,0,0,0,87,39.28Z"/>
    <path class="cls-6" d="M73.41,27.12l-5.19,1.44a2.94,2.94,0,0,0,0,5.66l18,5a5.72,5.72,0,0,0,.79.07h.2a5.67,5.67,0,0,0,.63,0l.14,0a5.74,5.74,0,0,0,1.52-.43h0A34.44,34.44,0,0,1,73.41,27.12Z"/>
    <path class="cls-4" d="M71,48l.2.17c.77.63,1.52,1.27,2.24,1.92h0l10-11.71L74.72,36l-6.86,9.6c.23.18.43.38.65.56h0Q69.78,47.09,71,48Z"/>
    <path class="cls-3" d="M38.15,64.38a1.79,1.79,0,0,1-2.53-2.53l6.25-6.25a23.14,23.14,0,0,0-25.65-3,32.85,32.85,0,0,0-2.42,5.17l4.13,4.13a1.79,1.79,0,1,1-2.52,2.53l-2.75-2.75A29.55,29.55,0,0,0,12,69.33a38.53,38.53,0,0,0,3,13.18l.46-.46a1.79,1.79,0,0,1,2.53,2.53l-1.36,1.36a36.17,36.17,0,0,0,8.49,10.42c.56,0,1.13.07,1.71.07a23.11,23.11,0,0,0,15.09-5.6l-6.25-6.25a1.79,1.79,0,0,1,2.52-2.53l6.25,6.25a23.14,23.14,0,0,0,0-30.18ZM33.69,75a7.14,7.14,0,1,1,0-3.57h7.38V75Z"/>
    <path class="cls-6" d="M12.67,61.63,9.17,58.12a23.14,23.14,0,0,0,0,30.18L15,82.52a38.53,38.53,0,0,1-3-13.18A29.55,29.55,0,0,1,12.67,61.63Z"/>
    <path class="cls-6" d="M11.69,55.6l2.12,2.12a32.85,32.85,0,0,1,2.42-5.17A23.29,23.29,0,0,0,11.69,55.6Z"/>
    <path class="cls-6" d="M16.59,85.93l-4.9,4.9a23.11,23.11,0,0,0,13.38,5.53A36.17,36.17,0,0,1,16.59,85.93Z"/>
    <path class="cls-2" d="M26.79,71.43h6.91a7.14,7.14,0,1,0,0,3.57H26.79Z"/>
    <polygon class="cls-4" points="33.69 71.43 26.79 71.43 26.79 75 33.69 75 41.07 75 41.07 71.43 33.69 71.43"/>
    <path class="cls-2" d="M165.27,7.35a5.35,5.35,0,0,1,4,5.15,1.79,1.79,0,1,0,3.57,0,8.94,8.94,0,0,0-7.43-8.79,5.26,5.26,0,0,1,.29,1.65A5.29,5.29,0,0,1,165.27,7.35Z"/>
    <path class="cls-2" d="M165.35,3.63c6.11.43,11,3.5,11,7.09a1.79,1.79,0,1,0,3.57,0c0-6-7.06-10.71-16.07-10.71a1.78,1.78,0,0,0-1.28.54A5.37,5.37,0,0,1,165.35,3.63Z"/>
    <path class="cls-3" d="M183.93,71.43a12.5,12.5,0,1,0,12.5,12.5A12.51,12.51,0,0,0,183.93,71.43Zm0,17.86a5.36,5.36,0,1,1,5.36-5.36A5.36,5.36,0,0,1,183.93,89.29Z"/>
    <path class="cls-2" d="M183.93,67.86h-.24c-.93-6.54-4.7-12.6-10.28-17.73-.71-.66-1.46-1.3-2.24-1.93L171,48q-1.19-1-2.46-1.86h0c-9.52-6.75-22.35-11.25-35.26-12.09,1.22-10.66,3.43-20.19,7.43-23.7h0a5.43,5.43,0,0,1-.71-.31l-.08,0a5.45,5.45,0,0,1-.64-.41l0,0a5.43,5.43,0,0,1-1-1l-.13-.15c-.09-.13-.17-.27-.25-.4s-.17-.28-.24-.43-.11-.25-.16-.37a5.23,5.23,0,0,1-.18-.59c0-.11-.06-.21-.08-.32a5.25,5.25,0,0,1-.1-1,4.56,4.56,0,0,1,.09-.85,6.58,6.58,0,0,1,.16-.68h0c-7.86,5.31-11.12,20.69-12.24,42.66a26.71,26.71,0,0,0-23,16.32.89.89,0,0,0-.14.33,26.73,26.73,0,0,0,14.42,34.76l.13.07.14,0a26.73,26.73,0,0,0,34.79-14.41s.05-.08.07-.13,0-.09,0-.14A26.73,26.73,0,0,0,137.2,48.55l-.16-.08-.17-.05A27,27,0,0,0,132.21,47c.1-1.92.22-3.86.37-5.79,21.2,1.3,42.48,13.39,44.1,28.41a16,16,0,1,0,7.25-1.75ZM148.84,80.42,140.67,77a1.79,1.79,0,1,0-1.37,3.3l8.17,3.38a23.15,23.15,0,0,1-27.89,11.55l1.28-3.1,2.1-5.07a1.79,1.79,0,0,0-3.3-1.37l-1.3,3.14-2.09,5A23.14,23.14,0,0,1,104.74,66L112,69l.91.38a1.79,1.79,0,0,0,1.37-3.3l-2.16-.9-6-2.49a23.11,23.11,0,0,1,10.13-10.17c.54-.28,1.1-.54,1.67-.78a23.11,23.11,0,0,1,16.09-.6l-3.38,8.17a1.79,1.79,0,1,0,3.3,1.37l3.38-8.17a23.14,23.14,0,0,1,11.55,27.89Zm35.09,16a12.5,12.5,0,1,1,12.5-12.5A12.51,12.51,0,0,1,183.93,96.43Z"/>
    <circle class="cls-4" cx="183.93" cy="83.93" r="5.36"/>
    <path class="cls-5" d="M137.18,4.51a5.27,5.27,0,0,0-.09.85,5.31,5.31,0,0,0,.1,1c0,.11.05.21.08.32a5.31,5.31,0,0,0,.18.59c0,.13.1.25.16.37s.15.29.24.43.16.28.25.4l.13.15a5.43,5.43,0,0,0,1,1l0,0a5.45,5.45,0,0,0,.64.41l.08,0a5.43,5.43,0,0,0,.71.31,5.27,5.27,0,0,0,1.77.33h17.86a5.37,5.37,0,0,0,5-3.37,5.29,5.29,0,0,0,.4-2,5.26,5.26,0,0,0-.29-1.65l0-.08A5.37,5.37,0,0,0,162.6.54a5.28,5.28,0,0,0-2.3-.54H142.45a5.36,5.36,0,0,0-5.11,3.83h0A6.58,6.58,0,0,0,137.18,4.51Z"/>
    <path class="cls-3" d="M187,39.28a5.7,5.7,0,0,1-.79-.07A5.78,5.78,0,0,0,187,39.28Z"/>
    <path class="cls-3" d="M173.42,27.12a34.44,34.44,0,0,0,16,11.67,5.73,5.73,0,0,0,3.42-5.25v-4.3a5.74,5.74,0,0,0-6.69-5.66l-18,5Z"/>
    <path class="cls-3" d="M189.44,38.79a5.75,5.75,0,0,1-1.52.43A5.69,5.69,0,0,0,189.44,38.79Z"/>
    <path class="cls-3" d="M187.79,39.24a5.64,5.64,0,0,1-.63,0A5.67,5.67,0,0,0,187.79,39.24Z"/>
    <path class="cls-6" d="M173.42,27.12l-5.19,1.44a2.94,2.94,0,0,0,0,5.66l18,5a5.7,5.7,0,0,0,.79.07h.2a5.64,5.64,0,0,0,.63,0l.14,0a5.75,5.75,0,0,0,1.52-.43h0A34.44,34.44,0,0,1,173.42,27.12Z"/>
    <path class="cls-4" d="M171,48l.2.17c.77.63,1.52,1.27,2.24,1.93h0l10-11.71L174.72,36l-6.86,9.6c.23.18.43.38.65.56h0Q169.78,47.09,171,48Z"/>
    <path class="cls-3" d="M137.29,52.53l-3.38,8.17a1.79,1.79,0,0,1-3.3-1.37L134,51.16a23.11,23.11,0,0,0-16.09.6c-.57.24-1.12.5-1.67.78a31.35,31.35,0,0,0-4.13,12.66l2.16.9a1.79,1.79,0,1,1-1.37,3.3L112,69c0,.1,0,.21,0,.31a38.17,38.17,0,0,0,6.37,19.53l1.3-3.14a1.79,1.79,0,0,1,3.3,1.37l-2.1,5.07a35.41,35.41,0,0,0,4.21,4.19,23.14,23.14,0,0,0,22.4-12.64l-8.17-3.38a1.79,1.79,0,1,1,1.37-3.3l8.17,3.38a23.14,23.14,0,0,0-11.55-27.89ZM141.08,75H133.7a7.3,7.3,0,1,1,0-3.57h7.38Z"/>
    <path class="cls-6" d="M112,69l-7.26-3A23.14,23.14,0,0,0,116.29,93.9l2.09-5A38.17,38.17,0,0,1,112,69.33C112,69.23,112,69.12,112,69Z"/>
    <path class="cls-6" d="M120.87,92.17l-1.28,3.1a23.29,23.29,0,0,0,5.49,1.09A35.41,35.41,0,0,1,120.87,92.17Z"/>
    <path class="cls-6" d="M106.1,62.71l6,2.49a31.35,31.35,0,0,1,4.13-12.66A23.11,23.11,0,0,0,106.1,62.71Z"/>
    <path class="cls-2" d="M126.79,71.43h6.91a7.15,7.15,0,1,0,0,3.57h-6.91Z"/>
    <polygon class="cls-4" points="126.79 71.43 126.79 75 133.7 75 141.07 75 141.07 71.43 133.7 71.43 126.79 71.43"/>
    <path class="cls-2" d="M265.26,7.35a5.35,5.35,0,0,1,4,5.15,1.79,1.79,0,0,0,3.57,0,8.94,8.94,0,0,0-7.43-8.79,5.26,5.26,0,0,1,.29,1.65A5.3,5.3,0,0,1,265.26,7.35Z"/>
    <path class="cls-2" d="M265.34,3.63c6.11.43,11,3.5,11,7.09a1.79,1.79,0,0,0,3.57,0c0-6-7.06-10.71-16.07-10.71a1.78,1.78,0,0,0-1.28.54A5.37,5.37,0,0,1,265.34,3.63Z"/>
    <path class="cls-3" d="M283.92,71.43a12.5,12.5,0,1,0,12.5,12.5A12.51,12.51,0,0,0,283.92,71.43Zm0,17.86a5.36,5.36,0,1,1,5.36-5.36A5.36,5.36,0,0,1,283.92,89.29Z"/>
    <path class="cls-2" d="M283.92,67.86h-.24c-.93-6.54-4.7-12.6-10.28-17.73-.71-.66-1.46-1.3-2.23-1.92L271,48q-1.19-1-2.46-1.86h0c-9.52-6.75-22.35-11.25-35.26-12.09,1.22-10.66,3.43-20.19,7.43-23.7h0a5.42,5.42,0,0,1-.71-.31l-.08,0a5.44,5.44,0,0,1-.64-.41l0,0a5.42,5.42,0,0,1-1-1l-.13-.15c-.09-.13-.17-.27-.25-.4s-.17-.28-.24-.43-.11-.25-.16-.37a5.22,5.22,0,0,1-.18-.59c0-.11-.06-.21-.08-.32a5.25,5.25,0,0,1-.1-1,4.57,4.57,0,0,1,.09-.85,6.58,6.58,0,0,1,.16-.68h0c-7.86,5.31-11.12,20.7-12.24,42.67A26.72,26.72,0,0,0,200,74.28a.89.89,0,0,0,0,.35A26.73,26.73,0,0,0,227.88,100H228l.14,0a26.73,26.73,0,0,0,25.36-27.83s0-.1,0-.15,0-.1,0-.14A26.72,26.72,0,0,0,232.2,47c.1-1.92.22-3.86.37-5.79,21.2,1.3,42.48,13.39,44.1,28.41a16,16,0,1,0,7.25-1.75Zm-42.86,3.57v2.9h.07l8.83-.41a23.1,23.1,0,0,1-20.32,22.3l-.41-8.83a1.79,1.79,0,0,0-3.57.17l.41,8.83-1-.06a23.09,23.09,0,0,1-21.27-20.26l8.82-.41.21,0a1.78,1.78,0,0,0-.37-3.54h-.2l-8.63.4a23.18,23.18,0,0,1,20.32-22.3l.41,8.82a1.79,1.79,0,1,0,3.57-.17L227.49,50a23.1,23.1,0,0,1,22.3,20.32l-8.83.41a1.77,1.77,0,0,0-1.3.66Zm42.86,25a12.5,12.5,0,1,1,12.5-12.5A12.51,12.51,0,0,1,283.92,96.43Z"/>
    <circle class="cls-4" cx="283.92" cy="83.93" r="5.36"/>
    <path class="cls-5" d="M237.17,4.51a5.27,5.27,0,0,0-.09.85,5.3,5.3,0,0,0,.1,1c0,.11.05.21.08.32a5.3,5.3,0,0,0,.18.59c0,.13.1.25.16.37s.15.29.24.43.16.28.25.4l.13.15a5.42,5.42,0,0,0,1,1l0,0a5.44,5.44,0,0,0,.64.41l.08,0a5.42,5.42,0,0,0,.71.31,5.27,5.27,0,0,0,1.77.33H260.3a5.37,5.37,0,0,0,5-3.37,5.3,5.3,0,0,0,.4-2,5.26,5.26,0,0,0-.29-1.65l0-.08A5.37,5.37,0,0,0,262.59.54,5.28,5.28,0,0,0,260.3,0H242.44a5.36,5.36,0,0,0-5.11,3.83h0A6.58,6.58,0,0,0,237.17,4.51Z"/>
    <path class="cls-3" d="M287,39.28a5.72,5.72,0,0,1-.79-.07A5.8,5.8,0,0,0,287,39.28Z"/>
    <path class="cls-3" d="M289.43,38.79a5.74,5.74,0,0,1-1.52.43A5.67,5.67,0,0,0,289.43,38.79Z"/>
    <path class="cls-3" d="M273.41,27.12a34.44,34.44,0,0,0,16,11.67,5.73,5.73,0,0,0,3.42-5.25v-4.3a5.74,5.74,0,0,0-6.69-5.66l-17.95,5Z"/>
    <path class="cls-3" d="M287.78,39.24a5.67,5.67,0,0,1-.63,0A5.7,5.7,0,0,0,287.78,39.24Z"/>
    <path class="cls-6" d="M273.41,27.12l-5.19,1.44a2.94,2.94,0,0,0,0,5.66l18,5a5.72,5.72,0,0,0,.79.07h.2a5.67,5.67,0,0,0,.63,0l.14,0a5.74,5.74,0,0,0,1.52-.43h0A34.44,34.44,0,0,1,273.41,27.12Z"/>
    <path class="cls-4" d="M271,48l.21.17c.77.63,1.52,1.27,2.23,1.92h0l10-11.71L274.71,36l-6.86,9.6c.23.18.43.38.65.56h0Q269.77,47.09,271,48Z"/>
    <path class="cls-3" d="M241,70.77l8.83-.41A23.1,23.1,0,0,0,227.49,50l.41,8.82a1.79,1.79,0,1,1-3.57.17l-.41-8.82a23.21,23.21,0,0,0-7.71,2.37A30.75,30.75,0,0,0,212,69.33c0,.93.13,1.85.23,2.77h.2a1.78,1.78,0,0,1,.37,3.54A37.07,37.07,0,0,0,225,96.33l1,.06-.41-8.83a1.79,1.79,0,0,1,3.57-.17l.41,8.83A23.1,23.1,0,0,0,250,73.92l-8.83.41h-.07V75h-7.37a7.16,7.16,0,1,1,0-3.57h6A1.77,1.77,0,0,1,241,70.77Z"/>
    <path class="cls-6" d="M216.21,52.57A23,23,0,0,0,203.6,72.5l8.63-.4c-.11-.92-.19-1.84-.23-2.77A30.75,30.75,0,0,1,216.21,52.57Z"/>
    <path class="cls-6" d="M212.8,75.63l-.21,0-8.82.41A23.09,23.09,0,0,0,225,96.33,37.07,37.07,0,0,1,212.8,75.63Z"/>
    <path class="cls-2" d="M226.78,71.43h6.91a7.14,7.14,0,1,0,0,3.57h-6.91Z"/>
    <polygon class="cls-4" points="226.78 71.43 226.78 75 233.69 75 241.07 75 241.07 74.33 241.07 71.43 239.67 71.43 233.69 71.43 226.78 71.43"/>
    <path class="cls-2" d="M365.26,7.35a5.35,5.35,0,0,1,4,5.15,1.79,1.79,0,0,0,3.57,0,8.94,8.94,0,0,0-7.43-8.79,5.26,5.26,0,0,1,.29,1.65A5.3,5.3,0,0,1,365.26,7.35Z"/>
    <path class="cls-2" d="M365.34,3.63c6.11.43,11,3.5,11,7.09a1.79,1.79,0,0,0,3.57,0c0-6-7.06-10.71-16.07-10.71a1.78,1.78,0,0,0-1.28.54A5.37,5.37,0,0,1,365.34,3.63Z"/>
    <path class="cls-3" d="M383.93,71.43a12.5,12.5,0,1,0,12.5,12.5A12.51,12.51,0,0,0,383.93,71.43Zm0,17.86a5.36,5.36,0,1,1,5.36-5.36A5.36,5.36,0,0,1,383.93,89.29Z"/>
    <path class="cls-2" d="M383.93,67.86h-.24c-.93-6.54-4.7-12.6-10.28-17.73-.71-.66-1.46-1.3-2.24-1.92L371,48q-1.19-1-2.46-1.86h0c-9.52-6.75-22.35-11.25-35.26-12.09,1.22-10.66,3.43-20.19,7.43-23.7h0a5.42,5.42,0,0,1-.71-.31l-.08,0a5.44,5.44,0,0,1-.64-.41l0,0a5.42,5.42,0,0,1-1-1l-.13-.15c-.09-.13-.17-.27-.25-.4s-.17-.28-.24-.43-.11-.25-.16-.37a5.22,5.22,0,0,1-.18-.59c0-.11-.06-.21-.08-.32a5.25,5.25,0,0,1-.1-1,4.57,4.57,0,0,1,.09-.85,6.58,6.58,0,0,1,.16-.68h0c-7.86,5.31-11.12,20.69-12.24,42.66a26.91,26.91,0,0,0-8.39,1.93l-.17.05-.16.08A26.73,26.73,0,0,0,302,83.29a.88.88,0,0,0,.14.33A26.73,26.73,0,0,0,336.9,98l.14,0,.13-.07A26.73,26.73,0,0,0,351.57,63.1s0-.09,0-.14,0-.08-.07-.13A26.7,26.7,0,0,0,332.21,47c.1-1.91.22-3.85.37-5.79,21.2,1.3,42.48,13.39,44.1,28.41a16,16,0,1,0,7.25-1.75Zm-45.6.57a1.78,1.78,0,0,0,2.33,1L348.84,66A23.14,23.14,0,0,1,337.28,93.9l-3.38-8.17a1.79,1.79,0,0,0-3.3,1.37L334,95.27A23.14,23.14,0,0,1,306.1,83.71l8-3.33.13-.05A1.78,1.78,0,0,0,313.12,77l-.22.07-8.17,3.38a23.15,23.15,0,0,1,11.49-27.86l.06,0,3.38,8.17a1.79,1.79,0,1,0,3.3-1.37l-3.38-8.17a23.14,23.14,0,0,1,27.89,11.55L339.3,66.1A1.78,1.78,0,0,0,338.33,68.43Zm45.6,28a12.5,12.5,0,1,1,12.5-12.5A12.51,12.51,0,0,1,383.93,96.43Z"/>
    <circle class="cls-4" cx="383.93" cy="83.93" r="5.36"/>
    <path class="cls-5" d="M337.17,4.51a5.27,5.27,0,0,0-.09.85,5.3,5.3,0,0,0,.1,1c0,.11.05.21.08.32a5.3,5.3,0,0,0,.18.59c0,.13.1.25.16.37s.15.29.24.43.16.28.25.4l.13.15a5.42,5.42,0,0,0,1,1l0,0a5.44,5.44,0,0,0,.64.41l.08,0a5.42,5.42,0,0,0,.71.31,5.27,5.27,0,0,0,1.77.33H360.3a5.37,5.37,0,0,0,5-3.37,5.3,5.3,0,0,0,.4-2,5.26,5.26,0,0,0-.29-1.65l0-.08A5.37,5.37,0,0,0,362.6.54,5.28,5.28,0,0,0,360.3,0H342.44a5.36,5.36,0,0,0-5.11,3.83h0A6.58,6.58,0,0,0,337.17,4.51Z"/>
    <path class="cls-3" d="M387,39.28a5.72,5.72,0,0,1-.79-.07A5.8,5.8,0,0,0,387,39.28Z"/>
    <path class="cls-3" d="M387.78,39.24a5.67,5.67,0,0,1-.63,0A5.7,5.7,0,0,0,387.78,39.24Z"/>
    <path class="cls-3" d="M389.44,38.79a5.74,5.74,0,0,1-1.52.43A5.67,5.67,0,0,0,389.44,38.79Z"/>
    <path class="cls-3" d="M373.41,27.12a34.44,34.44,0,0,0,16,11.67,5.73,5.73,0,0,0,3.42-5.25v-4.3a5.74,5.74,0,0,0-6.69-5.66l-18,5Z"/>
    <path class="cls-6" d="M373.41,27.12l-5.19,1.44a2.94,2.94,0,0,0,0,5.66l18,5a5.72,5.72,0,0,0,.79.07h.2a5.67,5.67,0,0,0,.63,0l.14,0a5.74,5.74,0,0,0,1.52-.43h0A34.44,34.44,0,0,1,373.41,27.12Z"/>
    <path class="cls-4" d="M371,48l.2.17c.77.63,1.52,1.27,2.24,1.92h0l10-11.71L374.71,36l-6.86,9.6c.23.18.43.38.65.56h0Q369.78,47.09,371,48Z"/>
    <path class="cls-3" d="M339.3,66.1l8.17-3.39a23.14,23.14,0,0,0-27.89-11.55L323,59.33a1.79,1.79,0,0,1-3.3,1.37l-3.38-8.17-.06,0A30.75,30.75,0,0,0,312,69.33,38.76,38.76,0,0,0,313.12,77a1.78,1.78,0,0,1,1.15,3.36l-.13.05a36.69,36.69,0,0,0,10.94,16,23.21,23.21,0,0,0,8.91-1.1l-3.38-8.17a1.79,1.79,0,0,1,3.3-1.37l3.38,8.17A23.14,23.14,0,0,0,348.84,66l-8.17,3.39a1.79,1.79,0,0,1-1.37-3.3Zm1.77,5.33V75h-7.38a7.15,7.15,0,1,1,0-3.57Z"/>
    <path class="cls-6" d="M316.22,52.56a23.15,23.15,0,0,0-11.49,27.86L312.9,77l.22-.07A38.76,38.76,0,0,1,312,69.33,30.75,30.75,0,0,1,316.22,52.56Z"/>
    <path class="cls-6" d="M314.14,80.39l-8,3.33a23.14,23.14,0,0,0,19,12.65A36.69,36.69,0,0,1,314.14,80.39Z"/>
    <path class="cls-2" d="M326.78,71.43h6.91a7.3,7.3,0,1,0,0,3.57h-6.91Z"/>
    <polygon class="cls-4" points="326.78 71.43 326.78 75 333.69 75 341.07 75 341.07 71.43 333.69 71.43 326.78 71.43"/>
    <path class="cls-2" d="M465.27,7.35a5.35,5.35,0,0,1,4,5.15,1.79,1.79,0,0,0,3.57,0,8.94,8.94,0,0,0-7.43-8.79,5.26,5.26,0,0,1,.29,1.65A5.3,5.3,0,0,1,465.27,7.35Z"/>
    <path class="cls-2" d="M465.35,3.63c6.11.43,11,3.5,11,7.09a1.79,1.79,0,0,0,3.57,0c0-6-7.06-10.71-16.07-10.71a1.78,1.78,0,0,0-1.28.54A5.37,5.37,0,0,1,465.35,3.63Z"/>
    <path class="cls-3" d="M483.93,71.43a12.5,12.5,0,1,0,12.5,12.5A12.51,12.51,0,0,0,483.93,71.43Zm0,17.86a5.36,5.36,0,1,1,5.36-5.36A5.36,5.36,0,0,1,483.93,89.29Z"/>
    <path class="cls-2" d="M483.93,67.86h-.24c-.93-6.54-4.7-12.6-10.28-17.73-.71-.66-1.46-1.3-2.24-1.92L471,48q-1.19-1-2.46-1.86h0c-9.52-6.75-22.35-11.25-35.26-12.09,1.22-10.66,3.43-20.19,7.43-23.7h0a5.42,5.42,0,0,1-.71-.31l-.08,0a5.43,5.43,0,0,1-.64-.41l0,0a5.42,5.42,0,0,1-1-1l-.13-.15c-.09-.13-.17-.27-.25-.4s-.17-.28-.24-.43-.11-.25-.16-.37a5.22,5.22,0,0,1-.18-.59c0-.11-.06-.21-.08-.32a5.25,5.25,0,0,1-.1-1,4.57,4.57,0,0,1,.09-.85,6.58,6.58,0,0,1,.16-.68h0c-7.86,5.31-11.12,20.69-12.24,42.65A26.7,26.7,0,0,0,408,54.16l-.14.11-.11.14a26.73,26.73,0,0,0,0,37.63l.09.11.11.09a26.73,26.73,0,0,0,37.65,0l.11-.09.09-.11a26.73,26.73,0,0,0,0-37.63l-.11-.14-.14-.11A26.76,26.76,0,0,0,432.21,47c.1-1.91.22-3.85.37-5.78,21.2,1.3,42.48,13.39,44.1,28.41a16,16,0,1,0,7.25-1.75ZM444.4,88.31l-6.25-6.25a1.79,1.79,0,0,0-2.53,2.53l6.25,6.25a23.11,23.11,0,0,1-15.09,5.6c-.57,0-1.14,0-1.71-.07a23.11,23.11,0,0,1-13.38-5.53l4.9-4.9,1.36-1.36a1.79,1.79,0,0,0-2.53-2.53l-.46.46-5.79,5.79a23.14,23.14,0,0,1,0-30.18l3.51,3.51,2.75,2.75a1.79,1.79,0,1,0,2.53-2.53l-4.13-4.13L411.7,55.6a23.3,23.3,0,0,1,4.54-3,23.14,23.14,0,0,1,25.65,3l-6.25,6.25a1.79,1.79,0,1,0,2.53,2.53l6.25-6.25a23.14,23.14,0,0,1,0,30.18Zm39.53,8.12a12.5,12.5,0,1,1,12.5-12.5A12.51,12.51,0,0,1,483.93,96.43Z"/>
    <circle class="cls-4" cx="483.93" cy="83.93" r="5.36"/>
    <path class="cls-5" d="M437.18,4.51a5.27,5.27,0,0,0-.09.85,5.3,5.3,0,0,0,.1,1c0,.11.05.21.08.32a5.3,5.3,0,0,0,.18.59c0,.13.1.25.16.37s.15.29.24.43.16.28.25.4l.13.15a5.42,5.42,0,0,0,1,1l0,0a5.43,5.43,0,0,0,.64.41l.08,0a5.42,5.42,0,0,0,.71.31,5.27,5.27,0,0,0,1.77.33H460.3a5.37,5.37,0,0,0,5-3.37,5.3,5.3,0,0,0,.4-2,5.26,5.26,0,0,0-.29-1.65l0-.08A5.37,5.37,0,0,0,462.6.54,5.28,5.28,0,0,0,460.3,0H442.45a5.36,5.36,0,0,0-5.11,3.83h0A6.58,6.58,0,0,0,437.18,4.51Z"/>
    <path class="cls-3" d="M487,39.28a5.72,5.72,0,0,1-.79-.07A5.8,5.8,0,0,0,487,39.28Z"/>
    <path class="cls-3" d="M473.42,27.12a34.44,34.44,0,0,0,16,11.67,5.73,5.73,0,0,0,3.42-5.25v-4.3a5.74,5.74,0,0,0-6.69-5.66l-18,5Z"/>
    <path class="cls-3" d="M489.44,38.79a5.74,5.74,0,0,1-1.52.43A5.67,5.67,0,0,0,489.44,38.79Z"/>
    <path class="cls-3" d="M487.78,39.24a5.67,5.67,0,0,1-.63,0A5.7,5.7,0,0,0,487.78,39.24Z"/>
    <path class="cls-6" d="M473.42,27.12l-5.19,1.44a2.94,2.94,0,0,0,0,5.66l18,5a5.72,5.72,0,0,0,.79.07h.2a5.67,5.67,0,0,0,.63,0l.14,0a5.74,5.74,0,0,0,1.52-.43h0A34.44,34.44,0,0,1,473.42,27.12Z"/>
    <path class="cls-4" d="M471,48l.2.17c.77.63,1.52,1.27,2.24,1.92h0l10-11.71L474.72,36l-6.86,9.6c.23.18.43.38.65.56h0Q469.78,47.09,471,48Z"/>
    <path class="cls-3" d="M438.15,64.38a1.79,1.79,0,0,1-2.53-2.53l6.25-6.25a23.14,23.14,0,0,0-25.65-3,32.85,32.85,0,0,0-2.42,5.17l4.13,4.13a1.79,1.79,0,1,1-2.53,2.53l-2.75-2.75a29.55,29.55,0,0,0-.67,7.71,38.53,38.53,0,0,0,3,13.18l.46-.46a1.79,1.79,0,0,1,2.53,2.53l-1.36,1.36a36.17,36.17,0,0,0,8.49,10.42c.56,0,1.13.07,1.71.07a23.11,23.11,0,0,0,15.09-5.6l-6.25-6.25a1.79,1.79,0,0,1,2.53-2.53l6.25,6.25a23.14,23.14,0,0,0,0-30.18ZM433.7,75a7.14,7.14,0,1,1,0-3.57h7.38V75Z"/>
    <path class="cls-6" d="M411.7,55.6l2.12,2.12a32.85,32.85,0,0,1,2.42-5.17A23.3,23.3,0,0,0,411.7,55.6Z"/>
    <path class="cls-6" d="M412.68,61.63l-3.51-3.51a23.14,23.14,0,0,0,0,30.18L415,82.52a38.53,38.53,0,0,1-3-13.18A29.55,29.55,0,0,1,412.68,61.63Z"/>
    <path class="cls-6" d="M416.59,85.93l-4.9,4.9a23.11,23.11,0,0,0,13.38,5.53A36.17,36.17,0,0,1,416.59,85.93Z"/>
    <path class="cls-2" d="M426.79,71.43h6.91a7.14,7.14,0,1,0,0,3.57h-6.91Z"/>
    <polygon class="cls-4" points="433.7 71.43 426.79 71.43 426.79 75 433.7 75 441.07 75 441.07 71.43 433.7 71.43"/>
    <path class="cls-2" d="M565.27,7.35a5.35,5.35,0,0,1,4,5.15,1.79,1.79,0,1,0,3.57,0,8.94,8.94,0,0,0-7.43-8.79,5.26,5.26,0,0,1,.29,1.65A5.29,5.29,0,0,1,565.27,7.35Z"/>
    <path class="cls-2" d="M565.35,3.63c6.11.43,11,3.5,11,7.09a1.79,1.79,0,1,0,3.57,0C580,4.71,572.89,0,563.88,0a1.78,1.78,0,0,0-1.28.54A5.37,5.37,0,0,1,565.35,3.63Z"/>
    <path class="cls-3" d="M583.93,71.43a12.5,12.5,0,1,0,12.5,12.5A12.51,12.51,0,0,0,583.93,71.43Zm0,17.86a5.36,5.36,0,1,1,5.36-5.36A5.36,5.36,0,0,1,583.93,89.29Z"/>
    <path class="cls-2" d="M583.93,67.86h-.24c-.93-6.54-4.7-12.6-10.28-17.73-.71-.66-1.46-1.3-2.24-1.92L571,48q-1.19-1-2.46-1.86h0c-9.52-6.75-22.35-11.25-35.26-12.09,1.22-10.66,3.43-20.19,7.43-23.7h0a5.4,5.4,0,0,1-.71-.31l-.08,0a5.47,5.47,0,0,1-.64-.41l0,0a5.43,5.43,0,0,1-1-1l-.13-.15c-.09-.13-.17-.27-.25-.4s-.17-.28-.24-.43-.11-.25-.16-.37a5.22,5.22,0,0,1-.18-.59c0-.11-.06-.21-.08-.32a5.25,5.25,0,0,1-.1-1,4.56,4.56,0,0,1,.09-.85,6.58,6.58,0,0,1,.16-.68h0c-7.86,5.31-11.12,20.69-12.24,42.66a26.71,26.71,0,0,0-23,16.32.89.89,0,0,0-.14.33,26.73,26.73,0,0,0,14.42,34.76l.13.07.14,0a26.73,26.73,0,0,0,34.79-14.41s.05-.08.07-.13,0-.09,0-.14A26.73,26.73,0,0,0,537.2,48.55l-.16-.08-.17-.05A27,27,0,0,0,532.21,47c.1-1.92.22-3.86.37-5.79,21.2,1.3,42.48,13.39,44.1,28.41a16,16,0,1,0,7.25-1.75ZM548.84,80.42,540.67,77a1.79,1.79,0,1,0-1.37,3.3l8.17,3.38a23.15,23.15,0,0,1-27.89,11.55l1.28-3.1,2.1-5.07a1.79,1.79,0,0,0-3.3-1.37l-1.3,3.14-2.09,5A23.14,23.14,0,0,1,504.74,66L512,69l.91.38a1.79,1.79,0,0,0,1.37-3.3l-2.16-.9-6-2.49a23.11,23.11,0,0,1,10.13-10.17c.54-.28,1.1-.54,1.67-.78a23.11,23.11,0,0,1,16.09-.6l-3.38,8.17a1.79,1.79,0,1,0,3.3,1.37l3.38-8.17a23.14,23.14,0,0,1,11.55,27.89Zm35.09,16a12.5,12.5,0,1,1,12.5-12.5A12.51,12.51,0,0,1,583.93,96.43Z"/>
    <circle class="cls-4" cx="583.93" cy="83.93" r="5.36"/>
    <path class="cls-5" d="M537.18,4.51a5.27,5.27,0,0,0-.09.85,5.31,5.31,0,0,0,.1,1c0,.11.05.21.08.32a5.3,5.3,0,0,0,.18.59c0,.13.1.25.16.37s.15.29.24.43.16.28.25.4l.13.15a5.43,5.43,0,0,0,1,1l0,0a5.47,5.47,0,0,0,.64.41l.08,0a5.4,5.4,0,0,0,.71.31,5.27,5.27,0,0,0,1.77.33h17.86a5.37,5.37,0,0,0,5-3.37,5.29,5.29,0,0,0,.4-2,5.26,5.26,0,0,0-.29-1.65l0-.08A5.37,5.37,0,0,0,562.6.54a5.28,5.28,0,0,0-2.3-.54H542.45a5.36,5.36,0,0,0-5.11,3.83h0A6.58,6.58,0,0,0,537.18,4.51Z"/>
    <path class="cls-3" d="M589.44,38.79a5.75,5.75,0,0,1-1.52.43A5.69,5.69,0,0,0,589.44,38.79Z"/>
    <path class="cls-3" d="M573.42,27.12a34.44,34.44,0,0,0,16,11.67,5.73,5.73,0,0,0,3.42-5.25v-4.3a5.74,5.74,0,0,0-6.69-5.66l-18,5Z"/>
    <path class="cls-3" d="M587.79,39.24a5.64,5.64,0,0,1-.63,0A5.67,5.67,0,0,0,587.79,39.24Z"/>
    <path class="cls-3" d="M587,39.28a5.7,5.7,0,0,1-.79-.07A5.78,5.78,0,0,0,587,39.28Z"/>
    <path class="cls-6" d="M573.42,27.12l-5.19,1.44a2.94,2.94,0,0,0,0,5.66l18,5a5.7,5.7,0,0,0,.79.07h.2a5.64,5.64,0,0,0,.63,0l.14,0a5.75,5.75,0,0,0,1.52-.43h0A34.44,34.44,0,0,1,573.42,27.12Z"/>
    <path class="cls-4" d="M571,48l.2.17c.77.63,1.52,1.27,2.24,1.92h0l10-11.71L574.72,36l-6.86,9.6c.23.18.43.38.65.56h0Q569.79,47.09,571,48Z"/>
    <path class="cls-3" d="M537.29,52.53l-3.38,8.17a1.79,1.79,0,1,1-3.3-1.37L534,51.16a23.11,23.11,0,0,0-16.09.6c-.57.24-1.12.5-1.67.78a31.35,31.35,0,0,0-4.13,12.66l2.16.9a1.79,1.79,0,1,1-1.37,3.3L512,69c0,.1,0,.21,0,.31a38.17,38.17,0,0,0,6.37,19.53l1.3-3.14a1.79,1.79,0,0,1,3.3,1.37l-2.1,5.07a35.41,35.41,0,0,0,4.21,4.19,23.14,23.14,0,0,0,22.4-12.64l-8.17-3.38a1.79,1.79,0,1,1,1.37-3.3l8.17,3.38a23.14,23.14,0,0,0-11.55-27.89ZM541.08,75H533.7a7.3,7.3,0,1,1,0-3.57h7.38Z"/>
    <path class="cls-6" d="M512,69l-7.26-3A23.14,23.14,0,0,0,516.29,93.9l2.09-5A38.17,38.17,0,0,1,512,69.33C512,69.23,512,69.12,512,69Z"/>
    <path class="cls-6" d="M506.11,62.71l6,2.49a31.35,31.35,0,0,1,4.13-12.66A23.11,23.11,0,0,0,506.11,62.71Z"/>
    <path class="cls-6" d="M520.87,92.17l-1.28,3.1a23.29,23.29,0,0,0,5.49,1.09A35.41,35.41,0,0,1,520.87,92.17Z"/>
    <path class="cls-2" d="M526.79,71.43h6.91a7.15,7.15,0,1,0,0,3.57h-6.91Z"/>
    <polygon class="cls-4" points="526.79 71.43 526.79 75 533.7 75 541.08 75 541.08 71.43 533.7 71.43 526.79 71.43"/>
    <path class="cls-2" d="M665.26,7.35a5.35,5.35,0,0,1,4,5.15,1.79,1.79,0,0,0,3.57,0,8.94,8.94,0,0,0-7.43-8.79,5.26,5.26,0,0,1,.29,1.65A5.3,5.3,0,0,1,665.26,7.35Z"/>
    <path class="cls-2" d="M665.34,3.63c6.11.43,11,3.5,11,7.09a1.79,1.79,0,0,0,3.57,0c0-6-7.06-10.71-16.07-10.71a1.78,1.78,0,0,0-1.28.54A5.37,5.37,0,0,1,665.34,3.63Z"/>
    <path class="cls-3" d="M683.93,71.43a12.5,12.5,0,1,0,12.5,12.5A12.51,12.51,0,0,0,683.93,71.43Zm0,17.86a5.36,5.36,0,1,1,5.36-5.36A5.36,5.36,0,0,1,683.93,89.29Z"/>
    <path class="cls-2" d="M683.93,67.86h-.24c-.93-6.54-4.7-12.6-10.28-17.73-.71-.66-1.46-1.3-2.24-1.92L671,48q-1.19-1-2.46-1.86h0c-9.52-6.75-22.35-11.25-35.26-12.09,1.22-10.66,3.43-20.19,7.43-23.7h0a5.38,5.38,0,0,1-.71-.31l-.08,0a5.45,5.45,0,0,1-.64-.41l0,0a5.43,5.43,0,0,1-1-1l-.13-.15c-.09-.13-.17-.27-.25-.4s-.17-.28-.24-.43-.11-.25-.16-.37a5.22,5.22,0,0,1-.18-.59c0-.11-.06-.21-.08-.32a5.25,5.25,0,0,1-.1-1,4.57,4.57,0,0,1,.09-.85,6.58,6.58,0,0,1,.16-.68h0c-7.86,5.31-11.12,20.7-12.24,42.67A26.72,26.72,0,0,0,600,74.28a.89.89,0,0,0,0,.35A26.73,26.73,0,0,0,627.88,100H628l.14,0a26.73,26.73,0,0,0,25.36-27.83s0-.1,0-.15,0-.1,0-.14A26.72,26.72,0,0,0,632.21,47c.1-1.92.22-3.86.37-5.79,21.2,1.3,42.48,13.39,44.1,28.41a16,16,0,1,0,7.25-1.75Zm-42.86,3.57v2.9h.07l8.83-.41a23.1,23.1,0,0,1-20.32,22.3l-.41-8.83a1.79,1.79,0,0,0-3.57.17l.41,8.83-1-.06a23.09,23.09,0,0,1-21.27-20.26l8.82-.41.21,0a1.78,1.78,0,0,0-.37-3.54h-.2l-8.63.4a23.18,23.18,0,0,1,20.32-22.3l.41,8.82a1.79,1.79,0,1,0,3.57-.17L627.49,50a23.1,23.1,0,0,1,22.3,20.32l-8.83.41a1.77,1.77,0,0,0-1.3.66Zm42.86,25a12.5,12.5,0,1,1,12.5-12.5A12.51,12.51,0,0,1,683.93,96.43Z"/>
    <circle class="cls-4" cx="683.93" cy="83.93" r="5.36"/>
    <path class="cls-5" d="M637.17,4.51a5.27,5.27,0,0,0-.09.85,5.3,5.3,0,0,0,.1,1c0,.11.05.21.08.32a5.31,5.31,0,0,0,.18.59c0,.13.1.25.16.37s.15.29.24.43.16.28.25.4l.13.15a5.43,5.43,0,0,0,1,1l0,0a5.45,5.45,0,0,0,.64.41l.08,0a5.38,5.38,0,0,0,.71.31,5.27,5.27,0,0,0,1.77.33H660.3a5.37,5.37,0,0,0,5-3.37,5.3,5.3,0,0,0,.4-2,5.26,5.26,0,0,0-.29-1.65l0-.08A5.37,5.37,0,0,0,662.59.54,5.28,5.28,0,0,0,660.3,0H642.44a5.36,5.36,0,0,0-5.11,3.83h0A6.58,6.58,0,0,0,637.17,4.51Z"/>
    <path class="cls-3" d="M689.43,38.79a5.74,5.74,0,0,1-1.52.43A5.67,5.67,0,0,0,689.43,38.79Z"/>
    <path class="cls-3" d="M687.78,39.24a5.67,5.67,0,0,1-.63,0A5.7,5.7,0,0,0,687.78,39.24Z"/>
    <path class="cls-3" d="M673.41,27.12a34.44,34.44,0,0,0,16,11.67,5.73,5.73,0,0,0,3.42-5.25v-4.3a5.74,5.74,0,0,0-6.69-5.66l-18,5Z"/>
    <path class="cls-3" d="M687,39.28a5.72,5.72,0,0,1-.79-.07A5.8,5.8,0,0,0,687,39.28Z"/>
    <path class="cls-6" d="M673.41,27.12l-5.19,1.44a2.94,2.94,0,0,0,0,5.66l18,5a5.72,5.72,0,0,0,.79.07h.2a5.67,5.67,0,0,0,.63,0l.14,0a5.74,5.74,0,0,0,1.52-.43h0A34.44,34.44,0,0,1,673.41,27.12Z"/>
    <path class="cls-4" d="M671,48l.2.17c.77.63,1.52,1.27,2.24,1.92h0l10-11.71L674.71,36l-6.86,9.6c.23.18.43.38.65.56h0Q669.78,47.09,671,48Z"/>
    <path class="cls-3" d="M641,70.77l8.83-.41A23.1,23.1,0,0,0,627.49,50l.41,8.82a1.79,1.79,0,1,1-3.57.17l-.41-8.82a23.21,23.21,0,0,0-7.71,2.37A30.75,30.75,0,0,0,612,69.33c0,.93.13,1.85.23,2.77h.2a1.78,1.78,0,0,1,.37,3.54A37.07,37.07,0,0,0,625,96.33l1,.06-.41-8.83a1.79,1.79,0,0,1,3.57-.17l.41,8.83A23.1,23.1,0,0,0,650,73.92l-8.83.41h-.07V75H633.7a7.16,7.16,0,1,1,0-3.57h6A1.77,1.77,0,0,1,641,70.77Z"/>
    <path class="cls-6" d="M616.21,52.57A23,23,0,0,0,603.61,72.5l8.63-.4c-.11-.92-.19-1.84-.23-2.77A30.75,30.75,0,0,1,616.21,52.57Z"/>
    <path class="cls-6" d="M612.8,75.63l-.21,0-8.82.41A23.09,23.09,0,0,0,625,96.33,37.07,37.07,0,0,1,612.8,75.63Z"/>
    <path class="cls-2" d="M626.78,71.43h6.91a7.14,7.14,0,1,0,0,3.57h-6.91Z"/>
    <polygon class="cls-4" points="626.78 71.43 626.78 75 633.7 75 641.07 75 641.07 74.33 641.07 71.43 639.67 71.43 633.7 71.43 626.78 71.43"/>
    <path class="cls-2" d="M765.26,7.35a5.35,5.35,0,0,1,4,5.15,1.79,1.79,0,0,0,3.57,0,8.94,8.94,0,0,0-7.43-8.79,5.26,5.26,0,0,1,.29,1.65A5.3,5.3,0,0,1,765.26,7.35Z"/>
    <path class="cls-2" d="M765.35,3.63c6.11.43,11,3.5,11,7.09a1.79,1.79,0,0,0,3.57,0c0-6-7.06-10.71-16.07-10.71a1.78,1.78,0,0,0-1.28.54A5.37,5.37,0,0,1,765.35,3.63Z"/>
    <path class="cls-3" d="M783.93,71.43a12.5,12.5,0,1,0,12.5,12.5A12.51,12.51,0,0,0,783.93,71.43Zm0,17.86a5.36,5.36,0,1,1,5.36-5.36A5.36,5.36,0,0,1,783.93,89.29Z"/>
    <path class="cls-2" d="M783.93,67.86h-.24c-.93-6.54-4.7-12.6-10.28-17.73-.71-.66-1.46-1.3-2.23-1.92L771,48q-1.19-1-2.46-1.86h0c-9.52-6.75-22.35-11.25-35.26-12.09,1.22-10.66,3.43-20.19,7.43-23.7h0a5.42,5.42,0,0,1-.71-.31l-.08,0a5.44,5.44,0,0,1-.64-.41l0,0a5.42,5.42,0,0,1-1-1l-.13-.15c-.09-.13-.17-.27-.25-.4s-.17-.28-.24-.43-.11-.25-.16-.37a5.22,5.22,0,0,1-.18-.59c0-.11-.06-.21-.08-.32a5.25,5.25,0,0,1-.1-1,4.57,4.57,0,0,1,.09-.85,6.58,6.58,0,0,1,.16-.68h0c-7.86,5.31-11.12,20.69-12.24,42.66a26.91,26.91,0,0,0-8.39,1.93l-.17.05-.16.08A26.73,26.73,0,0,0,702,83.29a.88.88,0,0,0,.14.33A26.73,26.73,0,0,0,736.9,98l.14,0,.13-.07A26.73,26.73,0,0,0,751.57,63.1s0-.09,0-.14,0-.08-.07-.13A26.7,26.7,0,0,0,732.21,47c.1-1.91.22-3.85.37-5.79,21.2,1.3,42.48,13.39,44.1,28.41a16,16,0,1,0,7.25-1.75Zm-45.6.57a1.78,1.78,0,0,0,2.33,1L748.84,66A23.14,23.14,0,0,1,737.29,93.9l-3.38-8.17a1.79,1.79,0,1,0-3.3,1.37L734,95.27A23.14,23.14,0,0,1,706.1,83.71l8-3.33.13-.05A1.78,1.78,0,0,0,713.12,77l-.22.07-8.17,3.38a23.15,23.15,0,0,1,11.49-27.86l.06,0,3.38,8.17a1.79,1.79,0,1,0,3.3-1.37l-3.38-8.17a23.14,23.14,0,0,1,27.89,11.55L739.3,66.1A1.78,1.78,0,0,0,738.33,68.43Zm45.6,28a12.5,12.5,0,1,1,12.5-12.5A12.51,12.51,0,0,1,783.93,96.43Z"/>
    <circle class="cls-4" cx="783.93" cy="83.93" r="5.36"/>
    <path class="cls-5" d="M737.17,4.51a5.27,5.27,0,0,0-.09.85,5.3,5.3,0,0,0,.1,1c0,.11.05.21.08.32a5.3,5.3,0,0,0,.18.59c0,.13.1.25.16.37s.15.29.24.43.16.28.25.4l.13.15a5.42,5.42,0,0,0,1,1l0,0a5.44,5.44,0,0,0,.64.41l.08,0a5.42,5.42,0,0,0,.71.31,5.27,5.27,0,0,0,1.77.33H760.3a5.37,5.37,0,0,0,5-3.37,5.3,5.3,0,0,0,.4-2,5.26,5.26,0,0,0-.29-1.65l0-.08A5.37,5.37,0,0,0,762.6.54,5.28,5.28,0,0,0,760.3,0H742.44a5.36,5.36,0,0,0-5.11,3.83h0A6.58,6.58,0,0,0,737.17,4.51Z"/>
    <path class="cls-3" d="M787.78,39.24a5.67,5.67,0,0,1-.63,0A5.7,5.7,0,0,0,787.78,39.24Z"/>
    <path class="cls-3" d="M789.44,38.79a5.74,5.74,0,0,1-1.52.43A5.67,5.67,0,0,0,789.44,38.79Z"/>
    <path class="cls-3" d="M773.41,27.12a34.44,34.44,0,0,0,16,11.67,5.73,5.73,0,0,0,3.42-5.25v-4.3a5.74,5.74,0,0,0-6.69-5.66l-17.95,5Z"/>
    <path class="cls-3" d="M787,39.28a5.72,5.72,0,0,1-.79-.07A5.8,5.8,0,0,0,787,39.28Z"/>
    <path class="cls-6" d="M773.41,27.12l-5.19,1.44a2.94,2.94,0,0,0,0,5.66l18,5a5.72,5.72,0,0,0,.79.07h.2a5.67,5.67,0,0,0,.63,0l.14,0a5.74,5.74,0,0,0,1.52-.43h0A34.44,34.44,0,0,1,773.41,27.12Z"/>
    <path class="cls-4" d="M771,48l.21.17c.77.63,1.52,1.27,2.23,1.92h0l10-11.71L774.72,36l-6.86,9.6c.23.18.43.38.65.56h0Q769.78,47.09,771,48Z"/>
    <path class="cls-3" d="M739.3,66.1l8.17-3.39a23.14,23.14,0,0,0-27.89-11.55L723,59.33a1.79,1.79,0,1,1-3.3,1.37l-3.38-8.17-.06,0A30.75,30.75,0,0,0,712,69.33,38.76,38.76,0,0,0,713.12,77a1.78,1.78,0,0,1,1.15,3.36l-.13.05a36.69,36.69,0,0,0,10.94,16,23.2,23.2,0,0,0,8.91-1.1l-3.38-8.17a1.79,1.79,0,1,1,3.3-1.37l3.38,8.17A23.14,23.14,0,0,0,748.84,66l-8.17,3.39a1.79,1.79,0,1,1-1.37-3.3Zm1.77,5.33V75h-7.38a7.15,7.15,0,1,1,0-3.57Z"/>
    <path class="cls-6" d="M716.23,52.56a23.15,23.15,0,0,0-11.49,27.86L712.9,77l.22-.07A38.76,38.76,0,0,1,712,69.33,30.75,30.75,0,0,1,716.23,52.56Z"/>
    <path class="cls-6" d="M714.14,80.39l-8,3.33a23.14,23.14,0,0,0,19,12.65A36.69,36.69,0,0,1,714.14,80.39Z"/>
    <path class="cls-2" d="M726.79,71.43h6.91a7.3,7.3,0,1,0,0,3.57h-6.91Z"/>
    <polygon class="cls-4" points="726.79 71.43 726.79 75 733.69 75 741.07 75 741.07 71.43 733.69 71.43 726.79 71.43"/>
  </g>
</svg>
