<svg id="Layer_1" data-name="Layer 1" xmlns="http://www.w3.org/2000/svg" width="800" height="100" viewBox="0 0 800 100">
  <defs>
    <style>
      .cls-1 {
        fill: #89797f;
      }

      .cls-2 {
        fill: #ff6473;
      }

      .cls-3 {
        fill: #f05467;
      }

      .cls-4 {
        fill: #ff4c61;
      }

      .cls-5 {
        fill: #644f5a;
      }

      .cls-6 {
        fill: #00bea4;
      }

      .cls-7 {
        fill: #00cbdc;
      }

      .cls-8 {
        fill: #ffc84a;
      }
    </style>
  </defs>
  <g>
    <path class="cls-1" d="M56.24,28.48a1.56,1.56,0,0,0-1.56-1.56H45.32a1.56,1.56,0,0,0-1.56,1.56V30H56.24Z"/>
    <path class="cls-2" d="M69.82,23.82h0Z"/>
    <path class="cls-2" d="M70.85,23.82a14,14,0,0,1,4.11.8A13.88,13.88,0,0,0,70.85,23.82Z"/>
    <path class="cls-2" d="M14.7,87.18a14.07,14.07,0,0,1-10-13.44,14.06,14.06,0,0,0,14.05,14c.41,0,.81,0,1.21-.05-.4,0-.8.05-1.21.05A14.07,14.07,0,0,1,14.7,87.18Z"/>
    <path class="cls-2" d="M67.65,77.44,63.83,64.89h0l3.94,12.94A14,14,0,0,0,78.2,87.47a14.29,14.29,0,0,1-4.1-1.6A14.54,14.54,0,0,1,67.65,77.44Z"/>
    <path class="cls-2" d="M32.84,58.92A7,7,0,0,1,33,57.7a12.38,12.38,0,0,1-13.2-4.55l-5,16.51A14,14,0,0,0,23.51,87a14.19,14.19,0,0,1-2.25.59,14,14,0,0,0,11-9.74l3.94-12.95A7,7,0,0,1,32.84,58.92Z"/>
    <path class="cls-2" d="M83.72,33.76a14,14,0,0,0-6.83-8.3A14.23,14.23,0,0,0,75,24.62a14.06,14.06,0,0,0-4,2.24A14,14,0,0,1,62.22,30H41.38a14,14,0,0,0-7-5.42,14.23,14.23,0,0,0-1.93.83,14,14,0,0,0-6.83,8.3l0,.11A12.47,12.47,0,0,1,40.49,51.93a7,7,0,0,1,3.77,12.46H55.74a7,7,0,0,1,3.77-12.46,12.56,12.56,0,1,1,7.54,5.77,7,7,0,0,1-2.61,6.77,13.33,13.33,0,0,1,11.33,9.15l1.37,4.22A14,14,0,0,0,85.85,87c-.19.07-.37.14-.56.2-.41.13-.83.22-1.25.31.42-.09.84-.19,1.25-.31a14.05,14.05,0,0,0,9.35-17.53ZM50,48.77a3.12,3.12,0,1,1,3.12-3.12A3.12,3.12,0,0,1,50,48.77Z"/>
    <path class="cls-2" d="M81.2,87.79c.4,0,.79,0,1.19-.06-.42,0-.85.05-1.27.05Z"/>
    <path class="cls-2" d="M79.48,87.68c-.41-.05-.82-.12-1.23-.2Q78.85,87.6,79.48,87.68Z"/>
    <path class="cls-2" d="M83.7,87.56q-.49.09-1,.14Q83.2,87.65,83.7,87.56Z"/>
    <path class="cls-2" d="M21.21,87.59c-.35.06-.71.11-1.07.14C20.5,87.69,20.86,87.65,21.21,87.59Z"/>
    <path class="cls-2" d="M68.65,23.9l.6-.06Z"/>
    <path class="cls-2" d="M67.43,24.1l.46-.08Z"/>
    <path class="cls-2" d="M80.85,87.78c-.36,0-.73,0-1.09-.07C80.12,87.75,80.49,87.77,80.85,87.78Z"/>
    <path class="cls-3" d="M70.92,26.86a14.06,14.06,0,0,1,4-2.24h0a14,14,0,0,0-4.11-.8h-1l-.58,0-.6.06-.76.11-.46.08c-.41.09-.82.19-1.23.31A14,14,0,0,0,58.62,30h3.59A14,14,0,0,0,70.92,26.86Z"/>
    <polygon class="cls-4" points="45.6 64.38 45.6 64.39 55.74 64.39 55.74 64.39 45.6 64.38"/>
    <path class="cls-4" d="M85.85,87a14,14,0,0,1-8.71-9.15l-1.37-4.22a13.33,13.33,0,0,0-11.33-9.15,7,7,0,0,1-.61.42l3.82,12.55a14.54,14.54,0,0,0,6.45,8.43,14.29,14.29,0,0,0,4.1,1.6h0c.41.09.82.15,1.23.2l.29,0c.36,0,.73.06,1.09.07h.27c.42,0,.85,0,1.27-.05l.31,0q.5-.05,1-.14L84,87.5c.42-.09.84-.19,1.25-.31C85.49,87.13,85.67,87,85.85,87Z"/>
    <path class="cls-4" d="M15.77,80.36a14,14,0,0,1-1-10.7l5-16.51a12.46,12.46,0,0,1,5.87-19.28l0-.11a14,14,0,0,1,6.83-8.3,14.23,14.23,0,0,1,1.93-.83h0l-.6-.21a14,14,0,0,0-17.53,9.35L5.36,69.66a14,14,0,0,0,1,10.7A14.06,14.06,0,0,0,18.8,87.79c.41,0,.81,0,1.21-.05l.13,0c.36,0,.72-.08,1.07-.14h0A14.19,14.19,0,0,0,23.51,87,13.93,13.93,0,0,1,15.77,80.36Z"/>
    <path class="cls-1" d="M17.23,45.65A12.44,12.44,0,0,0,33,57.7a7,7,0,0,1,6.91-5.8c.21,0,.42,0,.63,0a12.48,12.48,0,1,0-23.26-6.28Zm14.82,7.8a2.34,2.34,0,1,1-4.68,0V50.33a2.34,2.34,0,1,1,4.68,0ZM34.4,43.31h3.12a2.34,2.34,0,0,1,0,4.68H34.4a2.34,2.34,0,0,1,0-4.68Zm-7-5.47a2.34,2.34,0,1,1,4.68,0V41a2.34,2.34,0,1,1-4.68,0ZM25,43.31A2.34,2.34,0,0,1,25,48H21.91a2.34,2.34,0,0,1,0-4.68Z"/>
    <path class="cls-5" d="M46.88,58.92a7,7,0,0,0-6.39-7c-.21,0-.42,0-.63,0a7,7,0,1,0,7,7Zm-7-3.9a3.9,3.9,0,1,1-3.9,3.9A3.9,3.9,0,0,1,39.86,55Z"/>
    <path class="cls-5" d="M29.72,43.31A2.34,2.34,0,0,0,32.06,41V37.85a2.34,2.34,0,1,0-4.68,0V41A2.34,2.34,0,0,0,29.72,43.31Z"/>
    <path class="cls-5" d="M29.72,48a2.34,2.34,0,0,0-2.34,2.34v3.12a2.34,2.34,0,1,0,4.68,0V50.33A2.34,2.34,0,0,0,29.72,48Z"/>
    <path class="cls-5" d="M19.57,45.66A2.34,2.34,0,0,0,21.91,48H25a2.34,2.34,0,0,0,0-4.68H21.91A2.34,2.34,0,0,0,19.57,45.66Z"/>
    <path class="cls-5" d="M34.4,48h3.12a2.34,2.34,0,0,0,0-4.68H34.4a2.34,2.34,0,0,0,0,4.68Z"/>
    <path class="cls-1" d="M67.05,57.7a12.5,12.5,0,1,0-7.54-5.77c.21,0,.42,0,.63,0A7,7,0,0,1,67.05,57.7ZM70.29,55a3.12,3.12,0,1,1,3.12-3.12A3.12,3.12,0,0,1,70.29,55Zm6.24-12.49a3.12,3.12,0,1,1-3.12,3.12A3.12,3.12,0,0,1,76.53,42.53Zm-6.24-6.24a3.12,3.12,0,1,1-3.12,3.12A3.12,3.12,0,0,1,70.29,36.29ZM64,42.53a3.12,3.12,0,1,1-3.12,3.12A3.12,3.12,0,0,1,64,42.53Z"/>
    <circle class="cls-3" cx="50" cy="45.65" r="3.12"/>
    <circle class="cls-1" cx="39.86" cy="58.92" r="3.9"/>
    <path class="cls-5" d="M64.44,64.47a7,7,0,0,0-4.3-12.57c-.21,0-.42,0-.63,0a7,7,0,0,0-3.77,12.46h0a7,7,0,0,0,8.09.5h0A7,7,0,0,0,64.44,64.47ZM60.14,55a3.9,3.9,0,1,1-3.9,3.9A3.9,3.9,0,0,1,60.14,55Z"/>
    <circle class="cls-1" cx="60.14" cy="58.92" r="3.9"/>
    <circle class="cls-6" cx="70.29" cy="39.41" r="3.12"/>
    <circle class="cls-7" cx="70.29" cy="51.89" r="3.12"/>
    <circle class="cls-2" cx="76.53" cy="45.65" r="3.12"/>
    <circle class="cls-8" cx="64.05" cy="45.65" r="3.12"/>
    <path class="cls-1" d="M256.9,25.62a1.72,1.72,0,0,0-1.72-1.72H244.83a1.72,1.72,0,0,0-1.72,1.72v1.73H256.9Z"/>
    <path class="cls-2" d="M270.6,20.57l.67-.06Z"/>
    <path class="cls-2" d="M273,20.48a15.5,15.5,0,0,1,4.54.88A15.34,15.34,0,0,0,273,20.48Z"/>
    <path class="cls-2" d="M271.9,20.47h0Z"/>
    <path class="cls-2" d="M269.25,20.79l.51-.09Z"/>
    <path class="cls-2" d="M282.56,91c-.45-.06-.9-.13-1.35-.22Q281.88,90.93,282.56,91Z"/>
    <path class="cls-2" d="M231,59.25a7.78,7.78,0,0,1,.13-1.35,13.68,13.68,0,0,1-14.58-5L211,71.11a15.49,15.49,0,0,0,9.71,19.14,15.7,15.7,0,0,1-2.49.65,15.41,15.41,0,0,0,12.12-10.76l4.35-14.3A7.74,7.74,0,0,1,231,59.25Z"/>
    <path class="cls-2" d="M284.47,91.14c.44,0,.88,0,1.31-.06-.47,0-.93.06-1.4.06Z"/>
    <path class="cls-2" d="M284.08,91.13c-.4,0-.8,0-1.2-.07C283.28,91.09,283.68,91.12,284.08,91.13Z"/>
    <path class="cls-2" d="M211,90.47a15.54,15.54,0,0,1-11-14.84,15.54,15.54,0,0,0,15.53,15.52c.45,0,.89,0,1.34-.06q-.66.06-1.34.06A15.54,15.54,0,0,1,211,90.47Z"/>
    <path class="cls-2" d="M287.25,31.46a15.42,15.42,0,0,0-7.55-9.17,15.68,15.68,0,0,0-2.13-.92,15.54,15.54,0,0,0-4.47,2.47,15.51,15.51,0,0,1-9.62,3.52h-23a15.44,15.44,0,0,0-7.7-6,15.68,15.68,0,0,0-2.13.92,15.42,15.42,0,0,0-7.55,9.17l0,.12a13.77,13.77,0,0,1,16.44,20,7.75,7.75,0,0,1,4.17,13.76h12.68a7.75,7.75,0,0,1,4.17-13.76,13.87,13.87,0,1,1,8.33,6.37A7.68,7.68,0,0,1,266,65.37a14.73,14.73,0,0,1,12.52,10.1L280,80.14a15.42,15.42,0,0,0,9.63,10.11c-.21.07-.41.16-.62.22-.45.14-.92.25-1.38.34.46-.1.92-.21,1.38-.34a15.52,15.52,0,0,0,10.33-19.36ZM250,48a3.45,3.45,0,1,1,3.45-3.45A3.45,3.45,0,0,1,250,48Z"/>
    <path class="cls-2" d="M218.19,90.91c-.39.07-.78.12-1.17.15C217.41,91,217.81,91,218.19,90.91Z"/>
    <path class="cls-2" d="M269.5,79.7l-4.22-13.86h0l4.35,14.3a15.41,15.41,0,0,0,11.53,10.64A15.8,15.8,0,0,1,276.63,89,16.06,16.06,0,0,1,269.5,79.7Z"/>
    <path class="cls-2" d="M287.23,90.88q-.54.1-1.09.16Q286.68,91,287.23,90.88Z"/>
    <path class="cls-3" d="M273.11,23.83a15.54,15.54,0,0,1,4.47-2.47h0a15.5,15.5,0,0,0-4.54-.88l-.34,0h-.8l-.64,0-.67.06-.83.13-.51.09c-.46.09-.91.21-1.36.34a15.45,15.45,0,0,0-8.37,6.22h4A15.51,15.51,0,0,0,273.11,23.83Z"/>
    <path class="cls-4" d="M289.61,90.24A15.42,15.42,0,0,1,280,80.14l-1.51-4.66A14.73,14.73,0,0,0,266,65.37a7.67,7.67,0,0,1-.68.47L269.5,79.7A16.06,16.06,0,0,0,276.63,89a15.8,15.8,0,0,0,4.53,1.77h.05c.45.1.9.17,1.35.22l.32,0c.4,0,.8.06,1.2.07h.3c.47,0,.94,0,1.4-.06l.35,0q.55-.06,1.09-.16l.39-.07c.46-.1.92-.21,1.38-.34C289.21,90.4,289.41,90.32,289.61,90.24Z"/>
    <polygon class="cls-4" points="245.14 65.28 245.13 65.28 256.35 65.29 256.34 65.28 245.14 65.28"/>
    <path class="cls-4" d="M212.18,82.92A15.41,15.41,0,0,1,211,71.11l5.55-18.24a13.76,13.76,0,0,1,6.48-21.3l0-.12a15.42,15.42,0,0,1,7.55-9.17,15.68,15.68,0,0,1,2.13-.92h0c-.22-.08-.44-.17-.66-.23a15.52,15.52,0,0,0-19.36,10.33L200.68,71.11a15.42,15.42,0,0,0,1.15,11.82,15.53,15.53,0,0,0,13.69,8.22q.67,0,1.34-.06l.15,0c.4,0,.79-.09,1.17-.15h.06a15.7,15.7,0,0,0,2.49-.65A15.39,15.39,0,0,1,212.18,82.92Z"/>
    <path class="cls-1" d="M213.8,44.59A13.75,13.75,0,0,0,231.16,57.9a7.75,7.75,0,0,1,7.63-6.41c.24,0,.47,0,.7,0a13.78,13.78,0,1,0-25.7-6.94Zm16.38,8.62a2.59,2.59,0,1,1-5.17,0V49.76a2.59,2.59,0,1,1,5.17,0ZM232.76,42h3.45a2.59,2.59,0,0,1,0,5.17h-3.45a2.59,2.59,0,0,1,0-5.17ZM225,36a2.59,2.59,0,1,1,5.17,0v3.45a2.59,2.59,0,1,1-5.17,0Zm-2.59,6a2.59,2.59,0,0,1,0,5.17H219A2.59,2.59,0,0,1,219,42Z"/>
    <path class="cls-5" d="M246.55,59.25a7.76,7.76,0,0,0-7.06-7.72c-.23,0-.46,0-.7,0a7.75,7.75,0,1,0,7.76,7.76Zm-7.76-4.31a4.31,4.31,0,1,1-4.31,4.31A4.31,4.31,0,0,1,238.8,54.94Z"/>
    <path class="cls-5" d="M227.59,42a2.59,2.59,0,0,0,2.59-2.59V36A2.59,2.59,0,1,0,225,36v3.45A2.59,2.59,0,0,0,227.59,42Z"/>
    <path class="cls-5" d="M227.59,47.17A2.59,2.59,0,0,0,225,49.76v3.45a2.59,2.59,0,1,0,5.17,0V49.76A2.59,2.59,0,0,0,227.59,47.17Z"/>
    <path class="cls-5" d="M216.38,44.59A2.59,2.59,0,0,0,219,47.18h3.45a2.59,2.59,0,0,0,0-5.17H219A2.59,2.59,0,0,0,216.38,44.59Z"/>
    <path class="cls-5" d="M232.76,47.18h3.45a2.59,2.59,0,0,0,0-5.17h-3.45a2.59,2.59,0,0,0,0,5.17Z"/>
    <path class="cls-1" d="M268.84,57.9a13.81,13.81,0,1,0-8.33-6.37c.23,0,.46,0,.7,0A7.75,7.75,0,0,1,268.84,57.9Zm3.57-3a3.45,3.45,0,1,1,3.45-3.45A3.45,3.45,0,0,1,272.41,54.93Zm6.9-13.79a3.45,3.45,0,1,1-3.45,3.45A3.45,3.45,0,0,1,279.31,41.14Zm-6.9-6.9A3.45,3.45,0,1,1,269,37.69,3.45,3.45,0,0,1,272.41,34.24Zm-6.9,6.9a3.45,3.45,0,1,1-3.45,3.45A3.45,3.45,0,0,1,265.52,41.14Z"/>
    <circle class="cls-3" cx="250" cy="44.59" r="3.45"/>
    <circle class="cls-1" cx="238.8" cy="59.25" r="4.31"/>
    <path class="cls-5" d="M266,65.37a7.76,7.76,0,0,0-4.75-13.88c-.24,0-.47,0-.7,0a7.75,7.75,0,0,0-4.17,13.76h0a7.73,7.73,0,0,0,8.94.55h0A7.67,7.67,0,0,0,266,65.37Zm-4.75-10.43a4.31,4.31,0,1,1-4.31,4.31A4.31,4.31,0,0,1,261.21,54.94Z"/>
    <circle class="cls-1" cx="261.21" cy="59.25" r="4.31"/>
    <circle class="cls-7" cx="272.41" cy="37.69" r="3.45"/>
    <circle class="cls-7" cx="272.41" cy="51.48" r="3.45"/>
    <circle class="cls-7" cx="279.31" cy="44.59" r="3.45"/>
    <circle class="cls-7" cx="265.52" cy="44.59" r="3.45"/>
    <path class="cls-1" d="M156.4,27.79a1.6,1.6,0,0,0-1.6-1.6h-9.6a1.6,1.6,0,0,0-1.6,1.6v1.6h12.8Z"/>
    <path class="cls-2" d="M120.48,88.39c-.36.06-.72.11-1.09.14C119.75,88.5,120.12,88.45,120.48,88.39Z"/>
    <path class="cls-2" d="M180.23,88.48c-.42-.05-.84-.12-1.26-.21Q179.59,88.41,180.23,88.48Z"/>
    <path class="cls-2" d="M181.64,88.59c-.37,0-.75,0-1.12-.07Q181.07,88.58,181.64,88.59Z"/>
    <path class="cls-2" d="M184.58,33.2a14.31,14.31,0,0,0-7-8.51,14.57,14.57,0,0,0-2-.85,14.42,14.42,0,0,0-4.15,2.3,14.4,14.4,0,0,1-8.93,3.27H141.16A14.33,14.33,0,0,0,134,23.84a14.59,14.59,0,0,0-2,.85,14.31,14.31,0,0,0-7,8.51l0,.11a12.78,12.78,0,0,1,15.25,18.52,7.2,7.2,0,0,1,3.87,12.77h11.77a7.19,7.19,0,0,1,3.87-12.77,12.88,12.88,0,1,1,7.73,5.91,7.13,7.13,0,0,1-2.68,6.94,13.67,13.67,0,0,1,11.62,9.38l1.4,4.33a14.31,14.31,0,0,0,8.94,9.38c-.19.07-.38.15-.57.21-.42.13-.85.23-1.28.32.43-.09.86-.19,1.28-.32a14.4,14.4,0,0,0,9.59-18ZM150,48.6a3.2,3.2,0,1,1,3.2-3.2A3.2,3.2,0,0,1,150,48.6Z"/>
    <path class="cls-2" d="M113.81,88A14.43,14.43,0,0,1,103.59,74.2,14.42,14.42,0,0,0,118,88.6c.42,0,.83,0,1.24-.05q-.61.05-1.24.05A14.42,14.42,0,0,1,113.81,88Z"/>
    <path class="cls-2" d="M169.12,23.1l.62-.06Z"/>
    <path class="cls-2" d="M170.33,23h0Z"/>
    <path class="cls-2" d="M132.4,59a7.22,7.22,0,0,1,.12-1.26A12.7,12.7,0,0,1,119,53.08L113.83,70a14.37,14.37,0,0,0,9,17.76,14.56,14.56,0,0,1-2.3.61,14.3,14.3,0,0,0,11.24-10l4-13.27A7.19,7.19,0,0,1,132.4,59Z"/>
    <path class="cls-2" d="M171.39,23a14.38,14.38,0,0,1,4.21.82A14.24,14.24,0,0,0,171.39,23Z"/>
    <path class="cls-2" d="M168.1,78l-3.92-12.86h0l4,13.27a14.3,14.3,0,0,0,10.7,9.88,14.66,14.66,0,0,1-4.21-1.64A14.91,14.91,0,0,1,168.1,78Z"/>
    <path class="cls-2" d="M167.87,23.3l.48-.08Z"/>
    <path class="cls-2" d="M184.55,88.36q-.51.09-1,.15Q184,88.45,184.55,88.36Z"/>
    <path class="cls-2" d="M182,88.6c.41,0,.82,0,1.22-.06-.43,0-.87.06-1.3.05Z"/>
    <path class="cls-3" d="M171.45,26.13a14.42,14.42,0,0,1,4.15-2.3h0a14.38,14.38,0,0,0-4.21-.82l-.32,0h-.74l-.59,0-.62.06-.77.12-.48.08c-.42.09-.84.19-1.26.32a14.34,14.34,0,0,0-7.77,5.78h3.68A14.4,14.4,0,0,0,171.45,26.13Z"/>
    <path class="cls-4" d="M186.77,87.77a14.31,14.31,0,0,1-8.94-9.38l-1.4-4.33a13.67,13.67,0,0,0-11.62-9.38,7.23,7.23,0,0,1-.63.43L168.1,78a14.91,14.91,0,0,0,6.62,8.64,14.66,14.66,0,0,0,4.21,1.64h0c.42.09.84.16,1.26.21l.29,0c.37,0,.75.06,1.12.07h.27c.44,0,.87,0,1.3-.05l.32,0q.51-.05,1-.15l.36-.07c.43-.09.86-.19,1.28-.32C186.39,87.92,186.57,87.84,186.77,87.77Z"/>
    <polygon class="cls-4" points="145.49 64.6 145.49 64.6 155.89 64.61 155.88 64.6 145.49 64.6"/>
    <path class="cls-4" d="M114.9,81a14.31,14.31,0,0,1-1.07-11L119,53.08a12.77,12.77,0,0,1,6-19.77l0-.11a14.31,14.31,0,0,1,7-8.51,14.59,14.59,0,0,1,2-.85h0c-.2-.07-.41-.15-.61-.22a14.41,14.41,0,0,0-18,9.58L104.22,70a14.31,14.31,0,0,0,1.07,11A14.42,14.42,0,0,0,118,88.6q.63,0,1.24-.05l.14,0c.37,0,.73-.08,1.09-.14h.06a14.56,14.56,0,0,0,2.3-.61A14.29,14.29,0,0,1,114.9,81Z"/>
    <path class="cls-1" d="M116.4,45.39a12.76,12.76,0,0,0,16.12,12.35,7.2,7.2,0,0,1,7.08-5.95c.22,0,.44,0,.65,0a12.79,12.79,0,1,0-23.85-6.44Zm15.2,8a2.4,2.4,0,1,1-4.8,0v-3.2a2.4,2.4,0,1,1,4.8,0ZM134,43h3.2a2.4,2.4,0,1,1,0,4.8H134a2.4,2.4,0,1,1,0-4.8Zm-7.2-5.61a2.4,2.4,0,1,1,4.8,0v3.2a2.4,2.4,0,0,1-4.8,0ZM124.4,43a2.4,2.4,0,1,1,0,4.8h-3.2a2.4,2.4,0,1,1,0-4.8Z"/>
    <path class="cls-5" d="M146.8,59a7.2,7.2,0,0,0-6.55-7.17c-.21,0-.43,0-.65,0a7.2,7.2,0,1,0,7.2,7.2Zm-7.2-4a4,4,0,1,1-4,4A4,4,0,0,1,139.6,55Z"/>
    <path class="cls-5" d="M129.2,43a2.4,2.4,0,0,0,2.4-2.4v-3.2a2.4,2.4,0,1,0-4.8,0v3.2A2.4,2.4,0,0,0,129.2,43Z"/>
    <path class="cls-5" d="M129.2,47.79a2.4,2.4,0,0,0-2.4,2.4v3.2a2.4,2.4,0,1,0,4.8,0v-3.2A2.4,2.4,0,0,0,129.2,47.79Z"/>
    <path class="cls-5" d="M118.8,45.4a2.4,2.4,0,0,0,2.4,2.4h3.2a2.4,2.4,0,1,0,0-4.8h-3.2A2.4,2.4,0,0,0,118.8,45.4Z"/>
    <path class="cls-5" d="M134,47.8h3.2a2.4,2.4,0,1,0,0-4.8H134a2.4,2.4,0,1,0,0,4.8Z"/>
    <path class="cls-1" d="M167.49,57.74a12.82,12.82,0,1,0-7.73-5.91c.21,0,.43,0,.65,0A7.2,7.2,0,0,1,167.49,57.74ZM170.8,55a3.2,3.2,0,1,1,3.2-3.2A3.2,3.2,0,0,1,170.8,55Zm6.4-12.8a3.2,3.2,0,1,1-3.2,3.2A3.2,3.2,0,0,1,177.2,42.19Zm-6.4-6.4a3.2,3.2,0,1,1-3.2,3.2A3.2,3.2,0,0,1,170.8,35.79Zm-6.4,6.4a3.2,3.2,0,1,1-3.2,3.2A3.2,3.2,0,0,1,164.4,42.19Z"/>
    <circle class="cls-3" cx="150" cy="45.4" r="3.2"/>
    <circle class="cls-1" cx="139.6" cy="59" r="4"/>
    <path class="cls-5" d="M164.81,64.69A7.2,7.2,0,0,0,160.4,51.8c-.22,0-.44,0-.65,0a7.19,7.19,0,0,0-3.87,12.77h0a7.17,7.17,0,0,0,8.29.51h0A7.23,7.23,0,0,0,164.81,64.69ZM160.4,55a4,4,0,1,1-4,4A4,4,0,0,1,160.4,55Z"/>
    <circle class="cls-1" cx="160.4" cy="59" r="4"/>
    <circle class="cls-8" cx="170.8" cy="38.99" r="3.2"/>
    <circle class="cls-8" cx="170.8" cy="51.79" r="3.2"/>
    <circle class="cls-8" cx="177.2" cy="45.39" r="3.2"/>
    <circle class="cls-8" cx="164.4" cy="45.39" r="3.2"/>
    <path class="cls-1" d="M355.89,27.79a1.6,1.6,0,0,0-1.6-1.6h-9.6a1.6,1.6,0,0,0-1.6,1.6v1.6h12.8Z"/>
    <path class="cls-2" d="M367.59,78l-3.92-12.86h0l4,13.27a14.3,14.3,0,0,0,10.7,9.88,14.66,14.66,0,0,1-4.21-1.64A14.91,14.91,0,0,1,367.59,78Z"/>
    <path class="cls-2" d="M370.88,23a14.38,14.38,0,0,1,4.21.82A14.25,14.25,0,0,0,370.88,23Z"/>
    <path class="cls-2" d="M331.89,59a7.22,7.22,0,0,1,.12-1.26,12.7,12.7,0,0,1-13.54-4.67L313.32,70a14.37,14.37,0,0,0,9,17.76,14.56,14.56,0,0,1-2.3.61,14.3,14.3,0,0,0,11.24-10l4-13.27A7.19,7.19,0,0,1,331.89,59Z"/>
    <path class="cls-2" d="M381.49,88.6c.41,0,.82,0,1.22-.06-.43,0-.87.06-1.3.05Z"/>
    <path class="cls-2" d="M384.07,33.2a14.31,14.31,0,0,0-7-8.51,14.57,14.57,0,0,0-2-.85,14.41,14.41,0,0,0-4.15,2.3A14.4,14.4,0,0,1,362,29.4H340.65a14.33,14.33,0,0,0-7.15-5.56,14.63,14.63,0,0,0-2,.85,14.31,14.31,0,0,0-7,8.51l0,.11a12.78,12.78,0,0,1,15.25,18.52,7.2,7.2,0,0,1,3.87,12.77h11.77a7.2,7.2,0,0,1,3.87-12.77A12.88,12.88,0,1,1,367,57.74a7.13,7.13,0,0,1-2.68,6.94,13.67,13.67,0,0,1,11.62,9.38l1.4,4.33a14.31,14.31,0,0,0,8.94,9.38c-.19.07-.38.15-.57.21-.42.13-.85.23-1.28.32.43-.09.86-.19,1.28-.32a14.4,14.4,0,0,0,9.59-18ZM349.49,48.6a3.2,3.2,0,1,1,3.2-3.2A3.2,3.2,0,0,1,349.49,48.6Z"/>
    <path class="cls-2" d="M381.13,88.59c-.37,0-.75,0-1.12-.07Q380.57,88.58,381.13,88.59Z"/>
    <path class="cls-2" d="M384,88.36q-.51.09-1,.15Q383.54,88.45,384,88.36Z"/>
    <path class="cls-2" d="M313.3,88A14.43,14.43,0,0,1,303.09,74.2,14.42,14.42,0,0,0,317.5,88.6c.42,0,.83,0,1.24-.05q-.61.05-1.24.05A14.42,14.42,0,0,1,313.3,88Z"/>
    <path class="cls-2" d="M320,88.39c-.36.06-.72.11-1.09.14C319.25,88.5,319.61,88.45,320,88.39Z"/>
    <path class="cls-2" d="M379.72,88.48c-.42-.05-.84-.12-1.26-.21Q379.08,88.41,379.72,88.48Z"/>
    <path class="cls-2" d="M367.36,23.3l.48-.08Z"/>
    <path class="cls-2" d="M369.82,23h0Z"/>
    <path class="cls-2" d="M368.61,23.1l.62-.06Z"/>
    <path class="cls-3" d="M370.95,26.13a14.41,14.41,0,0,1,4.15-2.3h0a14.38,14.38,0,0,0-4.21-.82l-.32,0h-.74l-.59,0-.62.06-.77.12-.48.08c-.42.09-.84.19-1.26.32a14.34,14.34,0,0,0-7.77,5.78H362A14.4,14.4,0,0,0,370.95,26.13Z"/>
    <polygon class="cls-4" points="344.98 64.6 344.98 64.6 355.38 64.61 355.38 64.6 344.98 64.6"/>
    <path class="cls-4" d="M386.26,87.77a14.31,14.31,0,0,1-8.94-9.38l-1.4-4.33a13.67,13.67,0,0,0-11.62-9.38,7.23,7.23,0,0,1-.63.43L367.59,78a14.91,14.91,0,0,0,6.62,8.64,14.66,14.66,0,0,0,4.21,1.64h0c.42.09.84.16,1.26.21l.29,0c.37,0,.75.06,1.12.07h.27c.44,0,.87,0,1.3-.05l.32,0q.51-.05,1-.15l.36-.07c.43-.09.86-.19,1.28-.32C385.88,87.92,386.07,87.84,386.26,87.77Z"/>
    <path class="cls-4" d="M314.39,81a14.31,14.31,0,0,1-1.07-11l5.15-16.93a12.77,12.77,0,0,1,6-19.77l0-.11a14.31,14.31,0,0,1,7-8.51,14.63,14.63,0,0,1,2-.85h0c-.2-.07-.41-.15-.61-.22a14.41,14.41,0,0,0-18,9.58L303.72,70a14.31,14.31,0,0,0,1.07,11A14.42,14.42,0,0,0,317.5,88.6q.63,0,1.24-.05l.14,0c.37,0,.73-.08,1.09-.14H320a14.56,14.56,0,0,0,2.3-.61A14.29,14.29,0,0,1,314.39,81Z"/>
    <path class="cls-1" d="M315.89,45.39A12.76,12.76,0,0,0,332,57.74a7.2,7.2,0,0,1,7.08-5.95c.22,0,.44,0,.65,0a12.79,12.79,0,1,0-23.85-6.44Zm15.2,8a2.4,2.4,0,1,1-4.8,0v-3.2a2.4,2.4,0,1,1,4.8,0ZM333.49,43h3.2a2.4,2.4,0,0,1,0,4.8h-3.2a2.4,2.4,0,0,1,0-4.8Zm-7.2-5.61a2.4,2.4,0,1,1,4.8,0v3.2a2.4,2.4,0,0,1-4.8,0ZM323.89,43a2.4,2.4,0,1,1,0,4.8h-3.2a2.4,2.4,0,1,1,0-4.8Z"/>
    <path class="cls-5" d="M346.29,59a7.2,7.2,0,0,0-6.55-7.17c-.21,0-.43,0-.65,0a7.2,7.2,0,1,0,7.2,7.2Zm-7.2-4a4,4,0,1,1-4,4A4,4,0,0,1,339.09,55Z"/>
    <path class="cls-5" d="M328.69,43a2.4,2.4,0,0,0,2.4-2.4v-3.2a2.4,2.4,0,1,0-4.8,0v3.2A2.4,2.4,0,0,0,328.69,43Z"/>
    <path class="cls-5" d="M328.69,47.79a2.4,2.4,0,0,0-2.4,2.4v3.2a2.4,2.4,0,1,0,4.8,0v-3.2A2.4,2.4,0,0,0,328.69,47.79Z"/>
    <path class="cls-5" d="M318.29,45.4a2.4,2.4,0,0,0,2.4,2.4h3.2a2.4,2.4,0,1,0,0-4.8h-3.2A2.4,2.4,0,0,0,318.29,45.4Z"/>
    <path class="cls-5" d="M333.49,47.8h3.2a2.4,2.4,0,0,0,0-4.8h-3.2a2.4,2.4,0,0,0,0,4.8Z"/>
    <path class="cls-1" d="M367,57.74a12.82,12.82,0,1,0-7.73-5.91c.21,0,.43,0,.65,0A7.2,7.2,0,0,1,367,57.74ZM370.3,55a3.2,3.2,0,1,1,3.2-3.2A3.2,3.2,0,0,1,370.3,55Zm6.4-12.8a3.2,3.2,0,1,1-3.2,3.2A3.2,3.2,0,0,1,376.7,42.19Zm-6.4-6.4a3.2,3.2,0,1,1-3.2,3.2A3.2,3.2,0,0,1,370.3,35.79Zm-6.4,6.4a3.2,3.2,0,1,1-3.2,3.2A3.2,3.2,0,0,1,363.9,42.19Z"/>
    <circle class="cls-3" cx="349.49" cy="45.4" r="3.2"/>
    <circle class="cls-1" cx="339.09" cy="59" r="4"/>
    <path class="cls-5" d="M364.3,64.69a7.2,7.2,0,0,0-4.41-12.89c-.22,0-.44,0-.65,0a7.2,7.2,0,0,0-3.87,12.77h0a7.17,7.17,0,0,0,8.29.51h0A7.23,7.23,0,0,0,364.3,64.69ZM359.89,55a4,4,0,1,1-4,4A4,4,0,0,1,359.89,55Z"/>
    <circle class="cls-1" cx="359.89" cy="59" r="4"/>
    <circle class="cls-6" cx="370.3" cy="38.99" r="3.2"/>
    <circle class="cls-6" cx="370.3" cy="51.79" r="3.2"/>
    <circle class="cls-6" cx="376.7" cy="45.39" r="3.2"/>
    <circle class="cls-6" cx="363.9" cy="45.39" r="3.2"/>
    <path class="cls-1" d="M755.89,27.79a1.6,1.6,0,0,0-1.6-1.6h-9.6a1.6,1.6,0,0,0-1.6,1.6v1.6h12.8Z"/>
    <path class="cls-2" d="M781.13,88.59c-.37,0-.75,0-1.12-.07Q780.57,88.58,781.13,88.59Z"/>
    <path class="cls-2" d="M779.72,88.48c-.42-.05-.84-.12-1.26-.21Q779.08,88.41,779.72,88.48Z"/>
    <path class="cls-2" d="M713.3,88A14.43,14.43,0,0,1,703.09,74.2,14.42,14.42,0,0,0,717.5,88.6c.42,0,.83,0,1.24-.05q-.61.05-1.24.05A14.42,14.42,0,0,1,713.3,88Z"/>
    <path class="cls-2" d="M731.89,59a7.22,7.22,0,0,1,.12-1.26,12.7,12.7,0,0,1-13.54-4.67L713.32,70a14.37,14.37,0,0,0,9,17.76,14.55,14.55,0,0,1-2.3.61,14.3,14.3,0,0,0,11.24-10l4-13.27A7.19,7.19,0,0,1,731.89,59Z"/>
    <path class="cls-2" d="M784,88.36q-.51.09-1,.15Q783.54,88.45,784,88.36Z"/>
    <path class="cls-2" d="M781.49,88.6c.41,0,.82,0,1.22-.06-.43,0-.87.06-1.3.05Z"/>
    <path class="cls-2" d="M768.61,23.1l.62-.06Z"/>
    <path class="cls-2" d="M720,88.39c-.36.06-.72.11-1.09.14C719.25,88.5,719.61,88.45,720,88.39Z"/>
    <path class="cls-2" d="M769.82,23h0Z"/>
    <path class="cls-2" d="M770.88,23a14.38,14.38,0,0,1,4.21.82A14.25,14.25,0,0,0,770.88,23Z"/>
    <path class="cls-2" d="M795.27,70l-11.2-36.8a14.31,14.31,0,0,0-7-8.51,14.57,14.57,0,0,0-2-.85,14.41,14.41,0,0,0-4.15,2.3A14.4,14.4,0,0,1,762,29.4H740.65a14.33,14.33,0,0,0-7.15-5.56,14.59,14.59,0,0,0-2,.85,14.31,14.31,0,0,0-7,8.51l0,.11a12.78,12.78,0,0,1,15.25,18.52,7.2,7.2,0,0,1,3.87,12.77h11.77a7.2,7.2,0,0,1,3.87-12.77A12.88,12.88,0,1,1,767,57.74a7.13,7.13,0,0,1-2.68,6.94,13.67,13.67,0,0,1,11.62,9.38l1.4,4.33a14.31,14.31,0,0,0,8.94,9.38c-.19.07-.38.15-.57.21-.42.13-.85.23-1.28.32.43-.09.86-.19,1.28-.32a14.4,14.4,0,0,0,9.59-18ZM749.49,48.6a3.2,3.2,0,1,1,3.2-3.2A3.2,3.2,0,0,1,749.49,48.6Z"/>
    <path class="cls-2" d="M767.36,23.3l.48-.08Z"/>
    <path class="cls-2" d="M767.59,78l-3.92-12.86h0l4,13.27a14.3,14.3,0,0,0,10.7,9.88,14.66,14.66,0,0,1-4.21-1.64A14.91,14.91,0,0,1,767.59,78Z"/>
    <path class="cls-3" d="M770.95,26.13a14.41,14.41,0,0,1,4.15-2.3h0a14.38,14.38,0,0,0-4.21-.82l-.32,0h-.74l-.59,0-.62.06-.77.12-.48.08c-.42.09-.84.19-1.26.32a14.34,14.34,0,0,0-7.77,5.78H762A14.4,14.4,0,0,0,770.95,26.13Z"/>
    <polygon class="cls-4" points="744.98 64.6 744.98 64.6 755.38 64.61 755.38 64.6 744.98 64.6"/>
    <path class="cls-4" d="M786.26,87.77a14.31,14.31,0,0,1-8.94-9.38l-1.4-4.33a13.67,13.67,0,0,0-11.62-9.38,7.23,7.23,0,0,1-.63.43L767.59,78a14.91,14.91,0,0,0,6.62,8.64,14.66,14.66,0,0,0,4.21,1.64h0c.42.09.84.16,1.26.21l.29,0c.37,0,.75.06,1.12.07h.27c.44,0,.87,0,1.3-.05l.32,0q.51-.05,1-.15l.36-.07c.43-.09.86-.19,1.28-.32C785.88,87.92,786.07,87.84,786.26,87.77Z"/>
    <path class="cls-4" d="M714.39,81a14.31,14.31,0,0,1-1.07-11l5.15-16.93a12.77,12.77,0,0,1,6-19.77l0-.11a14.31,14.31,0,0,1,7-8.51,14.59,14.59,0,0,1,2-.85h0c-.2-.07-.41-.15-.61-.22a14.41,14.41,0,0,0-18,9.58L703.72,70a14.31,14.31,0,0,0,1.07,11A14.42,14.42,0,0,0,717.5,88.6q.63,0,1.24-.05l.14,0c.37,0,.73-.08,1.09-.14H720a14.55,14.55,0,0,0,2.3-.61A14.29,14.29,0,0,1,714.39,81Z"/>
    <path class="cls-1" d="M715.89,45.39A12.76,12.76,0,0,0,732,57.74a7.2,7.2,0,0,1,7.08-5.95c.22,0,.44,0,.65,0a12.79,12.79,0,1,0-23.85-6.44Zm15.2,8a2.4,2.4,0,0,1-4.8,0v-3.2a2.4,2.4,0,0,1,4.8,0ZM733.49,43h3.2a2.4,2.4,0,0,1,0,4.8h-3.2a2.4,2.4,0,0,1,0-4.8Zm-7.2-5.61a2.4,2.4,0,1,1,4.8,0v3.2a2.4,2.4,0,0,1-4.8,0ZM723.89,43a2.4,2.4,0,0,1,0,4.8h-3.2a2.4,2.4,0,1,1,0-4.8Z"/>
    <path class="cls-5" d="M746.29,59a7.2,7.2,0,0,0-6.55-7.17c-.21,0-.43,0-.65,0a7.2,7.2,0,1,0,7.2,7.2Zm-7.2-4a4,4,0,1,1-4,4A4,4,0,0,1,739.09,55Z"/>
    <path class="cls-5" d="M728.69,43a2.4,2.4,0,0,0,2.4-2.4v-3.2a2.4,2.4,0,1,0-4.8,0v3.2A2.4,2.4,0,0,0,728.69,43Z"/>
    <path class="cls-5" d="M728.69,47.79a2.4,2.4,0,0,0-2.4,2.4v3.2a2.4,2.4,0,0,0,4.8,0v-3.2A2.4,2.4,0,0,0,728.69,47.79Z"/>
    <path class="cls-5" d="M718.29,45.4a2.4,2.4,0,0,0,2.4,2.4h3.2a2.4,2.4,0,0,0,0-4.8h-3.2A2.4,2.4,0,0,0,718.29,45.4Z"/>
    <path class="cls-5" d="M733.49,47.8h3.2a2.4,2.4,0,0,0,0-4.8h-3.2a2.4,2.4,0,0,0,0,4.8Z"/>
    <path class="cls-1" d="M767,57.74a12.82,12.82,0,1,0-7.73-5.91c.21,0,.43,0,.65,0A7.2,7.2,0,0,1,767,57.74ZM770.3,55a3.2,3.2,0,1,1,3.2-3.2A3.2,3.2,0,0,1,770.3,55Zm6.4-12.8a3.2,3.2,0,1,1-3.2,3.2A3.2,3.2,0,0,1,776.7,42.19Zm-6.4-6.4a3.2,3.2,0,1,1-3.2,3.2A3.2,3.2,0,0,1,770.3,35.79Zm-6.4,6.4a3.2,3.2,0,1,1-3.2,3.2A3.2,3.2,0,0,1,763.9,42.19Z"/>
    <circle class="cls-3" cx="749.49" cy="45.4" r="3.2"/>
    <circle class="cls-1" cx="739.09" cy="59" r="4"/>
    <path class="cls-5" d="M764.3,64.69a7.2,7.2,0,0,0-4.41-12.89c-.22,0-.44,0-.65,0a7.2,7.2,0,0,0-3.87,12.77h0a7.17,7.17,0,0,0,8.29.51h0A7.23,7.23,0,0,0,764.3,64.69ZM759.89,55a4,4,0,1,1-4,4A4,4,0,0,1,759.89,55Z"/>
    <circle class="cls-1" cx="759.89" cy="59" r="4"/>
    <circle class="cls-6" cx="770.3" cy="38.99" r="3.2"/>
    <circle class="cls-7" cx="770.3" cy="51.79" r="3.2"/>
    <circle class="cls-2" cx="776.7" cy="45.39" r="3.2"/>
    <circle class="cls-8" cx="763.9" cy="45.39" r="3.2"/>
    <path class="cls-1" d="M455.18,30.92a1.42,1.42,0,0,0-1.42-1.42h-8.53a1.42,1.42,0,0,0-1.42,1.42v1.42h11.37Z"/>
    <path class="cls-2" d="M465.57,75.5l-3.48-11.42h0l3.59,11.79a12.7,12.7,0,0,0,9.5,8.77,13,13,0,0,1-3.74-1.46A13.24,13.24,0,0,1,465.57,75.5Z"/>
    <path class="cls-2" d="M467.55,26.68h0Z"/>
    <path class="cls-2" d="M433.86,58.64a6.41,6.41,0,0,1,.1-1.11,11.28,11.28,0,0,1-12-4.14l-4.58,15a12.77,12.77,0,0,0,8,15.78,13,13,0,0,1-2.05.54,12.7,12.7,0,0,0,10-8.87l3.59-11.79A6.38,6.38,0,0,1,433.86,58.64Z"/>
    <path class="cls-2" d="M468.49,26.68a12.77,12.77,0,0,1,3.74.73A12.64,12.64,0,0,0,468.49,26.68Z"/>
    <path class="cls-2" d="M480.2,35.73A12.71,12.71,0,0,0,474,28.17a13,13,0,0,0-1.75-.76,12.81,12.81,0,0,0-3.68,2,12.79,12.79,0,0,1-7.93,2.9h-19a12.73,12.73,0,0,0-6.35-4.94,13,13,0,0,0-1.75.76,12.71,12.71,0,0,0-6.22,7.56l0,.1a11.35,11.35,0,0,1,13.55,16.45,6.39,6.39,0,0,1,3.44,11.34h10.45a6.39,6.39,0,0,1,3.43-11.34A11.44,11.44,0,1,1,465,57.53a6.33,6.33,0,0,1-2.38,6.16A12.14,12.14,0,0,1,473,72l1.25,3.84a12.71,12.71,0,0,0,7.94,8.33l-.51.18c-.37.11-.75.2-1.14.28.38-.08.76-.17,1.14-.28a12.79,12.79,0,0,0,8.51-16ZM449.49,49.4a2.84,2.84,0,1,1,2.84-2.84A2.84,2.84,0,0,1,449.49,49.4Z"/>
    <path class="cls-2" d="M423.27,84.74c-.32.06-.64.1-1,.13C422.63,84.84,423,84.8,423.27,84.74Z"/>
    <path class="cls-2" d="M477.91,84.93c.36,0,.72,0,1.08-.05-.39,0-.77.05-1.16,0Z"/>
    <path class="cls-2" d="M466.47,26.76l.55-.05Z"/>
    <path class="cls-2" d="M476.34,84.83c-.37,0-.75-.1-1.12-.19Q475.77,84.76,476.34,84.83Z"/>
    <path class="cls-2" d="M480.18,84.72q-.45.08-.9.13Q479.73,84.8,480.18,84.72Z"/>
    <path class="cls-2" d="M477.59,84.92c-.33,0-.66,0-1-.06Q477.09,84.91,477.59,84.92Z"/>
    <path class="cls-2" d="M465.36,26.93l.42-.07Z"/>
    <path class="cls-2" d="M417.35,84.38a12.81,12.81,0,0,1-9.07-12.24,12.81,12.81,0,0,0,12.8,12.79c.37,0,.74,0,1.1,0-.36,0-.73,0-1.1,0A12.81,12.81,0,0,1,417.35,84.38Z"/>
    <path class="cls-3" d="M468.55,29.45a12.81,12.81,0,0,1,3.68-2h0a12.77,12.77,0,0,0-3.74-.73h-.94l-.53,0-.55.05-.69.1-.42.07c-.38.08-.75.17-1.12.28a12.74,12.74,0,0,0-6.9,5.13h3.27A12.79,12.79,0,0,0,468.55,29.45Z"/>
    <path class="cls-4" d="M482.15,84.19a12.71,12.71,0,0,1-7.94-8.33L473,72a12.14,12.14,0,0,0-10.32-8.33,6.42,6.42,0,0,1-.56.39l3.48,11.42a13.24,13.24,0,0,0,5.88,7.67,13,13,0,0,0,3.74,1.46h0c.37.08.74.14,1.12.19l.26,0c.33,0,.66.05,1,.06h.24c.39,0,.77,0,1.16,0l.28,0q.45,0,.9-.13l.32-.06c.38-.08.76-.17,1.14-.28Z"/>
    <polygon class="cls-4" points="445.48 63.62 445.48 63.62 454.72 63.62 454.72 63.62 445.48 63.62"/>
    <path class="cls-4" d="M418.32,78.16a12.71,12.71,0,0,1-1-9.74l4.58-15a11.34,11.34,0,0,1,5.34-17.55l0-.1a12.71,12.71,0,0,1,6.22-7.56,13,13,0,0,1,1.75-.76h0l-.55-.19a12.79,12.79,0,0,0-16,8.51l-9.95,32.69a12.71,12.71,0,0,0,1,9.74,12.8,12.8,0,0,0,11.29,6.77c.37,0,.74,0,1.1,0l.13,0c.33,0,.65-.07,1-.13h0a13,13,0,0,0,2.05-.54A12.69,12.69,0,0,1,418.32,78.16Z"/>
    <path class="cls-1" d="M419.65,46.56a11.33,11.33,0,0,0,14.31,11,6.39,6.39,0,0,1,6.29-5.28l.58,0a11.36,11.36,0,1,0-21.18-5.72Zm13.5,7.11a2.13,2.13,0,1,1-4.26,0V50.82a2.13,2.13,0,0,1,4.26,0Zm2.13-9.23h2.84a2.13,2.13,0,1,1,0,4.26h-2.84a2.13,2.13,0,1,1,0-4.26Zm-6.4-5a2.13,2.13,0,1,1,4.26,0v2.84a2.13,2.13,0,0,1-4.26,0Zm-2.13,5a2.13,2.13,0,1,1,0,4.26h-2.84a2.13,2.13,0,1,1,0-4.26Z"/>
    <path class="cls-5" d="M446.65,58.64a6.39,6.39,0,0,0-5.82-6.37l-.58,0a6.39,6.39,0,1,0,6.4,6.4Zm-6.4-3.55a3.55,3.55,0,1,1-3.55,3.55A3.55,3.55,0,0,1,440.26,55.09Z"/>
    <path class="cls-5" d="M431,44.43a2.13,2.13,0,0,0,2.13-2.13V39.45a2.13,2.13,0,1,0-4.26,0v2.84A2.13,2.13,0,0,0,431,44.43Z"/>
    <path class="cls-5" d="M431,48.69a2.13,2.13,0,0,0-2.13,2.13v2.84a2.13,2.13,0,1,0,4.26,0V50.82A2.13,2.13,0,0,0,431,48.69Z"/>
    <path class="cls-5" d="M421.78,46.56a2.13,2.13,0,0,0,2.13,2.13h2.84a2.13,2.13,0,1,0,0-4.26h-2.84A2.13,2.13,0,0,0,421.78,46.56Z"/>
    <path class="cls-5" d="M435.28,48.69h2.84a2.13,2.13,0,1,0,0-4.26h-2.84a2.13,2.13,0,1,0,0,4.26Z"/>
    <path class="cls-1" d="M465,57.53a11.39,11.39,0,1,0-6.87-5.25l.58,0A6.39,6.39,0,0,1,465,57.53ZM468,55.08a2.84,2.84,0,1,1,2.84-2.84A2.84,2.84,0,0,1,468,55.08Zm5.68-11.37a2.84,2.84,0,1,1-2.84,2.84A2.84,2.84,0,0,1,473.65,43.71ZM468,38a2.84,2.84,0,1,1-2.84,2.84A2.84,2.84,0,0,1,468,38Zm-5.68,5.68a2.84,2.84,0,1,1-2.84,2.84A2.84,2.84,0,0,1,462.28,43.71Z"/>
    <circle class="cls-3" cx="449.49" cy="46.56" r="2.84"/>
    <circle class="cls-1" cx="440.26" cy="58.64" r="3.55"/>
    <path class="cls-5" d="M462.65,63.69a6.39,6.39,0,0,0-3.91-11.44l-.58,0a6.39,6.39,0,0,0-3.43,11.34h0a6.37,6.37,0,0,0,7.37.46h0A6.42,6.42,0,0,0,462.65,63.69Zm-3.91-8.6a3.55,3.55,0,1,1-3.55,3.55A3.55,3.55,0,0,1,458.73,55.09Z"/>
    <circle class="cls-1" cx="458.73" cy="58.64" r="3.55"/>
    <circle class="cls-2" cx="467.97" cy="40.87" r="2.84"/>
    <circle class="cls-2" cx="467.97" cy="52.24" r="2.84"/>
    <circle class="cls-2" cx="473.65" cy="46.56" r="2.84"/>
    <circle class="cls-2" cx="462.28" cy="46.56" r="2.84"/>
    <path class="cls-1" d="M655.38,30a1.47,1.47,0,0,0-1.47-1.47h-8.83A1.47,1.47,0,0,0,643.61,30v1.47h11.77Z"/>
    <path class="cls-2" d="M681.29,35a13.16,13.16,0,0,0-6.44-7.83A13.41,13.41,0,0,0,673,26.4a13.26,13.26,0,0,0-3.81,2.11,13.24,13.24,0,0,1-8.21,3H641.36a13.18,13.18,0,0,0-6.58-5.11,13.43,13.43,0,0,0-1.82.79A13.16,13.16,0,0,0,626.53,35l0,.1a11.75,11.75,0,0,1,14,17,6.62,6.62,0,0,1,3.56,11.74H654.9a6.62,6.62,0,0,1,3.56-11.74,11.84,11.84,0,1,1,7.11,5.44A6.55,6.55,0,0,1,663.11,64a12.57,12.57,0,0,1,10.68,8.62l1.29,4a13.16,13.16,0,0,0,8.22,8.63l-.53.19c-.39.12-.78.21-1.18.29.39-.08.79-.18,1.18-.29a13.25,13.25,0,0,0,8.81-16.53Zm-31.8,14.16a2.94,2.94,0,1,1,2.94-2.94A2.94,2.94,0,0,1,649.49,49.18Z"/>
    <path class="cls-2" d="M622.34,85.77c-.33.06-.67.1-1,.13C621.68,85.87,622,85.82,622.34,85.77Z"/>
    <path class="cls-2" d="M677.29,85.86c-.39,0-.77-.11-1.16-.19Q676.7,85.79,677.29,85.86Z"/>
    <path class="cls-2" d="M616.21,85.39a13.27,13.27,0,0,1-9.39-12.67A13.26,13.26,0,0,0,620.07,86c.38,0,.76,0,1.14,0-.38,0-.76,0-1.14,0A13.26,13.26,0,0,1,616.21,85.39Z"/>
    <path class="cls-2" d="M665.93,25.91l.44-.08Z"/>
    <path class="cls-2" d="M668.19,25.65h0Z"/>
    <path class="cls-2" d="M669.16,25.65a13.22,13.22,0,0,1,3.88.75A13.09,13.09,0,0,0,669.16,25.65Z"/>
    <path class="cls-2" d="M678.59,86c-.34,0-.69,0-1-.06Q678.07,85.94,678.59,86Z"/>
    <path class="cls-2" d="M681.27,85.74q-.47.08-.93.13Q680.8,85.83,681.27,85.74Z"/>
    <path class="cls-2" d="M666.14,76.2l-3.6-11.83h0l3.72,12.2a13.15,13.15,0,0,0,9.84,9.08,13.48,13.48,0,0,1-3.87-1.51A13.71,13.71,0,0,1,666.14,76.2Z"/>
    <path class="cls-2" d="M667.08,25.73l.57-.05Z"/>
    <path class="cls-2" d="M678.92,86c.38,0,.75,0,1.12-.05-.4,0-.8.05-1.2,0Z"/>
    <path class="cls-2" d="M633.31,58.74a6.64,6.64,0,0,1,.11-1.15A11.68,11.68,0,0,1,621,53.3l-4.74,15.57a13.22,13.22,0,0,0,8.29,16.34,13.41,13.41,0,0,1-2.12.56,13.15,13.15,0,0,0,10.34-9.18l3.72-12.21A6.61,6.61,0,0,1,633.31,58.74Z"/>
    <path class="cls-3" d="M669.22,28.52A13.26,13.26,0,0,1,673,26.4h0a13.22,13.22,0,0,0-3.88-.75h-1l-.54,0-.57.05-.71.11-.44.08c-.39.08-.78.18-1.16.29a13.19,13.19,0,0,0-7.14,5.31H661A13.24,13.24,0,0,0,669.22,28.52Z"/>
    <path class="cls-4" d="M683.3,85.2a13.16,13.16,0,0,1-8.22-8.63l-1.29-4A12.57,12.57,0,0,0,663.11,64a6.65,6.65,0,0,1-.58.4l3.6,11.83a13.71,13.71,0,0,0,6.08,7.94,13.48,13.48,0,0,0,3.87,1.51h0c.38.08.77.14,1.16.19l.27,0c.34,0,.69.05,1,.06h.25c.4,0,.8,0,1.2,0l.29,0q.47-.05.93-.13l.33-.06c.39-.08.79-.18,1.18-.29Z"/>
    <polygon class="cls-4" points="645.34 63.89 645.34 63.89 654.91 63.9 654.9 63.9 645.34 63.89"/>
    <path class="cls-4" d="M617.22,79a13.16,13.16,0,0,1-1-10.09L621,53.3a11.74,11.74,0,0,1,5.53-18.18l0-.1A13.16,13.16,0,0,1,633,27.19a13.43,13.43,0,0,1,1.82-.79h0l-.56-.2A13.25,13.25,0,0,0,617.7,35L607.4,68.86a13.16,13.16,0,0,0,1,10.09,13.26,13.26,0,0,0,11.69,7c.38,0,.76,0,1.14,0l.13,0c.34,0,.67-.07,1-.13h0a13.41,13.41,0,0,0,2.12-.56A13.14,13.14,0,0,1,617.22,79Z"/>
    <path class="cls-1" d="M618.59,46.23a11.73,11.73,0,0,0,14.82,11.36,6.62,6.62,0,0,1,6.51-5.47c.2,0,.4,0,.6,0a11.76,11.76,0,1,0-21.93-5.92Zm14,7.36a2.21,2.21,0,1,1-4.41,0V50.64a2.21,2.21,0,0,1,4.41,0ZM634.78,44h2.94a2.21,2.21,0,1,1,0,4.41h-2.94a2.21,2.21,0,1,1,0-4.41Zm-6.62-5.16a2.21,2.21,0,1,1,4.41,0v2.94a2.21,2.21,0,0,1-4.41,0ZM626,44a2.21,2.21,0,1,1,0,4.41H623A2.21,2.21,0,1,1,623,44Z"/>
    <path class="cls-5" d="M646.55,58.74a6.62,6.62,0,0,0-6-6.59c-.2,0-.4,0-.6,0a6.62,6.62,0,1,0,6.62,6.62Zm-6.62-3.68a3.68,3.68,0,1,1-3.68,3.68A3.68,3.68,0,0,1,639.93,55.06Z"/>
    <path class="cls-5" d="M630.37,44a2.21,2.21,0,0,0,2.21-2.21V38.87a2.21,2.21,0,1,0-4.41,0v2.94A2.21,2.21,0,0,0,630.37,44Z"/>
    <path class="cls-5" d="M630.37,48.44a2.21,2.21,0,0,0-2.21,2.21v2.94a2.21,2.21,0,1,0,4.41,0V50.64A2.21,2.21,0,0,0,630.37,48.44Z"/>
    <path class="cls-5" d="M620.8,46.24A2.21,2.21,0,0,0,623,48.44H626A2.21,2.21,0,1,0,626,44H623A2.21,2.21,0,0,0,620.8,46.24Z"/>
    <path class="cls-5" d="M634.78,48.44h2.94a2.21,2.21,0,1,0,0-4.41h-2.94a2.21,2.21,0,1,0,0,4.41Z"/>
    <path class="cls-1" d="M665.57,57.59a11.79,11.79,0,1,0-7.11-5.44c.2,0,.4,0,.6,0A6.62,6.62,0,0,1,665.57,57.59Zm3-2.53a2.94,2.94,0,1,1,2.94-2.94A2.94,2.94,0,0,1,668.62,55.06Zm5.89-11.77a2.94,2.94,0,1,1-2.94,2.94A2.94,2.94,0,0,1,674.51,43.29Zm-5.89-5.89a2.94,2.94,0,1,1-2.94,2.94A2.94,2.94,0,0,1,668.62,37.4Zm-5.89,5.89a2.94,2.94,0,1,1-2.94,2.94A2.94,2.94,0,0,1,662.74,43.29Z"/>
    <circle class="cls-3" cx="649.49" cy="46.23" r="2.94"/>
    <circle class="cls-1" cx="639.93" cy="58.74" r="3.68"/>
    <path class="cls-5" d="M663.11,64a6.62,6.62,0,0,0-4.05-11.85c-.2,0-.4,0-.6,0A6.62,6.62,0,0,0,654.9,63.9h0a6.59,6.59,0,0,0,7.63.47h0A6.65,6.65,0,0,0,663.11,64Zm-4.05-8.91a3.68,3.68,0,1,1-3.68,3.68A3.68,3.68,0,0,1,659.06,55.06Z"/>
    <circle class="cls-1" cx="659.06" cy="58.74" r="3.68"/>
    <circle class="cls-6" cx="668.62" cy="40.34" r="2.94"/>
    <circle class="cls-6" cx="668.62" cy="52.12" r="2.94"/>
    <circle class="cls-6" cx="674.51" cy="46.23" r="2.94"/>
    <circle class="cls-6" cx="662.74" cy="46.23" r="2.94"/>
    <path class="cls-1" d="M554.78,32.67a1.32,1.32,0,0,0-1.32-1.32h-7.93a1.32,1.32,0,0,0-1.32,1.32V34h10.57Z"/>
    <path class="cls-2" d="M578,82.68q-.42.08-.84.12Q577.6,82.76,578,82.68Z"/>
    <path class="cls-2" d="M575.91,82.88c.34,0,.67,0,1,0-.36,0-.72,0-1.08,0Z"/>
    <path class="cls-2" d="M566.28,28.73h0Z"/>
    <path class="cls-2" d="M564.25,29l.39-.07Z"/>
    <path class="cls-2" d="M575.61,82.87c-.31,0-.62,0-.92-.06Q575.15,82.86,575.61,82.87Z"/>
    <path class="cls-2" d="M574.45,82.78c-.35,0-.69-.1-1-.17Q573.92,82.72,574.45,82.78Z"/>
    <path class="cls-2" d="M578,37.14a11.81,11.81,0,0,0-5.78-7,12,12,0,0,0-1.63-.71,11.9,11.9,0,0,0-3.42,1.9,11.89,11.89,0,0,1-7.37,2.7H542.19a11.83,11.83,0,0,0-5.9-4.59,12.05,12.05,0,0,0-1.63.7,11.81,11.81,0,0,0-5.78,7l0,.09a10.55,10.55,0,0,1,12.59,15.29,5.94,5.94,0,0,1,3.19,10.54h9.71a5.94,5.94,0,0,1,3.19-10.54,10.63,10.63,0,1,1,6.39,4.88,5.88,5.88,0,0,1-2.21,5.73,11.29,11.29,0,0,1,9.59,7.74l1.16,3.57a11.82,11.82,0,0,0,7.38,7.74,11.87,11.87,0,0,0,7.44-14.67ZM549.49,49.85a2.64,2.64,0,1,1,2.64-2.64A2.64,2.64,0,0,1,549.49,49.85Z"/>
    <path class="cls-2" d="M567.15,28.73a11.88,11.88,0,0,1,3.48.68A11.76,11.76,0,0,0,567.15,28.73Z"/>
    <path class="cls-2" d="M535,58.44a6,6,0,0,1,.1-1,10.49,10.49,0,0,1-11.18-3.85l-4.25,14a11.87,11.87,0,0,0,7.44,14.67,12,12,0,0,1-1.9.5,11.81,11.81,0,0,0,9.28-8.25l3.34-11A5.93,5.93,0,0,1,535,58.44Z"/>
    <path class="cls-2" d="M578.32,82.63c.35-.07.71-.16,1.06-.26l.41-.15-.41.15C579,82.47,578.67,82.56,578.32,82.63Z"/>
    <path class="cls-2" d="M525.12,82.71c-.3.05-.6.09-.9.12C524.52,82.79,524.82,82.76,525.12,82.71Z"/>
    <path class="cls-2" d="M564.44,74.11,561.2,63.49h0l3.34,11a11.81,11.81,0,0,0,8.83,8.15,12.11,12.11,0,0,1-3.47-1.36A12.31,12.31,0,0,1,564.44,74.11Z"/>
    <path class="cls-2" d="M565.28,28.8l.51,0Z"/>
    <path class="cls-2" d="M519.61,82.36A11.91,11.91,0,0,1,511.18,71a11.91,11.91,0,0,0,11.9,11.89c.34,0,.69,0,1,0q-.51,0-1,0A11.91,11.91,0,0,1,519.61,82.36Z"/>
    <path class="cls-3" d="M567.21,31.3a11.9,11.9,0,0,1,3.42-1.9h0a11.88,11.88,0,0,0-3.48-.68h-.87l-.49,0-.51,0-.64.1-.39.07c-.35.07-.7.16-1,.26A11.84,11.84,0,0,0,556.79,34h3A11.89,11.89,0,0,0,567.21,31.3Z"/>
    <polygon class="cls-4" points="545.76 63.06 545.76 63.07 554.36 63.07 554.35 63.07 545.76 63.06"/>
    <path class="cls-4" d="M572.47,74.45l-1.16-3.57a11.29,11.29,0,0,0-9.59-7.74,5.94,5.94,0,0,1-.52.36l3.23,10.62a12.31,12.31,0,0,0,5.46,7.13,12.11,12.11,0,0,0,3.47,1.36h0c.34.07.69.13,1,.17l.24,0c.31,0,.62,0,.92.06h.23c.36,0,.72,0,1.08,0l.26,0q.42,0,.84-.12l.3-.06c.35-.07.71-.16,1.06-.26l.41-.15.06,0h0A11.82,11.82,0,0,1,572.47,74.45Z"/>
    <path class="cls-4" d="M520.51,76.59a11.81,11.81,0,0,1-.89-9.06l4.25-14a10.54,10.54,0,0,1,5-16.32l0-.09a11.81,11.81,0,0,1,5.78-7,12.05,12.05,0,0,1,1.63-.7h0l-.51-.18a11.89,11.89,0,0,0-14.84,7.91L511.7,67.53a11.82,11.82,0,0,0,.88,9.06,11.9,11.9,0,0,0,10.49,6.3q.52,0,1,0h.12c.3,0,.6-.07.9-.12h0a12,12,0,0,0,1.9-.5A11.79,11.79,0,0,1,520.51,76.59Z"/>
    <path class="cls-1" d="M521.75,47.21a10.54,10.54,0,0,0,13.31,10.2,5.94,5.94,0,0,1,5.85-4.91l.54,0a10.56,10.56,0,1,0-19.69-5.32Zm12.55,6.61a2,2,0,1,1-4,0V51.17a2,2,0,1,1,4,0Zm2-8.58h2.64a2,2,0,1,1,0,4h-2.64a2,2,0,1,1,0-4Zm-5.95-4.63a2,2,0,0,1,4,0v2.64a2,2,0,1,1-4,0Zm-2,4.63a2,2,0,0,1,0,4h-2.64a2,2,0,0,1,0-4Z"/>
    <path class="cls-5" d="M546.85,58.44a5.94,5.94,0,0,0-5.41-5.92l-.54,0a5.94,5.94,0,1,0,5.95,5.95Zm-5.95-3.3a3.3,3.3,0,1,1-3.3,3.3A3.3,3.3,0,0,1,540.91,55.14Z"/>
    <path class="cls-5" d="M532.32,45.23a2,2,0,0,0,2-2V40.6a2,2,0,0,0-4,0v2.64A2,2,0,0,0,532.32,45.23Z"/>
    <path class="cls-5" d="M532.32,49.19a2,2,0,0,0-2,2v2.64a2,2,0,1,0,4,0V51.17A2,2,0,0,0,532.32,49.19Z"/>
    <path class="cls-5" d="M523.73,47.21a2,2,0,0,0,2,2h2.64a2,2,0,0,0,0-4h-2.64A2,2,0,0,0,523.73,47.21Z"/>
    <path class="cls-5" d="M536.28,49.19h2.64a2,2,0,1,0,0-4h-2.64a2,2,0,1,0,0,4Z"/>
    <path class="cls-1" d="M563.93,57.4a10.58,10.58,0,1,0-6.39-4.88l.54,0A5.94,5.94,0,0,1,563.93,57.4Zm2.74-2.27a2.64,2.64,0,1,1,2.64-2.64A2.64,2.64,0,0,1,566.67,55.13ZM572,44.56a2.64,2.64,0,1,1-2.64,2.64A2.64,2.64,0,0,1,572,44.56Zm-5.28-5.28A2.64,2.64,0,1,1,564,41.92,2.64,2.64,0,0,1,566.67,39.28Zm-5.28,5.28a2.64,2.64,0,1,1-2.64,2.64A2.64,2.64,0,0,1,561.38,44.56Z"/>
    <circle class="cls-3" cx="549.49" cy="47.21" r="2.64"/>
    <circle class="cls-1" cx="540.91" cy="58.44" r="3.3"/>
    <path class="cls-5" d="M561.72,63.14a5.94,5.94,0,0,0-3.64-10.64l-.54,0a5.94,5.94,0,0,0-3.19,10.54h0a5.92,5.92,0,0,0,6.85.42h0A5.94,5.94,0,0,0,561.72,63.14Zm-3.64-8a3.3,3.3,0,1,1-3.3,3.3A3.3,3.3,0,0,1,558.08,55.14Z"/>
    <circle class="cls-1" cx="558.08" cy="58.44" r="3.3"/>
    <circle class="cls-8" cx="566.67" cy="41.92" r="2.64"/>
    <circle class="cls-8" cx="566.67" cy="52.49" r="2.64"/>
    <circle class="cls-8" cx="571.95" cy="47.21" r="2.64"/>
    <circle class="cls-8" cx="561.38" cy="47.21" r="2.64"/>
  </g>
</svg>
