<?xml version="1.0" encoding="utf-8"?>
<!-- Generator: Adobe Illustrator 22.0.1, SVG Export Plug-In . SVG Version: 6.00 Build 0)  -->
<svg version="1.1" id="Capa_1" xmlns="http://www.w3.org/2000/svg" xmlns:xlink="http://www.w3.org/1999/xlink" x="0px" y="0px"
	 viewBox="0 0 481.6 489.1" style="enable-background:new 0 0 481.6 489.1;" xml:space="preserve">
<style type="text/css">
	.st0{fill:#FFFFFF;}
	.st1{fill:#FFFFFF;stroke:#FFFFFF;stroke-miterlimit:10;}
	.st2{fill:#FFFFFF;stroke:#FFFFFF;stroke-width:2;stroke-miterlimit:10;}
</style>
<g>
	<path class="st0" d="M418.8,278.5c4.6-5,7.5-11.8,7.5-19.3c0-15.7-12.5-28.2-27.6-28.2c-11.5,0-38,17.2-48.6,32.7
		c-11-15.5-37.4-32.2-48.4-32.2c-15.1,0-27.6,12.5-27.6,28.2c0,7.2,2.7,13.8,7,18.8h-53.4v67.2h14.6V476h76.6h62.6h76.6V345.7h14.5
		v-67.2H418.8z M398.7,241.5c9.4,0,17.2,7.8,17.2,18.2c0,8.8-6.1,16.4-14.1,18h-42.3c-2.7-0.8-3.6-1.8-3.6-2.3
		C355.9,266.5,387.2,241.5,398.7,241.5L398.7,241.5z M301.7,241.5c10.9,0,42.8,25,42.8,33.9c0,0.8-1.9,1.7-3.2,2.3h-42.6
		c-8-1.6-14.1-9.1-14.1-18C284.5,249.8,292.3,241.5,301.7,241.5L301.7,241.5z M318.9,465.6h-66.2V345.7h66.2V465.6z M318.9,335.8
		h-80.7v-46.9H319L318.9,335.8L318.9,335.8z M371,465.6h-41.7V288.9H371V465.6z M447.6,465.6h-66.2V345.7h66.2L447.6,465.6
		L447.6,465.6z M462.2,335.8h-80.8v-46.9h80.8V335.8L462.2,335.8z"/>
</g>
<g>
	<g>
		<path class="st1" d="M392.7,91.7c-12.9,0-25.2,3.9-35.6,11.3c-7.2-5.1-15.5-8.6-24.4-10.3l24.2-15.9c1.5-1,2.1-2.8,1.5-4.5
			L351.1,53c-0.6-1.5-2-2.5-3.6-2.5h-51.9c-1.6,0-3,1-3.6,2.5l-7.2,19.3c-0.6,1.7,0,3.5,1.5,4.5l24.2,15.8c-29,5.2-51,30.6-51,61
			c0,34.2,27.8,62,62,62c12.9,0,25.2-3.9,35.6-11.3c10.1,7.1,22.4,11.3,35.6,11.3c34.2,0,62-27.8,62-62
			C454.7,119.5,426.8,91.7,392.7,91.7z M267.1,153.7c0-30,24.4-54.4,54.4-54.4s54.4,24.4,54.4,54.4c0,9.8-2.6,19.3-7.6,27.7
			c-2.6-2.3-4.9-5-6.8-8c3-6.1,4.6-12.9,4.6-19.7c0-24.6-20-44.6-44.6-44.6s-44.6,20-44.6,44.6s20,44.6,44.6,44.6
			c8,0,15.8-2.1,22.6-6.2c2.1,2.6,4.4,5.1,6.8,7.3c-8.8,5.7-18.9,8.7-29.4,8.7C291.5,208.1,267.1,183.7,267.1,153.7z M321.5,190.7
			c-20.4,0-37-16.6-37-37s16.6-37,37-37c6.6,0,12.8,1.8,18.2,4.8c-5.9,9.7-9,20.7-9,32.1c0,11.8,3.3,22.8,9,32.1
			C334.2,189,327.9,190.7,321.5,190.7z M357.1,143.8c0.9,3.2,1.4,6.5,1.4,9.9s-0.5,6.7-1.4,9.9c-0.9-3.2-1.3-6.5-1.3-9.9
			C355.7,150.3,356.2,147,357.1,143.8z M374.4,121.6c5.5-3.2,11.8-4.8,18.2-4.8c20.4,0,37,16.6,37,37s-16.6,37-37,37
			c-6.6,0-12.8-1.8-18.2-4.8c5.9-9.7,9-20.7,9-32.1C383.4,141.9,380.1,130.9,374.4,121.6z M340.7,69.9h-38.2l19.2-11.2L340.7,69.9z
			 M344.9,58.2l2.6,6.9l-11.8-6.9C335.7,58.2,344.9,58.2,344.9,58.2z M298.3,58.2h9.3l-11.9,6.9L298.3,58.2z M301.2,77.5H342
			l-20.4,13.4L301.2,77.5z M392.7,208.1c-30,0-54.4-24.4-54.4-54.4c0-9.8,2.6-19.3,7.6-27.7c2.6,2.3,4.9,5,6.8,8
			c-3,6.1-4.6,12.9-4.6,19.7c0,24.6,20,44.6,44.6,44.6s44.6-20,44.6-44.6s-20-44.6-44.6-44.6c-8,0-15.8,2.1-22.6,6.2
			c-2.1-2.6-4.4-5.1-6.8-7.3c8.8-5.7,18.8-8.7,29.4-8.7c30,0,54.4,24.4,54.4,54.4S422.7,208.1,392.7,208.1z"/>
		<path class="st1" d="M321.6,26.6c2.1,0,3.8-1.7,3.8-3.8V5.4c0-2.1-1.7-3.8-3.8-3.8s-3.8,1.7-3.8,3.8v17.4
			C317.8,24.9,319.5,26.6,321.6,26.6z"/>
		<path class="st1" d="M279.4,42.5c0.7,0.7,1.7,1.1,2.7,1.1s1.9-0.4,2.7-1.1c1.5-1.5,1.5-3.9,0-5.4l-12.3-12.3
			c-1.5-1.5-3.9-1.5-5.4,0s-1.5,3.9,0,5.4L279.4,42.5z"/>
		<path class="st1" d="M361.1,43.6c1,0,1.9-0.4,2.7-1.1l12.3-12.3c1.5-1.5,1.5-3.9,0-5.4s-3.9-1.5-5.4,0l-12.3,12.3
			c-1.5,1.5-1.5,3.9,0,5.4C359.2,43.2,360.1,43.6,361.1,43.6z"/>
	</g>
</g>
<g>
	<path class="st0" d="M61.4,231.5c9.1,25.1,30.2,44.1,55.6,51.6c4.5,8.7,13.5,14.6,24,14.6c10.4,0,19.5-5.9,24-14.6
		c25.4-7.5,46.5-26.5,55.6-51.6c15.1-0.2,27.3-12.5,27.3-27.7c0-15.1-12.2-27.5-27.3-27.7c-10.3-28.3-35.8-48.9-65.6-53.9
		c-0.5-0.2-1-0.3-1.6-0.4c-0.4,0-0.8,0-1.2,0c-3.7-0.5-7.4-0.8-11.2-0.8c-35.6,0-67.7,22.5-79.6,55.1C46.3,176.4,34,188.7,34,203.9
		C34,219,46.3,231.3,61.4,231.5z M124.3,247.4c0-2.9,6.6-7.4,16.7-7.4c10,0,16.7,4.4,16.7,7.4c0,0.5-0.3,1.1-0.6,1.6
		c-4.5-3.3-10-5.3-16-5.3s-11.5,2-16,5.3C124.5,248.4,124.3,247.9,124.3,247.4z M146.3,286.4c-1.7,0.6-3.5,1-5.3,1
		c-1.9,0-3.7-0.4-5.3-1c-5.4-1.8-9.6-6.3-10.9-12c-0.3-1.2-0.5-2.5-0.5-3.7c0-3,0.9-5.8,2.3-8.3c2.3-3.9,6-6.8,10.6-7.9
		c1.2-0.3,2.5-0.5,3.8-0.5s2.6,0.2,3.8,0.5c4.5,1.1,8.3,4,10.6,7.9c1.4,2.4,2.3,5.2,2.3,8.3c0,1.3-0.2,2.5-0.5,3.7
		C155.8,280,151.7,284.5,146.3,286.4z M61.7,186.6c0.7,0,1.6,0.1,2.6,0.2l4.4,0.6l1.3-4.3c6.3-20.6,21.7-37,41.2-45.4
		c-4.3,9.6,1.6,21.4,11.4,26.1c12.2,5.8,32,6.5,40.4-6c3.8-5.6,0.4-12.8-4.1-16.6c-6.4-5.4-15.6-6.2-23.2-3.2
		c-6.1,2.4-3.5,12.4,2.8,10c4.5-1.8,8.6-1.9,12.9,0.5c5.9,3.3,0.5,7-3.7,8.2c-7.7,2.2-19.1,0.4-25.1-5c-7.6-6.8,2.2-14.6,8.3-16.7
		c6.6-2.3,13.8-2.8,20.8-2.6c28.1,4,52.2,23.8,60.5,50.9l1.3,4.3l4.4-0.6c1-0.1,1.8-0.2,2.6-0.2c9.5,0,17.3,7.8,17.3,17.3
		s-7.8,17.3-17.3,17.3c-0.8,0-1.6-0.1-2.6-0.2l-4.4-0.7l-1.3,4.3c-6.6,21.6-23.3,38.6-44,46.6c0-0.2,0-0.3,0-0.5c0-5.1-1.5-9.9-4-14
		c2.5-2.7,4-5.9,4-9.3c0-9.9-11.9-17.7-27-17.7s-27,7.8-27,17.7c0,3.4,1.5,6.6,4,9.3c-2.5,4.1-4,8.9-4,14c0,0.2,0,0.3,0,0.5
		c-20.7-8-37.4-25-44-46.6l-1.3-4.3l-4.4,0.7c-1,0.1-1.8,0.2-2.6,0.2c-9.5,0-17.3-7.8-17.3-17.3C44.4,194.3,52.2,186.6,61.7,186.6z"
		/>
	<path class="st0" d="M119.1,214.1c8.9,0,8.9-13.8,0-13.8S110.2,214.1,119.1,214.1z"/>
	<path class="st0" d="M162.8,213.2c8.9,0,8.9-13.8,0-13.8S153.9,213.2,162.8,213.2z"/>
</g>
<g>
	<path class="st2" d="M68.4,316H42.8c-2.2,0-4,1.8-4,4v56.5H6.1c-2.2,0-4,1.8-4,4v11.7v53.4v26.5c0,2.2,1.8,4,4,4H214
		c2.2,0,4-1.8,4-4v-91.6c0-2.2-1.8-4-4-4h-32.7V320c0-2.2-1.8-4-4-4h-25.6H68.4z M46.8,324h126.6v17.2c-8.9,16.5-27.8,17-29.9,17
		c-0.1,0-0.2,0-0.2,0h-0.1c-20.9,0-29.1-18-29.4-18.7c-0.6-1.4-2-2.4-3.6-2.4l0,0c-1.5,0-3,0.9-3.6,2.3
		c-8.2,17.9-27.2,18.8-30.9,18.8c-0.2,0-0.3,0-0.3,0h-0.1c-17,0-25.6-12-28.4-16.8L46.8,324L46.8,324z M210,447.3v20.9H10v-22.5
		v-10.9c6.1,5.4,15,10.4,27.5,10.4c0.1,0,0.3,0,0.6,0c4.1,0,24.3-0.9,36.1-18.2c5.2,7.3,16,18.2,34.5,18.2
		c1.8,0.1,24.1,0.3,36.7-18.2c5.1,7.3,15.9,18.2,34.5,18.2c1.4,0,17.4,0.1,30.1-11.1V447.3L210,447.3z M210,393.8v26.8v1.5
		c-10.4,15.3-29.7,15.1-29.9,15.1H180c-22,0-30.7-19-31-19.8c-0.6-1.4-2-2.4-3.6-2.4l0,0c-1.5,0-3,0.9-3.6,2.3
		c-9.3,20.4-31.9,19.9-32.8,19.8c-0.1,0-0.1,0-0.2,0c-21.4,0-30.1-17.8-31-19.6c-0.6-1.5-2-2.5-3.7-2.5c-1.6,0-3,1-3.6,2.4
		c-9.3,20.3-31.8,19.8-32.8,19.7c-0.1,0-0.1,0-0.2,0c-14,0-22.6-7.5-27.6-14.2v-0.8v-30v-7.8h117.5c2.2,0,4-1.8,4-4s-1.8-4-4-4H46.8
		v-22.2c5.8,5.9,15,11.8,28.3,11.8c0.1,0,0.3,0,0.5,0l0,0c4.1,0,23.3-0.9,34.5-17.2c5,7,15.3,17.2,32.9,17.2c0.1,0,0.2,0,0.4,0
		c2.2,0,18.1-0.4,29.9-11.9v22.3h-12.2c-2.2,0-4,1.8-4,4s1.8,4,4,4h16.1h8.5H210V393.8L210,393.8z"/>
</g>
</svg>
