<?xml version="1.0" encoding="utf-8"?>
<!-- Generator: Adobe Illustrator 17.0.0, SVG Export Plug-In . SVG Version: 6.00 Build 0)  -->
<!DOCTYPE svg PUBLIC "-//W3C//DTD SVG 1.1//EN" "http://www.w3.org/Graphics/SVG/1.1/DTD/svg11.dtd">
<svg version="1.1" id="Layer_1" xmlns="http://www.w3.org/2000/svg" xmlns:xlink="http://www.w3.org/1999/xlink" x="0px" y="0px"
	 width="612px" height="792px" viewBox="0 0 612 792" enable-background="new 0 0 612 792" xml:space="preserve">
<path fill="#FFFFFF" d="M206.55,457c0-55.08,44.37-99.45,99.45-99.45s99.45,44.37,99.45,99.45s-44.37,99.45-99.45,99.45
	S206.55,512.08,206.55,457 M153,457c0,84.15,68.85,153,153,153s153-68.85,153-153s-68.85-153-153-153S153,372.85,153,457
	 M429.93,297.88c0,19.89,15.3,35.19,35.19,35.19c19.89,0,35.19-15.3,35.19-35.19c0-19.89-15.3-35.19-35.19-35.19
	C445.23,262.69,429.93,277.99,429.93,297.88 M185.13,700.27c-29.07-1.53-44.37-6.12-55.08-10.71
	c-13.77-6.12-24.48-12.24-33.66-22.95c-10.71-10.71-16.83-19.89-22.95-33.66c-4.59-10.71-9.18-26.01-10.71-55.08
	c-1.53-32.13-1.53-41.31-1.53-120.87s0-88.74,1.53-120.87c1.53-29.07,6.12-44.37,10.71-55.08c6.12-13.77,12.24-24.48,22.95-33.66
	c10.71-10.71,19.89-16.83,33.66-22.95c10.71-4.59,26.01-9.18,55.08-10.71c32.13-1.53,41.31-1.53,120.87-1.53
	c79.56,0,88.74,0,120.87,1.53c29.07,1.53,44.37,6.12,55.08,10.71c13.77,6.12,24.48,12.24,33.66,22.95
	c10.71,10.71,16.83,19.89,22.95,33.66c4.59,10.71,9.18,26.01,10.71,55.08c1.53,32.13,1.53,41.31,1.53,120.87
	c0,79.56,0,88.74-1.53,120.87c-1.53,29.07-6.12,44.37-10.71,55.08c-6.12,13.77-12.24,24.48-22.95,33.66
	c-10.71,9.18-19.89,16.83-33.66,22.95c-10.71,4.59-26.01,9.18-55.08,10.71c-32.13,1.53-41.31,1.53-120.87,1.53
	C226.44,701.8,217.26,701.8,185.13,700.27 M183.6,160.18c-32.13,1.53-53.55,6.12-71.91,13.77c-19.89,7.65-36.72,18.36-53.55,33.66
	c-16.83,16.83-27.54,33.66-33.66,53.55c-7.65,18.36-12.24,41.31-13.77,71.91c-1.53,32.13-1.53,41.31-1.53,122.4s0,91.8,1.53,122.4
	c1.53,32.13,6.12,53.55,13.77,71.91c7.65,19.89,18.36,36.72,33.66,53.55c16.83,16.83,33.66,27.54,53.55,33.66
	c18.36,7.65,41.31,12.24,71.91,13.77c32.13,1.53,41.31,1.53,122.4,1.53s91.8,0,122.4-1.53c32.13-1.53,53.55-6.12,71.91-13.77
	c19.89-7.65,36.72-18.36,53.55-33.66c16.83-16.83,27.54-33.66,33.66-53.55c7.65-18.36,12.24-41.31,13.77-71.91
	c1.53-32.13,1.53-41.31,1.53-122.4s0-91.8-1.53-122.4c-1.53-32.13-6.12-53.55-13.77-71.91c-7.65-19.89-18.36-36.72-33.66-53.55
	c-16.83-16.83-33.66-27.54-53.55-33.66c-18.36-7.65-41.31-12.24-71.91-13.77c-32.13-1.53-41.31-1.53-122.4-1.53
	S214.2,158.65,183.6,160.18"/>
</svg>
