<?xml version="1.0" encoding="utf-8"?>
<!-- Generator: Adobe Illustrator 21.1.0, SVG Export Plug-In . SVG Version: 6.00 Build 0)  -->
<svg version="1.1" id="Capa_1" xmlns="http://www.w3.org/2000/svg" xmlns:xlink="http://www.w3.org/1999/xlink" x="0px" y="0px"
	 viewBox="0 0 59.5 59.4" style="enable-background:new 0 0 59.5 59.4;" xml:space="preserve">
<style type="text/css">
	.st0{fill:#808789;}
	.st1{fill:#B7B7B7;}
	.st2{fill:#C82982;}
	.st3{fill:#DC92B8;}
</style>
<title>07_org_mesa</title>
<g id="Layer_8">
	<path class="st0" d="M48.5,39.2h6.1v17.3c0,0.6,0.4,1,1,1c0.5,0,1-0.4,1-0.9c0,0,0-0.1,0-0.1v-22l2.8-18.8c0-0.5-0.3-1-0.8-1.1l0,0
		c-0.5-0.1-1,0.3-1.1,0.8l-2.8,18.1h-6.5v1.9h6.4v1.9h-6.3L48.5,39.2z M11.1,37.3H4.8v-1.9h6.4v-1.9H4.7L1.9,15.4
		c-0.1-0.5-0.5-0.9-1-0.9C0.4,14.5,0,15,0,15.5v0.2l2.8,18.8v21.9c0,0.6,0.4,1,1,1c0.5,0,1-0.4,1-0.9c0,0,0-0.1,0-0.1V39.1H11
		L11.1,37.3z M38,52.6v3.9c0,0.6,0.4,1,1,1c0.5,0,1-0.4,1-0.9c0,0,0-0.1,0-0.1v-3.9H38z M19.7,52.1v4.3c0,0.6,0.4,1,1,1
		c0.5,0,1-0.4,1-0.9c0,0,0-0.1,0-0.1v-4.3H19.7z M14.5,50.2v6.3c0,0.6,0.4,1,1,1c0.6,0,1-0.4,1-1v-6.3H14.5z M43.5,50.7v5.8
		c0,0.6,0.4,1,1,1c0.5,0,1-0.4,1-0.9c0,0,0-0.1,0-0.1v-5.8H43.5z"/>
	<path class="st0" d="M2.4,15.3c0.7,0,2,0.8,2.8,6.8c1.1,8.2-0.5,11.4-0.5,11.4L1.9,15.4C2.1,15.3,2.3,15.3,2.4,15.3 M2.4,13.9
		c-0.4,0-0.9,0.1-1.2,0.4l-0.7,0.5l0.1,0.8l2.7,18.1l0.6,4.4l2-4c0.2-0.4,1.8-3.8,0.7-12.2C6.1,18.5,5.2,13.9,2.4,13.9z"/>
	<path class="st0" d="M56.8,15.3c0.1,0,0.3,0,0.4,0.1l-2.7,18.1c0,0-1.6-3.2-0.5-11.4C54.8,16.1,56,15.3,56.8,15.3 M56.8,13.9
		L56.8,13.9c-2.8,0-3.8,4.6-4.3,8c-1.1,8.4,0.5,11.9,0.7,12.2l2,4l0.7-4.4l2.7-18.1l0.1-0.9L58,14.2C57.6,14,57.2,13.9,56.8,13.9z"
		/>
	<path class="st1" d="M31.6,11.1c0.7,0-0.6,3.1-0.6,4.3c0,3.6,0.9,3.9,0.3,3.9h-2.8c-0.6,0,0.3-0.3,0.3-3.9c0-1.3-1.2-4.3-0.6-4.3
		H31.6 M31.6,9.7h-3.4c-0.5,0-0.9,0.2-1.2,0.6c-0.6,0.8-0.4,1.8,0,3.3c0.1,0.6,0.4,1.5,0.4,1.8c0.1,1-0.1,2.1-0.4,3.1
		c-0.3,0.8,0,1.7,0.8,2.1c0.2,0.1,0.5,0.1,0.7,0.1h2.8c0.5,0.1,1-0.2,1.3-0.6c0.3-0.5,0.4-1.1,0.2-1.6c-0.3-1-0.4-2.1-0.4-3.1
		c0.1-0.6,0.2-1.2,0.4-1.8c0.4-1.5,0.6-2.5,0-3.3C32.6,9.9,32.1,9.7,31.6,9.7z"/>
	<path class="st2" d="M12.7,48.2l0.4-15.1l0.1-2.8h26.2c0.6,0,1-0.4,1-1l0,0c0-0.6-0.4-1-1-1H12.1l0.2-5.7H47l0.2,5.7h-4.1
		c-0.6,0-1,0.4-1,1l0,0c0,0.6,0.4,1,1,1h2.9l0.6,18.1C30.5,60,12.7,48.2,12.7,48.2z M48.3,37.3l-0.1-1.9v-1.9l-0.1-3.2h0.3
		c0.6,0,1-0.4,1-1l0,0l-0.3-7.6c0-0.5-0.4-0.9-0.9-0.9c0,0,0,0-0.1,0H11.5c-0.5,0-0.9,0.4-1,0.9l-0.3,7.6c0,0.5,0.4,0.9,0.9,1h0.3
		l-0.1,3.2v1.9l-0.1,1.9l-0.1,1.9l-0.5,10.1c0,0,17.5,14,38.4,0.1l-0.4-10.2L48.3,37.3z"/>
	<path class="st3" d="M30.4,9.7h-0.8V9.6c-0.1-0.9-0.2-1.4-0.2-1.6l0,0c-0.5,0.1-1-0.1-1.3-0.5c-0.4-0.5-0.6-1.2-0.5-1.8V4.3
		c0-0.5-0.2-0.9-0.5-1.2C27,3,26.9,2.8,27,2.7c0.1-0.1,0.2-0.2,0.4-0.2l1,0.1c0.1,0,0.1,0,0.2,0.1h0.2L29.5,2c0.2-0.1,0.3-0.1,0.5,0
		l0.7,0.8c0.1-0.1,0.3-0.1,0.4-0.1L32,2.5l0,0c0.2,0,0.3,0.1,0.4,0.2c0.1,0.1,0,0.4-0.1,0.4c-0.3,0.3-0.5,0.7-0.5,1.2v1.4
		c0,0.6-0.2,1.2-0.5,1.8C30.9,7.8,30.5,8,30,8c0,0.2,0,0.3,0.1,0.5C30.3,8.9,30.3,9.3,30.4,9.7z M28.1,3.4c0.1,0.3,0.2,0.7,0.2,1
		v1.9c0,0.6,0.5,1.1,1.1,1.1h0.6c0.6,0,1.1-0.5,1.1-1.1v-2c0-0.3,0.1-0.7,0.2-1h-0.1c-0.4,0.1-0.7,0.2-1,0.3
		c0.2,0.2,0.4,0.5,0.6,0.8l0,0c0.1,0.2,0,0.4-0.2,0.5s-0.4,0-0.5-0.2C29.7,4,29,3.5,28.1,3.4z"/>
</g>
</svg>
