<?xml version="1.0" encoding="utf-8"?>
<!-- Generator: Adobe Illustrator 21.1.0, SVG Export Plug-In . SVG Version: 6.00 Build 0)  -->
<svg version="1.1" id="Layer_1" xmlns="http://www.w3.org/2000/svg" xmlns:xlink="http://www.w3.org/1999/xlink" x="0px" y="0px"
	 viewBox="0 0 504 504" style="enable-background:new 0 0 504 504;" xml:space="preserve">
<style type="text/css">
	.st0{fill:#B8B8B8;}
	.st1{fill:#808789;}
	.st2{fill:#009739;}
	.st3{fill:#F5B63E;}
	.st4{fill:#DD2927;}
	.st5{fill:#B1B1B2;}
	.st6{fill:#3A3B3D;}
	.st7{fill:#C72983;}
</style>
<rect x="23.5" y="45.5" class="st0" width="286.9" height="46.5"/>
<path class="st1" d="M486.2,30H15.7c-4.3,0-7.8,3.5-7.8,7.8v423.9c0,4.3,3.5,7.8,7.8,7.8h470.4c4.3,0,7.8-3.5,7.8-7.8V379
	c0-4.3-3.5-7.8-7.8-7.8s-7.8,3.5-7.8,7.8v75H23.5V107.5h454.9v240.4c0,4.3,3.5,7.8,7.8,7.8s7.8-3.5,7.8-7.8V37.8
	C494,33.5,490.5,30,486.2,30z M23.5,45.5h286.9V92H23.5V45.5z M326,92V45.5h152.5V92H326z"/>
<path class="st2" d="M402.5,60.5c-4.6,0-8.3,3.7-8.3,8.3c0,4.6,3.7,8.3,8.3,8.3s8.3-3.7,8.3-8.3C410.8,64.2,407,60.5,402.5,60.5z"/>
<path class="st3" d="M360,60.5c-4.6,0-8.3,3.7-8.3,8.3c0,4.6,3.7,8.3,8.3,8.3c4.6,0,8.3-3.7,8.3-8.3C368.3,64.2,364.7,60.5,360,60.5
	z"/>
<path class="st4" d="M444.8,60.5c-4.6,0-8.3,3.7-8.3,8.3c0,4.6,3.7,8.3,8.3,8.3s8.3-3.7,8.3-8.3C453.1,64.2,449.3,60.5,444.8,60.5z"
	/>
<path class="st5" d="M212.8,276.8c0-7.5-6.1-13.6-13.6-13.6H106c-7.5,0-13.6,6.1-13.6,13.6v59.1c0,7.5,6.1,13.6,13.6,13.6h93.2
	c7.5,0,13.6-6.1,13.6-13.6V276.8z M198.8,335.4h-92.3v-58.2h92.3V335.4z"/>
<path class="st1" d="M200.2,367.6h-97.7c-4.3,0-7.8,3.5-7.8,7.8s3.5,7.8,7.8,7.8h97.7c4.3,0,7.8-3.5,7.8-7.8
	S204.6,367.6,200.2,367.6z"/>
<path class="st1" d="M164.1,401.3h-61.5c-4.3,0-7.8,3.5-7.8,7.8s3.5,7.8,7.8,7.8h61.5c4.3,0,7.8-3.5,7.8-7.8
	S168.3,401.3,164.1,401.3z"/>
<path class="st5" d="M393.7,276.8c0-7.5-6.1-13.6-13.6-13.6h-93.2c-7.5,0-13.6,6.1-13.6,13.6v59.1c0,7.5,6.1,13.6,13.6,13.6h93.2
	c7.5,0,13.6-6.1,13.6-13.6V276.8L393.7,276.8z M379.5,335.4h-92.3v-58.2h92.3V335.4L379.5,335.4z"/>
<path class="st1" d="M381,367.6h-97.7c-4.3,0-7.8,3.5-7.8,7.8s3.5,7.8,7.8,7.8h97.7c4.3,0,7.8-3.5,7.8-7.8S385.2,367.6,381,367.6z"
	/>
<path class="st1" d="M344.8,401.3h-61.5c-4.3,0-7.8,3.5-7.8,7.8s3.5,7.8,7.8,7.8h61.5c4.3,0,7.8-3.5,7.8-7.8S349,401.3,344.8,401.3z
	"/>
<path class="st6" d="M386,217.2H266.5c-4.3,0-7.8,3.5-7.8,7.8s3.5,7.8,7.8,7.8H386c4.3,0,7.8-3.5,7.8-7.8S390.2,217.2,386,217.2z"/>
<path class="st6" d="M386,157.6H266.5c-4.3,0-7.8,3.5-7.8,7.8s3.5,7.8,7.8,7.8H386c4.3,0,7.8-3.5,7.8-7.8S390.2,157.6,386,157.6z"/>
<path class="st7" d="M196.9,161h-12.8c5.3-4.7,6.6-12.8,2.7-19c-2.7-4.3-7.4-6.9-12.6-6.9c-2.8,0-5.5,0.8-7.9,2.3
	c-3.1,2-7.5,6.4-10.8,10.7c-1,1.4-1.9,2.7-2.6,4c-0.7-1.3-1.6-2.6-2.6-4c-3.2-4.4-7.6-8.8-10.8-10.7c-2.4-1.5-5.1-2.3-7.9-2.3
	c-5.1,0-9.8,2.6-12.6,6.9c-3.9,6.2-2.6,14.3,2.7,19h-13.2c-2.3,0-4.3,1.9-4.3,4.1v74.4c0,2.3,2,4.1,4.3,4.1h88.4c2.3,0,4-1.9,4-4.1
	v-74.3C201.1,162.9,199.2,161,196.9,161z M192.8,196.4h-33.5v-27.1h33.5V196.4z M163.6,152.3c2.7-3.4,5.9-6.4,7.5-7.4
	c0.9-0.6,2-0.9,3.1-0.9c2,0,3.9,1,5,2.7c1.7,2.7,0.9,6.3-1.8,8.1c-2.7,1.7-10.8,4.4-15.9,4.4c-0.8,0-1.4-0.1-1.7-0.1
	C160.1,158,161.1,155.7,163.6,152.3z M126.8,146.8c1.1-1.7,2.9-2.7,5-2.7c1.1,0,2.2,0.3,3.1,0.9c1.6,1,4.8,3.9,7.5,7.4
	c2.7,3.4,3.7,5.7,4,6.7c-0.4,0.1-0.9,0.1-1.7,0.1c-5.1,0-13.2-2.6-15.9-4.4C125.8,153.1,125,149.5,126.8,146.8z M146.6,169.3v27.1
	h-33.9v-27.1H146.6z M112.6,209h33.9v26.3h-33.9C112.7,235.3,112.7,209,112.6,209z M159.1,235.3V209h33.5v26.3H159.1z"/>
</svg>
