<?xml version="1.0" encoding="UTF-8" standalone="no"?><!DOCTYPE svg PUBLIC "-//W3C//DTD SVG 1.1//EN" "http://www.w3.org/Graphics/SVG/1.1/DTD/svg11.dtd"><svg width="100%" height="100%" viewBox="0 0 53 53" version="1.1" xmlns="http://www.w3.org/2000/svg" xmlns:xlink="http://www.w3.org/1999/xlink" xml:space="preserve" xmlns:serif="http://www.serif.com/" style="fill-rule:evenodd;clip-rule:evenodd;stroke-miterlimit:10;"><rect id="addImageIcon-Web-new" x="0" y="0" width="52.8" height="52.8" style="fill:none;"/><clipPath id="_clip1"><rect x="0" y="0" width="52.8" height="52.8"/></clipPath><g clip-path="url(#_clip1)"><g id="Layer1"><circle cx="26.4" cy="26.4" r="26.15" style="fill:none;stroke:#d8d8d8;stroke-width:0.51px;"/></g><g><path d="M32.931,20.575l-1.885,0l-1.796,-2.694c-0.089,-0.179 -0.314,-0.269 -0.493,-0.269l-4.848,0c-0.18,0 -0.359,0.09 -0.494,0.269l-1.885,2.694l-1.751,0c-1.302,0 -2.379,1.077 -2.379,2.379l0,7.81c0,1.302 1.077,2.424 2.424,2.424l13.152,0c1.302,0 2.424,-1.122 2.424,-2.424l0,-7.81c-0.045,-1.302 -1.122,-2.379 -2.469,-2.379Zm0,11.401l-13.107,0c-0.673,0 -1.212,-0.583 -1.212,-1.257l0,-7.765c0,-0.674 0.539,-1.212 1.212,-1.212l2.065,0c0.179,0 0.359,-0.09 0.494,-0.27l1.885,-2.693l4.219,0l1.796,2.693c0.09,0.18 0.314,0.27 0.494,0.27l2.199,0c0.673,0 1.212,0.538 1.212,1.212l0,7.81c0,0.673 -0.584,1.212 -1.257,1.212Z" style="fill:#666;fill-rule:nonzero;"/><path d="M26.422,21.966c-2.334,0 -4.174,1.885 -4.174,4.175c0,2.289 1.885,4.174 4.174,4.174c2.29,0 4.175,-1.885 4.175,-4.174c0,-2.29 -1.84,-4.175 -4.175,-4.175Zm0,7.227c-1.66,0 -3.007,-1.347 -3.007,-3.007c0,-1.661 1.347,-3.008 3.007,-3.008c1.661,0 3.008,1.347 3.008,3.008c0,1.66 -1.347,3.007 -3.008,3.007Z" style="fill:#666;fill-rule:nonzero;"/><path d="M32.033,22.909c-0.448,0 -0.808,0.359 -0.808,0.808c0,0.449 0.36,0.808 0.808,0.808c0.449,0 0.808,-0.359 0.808,-0.808c0,-0.449 -0.359,-0.808 -0.808,-0.808Z" style="fill:#666;fill-rule:nonzero;"/></g></g></svg>