<svg xmlns="http://www.w3.org/2000/svg" xmlns:xlink="http://www.w3.org/1999/xlink" width="324px" height="231px" viewBox="0 0 324 231" version="1.1">
    <title>1CA139C1-9C2A-4285-8A09-53A3FBC623D5</title>
    <g id="LMJ" stroke="none" stroke-width="1" fill="none" fill-rule="evenodd">
        <g id="Desktop---Waiting-room" transform="translate(-1008.000000, -254.000000)">
            <g id="Group-3" transform="translate(1008.000000, 254.000000)">
                <g id="Group-2" transform="translate(0.000000, 0.500000)">
                    <ellipse id="Oval" fill="#F4A6D7" opacity="0.475748698" cx="145.6" cy="111.962264" rx="107.466667" ry="107.622642"/>
                    <ellipse id="Oval-Copy" fill="#F4A6D7" opacity="0.475748698" cx="258.7" cy="202.660377" rx="27.3" ry="27.3396226"/>
                    <ellipse id="Oval-Copy-2" fill="#F4A6D7" opacity="0.475748698" cx="51.1333333" cy="16.490566" rx="16.4666667" ry="16.490566"/>
                    <ellipse id="Oval-Copy-3" fill="#F4A6D7" opacity="0.48" cx="256.533333" cy="26.9056604" rx="6.06666667" ry="6.0754717"/>
                    <ellipse id="Oval-Copy-6" fill="#F4A6D7" opacity="0.48" cx="40.7333333" cy="219.584906" rx="6.06666667" ry="6.0754717"/>
                    <ellipse id="Oval-Copy-7" fill="#F4A6D7" opacity="0.48" cx="19.0666667" cy="88.5283019" rx="6.06666667" ry="6.0754717"/>
                    <ellipse id="Oval-Copy-4" fill="#F4A6D7" cx="9.53333333" cy="165.773585" rx="9.53333333" ry="9.54716981"/>
                    <ellipse id="Oval-Copy-5" fill="#F4A6D7" cx="271.7" cy="90.6981132" rx="9.1" ry="9.11320755"/>
                    <g id="Group-8" transform="translate(57.200000, 15.622642)">
                        <polygon id="Fill-1" fill="#D7008E" points="0 177.973488 129.909037 204.830189 156.866667 55.4433738 35.6204033 30.3773585"/>
                        <polygon id="Fill-2" fill="#F4A6D7" points="27.186042 190.075472 10.4 186.245806 44.7483201 38.1886792 61.5333333 42.0188581"/>
                        <polygon id="Fill-3" fill="#F4A6D7" points="59.2527087 198.754717 42.4666667 194.925051 76.8149868 46.8679245 93.6 50.6981034"/>
                        <polygon id="Fill-4" fill="#F4A6D7" points="93.0527087 205.698113 76.2666667 201.867947 110.614987 53.8113208 127.4 57.6409733"/>
                        <polygon id="Fill-5" fill="#F4A6D7" points="110.066667 209.679781 126.852363 213.509434 161.2 65.4543475 161.2 65.4522941 144.414818 61.6226415"/>
                        <path d="M108.614239,66.7457606 L114.053047,21.6017195 C114.811939,15.3000248 110.671328,9.570247 104.420765,8.27383487 C98.1702015,6.97691751 92.0690781,10.5817112 90.2285243,16.6595903 L77.0467838,60.19701 L69.3333333,57.8901441 L82.5155821,14.3522193 C85.569956,4.26688062 95.6942728,-1.71500543 106.066132,0.436755779 C116.439007,2.58851699 123.310205,12.0963813 122.051654,22.5535669 L116.611321,67.6981132 L108.614239,66.7457606 Z" id="Fill-6" fill="#FFFFFF"/>
                    </g>
                </g>
                <circle id="Oval-Copy-8" fill="#F4A6D7" opacity="0.48" cx="318" cy="144.5" r="6"/>
            </g>
        </g>
    </g>
</svg>