<?xml version="1.0" encoding="utf-8"?>
<!-- Generator: Adobe Illustrator 18.0.0, SVG Export Plug-In . SVG Version: 6.00 Build 0)  -->
<!DOCTYPE svg PUBLIC "-//W3C//DTD SVG 1.1//EN" "http://www.w3.org/Graphics/SVG/1.1/DTD/svg11.dtd">
<svg version="1.1" id="Layer_1" xmlns="http://www.w3.org/2000/svg" xmlns:xlink="http://www.w3.org/1999/xlink" x="0px" y="0px"
	 viewBox="0 0 360 338.4" enable-background="new 0 0 360 338.4" xml:space="preserve">
<path fill="#666666" d="M353.8,254.2c-48.9-8.1-71-58.3-71.9-60.4c-0.1-0.1-0.1-0.2-0.2-0.4c-2.6-5.3-3.2-9.7-1.7-13.2c2.8-6.7,13.2-10,20.1-12.1
	c1.9-0.6,3.7-1.2,5.2-1.8c12.2-4.8,18.3-10.7,18.2-17.6c-0.1-5.4-4.3-10.2-11-12.6l0,0c-2.2-0.9-4.9-1.4-7.5-1.4
	c-1.8,0-4.4,0.2-6.9,1.4c-5.8,2.7-11,4.2-15.5,4.4c-3-0.1-4.9-0.9-6-1.5c0.1-2.5,0.3-5,0.5-7.7l0.1-1c1.5-24.5,3.5-54.9-4.5-72.8
	C248.8,4.1,198.4,0,183.5,0h0c-0.3,0-0.6,0-0.9,0c0,0-5.8,0.1-6.2,0.1c-14.9,0-65.2,4.1-88.9,57.4c-8,17.9-6.1,48.3-4.5,72.8
	c0.2,2.9,0.4,5.9,0.5,8.8c-1.2,0.7-3.5,1.5-7,1.5c-4.7,0-10.3-1.5-16.6-4.4c-1.7-0.8-3.6-1.2-5.7-1.2c-7.3,0-16.1,4.8-17.5,12
	c-1,5.2,1.3,12.8,18,19.3c1.5,0.6,3.3,1.2,5.2,1.8c6.9,2.2,17.3,5.5,20.1,12.1c1.5,3.4,0.9,7.9-1.7,13.2c-0.1,0.1-0.1,0.2-0.2,0.4
	c-0.9,2.1-23,52.4-71.9,60.4c-3.8,0.6-6.5,4-6.2,7.8c0.1,1.1,0.3,2.3,0.8,3.4c3.7,8.6,19.2,14.9,47.4,19.3c0.9,1.3,1.9,5.8,2.5,8.5
	c0.6,2.7,1.2,5.5,2.1,8.4c0.8,2.9,3.1,6.4,8.7,6.4c2.3,0,5-0.5,8.1-1.1c4.7-0.9,11.1-2.2,19.2-2.2c4.5,0,9.1,0.4,13.8,1.2
	c9.1,1.5,16.8,7,25.8,13.3c12.8,9.1,27.3,19.3,49.4,19.3c0.6,0,1.2,0,1.8-0.1c0.7,0,1.6,0.1,2.6,0.1c22.1,0,36.6-10.3,49.4-19.3
	c9-6.3,16.7-11.8,25.8-13.3c4.7-0.8,9.3-1.2,13.8-1.2c7.7,0,13.8,1,19.2,2c3.4,0.7,6.1,1,8.1,1l0.2,0h0.2c4.2,0,7.2-2.2,8.3-6.2
	c0.8-2.9,1.5-5.6,2.1-8.4c0.6-2.7,1.6-7.2,2.5-8.5c28.2-4.4,43.7-10.7,47.4-19.2c0.5-1.1,0.7-2.2,0.8-3.4
	C360.2,258.1,357.5,254.8,353.8,254.2z"/>
</svg>
