<?xml version="1.0" encoding="utf-8"?>
<!-- Generator: Adobe Illustrator 21.1.0, SVG Export Plug-In . SVG Version: 6.00 Build 0)  -->
<svg version="1.1" id="Capa_1" xmlns="http://www.w3.org/2000/svg" xmlns:xlink="http://www.w3.org/1999/xlink" x="0px" y="0px"
	 viewBox="0 0 500 500" style="enable-background:new 0 0 500 500;" xml:space="preserve">
<style type="text/css">
	.st0{fill:#FFFFFF;}
	.st1{fill:#00C096;}
	.st2{fill:#FF319B;}
	.st3{fill:#666666;}
	.st4{fill:#FFA371;}
</style>
<g>
	<path class="st0" d="M205.2,143.2H20.7c-6.5,0-11.8,5.3-11.8,11.8v120.3c0,6.5,5.3,11.8,11.8,11.8h43.1c2.4,0,4.4,2,4.4,4.4v20.1
		l17.1-22.8c0.8-1.1,2.1-1.8,3.5-1.8h72.7v-49.1c-2,4-4.5,7.8-7.4,11.3l0,0.1l-0.7,0.8c-0.6,0.7-1.3,1.3-1.9,1.9
		c-0.6,0.6-1.1,1.2-1.7,1.7c-0.8,0.7-1.6,1.4-2.5,2.1c-0.6,0.5-1.3,1.1-1.9,1.6c-0.8,0.6-1.7,1.3-2.6,1.9c-0.7,0.5-1.4,1-2.2,1.4
		c-0.9,0.5-1.7,1-2.6,1.5c-0.8,0.5-1.7,0.9-2.6,1.3c-0.9,0.4-1.7,0.8-2.6,1.2c-1,0.4-2,0.8-3,1.2c-0.8,0.3-1.6,0.6-2.4,0.8
		c-1.2,0.4-2.4,0.7-3.6,0.9c-0.7,0.2-1.4,0.4-2.1,0.5c-1.4,0.3-2.8,0.5-4.2,0.7c-0.6,0.1-1.2,0.2-1.7,0.3c-2,0.2-4,0.3-6.1,0.3
		c-2.1,0-4.1-0.1-6.1-0.3c-0.6-0.1-1.2-0.2-1.7-0.3c-1.4-0.2-2.8-0.4-4.2-0.7c-0.7-0.1-1.4-0.4-2.1-0.5c-1.2-0.3-2.4-0.6-3.6-0.9
		c-0.8-0.2-1.6-0.5-2.4-0.8c-1-0.4-2-0.7-3-1.2c-0.9-0.4-1.7-0.8-2.6-1.2c-0.9-0.4-1.7-0.8-2.6-1.3c-0.9-0.5-1.8-1-2.6-1.5
		c-0.7-0.5-1.5-0.9-2.2-1.4c-0.9-0.6-1.8-1.2-2.6-1.9c-0.7-0.5-1.3-1-1.9-1.6c-0.8-0.7-1.7-1.4-2.5-2.1c-0.6-0.6-1.2-1.2-1.7-1.7
		c-0.6-0.6-1.3-1.2-1.9-1.9l-0.7-0.8l0-0.1c-8-9.4-12.8-21.3-12.8-34.3c0-30,25.7-54.4,57.2-54.4c29.6,0,54,21.5,56.9,48.9
		c3.8-4.4,9.3-7.2,15.6-7.2H217V155C217,148.5,211.7,143.2,205.2,143.2z"/>
	<path class="st1" d="M88.9,287.2c-1.4,0-2.7,0.7-3.5,1.8l-17.1,22.8v-20.1c0-2.4-2-4.4-4.4-4.4H20.7c-6.5,0-11.8-5.3-11.8-11.8V155
		c0-6.5,5.3-11.8,11.8-11.8h184.5c6.5,0,11.8,5.3,11.8,11.8v47.3h8.8V155c0-11.4-9.3-20.7-20.7-20.7H20.7C9.3,134.4,0,143.6,0,155
		v120.3C0,286.7,9.3,296,20.7,296h38.7v28.9c0,1.9,1.2,3.6,3,4.2c0.5,0.2,0.9,0.2,1.4,0.2c1.4,0,2.7-0.6,3.5-1.8L91.1,296h70.5v-8.8
		H88.9z"/>
	<path class="st0" d="M109.8,165.1c-29.1,0-52.8,22.4-52.8,50c0,10.7,3.6,20.6,9.7,28.8c5.4-18.2,22.8-31,43.1-31
		c20.3,0,37.7,12.8,43.1,31c4.3-5.7,7.3-12.3,8.7-19.4V223c0-2,0.4-3.8,0.9-5.7c0-0.8,0.1-1.5,0.1-2.3
		C162.6,187.5,138.9,165.1,109.8,165.1z M109.8,211.6c-11.6,0-21-9-21-20.1s9.4-20.1,21-20.1s21,9,21,20.1S121.4,211.6,109.8,211.6z
		"/>
	<path class="st0" d="M109.8,217.3c-19.4,0-35.9,12.9-39.6,30.8c10,10.8,24.4,17,39.6,17s29.6-6.2,39.6-17
		C145.7,230.1,129.2,217.3,109.8,217.3z"/>
	<path class="st0" d="M109.8,175.9c-9.2,0-16.6,7-16.6,15.7s7.5,15.7,16.6,15.7c9.2,0,16.6-7,16.6-15.7S119,175.9,109.8,175.9z"/>
	<path class="st2" d="M109.8,171.5c-11.6,0-21,9-21,20.1s9.4,20.1,21,20.1s21-9,21-20.1S121.4,171.5,109.8,171.5z M109.8,207.2
		c-9.2,0-16.6-7-16.6-15.7s7.5-15.7,16.6-15.7c9.2,0,16.6,7,16.6,15.7S119,207.2,109.8,207.2z"/>
	<path class="st0" d="M362.7,201.7c-0.9-0.4-1.7-0.8-2.6-1.3c-0.9-0.5-1.8-1-2.6-1.5c-0.7-0.5-1.5-0.9-2.2-1.4
		c-0.9-0.6-1.8-1.2-2.6-1.9c-0.7-0.5-1.3-1-1.9-1.6c-0.8-0.7-1.7-1.4-2.5-2.1c-0.6-0.6-1.2-1.2-1.7-1.7c-0.6-0.6-1.3-1.2-1.9-1.9
		l-0.7-0.8l0-0.1c-8-9.4-12.8-21.3-12.8-34.3c0-30,25.7-54.4,57.2-54.4s57.2,24.4,57.2,54.4c0,13-4.8,24.9-12.8,34.3l0,0.1l-0.7,0.8
		c-0.6,0.7-1.3,1.3-1.9,1.9c-0.6,0.6-1.1,1.2-1.7,1.7c-0.8,0.7-1.6,1.4-2.5,2.1c-0.6,0.5-1.3,1.1-1.9,1.6c-0.8,0.6-1.7,1.3-2.6,1.9
		c-0.7,0.5-1.4,1-2.2,1.4c-0.9,0.5-1.7,1-2.6,1.5c-0.8,0.5-1.7,0.9-2.6,1.3c-0.9,0.4-1.7,0.8-2.6,1.2c-1,0.4-2,0.8-3,1.2
		c-0.8,0.3-1.6,0.6-2.4,0.8c-1.2,0.4-2.4,0.7-3.6,0.9c-0.7,0.2-1.4,0.4-2.1,0.5c-1.4,0.3-2.8,0.5-4.2,0.7c-0.6,0.1-1.2,0.2-1.7,0.3
		c-1.4,0.1-2.9,0.2-4.4,0.2c3.9,3.3,6.4,8.1,7,13.4h14.1c1.4,0,2.7,0.7,3.5,1.8l17.1,22.8v-20.1c0-2.4,2-4.4,4.4-4.4h43.1
		c6.5,0,11.8-5.3,11.8-11.8V88.7c0-6.5-5.3-11.8-11.8-11.8H294.8c-6.5,0-11.8,5.3-11.8,11.8v113.6h81.1
		C363.6,202.1,363.2,201.9,362.7,201.7z"/>
	<path class="st3" d="M479.3,68H294.8c-11.4,0-20.7,9.3-20.7,20.7v113.6h8.8V88.7c0-6.5,5.3-11.8,11.8-11.8h184.5
		c6.5,0,11.8,5.3,11.8,11.8V209c0,6.5-5.3,11.8-11.8,11.8h-43.1c-2.4,0-4.4,2-4.4,4.4v20.1l-17.1-22.8c-0.8-1.1-2.1-1.8-3.5-1.8
		h-14.1c0.1,0.7,0.2,1.4,0.2,2.2v6.7H409l23.8,31.6c0.9,1.1,2.2,1.8,3.5,1.8c0.5,0,0.9-0.1,1.4-0.2c1.8-0.6,3-2.3,3-4.2v-28.9h38.7
		c11.4,0,20.7-9.3,20.7-20.7V88.7C500,77.3,490.7,68,479.3,68z"/>
	<path class="st0" d="M388.4,150.9c20.3,0,37.7,12.8,43.1,31c6.1-8.1,9.7-18.1,9.7-28.8c0-27.6-23.7-50-52.8-50
		c-29.1,0-52.8,22.4-52.8,50c0,10.7,3.6,20.6,9.7,28.8C350.7,163.7,368.1,150.9,388.4,150.9z M388.4,109.6c11.6,0,21,9,21,20.1
		s-9.4,20.1-21,20.1c-11.6,0-21-9-21-20.1S376.8,109.6,388.4,109.6z"/>
	<path class="st4" d="M396.2,207c1.4-0.2,2.8-0.4,4.2-0.7c0.7-0.1,1.4-0.4,2.1-0.5c1.2-0.3,2.4-0.6,3.6-0.9c0.8-0.2,1.6-0.5,2.4-0.8
		c1-0.4,2-0.7,3-1.2c0.9-0.4,1.7-0.8,2.6-1.2c0.9-0.4,1.7-0.8,2.6-1.3c0.9-0.5,1.8-1,2.6-1.5c0.7-0.5,1.5-0.9,2.2-1.4
		c0.9-0.6,1.8-1.2,2.6-1.9c0.7-0.5,1.3-1,1.9-1.6c0.8-0.7,1.7-1.4,2.5-2.1c0.6-0.6,1.2-1.2,1.7-1.7c0.6-0.6,1.3-1.2,1.9-1.9l0.7-0.8
		l0-0.1c8-9.4,12.8-21.3,12.8-34.3c0-30-25.7-54.4-57.2-54.4s-57.2,24.4-57.2,54.4c0,13,4.8,24.9,12.8,34.3l0,0.1l0.7,0.8
		c0.6,0.7,1.3,1.3,1.9,1.9c0.6,0.6,1.1,1.2,1.7,1.7c0.8,0.7,1.6,1.4,2.5,2.1c0.6,0.5,1.3,1.1,1.9,1.6c0.8,0.6,1.7,1.3,2.6,1.9
		c0.7,0.5,1.4,1,2.2,1.4c0.9,0.5,1.7,1,2.6,1.5c0.8,0.5,1.7,0.9,2.6,1.3c0.5,0.2,0.9,0.4,1.4,0.7h12.5c5.2,0,9.8,2,13.5,5.1
		c1.5,0,2.9-0.1,4.4-0.2C395,207.1,395.6,207,396.2,207z M345.3,181.9c-6.1-8.1-9.7-18.1-9.7-28.8c0-27.6,23.7-50,52.8-50
		c29.1,0,52.8,22.4,52.8,50c0,10.7-3.6,20.6-9.7,28.8c-5.4-18.2-22.8-31-43.1-31C368.1,150.9,350.7,163.7,345.3,181.9z M388.4,203.1
		c-15.2,0-29.6-6.2-39.6-17c3.7-17.9,20.2-30.8,39.6-30.8c19.4,0,35.9,12.9,39.6,30.8C417.9,196.9,403.6,203.1,388.4,203.1z"/>
	<path class="st0" d="M388.4,155.3c-19.4,0-35.9,12.9-39.6,30.8c10,10.8,24.4,17,39.6,17c15.2,0,29.6-6.2,39.6-17
		C424.3,168.2,407.8,155.3,388.4,155.3z"/>
	<path class="st0" d="M388.4,145.3c9.2,0,16.6-7,16.6-15.7s-7.5-15.7-16.6-15.7c-9.2,0-16.6,7-16.6,15.7S379.2,145.3,388.4,145.3z"
		/>
	<path class="st4" d="M388.4,149.7c11.6,0,21-9,21-20.1s-9.4-20.1-21-20.1c-11.6,0-21,9-21,20.1S376.8,149.7,388.4,149.7z
		 M388.4,114c9.2,0,16.6,7,16.6,15.7s-7.5,15.7-16.6,15.7c-9.2,0-16.6-7-16.6-15.7S379.2,114,388.4,114z"/>
	<rect x="231.3" y="269.5" class="st0" width="34" height="19.8"/>
	<polygon class="st0" points="291.7,289.3 325.8,289.3 325.8,289.3 325.8,269.5 291.7,269.5 	"/>
	<path class="st0" d="M291.7,264.8h8.6c3.4-0.7,5.9-3.9,5.9-7.6c0-4.4-3.3-7.7-7.2-7.7c-1.8,0-4.8,1.5-7.8,3.5
		c-5,3.4-10.2,8.4-10.2,10.8c0,0.2,0.4,0.6,1.5,1h4.8v0L291.7,264.8L291.7,264.8z"/>
	<path class="st0" d="M269.7,264.8h5c0.6-0.3,1.3-0.6,1.3-1c0-3.8-13.4-14.3-18-14.3c-3.9,0-7.2,3.5-7.2,7.7c0,3.7,2.6,6.9,5.9,7.6
		h8.5v0L269.7,264.8L269.7,264.8z"/>
	<rect x="269.7" y="269.5" class="st0" width="17.5" height="74.5"/>
	<rect x="291.7" y="293.5" class="st0" width="27.9" height="50.5"/>
	<rect x="237.5" y="293.5" class="st0" width="27.9" height="50.5"/>
	<path class="st0" d="M376.6,211.2H182.3c-6.5,0-11.8,5.3-11.8,11.8v153.8c0,6.5,5.3,11.8,11.8,11.8h43.1c2.4,0,4.4,2,4.4,4.4v20.1
		l17.1-22.8c0.8-1.1,2.1-1.8,3.5-1.8h126.2c6.5,0,11.8-5.3,11.8-11.8V223C388.4,216.5,383.1,211.2,376.6,211.2z M330.2,293.5h-6.1
		v54.9h-32.3h-0.1h-26.3h0h-32.3v-54.9h-6.2v-28.3h22.5c-1.8-2.1-3-4.8-3-7.9c0-6.6,5.3-11.9,11.7-11.9c4.7,0,15.8,7,20.4,13.6
		c4.5-6.5,15.6-13.8,20.5-13.8c6.4,0,11.7,5.3,11.7,11.9c0,3.2-1.2,6-3.2,8.1h22.7V293.5z"/>
	<path class="st2" d="M397.1,220.8c-0.6-5.3-3.1-10.1-7-13.4c-3.6-3.1-8.3-5.1-13.5-5.1h-12.5H283h-8.8h-48.3H217h-34.8
		c-6.2,0-11.8,2.8-15.6,7.2c-2.9-27.4-27.3-48.9-56.9-48.9c-31.5,0-57.2,24.4-57.2,54.4c0,13,4.8,24.9,12.8,34.3l0,0.1l0.7,0.8
		c0.6,0.7,1.3,1.3,1.9,1.9c0.6,0.6,1.1,1.2,1.7,1.7c0.8,0.7,1.6,1.4,2.5,2.1c0.6,0.5,1.3,1.1,1.9,1.6c0.8,0.6,1.7,1.3,2.6,1.9
		c0.7,0.5,1.4,1,2.2,1.4c0.9,0.5,1.7,1,2.6,1.5c0.8,0.5,1.7,0.9,2.6,1.3c0.9,0.4,1.7,0.8,2.6,1.2c1,0.4,2,0.8,3,1.2
		c0.8,0.3,1.6,0.6,2.4,0.8c1.2,0.4,2.4,0.7,3.6,0.9c0.7,0.2,1.4,0.4,2.1,0.5c1.4,0.3,2.8,0.5,4.2,0.7c0.6,0.1,1.2,0.2,1.7,0.3
		c2,0.2,4,0.3,6.1,0.3c2.1,0,4.1-0.1,6.1-0.3c0.6-0.1,1.2-0.2,1.7-0.3c1.4-0.2,2.8-0.4,4.2-0.7c0.7-0.1,1.4-0.4,2.1-0.5
		c1.2-0.3,2.4-0.6,3.6-0.9c0.8-0.2,1.6-0.5,2.4-0.8c1-0.4,2-0.7,3-1.2c0.9-0.4,1.7-0.8,2.6-1.2c0.9-0.4,1.7-0.8,2.6-1.3
		c0.9-0.5,1.8-1,2.6-1.5c0.7-0.5,1.5-0.9,2.2-1.4c0.9-0.6,1.8-1.2,2.6-1.9c0.7-0.5,1.3-1,1.9-1.6c0.8-0.7,1.7-1.4,2.5-2.1
		c0.6-0.6,1.2-1.2,1.7-1.7c0.6-0.6,1.3-1.2,1.9-1.9l0.7-0.8l0-0.1c2.9-3.4,5.4-7.2,7.4-11.3v49.1v8.8v80.8
		c0,11.4,9.3,20.7,20.7,20.7h38.7v28.9c0,1.9,1.2,3.6,3,4.2c0.5,0.2,0.9,0.2,1.4,0.2c1.4,0,2.7-0.6,3.5-1.8l23.8-31.6h124
		c11.4,0,20.7-9.3,20.7-20.7V229.7V223C397.3,222.3,397.1,221.6,397.1,220.8z M109.8,265c-15.2,0-29.6-6.2-39.6-17
		c3.7-17.9,20.2-30.8,39.6-30.8c19.4,0,35.9,12.9,39.6,30.8C139.4,258.8,125,265,109.8,265z M162.5,217.3c-0.5,1.8-0.9,3.7-0.9,5.7
		v1.4c-1.4,7.1-4.5,13.7-8.7,19.4c-5.4-18.2-22.8-31-43.1-31c-20.3,0-37.7,12.8-43.1,31c-6.1-8.1-9.7-18.1-9.7-28.8
		c0-27.6,23.7-50,52.8-50s52.8,22.4,52.8,50C162.6,215.8,162.5,216.6,162.5,217.3z M388.4,376.8c0,6.5-5.3,11.8-11.8,11.8H250.4
		c-1.4,0-2.7,0.7-3.5,1.8l-17.1,22.8v-20.1c0-2.4-2-4.4-4.4-4.4h-43.1c-6.5,0-11.8-5.3-11.8-11.8V223c0-6.5,5.3-11.8,11.8-11.8
		h194.4c6.5,0,11.8,5.3,11.8,11.8V376.8z"/>
	<path class="st1" d="M291.7,265.1L291.7,265.1l15.6,0v4.2h-15.6V344v4.4h0.1h32.3v-54.9h6.1v-28.3h-22.7L291.7,265.1z M319.6,344
		h-27.9v-50.5h27.9V344z M325.8,289.3L325.8,289.3h-34.1v-19.8h34.1V289.3z"/>
	<rect x="269.7" y="265.1" class="st1" width="17.5" height="0"/>
	<polygon class="st1" points="237.5,344 237.5,293.5 265.4,293.5 265.4,289.3 231.3,289.3 231.3,269.5 265.4,269.5 265.4,269.3 
		249.4,269.3 249.4,265.1 265.4,265.1 265.4,265.1 249.4,265.1 226.9,265.1 226.9,293.4 233.1,293.4 233.1,348.4 265.4,348.4 
		265.4,344 	"/>
	<rect x="269.7" y="269.3" class="st1" width="17.5" height="0.2"/>
	<path class="st1" d="M291.7,269.3h15.6v-4.2h-15.6v0l15.8,0c2-2.1,3.2-5,3.2-8.1c0-6.6-5.3-11.9-11.7-11.9c-4.8,0-16,7.2-20.5,13.8
		c-4.6-6.5-15.7-13.6-20.4-13.6c-6.4,0-11.7,5.3-11.7,11.9c0,3.1,1.1,5.8,3,7.9l15.9,0v0h-15.9v4.2h15.9v0.2v19.8v4.2V344v4.4h0
		h26.3V344V269.3z M265.4,264.8L265.4,264.8l-8.5,0c-3.4-0.7-5.9-3.9-5.9-7.6c0-4.2,3.3-7.7,7.2-7.7c4.6,0,18,10.5,18,14.3
		c0,0.3-0.8,0.7-1.3,1h-5v0H265.4z M287.3,269.5V344h-17.5v-74.5v-0.2h17.5V269.5z M287.3,265.1h-17.5v0L287.3,265.1L287.3,265.1z
		 M287.3,264.8L287.3,264.8l-4.8,0c-1.1-0.3-1.5-0.7-1.5-1c0-2.3,5.1-7.3,10.2-10.8c3-2,6-3.5,7.8-3.5c4,0,7.2,3.3,7.2,7.7
		c0,3.7-2.6,6.9-5.9,7.6h-8.6v0H287.3z"/>
</g>
</svg>
