<?xml version="1.0" encoding="utf-8"?>
<!-- Generator: Adobe Illustrator 21.1.0, SVG Export Plug-In . SVG Version: 6.00 Build 0)  -->
<svg version="1.1" id="Capa_1" xmlns="http://www.w3.org/2000/svg" xmlns:xlink="http://www.w3.org/1999/xlink" x="0px" y="0px"
	 viewBox="0 0 500.4 500" style="enable-background:new 0 0 500.4 500;" xml:space="preserve">
<style type="text/css">
	.st0{fill:none;}
	.st1{fill:#FFFFFF;}
	.st2{fill:#F1F1F1;}
	.st3{fill:#666666;}
	.st4{fill:none;stroke:#666666;stroke-width:0;stroke-linecap:round;stroke-linejoin:round;}
	.st5{fill:none;stroke:#B3B3B3;stroke-width:0;stroke-linecap:round;stroke-linejoin:round;}
	.st6{fill:#B3B3B3;}
	.st7{fill:#FF009B;}
	.st8{fill:none;stroke:#FF009B;stroke-width:0;stroke-linecap:round;stroke-linejoin:round;}
	.st9{fill:#00C096;}
	.st10{fill:none;stroke:#FFFFFF;stroke-width:0;stroke-linecap:round;stroke-linejoin:round;}
	.st11{fill:#38383C;}
</style>
<title>tuto2</title>
<g>
	<rect x="218.9" y="364.2" class="st0" width="18.7" height="0"/>
	<path class="st0" d="M210.1,307.2C210.1,307.2,210.2,307.1,210.1,307.2c-3.1-4.4-10.5-9.1-13.6-9.1c0,0,0,0-0.1,0
		C199.7,298.1,207,302.8,210.1,307.2z"/>
	<path class="st0" d="M229.3,300.3c3,3.1,3.1,8,0.2,11.1l0.1,0C232.5,308.1,232.4,303.3,229.3,300.3c-0.6-0.7-1.5-1.3-2.4-1.7
		c-0.9-0.4-2-0.6-3-0.6c0,0,0,0,0,0c1,0,2.1,0.2,2.9,0.6C227.8,299,228.6,299.6,229.3,300.3z"/>
	<polygon class="st0" points="218.9,364.2 218.9,330.4 218.9,330.4 218.9,327.6 218.9,327.5 218.9,327.5 218.9,314.3 218.9,314.3 
		218.9,314.2 218.8,367.1 218.9,367.1 218.9,364.2 	"/>
	<path class="st0" d="M208.4,310.8c0,0-0.1,0.1-0.1,0.1C208.3,310.8,208.4,310.8,208.4,310.8z"/>
	<rect x="218.9" y="314.3" class="st0" width="22.8" height="0.1"/>
	<path class="st0" d="M93.9,216.3c0,0.1,0.2,0.4,1,0.6C94.2,216.7,93.9,216.4,93.9,216.3z"/>
	<path class="st0" d="M100.2,209.5c2.2-1.6,4.5-2.8,5.9-2.8C104.7,206.7,102.4,207.9,100.2,209.5z"/>
	<path class="st0" d="M108.5,216.2c1.5-0.9,2.5-2.6,2.5-4.4c0-1-0.3-2-0.9-2.8c0.5,0.8,0.8,1.8,0.8,2.8
		C110.8,213.7,109.9,215.3,108.5,216.2z"/>
	<rect x="72.8" y="219.8" class="st0" width="10.6" height="0.2"/>
	<path class="st0" d="M73.8,211.8C73.8,211.8,73.8,211.8,73.8,211.8c-0.1-2.6,2-4.9,4.8-5c1.1,0.1,2.2,0.5,3.2,1.1
		c1.4,0.8,2.7,1.7,4,2.7c2.7,2.1,4.8,4.3,4.9,5.6c0,0,0,0,0,0c0-1.2-2.3-3.6-4.9-5.7c-1.3-1-2.6-1.9-4-2.7c-1-0.6-2.1-1-3.2-1.1
		C75.9,206.7,73.7,209,73.8,211.8z"/>
	<path class="st0" d="M101.1,269.9v-33.8v-2.8v-12.7c0,5.8,0,52.3-0.1,52.1H83.5v0.2h39.3v-0.1h-21.7V269.9z"/>
	<path class="st0" d="M193.7,301.9c0.3-0.2,0.5-0.4,0.8-0.5c0.6-0.3,1.3-0.4,1.9-0.4c3.1,0,12.1,7.1,12.1,9.6c0,0,0,0.1-0.1,0.1
		c0.1-0.1,0.2-0.2,0.2-0.2c0-2.6-9-9.6-12.1-9.6c-0.7,0-1.3,0.1-1.9,0.4C194.3,301.5,194,301.7,193.7,301.9z"/>
	<path class="st0" d="M106.9,216.9c0.5-0.1,1-0.4,1.5-0.6C107.9,216.6,107.4,216.8,106.9,216.9L106.9,216.9z"/>
	<rect x="86.4" y="219.9" class="st0" width="11.7" height="0.1"/>
	<path class="st0" d="M193.7,207.6c0.3-0.2,0.5-0.4,0.8-0.5c0.6-0.3,1.3-0.4,1.9-0.4c3.1,0,12.1,7.1,12.1,9.6c0,0,0,0.1-0.1,0.1
		c0.1-0.1,0.2-0.2,0.2-0.2c0-2.6-9-9.6-12.1-9.6c-0.7,0-1.3,0.1-1.9,0.4C194.3,207.2,194,207.4,193.7,207.6z"/>
	<path class="st0" d="M208.4,216.5c0,0-0.1,0.1-0.1,0.1C208.3,216.5,208.4,216.5,208.4,216.5z"/>
	<path class="st0" d="M210.1,212.9C210.1,212.9,210.2,212.8,210.1,212.9c-3.1-4.4-10.5-9.1-13.6-9.1c0,0,0,0-0.1,0
		C199.7,203.8,207,208.5,210.1,212.9z"/>
	<rect x="190.6" y="314.1" class="st0" width="10.6" height="0.1"/>
	<rect x="190.6" y="219.9" class="st0" width="10.6" height="0.1"/>
	<path class="st0" d="M224.7,216.9c0.5-0.1,1-0.4,1.5-0.6c-0.5,0.3-1,0.5-1.6,0.6H224.7z"/>
	<rect x="204.2" y="219.9" class="st0" width="11.7" height="0.1"/>
	<polygon class="st0" points="218.9,269.9 218.9,236.1 218.9,233.3 218.9,233.3 218.9,220.1 218.9,220.1 218.9,220 218.8,272.8 
		201.3,272.8 201.3,272.9 240.6,272.9 240.6,272.8 218.9,272.8 	"/>
	<path class="st0" d="M212.5,311.1c-0.2-0.1-0.3-0.2-0.4-0.2C212.1,310.9,212.3,311,212.5,311.1z"/>
	<rect x="182.6" y="364.2" class="st0" width="18.6" height="0"/>
	<path class="st0" d="M229.3,206c3,3.1,3.1,8,0.2,11.1h0.1C232.5,213.9,232.4,209,229.3,206c-0.6-0.7-1.5-1.3-2.4-1.7
		c-0.9-0.4-2-0.6-3-0.6c0,0,0,0,0,0c1,0,2.1,0.2,2.9,0.6C227.7,204.7,228.6,205.3,229.3,206z"/>
	<path class="st0" d="M224.7,311.2c0.5-0.1,1-0.4,1.5-0.6c-0.5,0.3-1,0.5-1.6,0.6H224.7z"/>
	<path class="st0" d="M226.3,310.5c1.5-0.9,2.5-2.6,2.5-4.4c0-1-0.3-2-0.9-2.8c0.5,0.8,0.8,1.8,0.8,2.8
		C228.6,308,227.7,309.6,226.3,310.5z"/>
	<polygon class="st0" points="244.7,330.3 240.6,330.3 240.6,330.4 244.7,330.4 244.8,311.4 244.7,311.4 	"/>
	<path class="st0" d="M377.5,303.1c0.5-0.8,1.3-1.4,2.3-1.6l13.8-1.7v-0.2l-13.6,1.8C378.9,301.5,378,302.2,377.5,303.1z"/>
	<path class="st0" d="M396.7,306.1l-3.1,0.4L396.7,306.1c1.6-0.2,2.8-1.5,2.9-3C399.5,304.6,398.3,305.9,396.7,306.1z"/>
	<path class="st0" d="M35.3,391.5c-5.8-3.1-9.5-9.1-9.5-15.7v0.3c0,6.6,3.7,12.6,9.5,15.7h329.8l-0.1-0.3H35.3z"/>
	<polygon class="st0" points="370,405.6 368.3,400.7 368.3,400.7 377.4,426.6 	"/>
	<path class="st0" d="M368.3,400.7l1.7,4.9l8.7,24.6l1.2,3.5c0.2,0.4,0.2,0.8,0.3,1.2c0,0,0,0.1,0,0.1c0,0,0,0.1,0,0.1
		c0,0,0-0.1,0-0.1c0.1,0.7-0.1,1.4-0.3,2.1c0.5-1.1,0.5-2.3,0.2-3.4L365.3,392L368.3,400.7L368.3,400.7z"/>
	<polygon class="st0" points="393.6,306.5 393.6,306.5 392,306.7 	"/>
	<path class="st0" d="M347.3,298.2c-1,0.6-1.9,1.3-2.8,2.1c-3.5,3.2-5.6,7.6-5.9,12.3c-0.1,2.4,0.2,4.8,1,7.1l20.4,57.7l-20.3-57.5
		c-0.8-2.3-1.1-4.7-1-7.1c-0.1,2.4,0.2,4.8,1,7.1l25.4,71.8l0,0.1h0.1l-25.4-71.9c-2.7-7.4-0.1-15.7,6.2-20.4
		c4.4-3.3,9.8-4.2,14.8-3.1c-1-0.3-2-0.5-3.1-0.5c1.1,0.1,2.1,0.3,3.2,0.5c2.4,0.6,4.7,1.6,6.8,3.2c-0.1-0.1-0.2-0.1-0.3-0.2
		c0.1,0.1,0.2,0.2,0.3,0.2c1.3,1,2.5,2.2,3.5,3.6c0.2,0.3,0.5,0.6,0.7,0.9c-0.3-0.4-0.6-0.8-0.9-1.2
		C365.6,295.4,355.2,293.3,347.3,298.2z M344.5,300.5c0.9-0.8,1.8-1.5,2.8-2.1C346.4,299,345.4,299.7,344.5,300.5z"/>
	<path class="st0" d="M378.7,430.3h-353c-9.4,0-17-7.6-17-17v0.1c0,9.4,7.6,17,17,17h353l1.2,3.5c0.1,0.3,0.2,0.7,0.3,1
		c0-0.4-0.1-0.8-0.3-1.2L378.7,430.3z"/>
	<path class="st0" d="M477.4,357.4c-0.1-0.3-0.3-0.7-0.4-1C477.2,356.7,477.3,357,477.4,357.4z"/>
	<path class="st0" d="M457.3,345.6c-0.2,0-0.3,0.1-0.5,0.1C457,345.7,457.2,345.6,457.3,345.6z"/>
	<path class="st0" d="M226.3,216.2c1.5-0.9,2.5-2.6,2.5-4.4c0-1-0.3-2-0.9-2.8c0.5,0.8,0.8,1.8,0.8,2.8
		C228.6,213.7,227.7,215.3,226.3,216.2z"/>
	<path class="st0" d="M456,345.9c-0.5,0.1-0.9,0.2-1.3,0.4C455.1,346.1,455.6,346,456,345.9z"/>
	<polygon class="st0" points="123.9,220.1 123.9,220.1 123.9,233.3 	"/>
	<path class="st0" d="M375.3,439.6c0.8,0.1,1.6-0.1,2.4-0.4h-5.6L375.3,439.6z"/>
	<path class="st0" d="M400.3,346.6c0.2,0,0.3-0.1,0.5-0.1c-0.6,0.1-1.1,0.2-1.7,0.3c0.1,0,0.2,0,0.4-0.1
		C399.7,346.7,400,346.7,400.3,346.6z"/>
	<path class="st0" d="M106,301c-3.3,0-12.1,7-12.1,9.6C93.9,308,102.8,301,106,301z"/>
	<path class="st0" d="M93.9,310.6c0,0.1,0.2,0.4,1,0.6C94.2,310.9,93.9,310.7,93.9,310.6z"/>
	<path class="st0" d="M108.5,310.5c1.5-0.9,2.5-2.6,2.5-4.4c0-1-0.3-2-0.9-2.8c0.5,0.8,0.8,1.8,0.8,2.8
		C110.8,308,109.9,309.6,108.5,310.5z"/>
	<path class="st0" d="M106.9,311.2c0.5-0.1,1-0.4,1.5-0.6C107.9,310.9,107.4,311.1,106.9,311.2L106.9,311.2z"/>
	<path class="st0" d="M106,203.7c-3.2,0-10.7,4.8-13.7,9.2C95.3,208.6,102.8,203.7,106,203.7z"/>
	<rect x="101.1" y="364.2" class="st0" width="18.7" height="0"/>
	<polygon class="st0" points="101.1,314.4 123.9,314.4 123.9,327.5 123.9,314.3 101.1,314.3 	"/>
	<rect x="72.8" y="314.1" class="st0" width="10.7" height="0.1"/>
	<rect x="57.8" y="311.3" class="st0" width="15" height="0.1"/>
	<rect x="122.8" y="330.3" class="st0" width="4.1" height="0.1"/>
	<path class="st0" d="M106,298c-3.2,0-10.7,4.8-13.7,9.2C95.3,302.9,102.8,298,106,298z"/>
	<path class="st0" d="M72.8,311.3c-1.3-1.5-2-3.4-2-5.3C70.8,308,71.5,309.8,72.8,311.3z"/>
	<path class="st0" d="M78.6,301.1c1.1,0.1,2.2,0.5,3.2,1.1c1.4,0.8,2.7,1.7,4,2.7c2.7,2.1,4.8,4.3,4.9,5.6c0,0,0,0,0,0
		c0-1.2-2.3-3.6-4.9-5.7c-1.3-1-2.6-1.9-4-2.7C80.8,301.5,79.8,301.1,78.6,301.1c-2.7-0.1-4.9,2.2-4.8,5c0,0,0,0,0,0
		C73.8,303.5,75.9,301.2,78.6,301.1z"/>
	<rect x="64.8" y="364.2" class="st0" width="18.7" height="0"/>
	<rect x="175.6" y="311.3" class="st0" width="15" height="0.1"/>
	<path class="st0" d="M401.1,346.5c0.1,0,0.1,0,0.2,0c0.3,0,0.6-0.1,0.9-0.1c-0.5,0-0.9,0.1-1.4,0.1
		C400.8,346.5,401,346.5,401.1,346.5z"/>
	<path class="st0" d="M402.5,346.4C402.5,346.4,402.5,346.4,402.5,346.4C402.5,346.4,402.5,346.4,402.5,346.4
		C402.5,346.4,402.5,346.4,402.5,346.4z"/>
	<polygon class="st0" points="351.9,268.9 351.9,268.9 352.4,272.9 352.4,272.9 366.3,272.9 366.3,272.8 352.4,272.8 	"/>
	<rect x="366.5" y="223.5" class="st0" width="5.3" height="0.1"/>
	<path class="st0" d="M334.7,184.2c3.5-2.4,7-4,9.2-4c0,0-0.1,0-0.1,0c-2.2,0-5.8,1.6-9.3,4c-3.5,2.3-6.5,5-9,8.3
		c0,0,0.1,0.1,0.1,0.1C328.1,189.3,331.2,186.4,334.7,184.2z"/>
	<path class="st0" d="M400.3,346.6c-0.3,0-0.6,0.1-0.9,0.2c-0.2,0-0.4,0.1-0.6,0.1c-0.1,0-0.1,0-0.2,0.1c-0.3,0.1-0.5,0.2-0.8,0.2
		c-1.4,0.5-2.8,1.1-4.2,2v-0.3c-1.6,0.9-2.9,2.1-4,3.4l0.1,0.4c0.6-0.7,1.2-1.3,1.9-1.9c-0.1,0.1-0.2,0.2-0.4,0.3
		c0.1-0.1,0.2-0.2,0.4-0.3c2.7-2.4,6-3.8,9.6-4.3c0,0-0.1,0-0.1,0C400.8,346.6,400.5,346.6,400.3,346.6z"/>
	<path class="st0" d="M402.5,346.4C402.5,346.4,402.5,346.4,402.5,346.4C402.5,346.4,402.5,346.4,402.5,346.4
		C402.5,346.4,402.5,346.4,402.5,346.4z"/>
	<path class="st0" d="M297.9,195.5C297.9,195.5,297.9,195.5,297.9,195.5C297.9,195.5,297.9,195.5,297.9,195.5z"/>
	<path class="st0" d="M326.6,441.9c0.2-0.2,0.4-0.5,0.7-0.7C327,441.4,326.8,441.7,326.6,441.9z"/>
	<path class="st0" d="M347,262.2c-0.1,0-0.3,0.1-0.4,0.2C346.8,262.4,346.9,262.3,347,262.2z"/>
	<path class="st0" d="M347.6,262.1c-0.2,0-0.3,0.1-0.4,0.1c0.2-0.1,0.3-0.1,0.5-0.1c0.2,0,0.4,0,0.6,0
		C348.1,262.1,347.9,262.1,347.6,262.1z"/>
	<path class="st0" d="M383.5,446.1c0,0,0.1-0.1,0.1-0.1C383.6,446.1,383.5,446.1,383.5,446.1z"/>
	<path class="st0" d="M348.6,186.1C348.6,186.1,348.6,186.1,348.6,186.1C348.6,186.1,348.6,186.1,348.6,186.1z"/>
	<path class="st0" d="M347.6,287.7l-1.9-14.9l-0.5-4l-0.4-3c-0.1-1.3,0.5-2.6,1.6-3.3c-1.2,0.7-1.9,2-1.7,3.3l0.4,3h-7.7v0.1h7.7
		l0.5,3.9h0L347.6,287.7c0.1,1.6,1.5,2.9,3.2,2.9h0.1C349.2,290.6,347.8,289.4,347.6,287.7z"/>
	<rect x="313.7" y="202.1" class="st0" width="0.1" height="17.7"/>
	<rect x="299.5" y="201.9" class="st0" width="14.3" height="0"/>
	<path class="st0" d="M327.9,197.1c0,0-0.1-0.1-0.1-0.1c0-3.4,11.8-12.9,16.2-12.8h0.1c1.6,0,3,0.6,4.1,1.6c-1.1-1-2.6-1.6-4.3-1.7
		c-4.3,0-16.1,9.5-16.2,12.8C327.7,197,327.8,197,327.9,197.1C327.8,197.1,327.9,197.1,327.9,197.1z"/>
	<rect x="313.7" y="223.6" class="st0" width="0.1" height="45.3"/>
	<path class="st0" d="M366.1,292.1c-1.5-1.1-1.8-3.2-0.7-4.7l11.9-15.3c1.1-1.5,3.2-1.7,4.7-0.6c-1.4-1.2-3.5-0.9-4.7,0.5
		l-11.9,15.4l-0.1,0.1c-1.1,1.5-0.8,3.6,0.7,4.7c1.5,1.1,3.6,0.8,4.7-0.7C369.6,292.9,367.5,293.2,366.1,292.1z"/>
	<path class="st0" d="M352.6,290.2c0.4-0.2,0.7-0.5,1-0.8C353.3,289.7,352.9,290,352.6,290.2z"/>
	<path class="st0" d="M306.1,197.9h16.2c0.5-0.3,1.2-0.6,1.2-0.9c0,0,0,0,0-0.1c0,0.3-0.7,0.7-1.2,0.9h-8.5h-7.7
		c-3.1-0.7-5.3-3.6-5.3-6.8c0,0,0,0.1,0,0.1C300.7,194.3,303,197.2,306.1,197.9z"/>
	<path class="st0" d="M353.9,288.8c0.3-0.6,0.4-1.2,0.4-1.9l0,0l0,0C354.3,287.6,354.2,288.2,353.9,288.8z"/>
	<path class="st0" d="M298.5,196.6c-2.9-4.8-1.6-11.2,3.1-14.4c1.7-1.2,3.6-1.8,5.7-1.8c0,0-0.1,0-0.1,0c-2.1,0-4.1,0.6-5.8,1.8
		c-0.5,0.4-1,0.8-1.5,1.3c-3.2,3.2-3.9,8.1-2.1,12c0,0,0,0,0,0c0.1,0.2,0.2,0.4,0.3,0.6c0.1,0.1,0.1,0.2,0.2,0.4
		c0.3,0.5,0.7,1.1,1.1,1.6h0.1C299.2,197.6,298.8,197.1,298.5,196.6z"/>
	<path class="st0" d="M324.5,340.4l9.9-12.8c0-0.1,0.1-0.2,0.2-0.2c0.2-0.3,0.5-0.5,0.8-0.7c-0.4,0.2-0.8,0.5-1.1,0.9L324.5,340.4
		c-1.2,1.4-0.9,3.5,0.5,4.6c0.4,0.3,0.8,0.5,1.3,0.7c-0.4-0.1-0.8-0.3-1.1-0.6C323.7,344,323.4,341.9,324.5,340.4z"/>
	<path class="st0" d="M341.8,444.6c-1.5-0.2-3.1,0-4.6,0.5c-1.1,0.4-2,0.9-2.9,1.6c2-1.6,4.7-2.3,7.4-2l32.1,4
		c2.1,0.2,4.2,0,6.2-0.7c1-0.3,1.9-0.8,2.7-1.3c-2.5,1.6-5.6,2.3-8.8,1.9L341.8,444.6z"/>
	<path class="st0" d="M427.2,351.1c4.7-1.7,9.9,0.8,11.5,5.5l4.5,12.8c0.9,2.4,3.4,3.7,5.8,2.8c0.9-0.3,1.7-0.9,2.2-1.7
		c-0.5,0.7-1.2,1.2-2.1,1.5c-2.4,0.8-5-0.5-5.8-2.8l-4.5-12.8c-1.7-4.7-6.8-7.2-11.5-5.5c-2.1,0.7-3.7,2.1-4.7,3.9
		C423.7,353.1,425.2,351.8,427.2,351.1z"/>
	<path class="st0" d="M326.8,345.7c-0.1,0-0.2,0-0.2,0C326.7,345.7,326.8,345.7,326.8,345.7z"/>
	<path class="st0" d="M317.2,284.4c-0.8-0.7-1.3-1.8-1.2-2.8c-0.1,1.1,0.4,2.3,1.3,3l17.9,13.8L317.2,284.4L317.2,284.4z"/>
	<path class="st0" d="M353.5,305.4c4.7-1.7,9.8,0.8,11.5,5.5l22.6,63.8c0.9,2.4,3.4,3.7,5.8,2.8c0.9-0.3,1.7-0.9,2.2-1.7
		c-0.5,0.7-1.2,1.2-2.1,1.5c-2.4,0.8-5-0.5-5.8-2.8l-22.6-63.8c-1.7-4.7-6.8-7.2-11.5-5.5c-2.4,0.9-4.2,2.6-5.2,4.7
		C349.5,307.9,351.2,306.2,353.5,305.4z"/>
	<polygon class="st0" points="244.7,236.1 244.8,217.1 244.7,217.1 	"/>
	<path class="st0" d="M400.2,356c4.7-1.7,9.8,0.8,11.5,5.5l1.5,4.2c0.8,2.1,3.2,3.3,5.5,2.6c1-0.3,1.8-0.9,2.3-1.7
		c-0.5,0.6-1.1,1.1-1.8,1.4c-2.4,1-5-0.2-5.9-2.5l-1.5-4.2c-1.7-4.7-6.8-7.2-11.5-5.5c-2.4,0.9-4.2,2.6-5.2,4.7
		C396.2,358.5,397.9,356.8,400.2,356z"/>
	<path class="st0" d="M339.9,297.7c-1.1,1.5-3.2,1.8-4.7,0.7C336.7,299.5,338.8,299.3,339.9,297.7c0.8-1,0.9-2.4,0.3-3.5
		C340.8,295.3,340.7,296.7,339.9,297.7z"/>
	<path class="st0" d="M457.3,354.9c4.7-1.7,9.8,0.8,11.5,5.5l19.6,55.3c0.8,2.4,1.5,4.8,2,7.3c-0.5-2.5-1.1-5-2-7.5l-19.5-55.3
		c-1.7-4.7-6.8-7.2-11.5-5.5c-2.4,0.9-4.2,2.6-5.2,4.7C453.3,357.4,455,355.7,457.3,354.9z"/>
	<path class="st0" d="M298.4,196.5c-0.1-0.1-0.1-0.2-0.2-0.4C298.3,196.3,298.3,196.4,298.4,196.5z"/>
	<path class="st0" d="M333.7,447.2c0.1-0.1,0.3-0.2,0.4-0.3C333.9,447,333.8,447.1,333.7,447.2z"/>
	<rect x="178.5" y="220.1" class="st1" width="22.7" height="13.2"/>
	<rect x="101.1" y="314.4" class="st1" width="22.8" height="13.1"/>
	<rect x="218.9" y="314.4" class="st1" width="22.8" height="13.1"/>
	<rect x="64.8" y="236.1" class="st1" width="18.6" height="33.8"/>
	<rect x="101.1" y="330.4" class="st1" width="18.7" height="33.8"/>
	<rect x="182.6" y="236.1" class="st1" width="18.6" height="33.8"/>
	<rect x="204.2" y="220.1" class="st1" width="11.7" height="49.8"/>
	<path class="st1" d="M226.2,216.3C226.2,216.3,226.2,216.2,226.2,216.3c1.5-1,2.4-2.6,2.4-4.5c0-1-0.2-2-0.8-2.8
		c-0.9-1.3-2.3-2.2-4-2.3c-3.2,0-12.1,7.1-12,9.6c0,0.1,0.2,0.4,1,0.6h11.8C225.2,216.8,225.7,216.6,226.2,216.3z"/>
	<rect x="218.9" y="236.1" class="st1" width="18.7" height="33.8"/>
	<path class="st1" d="M196.4,206.7c-0.6,0-1.3,0.1-1.9,0.4c-0.3,0.1-0.6,0.3-0.8,0.5c-0.7,0.6-1.3,1.3-1.7,2.2
		c-0.3,0.6-0.4,1.3-0.4,2c0,2.5,1.6,4.6,4,5.1l12.1-0.1c0.2,0,0.4-0.1,0.6-0.2c0,0,0.1-0.1,0.1-0.1c0,0,0,0,0.1,0
		c0,0,0.1-0.1,0.1-0.1C208.5,213.8,199.5,206.7,196.4,206.7z M192,209.9c0.5-1.3,1.4-2.2,2.6-2.8C193.4,207.7,192.5,208.7,192,209.9
		z"/>
	<rect x="204.2" y="314.3" class="st1" width="11.7" height="49.9"/>
	<rect x="178.5" y="314.4" class="st1" width="22.7" height="13.2"/>
	<rect x="218.9" y="330.4" class="st1" width="18.7" height="33.8"/>
	<polygon class="st1" points="123.9,233.3 123.9,220.1 101.1,220.1 101.1,220.6 101.1,233.3 	"/>
	<rect x="86.4" y="220.1" class="st1" width="11.7" height="49.8"/>
	<rect x="101.1" y="236.1" class="st1" width="18.7" height="33.8"/>
	<rect x="182.6" y="330.4" class="st1" width="18.6" height="33.8"/>
	<rect x="218.9" y="220.1" class="st1" width="22.8" height="13.2"/>
	<rect x="60.7" y="220.1" class="st1" width="22.7" height="13.2"/>
	<path class="st1" d="M108.4,216.3C108.4,216.3,108.4,216.2,108.4,216.3c1.5-1,2.4-2.6,2.4-4.5c0-1-0.2-2-0.8-2.8
		c-0.9-1.3-2.3-2.2-4-2.3c-1.3,0-3.6,1.2-5.9,2.8c-3.2,2.3-6.2,5.3-6.2,6.8c0,0.1,0.3,0.4,1,0.6h11.9
		C107.4,216.8,107.9,216.6,108.4,216.3z"/>
	<path class="st1" d="M196.4,301c-0.6,0-1.3,0.1-1.9,0.4c-0.3,0.1-0.6,0.3-0.8,0.5c-0.7,0.6-1.3,1.3-1.7,2.2c-0.3,0.6-0.4,1.3-0.4,2
		c0,2.5,1.6,4.6,4,5.1l12.1-0.1c0.2,0,0.4-0.1,0.6-0.2c0,0,0.1-0.1,0.1-0.1c0,0,0,0,0.1,0c0,0,0.1-0.1,0.1-0.1
		C208.5,308.1,199.5,301,196.4,301z M192,304.2c0.5-1.3,1.4-2.3,2.6-2.8C193.4,302,192.5,302.9,192,304.2z"/>
	<path class="st1" d="M226.2,310.6C226.2,310.6,226.2,310.5,226.2,310.6c1.5-1,2.4-2.6,2.4-4.5c0-1-0.2-2-0.8-2.8
		c-0.9-1.3-2.3-2.2-4-2.3c-0.2,0-0.4,0-0.7,0.1c-3.6,0.8-11.4,7.1-11.3,9.5c0,0,0.1,0.1,0.2,0.3c0.1,0.1,0.3,0.1,0.4,0.2
		c0.1,0,0.2,0.1,0.4,0.1h11.8C225.2,311.1,225.7,310.9,226.2,310.6z"/>
	<path class="st1" d="M344,184.2c-4.4-0.1-16.2,9.4-16.2,12.8c0,0.1,0,0.1,0.1,0.1c0.4,0.4,0.8,0.6,1.2,0.7h16
		c3.1-0.7,5.3-3.6,5.3-6.8v-0.1c0-1.8-0.6-3.5-1.8-4.7c0,0,0,0-0.1-0.1c-0.1-0.1-0.2-0.2-0.3-0.3C347.1,184.8,345.7,184.2,344,184.2
		L344,184.2z"/>
	<path class="st1" d="M306.1,197.8h7.7h8.5c0.5-0.2,1.2-0.6,1.2-0.9c-0.2-3.4-12.1-12.7-16.2-12.7c-3.7,0.1-6.6,3.2-6.5,6.8
		C300.8,194.2,303,197.1,306.1,197.8z"/>
	<path class="st1" d="M108.4,310.6C108.4,310.6,108.4,310.5,108.4,310.6c1.5-1,2.4-2.6,2.4-4.5c0-1-0.2-2-0.8-2.8
		c-0.9-1.3-2.3-2.2-4-2.3c-3.2,0-12.1,7-12.1,9.6c0,0.1,0.3,0.3,1,0.6h11.9C107.4,311.1,107.9,310.9,108.4,310.6z"/>
	<path class="st1" d="M85.8,210.6c-1.3-1-2.6-1.9-4-2.7c-1-0.6-2.1-1-3.2-1.1c-2.8,0.1-4.9,2.4-4.8,5c0.1,1.2,0.5,2.4,1.2,3.3
		c0.7,0.9,1.7,1.6,2.8,1.8v-0.1h12c0.4-0.1,0.8-0.4,0.9-0.6C90.6,214.9,88.5,212.7,85.8,210.6z"/>
	<path class="st1" d="M85.8,304.9c-1.3-1-2.6-1.9-4-2.7c-1-0.6-2.1-1-3.2-1.1c-2.8,0.1-4.9,2.4-4.8,5c0.1,1.2,0.5,2.4,1.2,3.3
		c0.4,0.5,0.8,0.9,1.3,1.2c0.4,0.3,0.9,0.5,1.5,0.6l12-0.1c0.4-0.1,0.8-0.4,0.9-0.6C90.6,309.2,88.5,307,85.8,304.9z"/>
	<rect x="317.7" y="202.1" class="st1" width="15.7" height="66.8"/>
	<path class="st1" d="M351.9,268.8h10.5v-45.3h-25v45.3h7.7l-0.4-3c-0.2-1.3,0.6-2.6,1.7-3.3c0.1,0,0.1-0.1,0.2-0.1
		c0.1-0.1,0.2-0.1,0.4-0.2c0,0,0.1,0,0.1,0c0.1,0,0.3-0.1,0.4-0.1c0.2,0,0.5,0,0.7,0c1.6,0.1,2.9,1.3,3.1,2.9L351.9,268.8
		L351.9,268.8L351.9,268.8z"/>
	<rect x="283.2" y="202.1" class="st1" width="30.5" height="17.7"/>
	<rect x="337.4" y="202.1" class="st1" width="30.6" height="17.7"/>
	<path class="st1" d="M299.9,183.5c-3.2,3.2-4,8-2.1,12C296,191.6,296.8,186.7,299.9,183.5z"/>
	<path class="st1" d="M189.4,215.1c0-0.1-0.1-0.2-0.1-0.3C189.3,214.9,189.3,215,189.4,215.1z"/>
	<path class="st1" d="M298.2,196.2c-0.1-0.2-0.2-0.4-0.3-0.6C298,195.8,298.1,196,298.2,196.2z"/>
	<path class="st1" d="M393.6,348.9v-42.4l-1.6,0.2l-11.3,1.5h-0.4c-1.7,0-3.1-1.2-3.3-2.9c-0.1-0.8,0.1-1.6,0.5-2.2
		c0.5-0.9,1.4-1.6,2.5-1.7l13.6-1.8V180.8c0-9.8-8-17.8-17.8-17.8H43.6c-9.8,0-17.8,8-17.8,17.8v195c0,6.6,3.7,12.6,9.5,15.7H365
		l0.1,0.3l2.6,7.3l-2.5-7.3l0-0.1l-25.4-71.8l20.3,57.5l-20.4-57.7c-0.8-2.3-1.1-4.7-1-7.1c0.3-4.7,2.4-9.1,5.9-12.3
		c0.9-0.8,1.8-1.5,2.8-2.1c7.9-4.9,18.3-2.8,23.7,4.7c0.3,0.4,0.6,0.8,0.9,1.2c0.8,1.2,1.5,2.4,1.9,3.8l15.8,44.4
		C390.8,350.9,392.1,349.8,393.6,348.9z M126.9,311.4v18.9v0.1h-4.1v36.7h-21.7H83.5H61.9v-36.7h-4.2v-19h0.1v-0.1h15
		c-1.3-1.5-2-3.3-2-5.3c0-4.3,3.5-7.9,7.8-7.9c3.2,0,10.6,4.7,13.7,9.1c3-4.4,10.5-9.2,13.7-9.2c4.3,0,7.8,3.6,7.8,7.9
		c0,2.1-0.7,4-2.1,5.5l15.2-0.1V311.4z M126.9,236.1h-4.1v36.7v0.1H83.5H61.9v-36.8h-4.1h-0.1v-19h0.1h14.9V217
		c-1.3-1.5-2-3.4-2-5.3c0-2.1,0.8-4.1,2.3-5.6c0.4-0.4,0.8-0.7,1.2-1c1.3-0.8,2.8-1.3,4.4-1.3c3.2,0,10.6,4.7,13.7,9.1
		c3-4.4,10.5-9.2,13.7-9.2c4.3,0,7.8,3.6,7.8,7.9c0,2.1-0.7,4-2.1,5.5h15.2V236.1z M244.7,330.4h-4.1v36.7h-21.7h-0.1h-17.5h-0.1
		h-21.5v-36.7h-4.1v-0.1v-18.9v-0.1h15c-1.3-1.5-2-3.4-2-5.3c0-4.3,3.5-7.9,7.8-7.9c0,0,0,0,0,0c0,0,0,0,0.1,0
		c3.1,0,10.5,4.7,13.6,9c3-4.3,10.5-9.1,13.7-9.1c0,0,0,0,0.1,0c0,0,0,0,0,0c1,0,2.1,0.2,3,0.6c0.9,0.4,1.8,1,2.5,1.7
		c3,3,3.1,7.9,0.2,11.1l15.1-0.1v0.1h0.1L244.7,330.4z M244.7,236.1h-4.1v36.7v0.1h-39.3h-21.6v-36.8h-4.1v-19h15
		c-0.3-0.3-0.6-0.7-0.8-1.1c0,0,0,0,0,0c0,0,0,0,0,0c-0.2-0.3-0.3-0.6-0.5-0.9c0-0.1-0.1-0.2-0.1-0.3c-0.1-0.2-0.2-0.4-0.2-0.6
		c0-0.1-0.1-0.3-0.1-0.4c-0.1-0.2-0.1-0.5-0.2-0.7c0-0.1,0-0.2,0-0.3c0-0.3-0.1-0.6-0.1-0.9c0-2.6,1.3-5.1,3.5-6.6
		c1.2-0.9,2.7-1.4,4.3-1.4c0,0,0,0,0,0c0,0,0,0,0.1,0c3.1,0,10.5,4.7,13.6,9c3-4.3,10.5-9.1,13.7-9.1c0,0,0,0,0.1,0c0,0,0,0,0,0
		c1,0,2.1,0.2,3,0.6c0.9,0.4,1.8,1,2.5,1.7c3,3,3.1,7.9,0.2,11.1h15.1v0h0.1L244.7,236.1z M310.6,317.1c-1.7,0-3.1-1.3-3.3-2.9
		c-0.2-1.9,1.1-3.6,2.9-3.8L329,308c0.5,0,0.9,0,1.3,0.1c1.2,0.4,2.2,1.4,2.4,2.8c0.3,1.9-1,3.6-3,3.8l-18.7,2.4H310.6z M339.3,327
		c1.4,1.2,1.6,3.3,0.4,4.7l-9.9,12.8c-0.7,0.9-1.9,1.4-3,1.2c-0.1,0-0.1,0-0.2,0c-0.1,0-0.2,0-0.3,0c-0.5-0.1-0.9-0.3-1.3-0.7
		c-1.4-1.1-1.7-3.2-0.6-4.6l9.9-12.8c0.3-0.4,0.7-0.6,1.1-0.9C336.6,326,338.2,326,339.3,327z M339.9,297.8
		c-1.1,1.5-3.2,1.7-4.7,0.6l-17.9-13.8c-1-0.7-1.4-1.9-1.3-3c0-0.7,0.3-1.3,0.7-1.9c1.2-1.4,3.3-1.7,4.7-0.5l17.9,13.9
		c0.4,0.3,0.7,0.7,0.9,1.1C340.8,295.2,340.8,296.7,339.9,297.8z M354.2,286.9c0.1,0.7-0.1,1.3-0.4,1.9c-0.1,0.2-0.2,0.4-0.3,0.5
		c-0.3,0.3-0.6,0.6-1,0.8s-0.8,0.4-1.2,0.4h-0.4h-0.1c-1.7,0-3.1-1.3-3.3-2.9l-1.9-14.9h0l0,0.1h-8.3v0h-23.5v0h-29v-0.1v-49.2h-5.5
		v-0.1v-25.4h20.2c-0.4-0.5-0.8-1-1.1-1.6c0,0,0,0,0,0.1c0,0,0,0,0-0.1c-0.1-0.1-0.1-0.2-0.2-0.4c-0.1-0.2-0.2-0.4-0.3-0.6
		c0,0,0,0,0,0c-1.9-4-1.1-8.8,2.1-12c0.5-0.5,1-0.9,1.5-1.3c1.7-1.2,3.7-1.8,5.8-1.8c0,0,0.1,0,0.1,0c0,0,0.1,0,0.1,0
		c0.6,0,1.2,0.1,1.8,0.3c1.6,0.5,3.2,1.2,4.7,2c0.8,0.5,1.7,1,2.6,1.6c3.5,2.2,6.5,4.9,9,8.2c2.5-3.2,5.5-6,9-8.3
		c3.5-2.4,7.1-4,9.3-4c0,0,0.1,0,0.1,0c0,0,0.1,0,0.1,0c5.9,0,10.5,4.8,10.5,10.6c0,2.7-1.1,5.3-2.9,7.3h20.3v25.4h-0.1v0.1h-5.3
		v49.2h-0.2v0.1h-13.9L354.2,286.9L354.2,286.9z M370.7,291.5c-1.1,1.5-3.2,1.8-4.7,0.7c-1.5-1.1-1.8-3.2-0.7-4.7l0.1-0.1l11.9-15.4
		c1.2-1.4,3.3-1.7,4.7-0.5c0.3,0.3,0.6,0.6,0.8,1c0.6,1.1,0.6,2.6-0.2,3.6L370.7,291.5z"/>
	<path class="st1" d="M188.7,213.1c0-0.1,0-0.2,0-0.3C188.7,212.8,188.7,212.9,188.7,213.1z"/>
	<path class="st1" d="M189,214.2c0-0.1-0.1-0.3-0.1-0.4C188.9,213.9,189,214.1,189,214.2z"/>
	<rect x="60.7" y="314.4" class="st1" width="22.8" height="13.2"/>
	<rect x="64.8" y="330.4" class="st1" width="18.7" height="33.8"/>
	<rect x="86.4" y="314.3" class="st1" width="11.7" height="49.9"/>
	<rect x="288.7" y="223.6" class="st1" width="25" height="45.3"/>
	<path class="st2" d="M25.7,430.3h353l-1.3-3.7l-9.2-25.9H8.7v12.6C8.7,422.7,16.3,430.3,25.7,430.3z"/>
	<polygon class="st3" points="367.7,399.1 368.3,400.7 368.3,400.7 365.3,392 365.2,391.8 365.2,391.8 	"/>
	<path class="st3" d="M330.7,438.4c0.3-0.2,0.6-0.4,1-0.6c3.4-1.9,7.4-2.8,11.6-2.2l28.9,3.6h5.6c0.1-0.1,0.3-0.1,0.4-0.2
		c0.4-0.3,0.8-0.6,1.2-1c0.2-0.3,0.4-0.6,0.5-0.9c0.3-0.7,0.4-1.4,0.3-2.1c0,0,0-0.1,0-0.1c0-0.4-0.1-0.7-0.3-1l-1.2-3.5h-353
		c-9.4,0-17-7.6-17-17v-0.1v-12.6h359.5h0l0-0.1l-0.5-1.5l-2.6-7.3H35.3c-5.8-3.1-9.5-9.1-9.5-15.7v-0.3v-195
		c0-9.8,8-17.8,17.8-17.8h332.2c9.8,0,17.8,8,17.8,17.8v118.8v0.2l2.3-0.3c0.5,0,0.9,0,1.3,0.1c1.2,0.4,2.2,1.4,2.4,2.8
		c0,0.2,0,0.4,0,0.7c-0.1,1.5-1.3,2.9-2.9,3l-3.1,0.4v0v42.4v0.3c1.3-0.8,2.7-1.5,4.2-2c-0.2,0.1-0.4,0.1-0.6,0.2
		c0.5-0.2,1-0.3,1.6-0.5c0.1,0,0.1,0,0.2-0.1c0.6-0.1,1.1-0.2,1.7-0.3c0,0,0,0,0,0c0.5-0.1,0.9-0.1,1.4-0.1c0.1,0,0.2,0,0.3,0
		c0,0,0,0,0,0c0,0,0,0,0,0c0,0,0,0,0,0V180.8c0-14.8-12-26.7-26.7-26.7H43.6c-14.8,0-26.7,12-26.7,26.7V376c0,5.6,1.8,11.1,5.1,15.7
		H-0.2v21.6c0,14.3,11.6,25.8,25.9,25.8h303.9C329.9,438.9,330.3,438.6,330.7,438.4C330.6,438.4,330.6,438.4,330.7,438.4z"/>
	<path class="st3" d="M398.8,346.9C398.8,346.9,398.8,346.9,398.8,346.9c-0.1,0-0.1,0-0.2,0.1C398.7,347,398.7,346.9,398.8,346.9z"
		/>
	<path class="st3" d="M380.2,435.1c0,0,0-0.1,0-0.1C380.2,435,380.2,435,380.2,435.1z"/>
	<line class="st4" x1="101.1" y1="233.3" x2="101.1" y2="220.6"/>
	<line class="st4" x1="101.1" y1="269.9" x2="101.1" y2="236.1"/>
	<path class="st3" d="M113.8,211.6c0-4.3-3.5-7.9-7.8-7.9c-3.2,0-10.7,4.9-13.7,9.2c-3.1-4.4-10.5-9.1-13.7-9.1
		c-1.6,0-3.1,0.5-4.4,1.3c-0.4,0.3-0.8,0.6-1.2,1c-1.5,1.5-2.3,3.5-2.3,5.6c0,1.9,0.7,3.8,2,5.3v0.1H57.8h-0.1v19h0.1h4.1v36.8h21.6
		v-0.2H101c0.1,0.2,0.1-46.3,0.1-52.1v-0.5h22.8h0l0,13.2h-22.8v2.8h18.7v33.8h-18.7v2.9h21.7v-36.7h4.1v-19h-15.2
		C113.1,215.6,113.8,213.7,113.8,211.6z M81.8,207.8c1.4,0.8,2.7,1.7,4,2.7c2.6,2.1,4.9,4.5,4.9,5.7c0,0,0,0,0,0
		c0,0.2-0.5,0.5-0.9,0.6h-12v0.1c-1.1-0.2-2.1-0.9-2.8-1.8c-0.7-0.9-1.1-2.1-1.2-3.3c0,0,0,0,0,0c-0.1-2.8,2.1-5.1,4.8-5.1
		C79.7,206.8,80.8,207.2,81.8,207.8z M83.4,220H72.8v-0.2h10.6V220z M60.7,233.3v-13.2h22.7v13.2H60.7z M64.8,236.1h18.6v33.8H64.8
		V236.1z M98.1,269.9H86.4v-49.8h11.7V269.9z M98.1,220H86.4v-0.1L98.1,220L98.1,220z M94.9,216.9c-0.8-0.2-1-0.5-1-0.6
		c0-1.5,3-4.5,6.2-6.8c2.2-1.6,4.5-2.8,5.9-2.8c1.7,0.1,3.2,1,4,2.3c0.5,0.8,0.9,1.8,0.9,2.8c0,1.8-0.9,3.5-2.5,4.4c0,0-0.1,0-0.1,0
		c-0.4,0.3-0.9,0.5-1.5,0.6h-0.1H94.9z"/>
	<path class="st5" d="M189.2,214.8c0,0.1,0.1,0.2,0.1,0.3"/>
	<path class="st5" d="M188.7,212.7c0,0.1,0,0.2,0,0.3"/>
	<line class="st5" x1="189.8" y1="216" x2="189.8" y2="216"/>
	<path class="st5" d="M188.9,213.8c0,0.1,0.1,0.3,0.1,0.4"/>
	<path class="st6" d="M192,209.9c0.5-1.2,1.4-2.2,2.6-2.8C193.4,207.7,192.5,208.6,192,209.9z"/>
	<rect x="218.9" y="220.1" class="st6" width="0" height="13.2"/>
	<line class="st5" x1="218.9" y1="236.1" x2="218.9" y2="269.9"/>
	<path class="st6" d="M244.7,217.1h-15.1h-0.1c2.9-3.1,2.8-8-0.2-11.1c-0.7-0.7-1.6-1.3-2.5-1.7c-0.9-0.4-2-0.6-2.9-0.6
		c0,0,0,0-0.1,0c-3.2,0-10.6,4.8-13.7,9.1c0,0,0,0,0,0.1c-3.1-4.4-10.4-9.1-13.7-9.1c0,0,0,0,0,0c-1.6,0-3.1,0.5-4.3,1.4
		c-2.2,1.5-3.5,4-3.5,6.6c0,0.3,0,0.6,0.1,0.9c0,0.1,0,0.2,0,0.3c0,0.2,0.1,0.5,0.2,0.7c0,0.1,0.1,0.3,0.1,0.4
		c0.1,0.2,0.1,0.4,0.2,0.6c0,0.1,0.1,0.2,0.1,0.3c0.1,0.3,0.3,0.6,0.5,0.9c0.2,0.4,0.5,0.8,0.8,1.1h-15v19h4.1v36.8h21.6v-0.1h17.5
		l0.1-52.8v0.1h22.8v13.2h-22.8v2.8h18.7v33.8h-18.7v2.9h21.7v-36.7h4.1V217.1L244.7,217.1z M208.6,216.2c0,0.1-0.1,0.2-0.2,0.2
		c0,0,0,0-0.1,0c0,0-0.1,0.1-0.1,0.1c-0.2,0.1-0.4,0.2-0.6,0.2l-12.1,0.1c-2.4-0.5-4-2.6-4-5.1c0-0.7,0.1-1.4,0.4-2
		c0.4-0.9,0.9-1.6,1.7-2.2c0.3-0.2,0.6-0.4,0.9-0.6c0.6-0.3,1.2-0.4,1.9-0.4C199.6,206.6,208.6,213.6,208.6,216.2z M190.6,219.9
		h10.6v0.1h-10.6V219.9z M178.5,233.3v-13.2h22.7v13.2H178.5z M182.6,236.1h18.6v33.8h-18.6V236.1z M215.9,269.9h-11.7v-49.8h11.7
		V269.9z M215.9,220h-11.7v-0.1L215.9,220L215.9,220z M212.8,216.9c-0.8-0.2-1-0.5-1-0.6c-0.1-2.5,8.8-9.6,12-9.6
		c1.7,0.1,3.2,1,4,2.3c0.5,0.8,0.9,1.8,0.9,2.8c0,1.8-0.9,3.5-2.5,4.4c0,0-0.1,0-0.1,0c-0.4,0.3-0.9,0.5-1.5,0.6h-0.1H212.8z"/>
	<path class="st7" d="M337.4,268.9v-0.1v-45.3h25v45.3h-10.5l0,0.1l0.5,3.9h13.9h0.2v-49.2v-0.1h5.3h0.1v-25.4h-20.3
		c1.8-2,2.9-4.6,2.9-7.3c0-5.8-4.6-10.6-10.5-10.6c0,0-0.1,0-0.1,0c-2.2,0-5.8,1.6-9.2,4c-3.5,2.2-6.6,5.1-9.1,8.4
		c0,0-0.1-0.1-0.1-0.1c-2.5-3.2-5.5-6-9-8.2c-0.9-0.6-1.8-1.1-2.6-1.6c-1.5-0.8-3.1-1.5-4.7-2c-0.6-0.2-1.2-0.3-1.8-0.3
		c0,0-0.1,0-0.1,0c-2.1,0-4,0.6-5.7,1.8c-4.7,3.2-6,9.6-3.1,14.4c0.3,0.5,0.7,1,1.1,1.5h-0.1h-20.2v25.4v0.1h5.5v49.2v0.1h29v0h23.5
		v0h8.3l0-0.1l-0.5-3.9H337.4z M313.8,268.9L313.8,268.9h-25.1v-45.3h25h0.1V268.9z M333.4,202.1v66.8h-15.7v-66.8H333.4z
		 M368,219.8h-30.6v-17.7H368V219.8z M343.9,184.1c1.7,0,3.2,0.7,4.3,1.7c0.1,0.1,0.2,0.2,0.3,0.3c0,0,0,0,0.1,0.1
		c1.2,1.2,1.9,2.9,1.8,4.7v0.1c0,3.2-2.2,6.1-5.3,6.8h-16c-0.5-0.1-0.9-0.3-1.2-0.7c0,0,0,0-0.1,0c0-0.1-0.1-0.1-0.1-0.2
		C327.8,193.6,339.6,184.1,343.9,184.1z M300.8,191c-0.1-3.7,2.8-6.7,6.5-6.8c4.1,0,16,9.4,16.2,12.7c0,0,0,0,0,0.1
		c0,0.3-0.7,0.6-1.2,0.9h-16.2C303,197.2,300.7,194.3,300.8,191C300.8,191.1,300.8,191,300.8,191z M299.5,201.9h14.3v0L299.5,201.9
		L299.5,201.9z M283.2,202.1h30.5h0.1v17.7h-0.1h-30.5V202.1z"/>
	<path class="st8" d="M297.9,195.5c0.1,0.2,0.2,0.4,0.3,0.6"/>
	<path class="st8" d="M297.9,195.5C297.9,195.5,297.9,195.5,297.9,195.5"/>
	<path class="st8" d="M299.9,183.5c-3.2,3.2-4,8-2.1,12"/>
	<path class="st8" d="M298.4,196.5C298.4,196.6,298.4,196.6,298.4,196.5"/>
	<path class="st8" d="M298.4,196.5c-0.1-0.1-0.1-0.2-0.2-0.4"/>
	<path class="st6" d="M113.8,305.9c0-4.3-3.5-7.9-7.8-7.9c-3.2,0-10.7,4.9-13.7,9.2c-3.1-4.4-10.5-9.1-13.7-9.1
		c-4.3,0-7.8,3.6-7.8,7.9c0,1.9,0.7,3.8,2,5.3v0.1h-15h-0.1v19h4.2v36.7h21.6h17.6h21.7v-36.7v-0.1h4.1v-18.9v-0.1l-15.2,0.1
		C113.1,309.9,113.8,308,113.8,305.9z M78.6,301c1.2,0.1,2.2,0.5,3.2,1.1c1.4,0.8,2.7,1.7,4,2.7c2.6,2.1,4.9,4.5,4.9,5.7
		c0,0,0,0,0,0c0,0.2-0.5,0.5-0.9,0.6l-12,0.1c-0.5-0.1-1-0.3-1.5-0.6c-0.5-0.3-0.9-0.7-1.3-1.2c-0.7-0.9-1.1-2.1-1.2-3.3
		c0,0,0,0,0,0C73.7,303.3,75.9,301,78.6,301z M83.5,364.2L83.5,364.2l-18.7,0v0v-33.8h18.7V364.2z M83.5,327.6H60.7v-13.2h22.8
		V327.6z M83.5,314.2H72.8v-0.1h10.7V314.2z M98.1,364.2H86.4v-49.9h11.7V364.2z M94.9,311.2c-0.8-0.2-1-0.5-1-0.6
		c0-2.6,8.8-9.6,12.1-9.6c1.7,0.1,3.2,1,4,2.3c0.5,0.8,0.9,1.8,0.9,2.8c0,1.8-0.9,3.5-2.5,4.4c0,0-0.1,0-0.1,0
		c-0.4,0.3-0.9,0.5-1.5,0.6h-0.1H94.9z M119.8,364.2L119.8,364.2l-18.7,0v0v-33.8h18.7V364.2z M123.9,327.5h-22.8v-13.1v-0.1h22.8
		L123.9,327.5z"/>
	<line class="st4" x1="218.9" y1="364.2" x2="218.9" y2="364.2"/>
	<polygon class="st3" points="218.9,327.5 218.9,327.5 218.9,314.4 218.9,314.3 218.9,314.3 	"/>
	<path class="st3" d="M244.7,330.3v-18.9v-0.1l-15.1,0.1l-0.1,0c2.9-3.1,2.8-8-0.2-11.1c-0.7-0.7-1.5-1.3-2.5-1.7
		c-0.9-0.4-2-0.6-2.9-0.6c0,0,0,0-0.1,0c-3.2,0-10.6,4.9-13.7,9.1c0,0,0,0,0,0.1c-3.1-4.4-10.4-9.1-13.7-9.1c0,0,0,0,0,0
		c-4.3,0-7.8,3.6-7.8,7.9c0,1.9,0.7,3.8,2,5.3v0.1h-15v18.9v0.1h4.1v36.7h21.5h0.1h17.5l0.1-52.9v0.1h22.8v0.1v13.1h-22.8v0.1v2.8v0
		h18.7v33.8v0h-18.7v2.9h21.7v-36.7v-0.1H244.7z M208.6,310.5c0,0.1-0.1,0.2-0.2,0.2c0,0,0,0-0.1,0c0,0-0.1,0.1-0.1,0.1
		c-0.2,0.1-0.4,0.2-0.6,0.2l-12.1,0.1c-2.4-0.5-4-2.6-4-5.1c0-0.7,0.1-1.4,0.4-2c0.4-0.9,0.9-1.6,1.7-2.2c0.3-0.2,0.6-0.4,0.9-0.6
		c0.6-0.3,1.2-0.4,1.9-0.4C199.6,300.9,208.6,307.9,208.6,310.5z M190.6,314.1h10.6v0.1h-10.6V314.1z M178.5,314.4h22.7v13.2h-22.7
		V314.4z M182.6,364.2L182.6,364.2v-33.8h18.6v33.8v0H182.6z M215.9,364.2h-11.7v-49.9h11.7V364.2z M212.8,311.2
		c-0.1,0-0.3-0.1-0.4-0.1c-0.2-0.1-0.3-0.2-0.4-0.2c-0.1-0.1-0.2-0.2-0.2-0.3c-0.1-2.4,7.7-8.7,11.3-9.5c0.2-0.1,0.5-0.1,0.7-0.1
		c1.7,0.1,3.2,1,4,2.3c0.5,0.8,0.9,1.8,0.9,2.8c0,1.8-0.9,3.5-2.5,4.4c0,0-0.1,0-0.1,0c-0.4,0.3-0.9,0.5-1.5,0.6h-0.1H212.8z"/>
	<line class="st4" x1="218.9" y1="330.4" x2="218.9" y2="364.2"/>
	<path class="st3" d="M192,304.2c0.5-1.3,1.4-2.2,2.6-2.8C193.4,301.9,192.5,302.9,192,304.2z"/>
	<path class="st9" d="M339.9,297.7c0.8-1,0.9-2.4,0.3-3.5c-0.2-0.4-0.5-0.8-0.9-1.1l-17.9-13.9c-1.4-1.2-3.5-0.9-4.7,0.5
		c-0.5,0.6-0.7,1.2-0.7,1.9c0,1,0.4,2.1,1.2,2.8l0.1,0.1l17.9,13.9C336.7,299.5,338.8,299.2,339.9,297.7z"/>
	<path class="st9" d="M377.5,303.1c-0.4,0.6-0.6,1.4-0.5,2.2c0.2,1.7,1.6,2.9,3.3,2.9h0.4l11.3-1.5l1.6-0.2l3.1-0.4
		c1.6-0.2,2.8-1.5,2.9-3c0-0.2,0-0.4,0-0.7c-0.2-1.3-1.1-2.4-2.4-2.8c-0.4-0.1-0.9-0.2-1.3-0.1l-2.3,0.3l-13.8,1.7
		C378.9,301.7,378,302.3,377.5,303.1z"/>
	<path class="st9" d="M332.7,310.9c-0.2-1.3-1.1-2.4-2.4-2.8c-0.4-0.1-0.9-0.2-1.3-0.1l-18.8,2.4c-1.8,0.2-3.1,1.9-2.9,3.8
		c0.2,1.6,1.6,2.9,3.3,2.9h0.4l18.7-2.4C331.7,314.5,333,312.8,332.7,310.9z"/>
	<path class="st9" d="M382.9,272.5c-0.2-0.4-0.5-0.7-0.8-1c-1.5-1.1-3.6-0.9-4.7,0.6l-11.9,15.3c-1.1,1.5-0.8,3.6,0.7,4.7
		c1.4,1.1,3.5,0.8,4.6-0.6l11.9-15.4C383.5,275,383.5,273.6,382.9,272.5z"/>
	<path class="st9" d="M335.4,326.7c-0.3,0.2-0.6,0.4-0.8,0.7c-0.1,0-0.2,0.1-0.2,0.2l-9.9,12.8c-1.1,1.5-0.8,3.6,0.7,4.7
		c0.3,0.3,0.7,0.4,1.1,0.6c0.1,0,0.2,0,0.3,0c0.1,0,0.1,0,0.2,0c1.1,0.1,2.3-0.3,3-1.2l9.9-12.8c1.2-1.4,1-3.5-0.4-4.7
		C338.2,326,336.6,326,335.4,326.7z"/>
	<path class="st9" d="M352.4,272.9l-0.5-4l-0.5-3.9c-0.2-1.6-1.6-2.8-3.1-2.9c-0.2,0-0.4,0-0.6,0c-0.2,0-0.4,0.1-0.5,0.1
		c0,0-0.1,0-0.1,0c-0.1,0-0.3,0.1-0.4,0.2c-0.1,0-0.1,0.1-0.2,0.1c-1.1,0.7-1.8,1.9-1.6,3.3l0.4,3l0.5,4l1.9,14.9
		c0.2,1.7,1.6,2.9,3.3,2.9h0.4c0.5,0,0.9-0.2,1.2-0.4s0.7-0.5,1-0.8c0.1-0.2,0.2-0.4,0.3-0.5c0.3-0.6,0.4-1.2,0.4-1.9l0,0
		L352.4,272.9L352.4,272.9z"/>
	<path class="st1" d="M322.6,448.2c0,0.1-0.1,0.2-0.1,0.3C322.5,448.4,322.6,448.3,322.6,448.2z"/>
	<path class="st1" d="M322.5,448.5c-0.2,0.5-0.3,1-0.5,1.5C322.2,449.5,322.3,449,322.5,448.5z"/>
	<path class="st1" d="M327.2,441.2c1-1,2.1-2,3.4-2.8c-0.3,0.2-0.7,0.4-1,0.7c-3.2,2.2-5.6,5.4-7,9.1c0.9-2.3,2.2-4.4,3.8-6.2
		c0,0,0.1-0.1,0.1-0.1C326.8,441.7,327,441.4,327.2,441.2z"/>
	<path class="st1" d="M331.6,437.8c-0.3,0.2-0.7,0.4-1,0.6C331,438.2,331.3,438,331.6,437.8z"/>
	<path class="st1" d="M373.8,448.7l-32.1-4c-2.7-0.3-5.4,0.4-7.4,2c-0.1,0.1-0.2,0.1-0.3,0.2c-0.1,0.1-0.3,0.2-0.4,0.3
		c-2.9,2.7-4.1,6.8-2.6,10.7l0.5,1.4l63.5,27.7c11.5,5,24.6,5.5,36.4,1.3l26.7-9.4c23.4-8.3,36.6-32.2,32.3-56
		c-0.5-2.4-1.1-4.9-2-7.3l-19.6-55.3c-1.7-4.7-6.8-7.2-11.5-5.5c-2.3,0.8-4.1,2.5-5.1,4.5c-1,2.1-1.2,4.5-0.3,6.8
		c0.5,1.5,0.2,3.1-0.7,4.3c-0.5,0.7-1.3,1.3-2.2,1.7c-2.4,0.9-4.9-0.4-5.8-2.8l-4.5-12.8c-1.6-4.7-6.8-7.2-11.5-5.5
		c-2,0.7-3.6,2-4.6,3.7c-1.3,2.2-1.7,5-0.8,7.6v0.1c0.5,1.5,0.2,3-0.8,4.1c-0.6,0.8-1.3,1.4-2.3,1.7c-2.3,0.7-4.7-0.5-5.5-2.6
		l-1.5-4.2c-1.7-4.7-6.8-7.2-11.5-5.5c-2.3,0.8-4.1,2.5-5.1,4.5c-1,2.1-1.2,4.5-0.3,6.8l1.5,4.2c0.5,1.5,0.2,3.1-0.7,4.3
		c-0.5,0.7-1.3,1.3-2.2,1.7c-2.4,0.9-4.9-0.4-5.8-2.8L365,310.9c-1.7-4.7-6.8-7.2-11.5-5.5c-2.3,0.8-4.1,2.5-5.1,4.5
		c-1,2.1-1.2,4.5-0.3,6.8l40.2,113.9c0.7,2,1,4.1,0.7,6.2c-0.5,3.9-2.5,7.1-5.4,9.3c0,0-0.1,0.1-0.1,0.1c-0.3,0.2-0.5,0.4-0.8,0.5
		c-0.8,0.5-1.7,1-2.7,1.3C378,448.7,375.9,448.9,373.8,448.7z"/>
	<line class="st10" x1="391.5" y1="495.4" x2="371.7" y2="486.8"/>
	<path class="st1" d="M402,498.9c-3.6-0.9-7.1-2-10.5-3.5C394.9,496.9,398.4,498.1,402,498.9z"/>
	<line class="st10" x1="323.7" y1="464.3" x2="322.6" y2="461.1"/>
	<path class="st1" d="M324.7,465.9c-0.4-0.5-0.8-1-1-1.6C323.9,464.9,324.3,465.5,324.7,465.9z"/>
	<path class="st1" d="M477.4,357.4c-0.2-0.6-0.4-1.1-0.7-1.7c0.1,0.2,0.2,0.5,0.3,0.7C477.2,356.7,477.3,357.1,477.4,357.4z"/>
	<path class="st1" d="M476.2,354.7c0.2,0.3,0.3,0.6,0.5,0.9C476.6,355.3,476.4,355,476.2,354.7z"/>
	<path class="st1" d="M460.2,345.3c0.2,0,0.5,0,0.7,0C460.6,345.3,460.4,345.3,460.2,345.3z"/>
	<path class="st1" d="M462.6,345.5C462.6,345.5,462.6,345.5,462.6,345.5C462.6,345.5,462.6,345.5,462.6,345.5z"/>
	<path class="st1" d="M454.7,346.2c0.4-0.1,0.9-0.3,1.3-0.4c0.3-0.1,0.5-0.1,0.8-0.2c0.2,0,0.3-0.1,0.5-0.1c0.8-0.1,1.5-0.2,2.3-0.3
		c-4.2,0.2-8.3,1.8-11.5,4.6c1.8-1.6,3.9-2.8,6.2-3.6c0.1,0,0.1-0.1,0.2-0.1C454.6,346.3,454.6,346.3,454.7,346.2z"/>
	<path class="st1" d="M432.8,341.8c1.1,0.2,2.2,0.4,3.3,0.8C435,342.2,433.9,341.9,432.8,341.8z"/>
	<path class="st1" d="M432.1,341.7c0.2,0,0.4,0,0.5,0C432.4,341.7,432.3,341.7,432.1,341.7z"/>
	<polygon class="st1" points="430.9,341.6 430.9,341.6 430.9,341.6 	"/>
	<path class="st1" d="M347.3,298.4c-1,0.6-1.9,1.3-2.8,2.1C345.4,299.7,346.4,299,347.3,298.4z"/>
	<path class="st1" d="M367.7,299.6C367.7,299.6,367.7,299.6,367.7,299.6c-0.1-0.1-0.2-0.1-0.3-0.2
		C367.5,299.5,367.6,299.5,367.7,299.6z"/>
	<path class="st10" d="M391.6,350.8c-0.1,0.1-0.2,0.2-0.4,0.3"/>
	<path class="st10" d="M380.2,435.2c0,0,0-0.1,0-0.1"/>
	<path class="st10" d="M380.2,434.9c0,0,0,0.1,0,0.1"/>
	<path class="st10" d="M380.2,434.9c0-0.4-0.1-0.8-0.3-1.2"/>
	<path class="st10" d="M338.7,312.8c-0.1,2.4,0.2,4.8,1,7.1"/>
	<polygon class="st1" points="368.3,400.7 367.7,399.1 368.2,400.6 368.3,400.7 370,405.6 	"/>
	<polygon class="st1" points="378.7,430.3 379.9,433.7 378.7,430.2 370,405.6 377.4,426.6 	"/>
	<path class="st1" d="M360.8,296.4c0,0,0.1,0,0.1,0c-1-0.3-2.1-0.5-3.2-0.5C358.8,295.9,359.8,296.1,360.8,296.4z"/>
	<path class="st1" d="M399.4,346.8c-0.1,0-0.2,0-0.4,0.1c-0.1,0-0.1,0-0.2,0.1c0,0,0,0,0,0C399,346.9,399.2,346.8,399.4,346.8z"/>
	<path class="st1" d="M402.5,346.4C402.5,346.4,402.5,346.4,402.5,346.4C402.5,346.4,402.5,346.4,402.5,346.4
		C402.5,346.4,402.5,346.4,402.5,346.4C402.5,346.4,402.5,346.4,402.5,346.4z"/>
	<path class="st1" d="M401.1,346.5c0,0,0.1,0,0.1,0C401.2,346.5,401.1,346.5,401.1,346.5C401.1,346.5,401.1,346.5,401.1,346.5z"/>
	<path class="st1" d="M402.5,346.4C402.5,346.4,402.5,346.4,402.5,346.4C402.6,346.4,402.6,346.4,402.5,346.4
		C402.6,346.4,402.5,346.4,402.5,346.4C402.5,346.4,402.5,346.4,402.5,346.4C402.5,346.4,402.5,346.4,402.5,346.4z"/>
	<path class="st1" d="M401.1,346.5c-0.1,0-0.2,0-0.3,0c0,0,0,0,0,0c-0.2,0-0.3,0.1-0.5,0.1C400.5,346.6,400.8,346.6,401.1,346.5z"/>
	<path class="st1" d="M400.3,346.6c-0.3,0-0.6,0.1-0.9,0.2C399.7,346.7,400,346.7,400.3,346.6z"/>
	<path class="st1" d="M398.8,346.9c-0.5,0.1-1,0.3-1.6,0.5c0.2-0.1,0.4-0.1,0.6-0.2c0.3-0.1,0.5-0.2,0.8-0.2
		C398.7,347,398.7,347,398.8,346.9z"/>
	<path class="st11" d="M500.5,429.6c-0.4-1.5-0.5-3.5-0.8-5.4c-0.5-3.9-1.5-7.8-2.8-11.5l-19.5-55.3c-0.1-0.3-0.3-0.7-0.4-1
		c-0.1-0.2-0.2-0.5-0.3-0.7c0,0,0,0,0,0c-0.2-0.3-0.3-0.6-0.5-0.9c-2.8-5.2-7.9-8.5-13.6-9.2c0,0,0,0,0,0c-0.6-0.1-1.1-0.1-1.7-0.1
		c-0.2,0-0.5,0-0.7,0c-0.2,0-0.4,0-0.6,0c-0.8,0-1.5,0.1-2.3,0.3c-0.2,0-0.3,0.1-0.5,0.1c-0.3,0.1-0.5,0.1-0.8,0.2
		c-0.4,0.1-0.9,0.2-1.3,0.4c-0.1,0-0.1,0-0.2,0c-0.1,0-0.1,0.1-0.2,0.1c-3,1.1-5.6,3-7.7,5.4c-1-2-2.3-3.8-3.9-5.3
		c-1.9-1.8-4.2-3.1-6.6-3.9c-1.1-0.4-2.2-0.6-3.3-0.8c-0.1,0-0.1,0-0.2,0c-0.2,0-0.4,0-0.5,0c-0.3,0-0.7-0.1-1-0.1c0,0-0.1,0-0.1,0
		c0,0,0,0,0,0c-6.6-0.2-12.7,3.2-16,8.9c-0.2-0.1-0.4-0.2-0.5-0.4c-2.9-2.2-6.4-3.5-10-3.7c-0.6,0-1.2,0-1.8,0c0,0,0,0,0,0
		c0,0,0,0-0.1,0c0,0,0,0,0,0c-0.1,0-0.2,0-0.3,0c-0.3,0-0.6,0-0.9,0.1c0,0-0.1,0-0.1,0c-3.5,0.5-6.9,1.9-9.6,4.3
		c-0.7,0.6-1.3,1.2-1.9,1.9l-0.1-0.4l-15.8-44.4c-0.5-1.3-1.1-2.6-1.9-3.8c-0.2-0.3-0.4-0.6-0.7-0.9c-1-1.4-2.2-2.6-3.5-3.6
		c0,0,0,0,0,0c-2-1.5-4.3-2.6-6.8-3.2c0,0-0.1,0-0.1,0c-5-1.1-10.4-0.2-14.8,3.1c-6.3,4.7-8.9,13-6.2,20.4l25.4,71.9l0.1,0.3
		l14.7,41.6c0.4,1.2,0.3,2.4-0.2,3.4c-0.1,0.3-0.3,0.6-0.5,0.9c-0.4,0.4-0.8,0.7-1.2,1c-0.1,0.1-0.3,0.1-0.4,0.2
		c-0.7,0.3-1.6,0.5-2.4,0.4l-3.2-0.4l-28.9-3.6c-4.2-0.5-8.2,0.4-11.6,2.2c-0.3,0.2-0.7,0.4-1,0.6c0,0,0,0-0.1,0
		c-1.2,0.8-2.4,1.7-3.4,2.8c-0.2,0.2-0.5,0.5-0.7,0.7c0,0-0.1,0.1-0.1,0.1c-2.4,2.8-4,6.3-4.5,10.2c-0.4,2.9,0,5.9,0.9,8.7l1.1,3.2
		c0.4,1.2,1.3,2.1,2.5,2.6l45.5,19.8l19.8,8.6c13.6,6,29,6.5,43,1.5l26.7-9.4C485.6,478.6,501.5,455.3,500.5,429.6z M382.7,446.7
		c0.3-0.2,0.5-0.3,0.8-0.5c0,0,0.1-0.1,0.1-0.1c2.9-2.1,4.9-5.4,5.4-9.3c0.3-2.1,0-4.2-0.7-6.2l-40.2-113.9
		c-0.8-2.3-0.7-4.7,0.3-6.8c1-2.1,2.8-3.8,5.2-4.7c4.7-1.7,9.8,0.8,11.5,5.5l22.6,63.8c0.8,2.3,3.4,3.6,5.8,2.8
		c0.9-0.3,1.6-0.8,2.1-1.5c0.9-1.2,1.2-2.8,0.7-4.3l-1.5-4.2c-0.8-2.3-0.7-4.7,0.3-6.8c1-2.1,2.8-3.8,5.2-4.7
		c4.7-1.7,9.8,0.8,11.5,5.5l1.5,4.2c0.9,2.3,3.5,3.5,5.9,2.5c0.7-0.3,1.4-0.8,1.8-1.4c0.9-1.1,1.3-2.7,0.8-4.1v-0.1
		c-0.9-2.6-0.5-5.4,0.8-7.6c1-1.7,2.7-3.1,4.7-3.9c4.7-1.7,9.8,0.8,11.5,5.5l4.5,12.8c0.8,2.3,3.4,3.6,5.8,2.8
		c0.9-0.3,1.6-0.8,2.1-1.5c0.9-1.2,1.2-2.8,0.7-4.3c-0.8-2.3-0.7-4.7,0.3-6.8c1-2.1,2.8-3.8,5.2-4.7c4.7-1.7,9.8,0.8,11.5,5.5
		l19.5,55.3c0.9,2.5,1.5,5,2,7.5c4.4,23.8-8.9,47.7-32.3,56l-26.7,9.4c-11.8,4.2-24.9,3.7-36.4-1.3l-63.5-27.7L331,458
		c-1.4-3.9-0.2-8.1,2.6-10.7c0.1-0.1,0.3-0.2,0.4-0.3c0.1-0.1,0.2-0.1,0.3-0.2c0.9-0.7,1.8-1.2,2.9-1.6c1.5-0.5,3.1-0.7,4.6-0.5
		l32.1,4C377.1,449,380.2,448.2,382.7,446.7z"/>
</g>
</svg>
