<svg xmlns="http://www.w3.org/2000/svg" width="70" height="24" viewBox="0 0 70 24">
    <g fill="#ADA8A8" fill-rule="evenodd">
        <g>
            <path d="M1.318 6.965h-.054c-.693 0-1.259.558-1.259 1.239v5.395c0 .684.566 1.24 1.259 1.24h.055c.693 0 1.258-.558 1.258-1.24V8.204c-.001-.681-.567-1.24-1.26-1.24zM2.577 15.935c0 .596.497 1.08 1.105 1.08h1.182v2.77c0 .65.542 1.18 1.203 1.18h.051c.664 0 1.205-.53 1.205-1.18v-2.77h1.65v2.77c0 .65.544 1.18 1.205 1.18h.051c.664 0 1.204-.53 1.204-1.18v-2.77h1.182c.608 0 1.105-.484 1.105-1.08V7.84H2.577v8.095zM10.899 2.591l.932-1.415c.06-.089.033-.21-.059-.269-.09-.059-.214-.035-.273.057l-.967 1.464c-.725-.292-1.534-.456-2.39-.456-.855 0-1.663.164-2.39.456L4.789.964C4.729.872 4.604.848 4.512.907c-.091.058-.118.18-.058.27l.933 1.414c-1.682.81-2.816 2.338-2.816 4.09 0 .108.007.214.017.319h11.11c.01-.105.016-.211.016-.319 0-1.752-1.135-3.28-2.815-4.09zM5.57 5.25c-.236 0-.428-.195-.428-.438s.192-.437.428-.437c.238 0 .429.194.429.437s-.192.438-.429.438zm5.144 0c-.237 0-.43-.195-.43-.438s.193-.437.43-.437.428.194.428.437-.19.438-.428.438zM15.89 6.965h-.053c-.693 0-1.26.558-1.26 1.239v5.395c0 .684.568 1.24 1.26 1.24h.053c.694 0 1.258-.558 1.258-1.24V8.204c0-.681-.566-1.24-1.259-1.24z" transform="translate(4 1)"/>
        </g>
        <text font-family="GothamBold, Gotham Bold" font-size="11" font-weight="bold">
            <tspan x="24.28" y="15">android</tspan>
        </text>
    </g>
</svg>
