<svg xmlns="http://www.w3.org/2000/svg" width="155" height="70" viewBox="0 0 155 70">
    <g fill="none" fill-rule="evenodd">
        <path fill="#EEE" d="M0 0H155V70H0z"/>
        <g fill-rule="nonzero">
            <g fill="#666">
                <path d="M8.644 17.331c-4.928 0-8.593-3.801-8.593-8.61V8.67C.051 3.912 3.64.009 8.781.009c3.16 0 5.048 1.05 6.603 2.588l-2.34 2.699c-1.29-1.17-2.606-1.888-4.28-1.888-2.828 0-4.86 2.35-4.86 5.22v.05c0 2.87 1.981 5.262 4.86 5.262 1.913 0 3.083-.769 4.399-1.965l2.349 2.366c-1.726 1.845-3.64 2.99-6.868 2.99zM17.254 17.049L17.254.299 20.936.299 20.936 13.701 29.289 13.701 29.289 17.049zM31.032 17.049L31.032.299 34.713.299 34.713 17.049zM45.561 17.331c-4.928 0-8.593-3.801-8.593-8.61V8.67c0-4.758 3.588-8.661 8.73-8.661 3.16 0 5.048 1.05 6.603 2.588l-2.34 2.699c-1.29-1.17-2.606-1.888-4.28-1.888-2.827 0-4.86 2.35-4.86 5.22v.05c0 2.87 1.981 5.262 4.86 5.262 1.913 0 3.083-.769 4.399-1.965l2.349 2.366c-1.726 1.845-3.639 2.99-6.868 2.99zM64.985 17.049L59.792 9.917 57.853 11.924 57.853 17.041 54.171 17.041 54.171.299 57.853.299 57.853 7.619 64.652.299 69.102.299 62.286 7.406 69.418 17.049z" transform="translate(36 16)"/>
            </g>
            <g fill="#ADA8A8">
                <path d="M5.339 10.814c-3.058 0-5.33-2.358-5.33-5.339V5.45C.009 2.494 2.238.077 5.424.077c1.956 0 3.135.649 4.091 1.606L8.063 3.357c-.803-.726-1.614-1.17-2.656-1.17-1.751 0-3.015 1.452-3.015 3.237v.026c0 1.776 1.23 3.263 3.015 3.263 1.187 0 1.913-.479 2.733-1.213l1.452 1.469c-1.067 1.127-2.255 1.845-4.253 1.845zM15.426 10.814c-3.203 0-5.5-2.392-5.5-5.339V5.45c0-2.956 2.331-5.373 5.534-5.373 3.204 0 5.501 2.392 5.501 5.338v.026c0 2.955-2.332 5.373-5.535 5.373zM18.57 5.44c0-1.777-1.307-3.263-3.144-3.263-1.836 0-3.117 1.452-3.117 3.237v.026c0 1.777 1.306 3.263 3.143 3.263 1.836 0 3.118-1.452 3.118-3.237V5.44zM22.251 10.634L22.251.248 24.54.248 24.54 8.559 29.716 8.559 29.716 10.634zM30.69 10.634L30.69.248 32.979.248 32.979 8.559 38.156 8.559 38.156 10.634zM39.129 10.634L39.129.248 46.962.248 46.962 2.281 41.401 2.281 41.401 4.39 46.296 4.39 46.296 6.423 41.401 6.423 41.401 8.601 47.039 8.601 47.039 10.634zM53.197 10.814c-3.057 0-5.33-2.358-5.33-5.339V5.45c0-2.956 2.23-5.373 5.416-5.373 1.956 0 3.135.649 4.091 1.606l-1.452 1.674c-.803-.726-1.614-1.17-2.656-1.17-1.751 0-3.015 1.452-3.015 3.237v.026c0 1.776 1.23 3.263 3.015 3.263 1.187 0 1.913-.479 2.733-1.213l1.452 1.469c-1.059 1.127-2.246 1.845-4.254 1.845zM63.242 2.357L63.242 10.634 60.953 10.634 60.953 2.357 57.793 2.357 57.793.248 66.394.248 66.394 2.357z" transform="translate(36 16) translate(15.546 21.098)"/>
            </g>
            <path fill="#ADA8A8" d="M11.984 32.322l-1.632-1.675c-.948 1.026-2.041 1.615-3.39 1.615-1.871 0-3.263-1.17-3.263-2.921 0-1.393.922-2.384 2.502-3.007-.709-.829-1.033-1.47-1.033-2.298 0-1.375 1.093-2.477 2.742-2.477 1.452 0 2.52 1.034 2.52 2.358 0 1.35-.932 2.178-2.444 2.707l2.366 2.418c.462-.667.872-1.452 1.248-2.315l.965.444c-.461.974-.931 1.862-1.495 2.605l1.81 1.854-.896.692zM6.876 27.06c-1.375.504-1.982 1.35-1.982 2.238 0 1.127.889 1.973 2.161 1.973.974 0 1.837-.521 2.589-1.35L6.876 27.06zm.99-4.527c-.93 0-1.57.65-1.57 1.512 0 .623.247 1.085 1.033 1.922 1.315-.444 1.999-1.068 1.999-1.982 0-.846-.615-1.452-1.461-1.452z" transform="translate(36 16)"/>
            <g>
                <path fill="#666" d="M9.31 11.002H1.717c-.931 0-1.691-.76-1.691-1.692V1.717c0-.931.76-1.691 1.69-1.691H9.31c.931 0 1.692.76 1.692 1.69V9.31c-.009.94-.76 1.692-1.692 1.692zM1.717.615C1.11.615.615 1.11.615 1.717V9.31c0 .607.495 1.102 1.102 1.102H9.31c.607 0 1.102-.495 1.102-1.102V1.717c0-.607-.495-1.102-1.102-1.102H1.717z" transform="translate(36 16) translate(70.64 5.98)"/>
                <path fill="#ADA8A8" d="M2.665 1.683l6.073 2.383c.3.12.376.512.145.734L7.517 6.082l3.39 3.519c.18.188.172.487-.008.666l-.64.615c-.188.18-.487.17-.667-.008L6.184 7.337 4.81 8.627c-.24.222-.624.12-.726-.188L2.076 2.23c-.111-.358.239-.683.589-.546z" transform="translate(36 16) translate(70.64 5.98)"/>
            </g>
        </g>
    </g>
</svg>
