<svg xmlns="http://www.w3.org/2000/svg" width="155" height="70" viewBox="0 0 155 70">
    <g fill="none" fill-rule="evenodd">
        <path fill="#EEE" d="M0 0H155V70H0z"/>
        <g fill-rule="nonzero">
            <g fill="#606060">
                <path d="M.071 23.233L.071 5.817 13.206 5.817 13.206 9.228 3.881 9.228 3.881 12.762 12.087 12.762 12.087 16.173 3.881 16.173 3.881 19.832 13.331 19.832 13.331 23.242.071 23.242zM27.709 23.233L19.272 12.158 19.272 23.233 15.489 23.233 15.489 5.817 19.024 5.817 27.185 16.537 27.185 5.817 30.969 5.817 30.969 23.233zM42.834 23.358L39.45 23.358 32.416 5.817 36.644 5.817 41.2 18.082 45.756 5.817 49.886 5.817zM51.493 23.233V5.817h3.828v17.416h-3.828zm.32-18.784L54.628.044l3.26 1.421-3.189 2.984h-2.886zM66.893 23.535c-5.373 0-9.227-4.005-9.227-8.952v-.053c0-4.947 3.907-9.006 9.28-9.006 5.374 0 9.228 4.006 9.228 8.952v.054c0 4.946-3.908 9.005-9.28 9.005zm5.276-9.005c0-2.984-2.194-5.471-5.276-5.471s-5.222 2.442-5.222 5.426v.054c0 2.984 2.185 5.47 5.275 5.47 3.082 0 5.223-2.442 5.223-5.426v-.053z" transform="translate(39 10) translate(.444)"/>
            </g>
            <g fill="#ADA8A8">
                <path d="M8.09 15.88C3.323 15.88.037 12.53.037 8.002v-.044C.036 3.606 3.428.036 8.064.036c2.762 0 4.423.746 6.022 2.104l-2.123 2.558c-1.181-.986-2.23-1.554-4.005-1.554-2.452 0-4.397 2.167-4.397 4.77v.044c0 2.797 1.928 4.858 4.636 4.858 1.226 0 2.318-.311 3.17-.924V9.707H7.976V6.794h6.652v6.652c-1.572 1.341-3.739 2.434-6.536 2.434zM26.075 15.613l-3.286-4.902h-2.646v4.902h-3.375V.293h7.007c3.615 0 5.782 1.9 5.782 5.053v.045c0 2.469-1.333 4.023-3.286 4.751l3.739 5.471h-3.935zm.071-10.089c0-1.448-1.003-2.185-2.646-2.185H20.15v4.397h3.41c1.644 0 2.585-.88 2.585-2.167v-.045zM42.905 15.613l-1.403-3.437h-6.475l-1.403 3.437h-3.437L36.75.187h3.109l6.563 15.426h-3.517zM38.27 4.236l-2.034 4.965h4.068l-2.034-4.965zM52.666 3.401L52.666 15.613 49.3 15.613 49.3 3.401 44.637 3.401 44.637.293 57.328.293 57.328 3.401zM58.971 15.613L58.971.293 62.337.293 62.337 15.613zM70.526 15.835c-2.318 0-4.663-.808-6.501-2.451l1.989-2.39c1.377 1.138 2.824 1.857 4.574 1.857 1.376 0 2.211-.55 2.211-1.448v-.035c0-.853-.524-1.288-3.082-1.945-3.081-.79-5.08-1.643-5.08-4.68v-.045c0-2.78 2.23-4.618 5.365-4.618 2.229 0 4.138.702 5.692 1.945l-1.75 2.54c-1.358-.941-2.69-1.51-3.987-1.51-1.288 0-1.971.595-1.971 1.332v.045c0 1.003.657 1.332 3.303 2.016 3.109.808 4.858 1.927 4.858 4.6v.045c0 3.037-2.318 4.742-5.621 4.742z" transform="translate(39 10) translate(.622 27.532)"/>
            </g>
            <path fill="#606060" d="M76.414 44.62H3.677c-.986 0-1.99-.063-2.975 0H.568c-.683 0-.683 1.065 0 1.065h12.923c-.453.426-.738 1.03-.738 1.696 0 1.297 1.048 2.345 2.345 2.345 1.297 0 2.345-1.048 2.345-2.345 0-.666-.285-1.27-.737-1.696h42.94c-.453.426-.737 1.03-.737 1.696 0 1.297 1.048 2.345 2.345 2.345 1.296 0 2.344-1.048 2.344-2.345 0-.666-.284-1.27-.737-1.696H73.305c.986 0 1.99.062 2.976 0h.133c.693 0 .693-1.066 0-1.066zm-61.298 4.12c-.746 0-1.35-.604-1.35-1.35 0-.746.604-1.35 1.35-1.35.746 0 1.35.604 1.35 1.35 0 .737-.613 1.35-1.35 1.35zm46.147 0c-.747 0-1.35-.604-1.35-1.35 0-.746.603-1.35 1.35-1.35.746 0 1.35.604 1.35 1.35 0 .737-.604 1.35-1.35 1.35z" transform="translate(39 10)"/>
        </g>
    </g>
</svg>
