<svg xmlns="http://www.w3.org/2000/svg" width="24" height="24" viewBox="0 0 24 24">
    <path fill="#ADA8A8" fill-rule="evenodd" d="M18.188 18.639H5.813c-.285 0-.516-.229-.516-.51v-7.661h2.062C7.091 10.85 7 11.565 7 12.018c0 2.736 2.252 4.96 5.02 4.96 2.767 0 5.019-2.224 5.019-4.96 0-.453-.065-1.156-.398-1.55h2.062v7.66c0 .282-.23.511-.515.511m-6.11-9.703c1.754 0 3.174 1.404 3.174 3.135 0 1.732-1.42 3.136-3.173 3.136-1.752 0-3.173-1.404-3.173-3.136 0-1.731 1.42-3.135 3.173-3.135m4.046-3.064h1.547c.284 0 .515.228.515.51v1.532c0 .282-.23.511-.515.511h-1.547c-.285 0-.516-.229-.516-.51V6.381c0-.282.231-.51.516-.51m2.164-2.043H5.71c-1.083 0-1.961.868-1.961 1.938v12.466c0 1.07.878 1.938 1.961 1.938H18.29c1.083 0 1.961-.868 1.961-1.938V5.767c0-1.07-.878-1.938-1.961-1.938"/>
</svg>
