<svg xmlns="http://www.w3.org/2000/svg" width="186" height="40" viewBox="0 0 186 40">
    <path fill="#FFF" fill-rule="evenodd" d="M160.859 12.857c5.838 0 10.57 4.487 10.57 10.023 0 5.535-4.732 10.02-10.57 10.02-3.808 0-7.14-1.904-9.002-4.76-1.856 2.856-5.199 4.76-8.999 4.76-3.8 0-7.137-1.904-8.998-4.76-1.86 2.856-5.196 4.76-9 4.76-2.873 0-5.475-1.085-7.378-2.847V40h-3.196V22.88c0-5.536 4.736-10.023 10.575-10.023 3.803 0 7.138 1.907 8.999 4.764 1.861-2.857 5.197-4.764 8.998-4.764 3.8 0 7.143 1.906 9 4.764 1.861-2.858 5.193-4.764 9-4.764zm-91.532 1.429l6.385 14.947 6.386-14.947h3.616L77.78 32.857h-4.134l-7.932-18.571h3.613zM3.059 0v27.8c0 1.008.512 2.072 2.009 2.072h16.36v2.985H3.635c-2.03 0-3.634-1.65-3.634-3.62V0h3.059zM28.54 8.571c.619 0 1.459.631 1.459 1.583v22.703h-3.015l-.003-18.355V12.88c0-.784-.308-1.36-1.263-1.36h-8.575l-.001-2.949zm3.965-4.285c1.05 0 1.78.77 1.78 1.767l-.001.108c-.01 2.15 0 26.696 0 26.696h-3.028V9.111c0-1.043-.464-1.85-1.759-1.85H17.143V4.287h15.363zM34.94 0c2.029 0 3.631 1.653 3.631 3.622v29.235h-3.057v-27.8c0-1.006-.514-2.07-2.01-2.07H17.142V0H34.94zM24.203 12.857c1.087 0 1.511.683 1.511 1.46v18.54h-2.97v-15.94c0-.58-.268-1.134-1.11-1.134h-4.491v-2.926h7.06zm90.083 1.429v2.942h-2.552c-.972 0-1.709.803-1.709 1.801l.003 13.828h-2.885V18.543c0-2.35 1.817-4.257 4.118-4.257h3.025zm-50 0v18.571h-2.857V14.286h2.857zm30.717-1.429c5.904 0 10.711 4.485 10.711 10v.589H87.318c.39 3.802 3.701 6.603 7.685 6.603 3.278 0 6.185-1.939 7.266-4.824h3.138c-1.17 4.502-5.425 7.632-10.404 7.632-5.909 0-10.717-4.488-10.717-10 0-5.515 4.808-10 10.717-10zm80.711-5.714v25.714h-2.857V7.143h2.857zm-125.368 0V28.04c.01 1.04.637 1.851 1.875 1.851H60v2.966l-10.72-.001c-1.352 0-2.137-.792-2.137-1.938V7.143h3.203zm110.513 8.712c-4.09 0-7.41 3.153-7.41 7.025 0 3.872 3.32 7.025 7.41 7.025 4.085 0 7.407-3.153 7.407-7.025 0-3.872-3.322-7.025-7.407-7.025zm-18 0c-4.086 0-7.412 3.153-7.412 7.025 0 3.872 3.326 7.025 7.411 7.025 4.088 0 7.413-3.153 7.413-7.025 0-3.872-3.325-7.025-7.413-7.025zm-17.998 0c-4.086 0-7.406 3.153-7.406 7.025 0 3.872 3.32 7.025 7.406 7.025 4.088 0 7.408-3.153 7.408-7.025 0-3.872-3.32-7.025-7.408-7.025zM7.315 0v23.747c0 1.042.462 1.849 1.76 1.849h12.354v2.975H6.066c-1.052 0-1.78-.77-1.78-1.766.01-1.17 0-26.805 0-26.805h3.029zm4.271 0l.001 4.387.001 3.452.002 8.117v4.023c0 .784.31 1.359 1.262 1.359h8.577v2.948H10.03c-.619 0-1.459-.63-1.459-1.582V0zm83.417 15.668c-3.27 0-6.248 1.939-7.331 4.966h14.651c-1.085-3.027-4.051-4.966-7.32-4.966zM15.826 0v15.942c0 .58.267 1.133 1.111 1.133h4.492V20h-7.063c-1.087 0-1.509-.68-1.509-1.458V0h2.97zM182.14 7.143c1.187 0 2.147.95 2.147 2.137s-.96 2.149-2.147 2.149c-1.182 0-2.139-.962-2.139-2.149s.957-2.137 2.139-2.137zm0 .351c-.985 0-1.78.797-1.78 1.786 0 .988.795 1.792 1.78 1.792.986 0 1.791-.804 1.791-1.792 0-.99-.805-1.786-1.791-1.786zm.077.67c.573 0 .762.356.762.602 0 .375-.262.643-.65.664v.016c.197.067.34.266.53.572l.28.449h-.449l-.207-.36c-.291-.516-.4-.618-.681-.618h-.227v.978h-.373V8.165h1.015zM64.286 7.144V10h-2.857V7.143h2.857zm117.89 1.335h-.602v.692h.536c.289 0 .477-.11.477-.349 0-.21-.171-.343-.411-.343z"/>
</svg>
