<svg xmlns="http://www.w3.org/2000/svg" width="24" height="24" viewBox="0 0 24 24">
    <path fill="#ADA8A8" fill-rule="evenodd" d="M18.055 4.05C16.74 2.727 14.923 2 12.935 2 9.9 2 8.034 3.304 7.002 4.398 5.729 5.746 5 7.536 5 9.31c0 2.227.889 3.936 2.377 4.571.1.043.2.065.299.065.314 0 .562-.215.648-.56.05-.199.167-.688.218-.9.108-.419.02-.62-.216-.912-.43-.534-.63-1.165-.63-1.986 0-2.44 1.733-5.032 4.945-5.032 2.55 0 4.133 1.518 4.133 3.962 0 1.542-.317 2.97-.893 4.022-.4.73-1.103 1.601-2.184 1.601-.467 0-.886-.2-1.15-.551-.251-.332-.333-.76-.233-1.206.114-.504.269-1.03.419-1.538.273-.928.532-1.805.532-2.505 0-1.196-.702-2-1.747-2-1.328 0-2.368 1.413-2.368 3.217 0 .884.225 1.546.326 1.8-.167.743-1.16 5.158-1.35 5.99-.108.486-.765 4.325.322 4.63 1.221.345 2.313-3.394 2.424-3.816.09-.344.405-1.643.598-2.441.59.595 1.539.997 2.463.997 1.741 0 3.307-.821 4.41-2.312C19.41 12.959 20 10.943 20 8.73c0-1.73-.71-3.437-1.945-4.68z"/>
</svg>
