<svg xmlns="http://www.w3.org/2000/svg" xmlns:xlink="http://www.w3.org/1999/xlink" width="270" height="168" viewBox="0 0 270 168">
    <defs>
        <linearGradient id="a" x1="50%" x2="50%" y1="0%" y2="100%">
            <stop offset="0%" stop-color="#969696"/>
            <stop offset="43.079%" stop-color="#A7A7A7"/>
            <stop offset="100%" stop-color="#5D5D5D"/>
        </linearGradient>
        <linearGradient id="b" x1="50%" x2="50%" y1="0%" y2="100%">
            <stop offset="0%" stop-color="#969696"/>
            <stop offset="15.927%" stop-color="#BDBDBD"/>
            <stop offset="100%" stop-color="#5D5D5D"/>
        </linearGradient>
        <linearGradient id="c" x1="49.58%" x2="50.509%" y1="-2.006%" y2="100%">
            <stop offset="0%" stop-color="#222357"/>
            <stop offset="100%" stop-color="#254AA5"/>
        </linearGradient>
        <linearGradient id="d" x1="50%" x2="50%" y1="4.561%" y2="97.433%">
            <stop offset="0%" stop-color="#AAA"/>
            <stop offset="100%" stop-color="#8B8A88"/>
        </linearGradient>
        <rect id="e" width="36" height="25" rx="3.53"/>
    </defs>
    <g fill="none" fill-rule="evenodd">
        <path fill="#676767" fill-rule="nonzero" d="M14.942 167.371C6.688 167.371 0 161.633 0 154.551V12.82C0 5.738 6.688 0 14.942 0h239.51c8.253 0 14.941 5.738 14.941 12.82v141.732c0 7.081-6.688 12.82-14.942 12.82H14.942z"/>
        <g opacity=".398">
            <path fill="url(#a)" d="M12.308 42.445c0-3.889 3.073-7.015 7.122-7.015H30.07V23.97H17.459C7.867 23.969.29 31.4.29 40.552v55.754h12.029l-.01-53.86z" transform="translate(11 42)"/>
            <path fill="url(#b)" d="M96.019 62.319c0 14.817-12.597 26.883-28.106 26.883-15.499 0-28.096-12.066-28.096-26.883 0-14.813 12.597-26.88 28.096-26.88 15.509 0 28.106 12.067 28.106 26.88zm68.293 0c0 14.817-12.612 26.883-28.12 26.883-15.499 0-28.115-12.066-28.115-26.883 0-14.813 12.616-26.88 28.115-26.88 15.508 0 28.12 12.067 28.12 26.88zm68.27 0c0 14.817-12.603 26.883-28.102 26.883-15.513 0-28.11-12.066-28.11-26.883 0-14.813 12.597-26.88 28.11-26.88 15.5 0 28.101 12.067 28.101 26.88zm-204.788 63.3H39.92V89.77c7.22 6.738 17.092 10.895 27.993 10.895 14.43 0 27.081-7.287 34.14-18.215 7.063 10.928 19.719 18.215 34.139 18.215 14.415 0 27.096-7.287 34.14-18.215 7.062 10.928 19.704 18.215 34.148 18.215 22.15 0 40.1-17.165 40.1-38.345 0-21.181-17.95-38.35-40.1-38.35-14.444 0-27.086 7.291-34.149 18.228-7.043-10.937-19.724-18.228-34.14-18.228-14.42 0-27.075 7.296-34.138 18.228-7.059-10.932-19.71-18.228-34.14-18.228-22.15 0-40.12 17.169-40.12 38.35v63.3z" transform="translate(11 42)"/>
            <path fill="url(#a)" d="M252.064 98.098H259V.695h-6.936z" transform="translate(11 42)"/>
        </g>
        <g fill="#FFF">
            <path d="M31.845 34.454h-5.67c-.63 0-.835-.367-.835-.867l-.003-12.738h-1.993v14.476c0 .607.555 1.008.965 1.008h7.536v-1.88z"/>
            <path d="M31.845 37.05v1.884H21.777c-.69 0-1.166-.487-1.166-1.118.006-.74 0-16.968 0-16.968h1.985V35.88c0 .66.303 1.17 1.153 1.17h8.096z"/>
            <path d="M17.859 20.848h1.997v17.498c0 .634.334 1.303 1.31 1.303h10.68v1.88H20.23c-1.325 0-2.372-1.04-2.372-2.28v-18.4z"/>
            <path d="M26.084 20.848h1.996v10.275c0 .373.179.73.747.73h3.018v1.885h-4.747c-.73 0-1.014-.438-1.014-.94v-11.95z"/>
            <path d="M28.836 27.923h5.67c.63 0 .834.367.834.867l.003 12.737h1.993V27.052c0-.607-.555-1.009-.964-1.009h-7.537v1.88z"/>
            <path d="M28.835 25.326v-1.884h10.068c.689 0 1.167.488 1.167 1.119-.007.74 0 16.967 0 16.967h-1.985V26.497c0-.66-.304-1.17-1.153-1.17h-8.097z"/>
            <path d="M42.82 41.528h-1.995V24.031c0-.634-.335-1.303-1.312-1.303H28.835v-1.88H40.45c1.325 0 2.37 1.04 2.37 2.28v18.4z"/>
            <path d="M34.597 41.528H32.6V31.255c0-.374-.18-.731-.746-.731h-3.018v-1.886h4.745c.73 0 1.016.44 1.016.94v11.95zM93.753 32.213c0-.693.549-1.251 1.271-1.251h1.898v-2.045h-2.25c-1.71 0-3.063 1.326-3.063 2.959v9.946h2.146l-.002-9.609zM60.405 41.82h2.144V28.88h-2.144zM108.796 35.096c0 2.644-2.247 4.796-5.013 4.796-2.765 0-5.012-2.152-5.012-4.796 0-2.642 2.247-4.795 5.012-4.795 2.766 0 5.013 2.153 5.013 4.795zm12.183 0c0 2.644-2.25 4.796-5.016 4.796-2.765 0-5.016-2.152-5.016-4.796 0-2.642 2.251-4.795 5.016-4.795 2.767 0 5.016 2.153 5.016 4.795zm12.179 0c0 2.644-2.248 4.796-5.013 4.796-2.767 0-5.015-2.152-5.015-4.796 0-2.642 2.248-4.795 5.015-4.795 2.765 0 5.013 2.153 5.013 4.795zM96.626 46.783h2.163v-6.79a7.297 7.297 0 0 0 4.994 1.944c2.574 0 4.83-1.3 6.09-3.25 1.26 1.95 3.517 3.25 6.09 3.25 2.572 0 4.834-1.3 6.09-3.25 1.26 1.95 3.515 3.25 6.092 3.25 3.951 0 7.153-3.062 7.153-6.84 0-3.779-3.202-6.842-7.153-6.842-2.577 0-4.832 1.3-6.092 3.252-1.256-1.951-3.518-3.252-6.09-3.252-2.573 0-4.83 1.302-6.09 3.252-1.26-1.95-3.516-3.252-6.09-3.252-3.952 0-7.157 3.063-7.157 6.841v11.687zM88.235 33.592h-9.682c.716-2.05 2.685-3.362 4.845-3.362 2.16 0 4.12 1.313 4.837 3.362zm2.039 3.108h-2.075c-.714 1.952-2.635 3.265-4.8 3.265-2.634 0-4.822-1.896-5.08-4.47h12.157v-.399c0-3.732-3.176-6.768-7.078-6.768-3.905 0-7.082 3.036-7.082 6.768 0 3.732 3.177 6.77 7.082 6.77 3.29 0 6.102-2.12 6.876-5.166zM71.59 41.82l5.37-12.94h-2.447l-4.321 10.415-4.321-10.414h-2.445l5.368 12.94zM136.36 41.82h2.146V24.446h-2.146zM53.03 24.446v14.12c.007.701.431 1.25 1.27 1.25h5.27v2.004l-7.262-.001c-.916 0-1.448-.535-1.448-1.31V24.447h2.17zM142.37 25.716c.191 0 .315-.07.315-.22 0-.133-.113-.217-.27-.217h-.398v.437h.353zm-.599-.634h.67c.377 0 .502.224.502.379 0 .236-.173.405-.428.418v.01c.13.042.224.168.349.36l.185.283h-.296l-.137-.226c-.192-.325-.264-.39-.45-.39h-.149v.616h-.246v-1.45zm-.555.703c0 .622.524 1.129 1.174 1.129.65 0 1.181-.507 1.181-1.129 0-.624-.53-1.125-1.181-1.125-.65 0-1.174.501-1.174 1.125zm-.237 0c0-.748.632-1.347 1.41-1.347.783 0 1.416.599 1.416 1.347 0 .747-.633 1.353-1.415 1.353-.78 0-1.41-.606-1.41-1.353z"/>
        </g>
        <path fill="#FFF" d="M60.403 30.521h2.146v-2.075h-2.146z"/>
        <rect width="60" height="30" x="195" y="127" fill="#FFF" rx="1"/>
        <g fill="url(#c)" fill-rule="nonzero" transform="translate(203 136)">
            <path d="M22.756 4.476c-.025 1.95 1.764 3.038 3.111 3.685 1.385.664 1.85 1.09 1.845 1.684-.01.908-1.105 1.31-2.129 1.325-1.786.027-2.825-.475-3.65-.856l-.644 2.967c.829.377 2.363.705 3.953.719 3.734 0 6.177-1.816 6.19-4.632.015-3.574-5.016-3.771-4.982-5.369.012-.484.48-1 1.509-1.132.508-.067 1.913-.118 3.505.605l.625-2.87A9.654 9.654 0 0 0 28.762 0c-3.514 0-5.986 1.84-6.006 4.476M38.094.247a1.62 1.62 0 0 0-1.513.994l-5.334 12.548h3.732l.742-2.022h4.56l.43 2.022H44L41.13.247h-3.036m.522 3.659l1.077 5.085h-2.95l1.873-5.085M18.232.247L15.29 13.79h3.555L21.786.247h-3.554m-5.26 0l-3.7 9.217-1.498-7.837c-.176-.875-.87-1.38-1.64-1.38H.085L0 .641c1.242.265 2.653.693 3.508 1.152.523.28.672.524.844 1.19l2.836 10.806h3.757L16.705.247h-3.733"/>
        </g>
        <g>
            <g transform="translate(24 56)">
                <use fill="url(#d)" xlink:href="#e"/>
                <rect width="35.475" height="24.475" x=".263" y=".263" stroke="#4A4331" stroke-width=".525" rx="3.53"/>
            </g>
            <path stroke="#4A4331" stroke-width=".683" d="M24 64.286h12.793c1.96 0 2.94-.638 2.94-1.915 0-1.277-.98-1.916-2.94-1.916-.576-.154-.864-.483-.864-.986v-2.665c.007-.387.295-.58.864-.58M24 72.518h12.793c1.96 0 2.94.638 2.94 1.915 0 1.277-.98 1.915-2.94 1.915-.576.155-.864.484-.864.987v2.868c.007.387.295.58.864.58M59.68 72.518H46.885c-1.96 0-2.94.638-2.94 1.915 0 1.277.98 1.915 2.94 1.915.576.155.864.484.864.987v2.868c-.007.387-.295.58-.864.58M36.106 64.426v8.063M48.088 72.498v-7.42c.283-.6.801-.884 1.556-.854.755.03 4.138.03 10.148 0"/>
        </g>
        <g fill="#FFF" transform="translate(162 21)">
            <circle cx="37" cy="11" r="1"/>
            <path d="M8.334 2.465L10.18 2a89.177 89.177 0 0 1-1.845 5.697c3.19-3.488 6.53-5.232 10.024-5.232 2.774.33 3.364 2.075 1.769 5.232-3.066 4.296-7.277 6.013-12.63 5.153l.837-.826c4.17 1.37 7.51-.073 10.024-4.327 1.255-3.43.42-4.864-2.506-4.302-4.388.842-7.637 5.087-9.31 8.225C5.428 13.713 4.107 16.84 2.58 21H0c2.803-5.147 4.829-9.108 6.077-11.883 1.247-2.775 2-4.992 2.257-6.652z"/>
            <path d="M6 18.126c.591-.672 1.162-1.32 1.713-1.943-.473-.829-.329-1.408.432-1.737 1.14-.495 1.22.877.8 1.307 1.39.056 1.812.466 1.265 1.228a52.923 52.923 0 0 1-1.99 2.58c-.36.918-.119 1.2.725.847 1.265-.53 2.543-1.696 3.938-2.96 1.394-1.265 3.615-2.125 4.39-1.695.518.287.26.852-.775 1.694l-3.155 1.801c-.373 1.171.059 1.558 1.297 1.16 1.239-.397 3.094-1.806 5.566-4.225h.81l-1.233 2.19c2.137-2.034 3.519-2.907 4.146-2.62.628.287.628 1.078 0 2.373 1.833-1.869 3.21-2.66 4.128-2.373.919.287.775 1.16-.43 2.62-1.227 1.357-1.461 2.035-.705 2.035.757 0 2.618-1.408 5.585-4.225h1.345l-2.641 3.378c-.241.808.039 1.09.84.847.8-.243 2.56-1.651 5.28-4.225h1.275l-2.49 3.378c-.362.75-.121 1.032.724.847.845-.184 2.273-1.592 4.282-4.225h1.38l-2.793 3.752c-.265.631.008.789.817.473 1.215-.473 3.217-1.87 5.466-4.225h1.039l-1.37 1.943c2.135-1.869 3.595-2.66 4.381-2.373.786.287.645 1.078-.423 2.373 2.417-2.124 3.888-2.915 4.414-2.373.526.542.383 1.333-.43 2.373-1.1 1.105-1.498 1.866-1.198 2.282.3.416 1.471-.262 3.513-2.036 2.076-5.516 5.928-9.525 11.556-12.027 2.064-.65 3.458-.382 4.182.8l.306-.478c.08.262.034.55-.139.866.17 2.081-.292 3.753-1.389 5.017-1.096 1.264-1.782 1.86-2.06 1.787-.246-.05-.333-.257-.26-.625.11-.551 1.199-3.947 2.955-5.796-.119-1.188-.883-1.673-2.293-1.455-2.115.327-5.103 2.504-6.311 3.612-1.208 1.108-4.23 3.772-6.547 10.81-.395 2.545.21 4.465 1.815 5.76 2.408 1.944 9.922-.422 12.701-4.346-2.434 3.169-5.613 5.067-9.537 5.695-4.716.175-6.515-2.636-5.397-8.43-1.429 1.18-2.574 1.77-3.435 1.77-1.292 0-1.687-1.208-.96-2.084a26.066 26.066 0 0 1 1.656-1.8c.66-.662.66-.993 0-.993s-1.84.931-3.538 2.793l-1.448 1.636H46.59l2.634-3.903c.22-.673-.09-.763-.931-.271-1.261.737-2.752 1.878-4.153 4.174h-1.453l1.453-2.512c-1.986 1.782-3.699 2.769-5.139 2.96-.782.087-1.043-.302-.784-1.167-1.313 1.112-2.548 1.352-3.704.719-.413-.581-.176-1.3.71-2.154-2.103 2.034-3.69 2.902-4.763 2.603-1.072-.3-1.154-1.167-.243-2.603-2.064 2.034-3.665 2.902-4.804 2.603-1.139-.3-.902-1.286.712-2.96 1.064-1.097 1.33-1.736.798-1.918-.532-.181-1.807.854-3.825 3.106l-1.375 1.772h-1.061L23.097 17c.288-.532.16-.676-.386-.433a4.57 4.57 0 0 0-1.49 1.088c-.704.7-1.767 1.925-3.19 3.678h-1.575l1.98-2.96c-2.154 1.888-3.918 2.875-5.292 2.96-1.374.085-1.868-.67-1.48-2.266-2.32 1.876-3.93 2.569-4.831 2.078-.902-.491-.496-1.655 1.218-3.49l.764-.824c.3-.367.3-.55 0-.55-.45 0-.688.024-.982.429-.197.27-.67.856-1.42 1.759L6 18.126zm65.224-9.7c-1.22 1.252-2.11 2.995-2.668 5.23-.04.27.036.315.227.134.285-.273 1.367-1.083 2.19-2.778.243-.566.365-1.34.365-2.32 0-.28-.038-.368-.114-.267zm-57.561 9.988c1.74-.745 2.61-1.298 2.61-1.659 0-.36-.27-.458-.81-.292a4.442 4.442 0 0 0-1.8 1.951z"/>
            <path d="M70.672 16.812l.965-.925h1.164l-2.703 3.463c-.343.408-.42.685-.23.832.19.146.432.168.725.066 1.708-.687 3.445-2.063 5.21-4.128-.34-.22-.372-.586-.093-1.101.35-.543.769-.742 1.255-.599.73.215.18.917.117 1.02a.465.465 0 0 0-.06.252h.928c.945.074.999.591.16 1.55l-1.652 2.041c-.288.299-.407.579-.357.84.05.263.357.282.922.059 2.162-.988 2.619-1.787 4.368-3.161 1.166-.917 2.191-1.36 3.076-1.33.344 0 .562.215.655.643 4.147-6.82 8.692-11.346 10.174-12.33.987-.657 1.67-.99 2.046-.999.374-.063 1.012.47.411 1.767-.4.866-1.66 2.288-3.779 4.268-2.47 2.168-4.156 3.627-5.06 4.376-.905.749-1.448 1.283-1.63 1.603l-2.683 4.174c-.229.294-.303.57-.22.827.081.258.328.292.741.104 1.197-.52 2.292-1.316 3.284-2.39l.29.428c-1.326 1.147-2.54 1.97-3.641 2.472-.405.212-1.368.355-1.875.27-.338-.058-.421-.393-.25-1.005-.891.727-1.713 1.09-2.466 1.09-.752 0-1.09-.404-1.01-1.213l.098-.704c-.436.368-1.017.76-1.742 1.176-1.491.8-2.494.928-3.01.386-.514-.543-.329-1.226.557-2.051.981-.85 1.577-1.44 1.787-1.77.211-.332.151-.491-.179-.479h-.73c-1.995 2.049-3.55 3.353-4.663 3.914-1.114.561-2.017.808-2.711.741-.33 0-.46-.323-.395-.969-.827.722-1.707 1.045-2.64.97-.914-.326-1.07-1.069-.467-2.229 1.643-2.168 3.598-3.017 4.51-3.017.607 0 .875.356.803 1.068zm-.643-.523c-.468-.147-1.044.117-1.726.792-1.023 1.011-2.039 2.16-1.732 2.78.307.621 1.122.466 2.638-1.177 1.01-1.095 1.284-1.893.82-2.395zm14.361-.04c-.468-.145-1.043.118-1.725.793-1.023 1.011-2.04 2.16-1.733 2.78.307.621 1.122.466 2.638-1.177 1.01-1.095 1.284-1.893.82-2.395zm4.189-3.144c3.42-2.692 6.083-5.454 7.991-8.285.238-.452.294-.801.147-.928-.098-.084-.293-.042-.585.127-1.616.977-4.134 4.006-7.553 9.086z"/>
        </g>
    </g>
</svg>
