<svg xmlns="http://www.w3.org/2000/svg" width="270" height="168" viewBox="0 0 270 168">
    <defs>
        <linearGradient id="a" x1="100%" x2="0%" y1="50%" y2="50%">
            <stop offset="0%" stop-color="#FF58E3" stop-opacity=".387"/>
            <stop offset="100%" stop-color="#FF90D4"/>
        </linearGradient>
        <linearGradient id="b" x1="50%" x2="50%" y1="0%" y2="100%">
            <stop offset="0%" stop-color="#FFF"/>
            <stop offset="24.393%" stop-color="#ECECEC"/>
            <stop offset="42.637%" stop-color="#FFF"/>
            <stop offset="59.786%" stop-color="#EDEDED"/>
            <stop offset="83.223%" stop-color="#FFF"/>
            <stop offset="100%" stop-color="#DFDFDF"/>
        </linearGradient>
        <filter id="c" width="106.1%" height="128.6%" x="-3.1%" y="-10.2%" filterUnits="objectBoundingBox">
            <feOffset dy="2" in="SourceAlpha" result="shadowOffsetOuter1"/>
            <feGaussianBlur in="shadowOffsetOuter1" result="shadowBlurOuter1" stdDeviation="2"/>
            <feColorMatrix in="shadowBlurOuter1" result="shadowMatrixOuter1" values="0 0 0 0 0 0 0 0 0 0 0 0 0 0 0 0 0 0 0.282325634 0"/>
            <feMerge>
                <feMergeNode in="shadowMatrixOuter1"/>
                <feMergeNode in="SourceGraphic"/>
            </feMerge>
        </filter>
    </defs>
    <g fill="none" fill-rule="evenodd">
        <path fill="#E10098" fill-rule="nonzero" d="M14.942 167.371C6.688 167.371 0 161.633 0 154.551V12.82C0 5.738 6.688 0 14.942 0h239.51c8.253 0 14.941 5.738 14.941 12.82v141.732c0 7.081-6.688 12.82-14.942 12.82H14.942z"/>
        <g fill="url(#a)" transform="translate(47)">
            <path d="M0 0h2v167H0zM14 0h2v167h-2zM28 0h2v167h-2zM42 0h2v167h-2zM56 0h2v167h-2zM70 0h2v167h-2zM83 0h2v167h-2zM97 0h2v167h-2zM111 0h2v167h-2zM125 0h2v167h-2zM139 0h2v167h-2zM153 0h2v167h-2zM166 0h3v167h-3z" opacity=".495"/>
            <path d="M180 0h3v167h-3z" opacity=".562"/>
            <path d="M194 0h4v167h-4z" opacity=".651"/>
            <path d="M207 0h5v167h-5z" opacity=".53"/>
        </g>
        <rect width="54" height="38" x="200" y="113" fill="url(#b)" rx="5"/>
        <g fill="#FFF" filter="url(#c)" transform="translate(15 17)">
            <path d="M28.315 27.038H17.147c-1.24 0-1.642-.708-1.642-1.675L15.5.746h-3.926v27.975c0 1.174 1.094 1.95 1.9 1.95h14.842v-3.633z"/>
            <path d="M28.315 32.056v3.64H8.488c-1.358 0-2.298-.942-2.298-2.161.013-1.43 0-32.79 0-32.79h3.91v29.049c0 1.275.597 2.262 2.271 2.262h15.944z"/>
            <path d="M.772.745h3.931v33.814c0 1.225.659 2.52 2.583 2.52h21.029v3.63H5.443c-2.61 0-4.671-2.008-4.671-4.403V.745z"/>
            <path d="M16.97.745h3.93v19.856c0 .721.353 1.411 1.47 1.411h5.945v3.643h-9.348c-1.439 0-1.997-.847-1.997-1.815V.745z"/>
            <path d="M22.389 14.417h11.166c1.242 0 1.643.71 1.643 1.676l.005 24.614h3.926V12.734c0-1.172-1.094-1.95-1.9-1.95H22.387l.002 3.633z" opacity=".884"/>
            <path d="M22.386 9.399v-3.64h19.829c1.356 0 2.297.942 2.297 2.16-.014 1.43 0 32.79 0 32.79h-3.909V11.661c0-1.276-.598-2.262-2.27-2.262H22.386z" opacity=".884"/>
            <path d="M49.93 40.71H46V6.894c0-1.223-.66-2.517-2.585-2.517H22.386V.745h22.876c2.608 0 4.667 2.01 4.667 4.405v35.56z" opacity=".884"/>
            <path d="M33.734 40.71h-3.932V20.855c0-.723-.354-1.413-1.47-1.413h-5.944V15.8h9.346c1.438 0 2 .85 2 1.817v23.093z" opacity=".884"/>
            <path d="M143.471 23.768c0-1.188.937-2.142 2.17-2.142h3.244v-3.5h-3.844c-2.923 0-5.233 2.27-5.233 5.064v17.023h3.666l-.003-16.445zM86.5 40.21h3.663V18.064h-3.662zM169.17 28.702c0 4.524-3.84 8.208-8.566 8.208-4.723 0-8.562-3.684-8.562-8.208 0-4.522 3.84-8.207 8.562-8.207 4.727 0 8.566 3.685 8.566 8.207zm20.813 0c0 4.524-3.844 8.208-8.57 8.208-4.724 0-8.569-3.684-8.569-8.208 0-4.522 3.845-8.207 8.569-8.207 4.726 0 8.57 3.685 8.57 8.207zm20.805 0c0 4.524-3.84 8.208-8.564 8.208-4.728 0-8.567-3.684-8.567-8.208 0-4.522 3.84-8.207 8.567-8.207 4.723 0 8.564 3.685 8.564 8.207zm-62.41 20.002h3.695v-11.62c2.2 2.057 5.21 3.326 8.531 3.326 4.398 0 8.254-2.225 10.405-5.561 2.152 3.336 6.009 5.561 10.404 5.561 4.393 0 8.257-2.225 10.404-5.561 2.152 3.336 6.005 5.561 10.407 5.561 6.75 0 12.22-5.24 12.22-11.708 0-6.467-5.47-11.71-12.22-11.71-4.402 0-8.255 2.227-10.407 5.566-2.147-3.339-6.011-5.565-10.404-5.565-4.395 0-8.252 2.228-10.404 5.565-2.151-3.337-6.007-5.565-10.405-5.565-6.75 0-12.226 5.242-12.226 11.71v20.001zM134.044 26.127h-16.54c1.223-3.507 4.586-5.753 8.277-5.753 3.69 0 7.038 2.246 8.263 5.753zm3.482 5.32h-3.543c-1.22 3.342-4.502 5.588-8.202 5.588-4.498 0-8.237-3.245-8.676-7.65h20.768v-.683c0-6.388-5.427-11.585-12.092-11.585-6.672 0-12.1 5.197-12.1 11.585 0 6.387 5.428 11.586 12.1 11.586 5.62 0 10.423-3.627 11.745-8.842zM105.61 40.211l9.173-22.148h-4.181L103.22 35.89l-7.383-17.826h-4.176l9.17 22.148zM216.258 40.21h3.667V10.472h-3.667zM73.902 10.474v24.165c.012 1.202.736 2.14 2.169 2.14h9.003v3.43l-12.406-.001c-1.566 0-2.474-.916-2.474-2.24V10.473h3.708zM226.526 12.646c.326 0 .538-.118.538-.376 0-.227-.193-.37-.463-.37h-.678v.746h.603zm-1.023-1.084h1.143c.645 0 .858.383.858.648 0 .405-.295.694-.732.717v.017c.222.071.383.286.597.617l.316.483h-.506l-.233-.388c-.329-.556-.451-.666-.768-.666h-.255v1.054h-.42v-2.482zm-.949 1.203c0 1.065.895 1.932 2.005 1.932 1.111 0 2.018-.867 2.018-1.932 0-1.067-.907-1.926-2.018-1.926-1.11 0-2.005.859-2.005 1.926zm-.405 0c0-1.28 1.079-2.305 2.41-2.305 1.337 0 2.418 1.025 2.418 2.305 0 1.28-1.081 2.317-2.418 2.317-1.331 0-2.41-1.038-2.41-2.317zM86.496 14.025h3.667v-3.551h-3.667z"/>
        </g>
        <g fill="#FFF">
            <path d="M218.32 134.906h-4.143c-.461 0-.61-.262-.61-.619l-.002-9.099h-1.457v10.34c0 .434.406.72.705.72h5.507v-1.342z"/>
            <path d="M218.32 136.76v1.346h-7.357c-.504 0-.852-.348-.852-.798.004-.53 0-12.12 0-12.12h1.45v10.737c0 .47.222.836.843.836h5.916z"/>
            <path d="M208.1 125.188h1.459v12.498c0 .453.244.931.958.931h7.803v1.342h-8.487c-.968 0-1.733-.742-1.733-1.627v-13.144z"/>
            <path d="M214.11 125.188h1.459v7.339c0 .267.13.522.546.522h2.206v1.346h-3.47c-.533 0-.74-.313-.74-.67v-8.537z"/>
            <path d="M216.121 130.241h4.144c.46 0 .61.262.61.62l.002 9.098h1.456v-10.34c0-.433-.406-.72-.705-.72h-5.507v1.342z"/>
            <path d="M216.12 128.386v-1.345h7.358c.504 0 .853.348.853.799-.005.528 0 12.12 0 12.12h-1.45v-10.738c0-.471-.223-.836-.843-.836h-5.917z"/>
            <path d="M226.341 139.96h-1.458V127.46c0-.452-.245-.93-.96-.93h-7.802v-1.343h8.488c.968 0 1.732.743 1.732 1.628v13.143z"/>
            <path d="M220.331 139.96h-1.459v-7.339c0-.267-.131-.522-.545-.522h-2.206v-1.347h3.468c.534 0 .742.314.742.672v8.535z"/>
        </g>
        <g fill="#FFF">
            <path d="M245.32 123.906h-4.143c-.461 0-.61-.262-.61-.619l-.002-9.099h-1.457v10.34c0 .434.406.72.705.72h5.507v-1.342z"/>
            <path d="M245.32 125.76v1.346h-7.357c-.504 0-.852-.348-.852-.798.004-.53 0-12.12 0-12.12h1.45v10.737c0 .47.222.836.843.836h5.916z"/>
            <path d="M235.1 114.188h1.459v12.498c0 .453.244.931.958.931h7.803v1.342h-8.487c-.968 0-1.733-.742-1.733-1.627v-13.144z"/>
            <path d="M241.11 114.188h1.459v7.339c0 .267.13.522.546.522h2.206v1.346h-3.47c-.533 0-.74-.313-.74-.67v-8.537z"/>
            <path d="M243.121 119.241h4.144c.46 0 .61.262.61.62l.002 9.098h1.456v-10.34c0-.433-.406-.72-.705-.72h-5.507v1.342z"/>
            <path d="M243.12 117.386v-1.345h7.358c.504 0 .853.348.853.799-.005.528 0 12.12 0 12.12h-1.45v-10.738c0-.471-.223-.836-.843-.836h-5.917z"/>
            <path d="M253.341 128.96h-1.458V116.46c0-.452-.245-.93-.96-.93h-7.802v-1.343h8.488c.968 0 1.732.743 1.732 1.628v13.143z"/>
            <path d="M247.331 128.96h-1.459v-7.339c0-.267-.131-.522-.545-.522h-2.206v-1.347h3.468c.534 0 .742.314.742.672v8.535z"/>
        </g>
    </g>
</svg>
