<?xml version="1.0" encoding="utf-8"?>
<!-- Generator: Adobe Illustrator 21.1.0, SVG Export Plug-In . SVG Version: 6.00 Build 0)  -->
<svg version="1.1" id="Capa_1" xmlns="http://www.w3.org/2000/svg" xmlns:xlink="http://www.w3.org/1999/xlink" x="0px" y="0px"
	 viewBox="0 0 60 60" style="enable-background:new 0 0 60 60;" xml:space="preserve">
<style type="text/css">
	.st0{fill:#808789;}
	.st1{fill:#B7B7B7;}
	.st2{fill:#FFFFFF;}
	.st3{fill:#EFC75E;}
	.st4{fill:#C82982;}
</style>
<g id="Layer_7">
	<g>
		<path class="st0" d="M30.6,1.8c-0.3,0-0.5,0.1-0.7,0.3L2.5,27c-0.3,0.3-0.4,0.7-0.3,1.1c0.2,0.4,0.5,0.7,1,0.7H58
			c0.4,0,0.8-0.3,1-0.7c0.2-0.4,0-0.8-0.3-1.1L31.3,2.1C31.1,1.9,30.9,1.8,30.6,1.8L30.6,1.8z M5.9,26.7L30.6,4.3l24.7,22.4H5.9
			L5.9,26.7z"/>
	</g>
	<path class="st1" d="M49.4,7.8H10.5c-0.6,0-1,0.5-1,1V51c0,0.6,0.5,1,1,1h38.9c0.6,0,1-0.5,1-1V8.9C50.4,8.3,50,7.8,49.4,7.8
		L49.4,7.8z M11.7,9.7h36.8v40.1H11.7V9.7L11.7,9.7z"/>
	<g>
		<path class="st0" d="M3.2,26.7c-0.2,0-0.3,0-0.5,0.1c-0.3,0.2-0.6,0.5-0.6,0.9v28.7c0,0.6,0.5,1,1,1H58c0.6,0,1-0.5,1-1V27.7
			c0-0.4-0.2-0.7-0.6-0.9c-0.1-0.1-0.3-0.1-0.5-0.1s-0.4,0.1-0.6,0.2l-26.8,19l-26.8-19C3.6,26.8,3.4,26.7,3.2,26.7L3.2,26.7z
			 M4.2,55.4V29.7L30,48c0.2,0.1,0.4,0.2,0.6,0.2s0.4-0.1,0.6-0.2l25.7-18.3v25.7H4.2L4.2,55.4z"/>
	</g>
	<g>
		<path class="st2" d="M4.2,55.4V29.7L30,48c0.2,0.1,0.4,0.2,0.6,0.2s0.4-0.1,0.6-0.2l25.7-18.3v25.7H4.2L4.2,55.4z"/>
	</g>
	<rect x="11.7" y="9.7" class="st2" width="36.8" height="21.9"/>
	<g>
		<path class="st3" d="M16.6,12.4L16.6,12.4L16.6,12.4L16.6,12.4c-0.3,0-0.5,0.2-0.5,0.4c-0.1,1.1-0.7,1.7-1.8,1.8
			c-0.3,0-0.4,0.2-0.4,0.5s0.2,0.5,0.4,0.5c1.1,0.1,1.7,0.7,1.8,1.8c0,0.3,0.2,0.4,0.5,0.4s0.5-0.2,0.5-0.4c0.1-1.1,0.7-1.7,1.8-1.8
			c0.3,0,0.5-0.3,0.4-0.5c0-0.3-0.2-0.5-0.5-0.5c-1.1-0.1-1.6-0.7-1.8-1.8C17.1,12.6,16.8,12.4,16.6,12.4L16.6,12.4z M15.9,15.1
			c0.3-0.2,0.5-0.4,0.7-0.7c0.2,0.3,0.4,0.5,0.7,0.7c-0.3,0.2-0.5,0.4-0.7,0.7C16.4,15.6,16.2,15.3,15.9,15.1L15.9,15.1z"/>
	</g>
	<g>
		<path class="st3" d="M43.6,12.4L43.6,12.4L43.6,12.4L43.6,12.4c-0.3,0-0.5,0.2-0.5,0.4c-0.1,1.1-0.7,1.7-1.8,1.8
			c-0.3,0-0.4,0.2-0.4,0.5s0.2,0.5,0.4,0.5c1.1,0.1,1.7,0.7,1.8,1.8c0,0.3,0.2,0.4,0.5,0.4s0.5-0.2,0.5-0.4c0.1-1.1,0.7-1.7,1.8-1.8
			c0.3,0,0.5-0.3,0.4-0.5c0-0.3-0.2-0.5-0.5-0.5c-1.1-0.1-1.6-0.7-1.8-1.8C44.1,12.6,43.8,12.4,43.6,12.4L43.6,12.4z M42.9,15.1
			c0.3-0.2,0.5-0.4,0.7-0.7c0.2,0.3,0.4,0.5,0.7,0.7c-0.3,0.2-0.5,0.4-0.7,0.7C43.4,15.6,43.2,15.3,42.9,15.1L42.9,15.1z"/>
	</g>
	<path class="st4" d="M36,21.1c0.3,0,0.6,0,0.9,0.1c1.8,0.3,3.1,1.8,3.4,3.6c0.2,1.4-0.1,2.8-1.1,4.3c-0.9,1.4-1.8,2.5-2.7,3.5
		c-1.8,1.9-3.9,3.5-6.1,5.2c0,0-0.1,0-0.1,0.1c0,0-0.1,0-0.1-0.1c-2.2-1.7-4.3-3.3-6.1-5.2c-0.9-1-1.8-2.1-2.7-3.5
		c-0.9-1.4-1.3-2.9-1.1-4.3c0.3-1.8,1.7-3.2,3.4-3.6c0.3-0.1,0.6-0.1,0.9-0.1c1.6,0,3,0.8,3.8,2.1l0.1,0.2c0.3,0.6,0.7,1.2,1.7,1.2
		s1.4-0.7,1.7-1.2l0.1-0.2C33,21.9,34.4,21.1,36,21.1 M36,19.4c-2.1,0-4.1,1.1-5.3,3c-0.1,0.2-0.3,0.6-0.3,0.6l0,0l0,0
		c0,0-0.2-0.4-0.3-0.6c-1.1-1.9-3.1-3-5.3-3c-0.4,0-0.8,0-1.2,0.1c-2.5,0.5-4.4,2.5-4.8,5c-0.3,2,0.2,3.9,1.3,5.5
		c0.9,1.3,1.8,2.6,2.9,3.7c2.2,2.3,4.8,4.3,7.4,6.3c2.6-2,5.2-3.9,7.4-6.3c1.1-1.1,2-2.4,2.9-3.7c1.1-1.7,1.7-3.5,1.3-5.5
		c-0.4-2.5-2.3-4.5-4.8-5C36.8,19.4,36.4,19.4,36,19.4L36,19.4z"/>
</g>
</svg>
