<?xml version="1.0" encoding="utf-8"?>
<!-- Generator: Adobe Illustrator 21.1.0, SVG Export Plug-In . SVG Version: 6.00 Build 0)  -->
<svg version="1.1" id="Layer_1" xmlns="http://www.w3.org/2000/svg" xmlns:xlink="http://www.w3.org/1999/xlink" x="0px" y="0px"
	 viewBox="0 0 705.3 100" style="enable-background:new 0 0 705.3 100;" xml:space="preserve">
<style type="text/css">
	.st0{fill:#00ABD3;}
	.st1{fill:none;stroke:#FFFFFF;stroke-miterlimit:10;}
	.st2{fill:none;stroke:#B0E1F1;stroke-miterlimit:10;}
	.st3{opacity:0.61;}
	.st4{fill:#FFFFFF;}
	.st5{opacity:0.6;}
	.st6{opacity:0.72;}
	.st7{fill:#CCCACA;}
	.st8{fill:#DB4690;}
	.st9{fill:#DDD5CC;}
	.st10{fill:#EFE6D9;}
	.st11{fill:#E5DCCF;}
	.st12{fill:#F1BDD7;}
</style>
<g>
	<ellipse class="st0" cx="46.4" cy="50" rx="35.2" ry="33.9"/>
	
		<image style="overflow:visible;enable-background:new    ;" width="233" height="96" xlink:href="AFB022FD7A076212.png"  transform="matrix(0.2349 0 0 0.2285 18.7922 61.2285)">
	</image>
	<path class="st1" d="M59,20.7"/>
	<g>
		<g>
			<path class="st2" d="M47.7,16.2"/>
		</g>
	</g>
	<g class="st3">
		
			<image style="overflow:visible;opacity:0.2;enable-background:new    ;" width="192" height="192" xlink:href="AFB022FD7A076216.png"  transform="matrix(1 0 0 1 -50 -45)">
		</image>
		<g>
			
				<image style="overflow:visible;enable-background:new    ;" width="296" height="296" xlink:href="AFB022FD7A076211.png"  transform="matrix(0.2419 0 0 0.2413 10.2852 15.2164)">
			</image>
		</g>
	</g>
	<circle class="st4" cx="43" cy="22.6" r="0.3"/>
	<g class="st5">
		<g class="st6">
			<path class="st4" d="M68.8,26c1.4,1.4,2.7,3.1,3.7,4.9c0.5,0.9,1,1.8,1.5,2.7c0.2,0.5,0.4,0.9,0.7,1.4l0.6,1.4l0.1,0.4l0.1,0.4
				l0.2,0.7l0.2,0.7c0.1,0.2,0.1,0.5,0.2,0.8c0.1,0.5,0.3,1,0.4,1.5l0.3,1.5c0.1,0.3,0.1,0.5,0.1,0.8L77,44l0.2,1.5l0.1,1.6v0.8
				c0,0.3,0,0.5,0,0.8l-0.1,1.6c0,0.3-0.1,0.5-0.1,0.8L77,51.9c-0.1,1-0.3,2.1-0.5,3.1c-0.1,0.5-0.2,1-0.4,1.5L76,57
				c-0.1,0.2-0.2,0.5-0.2,0.7l-0.5,1.5l-0.5,1.5c-0.7,1.9-1.6,3.8-2.6,5.6c-0.3,0.4-0.5,0.9-0.8,1.3s-0.5,0.9-0.8,1.3
				c-0.6,0.8-1.2,1.7-1.8,2.4c1.8-3.7,3.2-7.4,4.3-11.2c0.6-1.9,1-3.8,1.3-5.8c0.1-1,0.3-1.9,0.4-2.9c0-0.5,0.1-1,0.1-1.5l0.1-1.5
				c0-0.2,0-0.5,0-0.7V47v-1.5L74.9,44l-0.1-0.7l-0.1-0.7l-0.2-1.5l-0.3-1.4c-0.1-0.2-0.1-0.5-0.2-0.7l-0.2-0.7l-0.2-0.7l-0.1-0.4
				l-0.1-0.3L73,35.5l-0.5-1.4c-0.3-0.9-0.7-1.9-1.1-2.8c-0.4-0.9-0.8-1.8-1.3-2.7c-0.2-0.4-0.5-0.9-0.7-1.3
				C69.3,26.8,69.1,26.4,68.8,26z"/>
		</g>
		<path class="st4" d="M65.9,27.3l-0.2-0.1h0.2c0.1,0,0.2-0.1,0.1-0.2c0-0.1-0.1-0.2-0.2-0.1L65.2,27L65,26.7l0.5-0.1
			c0.1,0,0.2-0.1,0.1-0.2c0-0.1-0.1-0.2-0.2-0.1l-0.9,0.2L64,26.2l0.5-0.3l0.9,0.2c0.1,0,0.2,0,0.2-0.1s0-0.2-0.1-0.2L65,25.6
			l0.2-0.1l0.6,0.1c0.1,0,0.2,0,0.2-0.1s0-0.2-0.1-0.2h-0.2l0.2-0.1c0.1,0,0.1-0.2,0.1-0.3s-0.2-0.1-0.3-0.1l-0.2,0.1l0.1-0.2
			c0-0.1,0-0.2-0.1-0.2s-0.2,0-0.2,0.1L65,25.1l-0.2,0.1l0.1-0.5c0-0.1,0-0.2-0.1-0.2s-0.2,0-0.2,0.1l-0.2,0.9l-0.5,0.3v-0.6
			l0.6-0.6c0.1-0.1,0.1-0.2,0-0.3c-0.1-0.1-0.2-0.1-0.3,0l-0.4,0.4v-0.3l0.4-0.4c0.1-0.1,0.1-0.2,0-0.3c-0.1-0.1-0.2-0.1-0.3,0
			l-0.1,0.1v-0.2c0-0.1-0.1-0.2-0.2-0.2s-0.2,0.1-0.2,0.2v0.2l-0.1-0.1c-0.1-0.1-0.2-0.1-0.3,0c-0.1,0.1-0.1,0.2,0,0.3l0.4,0.4v0.3
			L63,24.3c-0.1-0.1-0.2-0.1-0.3,0c-0.1,0.1-0.1,0.2,0,0.3l0.6,0.6v0.6l-0.5-0.3l-0.2-0.9c0-0.1-0.1-0.2-0.2-0.1
			c-0.1,0-0.2,0.1-0.1,0.2l0.1,0.5l-0.2-0.1L62,24.5c0-0.1-0.1-0.2-0.2-0.1c-0.1,0-0.2,0.1-0.1,0.2v0.2l-0.2-0.1
			c-0.1,0-0.2,0-0.3,0.1s0,0.2,0.1,0.3l0.2,0.1h-0.2c-0.1,0-0.2,0.1-0.1,0.2c0,0.1,0.1,0.2,0.2,0.1l0.6-0.1l0.2,0.1l-0.5,0.1
			c-0.1,0-0.2,0.1-0.1,0.2c0,0.1,0.1,0.2,0.2,0.1l0.9-0.2l0.5,0.3l-0.5,0.3l-0.9-0.2c-0.1,0-0.2,0-0.2,0.1s0,0.2,0.1,0.2l0.5,0.1
			L62,26.9l-0.6-0.1c-0.1,0-0.2,0-0.2,0.1s0,0.2,0.1,0.2h0.2l-0.2,0.1c-0.1,0-0.1,0.2-0.1,0.3s0.2,0.1,0.3,0.1l0.2-0.1v0.2
			c0,0.1,0,0.2,0.1,0.2s0.2,0,0.2-0.1l0.2-0.6l0.2-0.1l-0.1,0.5c0,0.1,0,0.2,0.1,0.2s0.2,0,0.2-0.1l0.2-0.9l0.5-0.3v0.6l-0.6,0.6
			c-0.1,0.1-0.1,0.2,0,0.3c0.1,0.1,0.2,0.1,0.3,0l0.4-0.4v0.3L63,28.4c-0.1,0.1-0.1,0.2,0,0.3c0.1,0.1,0.2,0.1,0.3,0l0.1-0.1v0.2
			c0,0.1,0.1,0.2,0.2,0.2s0.2-0.1,0.2-0.2v-0.2l0.1,0.1c0.1,0.1,0.2,0.1,0.3,0c0.1-0.1,0.1-0.2,0-0.3L63.8,28v-0.3l0.4,0.4
			c0.1,0.1,0.2,0.1,0.3,0c0.1-0.1,0.1-0.2,0-0.3l-0.6-0.6v-0.6l0.5,0.3l0.2,0.9c0,0.1,0.1,0.2,0.2,0.1c0.1,0,0.2-0.1,0.1-0.2
			l-0.1-0.5l0.2,0.1l0.2,0.6c0,0.1,0.1,0.2,0.2,0.1c0.1,0,0.2-0.1,0.1-0.2l-0.1-0.2l0.2,0.1c0.1,0,0.2,0,0.3-0.1
			C66,27.5,66,27.3,65.9,27.3z"/>
		<circle class="st4" cx="50.3" cy="23.8" r="1.2"/>
		<circle class="st4" cx="21.7" cy="41.9" r="0.3"/>
		<circle class="st4" cx="37.8" cy="46.9" r="0.3"/>
		<circle class="st4" cx="44.8" cy="48.3" r="0.7"/>
		<circle class="st4" cx="23.9" cy="52.7" r="0.7"/>
		<circle class="st4" cx="43.1" cy="17.8" r="0.6"/>
		<circle class="st4" cx="35.6" cy="24.6" r="0.6"/>
		<circle class="st4" cx="39.6" cy="34.3" r="0.3"/>
		<circle class="st4" cx="26.3" cy="56.8" r="0.3"/>
		<circle class="st4" cx="19.4" cy="48.5" r="0.3"/>
		<circle class="st4" cx="24.9" cy="32.2" r="0.3"/>
		<circle class="st4" cx="24.5" cy="25.4" r="0.3"/>
		<circle class="st4" cx="57" cy="22.1" r="0.3"/>
		<circle class="st4" cx="14.5" cy="51.8" r="0.7"/>
		<circle class="st7" cx="44.6" cy="56" r="1.1"/>
		<circle class="st7" cx="33.4" cy="35.6" r="0.7"/>
		<circle class="st7" cx="29.4" cy="24.9" r="0.5"/>
		<circle class="st7" cx="49.1" cy="35.9" r="0.5"/>
		<circle class="st7" cx="31.2" cy="52.9" r="0.5"/>
		<circle class="st7" cx="14.1" cy="50.5" r="0.6"/>
	</g>
	<g>
		
			<image style="overflow:visible;opacity:0.3;enable-background:new    ;" width="105" height="65" xlink:href="AFB022FD7A076213.png"  transform="matrix(1 0 0 1 0 30)">
		</image>
		<g>
			<g>
				<polygon class="st8" points="3.8,58 49.5,60.3 84.5,62.1 84.4,83.6 4.7,85.9 				"/>
				<g>
					<path class="st4" d="M17.8,75.5c-0.5-3-1.2-6.2-1.9-9.5l2-0.2l1.1,7.4c0.6-2.6,1.1-4.9,1.4-7l1.9,0.2c-0.9,4.1-1.6,7.1-2.1,9
						L17.8,75.5z"/>
					<path class="st4" d="M24.6,68.9c1.5,0,2.3,1,2.3,3.1c0,0.2,0,0.5,0,0.8h-3c0,1.2,0.2,1.7,0.7,1.7l0,0c0.4,0,0.6-0.3,0.6-0.9
						c0-0.1,0-0.3,0-0.4h1.6c0,1.7-0.8,2.6-2.2,2.6l0,0c-1.4,0-2.1-1.1-2.1-3.2v-0.2C22.4,70,23.1,68.9,24.6,68.9z M23.7,71.5h1.5
						v-0.2c0-0.8-0.2-1.2-0.7-1.2C24.1,70.1,23.8,70.6,23.7,71.5z"/>
					<path class="st4" d="M29.2,70.9l0.1,4.9h-1.6c0-2.1-0.1-4.4-0.2-6.9l1.2-0.1l0.1,1.1c0.2-0.5,0.6-0.8,1.3-0.9
						c0.1,0,0.2,0,0.3,0c0.5,0,1,0.2,1.2,0.5c0.3,0.4,0.5,1.1,0.5,2l-1.5,0.2c0-0.1,0-0.2,0-0.2c0-0.7-0.2-1.1-0.6-1.1l0,0
						C29.6,70.3,29.3,70.5,29.2,70.9z"/>
					<path class="st4" d="M36.1,68.7v1.1c0.2-0.5,0.5-0.8,0.8-1c0.2-0.1,0.4-0.1,0.6-0.1c0.1,0,0.3,0,0.4,0.1
						c0.3,0.1,0.6,0.4,0.8,1.1c0.1-0.5,0.3-0.8,0.6-1s0.6-0.2,1-0.2l0,0c0.3,0,0.7,0.1,1,0.2c0.3,0.2,0.6,0.5,0.7,1s0.3,1.1,0.3,1.9
						v3.9h-1.5c0.1-1.5,0.1-2.7,0.1-3.8s-0.2-1.6-0.6-1.7c-0.1,0-0.1,0-0.2,0c-0.3,0-0.6,0.2-0.7,0.6c0,0.5,0,1,0,1.6
						c0,0.8,0,1.8,0.1,3h-1.7c0.1-1.7,0.1-3,0.1-3.8v-0.1c0-0.8-0.2-1.2-0.5-1.2h-0.1c-0.3,0-0.5,0.2-0.8,0.5v4.9L35,75.8v-1.1
						c0-1.9,0-3.9-0.1-5.8L36.1,68.7z"/>
					<path class="st4" d="M44.6,67.3c0,0.3-0.1,0.5-0.3,0.7s-0.4,0.3-0.7,0.3s-0.5-0.1-0.7-0.3s-0.3-0.4-0.3-0.7s0.1-0.5,0.3-0.7
						s0.4-0.3,0.7-0.3s0.5,0.1,0.7,0.3C44.5,66.8,44.6,67,44.6,67.3z M42.8,75.8c0-2.6,0-4.9,0-6.8l1.7-0.1c0,1.8-0.1,3.6-0.1,5.4
						c0,0.5,0,1,0,1.4L42.8,75.8L42.8,75.8z"/>
					<path class="st4" d="M50.2,73l1.6,0.1c0,1.6-0.8,2.4-2.2,2.5l0,0c-1.4,0-2.1-1.1-2.1-3.2v-0.2c0-2.3,0.8-3.5,2.3-3.5l0,0
						c1.3,0,2,0.8,2,2.3c0,0.1,0,0.2,0,0.3l-1.4,0.1v-0.2c0-0.8-0.2-1.2-0.7-1.2S49,70.7,49,72v0.2c0,1.4,0.3,2.1,0.7,2.1l0,0
						c0.4,0,0.6-0.3,0.6-0.9C50.2,73.3,50.2,73.1,50.2,73z"/>
					<path class="st4" d="M55,68.7c1.5,0.1,2.2,0.8,2.2,2.2v4.8h-1.6v-0.6c-0.3,0.4-0.8,0.6-1.3,0.6c-0.2,0-0.5,0-0.7-0.1
						c-0.8-0.2-1.2-0.8-1.2-1.8c0-0.1,0-0.3,0-0.4c0.1-1.1,0.8-1.6,2.3-1.6c0.3,0,0.6,0,0.9,0.1v-0.8c0-0.6-0.2-0.9-0.6-0.9l0,0
						h-0.1c-0.4,0-0.7,0.3-0.7,1.1v0.1L52.6,71c0-1.6,0.8-2.3,2.3-2.3H55L55,68.7z M55.5,74v-1.2c-0.2,0-0.4-0.1-0.5-0.1
						c-0.4,0-0.7,0.1-0.8,0.4c-0.1,0.2-0.1,0.3-0.1,0.5s0.1,0.3,0.2,0.5c0.1,0.1,0.3,0.2,0.4,0.2C54.9,74.2,55.2,74.2,55.5,74z"/>
					<path class="st4" d="M59.5,70.9l0.1,4.9h-1.7c0-2.1-0.1-4.4-0.2-6.9l1.2-0.1l0.1,1.1c0.2-0.5,0.6-0.8,1.3-0.9
						c0.1,0,0.2,0,0.3,0c0.5,0,1,0.2,1.2,0.5c0.3,0.4,0.5,1.1,0.5,2l-1.5,0.2c0-0.1,0-0.2,0-0.2c0-0.7-0.2-1.1-0.6-1.1l0,0
						C59.9,70.3,59.6,70.5,59.5,70.9z"/>
					<path class="st4" d="M63.9,66.7l1.5-0.1v2.2h1.3v1.3l-1.3,0.1v3.1c0,0.7,0.3,1.1,0.9,1.1c0.1,0,0.3,0,0.4-0.1l-0.1,1.5
						c-0.2,0-0.4,0-0.6,0c-1.4,0-2.1-0.7-2.2-2.2v-3.3l-1.1,0.1v-1.5h1.1L63.9,66.7z"/>
					<path class="st4" d="M69.9,68.7c1.5,0.1,2.2,0.8,2.2,2.2v4.8h-1.6V75c-0.3,0.4-0.8,0.6-1.3,0.6c-0.2,0-0.5,0-0.7-0.1
						c-0.8-0.2-1.2-0.8-1.2-1.8c0-0.1,0-0.3,0-0.4c0.1-1.1,0.8-1.6,2.3-1.6c0.3,0,0.6,0,0.9,0.1V71c0-0.6-0.2-0.9-0.6-0.9l0,0h-0.1
						c-0.4,0-0.7,0.3-0.7,1.1v0.1L67.5,71C67.5,69.4,68.3,68.7,69.9,68.7L69.9,68.7L69.9,68.7z M70.5,74v-1.2
						c-0.2,0-0.4-0.1-0.5-0.1c-0.4,0-0.7,0.1-0.8,0.4C69,73.3,69,73.5,69,73.6c0,0.2,0.1,0.3,0.2,0.5c0.1,0.1,0.3,0.2,0.4,0.2
						C69.9,74.2,70.2,74.2,70.5,74z"/>
				</g>
				<g>
					<g>
						<path class="st9" d="M95.1,51.1C95,51.1,95,51,94.9,51l-3.6-3.5c-0.2-0.2-0.2-0.5,0-0.7s0.5-0.2,0.7,0l3.6,3.5
							c0.2,0.2,0.2,0.5,0,0.7C95.4,51.1,95.2,51.1,95.1,51.1z"/>
					</g>
					<g>
						<path class="st9" d="M47.7,49.3c-0.2,0-0.3,0-0.4-0.1c-0.2-0.2-0.2-0.5,0-0.7l3.4-3.7c0.2-0.2,0.5-0.2,0.7,0s0.2,0.5,0,0.7
							L48,49.2C47.8,49.2,47.8,49.2,47.7,49.3z"/>
					</g>
					<g>
						<g>
							<path class="st9" d="M67.6,64.4l-1.8-0.3c-0.2,0-0.4-0.3-0.4-0.5s0.3-0.4,0.5-0.4l0.9,0.1l0.5-3.3h2.2c0.2,0,0.5,0.2,0.4,0.5
								c0,0.2-0.2,0.5-0.5,0.5l0,0H68L67.6,64.4z"/>
						</g>
					</g>
					<g>
						<g>
							<path class="st9" d="M72.2,64.5l-1.8-0.3c-0.2,0-0.4-0.3-0.4-0.5s0.3-0.4,0.5-0.4l0.9,0.1l0.5-3.3h2.2c0.2,0,0.5,0.2,0.4,0.5
								c0,0.2-0.2,0.5-0.5,0.5l0,0h-1.4L72.2,64.5z"/>
						</g>
					</g>
				</g>
				<g>
					<g>
						
							<rect x="57.7" y="27.6" transform="matrix(5.909435e-02 -0.9983 0.9983 5.909435e-02 19.1781 116.2961)" class="st10" width="27.2" height="40.8"/>
						<polygon class="st11" points="90.9,62.7 50.2,60.3 71.3,46.3 						"/>
						<polygon class="st9" points="51.7,33.1 92.4,35.5 71.3,49.8 						"/>
						<g>
							<g>
								<path d="M65.4,48.8c-0.2,3.2,2.2,6,5.4,6.2s6-2.3,6.2-5.5L65.4,48.8z"/>
								<path class="st12" d="M74.6,53.9c0,0-0.8-2.5-3.5-2.8S66.7,53,66.7,53s2.7,3.7,7.2,1.4C74.2,54.2,74.4,54,74.6,53.9z"/>
							</g>
						</g>
					</g>
					<circle cx="68.8" cy="43.9" r="0.7"/>
					<circle cx="74.3" cy="44.1" r="0.7"/>
				</g>
			</g>
		</g>
	</g>
</g>
<g>
	<ellipse class="st0" cx="146.1" cy="50" rx="35.2" ry="33.9"/>
	
		<image style="overflow:visible;enable-background:new    ;" width="233" height="96" xlink:href="AFB022FD7A076210.png"  transform="matrix(0.2349 0 0 0.2285 118.4258 61.2285)">
	</image>
	<path class="st1" d="M158.7,20.7"/>
	<g>
		<g>
			<path class="st2" d="M147.3,16.2"/>
		</g>
	</g>
	<g class="st3">
		
			<image style="overflow:visible;opacity:0.2;enable-background:new    ;" width="192" height="192" xlink:href="AFB022FD7A07621E.png"  transform="matrix(1 0 0 1 49.8553 -45)">
		</image>
		<g>
			
				<image style="overflow:visible;enable-background:new    ;" width="296" height="296" xlink:href="AFB022FD7A076215.png"  transform="matrix(0.2419 0 0 0.2413 109.9189 15.2164)">
			</image>
		</g>
	</g>
	<circle class="st4" cx="142.7" cy="22.6" r="0.3"/>
	<g class="st5">
		<g class="st6">
			<path class="st4" d="M168.5,26c1.4,1.4,2.7,3.1,3.7,4.9c0.5,0.9,1,1.8,1.5,2.7c0.2,0.5,0.4,0.9,0.6,1.4l0.6,1.4l0.1,0.4l0.1,0.4
				l0.2,0.7l0.2,0.7c0.1,0.2,0.1,0.5,0.2,0.8c0.1,0.5,0.3,1,0.4,1.5l0.3,1.5c0.1,0.3,0.1,0.5,0.1,0.8l0.1,0.8l0.2,1.5l0.1,1.6v0.8
				c0,0.3,0,0.5,0,0.8l-0.1,1.6c0,0.3-0.1,0.5-0.1,0.8l-0.1,0.8c-0.1,1-0.3,2.1-0.5,3.1c-0.1,0.5-0.2,1-0.4,1.5l-0.2,0.8
				c-0.1,0.2-0.1,0.5-0.2,0.7l-0.5,1.5l-0.5,1.5c-0.7,1.9-1.6,3.8-2.6,5.6c-0.3,0.4-0.5,0.9-0.8,1.3s-0.5,0.9-0.8,1.3
				c-0.6,0.8-1.2,1.7-1.8,2.4c1.8-3.7,3.2-7.4,4.3-11.2c0.6-1.9,1-3.8,1.3-5.8c0.1-1,0.3-1.9,0.4-2.9c0-0.5,0.1-1,0.1-1.5l0.1-1.5
				c0-0.2,0-0.5,0-0.7v-0.7v-1.5l-0.1-1.5l-0.1-0.7l-0.1-0.7l-0.2-1.5l-0.3-1.4c-0.1-0.2-0.1-0.5-0.1-0.7l-0.2-0.7l-0.2-0.7
				l-0.1-0.4l-0.1-0.3l-0.4-1.4l-0.5-1.4c-0.3-0.9-0.7-1.9-1.1-2.8c-0.4-0.9-0.8-1.8-1.3-2.7c-0.2-0.4-0.5-0.9-0.7-1.3
				C169,26.8,168.8,26.4,168.5,26z"/>
		</g>
		<path class="st4" d="M165.6,27.3l-0.2-0.1h0.2c0.1,0,0.2-0.1,0.1-0.2c0-0.1-0.1-0.2-0.2-0.1l-0.6,0.1l-0.2-0.1l0.5-0.1
			c0.1,0,0.2-0.1,0.1-0.2c0-0.1-0.1-0.2-0.2-0.1l-0.9,0.2l-0.5-0.3l0.5-0.3l0.9,0.2c0.1,0,0.2,0,0.2-0.1s0-0.2-0.1-0.2l-0.5-0.1
			l0.2-0.1l0.6,0.1c0.1,0,0.2,0,0.2-0.1s0-0.2-0.1-0.2h-0.2l0.2-0.1c0.1,0,0.1-0.2,0.1-0.3c-0.1-0.1-0.2-0.1-0.3-0.1l-0.2,0.1
			l0.1-0.2c0-0.1,0-0.2-0.1-0.2s-0.2,0-0.2,0.1l-0.1,0.6l-0.2,0.1l0.1-0.5c0-0.1,0-0.2-0.1-0.2s-0.2,0-0.2,0.1l-0.2,0.9l-0.5,0.3
			v-0.6l0.6-0.6c0.1-0.1,0.1-0.2,0-0.3c-0.1-0.1-0.2-0.1-0.3,0l-0.4,0.4v-0.3l0.2-0.8c0.1-0.1,0.1-0.2,0-0.3c-0.1-0.1-0.2-0.1-0.3,0
			l-0.1,0.1v-0.2c0-0.1-0.1-0.2-0.2-0.2c-0.1,0-0.2,0.1-0.2,0.2v0.2l-0.1-0.1c-0.1-0.1-0.2-0.1-0.3,0s-0.1,0.2,0,0.3l0.4,0.4v0.3
			l-0.4-0.4c-0.1-0.1-0.2-0.1-0.3,0s-0.1,0.2,0,0.3l0.6,0.6v0.6l-0.5-0.3l-0.2-0.9c0-0.1-0.1-0.2-0.2-0.1c-0.1,0-0.2,0.1-0.1,0.2
			l0.1,0.5l-0.2-0.1l-0.1-0.6c0-0.1-0.1-0.2-0.2-0.1c-0.1,0-0.2,0.1-0.1,0.2l0.1,0.2l-0.2-0.1c-0.1,0-0.2,0-0.3,0.1s0,0.2,0.1,0.3
			l0.2,0.1h-0.2c-0.1,0-0.2,0.1-0.1,0.2c0,0.1,0.1,0.2,0.2,0.1l0.6-0.1l0.2,0.1l-0.5,0.1c-0.1,0-0.2,0.1-0.1,0.2
			c0,0.1,0.1,0.2,0.2,0.1l0.9-0.2l0.5,0.3l-0.5,0.3l-0.9-0.2c-0.1,0-0.2,0-0.2,0.1s0,0.2,0.1,0.2l0.5,0.1l-0.2,0.1l-0.6-0.1
			c-0.1,0-0.2,0-0.2,0.1s0,0.2,0.1,0.2h0.2l-0.2,0.1c-0.1,0-0.1,0.2-0.1,0.3c0.1,0.1,0.2,0.1,0.3,0.1l0.2-0.1l-0.1,0.2
			c0,0.1,0,0.2,0.1,0.2s0.2,0,0.2-0.1l0.1-0.6l0.2-0.1l-0.1,0.5c0,0.1,0,0.2,0.1,0.2s0.2,0,0.2-0.1l0.2-0.9l0.5-0.3v0.6l-0.6,0.6
			c-0.1,0.1-0.1,0.2,0,0.3c0.1,0.1,0.2,0.1,0.3,0l0.4-0.4v0.3l-0.4,0.4c-0.1,0.1-0.1,0.2,0,0.3c0.1,0.1,0.2,0.1,0.3,0l0.1-0.1v0.2
			c0,0.1,0.1,0.2,0.2,0.2c0.1,0,0.2-0.1,0.2-0.2v-0.2l0.1,0.1c0.1,0.1,0.2,0.1,0.3,0s0.1-0.2,0-0.3l-0.4-0.4v-0.3l0.4,0.4
			c0.1,0.1,0.2,0.1,0.3,0s0.1-0.2,0-0.3l-0.6-0.6v-0.6l0.5,0.3l0.2,0.9c0,0.1,0.1,0.2,0.2,0.1c0.1,0,0.2-0.1,0.1-0.2l-0.1-0.5
			l0.2,0.1l0.1,0.6c0,0.1,0.1,0.2,0.2,0.1c0.1,0,0.2-0.1,0.1-0.2l-0.1-0.2l0.2,0.1c0.1,0,0.2,0,0.3-0.1
			C165.7,27.5,165.7,27.3,165.6,27.3z"/>
		<circle class="st4" cx="150" cy="23.8" r="1.2"/>
		<circle class="st4" cx="121.4" cy="41.9" r="0.3"/>
		<circle class="st4" cx="137.4" cy="46.9" r="0.3"/>
		<circle class="st4" cx="144.5" cy="48.3" r="0.7"/>
		<circle class="st4" cx="123.6" cy="52.7" r="0.7"/>
		<circle class="st4" cx="142.8" cy="17.8" r="0.6"/>
		<circle class="st4" cx="135.3" cy="24.6" r="0.6"/>
		<circle class="st4" cx="139.3" cy="34.3" r="0.3"/>
		<circle class="st4" cx="126" cy="56.8" r="0.3"/>
		<circle class="st4" cx="119.1" cy="48.5" r="0.3"/>
		<circle class="st4" cx="124.6" cy="32.2" r="0.3"/>
		<circle class="st4" cx="124.1" cy="25.4" r="0.3"/>
		<circle class="st4" cx="156.7" cy="22.1" r="0.3"/>
		<circle class="st4" cx="114.2" cy="51.8" r="0.7"/>
		<circle class="st7" cx="144.3" cy="56" r="1.1"/>
		<circle class="st7" cx="133.1" cy="35.6" r="0.7"/>
		<circle class="st7" cx="129" cy="24.9" r="0.5"/>
		<circle class="st7" cx="148.8" cy="35.9" r="0.5"/>
		<circle class="st7" cx="130.9" cy="52.9" r="0.5"/>
		<circle class="st7" cx="113.8" cy="50.5" r="0.6"/>
	</g>
	<g>
		
			<image style="overflow:visible;opacity:0.3;enable-background:new    ;" width="105" height="67" xlink:href="AFB022FD7A076217.png"  transform="matrix(1 0 0 1 99.8553 28)">
		</image>
		<g>
			<g>
				<polygon class="st8" points="103.5,58 149.1,60.3 184.2,62.1 184.1,83.6 104.4,85.9 				"/>
				<g>
					<path class="st4" d="M117.5,75.5c-0.6-3-1.2-6.2-1.9-9.5l2-0.2l1.2,7.4c0.6-2.6,1.1-4.9,1.4-7l1.9,0.2c-0.9,4.1-1.6,7.1-2.1,9
						L117.5,75.5z"/>
					<path class="st4" d="M124.3,68.9c1.6,0,2.3,1,2.3,3.1c0,0.2,0,0.5,0,0.8h-3c0,1.2,0.2,1.7,0.7,1.7h0.1c0.4,0,0.6-0.3,0.6-0.9
						c0-0.1,0-0.3,0-0.4h1.6c0,1.7-0.8,2.6-2.2,2.6c0,0,0,0-0.1,0c-1.4,0-2.1-1.1-2.1-3.2v-0.2C122.1,70,122.8,68.9,124.3,68.9z
						 M123.4,71.5h1.5v-0.2c0-0.8-0.2-1.2-0.7-1.2C123.7,70.1,123.5,70.6,123.4,71.5z"/>
					<path class="st4" d="M128.9,70.9l0.1,4.9h-1.6c0-2.1-0.1-4.4-0.2-6.9l1.2-0.1l0.1,1.1c0.2-0.5,0.6-0.8,1.3-0.9
						c0.1,0,0.2,0,0.3,0c0.5,0,0.9,0.2,1.2,0.5c0.3,0.4,0.5,1.1,0.5,2l-1.5,0.2c0-0.1,0-0.2,0-0.2c0-0.7-0.2-1.1-0.6-1.1l0,0
						C129.3,70.3,129,70.5,128.9,70.9z"/>
					<path class="st4" d="M135.8,68.7v1.1c0.2-0.5,0.5-0.8,0.8-1c0.2-0.1,0.4-0.1,0.6-0.1c0.1,0,0.3,0,0.4,0.1
						c0.4,0.1,0.6,0.4,0.8,1.1c0.1-0.5,0.3-0.8,0.6-1s0.6-0.2,0.9-0.2l0,0c0.3,0,0.7,0.1,1,0.2c0.3,0.2,0.6,0.5,0.7,1
						s0.3,1.1,0.3,1.9v3.9h-1.4c0.1-1.5,0.1-2.7,0.1-3.8s-0.2-1.6-0.6-1.7c-0.1,0-0.1,0-0.2,0c-0.3,0-0.6,0.2-0.7,0.6
						c0,0.5,0,1,0,1.6c0,0.8,0,1.8,0.1,3h-1.7c0.1-1.7,0.1-3,0.1-3.8v-0.1c0-0.8-0.2-1.2-0.5-1.2H137c-0.3,0-0.5,0.2-0.8,0.5v4.9
						l-1.6,0.1v-1.1c0-1.9,0-3.9-0.1-5.8L135.8,68.7z"/>
					<path class="st4" d="M144.3,67.3c0,0.3-0.1,0.5-0.3,0.7s-0.4,0.3-0.7,0.3s-0.5-0.1-0.7-0.3s-0.3-0.4-0.3-0.7s0.1-0.5,0.3-0.7
						s0.4-0.3,0.7-0.3s0.5,0.1,0.7,0.3C144.2,66.8,144.3,67,144.3,67.3z M142.5,75.8c0-2.6-0.1-4.9-0.1-6.8l1.7-0.1
						c-0.1,1.8-0.1,3.6-0.1,5.4c0,0.5,0,1,0,1.4L142.5,75.8L142.5,75.8z"/>
					<path class="st4" d="M149.9,73l1.6,0.1c0,1.6-0.8,2.4-2.2,2.5c0,0,0,0-0.1,0c-1.4,0-2.1-1.1-2.1-3.2v-0.2
						c0-2.3,0.8-3.5,2.3-3.5h0.1c1.4,0,2,0.8,2,2.3c0,0.1,0,0.2,0,0.3l-1.4,0.1v-0.2c0-0.8-0.2-1.2-0.7-1.2s-0.7,0.7-0.7,2v0.2
						c0,1.4,0.3,2.1,0.7,2.1l0,0c0.4,0,0.6-0.3,0.6-0.9C149.9,73.3,149.9,73.1,149.9,73z"/>
					<path class="st4" d="M154.6,68.7c1.5,0.1,2.2,0.8,2.2,2.2v4.8h-1.6l-0.1-0.6c-0.3,0.4-0.8,0.6-1.3,0.6c-0.2,0-0.5,0-0.7-0.1
						c-0.8-0.2-1.2-0.8-1.2-1.8c0-0.1,0-0.3,0-0.4c0.1-1.1,0.8-1.6,2.3-1.6c0.3,0,0.6,0,0.9,0.1v-0.8c0-0.6-0.2-0.9-0.6-0.9l0,0
						h-0.1c-0.4,0-0.6,0.3-0.6,1.1v0.1l-1.6-0.1c0-1.6,0.8-2.3,2.3-2.3L154.6,68.7L154.6,68.7z M155.2,74v-1.2
						c-0.2,0-0.4-0.1-0.5-0.1c-0.4,0-0.7,0.1-0.8,0.4c-0.1,0.2-0.1,0.3-0.1,0.5s0.1,0.3,0.2,0.5c0.1,0.1,0.3,0.2,0.4,0.2
						C154.6,74.2,154.9,74.2,155.2,74z"/>
					<path class="st4" d="M159.2,70.9l0.1,4.9h-1.6c0-2.1-0.1-4.4-0.2-6.9l1.2-0.1l0.1,1.1c0.2-0.5,0.6-0.8,1.3-0.9
						c0.1,0,0.2,0,0.3,0c0.5,0,0.9,0.2,1.2,0.5c0.3,0.4,0.5,1.1,0.5,2l-1.5,0.2c0-0.1,0-0.2,0-0.2c0-0.7-0.2-1.1-0.6-1.1l0,0
						C159.5,70.3,159.3,70.5,159.2,70.9z"/>
					<path class="st4" d="M163.6,66.7l1.5-0.1v2.2h1.3v1.3l-1.3,0.1v3.1c0,0.7,0.3,1.1,0.9,1.1c0.1,0,0.3,0,0.4-0.1l-0.1,1.5
						c-0.2,0-0.4,0-0.6,0c-1.4,0-2.1-0.7-2.2-2.2v-3.3l-1.1,0.1v-1.5h1.1L163.6,66.7z"/>
					<path class="st4" d="M169.6,68.7c1.5,0.1,2.2,0.8,2.2,2.2v4.8h-1.6l-0.1-0.6c-0.3,0.4-0.8,0.6-1.3,0.6c-0.2,0-0.5,0-0.7-0.1
						c-0.8-0.2-1.2-0.8-1.2-1.8c0-0.1,0-0.3,0-0.4c0.1-1.1,0.8-1.6,2.3-1.6c0.3,0,0.6,0,0.9,0.1v-0.8c0-0.6-0.2-0.9-0.6-0.9l0,0
						h-0.1c-0.4,0-0.6,0.3-0.6,1.1v0.1l-1.6-0.1c0-1.6,0.8-2.3,2.3-2.3L169.6,68.7L169.6,68.7z M170.2,74v-1.2
						c-0.2,0-0.4-0.1-0.5-0.1c-0.4,0-0.7,0.1-0.8,0.4c-0.1,0.2-0.1,0.3-0.1,0.5s0.1,0.3,0.2,0.5c0.1,0.1,0.3,0.2,0.4,0.2
						C169.5,74.2,169.8,74.2,170.2,74z"/>
				</g>
				<g>
					<g>
						<g>
							<path class="st9" d="M195.3,48.5c-0.1,0-0.1,0-0.2,0l-4.5-2.3c-0.2-0.1-0.3-0.4-0.2-0.6c0.1-0.2,0.4-0.3,0.6-0.2l4.5,2.3
								c0.2,0.1,0.3,0.4,0.2,0.6C195.6,48.4,195.5,48.5,195.3,48.5z"/>
						</g>
						<g>
							<path class="st9" d="M146.5,46.4c-0.1,0-0.3-0.1-0.3-0.3c-0.1-0.2,0-0.5,0.3-0.6l4.7-1.9c0.2-0.1,0.5,0,0.6,0.3
								c0.1,0.2,0,0.5-0.3,0.6l-4.7,1.9C146.7,46.4,146.6,46.4,146.5,46.4z"/>
						</g>
						<g>
							<g>
								<path class="st9" d="M167.3,62.5l-1.8-0.3c-0.2,0-0.4-0.3-0.4-0.5s0.3-0.4,0.5-0.4l0.9,0.1l0.5-3.3h2.2
									c0.2,0,0.5,0.2,0.4,0.5c0,0.2-0.2,0.5-0.5,0.5l0,0h-1.4L167.3,62.5z"/>
							</g>
						</g>
						<g>
							<g>
								<path class="st9" d="M171.9,62.5l-1.8-0.3c-0.2,0-0.4-0.3-0.4-0.5s0.3-0.4,0.5-0.4l0.9,0.1l0.5-3.3h2.2
									c0.2,0,0.5,0.2,0.4,0.5c0,0.2-0.2,0.5-0.5,0.5l0,0h-1.4L171.9,62.5z"/>
							</g>
						</g>
					</g>
					<g>
						<g>
							
								<rect x="157.3" y="25.6" transform="matrix(5.909435e-02 -0.9983 0.9983 5.909435e-02 114.9384 213.8613)" class="st10" width="27.2" height="40.8"/>
							<polygon class="st11" points="190.6,60.7 149.8,58.3 171,44.3 							"/>
							<polygon class="st9" points="151.4,31.1 192.1,33.5 171,47.8 							"/>
							<g>
								<g>
									<path d="M165.1,46.8c-0.2,3.2,2.2,6,5.4,6.2s6-2.3,6.2-5.5L165.1,46.8z"/>
									<path class="st12" d="M174.3,51.9c0,0-0.8-2.5-3.5-2.8s-4.4,1.9-4.4,1.9s2.7,3.7,7.2,1.4C173.8,52.2,174.1,52,174.3,51.9z"
										/>
								</g>
							</g>
						</g>
						<circle cx="168.5" cy="41.9" r="0.7"/>
						<circle cx="174" cy="42.1" r="0.7"/>
					</g>
				</g>
			</g>
		</g>
	</g>
</g>
<g>
	<ellipse class="st0" cx="245.9" cy="50" rx="35.2" ry="33.9"/>
	
		<image style="overflow:visible;enable-background:new    ;" width="233" height="96" xlink:href="AFB022FD7A076214.png"  transform="matrix(0.2349 0 0 0.2285 218.3365 61.2285)">
	</image>
	<path class="st1" d="M258.6,20.7"/>
	<g>
		<g>
			<path class="st2" d="M247.2,16.2"/>
		</g>
	</g>
	<g class="st3">
		
			<image style="overflow:visible;opacity:0.2;enable-background:new    ;" width="192" height="192" xlink:href="64750EA2A3112CE5.png"  transform="matrix(1 0 0 1 149.7106 -45)">
		</image>
		<g>
			
				<image style="overflow:visible;enable-background:new    ;" width="296" height="296" xlink:href="64750EA2A3112CFB.png"  transform="matrix(0.2419 0 0 0.2413 209.8296 15.2164)">
			</image>
		</g>
	</g>
	<circle class="st4" cx="242.6" cy="22.6" r="0.3"/>
	<g class="st5">
		<g class="st6">
			<path class="st4" d="M268.3,26c1.5,1.4,2.7,3.1,3.7,4.9c0.5,0.9,1,1.8,1.5,2.7c0.2,0.5,0.4,0.9,0.6,1.4l0.6,1.4l0.1,0.4l0.1,0.4
				l0.2,0.7l0.2,0.7c0.1,0.2,0.1,0.5,0.2,0.8c0.1,0.5,0.3,1,0.4,1.5l0.3,1.5c0,0.3,0.1,0.5,0.1,0.8l0.1,0.8l0.2,1.5l0.1,1.6v0.8
				c0,0.3,0,0.5,0,0.8l-0.1,1.6c0,0.3,0,0.5-0.1,0.8l-0.1,0.8c-0.1,1-0.3,2.1-0.5,3.1c-0.1,0.5-0.2,1-0.4,1.5l-0.2,0.8
				c-0.1,0.2-0.1,0.5-0.2,0.7l-0.5,1.5l-0.5,1.5c-0.7,1.9-1.6,3.8-2.6,5.6c-0.3,0.4-0.5,0.9-0.8,1.3s-0.5,0.9-0.8,1.3
				c-0.6,0.8-1.2,1.7-1.8,2.4c1.8-3.7,3.2-7.4,4.3-11.2c0.6-1.9,1-3.8,1.3-5.8c0.1-1,0.3-1.9,0.4-2.9c0-0.5,0.1-1,0.1-1.5v-1.5
				c0-0.2,0-0.5,0-0.7v-0.7v-1.5l-0.1-1.5l-0.1-0.7l-0.1-0.7l-0.2-1.5l-0.3-1.4c0-0.2-0.1-0.5-0.1-0.7l-0.2-0.7l-0.2-0.7l-0.1-0.4
				l-0.1-0.3l-0.4-1.4l-0.5-1.4c-0.3-0.9-0.7-1.9-1.1-2.8c-0.4-0.9-0.8-1.8-1.3-2.7c-0.2-0.4-0.5-0.9-0.7-1.3
				C268.9,26.8,268.6,26.4,268.3,26z"/>
		</g>
		<path class="st4" d="M265.4,27.3l-0.2-0.1h0.2c0.1,0,0.2-0.1,0.1-0.2c0-0.1-0.1-0.2-0.2-0.1l-0.6,0.1l-0.2-0.1l0.5-0.1
			c0.1,0,0.2-0.1,0.1-0.2c0-0.1-0.1-0.2-0.2-0.1l-0.9,0.2l-0.5-0.3l0.5-0.3l0.9,0.2c0.1,0,0.2,0,0.2-0.1s0-0.2-0.1-0.2l-0.5-0.1
			l0.2-0.1l0.6,0.1c0.1,0,0.2,0,0.2-0.1s0-0.2-0.1-0.2h-0.2l0.2-0.1c0.1,0,0.1-0.2,0.1-0.3s-0.2-0.1-0.3-0.1l-0.2,0.1V25
			c0-0.1,0-0.2-0.1-0.2s-0.2,0-0.2,0.1l-0.1,0.6l-0.2,0.1l0.1-0.5c0-0.1,0-0.2-0.1-0.2s-0.2,0-0.2,0.1l-0.2,0.9l-0.5,0.3v-0.6
			l0.6-0.6c0.1-0.1,0.1-0.2,0-0.3c-0.1-0.1-0.2-0.1-0.3,0l-0.4,0.4v-0.3l0.3-0.8c0.1-0.1,0.1-0.2,0-0.3s-0.2-0.1-0.3,0l-0.1,0.1
			v-0.2c0-0.1-0.1-0.2-0.2-0.2s-0.2,0.1-0.2,0.2v0.2l-0.1-0.1c-0.1-0.1-0.2-0.1-0.3,0s-0.1,0.2,0,0.3l0.4,0.4v0.3l-0.4-0.4
			c-0.1-0.1-0.2-0.1-0.3,0c-0.1,0.1-0.1,0.2,0,0.3l0.6,0.6v0.6l-0.5-0.3l-0.2-0.9c0-0.1-0.1-0.2-0.2-0.1c-0.1,0-0.2,0.1-0.1,0.2
			l0.1,0.5l-0.2-0.1l-0.1-0.6c0-0.1-0.1-0.2-0.2-0.1c-0.1,0-0.2,0.1-0.1,0.2v0.2l-0.2-0.1c-0.1,0-0.2,0-0.3,0.1c0,0.1,0,0.2,0.1,0.3
			l0.2,0.1h-0.2c-0.1,0-0.2,0.1-0.1,0.2c0,0.1,0.1,0.2,0.2,0.1l0.6-0.1l0.2,0.1l-0.5,0.1c-0.1,0-0.2,0.1-0.1,0.2
			c0,0.1,0.1,0.2,0.2,0.1l0.9-0.2l0.5,0.3l-0.5,0.3l-0.9-0.2c-0.1,0-0.2,0-0.2,0.1s0,0.2,0.1,0.2l0.5,0.1l-0.2,0.1l-0.6-0.1
			c-0.1,0-0.2,0-0.2,0.1s0,0.2,0.1,0.2h0.2l-0.2,0.1c-0.1,0-0.1,0.2-0.1,0.3s0.2,0.1,0.3,0.1l0.2-0.1v0.2c0,0.1,0,0.2,0.1,0.2
			s0.2,0,0.2-0.1l0.1-0.6l0.2-0.1l-0.1,0.5c0,0.1,0,0.2,0.1,0.2s0.2,0,0.2-0.1l0.2-0.9l0.5-0.3v0.6l-0.6,0.6c-0.1,0.1-0.1,0.2,0,0.3
			c0.1,0.1,0.2,0.1,0.3,0l0.4-0.4v0.3l-0.4,0.4c-0.1,0.1-0.1,0.2,0,0.3s0.2,0.1,0.3,0l0.1-0.1v0.2c0,0.1,0.1,0.2,0.2,0.2
			s0.2-0.1,0.2-0.2v-0.2l0.1,0.1c0.1,0.1,0.2,0.1,0.3,0s0.1-0.2,0-0.3l-0.4-0.4v-0.3l0.4,0.7c0.1,0.1,0.2,0.1,0.3,0
			c0.1-0.1,0.1-0.2,0-0.3l-0.6-0.6v-0.6l0.5,0.3l0.2,0.9c0,0.1,0.1,0.2,0.2,0.1c0.1,0,0.2-0.1,0.1-0.2l-0.1-0.5l0.2,0.1l0.2,0.6
			c0,0.1,0.1,0.2,0.2,0.1c0.1,0,0.2-0.1,0.1-0.2v-0.2l0.2,0.1c0.1,0,0.2,0,0.3-0.1C265.6,27.5,265.5,27.3,265.4,27.3z"/>
		<circle class="st4" cx="249.8" cy="23.8" r="1.2"/>
		<circle class="st4" cx="221.2" cy="41.9" r="0.3"/>
		<circle class="st4" cx="237.3" cy="46.9" r="0.3"/>
		<circle class="st4" cx="244.3" cy="48.3" r="0.7"/>
		<circle class="st4" cx="223.5" cy="52.7" r="0.7"/>
		<circle class="st4" cx="242.7" cy="17.8" r="0.6"/>
		<circle class="st4" cx="235.1" cy="24.6" r="0.6"/>
		<circle class="st4" cx="239.1" cy="34.3" r="0.3"/>
		<circle class="st4" cx="225.8" cy="56.8" r="0.3"/>
		<circle class="st4" cx="218.9" cy="48.5" r="0.3"/>
		<circle class="st4" cx="224.5" cy="32.2" r="0.3"/>
		<circle class="st4" cx="224" cy="25.4" r="0.3"/>
		<circle class="st4" cx="256.6" cy="22.1" r="0.3"/>
		<circle class="st4" cx="214.1" cy="51.8" r="0.7"/>
		<circle class="st7" cx="244.1" cy="56" r="1.1"/>
		<circle class="st7" cx="232.9" cy="35.6" r="0.7"/>
		<circle class="st7" cx="228.9" cy="24.9" r="0.5"/>
		<circle class="st7" cx="248.6" cy="35.9" r="0.5"/>
		<circle class="st7" cx="230.7" cy="52.9" r="0.5"/>
		<circle class="st7" cx="213.6" cy="50.5" r="0.6"/>
	</g>
	<g>
		
			<image style="overflow:visible;opacity:0.3;enable-background:new    ;" width="106" height="65" xlink:href="64750EA2A3112CFD.png"  transform="matrix(1 0 0 1 199.7106 30)">
		</image>
		<g>
			<g>
				<polygon class="st8" points="203.3,58 249,60.3 284.1,62.1 284,83.6 204.2,85.9 				"/>
				<g>
					<path class="st4" d="M217.3,75.5c-0.6-3-1.2-6.2-1.9-9.5l2-0.2l1.1,7.4c0.6-2.6,1.1-4.9,1.4-7l1.9,0.2c-0.9,4.1-1.6,7.1-2.1,9
						L217.3,75.5z"/>
					<path class="st4" d="M224.1,68.9c1.6,0,2.3,1,2.3,3.1c0,0.2,0,0.5,0,0.8h-3c0,1.2,0.2,1.7,0.7,1.7h0.1c0.4,0,0.6-0.3,0.6-0.9
						c0-0.1,0-0.3,0-0.4h1.6c0,1.7-0.8,2.6-2.2,2.6c0,0,0,0-0.1,0c-1.4,0-2.1-1.1-2.1-3.2v-0.2C221.9,70,222.7,68.9,224.1,68.9z
						 M223.3,71.5h1.5v-0.2c0-0.8-0.2-1.2-0.7-1.2C223.6,70.1,223.3,70.6,223.3,71.5z"/>
					<path class="st4" d="M228.8,70.9l0.1,4.9h-1.6c0-2.1-0.1-4.4-0.2-6.9l1.2-0.1l0.1,1.1c0.2-0.5,0.6-0.8,1.3-0.9
						c0.1,0,0.2,0,0.3,0c0.5,0,0.9,0.2,1.2,0.5c0.3,0.4,0.5,1.1,0.5,2l-1.5,0.2c0-0.1,0-0.2,0-0.2c0-0.7-0.2-1.1-0.6-1.1l0,0
						C229.1,70.3,228.8,70.5,228.8,70.9z"/>
					<path class="st4" d="M235.6,68.7v1.1c0.2-0.5,0.5-0.8,0.8-1c0.2-0.1,0.4-0.1,0.6-0.1c0.1,0,0.3,0,0.4,0.1
						c0.4,0.1,0.6,0.4,0.8,1.1c0.1-0.5,0.3-0.8,0.6-1s0.6-0.2,0.9-0.2l0,0c0.3,0,0.7,0.1,1,0.2c0.3,0.2,0.6,0.5,0.7,1
						s0.3,1.1,0.3,1.9v3.9h-1.4c0.1-1.5,0.1-2.7,0.1-3.8s-0.2-1.6-0.6-1.7c-0.1,0-0.1,0-0.2,0c-0.3,0-0.6,0.2-0.7,0.6
						c0,0.5,0,1,0,1.6c0,0.8,0,1.8,0.1,3h-1.7c0.1-1.7,0.1-3,0.1-3.8v-0.1c0-0.8-0.2-1.2-0.5-1.2h-0.1c-0.3,0-0.5,0.2-0.8,0.5v4.9
						l-1.6,0.1v-1.1c0-1.9,0-3.9-0.1-5.8L235.6,68.7z"/>
					<path class="st4" d="M244.1,67.3c0,0.3-0.1,0.5-0.3,0.7s-0.4,0.3-0.7,0.3s-0.5-0.1-0.7-0.3s-0.3-0.4-0.3-0.7s0.1-0.5,0.3-0.7
						s0.4-0.3,0.7-0.3s0.5,0.1,0.7,0.3C244,66.8,244.1,67,244.1,67.3z M242.3,75.8c0-2.6-0.1-4.9-0.1-6.8l1.7-0.1
						c-0.1,1.8-0.1,3.6-0.1,5.4c0,0.5,0,1,0,1.4L242.3,75.8L242.3,75.8z"/>
					<path class="st4" d="M249.7,73l1.6,0.1c0,1.6-0.8,2.4-2.2,2.5c0,0,0,0-0.1,0c-1.4,0-2.1-1.1-2.1-3.2v-0.2
						c0-2.3,0.8-3.5,2.3-3.5h0.1c1.4,0,2,0.8,2,2.3c0,0.1,0,0.2,0,0.3l-1.4,0.1v-0.2c0-0.8-0.2-1.2-0.7-1.2s-0.7,0.7-0.7,2v0.2
						c0,1.4,0.3,2.1,0.7,2.1l0,0c0.4,0,0.6-0.3,0.6-0.9C249.8,73.3,249.8,73.1,249.7,73z"/>
					<path class="st4" d="M254.5,68.7c1.5,0.1,2.2,0.8,2.2,2.2v4.8h-1.6v-0.6c-0.3,0.4-0.8,0.6-1.3,0.6c-0.2,0-0.5,0-0.7-0.1
						c-0.8-0.2-1.2-0.8-1.2-1.8c0-0.1,0-0.3,0-0.4c0.1-1.1,0.8-1.6,2.3-1.6c0.3,0,0.6,0,0.9,0.1v-0.8c0-0.6-0.2-0.9-0.6-0.9l0,0
						h-0.1c-0.4,0-0.6,0.3-0.6,1.1v0.1l-1.6-0.1c0-1.6,0.8-2.3,2.3-2.3L254.5,68.7L254.5,68.7z M255.1,74v-1.2
						c-0.2,0-0.4-0.1-0.5-0.1c-0.4,0-0.7,0.1-0.8,0.4c-0.1,0.2-0.1,0.3-0.1,0.5s0.1,0.3,0.2,0.5c0.1,0.1,0.3,0.2,0.4,0.2
						C254.4,74.2,254.7,74.2,255.1,74z"/>
					<path class="st4" d="M259,70.9l0.1,4.9h-1.6c0-2.1-0.1-4.4-0.2-6.9l1.2-0.1l0.1,1.1c0.2-0.5,0.6-0.8,1.3-0.9c0.1,0,0.2,0,0.3,0
						c0.5,0,1,0.2,1.2,0.5c0.3,0.4,0.5,1.1,0.5,2l-1.5,0.2c0-0.1,0-0.2,0-0.2c0-0.7-0.2-1.1-0.6-1.1l0,0
						C259.4,70.3,259.1,70.5,259,70.9z"/>
					<path class="st4" d="M263.5,66.7l1.5-0.1v2.2h1.3v1.3l-1.3,0.1v3.1c0,0.7,0.3,1.1,0.9,1.1c0.1,0,0.3,0,0.4-0.1l-0.1,1.5
						c-0.2,0-0.4,0-0.6,0c-1.4,0-2.1-0.7-2.2-2.2v-3.3l-1.1,0.1v-1.5h1.1L263.5,66.7z"/>
					<path class="st4" d="M269.5,68.7c1.5,0.1,2.2,0.8,2.2,2.2v4.8h-1.6v-0.6c-0.3,0.4-0.8,0.6-1.3,0.6c-0.2,0-0.5,0-0.7-0.1
						c-0.8-0.2-1.2-0.8-1.2-1.8c0-0.1,0-0.3,0-0.4c0.1-1.1,0.8-1.6,2.3-1.6c0.3,0,0.6,0,0.9,0.1v-0.8c0-0.6-0.2-0.9-0.6-0.9l0,0
						h-0.1c-0.4,0-0.6,0.3-0.6,1.1v0.1l-1.6-0.1c0-1.6,0.8-2.3,2.3-2.3L269.5,68.7L269.5,68.7z M270,74v-1.2c-0.2,0-0.4-0.1-0.5-0.1
						c-0.4,0-0.7,0.1-0.8,0.4c-0.1,0.2-0.1,0.3-0.1,0.5s0.1,0.3,0.2,0.5c0.1,0.1,0.3,0.2,0.4,0.2C269.4,74.2,269.7,74.2,270,74z"/>
				</g>
				<g>
					<g>
						<path class="st9" d="M295.7,48.6c0,0-0.1,0.1-0.2,0.1l-4.9,1.3c-0.2,0.1-0.5-0.1-0.6-0.3s0.1-0.5,0.3-0.6l4.9-1.3
							c0.2-0.1,0.5,0.1,0.6,0.3C295.8,48.3,295.8,48.5,295.7,48.6z"/>
					</g>
					<g>
						<path class="st9" d="M246,46.7c-0.1-0.1-0.2-0.3-0.1-0.4c0.1-0.2,0.3-0.4,0.6-0.3l4.9,1.2c0.2,0.1,0.4,0.3,0.3,0.5
							c-0.1,0.2-0.3,0.4-0.6,0.3l-4.9-1.2C246.1,46.8,246.1,46.8,246,46.7z"/>
					</g>
					<g>
						<g>
							<path class="st9" d="M267.2,64.4l-1.8-0.3c-0.2,0-0.4-0.3-0.4-0.5s0.3-0.4,0.5-0.4l0.9,0.1l0.5-3.3h2.2
								c0.2,0,0.5,0.2,0.5,0.5c0,0.2-0.2,0.5-0.5,0.5l0,0h-1.4L267.2,64.4z"/>
						</g>
					</g>
					<g>
						<g>
							<path class="st9" d="M271.7,64.5l-1.8-0.3c-0.2,0-0.4-0.3-0.4-0.5s0.3-0.4,0.5-0.4l0.9,0.1l0.5-3.3h2.2
								c0.2,0,0.5,0.2,0.5,0.5c0,0.2-0.2,0.5-0.5,0.5l0,0h-1.4L271.7,64.5z"/>
						</g>
					</g>
				</g>
				<g>
					<g>
						
							<rect x="257.2" y="27.5" transform="matrix(5.909435e-02 -0.9983 0.9983 5.909435e-02 206.9898 315.4518)" class="st10" width="27.2" height="40.8"/>
						<polygon class="st11" points="290.5,62.7 249.7,60.3 270.8,46.3 						"/>
						<polygon class="st9" points="251.2,33.1 292,35.5 270.8,49.8 						"/>
						<g>
							<g>
								<path d="M264.9,48.8c-0.2,3.2,2.2,6,5.5,6.2c3.2,0.2,6-2.3,6.2-5.5L264.9,48.8z"/>
								<path class="st12" d="M274.2,53.9c0,0-0.8-2.5-3.5-2.8s-4.4,1.9-4.4,1.9s2.7,3.7,7.2,1.4C273.7,54.2,273.9,54,274.2,53.9z"
									/>
							</g>
						</g>
					</g>
					<circle cx="268.3" cy="43.9" r="0.7"/>
					<circle cx="273.8" cy="44.1" r="0.7"/>
				</g>
			</g>
		</g>
	</g>
</g>
<g>
	<ellipse class="st0" cx="646.4" cy="50" rx="35.2" ry="33.9"/>
	
		<image style="overflow:visible;enable-background:new    ;" width="233" height="96" xlink:href="64750EA2A3112CFF.png"  transform="matrix(0.2349 0 0 0.2285 618.749 61.229)">
	</image>
	<path class="st1" d="M659,20.7"/>
	<g>
		<g>
			<path class="st2" d="M647.6,16.2"/>
		</g>
	</g>
	<g class="st3">
		
			<image style="overflow:visible;opacity:0.2;enable-background:new    ;" width="193" height="192" xlink:href="64750EA2A3112CFC.png"  transform="matrix(0.9948 0 0 1 550.1247 -45)">
		</image>
		<g>
			
				<image style="overflow:visible;enable-background:new    ;" width="296" height="296" xlink:href="64750EA2A3112CE4.png"  transform="matrix(0.2419 0 0 0.2413 610.2421 15.217)">
			</image>
		</g>
	</g>
	<circle class="st4" cx="643" cy="22.6" r="0.3"/>
	<g class="st5">
		<g class="st6">
			<path class="st4" d="M668.8,26c1.5,1.4,2.7,3.1,3.7,4.9c0.5,0.9,1,1.8,1.5,2.7c0.2,0.5,0.4,0.9,0.7,1.4l0.6,1.4l0.1,0.4l0.1,0.4
				l0.2,0.7l0.2,0.7c0.1,0.2,0.1,0.5,0.2,0.8c0.1,0.5,0.3,1,0.4,1.5l0.3,1.5c0,0.3,0.1,0.5,0.1,0.8L677,44l0.2,1.5l0.1,1.6v0.8
				c0,0.3,0,0.5,0,0.8l-0.1,1.6c0,0.3,0,0.5-0.1,0.8l-0.1,0.8c-0.1,1-0.3,2.1-0.5,3.1c-0.1,0.5-0.2,1-0.4,1.5L676,57
				c-0.1,0.2-0.2,0.5-0.2,0.7l-0.5,1.5l-0.5,1.5c-0.7,1.9-1.6,3.8-2.6,5.6c-0.3,0.4-0.5,0.9-0.8,1.3s-0.5,0.9-0.8,1.3
				c-0.6,0.8-1.2,1.7-1.8,2.4c1.8-3.7,3.2-7.4,4.3-11.2c0.6-1.9,1-3.8,1.3-5.8c0.1-1,0.3-1.9,0.4-2.9c0-0.5,0.1-1,0.1-1.5v-1.5
				c0-0.2,0-0.5,0-0.7V47v-1.5l-0.1-1.5l-0.1-0.7l-0.1-0.7l-0.2-1.5l-0.3-1.4c0-0.2-0.1-0.5-0.2-0.7l-0.2-0.7l-0.2-0.7l-0.1-0.4
				l-0.1-0.3l-0.4-1.4l-0.5-1.4c-0.3-0.9-0.7-1.9-1.1-2.8c-0.4-0.9-0.8-1.8-1.3-2.7c-0.2-0.4-0.5-0.9-0.7-1.3
				C669.3,26.8,669,26.4,668.8,26z"/>
		</g>
		<path class="st4" d="M665.8,27.3l-0.2-0.1h0.2c0.1,0,0.2-0.1,0.1-0.2c0-0.1-0.1-0.2-0.2-0.1l-0.6,0.1l-0.2-0.1l0.5-0.1
			c0.1,0,0.2-0.1,0.1-0.2c0-0.1-0.1-0.2-0.2-0.1l-0.9,0.2l-0.5-0.3l0.5-0.3l0.9,0.2c0.1,0,0.2,0,0.2-0.1s0-0.2-0.1-0.2l-0.5-0.1
			l0.2-0.1l0.6,0.1c0.1,0,0.2,0,0.2-0.1s0-0.2-0.1-0.2h-0.2l0.2-0.1c0.1,0,0.1-0.2,0.1-0.3s-0.2-0.1-0.3-0.1l-0.2,0.1V25
			c0-0.1,0-0.2-0.1-0.2s-0.2,0-0.2,0.1l-0.2,0.6l-0.2,0.1l0.1-0.5c0-0.1,0-0.2-0.1-0.2s-0.2,0-0.2,0.1l-0.2,0.9l-0.5,0.3v-0.6
			l0.6-0.6c0.1-0.1,0.1-0.2,0-0.3c-0.1-0.1-0.2-0.1-0.3,0l-0.4,0.4v-0.3l0.4-0.4c0.1-0.1,0.1-0.2,0-0.3c-0.1-0.1-0.2-0.1-0.3,0
			l-0.1,0.1V24c0-0.1-0.1-0.2-0.2-0.2c-0.1,0-0.2,0.1-0.2,0.2v0.2l-0.1-0.1c-0.1-0.1-0.2-0.1-0.3,0s-0.1,0.2,0,0.3l0.4,0.4v0.3
			l-0.4-0.4c-0.1-0.1-0.2-0.1-0.3,0s-0.1,0.2,0,0.3l0.6,0.6v0.6l-0.5-0.3l-0.2-0.9c0-0.1-0.1-0.2-0.2-0.1c-0.1,0-0.2,0.1-0.1,0.2
			l0.1,0.5l-0.2-0.1l-0.2-0.6c0-0.1-0.1-0.2-0.2-0.1c-0.1,0-0.2,0.1-0.1,0.2v0.2l-0.2-0.1c-0.1,0-0.2,0-0.3,0.1s0,0.2,0.1,0.3
			l0.2,0.1h-0.2c-0.1,0-0.2,0.1-0.1,0.2c0,0.1,0.1,0.2,0.2,0.1l0.6-0.1l0.2,0.1l-0.5,0.1c-0.1,0-0.2,0.1-0.1,0.2
			c0,0.1,0.1,0.2,0.2,0.1l0.9-0.2l0.5,0.3l-0.5,0.3l-0.9-0.2c-0.1,0-0.2,0-0.2,0.1s0,0.2,0.1,0.2l0.5,0.1l-0.2,0.1l-0.6-0.1
			c-0.1,0-0.2,0-0.2,0.1s0,0.2,0.1,0.2h0.2l-0.2,0.1c-0.1,0-0.1,0.2-0.1,0.3s0.2,0.1,0.3,0.1l0.2-0.1v0.2c0,0.1,0,0.2,0.1,0.2
			s0.2,0,0.2-0.1l0.2-0.6l0.2-0.1l-0.1,0.5c0,0.1,0,0.2,0.1,0.2s0.2,0,0.2-0.1l0.2-0.9l0.5-0.3v0.6l-0.6,0.6c-0.1,0.1-0.1,0.2,0,0.3
			s0.2,0.1,0.3,0l0.4-0.4V28l-0.4,0.4c-0.1,0.1-0.1,0.2,0,0.3c0.1,0.1,0.2,0.1,0.3,0l0.1-0.1v0.2c0,0.1,0.1,0.2,0.2,0.2
			c0.1,0,0.2-0.1,0.2-0.2v-0.2l0.1,0.1c0.1,0.1,0.2,0.1,0.3,0s0.1-0.2,0-0.3l-0.4-0.4v-0.3l0.4,0.4c0.1,0.1,0.2,0.1,0.3,0
			s0.1-0.2,0-0.3l-0.6-0.6v-0.6l0.5,0.3l0.2,0.9c0,0.1,0.1,0.2,0.2,0.1c0.1,0,0.2-0.1,0.1-0.2l-0.1-0.5l0.2,0.1l0.2,0.6
			c0,0.1,0.1,0.2,0.2,0.1c0.1,0,0.2-0.1,0.1-0.2v-0.2l0.2,0.1c0.1,0,0.2,0,0.3-0.1C666,27.5,666,27.3,665.8,27.3z"/>
		<circle class="st4" cx="650.3" cy="23.8" r="1.2"/>
		<circle class="st4" cx="621.7" cy="41.9" r="0.3"/>
		<circle class="st4" cx="637.7" cy="46.9" r="0.3"/>
		<circle class="st4" cx="644.8" cy="48.3" r="0.7"/>
		<circle class="st4" cx="623.9" cy="52.7" r="0.7"/>
		<circle class="st4" cx="643.1" cy="17.8" r="0.6"/>
		<circle class="st4" cx="635.5" cy="24.6" r="0.6"/>
		<circle class="st4" cx="639.6" cy="34.3" r="0.3"/>
		<circle class="st4" cx="626.2" cy="56.8" r="0.3"/>
		<circle class="st4" cx="619.4" cy="48.5" r="0.3"/>
		<circle class="st4" cx="624.9" cy="32.2" r="0.3"/>
		<circle class="st4" cx="624.4" cy="25.4" r="0.3"/>
		<circle class="st4" cx="657" cy="22.1" r="0.3"/>
		<circle class="st4" cx="614.5" cy="51.8" r="0.7"/>
		<circle class="st7" cx="644.6" cy="56" r="1.1"/>
		<circle class="st7" cx="633.4" cy="35.6" r="0.7"/>
		<circle class="st7" cx="629.3" cy="24.9" r="0.5"/>
		<circle class="st7" cx="649" cy="35.9" r="0.5"/>
		<circle class="st7" cx="631.2" cy="52.9" r="0.5"/>
		<circle class="st7" cx="614" cy="50.5" r="0.6"/>
	</g>
	<g>
		
			<image style="overflow:visible;opacity:0.3;enable-background:new    ;" width="105" height="65" xlink:href="64750EA2A3112CE7.png"  transform="matrix(1 0 0 1 600 30)">
		</image>
		<g>
			<g>
				<polygon class="st8" points="603.8,58 649.4,60.3 684.5,62.1 684.4,83.6 604.7,85.9 				"/>
				<g>
					<path class="st4" d="M617.7,75.5c-0.5-3-1.2-6.2-1.9-9.5l2-0.2l1.2,7.4c0.6-2.6,1.1-4.9,1.4-7l1.9,0.2c-0.9,4.1-1.6,7.1-2.1,9
						L617.7,75.5z"/>
					<path class="st4" d="M624.5,68.9c1.5,0,2.3,1,2.3,3.1c0,0.2,0,0.5,0,0.8h-3c0,1.2,0.2,1.7,0.7,1.7l0,0c0.4,0,0.6-0.3,0.6-0.9
						c0-0.1,0-0.3,0-0.4h1.6c0,1.7-0.8,2.6-2.2,2.6l0,0c-1.4,0-2.1-1.1-2.1-3.2v-0.2C622.3,70,623.1,68.9,624.5,68.9z M623.7,71.5
						h1.5v-0.2c0-0.8-0.2-1.2-0.7-1.2C624,70.1,623.7,70.6,623.7,71.5z"/>
					<path class="st4" d="M629.2,70.9l0.1,4.9h-1.7c0-2.1-0.1-4.4-0.2-6.9l1.2-0.1l0.1,1.1c0.2-0.5,0.6-0.8,1.3-0.9
						c0.1,0,0.2,0,0.3,0c0.5,0,1,0.2,1.2,0.5c0.3,0.4,0.5,1.1,0.5,2l-1.5,0.2c0-0.1,0-0.2,0-0.2c0-0.7-0.2-1.1-0.6-1.1l0,0
						C629.5,70.3,629.3,70.5,629.2,70.9z"/>
					<path class="st4" d="M636.1,68.7v1.1c0.2-0.5,0.5-0.8,0.8-1c0.2-0.1,0.4-0.1,0.6-0.1c0.1,0,0.3,0,0.4,0.1
						c0.3,0.1,0.6,0.4,0.8,1.1c0.1-0.5,0.3-0.8,0.6-1s0.6-0.2,1-0.2l0,0c0.3,0,0.7,0.1,1,0.2c0.3,0.2,0.6,0.5,0.7,1s0.3,1.1,0.3,1.9
						v3.9h-1.5c0.1-1.5,0.1-2.7,0.1-3.8s-0.2-1.6-0.6-1.7c-0.1,0-0.1,0-0.2,0c-0.3,0-0.6,0.2-0.7,0.6c0,0.5,0,1,0,1.6
						c0,0.8,0,1.8,0.1,3h-1.7c0.1-1.7,0.1-3,0.1-3.8v-0.1c0-0.8-0.2-1.2-0.5-1.2h-0.1c-0.3,0-0.5,0.2-0.8,0.5v4.9l-1.6,0.1v-1.1
						c0-1.9,0-3.9-0.1-5.8L636.1,68.7z"/>
					<path class="st4" d="M644.5,67.3c0,0.3-0.1,0.5-0.3,0.7s-0.4,0.3-0.7,0.3s-0.5-0.1-0.7-0.3s-0.3-0.4-0.3-0.7s0.1-0.5,0.3-0.7
						s0.4-0.3,0.7-0.3s0.5,0.1,0.7,0.3C644.4,66.8,644.5,67,644.5,67.3z M642.7,75.8c0-2.6,0-4.9,0-6.8l1.7-0.1
						c0,1.8-0.1,3.6-0.1,5.4c0,0.5,0,1,0,1.4L642.7,75.8L642.7,75.8z"/>
					<path class="st4" d="M650.2,73l1.6,0.1c0,1.6-0.8,2.4-2.2,2.5l0,0c-1.4,0-2.1-1.1-2.1-3.2v-0.2c0-2.3,0.8-3.5,2.3-3.5l0,0
						c1.3,0,2,0.8,2,2.3c0,0.1,0,0.2,0,0.3l-1.4,0.1v-0.2c0-0.8-0.2-1.2-0.7-1.2s-0.7,0.7-0.7,2v0.2c0,1.4,0.3,2.1,0.7,2.1l0,0
						c0.4,0,0.6-0.3,0.6-0.9C650.2,73.3,650.2,73.1,650.2,73z"/>
					<path class="st4" d="M654.9,68.7c1.5,0.1,2.2,0.8,2.2,2.2v4.8h-1.6v-0.6c-0.3,0.4-0.8,0.6-1.3,0.6c-0.2,0-0.5,0-0.7-0.1
						c-0.8-0.2-1.2-0.8-1.2-1.8c0-0.1,0-0.3,0-0.4c0.1-1.1,0.8-1.6,2.3-1.6c0.3,0,0.6,0,0.9,0.1v-0.8c0-0.6-0.2-0.9-0.6-0.9l0,0
						h-0.1c-0.4,0-0.7,0.3-0.7,1.1v0.1l-1.6-0.1c0-1.6,0.8-2.3,2.3-2.3L654.9,68.7L654.9,68.7z M655.5,74v-1.2
						c-0.2,0-0.4-0.1-0.5-0.1c-0.4,0-0.7,0.1-0.8,0.4c-0.1,0.2-0.1,0.3-0.1,0.5s0.1,0.3,0.2,0.5c0.1,0.1,0.3,0.2,0.4,0.2
						C654.9,74.2,655.2,74.2,655.5,74z"/>
					<path class="st4" d="M659.5,70.9l0.1,4.9h-1.7c0-2.1-0.1-4.4-0.2-6.9l1.2-0.1l0.1,1.1c0.2-0.5,0.6-0.8,1.3-0.9
						c0.1,0,0.2,0,0.3,0c0.5,0,1,0.2,1.2,0.5c0.3,0.4,0.5,1.1,0.5,2l-1.5,0.2c0-0.1,0-0.2,0-0.2c0-0.7-0.2-1.1-0.6-1.1l0,0
						C659.8,70.3,659.5,70.5,659.5,70.9z"/>
					<path class="st4" d="M663.9,66.7l1.5-0.1v2.2h1.3v1.3l-1.3,0.1v3.1c0,0.7,0.3,1.1,0.9,1.1c0.1,0,0.3,0,0.4-0.1l-0.1,1.5
						c-0.2,0-0.4,0-0.6,0c-1.4,0-2.1-0.7-2.2-2.2v-3.3l-1.1,0.1v-1.5h1.1L663.9,66.7z"/>
					<path class="st4" d="M669.9,68.7c1.5,0.1,2.2,0.8,2.2,2.2v4.8h-1.6v-0.6c-0.3,0.4-0.8,0.6-1.3,0.6c-0.2,0-0.5,0-0.7-0.1
						c-0.8-0.2-1.2-0.8-1.2-1.8c0-0.1,0-0.3,0-0.4c0.1-1.1,0.8-1.6,2.3-1.6c0.3,0,0.6,0,0.9,0.1v-0.8c0-0.6-0.2-0.9-0.6-0.9l0,0
						h-0.1c-0.4,0-0.7,0.3-0.7,1.1v0.1l-1.6-0.1c0-1.6,0.8-2.3,2.3-2.3L669.9,68.7L669.9,68.7z M670.4,74v-1.2
						c-0.2,0-0.4-0.1-0.5-0.1c-0.4,0-0.7,0.1-0.8,0.4c-0.1,0.2-0.1,0.3-0.1,0.5s0.1,0.3,0.2,0.5c0.1,0.1,0.3,0.2,0.4,0.2
						C669.8,74.2,670.1,74.2,670.4,74z"/>
				</g>
				<g>
					<g>
						<path class="st9" d="M695.7,47.4c0,0.1-0.1,0.1-0.1,0.2l-3.8,3.3c-0.2,0.2-0.5,0.1-0.7,0c-0.2-0.2-0.1-0.5,0-0.7l3.8-3.3
							c0.2-0.2,0.5-0.1,0.7,0C695.7,47.1,695.8,47.3,695.7,47.4z"/>
					</g>
					<g>
						<path class="st9" d="M647,45.2c0-0.2,0-0.3,0.1-0.4c0.2-0.2,0.5-0.2,0.7,0l3.5,3.7c0.2,0.2,0.2,0.5,0,0.7s-0.5,0.2-0.7,0
							l-3.5-3.7C647.1,45.4,647,45.3,647,45.2z"/>
					</g>
					<g>
						<g>
							<path class="st9" d="M667.6,64.4l-1.8-0.3c-0.2,0-0.4-0.3-0.4-0.5s0.3-0.4,0.5-0.4l0.9,0.1l0.5-3.3h2.2
								c0.2,0,0.5,0.2,0.5,0.5c0,0.2-0.2,0.5-0.5,0.5l0,0h-1.4L667.6,64.4z"/>
						</g>
					</g>
					<g>
						<g>
							<path class="st9" d="M672.1,64.5l-1.8-0.3c-0.2,0-0.4-0.3-0.4-0.5s0.3-0.4,0.5-0.4l0.9,0.1l0.5-3.3h2.2
								c0.2,0,0.5,0.2,0.5,0.5c0,0.2-0.2,0.5-0.5,0.5l0,0h-1.4L672.1,64.5z"/>
						</g>
					</g>
				</g>
				<g>
					<g>
						<g>
							
								<rect x="657.7" y="27.6" transform="matrix(5.909435e-02 -0.9983 0.9983 5.909435e-02 583.7864 715.2984)" class="st10" width="27.2" height="40.8"/>
							<polygon class="st11" points="690.9,62.7 650.1,60.3 671.2,46.3 							"/>
							<polygon class="st9" points="651.7,33.1 692.4,35.5 671.2,49.8 							"/>
						</g>
					</g>
					<g>
						<g>
							<path d="M665.3,49c-0.2,3.2,2.2,6,5.5,6.2s6-2.3,6.2-5.5L665.3,49z"/>
							<path class="st12" d="M674.6,54.1c0,0-0.8-2.5-3.5-2.8s-4.4,1.9-4.4,1.9s2.7,3.7,7.2,1.4C674.1,54.4,674.4,54.2,674.6,54.1z"
								/>
						</g>
						<g>
							<g>
								<path d="M676.5,44.8c-0.1,0-0.2,0-0.2-0.1c-0.1,0-1.4-1.1-2.4-0.2c-0.1,0.1-0.4,0.1-0.5,0s-0.1-0.4,0-0.5
									c1.2-1.1,2.7-0.4,3.3,0.1c0.1,0.1,0.2,0.3,0,0.5C676.6,44.8,676.5,44.8,676.5,44.8z"/>
							</g>
						</g>
						<g>
							<g>
								<path d="M669.4,44.4c-0.1,0-0.2,0-0.3-0.1c-0.9-1.1-2.3-0.2-2.4-0.1c-0.2,0.1-0.4,0.1-0.5-0.1c-0.1-0.2-0.1-0.4,0.1-0.5
									c0.7-0.5,2.2-1,3.3,0.3c0.1,0.2,0.1,0.4,0,0.5C669.5,44.4,669.5,44.4,669.4,44.4z"/>
							</g>
						</g>
					</g>
				</g>
			</g>
		</g>
	</g>
</g>
<g>
	<ellipse class="st0" cx="346.6" cy="50" rx="35.2" ry="33.9"/>
	
		<image style="overflow:visible;enable-background:new    ;" width="233" height="96" xlink:href="64750EA2A3112CE2.png"  transform="matrix(0.2349 0 0 0.2285 318.9407 61.229)">
	</image>
	<path class="st1" d="M359.2,20.7"/>
	<g>
		<g>
			<path class="st2" d="M347.8,16.2"/>
		</g>
	</g>
	<g class="st3">
		
			<image style="overflow:visible;opacity:0.2;enable-background:new    ;" width="193" height="192" xlink:href="64750EA2A3112CE3.png"  transform="matrix(1 0 0 1 249.5659 -45)">
		</image>
		<g>
			
				<image style="overflow:visible;enable-background:new    ;" width="300" height="296" xlink:href="64750EA2A3112CEB.png"  transform="matrix(0.2386 0 0 0.2413 310.4338 15.217)">
			</image>
		</g>
	</g>
	<circle class="st4" cx="343.2" cy="22.6" r="0.3"/>
	<g class="st5">
		<g class="st6">
			<path class="st4" d="M369,26c1.5,1.4,2.7,3.1,3.7,4.9c0.5,0.9,1,1.8,1.5,2.7c0.2,0.5,0.4,0.9,0.6,1.4l0.6,1.4l0.1,0.4l0.1,0.4
				l0.2,0.7l0.2,0.7c0.1,0.2,0.1,0.5,0.2,0.8c0.1,0.5,0.3,1,0.4,1.5l0.3,1.5c0,0.3,0.1,0.5,0.1,0.8l0.1,0.8l0.2,1.5l0.1,1.6v0.8
				c0,0.3,0,0.5,0,0.8l-0.1,1.6c0,0.3,0,0.5-0.1,0.8l-0.1,0.8c-0.1,1-0.3,2.1-0.5,3.1c-0.1,0.5-0.2,1-0.4,1.5l-0.2,0.8
				c-0.1,0.2-0.1,0.5-0.2,0.7l-0.5,1.5l-0.5,1.5c-0.7,1.9-1.6,3.8-2.6,5.6c-0.3,0.4-0.5,0.9-0.8,1.3s-0.5,0.9-0.8,1.3
				c-0.6,0.8-1.2,1.7-1.8,2.4c1.8-3.7,3.2-7.4,4.3-11.2c0.6-1.9,1-3.8,1.3-5.8c0.1-1,0.3-1.9,0.4-2.9c0-0.5,0.1-1,0.1-1.5v-1.5
				c0-0.2,0-0.5,0-0.7v-0.7v-1.5l-0.1-1.5l-0.1-0.7l-0.1-0.7l-0.2-1.5l-0.3-1.4c0-0.2-0.1-0.5-0.1-0.7l-0.2-0.7l-0.2-0.7l-0.1-0.4
				l-0.1-0.3l-0.4-1.4l-0.5-1.4c-0.3-0.9-0.7-1.9-1.1-2.8c-0.4-0.9-0.8-1.8-1.3-2.7c-0.2-0.4-0.5-0.9-0.7-1.3
				C369.5,26.8,369.3,26.4,369,26z"/>
		</g>
		<path class="st4" d="M366.1,27.3l-0.2-0.1h0.2c0.1,0,0.2-0.1,0.1-0.2c0-0.1-0.1-0.2-0.2-0.1l-0.6,0.1l-0.2-0.1l0.5-0.1
			c0.1,0,0.2-0.1,0.1-0.2c0-0.1-0.1-0.2-0.2-0.1l-0.9,0.2l-0.5-0.3l0.5-0.3l0.9,0.2c0.1,0,0.2,0,0.2-0.1s0-0.2-0.1-0.2l-0.5-0.1
			l0.2-0.1l0.6,0.1c0.1,0,0.2,0,0.2-0.1s0-0.2-0.1-0.2h-0.2l0.2-0.1c0.1,0,0.1-0.2,0.1-0.3s-0.2-0.1-0.3-0.1l-0.2,0.1V25
			c0-0.1,0-0.2-0.1-0.2s-0.2,0-0.2,0.1l-0.1,0.6l-0.2,0.1l0.1-0.5c0-0.1,0-0.2-0.1-0.2s-0.2,0-0.2,0.1l-0.2,0.9l-0.5,0.3v-0.6
			l0.6-0.6c0.1-0.1,0.1-0.2,0-0.3c-0.1-0.1-0.2-0.1-0.3,0l-0.4,0.4v-0.3l0.4-0.4c0.1-0.1,0.1-0.2,0-0.3c-0.1-0.1-0.2-0.1-0.3,0
			l-0.1,0.1V24c0-0.1-0.1-0.2-0.2-0.2s-0.2,0.1-0.2,0.2v0.2l-0.1-0.1c-0.1-0.1-0.2-0.1-0.3,0c-0.1,0.1-0.1,0.2,0,0.3l0.4,0.4v0.3
			l-0.4-0.4c-0.1-0.1-0.2-0.1-0.3,0c-0.1,0.1-0.1,0.2,0,0.3l0.6,0.6v0.6l-0.5-0.3l-0.2-0.9c0-0.1-0.1-0.2-0.2-0.1
			c-0.1,0-0.2,0.1-0.1,0.2l0.1,0.5l-0.2-0.1l-0.1-0.6c0-0.1-0.1-0.2-0.2-0.1c-0.1,0-0.2,0.1-0.1,0.2v0.2l-0.2-0.1
			c-0.1,0-0.2,0-0.3,0.1c0,0.1,0,0.2,0.1,0.3l0.2,0.1h-0.2c-0.1,0-0.2,0.1-0.1,0.2c0,0.1,0.1,0.2,0.2,0.1l0.6-0.1l0.2,0.1l-0.5,0.1
			c-0.1,0-0.2,0.1-0.1,0.2c0,0.1,0.1,0.2,0.2,0.1l0.9-0.2l0.5,0.3l-0.5,0.3l-0.9-0.2c-0.1,0-0.2,0-0.2,0.1s0,0.2,0.1,0.2l0.5,0.1
			l-0.2,0.1l-0.6-0.1c-0.1,0-0.2,0-0.2,0.1s0,0.2,0.1,0.2h0.2l-0.2,0.1c-0.1,0-0.1,0.2-0.1,0.3s0.2,0.1,0.3,0.1l0.2-0.1v0.2
			c0,0.1,0,0.2,0.1,0.2s0.2,0,0.2-0.1l0.1-0.6l0.2-0.1l-0.1,0.5c0,0.1,0,0.2,0.1,0.2s0.2,0,0.2-0.1l0.2-0.9l0.5-0.3v0.6l-0.6,0.6
			c-0.1,0.1-0.1,0.2,0,0.3s0.2,0.1,0.3,0l0.4-0.4V28l-0.4,0.4c-0.1,0.1-0.1,0.2,0,0.3c0.1,0.1,0.2,0.1,0.3,0l0.1-0.1v0.2
			c0,0.1,0.1,0.2,0.2,0.2s0.2-0.1,0.2-0.2v-0.2l0.1,0.1c0.1,0.1,0.2,0.1,0.3,0c0.1-0.1,0.1-0.2,0-0.3l-0.4-0.4v-0.3l0.4,0.4
			c0.1,0.1,0.2,0.1,0.3,0s0.1-0.2,0-0.3l-0.6-0.6v-0.6l0.5,0.3l0.2,0.9c0,0.1,0.1,0.2,0.2,0.1c0.1,0,0.2-0.1,0.1-0.2l-0.1-0.5
			l0.2,0.1l0.1,0.6c0,0.1,0.1,0.2,0.2,0.1c0.1,0,0.2-0.1,0.1-0.2v-0.2l0.2,0.1c0.1,0,0.2,0,0.3-0.1
			C366.2,27.5,366.2,27.3,366.1,27.3z"/>
		<circle class="st4" cx="350.5" cy="23.8" r="1.2"/>
		<circle class="st4" cx="321.9" cy="41.9" r="0.3"/>
		<circle class="st4" cx="338" cy="46.9" r="0.3"/>
		<circle class="st4" cx="345" cy="48.3" r="0.7"/>
		<circle class="st4" cx="324.1" cy="52.7" r="0.7"/>
		<circle class="st4" cx="343.3" cy="17.8" r="0.6"/>
		<circle class="st4" cx="335.7" cy="24.6" r="0.6"/>
		<circle class="st4" cx="339.8" cy="34.3" r="0.3"/>
		<circle class="st4" cx="326.5" cy="56.8" r="0.3"/>
		<circle class="st4" cx="319.6" cy="48.5" r="0.3"/>
		<circle class="st4" cx="325.1" cy="32.2" r="0.3"/>
		<circle class="st4" cx="324.6" cy="25.4" r="0.3"/>
		<circle class="st4" cx="357.2" cy="22.1" r="0.3"/>
		<circle class="st4" cx="314.7" cy="51.8" r="0.7"/>
		<circle class="st7" cx="344.8" cy="56" r="1.1"/>
		<circle class="st7" cx="333.6" cy="35.6" r="0.7"/>
		<circle class="st7" cx="329.6" cy="24.9" r="0.5"/>
		<circle class="st7" cx="349.3" cy="35.9" r="0.5"/>
		<circle class="st7" cx="331.4" cy="52.9" r="0.5"/>
		<circle class="st7" cx="314.3" cy="50.5" r="0.6"/>
	</g>
	<g>
		
			<image style="overflow:visible;opacity:0.3;enable-background:new    ;" width="105" height="67" xlink:href="64750EA2A3112D00.png"  transform="matrix(1 0 0 1 300.5659 28)">
		</image>
		<g>
			<g>
				<polygon class="st8" points="304,58 349.6,60.3 384.7,62.1 384.6,83.6 304.9,85.9 				"/>
				<g>
					<path class="st4" d="M318,75.5c-0.5-3-1.2-6.2-1.9-9.5l2-0.2l1.1,7.4c0.6-2.6,1.1-4.9,1.4-7l1.9,0.2c-0.9,4.1-1.6,7.1-2.1,9
						L318,75.5z"/>
					<path class="st4" d="M324.8,68.9c1.5,0,2.3,1,2.3,3.1c0,0.2,0,0.5,0,0.8h-3c0,1.2,0.2,1.7,0.7,1.7l0,0c0.4,0,0.6-0.3,0.6-0.9
						c0-0.1,0-0.3,0-0.4h1.6c0,1.7-0.8,2.6-2.2,2.6l0,0c-1.4,0-2.1-1.1-2.1-3.2v-0.2C322.6,70,323.3,68.9,324.8,68.9z M323.9,71.5
						h1.5v-0.2c0-0.8-0.2-1.2-0.7-1.2C324.2,70.1,324,70.6,323.9,71.5z"/>
					<path class="st4" d="M329.4,70.9l0.1,4.9h-1.6c0-2.1-0.1-4.4-0.2-6.9l1.2-0.1l0.1,1.1c0.2-0.5,0.6-0.8,1.3-0.9
						c0.1,0,0.2,0,0.3,0c0.5,0,1,0.2,1.2,0.5c0.3,0.4,0.5,1.1,0.5,2l-1.5,0.2c0-0.1,0-0.2,0-0.2c0-0.7-0.2-1.1-0.6-1.1l0,0
						C329.8,70.3,329.5,70.5,329.4,70.9z"/>
					<path class="st4" d="M336.3,68.7v1.1c0.2-0.5,0.5-0.8,0.8-1c0.2-0.1,0.4-0.1,0.6-0.1c0.1,0,0.3,0,0.4,0.1
						c0.4,0.1,0.6,0.4,0.8,1.1c0.1-0.5,0.3-0.8,0.6-1c0.3-0.2,0.6-0.2,1-0.2l0,0c0.3,0,0.7,0.1,1,0.2c0.3,0.2,0.6,0.5,0.7,1
						s0.3,1.1,0.3,1.9v3.9H341c0.1-1.5,0.1-2.7,0.1-3.8s-0.2-1.6-0.6-1.7c-0.1,0-0.1,0-0.2,0c-0.3,0-0.6,0.2-0.7,0.6
						c0,0.5,0,1,0,1.6c0,0.8,0,1.8,0.1,3H338c0.1-1.7,0.1-3,0.1-3.8v-0.1c0-0.8-0.2-1.2-0.5-1.2h-0.1c-0.3,0-0.5,0.2-0.8,0.5v4.9
						l-1.6,0.1v-1.1c0-1.9,0-3.9-0.1-5.8L336.3,68.7z"/>
					<path class="st4" d="M344.8,67.3c0,0.3-0.1,0.5-0.3,0.7s-0.4,0.3-0.7,0.3c-0.3,0-0.5-0.1-0.7-0.3s-0.3-0.4-0.3-0.7
						s0.1-0.5,0.3-0.7s0.4-0.3,0.7-0.3s0.5,0.1,0.7,0.3S344.8,67,344.8,67.3z M343,75.8c0-2.6,0-4.9,0-6.8l1.7-0.1
						c0,1.8-0.1,3.6-0.1,5.4c0,0.5,0,1,0,1.4L343,75.8L343,75.8z"/>
					<path class="st4" d="M350.4,73l1.6,0.1c0,1.6-0.8,2.4-2.2,2.5l0,0c-1.4,0-2.1-1.1-2.1-3.2v-0.2c0-2.3,0.8-3.5,2.3-3.5l0,0
						c1.4,0,2,0.8,2,2.3c0,0.1,0,0.2,0,0.3l-1.4,0.1v-0.2c0-0.8-0.2-1.2-0.7-1.2s-0.7,0.7-0.7,2v0.2c0,1.4,0.3,2.1,0.7,2.1l0,0
						c0.4,0,0.6-0.3,0.6-0.9C350.4,73.3,350.4,73.1,350.4,73z"/>
					<path class="st4" d="M355.1,68.7c1.5,0.1,2.2,0.8,2.2,2.2v4.8h-1.6v-0.6c-0.3,0.4-0.8,0.6-1.3,0.6c-0.2,0-0.5,0-0.7-0.1
						c-0.8-0.2-1.2-0.8-1.2-1.8c0-0.1,0-0.3,0-0.4c0.1-1.1,0.8-1.6,2.3-1.6c0.3,0,0.6,0,0.9,0.1v-0.8c0-0.6-0.2-0.9-0.6-0.9l0,0H355
						c-0.4,0-0.6,0.3-0.6,1.1v0.1l-1.6-0.1c0-1.6,0.8-2.3,2.3-2.3L355.1,68.7L355.1,68.7z M355.7,74v-1.2c-0.2,0-0.4-0.1-0.5-0.1
						c-0.4,0-0.7,0.1-0.8,0.4c-0.1,0.2-0.1,0.3-0.1,0.5s0.1,0.3,0.2,0.5c0.1,0.1,0.3,0.2,0.4,0.2C355.1,74.2,355.4,74.2,355.7,74z"
						/>
					<path class="st4" d="M359.7,70.9l0.1,4.9h-1.6c0-2.1-0.1-4.4-0.2-6.9l1.2-0.1l0.1,1.1c0.2-0.5,0.6-0.8,1.3-0.9
						c0.1,0,0.2,0,0.3,0c0.5,0,1,0.2,1.2,0.5c0.3,0.4,0.5,1.1,0.5,2l-1.5,0.2c0-0.1,0-0.2,0-0.2c0-0.7-0.2-1.1-0.6-1.1l0,0
						C360,70.3,359.8,70.5,359.7,70.9z"/>
					<path class="st4" d="M364.1,66.7l1.5-0.1v2.2h1.3v1.3l-1.3,0.1v3.1c0,0.7,0.3,1.1,0.9,1.1c0.1,0,0.3,0,0.4-0.1l-0.1,1.5
						c-0.2,0-0.4,0-0.6,0c-1.4,0-2.1-0.7-2.2-2.2v-3.3l-1.1,0.1v-1.5h1.1L364.1,66.7z"/>
					<path class="st4" d="M370.1,68.7c1.5,0.1,2.2,0.8,2.2,2.2v4.8h-1.6v-0.6c-0.3,0.4-0.8,0.6-1.3,0.6c-0.2,0-0.5,0-0.7-0.1
						c-0.8-0.2-1.2-0.8-1.2-1.8c0-0.1,0-0.3,0-0.4c0.1-1.1,0.8-1.6,2.3-1.6c0.3,0,0.6,0,0.9,0.1v-0.8c0-0.6-0.2-0.9-0.6-0.9l0,0H370
						c-0.4,0-0.6,0.3-0.6,1.1v0.1l-1.6-0.1c0-1.6,0.8-2.3,2.3-2.3L370.1,68.7L370.1,68.7z M370.7,74v-1.2c-0.2,0-0.4-0.1-0.5-0.1
						c-0.4,0-0.7,0.1-0.8,0.4c-0.1,0.2-0.1,0.3-0.1,0.5s0.1,0.3,0.2,0.5c0.1,0.1,0.3,0.2,0.4,0.2C370.1,74.2,370.3,74.2,370.7,74z"
						/>
				</g>
				<g>
					<g>
						<g>
							<path class="st9" d="M395.9,45.4c0,0.1-0.1,0.1-0.1,0.2l-3.8,3.3c-0.2,0.2-0.5,0.1-0.6,0c-0.2-0.2-0.1-0.5,0-0.7l3.8-3.3
								c0.2-0.2,0.5-0.1,0.6,0C396,45.1,396,45.3,395.9,45.4z"/>
						</g>
						<g>
							<path class="st9" d="M347.3,43.2c0-0.2,0-0.3,0.1-0.4c0.2-0.2,0.5-0.2,0.6,0l3.5,3.7c0.2,0.2,0.2,0.5,0,0.7s-0.5,0.2-0.6,0
								l-3.5-3.7C347.3,43.4,347.3,43.3,347.3,43.2z"/>
						</g>
						<g>
							<g>
								<path class="st9" d="M367.8,62.5l-1.8-0.3c-0.2,0-0.4-0.3-0.4-0.5s0.3-0.4,0.5-0.4l0.9,0.1l0.5-3.3h2.2
									c0.2,0,0.5,0.2,0.5,0.5c0,0.2-0.2,0.5-0.5,0.5l0,0h-1.4L367.8,62.5z"/>
							</g>
						</g>
						<g>
							<g>
								<path class="st9" d="M372.4,62.5l-1.8-0.3c-0.2,0-0.4-0.3-0.4-0.5s0.3-0.4,0.5-0.4l0.9,0.1l0.5-3.3h2.2
									c0.2,0,0.5,0.2,0.5,0.5c0,0.2-0.2,0.5-0.5,0.5l0,0h-1.4L372.4,62.5z"/>
							</g>
						</g>
					</g>
					<g>
						<g>
							<g>
								
									<rect x="357.9" y="25.6" transform="matrix(5.909435e-02 -0.9983 0.9983 5.909435e-02 303.6772 414.1525)" class="st10" width="27.2" height="40.8"/>
								<polygon class="st11" points="391.1,60.7 350.3,58.3 371.5,44.3 								"/>
								<polygon class="st9" points="351.9,31.1 392.6,33.5 371.5,47.8 								"/>
							</g>
						</g>
						<g>
							<g>
								<path d="M365.6,47c-0.2,3.2,2.2,6,5.5,6.2c3.2,0.2,6-2.3,6.2-5.5L365.6,47z"/>
								<path class="st12" d="M374.8,52.1c0,0-0.8-2.5-3.5-2.8s-4.4,1.9-4.4,1.9s2.7,3.7,7.2,1.4C374.3,52.4,374.6,52.2,374.8,52.1z
									"/>
							</g>
							<g>
								<g>
									<path d="M376.7,42.8c-0.1,0-0.2,0-0.2-0.1c-0.1,0-1.4-1.1-2.4-0.2c-0.1,0.1-0.4,0.1-0.5,0s-0.1-0.4,0-0.5
										c1.2-1.1,2.7-0.4,3.3,0.1c0.1,0.1,0.2,0.3,0,0.5C376.9,42.8,376.8,42.8,376.7,42.8z"/>
								</g>
							</g>
							<g>
								<g>
									<path d="M369.6,42.4c-0.1,0-0.2,0-0.3-0.1c-0.9-1.1-2.3-0.2-2.4-0.1c-0.2,0.1-0.4,0.1-0.5-0.1c-0.1-0.2-0.1-0.4,0.1-0.5
										c0.7-0.5,2.2-1,3.3,0.3c0.1,0.2,0.1,0.4,0,0.5C369.8,42.4,369.7,42.4,369.6,42.4z"/>
								</g>
							</g>
						</g>
					</g>
				</g>
			</g>
		</g>
	</g>
</g>
<g>
	<ellipse class="st0" cx="446.7" cy="50" rx="35.2" ry="33.9"/>
	
		<image style="overflow:visible;enable-background:new    ;" width="233" height="96" xlink:href="64750EA2A3112D03.png"  transform="matrix(0.2349 0 0 0.2285 419.0454 61.229)">
	</image>
	<path class="st1" d="M459.3,20.7"/>
	<g>
		<g>
			<path class="st2" d="M448,16.2"/>
		</g>
	</g>
	<g class="st3">
		
			<image style="overflow:visible;opacity:0.2;enable-background:new    ;" width="193" height="192" xlink:href="64750EA2A3112D01.png"  transform="matrix(0.9948 0 0 1 350.4213 -45)">
		</image>
		<g>
			
				<image style="overflow:visible;enable-background:new    ;" width="300" height="296" xlink:href="64750EA2A3112D0F.png"  transform="matrix(0.2386 0 0 0.2413 410.5385 15.217)">
			</image>
		</g>
	</g>
	<circle class="st4" cx="443.3" cy="22.6" r="0.3"/>
	<g class="st5">
		<g class="st6">
			<path class="st4" d="M469.1,26c1.5,1.4,2.7,3.1,3.7,4.9c0.5,0.9,1,1.8,1.5,2.7c0.2,0.5,0.4,0.9,0.6,1.4l0.6,1.4l0.1,0.4l0.1,0.4
				l0.2,0.7l0.2,0.7c0.1,0.2,0.1,0.5,0.2,0.8c0.1,0.5,0.3,1,0.4,1.5l0.3,1.5c0,0.3,0.1,0.5,0.1,0.8l0.1,0.8l0.2,1.5l0.2,1.5v0.8
				c0,0.3,0,0.5,0,0.8l-0.1,1.6c0,0.3,0,0.5-0.1,0.8l-0.1,0.8c-0.1,1-0.3,2.1-0.5,3.1c-0.1,0.5-0.2,1-0.4,1.5l-0.2,0.8
				c-0.1,0.2-0.1,0.5-0.2,0.7l-0.5,1.5l-0.5,1.5c-0.7,1.9-1.6,3.8-2.6,5.6c-0.3,0.4-0.5,0.9-0.8,1.3s-0.5,0.9-0.8,1.3
				c-0.6,0.8-1.2,1.7-1.8,2.4c1.8-3.7,3.2-7.4,4.3-11.2c0.6-1.9,1-3.8,1.3-5.8c0.1-1,0.3-1.9,0.4-2.9c0-0.5,0.1-1,0.1-1.5v-1.5
				c0-0.2,0-0.5,0-0.7v-0.7v-1.5l-0.1-1.5l-0.1-0.7l-0.1-0.7l-0.2-1.5l-0.3-1.4c0-0.2-0.1-0.5-0.1-0.7l-0.2-0.7l-0.2-0.7l-0.1-0.4
				l-0.1-0.3l-0.4-1.4l-0.5-1.4c-0.3-0.9-0.7-1.9-1.1-2.8c-0.4-0.9-0.8-1.8-1.3-2.7c-0.2-0.4-0.5-0.9-0.7-1.3
				C469.6,26.8,469.4,26.4,469.1,26z"/>
		</g>
		<path class="st4" d="M466.2,27.3l-0.2-0.1h0.2c0.1,0,0.2-0.1,0.1-0.2c0-0.1-0.1-0.2-0.2-0.1l-0.6,0.1l-0.2-0.1l0.5-0.1
			c0.1,0,0.2-0.1,0.1-0.2c0-0.1-0.1-0.2-0.2-0.1l-0.9,0.2l-0.5-0.3l0.5-0.3l0.9,0.2c0.1,0,0.2,0,0.2-0.1s0-0.2-0.1-0.2l-0.5-0.1
			l0.2-0.1l0.6,0.1c0.1,0,0.2,0,0.2-0.1s0-0.2-0.1-0.2H466l0.2-0.1c0.1,0,0.1-0.2,0.1-0.3s-0.2-0.1-0.3-0.1l-0.2,0.1V25
			c0-0.1,0-0.2-0.1-0.2s-0.2,0-0.2,0.1l-0.1,0.6l-0.2,0.1l0.1-0.5c0-0.1,0-0.2-0.1-0.2s-0.2,0-0.2,0.1l-0.2,0.9l-0.5,0.3v-0.6
			l0.6-0.6c0.1-0.1,0.1-0.2,0-0.3c-0.1-0.1-0.2-0.1-0.3,0l-0.4,0.4v-0.3l0.4-0.4c0.1-0.1,0.1-0.2,0-0.3c-0.1-0.1-0.2-0.1-0.3,0
			l-0.1,0.1V24c0-0.1-0.1-0.2-0.2-0.2s-0.2,0.1-0.2,0.2v0.2l-0.1-0.1c-0.1-0.1-0.2-0.1-0.3,0c-0.1,0.1-0.1,0.2,0,0.3l0.4,0.4v0.3
			l-0.4-0.4c-0.1-0.1-0.2-0.1-0.3,0c-0.1,0.1-0.1,0.2,0,0.3l0.6,0.6v0.6l-0.5-0.3L463,25c0-0.1-0.1-0.2-0.2-0.1
			c-0.1,0-0.2,0.1-0.1,0.2l0.1,0.5l-0.2-0.1l-0.1-0.6c0-0.1-0.1-0.2-0.2-0.1c-0.1,0-0.2,0.1-0.1,0.2v0.2l-0.2-0.1
			c-0.1,0-0.2,0-0.3,0.1s0,0.2,0.1,0.3l0.2,0.1h-0.2c-0.1,0-0.2,0.1-0.1,0.2c0,0.1,0.1,0.2,0.2,0.1l0.6-0.1l0.2,0.1l-0.5,0.1
			c-0.1,0-0.2,0.1-0.1,0.2c0,0.1,0.1,0.2,0.2,0.1l0.9-0.2l0.5,0.3l-0.5,0.3l-0.9-0.2c-0.1,0-0.2,0-0.2,0.1s0,0.2,0.1,0.2l0.5,0.1
			l-0.2,0.1l-0.6-0.1c-0.1,0-0.2,0-0.2,0.1s0,0.2,0.1,0.2h0.2l-0.2,0.1c-0.1,0-0.1,0.2-0.1,0.3s0.2,0.1,0.3,0.1l0.2-0.1v0.2
			c0,0.1,0,0.2,0.1,0.2s0.2,0,0.2-0.1l0.1-0.6l0.2-0.1l-0.1,0.5c0,0.1,0,0.2,0.1,0.2s0.2,0,0.2-0.1l0.2-0.9l0.5-0.3v0.6l-0.6,0.6
			c-0.1,0.1-0.1,0.2,0,0.3s0.2,0.1,0.3,0l0.4-0.4V28l-0.4,0.4c-0.1,0.1-0.1,0.2,0,0.3c0.1,0.1,0.2,0.1,0.3,0l0.1-0.1v0.2
			c0,0.1,0.1,0.2,0.2,0.2s0.2-0.1,0.2-0.2v-0.2l0.1,0.1c0.1,0.1,0.2,0.1,0.3,0c0.1-0.1,0.1-0.2,0-0.3l-0.4-0.4v-0.3l0.4,0.4
			c0.1,0.1,0.2,0.1,0.3,0s0.1-0.2,0-0.3l-0.6-0.6v-0.6l0.5,0.3l0.2,0.9c0,0.1,0.1,0.2,0.2,0.1c0.1,0,0.2-0.1,0.1-0.2l-0.1-0.5
			l0.2,0.1l0.1,0.6c0,0.1,0.1,0.2,0.2,0.1c0.1,0,0.2-0.1,0.1-0.2v-0.2l0.2,0.1c0.1,0,0.2,0,0.3-0.1
			C466.3,27.5,466.3,27.3,466.2,27.3z"/>
		<circle class="st4" cx="450.6" cy="23.8" r="1.2"/>
		<circle class="st4" cx="422" cy="41.9" r="0.3"/>
		<circle class="st4" cx="438.1" cy="46.9" r="0.3"/>
		<circle class="st4" cx="445.1" cy="48.3" r="0.7"/>
		<circle class="st4" cx="424.2" cy="52.7" r="0.7"/>
		<circle class="st4" cx="443.4" cy="17.8" r="0.6"/>
		<circle class="st4" cx="435.9" cy="24.6" r="0.6"/>
		<circle class="st4" cx="439.9" cy="34.3" r="0.3"/>
		<circle class="st4" cx="426.6" cy="56.8" r="0.3"/>
		<circle class="st4" cx="419.7" cy="48.5" r="0.3"/>
		<circle class="st4" cx="425.2" cy="32.2" r="0.3"/>
		<circle class="st4" cx="424.8" cy="25.4" r="0.3"/>
		<circle class="st4" cx="457.3" cy="22.1" r="0.3"/>
		<circle class="st4" cx="414.8" cy="51.8" r="0.7"/>
		<circle class="st7" cx="444.9" cy="56" r="1.1"/>
		<circle class="st7" cx="433.7" cy="35.6" r="0.7"/>
		<circle class="st7" cx="429.7" cy="24.9" r="0.5"/>
		<circle class="st7" cx="449.4" cy="35.9" r="0.5"/>
		<circle class="st7" cx="431.5" cy="52.9" r="0.5"/>
		<circle class="st7" cx="414.4" cy="50.5" r="0.6"/>
	</g>
	<g>
		
			<image style="overflow:visible;opacity:0.3;enable-background:new    ;" width="106" height="65" xlink:href="64750EA2A3112D02.png"  transform="matrix(1 0 0 1 400.5598 30)">
		</image>
		<g>
			<g>
				<polygon class="st8" points="404.1,58 449.7,60.3 484.8,62.1 484.7,83.6 405,85.9 				"/>
				<g>
					<path class="st4" d="M418.1,75.5c-0.5-3-1.2-6.2-1.9-9.5l2-0.2l1.1,7.4c0.6-2.6,1.1-4.9,1.4-7l1.9,0.2c-0.9,4.1-1.6,7.1-2.1,9
						L418.1,75.5z"/>
					<path class="st4" d="M424.9,68.9c1.5,0,2.3,1,2.3,3.1c0,0.2,0,0.5,0,0.8h-3c0,1.2,0.2,1.7,0.7,1.7l0,0c0.4,0,0.6-0.3,0.6-0.9
						c0-0.1,0-0.3,0-0.4h1.6c0,1.7-0.8,2.6-2.2,2.6l0,0c-1.4,0-2.1-1.1-2.1-3.2v-0.2C422.7,70,423.4,68.9,424.9,68.9z M424,71.5h1.5
						v-0.2c0-0.8-0.2-1.2-0.7-1.2C424.4,70.1,424.1,70.6,424,71.5z"/>
					<path class="st4" d="M429.5,70.9l0.1,4.9H428c0-2.1-0.1-4.4-0.2-6.9l1.2-0.1l0.1,1.1c0.2-0.5,0.6-0.8,1.3-0.9
						c0.1,0,0.2,0,0.3,0c0.5,0,1,0.2,1.2,0.5c0.3,0.4,0.5,1.1,0.5,2l-1.5,0.2c0-0.1,0-0.2,0-0.2c0-0.7-0.2-1.1-0.6-1.1l0,0
						C429.9,70.3,429.6,70.5,429.5,70.9z"/>
					<path class="st4" d="M436.4,68.7v1.1c0.2-0.5,0.5-0.8,0.8-1c0.2-0.1,0.4-0.1,0.6-0.1c0.1,0,0.3,0,0.4,0.1
						c0.4,0.1,0.6,0.4,0.8,1.1c0.1-0.5,0.3-0.8,0.6-1c0.3-0.2,0.6-0.2,1-0.2l0,0c0.3,0,0.7,0.1,1,0.2c0.3,0.2,0.6,0.5,0.7,1
						s0.3,1.1,0.3,1.9v3.9h-1.5c0.1-1.5,0.1-2.7,0.1-3.8s-0.2-1.6-0.6-1.7c-0.1,0-0.1,0-0.2,0c-0.3,0-0.6,0.2-0.7,0.6
						c0,0.5,0,1,0,1.6c0,0.8,0,1.8,0.1,3h-1.7c0.1-1.7,0.1-3,0.1-3.8v-0.1c0-0.8-0.2-1.2-0.5-1.2h-0.1c-0.3,0-0.5,0.2-0.8,0.5v4.9
						l-1.6,0.1v-1.1c0-1.9,0-3.9-0.1-5.8L436.4,68.7z"/>
					<path class="st4" d="M444.9,67.3c0,0.3-0.1,0.5-0.3,0.7c-0.2,0.2-0.4,0.3-0.7,0.3c-0.3,0-0.5-0.1-0.7-0.3s-0.3-0.4-0.3-0.7
						s0.1-0.5,0.3-0.7s0.4-0.3,0.7-0.3s0.5,0.1,0.7,0.3C444.8,66.8,444.9,67,444.9,67.3z M443.1,75.8c0-2.6,0-4.9,0-6.8l1.7-0.1
						c0,1.8-0.1,3.6-0.1,5.4c0,0.5,0,1,0,1.4L443.1,75.8L443.1,75.8z"/>
					<path class="st4" d="M450.5,73l1.6,0.1c0,1.6-0.8,2.4-2.2,2.5l0,0c-1.4,0-2.1-1.1-2.1-3.2v-0.2c0-2.3,0.8-3.5,2.3-3.5l0,0
						c1.4,0,2,0.8,2,2.3c0,0.1,0,0.2,0,0.3l-1.4,0.1v-0.2c0-0.8-0.2-1.2-0.7-1.2s-0.7,0.7-0.7,2v0.2c0,1.4,0.3,2.1,0.7,2.1l0,0
						c0.4,0,0.6-0.3,0.6-0.9C450.5,73.3,450.5,73.1,450.5,73z"/>
					<path class="st4" d="M455.2,68.7c1.5,0.1,2.2,0.8,2.2,2.2v4.8h-1.6v-0.6c-0.3,0.4-0.8,0.6-1.3,0.6c-0.2,0-0.5,0-0.7-0.1
						c-0.8-0.2-1.2-0.8-1.2-1.8c0-0.1,0-0.3,0-0.4c0.1-1.1,0.8-1.6,2.3-1.6c0.3,0,0.6,0,0.9,0.1v-0.8c0-0.6-0.2-0.9-0.6-0.9l0,0
						h-0.1c-0.4,0-0.6,0.3-0.6,1.1v0.1l-1.6-0.1c0-1.6,0.8-2.3,2.3-2.3L455.2,68.7L455.2,68.7z M455.8,74v-1.2
						c-0.2,0-0.4-0.1-0.5-0.1c-0.4,0-0.7,0.1-0.8,0.4c-0.1,0.2-0.1,0.3-0.1,0.5s0.1,0.3,0.2,0.5c0.1,0.1,0.3,0.2,0.4,0.2
						C455.2,74.2,455.5,74.2,455.8,74z"/>
					<path class="st4" d="M459.8,70.9l0.1,4.9h-1.6c0-2.1-0.1-4.4-0.2-6.9l1.2-0.1l0.1,1.1c0.2-0.5,0.6-0.8,1.3-0.9
						c0.1,0,0.2,0,0.3,0c0.5,0,1,0.2,1.2,0.5c0.3,0.4,0.5,1.1,0.5,2l-1.5,0.2c0-0.1,0-0.2,0-0.2c0-0.7-0.2-1.1-0.6-1.1l0,0
						C460.1,70.3,459.9,70.5,459.8,70.9z"/>
					<path class="st4" d="M464.2,66.7l1.5-0.1v2.2h1.3v1.3l-1.3,0.1v3.1c0,0.7,0.3,1.1,0.9,1.1c0.1,0,0.3,0,0.4-0.1l-0.1,1.5
						c-0.2,0-0.4,0-0.6,0c-1.4,0-2.1-0.7-2.2-2.2v-3.3l-1.1,0.1v-1.5h1.1L464.2,66.7z"/>
					<path class="st4" d="M470.2,68.7c1.5,0.1,2.2,0.8,2.2,2.2v4.8h-1.6v-0.6c-0.3,0.4-0.8,0.6-1.3,0.6c-0.2,0-0.5,0-0.7-0.1
						c-0.8-0.2-1.2-0.8-1.2-1.8c0-0.1,0-0.3,0-0.4c0.1-1.1,0.8-1.6,2.3-1.6c0.3,0,0.6,0,0.9,0.1v-0.8c0-0.6-0.2-0.9-0.6-0.9l0,0
						h-0.1c-0.4,0-0.6,0.3-0.6,1.1v0.1l-1.6-0.1c0-1.6,0.8-2.3,2.3-2.3L470.2,68.7L470.2,68.7z M470.8,74v-1.2
						c-0.2,0-0.4-0.1-0.5-0.1c-0.4,0-0.7,0.1-0.8,0.4c-0.1,0.2-0.1,0.3-0.1,0.5s0.1,0.3,0.2,0.5c0.1,0.1,0.3,0.2,0.4,0.2
						C470.2,74.2,470.4,74.2,470.8,74z"/>
				</g>
				<g>
					<g>
						<path class="st9" d="M496.4,48.7c-0.1,0-0.1,0.1-0.2,0.1l-4.9,1c-0.2,0-0.5-0.1-0.5-0.3s0.1-0.5,0.4-0.5l4.9-1
							c0.2,0,0.5,0.1,0.5,0.3C496.6,48.4,496.6,48.6,496.4,48.7z"/>
					</g>
					<g>
						<path class="st9" d="M446.9,46.2c-0.1-0.1-0.1-0.3,0-0.4c0.1-0.2,0.4-0.3,0.6-0.2l4.5,2.2c0.2,0.1,0.3,0.4,0.2,0.6
							s-0.4,0.3-0.6,0.2l-4.5-2.2C447,46.3,446.9,46.2,446.9,46.2z"/>
					</g>
					<g>
						<g>
							<path class="st9" d="M467.9,64.4l-1.8-0.3c-0.2,0-0.4-0.3-0.4-0.5s0.3-0.4,0.5-0.4l0.9,0.1l0.5-3.3h2.2
								c0.2,0,0.5,0.2,0.5,0.5c0,0.2-0.2,0.5-0.5,0.5l0,0h-1.4L467.9,64.4z"/>
						</g>
					</g>
					<g>
						<g>
							<path class="st9" d="M472.5,64.5l-1.8-0.3c-0.2,0-0.4-0.3-0.4-0.5s0.3-0.4,0.5-0.4l0.9,0.1l0.5-3.3h2.2
								c0.2,0,0.5,0.2,0.5,0.5c0,0.2-0.2,0.5-0.5,0.5l0,0H473L472.5,64.5z"/>
						</g>
					</g>
				</g>
				<g>
					<g>
						<g>
							
								<rect x="458" y="27.5" transform="matrix(5.909435e-02 -0.9983 0.9983 5.909435e-02 395.9591 515.8873)" class="st10" width="27.2" height="40.8"/>
							<polygon class="st11" points="491.2,62.7 450.5,60.3 471.6,46.3 							"/>
							<polygon class="st9" points="452,33.1 492.7,35.5 471.6,49.8 							"/>
						</g>
					</g>
					<g>
						<g>
							<path d="M465.7,49c-0.2,3.2,2.2,6,5.5,6.2c3.2,0.2,6-2.3,6.2-5.5L465.7,49z"/>
							<path class="st12" d="M474.9,54.1c0,0-0.8-2.5-3.5-2.8s-4.4,1.9-4.4,1.9s2.7,3.7,7.2,1.4C474.5,54.4,474.7,54.2,474.9,54.1z"
								/>
						</g>
						<g>
							<g>
								<path d="M476.8,44.8c-0.1,0-0.2,0-0.2-0.1c-0.1,0-1.4-1.1-2.4-0.2c-0.1,0.1-0.4,0.1-0.5,0s-0.1-0.4,0-0.5
									c1.2-1.1,2.7-0.4,3.3,0.1c0.1,0.1,0.2,0.3,0,0.5C477,44.8,476.9,44.8,476.8,44.8z"/>
							</g>
						</g>
						<g>
							<g>
								<path d="M469.7,44.4c-0.1,0-0.2,0-0.3-0.1c-0.9-1.1-2.3-0.2-2.4-0.1c-0.2,0.1-0.4,0.1-0.5-0.1c-0.1-0.2-0.1-0.4,0.1-0.5
									c0.7-0.5,2.2-1,3.3,0.3c0.1,0.2,0.1,0.4,0,0.5C469.9,44.4,469.8,44.4,469.7,44.4z"/>
							</g>
						</g>
					</g>
				</g>
			</g>
		</g>
	</g>
</g>
<g>
	<ellipse class="st0" cx="546.5" cy="50" rx="35.2" ry="33.9"/>
	
		<image style="overflow:visible;enable-background:new    ;" width="233" height="96" xlink:href="64750EA2A3112D05.png"  transform="matrix(0.2349 0 0 0.2285 518.8973 61.2142)">
	</image>
	<path class="st1" d="M559.1,20.7"/>
	<g>
		<g>
			<path class="st2" d="M547.7,16.2"/>
		</g>
	</g>
	<g class="st3">
		
			<image style="overflow:visible;opacity:0.2;enable-background:new    ;" width="193" height="193" xlink:href="64750EA2A3112D06.png"  transform="matrix(0.9948 0 0 0.9948 450.273 -45.0148)">
		</image>
		<g>
			
				<image style="overflow:visible;enable-background:new    ;" width="296" height="296" xlink:href="64750EA2A3112D07.png"  transform="matrix(0.2419 0 0 0.2413 510.3904 15.2022)">
			</image>
		</g>
	</g>
	<circle class="st4" cx="543.1" cy="22.6" r="0.3"/>
	<g class="st5">
		<g class="st6">
			<path class="st4" d="M568.9,26c1.5,1.4,2.7,3.1,3.7,4.9c0.5,0.9,1,1.8,1.5,2.7c0.2,0.5,0.4,0.9,0.7,1.4l0.6,1.4l0.1,0.4l0.1,0.4
				l0.2,0.7l0.2,0.7c0.1,0.2,0.1,0.5,0.2,0.8c0.1,0.5,0.3,1,0.4,1.5l0.3,1.5c0,0.3,0.1,0.5,0.1,0.8l0.1,0.8l0.2,1.5l0.1,1.6v0.8
				c0,0.3,0,0.5,0,0.8l-0.1,1.6c0,0.3,0,0.5-0.1,0.8l-0.1,0.8c-0.1,1-0.3,2.1-0.5,3.1c-0.1,0.5-0.2,1-0.4,1.5l-0.2,0.8
				c-0.1,0.2-0.2,0.5-0.2,0.7l-0.5,1.5l-0.5,1.5c-0.7,1.9-1.6,3.8-2.6,5.6c-0.3,0.4-0.5,0.9-0.8,1.3s-0.5,0.9-0.8,1.3
				c-0.6,0.8-1.2,1.7-1.8,2.4c1.8-3.7,3.2-7.4,4.3-11.2c0.6-1.9,1-3.8,1.3-5.8c0.1-1,0.3-1.9,0.4-2.9c0-0.5,0.1-1,0.1-1.5v-1.5
				c0-0.2,0-0.5,0-0.7v-0.7v-1.5l-0.1-1.5l-0.1-0.7l-0.1-0.7l-0.2-1.5l-0.3-1.4c0-0.2-0.1-0.5-0.2-0.7l-0.2-0.7l-0.2-0.7l-0.1-0.4
				l-0.1-0.3l-0.4-1.4l-0.5-1.4c-0.3-0.9-0.7-1.9-1.1-2.8c-0.4-0.9-0.8-1.8-1.3-2.7c-0.2-0.4-0.5-0.9-0.7-1.3
				C569.4,26.8,569.1,26.4,568.9,26z"/>
		</g>
		<path class="st4" d="M566,27.3l-0.2-0.1h0.2c0.1,0,0.2-0.1,0.1-0.2c0-0.1-0.1-0.2-0.2-0.1l-0.6,0.1l-0.2-0.1l0.5-0.1
			c0.1,0,0.2-0.1,0.1-0.2c0-0.1-0.1-0.2-0.2-0.1l-0.9,0.2l-0.5-0.3l0.5-0.3l0.9,0.2c0.1,0,0.2,0,0.2-0.1s0-0.2-0.1-0.2l-0.5-0.1
			l0.2-0.1l0.6,0.1c0.1,0,0.2,0,0.2-0.1s0-0.2-0.1-0.2h-0.2l0.2-0.1c0.1,0,0.1-0.2,0.1-0.3s-0.2-0.1-0.3-0.1l-0.2,0.1V25
			c0-0.1,0-0.2-0.1-0.2s-0.2,0-0.2,0.1l-0.2,0.6l-0.2,0.1l0.1-0.5c0-0.1,0-0.2-0.1-0.2s-0.2,0-0.2,0.1l-0.2,0.9l-0.5,0.3v-0.6
			l0.6-0.6c0.1-0.1,0.1-0.2,0-0.3c-0.1-0.1-0.2-0.1-0.3,0l-0.4,0.4v-0.3l0.4-0.4c0.1-0.1,0.1-0.2,0-0.3c-0.1-0.1-0.2-0.1-0.3,0
			l-0.1,0.1V24c0-0.1-0.1-0.2-0.2-0.2c-0.1,0-0.2,0.1-0.2,0.2v0.2l-0.1-0.1c-0.1-0.1-0.2-0.1-0.3,0s-0.1,0.2,0,0.3l0.4,0.4v0.3
			l-0.4-0.4c-0.1-0.1-0.2-0.1-0.3,0s-0.1,0.2,0,0.3l0.6,0.6v0.6l-0.5-0.3l-0.2-0.9c0-0.1-0.1-0.2-0.2-0.1c-0.1,0-0.2,0.1-0.1,0.2
			l0.1,0.5l-0.2-0.1l-0.2-0.6c0-0.1-0.1-0.2-0.2-0.1c-0.1,0-0.2,0.1-0.1,0.2v0.2l-0.2-0.1c-0.1,0-0.2,0-0.3,0.1s0,0.2,0.1,0.3
			l0.2,0.1h-0.2c-0.1,0-0.2,0.1-0.1,0.2c0,0.1,0.1,0.2,0.2,0.1l0.6-0.1l0.2,0.1l-0.5,0.1c-0.1,0-0.2,0.1-0.1,0.2
			c0,0.1,0.1,0.2,0.2,0.1l0.9-0.2l0.5,0.3l-0.5,0.3l-0.9-0.2c-0.1,0-0.2,0-0.2,0.1s0,0.2,0.1,0.2l0.5,0.1l-0.2,0.1l-0.6-0.1
			c-0.1,0-0.2,0-0.2,0.1s0,0.2,0.1,0.2h0.2l-0.2,0.1c-0.1,0-0.1,0.2-0.1,0.3s0.2,0.1,0.3,0.1l0.2-0.1v0.2c0,0.1,0,0.2,0.1,0.2
			s0.2,0,0.2-0.1l0.2-0.6l0.2-0.1l-0.1,0.5c0,0.1,0,0.2,0.1,0.2s0.2,0,0.2-0.1l0.2-0.9l0.5-0.3v0.6l-0.6,0.6c-0.1,0.1-0.1,0.2,0,0.3
			c0.1,0.1,0.2,0.1,0.3,0l0.4-0.4V28l-0.4,0.4c-0.1,0.1-0.1,0.2,0,0.3s0.2,0.1,0.3,0l0.1-0.1v0.2c0,0.1,0.1,0.2,0.2,0.2
			c0.1,0,0.2-0.1,0.2-0.2v-0.2l0.1,0.1c0.1,0.1,0.2,0.1,0.3,0s0.1-0.2,0-0.3l-0.4-0.4v-0.3l0.4,0.4c0.1,0.1,0.2,0.1,0.3,0
			s0.1-0.2,0-0.3l-0.6-0.6v-0.6l0.5,0.3l0.2,0.9c0,0.1,0.1,0.2,0.2,0.1c0.1,0,0.2-0.1,0.1-0.2l-0.1-0.5l0.2,0.1l0.2,0.6
			c0,0.1,0.1,0.2,0.2,0.1c0.1,0,0.2-0.1,0.1-0.2v-0.2l0.2,0.1c0.1,0,0.2,0,0.3-0.1C566.1,27.5,566.1,27.3,566,27.3z"/>
		<circle class="st4" cx="550.4" cy="23.8" r="1.2"/>
		<circle class="st4" cx="521.8" cy="41.8" r="0.3"/>
		<circle class="st4" cx="537.8" cy="46.9" r="0.3"/>
		<circle class="st4" cx="544.9" cy="48.3" r="0.7"/>
		<circle class="st4" cx="524" cy="52.7" r="0.7"/>
		<circle class="st4" cx="543.2" cy="17.8" r="0.6"/>
		<circle class="st4" cx="535.6" cy="24.6" r="0.6"/>
		<circle class="st4" cx="539.7" cy="34.3" r="0.3"/>
		<circle class="st4" cx="526.4" cy="56.8" r="0.3"/>
		<circle class="st4" cx="519.5" cy="48.5" r="0.3"/>
		<circle class="st4" cx="525" cy="32.2" r="0.3"/>
		<circle class="st4" cx="524.5" cy="25.3" r="0.3"/>
		<circle class="st4" cx="557.1" cy="22.1" r="0.3"/>
		<circle class="st4" cx="514.6" cy="51.8" r="0.7"/>
		<circle class="st7" cx="544.7" cy="56" r="1.1"/>
		<circle class="st7" cx="533.5" cy="35.6" r="0.7"/>
		<circle class="st7" cx="529.4" cy="24.9" r="0.5"/>
		<circle class="st7" cx="549.2" cy="35.9" r="0.5"/>
		<circle class="st7" cx="531.3" cy="52.9" r="0.5"/>
		<circle class="st7" cx="514.2" cy="50.5" r="0.6"/>
	</g>
	<g>
		
			<image style="overflow:visible;opacity:0.3;enable-background:new    ;" width="106" height="65" xlink:href="64750EA2A3112D3C.png"  transform="matrix(1 0 0 1 500.339 30)">
		</image>
		<g>
			<g>
				<polygon class="st8" points="503.9,58 549.5,60.3 584.6,62 584.5,83.6 504.8,85.8 				"/>
				<g>
					<path class="st4" d="M517.8,75.4c-0.5-3-1.2-6.2-1.9-9.5l2-0.2l1.2,7.4c0.6-2.6,1.1-4.9,1.4-7l1.9,0.2c-0.9,4.1-1.6,7.1-2.1,9
						L517.8,75.4z"/>
					<path class="st4" d="M524.7,68.8c1.5,0,2.3,1,2.3,3.1c0,0.2,0,0.5,0,0.8h-3c0,1.2,0.2,1.7,0.7,1.7l0,0c0.4,0,0.6-0.3,0.6-0.9
						c0-0.1,0-0.3,0-0.4h1.6c0,1.7-0.8,2.6-2.2,2.6l0,0c-1.4,0-2.1-1.1-2.1-3.2v-0.2C522.5,70,523.2,68.8,524.7,68.8z M523.8,71.5
						h1.5v-0.2c0-0.8-0.2-1.2-0.7-1.2C524.1,70.1,523.8,70.6,523.8,71.5z"/>
					<path class="st4" d="M529.3,70.9l0.1,4.9h-1.7c0-2.1-0.1-4.4-0.2-6.9l1.2-0.1l0.1,1.1c0.2-0.5,0.6-0.8,1.3-0.9
						c0.1,0,0.2,0,0.3,0c0.5,0,1,0.2,1.2,0.5c0.3,0.4,0.5,1.1,0.5,2l-1.5,0.2c0-0.1,0-0.2,0-0.2c0-0.7-0.2-1.1-0.6-1.1l0,0
						C529.6,70.3,529.4,70.5,529.3,70.9z"/>
					<path class="st4" d="M536.2,68.7v1.1c0.2-0.5,0.5-0.8,0.8-1c0.2-0.1,0.4-0.1,0.6-0.1c0.1,0,0.3,0,0.4,0.1
						c0.3,0.1,0.6,0.4,0.8,1.1c0.1-0.5,0.3-0.8,0.6-1s0.6-0.2,1-0.2l0,0c0.3,0,0.7,0.1,1,0.2c0.3,0.2,0.6,0.5,0.7,1s0.3,1.1,0.3,1.9
						v3.9h-1.5c0.1-1.5,0.1-2.7,0.1-3.8s-0.2-1.6-0.6-1.7c-0.1,0-0.1,0-0.2,0c-0.3,0-0.6,0.2-0.7,0.6c0,0.5,0,1,0,1.6
						c0,0.8,0,1.8,0.1,3h-1.7c0.1-1.7,0.1-3,0.1-3.8v-0.1c0-0.8-0.2-1.2-0.5-1.2h-0.1c-0.3,0-0.5,0.2-0.8,0.5v4.9l-1.6,0.1v-1.1
						c0-1.9,0-3.9-0.1-5.8L536.2,68.7z"/>
					<path class="st4" d="M544.6,67.3c0,0.3-0.1,0.5-0.3,0.7s-0.4,0.3-0.7,0.3s-0.5-0.1-0.7-0.3s-0.3-0.4-0.3-0.7s0.1-0.5,0.3-0.7
						s0.4-0.3,0.7-0.3s0.5,0.1,0.7,0.3C544.5,66.8,544.6,67,544.6,67.3z M542.8,75.8c0-2.6,0-4.9,0-6.8l1.7-0.1
						c0,1.8-0.1,3.6-0.1,5.4c0,0.5,0,1,0,1.4L542.8,75.8L542.8,75.8z"/>
					<path class="st4" d="M550.3,73l1.6,0.1c0,1.6-0.8,2.4-2.2,2.5l0,0c-1.4,0-2.1-1.1-2.1-3.2v-0.2c0-2.3,0.8-3.5,2.3-3.5l0,0
						c1.3,0,2,0.8,2,2.3c0,0.1,0,0.2,0,0.3l-1.4,0.1v-0.2c0-0.8-0.2-1.2-0.7-1.2s-0.7,0.7-0.7,2v0.2c0,1.4,0.3,2.1,0.7,2.1l0,0
						c0.4,0,0.6-0.3,0.6-0.9C550.3,73.3,550.3,73.1,550.3,73z"/>
					<path class="st4" d="M555,68.7c1.5,0.1,2.2,0.8,2.2,2.2v4.8h-1.6v-0.6c-0.3,0.4-0.8,0.6-1.3,0.6c-0.2,0-0.5,0-0.7-0.1
						c-0.8-0.2-1.2-0.8-1.2-1.8c0-0.1,0-0.3,0-0.4c0.1-1.1,0.8-1.6,2.3-1.6c0.3,0,0.6,0,0.9,0.1v-0.8c0-0.6-0.2-0.9-0.6-0.9l0,0
						h-0.1c-0.4,0-0.7,0.3-0.7,1.1v0.1l-1.6-0.1c0-1.6,0.8-2.3,2.3-2.3L555,68.7L555,68.7z M555.6,74v-1.2c-0.2,0-0.4-0.1-0.5-0.1
						c-0.4,0-0.7,0.1-0.8,0.4c-0.1,0.2-0.1,0.3-0.1,0.5s0.1,0.3,0.2,0.5c0.1,0.1,0.3,0.2,0.4,0.2C555,74.2,555.3,74.1,555.6,74z"/>
					<path class="st4" d="M559.6,70.9l0.1,4.9H558c0-2.1-0.1-4.4-0.2-6.9l1.2-0.1l0.1,1.1c0.2-0.5,0.6-0.8,1.3-0.9
						c0.1,0,0.2,0,0.3,0c0.5,0,1,0.2,1.2,0.5c0.3,0.4,0.5,1.1,0.5,2l-1.5,0.2c0-0.1,0-0.2,0-0.2c0-0.7-0.2-1.1-0.6-1.1l0,0
						C559.9,70.3,559.7,70.5,559.6,70.9z"/>
					<path class="st4" d="M564,66.7l1.5-0.1v2.2h1.3v1.3l-1.3,0.1v3.1c0,0.7,0.3,1.1,0.9,1.1c0.1,0,0.3,0,0.4-0.1l-0.1,1.5
						c-0.2,0-0.4,0-0.6,0c-1.4,0-2.1-0.7-2.2-2.2v-3.3l-1.1,0.1v-1.5h1.1L564,66.7z"/>
					<path class="st4" d="M570,68.7c1.5,0.1,2.2,0.8,2.2,2.2v4.8h-1.6v-0.6c-0.3,0.4-0.8,0.6-1.3,0.6c-0.2,0-0.5,0-0.7-0.1
						c-0.8-0.2-1.2-0.8-1.2-1.8c0-0.1,0-0.3,0-0.4c0.1-1.1,0.8-1.6,2.3-1.6c0.3,0,0.6,0,0.9,0.1v-0.8c0-0.6-0.2-0.9-0.6-0.9l0,0
						h-0.1c-0.4,0-0.7,0.3-0.7,1.1v0.1l-1.6-0.1c0-1.6,0.8-2.3,2.3-2.3L570,68.7L570,68.7z M570.5,74v-1.2c-0.2,0-0.4-0.1-0.5-0.1
						c-0.4,0-0.7,0.1-0.8,0.4c-0.1,0.2-0.1,0.3-0.1,0.5s0.1,0.3,0.2,0.5c0.1,0.1,0.3,0.2,0.4,0.2C569.9,74.2,570.2,74.1,570.5,74z"
						/>
				</g>
				<g>
					<g>
						<path class="st9" d="M596.2,48.7c-0.1,0-0.1,0.1-0.2,0.1l-4.9,1c-0.2,0-0.5-0.1-0.5-0.3s0.1-0.5,0.3-0.5l4.9-1
							c0.2,0,0.5,0.1,0.5,0.3C596.4,48.4,596.3,48.6,596.2,48.7z"/>
					</g>
					<g>
						<path class="st9" d="M546.9,48.3c-0.2,0-0.3-0.1-0.3-0.3c-0.1-0.2,0-0.5,0.3-0.6l4.7-1.8c0.2-0.1,0.5,0,0.6,0.3
							c0.1,0.2,0,0.5-0.3,0.6l-4.7,1.8C547.1,48.3,547,48.3,546.9,48.3z"/>
					</g>
					<g>
						<g>
							<path class="st9" d="M567.7,64.4l-1.8-0.3c-0.2,0-0.4-0.3-0.4-0.5s0.3-0.4,0.5-0.4l0.9,0.1l0.5-3.3h2.2
								c0.2,0,0.5,0.2,0.5,0.5c0,0.2-0.2,0.5-0.5,0.5l0,0h-1.4L567.7,64.4z"/>
						</g>
					</g>
					<g>
						<g>
							<path class="st9" d="M572.3,64.5l-1.8-0.3c-0.2,0-0.4-0.3-0.4-0.5s0.3-0.4,0.5-0.4l0.9,0.1l0.5-3.3h2.2
								c0.2,0,0.5,0.2,0.5,0.5c0,0.2-0.2,0.5-0.5,0.5l0,0h-1.4L572.3,64.5z"/>
						</g>
					</g>
				</g>
				<g>
					<g>
						<g>
							
								<rect x="557.8" y="27.5" transform="matrix(5.909435e-02 -0.9983 0.9983 5.909435e-02 489.7797 615.5248)" class="st10" width="27.2" height="40.8"/>
							<polygon class="st11" points="591,62.7 550.2,60.3 571.3,46.3 							"/>
							<polygon class="st9" points="551.8,33.1 592.5,35.5 571.3,49.8 							"/>
						</g>
					</g>
					<g>
						<g>
							<path d="M565.5,49c-0.2,3.2,2.2,6,5.5,6.2s6-2.3,6.2-5.5L565.5,49z"/>
							<path class="st12" d="M574.7,54.1c0,0-0.8-2.5-3.5-2.8s-4.4,1.9-4.4,1.9s2.7,3.7,7.2,1.4C574.2,54.4,574.5,54.2,574.7,54.1z"
								/>
						</g>
						<g>
							<g>
								<path d="M576.6,44.8c-0.1,0-0.2,0-0.2-0.1c-0.1,0-1.4-1.1-2.4-0.2c-0.1,0.1-0.4,0.1-0.5,0s-0.1-0.4,0-0.5
									c1.2-1.1,2.7-0.4,3.3,0.1c0.1,0.1,0.2,0.3,0,0.5C576.8,44.8,576.7,44.8,576.6,44.8z"/>
							</g>
						</g>
						<g>
							<g>
								<path d="M569.5,44.4c-0.1,0-0.2,0-0.3-0.1c-0.9-1.1-2.3-0.2-2.4-0.1c-0.2,0.1-0.4,0.1-0.5-0.1c-0.1-0.2-0.1-0.4,0.1-0.5
									c0.7-0.5,2.2-1,3.3,0.3c0.1,0.2,0.1,0.4,0,0.5C569.7,44.4,569.6,44.4,569.5,44.4z"/>
							</g>
						</g>
					</g>
				</g>
			</g>
		</g>
	</g>
</g>
</svg>
