<?xml version="1.0" encoding="utf-8"?>
<!-- Generator: Adobe Illustrator 21.1.0, SVG Export Plug-In . SVG Version: 6.00 Build 0)  -->
<svg version="1.1" id="Layer_1" xmlns="http://www.w3.org/2000/svg" xmlns:xlink="http://www.w3.org/1999/xlink" x="0px" y="0px"
	 viewBox="0 0 93 78" style="enable-background:new 0 0 93 78;" xml:space="preserve">
<style type="text/css">
	.st0{fill:#00ABD3;}
	.st1{fill:none;stroke:#FFFFFF;stroke-miterlimit:10;}
	.st2{fill:none;stroke:#B0E1F1;stroke-miterlimit:10;}
	.st3{fill:#FFFFFF;}
	.st4{opacity:0.6;}
	.st5{opacity:0.72;}
	.st6{fill:#CCCACA;}
	.st7{fill:#DB4690;}
	.st8{fill:#DDD5CC;}
	.st9{fill:#EFE6D9;}
	.st10{fill:#E5DCCF;}
	.st11{fill:#F1BDD7;}
</style>
<g>
	<ellipse class="st0" cx="47.9" cy="38" rx="35.2" ry="33.9"/>
	
		<image style="overflow:visible;enable-background:new    ;" width="233" height="96" xlink:href="../../../../../Downloads/AFB022FD7A076214.png"  transform="matrix(0.2349 0 0 0.2285 20.3365 49.2285)">
	</image>
	<path class="st1" d="M60.6,8.7"/>
	<g>
		<g>
			<path class="st2" d="M49.2,4.2"/>
		</g>
	</g>
	<circle class="st3" cx="44.6" cy="10.6" r="0.3"/>
	<g class="st4">
		<g class="st5">
			<path class="st3" d="M70.3,14c1.5,1.4,2.7,3.1,3.7,4.9c0.5,0.9,1,1.8,1.5,2.7c0.2,0.5,0.4,0.9,0.6,1.4l0.6,1.4l0.1,0.4l0.1,0.4
				l0.2,0.7l0.2,0.7c0.1,0.2,0.1,0.5,0.2,0.8c0.1,0.5,0.3,1,0.4,1.5l0.3,1.5c0,0.3,0.1,0.5,0.1,0.8l0.1,0.8l0.2,1.5l0.1,1.6v0.8
				c0,0.3,0,0.5,0,0.8l-0.1,1.6c0,0.3,0,0.5-0.1,0.8l-0.1,0.8c-0.1,1-0.3,2.1-0.5,3.1c-0.1,0.5-0.2,1-0.4,1.5l-0.2,0.8
				c-0.1,0.2-0.1,0.5-0.2,0.7l-0.5,1.5L76.1,49c-0.7,1.9-1.6,3.8-2.6,5.6c-0.3,0.4-0.5,0.9-0.8,1.3s-0.5,0.9-0.8,1.3
				c-0.6,0.8-1.2,1.7-1.8,2.4c1.8-3.7,3.2-7.4,4.3-11.2c0.6-1.9,1-3.8,1.3-5.8c0.1-1,0.3-1.9,0.4-2.9c0-0.5,0.1-1,0.1-1.5v-1.5
				c0-0.2,0-0.5,0-0.7v-0.7v-1.5l-0.1-1.5L76,31.6l-0.1-0.7l-0.2-1.5L75.4,28c0-0.2-0.1-0.5-0.1-0.7l-0.2-0.7l-0.2-0.7l-0.1-0.4
				l-0.1-0.3l-0.4-1.4l-0.5-1.4c-0.3-0.9-0.7-1.9-1.1-2.8s-0.8-1.8-1.3-2.7c-0.2-0.4-0.5-0.9-0.7-1.3C70.9,14.8,70.6,14.4,70.3,14z"
				/>
		</g>
		<path class="st3" d="M67.4,15.3l-0.2-0.1h0.2c0.1,0,0.2-0.1,0.1-0.2c0-0.1-0.1-0.2-0.2-0.1L66.7,15l-0.2-0.1l0.5-0.1
			c0.1,0,0.2-0.1,0.1-0.2c0-0.1-0.1-0.2-0.2-0.1L66,14.7l-0.5-0.3l0.5-0.3l0.9,0.2c0.1,0,0.2,0,0.2-0.1s0-0.2-0.1-0.2l-0.5-0.1
			l0.2-0.1l0.6,0.1c0.1,0,0.2,0,0.2-0.1s0-0.2-0.1-0.2h-0.2l0.2-0.1c0.1,0,0.1-0.2,0.1-0.3s-0.2-0.1-0.3-0.1L67,13.2V13
			c0-0.1,0-0.2-0.1-0.2s-0.2,0-0.2,0.1l-0.1,0.6l-0.2,0.1l0.1-0.5c0-0.1,0-0.2-0.1-0.2s-0.2,0-0.2,0.1L66,13.9l-0.5,0.3v-0.6
			l0.6-0.6c0.1-0.1,0.1-0.2,0-0.3s-0.2-0.1-0.3,0l-0.4,0.4v-0.3l0.3-0.8c0.1-0.1,0.1-0.2,0-0.3s-0.2-0.1-0.3,0l-0.1,0.1v-0.2
			c0-0.1-0.1-0.2-0.2-0.2s-0.2,0.1-0.2,0.2v0.2l-0.1-0.1c-0.1-0.1-0.2-0.1-0.3,0s-0.1,0.2,0,0.3l0.4,0.4v0.3l-0.4-0.4
			c-0.1-0.1-0.2-0.1-0.3,0c-0.1,0.1-0.1,0.2,0,0.3l0.6,0.6v0.6l-0.5-0.3l-0.2-0.9c0-0.1-0.1-0.2-0.2-0.1c-0.1,0-0.2,0.1-0.1,0.2
			l0.1,0.5l-0.2-0.1l-0.1-0.6c0-0.1-0.1-0.2-0.2-0.1c-0.1,0-0.2,0.1-0.1,0.2v0.2l-0.2-0.1c-0.1,0-0.2,0-0.3,0.1c0,0.1,0,0.2,0.1,0.3
			l0.2,0.1h-0.2c-0.1,0-0.2,0.1-0.1,0.2c0,0.1,0.1,0.2,0.2,0.1l0.6-0.1l0.2,0.1l-0.5,0.1c-0.1,0-0.2,0.1-0.1,0.2
			c0,0.1,0.1,0.2,0.2,0.1l0.9-0.2l0.5,0.3l-0.5,0.3l-0.9-0.2c-0.1,0-0.2,0-0.2,0.1s0,0.2,0.1,0.2l0.5,0.1l-0.2,0.1L63,14.5
			c-0.1,0-0.2,0-0.2,0.1s0,0.2,0.1,0.2h0.2l-0.2,0.1c-0.1,0-0.1,0.2-0.1,0.3s0.2,0.1,0.3,0.1l0.2-0.1v0.2c0,0.1,0,0.2,0.1,0.2
			s0.2,0,0.2-0.1l0.1-0.6l0.2-0.1l-0.1,0.5c0,0.1,0,0.2,0.1,0.2s0.2,0,0.2-0.1l0.2-0.9l0.5-0.3v0.6l-0.6,0.6c-0.1,0.1-0.1,0.2,0,0.3
			s0.2,0.1,0.3,0l0.4-0.4v0.3L64.5,16c-0.1,0.1-0.1,0.2,0,0.3s0.2,0.1,0.3,0l0.1-0.1v0.2c0,0.1,0.1,0.2,0.2,0.2s0.2-0.1,0.2-0.2
			v-0.2l0.1,0.1c0.1,0.1,0.2,0.1,0.3,0s0.1-0.2,0-0.3l-0.4-0.4v-0.3l0.4,0.7c0.1,0.1,0.2,0.1,0.3,0c0.1-0.1,0.1-0.2,0-0.3l-0.6-0.6
			v-0.6l0.5,0.3l0.2,0.9c0,0.1,0.1,0.2,0.2,0.1c0.1,0,0.2-0.1,0.1-0.2l-0.1-0.5l0.2,0.1l0.2,0.6c0,0.1,0.1,0.2,0.2,0.1
			c0.1,0,0.2-0.1,0.1-0.2v-0.2l0.2,0.1c0.1,0,0.2,0,0.3-0.1C67.6,15.5,67.5,15.3,67.4,15.3z"/>
		<circle class="st3" cx="51.8" cy="11.8" r="1.2"/>
		<circle class="st3" cx="23.2" cy="29.9" r="0.3"/>
		<circle class="st3" cx="39.3" cy="34.9" r="0.3"/>
		<circle class="st3" cx="46.3" cy="36.3" r="0.7"/>
		<circle class="st3" cx="25.5" cy="40.7" r="0.7"/>
		<circle class="st3" cx="44.7" cy="5.8" r="0.6"/>
		<circle class="st3" cx="37.1" cy="12.6" r="0.6"/>
		<circle class="st3" cx="41.1" cy="22.3" r="0.3"/>
		<circle class="st3" cx="27.8" cy="44.8" r="0.3"/>
		<circle class="st3" cx="20.9" cy="36.5" r="0.3"/>
		<circle class="st3" cx="26.5" cy="20.2" r="0.3"/>
		<circle class="st3" cx="26" cy="13.4" r="0.3"/>
		<circle class="st3" cx="58.6" cy="10.1" r="0.3"/>
		<circle class="st3" cx="16.1" cy="39.8" r="0.7"/>
		<circle class="st6" cx="46.1" cy="44" r="1.1"/>
		<circle class="st6" cx="34.9" cy="23.6" r="0.7"/>
		<circle class="st6" cx="30.9" cy="12.9" r="0.5"/>
		<circle class="st6" cx="50.6" cy="23.9" r="0.5"/>
		<circle class="st6" cx="32.7" cy="40.9" r="0.5"/>
		<circle class="st6" cx="15.6" cy="38.5" r="0.6"/>
	</g>
	<g>
		<g>
			<g>
				<polygon class="st7" points="5.3,46 51,48.3 86.1,50.1 86,71.6 6.2,73.9 				"/>
				<g>
					<path class="st3" d="M14.3,54.9L18,65.1l3.6-10.3h3.8V69h-2.9v-3.9l0.3-6.7L19,69h-2l-3.8-10.5l0.3,6.7V69h-2.9V54.9H14.3z"/>
					<path class="st3" d="M27.8,55.8c0-0.4,0.1-0.8,0.4-1c0.3-0.3,0.7-0.4,1.2-0.4c0.5,0,0.9,0.1,1.1,0.4c0.3,0.3,0.4,0.6,0.4,1
						c0,0.4-0.1,0.8-0.4,1c-0.3,0.3-0.7,0.4-1.1,0.4c-0.5,0-0.9-0.1-1.1-0.4C27.9,56.6,27.8,56.2,27.8,55.8z M30.7,69h-2.8V58.5h2.8
						V69z"/>
					<path class="st3" d="M42.4,67c0.5,0,0.9-0.1,1.3-0.4c0.3-0.3,0.5-0.7,0.5-1.1h2.6c0,0.7-0.2,1.4-0.6,2
						c-0.4,0.6-0.9,1.1-1.6,1.4c-0.7,0.3-1.4,0.5-2.2,0.5c-1.5,0-2.7-0.5-3.6-1.4c-0.9-1-1.3-2.3-1.3-4v-0.2c0-1.6,0.4-2.9,1.3-3.9
						s2-1.4,3.5-1.4c1.3,0,2.4,0.4,3.2,1.1s1.2,1.7,1.2,3h-2.6c0-0.5-0.2-1-0.5-1.3s-0.8-0.5-1.3-0.5c-0.7,0-1.1,0.2-1.5,0.7
						c-0.3,0.5-0.5,1.2-0.5,2.3v0.3c0,1.1,0.2,1.9,0.5,2.3C41.2,66.7,41.7,67,42.4,67z"/>
					<path class="st3" d="M54.5,69c-0.1-0.3-0.2-0.6-0.3-0.9c-0.7,0.8-1.6,1.1-2.7,1.1c-1,0-1.9-0.3-2.6-0.9s-1-1.3-1-2.3
						c0-1.1,0.4-2,1.2-2.6c0.8-0.6,2-0.9,3.6-0.9h1.3V62c0-0.5-0.1-0.9-0.4-1.2c-0.2-0.3-0.6-0.4-1.2-0.4c-0.5,0-0.8,0.1-1.1,0.3
						C51.1,61,51,61.3,51,61.7h-2.8c0-0.6,0.2-1.2,0.6-1.7c0.4-0.5,0.9-0.9,1.6-1.2c0.7-0.3,1.5-0.4,2.3-0.4c1.3,0,2.3,0.3,3.1,1
						c0.8,0.7,1.1,1.6,1.1,2.7v4.6c0,1,0.1,1.8,0.4,2.3V69H54.5z M52.2,67.1c0.4,0,0.8-0.1,1.1-0.3s0.6-0.4,0.8-0.7v-1.8h-1
						c-1.4,0-2.2,0.5-2.2,1.5l0,0.2c0,0.3,0.1,0.6,0.4,0.9C51.4,67,51.7,67.1,52.2,67.1z"/>
					<path class="st3" d="M65,61.2c-0.4-0.1-0.7-0.1-1-0.1c-1.1,0-1.8,0.4-2.1,1.1V69H59V58.5h2.7l0.1,1.3c0.6-1,1.3-1.4,2.3-1.4
						c0.3,0,0.6,0,0.9,0.1L65,61.2z"/>
					<path class="st3" d="M70.2,55.9v2.6h1.8v2.1h-1.8v5.2c0,0.4,0.1,0.7,0.2,0.8c0.1,0.2,0.4,0.3,0.9,0.3c0.3,0,0.6,0,0.8-0.1V69
						c-0.6,0.2-1.1,0.3-1.7,0.3c-2,0-3-1-3-3v-5.7h-1.5v-2.1h1.5v-2.6H70.2z"/>
					<path class="st3" d="M79.6,69c-0.1-0.3-0.2-0.6-0.3-0.9c-0.7,0.8-1.6,1.1-2.7,1.1c-1,0-1.9-0.3-2.6-0.9s-1-1.3-1-2.3
						c0-1.1,0.4-2,1.2-2.6c0.8-0.6,2-0.9,3.6-0.9h1.3V62c0-0.5-0.1-0.9-0.4-1.2c-0.2-0.3-0.6-0.4-1.2-0.4c-0.5,0-0.8,0.1-1.1,0.3
						c-0.3,0.2-0.4,0.5-0.4,0.9h-2.8c0-0.6,0.2-1.2,0.6-1.7c0.4-0.5,0.9-0.9,1.6-1.2c0.7-0.3,1.5-0.4,2.3-0.4c1.3,0,2.3,0.3,3.1,1
						C81.6,60,82,60.9,82,62v4.6c0,1,0.1,1.8,0.4,2.3V69H79.6z M77.3,67.1c0.4,0,0.8-0.1,1.1-0.3s0.6-0.4,0.8-0.7v-1.8h-1
						c-1.4,0-2.2,0.5-2.2,1.5l0,0.2c0,0.3,0.1,0.6,0.4,0.9C76.5,67,76.9,67.1,77.3,67.1z"/>
				</g>
				<g>
					<g>
						<g>
							<path class="st8" d="M73.7,36.6c0,0-0.1,0.1-0.2,0.1L68.6,38c-0.2,0.1-0.5-0.1-0.6-0.3s0.1-0.5,0.3-0.6l4.9-1.3
								c0.2-0.1,0.5,0.1,0.6,0.3C73.8,36.3,73.8,36.5,73.7,36.6z"/>
						</g>
						<g>
							<path class="st8" d="M24,34.7c-0.1-0.1-0.2-0.3-0.1-0.4c0.1-0.2,0.3-0.4,0.6-0.3l4.9,1.2c0.2,0.1,0.4,0.3,0.3,0.5
								s-0.3,0.4-0.6,0.3l-4.9-1.2C24.1,34.8,24.1,34.8,24,34.7z"/>
						</g>
						<g>
							<g>
								<path class="st8" d="M45.2,52.4l-1.8-0.3c-0.2,0-0.4-0.3-0.4-0.5s0.3-0.4,0.5-0.4l0.9,0.1l0.5-3.3h2.2
									c0.2,0,0.5,0.2,0.5,0.5c0,0.2-0.2,0.5-0.5,0.5l0,0h-1.4L45.2,52.4z"/>
							</g>
						</g>
						<g>
							<g>
								<path class="st8" d="M49.7,52.5l-1.8-0.3c-0.2,0-0.4-0.3-0.4-0.5s0.3-0.4,0.5-0.4l0.9,0.1l0.5-3.3h2.2
									c0.2,0,0.5,0.2,0.5,0.5c0,0.2-0.2,0.5-0.5,0.5l0,0h-1.4L49.7,52.5z"/>
							</g>
						</g>
					</g>
					<g>
						<g>
							
								<rect x="35.2" y="15.5" transform="matrix(5.908874e-02 -0.9983 0.9983 5.908874e-02 10.0015 82.5091)" class="st9" width="27.2" height="40.8"/>
							<polygon class="st10" points="68.5,50.7 27.7,48.3 48.8,34.3 							"/>
							<polygon class="st8" points="29.2,21.1 70,23.5 48.8,37.8 							"/>
							<g>
								<g>
									<path d="M42.9,36.8c-0.2,3.2,2.2,6,5.5,6.2c3.2,0.2,6-2.3,6.2-5.5L42.9,36.8z"/>
									<path class="st11" d="M52.2,41.9c0,0-0.8-2.5-3.5-2.8S44.3,41,44.3,41s2.7,3.7,7.2,1.4C51.7,42.2,51.9,42,52.2,41.9z"/>
								</g>
							</g>
						</g>
						<circle cx="46.3" cy="31.9" r="0.7"/>
						<circle cx="51.8" cy="32.1" r="0.7"/>
					</g>
				</g>
			</g>
		</g>
	</g>
</g>
</svg>
