<?xml version="1.0" encoding="UTF-8"?>
<svg width="129px" height="28px" viewBox="0 0 129 28" version="1.1" xmlns="http://www.w3.org/2000/svg" xmlns:xlink="http://www.w3.org/1999/xlink">
    <!-- Generator: Sketch 59.1 (86144) - https://sketch.com -->
    <title>atom / logos / liverpool / regular / pink</title>
    <desc>Created with Sketch.</desc>
    <g id="z" stroke="none" stroke-width="1" fill="none" fill-rule="evenodd">
        <g id="atom-/-logos-/-liverpool-/-regular-/-pink" fill="#E10098">
            <g id="liverpool">
                <path d="M112.601067,9 C116.688071,9 120,12.1409493 120,16.0157011 C120,19.890453 116.688071,23.030545 112.601067,23.030545 C109.935787,23.030545 107.603328,21.6975275 106.300081,19.6984299 C105.000452,21.6975275 102.660758,23.030545 100.000904,23.030545 C97.3401465,23.030545 95.0049742,21.6975275 93.7017274,19.6984299 C92.399385,21.6975275 90.0651171,23.030545 87.4025504,23.030545 C85.3911549,23.030545 83.5696844,22.2701678 82.2374966,21.0374481 L82.2374966,21.0374481 L82.2374966,28 L80,28 L80,16.0157011 C80,12.1409493 83.3155467,9 87.4025504,9 C90.0651171,9 92.399385,10.334732 93.7017274,12.3346869 C95.0049742,10.334732 97.3401465,9 100.000904,9 C102.660758,9 105.000452,10.3338748 106.300081,12.3346869 C107.603328,10.3338748 109.935787,9 112.601067,9 Z M123,5 L123,23 L121,23 L121,5 L123,5 Z M48.5288455,10 L52.9986433,20.4629845 L57.4684411,10 L60,10 L54.4457652,23 L51.5524259,23 L46,10 L48.5288455,10 Z M2.1412207,0 L2.1412207,19.4604739 C2.1412207,20.1654381 2.49985314,20.9101918 3.54755331,20.9101918 L15,20.9101918 L15,23 L2.54391118,23 C1.12259884,23 0,21.8443776 0,20.4655886 L0,0 L2.1412207,0 Z M22.7539305,3 C23.489287,3 24,3.53926206 24,4.23677647 C23.9921024,5.05470027 24,23 24,23 L21.8799269,23 L21.8799269,6.37748344 C21.8799269,5.64728649 21.5552468,5.08308248 20.6487751,5.08308248 L12,5.08308248 L12,3 L22.7539305,3 Z M24.4578511,0 C25.8782823,0 27,1.15735239 27,2.53527642 L27,23 L24.8596605,23 L24.8596605,3.53952614 C24.8596605,2.83542685 24.5001469,2.09067319 23.4524467,2.09067319 L12,2.09067319 L12,0 L24.4578511,0 Z M16.9423845,9 C17.7030804,9 18,9.47809823 18,10.0212381 L18,23 L15.9207074,23 L15.9207074,11.8424038 C15.9207074,11.4361047 15.7333143,11.048389 15.1437536,11.048389 L12,11.048389 L12,9 L16.9423845,9 Z M80,10 L80,12.0598562 L78.2134628,12.0598562 C77.5337393,12.0598562 77.0177749,12.6215586 77.0177749,13.3205286 L77.0177749,13.3205286 L77.0194207,23 L75,23 L75,12.9803071 C75,11.3356222 76.2722186,10 77.8826531,10 L77.8826531,10 L80,10 Z M45,10 L45,23 L43,23 L43,10 L45,10 Z M66.5023155,9 C70.6350726,9 74,12.1397345 74,15.9995678 L74,15.9995678 L74,16.4119173 L61.1228774,16.4119173 C61.3951837,19.073603 63.7134918,21.0342081 66.5023155,21.0342081 C68.7965421,21.0342081 70.8314295,19.6769991 71.5881445,17.6576104 L71.5881445,17.6576104 L73.7851189,17.6576104 C72.9654214,20.8085829 69.9876505,23 66.5023155,23 C62.3658537,23 59,19.8585366 59,15.9995678 C59,12.1397345 62.3658537,9 66.5023155,9 Z M35.2425459,5 L35.2425459,19.628302 C35.2497741,20.3558197 35.6879831,20.9239763 36.5544624,20.9239763 L42,20.9239763 L42,23 L34.4962353,22.9991339 C33.5493424,22.9991339 33,22.4448347 33,21.6428331 L33,5 L35.2425459,5 Z M19.9788344,6 C20.4120035,6 21,6.44145864 21,7.10748908 L21,7.10748908 L21,23 L18.8898231,23 C18.8898231,23 18.8887407,17.3829142 18.8879701,13.265908 L18.8872137,9.01592245 C18.8872137,8.46687428 18.671499,8.06384047 18.0034793,8.06384047 L18.0034793,8.06384047 L12.0008698,8.06384047 L12,6 Z M87.4025504,11.0985382 C84.5428236,11.0985382 82.2185041,13.3059466 82.2185041,16.0157011 C82.2185041,18.7263129 84.5428236,20.9337213 87.4025504,20.9337213 C90.2640861,20.9337213 92.5884055,18.7263129 92.5884055,16.0157011 C92.5884055,13.3059466 90.2640861,11.0985382 87.4025504,11.0985382 Z M100.000904,11.0985382 C97.1411775,11.0985382 94.8132405,13.3059466 94.8132405,16.0157011 C94.8132405,18.7263129 97.1411775,20.9337213 100.000904,20.9337213 C102.86244,20.9337213 105.189473,18.7263129 105.189473,16.0157011 C105.189473,13.3059466 102.86244,11.0985382 100.000904,11.0985382 Z M112.601067,11.0985382 C109.738627,11.0985382 107.414308,13.3059466 107.414308,16.0157011 C107.414308,18.7263129 109.738627,20.9337213 112.601067,20.9337213 C115.460794,20.9337213 117.786018,18.7263129 117.786018,16.0157011 C117.786018,13.3059466 115.460794,11.0985382 112.601067,11.0985382 Z M5.12022817,0 L5.12022817,16.6226618 C5.12022817,17.3519673 5.44405441,17.9170071 6.35234752,17.9170071 L15,17.9170071 L15,20 L4.2461606,20 C3.50987275,20 3,19.4607611 3,18.7632767 L3.00081632,18.5704103 C3.00643987,16.4601265 3,0 3,0 L5.12022817,0 Z M8.11017686,0 L8.11096264,3.07097302 C8.11159094,5.53398556 8.11245953,8.95671957 8.11303867,11.3114332 L8.11365613,13.9850829 C8.11365613,14.5341035 8.32937083,14.9362632 8.99652073,14.9362632 L8.99652073,14.9362632 L15,14.9362632 L15,17 L7.02116556,17 C6.58799652,17 6,16.5594174 6,15.8925665 L6,15.8925665 L6,0 L8.11017686,0 L8.11017686,0 Z M66.5023155,10.9675208 C64.2136462,10.9675208 62.1287434,12.3247299 61.370176,14.443532 L61.370176,14.443532 L71.6261192,14.443532 C70.8666255,12.3247299 68.7900587,10.9675208 66.5023155,10.9675208 Z M11.078437,0 L11.078437,11.1592856 C11.078437,11.56474 11.2649743,11.9524557 11.8562464,11.9524557 L15,11.9524557 L15,14 L10.0559042,14 C9.29520821,14 9,13.5235912 9,12.9796066 L9,0 L11.078437,0 Z M127.497215,5 C128.32797,5 129,5.66501548 129,6.49628483 C129,7.32662539 128.32797,8 127.497215,8 C126.670173,8 126,7.32662539 126,6.49628483 C126,5.66501548 126.670173,5 127.497215,5 Z M127.497215,5.24613003 C126.80755,5.24613003 126.251547,5.80340557 126.251547,6.49628483 C126.251547,7.1873065 126.80755,7.7501548 127.497215,7.7501548 C128.187809,7.7501548 128.751238,7.1873065 128.751238,6.49628483 C128.751238,5.80340557 128.187809,5.24613003 127.497215,5.24613003 Z M127.551052,5.71517028 C127.952042,5.71517028 128.084777,5.96408669 128.084777,6.13591331 C128.084777,6.39876161 127.90099,6.58637771 127.62995,6.60123839 L127.62995,6.6123839 C127.767327,6.65882353 127.867574,6.79814241 128.000309,7.0126935 L128.197092,7.32662539 L127.882426,7.32662539 L127.737624,7.0749226 C127.533416,6.71362229 127.457302,6.64210526 127.26052,6.64210526 L127.101795,6.64210526 L127.101795,7.32662539 L126.840965,7.32662539 L126.840965,5.71517028 L127.551052,5.71517028 Z M45,5 L45,7 L43,7 L43,5 L45,5 Z M127.523205,5.93436533 L127.101795,5.93436533 L127.101795,6.41919505 L127.476795,6.41919505 C127.679146,6.41919505 127.810953,6.34210526 127.810953,6.1749226 C127.810953,6.02724458 127.691213,5.93436533 127.523205,5.93436533 Z"></path>
            </g>
        </g>
    </g>
</svg>