<svg xmlns="http://www.w3.org/2000/svg" width="339.9" height="80.32" viewBox="0 0 339.9 80.32">
  <defs>
    <style>
      .cls-1, .cls-12, .cls-3 {
        fill: none;
      }

      .cls-1, .cls-12, .cls-5 {
        stroke: #ec008c;
      }

      .cls-1, .cls-12, .cls-3, .cls-5, .cls-6 {
        stroke-miterlimit: 10;
      }

      .cls-11, .cls-2 {
        fill: #ec008c;
      }

      .cls-3 {
        stroke: #1d75bc;
      }

      .cls-4 {
        fill: #1d75bc;
      }

      .cls-5, .cls-6 {
        fill: #fff;
      }

      .cls-12, .cls-5, .cls-6 {
        opacity: 0.6;
      }

      .cls-6 {
        stroke: #002d73;
      }

      .cls-7 {
        fill: #c2a55e;
        stroke: #846729;
      }

      .cls-10, .cls-11, .cls-7, .cls-8 {
        stroke-linecap: round;
        stroke-linejoin: round;
      }

      .cls-11, .cls-7, .cls-8 {
        stroke-width: 0.5px;
      }

      .cls-7, .cls-8 {
        fill-rule: evenodd;
      }

      .cls-8 {
        fill: #65b546;
        stroke: #1e753b;
      }

      .cls-9 {
        fill: #df068c;
      }

      .cls-10 {
        fill: #bcbec0;
        stroke-width: 0.4px;
      }

      .cls-10, .cls-11 {
        stroke: #808285;
      }

      .cls-12 {
        stroke-dasharray: 3;
      }
    </style>
  </defs>
  <title>Asset 2</title>
  <g id="Layer_2" data-name="Layer 2">
    <g id="TXT">
      <g>
        <line class="cls-1" x1="0.5" y1="66.21" x2="246.49" y2="66.21"/>
        <rect class="cls-2" y="62.96" width="1" height="6.5"/>
        <rect class="cls-2" x="245.99" y="62.96" width="1" height="6.5"/>
      </g>
      <g>
        <line class="cls-3" x1="261.04" y1="66.21" x2="339.4" y2="66.21"/>
        <rect class="cls-4" x="260.54" y="62.96" width="1" height="6.5"/>
        <rect class="cls-4" x="338.9" y="62.96" width="1" height="6.5"/>
      </g>
      <g>
        <circle class="cls-5" cx="28.03" cy="23.03" r="12.96"/>
        <circle class="cls-5" cx="179.23" cy="23.03" r="12.96"/>
        <circle class="cls-6" cx="301.57" cy="23.03" r="12.96"/>
        <g>
          <path class="cls-7" d="M177.66,37.47c2.21-7.08,1.64-14.79-.48-21.85a27.26,27.26,0,0,1-6,6.1c-.78-4.13.39-7.11,3.45-9.16-2.41-.07-6,.49-8,2.23-.19-4.88,3.77-6,7.54-5.29a8,8,0,0,0-3.52-2.78c2.73-1.84,4.81-.15,5.86,2.21,1-3,3.54-5.6,6.93-3.31A9.69,9.69,0,0,0,179,9.44c3.58-2.08,8.28-2.47,9.49,2.66-2.42-1.14-6-.73-8.32,0,3.49,1.16,5.41,3.73,5.76,7.91a30.4,30.4,0,0,1-6.18-3.34c2,6.45,3.12,15.46,1.73,20.83Z"/>
          <path class="cls-8" d="M177,15.63a27.26,27.26,0,0,1-6,6.1c-.78-4.13.39-7.11,3.45-9.16-2.41-.07-6,.49-8,2.23-.19-4.88,3.77-6,7.54-5.29a8,8,0,0,0-3.52-2.78c2.73-1.84,4.81-.15,5.86,2.21,1-3,3.54-5.6,6.93-3.31a9.69,9.69,0,0,0-4.46,3.8c3.58-2.08,8.28-2.47,9.49,2.66-2.42-1.14-6-.73-8.32,0,3.49,1.16,5.41,3.73,5.76,7.91a30.4,30.4,0,0,1-6.18-3.34"/>
        </g>
        <g>
          <path class="cls-9" d="M.46,50.55v-7.4H3.86v1.33H1.93v1.67H3.6v1.33H1.93v1.74H3.86v1.33Z"/>
          <path class="cls-9" d="M8.29,50.08a2.31,2.31,0,0,1-1.61.55,2.21,2.21,0,0,1-1.6-.54,2.18,2.18,0,0,1-.49-1.64H6.07a1,1,0,0,0,.16.67.59.59,0,0,0,.46.18.54.54,0,0,0,.47-.19,1,1,0,0,0,.15-.62c0-.71-.11-.83-.64-1l-.93-.38c-.75-.31-1.06-.71-1.06-1.86a2.08,2.08,0,0,1,.67-1.64,2,2,0,0,1,1.36-.47,2.05,2.05,0,0,1,1.46.47,2.24,2.24,0,0,1,.57,1.71H7.23a1.12,1.12,0,0,0-.12-.67.48.48,0,0,0-.43-.19.49.49,0,0,0-.43.2.83.83,0,0,0-.12.53c0,.47.08.6.51.78l.92.37c.93.38,1.21.8,1.21,2.14A2.13,2.13,0,0,1,8.29,50.08Z"/>
          <path class="cls-9" d="M12.13,44.48v6.07H10.66V44.48H9.41V43.15h4v1.33Z"/>
          <path class="cls-9" d="M14.19,50.55v-7.4h3.41v1.33H15.66v1.67h1.66v1.33H15.66v1.74h1.93v1.33Z"/>
          <path class="cls-9" d="M18.52,50.55v-7.4H20v6.07h1.93v1.33Z"/>
          <path class="cls-9" d="M26.22,50.55,26,49.4h-1.7L24,50.55H22.5l1.9-7.4h1.46l1.9,7.4Zm-1.09-5.23-.57,2.74H25.7Z"/>
          <path class="cls-9" d="M33.86,49.83a2,2,0,0,1-1.62.72H30.15v-7.4h2.09a2,2,0,0,1,1.62.72c.52.59.55,1.61.55,3S34.38,49.24,33.86,49.83Zm-1.1-5a.59.59,0,0,0-.55-.32h-.58v4.74h.58a.59.59,0,0,0,.55-.32,6.41,6.41,0,0,0,.18-2.06A6.27,6.27,0,0,0,32.76,44.8Z"/>
          <path class="cls-9" d="M35.37,50.55v-7.4h3.41v1.33H36.84v1.67h1.66v1.33H36.84v1.74h1.93v1.33Z"/>
          <path class="cls-9" d="M41.45,50.55v-7.4h1.48v6.07h1.93v1.33Z"/>
          <path class="cls-9" d="M49.25,50a2.24,2.24,0,0,1-3.08,0,2,2,0,0,1-.55-1.45V43.15H47.1v5.49a.62.62,0,1,0,1.23,0V43.15H49.8v5.41A2,2,0,0,1,49.25,50Z"/>
          <path class="cls-9" d="M50.6,50.55V49.46l2-5H50.7V43.15h3.39v1.09l-2,5h2v1.33Z"/>
        </g>
        <g>
          <path class="cls-4" d="M278.42,50.55V46.7l-.81,2.54h-.76l-.79-2.53v3.84h-1.48v-7.4h1.3l1.35,3.63,1.35-3.63h1.31v7.4Z"/>
          <path class="cls-4" d="M284.65,49.89a2.13,2.13,0,0,1-3.24,0c-.52-.63-.55-1.61-.55-3s0-2.4.55-3a2.13,2.13,0,0,1,3.24,0c.52.63.55,1.61.55,3S285.17,49.25,284.65,49.89Zm-1.12-5.2a.57.57,0,0,0-1,0,6.75,6.75,0,0,0-.2,2.16,6.75,6.75,0,0,0,.2,2.16.57.57,0,0,0,1,0,6.75,6.75,0,0,0,.2-2.16A6.75,6.75,0,0,0,283.53,44.69Z"/>
          <path class="cls-4" d="M289.2,50.55l-1.57-3.62v3.62h-1.48v-7.4h1.29L289,46.77V43.15h1.48v7.4Z"/>
          <path class="cls-4" d="M295.17,50a2.24,2.24,0,0,1-3.08,0,2,2,0,0,1-.55-1.45V43.15H293v5.49a.62.62,0,1,0,1.23,0V43.15h1.48v5.41A2,2,0,0,1,295.17,50Z"/>
          <path class="cls-4" d="M300.65,50.55V46.7l-.81,2.54h-.76l-.79-2.53v3.84h-1.48v-7.4h1.3l1.35,3.63,1.35-3.63h1.31v7.4Z"/>
          <path class="cls-4" d="M303.25,50.55v-7.4h3.41v1.33h-1.93v1.67h1.66v1.33h-1.66v1.74h1.93v1.33Z"/>
          <path class="cls-4" d="M310.63,50.55l-1.57-3.62v3.62h-1.48v-7.4h1.29l1.54,3.62V43.15h1.48v7.4Z"/>
          <path class="cls-4" d="M315.42,44.48v6.07h-1.48V44.48H312.7V43.15h4v1.33Z"/>
          <path class="cls-4" d="M321.08,49.89a2.13,2.13,0,0,1-3.24,0c-.52-.63-.55-1.61-.55-3s0-2.4.55-3a2.13,2.13,0,0,1,3.24,0c.52.63.55,1.61.55,3S321.6,49.25,321.08,49.89ZM320,44.69a.57.57,0,0,0-1,0,6.75,6.75,0,0,0-.2,2.16A6.75,6.75,0,0,0,319,49a.57.57,0,0,0,1,0,6.75,6.75,0,0,0,.2-2.16A6.75,6.75,0,0,0,320,44.69Z"/>
          <path class="cls-4" d="M327.53,50.55l-.24-1.15h-1.7l-.24,1.15h-1.54l1.9-7.4h1.46l1.9,7.4Zm-1.09-5.23-.57,2.74H327Z"/>
          <path class="cls-4" d="M272.65,60.94v-7.4h1.48v6.07h1.93v1.33Z"/>
          <path class="cls-4" d="M280.34,60.94l-.24-1.15h-1.7l-.24,1.15h-1.54l1.9-7.4H280l1.9,7.4Zm-1.09-5.23-.57,2.74h1.14Z"/>
          <path class="cls-4" d="M287.15,60.94l-.9-2.88h-.49v2.88h-1.48v-7.4h2.11c1.61,0,2.06.84,2.06,2.25a2,2,0,0,1-.84,1.94l1.08,3.2Zm-.77-6.07h-.62v1.86h.62c.56,0,.59-.51.59-.94S286.94,54.87,286.38,54.87Z"/>
          <path class="cls-4" d="M289.52,60.94v-7.4h3.41v1.33H291v1.67h1.66v1.33H291v1.74h1.93v1.33Z"/>
          <path class="cls-4" d="M296.72,60.94h-1.54l-1.65-7.4h1.62l.8,5.23.81-5.23h1.62Z"/>
          <path class="cls-4" d="M302.57,60.28a2.13,2.13,0,0,1-3.24,0c-.52-.63-.55-1.61-.55-3s0-2.4.55-3a2.13,2.13,0,0,1,3.24,0c.52.63.55,1.61.55,3S303.09,59.64,302.57,60.28Zm-1.12-5.2a.57.57,0,0,0-1,0,6.75,6.75,0,0,0-.2,2.16,6.75,6.75,0,0,0,.2,2.16.57.57,0,0,0,1,0,6.75,6.75,0,0,0,.2-2.16A6.75,6.75,0,0,0,301.45,55.08Z"/>
          <path class="cls-4" d="M304.07,60.94v-7.4h1.48v6.07h1.93v1.33Z"/>
          <path class="cls-4" d="M311.87,60.41a2.24,2.24,0,0,1-3.08,0,2,2,0,0,1-.55-1.45V53.54h1.48V59a.62.62,0,1,0,1.23,0V53.54h1.48V59A2,2,0,0,1,311.87,60.41Z"/>
          <path class="cls-4" d="M316.93,60.49a2.15,2.15,0,0,1-3-.22c-.52-.63-.55-1.61-.55-3s0-2.4.55-3a2.15,2.15,0,0,1,3-.22,2.39,2.39,0,0,1,.67,1.65h-1.48a1.38,1.38,0,0,0-.11-.57.49.49,0,0,0-.5-.28.51.51,0,0,0-.5.29,6.75,6.75,0,0,0-.2,2.16,6.75,6.75,0,0,0,.2,2.16.51.51,0,0,0,.5.29.49.49,0,0,0,.5-.29,1.37,1.37,0,0,0,.11-.57h1.48A2.41,2.41,0,0,1,316.93,60.49Z"/>
          <path class="cls-4" d="M318.46,60.94v-7.4h1.48v7.4Z"/>
          <path class="cls-4" d="M324.69,60.28a2.13,2.13,0,0,1-3.24,0c-.52-.63-.55-1.61-.55-3s0-2.4.55-3a2.13,2.13,0,0,1,3.24,0c.52.63.55,1.61.55,3S325.21,59.64,324.69,60.28Zm-1.12-5.2a.57.57,0,0,0-1,0,6.75,6.75,0,0,0-.2,2.16,6.75,6.75,0,0,0,.2,2.16.57.57,0,0,0,1,0,6.75,6.75,0,0,0,.2-2.16A6.75,6.75,0,0,0,323.57,55.08Zm-.17-2h-.91l.79-1.51h1.11Z"/>
          <path class="cls-4" d="M329.24,60.94l-1.57-3.62v3.62H326.2v-7.4h1.29L329,57.16V53.54h1.48v7.4Z"/>
        </g>
        <g>
          <path class="cls-2" d="M62.86,8a1.49,1.49,0,0,1-1.22.54H60.06V2.93h1.58a1.49,1.49,0,0,1,1.22.54,3.54,3.54,0,0,1,.42,2.24A3.59,3.59,0,0,1,62.86,8ZM62,4.18a.44.44,0,0,0-.42-.24h-.44V7.51h.44A.44.44,0,0,0,62,7.27a4.86,4.86,0,0,0,.13-1.55A4.75,4.75,0,0,0,62,4.18Z"/>
          <path class="cls-2" d="M64.09,8.51V2.93H65.2V8.51Z"/>
          <path class="cls-2" d="M68.64,8.51l-.18-.87H67.18L67,8.51H65.83l1.44-5.58h1.1L69.8,8.51Zm-.82-3.95-.43,2.07h.86Z"/>
          <path class="cls-2" d="M72.74,8.51,71.55,5.78V8.51H70.44V2.93h1l1.16,2.73V2.93h1.11V8.51Z"/>
          <path class="cls-2" d="M77.13,8.51,77,7.64H75.67l-.18.87H74.33l1.44-5.58h1.1L78.3,8.51Zm-.82-3.95-.43,2.07h.86Z"/>
          <path class="cls-2" d="M56,16a1.62,1.62,0,0,1-2.3-.17,3.66,3.66,0,0,1-.42-2.29,3.66,3.66,0,0,1,.42-2.29,1.62,1.62,0,0,1,2.3-.17,1.81,1.81,0,0,1,.5,1.25H55.36a1.06,1.06,0,0,0-.09-.43.37.37,0,0,0-.38-.21.38.38,0,0,0-.38.22,5.12,5.12,0,0,0-.15,1.63,5.11,5.11,0,0,0,.15,1.63.38.38,0,0,0,.38.22.37.37,0,0,0,.38-.22,1.06,1.06,0,0,0,.09-.43h1.11A1.83,1.83,0,0,1,56,16Z"/>
          <path class="cls-2" d="M59.67,16.36l-.18-.87H58.21l-.18.87H56.86l1.44-5.58h1.1l1.44,5.58Zm-.82-3.95-.43,2.07h.86Z"/>
          <path class="cls-2" d="M61.37,16.36v-.82l1.47-3.76h-1.4v-1H64v.82l-1.47,3.76H64v1Z"/>
          <path class="cls-2" d="M67.36,16.36l-.18-.87H65.89l-.18.87H64.55L66,10.78h1.1l1.44,5.58Zm-.82-3.95-.43,2.07H67Z"/>
          <path class="cls-2" d="M72,15.82a1.49,1.49,0,0,1-1.22.54H69.16V10.78h1.58a1.49,1.49,0,0,1,1.22.54,3.54,3.54,0,0,1,.42,2.24A3.59,3.59,0,0,1,72,15.82ZM71.13,12a.44.44,0,0,0-.42-.24h-.44v3.58h.44a.44.44,0,0,0,.42-.24,4.86,4.86,0,0,0,.13-1.55A4.75,4.75,0,0,0,71.13,12Z"/>
          <path class="cls-2" d="M75.91,15.86a1.61,1.61,0,0,1-2.45,0A3.66,3.66,0,0,1,73,13.57a3.66,3.66,0,0,1,.42-2.29,1.61,1.61,0,0,1,2.45,0,3.66,3.66,0,0,1,.42,2.29A3.66,3.66,0,0,1,75.91,15.86Zm-.85-3.92a.43.43,0,0,0-.75,0,5.12,5.12,0,0,0-.15,1.63,5.11,5.11,0,0,0,.15,1.63.43.43,0,0,0,.75,0,5.08,5.08,0,0,0,.15-1.63A5.09,5.09,0,0,0,75.06,11.94Z"/>
          <path class="cls-2" d="M79.29,16.36l-.68-2.17h-.37v2.17H77.13V10.78h1.59c1.22,0,1.55.63,1.55,1.7a1.53,1.53,0,0,1-.63,1.47l.82,2.42Zm-.58-4.58h-.47v1.4h.47c.42,0,.45-.38.45-.71S79.13,11.78,78.71,11.78Z"/>
          <path class="cls-2" d="M83.77,16.36l-.18-.87H82.31l-.18.87H81l1.44-5.58h1.1l1.44,5.58Zm-.82-3.95-.43,2.07h.86Z"/>
        </g>
        <g>
          <path class="cls-2" d="M110.49,8.07l-.18-.87H109l-.18.87h-1.16l1.44-5.58h1.1l1.44,5.58Zm-.56-5.94h-.69l.6-1.14h.84Zm-.26,2-.43,2.07h.86Z"/>
          <path class="cls-2" d="M114.59,8.07,113.4,5.34V8.07h-1.11V2.49h1l1.16,2.73V2.49h1.11V8.07Z"/>
          <path class="cls-2" d="M118,8.13a1.47,1.47,0,0,1-1.22-.56,3.66,3.66,0,0,1-.42-2.29A3.66,3.66,0,0,1,116.76,3,1.47,1.47,0,0,1,118,2.42a1.52,1.52,0,0,1,1.1.42,1.85,1.85,0,0,1,.48,1.25h-1.11c0-.24,0-.66-.46-.66a.38.38,0,0,0-.38.22,5.12,5.12,0,0,0-.15,1.63,5.11,5.11,0,0,0,.15,1.63.38.38,0,0,0,.38.22c.37,0,.46-.34.46-.65V5.9H118V5h1.58V6.42A1.51,1.51,0,0,1,118,8.13Z"/>
          <path class="cls-2" d="M120.37,8.07V2.49h2.57v1h-1.46V4.75h1.25v1h-1.25V7.07h1.46v1Z"/>
          <path class="cls-2" d="M123.73,8.07V2.49h1.11V7.07h1.46v1Z"/>
          <path class="cls-2" d="M131.05,7.53a1.49,1.49,0,0,1-1.22.54h-1.58V2.49h1.58a1.49,1.49,0,0,1,1.22.54,3.54,3.54,0,0,1,.42,2.24A3.59,3.59,0,0,1,131.05,7.53Zm-.83-3.8a.44.44,0,0,0-.42-.24h-.44V7.07h.44a.44.44,0,0,0,.42-.24,4.86,4.86,0,0,0,.13-1.55A4.75,4.75,0,0,0,130.22,3.73Z"/>
          <path class="cls-2" d="M132.27,8.07V2.49h2.57v1h-1.46V4.75h1.25v1h-1.25V7.07h1.46v1Z"/>
          <path class="cls-2" d="M136.86,8.07V2.49H138V7.07h1.46v1Z"/>
          <path class="cls-2" d="M142.75,8.07l-.18-.87h-1.29l-.18.87h-1.16l1.44-5.58h1.1l1.44,5.58Zm-.82-3.95-.43,2.07h.86Z"/>
          <path class="cls-2" d="M102.92,15.92V10.33H104v5.58Z"/>
          <path class="cls-2" d="M107.26,15.92l-1.18-2.73v2.73H105V10.33h1l1.16,2.73V10.33h1.11v5.58Z"/>
          <path class="cls-2" d="M111.95,15.38a1.49,1.49,0,0,1-1.22.54h-1.58V10.33h1.58a1.49,1.49,0,0,1,1.22.54,3.54,3.54,0,0,1,.42,2.24A3.59,3.59,0,0,1,111.95,15.38Zm-.83-3.8a.44.44,0,0,0-.42-.24h-.44v3.58h.44a.44.44,0,0,0,.42-.24,4.86,4.86,0,0,0,.13-1.55A4.75,4.75,0,0,0,111.12,11.58Z"/>
          <path class="cls-2" d="M113.17,15.92V10.33h2.57v1h-1.46V12.6h1.25v1h-1.25v1.31h1.46v1Z"/>
          <path class="cls-2" d="M118.1,13.89h-.46v2h-1.11V10.33h1.58c1.21,0,1.57.69,1.57,1.78S119.31,13.89,118.1,13.89Zm0-2.56h-.43v1.55h.43c.47,0,.49-.42.49-.78S118.54,11.34,118.07,11.34Z"/>
          <path class="cls-2" d="M120.41,15.92V10.33H123v1h-1.46V12.6h1.25v1h-1.25v1.31H123v1Z"/>
          <path class="cls-2" d="M126.07,15.92l-1.18-2.73v2.73h-1.11V10.33h1l1.16,2.73V10.33H127v5.58Z"/>
          <path class="cls-2" d="M130.76,15.38a1.49,1.49,0,0,1-1.22.54H128V10.33h1.58a1.49,1.49,0,0,1,1.22.54,3.54,3.54,0,0,1,.42,2.24A3.59,3.59,0,0,1,130.76,15.38Zm-.83-3.8a.44.44,0,0,0-.42-.24h-.44v3.58h.44a.44.44,0,0,0,.42-.24,4.86,4.86,0,0,0,.13-1.55A4.75,4.75,0,0,0,129.92,11.58Z"/>
          <path class="cls-2" d="M132,15.92V10.33h2.57v1h-1.46V12.6h1.25v1h-1.25v1.31h1.46v1Z"/>
          <path class="cls-2" d="M137.63,15.92l-1.18-2.73v2.73h-1.11V10.33h1l1.16,2.73V10.33h1.11v5.58Z"/>
          <path class="cls-2" d="M142.1,15.58a1.62,1.62,0,0,1-2.3-.17,3.66,3.66,0,0,1-.42-2.29,3.66,3.66,0,0,1,.42-2.29,1.62,1.62,0,0,1,2.3-.17,1.81,1.81,0,0,1,.5,1.25h-1.11a1.06,1.06,0,0,0-.09-.43.37.37,0,0,0-.38-.21.38.38,0,0,0-.38.22,5.12,5.12,0,0,0-.15,1.63,5.11,5.11,0,0,0,.15,1.63A.38.38,0,0,0,141,15a.37.37,0,0,0,.38-.22,1.06,1.06,0,0,0,.09-.43h1.11A1.83,1.83,0,0,1,142.1,15.58Z"/>
          <path class="cls-2" d="M143.34,15.92V10.33h1.11v5.58Z"/>
          <path class="cls-2" d="M147.89,15.92l-.18-.87h-1.29l-.18.87h-1.16l1.44-5.58h1.1l1.44,5.58ZM147.07,12,146.64,14h.86Z"/>
        </g>
        <g>
          <path class="cls-2" d="M211.11,10.71a1.47,1.47,0,0,1-1.22-.56,3.66,3.66,0,0,1-.42-2.29,3.66,3.66,0,0,1,.42-2.29A1.47,1.47,0,0,1,211.11,5a1.52,1.52,0,0,1,1.1.42,1.85,1.85,0,0,1,.48,1.25h-1.11c0-.24,0-.66-.46-.66a.38.38,0,0,0-.38.22,5.12,5.12,0,0,0-.15,1.63,5.11,5.11,0,0,0,.15,1.63.38.38,0,0,0,.38.22c.37,0,.46-.34.46-.65V8.47h-.46v-.9h1.58V9A1.51,1.51,0,0,1,211.11,10.71Z"/>
          <path class="cls-2" d="M213.49,10.65V5.06h1.11V9.64h1.46v1Z"/>
          <path class="cls-2" d="M219.49,10.14a1.61,1.61,0,0,1-2.45,0,3.66,3.66,0,0,1-.42-2.29A3.66,3.66,0,0,1,217,5.56a1.61,1.61,0,0,1,2.45,0,3.66,3.66,0,0,1,.42,2.29A3.66,3.66,0,0,1,219.49,10.14Zm-.85-3.92a.43.43,0,0,0-.75,0,5.12,5.12,0,0,0-.15,1.63,5.11,5.11,0,0,0,.15,1.63.43.43,0,0,0,.75,0,5.08,5.08,0,0,0,.15-1.63A5.09,5.09,0,0,0,218.65,6.22Z"/>
          <path class="cls-2" d="M222.88,10.65l-.68-2.17h-.37v2.17h-1.11V5.06h1.59c1.22,0,1.55.63,1.55,1.7a1.53,1.53,0,0,1-.63,1.47l.82,2.42Zm-.58-4.58h-.47v1.4h.47c.42,0,.45-.38.45-.71S222.72,6.07,222.3,6.07Z"/>
          <path class="cls-2" d="M224.76,10.65V5.06h1.11v5.58Z"/>
          <path class="cls-2" d="M226.8,10.65V5.06h2.57v1h-1.46V7.33h1.25v1h-1.25V9.64h1.46v1Z"/>
          <path class="cls-2" d="M232,6.07v4.58h-1.11V6.07H230v-1h3v1Z"/>
          <path class="cls-2" d="M235.82,10.65l-.18-.87h-1.29l-.18.87H233l1.44-5.58h1.1L237,10.65ZM235,6.7l-.43,2.07h.86Z"/>
          <path class="cls-2" d="M241.6,10.11a1.49,1.49,0,0,1-1.22.54H238.8V5.06h1.58a1.49,1.49,0,0,1,1.22.54A3.54,3.54,0,0,1,242,7.85,3.59,3.59,0,0,1,241.6,10.11Zm-.83-3.8a.44.44,0,0,0-.42-.24h-.44V9.64h.44a.44.44,0,0,0,.42-.24,4.86,4.86,0,0,0,.13-1.55A4.75,4.75,0,0,0,240.77,6.31Z"/>
          <path class="cls-2" d="M242.82,10.65V5.06h2.57v1h-1.46V7.33h1.25v1h-1.25V9.64h1.46v1Z"/>
          <path class="cls-2" d="M220.85,18.16a1.62,1.62,0,0,1-2.3-.17,3.66,3.66,0,0,1-.42-2.29,3.66,3.66,0,0,1,.42-2.29,1.62,1.62,0,0,1,2.3-.17,1.81,1.81,0,0,1,.5,1.25h-1.11a1.06,1.06,0,0,0-.09-.43.37.37,0,0,0-.38-.21.38.38,0,0,0-.38.22,5.12,5.12,0,0,0-.15,1.63,5.11,5.11,0,0,0,.15,1.63.38.38,0,0,0,.38.22.37.37,0,0,0,.38-.22,1.06,1.06,0,0,0,.09-.43h1.11A1.83,1.83,0,0,1,220.85,18.16Z"/>
          <path class="cls-2" d="M224.85,18a1.61,1.61,0,0,1-2.45,0A3.66,3.66,0,0,1,222,15.7a3.66,3.66,0,0,1,.42-2.29,1.61,1.61,0,0,1,2.45,0,3.66,3.66,0,0,1,.42,2.29A3.66,3.66,0,0,1,224.85,18ZM224,14.07a.43.43,0,0,0-.75,0,5.12,5.12,0,0,0-.15,1.63,5.11,5.11,0,0,0,.15,1.63.43.43,0,0,0,.75,0,5.08,5.08,0,0,0,.15-1.63A5.09,5.09,0,0,0,224,14.07Z"/>
          <path class="cls-2" d="M226.08,18.49V12.91h1.11v4.58h1.46v1Z"/>
          <path class="cls-2" d="M232.07,18a1.61,1.61,0,0,1-2.45,0,3.66,3.66,0,0,1-.42-2.29,3.66,3.66,0,0,1,.42-2.29,1.61,1.61,0,0,1,2.45,0,3.66,3.66,0,0,1,.42,2.29A3.66,3.66,0,0,1,232.07,18Zm-.85-3.92a.43.43,0,0,0-.75,0,5.12,5.12,0,0,0-.15,1.63,5.11,5.11,0,0,0,.15,1.63.43.43,0,0,0,.75,0,5.08,5.08,0,0,0,.15-1.63A5.09,5.09,0,0,0,231.23,14.07Zm-.12-1.51h-.69l.6-1.14h.84Z"/>
          <path class="cls-2" d="M235.59,18.49l-1.18-2.73v2.73h-1.11V12.91h1l1.16,2.73V12.91h1.11v5.58Z"/>
        </g>
        <g>
          <path class="cls-9" d="M165.07,48a1.94,1.94,0,0,1-1.62-.75c-.52-.63-.55-1.61-.55-3s0-2.4.55-3a1.94,1.94,0,0,1,1.62-.75,2,2,0,0,1,1.45.55,2.44,2.44,0,0,1,.63,1.65h-1.48c0-.31-.05-.87-.61-.87a.51.51,0,0,0-.5.29,6.75,6.75,0,0,0-.2,2.16,6.75,6.75,0,0,0,.2,2.16.51.51,0,0,0,.5.29c.49,0,.61-.46.61-.86V45h-.61v-1.2h2.09v1.88A2,2,0,0,1,165.07,48Z"/>
          <path class="cls-9" d="M168.12,47.91v-7.4h1.48v6.07h1.93v1.33Z"/>
          <path class="cls-9" d="M176,47.25a2.13,2.13,0,0,1-3.24,0c-.52-.63-.55-1.61-.55-3s0-2.4.55-3a2.13,2.13,0,0,1,3.24,0c.52.63.55,1.61.55,3S176.48,46.62,176,47.25Zm-1.12-5.2a.57.57,0,0,0-1,0,6.75,6.75,0,0,0-.2,2.16,6.75,6.75,0,0,0,.2,2.16.57.57,0,0,0,1,0,6.75,6.75,0,0,0,.2-2.16A6.75,6.75,0,0,0,174.83,42.05Z"/>
          <path class="cls-9" d="M180.33,47.91l-.9-2.88h-.49v2.88h-1.48v-7.4h2.11c1.61,0,2.06.84,2.06,2.25a2,2,0,0,1-.84,1.94l1.08,3.2Zm-.77-6.07h-.62v1.86h.62c.56,0,.59-.51.59-.94S180.12,41.85,179.56,41.85Z"/>
          <path class="cls-9" d="M182.7,47.91v-7.4h1.48v7.4Z"/>
          <path class="cls-9" d="M185.3,47.91v-7.4h3.41v1.33h-1.93v1.67h1.66v1.33h-1.66v1.74h1.93v1.33Z"/>
          <path class="cls-9" d="M192.11,41.85v6.07h-1.48V41.85h-1.25V40.52h4v1.33Z"/>
          <path class="cls-9" d="M197,47.91l-.24-1.15h-1.7l-.24,1.15h-1.54l1.9-7.4h1.46l1.9,7.4Zm-1.09-5.23-.57,2.74h1.14Z"/>
          <path class="cls-9" d="M160.19,57.59a2,2,0,0,1-1.62.72h-2.09v-7.4h2.09a2,2,0,0,1,1.62.72c.52.59.55,1.61.55,3S160.71,57,160.19,57.59Zm-1.1-5a.59.59,0,0,0-.55-.32H158V57h.58a.59.59,0,0,0,.55-.32,6.41,6.41,0,0,0,.18-2.06A6.27,6.27,0,0,0,159.09,52.56Z"/>
          <path class="cls-9" d="M161.69,58.3v-7.4h3.41v1.33h-1.93v1.67h1.66v1.33h-1.66V57h1.93V58.3Z"/>
          <path class="cls-9" d="M167.77,58.3v-7.4h1.48V57h1.93V58.3Z"/>
          <path class="cls-9" d="M175.46,58.3l-.24-1.15h-1.7l-.24,1.15h-1.54l1.9-7.4h1.46l1.9,7.4Zm-1.09-5.23-.57,2.74h1.14Z"/>
          <path class="cls-9" d="M181.49,55.62h-.61V58.3H179.4v-7.4h2.09c1.6,0,2.08.91,2.08,2.36S183.09,55.62,181.49,55.62Zm0-3.39h-.57v2.06h.57c.62,0,.64-.56.64-1S182.07,52.24,181.45,52.24Z"/>
          <path class="cls-9" d="M187.36,58.3l-.24-1.15h-1.7l-.24,1.15h-1.54l1.9-7.4H187l1.9,7.4Zm-1.09-5.23-.57,2.74h1.14Z"/>
          <path class="cls-9" d="M189.64,58.3v-7.4h1.48V57H193V58.3Z"/>
          <path class="cls-9" d="M197.71,58.3V54.45L196.9,57h-.76l-.79-2.53V58.3h-1.48v-7.4h1.3l1.35,3.63,1.35-3.63h1.31v7.4Z"/>
          <path class="cls-9" d="M203.64,58.3l-.24-1.15h-1.7l-.24,1.15h-1.54l1.9-7.4h1.46l1.9,7.4Zm-1.09-5.23L202,55.82h1.14Z"/>
        </g>
        <g>
          <rect class="cls-10" x="19.61" y="0.25" width="16.85" height="37.22"/>
          <line class="cls-11" x1="25.23" y1="0.25" x2="25.23" y2="37.47"/>
          <line class="cls-11" x1="30.84" y1="0.25" x2="30.84" y2="37.47"/>
          <line class="cls-11" x1="19.61" y1="5.58" x2="36.46" y2="5.58"/>
          <line class="cls-11" x1="19.61" y1="10.92" x2="36.46" y2="10.92"/>
          <line class="cls-11" x1="19.61" y1="16.25" x2="36.46" y2="16.25"/>
          <line class="cls-11" x1="19.61" y1="21.58" x2="36.46" y2="21.58"/>
          <line class="cls-11" x1="19.61" y1="26.92" x2="36.46" y2="26.92"/>
          <line class="cls-11" x1="19.61" y1="32.25" x2="36.46" y2="32.25"/>
        </g>
        <line class="cls-12" x1="41.58" y1="23.71" x2="165.77" y2="23.71"/>
        <line class="cls-12" x1="195.26" y1="23.71" x2="288.61" y2="23.71"/>
        <path class="cls-10" d="M297.22,27.89a4.25,4.25,0,0,1,4.35-4.14h0a4.25,4.25,0,0,1,4.35,4.14h0v9.58h5.74V22.32h-.51V18.77h-.38a.69.69,0,0,0-.64-.94h0v-.1s.13-1.46-.69-1.63a.61.61,0,0,0-.45-1l-.15,0v-.17s.13-.36-.09-.54v-.67s-.17-.11-.14-.27.1-.41-.31-.54c0,0,.14-.62-.11-.63v-.19H308a10,10,0,0,0-1.41-2.32,5.18,5.18,0,0,0-2.8-1.87V7.34h0a5.53,5.53,0,0,0-1-.33V6h-.1V5.17a2.31,2.31,0,0,0-1.18-.42h0a2.31,2.31,0,0,0-1.18.42V6h-.1V7a5.53,5.53,0,0,0-1,.33h0v.56a5.18,5.18,0,0,0-2.8,1.87,10,10,0,0,0-1.41,2.32H295v.19c-.26,0-.11.63-.11.63-.42.14-.34.38-.31.54s-.14.27-.14.27v.67c-.22.18-.09.54-.09.54v.17l-.15,0a.61.61,0,0,0-.45,1c-.82.17-.69,1.63-.69,1.63v.1h0a.69.69,0,0,0-.64.94H292v3.55h-.51V37.47h5.74Z"/>
      </g>
      <g>
        <path class="cls-2" d="M110.19,79.26a1.73,1.73,0,0,1-1.42.63h-1.83v-6.5h1.83a1.73,1.73,0,0,1,1.42.63,4.11,4.11,0,0,1,.48,2.61A4.17,4.17,0,0,1,110.19,79.26Zm-1-4.42a.51.51,0,0,0-.48-.28h-.51v4.16h.51a.51.51,0,0,0,.48-.28,5.62,5.62,0,0,0,.16-1.81A5.5,5.5,0,0,0,109.23,74.85Z"/>
        <path class="cls-2" d="M112.65,79.89v-6.5h3v1.17h-1.7V76h1.46V77.2h-1.46v1.52h1.7v1.17Z"/>
        <path class="cls-2" d="M120.67,79.48a2,2,0,0,1-1.41.48,1.94,1.94,0,0,1-1.41-.47,1.91,1.91,0,0,1-.43-1.44h1.3a.87.87,0,0,0,.14.59.52.52,0,0,0,.4.16.47.47,0,0,0,.41-.16.85.85,0,0,0,.13-.55c0-.62-.1-.73-.57-.92l-.82-.34c-.66-.27-.93-.62-.93-1.63a1.82,1.82,0,0,1,.58-1.44,1.78,1.78,0,0,1,1.2-.41,1.8,1.8,0,0,1,1.28.41,2,2,0,0,1,.5,1.5h-1.3a1,1,0,0,0-.11-.58.42.42,0,0,0-.37-.16.43.43,0,0,0-.37.17.73.73,0,0,0-.11.46c0,.41.07.53.45.68l.81.33c.82.34,1.06.7,1.06,1.88A1.87,1.87,0,0,1,120.67,79.48Z"/>
        <path class="cls-2" d="M124.33,74.56V76h1.46V77.2h-1.46v2.69H123v-6.5h3v1.17Z"/>
        <path class="cls-2" d="M127.9,79.89v-6.5h1.3v6.5Z"/>
        <path class="cls-2" d="M131.32,79.89v-6.5h1.3v5.33h1.7v1.17Z"/>
        <path class="cls-2" d="M136.18,79.89v-6.5h3v1.17h-1.7V76h1.46V77.2h-1.46v1.52h1.7v1.17Z"/>
      </g>
      <g>
        <path class="cls-4" d="M280.07,79.86a1.89,1.89,0,0,1-2.67-.19,4.26,4.26,0,0,1-.48-2.66,4.27,4.27,0,0,1,.48-2.67,1.89,1.89,0,0,1,2.67-.19,2.1,2.1,0,0,1,.58,1.45h-1.3a1.24,1.24,0,0,0-.1-.5.43.43,0,0,0-.44-.25.45.45,0,0,0-.44.26,5.93,5.93,0,0,0-.17,1.9,5.92,5.92,0,0,0,.17,1.9.45.45,0,0,0,.44.26.43.43,0,0,0,.44-.26,1.24,1.24,0,0,0,.1-.5h1.3A2.13,2.13,0,0,1,280.07,79.86Z"/>
        <path class="cls-4" d="M285.77,79.66a1.87,1.87,0,0,1-2.85,0,4.26,4.26,0,0,1-.48-2.66,4.27,4.27,0,0,1,.48-2.67,1.87,1.87,0,0,1,2.85,0,4.27,4.27,0,0,1,.48,2.67A4.26,4.26,0,0,1,285.77,79.66Zm-1-4.56a.5.5,0,0,0-.88,0,5.93,5.93,0,0,0-.17,1.9,5.93,5.93,0,0,0,.17,1.9.5.5,0,0,0,.88,0A5.92,5.92,0,0,0,285,77,5.93,5.93,0,0,0,284.78,75.1Z"/>
        <path class="cls-4" d="M290.9,80.25l-1.38-3.18v3.18h-1.3v-6.5h1.13l1.35,3.18V73.75H292v6.5Z"/>
        <path class="cls-4" d="M297.14,79.86a1.89,1.89,0,0,1-2.67-.19A4.26,4.26,0,0,1,294,77a4.27,4.27,0,0,1,.48-2.67,1.89,1.89,0,0,1,2.67-.19,2.1,2.1,0,0,1,.58,1.45h-1.3a1.24,1.24,0,0,0-.1-.5.43.43,0,0,0-.44-.25.45.45,0,0,0-.44.26,5.93,5.93,0,0,0-.17,1.9,5.93,5.93,0,0,0,.17,1.9.45.45,0,0,0,.44.26.43.43,0,0,0,.44-.26,1.24,1.24,0,0,0,.1-.5h1.3A2.13,2.13,0,0,1,297.14,79.86Z"/>
        <path class="cls-4" d="M299.63,80.25v-6.5h1.3v6.5Z"/>
        <path class="cls-4" d="M303,80.25v-6.5h3v1.17h-1.7v1.47h1.46v1.17h-1.46v1.52H306v1.17Z"/>
        <path class="cls-4" d="M310.51,80.25l-.79-2.53h-.43v2.53H308v-6.5h1.85c1.41,0,1.81.74,1.81,2a1.78,1.78,0,0,1-.74,1.71l.95,2.81Zm-.68-5.33h-.55v1.63h.55c.49,0,.52-.45.52-.82S310.33,74.92,309.83,74.92Z"/>
        <path class="cls-4" d="M315.84,74.92v5.33h-1.3V74.92h-1.09V73.75h3.49v1.17Z"/>
        <path class="cls-4" d="M321.95,79.66a1.87,1.87,0,0,1-2.85,0,4.26,4.26,0,0,1-.48-2.66,4.27,4.27,0,0,1,.48-2.67,1.87,1.87,0,0,1,2.85,0,4.27,4.27,0,0,1,.48,2.67A4.26,4.26,0,0,1,321.95,79.66Zm-1-4.56a.5.5,0,0,0-.88,0,5.93,5.93,0,0,0-.17,1.9,5.93,5.93,0,0,0,.17,1.9.5.5,0,0,0,.88,0,5.92,5.92,0,0,0,.17-1.9A5.93,5.93,0,0,0,321,75.1Z"/>
      </g>
    </g>
  </g>
</svg>
