<?xml version="1.0" encoding="utf-8"?>
<!-- Generator: Adobe Illustrator 21.1.0, SVG Export Plug-In . SVG Version: 6.00 Build 0)  -->
<svg version="1.1" id="Capa_1" xmlns="http://www.w3.org/2000/svg" xmlns:xlink="http://www.w3.org/1999/xlink" x="0px" y="0px"
	 viewBox="0 0 500 500" style="enable-background:new 0 0 500 500;" xml:space="preserve">
<style type="text/css">
	.st0{fill:none;}
	.st1{fill:#FF319B;}
	.st2{fill:#FFFFFF;}
	.st3{fill:#666666;}
	.st4{fill:#00B8B1;}
	.st5{fill:#00C096;}
	.st6{fill:#FFA371;}
	.st7{fill:#FFBD00;}
</style>
<g>
	<path class="st0" d="M286.2,299.8c-4.6,0-8.7-2.7-10.9-7l-24.9-49v178.4h44.9V299.8H286.2z"/>
	<path class="st0" d="M282.5,219.1c4.9,0,9.7,0,14.3,0l-12.5-3.1L282.5,219.1z"/>
	<path class="st1" d="M132.2,219.1L132.2,219.1c1.2,0,5,0,10.8,0c-0.3-0.6-0.7-1.1-1.3-1.5l-17.1-12.2c-2-1.4-4.7-0.9-6.1,1
		c-1.4,2-0.9,4.7,1,6.1l9.6,6.9c0.3-0.1,0.6-0.2,0.9-0.2C130.8,219.2,131.5,219.1,132.2,219.1z"/>
	<path class="st1" d="M410.1,123.1c-2.3-0.8-4.8,0.5-5.5,2.8l-11.6,34.7c-0.8,2.3,0.5,4.8,2.8,5.5c0.5,0.2,0.9,0.2,1.4,0.2
		c1.8,0,3.5-1.2,4.1-3l11.6-34.7C413.6,126.3,412.4,123.9,410.1,123.1z"/>
	<path class="st2" d="M88.3,290.7c-0.1-1.7,0.3-3.4,1.1-4.9C88.6,287.3,88.2,289,88.3,290.7z"/>
	<path class="st2" d="M365.7,427.4c-0.9,1-1.9,1.7-3,2.4C363.8,429.2,364.8,428.4,365.7,427.4z"/>
	<path class="st2" d="M276.2,228.7h-22.8l30.4,59.9c0.5,1.1,1.5,1.7,2.4,1.7c2.7,0,104.2,0,107.2,0c0-0.1,0-0.1,0-0.2L363.8,232
		c-1-2-2.8-3.3-4.8-3.3h-82.5l-0.3,0.5L276.2,228.7z"/>
	<path class="st2" d="M120,225.8c-0.4,0.6-0.8,1.2-1.1,1.9l-29.5,58.1l29.5-58.1C119.2,227,119.6,226.4,120,225.8z"/>
	<path class="st2" d="M205,299.8h-10.4v122.4h46.2V243.9l-24.9,49C213.7,297.2,209.5,299.8,205,299.8z"/>
	<path class="st2" d="M130.9,299.8v116.9c0,3,2,5.5,4.4,5.5h28.7V299.8H130.9z"/>
	<path class="st2" d="M359,219.1L359,219.1c0.7,0,1.4,0.1,2,0.1C360.4,219.2,359.7,219.1,359,219.1z"/>
	<path class="st2" d="M401.8,285.8l-29.5-58.1c-0.3-0.7-0.7-1.3-1.1-1.9c0.4,0.6,0.8,1.2,1.1,1.9L401.8,285.8z"/>
	<path class="st2" d="M207.4,288.6L207.4,288.6c4.9-9.7,26.8-52.7,30.4-59.9H132.2c-1.9,0-3.7,1.2-4.8,3.3l-29.5,58.1
		c0,0.1,0,0.1,0,0.2c2.9,0,104.5,0,107.2,0C205.9,290.3,206.8,289.6,207.4,288.6z"/>
	<path class="st2" d="M130.1,219.3c0.7-0.1,1.4-0.1,2-0.1h0C131.5,219.1,130.8,219.2,130.1,219.3z"/>
	<rect x="295.2" y="299.8" class="st1" width="30.6" height="122.4"/>
	<rect x="163.9" y="299.8" class="st1" width="30.6" height="122.4"/>
	<path class="st3" d="M372.3,227.6c-0.3-0.7-0.7-1.3-1.1-1.9c-2.4-3.5-6.1-5.9-10.1-6.5c-0.7-0.1-1.4-0.1-2-0.1
		c-3.3,0-28.1,0-60.2,0l0.5,0.6l-2.5-0.6c-4.7,0-9.4,0-14.3,0l-5.9,9.6H359c1.9,0,3.7,1.2,4.8,3.3l29.5,58.1c0,0.1,0,0.1,0,0.2
		c-2.9,0-104.5,0-107.2,0c-0.9,0-1.9-0.7-2.4-1.7l-30.4-59.9h22.8l-0.7-9.6c-50.1,0-108.5,0-132.5,0c-5.8,0-9.7,0-10.8,0
		c-0.7,0-1.4,0.1-2,0.1c-0.3,0-0.6,0.1-0.9,0.2c-3,0.6-5.8,2.2-7.9,4.6c-0.5,0.5-0.9,1.1-1.3,1.7s-0.8,1.2-1.1,1.9l-29.5,58.1
		c-0.8,1.5-1.1,3.2-1.1,4.9c0.1,1.7,0.6,3.3,1.5,4.8c0.8,1.4,2,2.4,3.3,3.2c1.3,0.7,2.8,1.2,4.3,1.2h24v116.9
		c0,8.3,6.3,15.1,13.9,15.1c3.2,0,217.4,0,220.6,0h0c2.5,0,4.8-0.8,6.8-2c1.1-0.7,2.1-1.5,3-2.4c1.3-1.4,2.3-3,3-4.8
		c0.7-1.8,1.1-3.8,1.1-5.9v-50.2c0-2.6-2.1-4.8-4.8-4.8c-2.6,0-4.8,2.1-4.8,4.8v50.2c0,3-2,5.5-4.4,5.5h-30h-30.6h-44.9V243.9
		l24.9,49c2.2,4.3,6.4,7,10.9,7h9h30.6h34.4v44.5c0,2.6,2.1,4.8,4.8,4.8c2.6,0,4.8-2.1,4.8-4.8v-44.5h24c3.1,0,5.9-1.6,7.6-4.3
		c1.8-2.9,1.9-6.7,0.4-9.7L372.3,227.6z M97.8,290.3c0-0.1,0-0.1,0-0.2l29.5-58.1c1-2,2.8-3.3,4.8-3.3h105.6
		c-3.6,7.2-25.5,50.2-30.4,59.9v0c-0.5,1.1-1.5,1.7-2.4,1.7C202.3,290.3,100.7,290.3,97.8,290.3z M240.8,422.3h-46.2h-30.6h-28.7
		c-2.4,0-4.4-2.5-4.4-5.5V299.8h33h30.6H205c4.6,0,8.7-2.7,10.9-7l24.9-49V422.3z"/>
	<path class="st4" d="M270.9,135.6c-1.7,1.7-1.7,4.5,0,6.2c0.9,0.9,2,1.3,3.1,1.3s2.2-0.4,3.1-1.3l26.8-26.8c1.7-1.7,1.7-4.5,0-6.2
		c-1.7-1.7-4.5-1.7-6.2,0L270.9,135.6z"/>
	<path class="st1" d="M260,29.4c0.5,0,1-0.1,1.5-0.3l34.1-12.2c2.3-0.8,3.5-3.3,2.6-5.6c-0.8-2.3-3.3-3.5-5.6-2.6l-34.1,12.2
		c-2.3,0.8-3.5,3.3-2.6,5.6C256.6,28.3,258.2,29.4,260,29.4z"/>
	<path class="st1" d="M223.4,213.2c0.8,1.2,2.2,1.9,3.6,1.9c0.8,0,1.7-0.2,2.5-0.8c2-1.4,2.5-4.1,1.2-6.1l-20.4-30
		c-1.4-2-4.1-2.5-6.1-1.2c-2,1.4-2.5,4.1-1.2,6.1L223.4,213.2z"/>
	<path class="st1" d="M346.9,46.6c0.9,0,1.7-0.3,2.5-0.8l31.7-21.9c2-1.4,2.5-4.1,1.1-6.1c-1.4-2-4.1-2.5-6.1-1.1l-31.7,21.9
		c-2,1.4-2.5,4.1-1.1,6.1C344.2,45.9,345.5,46.6,346.9,46.6z"/>
	<path class="st4" d="M91.3,180.8c1.3,0,2.6-0.6,3.5-1.8l14.6-19.5c1.5-1.9,1.1-4.7-0.9-6.1c-1.9-1.5-4.7-1.1-6.1,0.9l-14.6,19.5
		c-1.5,1.9-1.1,4.7,0.9,6.1C89.5,180.5,90.4,180.8,91.3,180.8z"/>
	<path class="st2" d="M208.3,50.3c10.5-5.2,14.8-17.9,9.7-28.4c-3.7-7.5-11.2-11.9-19.1-11.9c-3.1,0-6.3,0.7-9.3,2.2
		c-10.5,5.2-14.8,17.9-9.7,28.4C185.1,51.1,197.8,55.5,208.3,50.3z"/>
	<path class="st5" d="M199,61.2c4.4,0,8.9-1,13.2-3.1c14.8-7.3,21-25.3,13.7-40.1c-7.3-14.8-25.3-21-40.1-13.7
		c-14.8,7.3-21,25.3-13.7,40.1C177.3,55.1,187.9,61.2,199,61.2z M189.6,12.2c3-1.5,6.2-2.2,9.3-2.2c7.8,0,15.4,4.4,19.1,11.9
		c5.2,10.5,0.8,23.2-9.7,28.4c-10.5,5.1-23.2,0.8-28.4-9.7C174.8,30.1,179.1,17.4,189.6,12.2z"/>
	<path class="st2" d="M202.1,148.6c1.9-0.9,3.3-2.5,3.9-4.5c0.7-2,0.5-4.1-0.4-6c-1.4-2.8-4.1-4.4-7-4.4c-1.2,0-2.3,0.3-3.4,0.8
		c-3.9,1.9-5.5,6.6-3.6,10.4c0.9,1.9,2.5,3.3,4.5,3.9C198.2,149.7,200.3,149.6,202.1,148.6z"/>
	<path class="st6" d="M206,156.5c8.2-4,11.6-14,7.6-22.2c-4-8.2-14-11.6-22.2-7.6c-8.2,4-11.6,14-7.6,22.2c1.9,4,5.3,6.9,9.5,8.4
		c1.8,0.6,3.6,0.9,5.4,0.9C201.2,158.2,203.7,157.6,206,156.5z M191.7,145.1c-1.9-3.9-0.3-8.6,3.6-10.4c1.1-0.5,2.3-0.8,3.4-0.8
		c2.9,0,5.7,1.6,7,4.4c0.9,1.9,1.1,4,0.4,6c-0.7,2-2.1,3.6-3.9,4.5c-1.9,0.9-4,1.1-6,0.4C194.2,148.3,192.6,146.9,191.7,145.1z"/>
	<path class="st1" d="M200,70.3c-1.7,1.7-1.7,4.5,0,6.2l26.8,26.8c0.9,0.9,2,1.3,3.1,1.3c1.1,0,2.2-0.4,3.1-1.3
		c1.7-1.7,1.7-4.5,0-6.2l-26.8-26.8C204.5,68.6,201.7,68.6,200,70.3z"/>
	<path class="st6" d="M145.6,202.9l19.9,6.7c0.5,0.2,0.9,0.2,1.4,0.2c1.8,0,3.5-1.2,4.1-3c0.8-2.3-0.5-4.8-2.8-5.5l-19.9-6.7
		c-2.3-0.8-4.8,0.5-5.5,2.8C142,199.6,143.3,202.1,145.6,202.9z"/>
	<path class="st1" d="M307.5,62.6c2.4,0,4.4-2,4.4-4.4V22c0-2.4-2-4.4-4.4-4.4c-2.4,0-4.4,2-4.4,4.4v36.2
		C303.1,60.6,305.1,62.6,307.5,62.6z"/>
	<path class="st1" d="M249.9,145c0.3,0.1,0.6,0.1,0.9,0.1c2,0,3.9-1.4,4.3-3.5l7.2-35.5c0.5-2.4-1.1-4.7-3.4-5.2
		c-2.4-0.5-4.7,1.1-5.2,3.4l-7.2,35.5C246,142.2,247.5,144.5,249.9,145z"/>
	<path class="st1" d="M342.1,215.6c0.9,1.2,2.2,1.9,3.6,1.9c0.9,0,1.7-0.3,2.5-0.8c2-1.4,2.5-4.1,1.1-6.1L327.4,179
		c-1.4-2-4.1-2.5-6.1-1.1c-2,1.4-2.5,4.1-1.1,6.1L342.1,215.6z"/>
	<path class="st1" d="M366,112.5c0.8,1.2,2.2,1.9,3.6,1.9c0.8,0,1.7-0.2,2.5-0.8l30.2-20.6c2-1.4,2.5-4.1,1.2-6.1
		c-1.4-2-4.1-2.5-6.1-1.2l-30.2,20.6C365.2,107.8,364.6,110.6,366,112.5z"/>
	<path class="st4" d="M252,60.3c0.5,2,2.3,3.4,4.3,3.4c0.3,0,0.7,0,1-0.1c2.4-0.5,3.8-2.9,3.3-5.3l-5.5-23.7
		c-0.5-2.4-2.9-3.8-5.2-3.3c-2.4,0.5-3.8,2.9-3.3,5.3L252,60.3z"/>
	<path class="st1" d="M199,115.2c2.4,0,4.4-2,4.4-4.4c0-2.4-2-4.4-4.4-4.4H161c-2.4,0-4.4,2-4.4,4.4c0,2.4,2,4.4,4.4,4.4H199z"/>
	<path class="st1" d="M136.1,185.8c1.2,0,2.4-0.5,3.2-1.4l26.8-29.2c1.6-1.8,1.5-4.5-0.3-6.2c-1.8-1.6-4.5-1.5-6.2,0.3l-26.8,29.2
		c-1.6,1.8-1.5,4.5,0.3,6.2C134,185.5,135.1,185.8,136.1,185.8z"/>
	<path class="st1" d="M104.9,82.6c1.4,0,2.7-0.6,3.6-1.8l12.2-17.1c1.4-2,0.9-4.7-1-6.1c-2-1.4-4.7-1-6.1,1l-12.2,17.1
		c-1.4,2-0.9,4.7,1,6.1C103.2,82.4,104.1,82.6,104.9,82.6z"/>
	<path class="st1" d="M303.8,87.2c0.6,1.8,2.3,2.9,4.1,2.9c0.5,0,1-0.1,1.5-0.3l34.1-12.2c2.3-0.8,3.5-3.3,2.6-5.6
		c-0.8-2.3-3.3-3.5-5.6-2.6l-34.1,12.2C304.2,82.4,303,84.9,303.8,87.2z"/>
	<path class="st1" d="M281.5,157.9l-30,20.4c-2,1.4-2.5,4.1-1.2,6.1c0.8,1.2,2.2,1.9,3.6,1.9c0.8,0,1.7-0.2,2.5-0.8l30-20.4
		c2-1.4,2.5-4.1,1.2-6.1C286.2,157.1,283.5,156.5,281.5,157.9z"/>
	<path class="st1" d="M127.6,34.4c0.9,0.9,2,1.3,3.1,1.3c1.1,0,2.2-0.4,3.1-1.3c1.7-1.7,1.7-4.5,0-6.2l-11.7-11.7
		c-1.7-1.7-4.5-1.7-6.2,0s-1.7,4.5,0,6.2L127.6,34.4z"/>
	<path class="st1" d="M343.6,139.2c1.8,0,3.5-1.2,4.1-3c0.8-2.3-0.5-4.8-2.8-5.5l-34.7-11.6c-2.3-0.8-4.8,0.5-5.5,2.8
		c-0.8,2.3,0.5,4.8,2.8,5.5l34.7,11.6C342.6,139.2,343.1,139.2,343.6,139.2z"/>
	<path class="st2" d="M383.6,210.5c4.7,0,8.5-3.8,8.5-8.5s-3.8-8.5-8.5-8.5c-4.7,0-8.5,3.8-8.5,8.5S379,210.5,383.6,210.5z"/>
	<path class="st5" d="M383.6,219.2c9.5,0,17.2-7.7,17.2-17.2c0-9.5-7.7-17.2-17.2-17.2c-9.5,0-17.2,7.7-17.2,17.2
		C366.4,211.5,374.2,219.2,383.6,219.2z M383.6,193.6c4.7,0,8.5,3.8,8.5,8.5s-3.8,8.5-8.5,8.5c-4.7,0-8.5-3.8-8.5-8.5
		S379,193.6,383.6,193.6z"/>
	<path class="st2" d="M362.4,63.2c0,4.7,3.8,8.5,8.5,8.5c4.7,0,8.5-3.8,8.5-8.5s-3.8-8.5-8.5-8.5C366.2,54.8,362.4,58.6,362.4,63.2z
		"/>
	<path class="st5" d="M353.6,63.2c0,9.5,7.7,17.2,17.2,17.2c9.5,0,17.2-7.7,17.2-17.2c0-9.5-7.7-17.2-17.2-17.2
		C361.3,46,353.6,53.7,353.6,63.2z M379.3,63.2c0,4.7-3.8,8.5-8.5,8.5c-4.7,0-8.5-3.8-8.5-8.5s3.8-8.5,8.5-8.5
		C375.5,54.8,379.3,58.6,379.3,63.2z"/>
	<polygon class="st7" points="126,130 127.2,145.4 135.3,132.3 150.3,136 140.3,124.2 148.4,111.1 134.2,116.9 124.2,105.1 
		125.3,120.5 111,126.3 	"/>
	<polygon class="st7" points="143.9,78.7 152.5,72.3 161.3,78.4 157.8,68.3 166.4,61.9 155.7,62 152.2,51.9 149,62.1 138.3,62.3 
		147.1,68.5 	"/>
	<polygon class="st7" points="276.2,229.2 276.5,228.7 282.5,219.1 284.3,216.1 296.8,219.1 299.3,219.8 298.8,219.1 289.4,208 
		297.5,194.9 283.2,200.7 273.2,188.9 274.4,204.3 260.1,210.2 275.1,213.8 275.5,219.1 276.2,228.7 	"/>
	<polygon class="st7" points="184,208.1 186.7,198.7 196.5,198.4 188.4,192.9 191.1,183.5 183.3,189.5 175.2,184 178.6,193.2 
		170.8,199.3 180.6,198.9 	"/>
	<polygon class="st7" points="272.5,80.8 275.9,90 278.6,80.6 288.4,80.2 280.3,74.7 283,65.3 275.2,71.3 267.1,65.9 270.5,75.1 
		262.7,81.1 	"/>
	<polygon class="st7" points="360,163.9 363.4,173.1 366.1,163.7 375.9,163.4 367.8,157.9 370.5,148.5 362.8,154.5 354.6,149 
		358,158.2 350.2,164.2 	"/>
</g>
</svg>
