<?xml version="1.0" encoding="utf-8"?>
<!-- Generator: Adobe Illustrator 21.1.0, SVG Export Plug-In . SVG Version: 6.00 Build 0)  -->
<svg version="1.1" id="Layer_1" xmlns="http://www.w3.org/2000/svg" xmlns:xlink="http://www.w3.org/1999/xlink" x="0px" y="0px"
	 viewBox="0 0 466.3 173" style="enable-background:new 0 0 466.3 173;" xml:space="preserve">
<style type="text/css">
	.st0{fill:none;}
	.st1{fill:#9057BF;}
	.st2{fill:#FDD550;}
	.st3{fill:#0091be;}
	.st4{fill:#00BEA4;}
</style>
<g>
	<polygon class="st0" points="437.3,23.2 436.3,31.7 452.3,32.4 451.3,68.4 464.1,24.6 	"/>
	<polygon class="st0" points="271.2,15.1 2.1,1.8 20.7,82.7 17,12.5 265.9,23.9 265.5,15.3 	"/>
	<polygon class="st0" points="426.3,154.2 428,148.4 38.5,160.4 41,171.3 	"/>
	<polygon class="st1" points="426.3,154.2 41,171.3 38.5,160.4 36.8,160.4 39.7,173 427,155.9 427.6,155.8 429.7,148.4 428,148.4 	
		"/>
	<polygon class="st1" points="464.1,24.6 451.3,68.4 451.1,75 466.3,23 437.5,21.6 437.3,23.2 	"/>
	<polygon class="st1" points="2.1,1.8 271.2,15.1 288.5,14.2 1.1,0.1 0,0 21.2,92.3 20.7,82.7 	"/>
	<path class="st2" d="M98.1,68.5c-1.7,0.1-3,0.7-3.7,2c-0.8,1.3-1.1,2.9-1,4.8c0.1,1.5,0.4,2.8,1.1,3.7c0.7,0.9,1.6,1.4,2.7,1.3
		c1.4,0,2.6-0.6,3.6-1.5c1-1,1.7-2.1,2.1-3.5l-0.2-7L98.1,68.5z"/>
	<path class="st2" d="M197.5,126.2c-1.2,0-2.1,0.5-2.6,1.4c-0.5,0.9-0.8,2-0.7,3.3c0,1.1,0.3,1.9,0.8,2.6s1.1,1,1.9,0.9
		c1,0,1.8-0.4,2.5-1.1c0.7-0.7,1.2-1.5,1.5-2.4l-0.2-4.9L197.5,126.2z"/>
	<path class="st2" d="M84.2,124.6c-0.1-1.9-0.4-3.3-0.9-4.4s-1.3-1.5-2.4-1.5c-1.2,0-2.1,0.7-2.6,1.9c-0.5,1.2-0.9,2.9-0.9,4.9
		l6.9-0.2L84.2,124.6z"/>
	<path class="st2" d="M142.2,126.5c-0.1-3.1-0.5-5.5-1.1-7.2c-0.6-1.7-1.7-2.5-3.2-2.5c-0.8,0-1.6,0.3-2.1,0.8
		c-0.6,0.5-1,1.2-1.4,2.1l0.5,14.4c0.4,0.8,0.9,1.3,1.5,1.7c0.6,0.4,1.4,0.5,2.2,0.5c1.5-0.1,2.5-0.9,3-2.4s0.7-3.8,0.6-6.7
		L142.2,126.5z"/>
	<path class="st2" d="M175.3,116.2c-0.6-0.5-1.3-0.7-2.1-0.7c-1.4,0-2.4,1-3,2.8c-0.6,1.8-0.8,4.2-0.7,7.2l0,0.6
		c0.1,2.8,0.5,5,1.2,6.6c0.7,1.6,1.7,2.3,3.1,2.3c0.8,0,1.5-0.3,2.1-0.7c0.6-0.4,1.1-1.1,1.4-1.9l-0.5-14.2
		C176.5,117.4,176,116.7,175.3,116.2z"/>
	<path class="st2" d="M54.4,109.6l-3.9,0.1l0.4,12.3l3.9-0.1c1.6-0.1,2.7-0.6,3.5-1.7s1.1-2.6,1.1-4.5c-0.1-1.9-0.5-3.5-1.4-4.6
		C57.1,110,55.9,109.5,54.4,109.6z"/>
	<path class="st2" d="M178.2,67.6c-0.8,1.3-1.1,2.9-1,4.8c0.1,1.5,0.4,2.8,1.1,3.7c0.7,0.9,1.6,1.4,2.7,1.3c1.4,0,2.6-0.6,3.6-1.5
		c1-1,1.7-2.1,2.1-3.5l-0.2-7l-4.5,0.2C180.2,65.6,178.9,66.3,178.2,67.6z"/>
	<path class="st2" d="M451.1,75l0.2-6.6l1-35.9l-16-0.7L425.8,124l-155.4-7.5l-4.5-92.6L17,12.5l3.6,70.1l0.5,9.7l3.6,68.5l12.1-0.4
		l1.7-0.1L428,148.4l1.8-0.1l19.4-0.6L451.1,75z M186.1,55.1c-0.1-2.2-0.5-3.9-1.3-5.1c-0.8-1.2-1.9-1.7-3.3-1.7
		c-1.3,0-2.2,0.6-2.9,1.5c-0.6,1-0.9,2.4-0.8,4.1l-10,0.3l-0.1-0.2c-0.3-3.8,0.9-7.1,3.5-9.9c2.6-2.8,6.2-4.2,10.6-4.4
		c4.2-0.1,7.6,1.1,10.3,3.7c2.7,2.6,4.1,6.4,4.3,11.4l0.6,18.2c0.1,2.1,0.3,4,0.6,5.9c0.3,1.9,0.8,3.7,1.4,5.5l-10.3,0.4
		c-0.4-1-0.8-2-1.1-3.2c-0.3-1.1-0.5-2.3-0.7-3.5c-0.8,2.2-1.9,4.1-3.3,5.6c-1.4,1.5-3.1,2.2-5.2,2.3c-3.6,0.1-6.5-1-8.5-3.3
		c-2-2.3-3.1-5.5-3.3-9.6c-0.2-4.3,1-7.7,3.5-10.2c2.5-2.5,6.3-3.8,11.4-4l4.5-0.2L186.1,55.1z M128.9,42.5l0.6,6.3
		c0.7-2.3,1.6-4,2.7-5.3c1.1-1.3,2.5-2,4-2c0.5,0,0.9,0,1.3,0.1c0.4,0.1,0.8,0.2,1.2,0.3l-0.7,10.4l-3.5,0c-1.2,0-2.1,0.4-2.9,1.1
		c-0.7,0.7-1.3,1.7-1.7,2.9l1.1,30.6l-10.3,0.4l-1.6-44.4L128.9,42.5z M41.4,51.3c-0.2-7,1.2-12.4,4.3-16.3s7.5-6,13.1-6.2
		c5.9-0.2,10.4,1.2,13.7,4.3c3.3,3.1,4.9,7.8,5.1,14.2l-0.1,0.2l-10.1,0.4c-0.1-3.8-0.8-6.5-2.1-8s-3.3-2.2-6.2-2.1
		c-2.6,0.1-4.5,1.2-5.7,3.3c-1.2,2.1-1.8,5.4-1.6,9.7l0.6,17.8c0.2,4.4,1,7.5,2.4,9.6s3.6,3,6.4,2.9c2.6-0.1,4.4-0.9,5.5-2.5
		c1.1-1.6,1.5-4.3,1.4-8.2l10-0.4l0.1,0.2c0.3,6.4-1,11.2-3.9,14.5c-2.9,3.3-7.2,5-12.8,5.2c-5.8,0.2-10.4-1.5-13.9-5.2
		c-3.5-3.7-5.4-9-5.6-16L41.4,51.3z M62,144.6c-0.6-0.6-1-1.6-1.2-2.9c-0.2-1.4-0.3-2.7-0.4-4.1l-0.1-2.9c-0.1-2.1-0.5-3.7-1.4-4.9
		s-2-1.7-3.4-1.6l-4.4,0.2l0.6,16.7l-7.2,0.3L43,103.7l11.2-0.4c3.7-0.1,6.7,0.8,8.9,2.9c2.2,2.1,3.4,5,3.5,8.9
		c0.1,2.2-0.3,4-1.1,5.6c-0.8,1.6-2.1,2.9-3.7,3.9c2,0.7,3.4,1.8,4.3,3.5c0.9,1.6,1.4,3.7,1.5,6.2l0.1,3c0,1.2,0.2,2.4,0.5,3.6
		s0.7,2.2,1.4,2.8l0,0.6L62,144.6z M87.6,143.3c-1.7,0.7-3.5,1.2-5.4,1.2c-3.7,0.1-6.5-1.2-8.7-3.9c-2.1-2.7-3.2-6.3-3.4-10.8l0-1.2
		c-0.2-4.7,0.7-8.5,2.5-11.5c1.8-3,4.5-4.6,8-4.7c3.3-0.1,5.8,1,7.6,3.5c1.8,2.4,2.8,5.8,3,10.1l0.2,4.4l-14,0.5
		c0.2,2.3,0.7,4.1,1.6,5.4c0.9,1.3,2.1,2,3.8,1.9c1.4,0,2.6-0.3,3.6-0.7c1-0.4,2-1,3.1-1.9l2,5C90.6,141.7,89.3,142.6,87.6,143.3z
		 M111.5,140.4c-1.8,2.1-4.1,3.2-6.9,3.3c-3.6,0.1-6.5-1.2-8.5-4.1c-2-2.8-3.1-6.6-3.3-11.2l0-0.8c-0.2-4.6,0.7-8.4,2.5-11.3
		c1.8-3,4.6-4.6,8.2-4.7c3-0.1,5.4,0.9,7.3,3c1.9,2.1,2.8,4.9,2.9,8.6l0,0.1l-6.6,0.2c-0.1-1.7-0.4-3.1-0.9-4.1s-1.4-1.5-2.4-1.5
		c-1.5,0.1-2.5,0.9-3,2.7c-0.5,1.7-0.7,4-0.6,6.8l0,0.8c0.1,2.9,0.5,5.1,1.1,6.8c0.6,1.7,1.7,2.5,3.2,2.4c1,0,1.8-0.5,2.3-1.4
		s0.7-2.1,0.7-3.7l6.5-0.2l0.1,0.2C114,135.6,113.2,138.3,111.5,140.4z M105,87.8c-0.4-1-0.8-2-1.1-3.2c-0.3-1.1-0.5-2.3-0.7-3.5
		c-0.8,2.2-1.9,4.1-3.3,5.6c-1.4,1.5-3.1,2.2-5.2,2.3c-3.6,0.1-6.5-1-8.5-3.3c-2-2.3-3.1-5.5-3.3-9.6c-0.2-4.3,1-7.7,3.5-10.2
		s6.3-3.8,11.4-4l4.5-0.2l-0.1-3.7c-0.1-2.2-0.5-3.9-1.3-5.1s-1.9-1.7-3.3-1.7c-1.3,0-2.2,0.6-2.9,1.5c-0.6,1-0.9,2.4-0.8,4.1
		l-10,0.3l-0.1-0.2c-0.3-3.8,0.9-7.1,3.5-9.9c2.6-2.8,6.2-4.2,10.6-4.4c4.2-0.1,7.6,1.1,10.3,3.7c2.7,2.6,4.1,6.4,4.3,11.4l0.6,18.2
		c0.1,2.1,0.3,4,0.6,5.9c0.3,1.9,0.8,3.7,1.4,5.5L105,87.8z M115.4,98.1l7.2-0.3l0.2,6.1l-7.2,0.3L115.4,98.1z M116.9,142.7
		l-1.1-30.9l7.2-0.3l1.1,30.9L116.9,142.7z M147.5,138.1c-1.5,2.8-3.7,4.3-6.8,4.4c-1.3,0-2.5-0.3-3.5-0.9c-1-0.7-1.9-1.6-2.6-2.9
		l-0.4,3.5l-6.2,0.2l-1.6-44.6l7.2-0.3l0.6,16.4c0.6-1.1,1.4-1.9,2.3-2.5c0.9-0.6,1.9-0.9,3.1-1c3.1-0.1,5.4,1.3,7.1,4.2
		c1.7,2.9,2.6,6.8,2.8,11.7l0,0.6C149.6,131.5,149,135.3,147.5,138.1z M151.3,96.9l7.2-0.3l0.2,6.1l-7.2,0.3L151.3,96.9z
		 M152.9,141.4l-1.1-30.9l7.2-0.3l1.1,30.9L152.9,141.4z M157.5,86.9c-3.4,0.1-6-0.9-7.9-3.2c-1.9-2.2-2.9-5.8-3.1-10.8l-0.8-22.7
		l-4.8,0.2l-0.3-8.3l4.8-0.2l-0.4-11l10.4-0.4l0.4,11l5.4-0.2l0.3,8.3l-5.4,0.2l0.8,22.6c0.1,1.9,0.4,3.2,0.9,4
		c0.5,0.8,1.2,1.1,2.1,1.1c0.5,0,0.9-0.1,1.2-0.1c0.3-0.1,0.7-0.2,1.2-0.4l1.1,8.5c-1,0.4-1.9,0.7-2.8,0.9
		C159.6,86.7,158.6,86.8,157.5,86.9z M178.8,140.5l-0.7-3.5c-0.7,1.4-1.5,2.4-2.5,3.1c-1,0.7-2.1,1.1-3.3,1.2
		c-2.9,0.1-5.3-1.2-7-3.9s-2.7-6.4-2.8-11l0-0.6c-0.2-4.9,0.5-8.8,2-11.8s3.8-4.6,6.7-4.7c1.1,0,2.1,0.2,3,0.8
		c0.9,0.6,1.7,1.4,2.5,2.4L176.1,96l7.2-0.3l1.6,44.6L178.8,140.5z M202.3,139.7c-0.3-0.7-0.5-1.4-0.8-2.2c-0.2-0.8-0.4-1.6-0.5-2.4
		c-0.6,1.6-1.3,2.9-2.3,3.9c-1,1-2.2,1.6-3.6,1.6c-2.5,0.1-4.5-0.7-5.9-2.3c-1.4-1.6-2.2-3.8-2.3-6.7c-0.1-3,0.7-5.4,2.4-7.1
		s4.4-2.7,7.9-2.8l3.2-0.1l-0.1-2.6c-0.1-1.5-0.4-2.7-0.9-3.5c-0.5-0.8-1.3-1.2-2.3-1.2c-0.9,0-1.6,0.4-2,1.1
		c-0.4,0.7-0.6,1.6-0.6,2.9l-7,0.2l-0.1-0.2c-0.2-2.7,0.6-5,2.5-6.9c1.8-1.9,4.3-3,7.4-3.1c2.9-0.1,5.3,0.7,7.2,2.5
		c1.9,1.8,2.9,4.4,3,7.9l0.4,12.7c0.1,1.4,0.2,2.8,0.4,4.1s0.6,2.6,1,3.9L202.3,139.7z M228.1,136.9c-1.8,1.7-4.3,2.7-7.4,2.8
		c-3.2,0.1-5.8-0.8-7.8-2.8c-2-2-2.9-4.3-2.9-6.9l0.1-0.2l6.6-0.2c0.1,1.7,0.5,2.9,1.2,3.6s1.7,1,2.9,1c1,0,1.8-0.3,2.3-0.9
		s0.8-1.3,0.7-2.3c0-0.9-0.4-1.7-1-2.3c-0.7-0.6-1.9-1.4-3.7-2.2c-2.9-1.1-5-2.3-6.5-3.7s-2.2-3.3-2.3-5.6c-0.1-2.5,0.7-4.7,2.5-6.5
		c1.7-1.8,4.1-2.8,7.1-2.9c3.1-0.1,5.6,0.7,7.5,2.5c1.9,1.8,2.9,4.1,2.9,6.9l0,0.2l-7,0.2c0-1.3-0.3-2.3-0.9-3.1
		c-0.5-0.8-1.3-1.1-2.4-1.1c-0.8,0-1.5,0.4-2.1,1s-0.8,1.4-0.8,2.3c0,0.9,0.3,1.6,0.9,2.2c0.6,0.5,1.8,1.3,3.8,2.2
		c3,1,5.2,2.3,6.7,3.7s2.3,3.4,2.3,5.8C230.8,132.9,229.9,135.1,228.1,136.9z M228.1,80.8c-2.6,2.5-6.2,3.8-10.6,4
		c-4.6,0.2-8.4-1.2-11.2-4c-2.8-2.9-4.2-6.2-4.2-9.9l0.1-0.3l9.4-0.3c0.1,2.4,0.7,4.1,1.7,5.1c1,1,2.4,1.5,4.1,1.4
		c1.5-0.1,2.6-0.5,3.3-1.3s1.1-1.9,1-3.3c0-1.3-0.5-2.4-1.5-3.3c-0.9-0.9-2.7-2-5.4-3.2c-4.1-1.6-7.2-3.3-9.3-5.4
		c-2.1-2-3.2-4.7-3.3-8c-0.1-3.6,1.1-6.7,3.6-9.4c2.5-2.6,5.9-4,10.2-4.2c4.5-0.2,8.1,1,10.8,3.6c2.8,2.5,4.1,5.8,4.2,9.9l-0.1,0.2
		l-10,0.4c-0.1-1.9-0.5-3.3-1.3-4.5c-0.8-1.1-1.9-1.6-3.4-1.6c-1.2,0-2.2,0.5-3,1.4c-0.8,0.9-1.2,2-1.1,3.2c0,1.3,0.5,2.4,1.3,3.1
		c0.8,0.8,2.6,1.8,5.4,3.2c4.3,1.5,7.4,3.3,9.6,5.4c2.1,2.1,3.2,4.9,3.4,8.4C232,75.1,230.8,78.3,228.1,80.8z"/>
	<polygon class="st3" points="265.5,15.3 265.9,23.9 270.4,116.5 425.8,124 436.3,31.7 437.3,23.2 437.5,21.6 439.1,7.1 288.5,14.2 
		271.2,15.1 	"/>
	<path class="st4" d="M61.6,90.2c5.6-0.2,9.9-1.9,12.8-5.2c2.9-3.3,4.2-8.1,3.9-14.5l-0.1-0.2l-10,0.4c0.1,3.9-0.3,6.6-1.4,8.2
		c-1.1,1.6-2.9,2.4-5.5,2.5c-2.8,0.1-5-0.9-6.4-2.9s-2.3-5.2-2.4-9.6l-0.6-17.8c-0.2-4.3,0.4-7.6,1.6-9.7c1.2-2.1,3.1-3.3,5.7-3.3
		c2.8-0.1,4.9,0.6,6.2,2.1s2,4.1,2.1,8l10.1-0.4l0.1-0.2c-0.1-6.4-1.8-11.2-5.1-14.2c-3.3-3.1-7.8-4.5-13.7-4.3
		C53.2,29,48.9,31,45.7,35s-4.6,9.4-4.3,16.3L42,69.1c0.2,7,2.1,12.3,5.6,16C51.2,88.7,55.8,90.4,61.6,90.2z"/>
	<path class="st4" d="M113.3,76l-0.6-18.2c-0.2-5-1.6-8.8-4.3-11.4c-2.7-2.6-6.1-3.8-10.3-3.7c-4.5,0.2-8,1.6-10.6,4.4
		c-2.6,2.8-3.8,6.1-3.5,9.9l0.1,0.2l10-0.3c-0.1-1.8,0.2-3.2,0.8-4.1c0.6-1,1.6-1.5,2.9-1.5c1.4-0.1,2.6,0.5,3.3,1.7
		s1.2,2.9,1.3,5.1l0.1,3.7L97.9,62c-5.1,0.2-8.9,1.5-11.4,4s-3.6,5.9-3.5,10.2c0.1,4.1,1.2,7.3,3.3,9.6c2,2.3,4.9,3.4,8.5,3.3
		c2.1-0.1,3.8-0.8,5.2-2.3c1.4-1.5,2.5-3.3,3.3-5.6c0.2,1.2,0.4,2.4,0.7,3.5c0.3,1.1,0.7,2.2,1.1,3.2l10.3-0.4
		c-0.6-1.8-1.1-3.7-1.4-5.5C113.6,80.1,113.4,78.1,113.3,76z M100.8,78.8c-1,1-2.3,1.5-3.6,1.5c-1.1,0-2-0.4-2.7-1.3
		c-0.7-0.9-1.1-2.2-1.1-3.7c-0.1-1.9,0.3-3.5,1-4.8c0.8-1.3,2-2,3.7-2l4.5-0.2l0.2,7C102.5,76.7,101.8,77.9,100.8,78.8z"/>
	<path class="st4" d="M131.1,86.9L130,56.3c0.4-1.2,0.9-2.2,1.7-2.9c0.7-0.7,1.7-1.1,2.9-1.1l3.5,0l0.7-10.4
		c-0.4-0.1-0.8-0.2-1.2-0.3c-0.4-0.1-0.8-0.1-1.3-0.1c-1.5,0.1-2.9,0.7-4,2c-1.1,1.3-2.1,3.1-2.7,5.3l-0.6-6.3l-9.7,0.3l1.6,44.4
		L131.1,86.9z"/>
	<path class="st4" d="M162.2,77c-0.5,0.2-0.8,0.3-1.2,0.4c-0.3,0.1-0.7,0.1-1.2,0.1c-0.9,0-1.5-0.3-2.1-1.1c-0.5-0.8-0.8-2.1-0.9-4
		l-0.8-22.6l5.4-0.2l-0.3-8.3l-5.4,0.2l-0.4-11L145,30.9l0.4,11l-4.8,0.2l0.3,8.3l4.8-0.2l0.8,22.7c0.2,5,1.2,8.5,3.1,10.8
		c1.9,2.2,4.5,3.3,7.9,3.2c1.1,0,2.1-0.2,3-0.4c0.9-0.2,1.8-0.5,2.8-0.9L162.2,77z"/>
	<path class="st4" d="M170.3,63c-2.5,2.5-3.6,5.9-3.5,10.2c0.1,4.1,1.2,7.3,3.3,9.6c2,2.3,4.9,3.4,8.5,3.3c2.1-0.1,3.8-0.8,5.2-2.3
		c1.4-1.5,2.5-3.3,3.3-5.6c0.2,1.2,0.4,2.4,0.7,3.5c0.3,1.1,0.7,2.2,1.1,3.2l10.3-0.4c-0.6-1.8-1.1-3.7-1.4-5.5
		c-0.3-1.9-0.5-3.8-0.6-5.9l-0.6-18.2c-0.2-5-1.6-8.8-4.3-11.4c-2.7-2.6-6.1-3.8-10.3-3.7c-4.5,0.2-8,1.6-10.6,4.4
		c-2.6,2.8-3.8,6.1-3.5,9.9l0.1,0.2l10-0.3c-0.1-1.8,0.2-3.2,0.8-4.1c0.6-1,1.6-1.5,2.9-1.5c1.4-0.1,2.6,0.5,3.3,1.7
		c0.8,1.2,1.2,2.9,1.3,5.1l0.1,3.7l-4.5,0.2C176.6,59.2,172.8,60.5,170.3,63z M186.4,65.4l0.2,7c-0.3,1.4-1,2.5-2.1,3.5
		c-1,1-2.3,1.5-3.6,1.5c-1.1,0-2-0.4-2.7-1.3c-0.7-0.9-1.1-2.2-1.1-3.7c-0.1-1.9,0.3-3.5,1-4.8c0.8-1.3,2-2,3.7-2L186.4,65.4z"/>
	<path class="st4" d="M218.9,57.6c-2.8-1.3-4.6-2.4-5.4-3.2c-0.8-0.8-1.3-1.8-1.3-3.1c0-1.3,0.3-2.3,1.1-3.2c0.8-0.9,1.8-1.4,3-1.4
		c1.5-0.1,2.6,0.5,3.4,1.6c0.8,1.1,1.2,2.6,1.3,4.5l10-0.4l0.1-0.2c0-4-1.4-7.3-4.2-9.9c-2.8-2.5-6.4-3.7-10.8-3.6
		c-4.3,0.1-7.7,1.5-10.2,4.2c-2.5,2.6-3.7,5.8-3.6,9.4c0.1,3.3,1.2,6,3.3,8c2.1,2,5.2,3.8,9.3,5.4c2.6,1.2,4.4,2.3,5.4,3.2
		c0.9,0.9,1.4,2,1.5,3.3c0,1.4-0.3,2.5-1,3.3s-1.9,1.3-3.3,1.3c-1.7,0.1-3.1-0.4-4.1-1.4c-1-1-1.6-2.7-1.7-5.1l-9.4,0.3l-0.1,0.3
		c0,3.8,1.4,7.1,4.2,9.9c2.8,2.9,6.5,4.2,11.2,4c4.4-0.2,8-1.5,10.6-4c2.6-2.5,3.9-5.6,3.7-9.4c-0.1-3.5-1.2-6.3-3.4-8.4
		C226.4,60.9,223.2,59.1,218.9,57.6z"/>
	<path class="st4" d="M68,141c-0.3-1.3-0.4-2.5-0.5-3.6l-0.1-3c-0.1-2.5-0.6-4.6-1.5-6.2c-0.9-1.6-2.4-2.8-4.3-3.5
		c1.7-1,2.9-2.3,3.7-3.9c0.8-1.6,1.2-3.5,1.1-5.6c-0.1-3.8-1.3-6.8-3.5-8.9c-2.2-2.1-5.2-3-8.9-2.9L43,103.7l1.5,41.6l7.2-0.3
		l-0.6-16.7l4.4-0.2c1.5-0.1,2.6,0.5,3.4,1.6s1.3,2.8,1.4,4.9l0.1,2.9c0,1.4,0.2,2.7,0.4,4.1c0.2,1.4,0.6,2.4,1.2,2.9l7.5-0.3l0-0.6
		C68.8,143.2,68.3,142.3,68,141z M58.2,120.2c-0.8,1.1-1.9,1.6-3.5,1.7l-3.9,0.1l-0.4-12.3l3.9-0.1c1.5-0.1,2.7,0.5,3.6,1.6
		c0.8,1.1,1.3,2.6,1.4,4.6C59.4,117.6,59,119.1,58.2,120.2z"/>
	<path class="st4" d="M86.4,137.5c-1,0.4-2.1,0.6-3.6,0.7c-1.7,0.1-3-0.6-3.8-1.9c-0.9-1.3-1.4-3.1-1.6-5.4l14-0.5l-0.2-4.4
		c-0.2-4.3-1.1-7.6-3-10.1c-1.8-2.4-4.4-3.6-7.6-3.5c-3.5,0.1-6.2,1.7-8,4.7c-1.8,3-2.7,6.8-2.5,11.5l0,1.2c0.2,4.4,1.3,8,3.4,10.8
		c2.1,2.7,5,4.1,8.7,3.9c1.9-0.1,3.7-0.5,5.4-1.2c1.7-0.7,3-1.6,3.9-2.7l-2-5C88.4,136.5,87.4,137.1,86.4,137.5z M78.3,120.6
		c0.5-1.2,1.4-1.8,2.6-1.9c1.1,0,1.9,0.5,2.4,1.5s0.8,2.5,0.9,4.4l0,0.7l-6.9,0.2C77.4,123.5,77.7,121.9,78.3,120.6z"/>
	<path class="st4" d="M113.8,132.2l-6.5,0.2c0.1,1.6-0.2,2.8-0.7,3.7s-1.3,1.3-2.3,1.4c-1.5,0.1-2.6-0.7-3.2-2.4
		c-0.6-1.7-1-3.9-1.1-6.8l0-0.8c-0.1-2.8,0.1-5.1,0.6-6.8c0.5-1.7,1.5-2.6,3-2.7c1,0,1.8,0.5,2.4,1.5s0.9,2.4,0.9,4.1l6.6-0.2l0-0.1
		c-0.1-3.6-1-6.5-2.9-8.6c-1.9-2.1-4.3-3.1-7.3-3c-3.6,0.1-6.3,1.7-8.2,4.7c-1.8,3-2.7,6.8-2.5,11.3l0,0.8c0.2,4.6,1.3,8.3,3.3,11.2
		c2,2.8,4.9,4.2,8.5,4.1c2.8-0.1,5.1-1.2,6.9-3.3c1.8-2.1,2.6-4.8,2.4-8L113.8,132.2z"/>
	
		<rect x="115.5" y="98" transform="matrix(0.9994 -3.511821e-02 3.511821e-02 0.9994 -3.4759 4.2442)" class="st4" width="7.2" height="6.1"/>
	
		<rect x="116.4" y="111.6" transform="matrix(0.9994 -3.516681e-02 3.516681e-02 0.9994 -4.3958 4.2985)" class="st4" width="7.2" height="30.9"/>
	<path class="st4" d="M149.5,126.2c-0.2-4.9-1.1-8.8-2.8-11.7c-1.7-2.9-4.1-4.3-7.1-4.2c-1.2,0-2.2,0.4-3.1,1
		c-0.9,0.6-1.6,1.5-2.3,2.5l-0.6-16.4l-7.2,0.3l1.6,44.6l6.2-0.2l0.4-3.5c0.7,1.3,1.6,2.3,2.6,2.9c1,0.7,2.2,1,3.5,0.9
		c3-0.1,5.3-1.6,6.8-4.4c1.5-2.8,2.1-6.6,2-11.2L149.5,126.2z M141.7,133.8c-0.5,1.5-1.5,2.3-3,2.4c-0.9,0-1.6-0.1-2.2-0.5
		c-0.6-0.4-1.1-0.9-1.5-1.7l-0.5-14.4c0.3-0.9,0.8-1.6,1.4-2.1c0.6-0.5,1.3-0.8,2.1-0.8c1.5-0.1,2.6,0.8,3.2,2.5
		c0.6,1.7,1,4.1,1.1,7.2l0,0.6C142.4,130,142.2,132.3,141.7,133.8z"/>
	
		<rect x="152.3" y="110.4" transform="matrix(0.9994 -3.516792e-02 3.516792e-02 0.9994 -4.3293 5.5618)" class="st4" width="7.2" height="30.9"/>
	
		<rect x="151.4" y="96.7" transform="matrix(0.9994 -3.511821e-02 3.511821e-02 0.9994 -3.4093 5.5056)" class="st4" width="7.2" height="6.1"/>
	<path class="st4" d="M176.1,96l0.6,16.5c-0.7-1.1-1.6-1.9-2.5-2.4c-0.9-0.6-1.9-0.8-3-0.8c-3,0.1-5.2,1.7-6.7,4.7s-2.2,7-2,11.8
		l0,0.6c0.2,4.6,1.1,8.3,2.8,11s4.1,4,7,3.9c1.3,0,2.4-0.4,3.3-1.2c1-0.7,1.8-1.8,2.5-3.1l0.7,3.5l6.2-0.2l-1.6-44.6L176.1,96z
		 M176,134.3c-0.6,0.4-1.3,0.7-2.1,0.7c-1.4,0-2.5-0.7-3.1-2.3c-0.7-1.6-1.1-3.8-1.2-6.6l0-0.6c-0.1-3,0.1-5.3,0.7-7.2
		c0.6-1.8,1.6-2.8,3-2.8c0.8,0,1.4,0.2,2.1,0.7c0.6,0.5,1.2,1.1,1.6,2l0.5,14.2C177.1,133.2,176.6,133.8,176,134.3z"/>
	<path class="st4" d="M208,131.5l-0.4-12.7c-0.1-3.5-1.1-6.1-3-7.9c-1.9-1.8-4.3-2.7-7.2-2.5c-3.1,0.1-5.6,1.1-7.4,3.1
		c-1.8,1.9-2.6,4.2-2.5,6.9l0.1,0.2l7-0.2c0-1.2,0.2-2.2,0.6-2.9c0.4-0.7,1.1-1,2-1.1c1,0,1.8,0.4,2.3,1.2c0.5,0.8,0.8,2,0.9,3.5
		l0.1,2.6l-3.2,0.1c-3.6,0.1-6.2,1.1-7.9,2.8s-2.5,4.1-2.4,7.1c0.1,2.9,0.9,5.1,2.3,6.7c1.4,1.6,3.4,2.4,5.9,2.3
		c1.5-0.1,2.7-0.6,3.6-1.6c1-1,1.7-2.3,2.3-3.9c0.1,0.8,0.3,1.6,0.5,2.4c0.2,0.8,0.5,1.5,0.8,2.2l7.2-0.3c-0.4-1.3-0.8-2.6-1-3.9
		S208.1,132.9,208,131.5z M199.3,133.4c-0.7,0.7-1.6,1-2.5,1.1c-0.8,0-1.4-0.3-1.9-0.9s-0.7-1.5-0.8-2.6c0-1.3,0.2-2.4,0.7-3.3
		c0.5-0.9,1.4-1.4,2.6-1.4l3.2-0.1l0.2,4.9C200.6,131.9,200.1,132.7,199.3,133.4z"/>
	<path class="st4" d="M221.7,120.8c-1.9-0.9-3.2-1.7-3.8-2.2c-0.6-0.5-0.9-1.3-0.9-2.2c0-0.9,0.2-1.6,0.8-2.3s1.2-1,2.1-1
		c1,0,1.8,0.3,2.4,1.1c0.5,0.8,0.8,1.8,0.9,3.1l7-0.2l0-0.2c0-2.8-1-5.1-2.9-6.9c-1.9-1.8-4.4-2.6-7.5-2.5c-3,0.1-5.3,1.1-7.1,2.9
		c-1.7,1.8-2.6,4-2.5,6.5c0.1,2.3,0.9,4.2,2.3,5.6s3.6,2.7,6.5,3.7c1.8,0.9,3.1,1.6,3.7,2.2c0.7,0.6,1,1.4,1,2.3
		c0,1-0.2,1.7-0.7,2.3s-1.3,0.9-2.3,0.9c-1.2,0-2.1-0.3-2.9-1s-1.1-1.9-1.2-3.6l-6.6,0.2l-0.1,0.2c0,2.6,1,4.9,2.9,6.9
		c2,2,4.5,2.9,7.8,2.8c3.1-0.1,5.6-1,7.4-2.8s2.7-3.9,2.6-6.6c-0.1-2.4-0.9-4.4-2.3-5.8S224.6,121.8,221.7,120.8z"/>
</g>
</svg>
