<svg id="Layer_1" data-name="Layer 1" xmlns="http://www.w3.org/2000/svg" width="192" height="51.03" viewBox="0 0 240 64.03">
  <title>LMJ_logo</title>
  <defs>
     <style>
		.cls1{
		  fill:#ff009d;
		}
	 </style>
  </defs>
  <g>
    <path class="cls1" d="M200.17,34.66a15.2,15.2,0,0,0-.46-1.73,12.78,12.78,0,0,0-.64-1.57,10.8,10.8,0,0,0-.81-1.39,9.66,9.66,0,0,0-1-1.2A8.52,8.52,0,0,0,194.85,27a9.6,9.6,0,0,0-1.46-.57,9.49,9.49,0,0,0-1.62-.33A12.1,12.1,0,0,0,190,26a16.32,16.32,0,0,0-1.93.18l-2.09.31-1.84.26-1.71.24-1.71.23-1.84.24-2.09.27V59.4l2.14.1,1.84.09,1.84.09,2.14.11V52.2h3l.91,1.71.79,1.5.75,1.44.79,1.53.91,1.78,1.88.11,1.64.1,1.55.1,1.63.1,1.88.12-1-2L198.61,57l-.8-1.58L197,53.9l-.86-1.66-1-1.87a10.6,10.6,0,0,0,1.23-.94,10.48,10.48,0,0,0,1.07-1.11A11.1,11.1,0,0,0,198.4,47a12.48,12.48,0,0,0,.76-1.45,14.21,14.21,0,0,0,.6-1.59,16,16,0,0,0,.43-1.71,18.4,18.4,0,0,0,.26-1.83q.09-.94.09-1.94t-.09-2A17.67,17.67,0,0,0,200.17,34.66Zm-7.69,6.06a7.21,7.21,0,0,1-.37,1.41,5.71,5.71,0,0,1-.62,1.19,3.47,3.47,0,0,1-.92.92,4.26,4.26,0,0,1-1.27.57,7,7,0,0,1-1.61.23l-1.47.05-1.47.05v-11l1.47-.15,1.47-.15a6.8,6.8,0,0,1,1.25,0,4,4,0,0,1,1,.21,3.48,3.48,0,0,1,1.51,1,4.32,4.32,0,0,1,.86,1.73,8.1,8.1,0,0,1,.2,1.09,10.81,10.81,0,0,1,.07,1.22A9.92,9.92,0,0,1,192.48,40.72Z"/>
    <path class="cls1" d="M100.76,30.84l-1.45-.07-1.52-.07L96,30.61v17a6.68,6.68,0,0,1-.3,2.1,4.16,4.16,0,0,1-.91,1.56,3.55,3.55,0,0,1-1,.72,4.82,4.82,0,0,1-1.25.44,7.72,7.72,0,0,1-1.55.15,7.59,7.59,0,0,1-1.55-.14A4.65,4.65,0,0,1,88.28,52a3.47,3.47,0,0,1-1-.73,4,4,0,0,1-.67-1,5.28,5.28,0,0,1-.4-1.26,7.93,7.93,0,0,1-.13-1.51V30l-1.75-.14-1.52-.12-1.44-.12-1.52-.13-1.75-.16V47.41a16.41,16.41,0,0,0,.11,1.91,12.84,12.84,0,0,0,.32,1.74,10.37,10.37,0,0,0,.54,1.56A10.51,10.51,0,0,0,79.83,54a9.39,9.39,0,0,0,.9,1.21,9.07,9.07,0,0,0,1.07,1,10.08,10.08,0,0,0,1.23.86,10.86,10.86,0,0,0,1.37.69,12.43,12.43,0,0,0,1.51.52,15.38,15.38,0,0,0,1.63.35q.84.14,1.73.19t1.82,0q.94,0,1.82-.12t1.73-.27q.84-.17,1.63-.42a14,14,0,0,0,1.51-.56,12.28,12.28,0,0,0,1.37-.71,11.22,11.22,0,0,0,1.23-.86,9.65,9.65,0,0,0,1.07-1,9.47,9.47,0,0,0,.9-1.15,10,10,0,0,0,.73-1.29,9.31,9.31,0,0,0,.54-1.44,11.07,11.07,0,0,0,.32-1.6,13.89,13.89,0,0,0,.11-1.76V31l-1.75-.07Z"/>
    <path class="cls1" d="M72.7,42.6,71,42.53l-1.68-.07-1.72-.07-1.86-.08-2.08-.1v6.53l2.06,0,1.79,0,2.06,0v2.62a10.3,10.3,0,0,1-1.05.47q-.57.22-1.23.41a9.54,9.54,0,0,1-1.53.29,19.14,19.14,0,0,1-2,.11,8.88,8.88,0,0,1-1.85-.16A6.62,6.62,0,0,1,60.32,52a7.07,7.07,0,0,1-1.37-.87A7,7,0,0,1,57.82,50a8.47,8.47,0,0,1-.88-1.42,9.81,9.81,0,0,1-.63-1.63,12.5,12.5,0,0,1-.38-1.79,14.12,14.12,0,0,1-.13-1.9,13.73,13.73,0,0,1,.13-1.88,11.52,11.52,0,0,1,.38-1.74,9.22,9.22,0,0,1,.61-1.54,7.21,7.21,0,0,1,.83-1.28,5.71,5.71,0,0,1,1.05-1,5.85,5.85,0,0,1,2.79-1.09,8.29,8.29,0,0,1,1.73,0,9.81,9.81,0,0,1,1.42.23,8.16,8.16,0,0,1,1.28.42,7.23,7.23,0,0,1,1.14.6,10.35,10.35,0,0,1,1.48,1.17,10.54,10.54,0,0,1,1.25,1.43l1.49-1.23,1.29-1,1.29-1L75.46,34a15.86,15.86,0,0,0-1.05-1.27,16,16,0,0,0-1.18-1.16q-.62-.55-1.31-1t-1.44-.93a16.1,16.1,0,0,0-1.56-.8,17.35,17.35,0,0,0-1.68-.65q-.87-.29-1.81-.49t-1.93-.34q-.81-.1-1.6-.13a15.36,15.36,0,0,0-1.55,0,13.93,13.93,0,0,0-1.5.18,13.18,13.18,0,0,0-3.29,1,12.18,12.18,0,0,0-1.67.95,12.38,12.38,0,0,0-1.52,1.21,12.52,12.52,0,0,0-1,1.08,13.42,13.42,0,0,0-.91,1.22,14.93,14.93,0,0,0-.8,1.36q-.37.71-.69,1.5a15.89,15.89,0,0,0-.55,1.62,17.71,17.71,0,0,0-.4,1.73q-.16.89-.24,1.83t-.08,1.93q0,1,.08,1.94T48,46.63q.16.91.4,1.77A17.37,17.37,0,0,0,49,50.08q.32.82.69,1.57t.8,1.44a15.46,15.46,0,0,0,.92,1.32,14.61,14.61,0,0,0,1,1.19,14.15,14.15,0,0,0,1.14,1.05,13.58,13.58,0,0,0,2.54,1.67A14.29,14.29,0,0,0,59,59.39a14.63,14.63,0,0,0,1.52.3,15.71,15.71,0,0,0,1.57.15q.8,0,1.62,0t1.6-.12q.77-.08,1.48-.18t1.36-.25q1-.21,1.84-.47t1.64-.57q.77-.31,1.46-.66a15,15,0,0,0,1.3-.74q.61-.39,1.18-.81t1.1-.87V42.75l-2.09-.08Z"/>
    <path class="cls1" d="M43.22,24.65l-1.43-.25-1.51-.27-1.74-.31V46.47a13.24,13.24,0,0,1-.13,1.95A8.43,8.43,0,0,1,38,50a5.76,5.76,0,0,1-.66,1.31,3.94,3.94,0,0,1-.95,1,4.1,4.1,0,0,1-1.24.6,5.71,5.71,0,0,1-1.53.22A5.48,5.48,0,0,1,32.09,53a3.69,3.69,0,0,1-2.18-1.59A6.06,6.06,0,0,1,29.25,50a9.5,9.5,0,0,1-.4-1.74,15.31,15.31,0,0,1-.13-2.09V21.91L27,21.55l-1.5-.32-1.43-.31-1.5-.33-1.73-.38V46q0,1.06.06,2.06t.18,1.92q.12.93.3,1.78t.42,1.63a17.42,17.42,0,0,0,.72,1.95A13.49,13.49,0,0,0,23.38,57a10.91,10.91,0,0,0,1.06,1.43,10.13,10.13,0,0,0,1.21,1.17,9.34,9.34,0,0,0,1.35.92,9.5,9.5,0,0,0,1.49.67,11,11,0,0,0,1.61.43,12.38,12.38,0,0,0,1.71.19,14.87,14.87,0,0,0,1.81,0,15.88,15.88,0,0,0,1.81-.24,14.9,14.9,0,0,0,1.71-.44,14.41,14.41,0,0,0,1.62-.63,12.92,12.92,0,0,0,1.5-.81,12.52,12.52,0,0,0,1.36-1,12.73,12.73,0,0,0,1.22-1.16,12.13,12.13,0,0,0,1.06-1.34,13.14,13.14,0,0,0,.89-1.51A15,15,0,0,0,45.51,53a14.41,14.41,0,0,0,.42-1.39q.18-.72.3-1.5t.18-1.61q.06-.83.06-1.72V25.2l-1.74-.29Z"/>
    <path class="cls1" d="M124.18,52.06h-9.46V49.26h10.81V43.53H114.72V37.28H125.6l2.08,0V31.21l-2.19,0-2,0h-7.13l-1.74,0-1.79,0-1.89,0-2,0-2.19-.06V42.87c0,.59,0,1.17,0,1.75V55.93c0,.72,0,1.47,0,2.25l2.25,0,2.08,0H128.3V52.07h-4.12Z"/>
    <path class="cls1" d="M15.17,18.91l-1.42-.34-1.5-.36-1.72-.42v2.31q0,1.12,0,2.18V49.5a10.45,10.45,0,0,1-.14,1.82,3.44,3.44,0,0,1-.4,1.19,1.72,1.72,0,0,1-1.49.9,1.69,1.69,0,0,1-1.55-.89,11.14,11.14,0,0,1-.54-1q-.26-.54-.5-1.16L4.61,51.69,3.48,52.88,2.42,54,1.29,55.24,0,56.68a15.93,15.93,0,0,0,.63,1.68,13,13,0,0,0,.78,1.49,11,11,0,0,0,.92,1.3A9.9,9.9,0,0,0,3.4,62.26a6.34,6.34,0,0,0,1.23.85A6.62,6.62,0,0,0,6,63.67a8.12,8.12,0,0,0,1.59.25,11.14,11.14,0,0,0,1.77,0,9.85,9.85,0,0,0,1.63-.3A8.71,8.71,0,0,0,12.51,63a8.35,8.35,0,0,0,1.33-.8,8.75,8.75,0,0,0,1.17-1,10,10,0,0,0,1-1.28,11.24,11.24,0,0,0,.85-1.49,13.27,13.27,0,0,0,.66-1.69,16.43,16.43,0,0,0,.47-1.9,21,21,0,0,0,.28-2.11q.09-1.11.09-2.33V19.66l-1.73-.4Z"/>
    <path class="cls1" d="M147.79,30.44l-2,.12-1.89.1-1.82.09-1.79.08-1.79.08-1.82.07-1.89.06-1.35,0q1.36-2.17,2.73-4.27,1.53-2.33,2.93-4.44t2.65-3.91q1.24-1.81,2.19-3.14t1.53-2.12q.58-.79.68-.89a1,1,0,0,0,.3-.82q-.09-.33-.58-.33h-1a2.26,2.26,0,0,0-1.07.32,3.28,3.28,0,0,0-1,.84s-.32.46-.88,1.25l-.83,1.16,0,0a28.88,28.88,0,0,1-2.67,2.47,29.4,29.4,0,0,1-2.91,2.12,16.5,16.5,0,0,1-2.67,1.4,3.07,3.07,0,0,1-1.93.28,1.11,1.11,0,0,1-.88-.82,3.09,3.09,0,0,1,0-1.53,14.07,14.07,0,0,0,2.81-.49,15.25,15.25,0,0,0,2.53-.95A11.24,11.24,0,0,0,137.39,16a6.69,6.69,0,0,0,1.42-1.47,3,3,0,0,0,.6-1.37,1.54,1.54,0,0,0-.23-1.07,2,2,0,0,0-.89-.7,3.46,3.46,0,0,0-1.4-.26A8.41,8.41,0,0,0,133,12a12.07,12.07,0,0,0-3.17,2.3,13.46,13.46,0,0,0-1.23,1.42c-.27.3-.56.62-.88.94q-1,1.05-2,2a16.75,16.75,0,0,1-1.82,1.47q-.82.56-1.17.46a.31.31,0,0,1-.21-.18.75.75,0,0,1,.05-.51,5.8,5.8,0,0,1,.49-1,11.64,11.64,0,0,1,1.17-1.58,22.45,22.45,0,0,0,2.24-3.21,4.12,4.12,0,0,0,.63-1.93.91.91,0,0,0-.63-.89,3.15,3.15,0,0,0-1.51-.07,7,7,0,0,0-2.49.93,18.71,18.71,0,0,0-2.6,1.84,5.37,5.37,0,0,0,.54-1.49,1.19,1.19,0,0,0-.14-.89,1.08,1.08,0,0,0-.72-.4,3.54,3.54,0,0,0-1.16,0,7.3,7.3,0,0,0-2.77,1.07,24.38,24.38,0,0,0-2.95,2.12l1.47-2.1a1,1,0,0,0,.3-.82q-.09-.33-.58-.33h-1a2.36,2.36,0,0,0-1.09.32,2.85,2.85,0,0,0-1,.84l-7,10a1.09,1.09,0,0,0-.32.84q.07.35.56.35h1a2.26,2.26,0,0,0,1.09-.33,3.44,3.44,0,0,0,1-.86l.91-1.3a.38.38,0,0,0,.14-.18,20.59,20.59,0,0,1,1.35-1.65q.79-.88,1.67-1.74T113,15.84q.89-.75,1.65-1.3a8.54,8.54,0,0,1,1.32-.81q.56-.26.77-.16.39.18-.3,1.05t-2.16,2.7q-.7.84-1.33,1.72t-1.12,1.61l-1.12,1.65a1.09,1.09,0,0,0-.32.84q.07.35.56.35h1a2.28,2.28,0,0,0,1.1-.35,3,3,0,0,0,1-.84l1.89-2.6q.95-1.12,2.1-2.28t2.24-2.07a16.86,16.86,0,0,1,1.91-1.42q.82-.51,1.1-.37t-.3,1l-2.16,2.72a11.55,11.55,0,0,0-1.7,2.81,4.08,4.08,0,0,0-.35,2,1.47,1.47,0,0,0,.79,1.14,2.57,2.57,0,0,0,1.72.14,4.82,4.82,0,0,0,1.68-.72,21.29,21.29,0,0,0,1.88-1.35,25,25,0,0,0,1.89-1.68l.09-.09a5.6,5.6,0,0,0-.09.7,3.11,3.11,0,0,0,.68,2.3,3.23,3.23,0,0,0,2.6.91,6.57,6.57,0,0,0,2.88-.81,24.31,24.31,0,0,0,3.3-2c.49-.35,1-.72,1.44-1.09l-.54.78-2.74,3.93q-1.28,1.84-2.17,3.17t-1,1.61a1.82,1.82,0,0,0-.16,1.28,2.56,2.56,0,0,0,.33.78h-.62l-2.29,0v6.06l2.13,0,1.83,0,1.83,0,2.13,0V58.2l1.75,0,1.52,0,1.45,0,1.52,0,1.75,0V36.87l2.12-.08,1.83-.08,1.83-.08,2.12-.1V30.15l-2.29.15ZM131.27,15.85a11.09,11.09,0,0,1,1-1.32,7.34,7.34,0,0,1,1.14-1.05,4.61,4.61,0,0,1,1.19-.65,2.17,2.17,0,0,1,1.35-.11.72.72,0,0,1,.53.6,1.79,1.79,0,0,1-.28,1,4,4,0,0,1-1.07,1.19,7.9,7.9,0,0,1-1.89,1.05,10.22,10.22,0,0,1-2.74.65A10.48,10.48,0,0,1,131.27,15.85Z"/>
    <path class="cls1" d="M206.91,23l-1.43.27-1.51.28-1.74.32v37l2.13.15,1.83.13,1.83.13,2.13.16V22.31l-1.73.35Z"/>
    <path class="cls1" d="M239.33,61.64l-.64-2.28-.62-2.18-.6-2.08-.58-2-.57-1.93-.55-1.86-.54-1.81-.53-1.76L234.17,44l-.52-1.69-.51-1.67L232.63,39l-.51-1.64-.52-1.64-.52-1.64-.53-1.65L230,30.76l-.55-1.69-.57-1.72-.58-1.76-.6-1.8L227.08,22l-.65-1.89-.67-1.94c-.06-.2-.14-.29-.26-.26s-.2.16-.26.38l-.73,2.43L223.8,23l-.68,2.2-.65,2.1-.63,2-.61,1.94-.6,1.87-.58,1.82-.57,1.77-.57,1.73-.56,1.71-.56,1.69-.56,1.68-.57,1.68-.57,1.69-.58,1.7-.6,1.72L214.29,52l-.63,1.79L213,55.66l-.68,1.88-.7,1.94-.73,2,2.08.16,1.79.14,1.79.14,2.07.17.54-1.73.54-1.75,2.05.12,1.81.11,1.68.1,1.68.1,1.8.11,2,.13.39,1.38.34,1.21.39,1.39,1.78.17,1.54.15,1.47.14,1.54.15L240,64ZM226.1,50.19h-3.89l.55-1.85.48-1.64.45-1.54.45-1.55.48-1.67.54-1.91.56,1.84.49,1.63.46,1.53.46,1.54.49,1.67.56,1.91Z"/>
    <path class="cls1" d="M171,52.24h-9.44V49.11l2,0h5l1.76,0,2,0V42.43l-2,.08-1.76.07-1.64.06-1.64.06-1.76.06-2,.07V36l2.07-.13,1.85-.12,1.71-.12,1.67-.12,1.71-.13,1.85-.14,2.07-.17V28l-2.18.26-2,.23-1.88.2-1.79.19-1.73.17-1.71.17-1.73.16-1.79.16-1.88.16-2,.16-2.19.17V40c0,.59,0,1.17,0,1.75V58.55l2.25.06,2.07.06,1.94.06,1.84.06,1.78.06,1.76.06L167,59l1.84.07,1.94.08,2.07.09,2.24.1V52.27l-2.17,0Z"/>
    <polygon class="cls1" points="213.29 16.09 205.33 17.93 202.23 22.72 210.08 21.18 213.29 16.09"/>
    <path class="cls1" d="M147.44,8.84a1.92,1.92,0,0,0,1.93-1.93,1.81,1.81,0,0,0-.56-1.35A1.89,1.89,0,0,0,147.44,5a1.86,1.86,0,0,0-1.89,1.89,1.89,1.89,0,0,0,.54,1.37A1.8,1.8,0,0,0,147.44,8.84Z"/>
    <path class="cls1" d="M155.89,15.64a5.15,5.15,0,0,0,.35-2.12,2.62,2.62,0,0,0-.63-1.6,2.51,2.51,0,0,0-1.56-.75,5.38,5.38,0,0,0-2.14.21,10.57,10.57,0,0,0-2.46,1.09A13.13,13.13,0,0,0,147,14.38a13.07,13.07,0,0,0-2.05,2.35,11.15,11.15,0,0,0-1.25,2.39,5.38,5.38,0,0,0-.37,2.12,2.43,2.43,0,0,0,.65,1.6,2.31,2.31,0,0,0,1.54.74,5.59,5.59,0,0,0,2.14-.23,10.64,10.64,0,0,0,2.44-1.09,13.94,13.94,0,0,0,2.47-1.88A13.67,13.67,0,0,0,154.63,18,10.75,10.75,0,0,0,155.89,15.64Zm-2-.84a7.94,7.94,0,0,1-.67,1.58,13.45,13.45,0,0,1-1.12,1.72,12.82,12.82,0,0,1-1.37,1.54,8.55,8.55,0,0,1-1.35,1.07,3.61,3.61,0,0,1-1.19.51,1.13,1.13,0,0,1-.89-.14,1.08,1.08,0,0,1-.37-.79,3.39,3.39,0,0,1,.16-1.26,8.73,8.73,0,0,1,.65-1.56,12.86,12.86,0,0,1,2.49-3.26,10.26,10.26,0,0,1,1.37-1.09,3.45,3.45,0,0,1,1.19-.53,1.13,1.13,0,0,1,.89.14,1.08,1.08,0,0,1,.37.79A3.51,3.51,0,0,1,153.86,14.8Z"/>
    <path class="cls1" d="M78.84,23.46a5.37,5.37,0,0,0,2-.91A17.81,17.81,0,0,0,83,20.89s0,.09,0,.13a2.46,2.46,0,0,0,.42,1.81,1.81,1.81,0,0,0,1.51.67,3.83,3.83,0,0,0,1.49-.33,9.64,9.64,0,0,0,1.56-.84,15,15,0,0,0,1.51-1.14q.74-.63,1.37-1.23a5.24,5.24,0,0,0-.37,1.51,2.38,2.38,0,0,0,.18,1.19,1.41,1.41,0,0,0,.77.72,2.46,2.46,0,0,0,1.42.05,4.82,4.82,0,0,0,1.68-.72,21.28,21.28,0,0,0,1.88-1.35q1-.77,1.91-1.68T100,17.92q.79-.84,1.35-1.54t.81-1.05a1.75,1.75,0,0,0,.32-.77.61.61,0,0,0-.12-.51q-.16-.16-.49,0a2.6,2.6,0,0,0-.79.72q-.74.88-1.75,1.93t-2,2a16.74,16.74,0,0,1-1.82,1.47q-.82.56-1.17.46T94.11,20a5.26,5.26,0,0,1,.75-1.53q.49-.84,1.19-1.84l1.35-1.93q.65-.93,1.17-1.6l.67-.84a1,1,0,0,0,.3-.82q-.09-.33-.58-.33H98a2.33,2.33,0,0,0-.91.21,2.78,2.78,0,0,0-.88.6,3.35,3.35,0,0,0-1.61-.75,5,5,0,0,0-2.24.14,10.29,10.29,0,0,0-2.74,1.25,16.35,16.35,0,0,0-2.19,1.66l-.23.2-.67.63a17.82,17.82,0,0,0-2,2.32c-.39.4-.78.79-1.18,1.15A14.52,14.52,0,0,1,81.45,20a3,3,0,0,1-1.56.58,1.24,1.24,0,0,1-.86-.33,2.92,2.92,0,0,0-.91-.54,2.53,2.53,0,0,0-1.4,0,6.64,6.64,0,0,0-2.3,1.23L88.16,1.19a1.09,1.09,0,0,0,.32-.84Q88.41,0,87.92,0h-1a2.26,2.26,0,0,0-1.09.33,3,3,0,0,0-1,.86L70,22.38a1,1,0,0,0-.3.84q.09.35.58.35h1a2.17,2.17,0,0,0,1.07-.33l.19-.12h0l.1-.07a8.73,8.73,0,0,1,.93-.59,4.92,4.92,0,0,1,.93-.39,1.64,1.64,0,0,1,1.65.32q.33.28.68.54a4,4,0,0,0,.79.46A2.19,2.19,0,0,0,78.84,23.46Zm8-5.1a8,8,0,0,1,1.28-1.88,14.93,14.93,0,0,1,1.54-1.6,12.13,12.13,0,0,1,1.91-1.42,6.54,6.54,0,0,1,2-.81,2.51,2.51,0,0,1,1.81.25L95,13.4Q94.55,14,93.76,15t-1.68,1.91q-.89,1-1.81,1.82A9.81,9.81,0,0,1,88.59,20a2.54,2.54,0,0,1-1.6.6.65.65,0,0,1-.53-.72A3.56,3.56,0,0,1,86.88,18.36Z"/>
    <path class="cls1" d="M155.5,23.17a3.44,3.44,0,0,0,1-.86q.28-.42.67-.95l.74-1.07.91-1.32a14,14,0,0,1,1.25-1.51q.75-.81,1.56-1.53a16.39,16.39,0,0,1,1.6-1.26,4.43,4.43,0,0,1,1.35-.68q-.35.49-.93,1.19t-1.1,1.42q-.53.72-.89,1.32a1.33,1.33,0,0,0-.3.88q.11.46,1,.56a5.55,5.55,0,0,0,2.16-.26,11.29,11.29,0,0,0,2.74-1.28A11.38,11.38,0,0,0,170,15.33a1.52,1.52,0,0,0,.37-.74q0-.28-.19-.35a.89.89,0,0,0-.56.05,2.24,2.24,0,0,0-.74.47,14.27,14.27,0,0,1-1.7,1.47,7.4,7.4,0,0,1-1.95,1,4.52,4.52,0,0,1,.88-1.19q.74-.81,1.47-1.72a9.48,9.48,0,0,0,1.16-1.77,1.13,1.13,0,0,0,0-1.35,1.11,1.11,0,0,0-.86-.21,4.77,4.77,0,0,0-1.47.39,13.31,13.31,0,0,0-1.91,1,16.35,16.35,0,0,0-2.14,1.6l1.23-1.65a1,1,0,0,0,.3-.82q-.09-.33-.58-.33h-1a2.36,2.36,0,0,0-1.09.32,2.85,2.85,0,0,0-1,.84l-7,10a1.09,1.09,0,0,0-.32.84q.07.35.56.35h1A2.26,2.26,0,0,0,155.5,23.17Z"/>
  </g>
</svg>
