<?xml version="1.0" encoding="utf-8"?>
<!-- Generator: Adobe Illustrator 23.0.1, SVG Export Plug-In . SVG Version: 6.00 Build 0)  -->
<svg version="1.1" id="Layer_1" xmlns="http://www.w3.org/2000/svg" xmlns:xlink="http://www.w3.org/1999/xlink" x="0px" y="0px"
	 viewBox="0 0 259.8 253.2" style="enable-background:new 0 0 259.8 253.2;" xml:space="preserve">
<style type="text/css">
	.st0{fill:none;}
	.st1{opacity:0.4;fill:#E6E7E8;enable-background:new    ;}
	.st2{fill:#FFFFFF;}
	.st3{fill:#ED3024;stroke:#FFFFFF;stroke-width:0.75;}
	.st4{fill:#EC1C24;stroke:#FFFFFF;stroke-width:0.75;}
</style>
<title>bomberg</title>
<rect x="30.4" y="55.6" class="st0" width="198.2" height="134.4"/>
<rect x="30.4" y="55.6" class="st0" width="198.2" height="134.4"/>
<path d="M129.9,128.3"/>
<path d="M129.9,128.3"/>
<g>
	<ellipse class="st1" cx="129.9" cy="126.6" rx="111.9" ry="109"/>
	<g>
		<g>
			<path d="M65.7,146.2v0.2c0,0.7,0.5,0.9,0.9,0.9c0.5,0,0.9-0.2,0.9-0.9c0-1.2-2.4-1-2.4-2.6c0-0.9,0.7-1.4,1.6-1.4
				c1,0,1.5,0.5,1.5,1.5h-0.7c0-0.6-0.2-1-0.8-1c-0.4,0-0.8,0.2-0.8,0.8c0,1.2,2.4,1,2.4,2.7c0,1.1-0.8,1.5-1.6,1.5
				c-1.6,0-1.6-1.2-1.5-1.7H65.7z"/>
			<path d="M70.5,142.5h0.7l1,4.6h0l1.1-4.6h0.9l1,4.6h0l1.1-4.6h0.7l-1.4,5.3h-0.8l-1-4.6h0l-1.1,4.6h-0.8L70.5,142.5z"/>
			<path d="M80.2,147.8h-0.7v-5.3h0.7V147.8z"/>
			<path d="M83.9,146.2v0.2c0,0.7,0.5,0.9,0.9,0.9c0.5,0,0.9-0.2,0.9-0.9c0-1.2-2.4-1-2.4-2.6c0-0.9,0.7-1.4,1.6-1.4
				c1,0,1.5,0.5,1.5,1.5h-0.7c0-0.6-0.2-1-0.8-1c-0.4,0-0.8,0.2-0.8,0.8c0,1.2,2.4,1,2.4,2.7c0,1.1-0.8,1.5-1.6,1.5
				c-1.6,0-1.6-1.2-1.5-1.7H83.9z"/>
			<path d="M89.8,146.2v0.2c0,0.7,0.5,0.9,0.9,0.9c0.5,0,0.9-0.2,0.9-0.9c0-1.2-2.4-1-2.4-2.6c0-0.9,0.7-1.4,1.6-1.4
				c1,0,1.5,0.5,1.5,1.5h-0.7c0-0.6-0.2-1-0.8-1c-0.4,0-0.8,0.2-0.8,0.8c0,1.2,2.4,1,2.4,2.7c0,1.1-0.8,1.5-1.6,1.5
				c-1.6,0-1.6-1.2-1.5-1.7H89.8z"/>
			<path d="M98.1,142.5h0.7l1,4.6h0l1.1-4.6h0.9l1,4.6h0l1.1-4.6h0.7l-1.4,5.3h-0.8l-1-4.6h0l-1.1,4.6h-0.8L98.1,142.5z"/>
			<path d="M109.2,145.9h-1.7l0.8-2.8h0L109.2,145.9z M106.3,147.8h0.7l0.4-1.3h2l0.4,1.3h0.8l-1.7-5.3H108L106.3,147.8z"/>
			<path d="M115.5,142.5v0.6h-1.4v4.7h-0.7v-4.7h-1.4v-0.6H115.5z"/>
			<path d="M120.4,143.9c0-0.3,0-0.6-0.2-0.8c-0.1-0.2-0.5-0.2-0.6-0.2c-0.6,0-0.8,0.3-0.8,0.4c0,0.1-0.2,0.2-0.2,1.1v1.4
				c0,1.3,0.4,1.4,0.9,1.4c0.2,0,0.8-0.1,0.8-1.1h0.7c0,1.7-1.2,1.7-1.5,1.7c-0.7,0-1.7,0-1.7-2.1v-1.5c0-1.5,0.7-1.9,1.7-1.9
				c1,0,1.4,0.5,1.4,1.6H120.4z"/>
			<path d="M124.1,147.8v-5.3h0.7v2.3h1.9v-2.3h0.7v5.3h-0.7v-2.4h-1.9v2.4H124.1z"/>
			<path d="M130.4,147.8v-5.3h2.7v0.6H131v1.7h1.9v0.6H131v1.8h2.1v0.6H130.4z"/>
			<path d="M136.4,146.2v0.2c0,0.7,0.5,0.9,0.9,0.9c0.5,0,0.9-0.2,0.9-0.9c0-1.2-2.4-1-2.4-2.6c0-0.9,0.7-1.4,1.6-1.4
				c1,0,1.5,0.5,1.5,1.5h-0.7c0-0.6-0.2-1-0.8-1c-0.4,0-0.8,0.2-0.8,0.8c0,1.2,2.4,1,2.4,2.7c0,1.1-0.8,1.5-1.6,1.5
				c-1.6,0-1.6-1.2-1.5-1.7H136.4z"/>
			<path d="M145.8,146.2v0.2c0,0.7,0.5,0.9,0.9,0.9c0.5,0,0.9-0.2,0.9-0.9c0-1.2-2.4-1-2.4-2.6c0-0.9,0.7-1.4,1.6-1.4
				c1,0,1.5,0.5,1.5,1.5h-0.7c0-0.6-0.2-1-0.8-1c-0.4,0-0.8,0.2-0.8,0.8c0,1.2,2.4,1,2.4,2.7c0,1.1-0.8,1.5-1.6,1.5
				c-1.6,0-1.6-1.2-1.5-1.7H145.8z"/>
			<path d="M152,147.8h-0.7v-5.3h0.7V147.8z"/>
			<path d="M158.8,142.5v5.3h-0.9l-2.1-4.6h0v4.6h-0.6v-5.3h1l2.1,4.5h0v-4.5H158.8z"/>
			<path d="M164.2,143.9c0-0.3,0-0.6-0.2-0.8c-0.1-0.2-0.5-0.2-0.6-0.2c-0.6,0-0.8,0.3-0.8,0.4c0,0.1-0.2,0.2-0.2,1.1v1.4
				c0,1.3,0.4,1.4,0.9,1.4c0.2,0,0.8-0.1,0.8-1.1h0.7c0,1.7-1.1,1.7-1.5,1.7c-0.7,0-1.7,0-1.7-2.1v-1.5c0-1.5,0.7-1.9,1.7-1.9
				c1,0,1.4,0.5,1.4,1.6H164.2z"/>
			<path d="M167.8,147.8v-5.3h2.7v0.6h-2.1v1.7h1.9v0.6h-1.9v1.8h2.1v0.6H167.8z"/>
			<path d="M178.3,147.8h-0.7v-4.3l-0.8,0.5v-0.6c0.2-0.1,0.7-0.4,0.9-0.6h0.6V147.8z"/>
			<path d="M182.9,147.3c-0.5,0-0.7-0.5-0.7-0.9c0-0.5,0.1-1,0.7-1c0.6,0,0.7,0.6,0.7,1C183.6,146.9,183.4,147.3,182.9,147.3z
				 M183.3,145.1c0.6-0.1,0.9-0.6,0.9-1.2c0-0.8-0.5-1.3-1.3-1.3c-0.8,0-1.3,0.5-1.3,1.3c0,0.6,0.3,1.1,0.9,1.2v0v0
				c-0.7,0.1-0.9,0.7-0.9,1.3c0,0.9,0.5,1.5,1.4,1.5c0.9,0,1.4-0.6,1.4-1.5C184.3,145.7,184.1,145.2,183.3,145.1L183.3,145.1
				L183.3,145.1z M182.9,144.8c-0.5,0-0.6-0.6-0.6-0.9c0-0.4,0.2-0.8,0.6-0.8c0.4,0,0.6,0.4,0.6,0.8
				C183.6,144.2,183.4,144.8,182.9,144.8z"/>
			<path d="M189.2,142.7v0.6h-1.7v1.5l0,0c0.1-0.2,0.5-0.4,0.8-0.4c0.7,0,1.1,0.5,1.1,1.7c0,0.8-0.1,1.8-1.4,1.8
				c-1.1,0-1.3-0.6-1.3-1.3h0.7c0,0.4,0.2,0.8,0.6,0.8c0.6,0,0.7-0.6,0.7-1.1c0-0.7,0-1.3-0.6-1.3c-0.4,0-0.6,0.3-0.6,0.6h-0.6v-2.9
				H189.2z"/>
			<path d="M192.7,144.8c0.6,0.1,1-0.2,1-0.8c0-0.5-0.2-0.8-0.7-0.8c-0.6,0-0.6,0.4-0.6,0.8h-0.7c0-0.9,0.4-1.4,1.3-1.4
				c0.9,0,1.4,0.4,1.4,1.3c0,1-0.7,1.1-1,1.2v0c0.8,0.1,1.1,0.5,1.1,1.3c0,1-0.5,1.5-1.5,1.5c-1.4,0-1.3-1.2-1.3-1.5h0.7
				c0,0.5,0.1,0.9,0.7,0.9c0.6,0,0.8-0.4,0.8-0.9c0-0.8-0.3-1-1.1-1V144.8z"/>
		</g>
		<path d="M159.6,124.4"/>
		<g>
			<g>
				<g>
					<rect x="109.2" y="88.6" width="19.5" height="19.5"/>
					<path d="M118.9,98.3"/>
				</g>
				<path class="st2" d="M119.2,93"/>
				<g>
					<polygon class="st2" points="126.2,91.2 111.7,91.2 111.7,94.4 116.8,94.4 116.8,105.4 121.2,105.4 121.2,94.4 126.2,94.4 
											"/>
					<path class="st2" d="M119.2,100"/>
				</g>
			</g>
		</g>
		<path d="M159.6,124.4"/>
		<g>
			<g>
				<path d="M77,116.3"/>
				<g>
					<polygon points="88.8,113.8 65.1,113.8 65.1,118.7 73.6,118.7 73.6,135.1 80.5,135.1 80.5,118.7 88.8,118.7 					"/>
					<path d="M77,126.8"/>
				</g>
			</g>
			<g>
				<rect x="90.9" y="113.8" width="6.9" height="21.3"/>
				<path d="M94.4,124.4"/>
			</g>
			<g>
				<path d="M183,116.3"/>
				<g>
					<polygon points="194.8,113.8 171.1,113.8 171.1,118.7 179.6,118.7 179.6,135.1 186.5,135.1 186.5,118.7 194.8,118.7 					"/>
					<path d="M183,126.8"/>
				</g>
			</g>
			<path d="M147.3,124.4c0-7.4,5.5-11.1,12.3-11.1c6.8,0,12.3,4.1,12.3,11.1c0,7-5.5,11.1-12.3,11.1
				C152.8,135.5,147.3,132.3,147.3,124.4z M159.6,131.7c3.6,0,5.3-3.3,5.3-7.3c0-4-2-7.3-5.3-7.3c-3.9,0-5.4,3.3-5.4,7.3
				C154.2,128.4,155.7,131.7,159.6,131.7z"/>
			<g>
				<path d="M144.9,120.7c-2.1,0-4.1,0-6.2,0c-0.3-1.1-0.8-2-1.8-2.7c-1.2-0.8-2.6-0.9-3.9-0.5c-1,0.3-2.2,1.2-1.7,2.3
					c0.3,0.7,1,1,1.7,1.2c3.4,0.9,6.9,1.1,10,3c1.5,0.9,2.4,2.5,2.3,4.2c-0.1,7.3-9,8.1-14.7,7c-3.7-0.8-7.3-3.5-7-7.6
					c2.2,0,4.3,0,6.5,0c0.4,0.9,0.2,1.8,0.8,2.6c0.3,0.5,0.7,0.9,1.2,1.1c0.4,0.2,0.7,0.4,1.1,0.5c1.1,0.3,2.2,0.3,3.2,0
					c0.8-0.2,1.4-0.8,1.8-1.5c0.2-0.4,0.2-0.9,0-1.3c-0.1-0.3-0.2-0.5-0.4-0.7c-0.5-0.8-1.4-1-2.2-1.2c-3.8-1.2-8.7-0.7-10.8-4.7
					c-0.6-1.2-0.6-2.5-0.3-3.8c0.2-0.9,0.8-1.7,1.5-2.3c0.6-0.6,1.3-1.2,2.1-1.5c4-1.8,8.6-1.6,12.5,0.1
					C142.8,115.8,144.8,118,144.9,120.7z"/>
			</g>
			<g>
				<path d="M121.4,120.6c-2.1,0-4.1,0-6.2,0c-0.3-1.1-0.8-2-1.8-2.7c-1.2-0.8-2.6-0.9-3.9-0.5c-1,0.3-2.2,1.2-1.7,2.3
					c0.3,0.7,1,1,1.7,1.2c3.4,0.9,6.9,1.1,10,3c1.5,0.9,2.4,2.5,2.3,4.2c-0.1,7.3-9,8.1-14.7,7c-3.7-0.8-7.3-3.5-7-7.6
					c2.2,0,4.3,0,6.5,0c0.4,0.9,0.2,1.8,0.8,2.6c0.3,0.5,0.7,0.9,1.2,1.1c0.4,0.2,0.7,0.4,1.1,0.5c1.1,0.3,2.2,0.3,3.2,0
					c0.8-0.2,1.4-0.8,1.8-1.5c0.2-0.4,0.2-0.9,0-1.3c-0.1-0.3-0.2-0.5-0.4-0.7c-0.5-0.8-1.4-1-2.2-1.2c-3.8-1.2-8.7-0.7-10.8-4.7
					c-0.6-1.2-0.6-2.5-0.3-3.8c0.2-0.9,0.8-1.7,1.5-2.3c0.6-0.6,1.3-1.2,2.1-1.5c4-1.8,8.6-1.6,12.5,0.1
					C119.4,115.8,121.3,117.9,121.4,120.6z"/>
			</g>
		</g>
		<g>
			<rect x="131" y="88.6" class="st3" width="19.5" height="19.5"/>
			<path class="st4" d="M140.7,98.4"/>
		</g>
		<polygon class="st2" points="147.9,96.1 142.8,96.1 142.8,91.2 138.6,91.2 138.6,96.1 133.6,96.1 133.6,100.4 138.6,100.4 
			138.6,105.4 142.8,105.4 142.8,100.4 147.9,100.4 		"/>
		<rect x="65.2" y="88.6" class="st0" width="129.6" height="76"/>
	</g>
</g>
</svg>
