<svg xmlns="http://www.w3.org/2000/svg" width="272" height="170" viewBox="0 0 272 170">
    <defs>
        <radialGradient id="a" cx="57.425%" cy="57.233%" r="47.974%" fx="57.425%" fy="57.233%" gradientTransform="matrix(0 -.9796 1 0 .002 1.135)">
            <stop offset="0%" stop-color="#E5A6A6"/>
            <stop offset="35.037%" stop-color="#BC2C33"/>
            <stop offset="57.136%" stop-color="#93262B"/>
            <stop offset="100%" stop-color="#5E171A"/>
        </radialGradient>
    </defs>
    <g fill="none" fill-rule="evenodd">
        <path fill="#FFF" fill-rule="nonzero" stroke="#81898B" stroke-opacity=".341" stroke-width=".5" d="M15.976 169C7.703 169 1 163.24 1 156.132V13.868C1 6.76 7.703 1 15.976 1h240.048C264.297 1 271 6.76 271 13.868v142.264c0 7.108-6.703 12.868-14.976 12.868H15.976z"/>
        <g fill="#81898B">
            <path d="M24.786 53.99v4.833H23.68V53.99H22V53h4.526v.99h-1.74zm5.807 3.715H28.08l-.362 1.118h-1.169L28.486 53h1.66l1.966 5.823h-1.148l-.37-1.118zm-.256-.814l-1.007-3.034-.99 3.034h1.997zm2.263 1.932V53h2.87c.715 0 1.207.124 1.477.371.27.248.405.695.405 1.344 0 .589-.068.991-.203 1.207-.135.216-.411.366-.83.448v.039c.646.04.969.416.969 1.13v1.284h-1.105v-1.062c0-.6-.296-.9-.887-.9h-1.591v1.962H32.6zm1.105-2.892h1.587c.378 0 .629-.068.752-.203.124-.135.186-.406.186-.813 0-.415-.053-.683-.16-.804-.107-.12-.34-.181-.702-.181h-1.663v2zm8-2.931v4.019c0 .748-.124 1.244-.371 1.488-.248.245-.751.367-1.51.367-.808 0-1.332-.118-1.573-.354-.24-.236-.36-.752-.36-1.548l.013-.431h1.053c.017.216.026.378.026.486 0 .103.004.226.013.371.017.353.297.53.84.53.324 0 .533-.064.625-.19.093-.127.139-.412.139-.856V53h1.105zm1.998.93v1.502h2.73v.814h-2.73v1.647h2.905v.93h-4.01V53h3.984v.93h-2.88zm6.033.06v4.833h-1.105V53.99h-1.68V53h4.526v.99h-1.74zm5.808 3.715H53.03l-.363 1.118H51.5L53.436 53h1.66l1.966 5.823h-1.147l-.371-1.118zm-.256-.814l-1.007-3.034-.99 3.034h1.997zM63.464 53h1.105v3.874c0 .81-.156 1.346-.467 1.608-.312.262-.948.392-1.91.392-1.015 0-1.68-.123-1.996-.37-.315-.248-.473-.77-.473-1.566V53h1.105v3.938c0 .429.076.701.23.816.154.116.515.173 1.084.173.583 0 .949-.058 1.098-.175.15-.116.224-.402.224-.857V53zm7.514 0v5.823h-1.873l-1.664-3.195c-.082-.16-.211-.438-.388-.836l-.187-.418-.184-.418h-.043l.017.383.013.38.009.764v3.34h-1.105V53h1.873l1.514 2.952c.134.262.289.579.465.951l.222.474.222.478h.038l-.025-.751-.009-.75V53h1.105zm2.113 0v5.823h-1.105V53h1.105zm4.745 0h1.17l-1.878 5.823H75.43L73.57 53h1.148l1.092 3.298c.102.315.254.844.456 1.587h.03l.111-.397c.137-.495.253-.89.35-1.186L77.837 53zm2.625.93v1.502h2.73v.814h-2.73v1.647h2.905v.93h-4.01V53h3.985v.93h-2.88zm3.713 4.893V53h2.871c.714 0 1.206.124 1.476.371.27.248.405.695.405 1.344 0 .589-.067.991-.202 1.207-.135.216-.412.366-.83.448v.039c.646.04.968.416.968 1.13v1.284h-1.104v-1.062c0-.6-.296-.9-.888-.9H85.28v1.962h-1.105zm1.105-2.892h1.587c.378 0 .63-.068.753-.203.124-.135.185-.406.185-.813 0-.415-.053-.683-.16-.804-.106-.12-.34-.181-.701-.181h-1.664v2zm8.832-1.233h-1.08a1.269 1.269 0 0 1-.008-.12c-.025-.327-.098-.532-.217-.616-.12-.084-.401-.126-.845-.126-.523 0-.865.048-1.026.145-.16.097-.241.3-.241.61 0 .367.065.587.196.661.131.074.563.131 1.297.171.868.048 1.429.172 1.683.371.255.2.382.613.382 1.242 0 .773-.15 1.273-.448 1.5-.299.225-.957.338-1.975.338-.916 0-1.524-.11-1.824-.332-.3-.222-.45-.672-.45-1.349l-.004-.213h1.075l.004.124c0 .407.071.655.213.746.142.091.53.137 1.165.137.495 0 .81-.053.947-.158.136-.105.205-.348.205-.73 0-.28-.052-.468-.156-.56-.104-.093-.328-.149-.672-.169l-.61-.038c-.921-.054-1.51-.182-1.766-.384s-.384-.636-.384-1.301c0-.68.154-1.133.463-1.36.308-.225.925-.338 1.85-.338.875 0 1.465.104 1.77.311.304.208.456.613.456 1.216v.222zM96.11 53v5.823h-1.105V53h1.105zm3.337.99v4.833h-1.105V53.99h-1.68V53h4.526v.99h-1.74zm5.808 3.715h-2.513l-.363 1.118h-1.168L103.146 53h1.66l1.967 5.823h-1.148l-.371-1.118zm-.256-.814l-1.007-3.034-.99 3.034h1.997zm2.262 1.932V53h2.871c.714 0 1.206.124 1.476.371.27.248.406.695.406 1.344 0 .589-.068.991-.203 1.207-.135.216-.412.366-.83.448v.039c.646.04.969.416.969 1.13v1.284h-1.105v-1.062c0-.6-.296-.9-.888-.9h-1.59v1.962h-1.106zm1.105-2.892h1.587c.378 0 .63-.068.753-.203.124-.135.186-.406.186-.813 0-.415-.054-.683-.16-.804-.107-.12-.34-.181-.702-.181h-1.664v2zM113.981 53v5.823h-1.105V53h1.105zm4.54 4.705h-2.513l-.362 1.118h-1.17L116.415 53h1.66l1.966 5.823h-1.148l-.371-1.118zm-.256-.814l-1.007-3.034-.99 3.034h1.997zM64.782 62.666v.425h-.898v1.172c0 .216.082.324.246.324.181 0 .271-.13.271-.393v-.092h.476v.117c0 .107-.003.2-.01.276-.03.356-.296.534-.795.534-.498 0-.747-.228-.747-.686v-1.252h-.303v-.425h.303v-.522h.559v.522h.898zm2.467 0V65h-.56l.032-.4-.01-.003c-.108.287-.359.43-.751.43-.53 0-.794-.265-.794-.794v-1.567h.56v1.433c0 .199.027.33.082.392.056.063.17.094.345.094.358 0 .537-.215.537-.645v-1.274h.559zm2.357-.999v1.385l.012.002c.105-.276.344-.415.718-.415.545 0 .818.258.818.774V65h-.559v-1.509c0-.273-.14-.41-.417-.41-.381 0-.572.198-.572.593V65h-.559v-3.333h.56zm2.647 0v.467h-.559v-.467h.56zm0 .999V65h-.559v-2.334h.56zm2.489.642h-.547l-.007-.044c-.012-.112-.044-.182-.097-.21-.052-.027-.18-.041-.384-.041-.291 0-.437.094-.437.283 0 .128.026.205.077.23.051.024.225.043.521.058.399.02.658.072.779.159.12.086.18.263.18.53 0 .284-.08.482-.24.592-.16.11-.448.164-.863.164-.399 0-.671-.05-.818-.149-.146-.099-.22-.284-.22-.556v-.059h.581a.518.518 0 0 0-.014.078c-.023.207.136.31.478.31.353 0 .53-.102.53-.307 0-.197-.11-.296-.332-.296-.5 0-.829-.047-.987-.141-.16-.095-.239-.29-.239-.589 0-.267.073-.447.218-.542.145-.094.423-.141.835-.141.389 0 .65.045.785.136.134.092.201.27.201.535zm2.022-.642v.425h-.898v1.172c0 .216.082.324.246.324.181 0 .271-.13.271-.393v-.092h.476v.117c0 .107-.003.2-.01.276-.03.356-.295.534-.795.534-.498 0-.747-.228-.747-.686v-1.252h-.303v-.425h.303v-.522h.559v.522h.898zm1.42-.027c.45 0 .746.072.886.216.14.144.21.448.21.912 0 .518-.069.857-.205 1.018-.137.161-.425.242-.865.242-.477 0-.785-.075-.926-.225-.141-.15-.211-.48-.211-.989 0-.49.069-.808.207-.954.139-.147.44-.22.903-.22zm-.005.442c-.233 0-.381.042-.445.126-.063.084-.095.28-.095.587 0 .352.03.571.09.66.06.087.211.131.452.131.233 0 .38-.046.44-.14.062-.092.092-.315.092-.668 0-.298-.031-.488-.095-.571-.063-.083-.21-.125-.44-.125zm1.573-.415h.559l-.034.327.012.003a.668.668 0 0 1 .63-.367c.41 0 .615.26.615.777v.163h-.528c.007-.063.01-.105.01-.124 0-.25-.097-.374-.29-.374-.277 0-.415.185-.415.554V65h-.56v-2.334zm2.642-.999v.467h-.56v-.467h.56zm0 .999V65h-.56v-2.334h.56zm1.121.676h-.571c0-.28.065-.467.195-.561.13-.095.389-.142.774-.142.42 0 .704.058.852.173.148.116.222.337.222.662V65h-.559l.027-.32-.014-.002c-.108.232-.356.349-.745.349-.565 0-.847-.24-.847-.72 0-.485.289-.728.867-.728.385 0 .62.089.703.266h.01v-.378c0-.182-.032-.303-.096-.363-.063-.06-.193-.089-.39-.089-.285 0-.428.11-.428.327zm.374.613c-.316 0-.474.11-.474.327 0 .152.033.25.098.298.065.047.202.07.41.07.34 0 .51-.114.51-.343 0-.235-.181-.352-.544-.352zm4.374.154h.557v.08l-.035.354c-.068.323-.402.484-1 .484-.44 0-.732-.08-.877-.238-.145-.159-.217-.478-.217-.958 0-.47.072-.785.217-.948.145-.162.426-.244.845-.244.403 0 .677.06.82.177.143.118.215.342.215.673h-.554c0-.272-.157-.408-.472-.408-.223 0-.363.043-.42.13-.056.086-.085.297-.085.634 0 .326.031.53.094.614.063.084.216.126.46.126.192 0 .316-.029.37-.087.055-.057.082-.187.082-.39zm1.983-1.47c.45 0 .746.072.886.216.14.144.21.448.21.912 0 .518-.068.857-.205 1.018-.137.161-.425.242-.864.242-.477 0-.786-.075-.927-.225-.14-.15-.21-.48-.21-.989 0-.49.068-.808.207-.954.138-.147.44-.22.903-.22zm-.005.442c-.233 0-.38.042-.444.126-.064.084-.095.28-.095.587 0 .352.03.571.09.66.06.087.21.131.452.131.232 0 .38-.046.44-.14.061-.092.092-.315.092-.668 0-.298-.032-.488-.095-.571-.064-.083-.21-.125-.44-.125zm1.559-.415h.559l-.015.359.012.002c.114-.258.352-.388.713-.388.422 0 .656.144.703.432h.01c.11-.288.35-.432.72-.432.54 0 .81.272.81.816V65h-.558v-1.423c0-.33-.136-.496-.408-.496-.34 0-.51.185-.51.554V65h-.56v-1.445c0-.194-.025-.321-.076-.382-.052-.061-.16-.092-.326-.092-.344 0-.515.189-.515.566V65h-.56v-2.334zm4.634-.999v.467h-.559v-.467h.56zm0 .999V65h-.559v-2.334h.56zm2.044 1.587h.562v.09c0 .456-.342.684-1.026.684-.463 0-.767-.08-.91-.237-.143-.158-.215-.492-.215-1.003 0-.454.075-.76.225-.916.15-.156.441-.234.876-.234.417 0 .696.076.837.228.142.152.213.451.213.897v.171h-1.58a2.113 2.113 0 0 0-.005.103c0 .23.036.382.107.459.07.076.212.114.423.114.205 0 .339-.022.4-.067.062-.045.093-.141.093-.29zm.005-.662l-.002-.092c0-.186-.032-.306-.097-.362-.064-.055-.204-.083-.418-.083-.209 0-.344.034-.407.1-.063.067-.094.213-.094.437h1.018zm1.014-.925h.554l-.022.393.013.003c.109-.282.353-.423.732-.423.552 0 .828.257.828.772V65h-.56v-1.494l-.012-.164c-.026-.174-.162-.26-.41-.26-.376 0-.564.177-.564.534V65h-.559v-2.334zm2.567 0h1.819v.481l-1.25 1.428h1.25V65h-1.917v-.49l1.238-1.42h-1.14v-.424zm2.767.676h-.572c0-.28.065-.467.196-.561.13-.095.388-.142.774-.142.42 0 .704.058.852.173.148.116.222.337.222.662V65h-.56l.028-.32-.015-.002c-.107.232-.356.349-.745.349-.564 0-.847-.24-.847-.72 0-.485.29-.728.867-.728.386 0 .62.089.703.266h.01v-.378c0-.182-.032-.303-.095-.363-.064-.06-.194-.089-.391-.089-.285 0-.427.11-.427.327zm.373.613c-.316 0-.473.11-.473.327 0 .152.032.25.097.298.065.047.202.07.41.07.34 0 .51-.114.51-.343 0-.235-.18-.352-.544-.352zm3.469-.613h-.572c0-.28.065-.467.196-.561.13-.095.388-.142.773-.142.42 0 .704.058.853.173.148.116.222.337.222.662V65h-.56l.027-.32-.014-.002c-.108.232-.356.349-.745.349-.565 0-.847-.24-.847-.72 0-.485.289-.728.867-.728.385 0 .62.089.703.266h.01v-.378c0-.182-.032-.303-.096-.363-.063-.06-.193-.089-.39-.089-.285 0-.427.11-.427.327zm.373.613c-.316 0-.474.11-.474.327 0 .152.033.25.098.298.065.047.202.07.41.07.34 0 .51-.114.51-.343 0-.235-.181-.352-.544-.352zm2.205-2.288v1.385l.013.002c.104-.276.343-.415.717-.415.546 0 .818.258.818.774V65h-.559v-1.509c0-.273-.139-.41-.417-.41-.381 0-.572.198-.572.593V65h-.559v-3.333h.56zm3.114.972c.45 0 .746.072.886.216.14.144.21.448.21.912 0 .518-.068.857-.205 1.018-.137.161-.425.242-.864.242-.477 0-.786-.075-.927-.225-.14-.15-.21-.48-.21-.989 0-.49.068-.808.207-.954.138-.147.44-.22.903-.22zm-.005.442c-.233 0-.38.042-.444.126-.064.084-.095.28-.095.587 0 .352.03.571.09.66.06.087.21.131.451.131.233 0 .38-.046.441-.14.061-.092.092-.315.092-.668 0-.298-.032-.488-.095-.571-.064-.083-.21-.125-.44-.125zm1.573-.415h.56l-.035.327.012.003a.668.668 0 0 1 .63-.367c.41 0 .615.26.615.777v.163h-.527c.006-.063.01-.105.01-.124 0-.25-.097-.374-.29-.374-.278 0-.416.185-.416.554V65h-.559v-2.334zm2.664.676h-.57c0-.28.064-.467.194-.561.13-.095.389-.142.774-.142.42 0 .704.058.852.173.149.116.223.337.223.662V65h-.56l.027-.32-.014-.002c-.108.232-.356.349-.745.349-.565 0-.847-.24-.847-.72 0-.485.289-.728.867-.728.385 0 .62.089.703.266h.01v-.378c0-.182-.032-.303-.096-.363-.063-.06-.193-.089-.39-.089-.285 0-.428.11-.428.327zm.374.613c-.316 0-.474.11-.474.327 0 .152.033.25.098.298.065.047.202.07.41.07.34 0 .51-.114.51-.343 0-.235-.181-.352-.544-.352z"/>
        </g>
        <path fill="url(#a)" d="M229.594 0c-7.594 7.224-9.492 16.971-5.696 29.241 5.696 18.405 25.81 22.261 33.398 18.405 5.06-2.57 9.291-7.525 12.696-14.864V15.028C270.235 5.009 265.086 0 254.542 0h-24.948z" transform="translate(1 1)"/>
        <path fill="#BA0033" d="M136.189 27.284h7.904V22.46h-7.904z"/>
        <path fill="#124080" d="M122.132 36.465l1.527-10.313c.49-3.309.983-6.617 1.51-10.167h-7.887c.144-1.165.155-2.123.425-3 .1-.33.801-.665 1.23-.669 5.077-.046 10.153-.03 15.229-.03h4.192l-.502 3.645c-2.11 0-4.166.052-6.219-.02-1.116-.04-1.634.195-1.808 1.473-.817 5.986-1.79 11.95-2.641 17.932-.132.925-.49 1.194-1.345 1.161-1.204-.046-2.41-.012-3.711-.012"/>
        <path fill="#12407F" d="M137.042 25.132l-.344 1.187h6.35l-.383-1.957c-.584-1.235-1.482-1.576-2.85-1.357-1.39.223-2.074 1.126-2.773 2.127m10.072 3.537h-10.778c-.729 2.32.49 4.507 2.839 4.558 2.237.048 4.488-.533 6.72-.835.244 2.423-.412 3.484-3.078 4.013-1.46.289-2.998.484-4.469.355-4.088-.357-6.5-2.9-6.855-6.95-.395-4.511 1.986-8.445 5.942-9.471 1.423-.37 2.99-.452 4.458-.31 2.92.282 4.837 2.38 5.203 5.462.115.973.018 1.971.018 3.178"/>
        <path fill="#BA0033" d="M62.989 33.541c4.108.922 7.304-1.925 6.686-5.772-.203-1.264-.746-2.256-2.125-2.486-1.236-.207-3.262.761-3.511 1.885-.466 2.103-.714 4.256-1.05 6.373m-1.04-17.878h3.716l-1.154 7.969c.632-.343 1.083-.604 1.548-.839 3.152-1.595 6.234-.21 7.167 3.215 1.4 5.143-1.304 9.445-6.524 10.379-2.58.461-5.755.277-7.746-.487l2.993-20.237M54.344 25.566c-4.145-.818-7.443 2.413-6.602 6.26.263 1.202.964 1.922 2.228 1.981 1.363.064 3.304-.852 3.447-1.722.352-2.137.616-4.289.927-6.52m4.157-3.154l-2.008 13.807h-3.532l-.153-.917c-.16.029-.306.023-.421.08-.503.252-.98.567-1.498.777-3.31 1.342-6.209-.32-6.758-3.859-.74-4.762 2.1-8.81 6.841-9.52 1.984-.299 4.018-.26 6.03-.365.457-.024.918-.003 1.5-.003M115.569 25.443c-2.044-.205-3.834.05-5.235 1.532-1.39 1.472-1.83 3.263-1.28 5.222.317 1.136 1.19 1.737 2.344 1.584 1.27-.168 2.84-.24 3.199-1.775.489-2.089.647-4.256.972-6.563m2.127 10.786h-3.572l-.096-.95c-.188.039-.326.038-.435.095-.291.152-.563.342-.854.493-3.598 1.873-6.897.174-7.467-3.841-.627-4.418 2.195-8.489 6.624-9.2 2.48-.398 5.028-.379 7.828-.567l-2.028 13.97zM104.332 22.717l-.446 3.224c-1.218-.147-2.326-.389-3.434-.394-2.83-.014-4.908 2.057-4.775 4.643.087 1.705 1.045 2.97 2.739 3.053 1.6.078 3.218-.25 4.946-.41-.09.708-.154 1.711-.38 2.677-.068.288-.568.625-.905.67-1.391.19-2.808.454-4.192.36-2.755-.19-4.881-1.535-5.716-4.284-.913-3.013-.216-5.75 2.172-7.852 2.892-2.544 6.262-2.688 9.991-1.687M77.792 36.243h-3.528l1.368-9.337c.158-1.075.385-2.145.459-3.226.07-1.04.525-1.39 1.526-1.285.739.078 1.491.015 2.312.015l-.192 2.388c1.714-2.017 3.301-3.698 5.842-1.783l-1.682 3.714c-2.54-1.504-4.384-.588-4.863 2.321-.384 2.33-.737 4.664-1.107 6.996-.007.04-.05.075-.135.197M87.391 22.48c.574-.027 1.034-.06 1.496-.067.65-.01 1.299-.003 2.108-.003l-2.042 13.844H85.35l2.042-13.775"/>
        <path fill="#144180" d="M87.916 20.189h1.694l4.234-4.825h-2.823z"/>
        <path fill="#BA0033" d="M39.019 19.753c-.327 1.062-.643 1.95-1.255 2.423H35.41v.344L35 25.31h2.858l-1.546 10.72h3.657c.547-3.59 1.086-7.119 1.64-10.761h2.963l.41-2.782-2.84-.157c.26-3.157 1.3-3.83 5.487-3.652l.353-2.674c-4.203-1.644-7.73-.253-8.963 3.749"/>
        <path fill="#124080" d="M143.528 49.989c-.1-.156-.107-.227-.186-.249l-6.275 1.523a3.147 3.147 0 0 0-.031.145c-1.286 6.54-2.712 13.578-4.105 20.536l-.13.465.044-.03-.02.094c.15-.13.293-.255.43-.377l4.063-2.808 3.074-16.58.054-.226 4.49 9.517 4.074-3.524c-1.734-2.84-3.773-5.836-5.482-8.486M152.578 41.001l-9.554 2.205-.451-4.833-4.725.42c.1 1.407.114 2.722.307 4.01.176 1.17-.161 1.665-1.358 1.906-2.834.57-5.636 1.305-8.535 1.993l.506 5.562c.599-.188 1.037-.309 1.464-.463a32779.53 32779.53 0 0 0 20.526-7.435c1.11-.421 1.809-.685 2.231-.88l-.411-2.485z"/>
        <g fill="#D82332">
            <path d="M69.018 42.43l-.407.806.327-.024c.115-.106.513-.514.803-.783-.141 0-.494-.007-.723 0M67.374 44.231c-.919.563-1.157 1.354-1.14 1.909.04 1.012 1.343 1.443 2.263-.024-.09.554-.124.652-.116.816h.707c-.01-.14-.04-.246.046-.772.05-.383.325-1.389.581-2.287-.311-.073-1.422-.204-2.341.358zm.759 1.942c-.507.656-1.543.454-.946-.818.569-1.182 1.484-1.097 1.809-1.04 0 0-.28 1.106-.863 1.858zM70.918 44.24c.174-.654.415-1.353.565-1.803-.399 0-.548.009-.805.005-.066.251-.821 2.764-.861 3.596-.08 1.04 1.298 1.358 2.186.598.487-.431.66-.823.834-1.303.501-1.461-.94-2.268-1.92-1.093zm1.085 1.248c-.278.843-.696 1.107-1.1 1.064-.516-.012-.397-.85-.225-1.285.332-.87.69-1.046 1.1-1.027.358.024.53.293.225 1.248zM75.494 43.799c-.168-.155-.964-.073-1.352.93.159-.555.186-.8.221-.93h-.796c-.034.57-.503 2.617-.698 3.133h.768c.054-.32.164-.921.39-1.665.274-.791.787-1.11 1.282-.774.058-.215.105-.437.185-.694M76.297 43.213c.244.008.412-.141.474-.415.071-.293-.062-.464-.234-.468-.24-.008-.432.173-.496.392-.068.24.054.482.256.491M75.123 46.932h.774c.144-.988.4-2.2.622-3.133h-.716c-.167.87-.432 2.23-.68 3.133M78.515 44.231c.495-.033.579.143.654.213.088-.254.22-.588.22-.588-.618-.13-2.063-.204-2.728 1.295-.51 1.394.551 1.86 1.032 1.874.341.036.725-.061.911-.135.031-.088.07-.232.132-.432-.256.113-.631.226-.993.16-.362-.065-.668-.388-.482-1.082.185-.694.654-1.28 1.254-1.305M82.553 43.866c-.12-.017-.867-.098-1.372-.005-.504.091-1.424.476-1.848 1.326-.425.851-.279 1.884.662 1.878.874-.019 1.273-.85 1.345-.972-.048.386-.106.709-.119.839h.709c0-.075-.01-.354.064-.806.126-.764.4-1.746.559-2.26zM81.38 45.53c-.35.783-.875 1.027-1.145.996-.133-.018-.67-.25-.233-1.148.61-1.132 1.462-1.097 1.77-1.035-.061.387-.204.766-.392 1.187zM82.933 44.271c-.31.629.327 1.014.566 1.224.794.538.52 1.171-.098 1.178-.405.009-.675-.159-.96-.36-.042.275-.073.573-.08.619.238.074.538.136 1.013.15.602.02 1.106-.233 1.228-.682 0 0 .258-.601-.361-1.141-.618-.539-.742-.677-.68-.905.062-.229.52-.49 1.165-.009.107-.26.15-.343.222-.546-.473-.11-1.662-.269-2.015.472M89.418 42.442c-.052.493-.212.975-.331 1.42-.123-.063-2.045-.455-2.628 1.348-.367 1.248.253 1.722.689 1.786.468.057.848-.106 1.379-.791a5.6 5.6 0 0 1-.187.727h.778c.017-.132.053-.377.14-.793.218-1.02.602-2.577.964-3.702-.446.016-.645 0-.804.005zm-.7 2.926c-.334 1.008-1.005 1.163-1.305 1.073-.133-.025-.601-.285-.124-1.336.531-1.168 1.45-1.079 1.723-.907-.139.613-.227.97-.294 1.17zM91.951 43.736c-.055-.01-.178-.008-.178-.008-.826-.017-1.736.642-1.965 1.506-.274 1.026.265 1.762 1.024 1.81.76.05 1.016-.18 1.22-.26.07-.204.123-.358.167-.481-.123.113-.742.48-1.236.293-.478-.163-.619-.578-.53-.97.44.04.944.098 1.598-.335.77-.49.841-1.454-.1-1.555zm-.14 1.047c-.358.564-1.03.537-1.276.515.017-.114.155-.448.451-.781.51-.524 1.183-.296.824.266zM101.248 44.36V43.8h-.82c.325-1.712.985-2.733 2.38-2.11.043-.257.121-.672.121-.672-.578.033-2.898.161-3.381 2.782h-1.054l-.157.562h1.111c-.2.925-.516 1.879-.716 2.466-.278.771-1.02 1.677-2.478 1.652-1.457-.025-2.08-1.433-1.948-2.214.133-.784.703-1.95 2.22-2.166.51-.061.922.123 1.12.22-.032-.12-.262-.261-.468-.34-1.449-.497-3.384.667-3.507 2.29-.125 1.622 1.272 2.478 2.438 2.478 1.378.062 2.737-.653 3.407-1.932.322-.681.742-2.23.785-2.454h.947M66.753 44.36V43.8h-.821c.326-1.712.985-2.733 2.38-2.11.044-.257.122-.672.122-.672-.579.033-2.9.161-3.382 2.782h-1.054l-.157.562h1.112c-.198.925-.517 1.879-.715 2.466-.279.771-1.02 1.677-2.479 1.652-1.458-.025-2.08-1.433-1.948-2.214.133-.784.703-1.95 2.22-2.166.51-.061.92.123 1.12.22-.032-.12-.262-.261-.468-.34-1.45-.497-3.384.667-3.508 2.29-.124 1.622 1.272 2.478 2.439 2.478 1.377.062 2.737-.653 3.405-1.932.323-.681.743-2.23.786-2.454h.948M117.75 43.873c-.31-.073-1.422-.204-2.34.358-.92.563-1.157 1.354-1.14 1.909.04 1.012 1.343 1.443 2.26-.024-.087.554-.123.652-.113.816h.707c-.009-.14-.04-.246.046-.772.049-.383.325-1.39.58-2.287zm-1.581 2.3c-.508.656-1.544.454-.946-.818.569-1.183 1.483-1.097 1.807-1.041 0 0-.276 1.106-.861 1.859zM106.718 43.873c-.311-.073-1.422-.204-2.342.358-.917.563-1.156 1.354-1.139 1.908.039 1.014 1.344 1.444 2.262-.023-.088.554-.124.652-.116.816h.709c-.01-.14-.041-.246.046-.772.049-.383.325-1.389.58-2.287zm-1.582 2.3c-.508.656-1.543.454-.946-.818.57-1.183 1.484-1.097 1.809-1.041 0 0-.28 1.107-.863 1.859zM103.756 43.799c-.168-.155-.963-.073-1.353.93.159-.555.186-.8.222-.93h-.795c-.036.57-.503 2.617-.698 3.133h.769c.051-.32.161-.921.388-1.665.273-.791.787-1.11 1.282-.774.058-.215.104-.437.185-.694M114.056 43.26c.243.01.41-.14.474-.41.072-.295-.063-.467-.235-.47-.239-.008-.432.171-.495.391-.068.239.053.483.256.49M113.614 43.799c-.165.872-.431 2.23-.68 3.133h.774c.145-.988.4-2.2.623-3.133h-.717M110.332 45.151c-.51 1.394.55 1.86 1.031 1.874.34.036.725-.061.91-.135.031-.088.07-.232.132-.432-.256.113-.63.226-.993.16-.363-.065-.668-.388-.482-1.082.186-.694.654-1.28 1.254-1.305.496-.033.58.143.655.213.088-.254.22-.588.22-.588-.618-.13-2.064-.204-2.727 1.295M108.853 43.878c-.264.099-.61.32-1.007.916.099-.366.195-.782.265-.995h-.776c-.09.823-.531 2.601-.716 3.133h.76c.07-.441.317-1.42.503-1.803.29-.827 1.601-1.422 1.456-.18a50.24 50.24 0 0 1-.44 1.983h.695c0-.082.024-.296.069-.577.033-.28.23-1.07.349-1.667.177-.636-.448-1.11-1.158-.81"/>
        </g>
    </g>
</svg>
