<?xml version="1.0" encoding="utf-8"?>
<!-- Generator: Adobe Illustrator 21.1.0, SVG Export Plug-In . SVG Version: 6.00 Build 0)  -->
<svg version="1.1" id="Layer_1" xmlns="http://www.w3.org/2000/svg" xmlns:xlink="http://www.w3.org/1999/xlink" x="0px" y="0px"
	 viewBox="0 0 457.4 682" style="enable-background:new 0 0 457.4 682;" xml:space="preserve">
<style type="text/css">
	.st0{fill:#D9248F;}
</style>
<g>
	<g>
		<g>
			<path class="st0" d="M190.3,576c-0.7-0.3-1.4-0.5-2.1-0.8l-0.5-0.2c-0.4-0.1-0.8,0-0.9,0.4c-0.1,0.4,0,0.8,0.4,0.9l0.5,0.2
				c0.7,0.3,1.4,0.5,2.1,0.8c0.1,0,0.2,0,0.2,0c0.3,0,0.5-0.2,0.6-0.4C190.8,576.5,190.7,576.1,190.3,576z"/>
			<path class="st0" d="M211.3,581.7c-0.9-0.1-1.8-0.3-2.7-0.4c-0.4-0.1-0.7,0.2-0.8,0.6c-0.1,0.4,0.2,0.7,0.6,0.8
				c0.4,0.1,0.7,0.1,1.1,0.2c-0.2,0.1-0.4,0.3-0.4,0.6l0,2.8c0,0.4,0.3,0.7,0.7,0.7h0c0.4,0,0.7-0.3,0.7-0.7l0-2.8
				c0-0.2-0.1-0.4-0.2-0.5c0.3,0,0.6,0.1,0.9,0.1c0,0,0.1,0,0.1,0c0.3,0,0.6-0.2,0.7-0.6C212,582.1,211.7,581.8,211.3,581.7z"/>
			<path class="st0" d="M195.4,578.2c-1-0.4-1.8-0.7-2.4-1c-0.3-0.2-0.8-0.1-0.9,0.3c-0.2,0.3-0.1,0.8,0.3,0.9
				c0.7,0.4,1.6,0.7,2.6,1.1c0.1,0,0.2,0,0.2,0c0.3,0,0.5-0.2,0.6-0.5C195.9,578.7,195.7,578.3,195.4,578.2z"/>
			<path class="st0" d="M205.9,580.8c-0.9-0.2-1.8-0.4-2.7-0.5c-0.4-0.1-0.7,0.2-0.8,0.5c-0.1,0.4,0.2,0.7,0.5,0.8
				c0.9,0.2,1.8,0.4,2.7,0.6c0,0,0.1,0,0.1,0c0.3,0,0.6-0.2,0.7-0.6C206.6,581.3,206.3,580.9,205.9,580.8z"/>
			<path class="st0" d="M200.6,579.7c-0.9-0.2-1.8-0.5-2.6-0.7c-0.4-0.1-0.7,0.1-0.9,0.5c-0.1,0.4,0.1,0.7,0.5,0.9
				c0.8,0.2,1.7,0.5,2.7,0.7c0.1,0,0.1,0,0.2,0c0.3,0,0.6-0.2,0.7-0.5C201.2,580.1,201,579.8,200.6,579.7z"/>
			<path class="st0" d="M281,589.2c-1.1-0.1-2-0.1-2.7-0.2c-0.4-0.1-0.7,0.2-0.8,0.6c0,0.4,0.2,0.7,0.6,0.8c0.7,0.1,1.7,0.1,2.8,0.2
				c0,0,0,0,0,0c0.4,0,0.7-0.3,0.7-0.7C281.6,589.6,281.3,589.3,281,589.2z"/>
			<path class="st0" d="M291.9,589.4l-2.7,0c0,0,0,0,0,0c-0.4,0-0.7,0.3-0.7,0.7c0,0.4,0.3,0.7,0.7,0.7l2.8,0c0,0,0,0,0,0
				c0.4,0,0.7-0.3,0.7-0.7C292.6,589.8,292.3,589.4,291.9,589.4z"/>
			<path class="st0" d="M286.4,589.4c-1,0-1.9,0-2.7-0.1c-0.4,0-0.7,0.3-0.7,0.7c0,0.4,0.3,0.7,0.7,0.7c0.9,0,1.8,0,2.8,0.1
				c0,0,0,0,0,0c0.4,0,0.7-0.3,0.7-0.7C287.1,589.7,286.8,589.4,286.4,589.4z"/>
			<path class="st0" d="M341.5,588.2c-0.9,0.1-1.8,0.1-2.7,0.2c-0.4,0-0.7,0.3-0.6,0.7c0,0.4,0.3,0.7,0.7,0.7c0,0,0,0,0,0
				c1-0.1,1.9-0.1,2.8-0.2c0.4,0,0.7-0.3,0.6-0.7C342.2,588.4,341.9,588.1,341.5,588.2z"/>
			<path class="st0" d="M336,588.5l-2.8,0.1c-0.4,0-0.7,0.3-0.7,0.7c0,0.4,0.3,0.7,0.7,0.7c0,0,0,0,0,0l2.8-0.1
				c0.4,0,0.7-0.3,0.7-0.7C336.7,588.7,336.4,588.4,336,588.5z"/>
			<path class="st0" d="M355.1,390.4l-3-46.7c-0.5-15.3-4.8-146.5-5.7-153.3c-0.9-6.7-9.4-98.3-9.5-99.2c0-0.1,0-0.1,0-0.2
				c0-0.2-3.4-23.1-4.2-32.2c-0.1-1.2-0.7-2.2-1.7-2.9c-0.4-0.2-0.7-0.4-1.2-0.5c-0.1-1.9-0.3-4-0.6-6.6c-0.2-2.1-0.4-4.5-0.7-7.4
				c0-0.5-0.5-0.9-1.1-0.9c-0.5,0-0.9,0.5-0.9,1.1c0.2,2.9,0.5,5.3,0.7,7.4c0.2,2.5,0.4,4.6,0.6,6.4c-0.1,0-0.1,0-0.2,0
				c-5.5,1.7-72.4,4.8-126,4.8c-23.6,0-39.8-0.6-46.8-1.8c-0.1,0-0.3,0-0.4,0c0.1-0.9,0.1-1.9,0.2-3.1c0.2-3.4,0.6-8,0.7-12.3
				c0-0.5-0.4-1-1-1c-0.5,0-1,0.4-1,1c-0.1,4.3-0.4,8.9-0.7,12.2c-0.1,1.5-0.2,2.7-0.2,3.7c-0.2,0.1-0.4,0.2-0.6,0.4
				c-0.9,0.7-1.4,1.7-1.5,2.8l-2.4,25.7c-0.3,2.7-7.1,68.6-8.1,89c-0.6,12.6,0.7,64.4,1.8,106.1c0.6,24.5,1.2,47.7,1.1,49.9
				c-0.3,3,0.2,28.5,0.9,66.9c0.4,24.5,0.9,52.3,0.8,54.6c-1.2,17.5-1.1,111.7-1.1,127.2c-4.9,3.4-10.8,6.5-16.5,9.5
				c-12,6.3-21.4,11.3-22.5,18.8c-0.1,0.7-0.2,1.5-0.3,2.3c-0.6,4.5-1.5,10.7-1.5,15.9c0,5.7,7.9,7.9,16.4,9.3
				c7.7,1.3,16.3,1.9,21.4,1.9c14,0,28.1-6.2,30.8-7.4l0.1-0.1c4.9-2.3,6.3-2.9,7.6-2.9c0.8,0,1.8,0.2,3.4,0.4l0.3,0
				c1.2,0.2,2.6,0.3,4.1,0.3c12.1,0,29.5-6.3,30.2-6.5c1.5-0.5,2.5-2,2.6-3.6l0.3-15.3c0-0.8,0.1-3.3-0.9-8.2c0.3,0,0.6,0,1,0
				c1.1,0,1.8,0,1.9,0c0,0,0.1,0,0.1,0c1,0,2-0.4,2.7-1.1c0.8-0.7,1.2-1.8,1.2-2.8c0-1.5,0.3-155,0.9-192
				c0.5-33.1,10-150.4,14.7-192.7c6,23.3,15.8,68.4,17.9,90.8c2.1,22.1,6.6,57.5,9,76.5c0.9,6.7,1.5,11.6,1.6,12.8
				c0.4,4.6,2.4,139.8,3.4,210.6c0,2.1,1.6,3.7,3.7,3.9l7.1,0.4l-1.1,4.8c-1.2,3.2-6.5,25.5-2.9,31.7c1,1.7,2.6,2.7,4.5,2.7
				c0.1,0,0.3,0,0.4,0c2.5,0.2,7.7,0.3,16.2,0.3c9.1,0,20.5-0.1,29.7-0.2c6.7-0.1,12.4-0.1,15.8-0.1c0.7,0,1.3,0,1.7,0h0
				c1.4,0,2.8-0.8,3.4-2.1c2.5-4.7,1.8-11.2,1.5-14.7c0-0.5-0.1-0.9-0.1-1.2c0-0.2-0.1-0.4-0.1-0.7c-1.8-7.3-6.5-16.5-9.5-22.1
				l7.7-0.7c2-0.2,3.6-1.9,3.6-3.9l0.4-205.3C355.1,390.6,355.1,390.5,355.1,390.4z M328.7,59.1c0.5,5.7,2,16.6,3.1,24.2
				c-7.3,1.1-30.9,2.3-57.9,3.2l-1-23.7C301.6,61.7,325,60.2,328.7,59.1z M325.5,85.3c0.2,1.7,1.5,15.7,3.6,38.2c-0.1,0-0.2,0-0.3,0
				c-18.1,2.3-31.2-0.1-40.1-7.1c-7.6-6-12.2-15.6-13.7-28.5C296.4,87.1,315,86.1,325.5,85.3z M271.4,60.9l1.2,29.7l-4.6,0.2
				l-1.2-29.8L271.4,60.9z M227.2,63.9l0,2c0,0,0,0.1,0,0.1l-1.5,0c-0.4,0-0.7,0.3-0.7,0.7c0,0.4,0.3,0.7,0.7,0.7h0l2.7,0
				c0.4,0,0.7-0.3,0.7-0.7c0-0.4-0.3-0.6-0.7-0.7c0,0,0-0.1,0-0.1l0-2c12.4-0.2,25-0.5,36.9-0.9l1,23.7c-12.1,0.4-24.9,0.7-37.5,0.8
				l0-2l2.5,0c0.4,0,0.7-0.3,0.7-0.7c0-0.4-0.3-0.6-0.7-0.7l-2.7,0c-0.2,0-0.4,0.1-0.5,0.2c-0.4,0-0.7,0.3-0.7,0.7l0,2.4
				c-0.6,0-1.3,0-1.9,0c0-0.7,0-1.3-0.1-2l0.4,0c0.4,0,0.7-0.3,0.7-0.7c0-0.4-0.3-0.7-0.7-0.7l-0.4,0c-0.4-10.4-0.6-17.9-0.7-20.3
				C225.6,63.9,226.4,63.9,227.2,63.9z M194.2,64.1c2.4,0,4.8,0,7.3,0c7.4,0,15.3-0.1,23.3-0.2c0,2.4,0.1,9.9,0.1,20.3l-1.7,0
				c-0.4,0-0.6,0.3-0.6,0.7c0,0.4,0.4,0.7,0.7,0.7h0l1.6,0c0,0.7,0,1.3,0,2c-10.8,0.1-21.3,0.2-31.1,0.2L194.2,64.1z M188.2,62
				l4.6,0.1l-0.3,29.8l-4.6-0.1L188.2,62z M152,84.2c0.7,0.1,1.5,0.2,2.4,0.2c0,0,0,0,0.1,0c0.4,0,0.7-0.3,0.7-0.6
				c0-0.4-0.2-0.7-0.6-0.7c-0.8-0.1-1.6-0.2-2.4-0.2l1.6-17.1c0.1,0.1,0.3,0.2,0.4,0.2c0.8,0.1,1.8,0.2,2.8,0.3c0,0,0,0,0.1,0
				c0.4,0,0.7-0.3,0.7-0.6c0-0.4-0.2-0.7-0.6-0.7c-1-0.1-1.9-0.2-2.7-0.3c-0.2,0-0.4,0-0.5,0.1l0.2-2.5c6.1,1,17.9,1.6,32.7,1.8
				l-0.3,23.7c-15-0.2-27.4-0.6-34.7-1.5L152,84.2z M151.7,87.9l0-0.4c7,0.8,18.7,1.3,33,1.5c-0.5,9.9-2.5,19.3-10.1,25.9l1.4-16.9
				c0-0.2,0-0.4-0.2-0.5c-0.1-0.1-0.3-0.2-0.5-0.2l-24.5-1.1C151.4,91,151.7,87.9,151.7,87.9z M150.1,103.7c0.1,0.2,0.3,0.3,0.5,0.3
				l2.7,0.1c0,0,0,0,0,0c0.4,0,0.7-0.3,0.7-0.7c0-0.4-0.3-0.7-0.7-0.7l-2.7-0.1c-0.2,0-0.4,0.1-0.5,0.2c0.2-2,0.4-3.8,0.5-5.4
				l19.8,0.9l-0.1,2.1c0,0.4,0.3,0.7,0.6,0.7c0,0,0,0,0,0c0.4,0,0.7-0.3,0.7-0.6l0.1-2.1l2.6,0.1l-0.4,5.3l-1.4-0.1
				c-0.4,0-0.7,0.3-0.7,0.7c0,0.4,0.3,0.7,0.7,0.7l1.4,0.1l-0.9,10.8c0,0,0,0,0,0c-5.4,4-13.4,6.8-25,7.4
				C148.8,116.3,149.5,109.4,150.1,103.7z M215.5,609.6c-0.2,0.1-0.5,0.1-1,0.2c-0.8,0.2-1.9,0.5-3.4,0.8c-1.5,0.3-3.3,0.7-5.3,1.2
				c-2.1,0.4-4.4,0.8-7,1.3c-0.6,0.1-1.3,0.2-1.9,0.4c-0.7,0.1-1.3,0.2-2,0.3c-1.4,0.2-2.8,0.4-4.3,0.5c-0.7,0.1-1.5,0.2-2.2,0.3
				c-0.8,0-1.5,0.1-2.3,0.1c-1.5,0-3.1-0.1-4.8-0.1c-3.3-0.1-6.7,0.6-10,1.5c-3.3,0.9-6.6,2-9.9,2.9c-6.6,1.9-13.4,3.5-19.8,4.1
				c-1.6,0.2-3.2,0.2-4.7,0.1c-1.6-0.1-3.1-0.3-4.6-0.4c-3-0.2-5.8-0.4-8.4-0.6c-2.6-0.2-4.9-0.5-7-0.8c-2.1-0.4-3.9-0.8-5.3-1.3
				c-1.4-0.5-2.5-1-3.2-1.4c-0.7-0.4-1.1-0.6-1.1-0.6s0.4,0.2,1,0.7c0.7,0.4,1.8,1,3.2,1.5c1.4,0.5,3.2,1,5.3,1.4
				c2.1,0.4,4.4,0.7,7,1c2.6,0.2,5.4,0.5,8.3,0.8c1.5,0.2,3,0.3,4.5,0.5c0.8,0.1,1.6,0.1,2.4,0.1c0.8,0,1.6,0,2.4-0.1
				c6.5-0.6,13.3-2.2,20-4c3.3-0.9,6.6-2,9.9-3c3.3-0.9,6.5-1.6,9.7-1.5c1.6,0,3.2,0.1,4.8,0.1c0.8,0,1.6-0.1,2.3-0.1
				c0.8-0.1,1.5-0.2,2.2-0.3c1.5-0.2,2.9-0.4,4.3-0.6c0.7-0.1,1.4-0.2,2-0.3c0.7-0.1,1.3-0.3,1.9-0.4c2.5-0.5,4.9-1,6.9-1.5
				c2-0.5,3.8-1,5.3-1.3c1.5-0.4,2.6-0.7,3.4-0.9C215,609.7,215.3,609.6,215.5,609.6l-0.2,9.6c0,0-17.3,6.3-28.9,6.3
				c-1.3,0-2.4-0.1-3.5-0.2c-1.9-0.3-3.2-0.5-4.3-0.5c-2.2,0-4,0.8-9.4,3.3c-2.2,1-15.9,7-29.1,7c-10.2,0-33.9-2.5-33.9-7.3
				c0-4.5,0.7-9.8,1.3-14c5.2,3.4,14,4,21.7,4.6c2.5,0.2,4.9,0.4,7.1,0.6c0.8,0.1,1.6,0.1,2.5,0.1c9.3,0,24.5-4.6,30.5-6.5
				c0.9-0.3,1.5-0.5,1.9-0.6c6.2-1.8,8.7-1.7,11.7-1.5c1.6,0.1,3.2,0.1,5.4-0.1c9.9-0.8,24.6-4.6,27.3-5.4L215.5,609.6z
				 M215.7,603.7C215.6,603.7,215.6,603.7,215.7,603.7c-1.3,0.4-17.1,4.6-27.4,5.4c-2.2,0.2-3.7,0.1-5.3,0.1
				c-3-0.1-5.8-0.2-12.1,1.6c-0.4,0.1-1.1,0.3-1.9,0.6c-6.5,2-23.9,7.3-32.4,6.3c-2.2-0.3-4.6-0.4-7.1-0.6
				c-7.8-0.6-16.7-1.3-21.5-4.7c0,0-0.1,0-0.1-0.1c0.1-0.8,0.2-1.5,0.3-2.2c1.1-8.4,22-15.3,36.4-25c0.2-0.1,0.5-0.2,0.7-0.4
				c0,0,0.1-0.1,0.2-0.2c0.1,0,0.1-0.1,0.2-0.2c0.5-0.4,1-0.7,1.5-1.1c0,0,2.1-4.3,2.6-5.8c0.6-1.6,1-3.4,1.7-5.1
				c0.1-0.3,0.3-0.6,0.3-0.7l0.6-0.1c1-0.2,2.1-0.4,3.2-0.6c2.2-0.4,4.5-0.8,6.9-1.1c1.2-0.1,2.5-0.3,3.5-0.3
				c1.1,0.1,2.4,0.4,3.6,0.6c2.5,0.5,5.1,1.1,7.6,1.7c1.3,0.3,2.5,0.7,3.7,1.1c0.6,0.2,1.2,0.4,1.7,0.7c0.1,0.1,0.2,0.1,0.3,0.2
				c0,0,0,0,0,0c0.1,0.3,0.1,0.4,0.1,0.7c0.3,2.4,0.2,5,0,7.4c-0.1,1.2-0.2,2.4-0.4,3.6c-0.1,0.5-0.2,1.2-0.1,1.9
				c0,0.6,0.2,1.2,0.3,1.8c0.6,2.2,1.5,4.2,2.3,6c1.6,3.6,3.2,6.5,4.3,8.5c1.1,2,1.8,3.1,1.8,3.1s-0.6-1.2-1.6-3.2
				c-1-2.1-2.5-5-3.9-8.7c-0.4-0.9-0.7-1.9-1.1-2.9c0,0,0.1,0,0.1,0c0,0,0.1,0,0.1,0c2.7-0.5,5.1-1.3,6.9-2c1.7,1.3,3.2,2.5,3.6,3.1
				c0.2,0.2,0.3,0.4,0.6,0.5c3.4,2,7.7,2.3,12.7,2.3c0.9,0,1.8,0,2.7,0c1.1,0,2.3,0,3.6,0C215.8,601.2,215.7,603.6,215.7,603.7z
				 M184.1,590.7c-0.2-0.6-0.4-1.2-0.5-1.9c-0.1-0.5-0.2-1.1-0.2-1.6c0-0.5,0.1-1,0.2-1.6c0.1-0.4,0.1-0.7,0.2-1.1
				c1.5,0.8,4.1,2.6,6.5,4.4c-1.6,0.6-3.7,1.2-5.9,1.6C184.3,590.6,184.2,590.7,184.1,590.7z M222.5,399.7
				c-0.5,32-0.8,149.7-0.9,183.1c-0.1-0.1-0.3-0.2-0.5-0.2c-0.5,0-1.1,0-1.7-0.1c-0.4,0-0.7,0.3-0.7,0.7c0,0.4,0.3,0.7,0.7,0.7
				c0.6,0,1.2,0.1,1.7,0.1h0c0.2,0,0.4-0.1,0.5-0.2c0,5.1,0,7.9,0,7.9s-0.8,0-2,0c-1,0-2.2,0-3.3,0.1c-0.1,0-0.1,0-0.2,0
				c-1.8,0-3.4,0-5,0c-0.2,0-0.4,0-0.6,0c0,0,0,0,0,0l0-2.8c0-0.4-0.3-0.7-0.7-0.7c0,0,0,0,0,0c-0.4,0-0.7,0.3-0.7,0.7l0,2.8
				c0,0,0,0,0,0.1c-4.7,0-8.4-0.1-11.1-1.6c-2.2-2.4-10.7-8.6-13.4-9.7c0,0-0.1,0-0.1,0c0.2-2,0.4-4.1,0.2-6.2
				c0-0.3-0.1-0.9-0.2-1.1c-0.2-0.5-0.5-0.7-0.6-0.8c-0.2-0.1-0.3-0.2-0.5-0.3c-0.6-0.3-1.3-0.6-1.9-0.8c-1.3-0.5-2.5-0.9-3.8-1.3
				c-2.5-0.8-5.1-1.5-7.6-2.1c-1.3-0.3-2.5-0.6-3.9-0.8c-1.6-0.1-2.7,0-4,0.1c-2.5,0.2-4.9,0.5-7.1,0.8c-1.1,0.2-2.2,0.3-3.3,0.5
				l-0.8,0.1l-0.2,0c-0.2,0-0.4,0.1-0.6,0.2c-0.2,0.1-0.3,0.2-0.4,0.3c-0.1,0.1-0.2,0.2-0.3,0.3c-0.7,0.7-0.9,1.3-1.1,1.8
				c-0.5,1.2-0.9,2.3-1.3,3.3c0-26.6,0.1-104.6,1.1-120.1c0.4-5.3-2.1-115.6-1.6-121.4c0.5-5.8-3.8-135.6-2.8-156.1
				c0.5-10.2,2.5-32.3,4.4-51.8c18.9-1,36.4-6.2,38.1-35.9c0.2,0,0.3,0,0.5,0l0,3.5c0,0.4,0.3,0.7,0.7,0.7l6,0.1h0
				c0.2,0,0.4-0.1,0.5-0.2c0.1-0.1,0.2-0.3,0.2-0.5l0-3.5c2.2,0,4.4,0,6.7,0c7.8,0,16-0.1,24.4-0.2c0.1,12.2,0.2,27.5,0.2,42.8
				c0.1,8.6,0.2,17.2,0.3,25.2c0.1,4.2,0.9,8.1,1.8,11.7c0.5,1.8,1,3.6,1.6,5.3c0.3,0.9,0.6,1.7,1.1,2.5c0.4,0.7,0.7,1.5,1.1,2.2
				c0.1,0.1,0.1,0.2,0.2,0.4c0,0.1,0,0.1,0,0.2c-0.5,0-1.1,0.1-1.6,0.1l-5.3,0.3c-0.9,0-1.8,0.1-2.6,0.1l-2.7,0l-2.7,0.1l-2.7,0.2
				c-1.8,0.2-3.6,0.3-5.3,0.5c-1.8,0.2-3.5,0.4-5.3,0.7c-1.8,0.3-3.5,0.5-5.3,0.8c-1.8,0.3-3.5,0.7-5.2,1.1
				c-1.7,0.4-3.5,0.7-5.2,0.9c-1.8,0.2-3.5,0.1-5.3-0.3c1.7,0.5,3.5,0.7,5.3,0.5c1.8-0.1,3.6-0.4,5.3-0.7c1.8-0.3,3.5-0.7,5.2-0.9
				l5.3-0.6c1.8-0.2,3.5-0.4,5.3-0.6c1.8-0.2,3.5-0.3,5.3-0.4l2.7-0.2l2.6,0l2.6,0c0.9,0,1.8-0.1,2.7-0.1l5.3-0.2
				c0.7,0,1.5-0.1,2.2-0.1c0.6,1.5,1.2,2.9,1.7,4.3c-0.1,0.7-0.2,1.5-0.4,2.5c-0.2,1.5-0.4,3.3-0.7,5.4c-0.6,0.2-1.2,0.5-1.8,0.7
				l0-0.2c0-0.4-0.2-0.7-0.6-0.8c-0.4-0.1-0.7,0.2-0.8,0.6l-0.1,0.9c-0.2,0.1-0.4,0.2-0.7,0.2c-0.9,0.3-1.9,0.6-2.9,0.9
				c-1,0.3-1.9,0.5-3,0.4c1,0.1,2-0.1,3-0.3c1-0.2,1.9-0.5,2.9-0.8c0.2-0.1,0.4-0.1,0.6-0.2l-0.2,1.5c0,0.4,0.2,0.7,0.6,0.8
				c0,0,0.1,0,0.1,0c0.3,0,0.6-0.3,0.7-0.6l0.3-2.2c0.6-0.2,1.2-0.4,1.8-0.6c-0.3,2.1-0.5,4.4-0.8,7c-1.3,11.1-2.9,27.1-4.8,46.2
				c-1.8,19.1-3.9,41.4-5.9,65.4c-1,12-2,24.3-3,36.9c-1,12.6-1.9,25.3-2.6,38.1c-0.2,3.2-0.3,6.4-0.4,9.6c-0.1,3.2-0.1,6.4-0.1,9.6
				c0,6.4-0.1,12.7-0.1,19c-0.1,12.6-0.1,25-0.2,37c-0.1,24-0.2,46.4-0.2,65.6c0,24.4,0,43.6-0.1,54.4c-0.1,0-0.1,0-0.2,0
				c-0.4,0-0.7,0.2-0.8,0.6c0,0.4,0.2,0.7,0.6,0.8c0.1,0,0.2,0,0.3,0c0,5.3,0,8.3,0,8.3s0-2.9,0-8.3c0.8,0.1,1.6,0.2,2.4,0.3
				c0,0,0,0,0.1,0c0.4,0,0.7-0.3,0.7-0.6c0-0.4-0.2-0.7-0.6-0.7c-0.8-0.1-1.6-0.2-2.5-0.3c0-10.8,0.1-30,0.2-54.4
				c0.1-19.2,0.3-41.6,0.5-65.6c0.1-12,0.2-24.4,0.3-37c0.1-6.3,0.1-12.7,0.2-19c0-3.2,0-6.4,0.2-9.6c0.1-3.2,0.2-6.4,0.4-9.6
				c0.7-12.8,1.7-25.5,2.7-38.1c1-12.6,2.1-24.9,3.1-36.9c2.1-23.9,4.2-46.2,6.2-65.3c1.9-19.1,3.6-35,4.9-46.2
				c0.3-2.9,0.7-5.5,0.9-7.7c0.2-0.1,0.3-0.1,0.5-0.2c0.6-0.2,1.2-0.5,1.8-0.7c0.1,0.4,0.3,0.8,0.4,1.2c0.8,2.3,1.3,3.9,1.6,4.8
				C233.8,231,223.1,367,222.5,399.7z M233.9,192.2c0.2-1.8,0.4-3.4,0.6-4.7c0,0,0-0.1,0-0.1c0.5,1.4,1,2.7,1.4,3.9
				c-0.6,0.3-1.2,0.5-1.8,0.8C234.1,192.1,234,192.1,233.9,192.2z M239.1,187.7c-0.1,0-0.2,0.1-0.3,0.2c-0.2-0.6-0.5-1.2-0.7-1.8
				c0.1,0.1,0.3,0.2,0.5,0.2c0.1,0,0.1,0,0.2,0c0.4-0.1,0.6-0.5,0.5-0.9c-0.2-0.8-0.5-1.7-0.8-2.7c-0.1-0.4-0.5-0.6-0.9-0.5
				c-0.4,0.1-0.6,0.5-0.5,0.9c0.2,0.7,0.4,1.4,0.6,2c-0.7-1.6-1.4-3.3-2.2-5.1l0.6,0c0.1,0.2,0.1,0.3,0.2,0.5
				c0.1,0.3,0.4,0.5,0.7,0.5c0.1,0,0.1,0,0.2,0c0.4-0.1,0.6-0.5,0.4-0.9c0-0.1,0-0.1-0.1-0.2l8.1-0.6l18.6-1.7
				c-0.1,0-0.2,0.1-0.2,0.1l-2.6,1.4L256,182c-3.6,1.8-7.2,3.5-10.8,5.2c-1.6,0.8-3.3,1.5-5,2.2c-0.1-0.4-0.2-0.8-0.3-1.2
				C239.8,187.8,239.4,187.6,239.1,187.7z M346.5,637.3c-8,0-29.8,0.3-45.5,0.3c-7,0-12.7-0.1-15.5-0.3c3.6-4.1,27.4-5.8,41.9-6
				c4.7,0,18.1,1.3,20.1,6C347.2,637.3,346.8,637.3,346.5,637.3z M348.6,636.5c-3.2-6.3-21.2-6.6-21.3-6.5c-0.4,0-39.3,0.5-43.3,7
				c-0.1,0.1-0.1,0.2-0.1,0.3c-1.4-0.5-1.7-3.9-1.4-8.3c0.3-0.1,0.6-0.3,1-0.5c1.7-0.8,4.3-1.6,7.5-2.4c6.4-1.5,15.1-2.5,23.8-2.8
				c4.4-0.2,8.7-0.2,12.8,0c4.1,0.2,7.9,0.4,11.1,0.9c3.2,0.5,5.9,1.2,7.6,2.1c0.9,0.4,1.5,0.8,1.9,1.2c0.4,0.3,0.6,0.5,0.6,0.5
				s-0.2-0.2-0.6-0.6c-0.4-0.4-1-0.8-1.8-1.3c-1.7-0.9-4.3-1.9-7.6-2.5c-3.2-0.6-7.1-1-11.2-1.2c-4.1-0.2-8.5-0.3-12.9-0.1
				c-4.4,0.2-8.8,0.5-12.8,1.1c-4.1,0.5-7.9,1.3-11,2.1c-3.2,0.8-5.8,1.9-7.5,2.7c-0.4,0.2-0.7,0.3-0.9,0.5c0.1-1.1,0.2-2.2,0.3-3.4
				c10.4-5.4,32.3-6.5,44.5-5.9c14.6,0.8,19.9,3.3,21.8,4.9C349.5,627.3,350.2,632.7,348.6,636.5z M348.9,622.6
				c-3.8-2.3-11.1-3.8-21.5-4.4c-11.9-0.6-33.2,0.4-44.2,5.6c1-7.5,2.9-15.3,3.1-15.3c0,0,0,0.2,0,0.5l1.7-7.3c0.1,0,0.3,0,0.4,0
				c0.9,0,2,0,3.4-0.1c-0.7,3.2-1.8,5.8-2.8,7.6c-0.6,1.1-1.2,1.9-1.7,2.4c-0.5,0.5-0.7,0.8-0.7,0.8s0.3-0.2,0.9-0.6
				c0.5-0.4,1.3-1.1,2.2-2.1c1.7-2,3.6-5.4,4.8-9.7c0.6-2.2,1.2-4.6,1.5-7.1c0.1-0.6,0.1-1.3,0.2-2c0,0,0-0.1,0-0.1l0.1-1.4
				c0-0.2,0-0.3,0-0.5c0.1-0.8,0.6-1.8,1.3-2.5c0.8-0.7,1.8-1.3,3-1.7c0.6-0.2,1.2-0.4,1.8-0.5l0.4-0.1l0.5-0.1l1.1-0.1
				c1.5-0.2,2.8-0.3,4.2-0.4c1.4-0.1,2.8-0.1,4.3-0.2c2.9,0,5.7,0,8.6,0.2c1.4,0.1,2.8,0.2,4.2,0.3l1,0.1l0.5,0.1l0.1,0l0,0
				c0,0,0,0,0,0l0,0l0.3,0.1c0.2,0.1,0.1,0,0.3,0.3c0.4,0.7,0.6,2.2,0.9,3.5c0.1,0.3,0.1,0.6,0.2,0.9l0.3,1.4c0.1,0.5,0.2,1,0.3,1.6
				c0.2,0.6,0.3,1.3,0.5,1.9c0.2,0.6,0.3,1.1,0.5,1.8c0.4,1.2,0.9,2.3,1.4,3.4c1.1,2.1,2.6,3.8,4.1,4.9c1.4,1.2,2.8,2,3.8,2.7
				c1.7,1.1,2.9,1.8,3.3,2.1C345.3,612.9,347.6,618.1,348.9,622.6z M335.4,600.1c1.2,0,2.3-0.1,3.3-0.1c1.1,1.9,2.7,4.8,4.4,8.3
				c-0.4-0.4-1.3-1.3-2.7-2.6c-0.9-0.9-2.1-2-3.2-3.3C336.5,601.7,335.9,600.9,335.4,600.1z M350.8,587.4c-0.3,0-0.7,0.1-1.1,0.1
				c-0.4,0-0.6,0.4-0.6,0.8c0,0.4,0.3,0.6,0.7,0.6c0,0,0.1,0,0.1,0c0.3,0,0.7-0.1,1-0.1l0,7.1l-9.4,0.9c-0.1,0-0.1,0-0.2,0
				c-1.6,0-4.1,0-7.2,0.1c-0.2-0.7-0.5-1.5-0.6-2.3c-0.1-0.5-0.2-1.2-0.4-1.7c-0.1-0.6-0.2-1.2-0.3-1.8c-0.2-1.2-0.4-2.5-0.6-3.8
				c-0.3-1.3-0.3-2.6-1-4.4c-0.2-0.4-0.5-1-1-1.4c-0.2-0.2-0.5-0.4-0.8-0.5c-0.3-0.1-0.7-0.3-0.9-0.3l-0.4-0.1l-0.2,0l-0.5-0.1
				l-1.1-0.2c-1.4-0.2-2.9-0.4-4.4-0.5c-2.9-0.2-5.9-0.3-8.9-0.3c-1.5,0.1-3,0.1-4.5,0.3c-1.5,0.2-3.1,0.3-4.4,0.5l-1.1,0.2
				l-0.5,0.1l-0.6,0.1c-0.8,0.2-1.6,0.4-2.3,0.7c-1.5,0.6-2.9,1.4-4.1,2.7c-1.2,1.2-2,2.9-2.1,4.7c0,0.7,0,1.3,0,2
				c0,0.6,0,1.2-0.1,1.9c-0.1,2-0.3,4-0.6,5.8c-1.6,0-3,0.1-3.9,0.1l-11.5-0.7c0,0-2.9-206.2-3.4-210.9c-0.5-4.7-7.8-59.4-10.6-89.3
				c-2.7-28.5-19-100-22.8-106.6c0.2-0.2,0.3-0.4,0.2-0.6c0,0,0-0.1,0-0.1c1.7-0.7,3.4-1.4,5.1-2.2c3.7-1.6,7.3-3.3,10.9-5
				c1.8-0.9,3.6-1.8,5.4-2.7l2.7-1.4c0.9-0.5,1.8-1,2.6-1.6c0.2-0.1,0.3-0.3,0.3-0.6c0-0.3-0.3-0.6-0.7-0.6h0l-21.3,1.9l-8.4,0.7
				c-0.1-0.4-0.3-0.8-0.4-1.2c-0.1-0.4-0.5-0.5-0.9-0.4c-0.4,0.1-0.5,0.5-0.4,0.9c0.1,0.3,0.2,0.6,0.3,0.8l-0.7,0.1
				c-0.3-0.6-0.6-1.2-0.9-1.8c-0.4-0.7-0.8-1.4-1.1-2.2c-0.4-0.6-0.7-1.4-1-2.1c-0.6-1.5-1.1-3.2-1.6-4.9c-0.6-2.2-1.1-4.5-1.5-6.9
				c0.1,0.2,0.3,0.3,0.5,0.3c0.1,0,0.2,0,0.3-0.1c0.4-0.2,1.4-0.6,2.5-1.2c0.3-0.2,0.5-0.6,0.3-0.9c-0.2-0.3-0.6-0.5-0.9-0.3
				c-0.2,0.1-0.5,0.2-0.7,0.4c-0.1-0.6-0.2-1.1-0.2-1.6l0-0.7c0-0.4-0.3-0.7-0.7-0.7c-0.4,0-0.7,0.3-0.7,0.7l0,0.8
				c0,0.6,0.1,1.3,0.3,2.1c0,0,0,0,0,0.1c-0.2,0.1-0.3,0.2-0.5,0.2c-0.2,0.1-0.3,0.2-0.4,0.4c-0.2-1.2-0.3-2.3-0.4-3.5
				c-0.3-8-0.7-16.6-1-25.1c-0.5-15.3-1.1-30.5-1.5-42.8c5.9-0.1,12-0.2,18-0.3c0,0.3,0,0.8,0,1.6l0,0.5c0,0.4,0.3,0.7,0.7,0.7h0
				c0.4,0,0.7-0.3,0.7-0.7l0-0.5c0-0.8,0-1.3,0-1.6c0.8,0,1.6,0,2.4-0.1c0,0.3,0,0.9,0.1,2.5c0,0.4,0.3,0.7,0.7,0.7h0
				c0.4,0,0.7-0.3,0.7-0.7c0-1.2-0.1-2-0.1-2.5c6-0.1,11.9-0.3,17.6-0.5l0.2,3.6c0,0.2,0.1,0.4,0.2,0.5c0.1,0.1,0.3,0.2,0.5,0.2
				c0,0,0,0,0,0l6-0.3c0.4,0,0.7-0.3,0.7-0.7l0-0.6c1.9,11.9,6.5,21,13.8,26.7c7,5.5,16.4,8.3,28.6,8.3c3.9,0,8.1-0.3,12.6-0.8
				c0.1,0,0.2,0,0.2-0.1c0.1,0.8,0.1,1.6,0.2,2.4c-0.9,0.1-1.7,0.2-2.6,0.3c-0.1,0-0.1,0-0.2,0.1c-0.5-1-1.6-1.7-2.8-1.7
				c-1.4,0-2.6,1-3,2.3c-0.1,0.1-0.2,0.3-0.2,0.5c0,0.1,0,0.2,0.1,0.3c0,0,0,0.1,0,0.1c0,1.7,1.4,3.1,3.1,3.1c1.7,0,3.1-1.4,3.1-3.1
				c0,0,0-0.1,0-0.1c0.8-0.1,1.7-0.2,2.6-0.3c0.1,1,0.2,2,0.3,2.9c-0.9,0.1-1.7,0.2-2.6,0.3c-0.4,0-0.7,0.4-0.6,0.8
				c0,0.4,0.3,0.6,0.7,0.6c0,0,0,0,0.1,0c0.8-0.1,1.7-0.2,2.5-0.3c0.9,9.5,1.9,20.2,3,31.8c0.6,6,1.2,12.2,1.9,18.6
				c0.3,3.2,0.7,6.5,1,9.8c0.2,3.3,0.4,6.7,0.5,10.1c0.6,13.7,1.2,28.2,1.7,43.1c1.1,29.9,2.2,61.8,3.3,93.7c0.1,4,0.4,8,0.7,12
				c0.3,4,0.5,8,0.8,11.9c0.5,7.9,1.1,15.8,1.6,23.7l0.2,2.9c0,0.9,0,2,0,2.9c0,2,0,3.9,0,5.9c0,3.9,0,7.8,0,11.6
				c0,7.7,0,15.3,0,22.8c0,29.9,0,57.9-0.1,81.8c0,34.5,0,60.7,0,72.7c-0.1,0-0.2,0-0.3,0c-0.4,0-0.7,0.4-0.6,0.7
				c0,0.4,0.3,0.6,0.7,0.6c0,0,0,0,0,0c0.1,0,0.1,0,0.2,0c0,3.8,0,5.8,0,5.8s0-2,0-5.8c0.9-0.1,1.8-0.1,2.6-0.2
				c0.4,0,0.7-0.4,0.6-0.7c0-0.4-0.4-0.7-0.7-0.6c-0.8,0.1-1.6,0.1-2.5,0.2c0-12,0.1-38.2,0.2-72.7c0.1-23.9,0.2-51.9,0.3-81.8
				c0-7.5,0.1-15.1,0.1-22.8c0-3.8,0-7.7,0-11.6c0-1.9,0-3.9,0-5.9c0-1,0-1.9,0-3l-0.2-2.9c-0.5-7.8-1-15.7-1.5-23.7
				c-0.3-4-0.5-7.9-0.8-11.9c-0.2-4-0.6-7.9-0.6-11.9c-1-31.9-2.1-63.8-3.1-93.7c-0.5-15-1-29.4-1.6-43.1c-0.1-3.4-0.3-6.8-0.5-10.2
				c-0.2-3.4-0.6-6.6-0.9-9.8c-0.6-6.4-1.2-12.6-1.8-18.6c-4.2-45.6-7.1-76.7-7.3-79.3c2.2-0.2,3.9-0.4,5.2-0.6c0.6,4.1,1,6.9,1,6.9
				s8.5,92.6,9.5,99.4c0.9,6.8,5.7,152.9,5.7,152.9l3,46.8L350.8,587.4z"/>
			<path class="st0" d="M210,504.2C210,504.2,210,504.2,210,504.2c0.4,0,0.7-0.3,0.7-0.7l0-2.7c0-0.4-0.3-0.7-0.7-0.7h0
				c-0.4,0-0.7,0.3-0.7,0.7l0,2.7C209.3,503.9,209.6,504.2,210,504.2z"/>
			<path class="st0" d="M210.7,509l0-2.7c0-0.4-0.3-0.7-0.7-0.7c0,0,0,0,0,0c-0.4,0-0.7,0.3-0.7,0.7l0,2.7l0.7,0L210.7,509z"/>
			<path class="st0" d="M210,498.7C210,498.7,210,498.7,210,498.7c0.4,0,0.7-0.3,0.7-0.7l0-2.8c0-0.4-0.3-0.7-0.7-0.7h0
				c-0.4,0-0.7,0.3-0.7,0.7l0,2.8C209.3,498.4,209.7,498.7,210,498.7z"/>
			<path class="st0" d="M210.1,476.6C210.1,476.6,210.1,476.6,210.1,476.6c0.4,0,0.7-0.3,0.7-0.7l0-2.7c0-0.4-0.3-0.7-0.7-0.7
				c0,0,0,0,0,0c-0.4,0-0.7,0.3-0.7,0.7l0,2.8C209.4,476.3,209.7,476.6,210.1,476.6z"/>
			<path class="st0" d="M210.1,493.2C210.1,493.2,210.1,493.2,210.1,493.2c0.4,0,0.7-0.3,0.7-0.7l0-2.8c0-0.4-0.3-0.7-0.7-0.7
				c0,0,0,0,0,0c-0.4,0-0.7,0.3-0.7,0.7l0,2.8C209.4,492.9,209.7,493.2,210.1,493.2z"/>
			<path class="st0" d="M210.5,553l0-2.7c0-0.4-0.3-0.7-0.7-0.7c-0.3,0-0.7,0.3-0.7,0.7l0,2.7l0.7,0.1L210.5,553z"/>
			<path class="st0" d="M210.1,487.7C210.1,487.7,210.1,487.7,210.1,487.7c0.4,0,0.7-0.3,0.7-0.7l0-2.8c0-0.4-0.3-0.7-0.7-0.7
				c0,0,0,0,0,0c-0.4,0-0.7,0.3-0.7,0.7l0,2.8C209.4,487.4,209.7,487.7,210.1,487.7z"/>
			<path class="st0" d="M209.9,548.3C209.9,548.3,209.9,548.3,209.9,548.3c0.4,0,0.7-0.3,0.7-0.7l0-2.8c0-0.4-0.3-0.7-0.7-0.7
				c0,0,0,0,0,0c-0.4,0-0.7,0.3-0.7,0.7l0,2.8C209.2,548,209.5,548.3,209.9,548.3z"/>
			<path class="st0" d="M209.9,542.8L209.9,542.8c0.4,0,0.7-0.3,0.7-0.7l0-2.8c0-0.4-0.3-0.7-0.7-0.7c0,0,0,0,0,0
				c-0.4,0-0.7,0.3-0.7,0.7l0,2.8C209.2,542.5,209.5,542.8,209.9,542.8z"/>
			<path class="st0" d="M210.2,471.1L210.2,471.1c0.4,0,0.7-0.3,0.7-0.7l0-2.7c0-0.4-0.3-0.7-0.7-0.7c0,0,0,0,0,0
				c-0.4,0-0.7,0.3-0.7,0.7l0,2.8C209.5,470.8,209.8,471.1,210.2,471.1z"/>
			<path class="st0" d="M209.9,537.3C209.9,537.3,209.9,537.3,209.9,537.3c0.4,0,0.7-0.3,0.7-0.7l0-2.8c0-0.4-0.3-0.7-0.7-0.7
				c-0.4,0-0.7,0.3-0.7,0.7l0,2.8C209.2,536.9,209.5,537.3,209.9,537.3z"/>
			<path class="st0" d="M209.9,531.8C209.9,531.8,209.9,531.8,209.9,531.8c0.4,0,0.7-0.3,0.7-0.7l0-2.8c0-0.4-0.3-0.7-0.7-0.7
				c-0.4,0-0.7,0.3-0.7,0.7l0,2.8C209.2,531.4,209.5,531.7,209.9,531.8z"/>
			<path class="st0" d="M210,520.7C210,520.7,210,520.7,210,520.7c0.4,0,0.7-0.3,0.7-0.7l0-2.8c0-0.4-0.3-0.7-0.7-0.7h0
				c-0.4,0-0.7,0.3-0.7,0.7l0,2.8C209.3,520.4,209.6,520.7,210,520.7z"/>
			<path class="st0" d="M210.7,514.5l0-2.7c0-0.4-0.3-0.7-0.7-0.7c0,0,0,0,0,0c-0.4,0-0.7,0.3-0.7,0.7l0,2.7l0.7,0L210.7,514.5z"/>
			<path class="st0" d="M209.9,526.2C209.9,526.2,209.9,526.2,209.9,526.2c0.4,0,0.7-0.3,0.7-0.7l0-2.8c0-0.4-0.3-0.7-0.7-0.7h0
				c-0.4,0-0.7,0.3-0.7,0.7l0,2.8C209.3,525.9,209.6,526.2,209.9,526.2z"/>
			<path class="st0" d="M210.1,482.2C210.1,482.2,210.1,482.2,210.1,482.2c0.4,0,0.7-0.3,0.7-0.7l0-2.8c0-0.4-0.3-0.7-0.7-0.7
				c0,0,0,0,0,0c-0.4,0-0.7,0.3-0.7,0.7l0,2.8C209.4,481.9,209.7,482.2,210.1,482.2z"/>
			<path class="st0" d="M210.6,405C210.6,405,210.6,405,210.6,405c0.4,0,0.7-0.3,0.7-0.7l0-2.8c0-0.4-0.3-0.7-0.7-0.7
				c-0.4,0-0.7,0.3-0.7,0.7l0,2.8C209.9,404.7,210.2,405,210.6,405z"/>
			<path class="st0" d="M210.4,421.6C210.5,421.6,210.5,421.6,210.4,421.6c0.4,0,0.7-0.3,0.7-0.7l0-2.8c0-0.4-0.3-0.7-0.7-0.7
				c0,0,0,0,0,0c-0.4,0-0.7,0.3-0.7,0.7l0,2.8C209.8,421.2,210.1,421.6,210.4,421.6z"/>
			<path class="st0" d="M212.6,367.9c-0.4,0-0.7,0.3-0.7,0.6l-0.2,2.7c0,0.4,0.3,0.7,0.6,0.7c0,0,0,0,0.1,0c0.4,0,0.7-0.3,0.7-0.6
				l0.2-2.7C213.3,368.2,213,367.9,212.6,367.9z"/>
			<path class="st0" d="M210.5,416C210.5,416,210.5,416,210.5,416c0.4,0,0.7-0.3,0.7-0.7l0-2.8c0-0.4-0.3-0.7-0.7-0.7
				c-0.3,0-0.7,0.3-0.7,0.7l0,2.8C209.8,415.7,210.1,416,210.5,416z"/>
			<path class="st0" d="M210.9,394C210.9,394,210.9,394,210.9,394c0.4,0,0.7-0.3,0.7-0.7c0-0.9,0.1-1.8,0.1-2.7
				c0-0.4-0.3-0.7-0.6-0.7c-0.4,0-0.7,0.3-0.7,0.7c-0.1,1-0.1,1.9-0.1,2.8C210.2,393.6,210.5,394,210.9,394z"/>
			<path class="st0" d="M212.2,373.3c-0.4,0-0.7,0.3-0.7,0.6l-0.2,2.7c0,0.4,0.3,0.7,0.6,0.7c0,0,0,0,0.1,0c0.4,0,0.7-0.3,0.7-0.6
				l0.2-2.7C212.8,373.7,212.6,373.4,212.2,373.3z"/>
			<path class="st0" d="M211.4,384.3c-0.4,0-0.7,0.3-0.7,0.6l-0.2,2.8c0,0.4,0.3,0.7,0.6,0.7c0,0,0,0,0,0c0.4,0,0.7-0.3,0.7-0.6
				l0.2-2.7C212.1,384.7,211.8,384.4,211.4,384.3z"/>
			<path class="st0" d="M211.8,378.8c-0.4,0-0.7,0.3-0.7,0.6l-0.2,2.7c0,0.4,0.3,0.7,0.6,0.7c0,0,0,0,0,0c0.4,0,0.7-0.3,0.7-0.6
				l0.2-2.7C212.4,379.2,212.2,378.9,211.8,378.8z"/>
			<path class="st0" d="M210.3,438.1C210.3,438.1,210.3,438.1,210.3,438.1c0.4,0,0.7-0.3,0.7-0.7l0-2.8c0-0.4-0.3-0.7-0.7-0.7
				c0,0,0,0,0,0c-0.4,0-0.7,0.3-0.7,0.7l0,2.8C209.6,437.8,209.9,438.1,210.3,438.1z"/>
			<path class="st0" d="M210.2,454.6C210.2,454.6,210.2,454.6,210.2,454.6c0.4,0,0.7-0.4,0.7-0.7l0-2.7c0-0.4-0.3-0.7-0.7-0.7
				c0,0,0,0,0,0c-0.4,0-0.7,0.3-0.7,0.7l0,2.7l0,0.1C209.5,454.3,209.9,454.6,210.2,454.6z"/>
			<path class="st0" d="M210.3,449.1C210.3,449.1,210.3,449.1,210.3,449.1c0.4,0,0.7-0.3,0.7-0.7l0-2.8c0-0.4-0.3-0.7-0.7-0.7
				c0,0,0,0,0,0c-0.4,0-0.7,0.3-0.7,0.7l0,2.8C209.6,448.8,209.9,449.1,210.3,449.1z"/>
			<path class="st0" d="M210.2,460.1C210.2,460.1,210.2,460.1,210.2,460.1c0.4,0,0.7-0.3,0.7-0.7l0-2.8c0-0.4-0.3-0.7-0.7-0.7
				c0,0,0,0,0,0c-0.4,0-0.7,0.3-0.7,0.7l0,2.8C209.5,459.8,209.8,460.1,210.2,460.1z"/>
			<path class="st0" d="M210.4,427.1C210.4,427.1,210.4,427.1,210.4,427.1c0.4,0,0.7-0.3,0.7-0.7l0-2.8c0-0.4-0.3-0.7-0.7-0.7
				c0,0,0,0,0,0c-0.4,0-0.7,0.3-0.7,0.7l0,2.8C209.7,426.8,210,427.1,210.4,427.1z"/>
			<path class="st0" d="M210.3,443.6C210.3,443.6,210.3,443.6,210.3,443.6c0.4,0,0.7-0.3,0.7-0.7l0-2.8c0-0.4-0.3-0.7-0.7-0.7
				c0,0,0,0,0,0c-0.4,0-0.7,0.3-0.7,0.7l0,2.8C209.6,443.3,209.9,443.6,210.3,443.6z"/>
			<path class="st0" d="M210.4,432.6C210.4,432.6,210.4,432.6,210.4,432.6c0.4,0,0.7-0.3,0.7-0.7l0-2.8c0-0.4-0.3-0.7-0.7-0.7
				c0,0,0,0,0,0c-0.4,0-0.7,0.3-0.7,0.7l0,2.8C209.7,432.3,210,432.6,210.4,432.6z"/>
			<path class="st0" d="M210.2,465.6C210.2,465.6,210.2,465.6,210.2,465.6c0.4,0,0.7-0.3,0.7-0.7l0-2.8c0-0.4-0.3-0.7-0.7-0.7
				c0,0,0,0,0,0c-0.4,0-0.7,0.3-0.7,0.7l0,2.8C209.5,465.3,209.8,465.6,210.2,465.6z"/>
			<path class="st0" d="M210.5,410.5C210.6,410.5,210.6,410.5,210.5,410.5c0.4,0,0.7-0.3,0.7-0.7l0-2.8c0-0.4-0.3-0.7-0.7-0.7
				c0,0,0,0,0,0c-0.4,0-0.7,0.3-0.7,0.7l0,2.8C209.9,410.2,210.2,410.5,210.5,410.5z"/>
			<path class="st0" d="M221.9,267.7C221.9,267.7,221.9,267.7,221.9,267.7c0.4,0,0.7-0.3,0.8-0.6l0.3-2.7c0-0.4-0.2-0.7-0.6-0.8
				c-0.4,0-0.7,0.2-0.8,0.6l-0.3,2.7C221.2,267.4,221.5,267.7,221.9,267.7z"/>
			<path class="st0" d="M222.4,262.3C222.5,262.3,222.5,262.3,222.4,262.3c0.4,0,0.7-0.3,0.8-0.6l0.3-2.7c0-0.4-0.2-0.7-0.6-0.8
				c-0.4,0-0.7,0.2-0.8,0.6l-0.3,2.7C221.8,261.9,222.1,262.2,222.4,262.3z"/>
			<path class="st0" d="M223,256.8C223,256.8,223.1,256.8,223,256.8c0.4,0,0.7-0.3,0.8-0.6l0.3-2.7c0-0.4-0.2-0.7-0.6-0.8
				c-0.4,0-0.7,0.2-0.8,0.6l-0.3,2.7C222.4,256.4,222.6,256.7,223,256.8z"/>
			<path class="st0" d="M219.7,289.7C219.7,289.7,219.7,289.7,219.7,289.7c0.4,0,0.7-0.3,0.8-0.6l0.3-2.7c0-0.4-0.2-0.7-0.6-0.8
				c-0.4,0-0.7,0.2-0.8,0.6l-0.3,2.7C219,289.3,219.3,289.6,219.7,289.7z"/>
			<path class="st0" d="M223.6,251.3C223.6,251.3,223.6,251.3,223.6,251.3c0.4,0,0.7-0.3,0.8-0.6l0.3-2.7c0-0.4-0.2-0.7-0.6-0.8
				c-0.4,0-0.7,0.2-0.8,0.6l-0.3,2.7C222.9,250.9,223.2,251.3,223.6,251.3z"/>
			<path class="st0" d="M220.2,284.2C220.2,284.2,220.3,284.2,220.2,284.2c0.4,0,0.7-0.3,0.8-0.6l0.3-2.7c0-0.4-0.2-0.7-0.6-0.8
				c-0.4,0-0.7,0.2-0.8,0.6l-0.3,2.7C219.6,283.8,219.8,284.2,220.2,284.2z"/>
			<path class="st0" d="M220.8,278.7C220.8,278.7,220.8,278.7,220.8,278.7c0.4,0,0.7-0.3,0.8-0.6l0.3-2.7c0-0.4-0.2-0.7-0.6-0.8
				c-0.4,0-0.7,0.2-0.8,0.6l-0.3,2.7C220.1,278.3,220.4,278.7,220.8,278.7z"/>
			<path class="st0" d="M221.3,273.2C221.3,273.2,221.4,273.2,221.3,273.2c0.4,0,0.7-0.3,0.8-0.6l0.3-2.7c0-0.4-0.2-0.7-0.6-0.8
				c-0.4,0-0.7,0.2-0.8,0.6l-0.3,2.7C220.7,272.9,220.9,273.2,221.3,273.2z"/>
			<path class="st0" d="M224.2,245.8C224.2,245.8,224.2,245.8,224.2,245.8c0.4,0,0.7-0.3,0.8-0.6l0.3-2.7c0-0.4-0.2-0.7-0.6-0.8
				c-0.4,0-0.7,0.2-0.8,0.6l-0.3,2.7C223.5,245.5,223.8,245.8,224.2,245.8z"/>
			<path class="st0" d="M228.4,207.5C228.4,207.5,228.4,207.5,228.4,207.5c0.4,0,0.7-0.3,0.8-0.6l0.3-2.7c0-0.4-0.2-0.7-0.6-0.8
				c-0.4,0-0.7,0.2-0.8,0.6l-0.3,2.7C227.7,207.1,228,207.4,228.4,207.5z"/>
			<path class="st0" d="M227.1,218.4C227.1,218.4,227.2,218.4,227.1,218.4c0.4,0,0.7-0.3,0.8-0.6l0.3-2.7c0-0.4-0.2-0.7-0.6-0.8
				c-0.4,0-0.7,0.2-0.8,0.6l-0.3,2.7C226.5,218.1,226.7,218.4,227.1,218.4z"/>
			<path class="st0" d="M227.7,213C227.8,213,227.8,213,227.7,213c0.4,0,0.7-0.3,0.8-0.6l0.3-2.7c0-0.4-0.2-0.7-0.6-0.8
				c-0.4,0-0.7,0.2-0.8,0.6l-0.3,2.7C227.1,212.6,227.4,212.9,227.7,213z"/>
			<path class="st0" d="M229,202C229,202,229,202,229,202c0.4,0,0.7-0.3,0.8-0.6l0.3-2.7c0-0.4-0.2-0.7-0.6-0.7
				c-0.4,0-0.7,0.3-0.8,0.7l-0.3,2.6C228.3,201.6,228.6,202,229,202z"/>
			<path class="st0" d="M226.5,223.9C226.5,223.9,226.6,223.9,226.5,223.9c0.4,0,0.7-0.3,0.8-0.6l0.3-2.7c0-0.4-0.2-0.7-0.6-0.8
				c-0.4,0-0.7,0.2-0.8,0.6l-0.3,2.7C225.9,223.5,226.1,223.9,226.5,223.9z"/>
			<path class="st0" d="M225.3,234.9C225.4,234.9,225.4,234.9,225.3,234.9c0.4,0,0.7-0.3,0.8-0.6l0.3-2.7c0-0.4-0.2-0.7-0.6-0.7
				c-0.4,0-0.7,0.3-0.8,0.6l-0.3,2.7C224.7,234.5,224.9,234.8,225.3,234.9z"/>
			<path class="st0" d="M226.7,228.7l0.3-2.7c0-0.4-0.2-0.7-0.6-0.8c-0.4,0-0.7,0.2-0.8,0.6l-0.3,2.7l0.7,0.1L226.7,228.7z"/>
			<path class="st0" d="M224.7,240.4C224.8,240.4,224.8,240.4,224.7,240.4c0.4,0,0.7-0.3,0.8-0.6l0.3-2.7c0-0.4-0.2-0.7-0.6-0.8
				c-0.4,0-0.7,0.2-0.8,0.6l-0.3,2.7C224.1,240,224.4,240.3,224.7,240.4z"/>
			<path class="st0" d="M216.5,322.6C216.5,322.6,216.6,322.6,216.5,322.6c0.4,0,0.7-0.3,0.7-0.6l0.3-2.7c0-0.4-0.2-0.7-0.6-0.7
				c-0.4,0-0.7,0.2-0.7,0.6l-0.3,2.7C215.9,322.2,216.1,322.5,216.5,322.6z"/>
			<path class="st0" d="M219.1,295.2C219.2,295.2,219.2,295.2,219.1,295.2c0.4,0,0.7-0.3,0.8-0.6l0.3-2.7c0-0.4-0.2-0.7-0.6-0.8
				c-0.4,0-0.7,0.2-0.8,0.6l-0.3,2.7C218.5,294.8,218.8,295.1,219.1,295.2z"/>
			<path class="st0" d="M214.1,350C214.1,350,214.1,350,214.1,350c0.4,0,0.7-0.3,0.7-0.6l0.2-2.7c0-0.4-0.2-0.7-0.6-0.7
				c-0.4,0-0.7,0.2-0.7,0.6l-0.2,2.7C213.4,349.6,213.7,350,214.1,350z"/>
			<path class="st0" d="M209.8,570.3L209.8,570.3c0.4,0,0.7-0.3,0.7-0.7l0-2.8c0-0.4-0.3-0.7-0.7-0.7c0,0,0,0,0,0
				c-0.4,0-0.7,0.3-0.7,0.7l0,2.8C209.1,570,209.4,570.3,209.8,570.3z"/>
			<path class="st0" d="M209.8,575.8C209.8,575.8,209.8,575.8,209.8,575.8c0.4,0,0.7-0.3,0.7-0.7l0-2.8c0-0.4-0.3-0.7-0.7-0.7
				c0,0,0,0,0,0c-0.4,0-0.7,0.3-0.7,0.7l0,2.8C209.1,575.5,209.4,575.8,209.8,575.8z"/>
			<path class="st0" d="M209.8,564.8C209.8,564.8,209.8,564.8,209.8,564.8c0.4,0,0.7-0.3,0.7-0.7l0-2.8c0-0.4-0.3-0.7-0.7-0.7h0
				c-0.4,0-0.7,0.3-0.7,0.7l0,2.8C209.1,564.5,209.4,564.8,209.8,564.8z"/>
			<path class="st0" d="M214.5,344.5C214.6,344.5,214.6,344.5,214.5,344.5c0.4,0,0.7-0.3,0.7-0.6l0.2-2.7c0-0.4-0.2-0.7-0.6-0.7
				c-0.4,0-0.7,0.2-0.7,0.6l-0.2,2.7C213.9,344.1,214.2,344.5,214.5,344.5z"/>
			<path class="st0" d="M209.8,581.4L209.8,581.4c0.4,0,0.7-0.3,0.7-0.7l0-2.8c0-0.4-0.3-0.7-0.7-0.7c0,0,0,0,0,0
				c-0.4,0-0.7,0.3-0.7,0.7l0,2.8C209.1,581.1,209.4,581.4,209.8,581.4z"/>
			<path class="st0" d="M217.6,311.6C217.6,311.6,217.6,311.6,217.6,311.6c0.4,0,0.7-0.3,0.8-0.6l0.3-2.7c0-0.4-0.2-0.7-0.6-0.7
				c-0.4,0-0.7,0.2-0.8,0.6l-0.3,2.7C216.9,311.2,217.2,311.6,217.6,311.6z"/>
			<path class="st0" d="M215,339C215,339,215.1,339,215,339c0.4,0,0.7-0.3,0.7-0.6l0.2-2.7c0-0.4-0.2-0.7-0.6-0.7
				c-0.4,0-0.7,0.2-0.7,0.6l-0.2,2.7C214.4,338.7,214.6,339,215,339z"/>
			<path class="st0" d="M217,317.1C217.1,317.1,217.1,317.1,217,317.1c0.4,0,0.7-0.3,0.7-0.6l0.3-2.7c0-0.4-0.2-0.7-0.6-0.8
				c-0.4,0-0.7,0.2-0.7,0.6l-0.3,2.7C216.4,316.7,216.7,317,217,317.1z"/>
			<path class="st0" d="M218.6,300.6C218.6,300.7,218.6,300.7,218.6,300.6c0.4,0,0.7-0.3,0.8-0.6l0.3-2.7c0-0.4-0.2-0.7-0.6-0.8
				c-0.4,0-0.7,0.2-0.8,0.6l-0.3,2.7C217.9,300.3,218.2,300.6,218.6,300.6z"/>
			<path class="st0" d="M218.1,306.1C218.1,306.1,218.1,306.1,218.1,306.1c0.4,0,0.7-0.3,0.8-0.6l0.3-2.7c0-0.4-0.2-0.7-0.6-0.8
				c-0.4,0-0.7,0.2-0.8,0.6l-0.3,2.7C217.4,305.7,217.7,306.1,218.1,306.1z"/>
			<path class="st0" d="M215.5,333.5C215.5,333.5,215.6,333.5,215.5,333.5c0.4,0,0.7-0.3,0.7-0.6l0.2-2.7c0-0.4-0.2-0.7-0.6-0.7
				c-0.4,0-0.7,0.2-0.7,0.6l-0.2,2.7C214.9,333.2,215.1,333.5,215.5,333.5z"/>
			<path class="st0" d="M210.5,558.5l0-2.6c0-0.4-0.3-0.7-0.7-0.7c0,0,0,0,0,0c-0.4,0-0.7,0.3-0.7,0.7l0,2.6l0.7,0.1L210.5,558.5z"
				/>
			<path class="st0" d="M216,328.1C216,328.1,216.1,328.1,216,328.1c0.4,0,0.7-0.3,0.7-0.6l0.3-2.7c0-0.4-0.2-0.7-0.6-0.7
				c-0.4,0-0.7,0.2-0.7,0.6l-0.3,2.7C215.4,327.7,215.6,328,216,328.1z"/>
			<path class="st0" d="M210.7,399.5C210.7,399.5,210.7,399.5,210.7,399.5c0.4,0,0.7-0.3,0.7-0.7c0-0.9,0-1.8,0.1-2.8
				c0-0.4-0.3-0.7-0.7-0.7c-0.4,0-0.7,0.3-0.7,0.7c0,1-0.1,1.9-0.1,2.8C210,399.2,210.3,399.5,210.7,399.5z"/>
			<path class="st0" d="M212.7,366.5C212.7,366.5,212.7,366.5,212.7,366.5c0.4,0,0.7-0.3,0.7-0.6l0.2-2.7c0-0.4-0.3-0.7-0.6-0.7
				c-0.4,0-0.7,0.3-0.7,0.6l-0.2,2.7C212,366.1,212.3,366.4,212.7,366.5z"/>
			<path class="st0" d="M231,185.6C231,185.6,231.1,185.6,231,185.6c0.4,0,0.7-0.2,0.8-0.6c0.1-1,0.2-1.9,0.4-2.7
				c0.1-0.4-0.2-0.7-0.6-0.8c-0.4-0.1-0.7,0.2-0.8,0.6c-0.1,0.9-0.2,1.8-0.4,2.7C230.4,185.2,230.6,185.5,231,185.6z"/>
			<path class="st0" d="M230.3,191.1C230.3,191.1,230.4,191.1,230.3,191.1c0.4,0,0.7-0.2,0.8-0.6l0.3-2.7c0-0.4-0.2-0.7-0.6-0.8
				c-0.4,0-0.7,0.2-0.8,0.6l-0.3,2.7C229.7,190.7,229.9,191,230.3,191.1z"/>
			<path class="st0" d="M213.1,361C213.2,361,213.2,361,213.1,361c0.4,0,0.7-0.3,0.7-0.6l0.2-2.7c0-0.4-0.2-0.7-0.6-0.7
				c-0.4,0-0.7,0.2-0.7,0.6l-0.2,2.7C212.5,360.6,212.8,361,213.1,361z"/>
			<path class="st0" d="M213.6,355.5C213.6,355.5,213.6,355.5,213.6,355.5c0.4,0,0.7-0.3,0.7-0.6l0.2-2.7c0-0.4-0.2-0.7-0.6-0.7
				c-0.4,0-0.7,0.2-0.7,0.6l-0.2,2.7C212.9,355.1,213.2,355.5,213.6,355.5z"/>
			<path class="st0" d="M184.7,107c0.1,0,0.2,0.1,0.3,0.1c0.3,0,0.5-0.2,0.6-0.4c0.3-0.8,0.7-1.7,1-2.6c0.1-0.4-0.1-0.7-0.4-0.9
				c-0.4-0.1-0.8,0.1-0.9,0.4c-0.3,0.9-0.6,1.7-0.9,2.5C184.2,106.5,184.4,106.9,184.7,107z"/>
			<path class="st0" d="M149.3,127.8C149.3,127.8,149.3,127.8,149.3,127.8c1-0.1,1.9-0.1,2.8-0.2c0.4,0,0.7-0.4,0.6-0.7
				c0-0.4-0.3-0.7-0.7-0.6c-0.9,0.1-1.8,0.1-2.7,0.2c-0.4,0-0.7,0.3-0.6,0.7C148.6,127.5,148.9,127.8,149.3,127.8z"/>
			<path class="st0" d="M160.2,126.5c0,0,0.1,0,0.1,0c0.9-0.2,1.8-0.4,2.7-0.6c0.4-0.1,0.6-0.5,0.5-0.8c-0.1-0.4-0.5-0.6-0.8-0.5
				c-0.9,0.2-1.8,0.4-2.6,0.6c-0.4,0.1-0.6,0.4-0.5,0.8C159.6,126.3,159.9,126.5,160.2,126.5z"/>
			<path class="st0" d="M154.8,127.3C154.8,127.3,154.8,127.3,154.8,127.3c1-0.1,1.9-0.2,2.8-0.4c0.4-0.1,0.6-0.4,0.6-0.8
				c-0.1-0.4-0.4-0.6-0.8-0.6c-0.9,0.1-1.8,0.3-2.7,0.4c-0.4,0-0.6,0.4-0.6,0.8C154.2,127.1,154.4,127.3,154.8,127.3z"/>
			<path class="st0" d="M186.5,101.8c0.1,0,0.1,0,0.2,0c0.3,0,0.6-0.2,0.7-0.5c0.2-0.9,0.4-1.8,0.6-2.7c0.1-0.4-0.2-0.7-0.5-0.8
				c-0.4-0.1-0.7,0.2-0.8,0.5c-0.2,0.9-0.4,1.8-0.6,2.6C186,101.3,186.2,101.7,186.5,101.8z"/>
			<path class="st0" d="M179.8,116.2c0.6-0.7,1.2-1.4,1.8-2.2c0.2-0.3,0.2-0.7-0.2-1c-0.3-0.2-0.7-0.2-1,0.2
				c-0.5,0.7-1.1,1.4-1.7,2.1c-0.3,0.3-0.2,0.7,0.1,1c0.1,0.1,0.3,0.2,0.5,0.2C179.5,116.4,179.7,116.3,179.8,116.2z"/>
			<path class="st0" d="M182.2,111.9c0.1,0.1,0.2,0.1,0.4,0.1c0.2,0,0.5-0.1,0.6-0.3c0.5-0.8,0.9-1.6,1.3-2.5c0.2-0.3,0-0.8-0.3-0.9
				c-0.3-0.2-0.8,0-0.9,0.3c-0.4,0.8-0.8,1.6-1.3,2.4C181.8,111.3,181.9,111.7,182.2,111.9z"/>
			<path class="st0" d="M170.6,123c0.1,0,0.2,0,0.3-0.1c0.8-0.4,1.7-0.9,2.5-1.4c0.3-0.2,0.4-0.6,0.2-0.9c-0.2-0.3-0.6-0.4-0.9-0.2
				c-0.7,0.5-1.5,0.9-2.3,1.3c-0.3,0.2-0.5,0.6-0.3,0.9C170.1,122.9,170.4,123,170.6,123z"/>
			<path class="st0" d="M165.6,125.1c0.1,0,0.1,0,0.2,0c0.9-0.3,1.8-0.6,2.6-1c0.4-0.1,0.5-0.5,0.4-0.9c-0.1-0.4-0.5-0.5-0.9-0.4
				c-0.8,0.3-1.7,0.6-2.5,0.9c-0.4,0.1-0.6,0.5-0.4,0.9C165,124.9,165.3,125.1,165.6,125.1z"/>
			<path class="st0" d="M175.7,120c0.7-0.6,1.5-1.2,2.2-1.8c0.3-0.3,0.3-0.7,0-1c-0.3-0.3-0.7-0.3-1,0c-0.7,0.6-1.3,1.2-2.1,1.7
				c-0.3,0.2-0.4,0.7-0.1,1c0.1,0.2,0.3,0.3,0.5,0.3C175.5,120.1,175.6,120.1,175.7,120z"/>
			<path class="st0" d="M157.6,130.5c-0.9,0.1-1.8,0.2-2.7,0.3c-0.4,0-0.7,0.4-0.6,0.7c0,0.4,0.3,0.6,0.7,0.6c0,0,0,0,0.1,0
				c0.9-0.1,1.8-0.2,2.8-0.3c0.4-0.1,0.6-0.4,0.6-0.8C158.4,130.7,158,130.4,157.6,130.5z"/>
			<path class="st0" d="M188.5,108.1c0.1,0,0.2,0,0.2,0c0.3,0,0.5-0.2,0.6-0.4c0.3-0.9,0.6-1.7,0.9-2.6c0.1-0.4-0.1-0.7-0.5-0.9
				c-0.4-0.1-0.7,0.1-0.9,0.5c-0.3,0.9-0.6,1.7-0.9,2.6C188,107.5,188.2,107.9,188.5,108.1z"/>
			<path class="st0" d="M185.5,114.2c-0.3-0.2-0.7-0.1-0.9,0.2c-0.5,0.8-1,1.5-1.5,2.2c-0.2,0.3-0.2,0.7,0.1,1
				c0.1,0.1,0.3,0.1,0.4,0.1c0.2,0,0.4-0.1,0.6-0.3c0.5-0.7,1.1-1.5,1.6-2.3C185.9,114.9,185.8,114.4,185.5,114.2z"/>
			<path class="st0" d="M188,109.3c-0.3-0.2-0.8,0-0.9,0.3c-0.4,0.8-0.8,1.6-1.2,2.4c-0.2,0.3-0.1,0.8,0.3,0.9
				c0.1,0.1,0.2,0.1,0.3,0.1c0.2,0,0.5-0.1,0.6-0.4c0.4-0.8,0.8-1.6,1.2-2.5C188.5,109.9,188.3,109.5,188,109.3z"/>
			<path class="st0" d="M190.2,102.8c0.1,0,0.1,0,0.2,0c0.3,0,0.6-0.2,0.7-0.5c0.2-0.9,0.4-1.8,0.6-2.7c0.1-0.4-0.2-0.7-0.5-0.8
				c-0.4-0.1-0.7,0.2-0.8,0.5c-0.2,0.9-0.4,1.8-0.6,2.6C189.6,102.4,189.8,102.7,190.2,102.8z"/>
			<path class="st0" d="M191.4,97.5c0,0,0.1,0,0.1,0c0.3,0,0.6-0.2,0.7-0.6c0.1-0.9,0.3-1.8,0.4-2.7c0-0.4-0.2-0.7-0.6-0.8
				c-0.4,0-0.7,0.2-0.8,0.6c-0.1,0.9-0.2,1.8-0.4,2.7C190.7,97.1,191,97.4,191.4,97.5z"/>
			<path class="st0" d="M152.2,131c-0.9,0-1.8,0.1-2.7,0.1c-0.4,0-0.7,0.3-0.7,0.7c0,0.4,0.3,0.7,0.7,0.7c0,0,0,0,0,0
				c0.9,0,1.8,0,2.8-0.1c0.4,0,0.7-0.3,0.6-0.7C152.9,131.2,152.6,131,152.2,131z"/>
			<path class="st0" d="M173,125.5c-0.8,0.4-1.6,0.9-2.4,1.2c-0.3,0.2-0.5,0.6-0.3,0.9c0.1,0.2,0.4,0.4,0.6,0.4c0.1,0,0.2,0,0.3-0.1
				c0.9-0.4,1.7-0.8,2.5-1.3c0.3-0.2,0.4-0.6,0.3-0.9C173.8,125.4,173.4,125.3,173,125.5z"/>
			<path class="st0" d="M177.5,122.5c-0.7,0.6-1.4,1.1-2.2,1.6c-0.3,0.2-0.4,0.6-0.2,1c0.1,0.2,0.4,0.3,0.6,0.3c0.1,0,0.3,0,0.4-0.1
				c0.8-0.5,1.5-1.1,2.3-1.7c0.3-0.2,0.3-0.7,0.1-1C178.2,122.3,177.8,122.3,177.5,122.5z"/>
			<path class="st0" d="M182.3,118.7c-0.3-0.2-0.7-0.2-1,0.1c-0.6,0.7-1.2,1.3-1.9,1.9c-0.3,0.3-0.3,0.7,0,1
				c0.1,0.1,0.3,0.2,0.5,0.2c0.2,0,0.3-0.1,0.5-0.2c0.7-0.6,1.3-1.3,1.9-2C182.6,119.4,182.6,119,182.3,118.7z"/>
			<path class="st0" d="M168.1,127.8c-0.8,0.3-1.7,0.6-2.6,0.9c-0.4,0.1-0.6,0.5-0.5,0.9c0.1,0.3,0.4,0.5,0.7,0.5c0.1,0,0.1,0,0.2,0
				c0.9-0.3,1.8-0.6,2.6-0.9c0.4-0.1,0.5-0.5,0.4-0.9C168.9,127.9,168.5,127.7,168.1,127.8z"/>
			<path class="st0" d="M163,129.4c-0.9,0.2-1.8,0.4-2.7,0.6c-0.4,0.1-0.6,0.4-0.5,0.8c0.1,0.3,0.4,0.6,0.7,0.6c0,0,0.1,0,0.1,0
				c0.9-0.2,1.8-0.4,2.7-0.6c0.4-0.1,0.6-0.5,0.5-0.8C163.7,129.6,163.3,129.4,163,129.4z"/>
			<path class="st0" d="M317.2,129.2c0.5,0,1,0,1.5,0c0.4,0,0.7-0.3,0.7-0.7c0-0.4-0.3-0.6-0.7-0.7c-0.9,0-1.8,0-2.7,0
				c-0.4,0-0.7,0.3-0.7,0.7c0,0.4,0.3,0.7,0.7,0.7C316.3,129.2,316.7,129.2,317.2,129.2z"/>
			<path class="st0" d="M286.9,120.8c0.1,0.1,0.3,0.1,0.4,0.1c0.2,0,0.4-0.1,0.6-0.3c0.2-0.3,0.2-0.7-0.1-1
				c-0.7-0.5-1.4-1.1-2.1-1.7c-0.3-0.3-0.7-0.2-1,0.1c-0.3,0.3-0.2,0.7,0.1,1C285.4,119.6,286.1,120.2,286.9,120.8z"/>
			<path class="st0" d="M273.2,100.2c0.2,0.9,0.5,1.8,0.8,2.7c0.1,0.3,0.4,0.5,0.7,0.5c0.1,0,0.1,0,0.2,0c0.4-0.1,0.6-0.5,0.4-0.9
				c-0.3-0.8-0.5-1.7-0.8-2.6c-0.1-0.4-0.5-0.6-0.8-0.5C273.4,99.4,273.1,99.8,273.2,100.2z"/>
			<path class="st0" d="M277.1,108.3c0.3-0.2,0.5-0.6,0.3-0.9c-0.4-0.8-0.8-1.6-1.1-2.5c-0.1-0.4-0.6-0.5-0.9-0.4
				c-0.4,0.1-0.5,0.5-0.4,0.9c0.4,0.9,0.8,1.7,1.2,2.5c0.1,0.2,0.4,0.4,0.6,0.4C276.9,108.4,277,108.4,277.1,108.3z"/>
			<path class="st0" d="M273.3,98c0,0,0.1,0,0.1,0c0.4-0.1,0.6-0.4,0.5-0.8c-0.2-0.9-0.3-1.8-0.5-2.7c-0.1-0.4-0.4-0.6-0.8-0.6
				c-0.4,0.1-0.6,0.4-0.6,0.8c0.1,0.9,0.3,1.9,0.5,2.7C272.7,97.8,273,98,273.3,98z"/>
			<path class="st0" d="M313.1,129.1C313.1,129.1,313.1,129.1,313.1,129.1c0.4,0,0.7-0.3,0.7-0.7c0-0.4-0.3-0.7-0.7-0.7
				c-0.9,0-1.8-0.1-2.7-0.2c-0.4,0-0.7,0.2-0.7,0.6c0,0.4,0.2,0.7,0.6,0.7C311.2,129,312.2,129.1,313.1,129.1z"/>
			<path class="st0" d="M296.7,126.1c0.1,0,0.2,0,0.2,0c0.3,0,0.5-0.2,0.6-0.5c0.1-0.4-0.1-0.8-0.4-0.9c-0.9-0.3-1.7-0.6-2.5-1
				c-0.3-0.2-0.8,0-0.9,0.4c-0.2,0.3,0,0.8,0.4,0.9C295,125.4,295.9,125.7,296.7,126.1z"/>
			<path class="st0" d="M282.7,117.1c0.1,0.1,0.3,0.2,0.5,0.2c0.2,0,0.3-0.1,0.5-0.2c0.3-0.3,0.3-0.7,0-1c-0.6-0.6-1.2-1.3-1.8-2
				c-0.2-0.3-0.7-0.3-1-0.1c-0.3,0.2-0.3,0.7-0.1,1C281.4,115.7,282,116.4,282.7,117.1z"/>
			<path class="st0" d="M302.1,127.6c0.1,0,0.1,0,0.2,0c0.3,0,0.6-0.2,0.7-0.5c0.1-0.4-0.1-0.7-0.5-0.8c-0.9-0.2-1.8-0.4-2.6-0.7
				c-0.4-0.1-0.7,0.1-0.9,0.5c-0.1,0.4,0.1,0.7,0.5,0.9C300.3,127.2,301.2,127.4,302.1,127.6z"/>
			<path class="st0" d="M289.2,122.4c0.8,0.5,1.6,1,2.4,1.4c0.1,0.1,0.2,0.1,0.3,0.1c0.2,0,0.5-0.1,0.6-0.4c0.2-0.3,0.1-0.8-0.3-0.9
				c-0.8-0.4-1.6-0.9-2.3-1.4c-0.3-0.2-0.7-0.1-0.9,0.2C288.8,121.8,288.9,122.2,289.2,122.4z"/>
			<path class="st0" d="M277.5,110.5c0.5,0.8,1,1.6,1.6,2.3c0.1,0.2,0.3,0.3,0.6,0.3c0.1,0,0.3,0,0.4-0.1c0.3-0.2,0.4-0.7,0.2-1
				c-0.5-0.7-1-1.5-1.5-2.2c-0.2-0.3-0.6-0.4-0.9-0.2C277.4,109.7,277.3,110.1,277.5,110.5z"/>
			<path class="st0" d="M307.6,128.6C307.6,128.6,307.6,128.6,307.6,128.6c0.4,0,0.7-0.2,0.8-0.6c0.1-0.4-0.2-0.7-0.6-0.8
				c-0.9-0.1-1.8-0.3-2.7-0.4c-0.4-0.1-0.7,0.2-0.8,0.6c-0.1,0.4,0.2,0.7,0.6,0.8C305.7,128.4,306.6,128.5,307.6,128.6z"/>
			<path class="st0" d="M302.8,130.8c-0.9-0.2-1.8-0.4-2.6-0.6c-0.4-0.1-0.7,0.1-0.8,0.5c-0.1,0.4,0.1,0.7,0.5,0.8
				c0.9,0.2,1.8,0.5,2.7,0.6c0,0,0.1,0,0.1,0c0.3,0,0.6-0.2,0.7-0.5C303.4,131.3,303.2,130.9,302.8,130.8z"/>
			<path class="st0" d="M297.6,129.4c-0.9-0.3-1.7-0.6-2.6-0.9c-0.4-0.1-0.8,0-0.9,0.4c-0.1,0.4,0,0.8,0.4,0.9
				c0.9,0.3,1.7,0.6,2.6,0.9c0.1,0,0.1,0,0.2,0c0.3,0,0.6-0.2,0.7-0.5C298.1,129.9,297.9,129.5,297.6,129.4z"/>
			<path class="st0" d="M271.6,103.8c-0.3-0.8-0.5-1.7-0.8-2.6c-0.1-0.4-0.5-0.6-0.8-0.5c-0.4,0.1-0.6,0.5-0.5,0.8
				c0.2,0.9,0.5,1.8,0.8,2.7c0.1,0.3,0.4,0.5,0.7,0.5c0.1,0,0.1,0,0.2,0C271.5,104.6,271.7,104.2,271.6,103.8z"/>
			<path class="st0" d="M274.9,111.2c-0.2-0.3-0.6-0.4-0.9-0.3c-0.3,0.2-0.4,0.6-0.3,0.9c0.5,0.8,1,1.6,1.5,2.4
				c0.1,0.2,0.4,0.3,0.6,0.3c0.1,0,0.3,0,0.4-0.1c0.3-0.2,0.4-0.6,0.2-1C275.8,112.8,275.3,112,274.9,111.2z"/>
			<path class="st0" d="M283.5,122.6c0.2-0.3,0.2-0.7-0.1-1c-0.4-0.3-0.7-0.7-1.1-1c-0.3-0.3-0.6-0.6-0.9-0.8c-0.3-0.3-0.7-0.3-1,0
				c-0.3,0.3-0.3,0.7,0,1c0.3,0.3,0.6,0.6,0.9,0.9c0.4,0.4,0.8,0.7,1.1,1c0.1,0.1,0.3,0.2,0.5,0.2
				C283.2,122.8,283.4,122.7,283.5,122.6z"/>
			<path class="st0" d="M287.8,124.9c-0.8-0.5-1.5-1-2.2-1.5c-0.3-0.2-0.7-0.2-1,0.1c-0.2,0.3-0.2,0.7,0.1,1
				c0.7,0.6,1.5,1.1,2.3,1.6c0.1,0.1,0.2,0.1,0.4,0.1c0.2,0,0.4-0.1,0.6-0.3C288.2,125.5,288.1,125.1,287.8,124.9z"/>
			<path class="st0" d="M279.1,118.9c0.2,0,0.3-0.1,0.5-0.2c0.3-0.3,0.3-0.7,0.1-1c-0.6-0.7-1.2-1.4-1.7-2.1c-0.2-0.3-0.7-0.4-1-0.1
				c-0.3,0.2-0.4,0.7-0.1,1c0.6,0.7,1.2,1.5,1.8,2.2C278.7,118.9,278.9,118.9,279.1,118.9z"/>
			<path class="st0" d="M273.6,108.8c-0.4-0.8-0.8-1.6-1.1-2.5c-0.1-0.4-0.5-0.5-0.9-0.4c-0.4,0.1-0.5,0.5-0.4,0.9
				c0.4,0.9,0.7,1.7,1.1,2.6c0.1,0.2,0.4,0.4,0.6,0.4c0.1,0,0.2,0,0.3-0.1C273.7,109.6,273.8,109.2,273.6,108.8z"/>
			<path class="st0" d="M269.7,99.4c0.4-0.1,0.6-0.4,0.5-0.8c-0.2-0.9-0.3-1.8-0.5-2.7c-0.1-0.4-0.4-0.6-0.8-0.6
				c-0.4,0.1-0.6,0.4-0.6,0.8c0.1,0.9,0.3,1.8,0.5,2.7c0.1,0.3,0.4,0.5,0.7,0.5C269.6,99.4,269.6,99.4,269.7,99.4z"/>
			<path class="st0" d="M292.5,127.4c-0.8-0.4-1.6-0.8-2.4-1.2c-0.3-0.2-0.8-0.1-0.9,0.3c-0.2,0.3-0.1,0.8,0.3,0.9
				c0.8,0.4,1.6,0.9,2.5,1.3c0.1,0,0.2,0.1,0.3,0.1c0.3,0,0.5-0.1,0.6-0.4C293,128,292.9,127.6,292.5,127.4z"/>
			<path class="st0" d="M313.6,132.1c-0.9,0-1.8-0.1-2.7-0.2c-0.4,0-0.7,0.3-0.7,0.6c0,0.4,0.3,0.7,0.6,0.7c0.9,0.1,1.8,0.1,2.8,0.2
				c0,0,0,0,0,0c0.4,0,0.7-0.3,0.7-0.7C314.3,132.5,314,132.2,313.6,132.1z"/>
			<path class="st0" d="M319.1,132.2c-0.6,0-1.3,0-1.9,0l-0.8,0c0,0,0,0,0,0c-0.4,0-0.7,0.3-0.7,0.7c0,0.4,0.3,0.7,0.7,0.7l0.8,0
				c0.6,0,1.3,0,1.9,0c0.4,0,0.7-0.3,0.7-0.7C319.8,132.5,319.5,132.2,319.1,132.2z"/>
			<path class="st0" d="M308.2,131.7c-0.9-0.1-1.8-0.2-2.7-0.4c-0.4-0.1-0.7,0.2-0.8,0.6c-0.1,0.4,0.2,0.7,0.6,0.8
				c0.9,0.1,1.8,0.3,2.8,0.4c0,0,0.1,0,0.1,0c0.3,0,0.6-0.3,0.7-0.6C308.8,132.1,308.6,131.7,308.2,131.7z"/>
			<path class="st0" d="M324.5,131.9c-0.9,0.1-1.8,0.1-2.7,0.2c-0.4,0-0.7,0.3-0.7,0.7c0,0.4,0.3,0.7,0.7,0.7c0,0,0,0,0,0
				c0.9,0,1.8-0.1,2.8-0.2c0.4,0,0.7-0.4,0.6-0.7C325.2,132.2,325,131.9,324.5,131.9z"/>
			<path class="st0" d="M228.9,116.1C228.9,116.1,228.9,116.1,228.9,116.1c0.4,0,0.7-0.3,0.7-0.7l-0.1-2.8c0-0.4-0.3-0.7-0.7-0.7
				c-0.4,0-0.7,0.3-0.7,0.7l0.1,2.8C228.2,115.8,228.5,116.1,228.9,116.1z"/>
			<path class="st0" d="M229,121.6C229,121.6,229,121.6,229,121.6c0.4,0,0.7-0.3,0.7-0.7l-0.1-2.8c0-0.4-0.3-0.7-0.7-0.7
				c0,0,0,0,0,0c-0.4,0-0.7,0.3-0.7,0.7l0.1,2.8C228.3,121.3,228.6,121.6,229,121.6z"/>
			<path class="st0" d="M229.1,127.1C229.1,127.1,229.1,127.1,229.1,127.1c0.4,0,0.7-0.3,0.7-0.7l-0.1-2.8c0-0.4-0.3-0.6-0.7-0.7
				c-0.4,0-0.7,0.3-0.7,0.7l0.1,2.8C228.4,126.8,228.7,127.1,229.1,127.1z"/>
			<path class="st0" d="M228.5,99.5C228.6,99.5,228.6,99.5,228.5,99.5c0.4,0,0.7-0.3,0.7-0.7l-0.1-2.8c0-0.4-0.3-0.7-0.7-0.7
				c-0.4,0-0.7,0.3-0.7,0.7l0.1,2.8C227.9,99.2,228.2,99.5,228.5,99.5z"/>
			<path class="st0" d="M228.4,94C228.4,94,228.4,94,228.4,94c0.4,0,0.7-0.3,0.7-0.7l-0.1-2.8c0-0.4-0.3-0.6-0.7-0.7
				c-0.4,0-0.7,0.3-0.7,0.7l0.1,2.8C227.8,93.7,228.1,94,228.4,94z"/>
			<path class="st0" d="M228.8,110.5C228.8,110.5,228.8,110.5,228.8,110.5c0.4,0,0.7-0.3,0.7-0.7l-0.1-2.8c0-0.4-0.3-0.6-0.7-0.7
				c-0.4,0-0.7,0.3-0.7,0.7l0.1,2.8C228.1,110.2,228.4,110.5,228.8,110.5z"/>
			<path class="st0" d="M229.2,132.6C229.2,132.6,229.2,132.6,229.2,132.6c0.4,0,0.7-0.3,0.7-0.7l-0.1-2.8c0-0.4-0.3-0.7-0.7-0.7
				c-0.4,0-0.7,0.3-0.7,0.7l0.1,2.8C228.5,132.3,228.9,132.6,229.2,132.6z"/>
			<path class="st0" d="M228.7,105C228.7,105,228.7,105,228.7,105c0.4,0,0.7-0.3,0.7-0.7l-0.1-2.8c0-0.4-0.3-0.7-0.7-0.7
				c-0.4,0-0.7,0.3-0.7,0.7l0.1,2.8C228,104.7,228.3,105,228.7,105z"/>
			<path class="st0" d="M228,73.4c-0.4,0-0.7,0.3-0.7,0.7l0.1,2.8c0,0.4,0.3,0.7,0.7,0.7c0,0,0,0,0,0c0.4,0,0.7-0.3,0.7-0.7
				l-0.1-2.8C228.7,73.7,228.4,73.4,228,73.4z"/>
			<path class="st0" d="M233.9,169.9c-0.3-0.8-0.6-1.7-0.9-2.6c-0.1-0.4-0.5-0.6-0.9-0.4c-0.4,0.1-0.6,0.5-0.4,0.9
				c0.3,0.9,0.6,1.8,0.9,2.6c0.1,0.3,0.4,0.5,0.6,0.5c0.1,0,0.2,0,0.2,0C233.8,170.6,234,170.2,233.9,169.9z"/>
			<path class="st0" d="M235.6,174.7c-0.3-0.7-0.5-1.5-0.8-2.3c-0.1-0.4-0.5-0.5-0.9-0.4c-0.4,0.1-0.5,0.5-0.4,0.9
				c0.3,0.8,0.6,1.6,0.9,2.3l0.1,0.3c0.1,0.3,0.4,0.5,0.6,0.5c0.1,0,0.2,0,0.2,0c0.4-0.1,0.5-0.5,0.4-0.9L235.6,174.7z"/>
			<path class="st0" d="M229.3,138.1C229.4,138.1,229.4,138.1,229.3,138.1c0.4,0,0.7-0.3,0.7-0.7l-0.1-2.8c0-0.4-0.3-0.7-0.7-0.7
				c-0.4,0-0.7,0.3-0.7,0.7l0.1,2.8C228.7,137.8,229,138.1,229.3,138.1z"/>
			<path class="st0" d="M228,72C228,72,228,72,228,72c0.4,0,0.7-0.3,0.7-0.7l-0.1-2.8c0-0.4-0.3-0.6-0.7-0.7c-0.4,0-0.7,0.3-0.7,0.7
				l0.1,2.8C227.3,71.7,227.6,72,228,72z"/>
			<path class="st0" d="M228.1,78.9c-0.4,0-0.7,0.3-0.7,0.7l0.1,2.8c0,0.4,0.3,0.7,0.7,0.7c0,0,0,0,0,0c0.4,0,0.7-0.3,0.7-0.7
				l-0.1-2.8C228.8,79.2,228.6,78.9,228.1,78.9z"/>
			<path class="st0" d="M229.5,143.7C229.5,143.7,229.5,143.7,229.5,143.7c0.4,0,0.7-0.3,0.7-0.7l-0.1-2.8c0-0.4-0.3-0.7-0.7-0.7
				c-0.4,0-0.7,0.3-0.7,0.7l0.1,2.8C228.8,143.4,229.1,143.7,229.5,143.7z"/>
			<path class="st0" d="M229.6,149.2C229.6,149.2,229.6,149.2,229.6,149.2c0.4,0,0.7-0.3,0.7-0.7l-0.1-2.8c0-0.4-0.3-0.7-0.7-0.7
				c-0.4,0-0.7,0.3-0.7,0.7l0.1,2.8C228.9,148.9,229.2,149.2,229.6,149.2z"/>
			<path class="st0" d="M232.1,164.7c0.2-0.1,0.5-0.2,0.7-0.4c0.3-0.2,0.5-0.6,0.3-0.9c-0.2-0.3-0.6-0.5-0.9-0.3
				c-0.2,0.1-0.3,0.2-0.5,0.2c-0.1-0.4-0.3-0.9-0.4-1.3c-0.1-0.4-0.5-0.6-0.8-0.5c-0.4,0.1-0.6,0.5-0.5,0.8c0.1,0.5,0.3,1,0.4,1.5
				c-0.2,0.1-0.4,0.2-0.4,0.2c-0.4,0.1-0.5,0.5-0.4,0.9c0.1,0.3,0.4,0.4,0.6,0.4c0.1,0,0.2,0,0.2,0c0,0,0.2-0.1,0.4-0.1
				c0.1,0.2,0.3,0.3,0.5,0.3c0.1,0,0.1,0,0.2,0C232,165.4,232.2,165,232.1,164.7z"/>
			<path class="st0" d="M229.7,150.6c-0.4,0-0.7,0.3-0.7,0.7l0.1,2.8c0,0.4,0.3,0.7,0.7,0.7c0,0,0,0,0,0c0.4,0,0.7-0.3,0.7-0.7
				l-0.1-2.8C230.4,150.9,230.1,150.6,229.7,150.6z"/>
			<path class="st0" d="M245.1,120.3c-0.4,0-0.7,0.3-0.7,0.7l0.1,2.8c0,0.4,0.3,0.7,0.7,0.7c0,0,0,0,0,0c0.4,0,0.7-0.3,0.7-0.7
				l-0.1-2.8C245.8,120.6,245.4,120.3,245.1,120.3z"/>
			<path class="st0" d="M244.5,96.9C244.5,96.9,244.5,96.9,244.5,96.9c0.4,0,0.7-0.3,0.7-0.7l0-2.8c0-0.4-0.3-0.7-0.7-0.7
				c-0.4,0-0.7,0.3-0.7,0.7l0,2.8C243.8,96.6,244.1,96.9,244.5,96.9z"/>
			<path class="st0" d="M234.2,158.7c0.1,0,0.2,0,0.4-0.1c0.8-0.5,1.6-1,2.3-1.6c0.3-0.2,0.4-0.7,0.2-1c-0.2-0.3-0.7-0.4-1-0.2
				c-0.7,0.5-1.5,1-2.2,1.5c-0.3,0.2-0.4,0.6-0.2,0.9C233.7,158.6,234,158.7,234.2,158.7z"/>
			<path class="st0" d="M244,147.7c-0.3-0.2-0.8,0-0.9,0.3c-0.4,0.8-0.8,1.5-1.3,2.3c-0.2,0.3-0.1,0.7,0.2,1
				c0.1,0.1,0.3,0.1,0.4,0.1c0.2,0,0.4-0.1,0.6-0.3c0.6-0.8,1.1-1.6,1.5-2.5C244.5,148.3,244.4,147.8,244,147.7z"/>
			<path class="st0" d="M241.1,153.3c0.3-0.3,0.2-0.7,0-1c-0.3-0.3-0.7-0.2-1,0c-0.6,0.6-1.2,1.3-1.9,1.9c-0.3,0.3-0.3,0.7-0.1,1
				c0.1,0.2,0.3,0.2,0.5,0.2c0.2,0,0.3-0.1,0.5-0.2C239.8,154.6,240.5,153.9,241.1,153.3z"/>
			<path class="st0" d="M245.3,131.3c-0.4,0-0.7,0.3-0.7,0.7c0,0.8,0,1.7,0,2.5v0.2c0,0.4,0.3,0.7,0.7,0.7c0.4,0,0.7-0.3,0.7-0.7
				v-0.2c0-0.8,0-1.7,0-2.5C246,131.6,245.7,131.4,245.3,131.3z"/>
			<path class="st0" d="M245.2,125.8c-0.4,0-0.7,0.3-0.7,0.7l0.1,2.7c0,0.4,0.3,0.7,0.7,0.7c0,0,0,0,0,0c0.4,0,0.7-0.3,0.7-0.7
				l-0.1-2.8C245.9,126.1,245.6,125.8,245.2,125.8z"/>
			<path class="st0" d="M245.3,136.8c-0.4,0-0.7,0.3-0.7,0.7c0,0.9,0,1.9-0.1,2.7c0,0.4,0.3,0.7,0.7,0.7c0,0,0,0,0,0
				c0.4,0,0.7-0.3,0.7-0.7c0-0.9,0.1-1.8,0.1-2.8C246,137.2,245.7,136.8,245.3,136.8z"/>
			<path class="st0" d="M244,145.5c-0.1,0.4,0.1,0.7,0.5,0.8c0.1,0,0.1,0,0.2,0c0.3,0,0.6-0.2,0.7-0.5c0.2-0.9,0.4-1.8,0.5-2.8
				c0,0,0-0.1,0-0.1l-0.7,0.1l-0.7,0C244.4,143.9,244.3,144.7,244,145.5z"/>
			<path class="st0" d="M244.5,98.3c-0.4,0-0.7,0.3-0.7,0.7l0.1,2.8c0,0.4,0.3,0.7,0.7,0.7c0,0,0,0,0,0c0.4,0,0.7-0.3,0.7-0.7
				l-0.1-2.8C245.2,98.6,244.9,98.3,244.5,98.3z"/>
			<path class="st0" d="M244.9,114.8c-0.4,0-0.7,0.3-0.7,0.7l0.1,2.8c0,0.4,0.3,0.7,0.7,0.7c0,0,0,0,0,0c0.4,0,0.7-0.3,0.7-0.7
				l-0.1-2.8C245.6,115.1,245.2,114.8,244.9,114.8z"/>
			<path class="st0" d="M244.7,109.3c-0.4,0-0.7,0.3-0.7,0.7l0.1,2.8c0,0.4,0.3,0.7,0.7,0.7c0,0,0,0,0,0c0.4,0,0.7-0.3,0.7-0.7
				l-0.1-2.8C245.4,109.6,245.1,109.3,244.7,109.3z"/>
			<path class="st0" d="M244.6,103.8c-0.4,0-0.7,0.3-0.7,0.7l0.1,2.8c0,0.4,0.3,0.7,0.7,0.7c0,0,0,0,0,0c0.4,0,0.7-0.3,0.7-0.7
				l-0.1-2.8C245.3,104.1,245,103.8,244.6,103.8z"/>
			<path class="st0" d="M248.5,98.5c-0.4,0-0.7,0.3-0.7,0.7l0.1,2.8c0,0.4,0.3,0.7,0.7,0.7c0,0,0,0,0,0c0.4,0,0.7-0.3,0.7-0.7
				l-0.1-2.8C249.2,98.8,248.9,98.6,248.5,98.5z"/>
			<path class="st0" d="M248.4,143.3c-0.1,0.9-0.2,1.7-0.4,2.6c-0.1,0.4,0.2,0.7,0.5,0.8c0,0,0.1,0,0.1,0c0.3,0,0.6-0.2,0.7-0.5
				c0.2-0.9,0.3-1.8,0.4-2.8l-0.7-0.1L248.4,143.3z"/>
			<path class="st0" d="M249.3,137.1c-0.4,0-0.7,0.3-0.7,0.7c0,0.9,0,1.9-0.1,2.7c0,0.4,0.3,0.7,0.7,0.7c0,0,0,0,0,0
				c0.4,0,0.7-0.3,0.7-0.7c0-0.9,0.1-1.8,0.1-2.8C249.9,137.4,249.6,137.1,249.3,137.1z"/>
			<path class="st0" d="M249.3,131.6c-0.4,0-0.7,0.3-0.7,0.7c0,0.8,0,1.5,0,2.3v0.5c0,0.4,0.3,0.7,0.7,0.7c0,0,0,0,0,0
				c0.4,0,0.7-0.3,0.7-0.7v-0.5c0-0.8,0-1.5,0-2.3C249.9,131.9,249.6,131.6,249.3,131.6z"/>
			<path class="st0" d="M248.2,148c-0.4-0.1-0.8,0-0.9,0.4c-0.3,0.8-0.7,1.6-1.1,2.4c-0.2,0.3-0.1,0.8,0.3,0.9
				c0.1,0.1,0.2,0.1,0.3,0.1c0.2,0,0.5-0.1,0.6-0.4c0.5-0.8,0.9-1.7,1.2-2.6C248.7,148.5,248.5,148.1,248.2,148z"/>
			<path class="st0" d="M249.2,126.1c-0.4,0-0.7,0.3-0.7,0.7l0.1,2.7c0,0.4,0.3,0.7,0.7,0.7c0,0,0,0,0,0c0.4,0,0.7-0.3,0.7-0.7
				l-0.1-2.8C249.9,126.4,249.6,126.1,249.2,126.1z"/>
			<path class="st0" d="M244.8,153.1c-0.5,0.7-1.1,1.4-1.7,2.1c-0.3,0.3-0.2,0.7,0.1,1c0.1,0.1,0.3,0.2,0.5,0.2
				c0.2,0,0.4-0.1,0.5-0.2c0.6-0.7,1.2-1.5,1.8-2.2c0.2-0.3,0.1-0.7-0.2-1C245.4,152.7,245,152.8,244.8,153.1z"/>
			<path class="st0" d="M241.2,157.1c-0.6,0.6-1.3,1.2-2.1,1.7c-0.3,0.2-0.4,0.7-0.1,1c0.1,0.2,0.3,0.3,0.5,0.3c0.1,0,0.3,0,0.4-0.1
				c0.8-0.6,1.5-1.2,2.1-1.8c0.3-0.3,0.3-0.7,0-1C241.9,156.8,241.5,156.8,241.2,157.1z"/>
			<path class="st0" d="M237,160.4c-0.8,0.5-1.6,1-2.3,1.4c-0.3,0.2-0.4,0.6-0.3,0.9c0.1,0.2,0.4,0.3,0.6,0.3c0.1,0,0.2,0,0.3-0.1
				c0.7-0.4,1.6-0.9,2.4-1.5c0.3-0.2,0.4-0.6,0.2-1C237.7,160.3,237.3,160.2,237,160.4z"/>
			<path class="st0" d="M248.4,97.2C248.4,97.2,248.4,97.2,248.4,97.2c0.4,0,0.7-0.3,0.7-0.7l-0.1-2.8c0-0.4-0.3-0.7-0.7-0.7
				c-0.4,0-0.7,0.3-0.7,0.7l0.1,2.8C247.7,96.9,248,97.2,248.4,97.2z"/>
			<path class="st0" d="M248.6,104.1c-0.4,0-0.7,0.3-0.7,0.7l0.1,2.8c0,0.4,0.3,0.7,0.7,0.7c0,0,0,0,0,0c0.4,0,0.7-0.3,0.7-0.7
				l-0.1-2.8C249.3,104.3,249,104,248.6,104.1z"/>
			<path class="st0" d="M248.8,115.1c-0.4,0-0.7,0.3-0.7,0.7l0.1,2.7c0,0.4,0.3,0.7,0.7,0.7c0,0,0,0,0,0c0.4,0,0.7-0.3,0.7-0.7
				l-0.1-2.8C249.5,115.4,249.2,115.1,248.8,115.1z"/>
			<path class="st0" d="M249,120.6c-0.4,0-0.7,0.3-0.7,0.7l0.1,2.7c0,0.4,0.3,0.7,0.7,0.7c0,0,0,0,0,0c0.4,0,0.7-0.3,0.7-0.7
				l-0.1-2.8C249.7,120.9,249.4,120.5,249,120.6z"/>
			<path class="st0" d="M248.7,109.6c-0.4,0-0.7,0.3-0.7,0.7l0.1,2.8c0,0.4,0.3,0.7,0.7,0.7c0,0,0,0,0,0c0.4,0,0.7-0.3,0.7-0.7
				l-0.1-2.8C249.4,109.9,249.1,109.6,248.7,109.6z"/>
			<path class="st0" d="M170.5,108c-0.4,0-0.7,0.3-0.7,0.6l-0.2,2.7c0,0.4,0.3,0.7,0.6,0.7c0,0,0,0,0,0c0.4,0,0.7-0.3,0.7-0.6
				l0.2-2.7C171.2,108.3,170.9,108,170.5,108z"/>
			<path class="st0" d="M170.2,113.5c-0.4,0-0.7,0.3-0.7,0.6l-0.2,2.7c0,0.4,0.3,0.7,0.6,0.7c0,0,0,0,0,0c0.4,0,0.7-0.3,0.7-0.6
				l0.2-2.7C170.8,113.8,170.5,113.5,170.2,113.5z"/>
			<path class="st0" d="M164.4,103.3l-2.7-0.1c-0.4,0-0.7,0.3-0.7,0.7c0,0.4,0.3,0.7,0.7,0.7l2.7,0.1c0,0,0,0,0,0
				c0.4,0,0.7-0.3,0.7-0.7C165.1,103.7,164.8,103.4,164.4,103.3z"/>
			<path class="st0" d="M170.9,102.5c-0.4,0-0.7,0.3-0.7,0.6l0,0.5c-0.1,0-0.2-0.1-0.2-0.1l-2.7-0.1c-0.4,0-0.7,0.3-0.7,0.7
				c0,0.4,0.3,0.7,0.7,0.7l2.7,0.1c0,0,0,0,0,0c0.1,0,0.1,0,0.2,0l-0.1,0.9c0,0.4,0.3,0.7,0.6,0.7c0,0,0,0,0,0
				c0.4,0,0.7-0.3,0.7-0.6l0.2-2.7C171.6,102.9,171.3,102.5,170.9,102.5z"/>
			<path class="st0" d="M158.9,103.1l-2.7-0.1c-0.4,0-0.7,0.3-0.7,0.7c0,0.4,0.3,0.7,0.7,0.7l2.7,0.1c0,0,0,0,0,0
				c0.4,0,0.7-0.3,0.7-0.7C159.6,103.4,159.3,103.1,158.9,103.1z"/>
			<path class="st0" d="M160,83.5c-1-0.1-1.9-0.1-2.7-0.2c-0.4,0-0.7,0.3-0.7,0.6c0,0.4,0.3,0.7,0.6,0.7c0.9,0.1,1.8,0.1,2.8,0.2
				c0,0,0,0,0,0c0.4,0,0.7-0.3,0.7-0.6C160.7,83.8,160.4,83.5,160,83.5z"/>
			<path class="st0" d="M165.5,83.8c-0.9,0-1.9-0.1-2.7-0.1c-0.4,0-0.7,0.3-0.7,0.7c0,0.4,0.3,0.7,0.7,0.7c0.9,0,1.8,0.1,2.8,0.1
				c0,0,0,0,0,0c0.4,0,0.7-0.3,0.7-0.7C166.1,84.1,165.9,83.8,165.5,83.8z"/>
			<path class="st0" d="M286.5,82.7l-2.7,0.1c-0.4,0-0.7,0.3-0.7,0.7c0,0.4,0.3,0.7,0.7,0.7c0,0,0,0,0,0l2.8-0.1
				c0.4,0,0.7-0.3,0.7-0.7C287.2,82.9,286.9,82.6,286.5,82.7z"/>
			<path class="st0" d="M176.5,84.1l-2.7-0.1c-0.4,0-0.7,0.3-0.7,0.7c0,0.4,0.3,0.7,0.7,0.7l2.8,0.1c0,0,0,0,0,0
				c0.4,0,0.7-0.3,0.7-0.7C177.1,84.4,176.8,84.1,176.5,84.1z"/>
			<path class="st0" d="M171,84l-2.7-0.1c-0.4,0-0.7,0.3-0.7,0.7c0,0.4,0.3,0.7,0.7,0.7l2.8,0.1c0,0,0,0,0,0c0.4,0,0.7-0.3,0.7-0.7
				C171.6,84.3,171.3,84,171,84z"/>
			<path class="st0" d="M327.1,81.1c0,0.4,0.3,0.6,0.7,0.6c0,0,0,0,0.1,0c1-0.1,2-0.2,2.8-0.3c0.4,0,0.6-0.4,0.6-0.8
				c0-0.4-0.4-0.7-0.8-0.6c-0.8,0.1-1.7,0.2-2.7,0.3C327.4,80.4,327.1,80.8,327.1,81.1z"/>
			<path class="st0" d="M325,80.6c-0.9,0.1-1.8,0.1-2.7,0.2c-0.4,0-0.7,0.4-0.6,0.7c0,0.4,0.3,0.6,0.7,0.6c0,0,0,0,0.1,0
				c1-0.1,1.9-0.1,2.8-0.2c0.4,0,0.7-0.4,0.6-0.7C325.7,80.9,325.4,80.6,325,80.6z"/>
			<path class="st0" d="M182,84.2l-2.8,0c-0.4,0-0.7,0.3-0.7,0.7c0,0.4,0.3,0.7,0.7,0.7l2.8,0c0,0,0,0,0,0c0.4,0,0.7-0.3,0.7-0.7
				C182.6,84.5,182.3,84.2,182,84.2z"/>
			<path class="st0" d="M292,82.4l-2.8,0.1c-0.4,0-0.7,0.3-0.7,0.7c0,0.4,0.3,0.7,0.7,0.7c0,0,0,0,0,0l2.8-0.1
				c0.4,0,0.7-0.3,0.7-0.7C292.7,82.7,292.4,82.4,292,82.4z"/>
			<path class="st0" d="M314,81.4l-2.7,0.2c-0.4,0-0.7,0.3-0.6,0.7c0,0.4,0.3,0.6,0.7,0.6c0,0,0,0,0,0l2.8-0.2
				c0.4,0,0.7-0.3,0.6-0.7C314.7,81.6,314.4,81.4,314,81.4z"/>
			<path class="st0" d="M308.5,81.7l-2.7,0.1c-0.4,0-0.7,0.3-0.7,0.7c0,0.4,0.3,0.7,0.7,0.7c0,0,0,0,0,0l2.8-0.1
				c0.4,0,0.7-0.3,0.7-0.7C309.2,82,308.9,81.7,308.5,81.7z"/>
			<path class="st0" d="M297.5,82.2l-2.7,0.1c-0.4,0-0.7,0.3-0.7,0.7c0,0.4,0.3,0.7,0.7,0.7c0,0,0,0,0,0l2.8-0.1
				c0.4,0,0.7-0.3,0.7-0.7C298.2,82.5,297.9,82.2,297.5,82.2z"/>
			<path class="st0" d="M303,82l-2.7,0.1c-0.4,0-0.7,0.3-0.7,0.7c0,0.4,0.3,0.7,0.7,0.7c0,0,0,0,0,0l2.8-0.1c0.4,0,0.7-0.3,0.7-0.7
				C303.7,82.2,303.4,81.9,303,82z"/>
			<path class="st0" d="M319.5,81l-2.7,0.2c-0.4,0-0.7,0.4-0.6,0.7c0,0.4,0.3,0.6,0.7,0.6c0,0,0,0,0,0l2.8-0.2
				c0.4,0,0.7-0.4,0.6-0.7C320.2,81.3,319.9,81,319.5,81z"/>
			<path class="st0" d="M259,83.5l-2.8,0.1c-0.4,0-0.7,0.3-0.7,0.7c0,0.4,0.3,0.7,0.7,0.7c0,0,0,0,0,0l2.8-0.1
				c0.4,0,0.7-0.3,0.7-0.7C259.7,83.8,259.4,83.5,259,83.5z"/>
			<path class="st0" d="M253.5,83.7l-2.8,0.1c-0.4,0-0.7,0.3-0.7,0.7c0,0.4,0.3,0.7,0.7,0.7c0,0,0,0,0,0l2.8-0.1
				c0.4,0,0.7-0.3,0.7-0.7C254.2,84,254,83.7,253.5,83.7z"/>
			<path class="st0" d="M261.1,84.2c0,0.4,0.3,0.7,0.7,0.7c0,0,0,0,0,0l2.8-0.1c0.4,0,0.7-0.3,0.7-0.7s-0.4-0.7-0.7-0.7l-2.8,0.1
				C261.4,83.5,261.1,83.8,261.1,84.2z"/>
			<path class="st0" d="M248,83.8l-2.8,0.1c-0.4,0-0.7,0.3-0.7,0.7c0,0.4,0.3,0.7,0.7,0.7c0,0,0,0,0,0l2.8-0.1
				c0.4,0,0.7-0.3,0.7-0.7C248.7,84.1,248.4,83.8,248,83.8z"/>
			<path class="st0" d="M242.5,83.9l-2.8,0.1c-0.4,0-0.7,0.3-0.7,0.7c0,0.4,0.3,0.7,0.7,0.7c0,0,0,0,0,0l2.8-0.1
				c0.4,0,0.7-0.3,0.7-0.7C243.2,84.2,242.9,83.9,242.5,83.9z"/>
			<path class="st0" d="M237,84l-2.8,0c-0.4,0-0.7,0.3-0.7,0.7c0,0.4,0.3,0.7,0.7,0.7c0,0,0,0,0,0l2.8,0c0.4,0,0.7-0.3,0.7-0.7
				C237.7,84.3,237.4,84,237,84z"/>
			<path class="st0" d="M204.7,85c0-0.4-0.3-0.7-0.7-0.7c0,0,0,0,0,0l-2.8,0c-0.4,0-0.7,0.3-0.7,0.7c0,0.4,0.3,0.7,0.7,0.7l2.8,0
				C204.4,85.7,204.7,85.4,204.7,85z"/>
			<path class="st0" d="M198.5,84.4l-2.8,0h0c-0.4,0-0.7,0.3-0.7,0.7c0,0.4,0.3,0.7,0.7,0.7l2.8,0l0,0c0.4,0,0.7-0.3,0.7-0.7
				C199.2,84.7,198.9,84.4,198.5,84.4z"/>
			<path class="st0" d="M281,82.9l-2.8,0.1c-0.4,0-0.7,0.3-0.7,0.7c0,0.4,0.3,0.7,0.7,0.7c0,0,0,0,0,0l2.8-0.1
				c0.4,0,0.7-0.3,0.7-0.7C281.7,83.1,281.4,82.8,281,82.9z"/>
			<path class="st0" d="M215,84.3C215,84.3,215,84.3,215,84.3l-2.8,0c-0.4,0-0.7,0.3-0.7,0.7c0,0.4,0.3,0.7,0.7,0.7c0,0,0,0,0,0
				l2.8,0c0.4,0,0.7-0.3,0.7-0.7C215.7,84.6,215.4,84.3,215,84.3z"/>
			<path class="st0" d="M209.5,84.3C209.5,84.3,209.5,84.3,209.5,84.3l-2.8,0c-0.4,0-0.7,0.3-0.7,0.7c0,0.4,0.3,0.7,0.7,0.7h0l2.8,0
				c0.4,0,0.7-0.3,0.7-0.7C210.2,84.6,209.9,84.3,209.5,84.3z"/>
			<path class="st0" d="M220.5,84.3C220.5,84.3,220.5,84.3,220.5,84.3l-2.8,0c-0.4,0-0.7,0.3-0.7,0.7c0,0.4,0.3,0.7,0.7,0.7
				c0,0,0,0,0,0l2.7,0c0.4,0,0.7-0.3,0.7-0.7C221.2,84.6,220.9,84.3,220.5,84.3z"/>
			<path class="st0" d="M313.8,64C313.9,64,313.9,64,313.8,64c1-0.1,1.9-0.1,2.8-0.2c0.4,0,0.7-0.4,0.6-0.7c0-0.4-0.3-0.7-0.7-0.6
				c-0.9,0.1-1.8,0.1-2.7,0.2c-0.4,0-0.7,0.4-0.6,0.7C313.2,63.8,313.5,64,313.8,64z"/>
			<path class="st0" d="M324.8,63.1C324.8,63.1,324.9,63.1,324.8,63.1c1.1-0.1,2-0.2,2.8-0.3c0.4-0.1,0.6-0.4,0.6-0.8
				c-0.1-0.4-0.4-0.6-0.8-0.6c-0.8,0.1-1.7,0.2-2.7,0.3c-0.4,0-0.6,0.4-0.6,0.8C324.2,62.8,324.5,63.1,324.8,63.1z"/>
			<path class="st0" d="M302.8,64.8C302.9,64.8,302.9,64.8,302.8,64.8l2.8-0.2c0.4,0,0.7-0.3,0.6-0.7c0-0.4-0.4-0.7-0.7-0.6
				l-2.7,0.2c-0.4,0-0.7,0.3-0.6,0.7C302.2,64.5,302.5,64.8,302.8,64.8z"/>
			<path class="st0" d="M319.3,63.6C319.4,63.6,319.4,63.6,319.3,63.6c1-0.1,1.9-0.2,2.8-0.3c0.4,0,0.7-0.4,0.6-0.8
				c0-0.4-0.4-0.6-0.8-0.6c-0.9,0.1-1.8,0.2-2.7,0.3c-0.4,0-0.7,0.4-0.6,0.7C318.7,63.3,319,63.6,319.3,63.6z"/>
			<path class="st0" d="M308.3,64.4C308.4,64.4,308.4,64.4,308.3,64.4l2.8-0.2c0.4,0,0.7-0.4,0.6-0.7c0-0.4-0.4-0.7-0.7-0.6
				l-2.7,0.2c-0.4,0-0.7,0.4-0.6,0.7C307.7,64.1,308,64.4,308.3,64.4z"/>
			<path class="st0" d="M209.3,67.5C209.3,67.5,209.3,67.5,209.3,67.5l2.8,0c0.4,0,0.7-0.3,0.7-0.7c0-0.4-0.3-0.7-0.7-0.7
				c0,0,0,0,0,0l-2.8,0c-0.4,0-0.7,0.3-0.7,0.7C208.6,67.2,208.9,67.5,209.3,67.5z"/>
			<path class="st0" d="M231.3,67.2C231.3,67.2,231.3,67.2,231.3,67.2l2.8,0c0.4,0,0.7-0.3,0.7-0.7c0-0.4-0.3-0.7-0.7-0.7l-2.7,0
				c-0.4,0-0.7,0.3-0.7,0.7C230.6,66.9,230.9,67.2,231.3,67.2z"/>
			<path class="st0" d="M198.2,67.5l2.8,0c0,0,0,0,0,0c0.4,0,0.7-0.3,0.7-0.7c0-0.4-0.3-0.7-0.7-0.7l-2.8,0c0,0,0,0,0,0
				c-0.4,0-0.7,0.3-0.7,0.7C197.6,67.2,197.9,67.5,198.2,67.5z"/>
			<path class="st0" d="M214.8,67.5C214.8,67.5,214.8,67.5,214.8,67.5l2.8,0c0.4,0,0.7-0.3,0.7-0.7c0-0.4-0.3-0.7-0.7-0.7
				c0,0,0,0,0,0l-2.8,0c-0.4,0-0.7,0.3-0.7,0.7C214.1,67.2,214.4,67.5,214.8,67.5z"/>
			<path class="st0" d="M220.3,67.4C220.3,67.4,220.3,67.4,220.3,67.4l2.8,0c0.4,0,0.7-0.3,0.7-0.7c0-0.4-0.4-0.7-0.7-0.7l-2.8,0
				c-0.4,0-0.7,0.3-0.7,0.7C219.6,67.1,219.9,67.4,220.3,67.4z"/>
			<path class="st0" d="M297.3,65.1C297.4,65.1,297.4,65.1,297.3,65.1l2.8-0.2c0.4,0,0.7-0.3,0.6-0.7c0-0.4-0.3-0.7-0.7-0.6
				l-2.7,0.1c-0.4,0-0.7,0.3-0.7,0.7C296.7,64.8,297,65.1,297.3,65.1z"/>
			<path class="st0" d="M170.7,67c0.9,0,1.8,0.1,2.8,0.1c0,0,0,0,0,0c0.4,0,0.7-0.3,0.7-0.7c0-0.4-0.3-0.7-0.7-0.7
				c-0.9,0-1.9-0.1-2.7-0.1c-0.3,0-0.7,0.3-0.7,0.7C170,66.7,170.3,67,170.7,67z"/>
			<path class="st0" d="M165.2,66.8c0.9,0,1.8,0.1,2.8,0.1c0,0,0,0,0,0c0.4,0,0.7-0.3,0.7-0.7c0-0.4-0.3-0.7-0.7-0.7
				c-0.9,0-1.9-0.1-2.7-0.1c-0.4,0-0.7,0.3-0.7,0.7C164.5,66.5,164.8,66.8,165.2,66.8z"/>
			<path class="st0" d="M159.7,66.5c0.9,0.1,1.8,0.1,2.8,0.2c0,0,0,0,0,0c0.4,0,0.7-0.3,0.7-0.6c0-0.4-0.3-0.7-0.6-0.7
				c-1-0.1-1.9-0.1-2.7-0.2c-0.4,0-0.7,0.3-0.7,0.6C159,66.1,159.3,66.4,159.7,66.5z"/>
			<path class="st0" d="M176.2,67.2l2.8,0.1c0,0,0,0,0,0c0.4,0,0.7-0.3,0.7-0.7c0-0.4-0.3-0.7-0.7-0.7l-2.7-0.1
				c-0.4,0-0.7,0.3-0.7,0.7C175.5,66.9,175.8,67.2,176.2,67.2z"/>
			<path class="st0" d="M184.5,66l-2.8,0c-0.4,0-0.7,0.3-0.7,0.7c0,0.4,0.3,0.7,0.7,0.7l2.8,0c0,0,0,0,0,0c0.4,0,0.7-0.3,0.7-0.7
				C185.2,66.3,184.9,66,184.5,66z"/>
			<path class="st0" d="M203.7,67.5C203.7,67.5,203.7,67.5,203.7,67.5l2.8,0c0.4,0,0.7-0.3,0.7-0.7c0-0.4-0.3-0.7-0.7-0.7h0l-2.8,0
				c-0.4,0-0.7,0.3-0.7,0.7C203.1,67.2,203.4,67.5,203.7,67.5z"/>
			<path class="st0" d="M280.8,65.8C280.8,65.8,280.9,65.8,280.8,65.8l2.8-0.1c0.4,0,0.7-0.3,0.7-0.7c0-0.4-0.4-0.7-0.7-0.7
				l-2.8,0.1c-0.4,0-0.7,0.3-0.7,0.7C280.2,65.5,280.5,65.8,280.8,65.8z"/>
			<path class="st0" d="M286.3,65.6C286.4,65.6,286.4,65.6,286.3,65.6l2.8-0.1c0.4,0,0.7-0.3,0.7-0.7c0-0.4-0.4-0.7-0.7-0.7
				l-2.7,0.1c-0.4,0-0.7,0.3-0.7,0.7C285.7,65.3,286,65.6,286.3,65.6z"/>
			<path class="st0" d="M291.8,65.3C291.9,65.3,291.9,65.3,291.8,65.3l2.8-0.1c0.4,0,0.7-0.3,0.7-0.7c0-0.4-0.3-0.7-0.7-0.7
				l-2.7,0.1c-0.4,0-0.7,0.3-0.7,0.7C291.2,65.1,291.5,65.3,291.8,65.3z"/>
			<path class="st0" d="M275.3,66C275.3,66,275.4,66,275.3,66l2.8-0.1c0.4,0,0.7-0.3,0.7-0.7c0-0.4-0.3-0.7-0.7-0.7l-2.7,0.1
				c-0.4,0-0.7,0.3-0.7,0.7C274.7,65.8,275,66,275.3,66z"/>
			<path class="st0" d="M247.8,66.9C247.8,66.9,247.8,66.9,247.8,66.9l2.8-0.1c0.4,0,0.7-0.3,0.7-0.7c0-0.4-0.3-0.7-0.7-0.7
				l-2.8,0.1c-0.4,0-0.7,0.3-0.7,0.7C247.1,66.6,247.4,66.9,247.8,66.9z"/>
			<path class="st0" d="M258.8,66.6C258.8,66.6,258.8,66.6,258.8,66.6l2.8-0.1c0.4,0,0.7-0.3,0.7-0.7c0-0.4-0.4-0.7-0.7-0.7
				l-2.8,0.1c-0.4,0-0.7,0.3-0.7,0.7C258.1,66.3,258.5,66.6,258.8,66.6z"/>
			<path class="st0" d="M236.8,67.1C236.8,67.1,236.8,67.1,236.8,67.1l2.8-0.1c0.4,0,0.7-0.3,0.7-0.7c0-0.4-0.3-0.7-0.7-0.7
				l-2.8,0.1c-0.4,0-0.7,0.3-0.7,0.7C236.1,66.8,236.4,67.1,236.8,67.1z"/>
			<path class="st0" d="M242.3,67C242.3,67,242.3,67,242.3,67l2.8-0.1c0.4,0,0.7-0.3,0.7-0.7c0-0.4-0.3-0.7-0.7-0.7l-2.8,0.1
				c-0.4,0-0.7,0.3-0.7,0.7C241.6,66.7,241.9,67,242.3,67z"/>
			<path class="st0" d="M253.3,66.8C253.3,66.8,253.3,66.8,253.3,66.8l2.8-0.1c0.4,0,0.7-0.3,0.7-0.7c0-0.4-0.4-0.7-0.7-0.7
				l-2.8,0.1c-0.4,0-0.7,0.3-0.7,0.7C252.6,66.5,252.9,66.8,253.3,66.8z"/>
			<g>
				<path class="st0" d="M236,70.2c-2.8,0-5.2,2.3-5.2,5.2s2.3,5.2,5.2,5.2s5.2-2.3,5.2-5.2S238.8,70.2,236,70.2z"/>
			</g>
		</g>
	</g>
</g>
</svg>
