<?xml version="1.0" encoding="utf-8"?>
<!-- Generator: Adobe Illustrator 21.0.2, SVG Export Plug-In . SVG Version: 6.00 Build 0)  -->
<svg version="1.1" id="Layer_1" xmlns="http://www.w3.org/2000/svg" xmlns:xlink="http://www.w3.org/1999/xlink" x="0px" y="0px"
	 viewBox="0 0 512 512" style="enable-background:new 0 0 512 512;" xml:space="preserve">
<style type="text/css">
	.st0{fill:#217346;}
</style>
<path class="st0" d="M329.1,442.2c0-18.9,5-36.5,13.6-51.8l-52.4-77.1L371.5,192h-67.6L256,262.5L208.1,192h-67.6l81.1,121.2
	L130.1,448H256v-45.8h-25.1l25.1-37.5l55.7,83.3h17.6C329.2,446.1,329.1,444.1,329.1,442.2z"/>
<path class="st0" d="M336.1,480H72c-4.3,0-8-3.7-8-8V40c0-4.3,3.7-8,8-8c0,0,248,0,248,0v112c0,8.8,7.2,16,16,16h112v177.9
	c11.3,1.5,22.1,4.7,32,9.5V160c0-7.2-2.2-19.7-21.1-45.5v0c-11.1-15.1-26.6-32.9-43.6-49.9c-17-17-34.7-32.5-49.9-43.6
	C339.7,2.2,327.2,0,320,0H72C49.9,0,32,17.9,32,40v432c0,22.1,17.9,40,40,40h283.6C347.4,502.7,340.7,491.9,336.1,480z M352,51
	c11.5,8.9,25.3,20.9,40.7,36.3h0c15.4,15.4,27.4,29.2,36.3,40.7h-77V51z"/>
<path d="M428.9,512.7c1.5,1.5,3.6,2.3,5.5,2.3s4-0.8,5.5-2.3l49.9-49.9c3.1-3.1,3.1-8,0-11.1c-3.1-3.1-8-3.1-11.1,0l-36.5,36.5
	V377.3c0-4.4-3.5-7.9-7.9-7.9s-7.9,3.5-7.9,7.9v110.9L390,451.6c-3.1-3.1-8-3.1-11.1,0c-3.1,3.1-3.1,8,0,11.1L428.9,512.7z"/>
</svg>
