<?xml version="1.0" encoding="utf-8"?>
<!-- Generator: Adobe Illustrator 21.1.0, SVG Export Plug-In . SVG Version: 6.00 Build 0)  -->
<svg version="1.1" id="Layer_1" xmlns="http://www.w3.org/2000/svg" xmlns:xlink="http://www.w3.org/1999/xlink" x="0px" y="0px"
	 viewBox="0 0 457.4 682" style="enable-background:new 0 0 457.4 682;" xml:space="preserve">
<style type="text/css">
	.st0{fill:#D9248F;}
</style>
<g>
	<g>
		<path class="st0" d="M189.5,581.5c-0.9-0.3-1.8-0.5-2.7-0.8c-0.4-0.1-0.8,0.1-0.9,0.5c-0.1,0.4,0.1,0.8,0.5,0.9
			c0.9,0.3,1.8,0.5,2.7,0.8c0.1,0,0.1,0,0.2,0c0.3,0,0.6-0.2,0.7-0.5C190.1,582,189.9,581.6,189.5,581.5z"/>
		<path class="st0" d="M184.1,580l-2.7-0.8c-0.4-0.1-0.8,0.1-0.9,0.5c-0.1,0.4,0.1,0.8,0.5,0.9l2.7,0.8c0.1,0,0.1,0,0.2,0
			c0.3,0,0.6-0.2,0.7-0.5C184.7,580.4,184.5,580.1,184.1,580z"/>
		<path class="st0" d="M194.8,583.2c-0.9-0.3-1.8-0.6-2.7-0.9c-0.4-0.1-0.8,0.1-0.9,0.5c-0.1,0.4,0.1,0.8,0.4,0.9
			c0.9,0.3,1.8,0.6,2.6,0.9c0.1,0,0.2,0,0.2,0c0.3,0,0.6-0.2,0.7-0.5C195.4,583.7,195.2,583.4,194.8,583.2z"/>
		<path class="st0" d="M201.9,587.8c0.9,0.5,1.6,1.1,2.1,1.6c0.1,0.1,0.3,0.2,0.5,0.2s0.4-0.1,0.5-0.2c0.3-0.3,0.3-0.7,0-1
			c-0.6-0.6-1.4-1.2-2.3-1.8c-0.3-0.2-0.8-0.1-1,0.2C201.5,587.2,201.6,587.6,201.9,587.8z"/>
		<path class="st0" d="M206.1,594.1c0.1,0.3,0.4,0.5,0.7,0.5c0.1,0,0.1,0,0.2,0c0.4-0.1,0.6-0.5,0.5-0.9c-0.3-0.9-0.5-1.8-0.9-2.7
			c-0.1-0.4-0.5-0.5-0.9-0.4s-0.5,0.5-0.4,0.9C205.5,592.4,205.8,593.3,206.1,594.1z"/>
		<path class="st0" d="M206.8,596.8c0.2,1,0.4,1.9,0.5,2.7c0.1,0.3,0.4,0.6,0.7,0.6h0.1c0.4-0.1,0.6-0.4,0.6-0.8
			c-0.1-0.8-0.3-1.8-0.5-2.8c-0.1-0.4-0.5-0.6-0.8-0.5C206.9,596,206.7,596.4,206.8,596.8z"/>
		<path class="st0" d="M196.6,584.6c-0.1,0.4,0,0.8,0.4,0.9c0.9,0.3,1.7,0.7,2.5,1.1c0.1,0,0.2,0.1,0.3,0.1c0.3,0,0.5-0.2,0.6-0.4
			c0.2-0.3,0-0.8-0.3-0.9c-0.8-0.4-1.7-0.8-2.6-1.1C197.1,584.1,196.7,584.2,196.6,584.6z"/>
		<path class="st0" d="M372.5,629.3c0-0.5-0.1-0.9-0.1-1.2c0-0.2-0.1-0.4-0.1-0.7c-2.2-8.9-8.7-20.8-11.2-25.3
			c1.7-4.2,4.6-12.3,3.8-16.6c-0.6-3.1-2.3-5.4-3.5-7c0,0,0,0,0-0.1c0.2-0.2,0.5-0.4,0.7-0.5c1.4-1.1,2.9-2.3,4.1-3.8
			c1.6-2,1-4.6-0.1-10.3c-0.4-2-1.1-5.2-1-6.2c0.1-0.5,0.6-1.8,1-2.9c2.9-7.8,4.7-13.6,2.1-17c-1-1.3-3.5-8-5-12
			c-1.1-3.1-2.2-6-3.1-7.9c-0.4-1-1-2-1.5-2.9c-1-1.8-1.9-3.4-1.9-4.8c-0.1-2.5,0.4-7.4,0.5-9.1c0-0.2,0-0.5,0-0.7
			c0-0.7-9.9-50.6-6.2-92.6c-1-15.7-6.2-31.4-7.5-34.9v-6.7c0-0.1,0-0.3,0-0.4c-0.1-1.2-11.2-116.4-13.4-152.1
			c-1.9-30.7-11.9-103.7-15.2-127.6c-0.6-4.4-1-7.3-1.1-8.3c-0.4-3-0.6-6.3-0.9-9.8c-0.3-3.9-0.6-8-1.1-12.1c-0.2-1.3-0.9-2.4-2-3
			c-0.3-0.2-0.7-0.3-1.1-0.4c-0.2-2.4-0.4-4.4-0.5-6.3c-0.2-2.8-0.4-5.4-0.8-8.9c-0.1-0.5-0.6-0.9-1.1-0.8c-0.5,0.1-0.9,0.6-0.8,1.1
			c0.5,3.4,0.6,6,0.8,8.7c0.1,1.9,0.3,3.9,0.5,6.2c-0.1,0-0.2,0.1-0.3,0.1c-2.6,0.7-25.5,4.3-35.3,4.8c-0.5,0-1,0-1.5,0.1
			c-0.1-0.1-0.3-0.1-0.4-0.1l-6.1,0.3c-0.1,0-0.2,0.1-0.3,0.1c-8.2,0.3-18.1,0.4-29.1,0.4c-26.2,0-53.5-0.8-74.1-1.8l-3.6-0.2
			c-0.1,0-0.2,0-0.2,0c-15.7-0.8-26.9-1.8-29.3-2.7c-0.1-0.1-0.3-0.1-0.4-0.2c0.4-5.3,1-12.7,1.6-17.1c0.1-0.5-0.3-1-0.9-1.1
			c-0.5-0.1-1,0.3-1.1,0.9c-0.6,4.4-1.2,11.8-1.6,17.1c-0.4,0-0.8,0.1-1.2,0.3c-1.2,0.6-2.1,1.7-2.3,3.1c-1,6.9-1.7,16.1-1.7,16.5
			c-0.2,4.4-6,106-5.6,117.7c0.4,13.6,10.8,176.8,11.8,183.8c0.4,3.3,8.8,35.1,9.8,71.1c0.9,32.2-4,84-4.2,86.8v0.4
			c-0.3,3.6-1.2,14.4,4.7,26c0.7,1.5,1.5,2.9,2.3,4.5c-1.4,1.8-2.9,4.3-3.6,9.4c-0.6,3.9-0.7,7-0.1,12.1c-5.9,4.1-13.4,8-20.6,11.8
			c-9.9,5.2-19.2,10-25,15.6c-5.1,4.9-3.6,18.1-2.5,22.3c2.1,7.9,18.6,9.1,28.2,9.1c3.1,0,6.3-0.1,9.5-0.4c6.8-0.5,33-6.6,36.7-8.3
			l0.1-0.1c4.6-2.1,5.8-2.7,7-2.7c0.7,0,1.7,0.1,3.1,0.4h0.3c1.4,0.2,2.9,0.3,4.6,0.3c10.9,0,25-4.5,25.6-4.7
			c1.7-0.5,2.8-2.1,2.8-3.8l-0.1-12.2c0.1-0.3,0.2-0.7,0.1-1.1c0,0,0,0,0-0.1c10-5.1,15.1-9.8,15.2-13.9c0-1.1,0.5-4.5,1-8.1
			c2.1-16.1,3-25,1.8-28.8c-1.6-5-4.5-12.7-5.3-14.8c-0.3-3.5-0.2-9.1,0.9-11.1c2.3-3.9,2-9,1.6-14c-0.2-2.1-0.3-4.1-0.2-5.7
			c0.1-1.3,0.2-3.8,0.4-6.8c0.8-13.7,1.6-26.1,1.5-28.6c-0.2-3.2-2.2-7.8-3.2-9.8l-0.8-60.1c1.2-6.7,6-35.5,3.4-43.7
			c-0.3-1.5-1.4-12.3-0.5-87.6c0.2-17.4,0.5-34.3,0.7-48.4c9,45.9,18,90.9,19.7,95.9c3.8,10.5,9.8,40.5,10.4,45.9
			c0.4,4,2.2,7.6,3.7,10.5c0.7,1.3,1.5,3,1.6,3.6c0.1,0.7,0,2.3-0.1,3.7c-0.3,3.8-0.6,8.5,1,12.5c1.4,3.7,4.9,18.6,6.2,24.3
			c0.4,5.3,14.1,37,7.3,91.3c0.3,4.4,2.2,8.5,3.7,11.7c0.9,1.9,1.9,4.1,2,5.2c0.2,5-0.9,7.9-2.1,11.1c-1,2.7-2.1,5.5-2.4,9.3
			c-0.7,8,8.9,44.8,10.9,52.2c0.3,1.2,1.2,2.2,2.3,2.6l16.3,7c-1,25.3,1.5,28,2.5,29.1c0.9,0.9,2.1,1.5,3.3,1.5h0.1
			c1.8,0.2,4.8,0.2,9.6,0.2c8.7,0,21-0.2,31.9-0.5c8-0.2,14.8-0.3,18.4-0.3c0.4,0,0.7,0,1,0l0,0c1.5,0,2.8-0.8,3.5-2.1
			C373.6,639.4,372.9,632.8,372.5,629.3z M313.9,108c-14.7,1.9-24,0.7-30.1-4c-5.1-4-8.2-10.5-9.6-20.7c9.6-0.6,28.9-3.2,35.7-4.5
			C310.4,82.5,311.9,93.5,313.9,108z M271.3,61.2c10.2-0.6,34.9-4.3,36.5-5.1c0.1,1.1,0.3,2.3,0.4,3.4H308v0.7l0.3,0.7l0,0
			c0.6,6.1,0.8,12,1.5,17.1l0,0l-0.1-0.5c-7,1.3-27.1,4-36.4,4.5c-0.8,0-1.6,0.1-2.5,0.1L270,61.3C270.4,61.3,270.9,61.2,271.3,61.2
			z M268.5,58.6l1.2,30.1L265,89l-1.2-30.1L268.5,58.6z M162.5,60.4c21,1,47.6,1.6,71.2,1.6c10.5,0,20.4-0.1,28.9-0.4l0.8,20.8
			c-15.5,0.5-35.5,0.5-55.6,0.2c0.1-0.1,0.2-0.3,0.2-0.5v-0.9h0.3v-0.7l-0.1-0.7H208v-0.5c0-0.4-0.3-0.7-0.7-0.7l0,0
			c-0.4,0-0.7,0.3-0.7,0.7v0.5h-1.1c-0.4,0-0.7,0.3-0.7,0.7c0,0.4,0.3,0.7,0.7,0.7h1.1v0.9c0,0.2,0.1,0.4,0.2,0.5
			c-0.9,0-1.8,0-2.7,0c0-7.8-0.1-13.9-0.1-17.4h1l0,0c0.4,0,0.7-0.3,0.7-0.7c0-0.4-0.3-0.7-0.7-0.7h-1.1c0-1.3,0-2,0-2s0,0.7,0,2
			h-1.7c-0.4,0-0.7,0.3-0.7,0.7s0.3,0.7,0.7,0.7h1.7c-0.1,3.5-0.2,9.6-0.4,17.4c-14.7-0.3-29.3-0.7-42.2-1.2L162.5,60.4z
			 M156.5,57.5l4.7,0.3l-1.5,30.1l-4.7-0.3L156.5,57.5z M122.6,77.4c0.7,0.1,1.4,0.2,2.2,0.3h0.1c0.3,0,0.6-0.3,0.7-0.6
			c0-0.4-0.2-0.7-0.6-0.8c-0.8-0.1-1.6-0.2-2.2-0.3c0.1-1.9,0.2-2.9,0.2-2.9s0.5-6.1,1.1-12c0.1,0.1,0.2,0.2,0.4,0.2
			c0.8,0.1,1.7,0.2,2.8,0.4h0.1c0.3,0,0.7-0.3,0.7-0.6c0-0.4-0.2-0.7-0.6-0.8c-1-0.1-1.9-0.2-2.7-0.4c-0.2,0-0.3,0-0.4,0.1
			c0.1-1,0.2-2,0.4-3c0.1,0,0.2,0.1,0.3,0.1c0,0,0,0,0.1,0h0.1c2.7,1.1,14.3,2.1,30.1,3l-0.1,2.1l-2.7-0.1c-0.4,0-0.7,0.3-0.7,0.7
			s0.3,0.7,0.7,0.7l2.7,0.1L153.9,81c-14.2-0.7-25.6-1.4-31.4-2.3C122.5,78.2,122.5,77.8,122.6,77.4z M122.4,80.1
			c5.5,0.8,15.7,1.5,28.4,2.1c0,0.1,0,0.1-0.1,0.2c-0.4,8.3-1.5,14.5-4.4,19.1l0.5-10.3c0-0.4-0.3-0.7-0.6-0.7L121.9,89
			C122.1,85.6,122.3,82.6,122.4,80.1z M121.4,97.5l2.6,0.1l0,0c0.4,0,0.7-0.3,0.7-0.7c0-0.4-0.3-0.7-0.7-0.7l-2.6-0.1
			c0.1-2,0.2-3.9,0.3-5.7l19.6,1.3l-0.1,2.2c0,0.4,0.3,0.7,0.7,0.7l0,0c0.4,0,0.7-0.3,0.7-0.7l0.1-2.1l2.7,0.2l-0.3,5.4l-1.6-0.1
			c-0.4,0-0.7,0.3-0.7,0.7c0,0.4,0.3,0.7,0.7,0.7l1.6,0.1l-0.2,4.8l0,0c-4.3,4.9-11.6,7.4-24.2,8C121,106.6,121.2,101.8,121.4,97.5z
			 M90.8,614.8c9.1-8.7,29.2-16.4,43.2-25.7c0.3-0.1,3.7-2.5,4.6-3.3c1.8-1.7,3.1-4,5.5-7.1c0.6-0.8,1.3-1.6,1.9-2.1
			c0.1-0.1,0.3-0.2,0.3-0.2h0.3c0.6-0.1,1.1-0.2,1.6-0.2c2.2-0.2,4.6-0.4,7.1-0.6c1.2-0.1,2.5-0.1,3.8-0.2c1.3,0,2.4-0.1,3.6,0.2
			c2.4,0.5,5,1.4,7.5,2.2c1.2,0.4,2.5,0.9,3.6,1.5c0.5,0.2,1.2,0.6,1.4,0.8l0,0c0,0,0,0.2,0,0.3c0,0.3-0.1,0.6-0.1,0.9
			c-0.5,2.5-1.2,5-1.9,7.4c-0.3,1.2-0.7,2.4-1,3.6c-0.1,0.6-0.3,1.1-0.4,1.8c-0.1,0.6,0,1.3,0.1,1.9c0.5,2.3,1.4,4.3,2.2,6.2
			c1.6,3.7,3.2,6.6,4.4,8.7c1.1,2,1.8,3.2,1.8,3.2s-0.6-1.2-1.7-3.3c-1-2.1-2.5-5.1-4-8.8c-0.7-1.9-1.5-3.9-1.8-6.1
			c-0.1-0.6-0.1-1,0-1.6v-0.1l2.6-0.3c5.4-0.6,12-1.4,15.6-2.2c4.3,2.1,6.5,4,6.7,5.2c0.9,5.5,1.5,10.8,1.8,13.3c-0.1,0-0.1,0-0.2,0
			c-0.6,0.2-13.9,4.3-24.2,5.2c-2.1,0.2-3.6,0.1-5.1,0.1c-2.9-0.1-5.6-0.2-11.8,1.5c-0.7,0.2-2.1,0.7-4.1,1.4
			c-7.5,2.6-23,8.1-30.5,8.1c-19.3,0.2-31.4-2.1-34.1-6.3c-0.2-0.3-0.3-0.7-0.4-1C89.4,617.1,90,615.6,90.8,614.8z M146.3,576.3
			L146.3,576.3C146.3,576.3,146.2,576.3,146.3,576.3z M175.5,585.6c5.5,1.6,10,3.3,13.4,4.8c-3.8,0.7-9.3,1.3-13.7,1.8l-2,0.2v-0.1
			c0.3-1.1,0.7-2.3,1.1-3.5C174.7,587.8,175.1,586.7,175.5,585.6z M175.2,628.7c-1.4,0-2.8-0.1-4-0.3c-1.8-0.3-3-0.5-4-0.5
			c-2.1,0-3.7,0.7-8.8,3.1c-3.1,1.4-29,7.5-35.3,8c-3.2,0.2-6.3,0.4-9.2,0.4c-13.7,0-23.5-2.6-24.4-6.1c-0.6-2.3-1-5.6-1-8.8l0,0
			c0.6,0.6,1.6,1.4,3,2c2.9,1.4,7.3,2.6,12.6,3.5c5.4,0.9,11.7,1.5,18.4,1.6c3.4,0.1,6.9-0.6,10.4-1.3s7-1.7,10.5-2.6
			c3.5-1,6.9-2.1,10.3-3.1c3.4-1.1,6.7-2.2,10-2.7c3.3-0.7,6.5-0.2,9.7-0.3c3.1-0.2,6-0.6,8.7-1.1s5.1-1,7.2-1.6
			c2.1-0.5,4-1.1,5.5-1.5c3-0.9,4.7-1.5,4.7-1.5s-1.7,0.5-4.8,1.3c-1.5,0.4-3.4,0.9-5.5,1.3c-2.1,0.5-4.6,1-7.2,1.4
			c-2.7,0.4-5.6,0.8-8.6,0.9c-3,0.1-6.4-0.4-9.8,0.2c-3.4,0.5-6.7,1.6-10.1,2.7c-3.4,1.1-6.8,2.1-10.3,3.1s-6.9,1.9-10.4,2.7
			c-3.5,0.7-6.9,1.4-10.2,1.4c-6.7,0-13-0.6-18.4-1.3c-5.3-0.8-9.7-1.8-12.6-3.1c-1.4-0.6-2.5-1.3-3.1-1.9c0,0,0,0-0.1-0.1
			c0-1.1,0.1-2.2,0.2-3.2c4.3,5.3,20.1,6.5,33.3,6.5c0.5,0,1,0,1.6,0c7.8-0.1,23.5-5.6,31-8.2c1.9-0.7,3.4-1.2,4.1-1.4
			c6-1.7,8.5-1.6,11.4-1.5c1.5,0.1,3.1,0.1,5.3-0.1c9.9-0.8,22.5-4.6,24.3-5.2l0.1,12.9C199.6,624.2,185.7,628.7,175.2,628.7z
			 M212.9,407c-0.1,0.1-0.2,0.2-0.2,0.4c0,0-0.1,0.7-0.3,1.8c-0.2,1.1-0.4,2.8-0.8,4.7c-0.4,1.9-0.8,4.2-1.4,6.6
			c-0.3,1.2-0.6,2.4-1,3.7c-0.3,1.3-0.8,2.5-1.1,3.8c-0.4,1.2-0.8,2.5-1.3,3.7s-1,2.4-1.5,3.5s-1,2.2-1.6,3.2
			c-0.5,1-1.1,1.9-1.6,2.7c-0.6,0.8-1,1.6-1.6,2.2c-0.5,0.6-1,1.2-1.4,1.6s-0.7,0.7-1,0.9c-0.2,0.2-0.4,0.3-0.4,0.3v0.1
			c0,0,0,0,0.1,0c0,0,0.1-0.1,0.4-0.3c0.2-0.2,0.6-0.5,1-0.9s0.9-0.9,1.4-1.5s1.1-1.4,1.7-2.2c0.6-0.8,1.2-1.7,1.7-2.7
			c0.6-1,1.1-2.1,1.7-3.2c0.5-1.1,1.1-2.3,1.6-3.5s1-2.4,1.5-3.7c0.4-1.3,0.9-2.5,1.3-3.8c0.4-1.2,0.8-2.5,1.1-3.7
			c0.6-2.2,1.1-4.3,1.5-6.1l0.7,53.9c-0.7-0.4-1.5-0.6-2.3-0.3c-1.3,0.3-2.1,1.2-2.8,2.1c-1.3,1.7-2.2,3.6-3.1,5.5
			c-1.7,3.8-3.1,7.7-4.7,11.4c-0.8,1.9-1.7,3.7-2.9,5.3c-0.3,0.4-0.6,0.7-1,1c-0.3,0.3-0.7,0.4-1.2,0.6c-1,0.4-1.9,0.7-2.9,1
			c-3.9,1.3-7.8,2.5-11.8,3.7c-2,0.6-3.9,1.3-5.9,2c-1.9,0.8-3.9,1.5-5.7,2.5c-1.9,0.9-3.7,2-5.4,3.1c-1.7,1.2-3.4,2.5-4.9,3.9
			c-3.1,2.7-6.3,5.4-8.7,8.9c-0.6,0.9-1.1,1.8-1.5,2.8s-0.5,2.1-0.5,3.2c0,2.1,0.3,4.1,0.4,6.2c0,0.1,0,0.1,0.1,0.2
			c0.1,0.1,0.3,0.1,0.4,0c2.2-2,3.9-4.4,5.9-6.5c1-1,2-2.1,3.1-3c1.1-1,2.2-1.9,3.4-2.8c2.3-1.7,4.8-3.4,7.2-4.9l3.7-2.4
			c1.2-0.8,2.5-1.6,3.8-2.2c0.6-0.3,1.3-0.6,2-0.9s1.3-0.6,2-0.8c1.4-0.5,2.8-0.9,4.2-1.4c2.8-0.8,5.7-1.4,8.5-2.1
			c2.9-0.6,5.7-1.2,8.5-1.9c1.4-0.4,2.8-0.8,4.2-1.2l2.1-0.7l2-0.8l-2,0.8l-2.1,0.7c-1.4,0.4-2.8,0.8-4.2,1.2
			c-2.8,0.7-5.7,1.3-8.6,1.9c-2.9,0.6-5.7,1.2-8.5,2c-1.4,0.4-2.8,0.8-4.2,1.3c-0.7,0.2-1.4,0.5-2,0.8c-0.7,0.3-1.4,0.6-2,0.9
			c-1.3,0.6-2.6,1.4-3.8,2.2l-3.7,2.3c-2.5,1.6-4.9,3.2-7.3,4.9c-1.2,0.9-2.3,1.8-3.4,2.8c-1.1,0.9-2.1,2-3.2,3
			c-1.9,2-3.5,4.2-5.4,6c-0.1-1.8-0.3-3.7-0.3-5.5c0-1,0.1-2,0.5-2.9c0.3-0.9,0.9-1.8,1.5-2.6c2.4-3.3,5.5-6,8.6-8.7
			c1.6-1.4,3.1-2.6,4.8-3.8c1.7-1.1,3.5-2.1,5.3-3s3.7-1.6,5.7-2.4c1.9-0.7,3.9-1.4,5.8-2c3.9-1.2,7.9-2.3,11.8-3.6
			c1-0.3,2-0.7,2.9-1c0.4-0.2,1.1-0.4,1.5-0.8c0.5-0.4,0.8-0.8,1.2-1.2c1.3-1.7,2.2-3.6,3.1-5.5c1.7-3.8,3.1-7.7,4.8-11.4
			c0.9-1.8,1.8-3.7,3-5.2c0.6-0.7,1.3-1.4,2.1-1.6c0.7-0.2,1.4,0.2,2.1,0.8c0.6,1.2,2.9,6.1,3,8.8c0.2,3.1-1.6,29.4-1.9,35
			c-0.3,5.6,1.7,13.7-0.8,17.8c-2.2,3.7-1.6,11.9-1.5,13.7c-0.2-0.2-0.4-0.5-0.6-0.7c-0.8-0.8-1.6-1.7-2.5-2.7
			c-0.9-0.9-1.9-1.8-2.9-2.7c-1-0.8-2-1.8-3.1-2.6c-2.1-1.7-4.3-3.2-6.5-4.6c-2.1-1.4-4.2-2.6-5.9-3.5c-1.8-1-3.3-1.7-4.3-2.2
			c-0.5-0.3-1-0.4-1.3-0.6c-0.3-0.1-0.5-0.2-0.5-0.2s0.2,0.1,0.5,0.2c0.3,0.1,0.7,0.3,1.2,0.6c1.1,0.5,2.5,1.3,4.3,2.4
			c1.7,1,3.7,2.3,5.8,3.7s4.2,3,6.3,4.8c1.1,0.8,2,1.8,3,2.6c1,0.9,1.9,1.8,2.7,2.7s1.6,1.8,2.4,2.7c0.7,0.9,1.3,1.8,1.9,2.6
			c0.3,0.4,0.5,0.8,0.7,1.2c1.2,3.3,3,8.2,4.2,11.7c1.7,5.2-2.8,31.3-2.9,35.6c-0.1,1.8-2.7,4.1-5.7,6.2c0-0.3-0.1-0.6-0.1-0.8
			c-0.1-0.4-0.4-0.6-0.8-0.6c-0.4,0.1-0.6,0.4-0.6,0.8c0.1,0.6,0.2,1,0.2,1.5c-1.7,1.1-3.4,2-4.8,2.8c-0.3-2.8-0.8-6.6-1.5-10.5
			c-1-5.8-13.7-10.9-25-14.2c0-0.1,0.1-0.2,0.1-0.3c0.1-0.3,0.1-0.7,0.2-1.1c0-0.1,0-0.3,0-0.4l1.6,0.1c0,0,0,0,0.1,0
			c0.4,0,0.7-0.3,0.7-0.6c0-0.4-0.3-0.7-0.6-0.7l-2.3-0.2c-0.6-0.5-1.1-0.8-1.6-1.1c-1.2-0.7-2.4-1.2-3.7-1.8c-2.5-1.1-5-2-7.6-2.8
			c-1.4-0.4-2.9-0.4-4.2-0.4s-2.6,0-3.9,0.1c-2.5,0.1-4.9,0.2-7.3,0.3c-0.6,0-1.2,0.1-1.7,0.2H146c-0.2,0-0.7,0.2-0.9,0.3
			c-0.5,0.2-0.8,0.5-1,0.7c-1,0.9-1.7,1.7-2.3,2.5c-1.3,1.5-2.5,2.9-3.5,4.1c-0.2,0.3-0.5,0.5-0.7,0.7c-0.2-3.1-0.1-5.5,0.3-8.2
			c0.8-5.7,2.6-7.3,3.6-8.5c1-0.6,2-1.1,3.1-1.5c1.3-0.5,2.6-1,3.9-1.3c2.6-0.8,5.4-1.3,8.1-1.8l4.1-0.7l2.1-0.4
			c0.3-0.1,0.7-0.2,1-0.2s0.7-0.1,1-0.1c1.3-0.1,2.6,0.1,3.9,0.4c1.3,0.3,2.6,0.7,3.9,1.2c5.1,2.1,9.8,5,14.3,8.2
			c2.2,1.6,4.4,3.3,6.5,5.2c1,0.9,2.1,1.8,3,2.8c1,1,1.9,2,2.7,3.1c0.1,0.1,0.2,0.2,0.3,0.2c0.2,0,0.4-0.2,0.4-0.4
			c0-3.3,0.3-6.7,0.3-10.1c0-1.7,0-3.4-0.1-5.1c-0.1-1.7-0.3-3.4-0.9-5.1c-0.3-0.8-0.6-1.6-1.3-2.3s-1.3-1.1-2-1.6l-3.9-3.2
			c-1.3-1.1-2.6-2.2-4-3.2s-2.8-2-4.3-2.7c-3.2-1.4-6.7-1.5-10-1.5c-3.4,0-6.7,0-10.1,0c-3.4,0.1-6.8,0.2-10.1,0.6
			c-3.3,0.4-6.7,1.1-9.8,2.5c3.1-1.3,6.4-2,9.8-2.4c3.4-0.4,6.7-0.5,10.1-0.5c3.4,0,6.7,0.1,10.1,0.1c3.3,0,6.8,0.1,9.8,1.6
			c1.5,0.7,2.9,1.7,4.2,2.7s2.6,2.1,3.9,3.2l3.9,3.3c0.6,0.5,1.4,1.1,1.9,1.6c0.5,0.6,0.9,1.3,1.1,2.1c0.5,1.6,0.7,3.2,0.8,4.9
			s0.1,3.3,0.1,5c0,3-0.3,6-0.3,9.1c-0.7-0.9-1.4-1.7-2.1-2.4c-1-1-2-2-3.1-2.9c-2.1-1.9-4.3-3.6-6.5-5.3c-4.5-3.3-9.3-6.3-14.5-8.5
			c-1.3-0.5-2.7-1-4-1.3c-1.4-0.3-2.8-0.6-4.3-0.5c-0.4,0-0.7,0.1-1.1,0.1c-0.4,0.1-0.7,0.1-1.1,0.2l-2,0.4l-4.1,0.7
			c-2.7,0.5-5.5,1-8.2,1.7c-1.4,0.4-2.7,0.8-4,1.3c-0.7,0.3-1.5,0.6-2.2,1c-1.1-2.3-2-4.2-3-6.1c-5.6-11-4.4-21.4-4.2-24.3
			c0.2-2.9,3.7-81.8,3.4-91.1c-1.1-31.5-8.3-62.8-8.9-67.6c-1-7.2-11.4-171.7-11.7-183.3c-0.2-6.2,1.4-39.4,3-68.9
			c0.6,0,1.2-0.1,1.8-0.1c0.4,0,0.7-0.4,0.6-0.7c0-0.4-0.4-0.7-0.7-0.6c-0.5,0-1.1,0.1-1.7,0.1c0.1-1.4,0.1-2.7,0.2-4
			c0.2-0.1,0.4-0.4,0.4-0.7c0-0.2-0.1-0.4-0.3-0.6c0-0.6,0.1-1.3,0.1-1.9c20.8-1,30.3-5.8,31.6-30.4c0-0.1,0-0.1,0-0.2
			c0.6,0,1.1,0.1,1.7,0.1l-0.3,5.8c0,0.4,0.3,0.7,0.7,0.7l6.1,0.4c0.2,0,0.3-0.1,0.5-0.2c0.1-0.1,0.2-0.3,0.2-0.5l0.3-5.9
			c12.9,0.5,27.5,0.9,42.2,1.2c0,0.4,0,0.8,0,1.2c-0.1,7-0.3,15.2-0.5,24c0,2.2-0.1,4.4-0.1,6.7s0,4.6,0.1,6.9c0,2.3,0.1,4.6,0.2,7
			c0.1,2.3,0.1,4.7,0.3,7c0.1,2.3,0.2,4.7,0.4,7s0.4,4.6,0.5,6.9c0.4,4.6,0.7,9.1,1.1,13.5c0.2,2.2,0.4,4.3,0.5,6.4
			c0.2,2.1,0.4,4.2,0.9,6.4c0.2,1,0.7,2.2,1.2,3c0.4,0.9,0.8,1.7,1.2,2.6c0.9,1.8,1.7,3.4,2.5,4.9c0.7,1.3,1.3,2.6,1.8,3.9
			c-1.3-0.2-2.6-0.2-3.8-0.2c-1.7,0-3.4-0.3-5.2-0.6c-3.5-0.5-6.9-1.2-10.4-1.7c-1.7-0.2-3.4-0.7-5.1-1.2l-5-1.5l-10.1-2.9
			c-6.8-1.9-13.5-3.7-20.4-5.2c-3.4-0.7-6.9-1.3-10.4-1.8c-1.7-0.2-3.5-0.4-5.2-0.4c-1.8,0-3.5,0-5.3,0.3c1.7-0.3,3.5-0.2,5.2-0.2
			c1.7,0.1,3.5,0.3,5.2,0.5c3.5,0.5,6.9,1.2,10.3,2c6.8,1.6,13.6,3.4,20.3,5.4l10.1,3l5.1,1.5c1.7,0.5,3.4,1,5.2,1.2l10.4,1.8
			c1.5,0.2,3.1,0.5,4.8,0.6l-8.1,0.7c-2.3,0.2-4.6,0.4-6.9,0.7c-2.3,0.3-4.6,0.6-6.9,1.1c-0.6,0.1-1.2,0.3-1.7,0.5
			c-0.6,0.2-1.1,0.5-1.6,0.7l-3.1,1.5c-2.1,1-4.1,2-6.2,3.1l-6.1,3.2l-3,1.6c-1,0.6-2,1.1-3,1.8c1-0.6,2-1.1,3-1.7l3.1-1.6l6.2-3
			l6.3-3l3.1-1.5c0.5-0.2,1.1-0.5,1.6-0.7s1.1-0.3,1.6-0.5c2.2-0.5,4.5-0.7,6.8-1s4.6-0.5,6.9-0.7l12.8-1c0.4,1.2,0.8,2.3,1.1,3.5
			c0.7,2.7,1,5.1,1.3,7.1c0.1,1,0.2,1.9,0.3,2.7c-0.4,18-1,51.7-1.3,83.6c0,0.1,0,0.2,0,0.3c0,0.8-0.2,1.7-0.4,2.5
			c-0.2,0.9-0.4,1.8-0.5,2.8s-0.5,1.9-0.8,2.9c-0.2,0.5-0.3,1-0.5,1.5l-0.2,0.8l-0.3,0.7c-0.5,1-0.9,1.9-1.4,2.9
			c-0.5,0.9-1.1,1.8-1.6,2.6c-0.5,0.9-1.1,1.6-1.6,2.4s-1,1.5-1.5,2.1c-0.9,1.3-1.6,2.5-2.1,3.3s-0.8,1.3-0.8,1.3s0.3-0.5,0.8-1.2
			c0.5-0.8,1.2-1.9,2.2-3.2c0.5-0.6,1-1.3,1.6-2.1c0.5-0.7,1.2-1.5,1.7-2.3c0.6-0.8,1.1-1.7,1.7-2.6c0.5-0.9,1-1.9,1.5-2.9l0.4-0.7
			l0.3-0.8c0.2-0.5,0.4-1,0.6-1.5c0.3-0.9,0.7-1.8,0.9-2.7c-0.3,32.8-0.3,62.4,0.6,69.6c-0.1-0.3-0.2-0.6-0.4-0.8
			c-0.5-0.9-1-1.9-1.5-2.8c-2.2-3.6-5-6.8-7.9-9.8s-6-5.7-9.2-8.4l-4.8-4c-1.6-1.3-3.1-2.7-4.6-4.1c-0.1-0.1-0.3-0.2-0.4-0.1
			c-0.2,0.1-0.4,0.3-0.3,0.5c0.5,1.8,1.3,3.3,2.2,4.8s1.9,2.9,2.9,4.4c2,2.8,4.1,5.6,5.8,8.6c0.9,1.5,1.6,3,2.4,4.6
			c0.7,1.6,1.5,3.1,2.1,4.7c0.7,1.6,1.3,3.2,1.8,4.8c0.3,0.8,0.5,1.7,0.7,2.5c0.2,0.7,0.3,1.4,0.5,2.1l-2.1-0.7l-2.5-0.7
			c-1.7-0.4-3.4-0.8-5.1-1c-1.7-0.3-3.5-0.5-5.2-0.6c-1.7-0.2-3.5-0.2-5.2-0.3c-3.5-0.1-6.9-0.6-10.4-1l-5.2-0.6
			c-1.7-0.2-3.5-0.3-5.2-0.4c1.7,0.1,3.5,0.3,5.2,0.5l5.2,0.6c3.4,0.5,6.9,0.9,10.4,1.1c1.7,0.1,3.5,0.2,5.2,0.4
			c1.7,0.2,3.5,0.4,5.2,0.7c1.7,0.3,3.4,0.7,5.1,1.1l2.5,0.7l2.5,0.8h0.1c0.1,0,0.2-0.1,0.2-0.3c-0.2-0.8-0.3-1.7-0.6-2.6
			c-0.2-0.8-0.4-1.7-0.7-2.5c-0.5-1.7-1.1-3.3-1.8-4.9c-0.6-1.6-1.4-3.2-2.1-4.8c-0.7-1.6-1.5-3.1-2.3-4.7c-1.8-3-3.8-5.8-5.8-8.7
			c-1-1.4-1.9-2.9-2.8-4.3c-0.4-0.7-0.8-1.5-1.2-2.3c-0.1-0.2-0.2-0.5-0.3-0.7c1.1,1,2.2,2,3.3,3l4.7,4.1c3.1,2.7,6.2,5.5,9,8.5
			s5.5,6.1,7.6,9.6c0.5,0.9,1,1.8,1.5,2.7c0.4,0.9,0.8,1.8,1.2,2.8c0.3,1,0.6,1.9,0.8,2.9l0.2,1.5l0.1,1.5
			C216.6,384.2,213.9,401.5,212.9,407z M285.9,605.6c0,0-11.4-43.1-10.7-50.8c0.6-7.7,4.8-10.8,4.5-20.9c-0.1-4.2-5.3-10.4-5.7-17.1
			c4.8-49.5-7.3-91.7-7.3-91.7s-1.3-5.9-2.8-12.1c0.2,0.2,0.3,0.5,0.5,0.7c0.7,1,1.6,2,2.6,2.9c1,1,2.1,1.9,3.3,2.9
			c2.4,1.8,5.1,3.5,7.8,5.1c5.5,3.2,11.3,5.8,14.9,8.9c0.9,0.8,1.7,1.6,2.2,2.4c0.6,0.8,0.8,1.6,1,2.2c0.1,0.7,0.2,1.2,0.1,1.6
			c0,0.4,0,0.6,0,0.6s0-0.2,0-0.6c0.1-0.4,0-0.9-0.1-1.6c-0.2-0.7-0.4-1.5-1-2.3c-0.5-0.8-1.3-1.6-2.1-2.5
			c-3.6-3.2-9.3-6.1-14.7-9.4c-2.7-1.6-5.3-3.4-7.6-5.3c-1.1-0.9-2.2-1.9-3.1-2.9s-1.7-1.9-2.4-2.9c-0.3-0.5-0.7-0.9-0.9-1.4
			c-0.3-0.4-0.5-0.9-0.7-1.3c-0.4-0.8-0.7-1.6-0.9-2.2c-0.2-0.6-0.3-1.2-0.5-1.5c-0.1-0.4-0.2-0.6-0.2-0.6l0,0c0,0,0-0.1-0.1-0.1
			c-0.7-2.6-1.3-4.8-1.8-6c-1.6-4.1-0.6-10-0.6-13.6c0.7-3,1.9-7,3.7-11.8c1.8-5,4.2-10.7,7-16.8c1.4-3,2.9-6.1,4.4-9.3
			c0.8-1.6,1.6-3.1,2.5-4.7c0.9-1.5,1.7-3.1,2.8-4.4c0.1-0.1,0.2-0.2,0.3-0.3c0,0,0,0,0,0.1c0.1,0.3,0.1,0.8,0.1,1.2
			c-0.1,0.9-0.2,1.7-0.4,2.6c-0.3,1.7-0.8,3.4-1.2,5.1c-0.8,3.4-1.7,6.7-2.4,10c-0.7,3.3-0.8,6.5-1.1,9.6c-0.3,3-0.6,5.9-0.9,8.6
			c-0.6,5.3-1.1,9.7-1.5,12.8c-0.4,3.1-0.6,4.9-0.6,4.9s0,0.1,0.1,0.1c0,0,0.1,0,0.1-0.1c0,0,0.2-1.8,0.6-4.8
			c0.4-3.1,1-7.5,1.7-12.8c0.3-2.7,0.7-5.5,1-8.6c0.4-3,0.5-6.3,1.2-9.5c0.7-3.3,1.6-6.6,2.5-10c0.4-1.7,0.9-3.4,1.3-5.2
			c0.2-0.9,0.4-1.8,0.4-2.7c0-0.5,0.1-0.9-0.1-1.5c0-0.1-0.1-0.3-0.2-0.4s-0.2-0.1-0.2-0.2c-0.3-0.1-0.4-0.1-0.5,0
			c-0.4,0.2-0.5,0.3-0.6,0.5c-1.2,1.4-2,3-2.9,4.5s-1.7,3.1-2.5,4.7c-1.6,3.1-3.1,6.2-4.5,9.2c-2.8,6.1-5.3,11.8-7.2,16.8
			c-1.3,3.3-2.3,6.3-3,8.9c-1.2-3.1-4.2-7.7-4.8-12.5c-0.6-5.6-6.6-35.9-10.6-46.8c-2.1-5.9-16.7-80.5-23.4-114.5c0-0.1,0-0.1,0-0.2
			c0,0-0.1-0.6-0.2-1.7c-0.1-1.1-0.3-2.7-0.6-4.8s-0.7-4.6-1.4-7.4c-0.2-0.9-0.5-1.9-0.9-2.9c0.5-0.2,1-0.3,1.6-0.4
			c0.8-0.2,1.6-0.3,2.5-0.3c0.8-0.1,1.7-0.1,2.4,0c0.3,0,0.7,0.2,1.2,0.3l1.2,0.3c1.7,0.4,3.3,0.9,4.9,1.4c1.6,0.5,3.2,1,4.9,1.6
			l9.8,3.2c1.6,0.5,3.2,1.1,4.8,1.7c1.6,0.6,3.2,1.1,4.8,1.7c3.2,1.2,6.4,2.4,9.6,3.6c3.2,1.2,6.4,2.5,9.5,3.8l19,7.7
			c-6.2-2.8-12.4-5.7-18.7-8.4c-3.1-1.3-6.3-2.7-9.5-4s-6.3-2.6-9.5-3.8c-1.6-0.6-3.2-1.2-4.8-1.8s-3.2-1.2-4.8-1.7l-9.7-3.2
			c-1.6-0.5-3.2-1.1-4.9-1.6c-1.6-0.5-3.3-1-4.9-1.4l-1.2-0.3c-0.4-0.1-0.8-0.2-1.3-0.3c-0.9-0.1-1.8-0.1-2.7,0
			c-0.6,0-1.2,0.1-1.9,0.2c0.5-0.3,0.9-0.7,1.4-1c0.7-0.5,1.4-0.9,2.2-1.3c0.7-0.4,1.5-0.8,2.2-1.2c3-1.5,6.2-2.8,9.5-3.9
			c3.2-1.1,6.5-2.1,9.9-2.9c3.3-0.9,6.7-1.7,10-2.5c6.7-1.7,13.3-3.5,20-5.2c3.3-0.9,6.7-1.7,10-2.5s6.7-1.5,10.1-2.2
			c0.2,0,0.4-0.3,0.4-0.5c0-0.3-0.3-0.5-0.5-0.5l-5.2,0.3l-5.2,0.2l-10.4,0.4l-5.2,0.3l-5.2,0.4c-1.7,0.2-3.5,0.4-5.2,0.6
			c-1.7,0.2-3.4,0.6-5.1,0.9c-1.7,0.3-3.4,0.7-5.1,1l-5.1,1c-3.4,0.7-6.8,1.4-10.2,2l-5.1,0.9c-1.7,0.3-3.5,0.4-5.1,1
			c-3.3,1.2-6,3.6-8.3,6.1c2.4-2.5,5.1-4.9,8.4-6.1c1.6-0.6,3.4-0.7,5.1-1l5.2-0.8c3.4-0.6,6.9-1.2,10.3-1.8l5.1-1
			c1.7-0.3,3.4-0.7,5.1-0.9c1.7-0.3,3.4-0.6,5.2-0.8l5.2-0.5l5.2-0.4l5.2-0.2l10.4-0.3l3.7-0.1c-1.2,0.2-2.3,0.5-3.5,0.7
			c-3.4,0.8-6.7,1.6-10.1,2.4c-6.7,1.7-13.3,3.5-20,5.1c-3.3,0.8-6.7,1.6-10,2.5s-6.7,1.8-9.9,2.9c-3.3,1.1-6.5,2.4-9.6,3.9
			c-0.8,0.4-1.6,0.8-2.3,1.2c-0.8,0.4-1.5,0.9-2.2,1.4c-1.1,0.7-2.2,1.6-3.2,2.5c-0.4-1.1-1-2.3-1.6-3.4v-0.1
			c-0.2-0.8-0.5-1.7-0.8-2.6c-0.1-0.4-0.5-0.6-0.9-0.5h-0.1c-0.3-0.5-0.5-1-0.8-1.5c0.1,0.1,0.2,0.1,0.4,0.1c0.1,0,0.1,0,0.2,0
			c0.4-0.1,0.6-0.5,0.5-0.8c-0.2-0.9-0.4-1.8-0.6-2.7c-0.1-0.4-0.4-0.6-0.8-0.5c-0.4,0.1-0.6,0.4-0.5,0.8c0.2,0.8,0.4,1.6,0.5,2.4
			c-0.1-0.2-0.2-0.4-0.3-0.6c-0.4-0.9-0.8-1.7-1.3-2.6c-0.5-0.9-0.8-1.6-1-2.5c-0.5-1.8-0.7-3.8-1-5.9c-0.2-2.1-0.5-4.2-0.7-6.4
			c-0.1-1.1-0.2-2.2-0.4-3.4c0.5-0.1,1-0.2,1.5-0.3c0.1,0.3,0.3,0.5,0.6,0.5h0.1c0.4,0,0.7-0.4,0.6-0.8v-0.2
			c0.1-0.1,0.1-0.3,0.1-0.5c0-0.1-0.1-0.2-0.2-0.3l-0.2-1.8c0-0.4-0.4-0.7-0.8-0.6c-0.4,0-0.7,0.4-0.6,0.8l0.2,1.5
			c-0.5,0.1-1,0.2-1.4,0.3c-0.1-1-0.2-2-0.3-3c0.6-0.1,1.3-0.2,1.8-0.3c0.3-0.1,0.6-0.4,0.5-0.8c0.2-0.1,0.3-0.4,0.3-0.6l-0.3-2.8
			c0-0.4-0.4-0.7-0.8-0.6c-0.4,0-0.7,0.4-0.6,0.8l0.3,2.7c-0.5,0.1-0.9,0.2-1.4,0.3c-0.2-1.4-0.3-2.9-0.5-4.3
			c-0.2-2.3-0.5-4.6-0.7-6.9c-0.2-2.3-0.4-4.6-0.5-7c-0.2-2.3-0.3-4.7-0.4-7c-0.1-2.3-0.3-4.6-0.3-6.9c-0.1-2.3-0.2-4.6-0.2-6.8
			c0-2.3-0.1-4.5-0.1-6.7c0-8.8-0.1-17-0.1-24c0-0.4,0-0.8,0-1.2c6.4,0.1,12.8,0.2,19.1,0.2c0,0.6-0.1,1.4-0.1,2.2
			c0,0.4,0.3,0.7,0.7,0.7l0,0c0.4,0,0.7-0.3,0.7-0.7c0.1-0.9,0.1-1.6,0.2-2.3c0.9,0,1.7,0,2.6,0c0,0.6-0.1,1.3-0.1,2.2
			c0,0.4,0.3,0.7,0.7,0.7l0,0c0.4,0,0.7-0.3,0.7-0.7c0.1-0.9,0.1-1.6,0.2-2.2c1.8,0,3.6,0,5.3,0c10.7,0,20.8-0.1,29.5-0.4l0.2,5.9
			c0,0.2,0.1,0.4,0.2,0.5s0.3,0.2,0.5,0.2l0,0l6.1-0.3c0.4,0,0.7-0.3,0.7-0.7l-0.2-5.8c0.6,0,1.3-0.1,1.9-0.1
			c1.5,10.6,4.7,17.5,10.2,21.7c4.5,3.5,10.6,5.1,19.1,5.1c3.6,0,7.6-0.3,12.1-0.9c0.1,0.7,0.2,1.5,0.3,2.3l-0.6,0.1
			c-0.6-0.9-1.5-1.5-2.7-1.5c-1.3,0-2.5,0.8-2.9,2h-0.1c-0.4,0-0.7,0.4-0.6,0.7c0,0.3,0.3,0.6,0.6,0.6c0.1,1.4,1.1,2.6,2.5,2.8
			c-0.7,0.1-1.4,0.1-2,0.2c-0.4,0-0.7,0.4-0.6,0.7c0,0.4,0.3,0.6,0.7,0.6c0,0,0,0,0.1,0c0.9-0.1,1.9-0.2,2.9-0.3
			c0.4,0,0.7-0.4,0.6-0.8c0-0.2-0.2-0.4-0.4-0.5c1.5-0.3,2.6-1.6,2.6-3.1c0-0.1,0-0.2,0-0.3h0.3c0.1,1,0.3,2,0.4,3l-0.8,0.1
			c-0.4,0-0.7,0.4-0.6,0.8c0,0.4,0.3,0.6,0.7,0.6h0.1l0.8-0.1c3.4,25.5,7.5,58,9.7,81.1c0,3.2,0,6.4,0,9.5c0,10.1,0.3,20.1,0.5,30.2
			c0.3,10,0.4,20.1,0.3,30.1c-0.1,5-0.2,10-0.7,15s-1.1,10-3,14.6c1.2-2.2,2-4.6,2.6-7s1.1-4.9,1.4-7.4c0.7-5,1.1-10.1,1.3-15.1
			c0.3-5,0.3-10.1,0.3-15.1s0-10.1-0.1-15.1l-0.4-11.4c3.4,45.2,12.5,139.2,12.5,139.2v5.2c-0.2-0.3-0.4-0.6-0.5-0.9
			c-0.6-0.9-1.3-1.8-2-2.6c-0.7-0.8-1.5-1.6-2.3-2.4c-3.2-3.1-6.8-5.5-10.4-7.9s-7.2-4.8-10.1-8c-0.7-0.8-1.4-1.6-2-2.5l-0.9-1.4
			c-0.2-0.5-0.5-0.9-0.7-1.4c-0.4-1-0.8-2-1.1-3c-0.1-0.5-0.3-1-0.4-1.6l-0.2-1.4c2.1,0.3,4.1,1.4,5.8,2.7c1.8,1.4,3.3,3,4.7,4.8
			c-1.3-1.8-2.8-3.5-4.6-4.9c-1.7-1.4-3.8-2.6-6-2.9l0,0c-0.1,0-0.1,0.1-0.1,0.2l0.2,1.6c0.1,0.5,0.2,1.1,0.3,1.6
			c0.3,1.1,0.6,2.1,1.1,3.1c0.2,0.5,0.5,1,0.7,1.5l0.8,1.4c0.6,0.9,1.3,1.8,2,2.6c2.9,3.3,6.5,5.8,10.1,8.3c3.5,2.5,7.1,5,10.1,8
			c0.8,0.8,1.5,1.5,2.1,2.4c0.7,0.8,1.3,1.7,1.9,2.6s1.1,1.8,1.6,2.8c0.3,0.6,0.5,1.2,0.8,1.8c1.7,5.2,5.9,18.9,6.7,32.3
			c-2.3,49.7,6.2,92.6,6.2,92.6s-0.6,5.8-0.6,9.2c-0.2-0.4-0.5-0.9-0.7-1.3c-0.3-0.6-0.7-1.1-1.1-1.7c-0.2-0.3-0.4-0.6-0.7-0.8
			c-0.1-0.1-0.4-0.3-0.6-0.4c-0.3-0.1-0.6-0.1-0.8-0.1c-0.9,0.2-1.5,0.7-2,1.1s-1,0.9-1.5,1.4l-2.7,2.8c-0.9,0.9-1.9,1.8-2.8,2.8
			c-1.8,1.9-3.4,4-5,6l-4.8,6.2c-1.6,2.1-3.2,4.1-4.9,6.1c-0.4,0.5-0.9,1-1.3,1.4s-1,0.9-1.3,1l0,0l0,0c-0.2-0.1-0.3-0.2-0.5-0.3
			c-0.3-0.2-0.6-0.3-0.9-0.4c-0.6-0.3-1.2-0.5-1.8-0.7c-2.3-0.9-4.7-1.6-7-2.5l0.8-2.4c0.3-0.9,0.6-1.9,0.9-2.8
			c0.7-1.8,1.3-3.7,2.1-5.5l4.3-11c1.4-3.6,2.9-7.3,4.1-11c0.6-1.9,1.3-3.7,2-5.5c0.6-1.9,1.2-3.8,1-5.9v-0.1c0-0.1-0.2-0.2-0.3-0.2
			c-2.1,0.6-4,1.7-5.8,3s-3.4,2.7-5,4.1l-4.7,4.4l-4.9,4.2c-1.6,1.4-3.3,2.7-5,4.1s-3.3,2.7-5,4l-9.5,7.4l0.3-0.3l0.7-1
			c0.5-0.7,0.9-1.4,1.3-2.1c0.8-1.5,1.6-2.9,2.4-4.4c0.8-1.4,1.9-2.8,2.8-4.1c0.9-1.4,1.8-2.8,2.2-4.5c-0.4,1.6-1.3,3.1-2.2,4.5
			c-0.9,1.4-2,2.7-2.8,4.1c-0.9,1.4-1.6,2.9-2.5,4.4c-0.4,0.7-0.9,1.4-1.3,2.1l-0.7,1l-0.8,0.9v0.1h0.1l10.2-7.8
			c1.7-1.3,3.4-2.6,5.1-4s3.4-2.6,5-4.1l4.9-4.2l4.7-4.4c1.6-1.4,3.2-2.8,5-4.1c1.6-1.2,3.4-2.2,5.3-2.8c0.1,1.8-0.4,3.6-1,5.3
			c-0.7,1.8-1.4,3.7-2,5.5c-1.2,3.7-2.8,7.3-4.2,11l-4.4,10.9c-0.7,1.8-1.4,3.7-2.1,5.5c-0.4,0.9-0.6,1.9-1,2.8l-0.9,2.8
			c-0.1,0.2,0,0.5,0.3,0.6l0,0c2.5,1,4.9,1.8,7.4,2.7c0.6,0.2,1.2,0.5,1.8,0.7c0.3,0.1,0.6,0.3,0.8,0.4c0.1,0.1,0.2,0.2,0.4,0.2
			c0.1,0.1,0.7,0.3,0.9,0.2c0.9-0.3,1.3-0.8,1.8-1.3s0.9-1,1.4-1.4c1.8-2,3.4-4,5-6.1l4.8-6.1c1.6-2,3.3-4,5-5.9
			c0.9-1,1.8-1.8,2.8-2.7l2.7-2.8c0.5-0.5,0.9-0.9,1.4-1.3s1-0.7,1.4-0.8c0.2,0,0.1,0,0.3,0.2c0.2,0.2,0.4,0.4,0.6,0.7
			c0.4,0.5,0.7,1,1,1.6c1.3,2.2,2.5,4.5,3.8,6.8l0,0c0,0.1,0.1,0.1,0.2,0.2c0.6,1.1,1.2,2.2,1.7,3.2c2.1,4.7,6,16.5,8.1,20.1
			c-0.8-0.4-1.8-0.6-3-0.7c-1.7-0.2-3.7-0.1-5.9,0.2c-1.1,0.2-2.3,0.4-3.6,0.7c-1.2,0.3-2.5,0.8-3.8,1.2c-5.2,1.9-10.9,5-17.1,8
			c-1.6,0.7-3.1,1.4-4.8,2.1c-1.6,0.6-3.4,1.1-5.1,1.7c-3.4,1.1-7,2.2-10.4,3.5c-3.5,1.3-6.8,2.8-10,4.6c-1.5,1-3,2-4.6,2.8
			c-1.5,0.8-3.1,1.7-4.7,1.7c-0.8-0.1-1.5-0.5-1.9-1.2s-0.5-1.5-0.3-2.2c0.2-0.8,0.7-1.3,1.5-1.7c0.7-0.4,1.4-0.8,2.1-1.2
			c2.7-1.6,5.3-3.1,7.7-4.5c9.5-5.5,16-9.1,16-9.1s-6.5,3.5-16.1,8.9c-2.4,1.4-5,2.8-7.7,4.4c-0.7,0.4-1.4,0.8-2.1,1.2
			c-0.7,0.3-1.4,1-1.7,1.9c-0.3,0.9-0.1,1.8,0.3,2.6c0.5,0.8,1.3,1.3,2.3,1.4c0.9,0.1,1.8-0.2,2.6-0.6c0.8-0.3,1.6-0.7,2.4-1.2
			c1.6-0.9,3.1-1.8,4.6-2.8c3.1-1.8,6.5-3.2,10-4.4c3.4-1.2,7-2.3,10.4-3.4c1.7-0.5,3.4-1,5.1-1.7c1.7-0.6,3.3-1.3,4.9-2
			c6.3-2.9,11.9-6,17.1-7.8c1.3-0.5,2.5-0.9,3.7-1.2s2.3-0.5,3.4-0.7c2.2-0.3,4.1-0.3,5.6-0.2s2.7,0.5,3.2,1
			c0.3,0.2,0.4,0.4,0.4,0.5c0.1,0.2,0.1,0.3,0.1,0.3l0,0l0,0c0.1,0.1,0.1,0.2,0.3,0.3c-0.1,4.3-3.9,12.6-4.3,14.7
			c-0.4,2.1,1.7,9.9,2,13.3c-0.2-0.1-0.4-0.3-0.6-0.4c-0.4-0.2-0.9-0.5-1.3-0.7c-0.9-0.4-1.7-0.8-2.6-1.1c-1.8-0.6-3.6-1.2-5.4-1.7
			c-3.6-1-7.2-1.8-10.9-2.5c-1.8-0.4-3.7-0.7-5.5-1l-2.8-0.5l-2.8-0.4c-0.9-0.2-1.8-0.3-2.8-0.4c-0.9-0.1-1.9-0.2-2.9,0
			c-1.4,0.2-1.9,1.5-2.1,2.4c-0.2,1-0.3,1.9-0.5,2.7v0.1c0,0.3,0.2,0.5,0.5,0.5l0,0h0.7l0.7,0.1c0.5,0.1,0.9,0.2,1.4,0.4
			c0.9,0.3,1.9,0.7,2.7,1.2c1.8,1,3.5,2.1,5.2,3.3s3.5,2.3,5.2,3.4c1.4,0.9,2.8,1.8,4.3,2.8c-3.8,0.4-7.7,0.2-11.6,0.2
			c-2.1,0-4.3,0.1-6.4,0.4c-2.1,0.3-4.2,0.8-6.2,1.6c-4,1.5-7.8,3.4-11.3,5.9c-1.7,1.2-3.4,2.6-4.8,4.2c-0.5,0.6-1.1,1.2-1.5,1.9
			c1.4-2.7,3-5.2,5-7.5c1.4-1.6,3-3.1,4.6-4.6c0.8-0.8,1.5-1.5,2.2-2.4c0.7-0.8,1.4-1.7,2.2-2.4c-0.8,0.8-1.5,1.6-2.2,2.4
			c-0.7,0.8-1.5,1.6-2.3,2.3c-1.6,1.5-3.2,3-4.6,4.6c-2.5,2.7-4.4,6-6,9.3c-0.3,0.6-0.6,1.1-0.8,1.7l0,0l0,0l0,0
			c0,0.1,0,0.1,0.1,0.2c0.1,0,0.1,0,0.2-0.1c0.2-0.5,0.4-1,0.7-1.5c0.7-1.4,1.7-2.6,2.8-3.8c1.4-1.5,3.1-2.9,4.8-4.1
			c3.5-2.4,7.3-4.3,11.2-5.7c2-0.7,4-1.2,6.1-1.5s4.2-0.4,6.3-0.4c4.2,0,8.5,0.3,12.8-0.2l0,0c0.1,0,0.2-0.1,0.3-0.2
			c0.1-0.2,0.1-0.4-0.1-0.5c-1.7-1.1-3.4-2.3-5.2-3.4c-1.7-1.1-3.5-2.2-5.1-3.4c-1.7-1.2-3.4-2.4-5.2-3.4c-0.9-0.5-1.9-1-2.9-1.3
			c-0.5-0.2-1-0.3-1.6-0.4l-0.8-0.1h-0.2c0.1-0.7,0.2-1.5,0.4-2.1c0.1-0.4,0.2-0.8,0.5-1.1c0.1-0.2,0.2-0.2,0.4-0.4
			c0.1,0,0.3-0.1,0.4-0.1c0.8-0.1,1.7,0,2.6,0.1s1.8,0.3,2.7,0.5l2.8,0.4l2.7,0.5c1.8,0.3,3.6,0.7,5.5,1.1c3.6,0.8,7.2,1.6,10.8,2.6
			c1.8,0.5,3.5,1,5.2,1.7c0.9,0.3,1.7,0.7,2.5,1.1c0.4,0.2,0.8,0.4,1.2,0.6c0.4,0.2,0.7,0.4,1.1,0.7l0,0c0,0,0,0,0.1,0
			c-1.9,2.4-5.6,4.3-6.2,6s3.5,4.5,4.3,8.7c0.6,2.7-1.4,8.5-2.8,12.3c-2.2-2.2-5.1-4.4-8.2-6.1c-0.4-1.4-0.9-2.8-1.7-4.1
			c-0.9-1.5-2.3-3-4.1-3.7c-0.9-0.4-1.8-0.6-2.6-0.7l-2.2-0.3c-1.5-0.2-3-0.4-4.6-0.4c-0.8,0-1.6-0.1-2.3,0c-0.8,0-1.6,0-2.4,0.2
			c-1.6,0.2-3.1,0.5-4.6,0.8l-2.2,0.5l-2.1,0.6l-1.1,0.3c-0.4,0.1-0.8,0.3-1.2,0.4c-0.8,0.3-1.6,0.7-2.3,1.2
			c-1.4,0.9-2.7,2.1-3.7,3.6c-0.9,1.4-1.4,3.2-1.4,5c-0.1,0.7-0.2,1.4-0.3,2.1c-4.4,4.6-8.6,11.2-9.9,14.2L285.9,605.6z
			 M304.7,614.4c0,0,0-0.1,0.1-0.1c0.5-1.6,2.6-5.1,5.1-8.5c-0.2,0.9-0.4,1.7-0.6,2.6c-0.5,2.1-1,4.1-1.7,6.2c-0.3,1-0.7,2-1.2,3
			s-1,1.9-1.7,2.7c1.7-1.4,2.9-3.3,3.9-5.2c1-2,1.8-4,2.6-6.1c0.7-2.1,1.4-4.2,2-6.3s1.1-4.2,1.5-6.4v-0.1V596
			c0.1-1.2,0.4-2.2,1.1-3.2s1.6-1.8,2.7-2.4c0.5-0.3,1.1-0.6,1.7-0.8c0.3-0.1,0.6-0.2,0.9-0.3l1.1-0.3l2.1-0.5l2.1-0.5
			c1.4-0.3,2.8-0.5,4.2-0.6c0.7-0.1,1.4-0.1,2.1-0.1s1.4,0,2.1,0c1.4,0,2.8,0.2,4.3,0.3l2.2,0.2c0.7,0.1,1.2,0.2,1.7,0.4
			c1,0.3,1.8,1,2.5,2.1c0.7,1,1.2,2.3,1.6,3.6c0.2,0.7,0.4,1.3,0.6,2.1c0.2,0.7,0.4,1.4,0.7,2.2c0.5,1.5,1.1,2.9,1.9,4.2
			c1.5,2.7,3.4,5.1,5.6,7.2c1.1,1.1,2.2,2,3.4,2.9c1.2,0.9,2.4,1.8,3.6,2.6c-2.1-2.1-4.1-4.2-5.9-6.5c-0.9-1.1-1.7-2.3-2.5-3.5
			s-1.4-2.5-2-3.8c-0.5-1-0.8-2.1-1.2-3.2c2.8,2,5.2,4.3,6.3,6l0,0c2.3,4.1,8.2,14.9,10.5,23.2c-6.7-3.5-20-4.3-21.7-4.4
			c-11.6-0.6-31.4,3.2-41.9,9.6C304.3,625.5,304.6,616.9,304.7,614.4z M367.5,642.3c-0.3,0-0.7,0-1.1,0c-8.4,0-35.1,0.8-50.2,0.8
			c-3.5,0-6.3,0-8.2-0.1c7.4-3.6,26.5-6.5,38.4-6.7c4.7,0,17.5,0.7,21.3,4.9c0.1,0.1,0.2,0.1,0.2,0.2
			C367.8,641.7,367.7,642,367.5,642.3z M368.4,639.9c-5.4-5.2-21.9-5-22-5c-12.9,0.2-33.2,3.4-40,7.3c-0.1,0.1-0.2,0.2-0.3,0.3
			c-0.8-1-1.2-4.3-1.4-8.4c0,0,0,0,0.1,0c10-6.5,30-10.4,41.7-9.8c6.4,0.3,17.5,1.7,22.2,4.8c0.1,1,0.3,2.4,0.3,3.9
			c0,0-0.2-0.2-0.5-0.5c-0.3-0.4-0.9-0.8-1.7-1.2c-0.8-0.5-1.8-0.9-3-1.3c-1.2-0.4-2.6-0.8-4.1-1.1c-3.1-0.6-6.7-1.1-10.6-1.2
			c-1.9-0.1-4-0.1-6-0.1c-2.1,0.1-4.1,0.2-6.2,0.4c-2.1,0.3-4.2,0.5-6.2,0.9s-4,0.7-5.9,1.2s-3.7,1-5.5,1.5
			c-1.7,0.6-3.3,1.1-4.8,1.6c-1.5,0.6-2.8,1.2-3.9,1.7c-1.2,0.5-2.1,1.1-2.9,1.5c-1.6,0.9-2.5,1.5-2.5,1.5s0.9-0.5,2.5-1.3
			c0.8-0.4,1.8-1,3-1.4c1.2-0.5,2.5-1,4-1.5s3.1-1,4.8-1.5c1.7-0.5,3.6-0.9,5.4-1.3c1.9-0.5,3.9-0.8,5.9-1.1s4.1-0.5,6.1-0.8
			c2.1-0.2,4.1-0.4,6.2-0.4c2,0,4,0,6,0.1c3.9,0.2,7.5,0.4,10.6,1c1.5,0.3,2.9,0.6,4.1,0.9c1.2,0.3,2.2,0.8,3,1.2s1.4,0.8,1.8,1.1
			s0.5,0.5,0.6,0.5C369,635.3,368.9,637.7,368.4,639.9z"/>
		<path class="st0" d="M207.8,138.5L207.8,138.5c0.4,0,0.7-0.4,0.7-0.7c-0.1-0.9-0.1-1.9-0.2-2.8c0-0.4-0.3-0.7-0.7-0.7
			s-0.7,0.3-0.7,0.7c0.1,0.9,0.1,1.9,0.2,2.8C207.1,138.2,207.4,138.5,207.8,138.5z"/>
		<path class="st0" d="M207.4,132.9C207.5,132.9,207.5,132.9,207.4,132.9c0.4,0,0.7-0.3,0.7-0.7c0-0.9-0.1-1.9-0.1-2.8
			c0-0.4-0.3-0.7-0.7-0.7s-0.7,0.3-0.7,0.7c0,0.9,0.1,1.9,0.1,2.8C206.8,132.6,207.1,132.9,207.4,132.9z"/>
		<path class="st0" d="M207.1,121.8L207.1,121.8c0.4,0,0.7-0.3,0.7-0.7c0-0.9,0-1.9-0.1-2.8c0-0.4-0.3-0.7-0.7-0.7s-0.7,0.3-0.7,0.7
			c0,0.9,0,1.9,0.1,2.8C206.4,121.5,206.7,121.8,207.1,121.8z"/>
		<path class="st0" d="M208.2,144c0.4,0,0.7-0.4,0.6-0.7c-0.1-0.9-0.1-1.8-0.2-2.8c0-0.4-0.4-0.7-0.7-0.6c-0.4,0-0.7,0.4-0.6,0.7
			c0.1,0.9,0.1,1.9,0.2,2.8C207.5,143.8,207.8,144,208.2,144C208.1,144,208.2,144,208.2,144z"/>
		<path class="st0" d="M207.2,127.4L207.2,127.4c0.4,0,0.7-0.3,0.7-0.7c0-0.9-0.1-1.9-0.1-2.8c0-0.4-0.4-0.7-0.7-0.7
			c-0.4,0-0.7,0.3-0.7,0.7c0,0.9,0.1,1.9,0.1,2.8C206.5,127.1,206.8,127.4,207.2,127.4z"/>
		<path class="st0" d="M211.2,171.8c0.4,0,0.7-0.4,0.6-0.8l-0.3-2.8c0-0.4-0.4-0.7-0.8-0.6c-0.4,0-0.7,0.4-0.6,0.8l0.3,2.8
			C210.5,171.5,210.8,171.8,211.2,171.8C211.1,171.8,211.2,171.8,211.2,171.8z"/>
		<path class="st0" d="M208.3,145.4c-0.4,0-0.7,0.4-0.6,0.8c0.1,0.9,0.2,1.8,0.3,2.8c0,0.4,0.3,0.6,0.7,0.6c0,0,0,0,0.1,0
			c0.4,0,0.7-0.4,0.6-0.8c-0.1-1-0.2-1.9-0.3-2.8C209,145.7,208.7,145.4,208.3,145.4z"/>
		<path class="st0" d="M210.5,166.2c0.4,0,0.7-0.4,0.6-0.8l-0.3-2.8c0-0.4-0.4-0.6-0.8-0.6c-0.4,0-0.7,0.4-0.6,0.8l0.3,2.8
			C209.8,166,210.1,166.2,210.5,166.2L210.5,166.2z"/>
		<path class="st0" d="M207,116.2L207,116.2c0.4,0,0.7-0.3,0.7-0.7c0-0.9,0-1.9,0-2.8c0-0.4-0.3-0.7-0.7-0.7l0,0
			c-0.4,0-0.7,0.3-0.7,0.7c0,0.9,0,1.9,0,2.8C206.3,115.9,206.6,116.2,207,116.2z"/>
		<path class="st0" d="M207.2,88.4L207.2,88.4c0.4,0,0.7-0.3,0.7-0.7v-2.8c0-0.4-0.3-0.7-0.7-0.7c-0.5,0-0.7,0.3-0.7,0.7v2.8
			C206.5,88,206.8,88.3,207.2,88.4z"/>
		<path class="st0" d="M211.4,173.1c-0.4,0.1-0.6,0.4-0.6,0.8c0.1,0.9,0.3,1.9,0.5,2.8c0.1,0.3,0.4,0.6,0.7,0.6h0.1
			c0.4-0.1,0.6-0.4,0.6-0.8c-0.2-0.9-0.3-1.8-0.4-2.7C212.1,173.4,211.8,173.1,211.4,173.1z"/>
		<path class="st0" d="M207.3,77.2L207.3,77.2c0.4,0,0.7-0.3,0.7-0.7v-2.8c0-0.4-0.3-0.7-0.7-0.7c-0.3,0-0.7,0.3-0.7,0.7v2.8
			C206.6,76.9,206.9,77.2,207.3,77.2z"/>
		<path class="st0" d="M207.4,71.6L207.4,71.6c0.4,0,0.7-0.3,0.7-0.7v-2.8c0-0.4-0.3-0.7-0.7-0.7s-0.7,0.3-0.7,0.7v2.8
			C206.7,71.3,207,71.6,207.4,71.6z"/>
		<path class="st0" d="M207.2,93.9L207.2,93.9c0.4,0,0.7-0.3,0.7-0.7v-2.8c0-0.4-0.3-0.7-0.7-0.7l0,0c-0.4,0-0.7,0.3-0.7,0.7v2.8
			C206.5,93.6,206.8,93.9,207.2,93.9z"/>
		<path class="st0" d="M207,110.6L207,110.6c0.4,0,0.7-0.3,0.7-0.7c0-0.9,0-1.8,0-2.7v-0.1c0-0.4-0.3-0.7-0.7-0.7l0,0
			c-0.4,0-0.7,0.3-0.7,0.7c0,0.9,0,1.8,0,2.7C206.3,110.3,206.6,110.6,207,110.6z"/>
		<path class="st0" d="M207,105.1L207,105.1c0.4,0,0.7-0.3,0.7-0.7v-2.8c0-0.4-0.3-0.7-0.7-0.7s-0.7,0.3-0.7,0.7v2.8
			C206.3,104.7,206.6,105.1,207,105.1z"/>
		<path class="st0" d="M207.1,99.5L207.1,99.5c0.4,0,0.7-0.3,0.7-0.7V96c0-0.4-0.3-0.7-0.7-0.7s-0.7,0.3-0.7,0.7v2.8
			C206.4,99.2,206.7,99.5,207.1,99.5z"/>
		<path class="st0" d="M207.4,66.1L207.4,66.1c0.4,0,0.7-0.3,0.7-0.7v-0.2h2.6l0,0c0.4,0,0.7-0.3,0.7-0.7c0-0.4-0.3-0.7-0.7-0.7
			h-2.6v-1.2c0-0.4-0.3-0.7-0.7-0.7s-0.7,0.3-0.7,0.7v2.8C206.7,65.7,207,66.1,207.4,66.1z"/>
		<path class="st0" d="M222.8,137.2C222.9,137.2,222.9,137.2,222.8,137.2c0.4,0,0.7-0.3,0.8-0.6c0.1-0.9,0.2-1.8,0.2-2.8
			c0-0.4-0.3-0.7-0.7-0.7s-0.7,0.3-0.7,0.7c-0.1,0.9-0.1,1.9-0.2,2.7C222.2,136.8,222.4,137.1,222.8,137.2z"/>
		<path class="st0" d="M221.7,142.6c0.1,0,0.1,0,0.2,0c0.3,0,0.6-0.2,0.7-0.5c0.2-0.9,0.5-1.8,0.7-2.8c0.1-0.4-0.2-0.7-0.6-0.8
			c-0.4-0.1-0.7,0.2-0.8,0.6c-0.2,0.9-0.4,1.8-0.6,2.7C221.1,142.1,221.3,142.5,221.7,142.6z"/>
		<path class="st0" d="M223,120.5L223,120.5c0.4,0,0.7-0.3,0.7-0.7c0-0.9,0-1.8,0-2.8c0-0.4-0.3-0.7-0.7-0.7l0,0
			c-0.4,0-0.7,0.3-0.7,0.7c0,0.9,0,1.9,0,2.8C222.3,120.2,222.6,120.5,223,120.5z"/>
		<path class="st0" d="M211.5,155c0.1,0,0.2,0,0.3,0c0.9-0.4,1.8-0.8,2.6-1.3c0.3-0.2,0.4-0.6,0.2-1c-0.2-0.3-0.6-0.4-1-0.2
			c-0.7,0.4-1.5,0.8-2.4,1.2c-0.4,0.1-0.5,0.5-0.4,0.9C211,154.8,211.3,155,211.5,155z"/>
		<path class="st0" d="M223.2,131.6L223.2,131.6c0.4,0,0.7-0.3,0.7-0.7v-0.6c0-0.7,0-1.5,0-2.2c0-0.4-0.3-0.7-0.7-0.7
			s-0.7,0.3-0.7,0.7c0,0.7,0,1.5,0,2.2v0.6C222.5,131.3,222.8,131.6,223.2,131.6z"/>
		<path class="st0" d="M223.2,103.8L223.2,103.8c0.4,0,0.7-0.3,0.7-0.7l0.1-2.8c0-0.4-0.3-0.7-0.7-0.7s-0.7,0.3-0.7,0.7l-0.1,2.8
			C222.5,103.4,222.8,103.8,223.2,103.8z"/>
		<path class="st0" d="M223.1,126.1c0.4,0,0.7-0.3,0.7-0.7c0-0.9,0-1.8-0.1-2.8c0-0.4-0.3-0.7-0.7-0.7l0,0c-0.4,0-0.7,0.3-0.7,0.7
			c0,1,0,1.9,0.1,2.8C222.4,125.8,222.7,126.1,223.1,126.1L223.1,126.1z"/>
		<path class="st0" d="M223,114.9L223,114.9c0.4,0,0.7-0.3,0.7-0.7v-2.8c0-0.4-0.3-0.7-0.7-0.7l0,0c-0.4,0-0.7,0.3-0.7,0.7v2.8
			C222.3,114.6,222.6,114.9,223,114.9z"/>
		<path class="st0" d="M223,109.3C223,109.3,223.1,109.3,223,109.3c0.4,0,0.7-0.3,0.7-0.7v-2.8c0-0.4-0.3-0.7-0.7-0.7
			s-0.7,0.3-0.7,0.7v2.8C222.4,109,222.7,109.3,223,109.3z"/>
		<path class="st0" d="M223.3,98.2L223.3,98.2c0.4,0,0.7-0.3,0.7-0.7l0.1-2.8c0-0.4-0.3-0.7-0.7-0.7s-0.7,0.3-0.7,0.7l-0.1,2.8
			C222.6,97.9,222.9,98.2,223.3,98.2z"/>
		<path class="st0" d="M223.5,92.6L223.5,92.6c0.4,0,0.7-0.3,0.7-0.7c0-1,0.1-1.9,0.1-2.8c0-0.4-0.3-0.7-0.7-0.7s-0.7,0.3-0.7,0.7
			c0,0.9-0.1,1.8-0.1,2.8C222.8,92.3,223.1,92.6,223.5,92.6z"/>
		<path class="st0" d="M218.7,149.8c0.2-0.3,0.2-0.7-0.1-1c-0.3-0.2-0.7-0.2-1,0.1c-0.6,0.7-1.2,1.3-1.8,1.9c-0.3,0.3-0.3,0.7-0.1,1
			c0.1,0.2,0.3,0.2,0.5,0.2s0.3-0.1,0.5-0.2C217.4,151.3,218.1,150.6,218.7,149.8z"/>
		<path class="st0" d="M221.2,143.9c-0.4-0.1-0.8,0-0.9,0.4c-0.3,0.9-0.7,1.7-1.2,2.4c-0.2,0.3-0.1,0.8,0.3,1
			c0.1,0.1,0.2,0.1,0.3,0.1c0.2,0,0.5-0.1,0.6-0.4c0.5-0.8,0.9-1.7,1.2-2.6C221.7,144.5,221.6,144.1,221.2,143.9z"/>
		<path class="st0" d="M227,109.3L227,109.3c0.4,0,0.7-0.3,0.7-0.7l0.1-2.8c0-0.4-0.3-0.7-0.7-0.7l0,0c-0.4,0-0.7,0.3-0.7,0.7
			l-0.1,2.8C226.3,109,226.6,109.3,227,109.3z"/>
		<path class="st0" d="M227.7,88.4c-0.4,0-0.7,0.3-0.7,0.7c0,0.9-0.1,1.8-0.1,2.8c0,0.4,0.3,0.7,0.7,0.7l0,0c0.4,0,0.7-0.3,0.7-0.7
			c0-1,0.1-1.9,0.1-2.8C228.4,88.8,228.1,88.5,227.7,88.4z"/>
		<path class="st0" d="M227.1,133c-0.4,0-0.7,0.3-0.7,0.7c-0.1,0.9-0.1,1.8-0.2,2.7c0,0.4,0.2,0.7,0.6,0.8h0.1
			c0.4,0,0.7-0.3,0.7-0.6c0.1-0.9,0.2-1.9,0.2-2.8C227.8,133.4,227.5,133,227.1,133z"/>
		<path class="st0" d="M227,114.9L227,114.9c0.4,0,0.7-0.3,0.7-0.7c0-0.9,0-1.8,0-2.8c0-0.4-0.3-0.7-0.7-0.7l0,0
			c-0.4,0-0.7,0.3-0.7,0.7c0,0.9,0,1.9,0,2.8C226.3,114.6,226.6,114.9,227,114.9z"/>
		<path class="st0" d="M227,120.5L227,120.5c0.4,0,0.7-0.3,0.7-0.7c0-0.9,0-1.8,0-2.8c0-0.4-0.3-0.7-0.7-0.7s-0.7,0.3-0.7,0.7
			c0,0.9,0,1.9,0,2.8C226.3,120.2,226.6,120.5,227,120.5z"/>
		<path class="st0" d="M227,121.9L227,121.9c-0.4,0-0.7,0.3-0.7,0.7c0,1,0,1.9,0.1,2.8c0,0.4,0.3,0.7,0.7,0.7l0,0
			c0.4,0,0.7-0.3,0.7-0.7c0-0.9,0-1.8-0.1-2.8C227.7,122.2,227.4,121.9,227,121.9z"/>
		<path class="st0" d="M223.2,149.1c-0.3-0.2-0.8-0.1-1,0.2c-0.5,0.8-1,1.5-1.5,2.2c-0.2,0.3-0.2,0.7,0.1,1c0.1,0.1,0.3,0.1,0.4,0.1
			c0.2,0,0.4-0.1,0.6-0.3c0.6-0.7,1.1-1.5,1.6-2.4C223.7,149.8,223.6,149.3,223.2,149.1z"/>
		<path class="st0" d="M225.4,144c-0.4-0.1-0.8,0.1-0.9,0.4c-0.3,0.9-0.6,1.7-1,2.5c-0.2,0.4,0,0.8,0.4,0.9c0.1,0,0.2,0.1,0.3,0.1
			c0.3,0,0.5-0.2,0.6-0.4c0.4-0.8,0.7-1.7,1-2.7C225.9,144.5,225.7,144.1,225.4,144z"/>
		<path class="st0" d="M219,153.6c-0.6,0.6-1.3,1.2-2,1.7c-0.3,0.2-0.4,0.7-0.1,1c0.1,0.2,0.3,0.3,0.6,0.3c0.1,0,0.3,0,0.4-0.1
			c0.8-0.6,1.5-1.2,2.2-1.9c0.3-0.3,0.3-0.7,0-1C219.7,153.4,219.3,153.4,219,153.6z"/>
		<path class="st0" d="M226.6,138.6c-0.4-0.1-0.7,0.2-0.8,0.6c-0.2,0.9-0.3,1.8-0.6,2.7c-0.1,0.4,0.1,0.8,0.5,0.8c0.1,0,0.1,0,0.2,0
			c0.3,0,0.6-0.2,0.7-0.5c0.2-0.9,0.4-1.8,0.6-2.8C227.2,139,227,138.6,226.6,138.6z"/>
		<path class="st0" d="M227.4,94c-0.4,0-0.7,0.3-0.7,0.7l-0.1,2.8c0,0.4,0.3,0.7,0.7,0.7l0,0c0.4,0,0.7-0.3,0.7-0.7l0.1-2.8
			C228.1,94.3,227.8,94,227.4,94z"/>
		<path class="st0" d="M227.2,99.6c-0.4-0.1-0.7,0.3-0.7,0.7l-0.1,2.8c0,0.4,0.3,0.7,0.7,0.7l0,0c0.4,0,0.7-0.3,0.7-0.7l0.1-2.8
			C227.9,99.9,227.6,99.6,227.2,99.6z"/>
		<path class="st0" d="M214.7,156.8c-0.8,0.4-1.6,0.8-2.4,1.1c-0.4,0.1-0.5,0.5-0.4,0.9c0.1,0.3,0.4,0.5,0.7,0.5c0.1,0,0.2,0,0.2,0
			c0.9-0.3,1.8-0.7,2.6-1.2c0.3-0.2,0.5-0.6,0.3-0.9C215.5,156.7,215,156.6,214.7,156.8z"/>
		<path class="st0" d="M227.2,127.4c-0.4,0-0.7,0.3-0.7,0.7c0,0.7,0,1.3,0,2v0.8c0,0.4,0.3,0.7,0.7,0.7l0,0c0.4,0,0.7-0.3,0.7-0.7
			v-0.8c0-0.7,0-1.4,0-2C227.9,127.7,227.5,127.4,227.2,127.4z"/>
		<path class="st0" d="M285.3,110.6c0.9,0.4,1.8,0.8,2.7,1.2c0.1,0,0.2,0,0.2,0c0.3,0,0.6-0.2,0.7-0.5c0.1-0.4-0.1-0.8-0.4-0.9
			c-0.9-0.3-1.8-0.7-2.6-1.1c-0.3-0.2-0.8,0-0.9,0.3C284.8,110,284.9,110.4,285.3,110.6z"/>
		<path class="st0" d="M283.5,108c-0.8-0.5-1.5-1.1-2.2-1.7c-0.3-0.2-0.7-0.2-1,0.1c-0.2,0.3-0.2,0.7,0.1,1c0.7,0.6,1.5,1.2,2.4,1.8
			c0.1,0.1,0.2,0.1,0.4,0.1c0.2,0,0.5-0.1,0.6-0.3C283.9,108.6,283.8,108.2,283.5,108z"/>
		<path class="st0" d="M302.4,113.9c0.9,0,1.9,0,2.8-0.1c0.4,0,0.7-0.3,0.7-0.7c0-0.4-0.4-0.7-0.7-0.7c-0.9,0-1.9,0.1-2.8,0.1
			c-0.4,0-0.7,0.3-0.7,0.7C301.6,113.6,302,113.9,302.4,113.9z"/>
		<path class="st0" d="M299.4,113.9C299.5,113.9,299.5,113.9,299.4,113.9c0.4,0,0.7-0.3,0.7-0.7c0-0.4-0.3-0.7-0.7-0.7
			c-1,0-1.9-0.1-2.8-0.2c-0.4,0-0.7,0.2-0.8,0.6c0,0.4,0.2,0.7,0.6,0.8C297.5,113.7,298.5,113.8,299.4,113.9z"/>
		<path class="st0" d="M290.8,112.6c0.9,0.2,1.9,0.4,2.9,0.6h0.1c0.3,0,0.6-0.2,0.7-0.6s-0.2-0.7-0.6-0.8c-0.9-0.2-1.9-0.4-2.8-0.6
			c-0.4-0.1-0.8,0.1-0.8,0.5C290.2,112.1,290.4,112.5,290.8,112.6z"/>
		<path class="st0" d="M277.4,102.3c-0.2-0.3-0.7-0.4-1-0.1c-0.3,0.2-0.4,0.7-0.1,1c0.6,0.8,1.2,1.6,1.9,2.3
			c0.1,0.1,0.3,0.2,0.5,0.2s0.3-0.1,0.5-0.2c0.3-0.3,0.3-0.7,0-1C278.6,103.7,278,103,277.4,102.3z"/>
		<path class="st0" d="M275.9,99.9c-0.5-0.8-0.9-1.6-1.3-2.5c-0.2-0.3-0.6-0.5-0.9-0.3s-0.5,0.6-0.3,0.9c0.4,0.9,0.9,1.8,1.4,2.6
			c0.1,0.2,0.4,0.3,0.6,0.3c0.1,0,0.2,0,0.4-0.1C276,100.7,276.1,100.3,275.9,99.9z"/>
		<path class="st0" d="M272.2,95.4c0.1,0.3,0.4,0.4,0.7,0.4c0.1,0,0.2,0,0.2,0c0.4-0.1,0.5-0.5,0.4-0.9c-0.3-0.9-0.6-1.7-0.9-2.7
			c-0.1-0.4-0.5-0.6-0.9-0.5s-0.6,0.5-0.5,0.9C271.6,93.5,271.9,94.5,272.2,95.4z"/>
		<path class="st0" d="M296.8,118.1c1,0.1,1.9,0.2,2.9,0.2l0,0c0.4,0,0.7-0.3,0.7-0.7c0-0.4-0.3-0.7-0.7-0.7c-1,0-1.9-0.1-2.9-0.2
			c-0.4,0-0.7,0.2-0.8,0.6C296.2,117.7,296.5,118,296.8,118.1z"/>
		<path class="st0" d="M294.1,116.3c-1-0.2-1.9-0.3-2.8-0.5c-0.4-0.1-0.7,0.1-0.8,0.5c-0.1,0.4,0.1,0.7,0.5,0.8
			c0.9,0.2,1.9,0.4,2.9,0.6h0.1c0.3,0,0.6-0.2,0.7-0.6C294.8,116.7,294.5,116.4,294.1,116.3z"/>
		<path class="st0" d="M288.6,115c-0.9-0.3-1.8-0.6-2.7-1c-0.4-0.1-0.8,0-0.9,0.4s0,0.8,0.4,0.9c0.9,0.4,1.8,0.7,2.8,1
			c0.1,0,0.1,0,0.2,0c0.3,0,0.6-0.2,0.7-0.5C289.2,115.6,289,115.2,288.6,115z"/>
		<path class="st0" d="M270.5,98.3c-0.2-0.4-0.6-0.5-0.9-0.4c-0.4,0.2-0.5,0.6-0.4,0.9c0.4,0.9,0.8,1.8,1.3,2.7
			c0.1,0.2,0.4,0.4,0.6,0.4c0.1,0,0.2,0,0.3-0.1c0.3-0.2,0.5-0.6,0.3-0.9C271.3,100,270.9,99.2,270.5,98.3z"/>
		<path class="st0" d="M273.2,103.3c-0.2-0.3-0.6-0.4-1-0.2c-0.3,0.2-0.4,0.6-0.2,1c0.5,0.8,1.1,1.7,1.7,2.4
			c0.1,0.2,0.3,0.3,0.5,0.3c0.1,0,0.3,0,0.4-0.1c0.3-0.2,0.4-0.7,0.1-1C274.2,104.9,273.7,104.1,273.2,103.3z"/>
		<path class="st0" d="M283.4,112.9c-0.8-0.4-1.6-0.9-2.4-1.5c-0.3-0.2-0.8-0.1-1,0.2c-0.2,0.3-0.1,0.8,0.2,1
			c0.8,0.5,1.7,1.1,2.5,1.5c0.1,0.1,0.2,0.1,0.3,0.1c0.2,0,0.5-0.1,0.6-0.4C283.8,113.5,283.7,113,283.4,112.9z"/>
		<path class="st0" d="M276.7,107.8c-0.3-0.3-0.7-0.3-1,0s-0.3,0.7,0,1c0.7,0.7,1.4,1.4,2.2,2c0.1,0.1,0.3,0.2,0.4,0.2
			c0.2,0,0.4-0.1,0.5-0.2c0.2-0.3,0.2-0.7-0.1-1C278,109.1,277.3,108.5,276.7,107.8z"/>
		<path class="st0" d="M269.5,95.6c-0.3-0.9-0.6-1.8-0.9-2.7c-0.1-0.4-0.5-0.6-0.9-0.5s-0.6,0.5-0.5,0.9c0.3,1,0.6,1.9,0.9,2.8
			c0.1,0.3,0.4,0.5,0.7,0.5c0.1,0,0.2,0,0.2,0C269.4,96.4,269.6,96,269.5,95.6z"/>
		<path class="st0" d="M302.7,116.9c-0.4,0-0.7,0.3-0.7,0.7c0,0.4,0.3,0.7,0.7,0.7l0,0c0.9,0,1.9,0,2.9-0.1c0.4,0,0.7-0.3,0.7-0.7
			c0-0.4-0.4-0.7-0.7-0.7C304.6,116.9,303.6,116.9,302.7,116.9z"/>
		<path class="st0" d="M153,96.4c0.1,0,0.1,0,0.2,0c0.3,0,0.6-0.2,0.7-0.5c0.2-0.9,0.5-1.8,0.7-2.7c0.1-0.4-0.2-0.7-0.5-0.8
			c-0.4-0.1-0.7,0.2-0.8,0.5c-0.2,0.9-0.4,1.8-0.7,2.7C152.5,95.9,152.7,96.3,153,96.4z"/>
		<path class="st0" d="M151,101.5c0.1,0,0.2,0.1,0.3,0.1c0.3,0,0.5-0.1,0.6-0.4c0.4-0.8,0.8-1.7,1.1-2.6c0.1-0.4,0-0.8-0.4-0.9
			s-0.8,0-0.9,0.4c-0.3,0.9-0.7,1.7-1.1,2.5C150.5,100.9,150.6,101.3,151,101.5z"/>
		<path class="st0" d="M133.9,114.3c0.1,0,0.1,0,0.2,0c0.9-0.2,1.9-0.5,2.7-0.8c0.4-0.1,0.6-0.5,0.4-0.9c-0.1-0.4-0.5-0.6-0.9-0.4
			c-0.8,0.3-1.7,0.5-2.6,0.7c-0.4,0.1-0.6,0.5-0.5,0.8C133.3,114.1,133.6,114.3,133.9,114.3z"/>
		<path class="st0" d="M131.9,114c-0.1-0.4-0.4-0.6-0.8-0.6c-0.9,0.2-1.8,0.3-2.7,0.5c-0.4,0.1-0.6,0.4-0.6,0.8
			c0.1,0.3,0.3,0.6,0.7,0.6h0.1c1-0.1,1.9-0.3,2.8-0.5C131.7,114.8,132,114.4,131.9,114z"/>
		<path class="st0" d="M126.4,114.9c0-0.4-0.4-0.7-0.8-0.6c-0.9,0.1-1.8,0.2-2.7,0.3c-0.4,0-0.7,0.4-0.6,0.7c0,0.4,0.3,0.6,0.7,0.6
			c0,0,0,0,0.1,0c1-0.1,1.9-0.2,2.8-0.3C126.2,115.6,126.4,115.3,126.4,114.9z"/>
		<path class="st0" d="M139.2,112.6c0.1,0,0.2,0,0.3-0.1c0.9-0.4,1.8-0.8,2.6-1.2c0.3-0.2,0.5-0.6,0.3-0.9s-0.6-0.5-0.9-0.3
			c-0.8,0.4-1.6,0.8-2.5,1.2c-0.4,0.1-0.5,0.6-0.4,0.9C138.7,112.4,138.9,112.6,139.2,112.6z"/>
		<path class="st0" d="M144.1,109.9c0.1,0,0.3,0,0.4-0.1c0.8-0.5,1.6-1.1,2.3-1.8c0.3-0.3,0.3-0.7,0.1-1c-0.3-0.3-0.7-0.3-1-0.1
			c-0.7,0.6-1.4,1.1-2.1,1.7c-0.3,0.2-0.4,0.7-0.2,1C143.7,109.8,143.9,109.9,144.1,109.9z"/>
		<path class="st0" d="M148.2,106.2c0.2,0,0.4-0.1,0.5-0.2c0.6-0.7,1.2-1.5,1.7-2.3c0.2-0.3,0.1-0.8-0.2-1s-0.8-0.1-1,0.2
			c-0.5,0.8-1,1.5-1.6,2.2c-0.2,0.3-0.2,0.7,0.1,1C147.9,106.2,148.1,106.2,148.2,106.2z"/>
		<path class="st0" d="M147.8,112c-0.7,0.5-1.4,1.1-2.2,1.5c-0.3,0.2-0.4,0.6-0.2,1c0.1,0.2,0.4,0.3,0.6,0.3c0.1,0,0.3,0,0.4-0.1
			c0.8-0.5,1.6-1.1,2.3-1.6c0.3-0.2,0.4-0.7,0.1-1C148.5,111.8,148.1,111.7,147.8,112z"/>
		<path class="st0" d="M135,118.6c0.1,0.3,0.4,0.5,0.7,0.5c0.1,0,0.1,0,0.2,0c0.9-0.3,1.8-0.5,2.7-0.8c0.4-0.1,0.6-0.5,0.4-0.9
			c-0.1-0.4-0.5-0.6-0.9-0.4c-0.8,0.3-1.7,0.6-2.6,0.8C135.1,117.9,134.9,118.2,135,118.6z"/>
		<path class="st0" d="M140.3,116.9c0.1,0.3,0.4,0.4,0.6,0.4c0.1,0,0.2,0,0.3-0.1c0.9-0.4,1.8-0.8,2.6-1.2c0.3-0.2,0.5-0.6,0.3-0.9
			s-0.6-0.5-0.9-0.3c-0.8,0.4-1.6,0.8-2.5,1.1C140.3,116.1,140.2,116.5,140.3,116.9z"/>
		<path class="st0" d="M155.9,102c0.1,0,0.2,0,0.3,0c0.3,0,0.5-0.2,0.6-0.4c0.3-0.9,0.6-1.8,0.9-2.7c0.1-0.4-0.1-0.8-0.5-0.9
			s-0.8,0.1-0.9,0.5c-0.3,0.9-0.6,1.7-0.9,2.6C155.3,101.4,155.5,101.8,155.9,102z"/>
		<path class="st0" d="M127.4,119.4c-0.9,0.1-1.8,0.2-2.7,0.3c-0.4,0-0.7,0.4-0.6,0.8c0,0.4,0.3,0.6,0.7,0.6c0,0,0,0,0.1,0
			c0.9-0.1,1.9-0.2,2.8-0.3c0.4-0.1,0.6-0.4,0.6-0.8C128.1,119.6,127.8,119.3,127.4,119.4z"/>
		<path class="st0" d="M133.7,118.9c-0.1-0.4-0.5-0.6-0.8-0.5c-0.9,0.2-1.8,0.4-2.7,0.5c-0.4,0.1-0.6,0.4-0.6,0.8
			c0.1,0.3,0.4,0.6,0.7,0.6h0.1c0.9-0.2,1.9-0.4,2.8-0.6C133.5,119.7,133.7,119.3,133.7,118.9z"/>
		<path class="st0" d="M154.4,103.5c-0.4,0.8-0.8,1.6-1.3,2.4c-0.2,0.3-0.1,0.8,0.2,1c0.1,0.1,0.2,0.1,0.4,0.1s0.5-0.1,0.6-0.3
			c0.5-0.8,0.9-1.6,1.4-2.5c0.2-0.3,0-0.8-0.3-0.9C155,103.1,154.6,103.2,154.4,103.5z"/>
		<path class="st0" d="M151.6,108.2c-0.3,0.4-0.7,0.9-1.1,1.3c-0.2,0.3-0.5,0.5-0.7,0.7c-0.3,0.3-0.3,0.7,0,1
			c0.1,0.1,0.3,0.2,0.5,0.2s0.4-0.1,0.5-0.2c0.3-0.3,0.5-0.5,0.7-0.8c0.4-0.4,0.8-0.9,1.1-1.4c0.2-0.3,0.2-0.7-0.1-1
			C152.2,107.8,151.8,107.9,151.6,108.2z"/>
		<path class="st0" d="M157.6,96.7c0.1,0,0.1,0,0.2,0c0.3,0,0.6-0.2,0.7-0.5c0.2-0.9,0.4-1.8,0.6-2.8c0.1-0.4-0.2-0.7-0.6-0.8
			c-0.4-0.1-0.7,0.2-0.8,0.6c-0.2,0.9-0.4,1.8-0.6,2.7C157,96.2,157.2,96.6,157.6,96.7z"/>
		<path class="st0" d="M169.3,78.8l-2.8-0.1c-0.4,0-0.7,0.3-0.7,0.7c0,0.4,0.3,0.7,0.7,0.7l2.8,0.1l0,0c0.4,0,0.7-0.3,0.7-0.7
			C170,79.2,169.7,78.9,169.3,78.8z"/>
		<path class="st0" d="M186,79.4l-2.8-0.1c-0.4,0-0.7,0.3-0.7,0.7c0,0.4,0.3,0.7,0.7,0.7l2.8,0.1l0,0c0.4,0,0.7-0.3,0.7-0.7
			C186.7,79.7,186.4,79.4,186,79.4z"/>
		<path class="st0" d="M174.9,79l-2.8-0.1c-0.4,0-0.7,0.3-0.7,0.7c0,0.4,0.3,0.7,0.7,0.7l2.8,0.1l0,0c0.4,0,0.7-0.3,0.7-0.7
			C175.6,79.4,175.3,79,174.9,79z"/>
		<path class="st0" d="M152.6,78.2l-2.8-0.1c-0.3,0-0.7,0.3-0.7,0.7c0,0.4,0.3,0.7,0.7,0.7l2.8,0.1l0,0c0.4,0,0.7-0.3,0.7-0.7
			S153,78.2,152.6,78.2z"/>
		<path class="st0" d="M180.5,79.2l-2.8-0.1c-0.4,0-0.7,0.3-0.7,0.7c0,0.4,0.3,0.7,0.7,0.7l2.8,0.1l0,0c0.4,0,0.7-0.3,0.7-0.7
			S180.9,79.2,180.5,79.2z"/>
		<path class="st0" d="M135.9,77.2c-1-0.1-1.9-0.1-2.8-0.2c-0.4,0-0.7,0.3-0.7,0.6c0,0.4,0.3,0.7,0.6,0.7c0.9,0.1,1.8,0.1,2.8,0.2
			l0,0c0.4,0,0.7-0.3,0.7-0.6C136.6,77.6,136.3,77.2,135.9,77.2z"/>
		<path class="st0" d="M302.8,75.9l-2.8,0.4c-0.4,0.1-0.6,0.4-0.6,0.8c0,0.3,0.3,0.6,0.7,0.6h0.1l2.8-0.4c0.4-0.1,0.6-0.4,0.6-0.8
			C303.5,76.1,303.1,75.8,302.8,75.9z"/>
		<path class="st0" d="M147.1,77.9l-2.8-0.2c-0.4,0-0.7,0.3-0.7,0.7c0,0.4,0.3,0.7,0.7,0.7l2.8,0.2l0,0c0.4,0,0.7-0.3,0.7-0.7
			C147.7,78.2,147.5,77.9,147.1,77.9z"/>
		<path class="st0" d="M272.4,80.7L272.4,80.7h1c0.6,0,1.2-0.1,1.8-0.1c0.4,0,0.7-0.4,0.6-0.7c0-0.4-0.4-0.7-0.7-0.6
			c-0.6,0-1.2,0.1-1.8,0.1h-1c-0.4,0-0.7,0.3-0.7,0.7C271.7,80.4,272,80.7,272.4,80.7z"/>
		<path class="st0" d="M297.3,76.6l-2.8,0.4c-0.4,0-0.6,0.4-0.6,0.8s0.3,0.6,0.7,0.6h0.1l2.8-0.4c0.4-0.1,0.6-0.4,0.6-0.8
			C298,76.9,297.6,76.6,297.3,76.6z"/>
		<path class="st0" d="M141.5,77.6l-2.8-0.2c-0.4,0-0.7,0.3-0.7,0.6c0,0.4,0.3,0.7,0.7,0.7l2.8,0.2l0,0c0.4,0,0.7-0.3,0.7-0.7
			C142.2,77.9,141.9,77.6,141.5,77.6z"/>
		<path class="st0" d="M191.6,79.5l-2.8-0.1c-0.4,0-0.7,0.3-0.7,0.7c0,0.4,0.3,0.7,0.7,0.7l2.8,0.1l0,0c0.4,0,0.7-0.3,0.7-0.7
			S192,79.5,191.6,79.5z"/>
		<path class="st0" d="M291.7,77.4l-2.8,0.3c-0.4,0-0.7,0.4-0.6,0.8c0,0.4,0.3,0.6,0.7,0.6h0.1c0.9-0.1,1.8-0.2,2.8-0.3
			c0.4,0,0.7-0.4,0.6-0.8C292.5,77.6,292.1,77.3,291.7,77.4z"/>
		<path class="st0" d="M304.9,76.2c0.1,0.3,0.3,0.6,0.7,0.6h0.1c1-0.2,1.9-0.3,2.8-0.4c0.4-0.1,0.6-0.4,0.6-0.8
			c-0.1-0.4-0.4-0.6-0.8-0.6c-0.8,0.1-1.7,0.3-2.7,0.4C305.1,75.5,304.9,75.9,304.9,76.2z"/>
		<path class="st0" d="M230.6,80h-2.8l0,0c-0.4,0-0.7,0.3-0.7,0.7c0,0.4,0.3,0.7,0.7,0.7h2.8l0,0c0.4,0,0.7-0.3,0.7-0.7
			S231,80,230.6,80z"/>
		<path class="st0" d="M225,80h-2.8l0,0c-0.4,0-0.7,0.3-0.7,0.7c0,0.4,0.3,0.7,0.7,0.7h2.8l0,0c0.4,0,0.7-0.3,0.7-0.7
			S225.4,80,225,80z"/>
		<path class="st0" d="M236.2,80L236.2,80h-2.8c-0.4,0-0.7,0.3-0.7,0.7c0,0.4,0.3,0.7,0.7,0.7h0.5h2.3c0.4,0,0.7-0.3,0.7-0.7
			S236.6,80,236.2,80z"/>
		<path class="st0" d="M241.8,80L241.8,80H239c-0.4,0-0.7,0.3-0.7,0.7c0,0.4,0.3,0.7,0.7,0.7l0,0h2.8c0.4,0,0.7-0.3,0.7-0.7
			S242.1,80,241.8,80z"/>
		<path class="st0" d="M213.9,79.9h-2.8c-0.4,0-0.7,0.3-0.7,0.7c0,0.4,0.3,0.7,0.7,0.7h2.8l0,0c0.4,0,0.7-0.3,0.7-0.7
			C214.6,80.2,214.3,79.9,213.9,79.9z"/>
		<path class="st0" d="M130.4,76.8c-1-0.1-1.9-0.2-2.8-0.2c-0.4,0-0.7,0.2-0.8,0.6c0,0.4,0.2,0.7,0.6,0.8c0.9,0.1,1.8,0.2,2.8,0.2
			c0,0,0,0,0.1,0c0.4,0,0.7-0.3,0.7-0.6C131.1,77.2,130.8,76.8,130.4,76.8z"/>
		<path class="st0" d="M247.3,80L247.3,80h-2.8c-0.4,0-0.7,0.3-0.7,0.7c0,0.4,0.3,0.7,0.7,0.7l0,0h2.8c0.4,0,0.7-0.3,0.7-0.7
			S247.7,80,247.3,80z"/>
		<path class="st0" d="M219.5,80h-2.8l0,0c-0.4,0-0.7,0.3-0.7,0.7c0,0.4,0.3,0.7,0.7,0.7h2.8l0,0c0.4,0,0.7-0.3,0.7-0.7
			S219.9,80,219.5,80z"/>
		<path class="st0" d="M202.7,79.7l-2.8-0.1c-0.4,0-0.7,0.3-0.7,0.7c0,0.4,0.3,0.7,0.7,0.7l2.8,0.1l0,0c0.4,0,0.7-0.3,0.7-0.7
			C203.4,80.1,203.1,79.7,202.7,79.7z"/>
		<path class="st0" d="M286.2,78c-0.9,0.1-1.9,0.2-2.8,0.3c-0.4,0-0.7,0.4-0.6,0.8c0,0.4,0.3,0.6,0.7,0.6c0,0,0,0,0.1,0
			c0.9-0.1,1.8-0.2,2.8-0.3c0.4,0,0.7-0.4,0.6-0.8C286.9,78.3,286.6,78,286.2,78z"/>
		<path class="st0" d="M252.9,79.9h-2.8c-0.4,0-0.7,0.3-0.7,0.7c0,0.4,0.3,0.7,0.7,0.7l0,0h2.8c0.4,0,0.7-0.3,0.7-0.7
			C253.6,80.2,253.3,79.9,252.9,79.9z"/>
		<path class="st0" d="M280.7,78.7c-1,0.1-1.9,0.2-2.8,0.3c-0.4,0-0.7,0.4-0.6,0.8c0,0.4,0.3,0.6,0.7,0.6c0,0,0,0,0.1,0
			c0.9-0.1,1.8-0.2,2.8-0.3c0.4,0,0.7-0.4,0.6-0.8C281.4,78.9,281.1,78.6,280.7,78.7z"/>
		<path class="st0" d="M258.5,79.8l-2.8,0.1c-0.4,0-0.7,0.3-0.7,0.7c0,0.4,0.3,0.7,0.7,0.7l0,0l2.8-0.1c0.4,0,0.7-0.3,0.7-0.7
			C259.2,80.1,258.8,79.7,258.5,79.8z"/>
		<path class="st0" d="M197.2,79.6l-2.8-0.1l0,0c-0.4,0-0.7,0.3-0.7,0.7c0,0.4,0.3,0.7,0.7,0.7l2.8,0.1l0,0c0.4,0,0.7-0.3,0.7-0.7
			S197.6,79.6,197.2,79.6z"/>
		<path class="st0" d="M274.8,64.5L274.8,64.5c0.9-0.1,1.8-0.1,2.8-0.2c0.4,0,0.7-0.4,0.6-0.7c0-0.4-0.4-0.7-0.7-0.6
			c-1,0.1-1.9,0.1-2.8,0.2c-0.4,0-0.7,0.4-0.7,0.7C274.1,64.2,274.4,64.5,274.8,64.5z"/>
		<path class="st0" d="M280.3,64.1C280.3,64.1,280.4,64.1,280.3,64.1c1-0.1,1.9-0.2,2.8-0.2c0.4,0,0.7-0.4,0.6-0.8
			c0-0.4-0.4-0.7-0.8-0.6c-0.9,0.1-1.9,0.2-2.8,0.2c-0.4,0-0.7,0.4-0.6,0.8C279.7,63.8,280,64.1,280.3,64.1z"/>
		<path class="st0" d="M285.9,63.6L285.9,63.6c1-0.1,1.9-0.2,2.8-0.3c0.4,0,0.7-0.4,0.6-0.8c0-0.4-0.4-0.7-0.8-0.6
			c-0.9,0.1-1.9,0.2-2.8,0.3c-0.4,0-0.7,0.4-0.6,0.8C285.2,63.3,285.5,63.6,285.9,63.6z"/>
		<path class="st0" d="M297,62.5L297,62.5c1-0.1,2-0.2,2.9-0.3c0.4,0,0.7-0.4,0.6-0.8c0-0.4-0.4-0.7-0.8-0.6
			c-0.9,0.1-1.8,0.2-2.8,0.3c-0.4,0-0.7,0.4-0.6,0.8C296.3,62.2,296.6,62.5,297,62.5z"/>
		<path class="st0" d="M291.4,63.1C291.5,63.1,291.5,63.1,291.4,63.1c1-0.1,1.9-0.2,2.8-0.3c0.4,0,0.7-0.4,0.6-0.8
			c0-0.4-0.4-0.7-0.8-0.6c-0.9,0.1-1.8,0.2-2.8,0.3c-0.4,0-0.7,0.4-0.6,0.8C290.8,62.8,291.1,63.1,291.4,63.1z"/>
		<path class="st0" d="M302.5,61.8C302.5,61.8,302.6,61.8,302.5,61.8c1.1-0.1,2-0.3,2.9-0.4c0.4-0.1,0.6-0.4,0.6-0.8
			c-0.1-0.4-0.4-0.6-0.8-0.6c-0.9,0.1-1.8,0.3-2.8,0.4c-0.4,0.1-0.6,0.4-0.6,0.8C301.9,61.5,302.2,61.8,302.5,61.8z"/>
		<path class="st0" d="M191.2,64.8l2.8,0.1l0,0c0.4,0,0.7-0.3,0.7-0.7c0-0.4-0.3-0.7-0.7-0.7l-2.8-0.1c-0.4,0-0.7,0.3-0.7,0.7
			C190.5,64.5,190.8,64.8,191.2,64.8z"/>
		<path class="st0" d="M166.1,64c0.4,0,0.7-0.3,0.7-0.7s-0.3-0.7-0.7-0.7l-2.8-0.1c-0.4,0-0.7,0.3-0.7,0.7s0.3,0.7,0.7,0.7L166.1,64
			L166.1,64z"/>
		<path class="st0" d="M174.4,64.3l2.8,0.1l0,0c0.4,0,0.7-0.3,0.7-0.7c0-0.4-0.3-0.7-0.7-0.7l-2.8-0.1c-0.4-0.1-0.7,0.3-0.7,0.7
			C173.8,64,174.1,64.3,174.4,64.3z"/>
		<path class="st0" d="M180,64.5l2.8,0.1l0,0c0.4,0,0.7-0.3,0.7-0.7c0-0.4-0.3-0.7-0.7-0.7l-2.8-0.1c-0.4,0-0.7,0.3-0.7,0.7
			C179.3,64.2,179.6,64.5,180,64.5z"/>
		<path class="st0" d="M185.6,64.6l2.8,0.1l0,0c0.4,0,0.7-0.3,0.7-0.7c0-0.4-0.3-0.7-0.7-0.7l-2.8-0.1c-0.4,0-0.7,0.3-0.7,0.7
			C184.9,64.3,185.2,64.6,185.6,64.6z"/>
		<path class="st0" d="M168.9,64.1l2.8,0.1l0,0c0.4,0,0.7-0.3,0.7-0.7s-0.3-0.7-0.7-0.7l-2.8-0.1c-0.4,0-0.7,0.3-0.7,0.7
			S168.5,64.1,168.9,64.1z"/>
		<path class="st0" d="M129.9,61.9c0.9,0.1,1.8,0.2,2.8,0.3c0,0,0,0,0.1,0c0.4,0,0.7-0.3,0.7-0.6c0-0.4-0.3-0.7-0.6-0.8
			c-1-0.1-1.9-0.2-2.8-0.2c-0.4,0-0.7,0.2-0.8,0.6C129.2,61.5,129.5,61.9,129.9,61.9z"/>
		<path class="st0" d="M135.4,62.4c0.9,0.1,1.8,0.1,2.8,0.2l0,0c0.4,0,0.7-0.3,0.7-0.6c0-0.4-0.3-0.7-0.6-0.7
			c-1-0.1-1.9-0.1-2.8-0.2c-0.4,0-0.7,0.3-0.7,0.6C134.8,62,135.1,62.3,135.4,62.4z"/>
		<path class="st0" d="M146.6,63.1l2.8,0.2l0,0c0.4,0,0.7-0.3,0.7-0.7s-0.3-0.7-0.7-0.7l-2.8-0.2c-0.4,0-0.7,0.3-0.7,0.7
			C145.9,62.7,146.2,63.1,146.6,63.1z"/>
		<path class="st0" d="M141,62.8l2.8,0.2l0,0c0.4,0,0.7-0.3,0.7-0.7s-0.3-0.7-0.7-0.7l-2.8-0.2c-0.4,0-0.7,0.3-0.7,0.6
			C140.3,62.4,140.6,62.7,141,62.8z"/>
		<path class="st0" d="M252.5,65.2L252.5,65.2h2.8c0.4,0,0.7-0.3,0.7-0.7c0-0.4-0.3-0.7-0.7-0.7l0,0h-2.8c-0.4,0-0.7,0.3-0.7,0.7
			S252.1,65.2,252.5,65.2z"/>
		<path class="st0" d="M235.8,65.3L235.8,65.3h2.8c0.4,0,0.7-0.3,0.7-0.7c0-0.4-0.3-0.7-0.7-0.7l0,0h-2.8c-0.4,0-0.7,0.3-0.7,0.7
			C235.1,65,235.4,65.3,235.8,65.3z"/>
		<path class="st0" d="M241.3,65.3L241.3,65.3h2.8c0.4,0,0.7-0.3,0.7-0.7c0-0.4-0.3-0.7-0.7-0.7l0,0h-2.8c-0.4,0-0.7,0.3-0.7,0.7
			C240.6,65,241,65.3,241.3,65.3z"/>
		<path class="st0" d="M230.2,65.3h2.8l0,0c0.4,0,0.7-0.3,0.7-0.7c0-0.4-0.3-0.7-0.7-0.7h-2.8l0,0c-0.4,0-0.7,0.3-0.7,0.7
			C229.5,65,229.8,65.3,230.2,65.3z"/>
		<path class="st0" d="M246.9,65.3L246.9,65.3h2.8c0.4,0,0.7-0.3,0.7-0.7c0-0.4-0.3-0.7-0.7-0.7h-2.8c-0.4,0-0.7,0.3-0.7,0.7
			C246.2,65,246.5,65.3,246.9,65.3z"/>
		<path class="st0" d="M196.7,64.9l2.8,0.1l0,0c0.4,0,0.7-0.3,0.7-0.7c0-0.4-0.3-0.7-0.7-0.7l-2.8-0.1c-0.4,0-0.7,0.3-0.7,0.7
			C196,64.6,196.3,64.9,196.7,64.9z"/>
		<path class="st0" d="M258.1,65.1L258.1,65.1l2.8-0.1c0.4,0,0.7-0.3,0.7-0.7c0-0.4-0.3-0.7-0.7-0.7l-2.8,0.1
			c-0.4,0-0.7,0.3-0.7,0.7S257.7,65.1,258.1,65.1z"/>
		<path class="st0" d="M224.6,65.3h2.8l0,0c0.4,0,0.7-0.3,0.7-0.7c0-0.4-0.3-0.7-0.7-0.7h-2.8l0,0c-0.4,0-0.7,0.3-0.7,0.7
			C223.9,65,224.2,65.3,224.6,65.3z"/>
		<path class="st0" d="M213.5,65.2h2.8l0,0c0.4,0,0.7-0.3,0.7-0.7c0-0.4-0.3-0.7-0.7-0.7h-2.8c-0.4,0-0.7,0.3-0.7,0.7
			S213.1,65.2,213.5,65.2z"/>
		<path class="st0" d="M219,65.3h2.8l0,0c0.4,0,0.7-0.3,0.7-0.7c0-0.4-0.3-0.7-0.7-0.7H219c-0.4,0-0.7,0.3-0.7,0.7
			C218.3,65,218.7,65.3,219,65.3z"/>
		<path class="st0" d="M141.8,101.5c-0.4-0.1-0.7,0.3-0.7,0.7L141,105c0,0.4,0.3,0.7,0.7,0.7l0,0c0.4,0,0.7-0.3,0.7-0.7l0.1-2.8
			C142.5,101.9,142.2,101.6,141.8,101.5z"/>
		<path class="st0" d="M142,96c-0.4,0-0.7,0.3-0.7,0.7v0.6c-0.1-0.1-0.3-0.2-0.4-0.2l-2.8-0.1c-0.4,0-0.7,0.3-0.7,0.7
			c0,0.4,0.3,0.7,0.7,0.7l2.8,0.1l0,0c0.2,0,0.3-0.1,0.4-0.2v1.1c0,0.4,0.3,0.7,0.7,0.7l0,0c0.4,0,0.7-0.3,0.7-0.7l0.1-2.8
			C142.7,96.3,142.4,96,142,96z"/>
		<path class="st0" d="M135.2,96.8l-2.8-0.1c-0.3,0-0.7,0.3-0.7,0.7c0,0.4,0.3,0.7,0.7,0.7l2.8,0.1l0,0c0.4,0,0.7-0.3,0.7-0.7
			C135.9,97.1,135.6,96.8,135.2,96.8z"/>
		<path class="st0" d="M129.7,96.5l-2.8-0.1c-0.4,0-0.7,0.3-0.7,0.7c0,0.4,0.3,0.7,0.7,0.7l2.8,0.1l0,0c0.4,0,0.7-0.3,0.7-0.7
			C130.3,96.9,130,96.5,129.7,96.5z"/>
		<g>
			<path class="st0" d="M215,67.2c-2.9,0-5.2,2.3-5.2,5.2c0,2.9,2.3,5.2,5.2,5.2s5.2-2.3,5.2-5.2S217.9,67.2,215,67.2z"/>
		</g>
	</g>
</g>
</svg>
