<?xml version="1.0" encoding="utf-8"?>
<!-- Generator: Adobe Illustrator 21.1.0, SVG Export Plug-In . SVG Version: 6.00 Build 0)  -->
<svg version="1.1" id="Layer_1" xmlns="http://www.w3.org/2000/svg" xmlns:xlink="http://www.w3.org/1999/xlink" x="0px" y="0px"
	 viewBox="0 0 457.4 682" style="enable-background:new 0 0 457.4 682;" xml:space="preserve">
<style type="text/css">
	.st0{fill:#D9248F;}
</style>
<g>
	<g>
		<path class="st0" d="M287,589.2c-1,0.1-1.9,0.2-2.8,0.3c-0.4,0-0.7,0.4-0.6,0.8c0,0.4,0.3,0.6,0.7,0.6c0,0,0,0,0.1,0
			c0.9-0.1,1.8-0.2,2.8-0.3c0.4,0,0.7-0.4,0.6-0.8C287.7,589.4,287.4,589.2,287,589.2z"/>
		<path class="st0" d="M339.8,590c1,0.1,1.9,0.3,2.7,0.5c0.1,0,0.1,0,0.2,0c0.3,0,0.6-0.2,0.7-0.5c0.1-0.4-0.2-0.7-0.5-0.8
			c-0.8-0.2-1.8-0.4-2.8-0.5c-0.4,0-0.7,0.2-0.8,0.6C339.2,589.6,339.5,589.9,339.8,590z"/>
		<path class="st0" d="M281.4,589.8c-1,0.1-2,0.3-2.8,0.4c-0.4,0.1-0.6,0.4-0.6,0.8c0.1,0.3,0.4,0.6,0.7,0.6c0,0,0.1,0,0.1,0
			c0.8-0.1,1.7-0.3,2.7-0.4c0.4,0,0.7-0.4,0.6-0.8C282.2,590,281.8,589.7,281.4,589.8z"/>
		<path class="st0" d="M328.8,589.1c0.9,0,1.9,0.1,2.8,0.1c0,0,0,0,0,0c0.4,0,0.7-0.3,0.7-0.7c0-0.4-0.3-0.7-0.7-0.7
			c-0.9,0-1.8-0.1-2.8-0.1c-0.4,0-0.7,0.3-0.7,0.7C328.1,588.8,328.4,589.1,328.8,589.1z"/>
		<path class="st0" d="M334.4,589.4c1,0.1,1.9,0.2,2.8,0.2c0,0,0,0,0.1,0c0.4,0,0.7-0.3,0.7-0.6c0-0.4-0.2-0.7-0.6-0.8
			c-0.9-0.1-1.8-0.2-2.8-0.3c-0.4,0-0.7,0.3-0.7,0.6C333.7,589,334,589.4,334.4,589.4z"/>
		<path class="st0" d="M303.7,588c-0.9,0-1.9,0.1-2.8,0.1c-0.4,0-0.7,0.3-0.7,0.7c0,0.4,0.3,0.7,0.7,0.7c0,0,0,0,0,0
			c0.9-0.1,1.8-0.1,2.8-0.1c0.4,0,0.7-0.3,0.7-0.7C304.4,588.3,304.1,588,303.7,588z"/>
		<path class="st0" d="M326.1,587.6c-0.9,0-1.9,0-2.8,0c-0.4,0-0.7,0.3-0.7,0.7c0,0.4,0.3,0.7,0.7,0.7c0.9,0,1.9,0,2.8,0
			c0,0,0,0,0,0c0.4,0,0.7-0.3,0.7-0.7C326.8,588,326.5,587.6,326.1,587.6z"/>
		<path class="st0" d="M309.3,587.8l-2.8,0.1c-0.4,0-0.7,0.3-0.7,0.7c0,0.4,0.3,0.7,0.7,0.7c0,0,0,0,0,0l2.8-0.1
			c0.4,0,0.7-0.3,0.7-0.7C310,588.1,309.6,587.8,309.3,587.8z"/>
		<path class="st0" d="M314.9,587.6c-0.9,0-1.9,0-2.8,0.1c-0.4,0-0.7,0.3-0.7,0.7c0,0.4,0.3,0.7,0.7,0.7c0,0,0,0,0,0
			c0.9,0,1.9,0,2.8-0.1c0.4,0,0.7-0.3,0.7-0.7C315.6,587.9,315.3,587.7,314.9,587.6z"/>
		<path class="st0" d="M292.6,588.7c-1,0.1-1.9,0.2-2.8,0.2c-0.4,0-0.7,0.4-0.6,0.8c0,0.4,0.3,0.6,0.7,0.6c0,0,0,0,0.1,0
			c0.9-0.1,1.8-0.2,2.8-0.2c0.4,0,0.7-0.4,0.6-0.7C293.3,589,292.9,588.7,292.6,588.7z"/>
		<path class="st0" d="M320.5,587.6c-0.9,0-1.9,0-2.8,0c-0.4,0-0.7,0.3-0.7,0.7c0,0.4,0.3,0.7,0.7,0.7c0,0,0,0,0,0
			c0.9,0,1.9,0,2.8,0c0.4,0,0.7-0.3,0.7-0.7S320.9,587.6,320.5,587.6z"/>
		<path class="st0" d="M298.2,588.3l-2.8,0.2c-0.4,0-0.7,0.4-0.6,0.7c0,0.4,0.3,0.7,0.7,0.7c0,0,0,0,0,0l2.8-0.2
			c0.4,0,0.7-0.4,0.7-0.7C298.9,588.6,298.5,588.3,298.2,588.3z"/>
		<path class="st0" d="M198.7,623.2L198.7,623.2l-32.7,4.3c-11.6-0.7-23.1-1.6-34.7-2.4c-5.8-0.5-11.6-1-17.3-1.6
			c-2.9-0.3-5.8-0.6-8.6-1c-1.4-0.2-2.9-0.4-4.3-0.7c-1.4-0.3-2.9-0.5-4.2-1c1.4,0.5,2.8,0.8,4.2,1.1c1.4,0.3,2.9,0.5,4.3,0.8
			c2.9,0.5,5.7,0.9,8.6,1.2c5.8,0.7,11.5,1.3,17.3,1.8c11.6,1.1,23.1,1.9,34.7,2.7c0,0,0.1,0,0.1,0l32.7-4.4l21.3-0.5l21.3-0.6
			l-21.3,0.1L198.7,623.2z"/>
		<path class="st0" d="M182.6,581.5l-0.2-0.2c-0.3-0.2-0.7-0.2-1,0.1c-0.2,0.3-0.2,0.7,0.1,1l0.2,0.2c0.6,0.5,1.2,1,2,1.6
			c0.1,0.1,0.3,0.1,0.4,0.1c0.2,0,0.4-0.1,0.6-0.3c0.2-0.3,0.2-0.7-0.1-1C183.8,582.5,183.2,582,182.6,581.5z"/>
		<path class="st0" d="M175,577.2c-0.9-0.4-1.8-0.7-2.6-1c-0.4-0.1-0.8,0.1-0.9,0.4c-0.1,0.4,0.1,0.8,0.4,0.9c0.8,0.3,1.7,0.6,2.6,1
			c0.1,0,0.2,0.1,0.3,0.1c0.3,0,0.5-0.2,0.6-0.4C175.5,577.7,175.3,577.3,175,577.2z"/>
		<path class="st0" d="M236.1,586.4C236.1,586.4,236.1,586.4,236.1,586.4l2.9-0.3c0.4,0,0.7-0.4,0.6-0.8c0-0.4-0.4-0.7-0.8-0.6
			L236,585c-0.4,0-0.7,0.4-0.6,0.8C235.4,586.2,235.7,586.4,236.1,586.4z"/>
		<path class="st0" d="M180.1,579.6c-0.8-0.5-1.7-0.9-2.5-1.3c-0.3-0.2-0.8,0-0.9,0.3c-0.2,0.3,0,0.8,0.3,0.9
			c0.8,0.4,1.6,0.8,2.4,1.3c0.1,0.1,0.2,0.1,0.3,0.1c0.2,0,0.5-0.1,0.6-0.4C180.5,580.2,180.4,579.8,180.1,579.6z"/>
		<path class="st0" d="M205.4,587.6c-0.9,0-1.7,0.1-2.5,0.1l-0.3,0c-0.4,0-0.7,0.3-0.7,0.7c0,0.4,0.3,0.7,0.7,0.7c0,0,0,0,0,0l0.3,0
			c0.8,0,1.6,0,2.5-0.1c0.4,0,0.7-0.3,0.7-0.7C206.1,587.9,205.8,587.6,205.4,587.6z"/>
		<path class="st0" d="M230.5,587C230.5,587,230.5,587,230.5,587l2.8-0.3c0.4,0,0.7-0.4,0.6-0.8c0-0.4-0.4-0.6-0.8-0.6l-2.8,0.3
			c-0.4,0-0.7,0.4-0.6,0.8C229.8,586.7,230.1,587,230.5,587z"/>
		<path class="st0" d="M169.7,575.3c-1-0.3-1.9-0.5-2.7-0.7c-0.4-0.1-0.8,0.1-0.8,0.5c-0.1,0.4,0.1,0.8,0.5,0.8
			c0.8,0.2,1.7,0.4,2.7,0.7c0.1,0,0.1,0,0.2,0c0.3,0,0.6-0.2,0.7-0.5C170.2,575.8,170,575.4,169.7,575.3z"/>
		<path class="st0" d="M194.5,587.1c-0.9-0.2-1.8-0.4-2.7-0.6c-0.4-0.1-0.8,0.1-0.9,0.5c-0.1,0.4,0.1,0.8,0.5,0.9
			c0.9,0.2,1.8,0.4,2.8,0.6c0,0,0.1,0,0.1,0c0.3,0,0.6-0.2,0.7-0.6C195.1,587.5,194.8,587.2,194.5,587.1z"/>
		<path class="st0" d="M199.9,587.7c-1,0-1.9-0.1-2.7-0.2c-0.4,0-0.7,0.2-0.8,0.6c0,0.4,0.2,0.7,0.6,0.8c0.9,0.1,1.8,0.2,2.8,0.2
			c0,0,0,0,0,0c0.4,0,0.7-0.3,0.7-0.7C200.6,588,200.3,587.7,199.9,587.7z"/>
		<path class="st0" d="M227.6,585.9l-2.8,0.3l0,0c-0.4,0-0.7,0.4-0.6,0.8c0,0.4,0.3,0.6,0.7,0.6c0,0,0,0,0.1,0l2.8-0.3
			c0.4,0,0.7-0.4,0.6-0.8C228.4,586.1,228,585.8,227.6,585.9z"/>
		<path class="st0" d="M211,587.3c-1,0.1-1.9,0.1-2.8,0.2c-0.4,0-0.7,0.4-0.7,0.7c0,0.4,0.3,0.7,0.7,0.7c0,0,0,0,0,0
			c0.9-0.1,1.8-0.1,2.8-0.2c0.4,0,0.7-0.4,0.6-0.7C211.7,587.6,211.4,587.3,211,587.3z"/>
		<path class="st0" d="M222.1,586.4l-2.8,0.2c-0.4,0-0.7,0.4-0.6,0.8c0,0.4,0.3,0.6,0.7,0.6c0,0,0,0,0.1,0l2.8-0.2
			c0.4,0,0.7-0.4,0.6-0.8C222.8,586.6,222.5,586.4,222.1,586.4z"/>
		<path class="st0" d="M216.5,586.9l-2.8,0.2c-0.4,0-0.7,0.4-0.6,0.7c0,0.4,0.3,0.6,0.7,0.6c0,0,0,0,0.1,0l2.8-0.2
			c0.4,0,0.7-0.4,0.6-0.8C217.3,587.1,216.9,586.8,216.5,586.9z"/>
		<path class="st0" d="M189.2,585.7c-0.8-0.3-1.6-0.7-2.4-1.2c-0.3-0.2-0.8-0.1-0.9,0.3c-0.2,0.3-0.1,0.8,0.3,0.9
			c0.8,0.5,1.7,0.9,2.6,1.2c0.1,0,0.2,0.1,0.3,0.1c0.3,0,0.5-0.2,0.6-0.4C189.8,586.2,189.6,585.8,189.2,585.7z"/>
		<path class="st0" d="M364.7,141.1c-0.7-11.2-8.2-75.6-10.5-87c-0.2-1.1-0.9-2.1-1.9-2.6c-0.1-0.1-0.2-0.1-0.3-0.1
			c-0.4-2.7-0.7-6-0.9-9.5c-0.2-1.8-0.3-3.6-0.5-5.3c-0.1-0.5-0.5-1-1.1-0.9c-0.5,0.1-0.9,0.5-0.9,1.1c0.2,1.8,0.3,3.5,0.5,5.3
			c0.3,3.2,0.5,6.3,0.9,9c-0.3,0-0.6,0.1-0.9,0.2c-9.2,3-27.2,5.2-43.9,5.2l-0.8,0c-1.1,0-2.3,0-3.4,0c-8.1,0-15.9,0.1-24.1,0.2
			c-9.1,0.1-18.6,0.3-29.5,0.3c-21.6,0-43.6-0.6-69.1-1.7c0.3-2.7,1-12.4,1.1-17.9c0-0.5-0.4-1-1-1c-0.5,0-1,0.4-1,1
			c-0.2,5.9-0.9,16.2-1.1,18c-1.5,0.4-2.8,1.7-3,3.3c0,0.2-2.3,17.1-3.4,23.2c-0.4,2.3-1.5,8.1-2.7,14.8
			c-2.2,11.5-4.8,25.9-5.5,30.2c-1,6.6-28.8,199.5-30,207.7c0,0.1,0,0.2,0,0.4c-0.1,1.4-1.7,33.4,1.6,45.6
			c2,7.4,25.7,171.3,25.2,203.1c-7.1,4.8-24.4,12-30.9,14.4c-1.7,0.6-4.5,1.2-7.5,1.9c-10.7,2.4-25.4,5.7-27,15.8
			c-0.8,3.7-1.9,14.2,0.4,17.3c0.2,0.3,0.4,0.5,0.7,0.8c1.5,1.6,5.8,3.9,33.5,6.8c16.1,1.7,32.5,2.7,38.5,2.7
			c12.1,0,30.9-3.3,33.5-3.8l41.5-2.1c1.6-0.1,3-1.1,3.6-2.7c1.3-3.6,1.4-9.9,1.2-21.1c-0.1-7.6-0.5-11.8-0.8-14.3
			c1.5-0.8,2.4-2.4,2.1-4.1l-12.6-84l-0.9-17.9c0-0.2,0-0.3,0-0.5c-5.1-31.2-12.8-78.8-13-82c-0.7-10.1-4.5-25.6-5.3-28.9l1.1-16.8
			l10.8-23.5c0.1-0.1,0.1-0.3,0.2-0.4l30.9-96.2c6.5,35.8,14.2,79.2,14.4,83.7c-0.4,4.1,0.2,15.8,1,22.9c0.5,4.7,1.5,14.3,2.4,23.5
			c1.3,13,2.1,20.9,2.4,22.6c0.2,1.4,0,2.2-0.9,5.5c-0.3,1-0.7,2.2-1.1,3.7c-1.9,6.8,2.4,19.7,3.7,23.1l2.7,20.2l-3.9,31.2
			c0,0.2,0,0.5,0,0.7l1.1,17.5c-1,9.2-2.5,24-2.8,25.5c-0.2,0.9-0.7,4.1-1.5,9.3c-0.8,4.9-1.9,12.3-2.2,13.3
			c-0.2,0.7-0.6,2.1,1,53.7c0.1,2.1,1.8,3.9,4,3.9h2.6c-0.8,5.6-2.2,15.6-3.7,23.5c-0.1,0.3-0.1,0.6-0.1,0.9c0,1.2,0.1,2.4,0.1,3.6
			c0,2.4,0.1,4.8,0.2,6.6c0.4,4.2,2,6.4,4.9,6.4h0c2.2,0.2,6.5,0.3,13.6,0.3c9.3,0,21.8-0.2,31.8-0.3c7.4-0.1,13.7-0.2,17.2-0.2
			c0.6,0,1.1,0,1.5,0h0c1.5,0,2.8-0.8,3.5-2.1c2.6-4.7,1.9-11.4,1.5-14.9c0-0.5-0.1-0.9-0.1-1.2c0-0.2-0.1-0.4-0.1-0.7
			c-2.2-8.9-7.2-19.2-9.1-22.9l3.5,0.6c0.2,0,0.4,0,0.6,0c0.9,0,1.8-0.3,2.5-0.9c0.9-0.7,1.4-1.8,1.4-2.9c1-30.1,2.5-75.9,2.9-79.2
			c0.2-1.2,0.1-2.9-0.2-6.8c-0.3-4.8-0.9-12.9,0-16c1.9-6.1,6.1-33.5,6-38.6c-0.1-2.9,1.5-37.9,2.6-61.1c0.6-14.2,1.1-25.3,1.2-28.1
			c0.1-3.6,0.3-8.3,0.5-13.4c0.5-11.1,1-23.6,1.1-32.8c0.2-13.5,1.2-100.4,1.2-100.4C365.5,221.7,365.8,157.6,364.7,141.1z
			 M358.3,117.1c-0.1,0-0.1,0-0.2,0c-16,1.9-27.3-0.2-34.6-6.2c-6.5-5.4-10-13.9-11-26.9c14.5-0.7,31.8-3,41.2-5.8
			C355.2,90.3,356.9,104.8,358.3,117.1z M350.3,55c0.1,0.6,0.3,1.4,0.4,2.3c-0.5,0.2-1.1,0.3-1.6,0.5c-0.4,0.1-0.6,0.5-0.5,0.9
			c0.1,0.3,0.4,0.5,0.7,0.5c0.1,0,0.1,0,0.2,0c0.5-0.1,1-0.3,1.5-0.4c0.6,3.6,1.3,8.8,2.1,14.9c-0.5,0.1-0.9,0.3-1.4,0.4
			c-0.4,0.1-0.6,0.5-0.5,0.9c0.1,0.3,0.4,0.5,0.7,0.5c0.1,0,0.1,0,0.2,0c0.4-0.1,0.9-0.2,1.3-0.4c0.1,0.6,0.2,1.2,0.2,1.9
			c0,0-0.1,0-0.1,0c-9.8,2.9-28.4,5.4-43.3,5.8l-1-22.3C324.4,60,341,58.1,350.3,55z M307.5,58.2l1.4,30.1l-4.7,0.3l-1.4-30.1
			L307.5,58.2z M244.7,60.8c0.8,0,1.6,0,2.4,0c0,0.5,0,1.1,0,1.8c0,0.4,0.3,0.7,0.7,0.7c0,0,0,0,0,0c0.4,0,0.7-0.3,0.7-0.7
			c0-0.7,0-1.2,0-1.8c20.3,0,35.8-0.5,52.5-0.5c0.2,0,0.4,0,0.6,0l1,22.4c-7.4,0-14.8,0-22.6,0.1c-10,0.1-20.6,0.1-32.4,0.1l0-0.8
			c0-0.4-0.3-0.7-0.7-0.7c-0.4-0.1-0.7,0.3-0.7,0.7l0,0.8c-0.7,0-1.5,0-2.2,0c0-0.8,0-1.5,0.1-2.3c0.1-0.1,0.1-0.2,0.1-0.4
			c0-0.1,0-0.3-0.1-0.4c0-1.1,0.1-2.2,0.1-3.2c0.1-3.5,0.2-6.5,0.3-9c0-1.2,0.1-2.3,0.1-3.3l2,0h0c0.4,0,0.7-0.3,0.7-0.7
			c0-0.4-0.3-0.7-0.7-0.7l-1.9,0c0-0.4,0-0.8,0-1.1C244.7,61.4,244.7,61.1,244.7,60.8z M205.6,60.2c15.1,0.5,27.8,0.6,39,0.7
			c0,0.3,0,0.6,0,1c0,0.3,0,0.7,0,1.1l-0.8,0h0c-0.4,0-0.7,0.3-0.7,0.7c0,0.4,0.3,0.7,0.7,0.7l0.8,0c0,1-0.1,2.1-0.2,3.3
			c-0.1,2.5-0.3,5.5-0.5,9c0,0.9-0.1,1.9-0.1,2.9c-0.1,0-0.1,0-0.2,0l-2.8,0c-0.4-0.1-0.7,0.3-0.7,0.7c0,0.4,0.3,0.7,0.7,0.7l2.8,0
			h0c0.1,0,0.1,0,0.2,0c0,0.7-0.1,1.3-0.1,2c-11.5-0.1-24.3-0.3-38.9-0.7L205.6,60.2z M199.7,57.7l4.7,0.2L203,88.1l-4.7-0.2
			L199.7,57.7z M174.3,79l2.3,0.1c0,0,0,0,0,0c0.4,0,0.7-0.3,0.7-0.7c0-0.4-0.3-0.7-0.7-0.7l-2.2-0.1c0.8-4.9,1.7-11.3,2.2-15.2
			c0.1,0,0.1,0,0.2,0.1l2.8,0.1c0,0,0,0,0,0c0.4,0,0.7-0.3,0.7-0.7c0-0.4-0.3-0.7-0.7-0.7l-2.8-0.1c0,0-0.1,0-0.1,0
			c0.2-1.3,0.3-2.1,0.3-2.1c7.5,0.3,14.4,0.6,21,0.9l-1,22c-7.2-0.2-14.9-0.6-23.2-0.9C174.1,80.4,174.2,79.7,174.3,79z M173.7,82.5
			c0,0,0-0.1,0-0.1c0,0,0.1,0,0.1,0c7.3,0.3,14.1,0.6,20.6,0.8c-0.7,9.5-2.9,16.8-6.7,22l1.9-14.4c0-0.2,0-0.4-0.2-0.5
			c-0.1-0.1-0.3-0.2-0.5-0.3l-16.5-1.1C173.1,86,173.5,83.7,173.7,82.5z M171,97.2l2.4,0.1c0,0,0,0,0,0c0.4,0,0.7-0.3,0.7-0.7
			c0-0.4-0.3-0.7-0.7-0.7l-2.2-0.1c0.4-2,0.7-3.9,1-5.6l11.9,0.8l-0.2,2.1c0,0.4,0.2,0.7,0.6,0.8c0,0,0.1,0,0.1,0
			c0.4,0,0.7-0.3,0.7-0.6l0.3-2.2l2.6,0.2l-0.7,5.3l-0.1,0c-0.4,0-0.7,0.3-0.7,0.7c0,0.4,0.3,0.7,0.7,0.7l0,0l-1.2,9.2
			c-0.8,0.9-1.7,1.7-2.6,2.4l0.3-2.5c0-0.4-0.2-0.7-0.6-0.8c-0.4,0-0.7,0.2-0.8,0.6l-0.3,2.8c0,0.3,0.1,0.5,0.3,0.7
			c-3.9,2.7-8.8,3.9-14.5,3.7C168.8,108.8,170,102.7,171,97.2z M128.7,601.5c5.3-1.9,24.4-9.6,32.2-15.1c4,1.3,7.1,3.4,9.9,5.7
			c0,0.1-0.1,0.1-0.1,0.2c-0.6,1-1.4,2.5-2.1,4.5c-0.3,1-0.6,2-0.8,3.2c-0.2,1.2-0.3,2.3-0.3,3.6c0,0.7,0.4,1.4,0.9,1.9
			c0.5,0.5,1.1,0.8,1.7,1.1c1.2,0.5,2.5,0.8,3.7,1.1c2.5,0.6,5,1.1,7.3,1.8c2.3,0.7,4.3,1.6,5.9,2.7c1.6,1.1,2.6,2.3,3.3,3.2
			c0.6,0.9,0.9,1.5,0.9,1.5s-0.2-0.6-0.8-1.5c-0.6-0.9-1.6-2.2-3.2-3.3c-1.5-1.1-3.6-2.1-5.9-2.9c-2.3-0.8-4.8-1.4-7.2-2
			c-1.2-0.3-2.4-0.7-3.5-1.2c-1.1-0.5-2-1.3-2-2.3c0-0.5,0.2-1.1,0.4-1.6c0.2-0.5,0.4-1,0.6-1.5c0.4-1,0.9-1.8,1.4-2.6
			c1-1.5,2-2.6,2.7-3.4c3.5,3,6.9,5.8,11.4,6.7c7,1.4,12.4,2.1,16.3,2.1c0.6,0,1.2,0,1.8-0.1c10.2-0.7,37.1-3.1,37.4-3.1
			c0.2,0,0.3-0.1,0.4-0.1c0.3,2.4,0.6,6.4,0.7,13.6c0,1.4,0,2.8,0,4.1c-0.1-0.1-0.3-0.2-0.4-0.2c0,0,0,0,0,0l-42.7,0.8l-32.6,4.4
			c-0.6,0-59.3-3.6-69-7.1c0,0-0.1,0-0.1,0C99.2,606.1,121.2,604.2,128.7,601.5z M240.6,633.2l-41.7,2.1c0,0-20.6,3.8-33,3.8
			c-12.5,0-66-4.4-69.3-8.5c-0.9-0.1-1.1-8.1,0-13.7c10.1,3.5,66.9,7,69.4,7.2l32.6-4.4l42.6-0.8c0.2,0,0.3-0.1,0.4-0.2
			C241.7,625.7,241.5,630.7,240.6,633.2z M223.4,339.8l-10.2,22.2c0,0.1-0.1,0.1-0.1,0.2c-0.9,1.6-2.2,3.7-3.5,5.7
			c-1.3,2.1-2.7,4.1-3.8,5.6c-0.5,0.7-1,1.3-1.4,1.7c-0.4,0.4-0.6,0.6-0.6,0.6s0.2-0.2,0.6-0.6c0.4-0.4,0.9-0.9,1.5-1.6
			c1.2-1.4,2.7-3.3,4.2-5.3c0.7-1,1.4-1.9,2.1-2.8l-1.1,16.7c0,0,4.6,17.9,5.3,28.8c0.3,4.6,13.1,82.4,13.1,82.4l0.4,8.9
			c0,0.7,0,1.5-0.1,2.5c-0.1,1.8-0.3,3.9-0.6,6.1c-0.2,2.2-0.5,4.6-0.6,7c-0.2,4.8-0.1,9.6-0.4,13.2c-0.1,1.8-0.3,3.3-0.6,4.3
			c-0.2,1-0.4,1.6-0.4,1.6c0,0,0,0,0,0c0,0,0,0,0,0c0,0,0.2-0.6,0.4-1.6c0.3-1,0.5-2.5,0.7-4.3c0.4-3.6,0.5-8.4,0.9-13.2
			c0.2-2.4,0.6-4.7,0.9-7c0-0.2,0.1-0.5,0.1-0.7l0.1,1.2l12.6,84.2l-2.4,0.5c-0.2,0-0.3-0.1-0.5-0.1c-0.3,0-27.2,2.4-37.3,3.1
			c-3.6,0.2-9.3-0.4-17.1-1.9c-3.5-0.7-6.4-3.1-9.7-5.9c-3.7-3.1-7.8-6.6-13.8-8.6c0-2.1-0.1-4.7-0.3-7.7c0.5,0.1,1.1,0.2,1.9,0.3
			c0,0,0.1,0,0.1,0c0.3,0,0.6-0.2,0.7-0.6c0.1-0.4-0.2-0.7-0.5-0.8c-1-0.2-1.8-0.3-2.3-0.4c-2.5-40.8-17.9-151.6-23.3-184.9
			c0.2,0.5,0.4,1,0.7,1.5c0.5,1.1,1.1,2.1,1.8,3.2c0.7,1.1,1.6,1.9,2.4,2.8c3.2,3.7,6.1,7.8,7.7,11.1c0.4,0.8,0.8,1.6,1,2.3
			c0.3,0.7,0.5,1.3,0.6,1.8c0.2,0.5,0.2,0.9,0.3,1.2c0.1,0.3,0.1,0.4,0.1,0.4s0-0.2-0.1-0.4c-0.1-0.3-0.1-0.7-0.2-1.2
			c-0.1-0.5-0.3-1.2-0.5-1.9c-0.3-0.7-0.6-1.5-1-2.3c-1.5-3.4-4.3-7.6-7.4-11.4c-0.8-1-1.7-1.9-2.3-2.8c-0.6-1-1.1-2.1-1.6-3.1
			c-0.9-2.1-1.6-4.1-2.1-5.9c-0.1-0.3-0.2-0.7-0.3-1c-0.3-1.7-0.5-2.9-0.7-3.5c-3.1-11.7-1.4-44.4-1.4-44.4s29-201,30-207.6
			c0.1-0.9,0.4-2.2,0.7-3.9c0,0,0,0,0,0c0,0,0.1,0,0.1,0c0.3,0,0.6-0.2,0.7-0.6c0.1-0.4-0.2-0.7-0.6-0.8c0,0,0,0,0,0
			c0.3-1.9,0.7-4.1,1.2-6.4c0.5,0,1,0,1.5,0c16.1,0,25.3-11.2,26.8-32.4c0.4,0,0.8,0,1.2,0l-0.2,5.2c0,0.4,0.3,0.7,0.7,0.7l6.1,0.3
			c0,0,0,0,0,0c0.2,0,0.3-0.1,0.5-0.2c0.1-0.1,0.2-0.3,0.2-0.5l0.2-5.3c14.7,0.4,27.4,0.7,38.9,0.7c-0.1,1.3-0.2,2.6-0.3,4
			c-0.7,8.5-1.6,18.4-2.5,29.1c-0.4,5.3-0.9,10.8-1.4,16.4c-0.5,5.6-0.9,11.3-1.3,17c-0.4,5.7-0.7,11.4-1,17
			c-0.1,2.8-0.2,5.6-0.3,8.4c0,1.5,0.4,2.7,0.7,3.9c-4.9,0-9.8,0-14.7,0.3c-1.9,0.1-3.8,0.2-5.7,0.4c-0.5,0.1-1,0.1-1.4,0.2
			c-0.4,0.1-1.1,0.2-1.5,0.4c-1,0.4-1.7,0.8-2.6,1.3c-1.7,0.8-3.3,1.8-5,2.7c-1.7,0.9-3.2,1.9-4.9,2.9c-1.6,1-3.2,2-4.7,3.1
			c-1.6,1.1-3.1,2.1-4.6,3.3c-1.5,1.1-3,2.3-4.5,3.4c-1.5,1.1-2.9,2.4-4.4,3.5c1.5-1.1,3-2.2,4.6-3.3c1.5-1.1,3.1-2.1,4.7-3.2
			c1.6-1.1,3.1-2.1,4.7-3.1c1.6-1,3.2-2,4.8-2.9c3.3-1.9,6.5-3.7,9.9-5.3c0.8-0.4,1.7-0.9,2.5-1.2c0.5-0.2,0.8-0.2,1.3-0.3
			c0.4-0.1,0.9-0.1,1.4-0.2c1.8-0.2,3.7-0.3,5.6-0.4c5-0.2,10-0.2,15-0.2c0.3,1,0.6,2,1,2.9c0.5,1.2,0.9,2.4,1.4,3.6
			c-2.8,1.1-5.5,2.3-7.9,4c-1.7,1.2-3.3,2.5-4.6,4.1c-1.3,1.6-2.3,3.5-3,5.4c0.8-1.9,1.8-3.7,3.2-5.3c1.4-1.5,3-2.8,4.7-3.9
			c1.7-1.1,3.6-2,5.5-2.7c0.7-0.3,1.5-0.6,2.3-0.9l-7.2,26.1c0,0.1-0.2,0.5-0.4,1c-0.2,0.7-0.6,1.7-1.1,3c-0.6,1.3-1.3,2.8-2.2,4.5
			c-1,1.7-2.1,3.5-3.7,5.4c-3,3.8-7.2,7.5-12.2,10.9c-2.5,1.7-5.2,3.4-7.8,5.1c-2.7,1.7-5.4,3.6-7.8,5.7c-2.5,2.1-4.5,4.7-6.7,7
			c-2.2,2.3-4.1,4.9-6,7.2c-1.9,2.4-3.6,4.8-5.3,7c-1.6,2.3-3,4.5-4.4,6.5c-1.3,2-2.3,4-3.3,5.8c-1,1.7-1.8,3.2-2.6,4.4
			c-0.8,1.2-1.5,2-2,2.6c-0.3,0.3-0.5,0.5-0.6,0.6c-0.1,0.1-0.2,0.2-0.2,0.2s0.1-0.1,0.2-0.2c0.1-0.1,0.4-0.3,0.6-0.6
			c0.5-0.5,1.3-1.4,2.1-2.6c0.8-1.2,1.7-2.6,2.7-4.4c1-1.7,2-3.7,3.4-5.7c1.4-2,2.9-4.1,4.5-6.4c1.7-2.2,3.5-4.5,5.4-6.9
			c2-2.3,3.9-4.8,6.1-7.1c2.2-2.3,4.3-4.8,6.8-6.9c2.5-2.1,5.2-3.9,7.8-5.6c2.7-1.7,5.4-3.3,7.9-5c5.1-3.3,9.5-7.1,12.6-11
			c1.6-1.9,2.8-3.8,3.8-5.5c0.1-0.1,0.1-0.3,0.2-0.4l-2.3,8.6l-3.1,11.2c-1.1,3.7-1.9,7.5-2.8,11.3l-5.3,22.5l-21.2,90.1
			c0,0,0,0.1,0,0.1l0,13.4l0,0l7.2,54.2l3.6,27.1l1.8,13.6l0.9,6.8c0.3,2.2,0.5,4.6,1.4,6.7c0.9,2.1,2,4.1,3.2,6.1
			c1.2,2,2.5,3.9,3.1,6c0.6,4.5,0.7,9.1,0.5,13.6c-0.1,2.3-0.6,4.5-0.3,6.8c0.2,2.3,0.6,4.5,0.9,6.8c0.7,4.5,1.5,9,2.2,13.5
			c3.2,17.9,6.6,35.8,10.2,53.7c-3.5-17.9-6.9-35.8-10-53.7c-0.8-4.5-1.5-9-2.2-13.5c-0.3-2.3-0.7-4.5-0.9-6.8
			c-0.4-2.3,0.2-4.5,0.3-6.8c0.2-4.6,0.1-9.1-0.5-13.7c-0.6-2.2-1.9-4.2-3.1-6.1c-1.2-1.9-2.3-3.9-3.2-6c-0.9-2.1-1.1-4.4-1.3-6.6
			l-0.9-6.8l-1.7-13.6l-3.5-27.1l-7-54.2l0-13.4l21.5-90l5.4-22.5c0.9-3.8,1.7-7.5,2.8-11.2l3.1-11.1l4.5-16c0-0.1,0.1-0.1,0.1-0.2
			c0.3-0.7,0.4-1.1,0.4-1.1c0,0,0,0,0,0c0-0.1,0-0.3,0-0.4l6.8-24.4c1.2,2.8,2.5,5.6,3.8,8.2c0.6,1.1,1.1,2.2,1.7,3.3
			c0.8,1.3,1,1.8,1.5,3c0.9,2.1,1.6,4.2,2.3,6.2c2.8,8,4.6,14.9,5.6,19.7c0.3,1.6,0.6,3,0.7,4.1L223.4,339.8z M240.4,181.5
			c1.7,0,3.4,0,5.1,0c3.8,0.1,7.5,0.1,11.3,0.3c2.2,0.1,4.4,0.2,6.5,0.3c-2.5,0.5-5,1-7.5,1.5c-4,0.9-8.1,1.9-12,3.2
			c-0.3,0.1-0.7,0.2-1,0.4c-0.5-1.2-1-2.4-1.5-3.6C240.9,182.8,240.6,182.1,240.4,181.5z M296,642.3c-5.3,0-9.7-0.1-12.2-0.2
			c7.6-3.5,29.5-6.2,41.5-6.3c4-0.1,19.1,1.3,20.4,6c-0.2,0-0.5,0-0.8,0C336.6,641.8,312,642.3,296,642.3z M346.8,640.9
			c-2.7-6.2-21.2-6.5-21.6-6.5c0,0,0,0,0,0c-12.6,0.2-36.2,3-43.2,7c-0.1,0-0.2,0.1-0.2,0.2c-0.5-1-0.6-3.8-0.7-6.9
			c0.1-0.1,0.2-0.1,0.3-0.2c0.5-0.2,1.1-0.6,1.9-1c0.9-0.4,1.9-0.8,3.1-1.2c1.2-0.5,2.6-0.8,4.2-1.3c1.5-0.4,3.2-0.8,5-1.1
			c1.8-0.3,3.7-0.6,5.7-0.9c4-0.6,8.2-0.9,12.5-1.1c2.1-0.1,4.3-0.2,6.4-0.2c2.1,0,4.2,0.1,6.2,0.2c4,0.1,7.7,0.4,10.9,0.9
			c1.6,0.3,3,0.6,4.3,0.9c1.3,0.3,2.3,0.8,3.1,1.2c0.8,0.4,1.5,0.8,1.8,1.2c0.4,0.3,0.6,0.5,0.6,0.5s-0.2-0.2-0.6-0.5
			c-0.3-0.4-1-0.8-1.8-1.3c-1.6-0.9-4.2-1.9-7.4-2.5c-3.2-0.6-6.9-1-10.9-1.2c-2-0.1-4.1-0.2-6.2-0.2c-2.1,0-4.3,0-6.4,0.1
			c-4.3,0.2-8.6,0.6-12.5,1.2c-2,0.3-3.9,0.7-5.7,1c-1.8,0.4-3.5,0.8-5,1.3c-1.5,0.5-2.9,0.9-4.1,1.5c-1.2,0.5-2.2,1-3.1,1.4
			c-0.9,0.4-1.4,0.8-1.9,1.1c-0.1,0.1-0.2,0.1-0.3,0.2c0-1.1,0-2.2-0.1-3.3c0,0,0.1,0,0.1,0c10-6.5,32.3-8,44-7.4
			c4.8,0.3,17.7,1.7,22.2,5.4C347.8,632.2,348.3,637.3,346.8,640.9z M347.2,627.4c-6.7-4.1-21.7-4.9-21.9-4.9
			c-11.6-0.6-33.6,0.8-44.2,7.2c0-0.1,0-0.3,0-0.4c1.7-8.5,3.1-19,3.9-24.5c1.3-0.2,3-0.4,5-0.6c0,0.4-0.1,1-0.2,1.6
			c-0.1,0.8-0.2,1.8-0.5,2.8c-0.2,1-0.5,2.1-0.8,3.1c-0.2,0.5-0.4,1-0.6,1.5c-0.2,0.5-0.5,1-0.7,1.4c-0.3,0.4-0.5,0.9-0.8,1.3
			c-0.3,0.4-0.6,0.7-0.8,1c-0.2,0.3-0.5,0.6-0.8,0.8c-0.3,0.2-0.5,0.4-0.7,0.6c-0.4,0.3-0.6,0.5-0.6,0.5s0.2-0.2,0.7-0.4
			c0.2-0.1,0.5-0.3,0.8-0.5c0.3-0.2,0.6-0.4,0.9-0.7c0.3-0.3,0.7-0.6,1-1c0.4-0.3,0.7-0.8,1-1.2c0.3-0.4,0.7-0.9,1-1.4
			c0.3-0.5,0.6-1,0.9-1.5c0.5-1.1,1-2.1,1.4-3.1c0.4-1,0.7-2,0.9-2.8c0.3-0.8,0.4-1.5,0.5-2c0-0.1,0-0.2,0.1-0.2
			c10.5-0.8,26.6-1.4,37-1.3c0.2,0.4,0.5,0.9,1,1.6c0.3,0.4,0.5,0.8,0.8,1.2c0.3,0.4,0.7,0.8,1,1.2c0.3,0.4,0.7,0.8,1.1,1.2
			c0.4,0.4,0.8,0.8,1.2,1.2c0.8,0.8,1.7,1.5,2.5,2.2c0.8,0.7,1.6,1.3,2.3,1.8c1.4,1,2.3,1.6,2.3,1.6s-0.8-0.8-2-2
			c-0.6-0.6-1.3-1.3-2-2.1c-0.7-0.8-1.5-1.6-2.1-2.5c-0.4-0.4-0.7-0.9-1-1.3c-0.3-0.4-0.6-0.9-0.9-1.3c-0.3-0.4-0.5-0.9-0.8-1.3
			c-0.2-0.4-0.4-0.8-0.6-1.1c-0.1-0.1-0.2-0.3-0.2-0.4c1.9,0.1,3.6,0.1,4.8,0.3l0.6,1.4C337.8,604.5,344.5,617,347.2,627.4z
			 M358.7,370.9c-0.3,7.8-3.9,84.8-3.8,89.5c0.1,3.3-2,17.5-3.8,27.7c-0.1,0.2-0.2,0.4-0.3,0.7c-0.6,1.2-1.6,2.9-3,4.8
			c-1.4,1.9-3.2,4-5.2,6.3c-1,1.1-2,2.3-3,3.5c-1,1.2-2.1,2.4-2.9,3.9c-0.4,0.8-0.6,1.5-0.9,2.3c-0.2,0.8-0.5,1.5-0.7,2.3
			c-0.5,1.5-0.9,3-1.4,4.4c-0.9,2.9-1.8,5.5-2.7,7.7c-0.9,2.2-1.8,4-2.5,5.2c-0.4,0.6-0.7,1-1,1.3c-0.2,0.3-0.4,0.4-0.4,0.4
			s0.1-0.1,0.4-0.4c0.3-0.3,0.6-0.7,1-1.3c0.8-1.1,1.8-2.9,2.7-5.1c1-2.2,2-4.8,2.9-7.6c0.5-1.4,1-2.9,1.5-4.4c0.5-1.4,1-3,1.7-4.4
			c0.7-1.3,1.8-2.5,2.8-3.7c1.1-1.2,2.1-2.3,3.1-3.4c2-2.2,3.9-4.3,5.4-6.2c0.6-0.8,1.1-1.5,1.5-2.2c-0.5,2.4-0.9,4.4-1.3,5.5
			c-1.7,5.7,0.5,21.2,0.1,23.3c-0.3,1.6-1.9,48.2-2.6,69.4c-0.1-0.1-0.1-0.1-0.2-0.2c-0.2-0.1-0.5-0.2-0.7-0.3
			c-0.4-0.1-0.8,0-0.9,0.4c-0.1,0.4,0,0.8,0.4,0.9c0.2,0.1,0.4,0.2,0.6,0.3c0.1,0,0.2,0.1,0.3,0.1c0.2,0,0.3-0.1,0.5-0.2
			c-0.2,5.7-0.3,9.3-0.3,9.3l-5.2-0.8c-0.1,0-0.1-0.1-0.2-0.1c-6.1-2.3-47.5-0.3-57.2,1.3h-5.3c0,0-1.6-51-1.1-52.6
			c0.1-0.3,0.2-1.1,0.4-2.3c0.1-0.3,0.3-0.6,0.5-0.9c0.2-0.4,0.5-0.8,0.8-1.3c0.3-0.5,0.6-0.9,1-1.5c0.3-0.5,0.8-1,1.2-1.6
			c0.8-1.1,1.8-2.2,2.8-3.3c2-2.2,4.1-4.3,5.7-5.8c1.6-1.6,2.6-2.7,2.6-2.7s-1.1,1-2.8,2.5c-1.7,1.5-3.9,3.4-6.1,5.5
			c-1,1.1-2.1,2.1-3.1,3.2c-0.5,0.5-0.9,1-1.3,1.5c-0.3,0.4-0.5,0.7-0.8,1.1c1-6.3,2.5-15.9,2.7-17.4c0.4-2.1,2.9-26.2,2.9-26.2
			l-1.1-17.8l4-31.7l-2.8-21.1c0,0-0.1-0.2-0.2-0.7c0.4,1,0.9,2,1.3,3c0.5,1.1,1,2.3,1.5,3.5c0.5,1.2,1,2.4,1.5,3.7
			c0.5,1.2,1,2.5,1.4,3.7c0.4,1.3,0.8,2.5,1.2,3.7c0.4,1.2,0.7,2.4,0.9,3.5c0.3,1.1,0.5,2.2,0.7,3.2c0.2,1,0.3,1.9,0.4,2.7
			c0.1,0.8,0.2,1.5,0.3,2.1c0.2,1.2,0.3,1.8,0.3,1.8s-0.1-0.7-0.2-1.8c-0.1-0.6-0.1-1.3-0.2-2.1c-0.1-0.8-0.1-1.7-0.3-2.7
			c-0.2-1-0.4-2.1-0.6-3.2c-0.2-1.1-0.5-2.3-0.8-3.5c-0.3-1.2-0.7-2.5-1.1-3.7c-0.4-1.3-0.9-2.5-1.3-3.8c-0.4-1.3-0.9-2.5-1.4-3.8
			c-0.5-1.2-1-2.4-1.4-3.6c-1-2.3-1.8-4.5-2.6-6.3c-0.8-1.8-1.3-3.4-1.7-4.5c-0.4-1.1-0.6-1.7-0.6-1.7c0,0,0,0,0,0
			c0-0.1-0.1-0.1-0.1-0.2c-0.8-3.8-1.3-7.7-0.6-10.3c1.7-6.3,2.6-7.8,2.1-10.9c-0.5-3.1-3.6-35.7-4.8-45.9
			c-0.8-6.7-1.2-15.9-1.1-20.4c0.2,0.5,0.3,1.1,0.5,1.7c0.3,1.2,0.7,2.6,1.1,4c0.4,1.4,0.7,2.9,1.1,4.5c0.8,3.1,1.4,6.5,2.1,9.9
			c1.3,6.8,2.6,13.5,3.5,18.6c0.5,2.5,1,4.6,1.3,6.1c0.3,1.5,0.5,2.3,0.5,2.3s-0.2-0.8-0.4-2.3c-0.3-1.5-0.7-3.6-1.1-6.1
			c-0.8-5.1-2-11.9-3.1-18.7c-0.6-3.4-1.2-6.8-1.9-9.9c-0.3-1.6-0.6-3.1-1-4.6c-0.4-1.4-0.7-2.8-1-4.1c-0.3-1.3-0.6-2.4-1-3.4
			c-0.3-1-0.6-1.9-0.8-2.6c-1.8-13.1-11.5-66.8-15.4-88.4c0-0.4-0.1-0.9-0.2-1.6c-0.2-1.4-0.5-3.4-1.1-5.8c-1.1-4.9-3.1-11.9-6-20
			c-0.7-2-1.5-4.1-2.5-6.3c-0.2-0.5-0.5-1.1-0.8-1.7c-0.2-0.3-0.2-0.4-0.5-0.9c-0.1-0.2-0.3-0.4-0.4-0.7c-0.3-0.4-0.5-0.9-0.8-1.4
			c-0.1-0.4-0.3-0.8-0.4-1.2c-0.1-0.2-0.3-0.4-0.5-0.4c0,0-0.1-0.1-0.1-0.1c-0.2-0.4-0.4-0.8-0.6-1.3c0.3-0.2,0.4-0.5,0.3-0.8
			c-0.3-0.9-0.6-1.8-0.9-2.6c-0.1-0.4-0.5-0.6-0.9-0.4c-0.2,0-0.3,0.2-0.3,0.3c-0.7-1.5-1.4-3.1-2.1-4.6c0.1,0,0.2-0.1,0.4-0.1
			c0,0,0,0,0,0c0.3,0.9,0.5,1.8,0.8,2.7c0.1,0.3,0.4,0.5,0.7,0.5c0.1,0,0.1,0,0.2,0c0.4-0.1,0.6-0.5,0.5-0.9
			c-0.3-0.9-0.6-1.8-0.8-2.7c0,0,0,0,0,0c3.7-1.1,7.5-2,11.3-2.7c4-0.8,8.1-1.5,12.2-2.2l0,0c0.3,0,0.5-0.3,0.5-0.5
			c0-0.3-0.2-0.6-0.5-0.7c-3.8-0.4-7.6-0.6-11.3-0.8c-3.8-0.2-7.5-0.3-11.3-0.3c-1.1,0-2.3,0-3.4,0c0.3-0.2,0.4-0.5,0.3-0.8
			c-0.3-1.2-0.5-2.1-0.6-2.7c-0.1-0.4-0.4-0.6-0.8-0.6c-0.4,0.1-0.6,0.4-0.6,0.8c0.1,0.6,0.3,1.6,0.6,2.8c0,0.2,0.2,0.3,0.3,0.4
			c-0.5,0-1,0-1.4,0c0-0.1-0.1-0.2-0.1-0.3c-0.4-1.3-0.7-2.5-0.8-3.7c0-2.7,0.1-5.5,0.1-8.3c0-0.7,0-1.5,0.1-2.2l0.4,0
			c0.4,0,0.7-0.3,0.7-0.7c0-0.4-0.4-0.7-0.7-0.7l-0.3,0c0-1,0.1-2,0.1-3c0.4,0,0.9,0,1.4,0l-0.1,1.6c0,0.4,0.3,0.7,0.7,0.7
			c0,0,0,0,0,0c0.4,0,0.7-0.3,0.7-0.7l0.1-2.4c0,0,0,0,0,0c0,0,0,0,0,0l0-0.3c0-0.4-0.3-0.7-0.7-0.7c-0.3,0-0.6,0.2-0.7,0.4
			c-0.5,0-1,0-1.5,0.1c0.1-3,0.3-6,0.4-9c0.3-5.7,0.6-11.4,1-17c0.4-5.6,0.7-11.1,1.1-16.4c0.7-10.7,1.4-20.6,2-29.2
			c0.1-1.4,0.1-2.7,0.2-4c0.7,0,1.5,0,2.2,0c0,0.2,0,0.4,0,0.6c0,0.4,0.3,0.7,0.7,0.7c0,0,0,0,0,0c0.4,0,0.7-0.3,0.7-0.7
			c0-0.2,0-0.4,0-0.6c3.1,0,6.2,0,9.2,0c2.2,0,4.3,0,6.4,0c0.1,0.3,0.3,0.5,0.6,0.5c0,0,0,0,0.1,0c0.3,0,0.6-0.2,0.7-0.5
			c0.9,0,1.8,0,2.6,0l-0.2,2.7c0,0.4,0.3,0.7,0.6,0.8c0,0,0,0,0.1,0c0.4,0,0.7-0.3,0.7-0.6l0.2-2.8c0,0,0,0,0-0.1
			c3.9,0,7.7,0,11.5-0.1c7.8-0.1,15.3-0.1,22.7-0.1l0.2,5.2c0,0.2,0.1,0.4,0.2,0.5c0.1,0.1,0.3,0.2,0.5,0.2c0,0,0,0,0,0l6.1-0.3
			c0.4,0,0.7-0.3,0.7-0.7l-0.2-4.9c0.3,0,0.6,0,0.9,0c1,13.4,4.7,22.3,11.6,27.9c5.8,4.8,14,7.2,24.9,7.2c3.3,0,6.9-0.2,10.8-0.7
			c0.1,0,0.1,0,0.2-0.1c0.1,0.9,0.2,1.8,0.3,2.7c-0.1,0-0.2-0.1-0.3,0c-0.2,0-0.3,0-0.4,0c-0.5-1.1-1.6-1.9-2.9-1.9
			c-1.4,0-2.6,0.9-3,2.2l-1.9,0c-0.4,0-0.7,0.3-0.7,0.7c0,0.4,0.3,0.7,0.7,0.7l1.8,0c0.2,1.5,1.5,2.7,3.1,2.7c1.7,0,3-1.3,3.1-3
			c0.1,0,0.2,0,0.4,0c0.1,0,0.2-0.1,0.3-0.1c0.1,1,0.2,1.9,0.3,2.9c-0.1,0-0.1,0-0.2,0c-1,0.1-1.9,0.2-2.7,0.3
			c-0.4,0-0.7,0.4-0.6,0.7c0,0.4,0.3,0.6,0.7,0.6c0,0,0,0,0.1,0c0.9-0.1,1.8-0.2,2.8-0.3c0,0,0.1,0,0.1,0c0.7,6.9,1.3,12.3,1.4,14.9
			c1.1,16.5,0.8,83,0.8,83s-0.5,38.6-0.8,68.4c-0.5,3.7-1,7.3-1.4,11c-1.2,10-2.1,20-3.2,30c-0.9,10-2.1,20-3.4,29.9
			c-0.7,5-1.5,9.9-2.5,14.8c-1.1,4.8-2.3,9.7-4.7,14c1.4-2,2.5-4.2,3.4-6.6c0.9-2.3,1.7-4.7,2.3-7.1c1.3-4.9,2.3-9.8,3.1-14.8
			c0.9-5,1.5-10,2.2-14.9c0.7-5,1.2-10,1.7-15l2.4-26c-0.1,7.9-0.2,14-0.2,16.8C360.2,338.3,359.1,359.6,358.7,370.9z"/>
		<path class="st0" d="M336.3,121.3c0.3,0,0.6-0.2,0.7-0.5c0.1-0.4-0.2-0.7-0.5-0.8c-0.9-0.2-1.8-0.4-2.7-0.7
			c-0.4-0.1-0.8,0.1-0.9,0.5c-0.1,0.4,0.1,0.8,0.5,0.9c0.9,0.3,1.8,0.5,2.7,0.7C336.2,121.3,336.3,121.3,336.3,121.3z"/>
		<path class="st0" d="M347.4,122.6C347.4,122.6,347.4,122.6,347.4,122.6c0.4,0,0.7-0.3,0.7-0.7c0-0.4-0.3-0.7-0.7-0.7
			c-0.9,0-1.9-0.1-2.8-0.1c-0.4,0-0.7,0.3-0.7,0.7c0,0.4,0.3,0.7,0.7,0.7C345.5,122.5,346.4,122.6,347.4,122.6z"/>
		<path class="st0" d="M310.9,94.9c0.1,0,0.1,0,0.2,0c0.4-0.1,0.6-0.5,0.5-0.8c-0.2-0.9-0.4-1.8-0.6-2.7c-0.1-0.4-0.4-0.6-0.8-0.6
			c-0.4,0.1-0.6,0.4-0.6,0.8c0.2,0.9,0.4,1.9,0.6,2.8C310.3,94.7,310.6,94.9,310.9,94.9z"/>
		<path class="st0" d="M320.6,113.6l0.4,0.3c0.1,0.1,0.3,0.2,0.5,0.2c0.2,0,0.4-0.1,0.5-0.2c0.3-0.3,0.2-0.7-0.1-1l-0.4-0.3
			c-0.5-0.5-1.1-1-1.6-1.6c-0.3-0.3-0.7-0.3-1,0c-0.3,0.3-0.3,0.7,0,1C319.5,112.5,320,113,320.6,113.6z"/>
		<path class="st0" d="M310.9,97.1c0.3,0.9,0.6,1.8,0.9,2.7c0.1,0.3,0.4,0.5,0.7,0.5c0.1,0,0.2,0,0.2,0c0.4-0.1,0.6-0.5,0.4-0.9
			c-0.3-0.8-0.6-1.7-0.8-2.6c-0.1-0.4-0.5-0.6-0.9-0.5C311,96.3,310.8,96.7,310.9,97.1z"/>
		<path class="st0" d="M312.8,102.4c0.4,0.9,0.8,1.7,1.2,2.6c0.1,0.2,0.4,0.4,0.6,0.4c0.1,0,0.2,0,0.3-0.1c0.3-0.2,0.5-0.6,0.3-0.9
			c-0.4-0.8-0.8-1.6-1.2-2.5c-0.2-0.4-0.6-0.5-0.9-0.4C312.8,101.6,312.7,102,312.8,102.4z"/>
		<path class="st0" d="M331,119.7c0.3,0,0.5-0.2,0.7-0.4c0.1-0.4,0-0.8-0.4-0.9c-0.9-0.3-1.7-0.7-2.5-1.1c-0.3-0.2-0.8,0-0.9,0.3
			c-0.2,0.3,0,0.8,0.3,0.9c0.8,0.4,1.7,0.8,2.6,1.1C330.8,119.7,330.9,119.7,331,119.7z"/>
		<path class="st0" d="M325.6,117.3c0.1,0.1,0.2,0.1,0.4,0.1c0.2,0,0.5-0.1,0.6-0.3c0.2-0.3,0.1-0.8-0.2-1c-0.8-0.5-1.5-1-2.3-1.5
			c-0.3-0.2-0.7-0.2-1,0.2c-0.2,0.3-0.2,0.7,0.2,1C324,116.3,324.8,116.8,325.6,117.3z"/>
		<path class="st0" d="M341.8,122.2c0.4,0,0.7-0.3,0.7-0.6c0-0.4-0.2-0.7-0.6-0.8c-0.9-0.1-1.8-0.2-2.7-0.4
			c-0.4-0.1-0.7,0.2-0.8,0.6c-0.1,0.4,0.2,0.7,0.6,0.8C339.8,122,340.8,122.1,341.8,122.2C341.8,122.2,341.8,122.2,341.8,122.2z"/>
		<path class="st0" d="M317.1,109.7c0.1,0.2,0.3,0.3,0.6,0.3c0.1,0,0.3,0,0.4-0.1c0.3-0.2,0.4-0.7,0.1-1c-0.5-0.7-1.1-1.5-1.6-2.2
			c-0.2-0.3-0.6-0.4-1-0.2c-0.3,0.2-0.4,0.6-0.2,1C316,108.2,316.5,109,317.1,109.7z"/>
		<path class="st0" d="M350.8,127C350.8,127,350.8,127,350.8,127c1,0,1.9,0,2.8-0.1c0.4,0,0.7-0.3,0.7-0.7c0-0.4-0.4-0.7-0.7-0.7
			c-0.9,0-1.8,0-2.8,0.1c-0.4,0-0.7,0.3-0.7,0.7C350.1,126.7,350.4,127,350.8,127z"/>
		<path class="st0" d="M342.5,125.3c-0.9-0.1-1.8-0.2-2.7-0.3c-0.4-0.1-0.7,0.2-0.8,0.6c-0.1,0.4,0.2,0.7,0.6,0.8
			c0.9,0.1,1.8,0.2,2.8,0.3c0,0,0,0,0.1,0c0.4,0,0.7-0.3,0.7-0.6C343.2,125.7,342.9,125.4,342.5,125.3z"/>
		<path class="st0" d="M348,127c0.4,0,0.7-0.3,0.7-0.7c0-0.4-0.3-0.7-0.7-0.7c-0.9,0-1.9,0-2.8-0.1c-0.4,0-0.7,0.3-0.7,0.7
			c0,0.4,0.3,0.7,0.7,0.7C346.1,127,347,127,348,127C348,127,348,127,348,127z"/>
		<path class="st0" d="M311.9,108.1c-0.3,0.2-0.4,0.6-0.2,1c0.5,0.8,1,1.6,1.5,2.4c0.1,0.2,0.4,0.3,0.6,0.3c0.1,0,0.3,0,0.4-0.1
			c0.3-0.2,0.4-0.7,0.2-1c-0.5-0.7-1-1.5-1.5-2.3C312.7,108,312.2,107.9,311.9,108.1z"/>
		<path class="st0" d="M317.8,115.8c0.3-0.3,0.3-0.7,0-1c-0.6-0.6-1.3-1.3-1.8-2c-0.2-0.3-0.7-0.3-1-0.1c-0.3,0.2-0.3,0.7-0.1,1
			c0.6,0.7,1.3,1.4,1.9,2.1c0.1,0.1,0.3,0.2,0.5,0.2C317.5,116,317.7,115.9,317.8,115.8z"/>
		<path class="st0" d="M337.1,124.6c-0.9-0.2-1.8-0.4-2.7-0.6c-0.4-0.1-0.8,0.1-0.8,0.5c-0.1,0.4,0.1,0.8,0.5,0.8
			c0.9,0.2,1.8,0.4,2.8,0.6c0,0,0.1,0,0.1,0c0.3,0,0.6-0.2,0.7-0.6C337.7,125,337.4,124.6,337.1,124.6z"/>
		<path class="st0" d="M311.6,106c-0.4-0.8-0.8-1.6-1.1-2.5c-0.2-0.4-0.6-0.5-0.9-0.4c-0.4,0.2-0.5,0.6-0.4,0.9
			c0.4,0.9,0.8,1.7,1.2,2.6c0.1,0.2,0.4,0.4,0.6,0.4c0.1,0,0.2,0,0.3-0.1C311.6,106.7,311.7,106.3,311.6,106z"/>
		<path class="st0" d="M307.2,98.7c0.3,0.9,0.6,1.8,0.9,2.7c0.1,0.3,0.4,0.5,0.7,0.5c0.1,0,0.2,0,0.2,0c0.4-0.1,0.6-0.5,0.4-0.9
			c-0.3-0.8-0.6-1.7-0.8-2.6c-0.1-0.4-0.5-0.6-0.9-0.5C307.3,97.9,307.1,98.3,307.2,98.7z"/>
		<path class="st0" d="M319.9,116.7c-0.3-0.2-0.7-0.2-1,0.1c-0.2,0.3-0.2,0.7,0.1,1c0.7,0.6,1.5,1.2,2.2,1.8
			c0.1,0.1,0.3,0.1,0.4,0.1c0.2,0,0.4-0.1,0.6-0.3c0.2-0.3,0.2-0.7-0.2-1C321.3,117.8,320.5,117.3,319.9,116.7z"/>
		<path class="st0" d="M307.2,96.5c0.1,0,0.1,0,0.2,0c0.4-0.1,0.6-0.5,0.5-0.8c-0.2-0.9-0.4-1.8-0.6-2.7c-0.1-0.4-0.4-0.6-0.8-0.5
			c-0.4,0.1-0.6,0.4-0.5,0.8c0.2,0.9,0.4,1.9,0.6,2.8C306.6,96.3,306.9,96.5,307.2,96.5z"/>
		<path class="st0" d="M326.7,121.2c-0.8-0.4-1.6-0.8-2.4-1.3c-0.3-0.2-0.8-0.1-1,0.2c-0.2,0.3-0.1,0.8,0.2,1
			c0.8,0.5,1.6,0.9,2.5,1.4c0.1,0,0.2,0.1,0.3,0.1c0.3,0,0.5-0.1,0.6-0.4C327.2,121.7,327,121.3,326.7,121.2z"/>
		<path class="st0" d="M331.7,123.2c-0.9-0.3-1.7-0.6-2.6-0.9c-0.4-0.1-0.8,0-0.9,0.4c-0.1,0.4,0,0.8,0.4,0.9c0.9,0.3,1.8,0.7,2.7,1
			c0.1,0,0.1,0,0.2,0c0.3,0,0.6-0.2,0.7-0.5C332.3,123.7,332.1,123.3,331.7,123.2z"/>
		<path class="st0" d="M241.1,170.5C241.1,170.5,241.1,170.5,241.1,170.5c-0.4,0-0.7,0.3-0.7,0.7c0,1,0,1.9,0,2.8
			c0,0.4,0.3,0.7,0.7,0.7c0,0,0,0,0,0c0.4,0,0.7-0.3,0.7-0.7c0-0.9,0-1.8,0-2.8C241.8,170.8,241.5,170.5,241.1,170.5z"/>
		<path class="st0" d="M242.5,154.5c0-0.4-0.3-0.7-0.7-0.7c-0.4,0-0.7,0.3-0.7,0.7l-0.2,2.8c0,0.4,0.3,0.7,0.7,0.7c0,0,0,0,0,0
			c0.4,0,0.7-0.3,0.7-0.7L242.5,154.5z"/>
		<path class="st0" d="M241.3,164.9c-0.4,0-0.7,0.3-0.7,0.7c0,1-0.1,1.9-0.1,2.8c0,0.4,0.3,0.7,0.7,0.7c0,0,0,0,0,0
			c0.4,0,0.7-0.3,0.7-0.7c0-0.9,0.1-1.8,0.1-2.8C242,165.3,241.7,165,241.3,164.9z"/>
		<path class="st0" d="M243.8,124.6C243.8,124.6,243.8,124.6,243.8,124.6c0.4,0,0.7-0.3,0.7-0.6l0.2-2.8c0-0.4-0.3-0.7-0.6-0.7
			c-0.4,0-0.7,0.3-0.7,0.6l-0.2,2.8C243.1,124.2,243.4,124.5,243.8,124.6z"/>
		<path class="st0" d="M242.6,141.3C242.6,141.3,242.6,141.3,242.6,141.3c0.4,0,0.7-0.3,0.7-0.6l0.2-2.8c0-0.4-0.3-0.7-0.6-0.7
			c-0.4,0-0.7,0.3-0.7,0.6l-0.2,2.8C241.9,140.9,242.2,141.2,242.6,141.3z"/>
		<path class="st0" d="M243,135.7C243,135.7,243,135.7,243,135.7c0.4,0,0.7-0.3,0.7-0.6l0.2-2.8c0-0.4-0.3-0.7-0.6-0.7
			c-0.4,0-0.7,0.3-0.7,0.6l-0.2,2.8C242.3,135.3,242.6,135.7,243,135.7z"/>
		<path class="st0" d="M242.2,146.8C242.3,146.8,242.3,146.8,242.2,146.8c0.4,0,0.7-0.3,0.7-0.7l0.2-2.8c0-0.4-0.3-0.7-0.7-0.7
			c-0.4,0-0.7,0.3-0.7,0.6l-0.2,2.8C241.6,146.5,241.9,146.8,242.2,146.8z"/>
		<path class="st0" d="M241.9,152.4C241.9,152.4,241.9,152.4,241.9,152.4c0.4,0,0.7-0.3,0.7-0.7l0.2-2.8c0-0.4-0.3-0.7-0.7-0.7
			c-0.4,0-0.7,0.3-0.7,0.7l-0.2,2.8C241.2,152,241.5,152.4,241.9,152.4z"/>
		<path class="st0" d="M244.2,119C244.2,119,244.3,119,244.2,119c0.4,0,0.7-0.3,0.7-0.6l0.2-2.8c0-0.4-0.3-0.7-0.6-0.7
			c-0.4,0-0.7,0.3-0.7,0.6l-0.2,2.8C243.6,118.6,243.8,119,244.2,119z"/>
		<path class="st0" d="M246.9,65.4l-0.1,2.8c0,0.4,0.3,0.7,0.7,0.7c0,0,0,0,0,0c0.4,0,0.7-0.3,0.7-0.7l0.1-2.8
			c0-0.4-0.3-0.7-0.7-0.7C247.3,64.7,247,65,246.9,65.4z"/>
		<path class="st0" d="M244.7,113.4C244.7,113.4,244.7,113.4,244.7,113.4c0.4,0,0.7-0.3,0.7-0.6l0.2-2.8c0-0.4-0.3-0.7-0.6-0.7
			c-0.4,0-0.7,0.3-0.7,0.6l-0.2,2.8C244,113.1,244.3,113.4,244.7,113.4z"/>
		<path class="st0" d="M242.6,185.1c0.1,0.3,0.4,0.5,0.7,0.5c0.1,0,0.1,0,0.2,0c0.4-0.1,0.6-0.5,0.5-0.9c-0.3-0.9-0.5-1.8-0.8-2.7
			c-0.1-0.4-0.5-0.6-0.9-0.5c-0.4,0.1-0.6,0.5-0.5,0.9C242,183.2,242.3,184.1,242.6,185.1z"/>
		<path class="st0" d="M243.4,130.1C243.4,130.1,243.4,130.1,243.4,130.1c0.4,0,0.7-0.3,0.7-0.6l0.2-2.8c0-0.4-0.3-0.7-0.6-0.7
			c-0.4,0-0.7,0.3-0.7,0.6l-0.2,2.8C242.7,129.8,243,130.1,243.4,130.1z"/>
		<path class="st0" d="M247.2,74.4C247.2,74.4,247.2,74.4,247.2,74.4c0.4,0,0.7-0.3,0.7-0.7l0.1-2.8c0-0.4-0.3-0.7-0.7-0.7
			c-0.4,0-0.7,0.3-0.7,0.7l-0.1,2.8C246.5,74.1,246.8,74.4,247.2,74.4z"/>
		<path class="st0" d="M246.4,91.2C246.4,91.2,246.4,91.2,246.4,91.2c0.4,0,0.7-0.3,0.7-0.6c0.1-1,0.1-2,0.2-2.8
			c0-0.4-0.3-0.7-0.6-0.7c-0.4,0-0.7,0.3-0.7,0.6c-0.1,0.8-0.1,1.8-0.2,2.8C245.7,90.8,246,91.1,246.4,91.2z"/>
		<path class="st0" d="M245.5,102.3C245.6,102.3,245.6,102.3,245.5,102.3c0.4,0,0.7-0.3,0.7-0.6l0.2-2.8c0-0.4-0.3-0.7-0.6-0.7
			c-0.4,0-0.7,0.3-0.7,0.6l-0.2,2.8C244.9,101.9,245.2,102.3,245.5,102.3z"/>
		<path class="st0" d="M246,96.7C246,96.7,246,96.7,246,96.7c0.4,0,0.7-0.3,0.7-0.6l0.2-2.8c0-0.4-0.3-0.7-0.6-0.7
			c-0.4,0-0.7,0.3-0.7,0.6l-0.2,2.8C245.3,96.4,245.6,96.7,246,96.7z"/>
		<path class="st0" d="M245.1,107.9C245.1,107.9,245.1,107.9,245.1,107.9c0.4,0,0.7-0.3,0.7-0.6l0.2-2.8c0-0.4-0.3-0.7-0.6-0.7
			c-0.4,0-0.7,0.3-0.7,0.6l-0.2,2.8C244.4,107.5,244.7,107.8,245.1,107.9z"/>
		<path class="st0" d="M259.7,140.5C259.7,140.5,259.8,140.5,259.7,140.5c0.4,0,0.7-0.3,0.7-0.6c0.1-0.7,0.1-1.6,0.2-2.8
			c0-0.4-0.3-0.7-0.6-0.7c-0.4,0-0.7,0.3-0.7,0.6c-0.1,1.2-0.2,2.1-0.2,2.8C259.1,140.1,259.3,140.4,259.7,140.5z"/>
		<path class="st0" d="M262,107.1C262,107.1,262.1,107.1,262,107.1c0.4,0,0.7-0.3,0.7-0.6l0.2-2.8c0-0.4-0.3-0.7-0.6-0.7
			c-0.4,0-0.7,0.3-0.7,0.6l-0.2,2.8C261.4,106.7,261.6,107,262,107.1z"/>
		<path class="st0" d="M258.3,145.9c0.1,0,0.2,0,0.2,0c0.3,0,0.6-0.2,0.7-0.5c0.4-1,0.6-1.9,0.9-2.7c0.1-0.4-0.1-0.8-0.5-0.9
			c-0.4-0.1-0.8,0.1-0.9,0.5c-0.2,0.8-0.5,1.7-0.8,2.6C257.7,145.3,257.9,145.7,258.3,145.9z"/>
		<path class="st0" d="M262.4,101.5C262.5,101.5,262.5,101.5,262.4,101.5c0.4,0,0.7-0.3,0.7-0.6l0.2-2.8c0-0.4-0.3-0.7-0.6-0.7
			c-0.4,0-0.7,0.3-0.7,0.6l-0.2,2.8C261.8,101.1,262,101.5,262.4,101.5z"/>
		<path class="st0" d="M262.8,95.9C262.9,95.9,262.9,95.9,262.8,95.9c0.4,0,0.7-0.3,0.7-0.6l0.2-2.8c0-0.4-0.3-0.7-0.6-0.7
			c-0.4,0-0.7,0.3-0.7,0.6l-0.2,2.8C262.2,95.6,262.5,95.9,262.8,95.9z"/>
		<path class="st0" d="M261.6,112.6C261.7,112.6,261.7,112.6,261.6,112.6c0.4,0,0.7-0.3,0.7-0.6l0.2-2.8c0-0.4-0.3-0.7-0.6-0.7
			c-0.4,0-0.7,0.3-0.7,0.6l-0.2,2.8C261,112.3,261.3,112.6,261.6,112.6z"/>
		<path class="st0" d="M260.1,134.9C260.1,134.9,260.2,134.9,260.1,134.9c0.4,0,0.7-0.3,0.7-0.6l0.2-2.8c0-0.4-0.3-0.7-0.6-0.7
			c-0.4,0-0.7,0.3-0.7,0.6l-0.2,2.8C259.5,134.5,259.7,134.9,260.1,134.9z"/>
		<path class="st0" d="M260.5,129.3C260.5,129.3,260.5,129.3,260.5,129.3c0.4,0,0.7-0.3,0.7-0.6l0.2-2.8c0-0.4-0.3-0.7-0.6-0.7
			c-0.4,0-0.7,0.3-0.7,0.6l-0.2,2.8C259.8,129,260.1,129.3,260.5,129.3z"/>
		<path class="st0" d="M261.3,118.2C261.3,118.2,261.3,118.2,261.3,118.2c0.4,0,0.7-0.3,0.7-0.6l0.2-2.8c0-0.4-0.3-0.7-0.6-0.7
			c-0.4,0-0.7,0.3-0.7,0.6l-0.2,2.8C260.6,117.8,260.9,118.2,261.3,118.2z"/>
		<path class="st0" d="M260.9,123.8C260.9,123.8,260.9,123.8,260.9,123.8c0.4,0,0.7-0.3,0.7-0.6l0.2-2.8c0-0.4-0.3-0.7-0.6-0.7
			c-0.4,0-0.7,0.3-0.7,0.6l-0.2,2.8C260.2,123.4,260.5,123.7,260.9,123.8z"/>
		<path class="st0" d="M263.3,90.4C263.3,90.4,263.3,90.4,263.3,90.4c0.4,0,0.7-0.3,0.8-0.6l0.2-2.8c0-0.4-0.3-0.7-0.6-0.8
			c-0.4,0-0.7,0.3-0.8,0.6l-0.2,2.8C262.6,90,262.9,90.3,263.3,90.4z"/>
		<path class="st0" d="M247.7,159.6c-0.1-0.4-0.5-0.6-0.8-0.5c-0.8,0.2-1.7,0.3-2.7,0.5c-0.4,0-0.7,0.4-0.6,0.8
			c0,0.4,0.3,0.6,0.7,0.6c0,0,0.1,0,0.1,0c1-0.1,2-0.3,2.8-0.5C247.6,160.3,247.8,160,247.7,159.6z"/>
		<path class="st0" d="M257,150.7c0.4-0.9,0.8-1.7,1.1-2.6c0.1-0.4,0-0.8-0.4-0.9c-0.4-0.1-0.8,0-0.9,0.4c-0.3,0.8-0.7,1.7-1.1,2.5
			c-0.2,0.3,0,0.8,0.3,0.9c0.1,0,0.2,0.1,0.3,0.1C256.7,151.1,256.9,150.9,257,150.7z"/>
		<path class="st0" d="M253.4,155.9c0.1,0.1,0.2,0.1,0.4,0.1c0.2,0,0.5-0.1,0.6-0.3c0.5-0.7,0.9-1.5,1.4-2.5
			c0.2-0.3,0.1-0.8-0.3-0.9c-0.3-0.2-0.8,0-0.9,0.3c-0.5,0.9-0.9,1.7-1.4,2.4C253,155.2,253.1,155.7,253.4,155.9z"/>
		<path class="st0" d="M252.5,157c-0.3-0.3-0.7-0.3-1,0c-0.1,0.1-0.2,0.2-0.4,0.3c-0.5,0.4-1.1,0.7-1.8,1c-0.4,0.1-0.5,0.6-0.4,0.9
			c0.1,0.3,0.4,0.4,0.6,0.4c0.1,0,0.2,0,0.3-0.1c0.8-0.3,1.5-0.7,2.1-1.2c0.2-0.1,0.3-0.3,0.5-0.4
			C252.8,157.7,252.8,157.3,252.5,157z"/>
		<path class="st0" d="M265.7,111.4c-0.4,0-0.7,0.3-0.7,0.6l-0.2,2.8c0,0.4,0.3,0.7,0.6,0.7c0,0,0,0,0,0c0.4,0,0.7-0.3,0.7-0.6
			l0.2-2.8C266.4,111.7,266.1,111.4,265.7,111.4z"/>
		<path class="st0" d="M264.9,122.5c-0.4,0-0.7,0.3-0.7,0.6l-0.2,2.8c0,0.4,0.3,0.7,0.6,0.7c0,0,0,0,0,0c0.4,0,0.7-0.3,0.7-0.6
			l0.2-2.8C265.6,122.9,265.3,122.5,264.9,122.5z"/>
		<path class="st0" d="M265.3,116.9c-0.4,0-0.7,0.3-0.7,0.6l-0.2,2.8c0,0.4,0.3,0.7,0.6,0.7c0,0,0,0,0,0c0.4,0,0.7-0.3,0.7-0.6
			l0.2-2.8C266,117.3,265.7,117,265.3,116.9z"/>
		<path class="st0" d="M266.5,100.3c-0.4,0-0.7,0.3-0.7,0.6l-0.2,2.8c0,0.4,0.3,0.7,0.6,0.7c0,0,0,0,0.1,0c0.4,0,0.7-0.3,0.7-0.6
			l0.2-2.8C267.2,100.6,266.9,100.3,266.5,100.3z"/>
		<path class="st0" d="M266.1,105.8c-0.4,0-0.7,0.3-0.7,0.6l-0.2,2.8c0,0.4,0.3,0.7,0.6,0.7c0,0,0,0,0,0c0.4,0,0.7-0.3,0.7-0.6
			l0.2-2.8C266.8,106.2,266.5,105.9,266.1,105.8z"/>
		<path class="st0" d="M267.4,89.1c-0.4,0-0.7,0.3-0.8,0.6l-0.2,2.8c0,0.4,0.3,0.7,0.6,0.7c0,0,0,0,0.1,0c0.4,0,0.7-0.3,0.7-0.6
			l0.2-2.8C268,89.5,267.8,89.2,267.4,89.1z"/>
		<path class="st0" d="M266.9,94.7c-0.4,0-0.7,0.3-0.7,0.6l-0.2,2.8c0,0.4,0.3,0.7,0.6,0.7c0,0,0,0,0.1,0c0.4,0,0.7-0.3,0.7-0.6
			l0.2-2.8C267.6,95.1,267.3,94.7,266.9,94.7z"/>
		<path class="st0" d="M264.6,128.1c-0.4,0-0.7,0.3-0.7,0.6l-0.2,2.8c0,0.4,0.3,0.7,0.6,0.7c0,0,0,0,0,0c0.4,0,0.7-0.3,0.7-0.7
			l0.2-2.8C265.2,128.4,265,128.1,264.6,128.1z"/>
		<path class="st0" d="M261,149.9c-0.4-0.2-0.8,0-0.9,0.4c-0.4,0.8-0.7,1.7-1.1,2.5c-0.2,0.3,0,0.8,0.3,0.9c0.1,0,0.2,0.1,0.3,0.1
			c0.3,0,0.5-0.1,0.6-0.4c0.4-0.9,0.8-1.7,1.2-2.6C261.5,150.5,261.4,150.1,261,149.9z"/>
		<path class="st0" d="M258.7,155c-0.3-0.2-0.8-0.1-0.9,0.3c-0.5,0.8-0.9,1.6-1.4,2.3c-0.2,0.3-0.1,0.8,0.2,1
			c0.1,0.1,0.3,0.1,0.4,0.1c0.2,0,0.4-0.1,0.6-0.3c0.5-0.7,1-1.6,1.5-2.4C259.1,155.6,259,155.2,258.7,155z"/>
		<path class="st0" d="M264.2,133.6c-0.4,0-0.7,0.3-0.7,0.6l-0.2,2.8c0,0.4,0.3,0.7,0.6,0.7c0,0,0,0,0,0c0.4,0,0.7-0.3,0.7-0.6
			l0.2-2.8C264.9,134,264.6,133.7,264.2,133.6z"/>
		<path class="st0" d="M254.7,159.7c-0.4,0.5-0.8,0.9-1.2,1.2c-0.2,0.2-0.5,0.3-0.7,0.5c-0.3,0.2-0.4,0.6-0.2,1
			c0.1,0.2,0.4,0.3,0.6,0.3c0.1,0,0.3,0,0.4-0.1c0.3-0.2,0.6-0.4,0.8-0.6c0.5-0.4,1-0.8,1.4-1.3c0.3-0.3,0.2-0.7-0.1-1
			C255.4,159.4,254.9,159.5,254.7,159.7z"/>
		<path class="st0" d="M245.1,163.9c-0.9,0.1-1.9,0.2-2.7,0.3c-0.4,0-0.7,0.4-0.6,0.7c0,0.4,0.3,0.7,0.7,0.7c0,0,0,0,0,0
			c0.9-0.1,1.8-0.1,2.8-0.3c0.4-0.1,0.6-0.4,0.6-0.8C245.8,164.1,245.5,163.8,245.1,163.9z"/>
		<path class="st0" d="M250.3,162.6c-0.8,0.3-1.6,0.6-2.6,0.8c-0.4,0.1-0.6,0.5-0.5,0.8c0.1,0.3,0.4,0.5,0.7,0.5c0.1,0,0.1,0,0.2,0
			c1-0.2,1.9-0.5,2.8-0.8c0.4-0.1,0.5-0.5,0.4-0.9C251.1,162.6,250.7,162.4,250.3,162.6z"/>
		<path class="st0" d="M263.8,139.2c-0.4,0-0.7,0.3-0.7,0.6c-0.1,0.7-0.1,1.1-0.1,1.4c0,0.3-0.1,0.8-0.2,1.2
			c-0.1,0.4,0.2,0.7,0.5,0.8c0,0,0.1,0,0.1,0c0.3,0,0.6-0.2,0.7-0.5c0.1-0.5,0.2-1,0.2-1.4c0-0.3,0.1-0.8,0.1-1.5
			C264.5,139.6,264.2,139.2,263.8,139.2z"/>
		<path class="st0" d="M262.9,144.7c-0.4-0.1-0.8,0.1-0.9,0.5c-0.3,0.8-0.6,1.7-0.9,2.6c-0.1,0.4,0,0.8,0.4,0.9c0.1,0,0.2,0,0.2,0
			c0.3,0,0.5-0.2,0.7-0.5c0.3-0.9,0.7-1.8,0.9-2.7C263.5,145.2,263.2,144.8,262.9,144.7z"/>
		<path class="st0" d="M232.4,79.4l-2.8,0c-0.4,0-0.7,0.3-0.7,0.7c0,0.4,0.3,0.7,0.7,0.7l2.8,0c0,0,0,0,0,0c0.4,0,0.7-0.3,0.7-0.7
			C233,79.7,232.7,79.4,232.4,79.4z"/>
		<path class="st0" d="M226.8,79.3l-2.8-0.1c-0.4,0-0.7,0.3-0.7,0.7c0,0.4,0.3,0.7,0.7,0.7l2.8,0.1c0,0,0,0,0,0
			c0.4,0,0.7-0.3,0.7-0.7C227.5,79.6,227.2,79.3,226.8,79.3z"/>
		<path class="st0" d="M237.9,79.5l-2.8,0c-0.4,0-0.7,0.3-0.7,0.7c0,0.4,0.3,0.7,0.7,0.7l2.8,0c0,0,0,0,0,0c0.4,0,0.7-0.3,0.7-0.7
			C238.6,79.8,238.3,79.5,237.9,79.5z"/>
		<path class="st0" d="M345.7,76c0.1,0.3,0.4,0.6,0.7,0.6c0,0,0.1,0,0.1,0c0.9-0.2,1.9-0.4,2.7-0.6c0.4-0.1,0.6-0.5,0.5-0.8
			c-0.1-0.4-0.5-0.6-0.8-0.5c-0.9,0.2-1.8,0.4-2.7,0.6C345.8,75.3,345.6,75.6,345.7,76z"/>
		<path class="st0" d="M182.3,78l-2.8-0.1c-0.4,0-0.7,0.3-0.7,0.7c0,0.4,0.3,0.7,0.7,0.7l2.8,0.1c0,0,0,0,0,0c0.4,0,0.7-0.3,0.7-0.7
			C182.9,78.3,182.6,78,182.3,78z"/>
		<path class="st0" d="M343.5,75.7c-0.9,0.2-1.8,0.3-2.7,0.5c-0.4,0.1-0.6,0.4-0.6,0.8c0.1,0.3,0.4,0.6,0.7,0.6c0,0,0.1,0,0.1,0
			c0.9-0.2,1.9-0.3,2.8-0.5c0.4-0.1,0.6-0.4,0.6-0.8C344.2,75.9,343.9,75.6,343.5,75.7z"/>
		<path class="st0" d="M187.8,78.2l-2.8-0.1c-0.4,0-0.7,0.3-0.7,0.7c0,0.4,0.3,0.7,0.7,0.7l2.8,0.1c0,0,0,0,0,0
			c0.4,0,0.7-0.3,0.7-0.7C188.5,78.5,188.2,78.2,187.8,78.2z"/>
		<path class="st0" d="M193.4,78.4l-2.8-0.1c-0.4,0-0.7,0.3-0.7,0.7c0,0.4,0.3,0.7,0.7,0.7l2.8,0.1c0,0,0,0,0,0
			c0.4,0,0.7-0.3,0.7-0.7C194.1,78.7,193.8,78.4,193.4,78.4z"/>
		<path class="st0" d="M221.2,79.2l-2.8-0.1c-0.4,0-0.7,0.3-0.7,0.7c0,0.4,0.3,0.7,0.7,0.7l2.8,0.1c0,0,0,0,0,0
			c0.4,0,0.7-0.3,0.7-0.7C221.9,79.5,221.6,79.2,221.2,79.2z"/>
		<path class="st0" d="M215.7,79.1l-2.8-0.1c-0.4,0-0.7,0.3-0.7,0.7c0,0.4,0.3,0.7,0.7,0.7l2.8,0.1c0,0,0,0,0,0
			c0.4,0,0.7-0.3,0.7-0.7C216.3,79.4,216,79.1,215.7,79.1z"/>
		<path class="st0" d="M210.1,78.9l-2.8-0.1c-0.4-0.1-0.7,0.3-0.7,0.7c0,0.4,0.3,0.7,0.7,0.7l2.8,0.1c0,0,0,0,0,0
			c0.4,0,0.7-0.3,0.7-0.7C210.8,79.3,210.5,78.9,210.1,78.9z"/>
		<path class="st0" d="M315.9,79c-0.9,0.1-1.9,0.1-2.8,0.2c-0.4,0-0.7,0.3-0.7,0.7c0,0.4,0.3,0.7,0.7,0.7c0,0,0,0,0,0
			c0.9,0,1.9-0.1,2.8-0.2c0.4,0,0.7-0.4,0.7-0.7C316.6,79.3,316.3,79,315.9,79z"/>
		<path class="st0" d="M276.9,79.5C276.9,79.5,276.9,79.5,276.9,79.5l-2.8,0c-0.4,0-0.7,0.3-0.7,0.7c0,0.4,0.3,0.7,0.7,0.7
			c0,0,0,0,0,0l2.8,0c0.4,0,0.7-0.3,0.7-0.7C277.6,79.8,277.3,79.5,276.9,79.5z"/>
		<path class="st0" d="M288.1,79.4l-2.8,0c-0.4,0-0.7,0.3-0.7,0.7c0,0.4,0.3,0.7,0.7,0.7c0,0,0,0,0,0l2.8,0c0.4,0,0.7-0.3,0.7-0.7
			C288.8,79.7,288.5,79.3,288.1,79.4z"/>
		<path class="st0" d="M295.7,80.1c0,0.4,0.3,0.7,0.7,0.7l0,0l2.8,0c0.4,0,0.7-0.3,0.7-0.7c0-0.4-0.3-0.7-0.7-0.7l0,0l-2.8,0
			C296,79.4,295.7,79.7,295.7,80.1z"/>
		<path class="st0" d="M293.6,79.4L293.6,79.4l-2.8,0c-0.4,0-0.7,0.3-0.7,0.7c0,0.4,0.3,0.7,0.7,0.7c0,0,0,0,0,0l2.8,0
			c0.4,0,0.7-0.3,0.7-0.7C294.3,79.7,294,79.4,293.6,79.4z"/>
		<path class="st0" d="M282.5,79.4C282.5,79.4,282.5,79.4,282.5,79.4l-2.8,0c-0.4,0-0.7,0.3-0.7,0.7c0,0.4,0.3,0.7,0.7,0.7
			c0,0,0,0,0,0l2.8,0c0.4,0,0.7-0.3,0.7-0.7C283.2,79.8,282.9,79.4,282.5,79.4z"/>
		<path class="st0" d="M260.2,79.6C260.2,79.6,260.2,79.6,260.2,79.6l-2.8,0c-0.4,0-0.7,0.3-0.7,0.7c0,0.4,0.3,0.7,0.7,0.7l2.8,0
			c0.4,0,0.7-0.3,0.7-0.7C260.9,79.9,260.6,79.6,260.2,79.6z"/>
		<path class="st0" d="M251.8,79.5L251.8,79.5c-0.4,0-0.7,0.3-0.7,0.7c0,0.4,0.3,0.7,0.7,0.7l2.8,0l0-0.7l0-0.7L251.8,79.5z"/>
		<path class="st0" d="M271.4,79.5C271.4,79.5,271.3,79.5,271.4,79.5l-2.8,0c-0.4,0-0.7,0.3-0.7,0.7c0,0.4,0.3,0.7,0.7,0.7
			c0,0,0,0,0,0l2.8,0c0.4,0,0.7-0.3,0.7-0.7C272,79.8,271.7,79.5,271.4,79.5z"/>
		<path class="st0" d="M265.8,79.5C265.8,79.5,265.8,79.5,265.8,79.5l-2.8,0c-0.4,0-0.7,0.3-0.7,0.7c0,0.4,0.3,0.7,0.7,0.7
			c0,0,0,0,0,0l2.8,0c0.4,0,0.7-0.3,0.7-0.7C266.5,79.8,266.2,79.5,265.8,79.5z"/>
		<path class="st0" d="M247.7,79.3c0-0.9,0.1-1.9,0.1-2.8c0-0.4-0.3-0.7-0.7-0.7c-0.4,0-0.7,0.3-0.7,0.7c0,0.9-0.1,1.9-0.1,2.8
			c0,0.1,0,0.2,0,0.2h-0.1c-0.4,0.1-0.7,0.3-0.7,0.7c0,0.4,0.3,0.7,0.7,0.7l2.8,0c0,0,0,0,0,0c0.4,0,0.7-0.3,0.7-0.7
			c0-0.4-0.3-0.7-0.7-0.7l-1.4,0C247.7,79.5,247.7,79.4,247.7,79.3z"/>
		<path class="st0" d="M321.4,78.6c-0.9,0.1-1.8,0.2-2.8,0.2c-0.4,0-0.7,0.4-0.6,0.7c0,0.4,0.3,0.6,0.7,0.6c0,0,0,0,0.1,0
			c0.9-0.1,1.9-0.1,2.8-0.2c0.4,0,0.7-0.4,0.6-0.8C322.2,78.9,321.8,78.6,321.4,78.6z"/>
		<path class="st0" d="M338,76.6c-0.9,0.1-1.8,0.3-2.7,0.4c-0.4,0.1-0.6,0.4-0.6,0.8c0,0.3,0.3,0.6,0.7,0.6c0,0,0.1,0,0.1,0
			c0.9-0.1,1.9-0.3,2.8-0.4c0.4-0.1,0.6-0.4,0.6-0.8C338.7,76.8,338.4,76.6,338,76.6z"/>
		<path class="st0" d="M327,78.1c-0.9,0.1-1.8,0.2-2.8,0.3c-0.4,0-0.7,0.4-0.6,0.8c0,0.4,0.3,0.6,0.7,0.6c0,0,0,0,0.1,0
			c0.9-0.1,1.9-0.2,2.8-0.3c0.4,0,0.7-0.4,0.6-0.8C327.7,78.3,327.4,78,327,78.1z"/>
		<path class="st0" d="M332.5,77.4c-0.9,0.1-1.8,0.2-2.8,0.3c-0.4,0-0.7,0.4-0.6,0.8c0,0.4,0.3,0.6,0.7,0.6c0,0,0.1,0,0.1,0
			c0.9-0.1,1.9-0.2,2.8-0.3c0.4,0,0.7-0.4,0.6-0.8C333.2,77.6,332.9,77.4,332.5,77.4z"/>
		<path class="st0" d="M260.5,64.4C260.5,64.4,260.5,64.4,260.5,64.4l2.8,0c0.4,0,0.7-0.3,0.7-0.7c0-0.4-0.3-0.7-0.7-0.7h0l-2.8,0
			c-0.4,0-0.7,0.3-0.7,0.7C259.8,64.1,260.1,64.4,260.5,64.4z"/>
		<path class="st0" d="M293.9,64.2C293.9,64.2,293.9,64.2,293.9,64.2l2.8,0c0.4,0,0.7-0.3,0.7-0.7c0-0.4-0.3-0.7-0.7-0.7
			c0,0,0,0,0,0l-2.8,0c-0.4,0-0.7,0.3-0.7,0.7C293.2,63.9,293.5,64.2,293.9,64.2z"/>
		<path class="st0" d="M271.6,64.3C271.6,64.3,271.6,64.3,271.6,64.3l2.8,0c0.4,0,0.7-0.3,0.7-0.7c0-0.4-0.3-0.7-0.7-0.7
			c0,0,0,0,0,0l-2.8,0c-0.4,0-0.7,0.3-0.7,0.7C270.9,64,271.3,64.3,271.6,64.3z"/>
		<path class="st0" d="M277.2,64.3C277.2,64.3,277.2,64.3,277.2,64.3l2.8,0c0.4,0,0.7-0.3,0.7-0.7c0-0.4-0.3-0.7-0.7-0.7
			c0,0,0,0,0,0l-2.8,0c-0.4,0-0.7,0.3-0.7,0.7C276.5,64,276.8,64.3,277.2,64.3z"/>
		<path class="st0" d="M266.1,64.4C266.1,64.4,266.1,64.4,266.1,64.4l2.8,0c0.4,0,0.7-0.3,0.7-0.7c0-0.4-0.3-0.7-0.7-0.7l-2.8,0
			c-0.4,0-0.7,0.3-0.7,0.7C265.4,64.1,265.7,64.4,266.1,64.4z"/>
		<path class="st0" d="M288.4,64.2C288.4,64.2,288.4,64.2,288.4,64.2l2.8,0c0.4,0,0.7-0.3,0.7-0.7c0-0.4-0.3-0.7-0.7-0.7
			c0,0,0,0,0,0l-2.7,0c-0.4,0-0.7,0.3-0.7,0.7C287.7,63.9,288,64.2,288.4,64.2z"/>
		<path class="st0" d="M310.6,64.1C310.7,64.1,310.7,64.1,310.6,64.1c0.9,0,1.9-0.1,2.8-0.1c0.4,0,0.7-0.3,0.7-0.7
			c0-0.4-0.4-0.7-0.7-0.7c-0.9,0-1.9,0.1-2.8,0.1c-0.4,0-0.7,0.3-0.7,0.7C310,63.8,310.3,64.1,310.6,64.1z"/>
		<path class="st0" d="M282.8,64.2C282.8,64.2,282.8,64.2,282.8,64.2l2.8,0c0.4,0,0.6-0.3,0.6-0.7c0-0.4-0.4-0.7-0.7-0.7
			c0,0,0,0,0,0l-2.7,0c-0.4,0-0.7,0.3-0.7,0.7C282.1,63.9,282.4,64.2,282.8,64.2z"/>
		<path class="st0" d="M332.9,62.2C332.9,62.2,332.9,62.2,332.9,62.2c1-0.1,2-0.3,2.9-0.4c0.4-0.1,0.6-0.4,0.6-0.8
			c-0.1-0.4-0.4-0.6-0.8-0.6c-0.9,0.1-1.8,0.3-2.7,0.4c-0.4,0.1-0.6,0.4-0.6,0.8C332.2,62,332.5,62.2,332.9,62.2z"/>
		<path class="st0" d="M316.2,63.8C316.2,63.8,316.2,63.8,316.2,63.8c1-0.1,1.9-0.1,2.8-0.2c0.4,0,0.7-0.4,0.6-0.7
			c0-0.4-0.3-0.7-0.7-0.6c-0.9,0.1-1.8,0.1-2.8,0.2c-0.4,0-0.7,0.4-0.7,0.7C315.5,63.5,315.8,63.8,316.2,63.8z"/>
		<path class="st0" d="M321.8,63.4C321.8,63.4,321.8,63.4,321.8,63.4c1-0.1,1.9-0.2,2.8-0.3c0.4,0,0.7-0.4,0.6-0.8
			c0-0.4-0.4-0.7-0.8-0.6c-0.9,0.1-1.8,0.2-2.8,0.2c-0.4,0-0.7,0.4-0.6,0.8C321.1,63.1,321.4,63.4,321.8,63.4z"/>
		<path class="st0" d="M327.3,62.9C327.3,62.9,327.4,62.9,327.3,62.9c1-0.1,1.9-0.2,2.9-0.3c0.4,0,0.7-0.4,0.6-0.8
			c0-0.4-0.4-0.7-0.8-0.6c-0.9,0.1-1.8,0.2-2.8,0.3c-0.4,0-0.7,0.4-0.6,0.8C326.7,62.6,327,62.9,327.3,62.9z"/>
		<path class="st0" d="M182.5,62.8l2.8,0.1c0,0,0,0,0,0c0.4,0,0.7-0.3,0.7-0.7c0-0.4-0.3-0.7-0.7-0.7l-2.8-0.1
			c-0.4,0-0.7,0.3-0.7,0.7C181.8,62.4,182.1,62.7,182.5,62.8z"/>
		<path class="st0" d="M210.3,63.8l2.8,0.1c0,0,0,0,0,0c0.4,0,0.7-0.3,0.7-0.7c0-0.4-0.3-0.7-0.7-0.7l-2.8-0.1
			c-0.4,0-0.7,0.3-0.7,0.7C209.6,63.4,209.9,63.7,210.3,63.8z"/>
		<path class="st0" d="M215.9,63.9l2.8,0.1c0,0,0,0,0,0c0.4,0,0.7-0.3,0.7-0.7c0-0.4-0.3-0.7-0.7-0.7l-2.8-0.1
			c-0.5,0-0.7,0.3-0.7,0.7C215.2,63.6,215.5,63.9,215.9,63.9z"/>
		<path class="st0" d="M188,63l2.8,0.1c0,0,0,0,0,0c0.4,0,0.7-0.3,0.7-0.7c0-0.4-0.3-0.7-0.7-0.7l-2.8-0.1c-0.4,0-0.7,0.3-0.7,0.7
			C187.4,62.7,187.7,63,188,63z"/>
		<path class="st0" d="M343.9,60.4c0,0,0.1,0,0.1,0c0.9-0.2,1.9-0.4,2.7-0.6c0.4-0.1,0.6-0.5,0.5-0.8c-0.1-0.4-0.5-0.6-0.8-0.5
			c-0.9,0.2-1.8,0.4-2.7,0.6c-0.4,0.1-0.6,0.4-0.5,0.8C343.2,60.1,343.5,60.4,343.9,60.4z"/>
		<path class="st0" d="M196.5,61.9l-2.8-0.1c-0.3,0-0.7,0.3-0.7,0.7c0,0.4,0.3,0.7,0.7,0.7l2.8,0.1c0,0,0,0,0,0
			c0.4,0,0.7-0.3,0.7-0.7C197.1,62.3,196.8,61.9,196.5,61.9z"/>
		<path class="st0" d="M221.5,64l2.8,0.1c0,0,0,0,0,0c0.4,0,0.7-0.3,0.7-0.7c0-0.4-0.3-0.7-0.7-0.7l-2.8-0.1c0,0,0,0,0,0
			c-0.4,0-0.7,0.3-0.7,0.7C220.8,63.7,221.1,64,221.5,64z"/>
		<path class="st0" d="M249.3,64.4l2.8,0l0-0.7l-0.1-0.7l-2.7,0c0,0,0,0,0,0c-0.4,0-0.7,0.3-0.7,0.7C248.7,64.1,249,64.4,249.3,64.4
			z"/>
		<path class="st0" d="M338.4,61.4c0,0,0.1,0,0.1,0c0.9-0.2,1.9-0.3,2.8-0.5c0.4-0.1,0.6-0.4,0.6-0.8c-0.1-0.4-0.4-0.6-0.8-0.6
			c-0.9,0.2-1.8,0.3-2.7,0.5c-0.4,0.1-0.6,0.4-0.6,0.8C337.7,61.1,338,61.4,338.4,61.4z"/>
		<path class="st0" d="M254.9,64.4l0.4,0l2.4,0c0.4,0,0.7-0.3,0.7-0.7c0-0.4-0.3-0.7-0.7-0.7l0,0l-2.3,0l-0.4,0
			c-0.4,0-0.7,0.3-0.7,0.7C254.2,64.1,254.5,64.4,254.9,64.4z"/>
		<path class="st0" d="M238.2,64.3l2.8,0c0,0,0,0,0,0c0.4,0,0.7-0.3,0.7-0.7c0-0.4-0.3-0.7-0.7-0.7l-2.8,0c0,0,0,0,0,0
			c-0.4,0-0.7,0.3-0.7,0.7C237.5,64,237.8,64.3,238.2,64.3z"/>
		<path class="st0" d="M232.6,64.2l2.8,0c0,0,0,0,0,0c0.4,0,0.7-0.3,0.7-0.7c0-0.4-0.3-0.7-0.7-0.7l-2.8,0c-0.4,0-0.7,0.3-0.7,0.7
			C231.9,63.9,232.2,64.2,232.6,64.2z"/>
		<path class="st0" d="M227.1,64.1l2.8,0c0,0,0,0,0,0c0.4,0,0.7-0.3,0.7-0.7c0-0.4-0.3-0.7-0.7-0.7l-2.8,0c-0.4,0-0.7,0.3-0.7,0.7
			C226.4,63.8,226.7,64.1,227.1,64.1z"/>
		<path class="st0" d="M184.2,114.8c0.1,0,0.3,0,0.4-0.1c0.8-0.5,1.5-1.1,2.3-1.7c0.3-0.2,0.3-0.7,0.1-1c-0.3-0.3-0.7-0.3-1-0.1
			c-0.7,0.6-1.4,1.1-2.1,1.6c-0.3,0.2-0.4,0.7-0.2,1C183.8,114.7,184,114.8,184.2,114.8z"/>
		<path class="st0" d="M188.5,111.2c0.2,0,0.4-0.1,0.5-0.2c0.6-0.7,1.3-1.4,1.8-2.2c0.2-0.3,0.2-0.7-0.1-1c-0.3-0.2-0.7-0.2-1,0.1
			c-0.6,0.7-1.1,1.4-1.8,2.1c-0.3,0.3-0.2,0.7,0,1C188.1,111.1,188.3,111.2,188.5,111.2z"/>
		<path class="st0" d="M191.5,106.7c0.1,0.1,0.2,0.1,0.4,0.1c0.2,0,0.5-0.1,0.6-0.3c0.5-0.8,1-1.6,1.4-2.5c0.2-0.3,0-0.8-0.3-0.9
			c-0.3-0.2-0.8,0-0.9,0.3c-0.4,0.8-0.9,1.6-1.3,2.4C191,106.1,191.1,106.5,191.5,106.7z"/>
		<path class="st0" d="M196,96.6c0.1,0,0.1,0,0.2,0c0.3,0,0.6-0.2,0.7-0.5c0.2-0.9,0.5-1.8,0.7-2.7c0.1-0.4-0.2-0.7-0.5-0.8
			c-0.4-0.1-0.7,0.2-0.8,0.5c-0.2,0.9-0.4,1.8-0.7,2.7C195.4,96.1,195.7,96.5,196,96.6z"/>
		<path class="st0" d="M179.3,117.4c0.1,0,0.2,0,0.3,0c0.9-0.3,1.8-0.7,2.6-1.2c0.3-0.2,0.5-0.6,0.3-0.9c-0.2-0.3-0.6-0.5-0.9-0.3
			c-0.8,0.4-1.6,0.8-2.5,1.1c-0.4,0.1-0.5,0.5-0.4,0.9C178.8,117.2,179,117.4,179.3,117.4z"/>
		<path class="st0" d="M168.4,119.3L168.4,119.3c1,0,1.9,0,2.8-0.1c0.4,0,0.7-0.4,0.6-0.8c0-0.4-0.4-0.7-0.8-0.6
			c-0.9,0.1-1.8,0.1-2.7,0.1c-0.4,0-0.7,0.3-0.7,0.7C167.7,119,168,119.3,168.4,119.3z"/>
		<path class="st0" d="M174,118.9c0,0,0.1,0,0.1,0c0.9-0.2,1.9-0.4,2.8-0.6c0.4-0.1,0.6-0.5,0.5-0.9c-0.1-0.4-0.5-0.6-0.9-0.5
			c-0.9,0.2-1.8,0.4-2.7,0.6c-0.4,0.1-0.6,0.4-0.6,0.8C173.3,118.6,173.6,118.9,174,118.9z"/>
		<path class="st0" d="M194.1,101.8c0.1,0,0.2,0.1,0.3,0.1c0.3,0,0.5-0.2,0.6-0.4c0.4-0.9,0.7-1.7,1-2.6c0.1-0.4-0.1-0.8-0.4-0.9
			c-0.4-0.1-0.8,0.1-0.9,0.4c-0.3,0.9-0.6,1.7-1,2.6C193.6,101.2,193.8,101.6,194.1,101.8z"/>
		<path class="st0" d="M184.7,118.1c-0.3,0.2-0.4,0.6-0.2,1c0.1,0.2,0.4,0.3,0.6,0.3c0.1,0,0.2,0,0.4-0.1c0.8-0.5,1.6-1,2.4-1.6
			c0.3-0.2,0.4-0.7,0.1-1c-0.2-0.3-0.7-0.4-1-0.1C186.2,117.1,185.4,117.6,184.7,118.1z"/>
		<path class="st0" d="M182.3,119.4c-0.8,0.4-1.7,0.7-2.5,1.1c-0.4,0.1-0.5,0.5-0.4,0.9c0.1,0.3,0.4,0.5,0.7,0.5c0.1,0,0.2,0,0.2,0
			c0.9-0.3,1.8-0.7,2.6-1.1c0.3-0.2,0.5-0.6,0.3-0.9C183,119.3,182.6,119.2,182.3,119.4z"/>
		<path class="st0" d="M169.1,122.3c-0.4,0-0.7,0.3-0.7,0.7c0,0.4,0.3,0.7,0.7,0.7c0,0,0,0,0,0c1,0,1.9-0.1,2.8-0.2
			c0.4,0,0.7-0.4,0.6-0.8c0-0.4-0.4-0.7-0.8-0.6C170.9,122.2,170,122.3,169.1,122.3z"/>
		<path class="st0" d="M174.5,121.8c-0.4,0.1-0.6,0.4-0.6,0.8c0.1,0.3,0.4,0.6,0.7,0.6c0,0,0.1,0,0.1,0c0.9-0.2,1.9-0.4,2.8-0.6
			c0.4-0.1,0.6-0.5,0.5-0.9c-0.1-0.4-0.5-0.6-0.9-0.5C176.3,121.5,175.4,121.7,174.5,121.8z"/>
		<path class="st0" d="M190.9,112.9c-0.6,0.7-1.3,1.3-1.9,1.9c-0.3,0.3-0.3,0.7,0,1c0.1,0.2,0.3,0.2,0.5,0.2c0.2,0,0.3-0.1,0.5-0.2
			c0.7-0.6,1.4-1.3,2-2c0.3-0.3,0.2-0.7,0-1C191.6,112.6,191.2,112.6,190.9,112.9z"/>
		<path class="st0" d="M196.8,103.8c-0.4,0.8-0.8,1.7-1.2,2.4c-0.2,0.3-0.1,0.8,0.3,0.9c0.1,0.1,0.2,0.1,0.3,0.1
			c0.2,0,0.5-0.1,0.6-0.4c0.4-0.8,0.9-1.7,1.3-2.5c0.2-0.4,0-0.8-0.3-0.9C197.4,103.3,197,103.4,196.8,103.8z"/>
		<path class="st0" d="M198.3,102.2c0.1,0,0.2,0,0.3,0c0.3,0,0.5-0.2,0.6-0.4c0.3-0.9,0.6-1.8,0.9-2.7c0.1-0.4-0.1-0.8-0.4-0.9
			c-0.4-0.1-0.8,0.1-0.9,0.5c-0.3,0.9-0.6,1.7-0.9,2.6C197.8,101.6,197.9,102,198.3,102.2z"/>
		<path class="st0" d="M195.2,108.4c-0.3-0.2-0.8-0.1-1,0.2c-0.5,0.8-1,1.5-1.6,2.2c-0.2,0.3-0.2,0.7,0.1,1c0.1,0.1,0.3,0.1,0.4,0.1
			c0.2,0,0.4-0.1,0.6-0.3c0.6-0.7,1.1-1.5,1.6-2.3C195.6,109,195.5,108.6,195.2,108.4z"/>
		<path class="st0" d="M200.1,96.9c0.1,0,0.1,0,0.2,0c0.3,0,0.6-0.2,0.7-0.5c0.2-0.9,0.5-1.8,0.7-2.7c0.1-0.4-0.2-0.7-0.5-0.8
			c-0.4-0.1-0.7,0.2-0.8,0.5c-0.2,0.9-0.4,1.8-0.6,2.7C199.5,96.4,199.7,96.8,200.1,96.9z"/>
		<path class="st0" d="M183.8,100.9c-0.4,0-0.7,0.2-0.8,0.6l-0.3,2.8c0,0.4,0.2,0.7,0.6,0.8c0,0,0.1,0,0.1,0c0.3,0,0.7-0.3,0.7-0.6
			l0.3-2.8C184.4,101.3,184.2,100.9,183.8,100.9z"/>
		<path class="st0" d="M176.2,97.5l2.8,0.1c0,0,0,0,0,0c0.4,0,0.7-0.3,0.7-0.7c0-0.4-0.3-0.7-0.7-0.7l-2.8-0.1
			c-0.4,0-0.7,0.3-0.7,0.7C175.5,97.1,175.8,97.5,176.2,97.5z"/>
		<path class="st0" d="M181.7,97.8l1.7,0.1l-0.1,0.9c0,0.4,0.2,0.7,0.6,0.8c0,0,0.1,0,0.1,0c0.3,0,0.7-0.3,0.7-0.6l0.1-1
			c0.2-0.1,0.4-0.3,0.4-0.6c0-0.2-0.1-0.4-0.3-0.6l0.1-0.6c0-0.4-0.2-0.7-0.6-0.8c-0.4,0-0.7,0.2-0.8,0.6l-0.1,0.5l-1.8-0.1
			c-0.4,0-0.7,0.3-0.7,0.7C181.1,97.4,181.4,97.8,181.7,97.8z"/>
		<g>
			<path class="st0" d="M255.5,66.4c-2.9,0-5.2,2.3-5.2,5.2c0,2.9,2.3,5.2,5.2,5.2c2.9,0,5.2-2.3,5.2-5.2
				C260.8,68.8,258.4,66.4,255.5,66.4z"/>
		</g>
	</g>
</g>
</svg>
