<?xml version="1.0" encoding="utf-8"?>
<!-- Generator: Adobe Illustrator 21.1.0, SVG Export Plug-In . SVG Version: 6.00 Build 0)  -->
<svg version="1.1" id="Layer_1" xmlns="http://www.w3.org/2000/svg" xmlns:xlink="http://www.w3.org/1999/xlink" x="0px" y="0px"
	 viewBox="0 0 457.4 682" style="enable-background:new 0 0 457.4 682;" xml:space="preserve">
<style type="text/css">
	.st0{fill:#D9248F;}
</style>
<g>
	<g>
		<path class="st0" d="M203.2,560c0,0,0.1,0,0.1,0l2.7-0.5c0.4-0.1,0.6-0.4,0.5-0.8c-0.1-0.4-0.4-0.6-0.8-0.5l-2.7,0.5
			c-0.4,0.1-0.6,0.4-0.6,0.8C202.6,559.8,202.9,560,203.2,560z"/>
		<path class="st0" d="M197.7,561c0,0,0.1,0,0.1,0c0.9-0.2,1.9-0.3,2.8-0.5c0.4-0.1,0.6-0.4,0.6-0.8c-0.1-0.4-0.4-0.6-0.8-0.6
			c-0.9,0.2-1.8,0.3-2.7,0.5c-0.4,0.1-0.6,0.4-0.6,0.8C197.1,560.8,197.4,561,197.7,561z"/>
		<path class="st0" d="M192.2,562c0,0,0.1,0,0.1,0c0.9-0.1,1.8-0.3,2.8-0.5c0.4-0.1,0.6-0.4,0.6-0.8c-0.1-0.4-0.4-0.6-0.8-0.6
			c-1,0.2-1.9,0.3-2.7,0.5c-0.4,0.1-0.6,0.4-0.6,0.8C191.6,561.8,191.9,562,192.2,562z"/>
		<path class="st0" d="M189.4,561c-0.4,0-0.7,0.1-1,0.1c-0.5,0-1,0-1.7,0c-0.4,0-0.7,0.3-0.7,0.7c0,0.4,0.3,0.7,0.7,0.7
			c0.4,0,0.8,0,1.1,0c0.3,0,0.5,0,0.7,0c0.3,0,0.6,0,1.1-0.1c0.4,0,0.7-0.4,0.6-0.8C190.1,561.2,189.8,561,189.4,561z"/>
		<path class="st0" d="M173,559c-0.9-0.2-1.8-0.4-2.7-0.6c-0.4-0.1-0.7,0.1-0.8,0.5c-0.1,0.4,0.1,0.7,0.5,0.8
			c0.9,0.2,1.8,0.4,2.7,0.6c0,0,0.1,0,0.1,0c0.3,0,0.6-0.2,0.7-0.6C173.7,559.4,173.4,559.1,173,559z"/>
		<path class="st0" d="M178.5,560c-0.9-0.2-1.8-0.3-2.7-0.5c-0.4-0.1-0.7,0.2-0.8,0.6c-0.1,0.4,0.2,0.7,0.6,0.8
			c1,0.2,1.9,0.4,2.8,0.5c0,0,0.1,0,0.1,0c0.3,0,0.6-0.2,0.7-0.6C179.1,560.5,178.9,560.1,178.5,560z"/>
		<path class="st0" d="M184,560.8c-0.8-0.1-1.8-0.2-2.7-0.4c-0.4-0.1-0.7,0.2-0.8,0.6c-0.1,0.4,0.2,0.7,0.6,0.8
			c1,0.1,1.9,0.3,2.8,0.4c0,0,0.1,0,0.1,0c0.3,0,0.7-0.3,0.7-0.6C184.6,561.2,184.3,560.9,184,560.8z"/>
		<path class="st0" d="M318.7,72.9l-2.8,0.1c-0.4,0-0.7,0.3-0.7,0.7c0,0.4,0.3,0.7,0.7,0.7c0,0,0,0,0,0l2.8-0.1
			c0.4,0,0.7-0.3,0.7-0.7C319.4,73.1,319.1,72.8,318.7,72.9z"/>
		<path class="st0" d="M240.7,74.6L240.7,74.6l-2.8,0c-0.4,0-0.7,0.3-0.7,0.7c0,0.4,0.3,0.7,0.7,0.7l0,0l2.8,0
			c0.4,0,0.7-0.3,0.7-0.7C241.4,74.9,241.1,74.6,240.7,74.6z"/>
		<path class="st0" d="M246.3,74.6l-2.8,0c-0.4,0-0.7,0.3-0.7,0.7c0,0.4,0.3,0.7,0.7,0.7c0,0,0,0,0,0l2.8,0c0.4,0,0.7-0.3,0.7-0.7
			C247,74.9,246.7,74.6,246.3,74.6z"/>
		<path class="st0" d="M232.3,74.6c-0.4,0-0.6,0.3-0.6,0.7c0,0.4,0.4,0.7,0.7,0.7l2.7,0l0-1.4L232.3,74.6z"/>
		<path class="st0" d="M201.7,74.5l-2.8,0c0,0,0,0,0,0c-0.4,0-0.7,0.3-0.7,0.7c0,0.4,0.3,0.7,0.7,0.7l2.8,0c0,0,0,0,0,0
			c0.4,0,0.7-0.3,0.7-0.7C202.4,74.8,202.1,74.5,201.7,74.5z"/>
		<path class="st0" d="M324.2,72.5l-2.8,0.2c-0.4,0-0.7,0.4-0.7,0.7c0,0.4,0.3,0.7,0.7,0.7c0,0,0,0,0,0l2.8-0.2
			c0.4,0,0.7-0.4,0.7-0.7C325,72.8,324.6,72.5,324.2,72.5z"/>
		<path class="st0" d="M229.6,74.6l-2.8,0c0,0,0,0,0,0c-0.4,0-0.7,0.3-0.7,0.7c0,0.4,0.3,0.7,0.7,0.7l2.8,0c0.4,0,0.7-0.3,0.7-0.7
			C230.3,75,229.9,74.6,229.6,74.6z"/>
		<path class="st0" d="M221.2,76l2.8,0l0,0c0.4,0,0.7-0.3,0.7-0.7c0-0.4-0.3-0.7-0.7-0.7l-2.8,0c0,0,0,0,0,0c-0.4,0-0.7,0.3-0.7,0.7
			C220.5,75.7,220.8,76,221.2,76z"/>
		<path class="st0" d="M185,74.3l-2.8,0c0,0,0,0,0,0c-0.4,0-0.7,0.3-0.7,0.7c0,0.4,0.3,0.7,0.7,0.7l2.8,0c0,0,0,0,0,0
			c0.4,0,0.7-0.3,0.7-0.7C185.7,74.7,185.4,74.3,185,74.3z"/>
		<path class="st0" d="M168.2,74.1l-2.8,0c-0.4,0-0.7,0.3-0.7,0.7c0,0.4,0.3,0.7,0.7,0.7l2.8,0c0,0,0,0,0,0c0.4,0,0.7-0.3,0.7-0.7
			C168.9,74.4,168.6,74.1,168.2,74.1z"/>
		<path class="st0" d="M196.1,74.5l-2.8,0c-0.3,0-0.7,0.3-0.7,0.7c0,0.4,0.3,0.7,0.7,0.7l2.8,0c0,0,0,0,0,0c0.4,0,0.7-0.3,0.7-0.7
			C196.8,74.8,196.5,74.5,196.1,74.5z"/>
		<path class="st0" d="M257.4,74.5C257.4,74.5,257.4,74.5,257.4,74.5l-2.8,0c-0.4,0-0.7,0.3-0.7,0.7c0,0.4,0.3,0.7,0.7,0.7
			c0,0,0,0,0,0l2.8,0c0.4,0,0.7-0.3,0.7-0.7C258.1,74.8,257.8,74.5,257.4,74.5z"/>
		<path class="st0" d="M151.5,73.8l-2.8-0.1c-0.4,0-0.7,0.3-0.7,0.7c0,0.4,0.3,0.7,0.7,0.7l2.8,0.1c0,0,0,0,0,0
			c0.4,0,0.7-0.3,0.7-0.7C152.2,74.1,151.9,73.8,151.5,73.8z"/>
		<path class="st0" d="M162.7,74l-2.8-0.1c-0.5,0-0.7,0.3-0.7,0.7c0,0.4,0.3,0.7,0.7,0.7l2.8,0.1c0,0,0,0,0,0c0.4,0,0.7-0.3,0.7-0.7
			C163.4,74.3,163.1,74,162.7,74z"/>
		<path class="st0" d="M157.1,73.9l-2.8-0.1c0,0,0,0,0,0c-0.4,0-0.7,0.3-0.7,0.7c0,0.4,0.3,0.7,0.7,0.7l2.8,0.1c0,0,0,0,0,0
			c0.4,0,0.7-0.3,0.7-0.7C157.8,74.2,157.5,73.9,157.1,73.9z"/>
		<path class="st0" d="M190.5,74.4l-2.8,0c-0.3,0-0.7,0.3-0.7,0.7c0,0.4,0.3,0.7,0.7,0.7l2.8,0c0,0,0,0,0,0c0.4,0,0.7-0.3,0.7-0.7
			C191.2,74.7,190.9,74.4,190.5,74.4z"/>
		<path class="st0" d="M279.7,74.2l-2.8,0.1c-0.4,0-0.7,0.3-0.7,0.7c0,0.4,0.3,0.7,0.7,0.7c0,0,0,0,0,0l2.8-0.1
			c0.4,0,0.7-0.3,0.7-0.7C280.4,74.5,280,74.2,279.7,74.2z"/>
		<path class="st0" d="M209.4,75.3c0,0.4,0.3,0.7,0.7,0.7l2.8,0h0c0.4,0,0.7-0.3,0.7-0.7c0-0.4-0.3-0.7-0.7-0.7l-2.8,0
			C209.7,74.6,209.4,74.9,209.4,75.3z"/>
		<path class="st0" d="M307.6,73.4l-2.8,0.1c-0.4,0-0.7,0.3-0.7,0.7c0,0.4,0.3,0.7,0.7,0.7c0,0,0,0,0,0l2.8-0.1
			c0.4,0,0.7-0.3,0.7-0.7C308.3,73.7,307.9,73.4,307.6,73.4z"/>
		<path class="st0" d="M296.4,73.8l-2.8,0.1c-0.4,0-0.7,0.3-0.7,0.7c0,0.4,0.3,0.7,0.7,0.7c0,0,0,0,0,0l2.8-0.1
			c0.4,0,0.7-0.3,0.7-0.7C297.1,74.1,296.8,73.7,296.4,73.8z"/>
		<path class="st0" d="M290.9,74C290.9,74,290.9,74,290.9,74l-2.8,0.1c-0.4,0-0.7,0.3-0.7,0.7c0,0.4,0.3,0.7,0.7,0.7c0,0,0,0,0,0
			l2.8-0.1c0.4,0,0.7-0.3,0.7-0.7C291.6,74.3,291.2,74,290.9,74z"/>
		<path class="st0" d="M302,73.6C302,73.6,302,73.6,302,73.6l-2.8,0.1c-0.4,0-0.7,0.3-0.7,0.7c0,0.4,0.3,0.7,0.7,0.7c0,0,0,0,0,0
			L302,75c0.4,0,0.7-0.3,0.7-0.7C302.7,73.9,302.4,73.6,302,73.6z"/>
		<path class="st0" d="M285.3,74.1C285.3,74.1,285.3,74.1,285.3,74.1l-2.8,0.1c-0.4,0-0.7,0.3-0.7,0.7c0,0.4,0.3,0.7,0.7,0.7
			c0,0,0,0,0,0l2.8-0.1c0.4,0,0.7-0.3,0.7-0.7C286,74.4,285.7,74.1,285.3,74.1z"/>
		<path class="st0" d="M259.5,75.2c0,0.4,0.3,0.7,0.7,0.7c0,0,0,0,0,0l2.8,0c0.4,0,0.7-0.3,0.7-0.7c0-0.4-0.3-0.7-0.7-0.7l-2.8,0
			C259.8,74.5,259.5,74.8,259.5,75.2z"/>
		<path class="st0" d="M313.1,73.1l-2.8,0.1c-0.4,0-0.7,0.3-0.7,0.7c0,0.4,0.3,0.7,0.7,0.7c0,0,0,0,0,0l2.8-0.1
			c0.4,0,0.7-0.3,0.7-0.7C313.8,73.4,313.5,73.1,313.1,73.1z"/>
		<path class="st0" d="M207.3,74.6l-2.8,0c0,0,0,0,0,0c-0.4,0-0.7,0.3-0.7,0.7c0,0.4,0.3,0.7,0.7,0.7l2.8,0h0c0.4,0,0.7-0.3,0.7-0.7
			C208,74.9,207.7,74.6,207.3,74.6z"/>
		<path class="st0" d="M249,74.6c-0.4,0-0.7,0.3-0.7,0.7c0,0.4,0.3,0.7,0.7,0.7c0,0,0,0,0,0l2.8,0l0-1.4L249,74.6z"/>
		<path class="st0" d="M229.6,60.8l2.8,0c0,0,0,0,0,0c0.4,0,0.7-0.3,0.7-0.7c0-0.4-0.3-0.7-0.7-0.7l-2.8,0l0,0
			c-0.4,0-0.7,0.3-0.7,0.7C228.9,60.5,229.2,60.8,229.6,60.8z"/>
		<path class="st0" d="M224,60.8l2.8,0c0,0,0,0,0,0c0.4,0,0.7-0.3,0.7-0.7c0-0.4-0.3-0.7-0.7-0.7l-2.8,0c-0.4,0-0.7,0.3-0.7,0.7
			C223.3,60.5,223.6,60.8,224,60.8z"/>
		<path class="st0" d="M235.1,60.8h2.8c0.4,0,0.7-0.3,0.7-0.7c0-0.4-0.3-0.7-0.7-0.7h-2.8c-0.4,0-0.7,0.3-0.7,0.7
			C234.4,60.5,234.8,60.8,235.1,60.8z"/>
		<path class="st0" d="M251.8,60.8C251.8,60.8,251.9,60.8,251.8,60.8l2.8,0c0.4,0,0.7-0.3,0.7-0.7c0-0.4-0.4-0.7-0.7-0.7l-2.8,0
			c-0.4,0-0.7,0.3-0.7,0.7C251.2,60.5,251.5,60.8,251.8,60.8z"/>
		<path class="st0" d="M246.3,60.8L246.3,60.8l2.8,0c0.4,0,0.7-0.3,0.7-0.7c0-0.4-0.3-0.7-0.7-0.7c0,0,0,0,0,0l-2.8,0
			c-0.4,0-0.7,0.3-0.7,0.7C245.6,60.5,245.9,60.8,246.3,60.8z"/>
		<path class="st0" d="M240.7,60.8C240.7,60.8,240.7,60.8,240.7,60.8l2.8,0c0.4,0,0.7-0.3,0.7-0.7c0-0.4-0.3-0.7-0.7-0.7l0,0l-2.8,0
			c-0.4,0-0.7,0.3-0.7,0.7C240,60.5,240.3,60.8,240.7,60.8z"/>
		<path class="st0" d="M257.4,60.7C257.4,60.7,257.4,60.7,257.4,60.7l2.8,0c0.4,0,0.7-0.3,0.7-0.7c0-0.4-0.3-0.7-0.7-0.7
			c0,0,0,0,0,0l-2.8,0c-0.4,0-0.7,0.3-0.7,0.7C256.7,60.4,257,60.7,257.4,60.7z"/>
		<path class="st0" d="M201.7,60.6l2.8,0c0,0,0,0,0,0c0.4,0,0.7-0.3,0.7-0.7c0-0.4-0.3-0.7-0.7-0.7l-2.8,0c-0.5,0-0.7,0.3-0.7,0.7
			C201,60.3,201.3,60.6,201.7,60.6z"/>
		<path class="st0" d="M157.1,59.8l2.8,0.1c0,0,0,0,0,0c0.4,0,0.7-0.3,0.7-0.7c0-0.4-0.3-0.7-0.7-0.7l-2.8-0.1
			c-0.4,0-0.7,0.3-0.7,0.7C156.4,59.5,156.7,59.8,157.1,59.8z"/>
		<path class="st0" d="M196.1,60.5l2.8,0c0,0,0,0,0,0c0.4,0,0.7-0.3,0.7-0.7c0-0.4-0.3-0.7-0.7-0.7l-2.8,0c-0.4,0-0.7,0.3-0.7,0.7
			C195.4,60.2,195.7,60.5,196.1,60.5z"/>
		<path class="st0" d="M151.6,59.7l2.6,0.1c0,0,0,0,0,0c0.4,0,0.7-0.3,0.7-0.7c0-0.4-0.3-0.7-0.7-0.7l-2.8-0.1
			c-0.4,0-0.6,0.3-0.6,0.7C150.9,59.4,151.3,59.7,151.6,59.7z"/>
		<path class="st0" d="M190.5,60.5l2.8,0c0,0,0,0,0,0c0.4,0,0.7-0.3,0.7-0.7c0-0.4-0.3-0.7-0.7-0.7l-2.8,0c-0.4,0-0.7,0.3-0.7,0.7
			C189.8,60.2,190.2,60.5,190.5,60.5z"/>
		<path class="st0" d="M207.3,60.7l2.8,0c0,0,0,0,0,0c0.4,0,0.7-0.3,0.7-0.7c0-0.4-0.3-0.7-0.7-0.7l-2.8,0c0,0,0,0,0,0
			c-0.4,0-0.7,0.3-0.7,0.7C206.6,60.4,206.9,60.7,207.3,60.7z"/>
		<path class="st0" d="M324.3,58.6C324.3,58.6,324.3,58.6,324.3,58.6c1-0.1,1.9-0.1,2.8-0.2c0.4,0,0.7-0.4,0.6-0.7
			c0-0.4-0.3-0.7-0.7-0.6c-0.9,0.1-1.8,0.1-2.8,0.2c-0.4,0-0.7,0.4-0.6,0.7C323.6,58.3,323.9,58.6,324.3,58.6z"/>
		<path class="st0" d="M313.2,59.3C313.2,59.3,313.2,59.3,313.2,59.3l2.8-0.2c0.4,0,0.7-0.4,0.7-0.7c0-0.4-0.3-0.7-0.7-0.7l-2.8,0.1
			c-0.4,0-0.7,0.3-0.7,0.7C312.5,59,312.8,59.3,313.2,59.3z"/>
		<path class="st0" d="M318.7,59C318.7,59,318.8,59,318.7,59l2.8-0.2c0.4,0,0.7-0.4,0.7-0.7c0-0.4-0.3-0.7-0.7-0.7c0,0,0,0,0,0
			l-2.8,0.2c-0.4,0-0.7,0.4-0.7,0.7C318.1,58.7,318.4,59,318.7,59z"/>
		<path class="st0" d="M185,60.4l2.8,0c0,0,0,0,0,0c0.4,0,0.7-0.3,0.7-0.7c0-0.4-0.3-0.7-0.7-0.7l-2.8,0c-0.4,0-0.7,0.3-0.7,0.7
			C184.3,60.1,184.6,60.4,185,60.4z"/>
		<path class="st0" d="M179.4,60.3l2.8,0c0,0,0,0,0,0c0.4,0,0.7-0.3,0.7-0.7c0-0.4-0.3-0.7-0.7-0.7l-2.8,0c-0.4,0-0.7,0.3-0.7,0.7
			C178.7,60,179,60.3,179.4,60.3z"/>
		<path class="st0" d="M162.7,60l2.8,0.1c0,0,0,0,0,0c0.4,0,0.7-0.3,0.7-0.7c0-0.4-0.3-0.7-0.7-0.7l-2.8-0.1c-0.4,0-0.7,0.3-0.7,0.7
			C162,59.6,162.3,60,162.7,60z"/>
		<path class="st0" d="M307.6,59.5C307.6,59.5,307.6,59.5,307.6,59.5l2.8-0.1c0.4,0,0.7-0.3,0.7-0.7s-0.3-0.7-0.7-0.7l-2.8,0.1
			c-0.4,0-0.7,0.3-0.7,0.7C306.9,59.3,307.2,59.5,307.6,59.5z"/>
		<path class="st0" d="M285.3,60.3C285.3,60.3,285.3,60.3,285.3,60.3l2.8-0.1c0.4,0,0.7-0.3,0.7-0.7c0-0.4-0.3-0.7-0.7-0.7l-2.8,0.1
			c-0.4,0-0.7,0.3-0.7,0.7C284.6,60,284.9,60.3,285.3,60.3z"/>
		<path class="st0" d="M279.7,60.4C279.8,60.4,279.8,60.4,279.7,60.4l2.8-0.1c0.4,0,0.7-0.3,0.7-0.7c0-0.4-0.3-0.7-0.7-0.7l-2.8,0.1
			c-0.4,0-0.7,0.3-0.7,0.7C279.1,60.1,279.4,60.4,279.7,60.4z"/>
		<path class="st0" d="M302,59.8C302,59.8,302.1,59.8,302,59.8l2.8-0.1c0.4,0,0.7-0.3,0.7-0.7c0-0.4-0.3-0.7-0.7-0.7l-2.8,0.1
			c-0.4,0-0.7,0.3-0.7,0.7C301.3,59.5,301.7,59.8,302,59.8z"/>
		<path class="st0" d="M274.2,60.5C274.2,60.5,274.2,60.5,274.2,60.5l2.8,0c0.4,0,0.7-0.3,0.7-0.7c0-0.4-0.3-0.7-0.7-0.7l-2.8,0
			c-0.4,0-0.7,0.3-0.7,0.7C273.5,60.2,273.8,60.5,274.2,60.5z"/>
		<path class="st0" d="M296.5,60C296.5,60,296.5,60,296.5,60l2.8-0.1c0.4,0,0.7-0.3,0.7-0.7c0-0.4-0.3-0.7-0.7-0.7l-2.8,0.1
			c-0.4,0-0.7,0.3-0.7,0.7C295.8,59.7,296.1,60,296.5,60z"/>
		<path class="st0" d="M290.9,60.1C290.9,60.1,290.9,60.1,290.9,60.1l2.8-0.1c0.4,0,0.7-0.3,0.7-0.7c0-0.4-0.3-0.7-0.7-0.7l-2.8,0.1
			c-0.4,0-0.7,0.3-0.7,0.7C290.2,59.8,290.5,60.1,290.9,60.1z"/>
		<path class="st0" d="M149,89l-2.8,0c0,0,0,0,0,0c-0.4,0-0.7,0.3-0.7,0.7c0,0.4,0.3,0.7,0.7,0.7l2.8,0c0,0,0,0,0,0
			c0.4,0,0.7-0.3,0.7-0.7C149.7,89.4,149.4,89,149,89z"/>
		<path class="st0" d="M154.6,89.1l-2.8,0c-0.3,0-0.7,0.3-0.7,0.7c0,0.4,0.3,0.7,0.7,0.7l2.8,0c0,0,0,0,0,0c0.4,0,0.7-0.3,0.7-0.7
			C155.3,89.5,155,89.1,154.6,89.1z"/>
		<path class="st0" d="M302.5,565.2c0.9,0.1,1.8,0.2,2.8,0.4c0,0,0.1,0,0.1,0c0.3,0,0.6-0.3,0.7-0.6c0-0.4-0.2-0.7-0.6-0.8
			c-1-0.1-1.9-0.2-2.8-0.4c-0.4-0.1-0.7,0.2-0.8,0.6C301.8,564.8,302.1,565.1,302.5,565.2z"/>
		<path class="st0" d="M308,565.9c0.9,0.1,1.8,0.2,2.8,0.3c0,0,0,0,0.1,0c0.4,0,0.7-0.3,0.7-0.6c0-0.4-0.2-0.7-0.6-0.8
			c-0.9-0.1-1.9-0.2-2.8-0.3c-0.4,0-0.7,0.2-0.8,0.6C307.4,565.5,307.6,565.8,308,565.9z"/>
		<path class="st0" d="M330.3,565.7c0,0,0.1,0,0.1,0c1-0.2,1.9-0.4,2.8-0.6c0.4-0.1,0.6-0.5,0.5-0.9c-0.1-0.4-0.5-0.6-0.9-0.5
			c-0.8,0.2-1.7,0.4-2.7,0.6c-0.4,0.1-0.6,0.4-0.5,0.8C329.7,565.5,330,565.7,330.3,565.7z"/>
		<path class="st0" d="M319.2,566.7c0.4,0,0.7,0,1.1,0c0.6,0,1.2,0,1.7,0c0.4,0,0.7-0.3,0.7-0.7c0-0.4-0.3-0.7-0.7-0.7c0,0,0,0,0,0
			c-0.9,0-1.8,0-2.8,0c0,0,0,0,0,0c-0.4,0-0.7,0.3-0.7,0.7C318.5,566.4,318.8,566.7,319.2,566.7z"/>
		<path class="st0" d="M313.6,566.4c0.9,0.1,1.9,0.1,2.8,0.2c0,0,0,0,0,0c0.4,0,0.7-0.3,0.7-0.7c0-0.4-0.3-0.7-0.7-0.7
			c-0.9,0-1.8-0.1-2.8-0.2c-0.4,0-0.7,0.3-0.7,0.6C312.9,566,313.2,566.4,313.6,566.4z"/>
		<path class="st0" d="M324.8,566.5C324.8,566.5,324.8,566.5,324.8,566.5c1-0.1,2-0.2,2.9-0.3c0.4-0.1,0.6-0.4,0.6-0.8
			c-0.1-0.4-0.4-0.7-0.8-0.6c-0.9,0.1-1.8,0.2-2.7,0.3c-0.4,0-0.7,0.4-0.6,0.8C324.1,566.2,324.4,566.5,324.8,566.5z"/>
		<path class="st0" d="M358.6,634.9c-0.2-1.1-0.5-2.2-0.5-2.8c0-0.2,0-0.4-0.1-0.6c-1-4.2-2.8-10.7-4.9-16.2
			c-2.6-6.9-4.8-10.7-7.4-12.4c-5-10.7-5.3-14.7-6.1-27c0-0.5-0.1-1-0.1-1.5c1-0.7,1.6-1.8,1.7-3l2.3-40.1c0,0,0-0.1,0-0.1
			c0-0.6,1.3-62.7,2.5-73c6.7-59.3,5.7-68.6,3.9-85.5l-0.2-1.8c-0.6-6-2.5-14.6-4.8-24.6c-2.4-10.8-5.1-23-6.5-33.4
			c-1.8-13.9,0.4-122.9,1.3-138.8c1.3-25.4-6-92.2-6.5-96.2l-1.5-22.5c-0.1-1.1-0.6-2-1.4-2.7c-0.6-0.5-1.3-0.8-2-0.9
			c-0.1-1.4-0.2-3.1-0.3-5c-0.3-4.4-0.7-9.8-0.7-15c0-0.5-0.4-1-1-1c-0.6,0-1,0.4-1,1c0,5.2,0.4,10.7,0.8,15.1
			c0.1,1.8,0.3,3.5,0.3,4.9c-14.2,1-32.5,1.7-54.7,2c-0.1,0-0.2-0.1-0.3-0.1l-3.3,0.1c-7.9,0.1-16.2,0.1-25,0.1
			c-26.6,0-52.5-0.4-70.8-0.8l-1.5-0.1c-0.1,0-0.2,0-0.3,0c-11.9-0.3-20.4-0.5-23.3-0.6c0.7-7.1,1.1-13,1.4-18.8c0-0.5-0.4-1-0.9-1
			c-0.5,0-1,0.4-1,0.9c-0.3,5.8-0.8,11.7-1.4,18.9c-1.7,0.3-3.1,1.7-3.2,3.5l-3.7,35.2c0,0.1,0,0.1,0,0.2
			c-0.2,2.7-3.9,65.9-3.9,83.7c0,17.9,9.6,127.7,10,132.4l3.7,53.3c4.1,51.9,11.9,151.2,12,155.4c0.2,5.5,2.3,47.7,2.3,49.5
			c0,1,0.4,1.8,1.1,2.5l-1.1,3.9c-0.7-0.2-1.4-0.4-2-0.5c-1.2-0.3-2.3-0.5-3.7-0.6l-0.6,0l-0.4,0c-0.7,0.1-1.3,0.4-1.6,0.6
			c-0.6,0.5-1,0.9-1.4,1.4c-1.4,1.7-2.4,3.3-3.4,4.6c-1,1.3-1.8,2.4-2.6,3.2c-0.7,0.8-1.4,1.4-1.8,1.7c-0.1,0.1-0.2,0.2-0.3,0.2
			c-0.3,0.2-0.5,0.3-0.8,0.5c-4.7,3.5-10.1,6.8-15.4,10c-10.7,6.5-21.7,13.1-28.3,22.3c-2.8,3.8-2.7,10.1-2.5,16.2
			c0,1.1,0,2.1,0,3.1c0,6.3,9.6,8.2,13.7,9.1c6,1.2,13,1.9,17.7,2.2c0.9,0,2.1,0.1,3.5,0.1c8.6,0,26.1-1.1,36-3.9
			c4.6-1.3,7.8-2.7,10-3.8c2.6-1.2,3.8-1.7,5.2-1.7l0.1,0c0.5,0,1,0,1.5,0c22,0,30.3-7.1,31.2-7.9c0.8-0.8,1.3-1.8,1.3-2.9
			c0-1.6,0-3.3,0-5.2c0.1-21.1-0.3-31.9-3.3-36c-0.7-1-1.8-1.6-3-1.7c-0.1,0-0.2,0-0.4,0c-0.1,0-0.2,0-0.3,0
			c-0.2-1.9-0.5-3.7-0.6-5.5l-1-9l1.3-3.8c0.1-0.4,0.2-0.7,0.2-1.1l2.2-65.3l0.5-21.7c0.5-3.7,5.6-47,5.8-71.7
			c0-6-1.8-17.4-3.7-29.5c-2.2-13.9-4.9-31.3-4-36.9c1.9-11,16.4-141.1,17.6-160.7c5.3,16.3,33.5,107,42.5,157.4
			c1.8,16,5.1,29.8,7.6,38.5c10.3,36.2,15.2,173.7,15.3,176.9l0.2,21.2c0,1.4,0.8,2.7,2,3.4c0,2.3,0,5.3,0,8c0,2-0.1,3.9-0.1,5.6
			c0,8.6-0.7,10.8-1.5,12.7c-4.3,2.4-6.8,9-7.5,19.6c-0.1,1.3-0.4,3.9-0.8,6.6c-1.9,14.3-2.1,19.2,0.1,21.8c0.9,1,2.1,1.6,3.5,1.6
			c0.1,0,0.1,0,0.2,0c2,0.2,5.9,0.2,12.1,0.2c9.6,0,23-0.2,33.7-0.4c7.9-0.1,14.7-0.2,18.2-0.2c0.5,0,0.9,0,1.3,0h0
			c2,0,3.7-1.5,4-3.6C360.2,642.7,359.3,638.2,358.6,634.9z M340.8,601.8l-2.4-0.8c-0.7-2.4-1.2-4.9-2.6-7.6
			c-0.4-0.7-0.9-1.4-1.7-2.1c-0.4-0.3-0.8-0.6-1.3-0.8c-0.4-0.2-1.3-0.3-1.5-0.4l-0.1,0l-0.2,0l-0.3,0l-0.5,0l-1.1,0
			c-0.7,0-1.4,0-2.2-0.1c-1.5-0.1-2.9,0-4.3,0c-1.5,0-2.9,0-4.4,0.1c-2.9,0.1-5.8,0.3-8.6,0.4c-1.4,0.1-3.1,0.2-4.7,0.8
			c-1.6,0.6-3.1,1.7-4,3.2c-0.4,0.6-0.6,1.2-0.8,1.8c0.2-1.9,0.3-4.4,0.3-7.7c0-4.1,0.2-9.8,0.1-13.8c4.8,0.7,13.3,1.8,19.9,1.8
			c6.9,0,12.1-1.2,15.2-2.2C336.4,587,336.6,591.9,340.8,601.8z M329.3,78.3c0,0,1.3,12,2.8,27.9c-44.1,1.9-54.5-8.8-56.7-28.1
			c19.9-0.3,38.7-1,53.7-2.1L329.3,78.3z M327.8,55.7l1.1,16.5c-0.6,0-1.2,0.1-1.9,0.1c-0.4,0-0.7,0.4-0.6,0.7
			c0,0.4,0.3,0.6,0.7,0.6c0,0,0,0,0,0c0.6,0,1.2-0.1,1.9-0.1l0.1,0.9c-15.2,1.1-34.2,1.8-54.3,2.1c-0.1,0-0.1,0-0.2,0c0,0,0,0-0.1,0
			c-0.6,0-1.2,0-1.8,0l-0.5-18.9C292.6,57.5,312.1,56.9,327.8,55.7z M270.8,55.2l0.8,30.1l-4.7,0.2l-0.8-30.1L270.8,55.2z M219,57.9
			c0,0.3,0,0.7,0,1.1c0,0.2,0.1,0.3,0.2,0.4l-0.7,0h0c-0.4,0-0.7,0.3-0.7,0.7c0,0.4,0.3,0.7,0.7,0.7l2.8,0c0,0,0,0,0,0
			c0.4,0,0.7-0.3,0.7-0.7c0-0.4-0.3-0.7-0.7-0.7l-1,0c0.1-0.1,0.2-0.3,0.2-0.4c0-0.4,0-0.7,0-1.1c7.4,0.1,15,0.1,22.7,0.1
			c7.2,0,14.5,0,21.7-0.1l0.5,18.9C248.7,77,231.8,77,216,76.9c0-0.3,0-0.6,0-0.9l2.4,0c0,0,0,0,0,0c0.1,0,0.1,0,0.2,0
			c0.1,0.2,0.3,0.4,0.6,0.4c0,0,0,0,0,0c0.4,0,0.7-0.3,0.7-0.7l0.1-2.8c0-0.4-0.3-0.7-0.7-0.7c-0.4,0-0.7,0.3-0.7,0.7l-0.1,1.8
			c0,0-0.1,0-0.1,0l-2.3,0c0.2-5.5,0.2-10,0.3-13.3c0-1.5,0-2.6,0.1-3.5C217.3,57.9,218.2,57.9,219,57.9z M216.3,59.8
			c-0.1-0.3-0.3-0.5-0.6-0.5l-2.8,0h0c-0.4,0-0.7,0.3-0.7,0.7c0,0.4,0.3,0.7,0.7,0.7l2.8,0h0c0.3,0,0.5-0.2,0.6-0.4c0,0.3,0,0.7,0,1
			c-0.2,3.2-0.4,7.8-0.7,13.3c-0.3,0.1-0.6,0.3-0.6,0.7c0,0.3,0.2,0.6,0.5,0.7c0,0.3,0,0.6-0.1,1c-14.3-0.1-27.6-0.2-38.8-0.4l0-0.9
			l2.8,0c0,0,0,0,0,0c0.4,0,0.7-0.3,0.7-0.7c0-0.4-0.3-0.7-0.7-0.7l-2.7,0l0.7-17c11.2,0.2,24.5,0.5,39,0.6
			C216.4,58.4,216.3,59.1,216.3,59.8z M171.5,54.5l4.7,0.2l-1.3,30.1l-4.7-0.2L171.5,54.5z M144,75l1.9,0h0c0.4,0,0.7-0.3,0.7-0.7
			c0-0.4-0.3-0.7-0.7-0.7l-1.8,0l1.5-14.1c0.1,0,0.2,0.1,0.3,0.1l2.8,0.1h0c0.4,0,0.7-0.3,0.7-0.7c0-0.4-0.3-0.7-0.7-0.7l-2.8-0.1
			c0,0,0,0,0,0c-0.1,0-0.1,0-0.2,0l0.2-1.7c0,0,9.3,0.3,24,0.6l-0.9,19.3c-13.4-0.2-22.7-0.4-25.2-0.5L144,75z M143.7,77.3
			c2.2,0.1,10.3,0.2,22.1,0.4c-0.2,6-1.9,10.8-4.3,14.5l0.5-9.1c0-0.2-0.1-0.4-0.2-0.5c-0.1-0.1-0.3-0.2-0.5-0.2l-18-0.6L143.7,77.3
			z M142.2,91.6l0.1-1.3l1.1,0h0c0.4,0,0.7-0.3,0.7-0.7c0-0.4-0.3-0.7-0.7-0.7l-1,0l0.6-5.7l13.4,0.5l0,2.3c0,0.4,0.3,0.7,0.7,0.7h0
			c0.4,0,0.7-0.3,0.7-0.7l0-2.3l2.6,0.1l-0.3,5.4c0,0,0,0,0,0l-2.4,0l0-0.4c0-0.4-0.3-0.7-0.7-0.7c-0.3,0-0.7,0.3-0.7,0.7l0,2.8
			c0,0.4,0.3,0.7,0.7,0.7h0c0.4,0,0.7-0.3,0.7-0.7l0-1l2.4,0l-0.2,3.8c-0.7,0.9-1.5,1.7-2.3,2.5l0-2.5c0-0.4-0.3-0.7-0.7-0.7
			c-0.4,0-0.7,0.3-0.7,0.7l-0.1,2.8c0,0.3,0.2,0.5,0.4,0.7c-4.7,4-10.4,6-15.2,6.3C141.9,96.6,142.2,91.6,142.2,91.6z M187.8,572.4
			c0.3,0,0.5,0,0.7,0c2.8-0.1,12.2-1.9,16.7-2.8l0.9,8.4c0.3,3.2,0.8,6.3,1.2,10c0.1,0,0.2,0,0.2-0.1c-0.2,0.1-0.3,0.2-0.5,0.3
			c-0.5,0.3-1.1,0.6-1.7,0.8c-0.6,0.3-1.4,0.5-2.1,0.7c-1.5,0.4-3.2,0.8-4.9,1.2c-3.4,0.7-6.8,1.4-9.4,1.8c-2.2,0.4-3.7,0.7-4.2,0.8
			c0.3-1,0.6-2.1,1-3.2c0.7-2.4,1.6-5,2.2-7.6c0.2-0.7,0.3-1.3,0.4-2.1c0-0.2,0-0.4,0.1-0.6c0-0.1,0-0.2,0-0.4l0-0.2l0-0.1
			c-0.3-0.7-0.6-0.7-0.7-0.9c-0.2-0.1-0.4-0.2-0.5-0.3c-1.4-0.6-2.7-0.9-4-1.3c-2.7-0.7-5.3-1.3-8-1.9c-1.3-0.3-2.6-0.5-3.9-0.8
			c-0.7-0.1-1.3-0.2-2-0.4l-0.9-0.2l-0.9-0.2c-0.4-0.1-0.9-0.2-1.3-0.3l1.1-4.1C176.9,571.4,184.2,572.4,187.8,572.4z M146.7,586.2
			C146.7,586.2,146.7,586.2,146.7,586.2L146.7,586.2c0.1-0.1,0.3-0.2,0.4-0.3c0,0,0,0,0-0.1c0.1-0.1,0.2-0.2,0.4-0.3
			c0.5-0.5,1.3-1.2,2.1-2.2c0.8-1,1.7-2.2,2.7-3.6c1-1.4,2-3,3.1-4.5c0.3-0.4,0.6-0.7,0.8-0.9c0,0,0,0,0,0l0.3,0l0.3,0
			c0.8,0,2,0.2,3.1,0.4c2.3,0.4,4.6,1,7.2,1.5l1,0.2l1,0.1c0.6,0.1,1.3,0.2,1.9,0.2c1.3,0.2,2.6,0.4,3.9,0.6
			c2.6,0.4,5.3,0.9,7.9,1.5c1.3,0.3,2.6,0.6,3.8,1c0.1,0.1,0.3,0.1,0.4,0.2v0.1c0,0.1,0,0.3,0,0.4c-0.1,0.6-0.2,1.3-0.3,1.9
			c-0.5,2.6-1.2,5.1-1.9,7.6c-0.3,1.2-0.6,2.5-0.9,3.7c-0.1,0.6-0.3,1.2-0.4,1.8c-0.1,0.6,0,1.3,0.1,1.9c0.5,2.4,1.4,4.4,2.2,6.3
			c1.7,3.7,3.3,6.7,4.4,8.8c1.2,2.1,1.8,3.3,1.8,3.3s-0.6-1.2-1.7-3.3c-1-2.1-2.5-5.2-4-9c-0.7-1.9-1.5-4-1.9-6.2
			c-0.1-0.6-0.1-1.1,0-1.6c0.1-0.5,0.3-1.1,0.5-1.7c0-0.1,0.1-0.3,0.1-0.4c0.4,0,2-0.1,4.2-0.2c2.6-0.1,6.1-0.3,9.6-0.5
			c1.8-0.1,3.5-0.3,5.2-0.5c0.8-0.1,1.7-0.2,2.4-0.4c0.8-0.2,1.5-0.4,2.2-0.7c0.7-0.3,1.3-0.6,1.9-1c0.6-0.4,1-0.7,1.3-1.1
			c0.1-0.1,0.2-0.2,0.2-0.2c1.4,4.5,1.6,14.1,1.7,23.1c-5.2,1.4-18.7,5-27.1,5.6c-4.2,0.3-6.3,1.1-9.5,2.2c-1.9,0.7-4.3,1.5-7.9,2.5
			c-3.5,1-32.3,4.7-41.9,4.8c-10,0-21.9-0.6-24.7-6.2c-0.1-0.2-0.3-0.4-0.6-0.4c0.3-1.1,0.7-2.1,1.2-2.9
			C112.4,605.3,132.6,596.3,146.7,586.2z M185.2,632.8c-0.5,0-0.9,0-1.4,0c0,0-0.1,0-0.1,0c-4.5,0-7.1,3-16.4,5.6
			c-9.5,2.7-26.4,3.7-34.9,3.7c-1.3,0-2.4,0-3.2-0.1c-8.8-0.5-27.6-2.7-27.6-7.2c0-3.8-0.3-8.7,0.2-12.5c3.5,5.4,14.1,6.3,24.4,6.3
			c0.4,0,0.8,0,1.3,0c9.7-0.1,38.8-3.8,42.3-4.8c3.6-1,6-1.9,7.9-2.5c3.2-1.1,5.1-1.8,9.1-2.1c8.6-0.7,21.7-4.1,27-5.6
			c0,1.5,0,2.9,0,4.3c-0.7,0.2-1.5,0.4-2.4,0.6c-3.1,0.8-7.6,1.9-13,3c-2.7,0.5-5.6,1.1-8.8,1.5c-1.6,0.2-3.2,0.3-4.8,0.5
			c-1.7,0.2-3.4,0.6-5,1.1c-3.3,1.1-6.6,2.3-10.1,3.3c-3.4,0.8-7.2,1.2-10.8,1.7c-7.3,1-14.6,1.9-21.4,2.5c-3.4,0.3-6.8,0.6-9.9,0.7
			c-3.2,0.1-6.1,0-8.9-0.1c-2.7-0.2-5.3-0.4-7.4-0.9c-2.2-0.4-4-1.1-5.5-1.8c-1.4-0.7-2.4-1.6-2.9-2.3c-0.3-0.3-0.5-0.6-0.6-0.8
			c-0.1-0.2-0.2-0.3-0.2-0.3s0.1,0.1,0.2,0.3c0.1,0.2,0.3,0.5,0.5,0.8c0.5,0.7,1.4,1.6,2.9,2.4c2.8,1.6,7.4,2.7,12.9,3.1
			c2.8,0.2,5.8,0.3,8.9,0.3c3.2,0,6.5-0.3,10-0.6c6.9-0.6,14.2-1.4,21.5-2.4c3.7-0.5,7.3-1,10.9-1.8c3.5-1,6.9-2.2,10.1-3.3
			c1.6-0.6,3.2-0.9,4.9-1.2c1.6-0.2,3.3-0.3,4.8-0.6c3.1-0.5,6.1-1,8.8-1.6c5.4-1.2,9.8-2.5,12.9-3.3c0.9-0.3,1.7-0.5,2.4-0.7
			c0,2.9,0,5.7,0,8C213.7,625.9,206.2,632.8,185.2,632.8z M225.7,170.1l-1.4-0.8c-0.7-0.4-1.3-0.8-2-1.1l-2.1-0.9
			c-0.7-0.3-1.4-0.7-2.1-0.9l-2.1-0.7c-0.7-0.2-1.4-0.5-2.1-0.7l-2.2-0.6c-0.7-0.2-1.4-0.4-2.2-0.5l-2.2-0.4
			c-0.7-0.1-1.5-0.3-2.2-0.3c-1.5-0.1-3-0.2-4.5-0.3l-4.5,0.1l-4.5,0.6l0,0l0,0c-0.1,0-0.1,0.1-0.1,0.2c0.1,0.3,0.1,0.7,0.3,1
			c0.2,0.3,0.3,0.6,0.6,0.8c0.2,0.2,0.5,0.5,0.8,0.6c0.3,0.2,0.5,0.3,0.9,0.4c0.6,0.2,1.2,0.4,1.8,0.5c0.6,0.1,1.2,0.2,1.8,0.3
			c1.2,0.1,2.5,0.2,3.7,0.3c0.6,0.1,1.2,0.1,1.8,0.2c0.3,0.1,0.6,0.1,0.9,0.2c0.3,0.1,0.6,0.3,0.8,0.4c-0.2-0.2-0.5-0.4-0.8-0.5
			c-0.3-0.1-0.6-0.2-0.9-0.3c-0.6-0.1-1.2-0.2-1.8-0.3c-1.2-0.1-2.5-0.3-3.7-0.4c-0.6-0.1-1.2-0.2-1.8-0.3c-0.6-0.1-1.2-0.3-1.7-0.6
			c-0.3-0.1-0.5-0.3-0.8-0.4c-0.3-0.1-0.5-0.4-0.7-0.6c-0.2-0.2-0.3-0.5-0.5-0.7c-0.1-0.2-0.1-0.4-0.2-0.6l4.2-0.5l4.4,0l4.4,0.4
			c0.7,0.1,1.5,0.3,2.2,0.4l2.2,0.4c0.7,0.1,1.4,0.4,2.1,0.6l2.1,0.6c0.7,0.2,1.4,0.5,2.1,0.7l2.1,0.8c0.7,0.2,1.3,0.6,2,0.9l2,1
			c0.7,0.3,1.3,0.8,1.9,1.1l1.8,1.1c-0.2,1.2-0.3,2.6-0.4,4.4c-0.2,11.2-15.7,150.8-17.6,161.9c-1.9,11,7.7,54,7.6,67.1
			c-0.2,25.3-5.8,71.5-5.8,71.5l-0.5,21.9l-2.2,65.3l-0.7,2.1c-4.8,1-15,2.9-17.6,3c-3.1,0.2-11.3-1-22.1-3.7c0-1-0.2-3.2-0.3-6.1
			c0.4,0.1,0.9,0.2,1.3,0.3c0.1,0,0.1,0,0.2,0c0.3,0,0.6-0.2,0.7-0.5c0.1-0.4-0.1-0.7-0.5-0.8c-0.6-0.1-1.1-0.3-1.7-0.4
			c-0.6-13-1.8-37.2-1.9-41.2c-0.2-5.5-12-155.6-12-155.6l-3.7-53.4c0,0-10-114.1-10-132c0-11.2,1.5-41.2,2.7-62
			c0.8,0,1.5-0.1,2.3-0.2c0.4-0.1,0.6-0.4,0.6-0.8c-0.1-0.4-0.4-0.6-0.8-0.6c-0.7,0.1-1.3,0.1-2,0.2c0-0.9,0.1-1.8,0.1-2.6
			c0.5,0,1-0.1,1.5-0.1c0.4-0.1,0.6-0.4,0.6-0.8c-0.1-0.4-0.4-0.6-0.8-0.6c-0.4,0.1-0.8,0.1-1.3,0.1c0-0.8,0.1-1.5,0.1-2.2
			c10.2-0.7,25.1-8.5,25.8-27.7c0,0,0,0,0,0c0.6,0,1.2,0,1.8,0c0,0.9-0.1,1.7-0.2,2.5c0,0.2,0,0.3,0.1,0.5l-0.1,1.7
			c-0.2,0.1-0.4,0.3-0.4,0.5c-0.2,0.9-0.4,1.8-0.6,2.7c-0.1,0.4,0.1,0.8,0.5,0.9c0.1,0,0.1,0,0.2,0c0.3,0,0.6-0.2,0.7-0.5
			c0,0,0-0.1,0-0.1c0.1,0,0.1,0.1,0.2,0.1l6.1,0.3c0,0,0,0,0,0c0.2,0,0.3-0.1,0.5-0.2c0.1-0.1,0.2-0.3,0.2-0.5l0.3-7.7
			c11.2,0.2,24.5,0.3,38.8,0.4c-0.3,4.9-0.6,10.4-0.9,16.1c-0.4,7.1-0.9,14.7-1.3,22.2c-0.2,3.8-0.4,7.6-0.6,11.3
			c-0.1,3.8,0.1,7.6,0.7,11.1c0.6,3.6,1.5,7,2.7,10.1c1.2,3.1,2.5,6,3.9,8.5c2.6,4.8,4.9,8.6,6.3,11.4
			C225.9,169.5,225.8,169.8,225.7,170.1z M282.8,372.5c-2.1-7.3-5.6-21.2-7.5-38c-9.3-52.9-40.8-153.2-43.4-160.5
			c-0.3-0.9-0.6-1.6-1-2.3c0.1,0,0.3,0,0.4,0c0.6-0.1,1.2-0.2,1.7-0.4c0.6-0.2,1.1-0.5,1.6-0.7c0.5-0.3,1.1-0.5,1.6-0.8
			c1-0.6,2-1.1,3-1.7c0.5-0.3,1-0.5,1.5-0.6l1.7-0.5l1.7-0.5c0.6-0.2,1.1-0.3,1.7-0.4l1.7-0.4c0.5-0.2,1.1-0.3,1.7-0.4l1.7-0.3
			c0.6-0.1,1.1-0.3,1.7-0.3c1.1-0.1,2.3-0.2,3.4-0.4l0.1,0c0.1,0,0.2-0.1,0.2-0.2c0-0.1-0.1-0.3-0.2-0.3c-1-0.1-2-0.2-3-0.2
			c0.2,0.1,0.5,0.1,0.7,0.2c-0.4,0-0.9,0-1.3,0c-0.6,0-1.2,0.1-1.8,0.2l-1.8,0.2c-0.6,0.1-1.2,0.2-1.7,0.3l-1.7,0.4
			c-0.6,0.1-1.2,0.3-1.7,0.4l-1.7,0.5l-1.7,0.5c-0.6,0.2-1.2,0.5-1.7,0.8c-1.1,0.6-2,1.2-3,1.9c-1,0.6-1.9,1.3-2.9,1.8
			c-0.5,0.3-1,0.5-1.6,0.7c-0.2,0-0.3,0.1-0.5,0.1c-0.3-0.5-0.5-1-0.8-1.4c-0.2-0.5-0.4-1-0.7-1.5c-0.6-1.3-1.5-2.8-2.4-4.4
			c0.3-0.2,0.5-0.5,0.4-0.9c-0.3-0.7-0.6-1.6-1-2.6c-0.1-0.4-0.6-0.5-0.9-0.4c-0.2,0.1-0.4,0.3-0.4,0.5c-0.8-1.3-1.6-2.7-2.5-4.2
			c-1.3-2.3-2.6-4.9-3.7-7.7c0.1,0,0.1,0,0.2,0c0.4,0,0.7-0.4,0.6-0.8c0-0.4-0.4-0.7-0.8-0.6c-0.2,0-0.4,0-0.6,0
			c-0.3-0.8-0.6-1.7-0.9-2.5c0.4,0,0.7,0,1.1-0.1c0.4,0,0.7-0.4,0.6-0.8c0-0.4-0.4-0.7-0.8-0.6c-0.4,0-0.8,0.1-1.3,0.1h-0.1
			c-0.4-1.5-0.8-3.1-1.1-4.7c-0.6-3.4-0.9-7-0.9-10.7c0.1-3.7,0.1-7.5,0.2-11.3c0.1-7.6,0.4-15.2,0.5-22.3
			c0.2-5.8,0.3-11.3,0.4-16.2c0.8,0,1.6,0,2.5,0c0,0,0,0.1,0,0.1l-0.1,2.8c0,0.4,0.3,0.7,0.7,0.7h0c0.4,0,0.7-0.3,0.7-0.7l0.1-2.8
			c0-0.1,0-0.1,0-0.2c4.2,0,8.4,0,12.6,0c0.4,0,0.8,0,1.2,0l-0.1,2.3c0,0.4,0.3,0.7,0.7,0.7c0,0,0,0,0,0c0.4,0,0.7-0.3,0.7-0.7
			l0.1-2.4c0.9,0,1.7,0,2.6,0l-0.1,2.5c0,0.4,0.3,0.7,0.7,0.7c0,0,0,0,0,0c0.4,0,0.7-0.3,0.7-0.7l0.1-2.6c8.7,0,17.5-0.1,26.3-0.2
			l0.2,8c0,0.2,0.1,0.4,0.2,0.5c0.1,0.1,0.3,0.2,0.5,0.2c0,0,0,0,0,0l6.1-0.2c0.4,0,0.7-0.3,0.7-0.7l-0.2-7.9c0.4,0,0.8,0,1.2,0
			c2.1,18.6,11.2,29.7,48.4,29.7c3.1,0,6.4-0.1,9.8-0.2c0.1,0.8,0.1,1.5,0.2,2.3c-0.3,0-0.6,0-0.8,0c-0.1,0-0.2,0-0.3,0.1
			c-0.5-1.1-1.6-1.8-2.8-1.8c-1.4,0-2.6,1-3,2.3c0,0.1,0,0.1-0.1,0.2c-0.1,0.2-0.1,0.5-0.1,0.7c0,1.1,0.6,2.1,1.5,2.7
			c-0.2,0-0.4,0-0.6,0c-0.4,0-0.7,0.3-0.7,0.7c0,0.4,0.3,0.7,0.7,0.7h0c0.9,0,1.9,0,2.8-0.1c0.4,0,0.7-0.3,0.7-0.7
			c0-0.1-0.1-0.3-0.1-0.4c1.2-0.5,2-1.6,2-2.9c0,0,0,0,0,0c0,0,0,0,0,0h0c0.3,0,0.6,0,0.9,0c0.1,0.8,0.2,1.7,0.2,2.6
			c-0.3,0-0.7,0-1,0c-0.4,0-0.7,0.3-0.7,0.7c0,0.4,0.3,0.7,0.7,0.7c0,0,0,0,0,0c0.4,0,0.7,0,1.1,0c1.8,21,3.5,45.6,2.8,58.7
			c-0.8,14.8-3.1,125-1.2,139.5c2.6,19.9,9.9,45.6,11.2,57.9c1.9,18.1,3.1,25.4-3.7,86.5c-1.2,10.6-2.5,73.3-2.5,73.3l-1.8,31.2
			l-0.1-0.2c0,0-0.7,0.4-2.1,0.9c-0.4,0.1-0.6,0.5-0.4,0.9c0.1,0.3,0.4,0.5,0.7,0.5c0.1,0,0.2,0,0.2,0c0.8-0.3,1.3-0.5,1.7-0.6
			l-0.3,6c-0.1,0-0.2,0-0.3,0.1c-0.1,0-6.3,3.1-16.7,3.1c-7.7,0-18.5-1.6-21.9-2.2l-0.1-6c0.4,0.1,0.8,0.1,1.3,0.2c0,0,0.1,0,0.1,0
			c0.3,0,0.6-0.2,0.7-0.6c0.1-0.4-0.2-0.7-0.6-0.8c-0.6-0.1-1.1-0.2-1.6-0.2l-0.1-12.7C298.2,550.4,293.4,409.9,282.8,372.5z
			 M291.4,621.3c0.3-4.5,1.2-11.9,4.1-15.2c0.1,0,0.3,0,0.4-0.1c1-0.4,2-0.8,3-1.2c-0.1,1.8-0.2,3.6-0.3,5.1
			c-0.2,2.1-0.6,3.9-1.3,5.4c-0.7,1.5-1.6,2.7-2.4,3.7c-0.8,0.9-1.5,1.7-2,2.2c-0.5,0.5-0.7,0.7-0.7,0.7s0.3-0.2,0.9-0.6
			c0.6-0.4,1.4-1,2.4-1.8c0.9-0.9,2.1-1.9,3.1-3.5c1-1.5,1.8-3.6,2.2-5.8c0.4-2.2,0.7-4.5,1.1-6.9c0.2-1.2,0.4-2.4,0.7-3.7l0.2-0.9
			l0.1-0.2c0,0.1,0-0.1,0.1-0.2l0.1-0.5c0.2-0.5,0.4-0.9,0.7-1.3c1.1-1.6,3.3-2.2,6-2.1c2.8-0.1,5.7-0.2,8.6-0.3
			c2.9-0.1,5.7-0.2,8.5-0.2c1.4,0,2.7,0,4,0c0.5,0,0.3,0,0.5,0.1c0.2,0,0.3,0.1,0.4,0.2c0.3,0.2,0.6,0.6,0.9,1
			c1.2,1.9,2,4.5,2.8,6.8c0.8,2.3,1.4,4.6,2.3,6.7c0.8,2.1,1.9,3.9,3.2,5.3c1.2,1.4,2.5,2.4,3.6,3c1.1,0.7,2,1.1,2.7,1.3
			c0.6,0.3,1,0.4,1,0.4s-0.3-0.2-0.9-0.6c-0.6-0.4-1.4-1-2.3-1.8c-0.9-0.8-2-1.9-2.9-3.3c-0.9-1.4-1.6-3.1-2.2-5.1
			c-0.2-0.8-0.4-1.6-0.6-2.4l5,1.6c3.8,4.1,7.8,18,9.5,24.7c-6.2-2.8-15.8-4-19.2-4.3c-11.7-1.2-34.2,0.9-45,6.9
			C290.4,629.2,291.2,623.8,291.4,621.3z M289.6,636c0.1,0,0.2,0,0.3-0.1c10.2-6,33.3-8.2,44.7-7c2.6,0.3,13.6,1.5,19.6,4.6
			c0.2,1.1,0.5,2.6,0.9,4.3c0,0,0,0,0,0c-0.3-0.4-0.9-0.9-1.7-1.4c-1.6-1-4.1-2.2-7.3-3c-3.2-0.8-6.9-1.5-11-1.9
			c-2-0.2-4.1-0.4-6.3-0.4c-2.1,0-4.3,0-6.5,0.2c-2.2,0.1-4.3,0.3-6.5,0.6c-2.1,0.3-4.2,0.6-6.2,0.9c-2,0.3-3.9,0.8-5.7,1.2
			c-1.8,0.4-3.5,0.9-5.1,1.4c-3.1,1-5.6,2-7.3,2.8c-0.9,0.4-1.5,0.8-2,1c-0.2,0.1-0.3,0.2-0.4,0.2
			C289.3,638.4,289.4,637.2,289.6,636z M354.5,646.6c-8.5,0-35.5,0.6-51.9,0.6c-5,0-9-0.1-11.2-0.2c4.1-4,18.7-7.1,37-7.9
			c5.7-0.3,24.9,2.9,26.7,7.5C354.9,646.6,354.7,646.6,354.5,646.6z M328.3,637.8c-19.9,0.8-34.6,4.2-38.4,8.7
			c-0.1,0.1-0.1,0.2-0.1,0.2c-0.7-0.8-0.8-3.7-0.5-7.3c0.1-0.1,0.2-0.1,0.4-0.2c0.5-0.2,1.1-0.6,2-0.9c0.9-0.3,1.9-0.8,3.2-1.2
			c1.2-0.4,2.7-0.8,4.2-1.3c1.6-0.4,3.3-0.8,5.1-1.2c1.8-0.4,3.7-0.7,5.7-1.1c2-0.3,4.1-0.6,6.2-0.9c2.1-0.2,4.3-0.4,6.4-0.6
			c2.1-0.1,4.3-0.2,6.4-0.2c2.1,0,4.2,0.2,6.2,0.4c4,0.4,7.8,0.9,10.9,1.6c3.1,0.7,5.7,1.6,7.3,2.6c0.8,0.5,1.4,0.9,1.8,1.3
			c0,0,0,0,0,0c0.4,2.3,0.8,4.9,0.8,7.4C352,640,333.2,637.6,328.3,637.8z"/>
		<path class="st0" d="M165.8,93.9c0.2-0.3,0.1-0.8-0.2-1c-0.3-0.2-0.8-0.1-1,0.2c-0.5,0.8-1,1.5-1.5,2.3c-0.2,0.3-0.2,0.7,0.2,1
			c0.1,0.1,0.3,0.1,0.4,0.1c0.2,0,0.4-0.1,0.6-0.3C164.8,95.5,165.3,94.7,165.8,93.9z"/>
		<path class="st0" d="M150.9,106.7c0.9-0.4,1.7-0.8,2.6-1.2c0.3-0.2,0.5-0.6,0.3-0.9c-0.2-0.3-0.6-0.5-0.9-0.3
			c-0.8,0.4-1.6,0.8-2.5,1.2c-0.4,0.2-0.5,0.6-0.4,0.9c0.1,0.3,0.4,0.4,0.6,0.4C150.8,106.7,150.8,106.7,150.9,106.7z"/>
		<path class="st0" d="M145.5,108.5c0.9-0.2,1.8-0.5,2.7-0.8c0.4-0.1,0.6-0.5,0.4-0.9c-0.1-0.4-0.5-0.6-0.9-0.4
			c-0.9,0.3-1.8,0.5-2.6,0.7c-0.4,0.1-0.6,0.5-0.5,0.8c0.1,0.3,0.4,0.5,0.7,0.5C145.4,108.5,145.5,108.5,145.5,108.5z"/>
		<path class="st0" d="M156,104c0.8-0.5,1.6-1.1,2.3-1.6c0.3-0.2,0.4-0.7,0.1-1c-0.2-0.3-0.7-0.4-1-0.1c-0.7,0.5-1.5,1.1-2.2,1.6
			c-0.3,0.2-0.4,0.6-0.2,1c0.1,0.2,0.4,0.3,0.6,0.3C155.7,104.1,155.8,104.1,156,104z"/>
		<path class="st0" d="M162.4,98.5c0.3-0.3,0.2-0.7-0.1-1c-0.3-0.3-0.7-0.2-1,0.1c-0.6,0.7-1.2,1.3-1.9,1.9c-0.3,0.3-0.3,0.7,0,1
			c0.1,0.1,0.3,0.2,0.5,0.2c0.2,0,0.3-0.1,0.5-0.2C161.1,99.9,161.8,99.2,162.4,98.5z"/>
		<path class="st0" d="M166.2,91.7c0.1,0,0.2,0.1,0.3,0.1c0.3,0,0.5-0.1,0.6-0.4c0.4-0.8,0.8-1.7,1.1-2.6c0.1-0.4-0.1-0.8-0.4-0.9
			c-0.4-0.1-0.8,0-0.9,0.4c-0.3,0.9-0.7,1.7-1.1,2.5C165.7,91.1,165.9,91.5,166.2,91.7z"/>
		<path class="st0" d="M158.2,105.6c-0.7,0.5-1.5,1-2.3,1.5c-0.3,0.2-0.4,0.6-0.3,1c0.1,0.2,0.4,0.3,0.6,0.3c0.1,0,0.2,0,0.3-0.1
			c0.8-0.5,1.6-1,2.4-1.5c0.3-0.2,0.4-0.6,0.2-1C159,105.5,158.5,105.4,158.2,105.6z"/>
		<path class="st0" d="M166.1,98.1c-0.5,0.7-1.1,1.4-1.7,2.1c-0.3,0.3-0.2,0.7,0.1,1c0.1,0.1,0.3,0.2,0.5,0.2c0.2,0,0.4-0.1,0.5-0.2
			c0.6-0.7,1.2-1.4,1.8-2.2c0.2-0.3,0.2-0.7-0.1-1C166.7,97.7,166.3,97.8,166.1,98.1z"/>
		<path class="st0" d="M169.9,93.2c-0.3-0.2-0.8,0-0.9,0.3c-0.4,0.8-0.9,1.6-1.4,2.4c-0.2,0.3-0.1,0.8,0.2,1
			c0.1,0.1,0.2,0.1,0.4,0.1c0.2,0,0.5-0.1,0.6-0.3c0.5-0.8,1-1.6,1.4-2.5C170.4,93.8,170.3,93.4,169.9,93.2z"/>
		<path class="st0" d="M170.5,91.9c0.1,0,0.2,0.1,0.3,0.1c0.3,0,0.5-0.2,0.6-0.4c0.4-0.9,0.7-1.8,1-2.7c0.1-0.4-0.1-0.8-0.4-0.9
			c-0.4-0.1-0.8,0.1-0.9,0.4c-0.3,0.9-0.6,1.7-1,2.6C170,91.4,170.2,91.8,170.5,91.9z"/>
		<path class="st0" d="M162.4,102.2c-0.7,0.6-1.3,1.2-2,1.8c-0.3,0.2-0.3,0.7-0.1,1c0.1,0.2,0.3,0.3,0.5,0.3c0.2,0,0.3-0.1,0.4-0.2
			c0.7-0.6,1.5-1.2,2.1-1.9c0.3-0.3,0.3-0.7,0-1C163.2,101.9,162.7,101.9,162.4,102.2z"/>
		<path class="st0" d="M153.5,108.4c-0.8,0.4-1.7,0.8-2.5,1.1c-0.4,0.1-0.5,0.5-0.4,0.9c0.1,0.3,0.4,0.4,0.6,0.4c0.1,0,0.2,0,0.3,0
			c0.9-0.3,1.8-0.7,2.6-1.1c0.3-0.2,0.5-0.6,0.3-0.9C154.2,108.3,153.8,108.2,153.5,108.4z"/>
		<path class="st0" d="M148.4,110.4c-0.9,0.3-1.8,0.5-2.6,0.7c-0.4,0.1-0.6,0.5-0.5,0.8c0.1,0.3,0.4,0.5,0.7,0.5c0,0,0.1,0,0.2,0
			c0.9-0.2,1.8-0.5,2.7-0.7c0.4-0.1,0.6-0.5,0.5-0.9C149.1,110.4,148.8,110.2,148.4,110.4z"/>
		<path class="st0" d="M279.5,97.7c-0.3-0.3-0.7-0.3-1-0.1c-0.3,0.3-0.3,0.7-0.1,1c0.6,0.7,1.3,1.4,2,2c0.1,0.1,0.3,0.2,0.5,0.2
			c0.2,0,0.4-0.1,0.5-0.2c0.3-0.3,0.2-0.7-0.1-1C280.7,99,280.1,98.4,279.5,97.7z"/>
		<path class="st0" d="M303.7,110.1c0.9,0.1,1.8,0.3,2.8,0.4c0,0,0.1,0,0.1,0c0.3,0,0.6-0.3,0.7-0.6c0-0.4-0.2-0.7-0.6-0.8
			c-0.9-0.1-1.8-0.2-2.7-0.4c-0.4-0.1-0.7,0.2-0.8,0.6C303.1,109.7,303.3,110,303.7,110.1z"/>
		<path class="st0" d="M309.3,110.8c0.9,0.1,1.8,0.2,2.8,0.2c0,0,0,0,0.1,0c0.4,0,0.7-0.3,0.7-0.6c0-0.4-0.3-0.7-0.6-0.7
			c-0.9-0.1-1.9-0.1-2.8-0.2c-0.4,0-0.7,0.2-0.8,0.6C308.6,110.4,308.9,110.7,309.3,110.8z"/>
		<path class="st0" d="M320.4,111.4c0.9,0,1.8,0,2.7,0h0.1c0.4,0,0.7-0.3,0.7-0.7c0-0.4-0.3-0.7-0.7-0.7c-0.9,0-1.8,0-2.7,0
			c-0.5,0-0.7,0.3-0.7,0.7C319.8,111.1,320.1,111.4,320.4,111.4z"/>
		<path class="st0" d="M314.9,111.2c0.9,0,1.8,0.1,2.8,0.1c0,0,0,0,0,0c0.4,0,0.7-0.3,0.7-0.7c0-0.4-0.3-0.7-0.7-0.7
			c-0.9,0-1.9-0.1-2.8-0.1c-0.4,0-0.7,0.3-0.7,0.7C314.2,110.8,314.5,111.2,314.9,111.2z"/>
		<path class="st0" d="M285.8,102.8c-0.8-0.5-1.5-1-2.3-1.5c-0.3-0.2-0.7-0.2-1,0.2c-0.2,0.3-0.2,0.7,0.2,1c0.7,0.5,1.5,1.1,2.4,1.6
			c0.1,0.1,0.2,0.1,0.4,0.1c0.2,0,0.5-0.1,0.6-0.3C286.2,103.4,286.1,103,285.8,102.8z"/>
		<path class="st0" d="M298.2,109c0.9,0.2,1.8,0.4,2.8,0.6c0,0,0.1,0,0.1,0c0.3,0,0.6-0.2,0.7-0.6c0.1-0.4-0.2-0.7-0.6-0.8
			c-0.9-0.2-1.8-0.4-2.7-0.6c-0.4-0.1-0.7,0.1-0.8,0.5C297.6,108.6,297.8,108.9,298.2,109z"/>
		<path class="st0" d="M274.5,91.9c0.1,0,0.2,0,0.3-0.1c0.4-0.2,0.5-0.6,0.3-0.9c-0.4-0.8-0.7-1.7-1-2.5c-0.1-0.4-0.5-0.6-0.9-0.4
			c-0.4,0.1-0.6,0.5-0.4,0.9c0.3,0.9,0.7,1.8,1,2.6C274,91.7,274.2,91.9,274.5,91.9z"/>
		<path class="st0" d="M277.8,95.6c-0.5-0.7-1-1.5-1.5-2.3c-0.2-0.3-0.6-0.5-1-0.3c-0.3,0.2-0.5,0.6-0.3,1c0.5,0.8,1,1.6,1.5,2.4
			c0.1,0.2,0.3,0.3,0.6,0.3c0.1,0,0.3,0,0.4-0.1C277.9,96.3,278,95.9,277.8,95.6z"/>
		<path class="st0" d="M287.5,105.4c0.8,0.4,1.7,0.8,2.6,1.2c0.1,0,0.2,0.1,0.3,0.1c0.3,0,0.5-0.2,0.6-0.4c0.1-0.4,0-0.8-0.4-0.9
			c-0.9-0.4-1.7-0.7-2.5-1.1c-0.3-0.2-0.8,0-0.9,0.3C287,104.8,287.2,105.2,287.5,105.4z"/>
		<path class="st0" d="M292.8,107.5c0.9,0.3,1.8,0.6,2.7,0.8c0.1,0,0.1,0,0.2,0c0.3,0,0.6-0.2,0.7-0.5c0.1-0.4-0.1-0.8-0.5-0.9
			c-0.9-0.3-1.8-0.5-2.6-0.8c-0.4-0.1-0.8,0.1-0.9,0.4C292.2,107,292.4,107.4,292.8,107.5z"/>
		<path class="st0" d="M272.3,94.2c-0.2-0.3-0.6-0.5-0.9-0.3c-0.3,0.2-0.5,0.6-0.3,0.9c0.4,0.9,0.9,1.7,1.4,2.5
			c0.1,0.2,0.4,0.3,0.6,0.3c0.1,0,0.3,0,0.4-0.1c0.3-0.2,0.4-0.6,0.2-1C273.2,95.8,272.7,95,272.3,94.2z"/>
		<path class="st0" d="M275.2,98.8c-0.2-0.3-0.7-0.4-1-0.1c-0.3,0.2-0.4,0.7-0.1,1c0.6,0.7,1.2,1.5,1.9,2.2c0.1,0.1,0.3,0.2,0.5,0.2
			c0.2,0,0.3-0.1,0.5-0.2c0.3-0.3,0.3-0.7,0-1C276.4,100.2,275.8,99.5,275.2,98.8z"/>
		<path class="st0" d="M280.9,104.3c-0.7-0.5-1.3-1-2-1.6c-0.3-0.3-0.7-0.2-1,0.1c-0.3,0.3-0.2,0.7,0.1,1c0.7,0.6,1.3,1.1,2.1,1.7
			l0.1,0.1c0.1,0.1,0.3,0.1,0.4,0.1c0.2,0,0.4-0.1,0.6-0.3c0.2-0.3,0.2-0.7-0.1-1L280.9,104.3z"/>
		<path class="st0" d="M285.7,107.3c-0.8-0.4-1.6-0.9-2.4-1.3c-0.3-0.2-0.8-0.1-1,0.2c-0.2,0.3-0.1,0.8,0.2,1c0.8,0.5,1.6,1,2.5,1.4
			c0.1,0.1,0.2,0.1,0.3,0.1c0.3,0,0.5-0.1,0.6-0.4C286.2,107.9,286,107.5,285.7,107.3z"/>
		<path class="st0" d="M290.7,109.5c-0.9-0.3-1.7-0.7-2.5-1c-0.4-0.2-0.8,0-0.9,0.4c-0.2,0.4,0,0.8,0.4,0.9c0.8,0.4,1.7,0.7,2.6,1.1
			c0.1,0,0.2,0,0.2,0c0.3,0,0.5-0.2,0.7-0.5C291.3,110.1,291.1,109.7,290.7,109.5z"/>
		<path class="st0" d="M271.1,91.7c-0.3-0.8-0.7-1.7-1-2.6c-0.1-0.4-0.5-0.6-0.9-0.4c-0.4,0.1-0.6,0.5-0.4,0.9
			c0.3,0.9,0.6,1.8,1,2.7c0.1,0.3,0.4,0.4,0.6,0.4c0.1,0,0.2,0,0.3-0.1C271.1,92.5,271.3,92.1,271.1,91.7z"/>
		<path class="st0" d="M301.1,113.7c0,0,0.1,0,0.1,0c0.3,0,0.6-0.2,0.7-0.6c0.1-0.4-0.2-0.7-0.6-0.8c-0.9-0.2-1.8-0.3-2.7-0.5
			c-0.4-0.1-0.7,0.2-0.8,0.5c-0.1,0.4,0.2,0.7,0.5,0.8C299.3,113.4,300.2,113.5,301.1,113.7z"/>
		<path class="st0" d="M315.1,113.8c-0.4,0-0.7,0.3-0.7,0.7c0,0.4,0.3,0.7,0.7,0.7c0.9,0,1.8,0.1,2.8,0.1c0,0,0,0,0,0
			c0.4,0,0.7-0.3,0.7-0.7c0-0.4-0.3-0.7-0.7-0.7C316.9,113.9,316,113.8,315.1,113.8z"/>
		<path class="st0" d="M296,111.2c-0.9-0.2-1.8-0.5-2.6-0.8c-0.4-0.1-0.8,0.1-0.9,0.5c-0.1,0.4,0.1,0.8,0.5,0.9
			c0.9,0.3,1.8,0.5,2.7,0.8c0.1,0,0.1,0,0.2,0c0.3,0,0.6-0.2,0.7-0.5C296.6,111.6,296.3,111.3,296,111.2z"/>
		<path class="st0" d="M309.6,113.4c-0.4,0-0.7,0.2-0.8,0.6c0,0.4,0.2,0.7,0.6,0.8c0.9,0.1,1.8,0.2,2.8,0.2c0,0,0,0,0,0
			c0.4,0,0.7-0.3,0.7-0.6c0-0.4-0.3-0.7-0.6-0.7C311.4,113.6,310.5,113.5,309.6,113.4z"/>
		<path class="st0" d="M323.2,114c-0.9,0-1.7,0-2.5,0c0,0,0,0,0,0c-0.4,0-0.7,0.3-0.7,0.7c0,0.4,0.3,0.7,0.7,0.7c0.8,0,1.7,0,2.5,0
			l0.3,0c0.4,0,0.7-0.3,0.7-0.7c0-0.4-0.3-0.7-0.7-0.7L323.2,114z"/>
		<path class="st0" d="M304.1,112.8c-0.4-0.1-0.7,0.2-0.8,0.6c-0.1,0.4,0.2,0.7,0.6,0.8c0.9,0.1,1.8,0.3,2.8,0.4c0,0,0.1,0,0.1,0
			c0.3,0,0.6-0.3,0.7-0.6c0-0.4-0.2-0.7-0.6-0.8C305.9,113,305,112.9,304.1,112.8z"/>
		<path class="st0" d="M218.6,93.1C218.6,93.1,218.6,93.1,218.6,93.1c0.4,0,0.7-0.3,0.7-0.7l0.1-2.8c0-0.4-0.3-0.7-0.7-0.7
			c-0.4,0-0.7,0.3-0.7,0.7l-0.1,2.8C217.9,92.8,218.2,93.1,218.6,93.1z"/>
		<path class="st0" d="M218.8,87.6C218.8,87.6,218.8,87.6,218.8,87.6c0.4,0,0.7-0.3,0.7-0.7l0.1-2.8c0-0.4-0.3-0.7-0.7-0.7
			c-0.4,0-0.7,0.3-0.7,0.7l-0.1,2.8C218.1,87.2,218.4,87.5,218.8,87.6z"/>
		<path class="st0" d="M218.4,98.7C218.4,98.7,218.4,98.7,218.4,98.7c0.4,0,0.7-0.3,0.7-0.7l0.1-2.8c0-0.4-0.3-0.7-0.7-0.7
			c-0.4-0.1-0.7,0.3-0.7,0.7l-0.1,2.8C217.7,98.4,218,98.7,218.4,98.7z"/>
		<path class="st0" d="M219.5,65.2C219.5,65.2,219.6,65.2,219.5,65.2c0.4,0,0.7-0.3,0.7-0.7l0.1-2.8c0-0.4-0.3-0.7-0.7-0.7
			c-0.4,0-0.7,0.3-0.7,0.7l-0.1,2.8C218.9,64.9,219.2,65.2,219.5,65.2z"/>
		<path class="st0" d="M219.4,70.8C219.4,70.8,219.4,70.8,219.4,70.8c0.4,0,0.7-0.3,0.7-0.7l0.1-2.8c0-0.4-0.3-0.7-0.7-0.7
			c-0.4,0-0.7,0.3-0.7,0.7l-0.1,2.8C218.7,70.5,219,70.8,219.4,70.8z"/>
		<path class="st0" d="M218.2,104.3C218.2,104.3,218.2,104.3,218.2,104.3c0.4,0,0.7-0.3,0.7-0.7l0.1-2.8c0-0.4-0.3-0.7-0.7-0.7
			c-0.4,0-0.7,0.3-0.7,0.7l-0.1,2.8C217.5,103.9,217.8,104.3,218.2,104.3z"/>
		<path class="st0" d="M217.8,137.7c0.4-0.1,0.6-0.4,0.6-0.8c-0.2-0.9-0.3-1.8-0.5-2.7c-0.1-0.4-0.4-0.7-0.8-0.6
			c-0.4,0.1-0.6,0.4-0.6,0.8c0.1,0.9,0.3,1.8,0.5,2.8c0.1,0.3,0.4,0.6,0.7,0.6C217.7,137.7,217.7,137.7,217.8,137.7z"/>
		<path class="st0" d="M224.1,155.4c-0.1-0.4-0.5-0.5-0.9-0.4c-0.4,0.1-0.5,0.5-0.4,0.9c0.4,0.9,0.7,1.8,1,2.6
			c0.1,0.3,0.4,0.4,0.6,0.4c0.1,0,0.2,0,0.3,0c0.4-0.1,0.5-0.5,0.4-0.9C224.8,157.1,224.5,156.3,224.1,155.4z"/>
		<path class="st0" d="M219.6,142.2c-0.2-0.9-0.5-1.8-0.7-2.7c-0.1-0.4-0.5-0.6-0.8-0.5c-0.4,0.1-0.6,0.5-0.5,0.8
			c0.2,0.9,0.5,1.8,0.7,2.7c0.1,0.3,0.4,0.5,0.7,0.5c0.1,0,0.1,0,0.2,0C219.5,143,219.7,142.6,219.6,142.2z"/>
		<path class="st0" d="M223.1,152.8c-0.3-0.8-0.6-1.7-1-2.6c-0.1-0.4-0.5-0.6-0.9-0.4c-0.4,0.1-0.6,0.5-0.4,0.9
			c0.3,0.9,0.6,1.8,1,2.6c0.1,0.3,0.4,0.5,0.7,0.5c0.1,0,0.2,0,0.2,0C223.1,153.5,223.2,153.1,223.1,152.8z"/>
		<path class="st0" d="M217,132.2c0.4,0,0.7-0.4,0.7-0.7c0-0.6,0-1.1,0-1.6c0-0.4,0-0.7,0-1.1c0-0.4-0.3-0.7-0.7-0.7
			c-0.4,0-0.7,0.3-0.7,0.7c0,0.4,0,0.8,0,1.2c0,0.6,0,1.1,0.1,1.7C216.2,131.9,216.6,132.2,217,132.2
			C216.9,132.2,216.9,132.2,217,132.2z"/>
		<path class="st0" d="M221.2,148.1c0.1,0,0.2,0.1,0.2,0.1c0.1,0,0.1,0,0.2,0c0.9-0.3,1.8-0.6,2.7-1.1c0.3-0.2,0.5-0.6,0.3-0.9
			c-0.2-0.3-0.6-0.5-0.9-0.3c-0.8,0.4-1.6,0.7-2.5,1c-0.1,0-0.1,0.1-0.2,0.1c-0.2-0.7-0.4-1.3-0.6-2c-0.1-0.4-0.5-0.6-0.9-0.5
			c-0.4,0.1-0.6,0.5-0.5,0.9c0.3,0.9,0.6,1.8,0.9,2.7c0.1,0.3,0.4,0.5,0.7,0.5c0.1,0,0.1,0,0.2,0C221,148.4,221.1,148.2,221.2,148.1
			z"/>
		<path class="st0" d="M217.9,109.9C217.9,109.9,218,109.9,217.9,109.9c0.4,0,0.7-0.3,0.7-0.7l0.1-2.8c0-0.4-0.3-0.7-0.7-0.7
			c-0.5,0-0.7,0.3-0.7,0.7l-0.1,2.8C217.3,109.5,217.6,109.8,217.9,109.9z"/>
		<path class="st0" d="M217.7,115.4C217.7,115.4,217.7,115.4,217.7,115.4c0.4,0,0.7-0.3,0.7-0.7l0.1-2.8c0-0.4-0.3-0.7-0.7-0.7
			c-0.4,0-0.7,0.3-0.7,0.7l-0.1,2.8C217,115.1,217.3,115.4,217.7,115.4z"/>
		<path class="st0" d="M217,126.6C217.1,126.6,217.1,126.6,217,126.6c0.4,0,0.7-0.3,0.7-0.6c0.1-0.9,0.1-1.8,0.2-2.8
			c0-0.4-0.3-0.7-0.7-0.7c-0.4,0-0.7,0.3-0.7,0.7c-0.1,1-0.1,1.9-0.2,2.8C216.4,126.2,216.7,126.6,217,126.6z"/>
		<path class="st0" d="M217.4,121C217.4,121,217.4,121,217.4,121c0.4,0,0.7-0.3,0.7-0.7l0.1-2.8c0-0.4-0.3-0.7-0.7-0.7
			c-0.4,0-0.7,0.3-0.7,0.7l-0.1,2.8C216.7,120.7,217,121,217.4,121z"/>
		<path class="st0" d="M233.9,87C234,87,234,87,233.9,87c0.4,0,0.7-0.3,0.7-0.7l0.1-2.8c0-0.4-0.3-0.7-0.7-0.7
			c-0.3,0-0.7,0.3-0.7,0.7l-0.1,2.8C233.3,86.6,233.6,87,233.9,87z"/>
		<path class="st0" d="M233.7,92.5C233.7,92.6,233.7,92.6,233.7,92.5c0.4,0,0.7-0.3,0.7-0.7l0.1-2.8c0-0.4-0.3-0.7-0.7-0.7
			c-0.4,0-0.7,0.3-0.7,0.7l-0.1,2.8C233,92.2,233.3,92.5,233.7,92.5z"/>
		<path class="st0" d="M230.1,132.7c-0.4-0.1-0.8,0-0.9,0.4c-0.3,0.9-0.7,1.7-1.1,2.5c-0.2,0.3,0,0.8,0.3,0.9c0.1,0,0.2,0.1,0.3,0.1
			c0.3,0,0.5-0.1,0.6-0.4c0.4-0.8,0.8-1.7,1.1-2.6C230.6,133.2,230.4,132.8,230.1,132.7z"/>
		<path class="st0" d="M227.9,138.7c0.2-0.3,0.1-0.8-0.2-1c-0.3-0.2-0.8-0.1-1,0.2c-0.5,0.8-1.1,1.5-1.7,2.1c-0.3,0.3-0.3,0.7,0,1
			c0.1,0.1,0.3,0.2,0.5,0.2c0.2,0,0.4-0.1,0.5-0.2C226.7,140.3,227.3,139.5,227.9,138.7z"/>
		<path class="st0" d="M230.5,131.4c0.1,0,0.1,0,0.2,0c0.3,0,0.6-0.2,0.7-0.5c0.3-0.9,0.5-1.8,0.7-2.8c0.1-0.4-0.2-0.7-0.5-0.8
			c-0.4-0.1-0.7,0.2-0.8,0.5c-0.2,0.9-0.4,1.8-0.7,2.7C229.9,130.9,230.1,131.3,230.5,131.4z"/>
		<path class="st0" d="M232.4,120.4C232.5,120.4,232.5,120.4,232.4,120.4c0.4,0,0.7-0.3,0.7-0.7c0.1-1.2,0.1-2.2,0.1-2.8
			c0-0.4-0.3-0.7-0.7-0.7h0c-0.4,0-0.7,0.3-0.7,0.7c0,0.6,0,1.6-0.1,2.8C231.8,120,232.1,120.4,232.4,120.4z"/>
		<path class="st0" d="M231.8,125.9c0,0,0.1,0,0.1,0c0.3,0,0.6-0.2,0.7-0.6c0.2-1,0.3-1.9,0.4-2.8c0-0.4-0.2-0.7-0.6-0.8
			c-0.4,0-0.7,0.2-0.8,0.6c-0.1,0.9-0.2,1.8-0.4,2.7C231.1,125.5,231.4,125.9,231.8,125.9z"/>
		<path class="st0" d="M232.6,114.8C232.7,114.8,232.7,114.8,232.6,114.8c0.4,0,0.7-0.3,0.7-0.7l0.1-2.8c0-0.4-0.3-0.7-0.7-0.7
			c-0.4,0-0.7,0.3-0.7,0.7l-0.1,2.8C232,114.5,232.3,114.8,232.6,114.8z"/>
		<path class="st0" d="M233.4,98.1C233.4,98.1,233.4,98.1,233.4,98.1c0.4,0,0.7-0.3,0.7-0.7l0.1-2.8c0-0.4-0.3-0.7-0.7-0.7
			c-0.4,0-0.7,0.3-0.7,0.7l-0.1,2.8C232.7,97.8,233,98.1,233.4,98.1z"/>
		<path class="st0" d="M232.9,109.2C232.9,109.3,232.9,109.3,232.9,109.2c0.4,0,0.7-0.3,0.7-0.7l0.1-2.8c0-0.4-0.3-0.7-0.7-0.7
			c-0.4,0-0.7,0.3-0.7,0.7l-0.1,2.8C232.2,108.9,232.5,109.2,232.9,109.2z"/>
		<path class="st0" d="M233.2,103.7C233.2,103.7,233.2,103.7,233.2,103.7c0.4,0,0.7-0.3,0.7-0.7l0.1-2.8c0-0.4-0.3-0.7-0.7-0.7
			c-0.4,0-0.7,0.3-0.7,0.7l-0.1,2.8C232.5,103.3,232.8,103.7,233.2,103.7z"/>
		<path class="st0" d="M220.9,144.2c0.1,0,0.2,0,0.2,0c0.9-0.3,1.8-0.8,2.6-1.3c0.3-0.2,0.4-0.6,0.2-1c-0.2-0.3-0.6-0.4-1-0.2
			c-0.7,0.5-1.5,0.9-2.3,1.1c-0.4,0.1-0.6,0.5-0.4,0.9C220.4,144,220.7,144.2,220.9,144.2z"/>
		<path class="st0" d="M232.1,138.1c-0.3-0.2-0.8-0.1-0.9,0.3c-0.4,0.8-0.9,1.6-1.4,2.3c-0.2,0.3-0.2,0.7,0.2,1
			c0.1,0.1,0.3,0.1,0.4,0.1c0.2,0,0.4-0.1,0.6-0.3c0.5-0.7,1.1-1.6,1.5-2.4C232.6,138.7,232.4,138.2,232.1,138.1z"/>
		<path class="st0" d="M236.3,122c-0.4,0-0.7,0.2-0.8,0.6c-0.1,0.9-0.2,1.8-0.3,2.7c-0.1,0.4,0.2,0.7,0.6,0.8c0,0,0.1,0,0.1,0
			c0.3,0,0.6-0.2,0.7-0.6c0.1-1,0.3-1.9,0.3-2.8C237,122.4,236.7,122,236.3,122z"/>
		<path class="st0" d="M236.8,110.8c-0.4,0-0.7,0.3-0.7,0.7l-0.1,2.8c0,0.4,0.3,0.7,0.7,0.7c0,0,0,0,0,0c0.4,0,0.7-0.3,0.7-0.7
			l0.1-2.8C237.5,111.2,237.2,110.8,236.8,110.8z"/>
		<path class="st0" d="M236.6,116.4c-0.4,0-0.7,0.3-0.7,0.7c0,0.7,0,1.6-0.1,2.8c0,0.4,0.3,0.7,0.7,0.7c0,0,0,0,0,0
			c0.4,0,0.7-0.3,0.7-0.7c0.1-1.2,0.1-2.1,0.1-2.8C237.3,116.7,237,116.4,236.6,116.4z"/>
		<path class="st0" d="M235.6,127.5c-0.4-0.1-0.7,0.2-0.8,0.5c-0.2,0.9-0.4,1.8-0.6,2.7c-0.1,0.4,0.1,0.8,0.5,0.9c0.1,0,0.1,0,0.2,0
			c0.3,0,0.6-0.2,0.7-0.5c0.2-0.9,0.5-1.8,0.6-2.8C236.2,127.9,235.9,127.6,235.6,127.5z"/>
		<path class="st0" d="M234.2,132.9c-0.4-0.1-0.8,0.1-0.9,0.4c-0.3,0.9-0.6,1.7-1,2.5c-0.2,0.4,0,0.8,0.4,0.9c0.1,0,0.2,0.1,0.3,0.1
			c0.3,0,0.5-0.2,0.6-0.4c0.4-0.8,0.7-1.7,1-2.7C234.8,133.4,234.6,133,234.2,132.9z"/>
		<path class="st0" d="M238.1,83c-0.4,0-0.7,0.3-0.7,0.7l-0.1,2.8c0,0.4,0.3,0.7,0.7,0.7c0,0,0,0,0,0c0.4,0,0.7-0.3,0.7-0.7l0.1-2.8
			C238.8,83.3,238.5,83,238.1,83z"/>
		<path class="st0" d="M228,142.7l-0.2,0.2c-0.6,0.6-1.1,1.1-1.8,1.5c-0.3,0.2-0.4,0.7-0.1,1c0.1,0.2,0.3,0.3,0.6,0.3
			c0.1,0,0.3,0,0.4-0.1c0.7-0.5,1.3-1.1,1.9-1.7l0.3-0.3c0.3-0.3,0.3-0.7,0-1C228.7,142.4,228.3,142.4,228,142.7z"/>
		<path class="st0" d="M237.3,99.7c-0.4,0-0.7,0.3-0.7,0.7l-0.1,2.8c0,0.4,0.3,0.7,0.7,0.7c0,0,0,0,0,0c0.4,0,0.7-0.3,0.7-0.7
			l0.1-2.8C238,100,237.7,99.7,237.3,99.7z"/>
		<path class="st0" d="M237.9,88.6c-0.4,0-0.7,0.3-0.7,0.7L237,92c0,0.4,0.3,0.7,0.7,0.7c0,0,0,0,0,0c0.4,0,0.7-0.3,0.7-0.7l0.1-2.8
			C238.5,88.9,238.2,88.6,237.9,88.6z"/>
		<path class="st0" d="M237.6,94.1c-0.4,0-0.7,0.3-0.7,0.7l-0.1,2.8c0,0.4,0.3,0.7,0.7,0.7c0,0,0,0,0,0c0.4,0,0.7-0.3,0.7-0.7
			l0.1-2.8C238.3,94.5,238,94.1,237.6,94.1z"/>
		<path class="st0" d="M237.1,105.3c-0.4,0-0.7,0.3-0.7,0.7l-0.1,2.8c0,0.4,0.3,0.7,0.7,0.7c0,0,0,0,0,0c0.4,0,0.7-0.3,0.7-0.7
			l0.1-2.8C237.7,105.6,237.4,105.3,237.1,105.3z"/>
		<g>
			<path class="st0" d="M227.3,62.5c-2.9,0-5.2,2.3-5.2,5.2s2.3,5.2,5.2,5.2c2.9,0,5.2-2.3,5.2-5.2S230.1,62.5,227.3,62.5z"/>
		</g>
	</g>
</g>
</svg>
