<?xml version="1.0" encoding="utf-8"?>
<!-- Generator: Adobe Illustrator 21.1.0, SVG Export Plug-In . SVG Version: 6.00 Build 0)  -->
<svg version="1.1" id="Layer_1" xmlns="http://www.w3.org/2000/svg" xmlns:xlink="http://www.w3.org/1999/xlink" x="0px" y="0px"
	 viewBox="0 0 457.4 682" style="enable-background:new 0 0 457.4 682;" xml:space="preserve">
<style type="text/css">
	.st0{fill:#D9248F;}
</style>
<g>
	<g>
		<path class="st0" d="M195.8,624.4L195.8,624.4l-32.7,4.3c-11.4-0.3-22.7-0.7-34.1-1.3c-5.7-0.3-11.4-0.6-17-1
			c-2.8-0.2-5.7-0.5-8.5-0.8c-1.4-0.2-2.8-0.3-4.2-0.6c-1.4-0.2-2.8-0.5-4.2-0.9c1.3,0.5,2.7,0.7,4.1,1c1.4,0.3,2.8,0.5,4.2,0.7
			c2.8,0.4,5.7,0.7,8.5,1c5.7,0.6,11.4,0.9,17,1.3c11.4,0.7,22.8,1.1,34.1,1.5l0.1,0l32.7-4.4l21.3-0.5l21.3-0.6l-21.3,0.1
			L195.8,624.4z"/>
		<path class="st0" d="M224.3,564.7c0,0,0.1,0,0.2,0c1-0.2,1.9-0.4,2.7-0.6c0.4-0.1,0.6-0.5,0.5-0.8c-0.1-0.4-0.5-0.6-0.8-0.5
			c-0.9,0.2-1.8,0.4-2.7,0.6c-0.4,0.1-0.6,0.5-0.5,0.8C223.7,564.4,224,564.7,224.3,564.7z"/>
		<path class="st0" d="M184.8,565.5c0,0.4,0.3,0.7,0.7,0.7l2.8,0.1c0,0,0,0,0,0c0.4,0,0.7-0.3,0.7-0.7c0-0.4-0.3-0.7-0.7-0.7
			l-2.8-0.1C185.1,564.8,184.8,565.1,184.8,565.5z"/>
		<path class="st0" d="M190.4,565.7c0,0.4,0.3,0.7,0.7,0.7l2.8,0.1c0,0,0,0,0,0c0.4,0,0.7-0.3,0.7-0.7c0-0.4-0.3-0.7-0.7-0.7
			l-2.8-0.1C190.7,565,190.4,565.4,190.4,565.7z"/>
		<path class="st0" d="M182.7,566.1c0.4,0,0.7-0.3,0.7-0.7c0-0.4-0.3-0.7-0.7-0.7l-2.8-0.1c0,0,0,0,0,0c-0.4,0-0.7,0.3-0.7,0.7
			c0,0.4,0.3,0.7,0.7,0.7L182.7,566.1C182.7,566.1,182.7,566.1,182.7,566.1z"/>
		<path class="st0" d="M216,565c-0.9,0.2-1.9,0.3-2.7,0.5c-0.4,0.1-0.6,0.4-0.6,0.8c0.1,0.3,0.4,0.6,0.7,0.6c0,0,0.1,0,0.1,0
			c0.9-0.1,1.8-0.3,2.8-0.5c0.4-0.1,0.6-0.4,0.6-0.8C216.7,565.1,216.4,564.9,216,565z"/>
		<path class="st0" d="M205.1,565.8c-0.8-0.1-1.8-0.1-2.8-0.2c-0.4,0-0.7,0.3-0.7,0.7c0,0.4,0.3,0.7,0.7,0.7c1,0.1,2,0.1,2.8,0.2
			c0,0,0,0,0,0c0.4,0,0.7-0.3,0.7-0.6C205.8,566.2,205.5,565.8,205.1,565.8z"/>
		<path class="st0" d="M199.5,565.5l-2.8-0.1c-0.4,0-0.7,0.3-0.7,0.7c0,0.4,0.3,0.7,0.7,0.7l2.8,0.1c0,0,0,0,0,0
			c0.4,0,0.7-0.3,0.7-0.7C200.2,565.8,199.9,565.5,199.5,565.5z"/>
		<path class="st0" d="M210.5,565.8c-1.1,0.1-2,0.2-2.7,0.2c-0.4,0-0.7,0.3-0.7,0.7c0,0.4,0.3,0.7,0.7,0.7c0,0,0,0,0,0
			c0.8,0,1.7-0.1,2.8-0.2c0.4,0,0.7-0.4,0.6-0.8C211.3,566,210.9,565.7,210.5,565.8z"/>
		<path class="st0" d="M311.9,566.7c-0.9,0-1.8-0.1-2.8-0.2c-0.4-0.1-0.7,0.3-0.7,0.7c0,0.4,0.3,0.7,0.7,0.7
			c0.9,0.1,1.9,0.1,2.8,0.2c0,0,0,0,0,0c0.4,0,0.7-0.3,0.7-0.7C312.6,567,312.3,566.7,311.9,566.7z"/>
		<path class="st0" d="M317.4,566.9c-0.9,0-1.8-0.1-2.8-0.1c0,0,0,0,0,0c-0.4,0-0.7,0.3-0.7,0.7c0,0.4,0.3,0.7,0.7,0.7
			c1,0,1.9,0.1,2.8,0.1c0,0,0,0,0,0c0.4,0,0.7-0.3,0.7-0.7C318.1,567.2,317.8,566.9,317.4,566.9z"/>
		<path class="st0" d="M323,566.9c-0.7,0-1.4,0-2,0l-0.7,0c0,0,0,0,0,0c-0.4,0-0.7,0.3-0.7,0.7c0,0.4,0.3,0.7,0.7,0.7l0.7,0
			c0.7,0,1.4,0,2.1,0c0.4,0,0.7-0.3,0.7-0.7C323.7,567.2,323.4,566.9,323,566.9z"/>
		<path class="st0" d="M306.3,566.3c-0.9-0.1-1.9-0.1-2.8-0.2c-0.4,0-0.7,0.2-0.8,0.6c0,0.4,0.2,0.7,0.6,0.8
			c0.9,0.1,1.9,0.2,2.8,0.2c0,0,0,0,0.1,0c0.4,0,0.7-0.3,0.7-0.6C307,566.7,306.7,566.3,306.3,566.3z"/>
		<path class="st0" d="M300.8,565.8c-0.9-0.1-1.9-0.2-2.7-0.3c-0.4-0.1-0.7,0.2-0.8,0.6c-0.1,0.4,0.2,0.7,0.6,0.8
			c0.9,0.1,1.8,0.2,2.8,0.4c0,0,0.1,0,0.1,0c0.3,0,0.7-0.3,0.7-0.6C301.5,566.2,301.2,565.9,300.8,565.8z"/>
		<path class="st0" d="M328.5,566.4c-0.9,0.1-1.8,0.2-2.7,0.3c-0.4,0-0.7,0.4-0.6,0.8c0,0.4,0.3,0.6,0.7,0.6c0,0,0,0,0.1,0
			c0.9-0.1,1.9-0.2,2.8-0.3c0.4,0,0.7-0.4,0.6-0.8C329.2,566.6,328.8,566.4,328.5,566.4z"/>
		<path class="st0" d="M339.4,564.5c-0.9,0.2-1.8,0.4-2.7,0.6c-0.4,0.1-0.6,0.4-0.5,0.8c0.1,0.3,0.4,0.6,0.7,0.6c0,0,0.1,0,0.1,0
			c1-0.2,1.9-0.4,2.7-0.6c0.4-0.1,0.6-0.5,0.5-0.8C340.1,564.7,339.8,564.5,339.4,564.5z"/>
		<path class="st0" d="M200.9,412.7l0.3,2.8c0,0.4,0.3,0.6,0.7,0.6c0,0,0,0,0.1,0c0.4,0,0.7-0.4,0.6-0.8l-0.3-2.8
			c0-0.4-0.4-0.6-0.8-0.6C201.1,411.9,200.9,412.3,200.9,412.7z"/>
		<path class="st0" d="M201.9,423.8l0.3,2.8c0,0.4,0.3,0.6,0.7,0.6c0,0,0,0,0.1,0c0.4,0,0.7-0.4,0.6-0.8l-0.3-2.8
			c0-0.4-0.4-0.7-0.8-0.6C202.2,423,201.9,423.4,201.9,423.8z"/>
		<path class="st0" d="M201.4,418.2l0.3,2.8c0,0.4,0.3,0.6,0.7,0.6c0,0,0,0,0.1,0c0.4,0,0.7-0.4,0.6-0.8l-0.3-2.8
			c0-0.4-0.4-0.7-0.8-0.6C201.7,417.5,201.4,417.8,201.4,418.2z"/>
		<path class="st0" d="M200.4,407.1l0.3,2.8c0,0.4,0.3,0.6,0.7,0.6c0,0,0,0,0.1,0c0.4,0,0.7-0.4,0.6-0.8l-0.3-2.8
			c0-0.4-0.4-0.6-0.8-0.6C200.6,406.4,200.3,406.7,200.4,407.1z"/>
		<path class="st0" d="M203.1,428.6c-0.4,0-0.7,0.4-0.6,0.8l0.3,2.8c0,0.4,0.3,0.6,0.7,0.6c0,0,0,0,0.1,0c0.4,0,0.7-0.4,0.6-0.8
			l-0.3-2.8C203.8,428.8,203.4,428.5,203.1,428.6z"/>
		<path class="st0" d="M199.8,401.6l0.3,2.8c0,0.4,0.3,0.6,0.7,0.6c0,0,0,0,0.1,0c0.4,0,0.7-0.4,0.6-0.8l-0.3-2.8
			c0-0.4-0.4-0.7-0.8-0.6C200,400.8,199.8,401.2,199.8,401.6z"/>
		<path class="st0" d="M214.1,540.2c0.1,1,0.3,1.9,0.4,2.8c0.1,0.3,0.4,0.6,0.7,0.6c0,0,0.1,0,0.1,0c0.4-0.1,0.6-0.4,0.6-0.8
			c-0.1-0.9-0.3-1.8-0.4-2.7c-0.1-0.4-0.4-0.6-0.8-0.6C214.3,539.5,214.1,539.8,214.1,540.2z"/>
		<path class="st0" d="M203.5,440.4l0.3,2.8c0,0.4,0.3,0.6,0.7,0.6c0,0,0,0,0.1,0c0.4,0,0.7-0.4,0.6-0.8l-0.3-2.8
			c0-0.4-0.4-0.7-0.8-0.6C203.7,439.7,203.4,440,203.5,440.4z"/>
		<path class="st0" d="M204,446l0.3,2.8c0,0.4,0.3,0.6,0.7,0.6c0,0,0,0,0.1,0c0.4,0,0.7-0.4,0.6-0.8l-0.3-2.8c0-0.4-0.4-0.7-0.8-0.6
			C204.2,445.3,204,445.6,204,446z"/>
		<path class="st0" d="M213.3,534.7c0.1,1,0.3,1.9,0.4,2.8c0,0.3,0.3,0.6,0.7,0.6c0,0,0.1,0,0.1,0c0.4-0.1,0.6-0.4,0.6-0.8
			c-0.1-0.9-0.3-1.8-0.4-2.7c-0.1-0.4-0.4-0.7-0.8-0.6C213.5,533.9,213.3,534.3,213.3,534.7z"/>
		<path class="st0" d="M215,545.7c0.2,0.9,0.3,1.9,0.5,2.7c0.1,0.3,0.4,0.6,0.7,0.6c0,0,0.1,0,0.1,0c0.4-0.1,0.6-0.4,0.6-0.8
			c-0.2-0.9-0.3-1.8-0.5-2.7c-0.1-0.4-0.4-0.6-0.8-0.6C215.2,545,214.9,545.3,215,545.7z"/>
		<path class="st0" d="M198.6,390.5l0.3,2.8c0,0.4,0.3,0.6,0.7,0.6c0,0,0.1,0,0.1,0c0.4,0,0.7-0.4,0.6-0.8l-0.3-2.8
			c0-0.4-0.4-0.7-0.8-0.6C198.8,389.8,198.6,390.1,198.6,390.5z"/>
		<path class="st0" d="M221.1,567.1c-0.1-0.4-0.5-0.6-0.8-0.5c-0.4,0.1-0.6,0.5-0.5,0.8l0.6,2.7c0.1,0.3,0.4,0.5,0.7,0.5
			c0.1,0,0.1,0,0.2,0c0.4-0.1,0.6-0.5,0.5-0.8L221.1,567.1z"/>
		<path class="st0" d="M218.5,562l0.6,2.3c-0.1,0-0.2,0-0.3,0.1c-0.4,0.1-0.6,0.4-0.5,0.8c0.1,0.3,0.4,0.6,0.7,0.6c0,0,0.1,0,0.1,0
			c0.9-0.2,1.8-0.4,2.7-0.6c0.4-0.1,0.6-0.5,0.5-0.8c-0.1-0.4-0.4-0.6-0.8-0.5c-0.4,0.1-0.7,0.1-1.1,0.2l-0.6-2.4
			c-0.1-0.4-0.5-0.6-0.8-0.5C218.6,561.3,218.4,561.7,218.5,562z"/>
		<path class="st0" d="M217.2,556.6c0.2,0.9,0.4,1.8,0.6,2.7c0.1,0.3,0.4,0.5,0.7,0.5c0.1,0,0.1,0,0.2,0c0.4-0.1,0.6-0.5,0.5-0.8
			c-0.2-0.9-0.4-1.8-0.6-2.7c-0.1-0.4-0.5-0.6-0.8-0.5C217.4,555.9,217.1,556.2,217.2,556.6z"/>
		<path class="st0" d="M199.2,396l0.3,2.8c0,0.4,0.3,0.6,0.7,0.6c0,0,0,0,0.1,0c0.4,0,0.7-0.4,0.6-0.8l-0.3-2.8
			c0-0.4-0.4-0.7-0.8-0.6C199.5,395.3,199.2,395.6,199.2,396z"/>
		<path class="st0" d="M216,551.2c0.2,0.9,0.4,1.8,0.6,2.7c0.1,0.3,0.4,0.6,0.7,0.6c0,0,0.1,0,0.1,0c0.4-0.1,0.6-0.5,0.5-0.8
			c-0.2-0.9-0.4-1.8-0.6-2.7c-0.1-0.4-0.4-0.6-0.8-0.5C216.2,550.4,216,550.8,216,551.2z"/>
		<path class="st0" d="M210,507l0.3,2.8c0,0.4,0.3,0.6,0.7,0.6c0,0,0.1,0,0.1,0c0.4,0,0.7-0.4,0.6-0.8l-0.3-2.8
			c0-0.4-0.4-0.7-0.8-0.6C210.2,506.3,209.9,506.7,210,507z"/>
		<path class="st0" d="M209.4,501.5l0.3,2.8c0,0.4,0.3,0.6,0.7,0.6c0,0,0.1,0,0.1,0c0.4,0,0.7-0.4,0.6-0.8l-0.3-2.8
			c0-0.4-0.4-0.7-0.8-0.6C209.6,500.8,209.3,501.1,209.4,501.5z"/>
		<path class="st0" d="M208.8,495.9l0.3,2.8c0,0.4,0.3,0.6,0.7,0.6c0,0,0,0,0.1,0c0.4,0,0.7-0.4,0.6-0.8l-0.3-2.8
			c0-0.4-0.4-0.7-0.8-0.6C209,495.2,208.7,495.6,208.8,495.9z"/>
		<path class="st0" d="M210.6,512.6l0.3,2.8c0,0.4,0.3,0.6,0.7,0.6c0,0,0.1,0,0.1,0c0.4,0,0.7-0.4,0.6-0.8l-0.3-2.8
			c0-0.4-0.4-0.6-0.8-0.6C210.8,511.8,210.6,512.2,210.6,512.6z"/>
		<path class="st0" d="M211.2,518.1l0.3,2.8c0,0.4,0.3,0.6,0.7,0.6c0,0,0.1,0,0.1,0c0.4,0,0.7-0.4,0.6-0.8l-0.3-2.8
			c0-0.4-0.4-0.7-0.8-0.6C211.5,517.4,211.2,517.7,211.2,518.1z"/>
		<path class="st0" d="M212.6,529.2l0.4,2.8c0,0.3,0.3,0.6,0.7,0.6c0,0,0.1,0,0.1,0c0.4-0.1,0.6-0.4,0.6-0.8L214,529
			c0-0.4-0.4-0.7-0.8-0.6C212.8,528.4,212.5,528.8,212.6,529.2z"/>
		<path class="st0" d="M205.1,450.8c-0.4,0-0.7,0.4-0.6,0.8l0.3,2.8c0,0.4,0.3,0.6,0.7,0.6c0,0,0,0,0.1,0c0.4,0,0.7-0.4,0.6-0.8
			l-0.3-2.8C205.8,451,205.5,450.7,205.1,450.8z"/>
		<path class="st0" d="M211.9,523.6l0.3,2.8c0,0.4,0.3,0.6,0.7,0.6c0,0,0.1,0,0.1,0c0.4,0,0.7-0.4,0.6-0.8l-0.3-2.8
			c0-0.4-0.4-0.6-0.8-0.6C212.1,522.9,211.9,523.3,211.9,523.6z"/>
		<path class="st0" d="M205.5,462.6l0.3,2.8c0,0.4,0.3,0.6,0.7,0.6c0,0,0,0,0.1,0c0.4,0,0.7-0.4,0.6-0.8l-0.3-2.8
			c0-0.4-0.4-0.7-0.8-0.6C205.8,461.9,205.5,462.2,205.5,462.6z"/>
		<path class="st0" d="M206.7,467.4c-0.4,0-0.7,0.4-0.6,0.8l0.3,2.8c0,0.4,0.3,0.6,0.7,0.6c0,0,0,0,0.1,0c0.4,0,0.7-0.4,0.6-0.8
			l-0.3-2.8C207.4,467.7,207,467.4,206.7,467.4z"/>
		<path class="st0" d="M205,457.1l0.3,2.8c0,0.4,0.3,0.6,0.7,0.6c0,0,0,0,0.1,0c0.4,0,0.7-0.4,0.6-0.8l-0.3-2.8
			c0-0.4-0.4-0.7-0.8-0.6C205.2,456.4,205,456.7,205,457.1z"/>
		<path class="st0" d="M207.1,479.3l0.3,2.8c0,0.4,0.3,0.6,0.7,0.6c0,0,0,0,0.1,0c0.4,0,0.7-0.4,0.6-0.8l-0.3-2.8
			c0-0.4-0.4-0.6-0.8-0.6C207.3,478.6,207.1,478.9,207.1,479.3z"/>
		<path class="st0" d="M206.6,473.7l0.3,2.8c0,0.4,0.3,0.6,0.7,0.6c0,0,0,0,0.1,0c0.4,0,0.7-0.4,0.6-0.8l-0.3-2.8
			c0-0.4-0.4-0.7-0.8-0.6C206.8,473,206.5,473.4,206.6,473.7z"/>
		<path class="st0" d="M207.6,484.8l0.3,2.8c0,0.4,0.3,0.6,0.7,0.6c0,0,0,0,0.1,0c0.4,0,0.7-0.4,0.6-0.8l-0.3-2.8
			c0-0.4-0.4-0.6-0.8-0.6C207.9,484.1,207.6,484.5,207.6,484.8z"/>
		<path class="st0" d="M208.2,490.4l0.3,2.8c0,0.4,0.3,0.6,0.7,0.6c0,0,0,0,0.1,0c0.4,0,0.7-0.4,0.6-0.8l-0.3-2.8
			c0-0.4-0.4-0.6-0.8-0.6C208.4,489.7,208.2,490,208.2,490.4z"/>
		<path class="st0" d="M203.6,434.1c-0.4,0-0.7,0.4-0.6,0.8l0.3,2.8c0,0.4,0.3,0.6,0.7,0.6c0,0,0,0,0.1,0c0.4,0,0.7-0.4,0.6-0.8
			l-0.3-2.8C204.3,434.4,203.9,434.1,203.6,434.1z"/>
		<path class="st0" d="M217.8,245.8c0.1,0,0.1,0,0.2,0c0.3,0,0.6-0.2,0.7-0.5c0.2-0.9,0.5-1.8,0.7-2.7c0.1-0.4-0.1-0.8-0.5-0.9
			c-0.4-0.1-0.8,0.1-0.9,0.5c-0.2,0.9-0.5,1.8-0.7,2.7C217.2,245.3,217.5,245.7,217.8,245.8z"/>
		<path class="st0" d="M216.5,251.2c0.1,0,0.1,0,0.2,0c0.3,0,0.6-0.2,0.7-0.5c0.2-0.9,0.5-1.8,0.7-2.7c0.1-0.4-0.1-0.8-0.5-0.8
			c-0.4-0.1-0.8,0.1-0.8,0.5c-0.2,0.9-0.5,1.8-0.7,2.7C215.9,250.8,216.1,251.1,216.5,251.2z"/>
		<path class="st0" d="M221,235.1c0.1,0,0.2,0,0.2,0c0.3,0,0.6-0.2,0.7-0.5c0.3-0.9,0.6-1.7,1-2.6c0.1-0.4,0-0.8-0.4-0.9
			c-0.4-0.1-0.8,0-0.9,0.4c-0.3,0.9-0.7,1.8-1,2.6C220.4,234.6,220.6,235,221,235.1z"/>
		<path class="st0" d="M219.3,240.4c0.1,0,0.1,0,0.2,0c0.3,0,0.6-0.2,0.7-0.5c0.3-1,0.5-1.8,0.8-2.7c0.1-0.4-0.1-0.8-0.5-0.9
			c-0.4-0.1-0.8,0.1-0.9,0.5c-0.3,0.8-0.5,1.7-0.8,2.7C218.7,239.9,218.9,240.3,219.3,240.4z"/>
		<path class="st0" d="M215.1,256.7c0.1,0,0.1,0,0.2,0c0.3,0,0.6-0.2,0.7-0.5l0.7-2.7c0.1-0.4-0.1-0.8-0.5-0.8
			c-0.4-0.1-0.8,0.1-0.8,0.5l-0.7,2.7C214.5,256.2,214.8,256.6,215.1,256.7z"/>
		<path class="st0" d="M211.4,273c0,0,0.1,0,0.2,0c0.3,0,0.6-0.2,0.7-0.5l0.6-2.7c0.1-0.4-0.2-0.7-0.5-0.8c-0.4-0.1-0.7,0.2-0.8,0.5
			l-0.6,2.7C210.8,272.5,211,272.9,211.4,273z"/>
		<path class="st0" d="M210.2,278.4c0.1,0,0.1,0,0.1,0c0.3,0,0.6-0.2,0.7-0.5l0.6-2.7c0.1-0.4-0.2-0.7-0.5-0.8
			c-0.4-0.1-0.7,0.2-0.8,0.5l-0.6,2.7C209.6,278,209.8,278.4,210.2,278.4z"/>
		<path class="st0" d="M212.6,267.5c0.1,0,0.1,0,0.2,0c0.3,0,0.6-0.2,0.7-0.5l0.6-2.7c0.1-0.4-0.1-0.7-0.5-0.8
			c-0.4-0.1-0.7,0.1-0.8,0.5l-0.6,2.7C212,267.1,212.2,267.5,212.6,267.5z"/>
		<path class="st0" d="M209,283.9c0,0,0.1,0,0.1,0c0.3,0,0.6-0.2,0.7-0.5l0.6-2.7c0.1-0.4-0.2-0.7-0.5-0.8c-0.4-0.1-0.7,0.2-0.8,0.5
			l-0.6,2.7C208.4,283.4,208.6,283.8,209,283.9z"/>
		<path class="st0" d="M213.9,262.1c0.1,0,0.1,0,0.2,0c0.3,0,0.6-0.2,0.7-0.5l0.6-2.7c0.1-0.4-0.1-0.8-0.5-0.8
			c-0.4-0.1-0.7,0.1-0.8,0.5l-0.6,2.7C213.3,261.6,213.5,262,213.9,262.1z"/>
		<path class="st0" d="M238.4,200.3c0.1,0.1,0.2,0.1,0.4,0.1c0.2,0,0.5-0.1,0.6-0.3c0.5-0.8,1-1.6,1.5-2.3c0.2-0.3,0.1-0.8-0.2-1
			c-0.3-0.2-0.8-0.1-1,0.2c-0.5,0.8-1,1.5-1.5,2.4C238,199.6,238.1,200.1,238.4,200.3z"/>
		<path class="st0" d="M241.8,195.7c0.2,0,0.4-0.1,0.6-0.3c0.5-0.8,1.1-1.6,1.6-2.3c0.2-0.3,0.1-0.8-0.2-1c-0.3-0.2-0.7-0.1-1,0.2
			c-0.5,0.7-1,1.5-1.6,2.3c-0.2,0.3-0.1,0.8,0.2,1C241.6,195.7,241.7,195.7,241.8,195.7z"/>
		<path class="st0" d="M245,191.1c0.2,0,0.4-0.1,0.6-0.3c0.6-0.8,1.1-1.6,1.6-2.3c0.2-0.3,0.2-0.7-0.2-1c-0.3-0.2-0.7-0.2-1,0.2
			c-0.5,0.7-1,1.5-1.6,2.3c-0.2,0.3-0.1,0.7,0.2,1C244.7,191.1,244.9,191.1,245,191.1z"/>
		<path class="st0" d="M235.5,205c0.1,0.1,0.2,0.1,0.4,0.1c0.2,0,0.5-0.1,0.6-0.3c0.5-0.8,1-1.6,1.5-2.4c0.2-0.3,0.1-0.8-0.2-1
			c-0.3-0.2-0.8-0.1-1,0.2c-0.5,0.8-1,1.6-1.5,2.4C235,204.4,235.2,204.8,235.5,205z"/>
		<path class="st0" d="M198,385c0.1,0.9,0.2,1.8,0.3,2.8c0,0.4,0.3,0.6,0.7,0.6c0,0,0.1,0,0.1,0c0.4,0,0.7-0.4,0.6-0.8
			c-0.1-1-0.2-1.9-0.3-2.8c0-0.4-0.4-0.7-0.8-0.6C198.2,384.2,197.9,384.6,198,385z"/>
		<path class="st0" d="M232.7,209.8c0.1,0.1,0.2,0.1,0.3,0.1c0.2,0,0.5-0.1,0.6-0.4c0.5-0.8,0.9-1.6,1.4-2.4c0.2-0.3,0.1-0.8-0.2-1
			c-0.3-0.2-0.8-0.1-1,0.2c-0.5,0.8-0.9,1.6-1.4,2.4C232.2,209.2,232.3,209.7,232.7,209.8z"/>
		<path class="st0" d="M225.1,224.7c0.1,0,0.2,0.1,0.3,0.1c0.3,0,0.5-0.2,0.6-0.4c0.4-0.8,0.8-1.7,1.2-2.5c0.2-0.3,0-0.8-0.3-0.9
			c-0.3-0.2-0.8,0-0.9,0.3c-0.4,0.8-0.8,1.7-1.2,2.5C224.6,224.2,224.7,224.6,225.1,224.7z"/>
		<path class="st0" d="M222.9,229.9c0.1,0,0.2,0.1,0.3,0.1c0.3,0,0.5-0.2,0.6-0.4c0.3-0.9,0.7-1.7,1.1-2.6c0.2-0.4,0-0.8-0.4-0.9
			c-0.4-0.1-0.8,0-0.9,0.4c-0.4,0.9-0.7,1.7-1.1,2.6C222.4,229.3,222.6,229.7,222.9,229.9z"/>
		<path class="st0" d="M230,214.7c0.1,0.1,0.2,0.1,0.3,0.1c0.2,0,0.5-0.1,0.6-0.4c0.4-0.8,0.9-1.6,1.3-2.4c0.2-0.3,0.1-0.8-0.3-0.9
			c-0.3-0.2-0.8-0.1-0.9,0.3c-0.4,0.8-0.9,1.6-1.3,2.5C229.5,214.1,229.7,214.6,230,214.7z"/>
		<path class="st0" d="M227.5,219.7c0.1,0,0.2,0.1,0.3,0.1c0.3,0,0.5-0.1,0.6-0.4c0.4-0.8,0.8-1.7,1.3-2.5c0.2-0.3,0-0.8-0.3-0.9
			c-0.3-0.2-0.8,0-0.9,0.3c-0.4,0.8-0.8,1.7-1.3,2.5C227,219.1,227.1,219.5,227.5,219.7z"/>
		<path class="st0" d="M198.5,334.4c-0.4-0.1-0.7,0.2-0.8,0.5l-0.6,2.7c-0.1,0.4,0.2,0.7,0.5,0.8c0,0,0.1,0,0.1,0
			c0.3,0,0.6-0.2,0.7-0.6l0.6-2.7C199.1,334.9,198.9,334.5,198.5,334.4z"/>
		<path class="st0" d="M197.4,339.9c-0.4-0.1-0.7,0.2-0.8,0.6c-0.2,0.9-0.3,1.8-0.5,2.8c-0.1,0.4,0.2,0.7,0.6,0.8c0,0,0.1,0,0.1,0
			c0.3,0,0.6-0.2,0.7-0.6c0.1-0.9,0.3-1.8,0.5-2.7C198,340.4,197.8,340,197.4,339.9z"/>
		<path class="st0" d="M195.1,351.6c-0.1,0.9-0.1,1.9-0.2,2.8c0,0.4,0.3,0.7,0.7,0.7c0,0,0,0,0,0c0.4,0,0.7-0.3,0.7-0.7
			c0-0.9,0.1-1.8,0.2-2.8c0-0.4-0.3-0.7-0.6-0.7C195.5,350.9,195.2,351.2,195.1,351.6z"/>
		<path class="st0" d="M194.8,360c0,0.4,0.3,0.7,0.7,0.7c0,0,0,0,0,0c0.4,0,0.7-0.3,0.7-0.7c0-0.9,0-1.8,0.1-2.8
			c0-0.4-0.3-0.7-0.7-0.7c-0.4,0-0.7,0.3-0.7,0.7C194.8,358.2,194.8,359.1,194.8,360z"/>
		<path class="st0" d="M195.7,346c-0.1,0.9-0.2,1.8-0.3,2.8c0,0.4,0.2,0.7,0.6,0.8c0,0,0,0,0.1,0c0.4,0,0.7-0.3,0.7-0.6
			c0.1-0.9,0.2-1.8,0.3-2.8c0-0.4-0.2-0.7-0.6-0.8C196.1,345.4,195.7,345.6,195.7,346z"/>
		<path class="st0" d="M195.6,366.3c0.4,0,0.7-0.4,0.7-0.7c-0.1-0.9-0.1-1.8-0.1-2.8c0-0.4-0.3-0.7-0.7-0.7c-0.4,0-0.7,0.3-0.7,0.7
			c0,1,0.1,1.9,0.1,2.8C194.9,366,195.2,366.3,195.6,366.3C195.6,366.3,195.6,366.3,195.6,366.3z"/>
		<path class="st0" d="M197.8,378.6c-0.4,0.1-0.6,0.4-0.6,0.8c0.1,0.9,0.2,1.8,0.4,2.8c0,0.3,0.3,0.6,0.7,0.6c0,0,0.1,0,0.1,0
			c0.4-0.1,0.7-0.4,0.6-0.8c-0.1-1-0.3-1.9-0.4-2.8C198.5,378.9,198.2,378.6,197.8,378.6z"/>
		<path class="st0" d="M196.9,373.1c-0.4,0.1-0.6,0.4-0.6,0.8c0.2,0.8,0.3,1.7,0.5,2.7c0.1,0.3,0.4,0.6,0.7,0.6c0,0,0.1,0,0.1,0
			c0.4-0.1,0.6-0.4,0.6-0.8c-0.2-1-0.3-1.9-0.5-2.8C197.6,373.3,197.3,373.1,196.9,373.1z"/>
		<path class="st0" d="M196.4,371.8c0.1,0,0.1,0,0.2,0c0.4-0.1,0.6-0.5,0.5-0.8c-0.1-0.3-0.1-0.6-0.2-0.8c-0.1-0.5-0.3-1.1-0.4-1.8
			c-0.1-0.4-0.4-0.7-0.8-0.6c-0.4,0.1-0.6,0.4-0.6,0.8c0.1,0.8,0.2,1.5,0.4,2c0.1,0.2,0.1,0.5,0.2,0.8
			C195.8,371.6,196.1,371.8,196.4,371.8z"/>
		<path class="st0" d="M200.7,323.5c-0.4-0.1-0.7,0.2-0.8,0.5l-0.6,2.7c-0.1,0.4,0.2,0.7,0.5,0.8c0,0,0.1,0,0.1,0
			c0.3,0,0.6-0.2,0.7-0.6l0.6-2.7C201.4,323.9,201.1,323.6,200.7,323.5z"/>
		<path class="st0" d="M205.5,300.3c0,0,0.1,0,0.1,0c0.3,0,0.6-0.2,0.7-0.6l0.6-2.7c0.1-0.4-0.2-0.7-0.5-0.8
			c-0.4-0.1-0.7,0.2-0.8,0.5l-0.6,2.7C204.9,299.8,205.2,300.2,205.5,300.3z"/>
		<path class="st0" d="M248.3,186.6c0.2,0,0.4-0.1,0.6-0.3c1.1-1.4,1.7-2.2,1.7-2.2c0.2-0.3,0.2-0.7-0.1-1c-0.3-0.2-0.7-0.2-1,0.1
			c0,0-0.6,0.8-1.7,2.2c-0.2,0.3-0.2,0.7,0.1,1C248,186.5,248.1,186.6,248.3,186.6z"/>
		<path class="st0" d="M204.4,305.7c0,0,0.1,0,0.1,0c0.3,0,0.6-0.2,0.7-0.6l0.6-2.7c0.1-0.4-0.2-0.7-0.5-0.8
			c-0.4-0.1-0.7,0.2-0.8,0.5l-0.6,2.7C203.8,305.3,204,305.6,204.4,305.7z"/>
		<path class="st0" d="M206.7,294.8c0,0,0.1,0,0.1,0c0.3,0,0.6-0.2,0.7-0.6l0.6-2.7c0.1-0.4-0.2-0.7-0.5-0.8
			c-0.4-0.1-0.7,0.2-0.8,0.5l-0.6,2.7C206.1,294.3,206.3,294.7,206.7,294.8z"/>
		<path class="st0" d="M199.6,329c-0.4-0.1-0.7,0.2-0.8,0.5l-0.6,2.7c-0.1,0.4,0.2,0.7,0.5,0.8c0,0,0.1,0,0.1,0
			c0.3,0,0.6-0.2,0.7-0.6l0.6-2.7C200.2,329.4,200,329,199.6,329z"/>
		<path class="st0" d="M207.8,289.3c0,0,0.1,0,0.1,0c0.3,0,0.6-0.2,0.7-0.6l0.6-2.7c0.1-0.4-0.2-0.7-0.5-0.8
			c-0.4-0.1-0.7,0.2-0.8,0.5l-0.6,2.7C207.2,288.9,207.5,289.3,207.8,289.3z"/>
		<path class="st0" d="M204.1,307.1c-0.4-0.1-0.7,0.2-0.8,0.5l-0.6,2.7c-0.1,0.4,0.2,0.7,0.5,0.8c0,0,0.1,0,0.1,0
			c0.3,0,0.6-0.2,0.7-0.6l0.6-2.7C204.7,307.5,204.5,307.2,204.1,307.1z"/>
		<path class="st0" d="M201.9,318c-0.4-0.1-0.7,0.2-0.8,0.5l-0.6,2.7c-0.1,0.4,0.2,0.7,0.5,0.8c0,0,0.1,0,0.1,0
			c0.3,0,0.6-0.2,0.7-0.6l0.6-2.7C202.5,318.5,202.2,318.1,201.9,318z"/>
		<path class="st0" d="M203,312.6c-0.4-0.1-0.7,0.2-0.8,0.5l-0.6,2.7c-0.1,0.4,0.2,0.7,0.5,0.8c0,0,0.1,0,0.1,0
			c0.3,0,0.6-0.2,0.7-0.6l0.6-2.7C203.6,313,203.4,312.6,203,312.6z"/>
		<path class="st0" d="M285.2,175.7C285.2,175.7,285.2,175.7,285.2,175.7L285.2,175.7C285.2,175.7,285.2,175.7,285.2,175.7
			c-1-0.1-2-0.3-3-0.3c0.2,0.1,0.4,0.1,0.7,0.2c-0.4,0-0.8-0.1-1.3-0.1c-0.6,0-1.2,0.1-1.8,0.1l-1.8,0.2c-0.6,0-1.2,0.1-1.8,0.2
			l-1.7,0.3c-0.6,0.1-1.2,0.2-1.7,0.4l-1.7,0.5l-1.7,0.5c-0.6,0.2-1.2,0.4-1.7,0.7c-1.1,0.5-2.1,1.2-3,1.8c-1,0.6-2,1.2-3,1.7
			c-0.5,0.3-1,0.5-1.6,0.6c-0.5,0.1-1.1,0.2-1.7-0.1c0.5,0.3,1.1,0.4,1.7,0.4c0.6-0.1,1.2-0.2,1.8-0.4c0.6-0.2,1.1-0.4,1.7-0.6
			c0.5-0.2,1.1-0.5,1.6-0.8c1-0.5,2.1-1.1,3.1-1.5c0.5-0.2,1-0.4,1.5-0.6l1.7-0.5l1.7-0.5c0.6-0.2,1.1-0.3,1.7-0.4l1.7-0.4
			c0.6-0.1,1.1-0.3,1.7-0.3l1.7-0.3c0.6-0.1,1.1-0.2,1.7-0.2c1.1-0.1,2.3-0.1,3.4-0.2l0.1,0c0.1,0,0.2-0.1,0.2-0.2
			C285.5,175.8,285.4,175.7,285.2,175.7z"/>
		<path class="st0" d="M367.2,215.2l-6.6-126.8c-0.2-14.3-0.6-17.9-1.9-29.9l-0.4-3.6c-0.1-1.1-0.6-2-1.5-2.7
			c-0.7-0.6-1.6-0.9-2.5-0.9c0-4.5,0.1-12.4-0.3-17.3c0-0.5-0.5-1-1.1-0.9c-0.5,0-1,0.5-0.9,1.1c0.4,4.9,0.3,12.9,0.3,17.3
			c-9,0.9-30.2,1.4-62.2,1.6c0,0,0,0,0,0c-0.1-0.1-0.3-0.2-0.5-0.2l-6.1,0.1c-0.2,0-0.4,0.1-0.5,0.2c-6.9,0-14.3,0-22.2,0
			c-37.5,0-73.7-0.4-81.2-0.4l1.3-18.3c0-0.5-0.4-1-0.9-1.1c-0.6,0-1,0.4-1.1,0.9l-1.3,18.5c-1.9,0.3-3.4,1.9-3.4,3.9
			c0,0-0.1,5.3-1.7,21.4c-0.4,4-3.9,21.7-8,42.1c-3,15-6.4,32-9.5,48.2c-5.8,30.4-14,82-20.1,155.3c-0.2,2.1-0.3,3.6-0.4,4.1
			c-0.8,7.6-0.2,23.5-0.2,24.2c0,0.2,0,0.4,0.1,0.6l36.4,193.8l5.4,29c0,0.2,0.1,0.4,0.1,0.6l-4.7,4.4c-0.1-0.4-0.3-0.8-0.5-1.3
			c-0.3-0.5-0.6-1-1.2-1.5c-0.5-0.5-1.3-0.8-2-0.9c-0.3,0-0.6,0-0.9,0.1l0,0c-1.8,0.9-3.2,1.9-4.6,3c-1.4,1.1-2.7,2.2-4,3.3
			c-2.6,2.2-5.2,4.4-7.8,6.5c-2.6,2.1-5.3,4.1-8.1,5.9c-1.4,0.9-2.8,1.7-4.2,2.5c-0.7,0.4-1.5,0.7-2.2,1.1l-1.1,0.5l-1.2,0.5
			c0,0,0,0,0,0c0,0-0.1,0.1-0.1,0.1c-1.9,0.6-4.8,1.3-8.1,2c-18.4,4.4-32.7,8.4-34.7,16.5c-0.8,3.6-2,14.4,0.3,17.6
			c0.2,0.3,0.4,0.5,0.7,0.7c1.5,1.7,5.6,3.8,33,5.8c15.8,1.1,31.9,1.7,37.8,1.7c12,0,30.9-3.3,33.5-3.8l41.5-2.1
			c1.6-0.1,3-1.1,3.6-2.7c1.3-3.6,1.4-9.9,1.2-21.1c-0.2-11.8-1.1-20.7-1.5-24.5c-0.1-0.8-0.1-1.4-0.2-1.7c0-1.9-1.5-3.5-3.3-3.8
			l-0.4-0.1l-1.5-9.7c1.1-0.9,1.6-2.2,1.4-3.7c0-0.2-3.8-25.2-8.1-49.7c-2.4-13.7-4.8-49.7-7-81.5c-1.8-26.1-3.1-46.7-4.3-52.5
			l-0.4-2.2c-2.3-11.2-4.6-22.8-3.9-32c2.5-31.3,22.1-105.1,30.2-122.6c5.7-12.3,13.7-24.6,18.3-30.6c4.8,15.1,17.3,57.8,19.3,69.6
			c2.3,13.6,12.1,73.7,12.6,78.7c0.4,5.7-3.5,164.4-5.1,225.1c0,1.8,1.1,3.3,2.7,3.9c1,0.3,2.1,0.7,3.1,1c-0.4,3.9-0.6,7.5-0.8,10.8
			c-0.2,3.9-0.4,7.4-0.9,10.3c-5.9,4.7-6.8,17.4-6.9,19c-0.1,1.3-0.4,3.8-0.8,6.5c-1.9,14.3-2.1,19.2,0.1,21.8
			c0.9,1,2.1,1.6,3.5,1.6c0.1,0,0.1,0,0.2,0c2,0.2,5.9,0.2,12.1,0.2c9.6,0,22.9-0.2,33.7-0.4c7.9-0.1,14.7-0.2,18.2-0.2
			c0.5,0,0.9,0,1.3,0h0c2,0,3.7-1.5,4-3.6c0.4-4.3-0.5-8.8-1.2-12.1c-0.2-1.1-0.5-2.2-0.5-2.7c0-0.2,0-0.4-0.1-0.6
			c-1-4.2-2.8-10.7-4.9-16.2c-2.6-6.9-4.8-10.7-7.4-12.4c-5.2-11-6.6-16.6-6.8-22.6c0.8-0.2,1.6-0.5,2.4-0.7c0,0,0,0,0,0
			c0,0,0,0,0,0c1.1-0.3,2.1-0.6,2.3-0.7c1.5-0.5,2.6-1.7,2.8-3.3c0.8-6.2,19.9-152.4,20.7-165.8c0.8-13.2-5-67.5-5.6-72.7l7.1-119.1
			C367.2,215.5,367.2,215.4,367.2,215.2z M354.5,55.4c0.1,0.7,0.1,1.3,0.2,2c-0.2,0-0.4,0-0.6,0c-0.4,0-0.7,0.4-0.7,0.7
			c0,0.4,0.3,0.7,0.7,0.7c0,0,0,0,0,0c0.2,0,0.4,0,0.6,0c0.7,6.8,1.1,10.8,1.4,15.5c-0.7,0-1.4,0.1-2.1,0.1c-0.4,0-0.7,0.4-0.7,0.7
			c0,0.4,0.3,0.7,0.7,0.7c0,0,0,0,0,0c0.7,0,1.4-0.1,2.1-0.1c0,0.6,0.1,1.2,0.1,1.8c-1.9,0.2-4.2,0.3-7,0.5
			c-13.2,0.7-35,0.9-58.8,0.9l0-21.6C319.4,57,345.1,56.5,354.5,55.4z M304.2,105.9c-6.3-5.7-9.6-14.1-10.1-25.7
			c21,0,40.2-0.3,52.8-0.8c0.2,2.7,0.5,5.4,0.6,8l0.4,8.5l0.9,17.1l0.1,2C332.7,115.9,314.7,115.5,304.2,105.9z M349.1,116.4
			l0.1,1.7c-0.4,0-0.7,0-1.1,0.1c-0.3-0.8-1-1.3-1.8-1.6C347.2,116.5,348.1,116.5,349.1,116.4z M289.1,54.4l0.1,30.1l-4.7,0.1
			l-0.1-30.1L289.1,54.4z M246.1,59.1c0.1,0.1,0.2,0.1,0.4,0.1h0c0.4,0,0.7-0.3,0.7-0.7l0-1.3c4.5,0,9.1,0,13.8,0c7.3,0,14.7,0,22,0
			l0,21.6c-12,0-24.4-0.1-36.3-0.1l0-0.6c0-0.4-0.3-0.7-0.7-0.7h0c-0.4,0-0.7,0.3-0.7,0.7l0,0.7c-0.8,0-1.6,0-2.4,0
			c0-0.6,0-1.2,0-1.8l2.4,0h0c0.4,0,0.7-0.3,0.7-0.7c0-0.1,0-0.1,0-0.2c0,0,0,0,0,0h0c0.4,0,0.7-0.3,0.7-0.7l0.1-2.8
			c0-0.4-0.3-0.7-0.7-0.7h0c-0.4,0-0.7,0.3-0.7,0.7l-0.1,2.8c0,0.1,0,0.1,0,0.2c0,0,0,0-0.1,0l-2.4,0c0.1-6.7,0.2-12.1,0.3-15.6
			l2.1,0h0C245.8,59.8,246.1,59.5,246.1,59.1C246.1,59.1,246.1,59.1,246.1,59.1z M243.3,57.2c0.8,0,1.7,0,2.5,0l0,1.3c0,0,0,0,0,0.1
			c-0.1-0.1-0.2-0.1-0.4-0.1l-2.1,0C243.3,58,243.3,57.6,243.3,57.2z M213.7,57.1c8.9,0.1,19,0.1,29.6,0.1c0,0.3,0,0.7,0,1.2l-0.6,0
			h0c-0.4,0-0.7,0.3-0.7,0.7c0,0.4,0.3,0.7,0.7,0.7l0.6,0c-0.1,3.4-0.3,8.8-0.6,15.6c-0.3,0.1-0.6,0.3-0.6,0.7
			c0,0.3,0.3,0.6,0.6,0.7c0,0.6,0,1.2-0.1,1.9c-10.4-0.1-20.3-0.2-29.2-0.3L213.7,57.1z M207.6,55.1l4.7,0.1l-0.5,30.1l-4.7-0.1
			L207.6,55.1z M176.9,75.8l1.6,0h0c0.4,0,0.7-0.3,0.7-0.7c0-0.4-0.3-0.7-0.7-0.7l-1.5,0c0.8-8.4,1.1-13.2,1.2-15.6l0.2,0h0
			c0.4,0,0.7-0.3,0.7-0.7c0-0.4-0.3-0.7-0.7-0.7l-0.2,0c0-0.4,0-0.6,0-0.6s11.1,0.1,27.8,0.2l-0.4,21.2c-15-0.2-25.9-0.3-29.1-0.4
			C176.8,77.2,176.9,76.4,176.9,75.8z M176.6,79.3c2.9,0,12.9,0.2,26.9,0.4c-0.4,6.9-1.8,12.7-4.3,17.4l0.5-10
			c0-0.2-0.1-0.4-0.2-0.5c-0.1-0.1-0.3-0.2-0.5-0.2l-23.5-0.5C176,82.9,176.4,80.7,176.6,79.3z M174,93.7l2.5,0.1c0,0,0,0,0,0
			c0.4,0,0.7-0.3,0.7-0.7c0-0.4-0.3-0.7-0.7-0.7l-2.3-0.1c0.4-1.9,0.7-3.6,1-5.1l19,0.4l0,2.2c0,0.4,0.3,0.7,0.7,0.7h0
			c0.4,0,0.7-0.3,0.7-0.7l0-2.2l2.6,0.1L198,93l-1.9-0.1c-0.3,0-0.5,0.1-0.6,0.3l0-0.7c0-0.4-0.3-0.7-0.7-0.7
			c-0.4,0-0.7,0.3-0.7,0.7l-0.1,2.8c0,0.4,0.3,0.7,0.7,0.7h0c0.4,0,0.7-0.3,0.7-0.7l0-1.3c0.1,0.2,0.3,0.3,0.6,0.3l1.9,0.1l-0.2,4.9
			c0,0,0,0.1,0,0.1c-1.2,1.7-2.5,3.2-4,4.5c-5.5,4.8-13.3,6.9-23,6.3C172,104.1,173.1,98.5,174,93.7z M175,545.7l-36.4-193.8
			c0,0-0.7-16.2,0.1-23.6c0.5-4.8,6.2-84.4,20.4-159.1c3.5-18.6,7.5-38.3,10.8-54.7c0.1,0.2,0.3,0.4,0.6,0.4c1,0,1.9,0.1,2.8,0.1
			c0,0,0,0,0,0c0.4,0,0.7-0.3,0.7-0.7c0-0.4-0.3-0.7-0.7-0.7c-0.9,0-1.8,0-2.8-0.1c-0.2,0-0.3,0.1-0.5,0.2c0.1-0.7,0.3-1.3,0.4-2
			c1.1,0.1,2.2,0.1,3.3,0.1c8.7,0,15.6-2.3,20.8-6.8c6.2-5.4,9.7-13.9,10.2-25.3c0.3,0,0.6,0,0.9,0l-0.1,6.2c0,0.4,0.3,0.7,0.7,0.7
			l6.1,0.2c0,0,0,0,0,0c0.2,0,0.4-0.1,0.5-0.2c0.1-0.1,0.2-0.3,0.2-0.5l0.1-6.3c8.9,0.1,18.8,0.2,29.2,0.3
			c-0.5,13.8-1.2,31.8-1.9,49.9c-0.3,9.3-0.7,18.6-1,27.3l-0.1,1.7c0,0.5,0,1.2,0.1,1.8c0.1,1.2,0.4,2.3,0.7,3.4
			c0.7,2.1,1.6,4.1,2.6,5.9c1,1.8,2.1,3.5,3.3,5l0.5,0.6l0.5,0.6c0.3,0.3,0.6,0.7,0.9,1c0.6,0.7,1.1,1.4,1.7,2
			c0.5,0.6,0.9,1.2,1.4,1.7c-0.4-0.1-0.7-0.3-1.1-0.4c-1-0.3-2-0.6-3-0.9c-2-0.5-4-1-6-1.4c-2-0.4-4-0.7-6.1-1c-1-0.1-2-0.3-3-0.3
			c-1-0.1-2-0.2-3.1-0.2c-2-0.1-4.1-0.2-6.1-0.2c-2,0-4.1,0-6.1,0.1l-3.1,0.2l-3,0.3l-3,0.4l-3,0.6l0,0l0,0c-0.1,0-0.2,0.2-0.1,0.3
			c0.1,0.4,0.3,0.8,0.7,1.1c0.3,0.3,0.7,0.6,1,0.8c0.8,0.4,1.6,0.6,2.4,0.8c1.6,0.3,3.3,0.4,4.9,0.4l4.9,0c0.8,0,1.6,0,2.5,0.1
			c0.8,0.1,1.6,0.1,2.4,0.5c-0.7-0.4-1.6-0.5-2.4-0.6c-0.8-0.1-1.6-0.1-2.5-0.1l-4.9-0.1c-1.6-0.1-3.3-0.2-4.9-0.5
			c-0.8-0.2-1.6-0.4-2.3-0.8c-0.3-0.2-0.7-0.4-0.9-0.7c-0.2-0.2-0.3-0.5-0.4-0.7l2.7-0.4l3-0.4l3-0.3l3-0.1c2-0.1,4-0.1,6.1,0
			c2,0.1,4,0.2,6.1,0.4c1,0.1,2,0.2,3,0.3c1,0.1,2,0.3,3,0.4c2,0.3,4,0.7,6,1.1c2,0.4,3.9,0.9,5.8,1.5c1,0.3,1.9,0.6,2.8,0.9
			c0.9,0.3,1.9,0.7,2.8,1.1l0,0c0,0,0,0,0,0c0.2,0.1,0.3,0,0.5,0c0.1,0.1,0.1,0.1,0.2,0.2c-0.1,0.1-1,1.3-2.7,3.6
			c-1.7,2.4-4.2,5.9-7.2,10.5c-3,4.6-6.5,10.3-10.1,17.1c-3.5,6.8-7.3,14.7-10,23.7c-2.7,9.1-5,19-7.3,29.5
			c-2.4,10.5-4.7,21.7-7.1,33.2c-2.3,11.5-4.8,23.5-7.2,35.6c-1.4,6-2.1,12.3-2.4,18.5c-0.1,3.1-0.2,6.3-0.1,9.4
			c0.1,1.6,0.2,3.2,0.5,4.7c0.2,0.8,0.4,1.6,0.6,2.3c0.2,0.8,0.3,1.5,0.5,2.3c1.1,6.2,1.8,12.4,2.5,18.6c0.7,6.2,1.3,12.4,1.9,18.6
			c1.2,12.3,2.3,24.4,3.4,36.1c2.2,23.4,4.3,45.3,6.5,64c1.1,9.4,2.1,17.9,3.2,25.5c0.5,3.8,1.1,7.3,1.7,10.6
			c0.6,3.2,1.2,6.2,1.9,8.9c1.9,8,3.2,13.4,3.7,15.6c-0.9,0.2-1.8,0.4-2.7,0.6c-0.1-0.3-0.4-0.5-0.8-0.4c-0.3,0.1-0.5,0.4-0.5,0.7
			c-5.7,1.2-11.6,2.2-14.2,2c-5.8-0.5-24.6-1.3-26.6-1.3L175,545.7z M237.8,634.4l-41.7,2.1c0,0-20.6,3.8-33,3.8
			c-12.5,0-64.9-2.3-68.1-6.4c-0.9-0.1-1.1-8.1,0-13.7c10.1,3.5,65.8,5,68.3,5l32.6-4.4l42.6-0.8c0.2,0,0.3-0.1,0.4-0.2
			C238.9,626.9,238.6,631.9,237.8,634.4z M237.3,590.6c0.4,3.8,1.3,12.5,1.5,24.1c0,1.5,0,2.8,0,4.1c-0.1-0.1-0.3-0.2-0.4-0.2h0
			l-42.7,0.8l-32.6,4.4c-0.6,0-58.1-1.5-67.8-5c3.6-8.2,33.8-12.8,41.2-15.5c0.9-0.3,2.1-0.9,3.5-1.6c0.3-0.1,0.6-0.3,0.8-0.4
			c1.5-0.9,2.7-1.8,4.1-2.8c2.9-1.9,5.6-4.1,8.3-6.3c2.6-2.2,5.2-4.4,7.8-6.7c1.3-1.1,2.6-2.2,3.8-3.2c1.1-0.9,2.3-1.8,3.4-2.4
			c0.1,0.1,0.3,0.3,0.5,0.5c0.3,0.5,0.6,1.3,0.8,2.1c0.4,1.5,0.7,3.2,0.9,4.8c-0.2,0.8-0.5,1.7-0.8,2.5c-0.3,0.9-0.7,1.8-1.1,2.7
			c-0.8,1.8-1.8,3.6-2.6,5.5c-0.8,1.9-1.3,4-1.3,6.1c0,0.5,0,1,0,1.6c0,0.5,0,1.1,0.3,1.6c0.4,1.1,1.4,1.8,2.3,2.3
			c1.9,0.9,3.9,1.3,5.9,1.7c2,0.4,3.9,0.9,5.8,1.5c1.9,0.6,3.8,1.5,5.4,2.7c1.6,1.2,3,2.7,3.9,4.6c-0.8-1.8-2.1-3.5-3.8-4.7
			c-1.6-1.3-3.5-2.2-5.4-2.9c-1.9-0.7-3.9-1.2-5.8-1.7c-1.9-0.5-3.9-1-5.7-1.9c-0.8-0.4-1.6-1.1-1.8-1.9c-0.1-0.4-0.1-0.9-0.1-1.4
			c0-0.5,0-1,0.1-1.5c0.2-2,0.7-3.8,1.6-5.6c0.9-1.7,2-3.4,3-5.2c0.3-0.6,0.6-1.2,0.9-1.7c0.6,0,4.6,0.4,10.3,0.9
			c3.1,0.2,6.8,0.6,10.7,0.9c3.9,0.3,8.1,0.6,12.3,0.9c2.1,0.1,4.2,0.3,6.2,0.4c2.1,0.1,4,0.3,6.1,0.4c1,0,1.9-0.1,2.9-0.1
			c1-0.1,2-0.3,2.9-0.4c1-0.1,1.8-0.3,2.7-0.5c0.8-0.2,1.7-0.3,2.4-0.6c3.1-0.8,5.6-1.6,7.4-2.2
			C236.1,591.1,236.9,590.8,237.3,590.6z M233.8,587.9c-1.7,0.7-4,1.6-7,2.6c-0.7,0.3-1.5,0.4-2.3,0.7c-0.8,0.2-1.6,0.5-2.4,0.6
			c-0.8,0.2-1.7,0.4-2.5,0.5c-0.9,0.1-1.9,0.2-2.9,0.3c-1.8,0-3.9,0-5.9,0c-2.1,0-4.1,0-6.2-0.1c-4.2,0-8.3-0.1-12.3-0.1
			c-3.9-0.1-7.6-0.2-10.7-0.2c-5.8-0.1-9.8-0.2-10.4-0.2c0.2-0.3,0.4-0.7,0.5-1c0.4-0.9,0.8-1.9,1.2-2.9c0-0.1,0.1-0.3,0.1-0.4
			l0-0.1c-0.1-0.8-0.1-1.6-0.2-2.5l8.2-7.6c4.3,0.2,20.4,0.9,25.5,1.3c0.3,0,0.7,0,1.1,0c5.9,0,19-3.1,24.3-4.4L233.8,587.9
			C233.8,587.8,233.8,587.8,233.8,587.9z M240.3,229.2c-8.6,18.5-28,93-30.5,123.9c-0.8,10.3,1.9,22.8,4.4,35.2
			c2.5,12.4,6.9,109,11.2,133.9c2.6,14.9,5,29.8,6.5,39.3c-0.6,0.1-1.3,0.3-2.2,0.5c-0.4,0.1-0.6,0.5-0.5,0.8
			c0.1,0.3,0.4,0.5,0.7,0.5c0.1,0,0.1,0,0.2,0c0.8-0.2,1.5-0.4,2.1-0.5c0.5,3.1,0.9,5.5,1.1,7c-0.1,0-0.1,0-0.2,0
			c-1.8,0.5-4.7,1.2-7.9,1.9c-0.5-2.2-1.8-7.7-3.6-15.6c-0.6-2.7-1.2-5.7-1.8-8.9c-0.5-3.3-1.2-6.8-1.6-10.6
			c-1.1-7.6-2.1-16.1-3.1-25.5c-2.1-18.7-4.1-40.6-6.2-64c-1.1-11.7-2.2-23.8-3.3-36.1c-0.6-6.2-1.2-12.4-1.9-18.6
			c-0.7-6.2-1.4-12.5-2.5-18.7c-1.8-6.1-1.6-12.3-1.3-18.6c0.3-6.2,1.1-12.4,2.5-18.4c2.5-12.1,5-24,7.4-35.5
			c2.4-11.5,4.8-22.6,7.2-33.2c2.4-10.5,4.7-20.5,7.4-29.4c2.7-9,6.5-16.7,10-23.5c3.6-6.7,7.1-12.4,10.1-17c3-4.6,5.5-8.1,7.2-10.5
			c1.2-1.7,2.1-2.8,2.5-3.3c2.3,3.2,4.2,6,5.4,8.2c0.7,1.2,1.2,2.3,1.6,3.1C255.9,201.4,246.6,215.5,240.3,229.2z M353.2,644.2
			c-8.5,0-35.5,0.6-51.9,0.6c-5,0-9-0.1-11.2-0.2c4.1-4,18.7-7.1,37-7.9c5.7-0.2,24.9,2.9,26.7,7.5
			C353.6,644.2,353.4,644.2,353.2,644.2z M354.6,642.9c-3.9-5.3-22.7-7.7-27.6-7.5c-19.9,0.8-34.6,4.2-38.4,8.7
			c-0.1,0.1-0.1,0.2-0.1,0.2c-0.7-0.8-0.8-3.7-0.5-7.3c0.1-0.1,0.2-0.1,0.4-0.2c0.5-0.2,1.1-0.6,2-0.9c0.9-0.3,1.9-0.8,3.2-1.2
			c1.2-0.4,2.7-0.8,4.2-1.3c1.6-0.4,3.3-0.8,5.1-1.2c1.8-0.4,3.7-0.7,5.7-1.1c2-0.3,4.1-0.6,6.2-0.9c2.1-0.2,4.3-0.4,6.4-0.6
			c2.2-0.1,4.3-0.2,6.4-0.2c2.1,0,4.2,0.2,6.2,0.4c4,0.4,7.8,0.9,10.9,1.6c3.1,0.7,5.7,1.6,7.3,2.6c0.8,0.5,1.4,0.9,1.8,1.3
			c0,0,0,0,0,0C354.3,637.8,354.7,640.4,354.6,642.9z M353.9,635.4C353.9,635.4,353.9,635.4,353.9,635.4c-0.3-0.4-0.9-0.9-1.7-1.4
			c-1.6-1-4.1-2.2-7.3-3c-3.2-0.8-6.9-1.5-11-1.9c-2-0.2-4.1-0.4-6.3-0.4c-2.1,0-4.3,0-6.5,0.2c-2.2,0.1-4.3,0.3-6.4,0.6
			c-2.1,0.3-4.2,0.6-6.2,0.9c-2,0.3-3.9,0.8-5.7,1.2c-1.8,0.4-3.5,0.9-5.1,1.4c-3.1,1-5.6,2-7.3,2.8c-0.9,0.4-1.5,0.8-2,1
			c-0.2,0.1-0.3,0.2-0.4,0.2c0.1-1.1,0.2-2.2,0.3-3.4c0.1,0,0.2,0,0.3-0.1c10.2-6,33.3-8.2,44.7-7c2.6,0.3,13.6,1.5,19.6,4.6
			C353.2,632.2,353.5,633.7,353.9,635.4z M352.7,629.4c-6.2-2.8-15.8-4-19.2-4.3c-11.7-1.2-34.2,0.9-45,6.9
			c0.6-5.2,1.5-10.7,1.6-13.2c0.3-4.7,1.8-12.1,4.6-15.3c1-0.4,1.9-0.8,2.9-1.2c-0.1,1.8-0.2,3.6-0.3,5.1c-0.2,2.1-0.6,3.9-1.3,5.4
			c-0.7,1.5-1.6,2.7-2.4,3.7c-0.8,0.9-1.5,1.7-2,2.2c-0.5,0.5-0.7,0.7-0.7,0.7s0.3-0.2,0.9-0.6c0.6-0.4,1.4-1,2.4-1.8
			c0.9-0.9,2.1-1.9,3.1-3.5c1-1.5,1.8-3.6,2.2-5.8c0.4-2.2,0.7-4.5,1.1-6.9c0.2-1.2,0.4-2.4,0.7-3.7l0.2-0.9l0.1-0.2
			c0,0.1,0-0.1,0.1-0.2l0.1-0.5c0.2-0.5,0.4-0.9,0.7-1.3c1.1-1.6,3.3-2.2,6-2.1c2.8-0.1,5.7-0.2,8.6-0.3c2.9-0.1,5.7-0.2,8.5-0.2
			c1.4,0,2.7,0,4,0c0.5,0,0.3,0,0.6,0.1c0.2,0,0.3,0.1,0.4,0.2c0.3,0.2,0.6,0.6,0.9,1c1.2,1.9,2,4.5,2.8,6.8
			c0.8,2.3,1.4,4.6,2.3,6.7c0.8,2.1,1.9,3.9,3.2,5.3c1.2,1.4,2.5,2.4,3.6,3c1.1,0.7,2,1.1,2.7,1.3c0.6,0.3,1,0.4,1,0.4
			s-0.3-0.2-0.9-0.6c-0.6-0.4-1.4-1-2.3-1.8c-0.9-0.8-2-1.9-2.9-3.3c-0.9-1.4-1.6-3.1-2.2-5.1c-0.2-0.8-0.4-1.6-0.6-2.4l5,1.6
			C347,608.8,351.1,622.7,352.7,629.4z M339.5,599.4l-2.4-0.7c-0.7-2.4-1.2-4.9-2.6-7.6c-0.4-0.7-0.9-1.4-1.7-2.1
			c-0.4-0.3-0.9-0.6-1.3-0.8c-0.4-0.2-1.3-0.3-1.5-0.4l-0.1,0l-0.2,0l-0.3,0l-0.5,0l-1.1,0c-0.7,0-1.4,0-2.2-0.1
			c-1.5-0.1-2.9,0-4.3,0c-1.5,0-2.9,0-4.4,0.1c-2.9,0.1-5.8,0.3-8.6,0.4c-1.4,0.1-3.1,0.2-4.7,0.8c-1.6,0.6-3.1,1.7-4,3.2
			c-0.5,0.7-0.7,1.5-1,2.4l-0.1,0.5l-0.1,0.3l0,0.2l-0.2,1c-0.1,0.4-0.1,0.9-0.2,1.3c-0.3,0.1-0.5,0.2-0.8,0.3
			c0.7-5.4,0.7-11.7,1.4-18.8c2.7,0.4,5.7,0.5,8.9,0.5c2.3,0,4.6-0.1,6.8-0.1c2.2-0.1,4.4-0.1,6.2-0.1c4.6,0,9-0.3,13.2-1
			C334,584.7,335.4,590.3,339.5,599.4z M356.1,334.9c0,0,6.4,58.9,5.6,72.4c-0.7,11.5-15.2,124-19.5,156.6c0,0-0.1,0-0.1,0
			c-0.4,0.1-0.6,0.5-0.5,0.8c0.1,0.2,0.2,0.4,0.5,0.5c-0.6,4.8-1,7.5-1,7.5s-0.9,0.3-2.2,0.7c-2.1,0.6-4.2,1-6.4,1.4
			c-3.8,0.6-7.7,0.9-11.9,0.9c-1.9,0-4,0-6.3,0.1c-5.9,0.1-12.5,0.3-16.9-0.7c-1.9-0.6-4.4-1.4-4.4-1.4s0.1-2.8,0.2-7.7
			c0.6,0.1,1.2,0.3,1.9,0.4c0,0,0.1,0,0.1,0c0.3,0,0.6-0.2,0.7-0.6c0.1-0.4-0.2-0.7-0.6-0.8c-0.8-0.2-1.5-0.3-2.1-0.5
			c0.9-37.1,4.4-176.1,4.8-209.3c0.3,2.8,0.7,5.8,1.1,8.7c0.5,3.3,1.2,6.6,2.6,9.5c0.7,1.4,1.4,2.8,2.3,3.9c0.9,1.2,1.8,2.2,2.7,3
			c1.8,1.7,3.6,2.9,4.8,3.7c1.2,0.8,2,1.2,2,1.2s-0.7-0.4-1.9-1.3c-1.2-0.9-2.8-2.1-4.5-3.9c-0.8-0.9-1.7-2-2.5-3.1
			c-0.8-1.1-1.6-2.4-2.2-3.8c-1.3-2.8-1.9-6-2.4-9.3c-0.4-3.3-0.7-6.6-1-9.7c-0.3-3.1-0.7-6-1.1-8.5c-0.3-1.8-0.6-3.4-0.9-4.7
			c-2.7-17.5-9.6-60.2-11.6-71.7c-2-11.9-15.2-57.1-19.9-71.5c0-0.3,0-0.6-0.1-0.8c0,0-0.2-0.6-0.7-1.7c-0.1-0.1-0.1-0.3-0.2-0.5
			c-0.3-0.8-0.5-1.3-0.6-1.4c0-0.1-0.1-0.1-0.2-0.1c-0.4-0.7-0.8-1.5-1.3-2.4c-0.7-1.1-1.5-2.4-2.4-3.7c0-0.1,0-0.2-0.1-0.2
			c-0.2-0.4-0.4-0.7-0.6-1.1c-0.1-0.2-0.3-0.3-0.5-0.3c-0.3-0.4-0.6-0.9-1-1.3c0.2-0.2,0.2-0.5,0-0.8c-0.5-0.8-1-1.6-1.5-2.4
			c-0.2-0.3-0.6-0.4-1-0.2c-0.1,0-0.1,0.1-0.1,0.1c-0.3-0.4-0.6-0.8-1-1.2c0.1,0,0.2,0,0.3-0.1c0.3-0.2,0.4-0.6,0.2-1
			c-0.6-0.9-1.1-1.7-1.5-2.3c-0.2-0.3-0.6-0.4-1-0.2c-0.3,0.2-0.4,0.6-0.2,1c0.1,0.1,0.1,0.2,0.2,0.3c-0.1-0.1-0.1-0.2-0.2-0.2
			c-0.6-0.7-1.2-1.3-1.8-2c-0.3-0.3-0.6-0.7-0.9-1l-0.4-0.4l-0.4-0.5c-1.1-1.4-2.2-3-3.1-4.6c-1-1.7-1.8-3.4-2.5-5.3
			c-0.3-0.9-0.5-1.9-0.7-2.8c-0.1-0.5-0.1-0.8-0.1-1.4l0-0.5c0.1,0.1,0.3,0.2,0.5,0.2h0c0.5,0,0.9,0,1.3-0.1c0,0.1,0,0.2,0,0.3
			l0,0.2c0,0.4,0.3,0.7,0.7,0.7c0.4,0,0.7-0.3,0.7-0.7l0-0.2c0-0.1,0-0.3,0-0.4c0.3-0.1,0.4-0.4,0.4-0.7c0-0.3-0.2-0.5-0.4-0.6
			c0-0.3,0-0.6,0-0.9c0-0.4-0.3-0.7-0.7-0.7h0c-0.4,0-0.7,0.3-0.7,0.7c0,0.3,0,0.6,0,0.9c-0.4,0-0.9,0.1-1.3,0.1
			c-0.2,0-0.4,0.1-0.5,0.2l0-0.2c0-0.9,0-1.8,0-2.7c0,0,0.1,0,0.1,0c0.8,0,1.7,0,2.4-0.1c0.4,0,0.7-0.4,0.6-0.7c0,0,0,0,0-0.1
			c0-0.1,0.1-0.2,0.1-0.3l0-2.8c0-0.4-0.3-0.7-0.7-0.7c-0.3,0-0.7,0.3-0.7,0.7l0,2.5c-0.6,0-1.1,0.1-1.7,0.1c-0.1,0-0.1,0-0.1,0
			c0-7.5,0.1-15.4,0.1-23.3c0.1-9.3,0.1-18.6,0.2-27.3c0-4.4,0-8.6,0.1-12.6c0.1-3.6,0.1-6.9,0.2-10.1c0.8,0,1.6,0,2.4,0l0,0.7
			c0,0.4,0.3,0.7,0.7,0.7h0c0.4,0,0.7-0.3,0.7-0.7l0-0.8c5.2,0,10.5,0.1,15.8,0.1c0,0.7,0,1.5,0,2.3c0,0.4,0.3,0.7,0.7,0.7h0
			c0.4,0,0.7-0.3,0.7-0.7c0-0.8,0-1.6,0-2.3c0.8,0,1.6,0,2.5,0l0,2.5c0,0.4,0.3,0.7,0.7,0.7c0,0,0,0,0,0c0.4,0,0.7-0.3,0.7-0.7
			l0-2.6c5.1,0,10.2,0,15.2,0l0,5.1c0,0.2,0.1,0.4,0.2,0.5c0.1,0.1,0.3,0.2,0.5,0.2h0l6.1-0.1c0.4,0,0.7-0.3,0.7-0.7l0-5
			c0.7,0,1.5,0,2.2,0c0.5,12,3.9,20.7,10.5,26.7c8.7,7.9,22,9.8,35.4,9.8c1.9,0,3.7,0,5.6-0.1c-0.7,0.3-1.3,0.9-1.6,1.7
			c-0.4,0-0.8,0-1.2,0c-0.4,0-0.7,0.3-0.7,0.7c0,0.4,0.3,0.7,0.7,0.7h0c0.3,0,0.7,0,1,0c0.2,1.4,1.4,2.5,2.9,2.5
			c1.5,0,2.8-1.2,2.9-2.7c0.3,0,0.6,0,0.9,0l0.1,2.6c-0.7,0-1.4,0.1-2.1,0.1c-0.4,0-0.7,0.3-0.7,0.7c0,0.4,0.3,0.7,0.7,0.7
			c0,0,0,0,0,0c0.7,0,1.4-0.1,2.2-0.1l1.3,23.7l3.6,68.3l-7,119.4l0,0.1c1.1,10,2.1,20,3,30c0.9,10,1.8,20,2.4,30.1
			c0.2,5,0.6,10.1,0,15.1c-0.5,5-1,10-1.6,15l-3.5,30l-7.3,59.9l-3.8,30l-2,15c-0.3,1.9-0.5,3.8-0.8,5.7c-0.9,0.2-1.8,0.3-2.7,0.4
			c-0.4,0.1-0.6,0.4-0.6,0.8c0.1,0.3,0.3,0.6,0.7,0.6c0,0,0.1,0,0.1,0c0.8-0.1,1.5-0.2,2.3-0.4c-0.4,2.6-0.8,5.2-1.3,7.7
			c0.5-2.6,0.9-5.2,1.3-7.7c0.2,0,0.3,0,0.5-0.1c0.4-0.1,0.6-0.4,0.6-0.8c-0.1-0.4-0.4-0.6-0.8-0.6c0,0,0,0,0,0
			c0.3-1.9,0.5-3.8,0.8-5.7l2-15l3.9-29.9l7.5-59.9l3.5-30c0.6-5,1.1-10,1.6-15c0.5-5,0.2-10.1,0-15.1c-0.6-10.1-1.4-20.1-2.3-30.1
			c-0.9-10-1.9-20-2.9-30l7.3-119.4v-0.1l-3.4-68.3l-1.2-24.1c0-0.1,0.1-0.2,0-0.3c0-0.1,0-0.2-0.1-0.3l-0.2-3.5c0-0.1,0-0.1,0-0.2
			c0-0.1,0-0.1,0-0.2l-0.3-5.6l-0.9-17.1l-0.4-8.5c-0.1-2.7-0.4-5.3-0.6-8c0.3,0,0.7,0,1.1,0c0,0,0,0,0,0c2.8-0.1,5.1-0.3,7-0.5
			c0.1,2.7,0.2,5.8,0.2,9.8l6.6,126.8L356.1,334.9z"/>
		<path class="st0" d="M264.9,77l2.8,0c0,0,0,0,0,0c0.4,0,0.7-0.3,0.7-0.7c0-0.4-0.3-0.7-0.7-0.7l-2.8,0c0,0,0,0,0,0
			c-0.4,0-0.7,0.3-0.7,0.7C264.3,76.6,264.6,77,264.9,77z"/>
		<path class="st0" d="M248.2,76.8l2.8,0c0,0,0,0,0,0c0.4,0,0.7-0.3,0.7-0.7c0-0.4-0.3-0.7-0.7-0.7l-2.8,0c-0.3,0-0.7,0.3-0.7,0.7
			C247.5,76.5,247.8,76.8,248.2,76.8z"/>
		<path class="st0" d="M270.5,77l2.8,0h0c0.4,0,0.7-0.3,0.7-0.7c0-0.4-0.3-0.7-0.7-0.7l-2.8,0c0,0,0,0,0,0c-0.4,0-0.7,0.3-0.7,0.7
			C269.8,76.7,270.1,77,270.5,77z"/>
		<path class="st0" d="M256.6,75.5l-2.8,0c0,0,0,0,0,0c-0.4,0-0.7,0.3-0.7,0.7c0,0.4,0.3,0.7,0.7,0.7l2.8,0h0c0.4,0,0.7-0.3,0.7-0.7
			C257.3,75.8,257,75.5,256.6,75.5z"/>
		<path class="st0" d="M276.1,77l2.8,0h0c0.4,0,0.7-0.3,0.7-0.7c0-0.4-0.3-0.7-0.7-0.7l-2.8,0l0,0c-0.4,0-0.7,0.3-0.7,0.7
			C275.4,76.7,275.7,77,276.1,77z"/>
		<path class="st0" d="M262.2,75.6l-2.8,0c0,0,0,0,0,0c-0.4,0-0.7,0.3-0.7,0.7c0,0.4,0.3,0.7,0.7,0.7l2.8,0c0,0,0,0,0,0
			c0.4,0,0.7-0.3,0.7-0.7C262.9,75.9,262.6,75.6,262.2,75.6z"/>
		<path class="st0" d="M234.3,75.3l-2.8,0c0,0,0,0,0,0c-0.4,0-0.7,0.3-0.7,0.7c0,0.4,0.3,0.7,0.7,0.7l2.8,0c0,0,0,0,0,0
			c0.4,0,0.7-0.3,0.7-0.7C235,75.6,234.7,75.3,234.3,75.3z"/>
		<path class="st0" d="M217.6,75.1l-2.8,0c0,0,0,0,0,0c-0.4,0-0.7,0.3-0.7,0.7c0,0.4,0.3,0.7,0.7,0.7l2.8,0c0,0,0,0,0,0
			c0.4,0,0.7-0.3,0.7-0.7C218.3,75.4,218,75.1,217.6,75.1z"/>
		<path class="st0" d="M223.2,75.2l-2.8,0c-0.5,0-0.7,0.3-0.7,0.7c0,0.4,0.3,0.7,0.7,0.7l2.8,0c0,0,0,0,0,0c0.4,0,0.7-0.3,0.7-0.7
			C223.8,75.5,223.5,75.2,223.2,75.2z"/>
		<path class="st0" d="M239.9,75.4l-2.8,0c0,0,0,0,0,0c-0.4,0-0.7,0.3-0.7,0.7c0,0.4,0.3,0.7,0.7,0.7l2.8,0c0,0,0,0,0,0
			c0.4,0,0.7-0.3,0.7-0.7C240.6,75.7,240.3,75.4,239.9,75.4z"/>
		<path class="st0" d="M228.7,75.2l-2.8,0c0,0,0,0,0,0c-0.4,0-0.7,0.3-0.7,0.7c0,0.4,0.3,0.7,0.7,0.7l2.8,0c0,0,0,0,0,0
			c0.4,0,0.7-0.3,0.7-0.7C229.4,75.6,229.1,75.2,228.7,75.2z"/>
		<path class="st0" d="M200.9,74.8l-2.8,0c-0.4,0-0.7,0.3-0.7,0.7c0,0.4,0.3,0.7,0.7,0.7l2.8,0c0,0,0,0,0,0c0.4,0,0.7-0.3,0.7-0.7
			C201.5,75.1,201.2,74.8,200.9,74.8z"/>
		<path class="st0" d="M189.7,74.6l-2.8-0.1c-0.4,0-0.7,0.3-0.7,0.7c0,0.4,0.3,0.7,0.7,0.7l2.8,0.1c0,0,0,0,0,0
			c0.4,0,0.7-0.3,0.7-0.7C190.4,75,190.1,74.6,189.7,74.6z"/>
		<path class="st0" d="M195.3,74.7l-2.8,0c-0.4,0-0.7,0.3-0.7,0.7c0,0.4,0.3,0.7,0.7,0.7l2.8,0c0,0,0,0,0,0c0.4,0,0.7-0.3,0.7-0.7
			C196,75,195.7,74.7,195.3,74.7z"/>
		<path class="st0" d="M184.1,74.5l-2.8-0.1c-0.4,0-0.7,0.3-0.7,0.7c0,0.4,0.3,0.7,0.7,0.7l2.8,0.1c0,0,0,0,0,0
			c0.4,0,0.7-0.3,0.7-0.7C184.8,74.8,184.5,74.5,184.1,74.5z"/>
		<path class="st0" d="M304,77C304,77,304,77,304,77l2.8,0c0.4,0,0.7-0.3,0.7-0.7c0-0.4-0.3-0.7-0.7-0.7h0l-2.8,0
			c-0.4,0-0.7,0.3-0.7,0.7C303.3,76.7,303.6,77,304,77z"/>
		<path class="st0" d="M348.6,76C348.6,76,348.6,76,348.6,76c1,0,1.9-0.1,2.8-0.1c0.4,0,0.7-0.3,0.7-0.7c0-0.4-0.3-0.7-0.7-0.7
			c-0.9,0-1.8,0.1-2.8,0.1c-0.4,0-0.7,0.3-0.7,0.7C347.9,75.8,348.2,76,348.6,76z"/>
		<path class="st0" d="M331.9,76.6C331.9,76.6,331.9,76.6,331.9,76.6l2.8-0.1c0.4,0,0.7-0.3,0.7-0.7c0-0.4-0.3-0.7-0.7-0.7
			c0,0,0,0,0,0l-2.8,0.1c-0.4,0-0.7,0.3-0.7,0.7C331.2,76.3,331.5,76.6,331.9,76.6z"/>
		<path class="st0" d="M345.8,74.8c-0.9,0-1.8,0.1-2.8,0.1c-0.4,0-0.7,0.3-0.7,0.7c0,0.4,0.3,0.7,0.7,0.7c0,0,0,0,0,0
			c1,0,1.9-0.1,2.8-0.1c0.4,0,0.7-0.3,0.7-0.7C346.5,75.1,346.2,74.7,345.8,74.8z"/>
		<path class="st0" d="M337.4,76.5C337.4,76.5,337.5,76.5,337.4,76.5l2.8-0.1c0.4,0,0.7-0.3,0.7-0.7c0-0.4-0.4-0.7-0.7-0.7l-2.8,0.1
			c-0.4,0-0.7,0.3-0.7,0.7C336.8,76.2,337.1,76.5,337.4,76.5z"/>
		<path class="st0" d="M317.9,75.5l-2.8,0c-0.4,0-0.7,0.3-0.7,0.7c0,0.4,0.3,0.7,0.7,0.7c0,0,0,0,0,0l2.8,0c0.4,0,0.7-0.3,0.7-0.7
			C318.6,75.8,318.3,75.4,317.9,75.5z"/>
		<path class="st0" d="M323.5,75.4l-2.8,0c-0.4,0-0.7,0.3-0.7,0.7c0,0.4,0.3,0.7,0.7,0.7c0,0,0,0,0,0l2.8,0c0.4,0,0.7-0.3,0.7-0.7
			C324.2,75.7,323.9,75.4,323.5,75.4z"/>
		<path class="st0" d="M326.3,76.7C326.3,76.7,326.3,76.7,326.3,76.7l2.8-0.1c0.4,0,0.7-0.3,0.7-0.7c0-0.4-0.3-0.7-0.7-0.7
			c0,0,0,0,0,0l-2.8,0.1c-0.4,0-0.7,0.3-0.7,0.7C325.6,76.4,325.9,76.7,326.3,76.7z"/>
		<path class="st0" d="M309.6,76.9C309.6,76.9,309.6,76.9,309.6,76.9l2.8,0c0.4,0,0.7-0.3,0.7-0.7c0-0.4-0.3-0.7-0.7-0.7
			c0,0,0,0,0,0l-2.8,0c-0.4,0-0.7,0.3-0.7,0.7C308.9,76.6,309.2,76.9,309.6,76.9z"/>
		<path class="st0" d="M301.2,75.6C301.2,75.6,301.2,75.6,301.2,75.6l-2.8,0c-0.4,0-0.7,0.3-0.7,0.7c0,0.4,0.3,0.7,0.7,0.7
			c0,0,0,0,0,0l2.8,0c0.4,0,0.7-0.3,0.7-0.7C301.9,75.9,301.6,75.6,301.2,75.6z"/>
		<path class="st0" d="M292.9,77L292.9,77l2.8,0c0.4,0,0.7-0.3,0.7-0.7c0-0.4-0.3-0.7-0.7-0.7c0,0,0,0,0,0l-2.8,0
			c-0.4,0-0.7,0.3-0.7,0.7C292.2,76.7,292.5,77,292.9,77z"/>
		<path class="st0" d="M189.7,57.7l-2.8-0.1c-0.4,0-0.7,0.3-0.7,0.7c0,0.4,0.3,0.7,0.7,0.7l2.8,0.1c0,0,0,0,0,0
			c0.4,0,0.7-0.3,0.7-0.7C190.4,58,190.1,57.7,189.7,57.7z"/>
		<path class="st0" d="M200.9,57.9l-2.8,0c-0.4,0-0.7,0.3-0.7,0.7c0,0.4,0.3,0.7,0.7,0.7l2.8,0c0,0,0,0,0,0c0.4,0,0.7-0.3,0.7-0.7
			C201.5,58.2,201.2,57.9,200.9,57.9z"/>
		<path class="st0" d="M298.4,60C298.4,60,298.4,60,298.4,60l2.8,0c0.4,0,0.7-0.3,0.7-0.7c0-0.4-0.3-0.7-0.7-0.7c0,0,0,0,0,0l-2.8,0
			c-0.4,0-0.7,0.3-0.7,0.7C297.7,59.7,298,60,298.4,60z"/>
		<path class="st0" d="M195.3,57.8l-2.8,0c-0.4,0-0.7,0.3-0.7,0.7c0,0.4,0.3,0.7,0.7,0.7l2.8,0c0,0,0,0,0,0c0.4,0,0.7-0.3,0.7-0.7
			C196,58.1,195.7,57.8,195.3,57.8z"/>
		<path class="st0" d="M326.3,59.7C326.3,59.7,326.3,59.7,326.3,59.7l2.8-0.1c0.4,0,0.7-0.3,0.7-0.7c0-0.4-0.3-0.7-0.7-0.7
			c0,0,0,0,0,0l-2.8,0.1c-0.4,0-0.7,0.3-0.7,0.7C325.6,59.4,325.9,59.7,326.3,59.7z"/>
		<path class="st0" d="M248.2,59.9l2.8,0c0,0,0,0,0,0c0.4,0,0.7-0.3,0.7-0.7c0-0.4-0.3-0.7-0.7-0.7l-2.8,0c0,0,0,0,0,0
			c-0.4,0-0.7,0.3-0.7,0.7C247.5,59.5,247.8,59.9,248.2,59.9z"/>
		<path class="st0" d="M337.4,59.5C337.5,59.5,337.5,59.5,337.4,59.5l2.8-0.1c0.4,0,0.7-0.3,0.7-0.7c0-0.4-0.4-0.7-0.7-0.7l-2.8,0.1
			c-0.4,0-0.7,0.3-0.7,0.7C336.8,59.2,337.1,59.5,337.4,59.5z"/>
		<path class="st0" d="M184.1,57.6l-2.8-0.1c-0.4,0-0.7,0.3-0.7,0.7c0,0.4,0.3,0.7,0.7,0.7l2.8,0.1c0,0,0,0,0,0
			c0.4,0,0.7-0.3,0.7-0.7C184.8,57.9,184.5,57.6,184.1,57.6z"/>
		<path class="st0" d="M309.6,60C309.6,60,309.6,60,309.6,60l2.8,0c0.4,0,0.7-0.3,0.7-0.7c0-0.4-0.3-0.7-0.7-0.7c0,0,0,0,0,0l-2.8,0
			c-0.4,0-0.7,0.3-0.7,0.7S309.2,60,309.6,60z"/>
		<path class="st0" d="M292.9,60.1L292.9,60.1l2.8,0c0.4,0,0.7-0.3,0.7-0.7c0-0.4-0.3-0.7-0.7-0.7h0l-2.8,0c-0.4,0-0.7,0.3-0.7,0.7
			C292.2,59.7,292.5,60.1,292.9,60.1z"/>
		<path class="st0" d="M315.2,59.9C315.2,59.9,315.2,59.9,315.2,59.9l2.8,0c0.4,0,0.7-0.3,0.7-0.7c0-0.4-0.3-0.7-0.7-0.7l-2.8,0
			c-0.4,0-0.7,0.3-0.7,0.7C314.5,59.6,314.8,59.9,315.2,59.9z"/>
		<path class="st0" d="M320.7,59.8C320.7,59.8,320.7,59.8,320.7,59.8l2.8,0c0.4,0,0.7-0.3,0.7-0.7s-0.3-0.7-0.7-0.7l-2.8,0
			c-0.4,0-0.7,0.3-0.7,0.7C320,59.5,320.3,59.8,320.7,59.8z"/>
		<path class="st0" d="M276.1,60l2.8,0h0c0.4,0,0.7-0.3,0.7-0.7c0-0.4-0.3-0.7-0.7-0.7l-2.8,0l0,0c-0.4,0-0.7,0.3-0.7,0.7
			C275.4,59.7,275.7,60,276.1,60z"/>
		<path class="st0" d="M270.5,60l2.8,0h0c0.4,0,0.7-0.3,0.7-0.7c0-0.4-0.3-0.7-0.7-0.7l-2.8,0c0,0,0,0,0,0c-0.4,0-0.7,0.3-0.7,0.7
			C269.8,59.7,270.1,60,270.5,60z"/>
		<path class="st0" d="M237.1,59.7l2.8,0c0,0,0,0,0,0c0.4,0,0.7-0.3,0.7-0.7c0-0.4-0.3-0.7-0.7-0.7l-2.8,0c0,0,0,0,0,0
			c-0.4,0-0.7,0.3-0.7,0.7C236.4,59.4,236.7,59.7,237.1,59.7z"/>
		<path class="st0" d="M331.9,59.6C331.9,59.6,331.9,59.6,331.9,59.6l2.8-0.1c0.4,0,0.7-0.3,0.7-0.7c0-0.4-0.3-0.7-0.7-0.7
			c0,0,0,0,0,0l-2.8,0.1c-0.4,0-0.7,0.3-0.7,0.7C331.2,59.3,331.5,59.6,331.9,59.6z"/>
		<path class="st0" d="M234.3,58.3l-2.8,0c0,0,0,0,0,0c-0.4,0-0.7,0.3-0.7,0.7c0,0.4,0.3,0.7,0.7,0.7l2.8,0c0,0,0,0,0,0
			c0.4,0,0.7-0.3,0.7-0.7C235,58.6,234.7,58.3,234.3,58.3z"/>
		<path class="st0" d="M253.8,59.9l2.8,0c0,0,0,0,0,0c0.4,0,0.7-0.3,0.7-0.7c0-0.4-0.3-0.7-0.7-0.7l-2.8,0c0,0,0,0,0,0
			c-0.4,0-0.7,0.3-0.7,0.7C253.1,59.6,253.4,59.9,253.8,59.9z"/>
		<path class="st0" d="M304,60L304,60l2.8,0c0.4,0,0.7-0.3,0.7-0.7c0-0.4-0.3-0.7-0.7-0.7c0,0,0,0,0,0l-2.8,0
			c-0.4,0-0.7,0.3-0.7,0.7C303.3,59.7,303.6,60,304,60z"/>
		<path class="st0" d="M259.4,60l2.8,0c0,0,0,0,0,0c0.4,0,0.7-0.3,0.7-0.7c0-0.4-0.3-0.7-0.7-0.7l-2.8,0c-0.3,0-0.7,0.3-0.7,0.7
			C258.7,59.6,259,59.9,259.4,60z"/>
		<path class="st0" d="M343,59.3C343,59.3,343,59.3,343,59.3c1,0,1.9-0.1,2.8-0.1c0.4,0,0.7-0.3,0.7-0.7c0-0.4-0.3-0.7-0.7-0.7
			c-0.9,0-1.8,0.1-2.8,0.1c-0.4,0-0.7,0.3-0.7,0.7C342.3,59,342.6,59.3,343,59.3z"/>
		<path class="st0" d="M223.2,58.2l-2.8,0c-0.5,0-0.7,0.3-0.7,0.7c0,0.4,0.3,0.7,0.7,0.7l2.8,0c0,0,0,0,0,0c0.4,0,0.7-0.3,0.7-0.7
			C223.8,58.5,223.5,58.2,223.2,58.2z"/>
		<path class="st0" d="M217.6,58.1l-2.8,0c-0.4,0-0.7,0.3-0.7,0.7c0,0.4,0.3,0.7,0.7,0.7l2.8,0c0,0,0,0,0,0c0.4,0,0.7-0.3,0.7-0.7
			C218.3,58.4,218,58.1,217.6,58.1z"/>
		<path class="st0" d="M264.9,60l2.8,0c0,0,0,0,0,0c0.4,0,0.7-0.3,0.7-0.7c0-0.4-0.3-0.7-0.7-0.7l-2.8,0h0c-0.4,0-0.7,0.3-0.7,0.7
			C264.3,59.7,264.6,60,264.9,60z"/>
		<path class="st0" d="M348.6,59.1C348.6,59.1,348.6,59.1,348.6,59.1c1,0,1.9-0.1,2.8-0.1c0.4,0,0.7-0.3,0.7-0.7
			c0-0.4-0.3-0.7-0.7-0.7c-0.9,0-1.8,0.1-2.8,0.1c-0.4,0-0.7,0.3-0.7,0.7C347.9,58.8,348.2,59.1,348.6,59.1z"/>
		<path class="st0" d="M228.7,58.3l-2.8,0c0,0,0,0,0,0c-0.4,0-0.7,0.3-0.7,0.7c0,0.4,0.3,0.7,0.7,0.7l2.8,0c0,0,0,0,0,0
			c0.4,0,0.7-0.3,0.7-0.7C229.4,58.6,229.1,58.3,228.7,58.3z"/>
		<path class="st0" d="M247.7,166.8c-0.2-0.3-0.6-0.5-0.9-0.3c-0.3,0.2-0.5,0.6-0.3,0.9c0.4,0.9,0.8,1.7,1.3,2.5
			c0.1,0.2,0.4,0.4,0.6,0.4c0.1,0,0.2,0,0.3-0.1c0.3-0.2,0.5-0.6,0.3-0.9C248.5,168.4,248.1,167.6,247.7,166.8z"/>
		<path class="st0" d="M245.3,127.6C245.3,127.6,245.3,127.6,245.3,127.6c-0.4,0-0.7,0.3-0.7,0.7l0,2.8c0,0.4,0.3,0.7,0.7,0.7
			c0,0,0,0,0,0c0.4,0,0.7-0.3,0.7-0.7l0-2.8C246,127.9,245.7,127.6,245.3,127.6z"/>
		<path class="st0" d="M246.6,164.2c-0.3-0.9-0.6-1.8-0.8-2.6c-0.1-0.4-0.4-0.6-0.8-0.5c-0.4,0.1-0.6,0.5-0.5,0.8
			c0.2,0.9,0.5,1.8,0.8,2.8c0.1,0.3,0.4,0.5,0.7,0.5c0.1,0,0.2,0,0.2,0C246.6,165,246.7,164.6,246.6,164.2z"/>
		<path class="st0" d="M245.2,133.2C245.2,133.2,245.2,133.2,245.2,133.2c-0.4,0-0.7,0.3-0.7,0.7l0,2.8c0,0.4,0.3,0.7,0.7,0.7
			c0,0,0,0,0,0c0.4,0,0.7-0.3,0.7-0.7l0-2.8C245.9,133.5,245.6,133.2,245.2,133.2z"/>
		<path class="st0" d="M245.9,87.1C245.9,87.1,245.9,87.1,245.9,87.1c0.4,0,0.7-0.3,0.7-0.7l0.1-2.8c0-0.4-0.3-0.7-0.7-0.7
			c0,0,0,0,0,0c-0.4,0-0.7,0.3-0.7,0.7l-0.1,2.8C245.2,86.7,245.5,87.1,245.9,87.1z"/>
		<path class="st0" d="M245.7,64.1c0,0.4,0.3,0.7,0.7,0.7c0,0,0,0,0,0c0.4,0,0.7-0.3,0.7-0.7l0.1-2.8c0-0.4-0.3-0.7-0.7-0.7
			c0,0,0,0,0,0c-0.4,0-0.7,0.3-0.7,0.7L245.7,64.1z"/>
		<path class="st0" d="M246.4,66.2C246.3,66.2,246.3,66.2,246.4,66.2c-0.4,0-0.7,0.3-0.7,0.7l-0.1,2.8c0,0.4,0.3,0.7,0.7,0.7
			c0,0,0,0,0,0c0.4,0,0.7-0.3,0.7-0.7l0.1-2.8C247,66.5,246.7,66.2,246.4,66.2z"/>
		<path class="st0" d="M250.3,171.6c-0.2-0.3-0.6-0.4-1-0.2c-0.3,0.2-0.4,0.6-0.2,1c0.6,1,1.1,1.8,1.6,2.4c0.1,0.2,0.4,0.3,0.6,0.3
			c0.1,0,0.3,0,0.4-0.1c0.3-0.2,0.4-0.7,0.2-1C251.4,173.3,250.9,172.5,250.3,171.6z"/>
		<path class="st0" d="M245.1,144.4c-0.4,0-0.7,0.3-0.7,0.7l0,2.8c0,0.4,0.3,0.7,0.7,0.7c0,0,0,0,0,0c0.4,0,0.7-0.3,0.7-0.7l0-2.8
			C245.8,144.7,245.5,144.4,245.1,144.4z"/>
		<path class="st0" d="M245.2,138.8C245.2,138.8,245.2,138.8,245.2,138.8c-0.4,0-0.7,0.3-0.7,0.7l0,2.8c0,0.4,0.3,0.7,0.7,0.7
			c0,0,0,0,0,0c0.4,0,0.7-0.3,0.7-0.7l0-2.8C245.9,139.1,245.5,138.8,245.2,138.8z"/>
		<path class="st0" d="M245.7,98.2C245.7,98.2,245.7,98.2,245.7,98.2c0.4,0,0.7-0.3,0.7-0.7l0-2.8c0-0.4-0.3-0.7-0.7-0.7
			c-0.3,0-0.7,0.3-0.7,0.7l0,2.8C245,97.9,245.3,98.2,245.7,98.2z"/>
		<path class="st0" d="M245.6,103.8C245.6,103.8,245.6,103.8,245.6,103.8c0.4,0,0.7-0.3,0.7-0.7l0-2.8c0-0.4-0.3-0.7-0.7-0.7
			c0,0,0,0,0,0c-0.4,0-0.7,0.3-0.7,0.7l0,2.8C245,103.5,245.3,103.8,245.6,103.8z"/>
		<path class="st0" d="M245.8,92.6C245.8,92.6,245.8,92.6,245.8,92.6c0.4,0,0.7-0.3,0.7-0.7l0.1-2.8c0-0.4-0.3-0.7-0.7-0.7
			c-0.4,0-0.7,0.3-0.7,0.7l-0.1,2.8C245.1,92.3,245.4,92.6,245.8,92.6z"/>
		<path class="st0" d="M245.6,109.4C245.6,109.4,245.6,109.4,245.6,109.4c0.4,0,0.7-0.3,0.7-0.7l0-2.8c0-0.4-0.3-0.7-0.7-0.7
			c-0.4,0-0.7,0.3-0.7,0.7l0,2.8C244.9,109.1,245.2,109.4,245.6,109.4z"/>
		<path class="st0" d="M245.3,126.2C245.3,126.2,245.3,126.2,245.3,126.2c0.4,0,0.7-0.3,0.7-0.7l0-2.8c0-0.4-0.3-0.7-0.7-0.7
			c-0.4,0-0.7,0.3-0.7,0.7l0,2.8C244.6,125.9,245,126.2,245.3,126.2z"/>
		<path class="st0" d="M245.4,120.6C245.4,120.6,245.4,120.6,245.4,120.6c0.4,0,0.7-0.3,0.7-0.7l0-2.8c0-0.4-0.3-0.7-0.7-0.7
			c-0.4,0-0.7,0.3-0.7,0.7l0,2.8C244.7,120.3,245,120.6,245.4,120.6z"/>
		<path class="st0" d="M245.5,115C245.5,115,245.5,115,245.5,115c0.4,0,0.7-0.3,0.7-0.7l0-2.8c0-0.4-0.3-0.7-0.7-0.7
			c-0.3,0-0.7,0.3-0.7,0.7l0,2.8C244.8,114.7,245.1,115,245.5,115z"/>
		<path class="st0" d="M262.6,116.6C262.6,116.6,262.7,116.6,262.6,116.6c0.4,0,0.7-0.3,0.7-0.7l0.1-2.8c0-0.4-0.3-0.7-0.7-0.7
			c-0.4,0-0.7,0.3-0.7,0.7l-0.1,2.8C262,116.3,262.3,116.6,262.6,116.6z"/>
		<path class="st0" d="M262.2,127.8C262.3,127.8,262.3,127.8,262.2,127.8c0.4,0,0.7-0.3,0.7-0.7l0.1-2.8c0-0.4-0.3-0.7-0.7-0.7
			c-0.4-0.1-0.7,0.3-0.7,0.7l-0.1,2.8C261.6,127.5,261.9,127.8,262.2,127.8z"/>
		<path class="st0" d="M261.3,138.9c0,0,0.1,0,0.1,0c0.3,0,0.6-0.2,0.7-0.6c0.1-0.5,0.1-0.9,0.2-1.4c0.1-0.4,0.1-0.8,0.1-1.4
			c0-0.4-0.3-0.7-0.6-0.8c-0.4,0-0.7,0.3-0.8,0.6c0,0.5-0.1,1-0.1,1.3c-0.1,0.5-0.1,0.9-0.2,1.4C260.7,138.5,261,138.9,261.3,138.9z
			"/>
		<path class="st0" d="M262,133.4C262,133.4,262,133.4,262,133.4c0.4,0,0.7-0.3,0.7-0.7c0.1-0.8,0.1-1.8,0.1-2.8
			c0-0.4-0.3-0.7-0.7-0.7c-0.4,0-0.7,0.3-0.7,0.7c0,1-0.1,1.9-0.1,2.8C261.3,133,261.6,133.4,262,133.4z"/>
		<path class="st0" d="M259.8,144.3c0.1,0,0.2,0,0.2,0c0.3,0,0.5-0.2,0.7-0.4c0.3-0.8,0.6-1.8,0.8-2.7c0.1-0.4-0.1-0.8-0.5-0.8
			c-0.4-0.1-0.7,0.1-0.8,0.5c-0.2,0.9-0.5,1.8-0.8,2.6C259.3,143.7,259.5,144.1,259.8,144.3z"/>
		<path class="st0" d="M259.5,146.5c0.2-0.3,0.1-0.8-0.3-0.9c-0.3-0.2-0.8-0.1-1,0.3c-0.4,0.8-1,1.5-1.5,2.2c-0.2,0.3-0.2,0.7,0.1,1
			c0.1,0.1,0.3,0.2,0.5,0.2c0.2,0,0.4-0.1,0.5-0.2C258.5,148.2,259,147.4,259.5,146.5z"/>
		<path class="st0" d="M247.7,154.2c0,0,0.1,0,0.1,0c1-0.2,1.9-0.4,2.8-0.7c0.4-0.1,0.6-0.5,0.5-0.9c-0.1-0.4-0.5-0.6-0.9-0.5
			c-0.8,0.3-1.7,0.5-2.6,0.6c-0.4,0.1-0.6,0.4-0.6,0.8C247,154,247.3,154.2,247.7,154.2z"/>
		<path class="st0" d="M253.3,152.5c0.9-0.4,1.7-1,2.5-1.5c0.3-0.2,0.4-0.7,0.1-1c-0.2-0.3-0.7-0.4-1-0.1c-0.7,0.5-1.4,1-2.2,1.4
			c-0.3,0.2-0.5,0.6-0.3,0.9c0.1,0.2,0.4,0.4,0.6,0.4C253.1,152.5,253.2,152.5,253.3,152.5z"/>
		<path class="st0" d="M263.1,94.3C263.2,94.3,263.2,94.3,263.1,94.3c0.4,0,0.7-0.3,0.7-0.7l0-2.8c0-0.4-0.3-0.7-0.7-0.7
			c-0.3,0-0.7,0.3-0.7,0.7l0,2.8C262.5,94,262.8,94.3,263.1,94.3z"/>
		<path class="st0" d="M263,99.9C263.1,99.9,263.1,99.9,263,99.9c0.4,0,0.7-0.3,0.7-0.7l0.1-2.8c0-0.4-0.3-0.7-0.7-0.7
			c-0.4,0-0.7,0.3-0.7,0.7l-0.1,2.8C262.4,99.6,262.7,99.9,263,99.9z"/>
		<path class="st0" d="M263.2,88.7C263.2,88.7,263.2,88.7,263.2,88.7c0.4,0,0.7-0.3,0.7-0.7l0-2.8c0-0.4-0.3-0.7-0.7-0.7
			c-0.4,0.1-0.7,0.3-0.7,0.7l0,2.8C262.5,88.4,262.8,88.7,263.2,88.7z"/>
		<path class="st0" d="M262.5,122.2C262.5,122.2,262.5,122.2,262.5,122.2c0.4,0,0.7-0.3,0.7-0.7l0.1-2.8c0-0.4-0.3-0.7-0.7-0.7
			c-0.4,0-0.7,0.3-0.7,0.7l-0.1,2.8C261.8,121.9,262.1,122.2,262.5,122.2z"/>
		<path class="st0" d="M262.8,111.1C262.8,111.1,262.8,111.1,262.8,111.1c0.4,0,0.7-0.3,0.7-0.7l0.1-2.8c0-0.4-0.3-0.7-0.7-0.7
			c-0.4,0-0.7,0.3-0.7,0.7l-0.1,2.8C262.1,110.7,262.4,111.1,262.8,111.1z"/>
		<path class="st0" d="M262.9,105.5C262.9,105.5,262.9,105.5,262.9,105.5c0.4,0,0.7-0.3,0.7-0.7l0.1-2.6L263,102l-0.7,0.1l-0.1,2.6
			C262.2,105.2,262.5,105.5,262.9,105.5z"/>
		<path class="st0" d="M267,94.6C267,94.6,267,94.6,267,94.6c0.4,0,0.7-0.3,0.7-0.7l0-2.8c0-0.4-0.3-0.7-0.7-0.7c0,0,0,0,0,0
			c-0.4,0-0.7,0.3-0.7,0.7l0,2.8C266.3,94.3,266.6,94.6,267,94.6z"/>
		<path class="st0" d="M264,144.6c0.1,0,0.1,0,0.2,0c0.3,0,0.6-0.2,0.7-0.5c0.3-0.9,0.5-1.8,0.8-2.8c0.1-0.4-0.2-0.7-0.5-0.8
			c-0.4-0.1-0.7,0.2-0.8,0.5c-0.2,0.9-0.4,1.8-0.7,2.6C263.4,144.1,263.6,144.5,264,144.6z"/>
		<path class="st0" d="M265.3,139.2c0,0,0.1,0,0.1,0c0.3,0,0.6-0.2,0.7-0.6c0.1-0.4,0.1-0.8,0.2-1.1c0.1-0.4,0.1-1,0.2-1.7
			c0-0.4-0.3-0.7-0.6-0.8c-0.4,0-0.7,0.3-0.8,0.6c-0.1,0.7-0.1,1.2-0.2,1.6c0,0.3-0.1,0.7-0.2,1.1
			C264.7,138.8,265,139.1,265.3,139.2z"/>
		<path class="st0" d="M265.9,133.6C265.9,133.6,265.9,133.6,265.9,133.6c0.4,0,0.7-0.3,0.7-0.7c0-0.9,0.1-1.8,0.1-2.8
			c0-0.4-0.3-0.7-0.7-0.7c-0.4,0-0.7,0.3-0.7,0.7c0,1-0.1,1.9-0.1,2.8C265.2,133.3,265.5,133.6,265.9,133.6z"/>
		<path class="st0" d="M263.5,145.9c-0.3-0.2-0.8,0-0.9,0.3c-0.4,0.8-0.8,1.6-1.3,2.4c-0.2,0.3-0.1,0.8,0.2,1
			c0.1,0.1,0.2,0.1,0.4,0.1c0.2,0,0.5-0.1,0.6-0.3c0.5-0.8,1-1.6,1.4-2.5C264,146.5,263.8,146.1,263.5,145.9z"/>
		<path class="st0" d="M250.6,156.2c-0.8,0.2-1.7,0.4-2.6,0.6c-0.4,0.1-0.6,0.4-0.6,0.8c0.1,0.3,0.4,0.6,0.7,0.6c0,0,0.1,0,0.1,0
			c1-0.2,1.9-0.4,2.8-0.6c0.4-0.1,0.6-0.5,0.5-0.9C251.3,156.3,250.9,156.1,250.6,156.2z"/>
		<path class="st0" d="M260.7,151.6c0.3-0.3,0.2-0.7-0.1-1c-0.3-0.3-0.7-0.2-1,0.1c-0.6,0.7-1.2,1.3-1.9,1.9c-0.3,0.2-0.3,0.7-0.1,1
			c0.1,0.2,0.3,0.3,0.5,0.3c0.2,0,0.3-0.1,0.4-0.2C259.3,153,260,152.4,260.7,151.6z"/>
		<path class="st0" d="M255.5,154.1c-0.8,0.4-1.6,0.9-2.4,1.2c-0.4,0.1-0.5,0.6-0.4,0.9c0.1,0.3,0.4,0.4,0.6,0.4
			c0.1,0,0.2,0,0.3-0.1c0.9-0.4,1.8-0.8,2.6-1.3c0.3-0.2,0.4-0.6,0.2-1C256.3,154,255.8,153.9,255.5,154.1z"/>
		<path class="st0" d="M266.6,116.9C266.6,116.9,266.6,116.9,266.6,116.9c0.4,0,0.7-0.3,0.7-0.7l0.1-2.8c0-0.4-0.3-0.7-0.7-0.7
			c-0.3,0-0.7,0.3-0.7,0.7l-0.1,2.8C265.9,116.6,266.2,116.9,266.6,116.9z"/>
		<path class="st0" d="M266.7,111.3C266.7,111.3,266.7,111.3,266.7,111.3c0.4,0,0.7-0.3,0.7-0.7l0.1-2.8c0-0.4-0.3-0.7-0.7-0.7
			c0,0,0,0,0,0c-0.4,0-0.7,0.3-0.7,0.7l-0.1,2.8C266,111,266.3,111.3,266.7,111.3z"/>
		<path class="st0" d="M266.9,100.2C266.9,100.2,266.9,100.2,266.9,100.2c0.4,0,0.7-0.3,0.7-0.7l0-2.8c0-0.4-0.3-0.7-0.7-0.7
			c0,0,0,0,0,0c-0.4,0-0.7,0.3-0.7,0.7l0,2.8C266.2,99.8,266.5,100.2,266.9,100.2z"/>
		<path class="st0" d="M267.1,89C267.1,89,267.1,89,267.1,89c0.4,0,0.7-0.3,0.7-0.7l0-2.8c0-0.4-0.3-0.7-0.7-0.7
			c-0.4,0-0.7,0.3-0.7,0.7l0,2.8C266.4,88.7,266.7,89,267.1,89z"/>
		<path class="st0" d="M266.8,105.7C266.8,105.7,266.8,105.7,266.8,105.7c0.4,0,0.7-0.3,0.7-0.7l0.1-2.8c0-0.4-0.3-0.7-0.7-0.7
			c-0.4,0-0.7,0.3-0.7,0.7l-0.1,2.8C266.1,105.4,266.4,105.7,266.8,105.7z"/>
		<path class="st0" d="M266.2,128.1C266.2,128.1,266.2,128.1,266.2,128.1c0.4,0,0.7-0.3,0.7-0.7l0.1-2.8c0-0.4-0.3-0.7-0.7-0.7
			c-0.5,0-0.7,0.3-0.7,0.7l-0.1,2.8C265.5,127.7,265.8,128,266.2,128.1z"/>
		<path class="st0" d="M266.4,122.5C266.4,122.5,266.4,122.5,266.4,122.5c0.4,0,0.7-0.3,0.7-0.7l0.1-2.8c0-0.4-0.3-0.7-0.7-0.7
			c-0.4,0-0.7,0.3-0.7,0.7l-0.1,2.8C265.7,122.1,266,122.5,266.4,122.5z"/>
		<path class="st0" d="M291,90.7c0.1,0,0.1,0,0.2,0c0.4-0.1,0.6-0.5,0.5-0.8c-0.2-0.9-0.4-1.8-0.5-2.7c-0.1-0.4-0.4-0.6-0.8-0.6
			c-0.4,0.1-0.6,0.4-0.6,0.8c0.2,0.9,0.4,1.9,0.6,2.8C290.4,90.5,290.6,90.7,291,90.7z"/>
		<path class="st0" d="M335.9,119.7c0.9,0,1.8,0,2.8,0h0c0.4,0,0.7-0.3,0.7-0.7c0-0.4-0.3-0.7-0.7-0.7c-0.9,0-1.9,0-2.8,0
			c-0.4,0-0.7,0.3-0.7,0.7C335.2,119.4,335.5,119.7,335.9,119.7z"/>
		<path class="st0" d="M291,92.9c0.3,0.9,0.6,1.8,0.9,2.7c0.1,0.3,0.4,0.5,0.7,0.5c0.1,0,0.2,0,0.2,0c0.4-0.1,0.5-0.5,0.4-0.9
			c-0.3-0.8-0.6-1.7-0.9-2.6c-0.1-0.4-0.5-0.6-0.9-0.5C291.1,92.2,290.9,92.5,291,92.9z"/>
		<path class="st0" d="M306,112.9c0.1,0.1,0.2,0.1,0.4,0.1c0.2,0,0.5-0.1,0.6-0.3c0.2-0.3,0.1-0.8-0.2-1c-0.8-0.5-1.5-1-2.3-1.5
			c-0.3-0.2-0.7-0.2-1,0.1c-0.2,0.3-0.2,0.7,0.1,1C304.4,111.9,305.2,112.4,306,112.9z"/>
		<path class="st0" d="M313.7,116.4c0.9,0.3,1.8,0.6,2.7,0.8c0.1,0,0.1,0,0.2,0c0.3,0,0.6-0.2,0.7-0.5c0.1-0.4-0.1-0.8-0.5-0.9
			c-0.9-0.2-1.8-0.5-2.6-0.8c-0.4-0.1-0.8,0.1-0.9,0.4C313.2,115.9,313.3,116.3,313.7,116.4z"/>
		<path class="st0" d="M301.7,107.9c-0.5-0.4-0.9-0.8-1.3-1.3c-0.3-0.3-0.7-0.3-1,0c-0.3,0.3-0.3,0.7,0,1c0.4,0.5,0.9,0.9,1.4,1.3
			c0.2,0.2,0.5,0.4,0.7,0.6c0.1,0.1,0.3,0.2,0.5,0.2c0.2,0,0.4-0.1,0.5-0.2c0.2-0.3,0.2-0.7-0.1-1
			C302.1,108.3,301.9,108.1,301.7,107.9z"/>
		<path class="st0" d="M295.2,101c0.3-0.2,0.5-0.6,0.3-0.9c-0.4-0.8-0.8-1.6-1.2-2.4c-0.2-0.4-0.6-0.5-0.9-0.3
			c-0.3,0.2-0.5,0.6-0.3,0.9c0.4,0.9,0.8,1.7,1.3,2.5c0.1,0.2,0.4,0.4,0.6,0.4C295,101.1,295.1,101.1,295.2,101z"/>
		<path class="st0" d="M296.9,102.4c-0.2-0.3-0.6-0.4-1-0.2c-0.3,0.2-0.4,0.6-0.2,1c0.5,0.8,1.1,1.6,1.7,2.3
			c0.1,0.2,0.3,0.3,0.5,0.3c0.2,0,0.3-0.1,0.4-0.2c0.3-0.2,0.3-0.7,0.1-1C298,103.9,297.4,103.2,296.9,102.4z"/>
		<path class="st0" d="M319.2,117.9c0.9,0.2,1.8,0.4,2.8,0.5c0,0,0.1,0,0.1,0c0.3,0,0.6-0.2,0.7-0.6c0.1-0.4-0.2-0.7-0.6-0.8
			c-0.9-0.2-1.8-0.3-2.7-0.5c-0.4-0.1-0.7,0.2-0.8,0.5C318.5,117.4,318.8,117.8,319.2,117.9z"/>
		<path class="st0" d="M333.1,119.6C333.1,119.6,333.1,119.6,333.1,119.6c0.4,0,0.7-0.3,0.7-0.7c0-0.4-0.3-0.7-0.7-0.7
			c-0.9,0-1.9-0.1-2.8-0.2c-0.4,0-0.7,0.3-0.7,0.6c0,0.4,0.3,0.7,0.6,0.7C331.2,119.5,332.1,119.5,333.1,119.6z"/>
		<path class="st0" d="M327.5,119.2C327.5,119.2,327.5,119.2,327.5,119.2c0.4,0,0.7-0.3,0.8-0.6c0-0.4-0.2-0.7-0.6-0.8
			c-0.9-0.1-1.9-0.2-2.7-0.3c-0.4,0-0.7,0.2-0.8,0.6c-0.1,0.4,0.2,0.7,0.6,0.8C325.6,119,326.5,119.1,327.5,119.2z"/>
		<path class="st0" d="M308.5,114.3c0.8,0.4,1.7,0.8,2.6,1.2c0.1,0,0.2,0.1,0.3,0.1c0.3,0,0.5-0.2,0.6-0.4c0.1-0.4,0-0.8-0.4-0.9
			c-0.9-0.3-1.7-0.7-2.5-1.1c-0.3-0.2-0.8,0-0.9,0.3C308,113.7,308.1,114.1,308.5,114.3z"/>
		<path class="st0" d="M322.3,122.5c0.3,0,0.6-0.2,0.7-0.6c0.1-0.4-0.2-0.7-0.6-0.8c-0.9-0.1-1.8-0.3-2.7-0.5
			c-0.4-0.1-0.7,0.2-0.8,0.5c-0.1,0.4,0.2,0.7,0.5,0.8c0.9,0.2,1.8,0.3,2.8,0.5C322.2,122.5,322.2,122.5,322.3,122.5z"/>
		<path class="st0" d="M316.8,121.4c0.3,0,0.6-0.2,0.7-0.5c0.1-0.4-0.1-0.8-0.5-0.8c-0.9-0.2-1.8-0.5-2.7-0.7
			c-0.4-0.1-0.8,0.1-0.9,0.5c-0.1,0.4,0.1,0.8,0.5,0.9c0.9,0.3,1.8,0.5,2.7,0.7C316.7,121.4,316.7,121.4,316.8,121.4z"/>
		<path class="st0" d="M291.5,101c-0.4-0.8-0.8-1.6-1.2-2.5c-0.2-0.4-0.6-0.5-0.9-0.4c-0.4,0.2-0.5,0.6-0.4,0.9
			c0.4,0.9,0.8,1.7,1.2,2.6c0.1,0.2,0.4,0.4,0.6,0.4c0.1,0,0.2,0,0.3-0.1C291.5,101.8,291.7,101.4,291.5,101z"/>
		<path class="st0" d="M327.8,123.2c0.4,0,0.7-0.3,0.7-0.6c0-0.4-0.2-0.7-0.6-0.8c-0.9-0.1-1.9-0.2-2.7-0.3c-0.4,0-0.7,0.2-0.8,0.6
			c0,0.4,0.2,0.7,0.6,0.8C325.8,123,326.8,123.1,327.8,123.2C327.7,123.2,327.8,123.2,327.8,123.2z"/>
		<path class="st0" d="M333.3,123.6c0.4,0,0.7-0.3,0.7-0.7c0-0.4-0.3-0.7-0.7-0.7c-0.9,0-1.9-0.1-2.8-0.2c-0.4,0-0.7,0.3-0.7,0.6
			c0,0.4,0.3,0.7,0.6,0.7C331.4,123.5,332.3,123.5,333.3,123.6C333.3,123.6,333.3,123.6,333.3,123.6z"/>
		<path class="st0" d="M287.8,90.8c-0.2-0.9-0.4-1.8-0.6-2.7c-0.1-0.4-0.4-0.6-0.8-0.6c-0.4,0.1-0.6,0.4-0.6,0.8
			c0.2,0.9,0.4,1.9,0.6,2.8c0.1,0.3,0.4,0.5,0.7,0.5c0.1,0,0.1,0,0.2,0C287.6,91.5,287.9,91.1,287.8,90.8z"/>
		<path class="st0" d="M341.7,123.7C341.7,123.7,341.7,123.7,341.7,123.7c0.9,0,1.9,0,2.8-0.1c0.4,0,0.7-0.3,0.7-0.7
			c0-0.4-0.3-0.7-0.7-0.7c-0.9,0-1.9,0-2.8,0.1c-0.4,0-0.7,0.3-0.7,0.7C341,123.4,341.3,123.7,341.7,123.7z"/>
		<path class="st0" d="M299.9,111.7c-0.3-0.3-0.7-0.2-1,0.1c-0.3,0.3-0.2,0.7,0.1,1c0.7,0.6,1.5,1.2,2.2,1.8
			c0.1,0.1,0.3,0.1,0.4,0.1c0.2,0,0.4-0.1,0.6-0.3c0.2-0.3,0.2-0.7-0.1-1C301.3,112.8,300.6,112.3,299.9,111.7z"/>
		<path class="st0" d="M296.1,107.8c-0.3-0.3-0.7-0.3-1-0.1c-0.3,0.3-0.3,0.7-0.1,1c0.6,0.7,1.3,1.4,1.9,2.1
			c0.1,0.1,0.3,0.2,0.5,0.2c0.2,0,0.4-0.1,0.5-0.2c0.3-0.3,0.3-0.7,0-1C297.3,109.2,296.6,108.5,296.1,107.8z"/>
		<path class="st0" d="M336.1,122.3C336.1,122.3,336.1,122.3,336.1,122.3c-0.4,0-0.7,0.3-0.7,0.7c0,0.4,0.3,0.7,0.7,0.7
			c0.9,0,1.8,0,2.8,0c0,0,0,0,0,0c0.4,0,0.7-0.3,0.7-0.7c0-0.4-0.3-0.7-0.7-0.7C338,122.3,337,122.3,336.1,122.3z"/>
		<path class="st0" d="M289.3,96c-0.3-0.9-0.6-1.7-0.8-2.6c-0.1-0.4-0.5-0.6-0.9-0.5c-0.4,0.1-0.6,0.5-0.5,0.9
			c0.3,0.9,0.6,1.8,0.9,2.7c0.1,0.3,0.4,0.5,0.7,0.5c0.1,0,0.2,0,0.2,0C289.3,96.8,289.4,96.4,289.3,96z"/>
		<path class="st0" d="M311.7,118.5c-0.9-0.3-1.7-0.7-2.5-1c-0.3-0.2-0.8,0-0.9,0.4c-0.2,0.4,0,0.8,0.4,0.9c0.8,0.4,1.7,0.7,2.6,1
			c0.1,0,0.2,0,0.2,0c0.3,0,0.6-0.2,0.7-0.5C312.2,119,312.1,118.6,311.7,118.5z"/>
		<path class="st0" d="M292.8,103.4c-0.2-0.3-0.6-0.4-1-0.2c-0.3,0.2-0.4,0.6-0.2,1c0.5,0.8,1,1.6,1.6,2.4c0.1,0.2,0.3,0.3,0.6,0.3
			c0.1,0,0.3,0,0.4-0.1c0.3-0.2,0.4-0.7,0.2-1C293.8,105,293.3,104.2,292.8,103.4z"/>
		<path class="st0" d="M306.7,116.3c-0.8-0.4-1.6-0.9-2.4-1.4c-0.3-0.2-0.8-0.1-1,0.2c-0.2,0.3-0.1,0.8,0.2,1c0.8,0.5,1.6,1,2.5,1.4
			c0.1,0.1,0.2,0.1,0.3,0.1c0.2,0,0.5-0.1,0.6-0.4C307.2,116.9,307,116.5,306.7,116.3z"/>
		<path class="st0" d="M205.2,93.3c0.1,0,0.1,0,0.2,0c0.3,0,0.6-0.2,0.7-0.5c0.3-0.9,0.6-1.8,0.8-2.7c0.1-0.4-0.1-0.8-0.5-0.8
			c-0.4-0.1-0.8,0.1-0.8,0.5c-0.2,0.9-0.5,1.8-0.8,2.6C204.7,92.7,204.9,93.1,205.2,93.3z"/>
		<path class="st0" d="M200.4,103.2c0.2,0,0.4-0.1,0.6-0.3c0.6-0.7,1.1-1.5,1.6-2.3c0.2-0.3,0.1-0.8-0.2-1c-0.3-0.2-0.8-0.1-1,0.2
			c-0.5,0.8-1,1.5-1.5,2.2c-0.2,0.3-0.2,0.7,0.1,1C200.1,103.1,200.2,103.2,200.4,103.2z"/>
		<path class="st0" d="M203,98.4c0.1,0.1,0.2,0.1,0.3,0.1c0.3,0,0.5-0.1,0.6-0.4c0.4-0.8,0.8-1.7,1.2-2.6c0.1-0.4,0-0.8-0.4-0.9
			c-0.4-0.1-0.8,0-0.9,0.4c-0.4,0.9-0.7,1.7-1.1,2.5C202.5,97.8,202.7,98.2,203,98.4z"/>
		<path class="st0" d="M181.6,114.2c0,0,0.1,0,0.1,0c0.9-0.2,1.9-0.4,2.8-0.6c0.4-0.1,0.6-0.5,0.5-0.9c-0.1-0.4-0.5-0.6-0.9-0.5
			c-0.9,0.2-1.8,0.4-2.7,0.6c-0.4,0.1-0.6,0.4-0.6,0.8C181,114,181.3,114.2,181.6,114.2z"/>
		<path class="st0" d="M176.1,114.8c1-0.1,1.9-0.1,2.8-0.2c0.4,0,0.7-0.4,0.6-0.8c0-0.4-0.4-0.7-0.8-0.6c-0.9,0.1-1.8,0.2-2.7,0.2
			c-0.4,0-0.7,0.3-0.7,0.7C175.4,114.6,175.7,114.8,176.1,114.8C176.1,114.8,176.1,114.8,176.1,114.8z"/>
		<path class="st0" d="M192,110.5c0.1,0,0.2,0,0.3-0.1c0.8-0.5,1.6-1,2.4-1.5c0.3-0.2,0.4-0.7,0.2-1c-0.2-0.3-0.7-0.4-1-0.2
			c-0.7,0.5-1.5,1-2.3,1.5c-0.3,0.2-0.4,0.6-0.3,1C191.6,110.3,191.8,110.5,192,110.5z"/>
		<path class="st0" d="M187,112.8c0.1,0,0.2,0,0.2,0c0.9-0.3,1.8-0.7,2.6-1.1c0.3-0.2,0.5-0.6,0.3-0.9c-0.2-0.4-0.6-0.5-0.9-0.3
			c-0.8,0.4-1.7,0.7-2.5,1c-0.4,0.1-0.6,0.5-0.4,0.9C186.4,112.6,186.7,112.8,187,112.8z"/>
		<path class="st0" d="M196.6,107.2c0.2,0,0.3-0.1,0.5-0.2c0.7-0.6,1.4-1.3,2-2c0.3-0.3,0.2-0.7,0-1c-0.3-0.3-0.7-0.2-1,0
			c-0.6,0.7-1.3,1.3-1.9,1.9c-0.3,0.3-0.3,0.7-0.1,1C196.2,107.1,196.4,107.2,196.6,107.2z"/>
		<path class="st0" d="M184.6,116.2c-0.9,0.2-1.8,0.4-2.7,0.6c-0.4,0.1-0.6,0.4-0.6,0.8c0.1,0.3,0.4,0.6,0.7,0.6c0,0,0.1,0,0.1,0
			c0.9-0.2,1.9-0.4,2.8-0.6c0.4-0.1,0.6-0.5,0.5-0.8C185.4,116.3,185,116.1,184.6,116.2z"/>
		<path class="st0" d="M180,117.8c0-0.4-0.4-0.6-0.8-0.6c-0.9,0.1-1.8,0.2-2.7,0.2c-0.4,0-0.7,0.4-0.7,0.7c0,0.4,0.3,0.7,0.7,0.7
			c0,0,0,0,0,0c1-0.1,1.9-0.1,2.8-0.2C179.8,118.5,180.1,118.2,180,117.8z"/>
		<path class="st0" d="M173.8,117.5C173.8,117.5,173.8,117.5,173.8,117.5h-0.3c-0.8,0-1.6,0-2.5-0.1c-0.4,0-0.7,0.3-0.7,0.7
			c0,0.4,0.3,0.7,0.7,0.7c0.9,0,1.7,0.1,2.5,0.1h0.3c0.4,0,0.7-0.3,0.7-0.7C174.5,117.8,174.1,117.5,173.8,117.5z"/>
		<path class="st0" d="M207.3,98.7c0.1,0,0.2,0.1,0.3,0.1c0.3,0,0.5-0.2,0.6-0.4c0.4-0.8,0.7-1.7,1.1-2.6c0.1-0.4,0-0.8-0.4-0.9
			c-0.4-0.1-0.8,0-0.9,0.4c-0.3,0.9-0.7,1.7-1,2.5C206.8,98.1,206.9,98.5,207.3,98.7z"/>
		<path class="st0" d="M206.7,99.9c-0.3-0.2-0.8-0.1-0.9,0.3c-0.4,0.8-0.9,1.6-1.4,2.3c-0.2,0.3-0.1,0.8,0.2,1
			c0.1,0.1,0.3,0.1,0.4,0.1c0.2,0,0.4-0.1,0.6-0.3c0.5-0.8,1-1.6,1.5-2.4C207.1,100.5,207,100.1,206.7,99.9z"/>
		<path class="st0" d="M189.8,114.5c-0.8,0.3-1.7,0.7-2.6,0.9c-0.4,0.1-0.6,0.5-0.4,0.9c0.1,0.3,0.4,0.5,0.7,0.5c0.1,0,0.1,0,0.2,0
			c0.9-0.3,1.8-0.6,2.7-1c0.4-0.1,0.5-0.6,0.4-0.9C190.6,114.5,190.2,114.4,189.8,114.5z"/>
		<path class="st0" d="M209.3,93.5c0.1,0,0.1,0,0.2,0c0.3,0,0.6-0.2,0.7-0.5c0.3-0.9,0.5-1.8,0.7-2.7c0.1-0.4-0.1-0.7-0.5-0.8
			c-0.4-0.1-0.7,0.1-0.8,0.5c-0.2,0.9-0.5,1.8-0.7,2.6C208.8,93,209,93.4,209.3,93.5z"/>
		<path class="st0" d="M198.6,109.1c-0.5,0.5-1.1,0.9-1.7,1.3c-0.3,0.2-0.4,0.7-0.1,1c0.1,0.2,0.3,0.3,0.6,0.3c0.1,0,0.3,0,0.4-0.1
			c0.6-0.4,1.2-0.9,1.7-1.4c0.2-0.1,0.3-0.3,0.5-0.4c0.3-0.3,0.3-0.7,0-1c-0.3-0.3-0.7-0.3-1,0L198.6,109.1z"/>
		<path class="st0" d="M194.7,112c-0.8,0.5-1.6,0.9-2.4,1.3c-0.3,0.2-0.5,0.6-0.3,0.9c0.1,0.2,0.4,0.4,0.6,0.4c0.1,0,0.2,0,0.3-0.1
			c0.8-0.4,1.7-0.9,2.5-1.4c0.3-0.2,0.4-0.6,0.2-1C195.4,111.9,195,111.8,194.7,112z"/>
		<path class="st0" d="M202,107.8c0.6-0.7,1.3-1.4,1.8-2.2c0.2-0.3,0.2-0.7-0.1-1c-0.3-0.2-0.7-0.2-1,0.1c-0.6,0.7-1.2,1.4-1.8,2.1
			c-0.3,0.3-0.2,0.7,0,1c0.1,0.1,0.3,0.2,0.5,0.2C201.7,108,201.8,107.9,202,107.8z"/>
		<path class="st0" d="M194.6,101.6C194.6,101.6,194.6,101.6,194.6,101.6c0.4,0,0.7-0.3,0.7-0.7l0.1-2.8c0-0.4-0.3-0.7-0.7-0.7
			c-0.4,0-0.7,0.3-0.7,0.7l-0.1,2.8C193.9,101.3,194.2,101.6,194.6,101.6z"/>
		<path class="st0" d="M184.9,94.1l2.8,0.1c0,0,0,0,0,0c0.4,0,0.7-0.3,0.7-0.7c0-0.4-0.3-0.7-0.7-0.7l-2.8-0.1c0,0,0,0,0,0
			c-0.4,0-0.7,0.3-0.7,0.7C184.2,93.7,184.5,94,184.9,94.1z"/>
		<path class="st0" d="M190.5,94.2l2.8,0.1c0,0,0,0,0,0c0.4,0,0.7-0.3,0.7-0.7c0-0.4-0.3-0.7-0.7-0.7l-2.8-0.1
			c-0.4,0-0.7,0.3-0.7,0.7C189.8,93.9,190.1,94.2,190.5,94.2z"/>
		<path class="st0" d="M179.3,93.9l2.8,0.1c0,0,0,0,0,0c0.4,0,0.7-0.3,0.7-0.7c0-0.4-0.3-0.7-0.7-0.7l-2.8-0.1
			c-0.4,0-0.7,0.3-0.7,0.7C178.6,93.6,178.9,93.9,179.3,93.9z"/>
		<g>
			<path class="st0" d="M254.4,62.1c-2.9,0-5.2,2.3-5.2,5.2c0,2.9,2.3,5.2,5.2,5.2c2.9,0,5.2-2.3,5.2-5.2
				C259.6,64.5,257.3,62.1,254.4,62.1z"/>
		</g>
	</g>
</g>
</svg>
