<svg id="Capa_1" data-name="Capa 1" xmlns="http://www.w3.org/2000/svg" viewBox="0 0 52.8 52.8"><defs><style>.cls-1{fill:#fff;stroke:#666;stroke-miterlimit:10;stroke-width:0.5px;}.cls-2{fill:#808789;}.cls-3{fill:#666;}</style></defs><title>Mesa de trabajo 1</title><circle class="cls-1" cx="26.07" cy="26.89" r="25.4"/><g id="Layer_6" data-name="Layer 6"><path class="cls-2" d="M16.32,19.08A5.07,5.07,0,0,0,13,23.88a.49.49,0,0,0,1,0A4.12,4.12,0,0,1,16.7,20a.44.44,0,0,0,.27-.6A.47.47,0,0,0,16.32,19.08Z"/><path class="cls-2" d="M35.67,19.08A5.07,5.07,0,0,1,39,23.88a.49.49,0,0,1-1,0A4.12,4.12,0,0,0,35.29,20a.44.44,0,0,1-.27-.6C35.18,19.08,35.45,19,35.67,19.08Z"/><path class="cls-3" d="M20.24,21.15a.55.55,0,0,1-.55-.55A6.32,6.32,0,0,1,26,14.33a.55.55,0,0,1,0,1.09,5.24,5.24,0,0,0-5.23,5.23A.54.54,0,0,1,20.24,21.15Z"/><path class="cls-3" d="M22.42,26.22A.5.5,0,0,1,22,26a13.21,13.21,0,0,1-1.91-3.33A.57.57,0,0,1,20.4,22a.6.6,0,0,1,.44,0,.56.56,0,0,1,.27.33h0a11.1,11.1,0,0,0,1.74,3.05.52.52,0,0,1,.11.38.55.55,0,0,1-.22.38A.4.4,0,0,1,22.42,26.22Z"/><path class="cls-2" d="M21.71,29.93a.5.5,0,0,0-.65,0,19.1,19.1,0,0,1-3,2.62,18.19,18.19,0,0,1-3.93-3.71,8.6,8.6,0,0,1-2.13-5,6,6,0,0,1,5-5.94.47.47,0,0,0-.16-.93,6.79,6.79,0,0,0-4.14,2.34A7,7,0,0,0,11,23.82a9.73,9.73,0,0,0,2.29,5.62,20.92,20.92,0,0,0,4,3.87L16.7,34.4a.41.41,0,0,0,0,.49.44.44,0,0,0,.44.22h.44v6.76a.49.49,0,1,0,1,0V35.11H19a.49.49,0,0,0,.49-.49.33.33,0,0,0-.05-.22v-.05l-.65-1.09a23.3,23.3,0,0,0,3.05-2.67A.51.51,0,0,0,21.71,29.93ZM18,34.13l.22-.33.22.33Z"/><path class="cls-2" d="M39.27,19.3A7.1,7.1,0,0,0,35.13,17a.47.47,0,1,0-.16.93,6,6,0,0,1,5,5.94,8.38,8.38,0,0,1-2.13,5,19.45,19.45,0,0,1-3.93,3.71,16.93,16.93,0,0,1-3-2.62.46.46,0,0,0-.65.65,23.3,23.3,0,0,0,3.05,2.67l-.65,1.09a.41.41,0,0,0,0,.49.44.44,0,0,0,.44.22h.44v6.76a.49.49,0,1,0,1,0V35.05H35a.49.49,0,0,0,.49-.49c0-.11,0-.16-.05-.22v-.05l-.65-1.09a20.66,20.66,0,0,0,4-3.82,9.25,9.25,0,0,0,2.29-5.62A7.69,7.69,0,0,0,39.27,19.3Zm-5.4,14.83.22-.33.22.33Z"/><path class="cls-3" d="M25.86,12.48a8.17,8.17,0,0,0-8.18,8.18,11.2,11.2,0,0,0,2.67,6.54,23.9,23.9,0,0,0,4.8,4.58l-.82,1.36a.41.41,0,0,0,0,.49.44.44,0,0,0,.44.22h.6v8.07a.49.49,0,1,0,1,0V33.8h.6a.52.52,0,0,0,.49-.38.36.36,0,0,0-.05-.33l-.71-1.47a22.87,22.87,0,0,0,4.69-4.47A11.06,11.06,0,0,0,34,20.61,8.16,8.16,0,0,0,25.86,12.48Zm-.22,20.39.33-.55.27.55Zm5-6.27A22.55,22.55,0,0,1,25.91,31a21.27,21.27,0,0,1-4.69-4.42,10.06,10.06,0,0,1-2.51-5.94,7.2,7.2,0,0,1,14.39,0A10.34,10.34,0,0,1,30.6,26.6Z"/></g></svg>