<svg xmlns="http://www.w3.org/2000/svg" width="33" height="33" viewBox="0 0 33 33">
    <path fill="#fff" fill-rule="nonzero" d="M33 16.5C33 7.402 25.598 0 16.5 0 7.402 0 0 7.402 0 16.5c0 4.805 2.066 9.137 5.356 12.155l-.016.014.535.45c.035.03.073.054.108.083.284.236.579.46.879.676a16.803 16.803 0 0 0 1.279.838 16.465 16.465 0 0 0 1.349.715l.084.038a16.351 16.351 0 0 0 3.99 1.263l.111.02c.435.075.874.135 1.318.175l.163.013c.443.037.89.06 1.344.06.45 0 .893-.023 1.333-.059l.168-.012c.44-.04.876-.099 1.306-.173l.113-.02a16.35 16.35 0 0 0 3.934-1.233c.045-.021.092-.04.137-.062a16.583 16.583 0 0 0 2.299-1.314c.11-.075.22-.155.33-.234.263-.19.521-.386.773-.59.055-.045.115-.084.17-.13l.549-.459-.016-.014C30.914 25.681 33 21.33 33 16.5zm-31.8 0c0-8.437 6.863-15.3 15.3-15.3 8.437 0 15.3 6.863 15.3 15.3 0 4.546-1.995 8.633-5.153 11.438a4.497 4.497 0 0 0-.536-.322l-5.08-2.54a1.33 1.33 0 0 1-.74-1.196v-1.774c.118-.145.242-.31.37-.49a12.227 12.227 0 0 0 1.57-3.074 2.178 2.178 0 0 0 1.251-1.974v-2.127c0-.52-.19-1.024-.532-1.421v-2.8c.031-.312.142-2.069-1.13-3.519C20.714 5.44 18.925 4.8 16.5 4.8c-2.425 0-4.214.639-5.32 1.9-1.272 1.45-1.161 3.208-1.13 3.52v2.8c-.34.396-.532.9-.532 1.42v2.128c0 .66.296 1.277.804 1.692.486 1.904 1.486 3.345 1.856 3.834v1.736c0 .49-.267.94-.698 1.175l-4.744 2.588a4.336 4.336 0 0 0-.451.285C3.165 25.075 1.2 21.013 1.2 16.5z"/>
</svg>
