<svg id="Layer_1" data-name="Layer 1" xmlns="http://www.w3.org/2000/svg" width="700" height="100" viewBox="0 0 700 100">
  <defs>
    <style>
      .cls-1 {
        fill: #00baff;
      }

      .cls-2 {
        fill: #009eda;
      }

      .cls-3 {
        fill: #ffb541;
      }

      .cls-4 {
        fill: #ffa200;
      }

      .cls-5 {
        fill: #ffd300;
      }

      .cls-6 {
        fill: #fcbf00;
      }

      .cls-7 {
        fill: #e0f2ff;
      }

      .cls-8 {
        fill: #cadbe6;
      }

      .cls-9 {
        fill: #3bdbff;
      }

      .cls-10 {
        fill: #ec8900;
      }

      .cls-11 {
        fill: #98bfcf;
      }

      .cls-12 {
        fill: #95f0f3;
      }

      .cls-13 {
        fill: #a9c9d3;
      }

      .cls-14 {
        fill: #e9eff4;
      }
    </style>
  </defs>
  <g>
    <rect class="cls-1" x="65.49" y="68.39" height="30.99"/>
    <polygon class="cls-1" points="34.51 99.38 49.74 99.38 49.74 68.39 34.51 68.39 34.51 68.39 34.51 99.38"/>
    <rect class="cls-2" x="49.74" y="68.39" width="15.76" height="30.99"/>
    <polygon class="cls-3" points="96.48 99.38 80.83 99.38 80.83 68.39 65.5 68.39 65.5 99.38 65.49 99.38 49.74 99.38 34.51 99.38 19.27 99.38 3.51 99.38 3.51 99.38 34.51 99.38 65.5 99.38 96.49 99.38 96.49 99.38 96.49 68.39 96.49 68.39 96.48 68.39 96.48 99.38"/>
    <rect class="cls-4" x="80.83" y="68.39" width="15.65" height="30.99"/>
    <polygon class="cls-5" points="96.48 68.39 96.49 68.39 96.49 37.4 96.49 37.4 96.48 37.4 96.48 68.39"/>
    <polygon class="cls-5" points="65.5 68.39 80.83 68.39 80.83 37.4 65.5 37.4 65.5 37.4 65.5 68.39"/>
    <rect class="cls-6" x="80.83" y="37.4" width="15.65" height="30.99"/>
    <rect class="cls-7" x="10.24" y="62.6" width="9.03" height="5.79"/>
    <polygon class="cls-8" points="27.78 68.39 27.78 62.6 27.77 62.6 19.27 62.6 19.27 68.39 27.78 68.39"/>
    <rect class="cls-9" x="41.23" y="32.55" width="8.5" height="4.85"/>
    <rect class="cls-1" x="49.74" y="32.55" width="9.03" height="4.85"/>
    <rect class="cls-4" x="72.23" y="0.62" width="8.61" height="5.79"/>
    <rect class="cls-10" x="80.83" y="0.62" width="8.92" height="5.79"/>
    <polygon class="cls-11" points="19.27 72.93 19.27 68.39 10.24 68.39 3.51 68.39 3.51 68.39 3.51 99.38 19.27 99.38 19.27 72.93"/>
    <polygon class="cls-7" points="19.27 68.39 19.27 72.93 19.27 99.38 34.51 99.38 34.51 68.39 34.51 68.39 27.78 68.39 19.27 68.39"/>
    <polygon class="cls-12" points="49.74 42.88 49.74 37.4 41.23 37.4 34.51 37.4 34.51 37.4 34.51 68.39 49.74 68.39 49.74 42.88"/>
    <polygon class="cls-12" points="65.49 68.39 65.5 68.39 65.5 37.4 65.5 37.4 65.49 37.4 65.49 68.39"/>
    <polygon class="cls-9" points="49.74 37.4 49.74 42.88 49.74 68.39 65.49 68.39 65.49 37.4 58.77 37.4 58.77 32.55 58.76 32.55 58.76 37.4 49.74 37.4"/>
    <polygon class="cls-3" points="96.48 37.4 96.49 37.4 96.49 6.41 96.49 6.41 96.48 6.41 96.48 37.4"/>
    <polygon class="cls-3" points="80.83 10.95 80.83 6.41 72.23 6.41 65.5 6.41 65.5 6.41 65.5 37.4 80.83 37.4 80.83 10.95"/>
    <polygon class="cls-4" points="80.83 6.41 80.83 10.95 80.83 37.4 96.48 37.4 96.48 6.41 89.76 6.41 89.76 0.62 89.75 0.62 89.75 6.41 80.83 6.41"/>
    <polygon class="cls-3" points="219.27 99.38 203.51 99.38 203.51 99.38 234.5 99.38 234.5 99.38 219.27 99.38"/>
    <polygon class="cls-1" points="265.5 37.39 265.5 37.38 265.49 37.38 265.49 68.38 265.5 68.38 265.5 37.4 265.5 37.39"/>
    <polygon class="cls-1" points="249.74 37.38 234.5 37.38 234.5 37.4 234.5 68.38 249.74 68.38 249.74 37.38"/>
    <rect class="cls-2" x="249.74" y="37.39" width="15.76" height="30.99"/>
    <polygon class="cls-3" points="296.49 99.38 280.83 99.38 280.83 68.39 265.5 68.39 265.5 68.38 265.49 68.38 249.74 68.38 234.5 68.38 234.5 68.39 234.5 68.39 234.5 68.39 249.74 68.39 265.49 68.39 265.5 68.39 265.5 99.38 265.5 99.38 296.49 99.38 296.49 99.38 296.49 68.39 296.49 68.39 296.49 68.39 296.49 99.38"/>
    <rect class="cls-4" x="280.83" y="68.39" width="15.65" height="30.99"/>
    <polygon class="cls-5" points="296.49 68.39 296.49 68.39 296.49 37.4 296.49 37.39 296.49 37.39 296.49 68.39"/>
    <polygon class="cls-5" points="265.5 37.39 265.5 37.4 265.5 68.38 265.5 68.39 280.83 68.39 280.83 37.39 265.5 37.39"/>
    <rect class="cls-6" x="280.83" y="37.39" width="15.65" height="30.99"/>
    <rect class="cls-7" x="210.24" y="62.6" width="9.03" height="5.79"/>
    <polygon class="cls-8" points="227.78 68.39 227.78 62.6 227.77 62.6 219.27 62.6 219.27 68.39 227.78 68.39"/>
    <rect class="cls-9" x="241.23" y="1.55" width="8.5" height="4.85"/>
    <rect class="cls-1" x="249.74" y="1.55" width="9.03" height="4.85"/>
    <rect class="cls-4" x="272.23" y="0.61" width="8.61" height="5.79"/>
    <rect class="cls-10" x="280.83" y="0.61" width="8.92" height="5.79"/>
    <polygon class="cls-11" points="219.27 72.93 219.27 68.39 210.24 68.39 203.51 68.39 203.51 68.39 203.51 99.38 219.27 99.38 219.27 72.93"/>
    <polygon class="cls-7" points="219.27 68.39 219.27 72.93 219.27 99.38 234.5 99.38 234.5 68.39 234.5 68.39 234.5 68.39 227.78 68.39 219.27 68.39"/>
    <polygon class="cls-12" points="265.5 37.38 265.5 6.41 265.5 6.4 265.5 6.39 265.49 6.39 265.49 37.38 265.5 37.38"/>
    <polygon class="cls-12" points="249.74 11.88 249.74 6.39 241.24 6.39 234.5 6.39 234.5 37.38 249.74 37.38 249.74 11.88"/>
    <polygon class="cls-9" points="249.74 6.39 249.74 11.88 249.74 37.38 265.49 37.38 265.49 6.39 258.76 6.39 258.76 1.55 258.76 1.55 258.76 6.39 249.74 6.39"/>
    <polygon class="cls-12" points="249.74 68.39 234.5 68.39 234.5 99.38 234.5 99.38 234.5 99.39 249.74 99.39 249.74 68.39"/>
    <polygon class="cls-12" points="265.5 68.39 265.49 68.39 265.49 99.39 265.5 99.39 265.5 99.38 265.5 99.38 265.5 68.39"/>
    <rect class="cls-9" x="249.74" y="68.39" width="15.76" height="30.99"/>
    <polygon class="cls-3" points="296.49 37.39 296.49 37.39 296.49 6.41 296.49 6.4 296.49 6.4 296.49 37.39"/>
    <polygon class="cls-3" points="265.5 37.38 265.5 37.39 280.83 37.39 280.83 10.95 280.83 6.4 272.23 6.4 265.5 6.4 265.5 6.41 265.5 37.38"/>
    <polygon class="cls-4" points="280.83 6.4 280.83 10.95 280.83 37.39 296.49 37.39 296.49 6.4 289.76 6.4 289.76 0.61 289.75 0.61 289.75 6.4 280.83 6.4"/>
    <polygon class="cls-1" points="165.49 53.39 165.49 84.38 165.5 84.38 165.5 68.39 165.5 53.39 165.49 53.39"/>
    <polygon class="cls-1" points="134.5 84.38 149.74 84.38 149.74 53.39 134.5 53.39 134.5 68.39 134.5 68.39 134.5 84.38"/>
    <rect class="cls-2" x="149.74" y="53.39" width="15.76" height="30.99"/>
    <polygon class="cls-3" points="196.49 99.38 180.83 99.38 180.83 68.39 165.5 68.39 165.5 84.38 165.49 84.38 149.74 84.38 134.5 84.38 134.5 84.4 149.74 84.4 165.49 84.4 165.5 84.4 165.5 99.38 165.49 99.38 149.74 99.38 134.5 99.38 119.27 99.38 103.51 99.38 103.51 99.38 134.5 99.38 165.5 99.38 196.49 99.38 196.49 99.38 196.49 68.39 196.49 68.39 196.49 68.39 196.49 99.38"/>
    <rect class="cls-4" x="180.83" y="68.39" width="15.65" height="30.99"/>
    <polygon class="cls-5" points="165.5 37.4 165.5 37.4 165.5 53.39 165.5 68.39 180.83 68.39 180.83 37.4 165.5 37.4"/>
    <polygon class="cls-5" points="196.49 68.39 196.49 68.39 196.49 37.4 196.49 37.4 196.49 37.4 196.49 68.39"/>
    <rect class="cls-6" x="180.83" y="37.4" width="15.65" height="30.99"/>
    <rect class="cls-7" x="110.24" y="62.6" width="9.03" height="5.79"/>
    <polygon class="cls-8" points="127.78 68.39 127.78 62.6 127.77 62.6 119.27 62.6 119.27 68.39 127.78 68.39"/>
    <rect class="cls-9" x="141.23" y="17.55" width="8.5" height="4.85"/>
    <rect class="cls-1" x="149.74" y="17.55" width="9.03" height="4.85"/>
    <rect class="cls-4" x="172.23" y="0.62" width="8.61" height="5.79"/>
    <rect class="cls-10" x="180.83" y="0.62" width="8.92" height="5.79"/>
    <polygon class="cls-11" points="119.27 72.93 119.27 68.39 110.24 68.39 103.51 68.39 103.51 68.39 103.51 99.38 119.27 99.38 119.27 72.93"/>
    <polygon class="cls-7" points="119.27 68.39 119.27 72.93 119.27 99.38 134.5 99.38 134.5 84.4 134.5 84.38 134.5 68.39 134.5 68.39 127.78 68.39 119.27 68.39"/>
    <polygon class="cls-12" points="149.74 27.88 149.74 22.4 141.24 22.4 134.5 22.4 134.5 37.4 134.5 53.39 149.74 53.39 149.74 27.88"/>
    <polygon class="cls-12" points="165.49 53.39 165.5 53.39 165.5 37.4 165.5 37.4 165.5 22.4 165.49 22.4 165.49 53.39"/>
    <polygon class="cls-9" points="149.74 22.4 149.74 27.88 149.74 53.39 165.49 53.39 165.49 22.4 158.76 22.4 158.76 17.55 158.76 17.55 158.76 22.4 149.74 22.4"/>
    <rect class="cls-12" x="134.5" y="84.4" width="15.23" height="14.98"/>
    <rect class="cls-12" x="165.49" y="84.4" height="14.98"/>
    <rect class="cls-9" x="149.74" y="84.4" width="15.76" height="14.98"/>
    <polygon class="cls-3" points="196.49 37.4 196.49 37.4 196.49 6.41 196.49 6.41 196.49 6.41 196.49 37.4"/>
    <polygon class="cls-3" points="180.83 37.4 180.83 10.95 180.83 6.41 172.23 6.41 165.5 6.41 165.5 6.41 165.5 22.4 165.5 37.4 180.83 37.4"/>
    <polygon class="cls-4" points="180.83 6.41 180.83 10.95 180.83 37.4 196.49 37.4 196.49 6.41 189.76 6.41 189.76 0.62 189.75 0.62 189.75 6.41 180.83 6.41"/>
    <polygon class="cls-3" points="419.25 99.38 403.49 99.38 403.49 99.38 434.48 99.38 434.48 99.38 419.25 99.38"/>
    <polygon class="cls-1" points="465.47 37.39 465.47 37.38 465.47 37.38 465.47 68.38 465.47 68.38 465.47 37.4 465.47 37.39"/>
    <polygon class="cls-1" points="449.72 37.38 434.48 37.38 434.48 37.4 434.48 68.38 449.72 68.38 449.72 37.38"/>
    <rect class="cls-2" x="449.72" y="37.39" width="15.76" height="30.99"/>
    <polygon class="cls-3" points="496.46 99.38 480.81 99.38 480.81 68.39 465.47 68.39 465.47 68.38 465.47 68.38 449.72 68.38 434.48 68.38 434.48 68.39 434.48 68.39 434.48 68.39 449.72 68.39 465.47 68.39 465.47 68.39 465.47 99.38 465.47 99.38 496.46 99.38 496.46 99.38 496.46 68.39 496.46 68.39 496.46 68.39 496.46 99.38"/>
    <rect class="cls-4" x="480.81" y="68.39" width="15.65" height="30.99"/>
    <polygon class="cls-5" points="496.46 68.39 496.46 68.39 496.46 37.4 496.46 37.39 496.46 37.39 496.46 68.39"/>
    <polygon class="cls-5" points="465.47 37.39 465.47 37.4 465.47 68.38 465.47 68.39 480.81 68.39 480.81 37.39 465.47 37.39"/>
    <rect class="cls-6" x="480.81" y="37.39" width="15.65" height="30.99"/>
    <rect class="cls-7" x="410.22" y="31.6" width="9.03" height="5.79"/>
    <polygon class="cls-8" points="427.75 37.38 427.75 31.6 427.75 31.6 419.25 31.6 419.25 37.38 427.75 37.38"/>
    <rect class="cls-9" x="441.21" y="1.55" width="8.5" height="4.85"/>
    <rect class="cls-1" x="449.72" y="1.55" width="9.03" height="4.85"/>
    <rect class="cls-4" x="472.2" y="0.61" width="8.61" height="5.79"/>
    <rect class="cls-10" x="480.81" y="0.61" width="8.92" height="5.79"/>
    <polygon class="cls-11" points="419.25 37.38 410.22 37.38 403.49 37.38 403.49 68.38 419.25 68.38 419.25 41.93 419.25 37.38"/>
    <polygon class="cls-7" points="434.48 37.38 427.75 37.38 419.25 37.38 419.25 41.93 419.25 68.38 434.48 68.38 434.48 37.4 434.48 37.38"/>
    <polygon class="cls-13" points="419.25 68.39 403.49 68.39 403.49 68.39 403.49 99.38 419.25 99.38 419.25 68.39"/>
    <polygon class="cls-14" points="419.25 99.38 434.48 99.38 434.48 68.39 434.48 68.39 434.48 68.39 419.25 68.39 419.25 99.38"/>
    <polygon class="cls-12" points="449.72 11.88 449.72 6.39 441.21 6.39 434.48 6.39 434.48 37.38 449.72 37.38 449.72 11.88"/>
    <polygon class="cls-12" points="465.47 37.38 465.47 6.41 465.47 6.4 465.47 6.39 465.47 6.39 465.47 37.38 465.47 37.38"/>
    <polygon class="cls-9" points="449.72 6.39 449.72 11.88 449.72 37.38 465.47 37.38 465.47 6.39 458.74 6.39 458.74 1.55 458.74 1.55 458.74 6.39 449.72 6.39"/>
    <polygon class="cls-12" points="465.47 68.39 465.47 68.39 465.47 99.39 465.47 99.39 465.47 99.38 465.47 99.38 465.47 68.39"/>
    <polygon class="cls-12" points="449.72 68.39 434.48 68.39 434.48 99.38 434.48 99.38 434.48 99.39 449.72 99.39 449.72 68.39"/>
    <rect class="cls-9" x="449.72" y="68.39" width="15.76" height="30.99"/>
    <polygon class="cls-3" points="496.46 37.39 496.46 37.39 496.46 6.41 496.46 6.4 496.46 6.4 496.46 37.39"/>
    <polygon class="cls-3" points="465.47 37.38 465.47 37.39 480.81 37.39 480.81 10.95 480.81 6.4 472.2 6.4 465.47 6.4 465.47 6.41 465.47 37.38"/>
    <polygon class="cls-4" points="480.81 6.4 480.81 10.95 480.81 37.39 496.46 37.39 496.46 6.4 489.74 6.4 489.74 0.61 489.73 0.61 489.73 6.4 480.81 6.4"/>
    <polygon class="cls-3" points="334.5 83.53 334.5 83.52 319.27 83.52 303.51 83.52 303.51 83.53 319.27 83.53 334.5 83.53"/>
    <polygon class="cls-1" points="365.5 37.39 365.5 37.38 365.49 37.38 365.49 68.38 365.5 68.38 365.5 37.4 365.5 37.39"/>
    <polygon class="cls-1" points="349.74 68.38 349.74 37.38 334.5 37.38 334.5 37.4 334.5 52.53 334.5 68.38 349.74 68.38"/>
    <rect class="cls-2" x="349.74" y="37.39" width="15.76" height="30.99"/>
    <polygon class="cls-3" points="396.49 99.38 380.83 99.38 380.83 68.39 365.5 68.39 365.5 68.38 365.49 68.38 349.74 68.38 334.5 68.38 334.5 68.39 334.5 68.39 349.74 68.39 365.49 68.39 365.5 68.39 365.5 99.38 365.5 99.38 396.49 99.38 396.49 99.38 396.49 68.39 396.49 68.39 396.49 68.39 396.49 99.38"/>
    <rect class="cls-4" x="380.83" y="68.39" width="15.65" height="30.99"/>
    <polygon class="cls-5" points="396.49 68.39 396.49 68.39 396.49 37.4 396.49 37.39 396.49 37.39 396.49 68.39"/>
    <polygon class="cls-5" points="365.5 37.39 365.5 37.4 365.5 68.38 365.5 68.39 380.83 68.39 380.83 37.39 365.5 37.39"/>
    <rect class="cls-6" x="380.83" y="37.39" width="15.65" height="30.99"/>
    <rect class="cls-7" x="310.24" y="46.74" width="9.03" height="5.79"/>
    <polygon class="cls-8" points="327.78 52.53 327.78 46.74 327.77 46.74 319.27 46.74 319.27 52.53 327.78 52.53"/>
    <rect class="cls-9" x="341.23" y="1.55" width="8.5" height="4.85"/>
    <rect class="cls-1" x="349.74" y="1.55" width="9.03" height="4.85"/>
    <rect class="cls-4" x="372.23" y="0.61" width="8.61" height="5.79"/>
    <rect class="cls-10" x="380.83" y="0.61" width="8.92" height="5.79"/>
    <polygon class="cls-11" points="319.27 57.07 319.27 52.53 310.24 52.53 303.51 52.53 303.51 68.39 303.51 83.52 319.27 83.52 319.27 57.07"/>
    <polygon class="cls-7" points="319.27 52.53 319.27 57.07 319.27 83.52 334.5 83.52 334.5 68.39 334.5 68.39 334.5 68.38 334.5 52.53 327.78 52.53 319.27 52.53"/>
    <polygon class="cls-13" points="319.27 83.53 303.51 83.53 303.51 99.38 303.51 99.39 319.27 99.39 319.27 83.53"/>
    <rect class="cls-14" x="319.27" y="83.53" width="15.23" height="15.86"/>
    <polygon class="cls-12" points="349.74 11.88 349.74 6.39 341.24 6.39 334.5 6.39 334.5 37.38 349.74 37.38 349.74 11.88"/>
    <polygon class="cls-12" points="365.5 37.38 365.5 6.41 365.5 6.4 365.5 6.39 365.49 6.39 365.49 37.38 365.5 37.38"/>
    <polygon class="cls-9" points="349.74 6.39 349.74 11.88 349.74 37.38 365.49 37.38 365.49 6.39 358.76 6.39 358.76 1.55 358.76 1.55 358.76 6.39 349.74 6.39"/>
    <polygon class="cls-12" points="349.74 68.39 334.5 68.39 334.5 83.52 334.5 83.53 334.5 99.39 349.74 99.39 349.74 68.39"/>
    <polygon class="cls-12" points="365.5 68.39 365.49 68.39 365.49 99.39 365.5 99.39 365.5 99.38 365.5 99.38 365.5 68.39"/>
    <rect class="cls-9" x="349.74" y="68.39" width="15.76" height="30.99"/>
    <polygon class="cls-3" points="396.49 37.39 396.49 37.39 396.49 6.41 396.49 6.4 396.49 6.4 396.49 37.39"/>
    <polygon class="cls-3" points="365.5 37.38 365.5 37.39 380.83 37.39 380.83 10.95 380.83 6.4 372.23 6.4 365.5 6.4 365.5 6.41 365.5 37.38"/>
    <polygon class="cls-4" points="380.83 6.4 380.83 10.95 380.83 37.39 396.49 37.39 396.49 6.4 389.76 6.4 389.76 0.61 389.75 0.61 389.75 6.4 380.83 6.4"/>
    <polygon class="cls-3" points="619.25 99.39 603.49 99.39 603.49 99.39 634.48 99.39 634.48 99.39 619.25 99.39"/>
    <polygon class="cls-1" points="665.47 37.4 665.47 37.39 665.47 37.39 665.47 68.39 665.47 68.39 665.47 37.41 665.47 37.4"/>
    <polygon class="cls-1" points="649.72 37.39 634.48 37.39 634.48 37.41 634.48 68.39 649.72 68.39 649.72 37.39"/>
    <rect class="cls-2" x="649.72" y="37.39" width="15.76" height="30.99"/>
    <polygon class="cls-3" points="696.46 99.39 680.81 99.39 680.81 68.39 665.47 68.39 665.47 68.39 665.47 68.39 649.72 68.39 634.48 68.39 634.48 68.39 634.48 68.4 634.48 68.4 649.72 68.4 665.47 68.4 665.47 68.4 665.47 99.39 665.47 99.39 696.47 99.39 696.47 99.39 696.47 68.4 696.47 68.39 696.46 68.39 696.46 99.39"/>
    <rect class="cls-4" x="680.81" y="68.39" width="15.65" height="30.99"/>
    <polygon class="cls-5" points="696.46 68.39 696.47 68.39 696.47 37.41 696.47 37.4 696.46 37.4 696.46 68.39"/>
    <polygon class="cls-5" points="665.47 37.4 665.47 37.41 665.47 68.39 665.47 68.39 680.81 68.39 680.81 37.4 665.47 37.4"/>
    <rect class="cls-6" x="680.81" y="37.4" width="15.65" height="30.99"/>
    <rect class="cls-7" x="610.22" y="0.61" width="9.03" height="5.79"/>
    <polygon class="cls-8" points="627.75 6.39 627.75 0.61 627.75 0.61 619.25 0.61 619.25 6.39 627.75 6.39"/>
    <rect class="cls-9" x="641.21" y="1.56" width="8.5" height="4.85"/>
    <rect class="cls-1" x="649.72" y="1.56" width="9.03" height="4.85"/>
    <rect class="cls-4" x="672.2" y="0.62" width="8.61" height="5.79"/>
    <rect class="cls-10" x="680.81" y="0.62" width="8.92" height="5.79"/>
    <polygon class="cls-11" points="619.25 6.39 610.22 6.39 603.49 6.39 603.49 37.38 619.25 37.38 619.25 10.94 619.25 6.39"/>
    <polygon class="cls-7" points="634.48 6.39 627.75 6.39 619.25 6.39 619.25 10.94 619.25 37.38 634.48 37.38 634.48 6.4 634.48 6.39"/>
    <polygon class="cls-11" points="619.25 68.39 603.49 68.39 603.49 68.4 603.49 99.39 619.25 99.39 619.25 68.39"/>
    <polygon class="cls-7" points="619.25 99.39 634.48 99.39 634.48 68.4 634.48 68.4 634.48 68.39 619.25 68.39 619.25 99.39"/>
    <rect class="cls-13" x="603.49" y="37.39" width="15.76" height="30.99"/>
    <polygon class="cls-14" points="634.48 37.39 619.25 37.39 619.25 68.39 634.48 68.39 634.48 37.41 634.48 37.39"/>
    <polygon class="cls-12" points="649.72 11.89 649.72 6.4 641.21 6.4 634.48 6.4 634.48 37.38 634.48 37.39 649.72 37.39 649.72 11.89"/>
    <polygon class="cls-12" points="665.47 37.39 665.47 6.42 665.47 6.41 665.47 6.4 665.47 6.4 665.47 37.39 665.47 37.39"/>
    <polygon class="cls-9" points="649.72 6.4 649.72 11.89 649.72 37.39 665.47 37.39 665.47 6.4 658.74 6.4 658.74 1.56 658.74 1.56 658.74 6.4 649.72 6.4"/>
    <polygon class="cls-12" points="665.47 68.4 665.47 68.4 665.47 99.39 665.47 99.39 665.47 99.39 665.47 99.39 665.47 68.4"/>
    <polygon class="cls-12" points="649.72 68.4 634.48 68.4 634.48 99.39 634.48 99.39 634.48 99.39 649.72 99.39 649.72 68.4"/>
    <rect class="cls-9" x="649.72" y="68.4" width="15.76" height="30.99"/>
    <polygon class="cls-3" points="696.46 6.41 696.46 37.4 696.47 37.4 696.47 6.42 696.47 6.41 696.46 6.41"/>
    <polygon class="cls-3" points="665.47 37.39 665.47 37.4 680.81 37.4 680.81 10.95 680.81 6.41 672.21 6.41 665.47 6.41 665.47 6.42 665.47 37.39"/>
    <polygon class="cls-4" points="680.81 6.41 680.81 10.95 680.81 37.4 696.46 37.4 696.46 6.41 689.74 6.41 689.74 0.62 689.73 0.62 689.73 6.41 680.81 6.41"/>
    <polygon class="cls-3" points="534.48 82.89 534.48 82.88 519.25 82.88 503.49 82.88 503.49 82.89 519.25 82.89 534.48 82.89"/>
    <polygon class="cls-1" points="565.47 37.39 565.47 37.38 565.47 37.38 565.47 68.38 565.47 68.38 565.47 37.4 565.47 37.39"/>
    <polygon class="cls-1" points="549.72 68.38 549.72 37.38 534.48 37.38 534.48 37.4 534.48 51.88 534.48 51.88 534.48 68.38 549.72 68.38"/>
    <rect class="cls-2" x="549.72" y="37.39" width="15.76" height="30.99"/>
    <polygon class="cls-3" points="596.46 99.38 580.81 99.38 580.81 68.39 565.47 68.39 565.47 68.38 565.47 68.38 549.72 68.38 534.48 68.38 534.48 68.39 534.48 68.39 549.72 68.39 565.47 68.39 565.47 68.39 565.47 99.38 565.47 99.38 596.47 99.38 596.47 99.38 596.47 68.39 596.47 68.39 596.46 68.39 596.46 99.38"/>
    <rect class="cls-4" x="580.81" y="68.39" width="15.65" height="30.99"/>
    <polygon class="cls-5" points="565.47 37.39 565.47 37.4 565.47 68.38 565.47 68.39 580.81 68.39 580.81 37.39 565.47 37.39"/>
    <polygon class="cls-5" points="596.46 68.39 596.47 68.39 596.47 37.4 596.47 37.39 596.46 37.39 596.46 68.39"/>
    <rect class="cls-6" x="580.81" y="37.39" width="15.65" height="30.99"/>
    <rect class="cls-7" x="510.22" y="15.1" width="9.03" height="5.79"/>
    <polygon class="cls-8" points="527.75 20.89 527.75 15.1 527.75 15.1 519.25 15.1 519.25 20.89 527.75 20.89"/>
    <rect class="cls-9" x="541.21" y="1.55" width="8.5" height="4.85"/>
    <rect class="cls-1" x="549.72" y="1.55" width="9.03" height="4.85"/>
    <rect class="cls-4" x="572.2" y="0.61" width="8.61" height="5.79"/>
    <rect class="cls-10" x="580.81" y="0.61" width="8.92" height="5.79"/>
    <polygon class="cls-11" points="519.25 20.89 510.22 20.89 503.49 20.89 503.49 51.88 519.25 51.88 519.25 25.43 519.25 20.89"/>
    <polygon class="cls-7" points="534.48 37.38 534.48 20.89 527.75 20.89 519.25 20.89 519.25 25.43 519.25 51.88 534.48 51.88 534.48 37.4 534.48 37.38"/>
    <polygon class="cls-11" points="534.48 99.38 519.25 99.38 519.25 82.89 503.49 82.89 503.49 99.38 503.49 99.39 534.48 99.39 534.48 99.38"/>
    <rect class="cls-7" x="519.25" y="82.89" width="15.23" height="16.49"/>
    <polygon class="cls-13" points="519.25 51.88 503.49 51.88 503.49 68.39 503.49 82.88 519.25 82.88 519.25 51.88"/>
    <polygon class="cls-14" points="519.25 82.88 534.48 82.88 534.48 68.39 534.48 68.39 534.48 68.38 534.48 51.88 519.25 51.88 519.25 82.88"/>
    <polygon class="cls-12" points="565.47 37.38 565.47 6.41 565.47 6.4 565.47 6.39 565.47 6.39 565.47 37.38 565.47 37.38"/>
    <polygon class="cls-12" points="549.72 37.38 549.72 11.88 549.72 6.39 541.21 6.39 534.48 6.39 534.48 20.89 534.48 37.38 549.72 37.38"/>
    <polygon class="cls-9" points="549.72 6.39 549.72 11.88 549.72 37.38 565.47 37.38 565.47 6.39 558.74 6.39 558.74 1.55 558.74 1.55 558.74 6.39 549.72 6.39"/>
    <polygon class="cls-12" points="565.47 68.39 565.47 68.39 565.47 99.39 565.47 99.39 565.47 99.38 565.47 99.38 565.47 68.39"/>
    <polygon class="cls-12" points="549.72 68.39 534.48 68.39 534.48 82.88 534.48 82.89 534.48 99.38 534.48 99.39 549.72 99.39 549.72 68.39"/>
    <rect class="cls-9" x="549.72" y="68.39" width="15.76" height="30.99"/>
    <polygon class="cls-3" points="596.46 37.39 596.47 37.39 596.47 6.41 596.47 6.4 596.46 6.4 596.46 37.39"/>
    <polygon class="cls-3" points="565.47 37.38 565.47 37.39 580.81 37.39 580.81 10.95 580.81 6.4 572.21 6.4 565.47 6.4 565.47 6.41 565.47 37.38"/>
    <polygon class="cls-4" points="580.81 6.4 580.81 10.95 580.81 37.39 596.46 37.39 596.46 6.4 589.74 6.4 589.74 0.61 589.73 0.61 589.73 6.4 580.81 6.4"/>
  </g>
</svg>
