<?xml version="1.0" encoding="utf-8"?>
<!-- Generator: Adobe Illustrator 23.0.6, SVG Export Plug-In . SVG Version: 6.00 Build 0)  -->
<svg version="1.1" xmlns="http://www.w3.org/2000/svg" xmlns:xlink="http://www.w3.org/1999/xlink" x="0px" y="0px"
	 viewBox="0 0 713.97 100" style="enable-background:new 0 0 713.97 100;" xml:space="preserve">
<style type="text/css">
	.st0{fill:#00ABD3;}
	.st1{fill:none;stroke:#FFFFFF;stroke-miterlimit:10;}
	.st2{fill:none;stroke:#B0E1F1;stroke-miterlimit:10;}
	.st3{opacity:0.61;}
	.st4{fill:#FFFFFF;}
	.st5{opacity:0.6;}
	.st6{opacity:0.72;}
	.st7{fill:#CCCACA;}
	.st8{fill:#DB4690;}
	.st9{fill:#DDD5CC;}
	.st10{fill:#EFE6D9;}
	.st11{fill:#E5DCCF;}
	.st12{fill:#F1BDD7;}
</style>
<g id="Capa_1">
	<g>
		<ellipse class="st0" cx="49.88" cy="49.99" rx="35.21" ry="33.87"/>
		
			<image style="overflow:visible;" width="227" height="91" xlink:href="98B3761F1A5EF4AB.png"  transform="matrix(0.2411 0 0 0.2411 22.2631 61.2285)">
		</image>
		<path class="st1" d="M62.51,20.72"/>
		<g>
			<g>
				<path class="st2" d="M51.14,16.24"/>
			</g>
		</g>
		<g class="st3">
			
				<image style="overflow:visible;opacity:0.2;" width="193" height="192" xlink:href="98B3761F1A5EF4A9.png"  transform="matrix(1 0 0 1 -47 -45)">
			</image>
			<g>
				
					<image style="overflow:visible;" width="294" height="294" xlink:href="98B3761F1A5EF4AF.png"  transform="matrix(0.2435 0 0 0.2429 13.7562 15.2164)">
				</image>
			</g>
		</g>
		<circle class="st4" cx="46.51" cy="22.6" r="0.3"/>
		<g class="st5">
			<g class="st6">
				<path class="st4" d="M72.29,25.96c1.45,1.43,2.66,3.1,3.73,4.85c0.54,0.88,1.02,1.79,1.47,2.71c0.22,0.47,0.43,0.94,0.65,1.41
					l0.57,1.44l0.14,0.36l0.12,0.37l0.24,0.74l0.24,0.74c0.08,0.25,0.13,0.5,0.2,0.75c0.13,0.5,0.26,1,0.38,1.51l0.29,1.53
					c0.05,0.26,0.1,0.51,0.14,0.77l0.09,0.78l0.17,1.55l0.06,1.56l0.03,0.78c0.01,0.26-0.01,0.52-0.02,0.78l-0.07,1.56
					c0,0.26-0.05,0.52-0.07,0.78l-0.09,0.78c-0.1,1.04-0.31,2.06-0.5,3.08c-0.1,0.51-0.24,1.01-0.36,1.51l-0.19,0.75
					c-0.06,0.25-0.15,0.49-0.22,0.74l-0.46,1.48l-0.53,1.45c-0.74,1.92-1.6,3.79-2.6,5.57c-0.26,0.44-0.51,0.89-0.77,1.32
					c-0.28,0.43-0.53,0.87-0.83,1.29c-0.57,0.85-1.16,1.68-1.82,2.45c1.76-3.65,3.21-7.4,4.32-11.21c0.57-1.9,0.98-3.84,1.33-5.77
					c0.13-0.97,0.32-1.94,0.38-2.92c0.04-0.49,0.11-0.97,0.13-1.46l0.05-1.46c0.01-0.24,0.03-0.49,0.02-0.73l-0.02-0.73l-0.04-1.47
					l-0.12-1.46l-0.06-0.73l-0.1-0.73l-0.2-1.46l-0.28-1.44c-0.05-0.24-0.09-0.48-0.15-0.72l-0.18-0.72l-0.17-0.72l-0.09-0.36
					L77,36.93l-0.42-1.42l-0.48-1.41c-0.34-0.93-0.69-1.86-1.09-2.78c-0.38-0.92-0.82-1.82-1.26-2.72c-0.23-0.44-0.46-0.9-0.71-1.33
					C72.81,26.83,72.55,26.4,72.29,25.96z"/>
			</g>
			<path class="st4" d="M69.37,27.29l-0.22-0.13l0.2-0.05c0.1-0.03,0.16-0.13,0.14-0.24c-0.03-0.1-0.13-0.16-0.24-0.14l-0.57,0.15
				l-0.24-0.14l0.49-0.13c0.1-0.03,0.16-0.13,0.14-0.24c-0.03-0.1-0.13-0.16-0.24-0.14l-0.86,0.23l-0.52-0.3l0.52-0.3l0.86,0.23
				c0.1,0.03,0.21-0.03,0.24-0.14c0.03-0.1-0.03-0.21-0.14-0.24l-0.49-0.13l0.24-0.14l0.57,0.15c0.1,0.03,0.21-0.03,0.24-0.14
				c0.03-0.1-0.03-0.21-0.14-0.24l-0.2-0.05l0.22-0.13c0.09-0.05,0.12-0.17,0.07-0.26c-0.05-0.09-0.17-0.12-0.26-0.07l-0.22,0.13
				l0.05-0.2c0.03-0.1-0.03-0.21-0.14-0.24c-0.1-0.03-0.21,0.03-0.24,0.14l-0.15,0.57l-0.24,0.14l0.13-0.49
				c0.03-0.1-0.03-0.21-0.14-0.24c-0.1-0.03-0.21,0.03-0.24,0.14l-0.23,0.86l-0.52,0.3v-0.6l0.63-0.63c0.08-0.08,0.08-0.2,0-0.27
				c-0.08-0.08-0.2-0.08-0.27,0l-0.36,0.36v-0.28l0.42-0.42c0.08-0.08,0.08-0.2,0-0.27c-0.08-0.08-0.2-0.08-0.27,0l-0.14,0.14v-0.25
				c0-0.11-0.09-0.19-0.19-0.19c-0.11,0-0.19,0.09-0.19,0.19v0.25l-0.14-0.14c-0.08-0.08-0.2-0.08-0.27,0
				c-0.08,0.08-0.08,0.2,0,0.27l0.42,0.42v0.28l-0.36-0.36c-0.08-0.08-0.2-0.08-0.27,0c-0.08,0.08-0.08,0.2,0,0.27l0.63,0.63v0.6
				l-0.52-0.3l-0.23-0.86c-0.03-0.1-0.13-0.16-0.24-0.14c-0.1,0.03-0.16,0.13-0.14,0.24l0.13,0.49l-0.24-0.14l-0.15-0.57
				c-0.03-0.1-0.13-0.16-0.24-0.14c-0.1,0.03-0.16,0.13-0.14,0.24l0.05,0.2l-0.22-0.13c-0.09-0.05-0.21-0.02-0.26,0.07
				c-0.05,0.09-0.02,0.21,0.07,0.26l0.22,0.13l-0.2,0.05c-0.1,0.03-0.16,0.13-0.14,0.24c0.03,0.1,0.13,0.16,0.24,0.14l0.57-0.15
				l0.24,0.14l-0.49,0.13c-0.1,0.03-0.16,0.13-0.14,0.24c0.03,0.1,0.13,0.16,0.24,0.14l0.86-0.23l0.52,0.3l-0.52,0.3l-0.86-0.23
				c-0.1-0.03-0.21,0.03-0.24,0.14c-0.03,0.1,0.03,0.21,0.14,0.24l0.49,0.13l-0.24,0.14l-0.57-0.15c-0.1-0.03-0.21,0.03-0.24,0.14
				c-0.03,0.1,0.03,0.21,0.14,0.24l0.2,0.05l-0.22,0.13c-0.09,0.05-0.12,0.17-0.07,0.26c0.05,0.09,0.17,0.12,0.26,0.07l0.22-0.13
				l-0.05,0.2c-0.03,0.1,0.03,0.21,0.14,0.24c0.1,0.03,0.21-0.03,0.24-0.14l0.15-0.57l0.24-0.14l-0.13,0.49
				c-0.03,0.1,0.03,0.21,0.14,0.24c0.1,0.03,0.21-0.03,0.24-0.14l0.23-0.86l0.52-0.3v0.6l-0.63,0.63c-0.08,0.08-0.08,0.2,0,0.27
				c0.08,0.08,0.2,0.08,0.27,0l0.36-0.36v0.28l-0.42,0.42c-0.08,0.08-0.08,0.2,0,0.27c0.08,0.08,0.2,0.08,0.27,0l0.14-0.14v0.25
				c0,0.11,0.09,0.19,0.19,0.19c0.11,0,0.19-0.09,0.19-0.19v-0.25l0.14,0.14c0.08,0.08,0.2,0.08,0.27,0c0.08-0.08,0.08-0.2,0-0.27
				l-0.42-0.42v-0.28l0.36,0.36c0.08,0.08,0.2,0.08,0.27,0c0.08-0.08,0.08-0.2,0-0.27l-0.63-0.63v-0.6l0.52,0.3L68,27.67
				c0.03,0.1,0.13,0.16,0.24,0.14c0.1-0.03,0.16-0.13,0.14-0.24l-0.13-0.49l0.24,0.14l0.15,0.57c0.03,0.1,0.13,0.16,0.24,0.14
				c0.1-0.03,0.16-0.13,0.14-0.24l-0.05-0.2l0.22,0.13c0.09,0.05,0.21,0.02,0.26-0.07C69.49,27.46,69.46,27.34,69.37,27.29z"/>
			<circle class="st4" cx="53.79" cy="23.8" r="1.18"/>
			<circle class="st4" cx="25.18" cy="41.87" r="0.3"/>
			<circle class="st4" cx="41.24" cy="46.91" r="0.3"/>
			<circle class="st4" cx="48.29" cy="48.35" r="0.69"/>
			<circle class="st4" cx="27.42" cy="52.71" r="0.69"/>
			<circle class="st4" cx="46.61" cy="17.77" r="0.62"/>
			<circle class="st4" cx="39.04" cy="24.65" r="0.62"/>
			<circle class="st4" cx="43.07" cy="34.3" r="0.3"/>
			<circle class="st4" cx="29.77" cy="56.78" r="0.3"/>
			<circle class="st4" cx="22.89" cy="48.52" r="0.3"/>
			<circle class="st4" cx="28.39" cy="32.23" r="0.3"/>
			<circle class="st4" cx="27.93" cy="25.35" r="0.3"/>
			<circle class="st4" cx="60.5" cy="22.14" r="0.3"/>
			<circle class="st4" cx="18.01" cy="51.79" r="0.69"/>
			<circle class="st7" cx="48.08" cy="56" r="1.09"/>
			<circle class="st7" cx="36.89" cy="35.63" r="0.67"/>
			<circle class="st7" cx="32.84" cy="24.93" r="0.53"/>
			<circle class="st7" cx="52.57" cy="35.94" r="0.53"/>
			<circle class="st7" cx="34.68" cy="52.91" r="0.53"/>
			<circle class="st7" cx="17.56" cy="50.48" r="0.61"/>
		</g>
		<polygon class="st8" points="7.26,57.43 52.92,59.77 88,61.5 87.9,83.06 8.18,85.3 		"/>
		<g>
			<path class="st4" d="M21.25,76.02c-0.55-3.02-1.19-6.18-1.94-9.47l1.96-0.2l1.15,7.36c0.59-2.58,1.07-4.91,1.44-6.99l1.86,0.23
				c-0.94,4.06-1.64,7.06-2.1,9L21.25,76.02z"/>
			<path class="st4" d="M28.06,69.41c1.55,0,2.33,1.03,2.33,3.1c0,0.25-0.01,0.52-0.03,0.81h-3c0,1.15,0.22,1.73,0.67,1.73h0.05
				c0.39-0.03,0.58-0.33,0.58-0.89c0-0.12-0.01-0.26-0.03-0.4l1.6-0.03c0,1.71-0.75,2.57-2.24,2.59c-0.02,0-0.03,0.01-0.05,0.01
				c-1.42,0-2.13-1.08-2.13-3.23v-0.2C25.86,70.57,26.61,69.41,28.06,69.41z M27.2,72.08h1.52v-0.16c0-0.82-0.23-1.22-0.69-1.22
				C27.53,70.7,27.25,71.16,27.2,72.08z"/>
			<path class="st4" d="M32.69,71.5l0.07,4.87l-1.65,0.01c0-2.06-0.07-4.37-0.21-6.94l1.24-0.13l0.07,1.1
				c0.19-0.54,0.63-0.84,1.32-0.92c0.1-0.01,0.2-0.01,0.3-0.01c0.54,0,0.95,0.18,1.24,0.53c0.33,0.42,0.49,1.09,0.5,2.01l-1.49,0.15
				c0-0.08,0.01-0.15,0.01-0.22c0-0.72-0.19-1.08-0.56-1.08h-0.03C33.05,70.88,32.79,71.09,32.69,71.5z"/>
			<path class="st4" d="M39.59,69.27l0.03,1.08c0.24-0.52,0.52-0.84,0.84-0.96c0.19-0.07,0.38-0.11,0.57-0.11
				c0.14,0,0.29,0.02,0.43,0.05c0.35,0.09,0.6,0.45,0.75,1.08c0.12-0.49,0.32-0.81,0.6-0.98c0.29-0.16,0.6-0.25,0.95-0.25h0.03
				c0.34,0,0.67,0.08,0.98,0.25c0.32,0.17,0.56,0.49,0.73,0.96c0.17,0.47,0.26,1.11,0.27,1.93v3.9l-1.45,0.03
				c0.06-1.47,0.09-2.73,0.09-3.76s-0.2-1.59-0.59-1.67c-0.06-0.01-0.11-0.01-0.17-0.01c-0.31,0-0.56,0.2-0.73,0.6
				c-0.03,0.47-0.04,1.01-0.04,1.63c0,0.85,0.02,1.83,0.07,2.96l-1.68,0.01c0.06-1.73,0.09-3,0.09-3.79v-0.08
				c0-0.78-0.16-1.2-0.46-1.24h-0.09c-0.27,0-0.54,0.16-0.79,0.47l0.01,4.92l-1.59,0.06v-1.1c0-1.95-0.03-3.9-0.09-5.85L39.59,69.27
				z"/>
			<path class="st4" d="M48.05,67.87c0,0.27-0.1,0.51-0.29,0.7c-0.19,0.19-0.43,0.29-0.7,0.29c-0.27,0-0.5-0.1-0.69-0.29
				s-0.29-0.43-0.29-0.7c0-0.27,0.1-0.5,0.29-0.69s0.42-0.29,0.69-0.29c0.27,0,0.51,0.1,0.7,0.29
				C47.95,67.37,48.05,67.6,48.05,67.87z M46.25,76.35c-0.03-2.62-0.05-4.88-0.05-6.79l1.69-0.1c-0.05,1.83-0.08,3.64-0.08,5.45
				c0,0.48,0,0.97,0.01,1.44H46.25z"/>
			<path class="st4" d="M53.67,73.55l1.6,0.1c0,1.62-0.75,2.44-2.24,2.46c-0.02,0-0.03,0.01-0.05,0.01c-1.42,0-2.13-1.08-2.13-3.23
				v-0.2c0.04-2.31,0.8-3.48,2.27-3.5h0.05c1.35,0,2.03,0.77,2.03,2.32c0,0.09,0,0.18-0.01,0.27l-1.44,0.11v-0.16
				c0-0.82-0.23-1.22-0.69-1.22c-0.47,0-0.71,0.66-0.71,1.98v0.22c0.03,1.43,0.26,2.14,0.71,2.14h0.04
				c0.39-0.03,0.58-0.33,0.58-0.89C53.7,73.83,53.69,73.69,53.67,73.55z"/>
			<path class="st4" d="M58.43,69.22c1.47,0.08,2.21,0.82,2.21,2.22v4.77l-1.57,0.03l-0.05-0.64c-0.32,0.37-0.75,0.55-1.28,0.55
				c-0.23,0-0.47-0.04-0.74-0.11c-0.79-0.2-1.19-0.81-1.19-1.84c0-0.13,0.01-0.26,0.02-0.4c0.09-1.06,0.84-1.59,2.26-1.59
				c0.27,0,0.57,0.02,0.9,0.06v-0.78c0-0.63-0.2-0.95-0.6-0.95h-0.03c-0.03,0-0.06-0.01-0.09-0.01c-0.43,0-0.65,0.35-0.65,1.06v0.1
				l-1.6-0.13c0-1.56,0.75-2.35,2.26-2.35H58.43z M58.99,74.53v-1.18c-0.19-0.04-0.37-0.06-0.52-0.06c-0.41,0-0.69,0.14-0.83,0.41
				c-0.09,0.17-0.13,0.32-0.13,0.46c0,0.18,0.07,0.34,0.22,0.48c0.11,0.11,0.26,0.16,0.44,0.16C58.38,74.8,58.66,74.71,58.99,74.53z
				"/>
			<path class="st4" d="M62.96,71.5l0.07,4.87l-1.65,0.01c0-2.06-0.07-4.37-0.21-6.94l1.24-0.13l0.07,1.1
				c0.19-0.54,0.63-0.84,1.32-0.92c0.1-0.01,0.2-0.01,0.3-0.01c0.54,0,0.95,0.18,1.24,0.53c0.33,0.42,0.49,1.09,0.5,2.01l-1.49,0.15
				c0-0.08,0.01-0.15,0.01-0.22c0-0.72-0.19-1.08-0.56-1.08h-0.03C63.33,70.88,63.06,71.09,62.96,71.5z"/>
			<path class="st4" d="M67.4,67.27l1.53-0.1v2.22l1.28-0.03l0.02,1.27l-1.3,0.06v3.06c0,0.71,0.3,1.07,0.91,1.07
				c0.13,0,0.26-0.02,0.41-0.05l-0.06,1.48c-0.22,0.03-0.42,0.04-0.61,0.04c-1.42,0-2.14-0.73-2.16-2.19v-3.29l-1.1,0.07l-0.03-1.5
				l1.13,0.01L67.4,67.27z"/>
			<path class="st4" d="M73.39,69.22c1.47,0.08,2.21,0.82,2.21,2.22v4.77l-1.57,0.03l-0.05-0.64c-0.32,0.37-0.75,0.55-1.28,0.55
				c-0.23,0-0.47-0.04-0.74-0.11c-0.79-0.2-1.19-0.81-1.19-1.84c0-0.13,0.01-0.26,0.02-0.4c0.09-1.06,0.84-1.59,2.26-1.59
				c0.27,0,0.57,0.02,0.9,0.06v-0.78c0-0.63-0.2-0.95-0.6-0.95h-0.03c-0.03,0-0.06-0.01-0.09-0.01c-0.43,0-0.65,0.35-0.65,1.06v0.1
				l-1.6-0.13c0-1.56,0.75-2.35,2.26-2.35H73.39z M73.95,74.53v-1.18c-0.19-0.04-0.37-0.06-0.52-0.06c-0.41,0-0.69,0.14-0.83,0.41
				c-0.09,0.17-0.13,0.32-0.13,0.46c0,0.18,0.07,0.34,0.22,0.48c0.11,0.11,0.26,0.16,0.44,0.16C73.34,74.8,73.62,74.71,73.95,74.53z
				"/>
		</g>
		<g>
			<g>
				<path class="st9" d="M98.53,51.09c-0.07-0.02-0.14-0.06-0.19-0.11l-3.6-3.52c-0.18-0.18-0.18-0.47-0.01-0.65
					c0.18-0.18,0.47-0.18,0.65-0.01l3.6,3.52c0.18,0.18,0.18,0.47,0.01,0.65C98.86,51.09,98.69,51.13,98.53,51.09z"/>
			</g>
			<g>
				<path class="st9" d="M51.14,49.27c-0.15,0.04-0.31,0-0.43-0.11c-0.19-0.17-0.2-0.46-0.02-0.65l3.43-3.68
					c0.17-0.19,0.46-0.2,0.65-0.02c0.19,0.17,0.2,0.46,0.02,0.65l-3.43,3.68C51.29,49.21,51.22,49.25,51.14,49.27z"/>
			</g>
			<g>
				<g>
					<path class="st9" d="M71.1,64.45l-1.84-0.28c-0.25-0.04-0.42-0.27-0.38-0.52c0.04-0.25,0.28-0.42,0.52-0.38l0.93,0.14
						l0.51-3.34l2.21,0.03c0.25,0,0.46,0.21,0.45,0.46c0,0.25-0.21,0.45-0.46,0.45c0,0,0,0-0.01,0l-1.41-0.02L71.1,64.45z"/>
				</g>
			</g>
			<g>
				<g>
					<path class="st9" d="M75.65,64.52l-1.84-0.29c-0.25-0.04-0.42-0.27-0.38-0.52c0.04-0.25,0.27-0.42,0.52-0.38l0.93,0.14
						l0.51-3.34l2.21,0.03c0.25,0,0.46,0.21,0.45,0.46c0,0.25-0.21,0.45-0.46,0.45c0,0,0,0-0.01,0l-1.41-0.02L75.65,64.52z"/>
				</g>
			</g>
		</g>
		<g>
			<g>
				
					<rect x="54.39" y="34.35" transform="matrix(0.9983 0.0591 -0.0591 0.9983 2.9616 -4.3339)" class="st10" width="40.82" height="27.19"/>
				<polygon class="st11" points="94.38,62.69 53.63,60.28 74.75,46.29 				"/>
				<polygon class="st9" points="55.17,33.11 95.92,35.52 74.76,49.84 				"/>
				<g>
					<g>
						<path d="M68.85,48.81c-0.19,3.21,2.24,5.97,5.45,6.16c3.21,0.19,6-2.26,6.19-5.48L68.85,48.81z"/>
						<path class="st12" d="M78.09,53.87c0,0-0.84-2.51-3.53-2.85c-2.69-0.34-4.36,1.88-4.36,1.88s2.73,3.66,7.21,1.4
							C77.63,54.19,77.87,54.02,78.09,53.87z"/>
					</g>
				</g>
			</g>
			<circle cx="72.25" cy="43.86" r="0.7"/>
			<circle cx="77.79" cy="44.11" r="0.7"/>
		</g>
	</g>
</g>
<g id="Capa_2">
	<g>
		<ellipse class="st0" cx="151.83" cy="49.99" rx="35.21" ry="33.87"/>
		
			<image style="overflow:visible;" width="227" height="91" xlink:href="98B3761F1A5EF4A8.png"  transform="matrix(0.2411 0 0 0.2411 124.211 61.2285)">
		</image>
		<path class="st1" d="M164.46,20.72"/>
		<g>
			<g>
				<path class="st2" d="M153.09,16.24"/>
			</g>
		</g>
		<g class="st3">
			
				<image style="overflow:visible;opacity:0.2;" width="193" height="192" xlink:href="98B3761F1A5EF4A6.png"  transform="matrix(1 0 0 1 55 -45)">
			</image>
			<g>
				
					<image style="overflow:visible;" width="294" height="294" xlink:href="98B3761F1A5EF4A7.png"  transform="matrix(0.2435 0 0 0.2429 115.7041 15.2164)">
				</image>
			</g>
		</g>
		<circle class="st4" cx="148.46" cy="22.6" r="0.3"/>
		<g class="st5">
			<g class="st6">
				<path class="st4" d="M174.23,25.96c1.45,1.43,2.66,3.1,3.73,4.85c0.54,0.88,1.02,1.79,1.47,2.71c0.22,0.47,0.43,0.94,0.65,1.41
					l0.57,1.44l0.14,0.36l0.12,0.37l0.24,0.74l0.24,0.74c0.08,0.25,0.13,0.5,0.2,0.75c0.13,0.5,0.26,1,0.38,1.51l0.29,1.53
					c0.05,0.26,0.1,0.51,0.14,0.77l0.09,0.78l0.17,1.55l0.06,1.56l0.03,0.78c0.01,0.26-0.01,0.52-0.02,0.78l-0.07,1.56
					c0,0.26-0.05,0.52-0.07,0.78l-0.09,0.78c-0.1,1.04-0.31,2.06-0.5,3.08c-0.1,0.51-0.24,1.01-0.36,1.51l-0.19,0.75
					c-0.06,0.25-0.15,0.49-0.22,0.74l-0.46,1.48l-0.53,1.45c-0.74,1.92-1.6,3.79-2.6,5.57c-0.26,0.44-0.51,0.89-0.77,1.32
					c-0.28,0.43-0.53,0.87-0.83,1.29c-0.57,0.85-1.16,1.68-1.82,2.45c1.76-3.65,3.21-7.4,4.32-11.21c0.57-1.9,0.98-3.84,1.33-5.77
					c0.13-0.97,0.32-1.94,0.38-2.92c0.04-0.49,0.11-0.97,0.13-1.46l0.05-1.46c0.01-0.24,0.03-0.49,0.02-0.73l-0.02-0.73l-0.04-1.47
					l-0.12-1.46l-0.06-0.73l-0.1-0.73l-0.2-1.46l-0.28-1.44c-0.05-0.24-0.09-0.48-0.15-0.72l-0.18-0.72l-0.17-0.72l-0.09-0.36
					l-0.11-0.35l-0.42-1.42l-0.48-1.41c-0.34-0.93-0.69-1.86-1.09-2.78c-0.38-0.92-0.82-1.82-1.26-2.72
					c-0.23-0.44-0.46-0.9-0.71-1.33C174.76,26.83,174.5,26.4,174.23,25.96z"/>
			</g>
			<path class="st4" d="M171.31,27.29l-0.22-0.13l0.2-0.05c0.1-0.03,0.16-0.13,0.14-0.24c-0.03-0.1-0.13-0.16-0.24-0.14l-0.57,0.15
				l-0.24-0.14l0.49-0.13c0.1-0.03,0.16-0.13,0.14-0.24c-0.03-0.1-0.13-0.16-0.24-0.14l-0.86,0.23l-0.52-0.3l0.52-0.3l0.86,0.23
				c0.1,0.03,0.21-0.03,0.24-0.14c0.03-0.1-0.03-0.21-0.14-0.24l-0.49-0.13l0.24-0.14l0.57,0.15c0.1,0.03,0.21-0.03,0.24-0.14
				c0.03-0.1-0.03-0.21-0.14-0.24l-0.2-0.05l0.22-0.13c0.09-0.05,0.12-0.17,0.07-0.26c-0.05-0.09-0.17-0.12-0.26-0.07l-0.22,0.13
				l0.05-0.2c0.03-0.1-0.03-0.21-0.14-0.24c-0.1-0.03-0.21,0.03-0.24,0.14l-0.15,0.57l-0.24,0.14l0.13-0.49
				c0.03-0.1-0.03-0.21-0.14-0.24c-0.1-0.03-0.21,0.03-0.24,0.14l-0.23,0.86l-0.52,0.3v-0.6l0.63-0.63c0.08-0.08,0.08-0.2,0-0.27
				c-0.08-0.08-0.2-0.08-0.27,0l-0.36,0.36v-0.28l0.42-0.42c0.08-0.08,0.08-0.2,0-0.27c-0.08-0.08-0.2-0.08-0.27,0l-0.14,0.14v-0.25
				c0-0.11-0.09-0.19-0.19-0.19c-0.11,0-0.19,0.09-0.19,0.19v0.25l-0.14-0.14c-0.08-0.08-0.2-0.08-0.27,0s-0.08,0.2,0,0.27
				l0.42,0.42v0.28l-0.36-0.36c-0.08-0.08-0.2-0.08-0.27,0c-0.08,0.08-0.08,0.2,0,0.27l0.63,0.63v0.6l-0.52-0.3l-0.23-0.86
				c-0.03-0.1-0.13-0.16-0.24-0.14c-0.1,0.03-0.16,0.13-0.14,0.24l0.13,0.49l-0.24-0.14l-0.15-0.57c-0.03-0.1-0.13-0.16-0.24-0.14
				c-0.1,0.03-0.16,0.13-0.14,0.24l0.05,0.2l-0.22-0.13c-0.09-0.05-0.21-0.02-0.26,0.07c-0.05,0.09-0.02,0.21,0.07,0.26l0.22,0.13
				l-0.2,0.05c-0.1,0.03-0.16,0.13-0.14,0.24c0.03,0.1,0.13,0.16,0.24,0.14l0.57-0.15l0.24,0.14l-0.49,0.13
				c-0.1,0.03-0.16,0.13-0.14,0.24c0.03,0.1,0.13,0.16,0.24,0.14l0.86-0.23l0.52,0.3l-0.52,0.3l-0.86-0.23
				c-0.1-0.03-0.21,0.03-0.24,0.14c-0.03,0.1,0.03,0.21,0.14,0.24l0.49,0.13l-0.24,0.14l-0.57-0.15c-0.1-0.03-0.21,0.03-0.24,0.14
				c-0.03,0.1,0.03,0.21,0.14,0.24l0.2,0.05l-0.22,0.13c-0.09,0.05-0.12,0.17-0.07,0.26c0.05,0.09,0.17,0.12,0.26,0.07l0.22-0.13
				l-0.05,0.2c-0.03,0.1,0.03,0.21,0.14,0.24c0.1,0.03,0.21-0.03,0.24-0.14l0.15-0.57l0.24-0.14l-0.13,0.49
				c-0.03,0.1,0.03,0.21,0.14,0.24c0.1,0.03,0.21-0.03,0.24-0.14l0.23-0.86l0.52-0.3v0.6l-0.63,0.63c-0.08,0.08-0.08,0.2,0,0.27
				c0.08,0.08,0.2,0.08,0.27,0l0.36-0.36v0.28l-0.42,0.42c-0.08,0.08-0.08,0.2,0,0.27s0.2,0.08,0.27,0l0.14-0.14v0.25
				c0,0.11,0.09,0.19,0.19,0.19c0.11,0,0.19-0.09,0.19-0.19v-0.25l0.14,0.14c0.08,0.08,0.2,0.08,0.27,0c0.08-0.08,0.08-0.2,0-0.27
				l-0.42-0.42v-0.28l0.36,0.36c0.08,0.08,0.2,0.08,0.27,0c0.08-0.08,0.08-0.2,0-0.27l-0.63-0.63v-0.6l0.52,0.3l0.23,0.86
				c0.03,0.1,0.13,0.16,0.24,0.14c0.1-0.03,0.16-0.13,0.14-0.24l-0.13-0.49l0.24,0.14l0.15,0.57c0.03,0.1,0.13,0.16,0.24,0.14
				c0.1-0.03,0.16-0.13,0.14-0.24l-0.05-0.2l0.22,0.13c0.09,0.05,0.21,0.02,0.26-0.07C171.44,27.46,171.41,27.34,171.31,27.29z"/>
			<circle class="st4" cx="155.74" cy="23.8" r="1.18"/>
			<circle class="st4" cx="127.13" cy="41.87" r="0.3"/>
			<circle class="st4" cx="143.18" cy="46.91" r="0.3"/>
			<circle class="st4" cx="150.23" cy="48.35" r="0.69"/>
			<circle class="st4" cx="129.36" cy="52.71" r="0.69"/>
			<circle class="st4" cx="148.56" cy="17.77" r="0.62"/>
			<circle class="st4" cx="140.99" cy="24.65" r="0.62"/>
			<circle class="st4" cx="145.02" cy="34.3" r="0.3"/>
			<circle class="st4" cx="131.72" cy="56.78" r="0.3"/>
			<circle class="st4" cx="124.84" cy="48.52" r="0.3"/>
			<circle class="st4" cx="130.34" cy="32.23" r="0.3"/>
			<circle class="st4" cx="129.88" cy="25.35" r="0.3"/>
			<circle class="st4" cx="162.45" cy="22.14" r="0.3"/>
			<circle class="st4" cx="119.96" cy="51.79" r="0.69"/>
			<circle class="st7" cx="150.03" cy="56" r="1.09"/>
			<circle class="st7" cx="138.84" cy="35.63" r="0.67"/>
			<circle class="st7" cx="134.79" cy="24.93" r="0.53"/>
			<circle class="st7" cx="154.52" cy="35.94" r="0.53"/>
			<circle class="st7" cx="136.63" cy="52.91" r="0.53"/>
			<circle class="st7" cx="119.51" cy="50.48" r="0.61"/>
		</g>
		<polygon class="st8" points="109.21,57.43 154.87,59.77 189.95,61.5 189.85,83.06 110.12,85.3 		"/>
		<g>
			<path class="st4" d="M123.2,76.02c-0.55-3.02-1.19-6.18-1.94-9.47l1.96-0.2l1.15,7.36c0.59-2.58,1.07-4.91,1.44-6.99l1.86,0.23
				c-0.94,4.06-1.64,7.06-2.1,9L123.2,76.02z"/>
			<path class="st4" d="M130.01,69.41c1.55,0,2.33,1.03,2.33,3.1c0,0.25-0.01,0.52-0.03,0.81h-3c0,1.15,0.22,1.73,0.67,1.73h0.05
				c0.39-0.03,0.58-0.33,0.58-0.89c0-0.12-0.01-0.26-0.03-0.4l1.6-0.03c0,1.71-0.75,2.57-2.24,2.59c-0.02,0-0.03,0.01-0.05,0.01
				c-1.42,0-2.13-1.08-2.13-3.23v-0.2C127.81,70.57,128.56,69.41,130.01,69.41z M129.14,72.08h1.52v-0.16
				c0-0.82-0.23-1.22-0.69-1.22C129.47,70.7,129.2,71.16,129.14,72.08z"/>
			<path class="st4" d="M134.63,71.5l0.07,4.87l-1.65,0.01c0-2.06-0.07-4.37-0.21-6.94l1.24-0.13l0.07,1.1
				c0.19-0.54,0.63-0.84,1.32-0.92c0.1-0.01,0.2-0.01,0.3-0.01c0.54,0,0.95,0.18,1.24,0.53c0.33,0.42,0.49,1.09,0.5,2.01l-1.49,0.15
				c0-0.08,0.01-0.15,0.01-0.22c0-0.72-0.19-1.08-0.56-1.08h-0.03C135,70.88,134.73,71.09,134.63,71.5z"/>
			<path class="st4" d="M141.54,69.27l0.03,1.08c0.24-0.52,0.52-0.84,0.84-0.96c0.19-0.07,0.38-0.11,0.57-0.11
				c0.14,0,0.29,0.02,0.43,0.05c0.35,0.09,0.6,0.45,0.75,1.08c0.12-0.49,0.32-0.81,0.6-0.98c0.29-0.16,0.6-0.25,0.95-0.25h0.03
				c0.34,0,0.67,0.08,0.98,0.25c0.32,0.17,0.56,0.49,0.73,0.96c0.17,0.47,0.26,1.11,0.27,1.93v3.9l-1.45,0.03
				c0.06-1.47,0.09-2.73,0.09-3.76s-0.2-1.59-0.59-1.67c-0.06-0.01-0.11-0.01-0.17-0.01c-0.31,0-0.56,0.2-0.73,0.6
				c-0.03,0.47-0.04,1.01-0.04,1.63c0,0.85,0.02,1.83,0.07,2.96l-1.68,0.01c0.06-1.73,0.09-3,0.09-3.79v-0.08
				c0-0.78-0.16-1.2-0.46-1.24h-0.09c-0.27,0-0.54,0.16-0.79,0.47l0.01,4.92l-1.59,0.06v-1.1c0-1.95-0.03-3.9-0.09-5.85
				L141.54,69.27z"/>
			<path class="st4" d="M150,67.87c0,0.27-0.1,0.51-0.29,0.7c-0.19,0.19-0.43,0.29-0.7,0.29c-0.27,0-0.5-0.1-0.69-0.29
				c-0.19-0.19-0.29-0.43-0.29-0.7c0-0.27,0.1-0.5,0.29-0.69c0.19-0.19,0.42-0.29,0.69-0.29c0.27,0,0.51,0.1,0.7,0.29
				C149.9,67.37,150,67.6,150,67.87z M148.19,76.35c-0.03-2.62-0.05-4.88-0.05-6.79l1.69-0.1c-0.05,1.83-0.08,3.64-0.08,5.45
				c0,0.48,0,0.97,0.01,1.44H148.19z"/>
			<path class="st4" d="M155.62,73.55l1.6,0.1c0,1.62-0.75,2.44-2.24,2.46c-0.02,0-0.03,0.01-0.05,0.01c-1.42,0-2.13-1.08-2.13-3.23
				v-0.2c0.04-2.31,0.8-3.48,2.27-3.5h0.05c1.35,0,2.03,0.77,2.03,2.32c0,0.09,0,0.18-0.01,0.27l-1.44,0.11v-0.16
				c0-0.82-0.23-1.22-0.69-1.22c-0.47,0-0.71,0.66-0.71,1.98v0.22c0.03,1.43,0.26,2.14,0.71,2.14h0.04
				c0.39-0.03,0.58-0.33,0.58-0.89C155.65,73.83,155.64,73.69,155.62,73.55z"/>
			<path class="st4" d="M160.38,69.22c1.47,0.08,2.21,0.82,2.21,2.22v4.77l-1.57,0.03l-0.05-0.64c-0.32,0.37-0.75,0.55-1.28,0.55
				c-0.23,0-0.47-0.04-0.74-0.11c-0.79-0.2-1.19-0.81-1.19-1.84c0-0.13,0.01-0.26,0.02-0.4c0.09-1.06,0.84-1.59,2.26-1.59
				c0.27,0,0.57,0.02,0.9,0.06v-0.78c0-0.63-0.2-0.95-0.6-0.95h-0.03c-0.03,0-0.06-0.01-0.09-0.01c-0.43,0-0.65,0.35-0.65,1.06v0.1
				l-1.6-0.13c0-1.56,0.75-2.35,2.26-2.35H160.38z M160.94,74.53v-1.18c-0.19-0.04-0.37-0.06-0.52-0.06c-0.41,0-0.69,0.14-0.83,0.41
				c-0.09,0.17-0.13,0.32-0.13,0.46c0,0.18,0.07,0.34,0.22,0.48c0.11,0.11,0.26,0.16,0.44,0.16
				C160.33,74.8,160.61,74.71,160.94,74.53z"/>
			<path class="st4" d="M164.91,71.5l0.07,4.87l-1.65,0.01c0-2.06-0.07-4.37-0.21-6.94l1.24-0.13l0.07,1.1
				c0.19-0.54,0.63-0.84,1.32-0.92c0.1-0.01,0.2-0.01,0.3-0.01c0.54,0,0.95,0.18,1.24,0.53c0.33,0.42,0.49,1.09,0.5,2.01l-1.49,0.15
				c0-0.08,0.01-0.15,0.01-0.22c0-0.72-0.19-1.08-0.56-1.08h-0.03C165.27,70.88,165.01,71.09,164.91,71.5z"/>
			<path class="st4" d="M169.35,67.27l1.53-0.1v2.22l1.28-0.03l0.02,1.27l-1.3,0.06v3.06c0,0.71,0.3,1.07,0.91,1.07
				c0.13,0,0.26-0.02,0.41-0.05l-0.06,1.48c-0.22,0.03-0.42,0.04-0.61,0.04c-1.42,0-2.14-0.73-2.16-2.19v-3.29l-1.1,0.07l-0.03-1.5
				l1.13,0.01L169.35,67.27z"/>
			<path class="st4" d="M175.33,69.22c1.47,0.08,2.21,0.82,2.21,2.22v4.77l-1.57,0.03l-0.05-0.64c-0.32,0.37-0.75,0.55-1.28,0.55
				c-0.23,0-0.47-0.04-0.74-0.11c-0.79-0.2-1.19-0.81-1.19-1.84c0-0.13,0.01-0.26,0.02-0.4c0.09-1.06,0.84-1.59,2.26-1.59
				c0.27,0,0.57,0.02,0.9,0.06v-0.78c0-0.63-0.2-0.95-0.6-0.95h-0.03c-0.03,0-0.06-0.01-0.09-0.01c-0.43,0-0.65,0.35-0.65,1.06v0.1
				l-1.6-0.13c0-1.56,0.75-2.35,2.26-2.35H175.33z M175.9,74.53v-1.18c-0.19-0.04-0.37-0.06-0.52-0.06c-0.41,0-0.69,0.14-0.83,0.41
				c-0.09,0.17-0.13,0.32-0.13,0.46c0,0.18,0.07,0.34,0.22,0.48c0.11,0.11,0.26,0.16,0.44,0.16
				C175.29,74.8,175.57,74.71,175.9,74.53z"/>
		</g>
		<g>
			<g>
				<g>
					<path class="st9" d="M201.05,48.51c-0.07,0-0.15-0.02-0.22-0.05l-4.46-2.33c-0.22-0.12-0.31-0.39-0.19-0.62
						c0.12-0.22,0.39-0.31,0.62-0.19l4.46,2.33c0.22,0.12,0.31,0.39,0.19,0.62C201.37,48.42,201.21,48.51,201.05,48.51z"/>
				</g>
				<g>
					<path class="st9" d="M152.26,46.37c-0.15-0.03-0.28-0.13-0.34-0.28c-0.09-0.24,0.02-0.5,0.26-0.6l4.68-1.87
						c0.23-0.09,0.5,0.02,0.6,0.26c0.09,0.24-0.02,0.5-0.26,0.6l-4.68,1.87C152.43,46.38,152.34,46.39,152.26,46.37z"/>
				</g>
				<g>
					<g>
						<path class="st9" d="M173.05,62.45l-1.84-0.28c-0.25-0.04-0.42-0.27-0.38-0.52c0.04-0.25,0.28-0.42,0.52-0.38l0.93,0.14
							l0.51-3.34l2.21,0.03c0.25,0,0.46,0.21,0.45,0.46c0,0.25-0.21,0.45-0.46,0.45c0,0,0,0-0.01,0l-1.41-0.02L173.05,62.45z"/>
					</g>
				</g>
				<g>
					<g>
						<path class="st9" d="M177.6,62.52l-1.84-0.29c-0.25-0.04-0.42-0.27-0.38-0.52c0.04-0.25,0.27-0.42,0.52-0.38l0.93,0.14
							l0.51-3.34l2.21,0.03c0.25,0,0.46,0.21,0.45,0.46c0,0.25-0.21,0.45-0.46,0.45c0,0,0,0-0.01,0l-1.41-0.02L177.6,62.52z"/>
					</g>
				</g>
			</g>
			<g>
				<g>
					
						<rect x="156.34" y="32.35" transform="matrix(0.9983 0.0591 -0.0591 0.9983 3.0214 -10.3577)" class="st10" width="40.82" height="27.19"/>
					<polygon class="st11" points="196.33,60.69 155.58,58.28 176.7,44.29 					"/>
					<polygon class="st9" points="157.12,31.11 197.87,33.52 176.7,47.84 					"/>
					<g>
						<g>
							<path d="M170.8,46.81c-0.19,3.21,2.24,5.97,5.45,6.16c3.21,0.19,6-2.26,6.19-5.48L170.8,46.81z"/>
							<path class="st12" d="M180.04,51.87c0,0-0.84-2.51-3.53-2.85c-2.69-0.34-4.36,1.88-4.36,1.88s2.73,3.66,7.21,1.4
								C179.58,52.19,179.82,52.02,180.04,51.87z"/>
						</g>
					</g>
				</g>
				<circle cx="174.2" cy="41.86" r="0.7"/>
				<circle cx="179.74" cy="42.11" r="0.7"/>
			</g>
		</g>
	</g>
</g>
<g id="Capa_3">
	<g>
		<ellipse class="st0" cx="253.92" cy="49.98" rx="35.21" ry="33.87"/>
		
			<image style="overflow:visible;" width="227" height="91" xlink:href="98B3761F1A5EF4B7.png"  transform="matrix(0.2411 0 0 0.2411 226.3042 61.2231)">
		</image>
		<path class="st1" d="M266.55,20.72"/>
		<g>
			<g>
				<path class="st2" d="M255.18,16.24"/>
			</g>
		</g>
		<g class="st3">
			
				<image style="overflow:visible;opacity:0.2;" width="193" height="192" xlink:href="98B3761F1A5EF4B9.png"  transform="matrix(1 0 0 1 157 -45)">
			</image>
			<g>
				
					<image style="overflow:visible;" width="294" height="294" xlink:href="98B3761F1A5EF4BB.png"  transform="matrix(0.2435 0 0 0.2429 217.7973 15.211)">
				</image>
			</g>
		</g>
		<circle class="st4" cx="250.55" cy="22.6" r="0.3"/>
		<g class="st5">
			<g class="st6">
				<path class="st4" d="M276.33,25.96c1.45,1.43,2.66,3.1,3.73,4.85c0.54,0.88,1.02,1.79,1.47,2.71c0.22,0.47,0.43,0.94,0.65,1.41
					l0.57,1.44l0.14,0.36l0.12,0.37l0.24,0.74l0.24,0.74c0.08,0.25,0.13,0.5,0.2,0.75c0.13,0.5,0.26,1,0.38,1.51l0.29,1.53
					c0.05,0.26,0.1,0.51,0.14,0.77l0.09,0.78l0.17,1.55l0.06,1.56l0.03,0.78c0.01,0.26-0.01,0.52-0.02,0.78l-0.07,1.56
					c0,0.26-0.05,0.52-0.07,0.78l-0.09,0.78c-0.1,1.04-0.31,2.06-0.5,3.08c-0.1,0.51-0.24,1.01-0.36,1.51l-0.19,0.75
					c-0.06,0.25-0.15,0.49-0.22,0.74l-0.46,1.48l-0.53,1.45c-0.74,1.92-1.6,3.79-2.6,5.57c-0.26,0.44-0.51,0.89-0.77,1.32
					c-0.28,0.43-0.53,0.87-0.83,1.29c-0.57,0.85-1.16,1.68-1.82,2.45c1.76-3.65,3.21-7.4,4.32-11.21c0.57-1.9,0.98-3.84,1.33-5.77
					c0.13-0.97,0.32-1.94,0.38-2.92c0.04-0.49,0.11-0.97,0.13-1.46l0.05-1.46c0.01-0.24,0.03-0.49,0.02-0.73l-0.02-0.73l-0.04-1.47
					l-0.12-1.46l-0.06-0.73l-0.1-0.73l-0.2-1.46l-0.28-1.44c-0.05-0.24-0.09-0.48-0.15-0.72l-0.18-0.72l-0.17-0.72l-0.09-0.36
					l-0.11-0.35l-0.42-1.42l-0.48-1.41c-0.34-0.93-0.69-1.86-1.09-2.78c-0.38-0.92-0.82-1.82-1.26-2.72
					c-0.23-0.44-0.46-0.9-0.71-1.33C276.85,26.82,276.59,26.39,276.33,25.96z"/>
			</g>
			<path class="st4" d="M273.41,27.28l-0.22-0.13l0.2-0.05c0.1-0.03,0.16-0.13,0.14-0.24c-0.03-0.1-0.13-0.16-0.24-0.14l-0.57,0.15
				l-0.24-0.14l0.49-0.13c0.1-0.03,0.16-0.13,0.14-0.24c-0.03-0.1-0.13-0.16-0.24-0.14L272,26.47l-0.52-0.3l0.52-0.3l0.86,0.23
				c0.1,0.03,0.21-0.03,0.24-0.14c0.03-0.1-0.03-0.21-0.14-0.24l-0.49-0.13l0.24-0.14l0.57,0.15c0.1,0.03,0.21-0.03,0.24-0.14
				c0.03-0.1-0.03-0.21-0.14-0.24l-0.2-0.05l0.22-0.13c0.09-0.05,0.12-0.17,0.07-0.26c-0.05-0.09-0.17-0.12-0.26-0.07L273,24.85
				l0.05-0.2c0.03-0.1-0.03-0.21-0.14-0.24c-0.1-0.03-0.21,0.03-0.24,0.14l-0.15,0.57l-0.24,0.14l0.13-0.49
				c0.03-0.1-0.03-0.21-0.14-0.24c-0.1-0.03-0.21,0.03-0.24,0.14l-0.23,0.86l-0.52,0.3v-0.6l0.63-0.63c0.08-0.08,0.08-0.2,0-0.27
				c-0.08-0.08-0.2-0.08-0.27,0l-0.36,0.36v-0.28l0.42-0.42c0.08-0.08,0.08-0.2,0-0.27c-0.08-0.08-0.2-0.08-0.27,0l-0.14,0.14v-0.25
				c0-0.11-0.09-0.19-0.19-0.19s-0.19,0.09-0.19,0.19v0.25l-0.14-0.14c-0.08-0.08-0.2-0.08-0.27,0c-0.08,0.08-0.08,0.2,0,0.27
				l0.42,0.42v0.28l-0.36-0.36c-0.08-0.08-0.2-0.08-0.27,0c-0.08,0.08-0.08,0.2,0,0.27l0.63,0.63v0.6l-0.52-0.3l-0.23-0.86
				c-0.03-0.1-0.13-0.16-0.24-0.14c-0.1,0.03-0.16,0.13-0.14,0.24l0.13,0.49l-0.24-0.14l-0.15-0.57c-0.03-0.1-0.13-0.16-0.24-0.14
				c-0.1,0.03-0.16,0.13-0.14,0.24l0.05,0.2l-0.22-0.13c-0.09-0.05-0.21-0.02-0.26,0.07c-0.05,0.09-0.02,0.21,0.07,0.26l0.22,0.13
				l-0.2,0.05c-0.1,0.03-0.16,0.13-0.14,0.24c0.03,0.1,0.13,0.16,0.24,0.14l0.57-0.15l0.24,0.14l-0.49,0.13
				c-0.1,0.03-0.16,0.13-0.14,0.24c0.03,0.1,0.13,0.16,0.24,0.14l0.86-0.23l0.52,0.3l-0.52,0.3l-0.86-0.23
				c-0.1-0.03-0.21,0.03-0.24,0.14c-0.03,0.1,0.03,0.21,0.14,0.24l0.49,0.13l-0.24,0.14l-0.57-0.15c-0.1-0.03-0.21,0.03-0.24,0.14
				c-0.03,0.1,0.03,0.21,0.14,0.24l0.2,0.05l-0.22,0.13c-0.09,0.05-0.12,0.17-0.07,0.26c0.05,0.09,0.17,0.12,0.26,0.07l0.22-0.13
				l-0.05,0.2c-0.03,0.1,0.03,0.21,0.14,0.24c0.1,0.03,0.21-0.03,0.24-0.14l0.15-0.57l0.24-0.14l-0.13,0.49
				c-0.03,0.1,0.03,0.21,0.14,0.24c0.1,0.03,0.21-0.03,0.24-0.14l0.23-0.86l0.52-0.3v0.6l-0.63,0.63c-0.08,0.08-0.08,0.2,0,0.27
				c0.08,0.08,0.2,0.08,0.27,0l0.36-0.36v0.28l-0.42,0.42c-0.08,0.08-0.08,0.2,0,0.27c0.08,0.08,0.2,0.08,0.27,0l0.14-0.14v0.25
				c0,0.11,0.09,0.19,0.19,0.19s0.19-0.09,0.19-0.19v-0.25l0.14,0.14c0.08,0.08,0.2,0.08,0.27,0c0.08-0.08,0.08-0.2,0-0.27
				l-0.42-0.42v-0.28l0.36,0.36c0.08,0.08,0.2,0.08,0.27,0c0.08-0.08,0.08-0.2,0-0.27l-0.63-0.63v-0.6l0.52,0.3l0.23,0.86
				c0.03,0.1,0.13,0.16,0.24,0.14c0.1-0.03,0.16-0.13,0.14-0.24l-0.13-0.49l0.24,0.14l0.15,0.57c0.03,0.1,0.13,0.16,0.24,0.14
				c0.1-0.03,0.16-0.13,0.14-0.24L273,27.5l0.22,0.13c0.09,0.05,0.21,0.02,0.26-0.07C273.53,27.46,273.5,27.34,273.41,27.28z"/>
			<circle class="st4" cx="257.83" cy="23.79" r="1.18"/>
			<circle class="st4" cx="229.22" cy="41.86" r="0.3"/>
			<circle class="st4" cx="245.28" cy="46.91" r="0.3"/>
			<circle class="st4" cx="252.33" cy="48.34" r="0.69"/>
			<circle class="st4" cx="231.46" cy="52.7" r="0.69"/>
			<circle class="st4" cx="250.65" cy="17.77" r="0.62"/>
			<circle class="st4" cx="243.08" cy="24.65" r="0.62"/>
			<circle class="st4" cx="247.11" cy="34.29" r="0.3"/>
			<circle class="st4" cx="233.81" cy="56.77" r="0.3"/>
			<circle class="st4" cx="226.93" cy="48.51" r="0.3"/>
			<circle class="st4" cx="232.43" cy="32.23" r="0.3"/>
			<circle class="st4" cx="231.98" cy="25.35" r="0.3"/>
			<circle class="st4" cx="264.54" cy="22.14" r="0.3"/>
			<circle class="st4" cx="222.05" cy="51.78" r="0.69"/>
			<circle class="st7" cx="252.12" cy="55.99" r="1.09"/>
			<circle class="st7" cx="240.93" cy="35.62" r="0.67"/>
			<circle class="st7" cx="236.88" cy="24.92" r="0.53"/>
			<circle class="st7" cx="256.61" cy="35.93" r="0.53"/>
			<circle class="st7" cx="238.72" cy="52.91" r="0.53"/>
			<circle class="st7" cx="221.61" cy="50.47" r="0.61"/>
		</g>
		<polygon class="st8" points="211.3,57.43 256.96,59.77 292.05,61.5 291.94,83.06 212.22,85.29 		"/>
		<g>
			<path class="st4" d="M225.29,76.01c-0.55-3.02-1.19-6.18-1.94-9.47l1.96-0.2l1.15,7.36c0.59-2.58,1.07-4.91,1.44-6.99l1.86,0.23
				c-0.94,4.06-1.64,7.06-2.1,9L225.29,76.01z"/>
			<path class="st4" d="M232.1,69.41c1.55,0,2.33,1.03,2.33,3.1c0,0.25-0.01,0.52-0.03,0.81h-3c0,1.15,0.22,1.73,0.67,1.73h0.05
				c0.39-0.03,0.58-0.33,0.58-0.89c0-0.12-0.01-0.26-0.03-0.4l1.6-0.03c0,1.71-0.75,2.57-2.24,2.59c-0.02,0-0.03,0.01-0.05,0.01
				c-1.42,0-2.13-1.08-2.13-3.23v-0.2C229.9,70.56,230.65,69.41,232.1,69.41z M231.24,72.08h1.52v-0.16c0-0.82-0.23-1.22-0.69-1.22
				C231.57,70.69,231.29,71.15,231.24,72.08z"/>
			<path class="st4" d="M236.73,71.49l0.07,4.87l-1.65,0.01c0-2.06-0.07-4.37-0.21-6.94l1.24-0.13l0.07,1.1
				c0.19-0.54,0.63-0.84,1.32-0.92c0.1-0.01,0.2-0.01,0.3-0.01c0.54,0,0.95,0.18,1.24,0.53c0.33,0.42,0.49,1.09,0.5,2.01l-1.49,0.15
				c0-0.08,0.01-0.15,0.01-0.22c0-0.72-0.19-1.08-0.56-1.08h-0.03C237.09,70.88,236.83,71.09,236.73,71.49z"/>
			<path class="st4" d="M243.63,69.27l0.03,1.08c0.24-0.52,0.52-0.84,0.84-0.96c0.19-0.07,0.38-0.11,0.57-0.11
				c0.14,0,0.29,0.02,0.43,0.05c0.35,0.09,0.6,0.45,0.75,1.08c0.12-0.49,0.32-0.81,0.6-0.98c0.29-0.16,0.6-0.25,0.95-0.25h0.03
				c0.34,0,0.67,0.08,0.98,0.25c0.32,0.17,0.56,0.49,0.73,0.96c0.17,0.47,0.26,1.11,0.27,1.93v3.9l-1.45,0.03
				c0.06-1.47,0.09-2.73,0.09-3.76s-0.2-1.59-0.59-1.67c-0.06-0.01-0.11-0.01-0.17-0.01c-0.31,0-0.56,0.2-0.73,0.6
				c-0.03,0.47-0.04,1.01-0.04,1.63c0,0.85,0.02,1.83,0.07,2.96l-1.68,0.01c0.06-1.73,0.09-3,0.09-3.79v-0.08
				c0-0.78-0.16-1.2-0.46-1.24h-0.09c-0.27,0-0.54,0.16-0.79,0.47l0.01,4.92l-1.59,0.06v-1.1c0-1.95-0.03-3.9-0.09-5.85
				L243.63,69.27z"/>
			<path class="st4" d="M252.09,67.86c0,0.27-0.1,0.51-0.29,0.7c-0.19,0.19-0.43,0.29-0.7,0.29c-0.27,0-0.5-0.1-0.69-0.29
				c-0.19-0.19-0.29-0.43-0.29-0.7c0-0.27,0.1-0.5,0.29-0.69c0.19-0.19,0.42-0.29,0.69-0.29c0.27,0,0.51,0.1,0.7,0.29
				C251.99,67.36,252.09,67.59,252.09,67.86z M250.29,76.34c-0.03-2.62-0.05-4.88-0.05-6.79l1.69-0.1
				c-0.05,1.83-0.08,3.64-0.08,5.45c0,0.48,0,0.97,0.01,1.44H250.29z"/>
			<path class="st4" d="M257.71,73.54l1.6,0.1c0,1.62-0.75,2.44-2.24,2.46c-0.02,0-0.03,0.01-0.05,0.01c-1.42,0-2.13-1.08-2.13-3.23
				v-0.2c0.04-2.31,0.8-3.48,2.27-3.5h0.05c1.35,0,2.03,0.77,2.03,2.32c0,0.09,0,0.18-0.01,0.27l-1.44,0.11v-0.16
				c0-0.82-0.23-1.22-0.69-1.22c-0.47,0-0.71,0.66-0.71,1.98v0.22c0.03,1.43,0.26,2.14,0.71,2.14h0.04
				c0.39-0.03,0.58-0.33,0.58-0.89C257.74,73.82,257.73,73.69,257.71,73.54z"/>
			<path class="st4" d="M262.47,69.21c1.47,0.08,2.21,0.82,2.21,2.22v4.77l-1.57,0.03l-0.05-0.64c-0.32,0.37-0.75,0.55-1.28,0.55
				c-0.23,0-0.47-0.04-0.74-0.11c-0.79-0.2-1.19-0.81-1.19-1.84c0-0.13,0.01-0.26,0.02-0.4c0.09-1.06,0.84-1.59,2.26-1.59
				c0.27,0,0.57,0.02,0.9,0.06v-0.78c0-0.63-0.2-0.95-0.6-0.95h-0.03c-0.03,0-0.06-0.01-0.09-0.01c-0.43,0-0.65,0.35-0.65,1.06v0.1
				l-1.6-0.13c0-1.56,0.75-2.35,2.26-2.35H262.47z M263.03,74.52v-1.18c-0.19-0.04-0.37-0.06-0.52-0.06c-0.41,0-0.69,0.14-0.83,0.41
				c-0.09,0.17-0.13,0.32-0.13,0.46c0,0.18,0.07,0.34,0.22,0.48c0.11,0.11,0.26,0.16,0.44,0.16
				C262.42,74.79,262.7,74.7,263.03,74.52z"/>
			<path class="st4" d="M267.01,71.49l0.07,4.87l-1.65,0.01c0-2.06-0.07-4.37-0.21-6.94l1.24-0.13l0.07,1.1
				c0.19-0.54,0.63-0.84,1.32-0.92c0.1-0.01,0.2-0.01,0.3-0.01c0.54,0,0.95,0.18,1.24,0.53c0.33,0.42,0.49,1.09,0.5,2.01l-1.49,0.15
				c0-0.08,0.01-0.15,0.01-0.22c0-0.72-0.19-1.08-0.56-1.08h-0.03C267.37,70.88,267.1,71.09,267.01,71.49z"/>
			<path class="st4" d="M271.44,67.26l1.53-0.1v2.22l1.28-0.03l0.02,1.27l-1.3,0.06v3.06c0,0.71,0.3,1.07,0.91,1.07
				c0.13,0,0.26-0.02,0.41-0.05l-0.06,1.48c-0.22,0.03-0.42,0.04-0.61,0.04c-1.42,0-2.14-0.73-2.16-2.19v-3.29l-1.1,0.07l-0.03-1.5
				l1.13,0.01L271.44,67.26z"/>
			<path class="st4" d="M277.43,69.21c1.47,0.08,2.21,0.82,2.21,2.22v4.77l-1.57,0.03l-0.05-0.64c-0.32,0.37-0.75,0.55-1.28,0.55
				c-0.23,0-0.47-0.04-0.74-0.11c-0.79-0.2-1.19-0.81-1.19-1.84c0-0.13,0.01-0.26,0.02-0.4c0.09-1.06,0.84-1.59,2.26-1.59
				c0.27,0,0.57,0.02,0.9,0.06v-0.78c0-0.63-0.2-0.95-0.6-0.95h-0.03c-0.03,0-0.06-0.01-0.09-0.01c-0.43,0-0.65,0.35-0.65,1.06v0.1
				l-1.6-0.13c0-1.56,0.75-2.35,2.26-2.35H277.43z M277.99,74.52v-1.18c-0.19-0.04-0.37-0.06-0.52-0.06c-0.41,0-0.69,0.14-0.83,0.41
				c-0.09,0.17-0.13,0.32-0.13,0.46c0,0.18,0.07,0.34,0.22,0.48c0.11,0.11,0.26,0.16,0.44,0.16
				C277.38,74.79,277.66,74.7,277.99,74.52z"/>
		</g>
		<g>
			<g>
				<path class="st9" d="M303.65,48.57c-0.05,0.05-0.12,0.09-0.2,0.11l-4.86,1.3c-0.24,0.07-0.5-0.08-0.56-0.32
					c-0.07-0.24,0.08-0.5,0.32-0.56l4.86-1.3c0.24-0.07,0.5,0.08,0.56,0.32C303.82,48.28,303.77,48.45,303.65,48.57z"/>
			</g>
			<g>
				<path class="st9" d="M254,46.72c-0.11-0.11-0.16-0.27-0.12-0.43c0.06-0.25,0.31-0.4,0.55-0.34l4.9,1.17
					c0.25,0.06,0.4,0.31,0.34,0.55c-0.06,0.25-0.31,0.4-0.55,0.34l-4.9-1.17C254.13,46.82,254.06,46.78,254,46.72z"/>
			</g>
			<g>
				<g>
					<path class="st9" d="M275.14,64.44l-1.84-0.28c-0.25-0.04-0.42-0.27-0.38-0.52c0.04-0.25,0.28-0.42,0.52-0.38l0.93,0.14
						l0.51-3.34l2.21,0.03c0.25,0,0.46,0.21,0.45,0.46c0,0.25-0.21,0.45-0.46,0.45c0,0,0,0-0.01,0l-1.41-0.02L275.14,64.44z"/>
				</g>
			</g>
			<g>
				<g>
					<path class="st9" d="M279.7,64.52l-1.84-0.29c-0.25-0.04-0.42-0.27-0.38-0.52c0.04-0.25,0.27-0.42,0.52-0.38l0.93,0.14
						l0.51-3.34l2.21,0.03c0.25,0,0.46,0.21,0.45,0.46c0,0.25-0.21,0.45-0.46,0.45c0,0,0,0-0.01,0l-1.41-0.02L279.7,64.52z"/>
				</g>
			</g>
		</g>
		<g>
			<g>
				
					<rect x="258.44" y="34.34" transform="matrix(0.9983 0.0591 -0.0591 0.9983 3.3173 -16.3832)" class="st10" width="40.82" height="27.19"/>
				<polygon class="st11" points="298.42,62.69 257.67,60.28 278.79,46.29 				"/>
				<polygon class="st9" points="259.21,33.11 299.97,35.52 278.8,49.84 				"/>
				<g>
					<g>
						<path d="M272.89,48.8c-0.19,3.21,2.24,5.97,5.45,6.16c3.21,0.19,6-2.26,6.19-5.48L272.89,48.8z"/>
						<path class="st12" d="M282.13,53.87c0,0-0.84-2.51-3.53-2.85c-2.69-0.34-4.36,1.88-4.36,1.88s2.73,3.66,7.21,1.4
							C281.67,54.19,281.91,54.01,282.13,53.87z"/>
					</g>
				</g>
			</g>
			<circle cx="276.29" cy="43.86" r="0.7"/>
			<circle cx="281.83" cy="44.1" r="0.7"/>
		</g>
	</g>
</g>
<g id="Capa_4">
	<g>
		<ellipse class="st0" cx="355.87" cy="50.05" rx="35.21" ry="33.87"/>
		
			<image style="overflow:visible;" width="227" height="91" xlink:href="11F0127ECFB95CC8.png"  transform="matrix(0.2411 0 0 0.2411 328.2517 61.2921)">
		</image>
		<path class="st1" d="M368.5,20.79"/>
		<g>
			<g>
				<path class="st2" d="M357.13,16.3"/>
			</g>
		</g>
		<g class="st3">
			
				<image style="overflow:visible;opacity:0.2;" width="193" height="192" xlink:href="11F0127ECFB95CCF.png"  transform="matrix(1 0 0 1 259.0014 -44.7407)">
			</image>
			<g>
				
					<image style="overflow:visible;" width="294" height="294" xlink:href="11F0127ECFB95CC9.png"  transform="matrix(0.2435 0 0 0.2429 319.7448 15.28)">
				</image>
			</g>
		</g>
		<circle class="st4" cx="352.5" cy="22.67" r="0.3"/>
		<g class="st5">
			<g class="st6">
				<path class="st4" d="M378.27,26.03c1.45,1.43,2.66,3.1,3.73,4.85c0.54,0.88,1.02,1.79,1.47,2.71c0.22,0.47,0.43,0.94,0.65,1.41
					l0.57,1.44l0.14,0.36l0.12,0.37l0.24,0.74l0.24,0.74c0.08,0.25,0.13,0.5,0.2,0.75c0.13,0.5,0.26,1,0.38,1.51l0.29,1.53
					c0.05,0.26,0.1,0.51,0.14,0.77l0.09,0.78l0.17,1.55l0.06,1.56l0.03,0.78c0.01,0.26-0.01,0.52-0.02,0.78l-0.07,1.56
					c0,0.26-0.05,0.52-0.07,0.78l-0.09,0.78c-0.1,1.04-0.31,2.06-0.5,3.08c-0.1,0.51-0.24,1.01-0.36,1.51l-0.19,0.75
					c-0.06,0.25-0.15,0.49-0.22,0.74l-0.46,1.48l-0.53,1.45c-0.74,1.92-1.6,3.79-2.6,5.57c-0.26,0.44-0.51,0.89-0.77,1.32
					c-0.28,0.43-0.53,0.87-0.83,1.29c-0.57,0.85-1.16,1.68-1.82,2.45c1.76-3.65,3.21-7.4,4.32-11.21c0.57-1.9,0.98-3.84,1.33-5.77
					c0.13-0.97,0.32-1.94,0.38-2.92c0.04-0.49,0.11-0.97,0.13-1.46l0.05-1.46c0.01-0.24,0.03-0.49,0.02-0.73l-0.02-0.73l-0.04-1.47
					l-0.12-1.46l-0.06-0.73l-0.1-0.73l-0.2-1.46l-0.28-1.44c-0.05-0.24-0.09-0.48-0.15-0.72l-0.18-0.72l-0.17-0.72l-0.09-0.36
					L382.99,37l-0.42-1.42l-0.48-1.41c-0.34-0.93-0.69-1.86-1.09-2.78c-0.38-0.92-0.82-1.82-1.26-2.72
					c-0.23-0.44-0.46-0.9-0.71-1.33C378.8,26.89,378.54,26.46,378.27,26.03z"/>
			</g>
			<path class="st4" d="M375.36,27.35l-0.22-0.13l0.2-0.05c0.1-0.03,0.16-0.13,0.14-0.24c-0.03-0.1-0.13-0.16-0.24-0.14l-0.57,0.15
				l-0.24-0.14l0.49-0.13c0.1-0.03,0.16-0.13,0.14-0.24c-0.03-0.1-0.13-0.16-0.24-0.14l-0.86,0.23l-0.52-0.3l0.52-0.3l0.86,0.23
				c0.1,0.03,0.21-0.03,0.24-0.14c0.03-0.1-0.03-0.21-0.14-0.24l-0.49-0.13l0.24-0.14l0.57,0.15c0.1,0.03,0.21-0.03,0.24-0.14
				c0.03-0.1-0.03-0.21-0.14-0.24l-0.2-0.05l0.22-0.13c0.09-0.05,0.12-0.17,0.07-0.26c-0.05-0.09-0.17-0.12-0.26-0.07l-0.22,0.13
				l0.05-0.2c0.03-0.1-0.03-0.21-0.14-0.24c-0.1-0.03-0.21,0.03-0.24,0.14l-0.15,0.57l-0.24,0.14l0.13-0.49
				c0.03-0.1-0.03-0.21-0.14-0.24c-0.1-0.03-0.21,0.03-0.24,0.14l-0.23,0.86l-0.52,0.3v-0.6l0.63-0.63c0.08-0.08,0.08-0.2,0-0.27
				c-0.08-0.08-0.2-0.08-0.27,0l-0.36,0.36v-0.28l0.42-0.42c0.08-0.08,0.08-0.2,0-0.27c-0.08-0.08-0.2-0.08-0.27,0l-0.14,0.14v-0.25
				c0-0.11-0.09-0.19-0.19-0.19s-0.19,0.09-0.19,0.19v0.25l-0.14-0.14c-0.08-0.08-0.2-0.08-0.27,0c-0.08,0.08-0.08,0.2,0,0.27
				l0.42,0.42v0.28l-0.36-0.36c-0.08-0.08-0.2-0.08-0.27,0c-0.08,0.08-0.08,0.2,0,0.27l0.63,0.63v0.6l-0.52-0.3l-0.23-0.86
				c-0.03-0.1-0.13-0.16-0.24-0.14c-0.1,0.03-0.16,0.13-0.14,0.24l0.13,0.49l-0.24-0.14l-0.15-0.57c-0.03-0.1-0.13-0.16-0.24-0.14
				c-0.1,0.03-0.16,0.13-0.14,0.24l0.05,0.2l-0.22-0.13c-0.09-0.05-0.21-0.02-0.26,0.07c-0.05,0.09-0.02,0.21,0.07,0.26l0.22,0.13
				l-0.2,0.05c-0.1,0.03-0.16,0.13-0.14,0.24c0.03,0.1,0.13,0.16,0.24,0.14l0.57-0.15l0.24,0.14l-0.49,0.13
				c-0.1,0.03-0.16,0.13-0.14,0.24c0.03,0.1,0.13,0.16,0.24,0.14l0.86-0.23l0.52,0.3l-0.52,0.3l-0.86-0.23
				c-0.1-0.03-0.21,0.03-0.24,0.14c-0.03,0.1,0.03,0.21,0.14,0.24l0.49,0.13l-0.24,0.14l-0.57-0.15c-0.1-0.03-0.21,0.03-0.24,0.14
				c-0.03,0.1,0.03,0.21,0.14,0.24l0.2,0.05l-0.22,0.13c-0.09,0.05-0.12,0.17-0.07,0.26c0.05,0.09,0.17,0.12,0.26,0.07l0.22-0.13
				l-0.05,0.2c-0.03,0.1,0.03,0.21,0.14,0.24c0.1,0.03,0.21-0.03,0.24-0.14l0.15-0.57l0.24-0.14l-0.13,0.49
				c-0.03,0.1,0.03,0.21,0.14,0.24c0.1,0.03,0.21-0.03,0.24-0.14l0.23-0.86l0.52-0.3v0.6l-0.63,0.63c-0.08,0.08-0.08,0.2,0,0.27
				c0.08,0.08,0.2,0.08,0.27,0l0.36-0.36V28l-0.42,0.42c-0.08,0.08-0.08,0.2,0,0.27c0.08,0.08,0.2,0.08,0.27,0l0.14-0.14v0.25
				c0,0.11,0.09,0.19,0.19,0.19s0.19-0.09,0.19-0.19v-0.25l0.14,0.14c0.08,0.08,0.2,0.08,0.27,0c0.08-0.08,0.08-0.2,0-0.27
				L373.24,28v-0.28l0.36,0.36c0.08,0.08,0.2,0.08,0.27,0c0.08-0.08,0.08-0.2,0-0.27l-0.63-0.63v-0.6l0.52,0.3l0.23,0.86
				c0.03,0.1,0.13,0.16,0.24,0.14c0.1-0.03,0.16-0.13,0.14-0.24l-0.13-0.49l0.24,0.14l0.15,0.57c0.03,0.1,0.13,0.16,0.24,0.14
				c0.1-0.03,0.16-0.13,0.14-0.24l-0.05-0.2l0.22,0.13c0.09,0.05,0.21,0.02,0.26-0.07C375.48,27.53,375.45,27.41,375.36,27.35z"/>
			<circle class="st4" cx="359.78" cy="23.86" r="1.18"/>
			<circle class="st4" cx="331.17" cy="41.93" r="0.3"/>
			<circle class="st4" cx="347.23" cy="46.98" r="0.3"/>
			<circle class="st4" cx="354.28" cy="48.41" r="0.69"/>
			<circle class="st4" cx="333.4" cy="52.77" r="0.69"/>
			<circle class="st4" cx="352.6" cy="17.84" r="0.62"/>
			<circle class="st4" cx="345.03" cy="24.72" r="0.62"/>
			<circle class="st4" cx="349.06" cy="34.36" r="0.3"/>
			<circle class="st4" cx="335.76" cy="56.84" r="0.3"/>
			<circle class="st4" cx="328.88" cy="48.58" r="0.3"/>
			<circle class="st4" cx="334.38" cy="32.3" r="0.3"/>
			<circle class="st4" cx="333.92" cy="25.42" r="0.3"/>
			<circle class="st4" cx="366.49" cy="22.21" r="0.3"/>
			<circle class="st4" cx="324" cy="51.85" r="0.69"/>
			<circle class="st7" cx="354.07" cy="56.06" r="1.09"/>
			<circle class="st7" cx="342.88" cy="35.69" r="0.67"/>
			<circle class="st7" cx="338.83" cy="24.99" r="0.53"/>
			<circle class="st7" cx="358.56" cy="36" r="0.53"/>
			<circle class="st7" cx="340.67" cy="52.97" r="0.53"/>
			<circle class="st7" cx="323.55" cy="50.54" r="0.61"/>
		</g>
		<polygon class="st8" points="313.25,57.5 358.91,59.84 393.99,61.56 393.89,83.12 314.16,85.36 		"/>
		<g>
			<path class="st4" d="M327.24,76.08c-0.55-3.02-1.19-6.18-1.94-9.47l1.96-0.2l1.15,7.36c0.59-2.58,1.07-4.91,1.44-6.99l1.86,0.23
				c-0.94,4.06-1.64,7.06-2.1,9L327.24,76.08z"/>
			<path class="st4" d="M334.05,69.48c1.55,0,2.33,1.03,2.33,3.1c0,0.25-0.01,0.52-0.03,0.81h-3c0,1.15,0.22,1.73,0.67,1.73h0.05
				c0.39-0.03,0.58-0.33,0.58-0.89c0-0.12-0.01-0.26-0.03-0.4l1.6-0.03c0,1.71-0.75,2.57-2.24,2.59c-0.02,0-0.03,0.01-0.05,0.01
				c-1.42,0-2.13-1.08-2.13-3.23v-0.2C331.85,70.63,332.6,69.48,334.05,69.48z M333.19,72.14h1.52v-0.16c0-0.82-0.23-1.22-0.69-1.22
				C333.51,70.76,333.24,71.22,333.19,72.14z"/>
			<path class="st4" d="M338.68,71.56l0.07,4.87l-1.65,0.01c0-2.06-0.07-4.37-0.21-6.94l1.24-0.13l0.07,1.1
				c0.19-0.54,0.63-0.84,1.32-0.92c0.1-0.01,0.2-0.01,0.3-0.01c0.54,0,0.95,0.18,1.24,0.53c0.33,0.42,0.49,1.09,0.5,2.01l-1.49,0.15
				c0-0.08,0.01-0.15,0.01-0.22c0-0.72-0.19-1.08-0.56-1.08h-0.03C339.04,70.94,338.77,71.16,338.68,71.56z"/>
			<path class="st4" d="M345.58,69.34l0.03,1.08c0.24-0.52,0.52-0.84,0.84-0.96c0.19-0.07,0.38-0.11,0.57-0.11
				c0.14,0,0.29,0.02,0.43,0.05c0.35,0.09,0.6,0.45,0.75,1.08c0.12-0.49,0.32-0.81,0.6-0.98c0.29-0.16,0.6-0.25,0.95-0.25h0.03
				c0.34,0,0.67,0.08,0.98,0.25c0.32,0.17,0.56,0.49,0.73,0.96c0.17,0.47,0.26,1.11,0.27,1.93v3.9l-1.45,0.03
				c0.06-1.47,0.09-2.73,0.09-3.76s-0.2-1.59-0.59-1.67c-0.06-0.01-0.11-0.01-0.17-0.01c-0.31,0-0.56,0.2-0.73,0.6
				c-0.03,0.47-0.04,1.01-0.04,1.63c0,0.85,0.02,1.83,0.07,2.96l-1.68,0.01c0.06-1.73,0.09-3,0.09-3.79V72.2
				c0-0.78-0.16-1.2-0.46-1.24h-0.09c-0.27,0-0.54,0.16-0.79,0.47l0.01,4.92l-1.59,0.06v-1.1c0-1.95-0.03-3.9-0.09-5.85
				L345.58,69.34z"/>
			<path class="st4" d="M354.04,67.93c0,0.27-0.1,0.51-0.29,0.7c-0.19,0.19-0.43,0.29-0.7,0.29c-0.27,0-0.5-0.1-0.69-0.29
				c-0.19-0.19-0.29-0.43-0.29-0.7c0-0.27,0.1-0.5,0.29-0.69c0.19-0.19,0.42-0.29,0.69-0.29c0.27,0,0.51,0.1,0.7,0.29
				C353.94,67.43,354.04,67.66,354.04,67.93z M352.23,76.41c-0.03-2.62-0.05-4.88-0.05-6.79l1.69-0.1
				c-0.05,1.83-0.08,3.64-0.08,5.45c0,0.48,0,0.97,0.01,1.44H352.23z"/>
			<path class="st4" d="M359.66,73.61l1.6,0.1c0,1.62-0.75,2.44-2.24,2.46c-0.02,0-0.03,0.01-0.05,0.01c-1.42,0-2.13-1.08-2.13-3.23
				v-0.2c0.04-2.31,0.8-3.48,2.27-3.5h0.05c1.35,0,2.03,0.77,2.03,2.32c0,0.09,0,0.18-0.01,0.27l-1.44,0.11v-0.16
				c0-0.82-0.23-1.22-0.69-1.22c-0.47,0-0.71,0.66-0.71,1.98v0.22c0.03,1.43,0.26,2.14,0.71,2.14h0.04
				c0.39-0.03,0.58-0.33,0.58-0.89C359.69,73.89,359.68,73.76,359.66,73.61z"/>
			<path class="st4" d="M364.42,69.28c1.47,0.08,2.21,0.82,2.21,2.22v4.77l-1.57,0.03l-0.05-0.64c-0.32,0.37-0.75,0.55-1.28,0.55
				c-0.23,0-0.47-0.04-0.74-0.11c-0.79-0.2-1.19-0.81-1.19-1.84c0-0.13,0.01-0.26,0.02-0.4c0.09-1.06,0.84-1.59,2.26-1.59
				c0.27,0,0.57,0.02,0.9,0.06v-0.78c0-0.63-0.2-0.95-0.6-0.95h-0.03c-0.03,0-0.06-0.01-0.09-0.01c-0.43,0-0.65,0.35-0.65,1.06v0.1
				l-1.6-0.13c0-1.56,0.75-2.35,2.26-2.35H364.42z M364.98,74.59v-1.18c-0.19-0.04-0.37-0.06-0.52-0.06c-0.41,0-0.69,0.14-0.83,0.41
				c-0.09,0.17-0.13,0.32-0.13,0.46c0,0.18,0.07,0.34,0.22,0.48c0.11,0.11,0.26,0.16,0.44,0.16
				C364.37,74.86,364.65,74.77,364.98,74.59z"/>
			<path class="st4" d="M368.95,71.56l0.07,4.87l-1.65,0.01c0-2.06-0.07-4.37-0.21-6.94l1.24-0.13l0.07,1.1
				c0.19-0.54,0.63-0.84,1.32-0.92c0.1-0.01,0.2-0.01,0.3-0.01c0.54,0,0.95,0.18,1.24,0.53c0.33,0.42,0.49,1.09,0.5,2.01l-1.49,0.15
				c0-0.08,0.01-0.15,0.01-0.22c0-0.72-0.19-1.08-0.56-1.08h-0.03C369.32,70.94,369.05,71.16,368.95,71.56z"/>
			<path class="st4" d="M373.39,67.33l1.53-0.1v2.22l1.28-0.03l0.02,1.27l-1.3,0.06v3.06c0,0.71,0.3,1.07,0.91,1.07
				c0.13,0,0.26-0.02,0.41-0.05l-0.06,1.48c-0.22,0.03-0.42,0.04-0.61,0.04c-1.42,0-2.14-0.73-2.16-2.19v-3.29l-1.1,0.07l-0.03-1.5
				l1.13,0.01L373.39,67.33z"/>
			<path class="st4" d="M379.37,69.28c1.47,0.08,2.21,0.82,2.21,2.22v4.77l-1.57,0.03l-0.05-0.64c-0.32,0.37-0.75,0.55-1.28,0.55
				c-0.23,0-0.47-0.04-0.74-0.11c-0.79-0.2-1.19-0.81-1.19-1.84c0-0.13,0.01-0.26,0.02-0.4c0.09-1.06,0.84-1.59,2.26-1.59
				c0.27,0,0.57,0.02,0.9,0.06v-0.78c0-0.63-0.2-0.95-0.6-0.95h-0.03c-0.03,0-0.06-0.01-0.09-0.01c-0.43,0-0.65,0.35-0.65,1.06v0.1
				l-1.6-0.13c0-1.56,0.75-2.35,2.26-2.35H379.37z M379.94,74.59v-1.18c-0.19-0.04-0.37-0.06-0.52-0.06c-0.41,0-0.69,0.14-0.83,0.41
				c-0.09,0.17-0.13,0.32-0.13,0.46c0,0.18,0.07,0.34,0.22,0.48c0.11,0.11,0.26,0.16,0.44,0.16
				C379.33,74.86,379.61,74.77,379.94,74.59z"/>
		</g>
		<g>
			<g>
				<g>
					<path class="st9" d="M405.19,45.48c-0.03,0.07-0.07,0.13-0.13,0.18l-3.82,3.27c-0.19,0.16-0.48,0.14-0.65-0.05
						c-0.16-0.19-0.14-0.48,0.05-0.65l3.82-3.27c0.19-0.16,0.48-0.14,0.65,0.05C405.23,45.15,405.25,45.33,405.19,45.48z"/>
				</g>
				<g>
					<path class="st9" d="M356.54,43.32c-0.03-0.15,0.02-0.31,0.13-0.42c0.18-0.17,0.47-0.17,0.65,0.02l3.47,3.65
						c0.17,0.18,0.17,0.47-0.02,0.65c-0.18,0.17-0.47,0.17-0.65-0.02l-3.47-3.65C356.59,43.48,356.56,43.4,356.54,43.32z"/>
				</g>
				<g>
					<g>
						<path class="st9" d="M377.09,62.51l-1.84-0.28c-0.25-0.04-0.42-0.27-0.38-0.52c0.04-0.25,0.28-0.42,0.52-0.38l0.93,0.14
							l0.51-3.34l2.21,0.03c0.25,0,0.46,0.21,0.45,0.46c0,0.25-0.21,0.45-0.46,0.45c0,0,0,0-0.01,0l-1.41-0.02L377.09,62.51z"/>
					</g>
				</g>
				<g>
					<g>
						<path class="st9" d="M381.64,62.59l-1.84-0.29c-0.25-0.04-0.42-0.27-0.38-0.52c0.04-0.25,0.27-0.42,0.52-0.38l0.93,0.14
							l0.51-3.34l2.21,0.03c0.25,0,0.46,0.21,0.45,0.46c0,0.25-0.21,0.45-0.46,0.45c0,0,0,0-0.01,0l-1.41-0.02L381.64,62.59z"/>
					</g>
				</g>
			</g>
			<g>
				<g>
					<g>
						
							<rect x="360.38" y="32.41" transform="matrix(0.9983 0.0591 -0.0591 0.9983 3.3812 -22.4069)" class="st10" width="40.82" height="27.19"/>
						<polygon class="st11" points="400.37,60.76 359.62,58.35 380.74,44.36 						"/>
						<polygon class="st9" points="361.16,31.18 401.91,33.59 380.74,47.91 						"/>
					</g>
				</g>
				<g>
					<g>
						<path d="M374.84,47.1c-0.19,3.21,2.24,5.97,5.45,6.16c3.21,0.19,6-2.26,6.19-5.48L374.84,47.1z"/>
						<path class="st12" d="M384.08,52.17c0,0-0.84-2.51-3.53-2.85s-4.36,1.88-4.36,1.88s2.73,3.66,7.21,1.4
							C383.62,52.49,383.87,52.31,384.08,52.17z"/>
					</g>
					<g>
						<g>
							<path d="M385.95,42.89c-0.08,0-0.16-0.03-0.22-0.08c-0.06-0.05-1.36-1.11-2.38-0.15c-0.14,0.13-0.36,0.12-0.49-0.02
								c-0.13-0.14-0.12-0.36,0.02-0.49c1.18-1.11,2.67-0.4,3.3,0.13c0.14,0.12,0.16,0.34,0.04,0.48
								C386.15,42.85,386.05,42.89,385.95,42.89z"/>
						</g>
					</g>
					<g>
						<g>
							<path d="M378.9,42.5c-0.1,0-0.2-0.04-0.26-0.12c-0.91-1.08-2.32-0.17-2.38-0.13c-0.16,0.1-0.37,0.06-0.48-0.1
								c-0.1-0.16-0.06-0.37,0.1-0.48c0.68-0.45,2.25-0.98,3.29,0.26c0.12,0.15,0.1,0.36-0.04,0.48
								C379.05,42.48,378.97,42.5,378.9,42.5z"/>
						</g>
					</g>
				</g>
			</g>
		</g>
	</g>
</g>
<g id="Capa_5">
	<g>
		<ellipse class="st0" cx="457.87" cy="50.05" rx="35.21" ry="33.87"/>
		
			<image style="overflow:visible;" width="227" height="91" xlink:href="11F0127ECFB95CCB.png"  transform="matrix(0.2411 0 0 0.2411 430.254 61.2972)">
		</image>
		<path class="st1" d="M470.5,20.79"/>
		<g>
			<g>
				<path class="st2" d="M459.13,16.31"/>
			</g>
		</g>
		<g class="st3">
			
				<image style="overflow:visible;opacity:0.2;" width="193" height="193" xlink:href="11F0127ECFB95CD6.png"  transform="matrix(1 0 0 1 361.1882 -45.4393)">
			</image>
			<g>
				
					<image style="overflow:visible;" width="294" height="294" xlink:href="11F0127ECFB95CD7.png"  transform="matrix(0.2435 0 0 0.2429 421.747 15.2851)">
				</image>
			</g>
		</g>
		<circle class="st4" cx="454.5" cy="22.67" r="0.3"/>
		<g class="st5">
			<g class="st6">
				<path class="st4" d="M480.28,26.03c1.45,1.43,2.66,3.1,3.73,4.85c0.54,0.88,1.02,1.79,1.47,2.71c0.22,0.47,0.43,0.94,0.65,1.41
					l0.57,1.44l0.14,0.36l0.12,0.37l0.24,0.74l0.24,0.74c0.08,0.25,0.13,0.5,0.2,0.75c0.13,0.5,0.26,1,0.38,1.51l0.29,1.53
					c0.05,0.26,0.1,0.51,0.14,0.77l0.09,0.78l0.17,1.55l0.06,1.56l0.03,0.78c0.01,0.26-0.01,0.52-0.02,0.78l-0.07,1.56
					c0,0.26-0.05,0.52-0.07,0.78l-0.09,0.78c-0.1,1.04-0.31,2.06-0.5,3.08c-0.1,0.51-0.24,1.01-0.36,1.51l-0.19,0.75
					c-0.06,0.25-0.15,0.49-0.22,0.74l-0.46,1.48l-0.53,1.45c-0.74,1.92-1.6,3.79-2.6,5.57c-0.26,0.44-0.51,0.89-0.77,1.32
					c-0.28,0.43-0.53,0.87-0.83,1.29c-0.57,0.85-1.16,1.68-1.82,2.45c1.76-3.65,3.21-7.4,4.32-11.21c0.57-1.9,0.98-3.84,1.33-5.77
					c0.13-0.97,0.32-1.94,0.38-2.92c0.04-0.49,0.11-0.97,0.13-1.46l0.05-1.46c0.01-0.24,0.03-0.49,0.02-0.73l-0.02-0.73l-0.04-1.47
					l-0.12-1.46l-0.06-0.73l-0.1-0.73l-0.2-1.46l-0.28-1.44c-0.05-0.24-0.09-0.48-0.15-0.72l-0.18-0.72l-0.17-0.72l-0.09-0.36
					L484.99,37l-0.42-1.42l-0.48-1.41c-0.34-0.93-0.69-1.86-1.09-2.78c-0.38-0.92-0.82-1.82-1.26-2.72
					c-0.23-0.44-0.46-0.9-0.71-1.33C480.8,26.9,480.54,26.47,480.28,26.03z"/>
			</g>
			<path class="st4" d="M477.36,27.36l-0.22-0.13l0.2-0.05c0.1-0.03,0.16-0.13,0.14-0.24c-0.03-0.1-0.13-0.16-0.24-0.14l-0.57,0.15
				l-0.24-0.14l0.49-0.13c0.1-0.03,0.16-0.13,0.14-0.24c-0.03-0.1-0.13-0.16-0.24-0.14l-0.86,0.23l-0.52-0.3l0.52-0.3l0.86,0.23
				c0.1,0.03,0.21-0.03,0.24-0.14c0.03-0.1-0.03-0.21-0.14-0.24l-0.49-0.13l0.24-0.14l0.57,0.15c0.1,0.03,0.21-0.03,0.24-0.14
				c0.03-0.1-0.03-0.21-0.14-0.24l-0.2-0.05l0.22-0.13c0.09-0.05,0.12-0.17,0.07-0.26c-0.05-0.09-0.17-0.12-0.26-0.07l-0.22,0.13
				l0.05-0.2c0.03-0.1-0.03-0.21-0.14-0.24c-0.1-0.03-0.21,0.03-0.24,0.14l-0.15,0.57l-0.24,0.14l0.13-0.49
				c0.03-0.1-0.03-0.21-0.14-0.24c-0.1-0.03-0.21,0.03-0.24,0.14l-0.23,0.86l-0.52,0.3v-0.6l0.63-0.63c0.08-0.08,0.08-0.2,0-0.27
				c-0.08-0.08-0.2-0.08-0.27,0l-0.36,0.36v-0.28l0.42-0.42c0.08-0.08,0.08-0.2,0-0.27c-0.08-0.08-0.2-0.08-0.27,0l-0.14,0.14v-0.25
				c0-0.11-0.09-0.19-0.19-0.19s-0.19,0.09-0.19,0.19v0.25l-0.14-0.14c-0.08-0.08-0.2-0.08-0.27,0c-0.08,0.08-0.08,0.2,0,0.27
				l0.42,0.42v0.28l-0.36-0.36c-0.08-0.08-0.2-0.08-0.27,0c-0.08,0.08-0.08,0.2,0,0.27l0.63,0.63v0.6l-0.52-0.3l-0.23-0.86
				c-0.03-0.1-0.13-0.16-0.24-0.14c-0.1,0.03-0.16,0.13-0.14,0.24l0.13,0.49l-0.24-0.14l-0.15-0.57c-0.03-0.1-0.13-0.16-0.24-0.14
				c-0.1,0.03-0.16,0.13-0.14,0.24l0.05,0.2l-0.22-0.13c-0.09-0.05-0.21-0.02-0.26,0.07c-0.05,0.09-0.02,0.21,0.07,0.26l0.22,0.13
				l-0.2,0.05c-0.1,0.03-0.16,0.13-0.14,0.24c0.03,0.1,0.13,0.16,0.24,0.14l0.57-0.15l0.24,0.14l-0.49,0.13
				c-0.1,0.03-0.16,0.13-0.14,0.24c0.03,0.1,0.13,0.16,0.24,0.14l0.86-0.23l0.52,0.3l-0.52,0.3l-0.86-0.23
				c-0.1-0.03-0.21,0.03-0.24,0.14c-0.03,0.1,0.03,0.21,0.14,0.24l0.49,0.13l-0.24,0.14l-0.57-0.15c-0.1-0.03-0.21,0.03-0.24,0.14
				c-0.03,0.1,0.03,0.21,0.14,0.24l0.2,0.05l-0.22,0.13c-0.09,0.05-0.12,0.17-0.07,0.26c0.05,0.09,0.17,0.12,0.26,0.07l0.22-0.13
				l-0.05,0.2c-0.03,0.1,0.03,0.21,0.14,0.24c0.1,0.03,0.21-0.03,0.24-0.14l0.15-0.57l0.24-0.14l-0.13,0.49
				c-0.03,0.1,0.03,0.21,0.14,0.24c0.1,0.03,0.21-0.03,0.24-0.14l0.23-0.86l0.52-0.3v0.6l-0.63,0.63c-0.08,0.08-0.08,0.2,0,0.27
				s0.2,0.08,0.27,0l0.36-0.36v0.28l-0.42,0.42c-0.08,0.08-0.08,0.2,0,0.27c0.08,0.08,0.2,0.08,0.27,0l0.14-0.14v0.25
				c0,0.11,0.09,0.19,0.19,0.19s0.19-0.09,0.19-0.19v-0.25l0.14,0.14c0.08,0.08,0.2,0.08,0.27,0c0.08-0.08,0.08-0.2,0-0.27
				l-0.42-0.42v-0.28l0.36,0.36c0.08,0.08,0.2,0.08,0.27,0s0.08-0.2,0-0.27l-0.63-0.63v-0.6l0.52,0.3l0.23,0.86
				c0.03,0.1,0.13,0.16,0.24,0.14c0.1-0.03,0.16-0.13,0.14-0.24l-0.13-0.49l0.24,0.14l0.15,0.57c0.03,0.1,0.13,0.16,0.24,0.14
				c0.1-0.03,0.16-0.13,0.14-0.24l-0.05-0.2l0.22,0.13c0.09,0.05,0.21,0.02,0.26-0.07C477.48,27.53,477.45,27.41,477.36,27.36z"/>
			<circle class="st4" cx="461.78" cy="23.87" r="1.18"/>
			<circle class="st4" cx="433.17" cy="41.94" r="0.3"/>
			<circle class="st4" cx="449.23" cy="46.98" r="0.3"/>
			<circle class="st4" cx="456.28" cy="48.42" r="0.69"/>
			<circle class="st4" cx="435.41" cy="52.78" r="0.69"/>
			<circle class="st4" cx="454.6" cy="17.84" r="0.62"/>
			<circle class="st4" cx="447.03" cy="24.72" r="0.62"/>
			<circle class="st4" cx="451.06" cy="34.37" r="0.3"/>
			<circle class="st4" cx="437.76" cy="56.84" r="0.3"/>
			<circle class="st4" cx="430.88" cy="48.59" r="0.3"/>
			<circle class="st4" cx="436.38" cy="32.3" r="0.3"/>
			<circle class="st4" cx="435.92" cy="25.42" r="0.3"/>
			<circle class="st4" cx="468.49" cy="22.21" r="0.3"/>
			<circle class="st4" cx="426" cy="51.86" r="0.69"/>
			<circle class="st7" cx="456.07" cy="56.06" r="1.09"/>
			<circle class="st7" cx="444.88" cy="35.7" r="0.67"/>
			<circle class="st7" cx="440.83" cy="25" r="0.53"/>
			<circle class="st7" cx="460.56" cy="36.01" r="0.53"/>
			<circle class="st7" cx="442.67" cy="52.98" r="0.53"/>
			<circle class="st7" cx="425.56" cy="50.54" r="0.61"/>
		</g>
		<polygon class="st8" points="415.25,57.5 460.91,59.84 496,61.57 495.89,83.13 416.17,85.37 		"/>
		<g>
			<path class="st4" d="M429.24,76.09c-0.55-3.02-1.19-6.18-1.94-9.47l1.96-0.2l1.15,7.36c0.59-2.58,1.07-4.91,1.44-6.99l1.86,0.23
				c-0.94,4.06-1.64,7.06-2.1,9L429.24,76.09z"/>
			<path class="st4" d="M436.05,69.48c1.55,0,2.33,1.03,2.33,3.1c0,0.25-0.01,0.52-0.03,0.81h-3c0,1.15,0.22,1.73,0.67,1.73h0.05
				c0.39-0.03,0.58-0.33,0.58-0.89c0-0.12-0.01-0.26-0.03-0.4l1.6-0.03c0,1.71-0.75,2.57-2.24,2.59c-0.02,0-0.03,0.01-0.05,0.01
				c-1.42,0-2.13-1.08-2.13-3.23v-0.2C433.85,70.64,434.6,69.48,436.05,69.48z M435.19,72.15h1.52v-0.16c0-0.82-0.23-1.22-0.69-1.22
				C435.52,70.77,435.24,71.23,435.19,72.15z"/>
			<path class="st4" d="M440.68,71.56l0.07,4.87l-1.65,0.01c0-2.06-0.07-4.37-0.21-6.94l1.24-0.13l0.07,1.1
				c0.19-0.54,0.63-0.84,1.32-0.92c0.1-0.01,0.2-0.01,0.3-0.01c0.54,0,0.95,0.18,1.24,0.53c0.33,0.42,0.49,1.09,0.5,2.01l-1.49,0.15
				c0-0.08,0.01-0.15,0.01-0.22c0-0.72-0.19-1.08-0.56-1.08h-0.03C441.04,70.95,440.78,71.16,440.68,71.56z"/>
			<path class="st4" d="M447.58,69.34l0.03,1.08c0.24-0.52,0.52-0.84,0.84-0.96c0.19-0.07,0.38-0.11,0.57-0.11
				c0.14,0,0.29,0.02,0.43,0.05c0.35,0.09,0.6,0.45,0.75,1.08c0.12-0.49,0.32-0.81,0.6-0.98c0.29-0.16,0.6-0.25,0.95-0.25h0.03
				c0.34,0,0.67,0.08,0.98,0.25c0.32,0.17,0.56,0.49,0.73,0.96c0.17,0.47,0.26,1.11,0.27,1.93v3.9l-1.45,0.03
				c0.06-1.47,0.09-2.73,0.09-3.76c0-1.03-0.2-1.59-0.59-1.67c-0.06-0.01-0.11-0.01-0.17-0.01c-0.31,0-0.56,0.2-0.73,0.6
				c-0.03,0.47-0.04,1.01-0.04,1.63c0,0.85,0.02,1.83,0.07,2.96l-1.68,0.01c0.06-1.73,0.09-3,0.09-3.79v-0.08
				c0-0.78-0.16-1.2-0.46-1.24h-0.09c-0.27,0-0.54,0.16-0.79,0.47l0.01,4.92l-1.59,0.06v-1.1c0-1.95-0.03-3.9-0.09-5.85
				L447.58,69.34z"/>
			<path class="st4" d="M456.04,67.94c0,0.27-0.1,0.51-0.29,0.7c-0.19,0.19-0.43,0.29-0.7,0.29c-0.27,0-0.5-0.1-0.69-0.29
				c-0.19-0.19-0.29-0.43-0.29-0.7c0-0.27,0.1-0.5,0.29-0.69c0.19-0.19,0.42-0.29,0.69-0.29c0.27,0,0.51,0.1,0.7,0.29
				C455.94,67.44,456.04,67.67,456.04,67.94z M454.24,76.42c-0.03-2.62-0.05-4.88-0.05-6.79l1.69-0.1
				c-0.05,1.83-0.08,3.64-0.08,5.45c0,0.48,0,0.97,0.01,1.44H454.24z"/>
			<path class="st4" d="M461.66,73.61l1.6,0.1c0,1.62-0.75,2.44-2.24,2.46c-0.02,0-0.03,0.01-0.05,0.01c-1.42,0-2.13-1.08-2.13-3.23
				v-0.2c0.04-2.31,0.8-3.48,2.27-3.5h0.05c1.35,0,2.03,0.77,2.03,2.32c0,0.09,0,0.18-0.01,0.27l-1.44,0.11v-0.16
				c0-0.82-0.23-1.22-0.69-1.22c-0.47,0-0.71,0.66-0.71,1.98v0.22c0.03,1.43,0.26,2.14,0.71,2.14h0.04
				c0.39-0.03,0.58-0.33,0.58-0.89C461.69,73.9,461.68,73.76,461.66,73.61z"/>
			<path class="st4" d="M466.42,69.29c1.47,0.08,2.21,0.82,2.21,2.22v4.77l-1.57,0.03l-0.05-0.64c-0.32,0.37-0.75,0.55-1.28,0.55
				c-0.23,0-0.47-0.04-0.74-0.11c-0.79-0.2-1.19-0.81-1.19-1.84c0-0.13,0.01-0.26,0.02-0.4c0.09-1.06,0.84-1.59,2.26-1.59
				c0.27,0,0.57,0.02,0.9,0.06v-0.78c0-0.63-0.2-0.95-0.6-0.95h-0.03c-0.03,0-0.06-0.01-0.09-0.01c-0.43,0-0.65,0.35-0.65,1.06v0.1
				l-1.6-0.13c0-1.56,0.75-2.35,2.26-2.35H466.42z M466.98,74.6v-1.18c-0.19-0.04-0.37-0.06-0.52-0.06c-0.41,0-0.69,0.14-0.83,0.41
				c-0.09,0.17-0.13,0.32-0.13,0.46c0,0.18,0.07,0.34,0.22,0.48c0.11,0.11,0.26,0.16,0.44,0.16
				C466.37,74.86,466.65,74.77,466.98,74.6z"/>
			<path class="st4" d="M470.95,71.56l0.07,4.87l-1.65,0.01c0-2.06-0.07-4.37-0.21-6.94l1.24-0.13l0.07,1.1
				c0.19-0.54,0.63-0.84,1.32-0.92c0.1-0.01,0.2-0.01,0.3-0.01c0.54,0,0.95,0.18,1.24,0.53c0.33,0.42,0.49,1.09,0.5,2.01l-1.49,0.15
				c0-0.08,0.01-0.15,0.01-0.22c0-0.72-0.19-1.08-0.56-1.08h-0.03C471.32,70.95,471.05,71.16,470.95,71.56z"/>
			<path class="st4" d="M475.39,67.34l1.53-0.1v2.22l1.28-0.03l0.02,1.27l-1.3,0.06v3.06c0,0.71,0.3,1.07,0.91,1.07
				c0.13,0,0.26-0.02,0.41-0.05l-0.06,1.48c-0.22,0.03-0.42,0.04-0.61,0.04c-1.42,0-2.14-0.73-2.16-2.19v-3.29l-1.1,0.07l-0.03-1.5
				l1.13,0.01L475.39,67.34z"/>
			<path class="st4" d="M481.38,69.29c1.47,0.08,2.21,0.82,2.21,2.22v4.77l-1.57,0.03l-0.05-0.64c-0.32,0.37-0.75,0.55-1.28,0.55
				c-0.23,0-0.47-0.04-0.74-0.11c-0.79-0.2-1.19-0.81-1.19-1.84c0-0.13,0.01-0.26,0.02-0.4c0.09-1.06,0.84-1.59,2.26-1.59
				c0.27,0,0.57,0.02,0.9,0.06v-0.78c0-0.63-0.2-0.95-0.6-0.95h-0.03c-0.03,0-0.06-0.01-0.09-0.01c-0.43,0-0.65,0.35-0.65,1.06v0.1
				l-1.6-0.13c0-1.56,0.75-2.35,2.26-2.35H481.38z M481.94,74.6v-1.18c-0.19-0.04-0.37-0.06-0.52-0.06c-0.41,0-0.69,0.14-0.83,0.41
				c-0.09,0.17-0.13,0.32-0.13,0.46c0,0.18,0.07,0.34,0.22,0.48c0.11,0.11,0.26,0.16,0.44,0.16
				C481.33,74.86,481.61,74.77,481.94,74.6z"/>
		</g>
		<g>
			<g>
				<path class="st9" d="M507.61,48.78c-0.06,0.05-0.12,0.08-0.2,0.1l-4.92,1.05c-0.25,0.05-0.49-0.11-0.54-0.35
					c-0.05-0.25,0.1-0.49,0.35-0.54l4.92-1.05c0.25-0.05,0.49,0.11,0.54,0.35C507.8,48.5,507.74,48.67,507.61,48.78z"/>
			</g>
			<g>
				<path class="st9" d="M458.06,46.22c-0.08-0.13-0.1-0.29-0.03-0.44c0.11-0.23,0.38-0.33,0.61-0.22l4.54,2.16
					c0.23,0.11,0.33,0.38,0.22,0.61c-0.11,0.23-0.38,0.33-0.61,0.22l-4.54-2.16C458.17,46.35,458.11,46.29,458.06,46.22z"/>
			</g>
			<g>
				<g>
					<path class="st9" d="M479.09,64.52l-1.84-0.28c-0.25-0.04-0.42-0.27-0.38-0.52c0.04-0.25,0.28-0.42,0.52-0.38l0.93,0.14
						l0.51-3.34l2.21,0.03c0.25,0,0.46,0.21,0.45,0.46c0,0.25-0.21,0.45-0.46,0.45c0,0,0,0-0.01,0l-1.41-0.02L479.09,64.52z"/>
				</g>
			</g>
			<g>
				<g>
					<path class="st9" d="M483.65,64.59l-1.84-0.29c-0.25-0.04-0.42-0.27-0.38-0.52c0.04-0.25,0.27-0.42,0.52-0.38l0.93,0.14
						l0.51-3.34l2.21,0.03c0.25,0,0.46,0.21,0.45,0.46c0,0.25-0.21,0.45-0.46,0.45c0,0,0,0-0.01,0l-1.41-0.02L483.65,64.59z"/>
				</g>
			</g>
		</g>
		<g>
			<g>
				<g>
					
						<rect x="462.38" y="34.41" transform="matrix(0.9983 0.0591 -0.0591 0.9983 3.6776 -28.4269)" class="st10" width="40.82" height="27.19"/>
					<polygon class="st11" points="502.37,62.76 461.62,60.35 482.74,46.36 					"/>
					<polygon class="st9" points="463.16,33.18 503.92,35.59 482.75,49.91 					"/>
				</g>
			</g>
			<g>
				<g>
					<path d="M476.85,49.11c-0.19,3.21,2.24,5.97,5.45,6.16c3.21,0.19,6-2.26,6.19-5.48L476.85,49.11z"/>
					<path class="st12" d="M486.08,54.17c0,0-0.84-2.51-3.53-2.85c-2.69-0.34-4.36,1.88-4.36,1.88s2.73,3.66,7.21,1.4
						C485.62,54.5,485.87,54.32,486.08,54.17z"/>
				</g>
				<g>
					<g>
						<path d="M487.95,44.89c-0.08,0-0.16-0.03-0.22-0.08c-0.06-0.05-1.36-1.11-2.38-0.15c-0.14,0.13-0.36,0.12-0.49-0.02
							c-0.13-0.14-0.12-0.36,0.02-0.49c1.18-1.11,2.67-0.4,3.3,0.13c0.14,0.12,0.16,0.34,0.04,0.48
							C488.15,44.85,488.05,44.89,487.95,44.89z"/>
					</g>
				</g>
				<g>
					<g>
						<path d="M480.9,44.51c-0.1,0-0.2-0.04-0.26-0.12c-0.91-1.08-2.32-0.17-2.38-0.13c-0.16,0.1-0.37,0.06-0.48-0.1
							c-0.1-0.16-0.06-0.37,0.1-0.48c0.68-0.45,2.25-0.98,3.29,0.26c0.12,0.15,0.1,0.36-0.04,0.48
							C481.05,44.48,480.98,44.51,480.9,44.51z"/>
					</g>
				</g>
			</g>
		</g>
	</g>
</g>
<g id="Capa_6">
	<g>
		<ellipse class="st0" cx="559.87" cy="50.05" rx="35.21" ry="33.87"/>
		
			<image style="overflow:visible;" width="227" height="91" xlink:href="11F0127ECFB95CD8.png"  transform="matrix(0.2411 0 0 0.2411 532.2518 61.2921)">
		</image>
		<path class="st1" d="M572.5,20.79"/>
		<g>
			<g>
				<path class="st2" d="M561.13,16.3"/>
			</g>
		</g>
		<g class="st3">
			
				<image style="overflow:visible;opacity:0.2;" width="193" height="193" xlink:href="11F0127ECFB95CDB.png"  transform="matrix(1 0 0 1 463.0357 -45.5516)">
			</image>
			<g>
				
					<image style="overflow:visible;" width="294" height="294" xlink:href="11F0127ECFB95CD9.png"  transform="matrix(0.2435 0 0 0.2429 523.7448 15.28)">
				</image>
			</g>
		</g>
		<circle class="st4" cx="556.5" cy="22.67" r="0.3"/>
		<g class="st5">
			<g class="st6">
				<path class="st4" d="M582.27,26.03c1.45,1.43,2.66,3.1,3.73,4.85c0.54,0.88,1.02,1.79,1.47,2.71c0.22,0.47,0.43,0.94,0.65,1.41
					l0.57,1.44l0.14,0.36l0.12,0.37l0.24,0.74l0.24,0.74c0.08,0.25,0.13,0.5,0.2,0.75c0.13,0.5,0.26,1,0.38,1.51l0.29,1.53
					c0.05,0.26,0.1,0.51,0.14,0.77l0.09,0.78l0.17,1.55l0.06,1.56l0.03,0.78c0.01,0.26-0.01,0.52-0.02,0.78l-0.07,1.56
					c0,0.26-0.05,0.52-0.07,0.78l-0.09,0.78c-0.1,1.04-0.31,2.06-0.5,3.08c-0.1,0.51-0.24,1.01-0.36,1.51l-0.19,0.75
					c-0.06,0.25-0.15,0.49-0.22,0.74l-0.46,1.48l-0.53,1.45c-0.74,1.92-1.6,3.79-2.6,5.57c-0.26,0.44-0.51,0.89-0.77,1.32
					c-0.28,0.43-0.53,0.87-0.83,1.29c-0.57,0.85-1.16,1.68-1.82,2.45c1.76-3.65,3.21-7.4,4.32-11.21c0.57-1.9,0.98-3.84,1.33-5.77
					c0.13-0.97,0.32-1.94,0.38-2.92c0.04-0.49,0.11-0.97,0.13-1.46l0.05-1.46c0.01-0.24,0.03-0.49,0.02-0.73l-0.02-0.73l-0.04-1.47
					l-0.12-1.46l-0.06-0.73l-0.1-0.73l-0.2-1.46l-0.28-1.44c-0.05-0.24-0.09-0.48-0.15-0.72l-0.18-0.72l-0.17-0.72l-0.09-0.36
					L586.99,37l-0.42-1.42l-0.48-1.41c-0.34-0.93-0.69-1.86-1.09-2.78c-0.38-0.92-0.82-1.82-1.26-2.72
					c-0.23-0.44-0.46-0.9-0.71-1.33C582.8,26.89,582.54,26.46,582.27,26.03z"/>
			</g>
			<path class="st4" d="M579.36,27.35l-0.22-0.13l0.2-0.05c0.1-0.03,0.16-0.13,0.14-0.24c-0.03-0.1-0.13-0.16-0.24-0.14l-0.57,0.15
				l-0.24-0.14l0.49-0.13c0.1-0.03,0.16-0.13,0.14-0.24c-0.03-0.1-0.13-0.16-0.24-0.14l-0.86,0.23l-0.52-0.3l0.52-0.3l0.86,0.23
				c0.1,0.03,0.21-0.03,0.24-0.14c0.03-0.1-0.03-0.21-0.14-0.24l-0.49-0.13l0.24-0.14l0.57,0.15c0.1,0.03,0.21-0.03,0.24-0.14
				c0.03-0.1-0.03-0.21-0.14-0.24l-0.2-0.05l0.22-0.13c0.09-0.05,0.12-0.17,0.07-0.26c-0.05-0.09-0.17-0.12-0.26-0.07l-0.22,0.13
				l0.05-0.2c0.03-0.1-0.03-0.21-0.14-0.24c-0.1-0.03-0.21,0.03-0.24,0.14l-0.15,0.57l-0.24,0.14l0.13-0.49
				c0.03-0.1-0.03-0.21-0.14-0.24c-0.1-0.03-0.21,0.03-0.24,0.14l-0.23,0.86l-0.52,0.3v-0.6l0.63-0.63c0.08-0.08,0.08-0.2,0-0.27
				c-0.08-0.08-0.2-0.08-0.27,0l-0.36,0.36v-0.28l0.42-0.42c0.08-0.08,0.08-0.2,0-0.27c-0.08-0.08-0.2-0.08-0.27,0l-0.14,0.14v-0.25
				c0-0.11-0.09-0.19-0.19-0.19s-0.19,0.09-0.19,0.19v0.25l-0.14-0.14c-0.08-0.08-0.2-0.08-0.27,0c-0.08,0.08-0.08,0.2,0,0.27
				l0.42,0.42v0.28l-0.36-0.36c-0.08-0.08-0.2-0.08-0.27,0c-0.08,0.08-0.08,0.2,0,0.27l0.63,0.63v0.6l-0.52-0.3l-0.23-0.86
				c-0.03-0.1-0.13-0.16-0.24-0.14c-0.1,0.03-0.16,0.13-0.14,0.24l0.13,0.49l-0.24-0.14l-0.15-0.57c-0.03-0.1-0.13-0.16-0.24-0.14
				c-0.1,0.03-0.16,0.13-0.14,0.24l0.05,0.2l-0.22-0.13c-0.09-0.05-0.21-0.02-0.26,0.07c-0.05,0.09-0.02,0.21,0.07,0.26l0.22,0.13
				l-0.2,0.05c-0.1,0.03-0.16,0.13-0.14,0.24c0.03,0.1,0.13,0.16,0.24,0.14l0.57-0.15l0.24,0.14l-0.49,0.13
				c-0.1,0.03-0.16,0.13-0.14,0.24c0.03,0.1,0.13,0.16,0.24,0.14l0.86-0.23l0.52,0.3l-0.52,0.3l-0.86-0.23
				c-0.1-0.03-0.21,0.03-0.24,0.14c-0.03,0.1,0.03,0.21,0.14,0.24l0.49,0.13l-0.24,0.14l-0.57-0.15c-0.1-0.03-0.21,0.03-0.24,0.14
				c-0.03,0.1,0.03,0.21,0.14,0.24l0.2,0.05l-0.22,0.13c-0.09,0.05-0.12,0.17-0.07,0.26c0.05,0.09,0.17,0.12,0.26,0.07l0.22-0.13
				l-0.05,0.2c-0.03,0.1,0.03,0.21,0.14,0.24c0.1,0.03,0.21-0.03,0.24-0.14l0.15-0.57l0.24-0.14l-0.13,0.49
				c-0.03,0.1,0.03,0.21,0.14,0.24c0.1,0.03,0.21-0.03,0.24-0.14l0.23-0.86l0.52-0.3v0.6l-0.63,0.63c-0.08,0.08-0.08,0.2,0,0.27
				c0.08,0.08,0.2,0.08,0.27,0l0.36-0.36V28l-0.42,0.42c-0.08,0.08-0.08,0.2,0,0.27c0.08,0.08,0.2,0.08,0.27,0l0.14-0.14v0.25
				c0,0.11,0.09,0.19,0.19,0.19s0.19-0.09,0.19-0.19v-0.25l0.14,0.14c0.08,0.08,0.2,0.08,0.27,0c0.08-0.08,0.08-0.2,0-0.27
				L577.24,28v-0.28l0.36,0.36c0.08,0.08,0.2,0.08,0.27,0c0.08-0.08,0.08-0.2,0-0.27l-0.63-0.63v-0.6l0.52,0.3l0.23,0.86
				c0.03,0.1,0.13,0.16,0.24,0.14c0.1-0.03,0.16-0.13,0.14-0.24l-0.13-0.49l0.24,0.14l0.15,0.57c0.03,0.1,0.13,0.16,0.24,0.14
				c0.1-0.03,0.16-0.13,0.14-0.24l-0.05-0.2l0.22,0.13c0.09,0.05,0.21,0.02,0.26-0.07C579.48,27.53,579.45,27.41,579.36,27.35z"/>
			<circle class="st4" cx="563.78" cy="23.86" r="1.18"/>
			<circle class="st4" cx="535.17" cy="41.93" r="0.3"/>
			<circle class="st4" cx="551.23" cy="46.98" r="0.3"/>
			<circle class="st4" cx="558.28" cy="48.41" r="0.69"/>
			<circle class="st4" cx="537.4" cy="52.77" r="0.69"/>
			<circle class="st4" cx="556.6" cy="17.84" r="0.62"/>
			<circle class="st4" cx="549.03" cy="24.72" r="0.62"/>
			<circle class="st4" cx="553.06" cy="34.36" r="0.3"/>
			<circle class="st4" cx="539.76" cy="56.84" r="0.3"/>
			<circle class="st4" cx="532.88" cy="48.58" r="0.3"/>
			<circle class="st4" cx="538.38" cy="32.3" r="0.3"/>
			<circle class="st4" cx="537.92" cy="25.42" r="0.3"/>
			<circle class="st4" cx="570.49" cy="22.21" r="0.3"/>
			<circle class="st4" cx="528" cy="51.85" r="0.69"/>
			<circle class="st7" cx="558.07" cy="56.06" r="1.09"/>
			<circle class="st7" cx="546.88" cy="35.69" r="0.67"/>
			<circle class="st7" cx="542.83" cy="24.99" r="0.53"/>
			<circle class="st7" cx="562.56" cy="36" r="0.53"/>
			<circle class="st7" cx="544.67" cy="52.97" r="0.53"/>
			<circle class="st7" cx="527.55" cy="50.54" r="0.61"/>
		</g>
		<polygon class="st8" points="517.25,57.51 562.91,59.85 597.99,61.58 597.89,83.14 518.16,85.38 		"/>
		<g>
			<path class="st4" d="M531.24,76.1c-0.55-3.02-1.19-6.18-1.94-9.47l1.96-0.2l1.15,7.36c0.59-2.58,1.07-4.91,1.44-6.99l1.86,0.23
				c-0.94,4.06-1.64,7.06-2.1,9L531.24,76.1z"/>
			<path class="st4" d="M538.05,69.49c1.55,0,2.33,1.03,2.33,3.1c0,0.25-0.01,0.52-0.03,0.81h-3c0,1.15,0.22,1.73,0.67,1.73h0.05
				c0.39-0.03,0.58-0.33,0.58-0.89c0-0.12-0.01-0.26-0.03-0.4l1.6-0.03c0,1.71-0.75,2.57-2.24,2.59c-0.02,0-0.03,0.01-0.05,0.01
				c-1.42,0-2.13-1.08-2.13-3.23v-0.2C535.85,70.65,536.6,69.49,538.05,69.49z M537.19,72.16h1.52V72c0-0.82-0.23-1.22-0.69-1.22
				C537.51,70.78,537.24,71.24,537.19,72.16z"/>
			<path class="st4" d="M542.68,71.57l0.07,4.87l-1.65,0.01c0-2.06-0.07-4.37-0.21-6.94l1.24-0.13l0.07,1.1
				c0.19-0.54,0.63-0.84,1.32-0.92c0.1-0.01,0.2-0.01,0.3-0.01c0.54,0,0.95,0.18,1.24,0.53c0.33,0.42,0.49,1.09,0.5,2.01l-1.49,0.15
				c0-0.08,0.01-0.15,0.01-0.22c0-0.72-0.19-1.08-0.56-1.08h-0.03C543.04,70.96,542.77,71.17,542.68,71.57z"/>
			<path class="st4" d="M549.58,69.35l0.03,1.08c0.24-0.52,0.52-0.84,0.84-0.96c0.19-0.07,0.38-0.11,0.57-0.11
				c0.14,0,0.29,0.02,0.43,0.05c0.35,0.09,0.6,0.45,0.75,1.08c0.12-0.49,0.32-0.81,0.6-0.98c0.29-0.16,0.6-0.25,0.95-0.25h0.03
				c0.34,0,0.67,0.08,0.98,0.25c0.32,0.17,0.56,0.49,0.73,0.96c0.17,0.47,0.26,1.11,0.27,1.93v3.9l-1.45,0.03
				c0.06-1.47,0.09-2.73,0.09-3.76s-0.2-1.59-0.59-1.67c-0.06-0.01-0.11-0.01-0.17-0.01c-0.31,0-0.56,0.2-0.73,0.6
				c-0.03,0.47-0.04,1.01-0.04,1.63c0,0.85,0.02,1.83,0.07,2.96l-1.68,0.01c0.06-1.73,0.09-3,0.09-3.79v-0.08
				c0-0.78-0.16-1.2-0.46-1.24h-0.09c-0.27,0-0.54,0.16-0.79,0.47l0.01,4.92l-1.59,0.06v-1.1c0-1.95-0.03-3.9-0.09-5.85
				L549.58,69.35z"/>
			<path class="st4" d="M558.04,67.95c0,0.27-0.1,0.51-0.29,0.7s-0.43,0.29-0.7,0.29c-0.27,0-0.5-0.1-0.69-0.29
				c-0.19-0.19-0.29-0.43-0.29-0.7c0-0.27,0.1-0.5,0.29-0.69c0.19-0.19,0.42-0.29,0.69-0.29c0.27,0,0.51,0.1,0.7,0.29
				S558.04,67.68,558.04,67.95z M556.23,76.43c-0.03-2.62-0.05-4.88-0.05-6.79l1.69-0.1c-0.05,1.83-0.08,3.64-0.08,5.45
				c0,0.48,0,0.97,0.01,1.44H556.23z"/>
			<path class="st4" d="M563.66,73.62l1.6,0.1c0,1.62-0.75,2.44-2.24,2.46c-0.02,0-0.03,0.01-0.05,0.01c-1.42,0-2.13-1.08-2.13-3.23
				v-0.2c0.04-2.31,0.8-3.48,2.27-3.5h0.05c1.35,0,2.03,0.77,2.03,2.32c0,0.09,0,0.18-0.01,0.27l-1.44,0.11V71.8
				c0-0.82-0.23-1.22-0.69-1.22c-0.47,0-0.71,0.66-0.71,1.98v0.22c0.03,1.43,0.26,2.14,0.71,2.14h0.04
				c0.39-0.03,0.58-0.33,0.58-0.89C563.69,73.91,563.68,73.77,563.66,73.62z"/>
			<path class="st4" d="M568.42,69.3c1.47,0.08,2.21,0.82,2.21,2.22v4.77l-1.57,0.03l-0.05-0.64c-0.32,0.37-0.75,0.55-1.28,0.55
				c-0.23,0-0.47-0.04-0.74-0.11c-0.79-0.2-1.19-0.81-1.19-1.84c0-0.13,0.01-0.26,0.02-0.4c0.09-1.06,0.84-1.59,2.26-1.59
				c0.27,0,0.57,0.02,0.9,0.06v-0.78c0-0.63-0.2-0.95-0.6-0.95h-0.03c-0.03,0-0.06-0.01-0.09-0.01c-0.43,0-0.65,0.35-0.65,1.06v0.1
				l-1.6-0.13c0-1.56,0.75-2.35,2.26-2.35H568.42z M568.98,74.61v-1.18c-0.19-0.04-0.37-0.06-0.52-0.06c-0.41,0-0.69,0.14-0.83,0.41
				c-0.09,0.17-0.13,0.32-0.13,0.46c0,0.18,0.07,0.34,0.22,0.48c0.11,0.11,0.26,0.16,0.44,0.16
				C568.37,74.87,568.65,74.78,568.98,74.61z"/>
			<path class="st4" d="M572.95,71.57l0.07,4.87l-1.65,0.01c0-2.06-0.07-4.37-0.21-6.94l1.24-0.13l0.07,1.1
				c0.19-0.54,0.63-0.84,1.32-0.92c0.1-0.01,0.2-0.01,0.3-0.01c0.54,0,0.95,0.18,1.24,0.53c0.33,0.42,0.49,1.09,0.5,2.01l-1.49,0.15
				c0-0.08,0.01-0.15,0.01-0.22c0-0.72-0.19-1.08-0.56-1.08h-0.03C573.32,70.96,573.05,71.17,572.95,71.57z"/>
			<path class="st4" d="M577.39,67.35l1.53-0.1v2.22l1.28-0.03l0.02,1.27l-1.3,0.06v3.06c0,0.71,0.3,1.07,0.91,1.07
				c0.13,0,0.26-0.02,0.41-0.05l-0.06,1.48c-0.22,0.03-0.42,0.04-0.61,0.04c-1.42,0-2.14-0.73-2.16-2.19v-3.29l-1.1,0.07l-0.03-1.5
				l1.13,0.01L577.39,67.35z"/>
			<path class="st4" d="M583.37,69.3c1.47,0.08,2.21,0.82,2.21,2.22v4.77l-1.57,0.03l-0.05-0.64c-0.32,0.37-0.75,0.55-1.28,0.55
				c-0.23,0-0.47-0.04-0.74-0.11c-0.79-0.2-1.19-0.81-1.19-1.84c0-0.13,0.01-0.26,0.02-0.4c0.09-1.06,0.84-1.59,2.26-1.59
				c0.27,0,0.57,0.02,0.9,0.06v-0.78c0-0.63-0.2-0.95-0.6-0.95h-0.03c-0.03,0-0.06-0.01-0.09-0.01c-0.43,0-0.65,0.35-0.65,1.06v0.1
				l-1.6-0.13c0-1.56,0.75-2.35,2.26-2.35H583.37z M583.94,74.61v-1.18c-0.19-0.04-0.37-0.06-0.52-0.06c-0.41,0-0.69,0.14-0.83,0.41
				c-0.09,0.17-0.13,0.32-0.13,0.46c0,0.18,0.07,0.34,0.22,0.48c0.11,0.11,0.26,0.16,0.44,0.16
				C583.33,74.87,583.61,74.78,583.94,74.61z"/>
		</g>
		<g>
			<g>
				<path class="st9" d="M609.61,48.77c-0.06,0.05-0.12,0.08-0.2,0.1l-4.92,1.05c-0.25,0.05-0.49-0.11-0.54-0.35
					c-0.05-0.25,0.1-0.49,0.35-0.54l4.92-1.05c0.25-0.05,0.49,0.11,0.54,0.35C609.8,48.5,609.73,48.67,609.61,48.77z"/>
			</g>
			<g>
				<path class="st9" d="M560.29,48.41c-0.15-0.03-0.28-0.13-0.34-0.29c-0.09-0.24,0.03-0.5,0.26-0.59l4.7-1.81
					c0.24-0.09,0.5,0.03,0.59,0.26c0.09,0.24-0.03,0.5-0.26,0.59l-4.7,1.81C560.46,48.42,560.37,48.42,560.29,48.41z"/>
			</g>
			<g>
				<g>
					<path class="st9" d="M581.09,64.51l-1.84-0.28c-0.25-0.04-0.42-0.27-0.38-0.52c0.04-0.25,0.28-0.42,0.52-0.38l0.93,0.14
						l0.51-3.34l2.21,0.03c0.25,0,0.46,0.21,0.45,0.46c0,0.25-0.21,0.45-0.46,0.45c0,0,0,0-0.01,0l-1.41-0.02L581.09,64.51z"/>
				</g>
			</g>
			<g>
				<g>
					<path class="st9" d="M585.64,64.59l-1.84-0.29c-0.25-0.04-0.42-0.27-0.38-0.52c0.04-0.25,0.27-0.42,0.52-0.38l0.93,0.14
						l0.51-3.34l2.21,0.03c0.25,0,0.46,0.21,0.45,0.46c0,0.25-0.21,0.45-0.46,0.45c0,0,0,0-0.01,0l-1.41-0.02L585.64,64.59z"/>
				</g>
			</g>
		</g>
		<g>
			<g>
				<g>
					
						<rect x="564.38" y="34.41" transform="matrix(0.9983 0.0591 -0.0591 0.9983 3.8553 -34.4503)" class="st10" width="40.82" height="27.19"/>
					<polygon class="st11" points="604.37,62.76 563.62,60.35 584.74,46.36 					"/>
					<polygon class="st9" points="565.16,33.18 605.91,35.59 584.74,49.91 					"/>
				</g>
			</g>
			<g>
				<g>
					<path d="M578.84,49.1c-0.19,3.21,2.24,5.97,5.45,6.16c3.21,0.19,6-2.26,6.19-5.48L578.84,49.1z"/>
					<path class="st12" d="M588.08,54.17c0,0-0.84-2.51-3.53-2.85s-4.36,1.88-4.36,1.88s2.73,3.66,7.21,1.4
						C587.62,54.49,587.87,54.31,588.08,54.17z"/>
				</g>
				<g>
					<g>
						<path d="M589.95,44.89c-0.08,0-0.16-0.03-0.22-0.08c-0.06-0.05-1.36-1.11-2.38-0.15c-0.14,0.13-0.36,0.12-0.49-0.02
							c-0.13-0.14-0.12-0.36,0.02-0.49c1.18-1.11,2.67-0.4,3.3,0.13c0.14,0.12,0.16,0.34,0.04,0.48
							C590.15,44.85,590.05,44.89,589.95,44.89z"/>
					</g>
				</g>
				<g>
					<g>
						<path d="M582.9,44.5c-0.1,0-0.2-0.04-0.26-0.12c-0.91-1.08-2.32-0.17-2.38-0.13c-0.16,0.1-0.37,0.06-0.48-0.1
							c-0.1-0.16-0.06-0.37,0.1-0.48c0.68-0.45,2.25-0.98,3.29,0.26c0.12,0.15,0.1,0.36-0.04,0.48
							C583.05,44.48,582.97,44.5,582.9,44.5z"/>
					</g>
				</g>
			</g>
		</g>
	</g>
</g>
<g id="Capa_7">
	<g>
		<ellipse class="st0" cx="661.85" cy="49.98" rx="35.21" ry="33.87"/>
		
			<image style="overflow:visible;" width="227" height="91" xlink:href="11F0127ECFB95CDF.png"  transform="matrix(0.2411 0 0 0.2411 634.2401 61.2218)">
		</image>
		<path class="st1" d="M674.49,20.72"/>
		<g>
			<g>
				<path class="st2" d="M663.11,16.23"/>
			</g>
		</g>
		<g class="st3">
			
				<image style="overflow:visible;opacity:0.2;" width="193" height="192" xlink:href="11F0127ECFB95CF3.png"  transform="matrix(1 0 0 1 565 -45)">
			</image>
			<g>
				
					<image style="overflow:visible;" width="294" height="294" xlink:href="11F0127ECFB95CFD.png"  transform="matrix(0.2435 0 0 0.2429 625.7332 15.2097)">
				</image>
			</g>
		</g>
		<circle class="st4" cx="658.49" cy="22.59" r="0.3"/>
		<g class="st5">
			<g class="st6">
				<path class="st4" d="M684.26,25.96c1.45,1.43,2.66,3.1,3.73,4.85c0.54,0.88,1.02,1.79,1.47,2.71c0.22,0.47,0.43,0.94,0.65,1.41
					l0.57,1.44l0.14,0.36l0.12,0.37l0.24,0.74l0.24,0.74c0.08,0.25,0.13,0.5,0.2,0.75c0.13,0.5,0.26,1,0.38,1.51l0.29,1.53
					c0.05,0.26,0.1,0.51,0.14,0.77l0.09,0.78l0.17,1.55l0.06,1.56l0.03,0.78c0.01,0.26-0.01,0.52-0.02,0.78l-0.07,1.56
					c0,0.26-0.05,0.52-0.07,0.78l-0.09,0.78c-0.1,1.04-0.31,2.06-0.5,3.08c-0.1,0.51-0.24,1.01-0.36,1.51l-0.19,0.75
					c-0.06,0.25-0.15,0.49-0.22,0.74l-0.46,1.48l-0.53,1.45c-0.74,1.92-1.6,3.79-2.6,5.57c-0.26,0.44-0.51,0.89-0.77,1.32
					c-0.28,0.43-0.53,0.87-0.83,1.29c-0.57,0.85-1.16,1.68-1.82,2.45c1.76-3.65,3.21-7.4,4.32-11.21c0.57-1.9,0.98-3.84,1.33-5.77
					c0.13-0.97,0.32-1.94,0.38-2.92c0.04-0.49,0.11-0.97,0.13-1.46l0.05-1.46c0.01-0.24,0.03-0.49,0.02-0.73l-0.02-0.73l-0.04-1.47
					l-0.12-1.46l-0.06-0.73l-0.1-0.73l-0.2-1.46l-0.28-1.44c-0.05-0.24-0.09-0.48-0.15-0.72l-0.18-0.72l-0.17-0.72l-0.09-0.36
					l-0.11-0.35l-0.42-1.42l-0.48-1.41c-0.34-0.93-0.69-1.86-1.09-2.78c-0.38-0.92-0.82-1.82-1.26-2.72
					c-0.23-0.44-0.46-0.9-0.71-1.33C684.79,26.82,684.53,26.39,684.26,25.96z"/>
			</g>
			<path class="st4" d="M681.34,27.28l-0.22-0.13l0.2-0.05c0.1-0.03,0.16-0.13,0.14-0.24c-0.03-0.1-0.13-0.16-0.24-0.14l-0.57,0.15
				l-0.24-0.14l0.49-0.13c0.1-0.03,0.16-0.13,0.14-0.24c-0.03-0.1-0.13-0.16-0.24-0.14l-0.86,0.23l-0.52-0.3l0.52-0.3l0.86,0.23
				c0.1,0.03,0.21-0.03,0.24-0.14c0.03-0.1-0.03-0.21-0.14-0.24l-0.49-0.13l0.24-0.14l0.57,0.15c0.1,0.03,0.21-0.03,0.24-0.14
				c0.03-0.1-0.03-0.21-0.14-0.24l-0.2-0.05l0.22-0.13c0.09-0.05,0.12-0.17,0.07-0.26c-0.05-0.09-0.17-0.12-0.26-0.07l-0.22,0.13
				l0.05-0.2c0.03-0.1-0.03-0.21-0.14-0.24c-0.1-0.03-0.21,0.03-0.24,0.14l-0.15,0.57l-0.24,0.14l0.13-0.49
				c0.03-0.1-0.03-0.21-0.14-0.24c-0.1-0.03-0.21,0.03-0.24,0.14l-0.23,0.86l-0.52,0.3v-0.6l0.63-0.63c0.08-0.08,0.08-0.2,0-0.27
				c-0.08-0.08-0.2-0.08-0.27,0l-0.36,0.36v-0.28l0.42-0.42c0.08-0.08,0.08-0.2,0-0.27c-0.08-0.08-0.2-0.08-0.27,0l-0.14,0.14v-0.25
				c0-0.11-0.09-0.19-0.19-0.19c-0.11,0-0.19,0.09-0.19,0.19v0.25l-0.14-0.14c-0.08-0.08-0.2-0.08-0.27,0
				c-0.08,0.08-0.08,0.2,0,0.27l0.42,0.42v0.28l-0.36-0.36c-0.08-0.08-0.2-0.08-0.27,0c-0.08,0.08-0.08,0.2,0,0.27l0.63,0.63v0.6
				l-0.52-0.3l-0.23-0.86c-0.03-0.1-0.13-0.16-0.24-0.14c-0.1,0.03-0.16,0.13-0.14,0.24l0.13,0.49l-0.24-0.14l-0.15-0.57
				c-0.03-0.1-0.13-0.16-0.24-0.14c-0.1,0.03-0.16,0.13-0.14,0.24l0.05,0.2l-0.22-0.13c-0.09-0.05-0.21-0.02-0.26,0.07
				s-0.02,0.21,0.07,0.26l0.22,0.13l-0.2,0.05c-0.1,0.03-0.16,0.13-0.14,0.24c0.03,0.1,0.13,0.16,0.24,0.14l0.57-0.15l0.24,0.14
				l-0.49,0.13c-0.1,0.03-0.16,0.13-0.14,0.24c0.03,0.1,0.13,0.16,0.24,0.14l0.86-0.23l0.52,0.3l-0.52,0.3l-0.86-0.23
				c-0.1-0.03-0.21,0.03-0.24,0.14c-0.03,0.1,0.03,0.21,0.14,0.24l0.49,0.13l-0.24,0.14l-0.57-0.15c-0.1-0.03-0.21,0.03-0.24,0.14
				c-0.03,0.1,0.03,0.21,0.14,0.24l0.2,0.05l-0.22,0.13c-0.09,0.05-0.12,0.17-0.07,0.26c0.05,0.09,0.17,0.12,0.26,0.07l0.22-0.13
				l-0.05,0.2c-0.03,0.1,0.03,0.21,0.14,0.24c0.1,0.03,0.21-0.03,0.24-0.14l0.15-0.57l0.24-0.14l-0.13,0.49
				c-0.03,0.1,0.03,0.21,0.14,0.24c0.1,0.03,0.21-0.03,0.24-0.14l0.23-0.86l0.52-0.3v0.6l-0.63,0.63c-0.08,0.08-0.08,0.2,0,0.27
				s0.2,0.08,0.27,0l0.36-0.36v0.28l-0.42,0.42c-0.08,0.08-0.08,0.2,0,0.27c0.08,0.08,0.2,0.08,0.27,0l0.14-0.14v0.25
				c0,0.11,0.09,0.19,0.19,0.19c0.11,0,0.19-0.09,0.19-0.19v-0.25l0.14,0.14c0.08,0.08,0.2,0.08,0.27,0c0.08-0.08,0.08-0.2,0-0.27
				l-0.42-0.42v-0.28l0.36,0.36c0.08,0.08,0.2,0.08,0.27,0s0.08-0.2,0-0.27l-0.63-0.63v-0.6l0.52,0.3l0.23,0.86
				c0.03,0.1,0.13,0.16,0.24,0.14c0.1-0.03,0.16-0.13,0.14-0.24l-0.13-0.49l0.24,0.14l0.15,0.57c0.03,0.1,0.13,0.16,0.24,0.14
				c0.1-0.03,0.16-0.13,0.14-0.24l-0.05-0.2l0.22,0.13c0.09,0.05,0.21,0.02,0.26-0.07C681.47,27.46,681.44,27.34,681.34,27.28z"/>
			<circle class="st4" cx="665.77" cy="23.79" r="1.18"/>
			<circle class="st4" cx="637.16" cy="41.86" r="0.3"/>
			<circle class="st4" cx="653.21" cy="46.91" r="0.3"/>
			<circle class="st4" cx="660.26" cy="48.34" r="0.69"/>
			<circle class="st4" cx="639.39" cy="52.7" r="0.69"/>
			<circle class="st4" cx="658.59" cy="17.77" r="0.62"/>
			<circle class="st4" cx="651.02" cy="24.65" r="0.62"/>
			<circle class="st4" cx="655.05" cy="34.29" r="0.3"/>
			<circle class="st4" cx="641.75" cy="56.77" r="0.3"/>
			<circle class="st4" cx="634.87" cy="48.51" r="0.3"/>
			<circle class="st4" cx="640.37" cy="32.23" r="0.3"/>
			<circle class="st4" cx="639.91" cy="25.35" r="0.3"/>
			<circle class="st4" cx="672.48" cy="22.14" r="0.3"/>
			<circle class="st4" cx="629.99" cy="51.78" r="0.69"/>
			<circle class="st7" cx="660.06" cy="55.99" r="1.09"/>
			<circle class="st7" cx="648.87" cy="35.62" r="0.67"/>
			<circle class="st7" cx="644.82" cy="24.92" r="0.53"/>
			<circle class="st7" cx="664.54" cy="35.93" r="0.53"/>
			<circle class="st7" cx="646.66" cy="52.9" r="0.53"/>
			<circle class="st7" cx="629.54" cy="50.47" r="0.61"/>
		</g>
		<polygon class="st8" points="619.24,57.43 664.9,59.77 699.98,61.49 699.88,83.05 620.15,85.29 		"/>
		<g>
			<path class="st4" d="M633.23,76.01c-0.55-3.02-1.19-6.18-1.94-9.47l1.96-0.2l1.15,7.36c0.59-2.58,1.07-4.91,1.44-6.99l1.86,0.23
				c-0.94,4.06-1.64,7.06-2.1,9L633.23,76.01z"/>
			<path class="st4" d="M640.04,69.41c1.55,0,2.33,1.03,2.33,3.1c0,0.25-0.01,0.52-0.03,0.81h-3c0,1.15,0.22,1.73,0.67,1.73h0.05
				c0.39-0.03,0.58-0.33,0.58-0.89c0-0.12-0.01-0.26-0.03-0.4l1.6-0.03c0,1.71-0.75,2.57-2.24,2.59c-0.02,0-0.03,0.01-0.05,0.01
				c-1.42,0-2.13-1.08-2.13-3.23v-0.2C637.83,70.56,638.58,69.41,640.04,69.41z M639.17,72.07h1.52v-0.16
				c0-0.82-0.23-1.22-0.69-1.22C639.5,70.69,639.23,71.15,639.17,72.07z"/>
			<path class="st4" d="M644.66,71.49l0.07,4.87l-1.65,0.01c0-2.06-0.07-4.37-0.21-6.94l1.24-0.13l0.07,1.1
				c0.19-0.54,0.63-0.84,1.32-0.92c0.1-0.01,0.2-0.01,0.3-0.01c0.54,0,0.95,0.18,1.24,0.53c0.33,0.42,0.49,1.09,0.5,2.01l-1.49,0.15
				c0-0.08,0.01-0.15,0.01-0.22c0-0.72-0.19-1.08-0.56-1.08h-0.03C645.03,70.87,644.76,71.09,644.66,71.49z"/>
			<path class="st4" d="M651.56,69.27l0.03,1.08c0.24-0.52,0.52-0.84,0.84-0.96c0.19-0.07,0.38-0.11,0.57-0.11
				c0.14,0,0.29,0.02,0.43,0.05c0.35,0.09,0.6,0.45,0.75,1.08c0.12-0.49,0.32-0.81,0.6-0.98c0.29-0.16,0.6-0.25,0.95-0.25h0.03
				c0.34,0,0.67,0.08,0.98,0.25c0.32,0.17,0.56,0.49,0.73,0.96c0.17,0.47,0.26,1.11,0.27,1.93v3.9l-1.45,0.03
				c0.06-1.47,0.09-2.73,0.09-3.76s-0.2-1.59-0.59-1.67c-0.06-0.01-0.11-0.01-0.17-0.01c-0.31,0-0.56,0.2-0.73,0.6
				c-0.03,0.47-0.04,1.01-0.04,1.63c0,0.85,0.02,1.83,0.07,2.96L653.24,76c0.06-1.73,0.09-3,0.09-3.79v-0.08
				c0-0.78-0.16-1.2-0.46-1.24h-0.09c-0.27,0-0.54,0.16-0.79,0.47l0.01,4.92l-1.59,0.06v-1.1c0-1.95-0.03-3.9-0.09-5.85
				L651.56,69.27z"/>
			<path class="st4" d="M660.02,67.86c0,0.27-0.1,0.51-0.29,0.7c-0.19,0.19-0.43,0.29-0.7,0.29c-0.27,0-0.5-0.1-0.69-0.29
				s-0.29-0.43-0.29-0.7c0-0.27,0.1-0.5,0.29-0.69s0.42-0.29,0.69-0.29c0.27,0,0.51,0.1,0.7,0.29
				C659.93,67.36,660.02,67.59,660.02,67.86z M658.22,76.34c-0.03-2.62-0.05-4.88-0.05-6.79l1.69-0.1
				c-0.05,1.83-0.08,3.64-0.08,5.45c0,0.48,0,0.97,0.01,1.44H658.22z"/>
			<path class="st4" d="M665.65,73.54l1.6,0.1c0,1.62-0.75,2.44-2.24,2.46c-0.02,0-0.03,0.01-0.05,0.01c-1.42,0-2.13-1.08-2.13-3.23
				v-0.2c0.04-2.31,0.8-3.48,2.27-3.5h0.05c1.35,0,2.03,0.77,2.03,2.32c0,0.09,0,0.18-0.01,0.27l-1.44,0.11v-0.16
				c0-0.82-0.23-1.22-0.69-1.22c-0.47,0-0.71,0.66-0.71,1.98v0.22c0.03,1.43,0.26,2.14,0.71,2.14h0.04
				c0.39-0.03,0.58-0.33,0.58-0.89C665.68,73.82,665.67,73.69,665.65,73.54z"/>
			<path class="st4" d="M670.41,69.21c1.47,0.08,2.21,0.82,2.21,2.22v4.77l-1.57,0.03L671,75.6c-0.32,0.37-0.75,0.55-1.28,0.55
				c-0.23,0-0.47-0.04-0.74-0.11c-0.79-0.2-1.19-0.81-1.19-1.84c0-0.13,0.01-0.26,0.02-0.4c0.09-1.06,0.84-1.59,2.26-1.59
				c0.27,0,0.57,0.02,0.9,0.06v-0.78c0-0.63-0.2-0.95-0.6-0.95h-0.03c-0.03,0-0.06-0.01-0.09-0.01c-0.43,0-0.65,0.35-0.65,1.06v0.1
				l-1.6-0.13c0-1.56,0.75-2.35,2.26-2.35H670.41z M670.97,74.52v-1.18c-0.19-0.04-0.37-0.06-0.52-0.06c-0.41,0-0.69,0.14-0.83,0.41
				c-0.09,0.17-0.13,0.32-0.13,0.46c0,0.18,0.07,0.34,0.22,0.48c0.11,0.11,0.26,0.16,0.44,0.16
				C670.36,74.79,670.64,74.7,670.97,74.52z"/>
			<path class="st4" d="M674.94,71.49l0.07,4.87l-1.65,0.01c0-2.06-0.07-4.37-0.21-6.94l1.24-0.13l0.07,1.1
				c0.19-0.54,0.63-0.84,1.32-0.92c0.1-0.01,0.2-0.01,0.3-0.01c0.54,0,0.95,0.18,1.24,0.53c0.33,0.42,0.49,1.09,0.5,2.01l-1.49,0.15
				c0-0.08,0.01-0.15,0.01-0.22c0-0.72-0.19-1.08-0.56-1.08h-0.03C675.3,70.87,675.04,71.09,674.94,71.49z"/>
			<path class="st4" d="M679.38,67.26l1.53-0.1v2.22l1.28-0.03l0.02,1.27l-1.3,0.06v3.06c0,0.71,0.3,1.07,0.91,1.07
				c0.13,0,0.26-0.02,0.41-0.05l-0.06,1.48c-0.22,0.03-0.42,0.04-0.61,0.04c-1.42,0-2.14-0.73-2.16-2.19V70.8l-1.1,0.07l-0.03-1.5
				l1.13,0.01L679.38,67.26z"/>
			<path class="st4" d="M685.36,69.21c1.47,0.08,2.21,0.82,2.21,2.22v4.77l-1.57,0.03l-0.05-0.64c-0.32,0.37-0.75,0.55-1.28,0.55
				c-0.23,0-0.47-0.04-0.74-0.11c-0.79-0.2-1.19-0.81-1.19-1.84c0-0.13,0.01-0.26,0.02-0.4c0.09-1.06,0.84-1.59,2.26-1.59
				c0.27,0,0.57,0.02,0.9,0.06v-0.78c0-0.63-0.2-0.95-0.6-0.95h-0.03c-0.03,0-0.06-0.01-0.09-0.01c-0.43,0-0.65,0.35-0.65,1.06v0.1
				l-1.6-0.13c0-1.56,0.75-2.35,2.26-2.35H685.36z M685.93,74.52v-1.18c-0.19-0.04-0.37-0.06-0.52-0.06c-0.41,0-0.69,0.14-0.83,0.41
				c-0.09,0.17-0.13,0.32-0.13,0.46c0,0.18,0.07,0.34,0.22,0.48c0.11,0.11,0.26,0.16,0.44,0.16
				C685.32,74.79,685.6,74.7,685.93,74.52z"/>
		</g>
		<g>
			<g>
				<path class="st9" d="M711.18,47.41c-0.03,0.07-0.07,0.13-0.13,0.18l-3.82,3.27c-0.19,0.16-0.48,0.14-0.65-0.05
					c-0.16-0.19-0.14-0.48,0.05-0.65l3.82-3.27c0.19-0.16,0.48-0.14,0.65,0.05C711.21,47.08,711.24,47.26,711.18,47.41z"/>
			</g>
			<g>
				<path class="st9" d="M662.53,45.25c-0.03-0.15,0.02-0.31,0.13-0.42c0.18-0.17,0.47-0.17,0.65,0.02l3.47,3.65
					c0.17,0.18,0.17,0.47-0.02,0.65c-0.18,0.17-0.47,0.17-0.65-0.02l-3.47-3.65C662.58,45.41,662.54,45.33,662.53,45.25z"/>
			</g>
			<g>
				<g>
					<path class="st9" d="M683.08,64.44l-1.84-0.28c-0.25-0.04-0.42-0.27-0.38-0.52c0.04-0.25,0.28-0.42,0.52-0.38l0.93,0.14
						l0.51-3.34l2.21,0.03c0.25,0,0.46,0.21,0.45,0.46c0,0.25-0.21,0.45-0.46,0.45c0,0,0,0-0.01,0l-1.41-0.02L683.08,64.44z"/>
				</g>
			</g>
			<g>
				<g>
					<path class="st9" d="M687.63,64.52l-1.84-0.29c-0.25-0.04-0.42-0.27-0.38-0.52c0.04-0.25,0.27-0.42,0.52-0.38l0.93,0.14
						l0.51-3.34l2.21,0.03c0.25,0,0.46,0.21,0.45,0.46c0,0.25-0.21,0.45-0.46,0.45c0,0,0,0-0.01,0l-1.41-0.02L687.63,64.52z"/>
				</g>
			</g>
		</g>
		<g>
			<g>
				<g>
					
						<rect x="666.37" y="34.34" transform="matrix(0.9983 0.0591 -0.0591 0.9983 4.0292 -40.4731)" class="st10" width="40.82" height="27.19"/>
					<polygon class="st11" points="706.36,62.69 665.61,60.28 686.73,46.29 					"/>
					<polygon class="st9" points="667.15,33.11 707.9,35.52 686.73,49.84 					"/>
				</g>
			</g>
			<g>
				<g>
					<path d="M680.83,49.03c-0.19,3.21,2.24,5.97,5.45,6.16c3.21,0.19,6-2.26,6.19-5.48L680.83,49.03z"/>
					<path class="st12" d="M690.07,54.1c0,0-0.84-2.51-3.53-2.85c-2.69-0.34-4.36,1.88-4.36,1.88s2.73,3.66,7.21,1.4
						C689.61,54.42,689.85,54.24,690.07,54.1z"/>
				</g>
				<g>
					<g>
						<path d="M691.94,44.82c-0.08,0-0.16-0.03-0.22-0.08c-0.06-0.05-1.36-1.11-2.38-0.15c-0.14,0.13-0.36,0.12-0.49-0.02
							c-0.13-0.14-0.12-0.36,0.02-0.49c1.18-1.11,2.67-0.4,3.3,0.13c0.14,0.12,0.16,0.34,0.04,0.48
							C692.14,44.78,692.04,44.82,691.94,44.82z"/>
					</g>
				</g>
				<g>
					<g>
						<path d="M684.88,44.43c-0.1,0-0.2-0.04-0.26-0.12c-0.91-1.08-2.32-0.17-2.38-0.13c-0.16,0.1-0.37,0.06-0.48-0.1
							c-0.1-0.16-0.06-0.37,0.1-0.48c0.68-0.45,2.25-0.98,3.29,0.26c0.12,0.15,0.1,0.36-0.04,0.48
							C685.04,44.4,684.96,44.43,684.88,44.43z"/>
					</g>
				</g>
			</g>
		</g>
	</g>
</g>
</svg>
