<svg id="Layer_1" data-name="Layer 1" xmlns="http://www.w3.org/2000/svg" width="800" height="100" viewBox="0 0 800 100">
  <defs>
    <style>
      .cls-1 {
        fill: #eaeef1;
      }

      .cls-2 {
        fill: #dbdbdb;
      }

      .cls-3 {
        fill: #375a64;
      }

      .cls-4, .cls-8 {
        fill: #ff932b;
      }

      .cls-5 {
        fill: #35cbf6;
      }

      .cls-6 {
        fill: #fff;
      }

      .cls-7 {
        fill: none;
      }

      .cls-8 {
        fill-rule: evenodd;
      }
    </style>
  </defs>
  <g>
    <path class="cls-1" d="M52.29,29.51a2.19,2.19,0,0,1-2.1,2.27,23.75,23.75,0,0,0-3.06.2,10.62,10.62,0,0,1-8.48,2.64,33.14,33.14,0,0,0-9.88,7.63,21.24,21.24,0,0,0,12.51,3.17l-.44-1.66a2.15,2.15,0,0,1,1.52-2.63L46.52,40a2.15,2.15,0,0,1,2.63,1.52l.44,1.66a21.35,21.35,0,0,0,11-13.57L50.28,26.91c0,.11-.06.22-.09.33h0A2.19,2.19,0,0,1,52.29,29.51Z"/>
    <path class="cls-1" d="M15,44.83q.29-.61.61-1.24C15.43,44,15.23,44.41,15,44.83Z"/>
    <path class="cls-1" d="M55.6,99.59l-.73.1Z"/>
    <path class="cls-1" d="M54.11,99.77l-1.09.1Z"/>
    <path class="cls-1" d="M48,99.94c-.42,0-.84-.06-1.25-.09Z"/>
    <path class="cls-1" d="M14.47,46.07l.21-.49Z"/>
    <path class="cls-1" d="M75.92,90l-.77.68Z"/>
    <path class="cls-1" d="M45.82,99.77h0Z"/>
    <path class="cls-1" d="M11.33,61s0-.07,0-.11S11.33,60.94,11.33,61Z"/>
    <path class="cls-1" d="M11.36,62.9s0-.09,0-.14S11.36,62.85,11.36,62.9Z"/>
    <path class="cls-1" d="M77.36,34,64.83,30.72a25.72,25.72,0,0,1-46.06,7.84,38.71,38.71,0,0,1,2.91-3.5,21.64,21.64,0,0,0,3.7,4.58c.33-.57.7-.84.27-.4a38.25,38.25,0,0,1,7.82-6.77,10.76,10.76,0,0,1-3.32-4.29A38.72,38.72,0,0,1,39.86,24a38.71,38.71,0,0,0-24,19.25C13.93,47.79,13.47,51.8,13.47,57a40,40,0,0,0,.7,7.45,24.63,24.63,0,0,1,3-1l.07,0a2.28,2.28,0,0,1-1.36-2.09A35,35,0,0,1,18.33,49a2.07,2.07,0,0,1,2.12-1.37,2.24,2.24,0,0,1,2,3.28,30.09,30.09,0,0,0-2,10.4,2.28,2.28,0,0,1-.61,1.54A25.75,25.75,0,0,1,48.61,95.56c1,.08,2.09.14,3.16.14a39.14,39.14,0,0,0,17.86-4.29,25.71,25.71,0,0,1,15.79-45.5A38.79,38.79,0,0,1,87,50.24a21.46,21.46,0,0,0-2.17,0l.44,1.66a2.15,2.15,0,0,1-1.52,2.63l-4.15,1.11A2.15,2.15,0,0,1,77,54.1l-.44-1.66A21.5,21.5,0,0,0,64.7,73l1.64-.44A2.15,2.15,0,0,1,69,74l1.11,4.15a2.15,2.15,0,0,1-1.52,2.63l-1.64.44a21.37,21.37,0,0,0,6.68,7.82,39.18,39.18,0,0,0,8.34-7.55,10.7,10.7,0,0,1,6.68-20.26,38.48,38.48,0,0,1-3.11,15.19l.15-.24a39.33,39.33,0,0,1-9.51,13.57A38.65,38.65,0,0,0,77.36,34ZM34.67,59a2.27,2.27,0,1,1,1.6-2.77A2.27,2.27,0,0,1,34.67,59ZM55.16,77.2a2.27,2.27,0,0,1-2.78-1.63A2.31,2.31,0,0,1,54,72.74a2.27,2.27,0,0,1,2.78,1.63A2.31,2.31,0,0,1,55.16,77.2Zm6.83-25a2.27,2.27,0,1,1,1.61-2.78A2.27,2.27,0,0,1,62,52.15Z"/>
    <path class="cls-1" d="M45.31,87l-1.65.44A2.15,2.15,0,0,1,41,86l-1.11-4.15a2.15,2.15,0,0,1,1.52-2.63l1.64-.44a21.5,21.5,0,0,0-20.5-11.85L23,68.55a2.15,2.15,0,0,1-1.52,2.63l-4.15,1.11a2.14,2.14,0,0,1-.82.05,38.51,38.51,0,0,0,3.22,6.08A10.05,10.05,0,0,1,21.1,78a10.71,10.71,0,0,1,13,13.49A37.8,37.8,0,0,0,44.29,95,21.35,21.35,0,0,0,45.31,87Z"/>
    <path class="cls-1" d="M48,99.94a38.37,38.37,0,0,0,4.93-.06Q51.47,100,50,100,49,100,48,99.94Z"/>
    <path class="cls-2" d="M85.67,76.22l-.15.24a38.78,38.78,0,0,1-2.79,5.38c-.27-.09-.52-.21-.78-.32a39.18,39.18,0,0,1-8.34,7.55,21.71,21.71,0,0,0,1.92,1.25,38.84,38.84,0,0,1-3.61,2.81,26.14,26.14,0,0,1-2.29-1.73,39.14,39.14,0,0,1-17.86,4.29c-1.07,0-2.12-.05-3.16-.14a26.11,26.11,0,0,1-1.68,4.28,38.31,38.31,0,0,1-4.53-.63A21.72,21.72,0,0,0,44.29,95a37.8,37.8,0,0,1-10.15-3.52,10.8,10.8,0,0,1-2.22,4,38.58,38.58,0,0,1-15.4-14.87,10.92,10.92,0,0,1,3.24-2.16,38.51,38.51,0,0,1-3.22-6.08,2.15,2.15,0,0,1-1.81-1.57l-.44-1.66a20.83,20.83,0,0,0-1.87,1.11,38.78,38.78,0,0,1-.79-4.54,27.42,27.42,0,0,1,2.54-1.21,40,40,0,0,1-.7-7.45c0-5.23.46-9.23,2.35-13.76l.05-.14-.23.47q-.31.62-.61,1.24l-.35.75-.21.49a35.87,35.87,0,0,0-3.14,14.8s0,.07,0,.11,0,.22,0,.34c0,.48,0,1,0,1.44,0,0,0,.09,0,.14A38.49,38.49,0,0,0,45.71,99.75h.11l.9.08c.42,0,.83.07,1.25.09h0q1,0,2,0,1.49,0,2.94-.11H53l1.09-.1.76-.09.73-.1a38.15,38.15,0,0,0,19.56-8.9l.77-.68.24-.22A39.33,39.33,0,0,0,85.67,76.22Z"/>
    <circle class="cls-3" cx="34.09" cy="56.78" r="2.27" transform="translate(-13.55 10.78) rotate(-15.02)"/>
    <circle class="cls-3" cx="61.4" cy="49.96" r="2.27" transform="matrix(0.97, -0.26, 0.26, 0.97, -10.85, 17.61)"/>
    <path class="cls-3" d="M54,72.74a2.31,2.31,0,0,0-1.61,2.82,2.27,2.27,0,0,0,2.78,1.63,2.31,2.31,0,0,0,1.61-2.82A2.27,2.27,0,0,0,54,72.74Z"/>
    <path class="cls-4" d="M49.59,43.2l-.44-1.66A2.15,2.15,0,0,0,46.52,40l-4.15,1.11a2.15,2.15,0,0,0-1.52,2.63l.44,1.66a21.24,21.24,0,0,1-12.51-3.17l-.17.18a1.6,1.6,0,0,1-1.51.7A2.19,2.19,0,0,1,25,40.86a2.52,2.52,0,0,1,.37-1.22,21.64,21.64,0,0,1-3.7-4.58,38.71,38.71,0,0,0-2.91,3.5,25.72,25.72,0,0,0,46.06-7.84l-4.19-1.1A21.35,21.35,0,0,1,49.59,43.2Z"/>
    <path class="cls-4" d="M12.42,70.23a20.83,20.83,0,0,1,1.87-1.11l.44,1.66a2.16,2.16,0,0,0,2.63,1.52l4.15-1.11A2.15,2.15,0,0,0,23,68.55l-.44-1.66a21.5,21.5,0,0,1,20.5,11.85l-1.64.44a2.15,2.15,0,0,0-1.52,2.63L41,86a2.15,2.15,0,0,0,2.63,1.52L45.31,87a21.35,21.35,0,0,1-1,7.93,21.72,21.72,0,0,1-1.9,4.23,38.31,38.31,0,0,0,4.53.63,26.11,26.11,0,0,0,1.68-4.28A25.75,25.75,0,0,0,19.84,62.88a2.23,2.23,0,0,1-2.57.54l-.07,0a24.63,24.63,0,0,0-3,1,27.42,27.42,0,0,0-2.54,1.21A38.78,38.78,0,0,0,12.42,70.23Z"/>
    <path class="cls-4" d="M75.53,90.32a21.71,21.71,0,0,1-1.92-1.25,21.37,21.37,0,0,1-6.68-7.82l1.64-.44a2.15,2.15,0,0,0,1.52-2.63L69,74a2.15,2.15,0,0,0-2.63-1.52L64.7,73A21.5,21.5,0,0,1,76.53,52.44L77,54.1a2.15,2.15,0,0,0,2.63,1.52l4.15-1.11a2.15,2.15,0,0,0,1.52-2.63l-.44-1.66a21.46,21.46,0,0,1,2.17,0,38.79,38.79,0,0,0-1.59-4.33,25.72,25.72,0,0,0-15.79,45.5,26.14,26.14,0,0,0,2.29,1.73A38.84,38.84,0,0,0,75.53,90.32Z"/>
    <path class="cls-5" d="M34.26,85.56A10.74,10.74,0,0,0,21.1,78a10.05,10.05,0,0,0-1.34.47,10.92,10.92,0,0,0-3.24,2.16,38.58,38.58,0,0,0,15.4,14.87,10.8,10.8,0,0,0,2.22-4A10.64,10.64,0,0,0,34.26,85.56Z"/>
    <path class="cls-5" d="M42.78,34.35A10.6,10.6,0,0,0,47.14,32a26.75,26.75,0,0,0-8.48,2.64A10.61,10.61,0,0,0,42.78,34.35Z"/>
    <path class="cls-5" d="M33.48,32.46a30.82,30.82,0,0,1,16.71-5.22c0-.11.06-.22.09-.33l-8.09-2.12h0c.39.1.29.11,0,0h0a3.69,3.69,0,0,1-1-.56,2.28,2.28,0,0,1-.45-.43l-.6.14L40,24l-.13,0a38.72,38.72,0,0,0-9.7,4.15A10.76,10.76,0,0,0,33.48,32.46Z"/>
    <path class="cls-5" d="M85.52,76.46a38.48,38.48,0,0,0,3.11-15.19,10.6,10.6,0,0,0-5.28,0,10.72,10.72,0,0,0-1.4,20.24c.26.11.51.23.78.32A38.78,38.78,0,0,0,85.52,76.46Z"/>
    <path class="cls-6" d="M27.1,43.13a1.6,1.6,0,0,0,1.51-.7l.17-.18a33.14,33.14,0,0,1,9.88-7.63A26.75,26.75,0,0,1,47.14,32a23.75,23.75,0,0,1,3.06-.2,2.28,2.28,0,0,0,0-4.54h0a30.82,30.82,0,0,0-16.71,5.22,38.25,38.25,0,0,0-7.82,6.77c.42-.44.06-.17-.27.4A2.52,2.52,0,0,0,25,40.86,2.19,2.19,0,0,0,27.1,43.13Z"/>
    <path class="cls-6" d="M19.84,62.88a2.28,2.28,0,0,0,.61-1.54,30.09,30.09,0,0,1,2-10.4,2.24,2.24,0,0,0-2-3.28A2.07,2.07,0,0,0,18.33,49a35,35,0,0,0-2.41,12.32,2.28,2.28,0,0,0,1.36,2.09,2.23,2.23,0,0,0,2.57-.54Z"/>
    <path class="cls-1" d="M53.79,5.16a22.51,22.51,0,0,0-5.25,4.38,15.29,15.29,0,0,1,6.36-4.08Z"/>
    <path class="cls-1" d="M60.68,2.33l18,4.91a19.12,19.12,0,0,1,3.66,5.71L76,11.23A9.08,9.08,0,0,0,63.78,7.89l-.39-.11a2.26,2.26,0,0,1-2,1.23c-4,0-7.18,1.07-9.68,3.84a1.88,1.88,0,0,1-1.69.71,2.27,2.27,0,0,1-2.27-2.27,2.65,2.65,0,0,1,.6-1.51,21.37,21.37,0,0,0-3.49,5.73l2.45.69-1.53,4.61-2.33-.66-.05.19L83.12,30.76h0S89.7,8,69.1,1.32c.63.21,1.17.44,1.81.66A25.39,25.39,0,0,0,60.68,2.33ZM68.2,9a6.82,6.82,0,1,1-6.82,6.82A6.82,6.82,0,0,1,68.2,9ZM50.62,22.09l1.28-4.76,4.39,1.2L55,23.29ZM77.3,27.21a2.27,2.27,0,1,1,2.27-2.27A2.27,2.27,0,0,1,77.3,27.21Z"/>
    <path class="cls-1" d="M48.7,3.77h0c.26-.17.53-.32.8-.48l.27-.16.86-.48.19-.09q.8-.41,1.63-.76l.35-.14A22.75,22.75,0,0,1,55.19.83h0A24.29,24.29,0,0,1,67.67.9l-.5-.15A22.75,22.75,0,0,0,39.54,15.92c.08-.25-.11.47-.33,1.28L39.58,16A23,23,0,0,1,48.7,3.77Z"/>
    <path class="cls-1" d="M41.2,24.23a1.91,1.91,0,0,1-.46-.5l-.88-1.37.69,1.18a2.29,2.29,0,0,0,.18.25l-.59.16.6-.14A2.28,2.28,0,0,0,41.2,24.23Z"/>
    <path class="cls-2" d="M42.19,24.79c.29.11.39.1,0,0Z"/>
    <path class="cls-2" d="M42.19,24.79h0Z"/>
    <path class="cls-2" d="M55.24.84l5.44,1.48A25.39,25.39,0,0,1,70.92,2c-.64-.22-1.19-.45-1.81-.66l-.69-.22L67.67.9A24.29,24.29,0,0,0,55.24.84Z"/>
    <path class="cls-2" d="M52.43,1.79l.35-.14Z"/>
    <path class="cls-2" d="M50.61,2.64l.19-.09Z"/>
    <path class="cls-2" d="M41.2,24.23a3.69,3.69,0,0,0,1,.56l8.09,2.12,10.36,2.71,4.19,1.1L77.36,34l.22.06a2.52,2.52,0,0,0,1.81-.37l-.07.12,2.88-1.76a2.29,2.29,0,0,0,1-1.27l-.09,0L43.37,20.35l.05-.19-2-.56L43,15l1.87.53a21.37,21.37,0,0,1,3.49-5.73c.3-.4.52-.53.1-.12l.11-.11a22.51,22.51,0,0,1,5.25-4.38L48.7,3.77A23,23,0,0,0,39.58,16l-.38,1.21c-.3,1-.57,1.88-.57,1.88a2.28,2.28,0,0,0-.05.9c.12.84.29.83.29.83l1,1.55.88,1.37A1.91,1.91,0,0,0,41.2,24.23Z"/>
    <path class="cls-2" d="M49.48,3.29l.27-.16Z"/>
    <polygon class="cls-4" points="56.28 18.53 51.9 17.33 50.62 22.09 55.01 23.29 56.28 18.53"/>
    <path class="cls-4" d="M61.38,4.46a2.27,2.27,0,0,1,2.27,2.27,2.25,2.25,0,0,1-.26,1l.39.11A9.08,9.08,0,0,1,76,11.23l6.31,1.72a19.12,19.12,0,0,0-3.66-5.71l-18-4.91L55.24.84h0a22.75,22.75,0,0,0-2.41.82l-.35.14q-.83.35-1.63.76l-.19.09-.86.48-.27.16c-.27.16-.54.31-.8.48h0l5.09,1.39,1.1.3A20.08,20.08,0,0,1,61.38,4.46Z"/>
    <polygon class="cls-4" points="47.28 16.2 44.83 15.51 42.96 14.98 41.43 19.59 43.42 20.15 45.74 20.81 47.28 16.2"/>
    <path class="cls-3" d="M61.38,15.83A6.82,6.82,0,1,0,68.2,9,6.82,6.82,0,0,0,61.38,15.83Zm4.55-4.55a2.27,2.27,0,1,1-2.27,2.27A2.27,2.27,0,0,1,65.93,11.28Z"/>
    <circle class="cls-6" cx="65.93" cy="13.56" r="2.27"/>
    <circle class="cls-3" cx="77.3" cy="24.93" r="2.27"/>
    <path class="cls-6" d="M50,13.56a1.88,1.88,0,0,0,1.69-.71C54.19,10.08,57.35,9,61.38,9a2.27,2.27,0,1,0,0-4.55,20.08,20.08,0,0,0-6.48,1,15.29,15.29,0,0,0-6.36,4.08l-.11.11c.42-.41.2-.28-.1.12a2.65,2.65,0,0,0-.6,1.51A2.27,2.27,0,0,0,50,13.56Z"/>
  </g>
  <g>
    <path class="cls-1" d="M248.17,28.58c.54-.14.95-.12.67-.1a38.26,38.26,0,0,1,10.13.76v-.13L248.23,26.3A21.63,21.63,0,0,0,248.17,28.58Z"/>
    <path class="cls-1" d="M283.73,42a38.7,38.7,0,0,0-6.14-8l-.09,0c.16.16.33.31.49.47a10.76,10.76,0,0,1-3.52,2.91h0a2.28,2.28,0,0,1-3.21,3.21,23.77,23.77,0,0,0-2.3-2,10.62,10.62,0,0,1-7.86-4.13,33.15,33.15,0,0,0-12.38-1.59,21.24,21.24,0,0,0,6.6,11.09l.86-1.49a2.15,2.15,0,0,1,2.93-.79l3.72,2.15a2.15,2.15,0,0,1,.79,2.94l-.86,1.49a21.46,21.46,0,0,0,21.63-4.93,38.79,38.79,0,0,1,1.9,4.14A25.74,25.74,0,0,1,244,25.18l-1.48-.39h0c.39.1.29.11,0,0h0A2.9,2.9,0,0,1,241,23.73l-1.55-2.41,1.3,2.21a2.28,2.28,0,0,0,.18.26,38.63,38.63,0,0,0-26.72,23.42,29.76,29.76,0,0,0-.75,4.11A10.48,10.48,0,0,1,218,52.65a10.72,10.72,0,0,1-1.86,19.43,38.43,38.43,0,0,0,5.5,9.34,21.36,21.36,0,0,0,7.06-5.23l-1.48-.85a2.15,2.15,0,0,1-.79-2.93l2.15-3.72a2.15,2.15,0,0,1,2.93-.79l1.47.85a21.5,21.5,0,0,0-6.12-22.88l-.86,1.49a2.15,2.15,0,0,1-2.93.79L219.41,46a2.15,2.15,0,0,1-.79-2.94l.86-1.49a20.78,20.78,0,0,0-2.1-.53A38.78,38.78,0,0,1,220,37.27a25.81,25.81,0,0,1,5.54,2.36l.06,0a2.28,2.28,0,0,1,.52-2.44,35,35,0,0,1,10.41-7,2.07,2.07,0,0,1,2.47.53,2.24,2.24,0,0,1-.9,3.74,30.09,30.09,0,0,0-8.78,5.93,2.27,2.27,0,0,1-1.52.66,25.72,25.72,0,0,1-3.16,43.64,37.7,37.7,0,0,0,18.07,10,25.71,25.71,0,0,1,43.45-19.22,38.77,38.77,0,0,1-1.94,4.18l-.3-.32a39.3,39.3,0,0,1-6.53,9c.06.09.13.18.19.27A38.58,38.58,0,0,1,258.88,99l0-.05A39.06,39.06,0,0,1,250,100a38.66,38.66,0,0,0,33.75-58Zm-43.49,3.73a2.27,2.27,0,1,1,.83,3.1A2.27,2.27,0,0,1,240.24,45.72Zm5.56,29.61a2.31,2.31,0,0,1-3.13.86,2.27,2.27,0,0,1-.81-3.12,2.31,2.31,0,0,1,3.13-.86A2.27,2.27,0,0,1,245.8,75.33ZM268.3,62.49a2.27,2.27,0,1,1-.83-3.1A2.27,2.27,0,0,1,268.3,62.49Z"/>
    <path class="cls-1" d="M259.18,88.81a10.74,10.74,0,0,1,14.67-3.93,10.14,10.14,0,0,1,2.45,2A39.12,39.12,0,0,0,283.64,79c-.29-.31-.59-.62-.91-.9l-.86,1.49a2.15,2.15,0,0,1-2.93.79l-3.72-2.15a2.15,2.15,0,0,1-.79-2.93l.86-1.49a21.5,21.5,0,0,0-22.87,6.14l1.47.85a2.15,2.15,0,0,1,.79,2.94l-2.15,3.72a2.15,2.15,0,0,1-2.94.79l-1.47-.85a21.32,21.32,0,0,0-1.06,8.05,38.36,38.36,0,0,0,10.74-.26A10.66,10.66,0,0,1,259.18,88.81Z"/>
    <path class="cls-1" d="M249.6,100h0Z"/>
    <path class="cls-2" d="M276.3,86.89a11.29,11.29,0,0,1,1.11,1.44,39.3,39.3,0,0,0,6.53-9l-.31-.33A39.12,39.12,0,0,1,276.3,86.89Z"/>
    <path class="cls-2" d="M257.8,95.18a38.36,38.36,0,0,1-10.74.26,21.69,21.69,0,0,0,.73,4.44,38.79,38.79,0,0,1-4.54-.56,26.1,26.1,0,0,1-.52-4.63,37.7,37.7,0,0,1-18.07-10,26.12,26.12,0,0,1-3.83,1.64,38.35,38.35,0,0,1-2.75-3.65,21.73,21.73,0,0,0,3.6-1.3,38.43,38.43,0,0,1-5.5-9.34,10.81,10.81,0,0,1-2.86.58,38.58,38.58,0,0,1-.38-21.4c.19,0,.37,0,.56,0a29.76,29.76,0,0,1,.75-4.11,28.82,28.82,0,0,1,1.37-4.08,36.88,36.88,0,0,0-4.55,18.2A38.51,38.51,0,0,0,249.19,100H250a39.06,39.06,0,0,0,8.88-1.07A10.83,10.83,0,0,1,257.8,95.18Z"/>
    <circle class="cls-3" cx="242.2" cy="46.86" r="2.27" transform="matrix(0.5, -0.87, 0.87, 0.5, 80.46, 233.13)"/>
    <path class="cls-3" d="M245,72.22a2.31,2.31,0,0,0-3.13.86,2.27,2.27,0,0,0,.81,3.12,2.31,2.31,0,0,0,3.13-.86A2.27,2.27,0,0,0,245,72.22Z"/>
    <circle class="cls-3" cx="266.34" cy="61.35" r="2.27" transform="translate(80.09 261.38) rotate(-60.02)"/>
    <path class="cls-4" d="M246.92,32.27a2.19,2.19,0,0,1,.12-3.09,2.51,2.51,0,0,1,1.13-.6,21.63,21.63,0,0,1,.06-2.28L244,25.18a25.74,25.74,0,0,0,42.34,22.24,38.79,38.79,0,0,0-1.9-4.14,21.46,21.46,0,0,1-21.63,4.93l.86-1.49a2.15,2.15,0,0,0-.79-2.94l-3.72-2.15a2.15,2.15,0,0,0-2.93.79l-.86,1.49a21.24,21.24,0,0,1-6.6-11.09h-.25A1.6,1.6,0,0,1,246.92,32.27Z"/>
    <path class="cls-4" d="M247.79,99.88a21.69,21.69,0,0,1-.73-4.44,21.32,21.32,0,0,1,1.06-8.05l1.47.85a2.15,2.15,0,0,0,2.94-.79l2.15-3.72a2.15,2.15,0,0,0-.79-2.94l-1.47-.85a21.5,21.5,0,0,1,22.87-6.14l-.86,1.49a2.15,2.15,0,0,0,.79,2.93l3.72,2.15a2.15,2.15,0,0,0,2.93-.79l.86-1.49c.32.29.62.59.91.9l.31.33.3.32a38.77,38.77,0,0,0,1.94-4.18,25.74,25.74,0,0,0-43.45,19.22,26.1,26.1,0,0,0,.52,4.63A38.79,38.79,0,0,0,247.79,99.88Z"/>
    <path class="cls-4" d="M220.84,86.38a26.12,26.12,0,0,0,3.83-1.64,25.72,25.72,0,0,0,3.16-43.64,2.23,2.23,0,0,1-2.2-1.43l-.06,0A25.81,25.81,0,0,0,220,37.27,38.78,38.78,0,0,0,217.37,41a20.78,20.78,0,0,1,2.1.53l-.86,1.49a2.15,2.15,0,0,0,.79,2.94l3.72,2.15a2.15,2.15,0,0,0,2.93-.79l.86-1.49A21.5,21.5,0,0,1,233,68.75l-1.47-.85a2.15,2.15,0,0,0-2.93.79l-2.15,3.72a2.15,2.15,0,0,0,.79,2.93l1.48.85a21.36,21.36,0,0,1-7.06,5.23,21.73,21.73,0,0,1-3.6,1.3A38.35,38.35,0,0,0,220.84,86.38Z"/>
    <path class="cls-5" d="M264.21,37.14A10.6,10.6,0,0,0,269,38.55a26.76,26.76,0,0,0-7.86-4.13A10.61,10.61,0,0,0,264.21,37.14Z"/>
    <path class="cls-5" d="M259,29.23a30.81,30.81,0,0,1,15.51,8.12A10.76,10.76,0,0,0,278,34.44c-.16-.16-.33-.31-.49-.47L259,29.11Z"/>
    <path class="cls-5" d="M273.86,84.88a10.73,10.73,0,0,0-15,14l0,.05A38.58,38.58,0,0,0,277.6,88.6c-.06-.09-.13-.18-.19-.27a11.29,11.29,0,0,0-1.11-1.44A10.14,10.14,0,0,0,273.86,84.88Z"/>
    <path class="cls-5" d="M213.32,72.67a10.81,10.81,0,0,0,2.86-.58A10.72,10.72,0,0,0,218,52.65a10.48,10.48,0,0,0-4.54-1.34c-.19,0-.37,0-.56,0A38.58,38.58,0,0,0,213.32,72.67Z"/>
    <path class="cls-6" d="M248.84,28.48c.28,0-.13,0-.67.1a2.51,2.51,0,0,0-1.13.6,2.19,2.19,0,0,0-.12,3.09,1.6,1.6,0,0,0,1.56.58h.25a33.15,33.15,0,0,1,12.38,1.59A26.76,26.76,0,0,1,269,38.55a23.77,23.77,0,0,1,2.3,2,2.28,2.28,0,0,0,3.21-3.21h0A30.81,30.81,0,0,0,259,29.23,38.26,38.26,0,0,0,248.84,28.48Z"/>
    <path class="cls-6" d="M227.82,41.1a2.27,2.27,0,0,0,1.52-.66,30.09,30.09,0,0,1,8.78-5.93,2.24,2.24,0,0,0,.9-3.74,2.07,2.07,0,0,0-2.47-.53,35,35,0,0,0-10.41,7,2.28,2.28,0,0,0-.52,2.44,2.23,2.23,0,0,0,2.2,1.43Z"/>
    <path class="cls-1" d="M260.94,2.33l18,4.91A19.12,19.12,0,0,1,282.59,13l-6.31-1.72A9.08,9.08,0,0,0,264,7.89l-.39-.11a2.26,2.26,0,0,1-2,1.23c-4,0-7.18,1.07-9.68,3.84a1.88,1.88,0,0,1-1.69.71A2.27,2.27,0,0,1,248,11.29a2.32,2.32,0,0,1,.36-1.14,21.35,21.35,0,0,0-3.2,5.38l2.4.68L246,20.81l-2.27-.64,0,.18,39.7,10.4c.08-.28,6.05-21.46-12.23-28.78A25.38,25.38,0,0,0,260.94,2.33ZM268.44,9a6.82,6.82,0,1,1-6.82,6.82A6.82,6.82,0,0,1,268.44,9ZM255.25,23.3l-4.39-1.2,1.28-4.76,4.39,1.2Zm22.29,3.91a2.27,2.27,0,1,1,2.27-2.27A2.27,2.27,0,0,1,277.54,27.21Z"/>
    <path class="cls-1" d="M249,3.79l-.06,0a22.4,22.4,0,0,1,6.5-2.94l.07,0A24.17,24.17,0,0,1,267.41.76h0a22.75,22.75,0,0,0-27.63,15.16c.16-.51-.78,2.92-.84,3.1.07-.25.57-1.89.94-3A23,23,0,0,1,249,3.79Z"/>
    <path class="cls-1" d="M254.07,5.17A22.59,22.59,0,0,0,249.34,9a15.24,15.24,0,0,1,5.8-3.54Z"/>
    <path class="cls-2" d="M242.49,24.79h0Z"/>
    <path class="cls-2" d="M242.49,24.79c.29.11.39.1,0,0Z"/>
    <path class="cls-2" d="M255.5.85l5.44,1.48A25.38,25.38,0,0,1,271.14,2h.08c-.86-.3-1.55-.6-2.5-.88-.43-.13-.87-.24-1.3-.34A24.17,24.17,0,0,0,255.5.85Z"/>
    <path class="cls-2" d="M242.48,24.79l1.48.39,4.27,1.12L259,29.11,277.51,34l.09,0,.29.08a2.52,2.52,0,0,0,1.81-.37l-.07.12,2.88-1.76a2.29,2.29,0,0,0,1-1.27l-.14,0-39.7-10.4,0-.18-2-.58L243.2,15l1.92.54a21.35,21.35,0,0,1,3.2-5.38c.38-.66.87-1,.34-.49.22-.24.45-.44.67-.66a22.59,22.59,0,0,1,4.73-3.83L249,3.79a23,23,0,0,0-9.1,12.2c-.37,1.14-.87,2.79-.94,3v0a2.28,2.28,0,0,0-.05.9c.12.84.29.83.29.83l.33.52L241,23.73A2.9,2.9,0,0,0,242.48,24.79Z"/>
    <polygon class="cls-4" points="247.52 16.2 245.12 15.52 243.2 14.98 241.67 19.59 243.71 20.17 245.99 20.81 247.52 16.2"/>
    <path class="cls-4" d="M261.62,4.46a2.26,2.26,0,0,1,2,3.32l.39.11a9.08,9.08,0,0,1,12.26,3.34L282.59,13a19.12,19.12,0,0,0-3.66-5.71l-18-4.91L255.5.85l-.07,0a22.4,22.4,0,0,0-6.5,2.94l.06,0,5.09,1.39,1.07.29A20.08,20.08,0,0,1,261.62,4.46Z"/>
    <polygon class="cls-4" points="252.14 17.33 250.86 22.09 255.25 23.3 256.52 18.53 252.14 17.33"/>
    <path class="cls-3" d="M261.62,15.83A6.82,6.82,0,1,0,268.44,9,6.82,6.82,0,0,0,261.62,15.83Zm4.55-4.55a2.27,2.27,0,1,1-2.27,2.27A2.27,2.27,0,0,1,266.17,11.29Z"/>
    <circle class="cls-6" cx="266.17" cy="13.56" r="2.27"/>
    <circle class="cls-3" cx="277.54" cy="24.93" r="2.27"/>
    <path class="cls-6" d="M250.25,13.56a1.88,1.88,0,0,0,1.69-.71c2.5-2.77,5.65-3.84,9.68-3.84a2.27,2.27,0,0,0,0-4.55,20.08,20.08,0,0,0-6.48,1A15.24,15.24,0,0,0,249.34,9c-.23.22-.46.42-.67.66.53-.52,0-.17-.34.49a2.32,2.32,0,0,0-.36,1.14A2.27,2.27,0,0,0,250.25,13.56Z"/>
  </g>
  <g>
    <path class="cls-1" d="M372.77,90.08c.38-.23.75-.47,1.12-.71l0-.11Z"/>
    <path class="cls-1" d="M380.84,37.68a38.75,38.75,0,0,0-3.26-3.7h0A37.72,37.72,0,0,1,380.84,37.68Z"/>
    <path class="cls-1" d="M351.48,100h0Z"/>
    <path class="cls-1" d="M369.47,89.9l-2.62-3.41a2.15,2.15,0,0,1,.4-3l1.36-1a21.5,21.5,0,0,0-23.48-3.08l1,1.35a2.15,2.15,0,0,1-.4,3l-3.41,2.61a2.15,2.15,0,0,1-3-.4l-1-1.35a21.31,21.31,0,0,0-3.9,6.61,37.76,37.76,0,0,0,10.09,3.67A10.63,10.63,0,0,1,348,90.14a10.74,10.74,0,0,1,15.06,2,10,10,0,0,1,1.08,1.81,39,39,0,0,0,7.64-3.28A2.14,2.14,0,0,1,369.47,89.9Z"/>
    <path class="cls-1" d="M343.82,99.42s0,0,0,0a38.42,38.42,0,0,1-10.57-3.51c0,.05,0,.1,0,.15a38.76,38.76,0,0,1-4-2.25c0-.07,0-.13,0-.2a38.51,38.51,0,0,1-15.36-20.33h-.44a38.37,38.37,0,0,1-1.15-4.43l.46,0a39.27,39.27,0,0,1-.73-7.52c0-1.23.06-2.39.15-3.52l-.43-.12a38.58,38.58,0,0,1,7.84-19.92A10.63,10.63,0,0,1,323.82,41a10.73,10.73,0,0,1-9.56,17.22A39.57,39.57,0,0,0,316.06,69a21.36,21.36,0,0,0,8.64-2.13l-1-1.35a2.15,2.15,0,0,1,.4-3l3.41-2.62a2.15,2.15,0,0,1,3,.4l1,1.35a21.5,21.5,0,0,0,3.1-23.48l-1.36,1a2.15,2.15,0,0,1-3-.4l-2.62-3.41a2.15,2.15,0,0,1,.4-3l1.36-1a20.84,20.84,0,0,0-1.74-1.3,38.79,38.79,0,0,1,3.9-2.47,25.81,25.81,0,0,1,4.21,4.3l0,.05a2.28,2.28,0,0,1,1.41-2.05,35,35,0,0,1,12.3-2.49,2.07,2.07,0,0,1,2.07,1.44,2.24,2.24,0,0,1-2.26,3.12A30.09,30.09,0,0,0,338.93,34a2.27,2.27,0,0,1-1.66,0,25.72,25.72,0,0,1-19.62,39.11,38.17,38.17,0,0,0,13,15.76A25.72,25.72,0,0,1,375,83a25.17,25.17,0,0,1,2.42,3.84A39.12,39.12,0,0,0,384.65,79,38.63,38.63,0,0,0,381,37.91a38.63,38.63,0,0,1,5.16,9.19,10.76,10.76,0,0,1-4.37,1.34h0a2.28,2.28,0,0,1-4.19,1.74,23.75,23.75,0,0,0-1.35-2.75,10.62,10.62,0,0,1-5.68-6.82,33.14,33.14,0,0,0-10.83-6.2,21.24,21.24,0,0,0,1.86,12.77l1.36-1a2.15,2.15,0,0,1,3,.4L368.6,50a2.15,2.15,0,0,1-.4,3l-1.36,1a21.46,21.46,0,0,0,21.87,3.72,38.81,38.81,0,0,1,.17,4.55,25.72,25.72,0,0,1-32-33.72l-14.41-3.77h0c.39.1.29.11,0,0h0A2.9,2.9,0,0,1,341,23.73l-1.62-2.53,1.37,2.33a2.3,2.3,0,0,0,.19.26A38.66,38.66,0,0,0,350.61,100q-2,0-3.9-.2C345.74,99.7,344.78,99.58,343.82,99.42Zm-3-26.85a2.31,2.31,0,0,1-3.22-.4A2.27,2.27,0,0,1,338,69a2.31,2.31,0,0,1,3.22.4A2.27,2.27,0,0,1,340.78,72.57Zm9-25.88a2.27,2.27,0,1,1,.42-3.18A2.26,2.26,0,0,1,349.74,46.69Zm14,19a2.27,2.27,0,1,1-.42,3.18A2.27,2.27,0,0,1,363.73,65.71Z"/>
    <path class="cls-1" d="M361.34,30.38A38.25,38.25,0,0,1,370.59,35a10.77,10.77,0,0,1,1.08-2.58l-10.55-2.76c-.08.2-.17.4-.25.61C361.52,30.36,361.91,30.6,361.34,30.38Z"/>
    <path class="cls-2" d="M316.06,69a39.57,39.57,0,0,1-1.8-10.76,10.82,10.82,0,0,1-2-.41c-.09,1.13-.15,2.29-.15,3.52a39.27,39.27,0,0,0,.73,7.52A21.71,21.71,0,0,0,316.06,69Z"/>
    <path class="cls-2" d="M344.5,94.87a37.76,37.76,0,0,1-10.09-3.67,21.67,21.67,0,0,0-1.16,4.66,38.42,38.42,0,0,0,10.57,3.51A10.81,10.81,0,0,1,344.5,94.87Z"/>
    <path class="cls-2" d="M317.65,73.17a26.08,26.08,0,0,1-3.72.06A38.51,38.51,0,0,0,329.3,93.56a26.07,26.07,0,0,1,1.4-4.63A38.17,38.17,0,0,1,317.65,73.17Z"/>
    <path class="cls-2" d="M377.4,86.81q.34.67.65,1.34a38.81,38.81,0,0,1-3.39,3.12c-.24-.64-.46-1.28-.76-1.9-.37.24-.74.48-1.12.71l-.29.22a2.13,2.13,0,0,1-.71.35,39,39,0,0,1-7.64,3.28,11.1,11.1,0,0,1,1,3.06,38.53,38.53,0,0,1-18.38,2.79q1.92.2,3.9.2h.87a38.55,38.55,0,0,0,34.95-23.76c-.55.95-1.15,1.86-1.78,2.76A39.12,39.12,0,0,1,377.4,86.81Z"/>
    <circle class="cls-3" cx="348.36" cy="44.89" r="2.27" transform="translate(44.6 221.24) rotate(-37.48)"/>
    <path class="cls-3" d="M338,69a2.27,2.27,0,0,0-.44,3.19,2.31,2.31,0,0,0,3.22.4,2.27,2.27,0,0,0,.44-3.19A2.31,2.31,0,0,0,338,69Z"/>
    <circle class="cls-3" cx="365.11" cy="67.51" r="2.27" transform="translate(34.28 236.07) rotate(-37.47)"/>
    <path class="cls-4" d="M338.84,78.21a25.52,25.52,0,0,0-8.14,10.72,26.07,26.07,0,0,0-1.4,4.63c0,.07,0,.13,0,.2a38.76,38.76,0,0,0,4,2.25c0-.05,0-.1,0-.15a21.67,21.67,0,0,1,1.16-4.66,21.31,21.31,0,0,1,3.9-6.61l1,1.35a2.15,2.15,0,0,0,3,.4l3.41-2.61a2.15,2.15,0,0,0,.4-3l-1-1.35a21.5,21.5,0,0,1,23.48,3.08l-1.36,1a2.15,2.15,0,0,0-.4,3l2.62,3.41a2.16,2.16,0,0,0,3,.4l.29-.22,1.07-.82,0,.11c.29.62.52,1.26.76,1.9A38.81,38.81,0,0,0,378,88.15q-.3-.68-.65-1.34A25.17,25.17,0,0,0,375,83,25.78,25.78,0,0,0,338.84,78.21Z"/>
    <path class="cls-4" d="M358.3,33.21a2.19,2.19,0,0,1,1.29-2.81,2.52,2.52,0,0,1,1.27-.12c.08-.2.17-.4.25-.61l-4.22-1.11a25.72,25.72,0,0,0,32,33.72,38.81,38.81,0,0,0-.17-4.55A21.46,21.46,0,0,1,366.84,54l1.36-1a2.15,2.15,0,0,0,.4-3L366,46.55a2.15,2.15,0,0,0-3-.4l-1.36,1a21.24,21.24,0,0,1-1.86-12.77l-.23-.08S358.75,34.29,358.3,33.21Z"/>
    <path class="cls-4" d="M317.65,73.17a25.72,25.72,0,0,0,19.62-39.11,2.23,2.23,0,0,1-1.49-2.16l0-.05a25.81,25.81,0,0,0-4.21-4.3,38.79,38.79,0,0,0-3.9,2.47,20.84,20.84,0,0,1,1.74,1.3l-1.36,1a2.15,2.15,0,0,0-.4,3l2.62,3.41a2.15,2.15,0,0,0,3,.4l1.36-1a21.5,21.5,0,0,1-3.1,23.48l-1-1.35a2.15,2.15,0,0,0-3-.4l-3.41,2.62a2.15,2.15,0,0,0-.4,3l1,1.35A21.36,21.36,0,0,1,316.06,69a21.71,21.71,0,0,1-3.25-.13l-.46,0a38.37,38.37,0,0,0,1.15,4.43h.44A26.08,26.08,0,0,0,317.65,73.17Z"/>
    <path class="cls-5" d="M370.58,40.63a10.62,10.62,0,0,0,5.68,6.82A26.75,26.75,0,0,0,370.58,40.63Z"/>
    <path class="cls-5" d="M371.67,32.44A10.77,10.77,0,0,0,370.59,35a30.83,30.83,0,0,1,11.22,13.44,10.76,10.76,0,0,0,4.37-1.34A38.63,38.63,0,0,0,381,37.91l-.09-.13-.09-.11A37.72,37.72,0,0,0,377.55,34Z"/>
    <path class="cls-5" d="M348,90.14a10.63,10.63,0,0,0-3.49,4.73,10.81,10.81,0,0,0-.68,4.5s0,0,0,0c1,.16,1.92.28,2.89.37A38.53,38.53,0,0,0,365.09,97a11.1,11.1,0,0,0-1-3.06A10,10,0,0,0,363,92.12,10.74,10.74,0,0,0,348,90.14Z"/>
    <path class="cls-5" d="M321.84,56.05a10.74,10.74,0,0,0,2-15.06,10.63,10.63,0,0,0-4.18-3.23,38.58,38.58,0,0,0-7.84,19.92l.43.12a10.82,10.82,0,0,0,2,.41A10.68,10.68,0,0,0,321.84,56.05Z"/>
    <path class="cls-6" d="M336,32.81a2.24,2.24,0,0,0,1.32,1.25,2.27,2.27,0,0,0,1.66,0,30.09,30.09,0,0,1,10.38-2.12,2.24,2.24,0,0,0,2.26-3.12,2.07,2.07,0,0,0-2.07-1.44,35,35,0,0,0-12.3,2.49,2.28,2.28,0,0,0-1.41,2.05A2.24,2.24,0,0,0,336,32.81Z"/>
    <path class="cls-6" d="M370.59,35a38.25,38.25,0,0,0-9.25-4.64c.57.22.18,0-.48-.1a2.52,2.52,0,0,0-1.27.12,2.19,2.19,0,0,0-1.29,2.81c.45,1.08,1.22,1.13,1.22,1.13l.23.08a33.14,33.14,0,0,1,10.83,6.2,26.75,26.75,0,0,1,5.68,6.82,23.75,23.75,0,0,1,1.35,2.75,2.28,2.28,0,0,0,4.19-1.74h0A30.83,30.83,0,0,0,370.59,35Z"/>
    <path class="cls-1" d="M360.95,2.33l18,4.9a19.12,19.12,0,0,1,3.66,5.71l-6.31-1.72A9.08,9.08,0,0,0,364,7.89l-9.94-2.71a21.83,21.83,0,0,0-8.95,10.35l2.39.67L346,20.81l-2.27-.64,0,.18,39.69,10.4c.08-.28,6.05-21.45-12.22-28.78A25.38,25.38,0,0,0,360.95,2.33ZM368.44,9a6.82,6.82,0,1,1-6.82,6.82A6.82,6.82,0,0,1,368.44,9ZM355.24,23.29l-4.39-1.2,1.28-4.76,4.39,1.2Zm22.29,3.91a2.27,2.27,0,1,1,2.27-2.27A2.27,2.27,0,0,1,377.54,27.21Z"/>
    <path class="cls-1" d="M339.89,16A23,23,0,0,1,349,3.79l-.07,0a22.4,22.4,0,0,1,6.5-2.94l.08,0A24.17,24.17,0,0,1,367.41.76h0a22.75,22.75,0,0,0-27.63,15.16c.17-.52-.84,3.12-.84,3.12a2.23,2.23,0,0,0-.07.48,2.26,2.26,0,0,1,.07-.45S339.48,17.23,339.89,16Z"/>
    <path class="cls-2" d="M342.49,24.79c.29.11.39.1,0,0Z"/>
    <path class="cls-2" d="M342.49,24.79h0Z"/>
    <path class="cls-2" d="M355.51.85l5.44,1.48A25.38,25.38,0,0,1,371.14,2h.08c-.86-.3-1.55-.6-2.5-.88-.44-.13-.87-.24-1.3-.34A24.17,24.17,0,0,0,355.51.85Z"/>
    <path class="cls-2" d="M342.49,24.79l14.41,3.77,4.22,1.11,10.55,2.76L377.55,34h0l.31.08a2.52,2.52,0,0,0,1.81-.37l-.07.12,2.88-1.76a2.29,2.29,0,0,0,1-1.27l-.15,0-39.69-10.4,0-.18-2.05-.58L343.2,15l1.93.54a21.83,21.83,0,0,1,8.95-10.35L349,3.79a23,23,0,0,0-9.1,12.2c-.4,1.24-1,3.08-1,3.08a2.26,2.26,0,0,0-.07.45,2.31,2.31,0,0,0,0,.46c.12.84.29.83.29.83l.26.4L341,23.73A2.9,2.9,0,0,0,342.49,24.79Z"/>
    <polygon class="cls-4" points="352.13 17.33 350.86 22.09 355.24 23.29 356.52 18.53 352.13 17.33"/>
    <path class="cls-4" d="M368.44,6.73a9.09,9.09,0,0,1,7.84,4.49l6.31,1.72a19.12,19.12,0,0,0-3.66-5.71l-18-4.9L355.51.85l-.08,0a22.4,22.4,0,0,0-6.5,2.94l.07,0,5.09,1.39L364,7.89A9,9,0,0,1,368.44,6.73Z"/>
    <polygon class="cls-4" points="347.52 16.2 345.13 15.52 343.2 14.98 341.67 19.59 343.72 20.17 345.98 20.81 347.52 16.2"/>
    <path class="cls-3" d="M361.61,15.83A6.82,6.82,0,1,0,368.44,9,6.82,6.82,0,0,0,361.61,15.83Zm4.55-4.55a2.27,2.27,0,1,1-2.27,2.27A2.27,2.27,0,0,1,366.16,11.28Z"/>
    <circle class="cls-6" cx="366.16" cy="13.56" r="2.27"/>
    <circle class="cls-3" cx="377.54" cy="24.93" r="2.27"/>
  </g>
  <g>
    <path class="cls-7" d="M485,76.92h-.05l-.12.29Z"/>
    <path class="cls-1" d="M448.14,28.6a2.28,2.28,0,0,1,2.09-1.36c.62,0,1.22,0,1.82.06l-4.74-1.24a24.37,24.37,0,0,1,.82,2.48Z"/>
    <path class="cls-1" d="M431.89,90.34a10.71,10.71,0,0,1,18.39,4.34,9.9,9.9,0,0,1,.2,1l1.05,0a39.66,39.66,0,0,0,5.61-.41,2.09,2.09,0,0,1-.08-.21L456,90.93a2.15,2.15,0,0,1,1.52-2.63l1.66-.44A21.5,21.5,0,0,0,438.61,76l.44,1.64a2.15,2.15,0,0,1-1.52,2.63l-4.15,1.11a2.15,2.15,0,0,1-2.63-1.52l-.44-1.64a21.32,21.32,0,0,0-6.77,5.34A37.84,37.84,0,0,0,431.89,90.34Z"/>
    <path class="cls-1" d="M463.92,31.77A2.27,2.27,0,0,1,461.64,34a2.25,2.25,0,0,1-1-.26,30.09,30.09,0,0,0-10.4-2,2.27,2.27,0,0,1-1.54-.61,25.74,25.74,0,0,1-35.42,27.78,38.91,38.91,0,0,0,7.5,21.3,25.72,25.72,0,0,1,44,10.53,24.44,24.44,0,0,1,.51,2.42,39.12,39.12,0,0,0,19.5-16l.12-.29a25.71,25.71,0,0,1-14.49-44.8l-7-1.84A2.29,2.29,0,0,1,463.92,31.77ZM437.19,68.08a2.31,2.31,0,0,1-2.82-1.61A2.27,2.27,0,0,1,436,63.7a2.31,2.31,0,0,1,2.82,1.61A2.27,2.27,0,0,1,437.19,68.08ZM455.37,47.6a2.27,2.27,0,1,1,1.6-2.78A2.26,2.26,0,0,1,455.37,47.6Zm8.42,24.54a2.27,2.27,0,1,1-2.78-1.6A2.27,2.27,0,0,1,463.8,72.13Z"/>
    <path class="cls-1" d="M484.33,61.5h0a2.28,2.28,0,0,1-4.54,0,23.74,23.74,0,0,0-.2-3.05A10.62,10.62,0,0,1,476.95,50a33.14,33.14,0,0,0-7.63-9.88,21.24,21.24,0,0,0-3.17,12.51l1.66-.44a2.15,2.15,0,0,1,2.63,1.52l1.11,4.15A2.15,2.15,0,0,1,470,60.47l-1.66.44a21.44,21.44,0,0,0,18.1,11.77c.11-.37.23-.73.33-1.1A38.74,38.74,0,0,0,488.12,62,10.76,10.76,0,0,1,484.33,61.5Z"/>
    <path class="cls-1" d="M471.93,36.7c.57.33.84.7.4.27a38.25,38.25,0,0,1,6.77,7.82,10.76,10.76,0,0,1,3.57-3,38.79,38.79,0,0,0-6.52-8.21l-.43-.11A21.64,21.64,0,0,0,471.93,36.7Z"/>
    <path class="cls-1" d="M473.42,91.91l-.17.13Z"/>
    <path class="cls-1" d="M465.65,96.68a38.88,38.88,0,0,0,6.7-4,38.15,38.15,0,0,1-6.7,3.88S465.65,96.65,465.65,96.68Z"/>
    <path class="cls-1" d="M461.33,98.24a38.75,38.75,0,0,1-50.25-36.92,36.88,36.88,0,0,1,4.55-18.2,30.24,30.24,0,0,0-2.34,11.08,21.44,21.44,0,0,0,11.23,2.42L424.08,55a2.15,2.15,0,0,1,1.52-2.63l4.15-1.11a2.15,2.15,0,0,1,2.63,1.52l.44,1.64a21.5,21.5,0,0,0,11.85-20.5l-1.66.44a2.15,2.15,0,0,1-2.63-1.52l-1.11-4.15A2.15,2.15,0,0,1,440.79,26l1.66-.44c-.2-.4-.43-.78-.67-1.16a2.21,2.21,0,0,1-.74-.72l-1.54-2.39,1.29,2.19a2.29,2.29,0,0,0,.22.31,38.66,38.66,0,1,0,22.23,73.85c-.63.23-1.27.44-1.92.64ZM431,27.84a10.63,10.63,0,0,1,2.62,4.58,10.73,10.73,0,0,1-17.49,10.82A38.58,38.58,0,0,1,431,27.84Z"/>
    <path class="cls-2" d="M484.82,77.2a39.12,39.12,0,0,1-19.5,16,26.79,26.79,0,0,1,.33,3.41,38.15,38.15,0,0,0,6.7-3.88l.91-.68.17-.13a39.2,39.2,0,0,0,11.69-15H485Z"/>
    <path class="cls-2" d="M411.73,58.24a38.35,38.35,0,0,1,.63-4.53c.3.18.61.33.92.5a30.24,30.24,0,0,1,2.34-11.08,36.88,36.88,0,0,0-4.55,18.2,38.75,38.75,0,0,0,50.25,36.92,20.38,20.38,0,0,0,0-2.09l-1.66.44a2.14,2.14,0,0,1-2.55-1.31,39.66,39.66,0,0,1-5.61.41l-1.05,0a10.81,10.81,0,0,1-.18,4.28,38.58,38.58,0,0,1-20.58-5.9,10.82,10.82,0,0,1,2.16-3.71,37.84,37.84,0,0,1-8.34-6.76,21.7,21.7,0,0,0-2.3,3.27,38.85,38.85,0,0,1-2.81-3.6,26.12,26.12,0,0,1,2.34-3,38.91,38.91,0,0,1-7.5-21.3C412.75,58.73,412.24,58.5,411.73,58.24Z"/>
    <circle class="cls-3" cx="454.79" cy="45.41" r="2.27" transform="translate(3.72 119.11) rotate(-14.98)"/>
    <path class="cls-3" d="M436,63.7a2.27,2.27,0,0,0-1.63,2.78,2.31,2.31,0,0,0,2.82,1.61,2.27,2.27,0,0,0,1.63-2.78A2.31,2.31,0,0,0,436,63.7Z"/>
    <circle class="cls-3" cx="461.61" cy="72.72" r="2.27" transform="translate(-3.12 121.74) rotate(-14.97)"/>
    <path class="cls-4" d="M468.37,60.91l1.66-.44a2.15,2.15,0,0,0,1.52-2.63l-1.11-4.15a2.15,2.15,0,0,0-2.63-1.52l-1.66.44a21.24,21.24,0,0,1,3.17-12.51l-.18-.17a1.6,1.6,0,0,1-.7-1.51,2.19,2.19,0,0,1,2.27-2.1,2.52,2.52,0,0,1,1.22.37,21.64,21.64,0,0,1,3.8-3.2l-5.28-1.38a25.71,25.71,0,0,0,14.49,44.8h.18l.46.05a38.81,38.81,0,0,0,1.58-4.27l-.69,0A21.44,21.44,0,0,1,468.37,60.91Z"/>
    <path class="cls-4" d="M411.73,58.24c.5.25,1,.48,1.54.7a25.74,25.74,0,0,0,35.42-27.78,2.23,2.23,0,0,1-.55-2.57l0-.07a24.37,24.37,0,0,0-.82-2.48l-4.83-1.26h0c.39.1.29.11,0,0h0a4,4,0,0,1-.7-.35c.24.38.46.76.67,1.16l-1.66.44a2.15,2.15,0,0,0-1.52,2.63l1.11,4.15A2.15,2.15,0,0,0,443,34.35l1.66-.44a21.5,21.5,0,0,1-11.85,20.5l-.44-1.64a2.15,2.15,0,0,0-2.63-1.52l-4.15,1.11A2.15,2.15,0,0,0,424.08,55l.44,1.65a21.44,21.44,0,0,1-11.23-2.42c-.31-.16-.62-.32-.92-.5A38.35,38.35,0,0,0,411.73,58.24Z"/>
    <path class="cls-4" d="M465.31,93.19a24.44,24.44,0,0,0-.51-2.42,25.72,25.72,0,0,0-44-10.53,26.12,26.12,0,0,0-2.34,3,38.85,38.85,0,0,0,2.81,3.6,21.7,21.7,0,0,1,2.3-3.27,21.32,21.32,0,0,1,6.77-5.34l.44,1.64a2.15,2.15,0,0,0,2.63,1.52l4.15-1.11a2.15,2.15,0,0,0,1.52-2.63L438.61,76a21.5,21.5,0,0,1,20.52,11.83l-1.66.44A2.15,2.15,0,0,0,456,90.93l1.11,4.15a2.09,2.09,0,0,0,.08.21,2.14,2.14,0,0,0,2.55,1.31l1.66-.44a20.38,20.38,0,0,1,0,2.09v.08c.65-.19,1.29-.41,1.92-.64.82-.29,1.62-.61,2.41-.95v-.06s0-.05,0-.07A26.79,26.79,0,0,0,465.31,93.19Z"/>
    <path class="cls-5" d="M477.22,54.1a10.6,10.6,0,0,0,2.37,4.36A26.76,26.76,0,0,0,476.95,50,10.61,10.61,0,0,0,477.22,54.1Z"/>
    <path class="cls-5" d="M479.11,44.8a30.82,30.82,0,0,1,5.22,16.71,10.76,10.76,0,0,0,3.79.49c.25,0,.51,0,.76-.06a38,38,0,0,0-5.48-20.46c-.25.11-.49.22-.72.35A10.76,10.76,0,0,0,479.11,44.8Z"/>
    <path class="cls-5" d="M437.13,87.08a10.64,10.64,0,0,0-5.24,3.26,10.82,10.82,0,0,0-2.16,3.71A38.58,38.58,0,0,0,450.3,100a10.81,10.81,0,0,0,.18-4.28,9.9,9.9,0,0,0-.2-1A10.74,10.74,0,0,0,437.13,87.08Z"/>
    <path class="cls-5" d="M426,45.58a10.74,10.74,0,0,0,7.59-13.15A10.63,10.63,0,0,0,431,27.84a38.58,38.58,0,0,0-14.87,15.4A10.72,10.72,0,0,0,426,45.58Z"/>
    <path class="cls-6" d="M448.14,28.6a2.23,2.23,0,0,0,.55,2.57,2.27,2.27,0,0,0,1.54.61,30.09,30.09,0,0,1,10.4,2,2.25,2.25,0,0,0,1,.26,2.34,2.34,0,0,0,1.8-3.76l-11.39-3c-.6,0-1.2-.06-1.82-.06A2.28,2.28,0,0,0,448.14,28.6Z"/>
    <path class="cls-6" d="M476.95,50a26.76,26.76,0,0,1,2.64,8.48,23.74,23.74,0,0,1,.2,3.05,2.28,2.28,0,0,0,4.54,0h0a30.82,30.82,0,0,0-5.22-16.71A38.25,38.25,0,0,0,472.34,37c.44.42.17.06-.4-.27a2.52,2.52,0,0,0-1.22-.37,2.19,2.19,0,0,0-2.27,2.1,1.6,1.6,0,0,0,.7,1.51l.18.17A33.14,33.14,0,0,1,476.95,50Z"/>
    <path class="cls-1" d="M454.07,5.17A22.6,22.6,0,0,0,449.36,9a15.24,15.24,0,0,1,5.78-3.52Z"/>
    <path class="cls-1" d="M460.94,2.33l18,4.9a19.12,19.12,0,0,1,3.66,5.71l-6.31-1.72A9.08,9.08,0,0,0,464,7.89l-.39-.11a2.26,2.26,0,0,1-2,1.23c-4,0-7.18,1.07-9.68,3.84a1.88,1.88,0,0,1-1.69.71A2.27,2.27,0,0,1,448,11.28a2.32,2.32,0,0,1,.35-1.14,21.35,21.35,0,0,0-3.2,5.37l2.4.68L446,20.81l-2.27-.64,0,.18,39.7,10.4c.07-.25,6.07-21.45-12.22-28.78A25.38,25.38,0,0,0,460.94,2.33ZM468.44,9a6.82,6.82,0,1,1-6.82,6.82A6.82,6.82,0,0,1,468.44,9Zm-16.3,8.32,4.39,1.2-1.28,4.76-4.39-1.2Zm25.4,9.88a2.27,2.27,0,1,1,2.27-2.27A2.27,2.27,0,0,1,477.54,27.21Z"/>
    <path class="cls-1" d="M449,3.79l-.06,0a22.4,22.4,0,0,1,6.5-2.94l.08,0A24.17,24.17,0,0,1,467.43.76h0a22.75,22.75,0,0,0-27.63,15.16c.17-.52-.84,3.12-.84,3.12h0c.05-.17.56-1.87.94-3A23,23,0,0,1,449,3.79Z"/>
    <path class="cls-2" d="M442.49,24.79c.29.11.39.1,0,0Z"/>
    <path class="cls-2" d="M442.49,24.79h0Z"/>
    <path class="cls-2" d="M455.5.85l5.44,1.48A25.38,25.38,0,0,1,471.14,2h.07c-.86-.3-1.55-.6-2.5-.88-.43-.12-.85-.23-1.28-.34A24.17,24.17,0,0,0,455.5.85Z"/>
    <path class="cls-2" d="M441.78,24.44a4,4,0,0,0,.7.35l4.83,1.26,4.74,1.24,11.39,3,7,1.84,5.28,1.38.43.11,1.72.45a2.52,2.52,0,0,0,1.81-.37l-.07.12,2.88-1.76a2.29,2.29,0,0,0,1-1.27l-.14,0-39.7-10.4,0-.18-2-.58L443.2,15l1.92.54a21.35,21.35,0,0,1,3.2-5.37c.38-.66.88-1,.34-.49.22-.24.46-.45.69-.67a22.6,22.6,0,0,1,4.72-3.81L449,3.79A23,23,0,0,0,439.88,16c-.38,1.18-.89,2.88-.94,3v0a2.28,2.28,0,0,0-.05.9c.12.84.29.83.29.83l.34.54L441,23.73A2.21,2.21,0,0,0,441.78,24.44Z"/>
    <polygon class="cls-4" points="447.52 16.2 445.12 15.52 443.2 14.98 441.67 19.59 443.71 20.17 445.99 20.81 447.52 16.2"/>
    <path class="cls-4" d="M461.62,4.46a2.27,2.27,0,0,1,2.27,2.27,2.25,2.25,0,0,1-.26,1l.39.11a9.08,9.08,0,0,1,12.26,3.34l6.31,1.72a19.12,19.12,0,0,0-3.66-5.71l-18-4.9L455.5.85l-.08,0a22.4,22.4,0,0,0-6.5,2.94l.06,0,5.09,1.39,1.06.29A20.08,20.08,0,0,1,461.62,4.46Z"/>
    <polygon class="cls-4" points="456.52 18.53 452.14 17.33 450.86 22.09 455.25 23.29 456.52 18.53"/>
    <path class="cls-3" d="M461.62,15.83A6.82,6.82,0,1,0,468.44,9,6.82,6.82,0,0,0,461.62,15.83Zm4.55-4.55a2.27,2.27,0,1,1-2.27,2.27A2.27,2.27,0,0,1,466.17,11.28Z"/>
    <circle class="cls-6" cx="466.17" cy="13.56" r="2.27"/>
    <circle class="cls-3" cx="477.54" cy="24.93" r="2.27"/>
    <path class="cls-6" d="M450.24,13.56a1.88,1.88,0,0,0,1.69-.71c2.5-2.77,5.65-3.84,9.68-3.84a2.27,2.27,0,1,0,0-4.55,20.08,20.08,0,0,0-6.48,1A15.24,15.24,0,0,0,449.36,9c-.23.22-.47.43-.69.67.54-.52,0-.17-.34.49a2.32,2.32,0,0,0-.35,1.14A2.27,2.27,0,0,0,450.24,13.56Z"/>
  </g>
  <g>
    <path class="cls-1" d="M573.49,36.77a2.07,2.07,0,0,1,.45,2.48,2.24,2.24,0,0,1-3.8.6A30.09,30.09,0,0,0,561.3,34a2.27,2.27,0,0,1-1.19-1.15A25.72,25.72,0,0,1,516,44.15,34,34,0,0,0,514,57a39.75,39.75,0,0,0,1.42,10.54,25.74,25.74,0,0,1,36.78,26.54c-.07.53-.16,1.06-.26,1.57h.37A39.07,39.07,0,0,0,575,88.43,25.74,25.74,0,0,1,583,41.18a38.74,38.74,0,0,1,2.12,4,21.64,21.64,0,0,0-5.65,1.67c.34.44.47.83.35.58A38.26,38.26,0,0,1,583,57.11a10.76,10.76,0,0,1,5.24-1.43,38.72,38.72,0,0,1,.12,10.55,38.67,38.67,0,0,0-11-32.25L565,30.76A36.8,36.8,0,0,1,573.49,36.77ZM537.92,60.64a2.27,2.27,0,0,1-2.57,1.94,2.31,2.31,0,0,1-2-2.56,2.27,2.27,0,0,1,2.57-1.94A2.31,2.31,0,0,1,537.92,60.64ZM558.38,76.5a2.27,2.27,0,1,1-2-2.54A2.27,2.27,0,0,1,558.38,76.5Zm4.15-27.84a2.27,2.27,0,1,1-2-2.54A2.27,2.27,0,0,1,562.54,48.66Z"/>
    <path class="cls-1" d="M546.08,99.75h0a38.6,38.6,0,0,1-10.75-2.79l-.06.09a38.58,38.58,0,0,1-16.75-13.33l.23-.24a38.46,38.46,0,0,1-5-9.92l-.36.26a38.81,38.81,0,0,1-1.22-4.41l.4-.26a39.27,39.27,0,0,1-.78-7.82,36.5,36.5,0,0,1,4.08-17.24l-.32-.34a38.37,38.37,0,0,1,2.32-3.94A21.48,21.48,0,0,0,528,47.15l.22-1.69a2.15,2.15,0,0,1,2.41-1.85l4.26.56a2.15,2.15,0,0,1,1.85,2.41l-.22,1.69a21.5,21.5,0,0,0,18.8-14.41l-1.7-.22a2.15,2.15,0,0,1-1.85-2.41l.5-3.81-6.61-1.73a10.13,10.13,0,0,1,0,2.57,10.73,10.73,0,0,1-20.3,3.3,38.62,38.62,0,0,1,15.38-7.72,2.28,2.28,0,0,0,.76.59,2.19,2.19,0,0,1-.73-.71l-1.65-2.57,1.39,2.38a2.29,2.29,0,0,0,.19.26A38.66,38.66,0,0,0,550.15,100q-1.93,0-3.81-.21Z"/>
    <path class="cls-1" d="M560.58,30.29a2.26,2.26,0,0,1,.79-.49l-.72-.19c0,.2,0,.41-.06.61Z"/>
    <path class="cls-1" d="M585.46,76.68a10.76,10.76,0,0,1-4-2.14h0a2.28,2.28,0,0,1-4.19-1.74,23.74,23.74,0,0,0,1-2.9,10.62,10.62,0,0,1,.8-8.84,33.14,33.14,0,0,0-3.27-12A21.24,21.24,0,0,0,568,59.37l1.7.22A2.15,2.15,0,0,1,571.58,62L571,66.26a2.15,2.15,0,0,1-2.41,1.85l-1.7-.22a21.43,21.43,0,0,0,11.79,17.6A39.08,39.08,0,0,0,584.36,79a38.4,38.4,0,0,0,3.95-12.52A38.62,38.62,0,0,1,585.46,76.68Z"/>
    <path class="cls-1" d="M528,80.1a10.74,10.74,0,0,1,9.25,12.05c0,.17-.07.33-.1.5a37.87,37.87,0,0,0,6.27,2l.5-3.82A2.15,2.15,0,0,1,546.35,89l1.7.22a21.5,21.5,0,0,0-14.43-18.78l-.22,1.69A2.15,2.15,0,0,1,531,74l-4.26-.56A2.15,2.15,0,0,1,524.89,71l.22-1.69a21.33,21.33,0,0,0-8.33,2.36A38.45,38.45,0,0,0,522.13,81,10.63,10.63,0,0,1,528,80.1Z"/>
    <path class="cls-2" d="M522.13,81a38.45,38.45,0,0,1-5.34-9.33,21.66,21.66,0,0,0-3,1.86,38.46,38.46,0,0,0,5,9.92A10.81,10.81,0,0,1,522.13,81Z"/>
    <path class="cls-2" d="M545.23,97.53a2.15,2.15,0,0,1-1.85-2.41l.06-.44a37.87,37.87,0,0,1-6.27-2,10.67,10.67,0,0,1-1.84,4.3,38.6,38.6,0,0,0,10.75,2.79,21.27,21.27,0,0,0,.85-2Z"/>
    <path class="cls-2" d="M578.7,85.48c.34.17.69.35,1,.5a38.75,38.75,0,0,1-3.09,3.34c-.55-.28-1.08-.58-1.61-.9a39.07,39.07,0,0,1-22.76,7.27h-.37a26.44,26.44,0,0,1-1.24,4.25,38.94,38.94,0,0,1-4.34-.17q1.88.2,3.81.21h.35a38.55,38.55,0,0,0,35.68-23.77c-.56,1-1.18,1.9-1.82,2.82A39.08,39.08,0,0,1,578.7,85.48Z"/>
    <path class="cls-2" d="M514,57a34,34,0,0,1,2-12.88l-.07-.07a36.5,36.5,0,0,0-4.08,17.24,39.27,39.27,0,0,0,.78,7.82,26.14,26.14,0,0,1,2.79-1.58A39.75,39.75,0,0,1,514,57Z"/>
    <circle class="cls-3" cx="556.13" cy="76.21" r="2.27" transform="translate(407.74 617.57) rotate(-82.47)"/>
    <circle class="cls-3" cx="560.29" cy="48.36" r="2.27" transform="translate(439.03 597.5) rotate(-82.48)"/>
    <path class="cls-3" d="M535.93,58.07A2.27,2.27,0,0,0,533.36,60a2.31,2.31,0,0,0,2,2.56,2.27,2.27,0,0,0,2.57-1.94A2.31,2.31,0,0,0,535.93,58.07Z"/>
    <path class="cls-4" d="M531.67,52.41a25.78,25.78,0,0,0,28.43-19.54,2.23,2.23,0,0,1,.48-2.58v-.07c0-.2,0-.41.06-.61l-8.36-2.19-.5,3.81a2.15,2.15,0,0,0,1.85,2.41l1.7.22a21.5,21.5,0,0,1-18.8,14.41l.22-1.69a2.15,2.15,0,0,0-1.85-2.41l-4.26-.56a2.15,2.15,0,0,0-2.41,1.85L528,47.15a21.48,21.48,0,0,1-10.11-7.35,38.37,38.37,0,0,0-2.32,3.94l.32.34.07.07A25.61,25.61,0,0,0,531.67,52.41Z"/>
    <path class="cls-4" d="M530,65.19a25.56,25.56,0,0,0-14.59,2.38,26.14,26.14,0,0,0-2.79,1.58l-.4.26a38.81,38.81,0,0,0,1.22,4.41l.36-.26a21.66,21.66,0,0,1,3-1.86,21.33,21.33,0,0,1,8.33-2.36L524.89,71a2.15,2.15,0,0,0,1.85,2.41L531,74a2.15,2.15,0,0,0,2.41-1.85l.22-1.69a21.5,21.5,0,0,1,14.43,18.78l-1.7-.22a2.15,2.15,0,0,0-2.41,1.85l-.5,3.82-.06.44a2.15,2.15,0,0,0,1.85,2.41l1.7.22a21.27,21.27,0,0,1-.85,2h0l.27,0a38.94,38.94,0,0,0,4.34.17,26.44,26.44,0,0,0,1.24-4.25c.1-.52.19-1,.26-1.57A25.78,25.78,0,0,0,530,65.19Z"/>
    <path class="cls-4" d="M575.57,47.14a2.19,2.19,0,0,1,2.9-1.07,2.51,2.51,0,0,1,1,.81,21.64,21.64,0,0,1,5.65-1.67,38.74,38.74,0,0,0-2.12-4A25.74,25.74,0,0,0,575,88.43c.52.32,1.06.62,1.61.9A38.75,38.75,0,0,0,579.74,86c-.36-.16-.7-.33-1-.5a21.43,21.43,0,0,1-11.79-17.6l1.7.22A2.15,2.15,0,0,0,571,66.26l.56-4.26a2.15,2.15,0,0,0-1.85-2.41l-1.7-.22A21.24,21.24,0,0,1,575.74,49l-.1-.22A1.6,1.6,0,0,1,575.57,47.14Z"/>
    <path class="cls-5" d="M537.27,92.15A10.74,10.74,0,0,0,528,80.1a10.63,10.63,0,0,0-5.9.92,10.81,10.81,0,0,0-3.37,2.45l-.23.24A38.58,38.58,0,0,0,535.27,97l.06-.09a10.67,10.67,0,0,0,1.84-4.3C537.21,92.48,537.25,92.32,537.27,92.15Z"/>
    <path class="cls-5" d="M579,61.07a10.62,10.62,0,0,0-.8,8.84A26.76,26.76,0,0,0,579,61.07Z"/>
    <path class="cls-5" d="M542.25,24.79c.39.1.29.11,0,0h0a4,4,0,0,1-.72-.36,2.28,2.28,0,0,1-.76-.59,38.62,38.62,0,0,0-15.38,7.72,10.73,10.73,0,0,0,20.3-3.3,10.13,10.13,0,0,0,0-2.57l-3.44-.9Z"/>
    <path class="cls-5" d="M588.23,55.68A10.76,10.76,0,0,0,583,57.11a30.81,30.81,0,0,1-1.57,17.43,10.76,10.76,0,0,0,4,2.14,38.62,38.62,0,0,0,2.85-10.15c0-.05,0-.1,0-.15s0-.09,0-.14A38.72,38.72,0,0,0,588.23,55.68Z"/>
    <path class="cls-6" d="M560.06,31.05a2.24,2.24,0,0,0,0,1.82A2.27,2.27,0,0,0,561.3,34a30.09,30.09,0,0,1,8.84,5.84,2.24,2.24,0,0,0,3.8-.6,2.07,2.07,0,0,0-.45-2.48,36.8,36.8,0,0,0-8.45-6l-3.66-1a2.26,2.26,0,0,0-.79.49A2.24,2.24,0,0,0,560.06,31.05Z"/>
    <path class="cls-6" d="M583,57.11a38.26,38.26,0,0,0-3.17-9.65c.12.25,0-.14-.35-.58a2.51,2.51,0,0,0-1-.81,2.19,2.19,0,0,0-2.9,1.07,1.6,1.6,0,0,0,.06,1.67l.1.22a33.14,33.14,0,0,1,3.27,12,26.76,26.76,0,0,1-.8,8.84,23.74,23.74,0,0,1-1,2.9,2.28,2.28,0,0,0,4.19,1.74h0A30.81,30.81,0,0,0,583,57.11Z"/>
    <path class="cls-1" d="M539.64,16a23,23,0,0,1,9.1-12.2l-.06,0a22.41,22.41,0,0,1,6.5-2.94l.07,0A24.11,24.11,0,0,1,566.87.69a22.74,22.74,0,0,0-27.34,15.23c.17-.52-.84,3.12-.84,3.12a2.24,2.24,0,0,0-.07.48,2.26,2.26,0,0,1,.07-.45S539.24,17.23,539.64,16Z"/>
    <path class="cls-1" d="M553.83,5.18a22.59,22.59,0,0,0-4.68,3.77,15.24,15.24,0,0,1,5.74-3.48Z"/>
    <path class="cls-1" d="M560.7,2.34l18,4.91A19.13,19.13,0,0,1,582.34,13L576,11.23a9.08,9.08,0,0,0-12.26-3.34l-.39-.11a2.26,2.26,0,0,1-2,1.23c-4,0-7.18,1.07-9.68,3.84a1.88,1.88,0,0,1-1.69.71,2.21,2.21,0,0,1-1.94-3.39,21.34,21.34,0,0,0-3.18,5.35l2.39.68-1.53,4.61-2.27-.64,0,.17,39.7,10.4c.1-.36,6-21.48-12.24-28.78A25.38,25.38,0,0,0,560.7,2.34ZM568.2,9a6.82,6.82,0,1,1-6.82,6.82A6.82,6.82,0,0,1,568.2,9ZM555,23.3l-4.39-1.2,1.28-4.76,4.39,1.2Zm22.29,3.91a2.27,2.27,0,1,1,2.27-2.27A2.27,2.27,0,0,1,577.29,27.21Z"/>
    <path class="cls-2" d="M542.25,24.79c.29.11.39.1,0,0Z"/>
    <path class="cls-2" d="M542.25,24.79h0Z"/>
    <path class="cls-2" d="M555.26.85l5.44,1.48A25.38,25.38,0,0,1,570.88,2h.1c-.86-.3-1.55-.6-2.5-.88-.54-.16-1.07-.29-1.61-.41A24.11,24.11,0,0,0,555.26.85Z"/>
    <path class="cls-2" d="M541.53,24.43a4,4,0,0,0,.72.36l3.44.9,6.61,1.73,8.36,2.19.72.19,3.66,1L577.33,34l.32.08a2.52,2.52,0,0,0,1.81-.37l-.07.12,2.88-1.76a2.29,2.29,0,0,0,1-1.27l-.15,0-39.7-10.4,0-.17-2.05-.58L543,15l1.93.54a21.34,21.34,0,0,1,3.18-5.35c.39-.68.9-1,.36-.52.24-.26.49-.48.73-.71a22.59,22.59,0,0,1,4.68-3.77l-5.09-1.39a23,23,0,0,0-9.1,12.2c-.4,1.24-1,3.08-1,3.08a2.26,2.26,0,0,0-.07.45,2.3,2.3,0,0,0,0,.46c.12.84.29.83.29.83l.23.35,1.65,2.57A2.19,2.19,0,0,0,541.53,24.43Z"/>
    <polygon class="cls-4" points="547.27 16.2 544.88 15.53 542.96 14.98 541.42 19.59 543.47 20.17 545.74 20.81 547.27 16.2"/>
    <path class="cls-4" d="M561.37,4.46a2.26,2.26,0,0,1,2,3.32l.39.11A9.08,9.08,0,0,1,576,11.23L582.34,13a19.13,19.13,0,0,0-3.66-5.71l-18-4.91L555.26.85l-.07,0a22.41,22.41,0,0,0-6.5,2.94l.06,0,5.09,1.39,1.06.29A20.09,20.09,0,0,1,561.37,4.46Z"/>
    <polygon class="cls-4" points="551.89 17.33 550.62 22.09 555 23.3 556.28 18.54 551.89 17.33"/>
    <path class="cls-3" d="M561.37,15.84A6.82,6.82,0,1,0,568.2,9,6.82,6.82,0,0,0,561.37,15.84Zm4.55-4.55a2.27,2.27,0,1,1-2.27,2.27A2.27,2.27,0,0,1,565.92,11.29Z"/>
    <circle class="cls-6" cx="565.92" cy="13.56" r="2.27"/>
    <circle class="cls-3" cx="577.29" cy="24.93" r="2.27"/>
    <path class="cls-6" d="M550,13.56a1.88,1.88,0,0,0,1.69-.71c2.5-2.77,5.65-3.84,9.68-3.84a2.27,2.27,0,0,0,0-4.55,20.09,20.09,0,0,0-6.48,1,15.24,15.24,0,0,0-5.74,3.48c-.25.24-.5.46-.73.71.54-.53,0-.16-.36.52A2.21,2.21,0,0,0,550,13.56Z"/>
  </g>
  <g>
    <path class="cls-1" d="M645.52,99.73l-.16,0Z"/>
    <path class="cls-1" d="M614.42,46.19l.12-.27Z"/>
    <path class="cls-1" d="M615.05,44.8l.45-.92Q615.27,44.33,615.05,44.8Z"/>
    <path class="cls-1" d="M611.34,60.57c0-.07,0-.13,0-.19S611.34,60.51,611.34,60.57Z"/>
    <path class="cls-1" d="M611.44,64.27v0Z"/>
    <path class="cls-1" d="M674.62,91.14l-.52.43Z"/>
    <path class="cls-1" d="M656.88,99.38l-.5.09Z"/>
    <path class="cls-1" d="M647.69,99.92l-.93-.07Z"/>
    <path class="cls-1" d="M636,85.51l1.49.86a21.5,21.5,0,0,0-6.14-22.87L630.54,65a2.15,2.15,0,0,1-2.94.79l-3.72-2.15a2.15,2.15,0,0,1-.79-2.94l.85-1.47a21.38,21.38,0,0,0-10.45-.77A39.54,39.54,0,0,0,615.31,69a10.71,10.71,0,0,1,11.14,15.93c-.16.28-.35.53-.53.78a37.8,37.8,0,0,0,5.21,4l2-3.42A2.15,2.15,0,0,1,636,85.51Z"/>
    <path class="cls-1" d="M655.32,99.63l-.78.1Z"/>
    <path class="cls-1" d="M654.07,99.78c-.81.08-1.64.15-2.47.18Q652.84,99.91,654.07,99.78Z"/>
    <path class="cls-1" d="M649.83,100c-.49,0-1,0-1.47,0Z"/>
    <path class="cls-1" d="M651.48,100l-1.25,0Z"/>
    <path class="cls-1" d="M611.35,62.45v0Z"/>
    <path class="cls-1" d="M670.88,85.44a2.19,2.19,0,0,1-.12-3.09,23.74,23.74,0,0,0,2-2.3,10.62,10.62,0,0,1,4.13-7.86,33.14,33.14,0,0,0,1.59-12.38,21.24,21.24,0,0,0-11.09,6.6l1.49.86a2.15,2.15,0,0,1,.79,2.93l-2.15,3.72a2.15,2.15,0,0,1-2.94.79l-1.49-.86A21.4,21.4,0,0,0,666,93a39.07,39.07,0,0,0,9.46-5.28A10.76,10.76,0,0,1,674,85.55h0A2.19,2.19,0,0,1,670.88,85.44Z"/>
    <path class="cls-1" d="M680.71,84.78l-.55.7a39,39,0,0,1-5,5.16,38.4,38.4,0,0,0,8.2-9.86c-.57,1-1.18,1.9-1.82,2.8Q681.16,84.19,680.71,84.78Z"/>
    <path class="cls-1" d="M630,57.24a25.78,25.78,0,0,1,9.43,35.21c-.2.35-.42.7-.64,1a38.61,38.61,0,0,0,12.94,2.21,39.4,39.4,0,0,0,10-1.28,25.73,25.73,0,0,1,26.46-39.08,38.71,38.71,0,0,1,.42,4.53,21.64,21.64,0,0,0-5.86-.62c.14.54.12.95.1.67A38.25,38.25,0,0,1,682.1,70a10.76,10.76,0,0,1,5.39.69,39.72,39.72,0,0,1-1.85,5.55l0-.07c-.21.49-.43,1-.66,1.46-.45,1-.92,1.91-1.46,2.85A38.67,38.67,0,0,0,677.36,34l-3.93-1a24.92,24.92,0,0,1-1.73,3.68l0,.06a2.28,2.28,0,0,1,2.44.52,35,35,0,0,1,7,10.41,2.07,2.07,0,0,1-.53,2.47,2.27,2.27,0,0,1-3.22,0,2.25,2.25,0,0,1-.53-.89,30.09,30.09,0,0,0-5.93-8.78,2.27,2.27,0,0,1-.66-1.52,25.75,25.75,0,0,1-45.28-7,38.38,38.38,0,0,1,3.65-2.75,21.48,21.48,0,0,0,6.53,10.66l.85-1.48a2.15,2.15,0,0,1,2.93-.79l3.72,2.15a2.15,2.15,0,0,1,.79,2.93l-.85,1.47A21.5,21.5,0,0,0,665.46,38L664,37.14a2.15,2.15,0,0,1-.79-2.93l2-3.41-6.47-1.69v0a10.73,10.73,0,0,1-20-4.72c.7-.21,1.4-.39,2.11-.57a2.28,2.28,0,0,0,.71.57,2.16,2.16,0,0,1-.68-.68l-1.54-2.41,1.3,2.21a2.3,2.3,0,0,0,.19.26,38.62,38.62,0,0,0-24.93,19.5,30.19,30.19,0,0,0-2.27,10.78A25.6,25.6,0,0,1,630,57.24Zm32.47-5.09a2.27,2.27,0,1,1,.83,3.1A2.27,2.27,0,0,1,662.51,52.15ZM648,76.28a2.27,2.27,0,1,1,.83,3.1A2.27,2.27,0,0,1,648,76.28ZM635.14,53.75a2.27,2.27,0,0,1,3.12-.81,2.31,2.31,0,0,1,.86,3.13,2.27,2.27,0,0,1-3.12.81A2.31,2.31,0,0,1,635.14,53.75Z"/>
    <path class="cls-2" d="M680.16,85.48a39.85,39.85,0,0,1-3.27,3.6,10.8,10.8,0,0,1-1.42-1.34A39.07,39.07,0,0,1,666,93a21.63,21.63,0,0,0,2,2.47,38.8,38.8,0,0,1-4.14,1.9,25.72,25.72,0,0,1-2.18-3,39.4,39.4,0,0,1-10,1.28,38.61,38.61,0,0,1-12.94-2.21,26.28,26.28,0,0,1-3,3.78,38.74,38.74,0,0,1-4.18-1.94,21.46,21.46,0,0,0,1.56-1.52L631.74,93A2.15,2.15,0,0,1,631,90l.17-.3a37.8,37.8,0,0,1-5.21-4,10.8,10.8,0,0,1-3.19,3A38.58,38.58,0,0,1,612.36,70a10.83,10.83,0,0,1,3-1,39.54,39.54,0,0,1-1.81-10.58c-.69.12-1.38.26-2.05.44a38.79,38.79,0,0,1,.56-4.54c.51-.1,1-.19,1.53-.26a30.19,30.19,0,0,1,2.27-10.78l.06-.16c-.13.25-.24.5-.37.75l-.45.92c-.18.38-.35.75-.52,1.13l-.12.27a35.73,35.73,0,0,0-3.08,14.18c0,.07,0,.13,0,.19,0,.25,0,.49,0,.75s0,.63,0,.94v.18q0,.88.09,1.75v.08a38.47,38.47,0,0,0,33.91,35.44l.16,0,1.24.12.93.07.67,0c.49,0,1,0,1.47,0h.41l1.25,0h.12c.83,0,1.65-.1,2.47-.18l.47,0,.78-.1,1.06-.16.5-.09a38.12,38.12,0,0,0,17.22-7.81l.52-.43.59-.5A39,39,0,0,0,680.16,85.48Z"/>
    <path class="cls-2" d="M680.71,84.78q.45-.59.88-1.19C681.3,84,681,84.39,680.71,84.78Z"/>
    <path class="cls-2" d="M685.63,76.29q-.29.7-.61,1.4c.23-.48.45-1,.66-1.46Z"/>
    <circle class="cls-3" cx="664.47" cy="53.28" r="2.27" transform="translate(285.92 601.97) rotate(-59.98)"/>
    <circle class="cls-3" cx="649.98" cy="77.42" r="2.27" transform="translate(257.71 601.43) rotate(-59.97)"/>
    <path class="cls-3" d="M636,56.88a2.27,2.27,0,0,0,3.12-.81,2.31,2.31,0,0,0-.86-3.13,2.27,2.27,0,0,0-3.12.81A2.31,2.31,0,0,0,636,56.88Z"/>
    <path class="cls-4" d="M663.18,34.21a2.15,2.15,0,0,0,.79,2.93l1.49.86a21.5,21.5,0,0,1-22.88,6.12l.85-1.47a2.15,2.15,0,0,0-.79-2.93l-3.72-2.15a2.15,2.15,0,0,0-2.93.79l-.85,1.48a21.48,21.48,0,0,1-6.53-10.66A38.38,38.38,0,0,0,625,31.92a25.75,25.75,0,0,0,45.28,7,2.23,2.23,0,0,1,1.43-2.2l0-.06A24.92,24.92,0,0,0,673.42,33l-8.27-2.17Z"/>
    <path class="cls-4" d="M663.11,73.85l1.49.86a2.15,2.15,0,0,0,2.94-.79l2.15-3.72a2.15,2.15,0,0,0-.79-2.93l-1.49-.86a21.24,21.24,0,0,1,11.09-6.6c0-.08,0-.16,0-.25a1.6,1.6,0,0,1,.58-1.56,2.19,2.19,0,0,1,3.09.12,2.51,2.51,0,0,1,.6,1.13,21.64,21.64,0,0,1,5.86.62,38.71,38.71,0,0,0-.42-4.53,25.78,25.78,0,0,0-24.28,42.05,38.8,38.8,0,0,0,4.14-1.9A21.63,21.63,0,0,1,666,93,21.4,21.4,0,0,1,663.11,73.85Z"/>
    <path class="cls-4" d="M630,57.24a25.6,25.6,0,0,0-16.5-3.17c-.51.07-1,.16-1.53.26a38.79,38.79,0,0,0-.56,4.54c.68-.19,1.36-.33,2.05-.44a21.38,21.38,0,0,1,10.45.77l-.85,1.47a2.15,2.15,0,0,0,.79,2.94l3.72,2.15a2.15,2.15,0,0,0,2.94-.79l.85-1.48a21.5,21.5,0,0,1,6.14,22.87L636,85.51a2.15,2.15,0,0,0-2.93.79l-2,3.42L631,90a2.15,2.15,0,0,0,.79,2.93l1.49.86a21.46,21.46,0,0,1-1.56,1.52,38.74,38.74,0,0,0,4.18,1.94,26.28,26.28,0,0,0,3-3.78c.22-.34.44-.68.64-1A25.78,25.78,0,0,0,630,57.24Z"/>
    <path class="cls-5" d="M683.56,80.53c.54-.94,1-1.89,1.46-2.85q.32-.69.61-1.4a39.72,39.72,0,0,0,1.85-5.55A10.76,10.76,0,0,0,682.1,70,30.81,30.81,0,0,1,674,85.55a10.65,10.65,0,0,0,2.91,3.52,39.85,39.85,0,0,0,3.27-3.6l.55-.7c.3-.39.59-.79.88-1.19.64-.9,1.25-1.83,1.82-2.8l.08-.13Z"/>
    <path class="cls-5" d="M622.52,70.26A10.65,10.65,0,0,0,615.31,69a10.83,10.83,0,0,0-3,1,38.58,38.58,0,0,0,10.38,18.72,10.8,10.8,0,0,0,3.19-3c.18-.26.37-.51.53-.78A10.74,10.74,0,0,0,622.52,70.26Z"/>
    <path class="cls-5" d="M642.25,24.79c.39.1.29.11,0,0h0a3.9,3.9,0,0,1-.76-.39,2.28,2.28,0,0,1-.71-.57c-.71.17-1.41.36-2.11.57a10.73,10.73,0,0,0,20,4.72v0l-16.44-4.31Z"/>
    <path class="cls-5" d="M674.19,75.29A10.6,10.6,0,0,0,672.78,80a26.76,26.76,0,0,0,4.13-7.86A10.61,10.61,0,0,0,674.19,75.29Z"/>
    <path class="cls-6" d="M682.85,59.92c0,.28,0-.13-.1-.67a2.51,2.51,0,0,0-.6-1.13,2.19,2.19,0,0,0-3.09-.12,1.6,1.6,0,0,0-.58,1.56c0,.08,0,.16,0,.25a33.14,33.14,0,0,1-1.59,12.38A26.76,26.76,0,0,1,672.78,80a23.74,23.74,0,0,1-2,2.3A2.28,2.28,0,0,0,674,85.56h0A30.81,30.81,0,0,0,682.1,70,38.25,38.25,0,0,0,682.85,59.92Z"/>
    <path class="cls-6" d="M670.23,38.9a2.27,2.27,0,0,0,.66,1.52,30.09,30.09,0,0,1,5.93,8.78,2.25,2.25,0,0,0,.53.89,2.27,2.27,0,0,0,3.22,0,2.07,2.07,0,0,0,.53-2.47,35,35,0,0,0-7-10.41,2.28,2.28,0,0,0-2.44-.52,2.23,2.23,0,0,0-1.43,2.2Z"/>
    <path class="cls-1" d="M653.83,5.17A22.59,22.59,0,0,0,649.1,9a15.24,15.24,0,0,1,5.79-3.53Z"/>
    <path class="cls-1" d="M660.7,2.33l18,4.9A19.12,19.12,0,0,1,682.35,13L676,11.23a9.08,9.08,0,0,0-12.26-3.34l-.39-.11a2.26,2.26,0,0,1-2,1.23c-4,0-7.18,1.07-9.68,3.84a1.88,1.88,0,0,1-1.69.71,2.27,2.27,0,0,1-2.27-2.27,2.32,2.32,0,0,1,.35-1.14,21.34,21.34,0,0,0-3.2,5.38l2.4.68-1.53,4.61-2.27-.64,0,.18,39.7,10.4c.08-.27,6.06-21.46-12.23-28.78A25.39,25.39,0,0,0,660.7,2.33ZM668.2,9a6.82,6.82,0,1,1-6.82,6.82A6.82,6.82,0,0,1,668.2,9ZM655,23.3l-4.39-1.2,1.28-4.76,4.39,1.2Zm22.29,3.91a2.27,2.27,0,1,1,2.27-2.27A2.27,2.27,0,0,1,677.3,27.21Z"/>
    <path class="cls-1" d="M648.75,3.79l-.06,0a22.4,22.4,0,0,1,6.5-2.94l.07,0A24.17,24.17,0,0,1,667.18.76h0a22.75,22.75,0,0,0-27.63,15.16c.16-.51-.8,3-.84,3.11.07-.22.57-1.88.94-3A23,23,0,0,1,648.75,3.79Z"/>
    <path class="cls-2" d="M642.25,24.79c.29.11.39.1,0,0Z"/>
    <path class="cls-2" d="M642.25,24.79h0Z"/>
    <path class="cls-2" d="M641.48,24.41a3.9,3.9,0,0,0,.76.39l16.44,4.31,6.47,1.69L673.42,33l3.93,1,.29.08a2.52,2.52,0,0,0,1.81-.37l-.07.12,2.88-1.76a2.29,2.29,0,0,0,1-1.27l-.14,0-39.7-10.4,0-.18-2-.58L643,15l1.92.54a21.34,21.34,0,0,1,3.2-5.38c.38-.66.87-1,.34-.49.22-.24.45-.44.68-.66a22.59,22.59,0,0,1,4.73-3.82l-5.09-1.39a23,23,0,0,0-9.1,12.2c-.37,1.15-.87,2.81-.94,3v0a2.28,2.28,0,0,0-.05.9c.12.84.29.83.29.83l.33.52,1.54,2.41A2.16,2.16,0,0,0,641.48,24.41Z"/>
    <path class="cls-2" d="M655.26.85l5.44,1.48A25.39,25.39,0,0,1,670.9,2H671c-.86-.3-1.55-.6-2.5-.88-.43-.13-.86-.24-1.3-.34A24.17,24.17,0,0,0,655.26.85Z"/>
    <polygon class="cls-4" points="647.28 16.2 644.88 15.52 642.96 14.98 641.43 19.59 643.47 20.17 645.75 20.81 647.28 16.2"/>
    <path class="cls-4" d="M661.38,4.46a2.26,2.26,0,0,1,2,3.32l.39.11A9.08,9.08,0,0,1,676,11.23L682.35,13a19.12,19.12,0,0,0-3.66-5.71l-18-4.9L655.26.85l-.07,0a22.4,22.4,0,0,0-6.5,2.94l.06,0,5.09,1.39,1.06.29A20.09,20.09,0,0,1,661.38,4.46Z"/>
    <polygon class="cls-4" points="651.9 17.33 650.62 22.09 655.01 23.3 656.28 18.53 651.9 17.33"/>
    <path class="cls-3" d="M661.38,15.83A6.82,6.82,0,1,0,668.2,9,6.82,6.82,0,0,0,661.38,15.83Zm4.55-4.55a2.27,2.27,0,1,1-2.27,2.27A2.27,2.27,0,0,1,665.93,11.28Z"/>
    <circle class="cls-6" cx="665.93" cy="13.56" r="2.27"/>
    <circle class="cls-3" cx="677.3" cy="24.93" r="2.27"/>
    <path class="cls-6" d="M650,13.56a1.88,1.88,0,0,0,1.69-.71c2.5-2.77,5.65-3.84,9.68-3.84a2.27,2.27,0,1,0,0-4.55,20.09,20.09,0,0,0-6.48,1A15.24,15.24,0,0,0,649.1,9c-.23.22-.46.42-.68.66.53-.52,0-.17-.34.49a2.32,2.32,0,0,0-.35,1.14A2.27,2.27,0,0,0,650,13.56Z"/>
  </g>
  <g>
    <path class="cls-1" d="M760.06,91.6a2.19,2.19,0,0,1,1.07-2.9,23.77,23.77,0,0,0,2.75-1.35,10.62,10.62,0,0,1,6.82-5.68,33.14,33.14,0,0,0,6.21-10.83,21.24,21.24,0,0,0-12.77,1.86l1,1.36a2.15,2.15,0,0,1-.4,3l-3.41,2.62a2.15,2.15,0,0,1-3-.4l-1-1.36a21.38,21.38,0,0,0-4.87,17.75A39.3,39.3,0,0,0,763,94a10.77,10.77,0,0,1-.16-1.15h0A2.19,2.19,0,0,1,760.06,91.6Z"/>
    <path class="cls-1" d="M743.88,99.51l-1.12-.2Z"/>
    <path class="cls-1" d="M772.28,92.94q.58-.41,1.14-.84l0,0Q772.84,92.54,772.28,92.94Z"/>
    <path class="cls-1" d="M757.12,99.34l-.36.06Z"/>
    <path class="cls-1" d="M755.05,99.67l.41-.06-.78.1Z"/>
    <path class="cls-1" d="M711.34,60.62c0-.12,0-.24,0-.36C711.35,60.37,711.34,60.49,711.34,60.62Z"/>
    <path class="cls-1" d="M741.73,99.11l-.41-.1Z"/>
    <path class="cls-1" d="M714.52,46l.12-.28Z"/>
    <path class="cls-1" d="M773.67,91.9l0,0q.69-.53,1.35-1.1C774.57,91.19,774.13,91.55,773.67,91.9Z"/>
    <path class="cls-1" d="M711.35,62.45v0Z"/>
    <path class="cls-1" d="M724.84,77.93a2.15,2.15,0,0,1,3,.4l1,1.36A21.5,21.5,0,0,0,732,56.21l-1.35,1a2.15,2.15,0,0,1-3-.4L725,53.44a2.15,2.15,0,0,1,.4-3l1.35-1a21.45,21.45,0,0,0-11.34-5.07,31.46,31.46,0,0,0-1.9,10.6,10.72,10.72,0,0,1,5.71,19.21,10,10,0,0,1-1.42.89,38.38,38.38,0,0,0,3.54,5.62l.1-.1Z"/>
    <path class="cls-1" d="M717.58,40.33a25.75,25.75,0,0,1,10.79,45.73c-.37.28-.75.55-1.13.81A37.81,37.81,0,0,0,748,95.51a25.72,25.72,0,0,1,39.53-25.1,38.7,38.7,0,0,1-1.35,4.35,21.65,21.65,0,0,0-5.17-2.81c-.09.65-.32,1-.1.48a38.25,38.25,0,0,1-4.64,9.25,10.76,10.76,0,0,1,3.8,1.91,39,39,0,0,0,5.55-7.36A39.54,39.54,0,0,1,781,84.36h0l-.13.17q-.65.86-1.34,1.68l-.32.38q-.7.81-1.44,1.59l-.41.42q-.74.75-1.52,1.46l-.45.4-.36.32A38.64,38.64,0,0,0,777.32,34l-4.89-1.28a10.17,10.17,0,0,1-2.09,2.2,10.71,10.71,0,0,1-17.18-7.25L742.4,24.83h0c.15,0,.13,0,0,0a21.43,21.43,0,0,0,2.1,10.93l1.35-1a2.15,2.15,0,0,1,3,.4l2.62,3.41a2.15,2.15,0,0,1-.4,3l-1.35,1a21.5,21.5,0,0,0,23.48,3.1l-1-1.36a2.15,2.15,0,0,1,.4-3L776,38.7a2.15,2.15,0,0,1,3,.4l1,1.36a20.8,20.8,0,0,0,1.3-1.74,38.79,38.79,0,0,1,2.47,3.9,25.8,25.8,0,0,1-4.3,4.21l-.05,0a2.28,2.28,0,0,1,2.05,1.41A35,35,0,0,1,784,60.58a2.07,2.07,0,0,1-1.44,2.07,2.27,2.27,0,0,1-3-1.24,2.25,2.25,0,0,1-.15-1A30.09,30.09,0,0,0,777.3,50a2.28,2.28,0,0,1,0-1.66,25.75,25.75,0,0,1-39.16-23.78c.88-.29,1.77-.53,2.66-.75a2.28,2.28,0,0,0,.72.58,2.15,2.15,0,0,1-.69-.68l-1.61-2.5,1.35,2.3a2.27,2.27,0,0,0,.19.27,38.63,38.63,0,0,0-25,19.54l-.13.35C716.24,42.54,716.87,41.42,717.58,40.33Zm47.49,17.31a2.27,2.27,0,1,1-.42,3.18A2.27,2.27,0,0,1,765.07,57.64ZM745.62,74.81a2.27,2.27,0,1,1-3.18-.42A2.27,2.27,0,0,1,745.62,74.81Zm-6.45-26.17a2.27,2.27,0,0,1,3.19.44,2.31,2.31,0,0,1-.4,3.22,2.27,2.27,0,0,1-3.19-.44A2.31,2.31,0,0,1,739.17,48.64Z"/>
    <path class="cls-1" d="M749.24,100H749a39.58,39.58,0,0,1-4.75-.39,38.61,38.61,0,0,0,9.7.21,39.7,39.7,0,0,1-4,.21Z"/>
    <path class="cls-1" d="M715.17,44.56l.34-.7Z"/>
    <path class="cls-1" d="M771.41,93.54l-.46.3Z"/>
    <path class="cls-1" d="M769.66,94.64l-.11.07Z"/>
    <path class="cls-2" d="M777.79,88.19q.74-.77,1.44-1.59Q778.54,87.41,777.79,88.19Z"/>
    <path class="cls-2" d="M773.67,91.9c.45-.35.9-.71,1.33-1.08l0,0,.36-.32C774.85,91,774.27,91.44,773.67,91.9Z"/>
    <path class="cls-2" d="M780.12,83.58a10.8,10.8,0,0,1,.9.78,39.54,39.54,0,0,0,4.65-8.14A39,39,0,0,1,780.12,83.58Z"/>
    <path class="cls-2" d="M777.38,88.61q-.74.75-1.52,1.46Q776.64,89.36,777.38,88.61Z"/>
    <path class="cls-2" d="M764.23,97.26A10.75,10.75,0,0,1,763,94a39.3,39.3,0,0,1-10.6,1.63,21.64,21.64,0,0,0,1.15,4.13,39.16,39.16,0,0,1-4.36.17l.75,0a39.7,39.7,0,0,0,4-.21l.69-.07.78-.1,1.29-.2.36-.06a38.09,38.09,0,0,0,12.43-4.63l.11-.07q.65-.39,1.29-.8l.46-.3.87-.6q.57-.4,1.12-.83A38.61,38.61,0,0,1,764.23,97.26Z"/>
    <path class="cls-2" d="M779.56,86.22q.69-.82,1.34-1.68Q780.25,85.39,779.56,86.22Z"/>
    <path class="cls-2" d="M748,95.51a37.81,37.81,0,0,1-20.81-8.64,26.34,26.34,0,0,1-4.05,2.25,38.78,38.78,0,0,1-3.12-3.39,21.4,21.4,0,0,0,2-.8l-1-1.36a2.14,2.14,0,0,1,.3-2.92A38.38,38.38,0,0,1,717.79,75a11,11,0,0,1-3.45,1.15,38.58,38.58,0,0,1-2.42-21.27,10.82,10.82,0,0,1,1.58,0,31.46,31.46,0,0,1,1.9-10.6h-.08c.1-.21.22-.42.33-.63l.13-.35.08-.21c-.13.25-.24.49-.36.73l-.34.7c-.18.38-.36.76-.53,1.13l-.12.28a35.74,35.74,0,0,0-3.17,14.29c0,.12,0,.24,0,.36s0,.46,0,.71,0,.73,0,1.09v0a38.49,38.49,0,0,0,30,36.57l.41.1,1,.2,1.12.2.42.06A39.58,39.58,0,0,0,749,100,25.73,25.73,0,0,1,748,95.51Z"/>
    <circle class="cls-3" cx="766.45" cy="59.44" r="2.27" transform="translate(122.38 479.14) rotate(-37.52)"/>
    <circle class="cls-3" cx="743.82" cy="76.19" r="2.27" transform="translate(107.14 468.25) rotate(-37.47)"/>
    <path class="cls-3" d="M742,52.3a2.31,2.31,0,0,0,.4-3.22,2.27,2.27,0,0,0-3.19-.44,2.31,2.31,0,0,0-.4,3.22A2.27,2.27,0,0,0,742,52.3Z"/>
    <path class="cls-4" d="M742.21,24.78h0a3.89,3.89,0,0,1-.76-.38,2.28,2.28,0,0,1-.72-.58c-.89.22-1.78.46-2.66.75a25.75,25.75,0,0,0,39.16,23.78,2.23,2.23,0,0,1,2.16-1.49l.05,0a25.8,25.8,0,0,0,4.3-4.21,38.79,38.79,0,0,0-2.47-3.9,20.8,20.8,0,0,1-1.3,1.74l-1-1.36a2.15,2.15,0,0,0-3-.4l-3.41,2.62a2.15,2.15,0,0,0-.4,3l1,1.36a21.5,21.5,0,0,1-23.48-3.1l1.35-1a2.15,2.15,0,0,0,.4-3l-2.62-3.41a2.15,2.15,0,0,0-3-.4l-1.35,1a21.43,21.43,0,0,1-2.1-10.93l-.14,0Z"/>
    <path class="cls-4" d="M742.26,24.79l.14,0h0l-.14,0Z"/>
    <path class="cls-4" d="M733.12,49.92a25.65,25.65,0,0,0-15.55-9.59c-.7,1.09-1.34,2.21-1.92,3.35-.11.21-.23.41-.33.63h.08a21.45,21.45,0,0,1,11.34,5.07l-1.35,1a2.15,2.15,0,0,0-.4,3l2.61,3.41a2.15,2.15,0,0,0,3,.4l1.35-1a21.5,21.5,0,0,1-3.08,23.48l-1-1.36a2.15,2.15,0,0,0-3-.4l-3.41,2.62-.1.1a2.14,2.14,0,0,0-.3,2.92l1,1.36a21.4,21.4,0,0,1-2,.8,38.78,38.78,0,0,0,3.12,3.39,26.34,26.34,0,0,0,4.05-2.25c.38-.26.76-.53,1.13-.81A25.78,25.78,0,0,0,733.12,49.92Z"/>
    <path class="cls-4" d="M757.32,77.92l1,1.36a2.15,2.15,0,0,0,3,.4l3.41-2.62a2.15,2.15,0,0,0,.4-3l-1-1.36a21.24,21.24,0,0,1,12.77-1.86l.08-.23s.05-.78,1.13-1.22a2.19,2.19,0,0,1,2.81,1.29,2.52,2.52,0,0,1,.12,1.27,21.65,21.65,0,0,1,5.17,2.81,38.7,38.7,0,0,0,1.35-4.35A25.79,25.79,0,0,0,749,100h.19a39.16,39.16,0,0,0,4.36-.17,21.64,21.64,0,0,1-1.15-4.13A21.38,21.38,0,0,1,757.32,77.92Z"/>
    <path class="cls-5" d="M763.88,87.34a26.76,26.76,0,0,0,6.82-5.68,10.62,10.62,0,0,0-6.82,5.68Z"/>
    <path class="cls-5" d="M755.28,32.92a10.74,10.74,0,0,0,15.06,2,10.17,10.17,0,0,0,2.09-2.2l-19.28-5.05A10.64,10.64,0,0,0,755.28,32.92Z"/>
    <path class="cls-5" d="M721.19,59.07a10.68,10.68,0,0,0-7.69-4.15,10.82,10.82,0,0,0-1.58,0,38.58,38.58,0,0,0,2.42,21.27A11,11,0,0,0,717.79,75a10,10,0,0,0,1.42-.89A10.74,10.74,0,0,0,721.19,59.07Z"/>
    <path class="cls-5" d="M775.41,90.47l.45-.4q.79-.71,1.52-1.46l.41-.42q.75-.78,1.44-1.59l.32-.38q.69-.83,1.34-1.68l.13-.17h0a11,11,0,0,0-4.7-2.69,30.82,30.82,0,0,1-13.44,11.22,11.07,11.07,0,0,0,1.34,4.37,38.61,38.61,0,0,0,9.17-5.15l0,0,.13-.09.11-.09,0,0C774.27,91.44,774.85,91,775.41,90.47Z"/>
    <path class="cls-6" d="M781.06,71.95a2.52,2.52,0,0,0-.12-1.27,2.19,2.19,0,0,0-2.81-1.29C777,69.83,777,70.6,777,70.6l-.08.23a33.14,33.14,0,0,1-6.21,10.83,26.76,26.76,0,0,1-6.82,5.68,23.77,23.77,0,0,1-2.75,1.35,2.28,2.28,0,0,0,1.74,4.19h0a30.82,30.82,0,0,0,13.44-11.22A38.25,38.25,0,0,0,781,72.42C780.74,73,781,72.6,781.06,71.95Z"/>
    <path class="cls-6" d="M778.52,47a2.25,2.25,0,0,0-1.25,1.32,2.28,2.28,0,0,0,0,1.66,30.09,30.09,0,0,1,2.12,10.38,2.25,2.25,0,0,0,.15,1,2.27,2.27,0,0,0,3,1.24A2.07,2.07,0,0,0,784,60.58a35,35,0,0,0-2.49-12.3,2.28,2.28,0,0,0-2.05-1.41A2.24,2.24,0,0,0,778.52,47Z"/>
    <path class="cls-1" d="M753.84,5.17a22.61,22.61,0,0,0-4.62,3.7,15.23,15.23,0,0,1,5.67-3.42Z"/>
    <path class="cls-1" d="M760.72,2.33l18,4.9a19.12,19.12,0,0,1,3.66,5.71L776,11.23a9.08,9.08,0,0,0-12.26-3.34l-.39-.11a2.26,2.26,0,0,1-2,1.23c-4,0-7.18,1.07-9.68,3.84a1.88,1.88,0,0,1-1.69.71,2.21,2.21,0,0,1-1.95-3.36,21.34,21.34,0,0,0-3.16,5.33l2.39.67-1.53,4.61-2.27-.64,0,.18,39.69,10.4c.07-.23,6.07-21.44-12.21-28.78A25.38,25.38,0,0,0,760.72,2.33ZM768.2,9a6.82,6.82,0,1,1-6.82,6.82A6.82,6.82,0,0,1,768.2,9ZM755,23.29l-4.39-1.2,1.28-4.76,4.39,1.2ZM777.3,27.2a2.27,2.27,0,1,1,2.27-2.27A2.27,2.27,0,0,1,777.3,27.2Z"/>
    <path class="cls-1" d="M739.65,16a23,23,0,0,1,9.11-12.2l-.07,0a22.4,22.4,0,0,1,6.5-2.94l.08,0A24.17,24.17,0,0,1,767.21.76h0a22.75,22.75,0,0,0-27.63,15.16c.17-.52-.84,3.12-.84,3.12a2.23,2.23,0,0,0-.07.48,2.25,2.25,0,0,1,.07-.45S739.25,17.23,739.65,16Z"/>
    <path class="cls-2" d="M742.26,24.79h0Z"/>
    <path class="cls-2" d="M742.4,24.84c.13,0,.15,0,0,0l-.14,0Z"/>
    <path class="cls-2" d="M741.5,24.41a3.89,3.89,0,0,0,.76.38l.14,0,10.76,2.82,19.28,5.05L777.32,34l.33.09a2.52,2.52,0,0,0,1.81-.37l-.07.12,2.88-1.76a2.29,2.29,0,0,0,1-1.27l-.15,0-39.69-10.4,0-.18-2.05-.58L743,15l1.93.55a21.34,21.34,0,0,1,3.16-5.33c.39-.69.92-1.07.37-.54.26-.28.53-.52.8-.78a22.61,22.61,0,0,1,4.62-3.7l-5.09-1.39A23,23,0,0,0,739.65,16c-.4,1.24-1,3.08-1,3.08a2.25,2.25,0,0,0-.07.45,2.3,2.3,0,0,0,0,.46c.12.84.29.83.29.83l.27.43,1.61,2.5A2.15,2.15,0,0,0,741.5,24.41Z"/>
    <path class="cls-2" d="M755.28.85l5.44,1.48A25.38,25.38,0,0,1,770.92,2H771c-.86-.3-1.55-.6-2.5-.88-.42-.12-.85-.23-1.27-.33A24.17,24.17,0,0,0,755.28.85Z"/>
    <polygon class="cls-4" points="747.28 16.19 744.89 15.52 742.96 14.97 741.43 19.59 743.48 20.17 745.75 20.81 747.28 16.19"/>
    <path class="cls-4" d="M761.38,4.46a2.27,2.27,0,0,1,2.27,2.27,2.25,2.25,0,0,1-.26,1l.39.11A9.08,9.08,0,0,1,776,11.23l6.31,1.72a19.12,19.12,0,0,0-3.66-5.71l-18-4.9L755.28.85l-.08,0a22.4,22.4,0,0,0-6.5,2.94l.07,0,5.09,1.39,1.05.29A20.08,20.08,0,0,1,761.38,4.46Z"/>
    <polygon class="cls-4" points="751.9 17.32 750.62 22.09 755.01 23.29 756.29 18.53 751.9 17.32"/>
    <path class="cls-3" d="M761.38,15.83A6.82,6.82,0,1,0,768.2,9,6.82,6.82,0,0,0,761.38,15.83Zm4.55-4.55a2.27,2.27,0,1,1-2.27,2.27A2.27,2.27,0,0,1,765.93,11.28Z"/>
    <circle class="cls-6" cx="765.93" cy="13.56" r="2.27"/>
    <circle class="cls-3" cx="777.3" cy="24.93" r="2.27"/>
    <path class="cls-6" d="M750,13.56a1.88,1.88,0,0,0,1.69-.71c2.5-2.77,5.65-3.84,9.68-3.84a2.27,2.27,0,0,0,0-4.55,20.08,20.08,0,0,0-6.48,1,15.23,15.23,0,0,0-5.67,3.42c-.27.25-.54.5-.8.78.55-.53,0-.15-.37.54A2.21,2.21,0,0,0,750,13.56Z"/>
  </g>
  <g>
    <g id="sphere">
      <circle class="cls-1" cx="150.01" cy="61.33" r="38.67" transform="translate(10.03 143) rotate(-52.5)"/>
    </g>
    <g id="shadow">
      <path class="cls-2" d="M151.77,95.7c-21.59,0-38.3-17.31-38.3-38.67,0-5.28.46-9.31,2.4-13.9a36.88,36.88,0,0,0-4.55,18.2,38.67,38.67,0,0,0,74.35,14.9A39.12,39.12,0,0,1,151.77,95.7Z"/>
    </g>
    <g id="dots">
      <path class="cls-3" d="M149.32,73.4a2.31,2.31,0,0,0-2.56,2A2.27,2.27,0,0,0,148.7,78a2.31,2.31,0,0,0,2.56-2A2.27,2.27,0,0,0,149.32,73.4Zm-12-24.61a2.27,2.27,0,1,0,2,2.54A2.27,2.27,0,0,0,137.34,48.79Zm27.84,4.15a2.27,2.27,0,1,0,2,2.55A2.27,2.27,0,0,0,165.18,52.94Z"/>
    </g>
    <g id="orange_circles" data-name="orange circles">
      <path class="cls-4" d="M118.9,50.73a25.81,25.81,0,0,0-6-.06,38.79,38.79,0,0,0-1,4.5,20.86,20.86,0,0,1,2.15-.31l-.22,1.7A2.15,2.15,0,0,0,115.65,59l4.26.56a2.15,2.15,0,0,0,2.41-1.85l.22-1.7A21.5,21.5,0,0,1,137,74.78l-1.69-.22a2.15,2.15,0,0,0-2.41,1.85l-.56,4.26a2.15,2.15,0,0,0,1.85,2.41l1.69.22a21.48,21.48,0,0,1-7.35,10.11,38.36,38.36,0,0,0,3.94,2.32,25.75,25.75,0,0,0-13.52-45ZM178,34.68a38.81,38.81,0,0,0-3.34-3.09,21.46,21.46,0,0,1-18.1,12.84l.22-1.7a2.15,2.15,0,0,0-1.85-2.41l-4.26-.56a2.15,2.15,0,0,0-2.41,1.85L148,43.3a21.46,21.46,0,0,1-14.16-17.08,38.76,38.76,0,0,0-4,2.12A25.74,25.74,0,0,0,178,34.68Zm4.79,24.46a25.75,25.75,0,0,0-24.71,40,38.8,38.8,0,0,0,4.41-1.22A21.46,21.46,0,0,1,158,86.21l1.69.22a2.15,2.15,0,0,0,2.41-1.85l.56-4.26a2.15,2.15,0,0,0-1.85-2.41l-1.69-.22a21.5,21.5,0,0,1,18.78-14.43l-.22,1.7a2.15,2.15,0,0,0,1.85,2.41l4.26.56a2.15,2.15,0,0,0,2.41-1.85l.22-1.7a21.48,21.48,0,0,1,2,.86,38.76,38.76,0,0,0,.19-4.61A25.78,25.78,0,0,0,182.79,59.14Z"/>
    </g>
    <g id="blue_circles" data-name="blue circles">
      <path class="cls-5" d="M116.94,65.64a10.63,10.63,0,0,0-5.24.67,38.58,38.58,0,0,0,8.54,19.63,10.73,10.73,0,0,0-3.3-20.3ZM144.36,23.1a10.69,10.69,0,0,0,21,2.77,38,38,0,0,0-21-2.77Zm36.47,51a10.73,10.73,0,0,0-8.44,18.75,38.58,38.58,0,0,0,13.33-16.75A10.6,10.6,0,0,0,180.83,74.05Z"/>
    </g>
    <g id="shine">
      <path class="cls-6" d="M127.94,37.39a2.07,2.07,0,0,0-2.48.45,35,35,0,0,0-6.94,10.46A2.27,2.27,0,1,0,122.7,50a30.09,30.09,0,0,1,5.84-8.84,2.25,2.25,0,0,0,.62-.83A2.27,2.27,0,0,0,127.94,37.39Zm35.29-7.48c-8.77-3.63-18.81-2.4-27.09,1.6a2.79,2.79,0,0,0-1.39,1.34,2.19,2.19,0,0,0,1.07,2.9,1.6,1.6,0,0,0,1.67-.06c7.29-3.6,16.25-4.8,24-1.58a2.28,2.28,0,0,0,1.74-4.19Z"/>
    </g>
    <g id="head">
      <path class="cls-1" d="M167.17.76a22.75,22.75,0,0,0-27.63,15.16c.17-.52-.84,3.12-.84,3.12a2.24,2.24,0,0,0,.23,1.72l1.63,2.77a2.29,2.29,0,0,0,1.4,1.06L177.49,34a2.33,2.33,0,0,0,1.75-.23l2.82-1.6a2.27,2.27,0,0,0,1.07-1.38S190.11,6.58,167.17.76Z"/>
    </g>
    <g id="shadow-2" data-name="shadow">
      <path class="cls-2" d="M142.07,24.79h0Zm0,0c.29.11.39.1,0,0Zm1.18-4.45c.05-.19.85-3.13.84-3.16C147.6,6.14,159.24,0,170.8,2c-.86-.3-1.55-.6-2.5-.88C155.4-2.64,143.36,4,139.46,16c-.4,1.24-1,3.08-1,3.08a2.28,2.28,0,0,0-.05.9c.12.84.29.83.29.83l1.88,2.93a2.9,2.9,0,0,0,1.44,1.06l35.4,9.27a2.52,2.52,0,0,0,1.81-.37l-.07.12,2.88-1.76a2.29,2.29,0,0,0,1-1.27Z"/>
    </g>
    <g id="orange_head_details" data-name="orange head details">
      <path class="cls-8" d="M178.69,7.24,155.19.83a22.4,22.4,0,0,0-6.5,2.94L182.35,13A19.13,19.13,0,0,0,178.69,7.24ZM150.62,22.09,155,23.3l1.28-4.76-4.39-1.2Zm-9.19-2.5,4.32,1.22,1.53-4.61L143,15Z"/>
    </g>
    <g id="lens_ring" data-name="lens ring">
      <circle class="cls-1" cx="168.2" cy="15.84" r="9.1"/>
    </g>
    <g id="lens">
      <circle class="cls-3" cx="168.2" cy="15.84" r="6.82"/>
    </g>
    <g id="lens_shine" data-name="lens shine">
      <circle class="cls-6" cx="165.93" cy="13.56" r="2.27"/>
    </g>
    <g id="small_lens" data-name="small lens">
      <circle class="cls-3" cx="177.3" cy="24.93" r="2.27"/>
    </g>
    <g id="shine-2" data-name="shine">
      <path class="cls-6" d="M161.38,4.46c-5.3,0-9.64,1.6-13,5.2.8-.77-.7.36-.7,1.63A2.27,2.27,0,0,0,150,13.56a1.88,1.88,0,0,0,1.69-.71c2.5-2.77,5.65-3.84,9.68-3.84a2.27,2.27,0,0,0,0-4.55Z"/>
    </g>
  </g>
</svg>
