<svg id="Layer_1" data-name="Layer 1" xmlns="http://www.w3.org/2000/svg" width="800" height="100" viewBox="0 0 800 100">
  <defs>
    <style>
      .cls-1 {
        fill: #00cfff;
      }

      .cls-2 {
        fill: #00b7ff;
      }

      .cls-3 {
        fill: #0091be;
      }

      .cls-4 {
        fill: #00326a;
      }

      .cls-5 {
        fill: #001733;
      }
    </style>
  </defs>
  <g>
    <path class="cls-1" d="M14.07,25.57A11.66,11.66,0,0,0,25.73,37.23V28.48a2.92,2.92,0,1,1,0-5.83V13.9A11.66,11.66,0,0,0,14.07,25.57Z"/>
    <path class="cls-2" d="M25.73,13.9v8.75a2.88,2.88,0,0,1,2.75,3.86c1.86,1.23,4.37,3.15,7.08,5.33A11.65,11.65,0,0,0,25.73,13.9Z"/>
    <path class="cls-2" d="M32,35.39c-2.19-2.71-4.1-5.21-5.33-7.08a2.89,2.89,0,0,1-.94.17v8.75A11.6,11.6,0,0,0,32,35.39Z"/>
    <path class="cls-3" d="M32,35.39a11.69,11.69,0,1,1,3.55-3.55l2,1.65a14.27,14.27,0,1,0-3.92,3.92Z"/>
    <path class="cls-4" d="M25.33,25.17c.93-.93,9.24,5.72,16.58,12h0c-1.43-1.22-2.9-2.45-4.34-3.64l-2-1.65c-2.71-2.19-5.21-4.1-7.08-5.33a3,3,0,1,0-1.8,1.8c1.23,1.86,3.15,4.37,5.33,7.08l1.65,2c1,1.2,2,2.42,3,3.62V36.51Z"/>
    <path class="cls-1" d="M86.46,25.57A11.66,11.66,0,0,0,74.8,13.9v8.75a2.92,2.92,0,1,1,0,5.83v8.75A11.66,11.66,0,0,0,86.46,25.57Z"/>
    <path class="cls-2" d="M63.14,25.57A11.59,11.59,0,0,0,65,31.84c2.71-2.19,5.21-4.1,7.08-5.33a2.89,2.89,0,0,1-.17-.94,2.92,2.92,0,0,1,2.92-2.92V13.9A11.66,11.66,0,0,0,63.14,25.57Z"/>
    <path class="cls-2" d="M74.8,28.48a2.89,2.89,0,0,1-.94-.17c-1.23,1.86-3.15,4.37-5.33,7.07a11.6,11.6,0,0,0,6.28,1.84Z"/>
    <path class="cls-3" d="M65,31.84a11.69,11.69,0,1,1,3.55,3.55l-1.65,2A14.27,14.27,0,1,0,63,33.49Z"/>
    <path class="cls-4" d="M75.2,25.17,63.85,36.51V41c1-1.2,2-2.41,3-3.62l1.65-2c2.19-2.71,4.1-5.21,5.33-7.07a2.89,2.89,0,0,0,.94.17,2.92,2.92,0,1,0-2.92-2.92,2.89,2.89,0,0,0,.17.94c-1.86,1.23-4.37,3.15-7.08,5.33l-2,1.65c-1.44,1.19-2.91,2.42-4.34,3.64h0C66,30.88,74.27,24.23,75.2,25.17Z"/>
    <path class="cls-1" d="M86.46,74.43A11.66,11.66,0,0,0,74.8,62.77v8.75a2.92,2.92,0,1,1,0,5.83V86.1A11.66,11.66,0,0,0,86.46,74.43Z"/>
    <path class="cls-2" d="M68.53,64.61c2.19,2.71,4.1,5.21,5.33,7.07a2.89,2.89,0,0,1,.94-.17V62.77A11.6,11.6,0,0,0,68.53,64.61Z"/>
    <path class="cls-2" d="M74.8,86.1V77.35a2.88,2.88,0,0,1-2.75-3.86c-1.86-1.23-4.37-3.15-7.08-5.33A11.65,11.65,0,0,0,74.8,86.1Z"/>
    <path class="cls-3" d="M68.53,64.61A11.69,11.69,0,1,1,65,68.16l-2-1.65a14.27,14.27,0,1,0,3.92-3.92Z"/>
    <path class="cls-4" d="M75.2,74.83c-.93.93-9.24-5.72-16.58-12h0c1.43,1.22,2.9,2.45,4.34,3.64l2,1.65c2.71,2.19,5.21,4.1,7.08,5.33a3,3,0,1,0,1.8-1.8c-1.23-1.86-3.15-4.37-5.33-7.07l-1.65-2c-1-1.2-2-2.42-3-3.61v4.51Z"/>
    <path class="cls-1" d="M14.07,74.43A11.66,11.66,0,0,0,25.73,86.1V77.35a2.92,2.92,0,1,1,0-5.83V62.77A11.66,11.66,0,0,0,14.07,74.43Z"/>
    <path class="cls-2" d="M37.39,74.43a11.59,11.59,0,0,0-1.84-6.27c-2.71,2.19-5.21,4.1-7.08,5.33a2.88,2.88,0,0,1-2.75,3.86V86.1A11.66,11.66,0,0,0,37.39,74.43Z"/>
    <path class="cls-2" d="M25.73,71.52a2.89,2.89,0,0,1,.94.17c1.23-1.86,3.15-4.37,5.33-7.07a11.6,11.6,0,0,0-6.27-1.84Z"/>
    <path class="cls-3" d="M35.55,68.16A11.69,11.69,0,1,1,32,64.61l1.65-2a14.27,14.27,0,1,0,3.92,3.92Z"/>
    <path class="cls-4" d="M25.33,74.83,36.68,63.48V59c-1,1.2-2,2.42-3,3.62l-1.65,2c-2.19,2.71-4.1,5.21-5.33,7.07a2.89,2.89,0,0,0-.94-.17,3,3,0,1,0,2.75,2c1.86-1.23,4.37-3.15,7.08-5.33l2-1.65c1.44-1.19,2.91-2.42,4.34-3.63h0C34.57,69.12,26.26,75.77,25.33,74.83Z"/>
    <path class="cls-5" d="M63.85,41V36.51L75.2,25.17c-.93-.93-9.25,5.72-16.58,12h0C56.94,38.25,53.84,39,50.27,39s-6.67-.76-8.35-1.89h0c-7.33-6.24-15.65-12.89-16.58-12L36.68,36.51V41C38.05,42.5,39,46,39,50s-1,7.5-2.34,9v4.53L25.33,74.83c.93.93,9.24-5.72,16.58-12h0C43.59,61.75,46.69,61,50.27,61s6.67.76,8.35,1.89h0c7.34,6.24,15.65,12.89,16.58,12L63.85,63.49V59c-1.37-1.46-2.34-4.92-2.34-9s1-7.5,2.34-9Zm-6.23,4a2.22,2.22,0,1,1-2.22-2.22A2.22,2.22,0,0,1,57.62,45ZM45.37,55.43a.2.2,0,1,1,0,.4H42.55a.2.2,0,1,1,0-.4Zm.2-1.72a.2.2,0,0,1-.2.2H42.55a.2.2,0,0,1,0-.4h2.83A.2.2,0,0,1,45.58,53.71Zm-3.23,3.84a.2.2,0,0,1,.2-.2h2.83a.2.2,0,0,1,0,.4H42.55A.2.2,0,0,1,42.34,57.55Z"/>
    <path class="cls-2" d="M42.34,53.71a.2.2,0,0,0,.2.2h2.83a.2.2,0,0,0,0-.4H42.55A.2.2,0,0,0,42.34,53.71Z"/>
    <path class="cls-2" d="M42.34,55.63a.2.2,0,0,0,.2.2h2.83a.2.2,0,1,0,0-.4H42.55A.2.2,0,0,0,42.34,55.63Z"/>
    <path class="cls-2" d="M45.37,57.75a.2.2,0,0,0,0-.4H42.55a.2.2,0,0,0,0,.4Z"/>
    <circle class="cls-2" cx="55.4" cy="45.05" r="2.22"/>
    <path class="cls-1" d="M107.47,41.28a11.66,11.66,0,0,0,15.24,6.31l-3.35-8.08a2.92,2.92,0,0,1-2.23-5.39L113.79,26A11.66,11.66,0,0,0,107.47,41.28Z"/>
    <path class="cls-2" d="M129,32.35A11.66,11.66,0,0,0,113.79,26h0l3.35,8.08h0a2.92,2.92,0,0,1,3.81,1.58,2.88,2.88,0,0,1,.2.94c2.19.42,5.24,1.24,8.58,2.22A11.6,11.6,0,0,0,129,32.35Z"/>
    <path class="cls-2" d="M122.71,47.59a11.6,11.6,0,0,0,5.09-4.1c-3.06-1.67-5.78-3.25-7.63-4.5a2.89,2.89,0,0,1-.81.52h0l3.35,8.08Z"/>
    <path class="cls-3" d="M127.8,43.49a11.6,11.6,0,0,1-5.09,4.1h0A11.66,11.66,0,0,1,113.79,26h0a11.65,11.65,0,0,1,15.94,12.81l2.5.75a14.27,14.27,0,1,0-2.12,5.12Z"/>
    <path class="cls-4" d="M117.73,36.6c.5-1.22,10.73,1.75,19.89,4.71h0c-1.79-.58-3.61-1.15-5.4-1.7l-2.5-.75c-3.34-1-6.38-1.8-8.58-2.22a2.88,2.88,0,0,0-.2-.94,2.92,2.92,0,0,0-3.81-1.58h0a2.92,2.92,0,0,0,2.23,5.39h0a2.89,2.89,0,0,0,.81-.52c1.85,1.25,4.58,2.83,7.63,4.5l2.3,1.24c1.37.73,2.78,1.46,4.18,2.18l-1.73-4.17Z"/>
    <path class="cls-1" d="M168,28.81a11.66,11.66,0,0,0-8.93-21.55h0l3.35,8.08h0a2.92,2.92,0,0,1,2.23,5.39L168,28.81Z"/>
    <path class="cls-2" d="M168,28.81l-3.35-8.08h0a2.89,2.89,0,0,1-.94.2c-.42,2.19-1.24,5.24-2.22,8.58A11.6,11.6,0,0,0,168,28.81Z"/>
    <path class="cls-2" d="M152.81,22.5a11.59,11.59,0,0,0,4.1,5.09c1.66-3.06,3.24-5.78,4.5-7.63a2.89,2.89,0,0,1-.52-.81,2.92,2.92,0,0,1,1.58-3.81l-3.35-8.08A11.66,11.66,0,0,0,152.81,22.5Z"/>
    <path class="cls-3" d="M156.91,27.59a11.65,11.65,0,0,1,2.21-20.33h0A11.66,11.66,0,0,1,168,28.81h0a11.6,11.6,0,0,1-6.5.7c-.24.82-.49,1.65-.75,2.5a14.27,14.27,0,1,0-5.12-2.12C156.09,29.11,156.5,28.34,156.91,27.59Z"/>
    <path class="cls-4" d="M163.8,17.51l-6.14,14.83,1.73,4.17c.48-1.5,1-3,1.41-4.5.26-.84.51-1.68.75-2.5,1-3.34,1.8-6.38,2.22-8.58a2.89,2.89,0,0,0,.94-.2h0a2.92,2.92,0,0,0-2.23-5.39h0a2.92,2.92,0,0,0-1.58,3.81,2.89,2.89,0,0,0,.52.81c-1.25,1.85-2.83,4.58-4.5,7.63-.41.75-.82,1.52-1.24,2.3-.88,1.65-1.76,3.35-2.62,5h0C157.45,26.34,162.58,17,163.8,17.51Z"/>
    <path class="cls-1" d="M181.17,60.49a2.92,2.92,0,1,1,2.23,5.39L186.75,74a11.66,11.66,0,1,0-8.93-21.55h0l3.35,8.08Z"/>
    <path class="cls-2" d="M181.17,60.49l-3.35-8.08a11.6,11.6,0,0,0-5.09,4.1c3.06,1.67,5.78,3.24,7.63,4.5A2.89,2.89,0,0,1,181.17,60.49Z"/>
    <path class="cls-2" d="M183.4,65.88a2.88,2.88,0,0,1-4-2.51c-2.19-.42-5.24-1.24-8.58-2.22A11.65,11.65,0,0,0,186.75,74h0l-3.35-8.08Z"/>
    <path class="cls-3" d="M176.83,50a14.17,14.17,0,0,0-6.4,5.26l2.3,1.24a11.6,11.6,0,0,1,5.09-4.1h0A11.66,11.66,0,1,1,186.75,74h0a11.65,11.65,0,0,1-15.94-12.81l-2.5-.75A14.25,14.25,0,1,0,176.83,50Z"/>
    <path class="cls-4" d="M170.81,61.15c3.34,1,6.38,1.8,8.58,2.22a2.88,2.88,0,0,0,4,2.51h0a2.92,2.92,0,1,0-2.23-5.39h0a2.89,2.89,0,0,0-.81.52c-1.85-1.25-4.58-2.83-7.63-4.5l-2.3-1.24c-1.37-.73-2.78-1.46-4.18-2.18L168,57.26l14.82,6.14c-.5,1.22-10.73-1.75-19.9-4.71h0c1.79.58,3.61,1.15,5.4,1.7Z"/>
    <path class="cls-5" d="M182.81,63.4,168,57.26l-1.73-4.17v0c-1.83-.82-4-3.65-5.59-7.38s-2-7.3-1.27-9.17v0l-1.73-4.17,6.14-14.83c-1.22-.5-6.35,8.82-10.74,17.4h0c-1.12,1.68-3.69,3.57-7,4.94s-6.46,1.85-8.44,1.45h0c-9.16-3-19.39-5.92-19.89-4.71l14.83,6.14,1.73,4.17v0c1.83.82,4,3.65,5.59,7.38s2,7.3,1.27,9.17v0l1.73,4.17-6.14,14.83c1.22.5,6.35-8.82,10.74-17.39h0c1.12-1.68,3.69-3.58,7-4.94s6.45-1.85,8.44-1.45h0C172.08,61.66,182.3,64.62,182.81,63.4Zm-35-6.51a.2.2,0,1,1,.15.37l-2.61,1.08a.2.2,0,0,1-.15-.37Zm-.47-1.66a.2.2,0,0,1-.11.26l-2.61,1.08a.2.2,0,0,1-.15-.37l2.61-1.08A.2.2,0,0,1,147.35,55.22Zm7.81-12.61a2.22,2.22,0,1,1-2.9-1.2A2.22,2.22,0,0,1,155.17,42.61ZM145.84,60a.2.2,0,0,1,.11-.26l2.61-1.08a.2.2,0,0,1,.15.37l-2.61,1.08A.2.2,0,0,1,145.84,60Z"/>
    <path class="cls-1" d="M132.49,71.19a11.66,11.66,0,1,0,8.93,21.55h0l-3.35-8.08h0a2.92,2.92,0,0,1-2.23-5.39h0l-3.35-8.08Z"/>
    <path class="cls-2" d="M147.73,77.5a11.6,11.6,0,0,0-4.1-5.09c-1.67,3.06-3.25,5.78-4.5,7.63a2.89,2.89,0,0,1,.52.81,2.92,2.92,0,0,1-1.58,3.81l3.35,8.08A11.66,11.66,0,0,0,147.73,77.5Z"/>
    <path class="cls-2" d="M132.49,71.19l3.35,8.08a2.89,2.89,0,0,1,.94-.2c.42-2.19,1.24-5.24,2.22-8.58A11.6,11.6,0,0,0,132.49,71.19Z"/>
    <path class="cls-3" d="M143.62,72.41a11.65,11.65,0,0,1-2.21,20.33h0a11.66,11.66,0,1,1-8.93-21.55h0a11.6,11.6,0,0,1,6.5-.7c.24-.82.49-1.66.75-2.5a14.27,14.27,0,1,0,5.12,2.12C144.44,70.89,144,71.66,143.62,72.41Z"/>
    <path class="cls-4" d="M136.73,82.49l6.14-14.83-1.73-4.17c-.48,1.5-1,3-1.41,4.5-.26.84-.51,1.68-.75,2.5-1,3.34-1.8,6.38-2.22,8.58a2.89,2.89,0,0,0-.94.2h0a2.92,2.92,0,0,0,2.23,5.39h0a2.92,2.92,0,0,0,1.58-3.81,2.89,2.89,0,0,0-.52-.81c1.25-1.85,2.83-4.58,4.5-7.63.41-.75.82-1.52,1.24-2.3.88-1.65,1.76-3.35,2.62-5h0C143.08,73.67,137.95,83,136.73,82.49Z"/>
    <path class="cls-2" d="M144.37,56.46a.2.2,0,0,0,.26.11l2.61-1.08a.2.2,0,1,0-.15-.37l-2.61,1.08A.2.2,0,0,0,144.37,56.46Z"/>
    <path class="cls-2" d="M145.1,58.24a.2.2,0,0,0,.26.11L148,57.26a.2.2,0,1,0-.15-.37L145.21,58A.2.2,0,0,0,145.1,58.24Z"/>
    <path class="cls-2" d="M148.71,59a.2.2,0,0,0-.15-.37l-2.61,1.08a.2.2,0,1,0,.15.37Z"/>
    <circle class="cls-2" cx="153.12" cy="43.46" r="2.22" transform="translate(-4.98 61.9) rotate(-22.5)"/>
    <path class="cls-1" d="M207.41,41.82A11.66,11.66,0,0,0,223.9,58.32l-6.19-6.19h0A2.92,2.92,0,1,1,213.59,48l-6.19-6.19Z"/>
    <path class="cls-2" d="M223.9,58.32A11.6,11.6,0,0,0,227,52.58c-3.46-.37-6.59-.78-8.77-1.23a2.88,2.88,0,0,1-.55.79l6.19,6.19Z"/>
    <path class="cls-2" d="M207.41,41.82,213.59,48h0a2.92,2.92,0,0,1,4.12,0,2.88,2.88,0,0,1,.55.79c2.19-.45,5.31-.86,8.77-1.23a11.65,11.65,0,0,0-19.63-5.74Z"/>
    <path class="cls-3" d="M227,52.58a11.6,11.6,0,0,1-3.13,5.74h0a11.66,11.66,0,0,1-16.49-16.49h0A11.65,11.65,0,0,1,227,47.56l2.6-.26a14.27,14.27,0,1,0,0,5.54Z"/>
    <path class="cls-4" d="M215.09,50.07c0-1.32,10.58-2.49,20.18-3.26h0c-1.87.15-3.78.32-5.64.5l-2.6.26c-3.46.37-6.59.78-8.77,1.23a2.88,2.88,0,0,0-.55-.79,2.92,2.92,0,0,0-4.12,0h0a2.92,2.92,0,1,0,4.12,4.12h0a2.88,2.88,0,0,0,.55-.79c2.19.45,5.31.86,8.77,1.23l2.6.26c1.55.15,3.13.29,4.69.42l-3.19-3.19Z"/>
    <path class="cls-1" d="M258.6,7.13a11.66,11.66,0,0,0-16.49,0l6.18,6.18a2.92,2.92,0,0,1,4.12,4.12l6.18,6.18A11.66,11.66,0,0,0,258.6,7.13Z"/>
    <path class="cls-2" d="M252.41,17.44h0a2.89,2.89,0,0,1-.79.55c.45,2.19.86,5.31,1.23,8.77a11.6,11.6,0,0,0,5.74-3.13Z"/>
    <path class="cls-2" d="M242.1,7.13a11.65,11.65,0,0,0,5.74,19.63c.37-3.46.78-6.59,1.23-8.77a2.89,2.89,0,0,1-.79-4.67h0L242.1,7.13Z"/>
    <path class="cls-3" d="M247.84,26.76A11.65,11.65,0,0,1,242.1,7.13h0a11.66,11.66,0,1,1,10.75,19.63c.09.85.18,1.72.26,2.6a14.27,14.27,0,1,0-5.54,0C247.66,28.47,247.75,27.6,247.84,26.76Z"/>
    <path class="cls-4" d="M250.35,14.81v16L253.54,34c-.13-1.57-.27-3.15-.42-4.69-.08-.88-.17-1.75-.26-2.6-.37-3.46-.78-6.58-1.23-8.77a2.89,2.89,0,0,0,.79-.55h0a2.92,2.92,0,0,0-4.12-4.12h0a2.89,2.89,0,0,0,.79,4.67c-.45,2.19-.86,5.31-1.23,8.77-.09.85-.18,1.72-.26,2.59-.18,1.86-.35,3.77-.5,5.64h0C247.86,25.39,249,14.81,250.35,14.81Z"/>
    <path class="cls-1" d="M287,47.87A2.92,2.92,0,0,1,287,52l6.19,6.19h0a11.66,11.66,0,1,0-16.49-16.49l6.19,6.19A2.92,2.92,0,0,1,287,47.87Z"/>
    <path class="cls-2" d="M287,52a2.88,2.88,0,0,1-4.67-.79c-2.19.45-5.31.86-8.77,1.23a11.65,11.65,0,0,0,19.63,5.74L287,52Z"/>
    <path class="cls-2" d="M282.84,47.87h0l-6.19-6.19h0a11.6,11.6,0,0,0-3.13,5.74c3.46.37,6.59.78,8.77,1.23A2.88,2.88,0,0,1,282.84,47.87Z"/>
    <path class="cls-3" d="M274.82,39.85a14.17,14.17,0,0,0-3.9,7.31l2.6.26a11.6,11.6,0,0,1,3.13-5.74h0a11.66,11.66,0,1,1,16.49,16.49h0a11.65,11.65,0,0,1-19.63-5.74l-2.6.26a14.25,14.25,0,1,0,3.9-12.85Z"/>
    <path class="cls-4" d="M273.52,52.44c3.46-.37,6.59-.78,8.77-1.23A2.88,2.88,0,0,0,287,52h0a2.92,2.92,0,0,0-4.12-4.12h0a2.88,2.88,0,0,0-.55.79c-2.19-.45-5.31-.86-8.77-1.23l-2.6-.26c-1.55-.15-3.13-.29-4.69-.42l3.19,3.19h16c0,1.32-10.58,2.49-20.18,3.26h0c1.87-.15,3.78-.32,5.64-.5Z"/>
    <path class="cls-5" d="M285.47,49.93h-16l-3.19-3.19h0c-2-.06-5.13-1.83-8-4.68s-4.62-6-4.68-8h0l-3.19-3.19v-16c-1.32,0-2.49,10.58-3.27,20.18h0c-.39,2-2,4.71-4.57,7.24s-5.26,4.18-7.24,4.57h0c-9.6.77-20.18,1.95-20.18,3.26h16l3.19,3.19h0c2,.06,5.13,1.83,8,4.68s4.62,6,4.68,8h0l3.19,3.19V85.19c1.32,0,2.49-10.58,3.27-20.18h0c.39-2,2-4.72,4.57-7.25s5.25-4.18,7.24-4.57h0C274.89,52.42,285.47,51.25,285.47,49.93ZM252,41.3a2.22,2.22,0,1,1-3.14,0A2.22,2.22,0,0,1,252,41.3ZM247.3,58.23a.2.2,0,0,1,0-.29l2-2a.2.2,0,0,1,.29.29l-2,2A.2.2,0,0,1,247.3,58.23Zm1.36,1.36a.2.2,0,0,1,0-.29l2-2a.2.2,0,1,1,.29.29l-2,2A.2.2,0,0,1,248.66,59.59ZM250,60.94a.2.2,0,0,1,0-.29l2-2a.2.2,0,0,1,.29.29l-2,2A.2.2,0,0,1,250,60.94Z"/>
    <path class="cls-1" d="M242,92.87a11.66,11.66,0,0,0,16.49,0l-6.19-6.19a2.92,2.92,0,0,1-4.12-4.12L242,76.38A11.66,11.66,0,0,0,242,92.87Z"/>
    <path class="cls-2" d="M248.14,82.57h0a2.89,2.89,0,0,1,.79-.55c-.45-2.19-.86-5.31-1.23-8.77A11.6,11.6,0,0,0,242,76.38Z"/>
    <path class="cls-2" d="M258.45,76.38a11.59,11.59,0,0,0-5.74-3.13c-.37,3.46-.78,6.59-1.23,8.77a2.88,2.88,0,0,1,.79,4.67l6.19,6.19A11.66,11.66,0,0,0,258.45,76.38Z"/>
    <path class="cls-3" d="M252.71,73.25a11.69,11.69,0,1,1-5,0c-.09-.85-.18-1.72-.26-2.6a14.27,14.27,0,1,0,5.54,0C252.89,71.53,252.8,72.4,252.71,73.25Z"/>
    <path class="cls-4" d="M250.21,85.19V69.14L247,66c.13,1.57.27,3.15.42,4.7.08.88.17,1.75.26,2.6.37,3.46.78,6.59,1.23,8.77a2.89,2.89,0,0,0-.79.55h0a3,3,0,1,0,3.34-.55c.45-2.19.86-5.31,1.23-8.77.09-.85.18-1.72.26-2.6.18-1.86.35-3.76.5-5.64h0C252.7,74.62,251.52,85.19,250.21,85.19Z"/>
    <path class="cls-2" d="M249.59,55.94a.2.2,0,0,0-.29,0l-2,2a.2.2,0,0,0,.29.29l2-2A.2.2,0,0,0,249.59,55.94Z"/>
    <path class="cls-2" d="M250.94,57.59a.2.2,0,1,0-.29-.29l-2,2a.2.2,0,0,0,.29.29Z"/>
    <path class="cls-2" d="M252.3,58.94a.2.2,0,0,0-.29-.29l-2,2a.2.2,0,0,0,.29.29Z"/>
    <circle class="cls-2" cx="250.41" cy="42.87" r="2.22" transform="translate(43.03 189.63) rotate(-45)"/>
    <path class="cls-1" d="M307.47,58.85A11.66,11.66,0,0,0,329,67.78h0l-8.08-3.35a2.92,2.92,0,1,1-5.39-2.23h0l-8.08-3.35Z"/>
    <path class="cls-2" d="M322.71,52.54a11.66,11.66,0,0,0-15.24,6.31l8.08,3.35a2.88,2.88,0,0,1,4.62-1.06c1.85-1.25,4.58-2.83,7.63-4.5A11.59,11.59,0,0,0,322.71,52.54Z"/>
    <path class="cls-2" d="M329.72,61.28c-3.34,1-6.38,1.8-8.58,2.22a2.89,2.89,0,0,1-.2.94h0L329,67.78A11.6,11.6,0,0,0,329.72,61.28Z"/>
    <path class="cls-3" d="M329.72,61.28a11.6,11.6,0,0,1-.7,6.5h0a11.66,11.66,0,0,1-21.55-8.93h0a11.65,11.65,0,0,1,20.33-2.21l2.3-1.24a14.27,14.27,0,1,0,2.12,5.12Z"/>
    <path class="cls-4" d="M317.72,63.53c-.51-1.22,8.82-6.35,17.39-10.74h0c-1.67.86-3.37,1.74-5,2.62l-2.3,1.24c-3.06,1.67-5.78,3.25-7.63,4.5a2.88,2.88,0,0,0-4.62,1.06h0a2.92,2.92,0,1,0,5.39,2.23h0a2.89,2.89,0,0,0,.2-.94c2.19-.42,5.24-1.24,8.58-2.22l2.5-.75c1.49-.45,3-.93,4.5-1.41l-4.17-1.73Z"/>
    <path class="cls-1" d="M341.48,7.21a11.66,11.66,0,0,0-15.24,6.31l8.08,3.35a2.92,2.92,0,0,1,5.39,2.23h0l8.08,3.35A11.66,11.66,0,0,0,341.48,7.21Z"/>
    <path class="cls-2" d="M347.8,22.45h0l-8.08-3.35a2.89,2.89,0,0,1-.52.81c1.25,1.85,2.83,4.58,4.5,7.63A11.6,11.6,0,0,0,347.8,22.45Z"/>
    <path class="cls-2" d="M326.25,13.52a11.65,11.65,0,0,0,12.81,15.94c-1-3.34-1.8-6.38-2.22-8.58a2.89,2.89,0,0,1-.94-.2,2.92,2.92,0,0,1-1.58-3.81h0l-8.08-3.35Z"/>
    <path class="cls-3" d="M339.06,29.46a11.65,11.65,0,0,1-12.81-15.94h0a11.66,11.66,0,1,1,21.55,8.93h0a11.6,11.6,0,0,1-4.1,5.09l1.24,2.3A14.27,14.27,0,1,0,339.81,32C339.55,31.11,339.3,30.28,339.06,29.46Z"/>
    <path class="cls-4" d="M336.81,17.46l6.14,14.83L347.11,34c-.72-1.4-1.45-2.8-2.18-4.18l-1.24-2.3c-1.66-3.05-3.24-5.78-4.5-7.63a2.89,2.89,0,0,0,.52-.81h0a2.92,2.92,0,0,0-5.39-2.23h0a2.92,2.92,0,0,0,1.58,3.81,2.89,2.89,0,0,0,.94.2c.42,2.19,1.24,5.24,2.22,8.58.24.82.49,1.65.75,2.5.55,1.79,1.12,3.61,1.7,5.4h0C338.55,28.19,335.59,18,336.81,17.46Z"/>
    <path class="cls-1" d="M379.48,35.57a2.92,2.92,0,0,1,5.39,2.23l8.08,3.35h0a11.66,11.66,0,1,0-21.55-8.93h0l8.08,3.35Z"/>
    <path class="cls-2" d="M384.86,37.8a2.88,2.88,0,0,1-4.62,1.06c-1.85,1.25-4.58,2.83-7.63,4.5a11.65,11.65,0,0,0,20.33-2.21l-8.08-3.35Z"/>
    <path class="cls-2" d="M379.48,35.57l-8.08-3.35a11.6,11.6,0,0,0-.7,6.5c3.34-1,6.38-1.8,8.58-2.22A2.89,2.89,0,0,1,379.48,35.57Z"/>
    <path class="cls-3" d="M387.62,23.52a14.25,14.25,0,0,0-19.43,16l2.5-.75a11.6,11.6,0,0,1,.7-6.5h0a11.66,11.66,0,1,1,21.55,8.93h0a11.65,11.65,0,0,1-20.33,2.21l-2.3,1.24a14.25,14.25,0,1,0,17.31-21.08Z"/>
    <path class="cls-4" d="M372.61,43.36c3.06-1.67,5.78-3.25,7.63-4.5a2.88,2.88,0,0,0,4.62-1.06h0a2.92,2.92,0,0,0-5.39-2.23h0a2.89,2.89,0,0,0-.2.94c-2.19.42-5.24,1.24-8.58,2.22l-2.5.75c-1.49.45-3,.93-4.5,1.41l4.17,1.73,14.83-6.14c.51,1.22-8.82,6.35-17.4,10.74h0c1.67-.86,3.37-1.74,5-2.62Z"/>
    <path class="cls-5" d="M382.69,36.47l-14.83,6.14-4.17-1.73h0c-1.87.71-5.44.28-9.17-1.27S348,35.85,347.13,34h0l-4.17-1.73-6.14-14.83c-1.22.5,1.75,10.73,4.71,19.9h0c.4,2-.09,5.14-1.45,8.44s-3.26,5.87-4.94,7h0c-8.57,4.39-17.9,9.52-17.39,10.74l14.83-6.14,4.17,1.73h0c1.87-.71,5.44-.28,9.17,1.27s6.56,3.76,7.38,5.59h0l4.17,1.73,6.14,14.83c1.22-.5-1.74-10.73-4.7-19.89h0c-.4-2,.08-5.14,1.45-8.44s3.26-5.87,4.94-7h0C373.87,42.82,383.2,37.68,382.69,36.47Zm-29,20.28-1.08,2.61a.2.2,0,1,1-.37-.15l1.08-2.61a.2.2,0,1,1,.37.15Zm-3.23,1.72,1.08-2.61A.2.2,0,1,1,352,56l-1.08,2.61a.2.2,0,0,1-.37-.15Zm-2-17.17a2.22,2.22,0,1,1-2.9,1.2A2.22,2.22,0,0,1,348.45,41.31Zm5.7,18.9a.2.2,0,0,1-.11-.26l1.08-2.61a.2.2,0,0,1,.37.15l-1.08,2.61A.2.2,0,0,1,354.15,60.21Z"/>
    <path class="cls-1" d="M358.93,92.79a11.66,11.66,0,0,0,15.24-6.31l-8.08-3.35a2.92,2.92,0,1,1-5.39-2.23h0l-8.08-3.35A11.66,11.66,0,0,0,358.93,92.79Z"/>
    <path class="cls-2" d="M374.17,86.48a11.65,11.65,0,0,0-12.81-15.94c1,3.34,1.8,6.38,2.22,8.58a2.88,2.88,0,0,1,2.51,4h0l8.08,3.35Z"/>
    <path class="cls-2" d="M352.62,77.56h0l8.08,3.35a2.89,2.89,0,0,1,.52-.81c-1.25-1.85-2.83-4.58-4.5-7.63A11.6,11.6,0,0,0,352.62,77.56Z"/>
    <path class="cls-3" d="M361.35,70.54a11.65,11.65,0,0,1,12.81,15.94h0a11.66,11.66,0,1,1-21.55-8.93h0a11.6,11.6,0,0,1,4.1-5.09c-.41-.75-.82-1.52-1.24-2.3A14.27,14.27,0,1,0,360.6,68C360.86,68.89,361.11,69.73,361.35,70.54Z"/>
    <path class="cls-4" d="M363.61,82.54l-6.14-14.83L353.3,66c.72,1.4,1.45,2.8,2.18,4.18.41.78.83,1.55,1.24,2.3,1.66,3.06,3.24,5.78,4.5,7.63a2.89,2.89,0,0,0-.52.81h0a2.92,2.92,0,1,0,5.39,2.23h0a2.88,2.88,0,0,0-2.51-4c-.42-2.19-1.24-5.24-2.22-8.58-.24-.82-.49-1.65-.75-2.5-.55-1.79-1.12-3.61-1.7-5.4h0C361.86,71.82,364.82,82,363.61,82.54Z"/>
    <path class="cls-2" d="M350.87,58.63,352,56a.2.2,0,1,0-.37-.15l-1.08,2.61a.2.2,0,0,0,.37.15Z"/>
    <path class="cls-2" d="M353.35,56.6l-1.08,2.61a.2.2,0,1,0,.37.15l1.08-2.61a.2.2,0,1,0-.37-.15Z"/>
    <path class="cls-2" d="M355.5,57.49a.2.2,0,0,0-.37-.15L354,59.95a.2.2,0,0,0,.37.15Z"/>
    <circle class="cls-2" cx="347.6" cy="43.36" r="2.22" transform="translate(174.51 347.9) rotate(-67.5)"/>
    <path class="cls-1" d="M425.84,86.2a11.66,11.66,0,0,0,11.66-11.66h-8.75a2.92,2.92,0,0,1-5.83,0h-8.75A11.66,11.66,0,0,0,425.84,86.2Z"/>
    <path class="cls-2" d="M414.18,74.53h8.75a2.92,2.92,0,0,1,2.92-2.92,2.89,2.89,0,0,1,.94.17c1.23-1.86,3.15-4.37,5.33-7.08a11.65,11.65,0,0,0-17.94,9.82Z"/>
    <path class="cls-2" d="M435.66,68.26c-2.71,2.19-5.21,4.1-7.08,5.33a2.89,2.89,0,0,1,.17.94h8.75A11.6,11.6,0,0,0,435.66,68.26Z"/>
    <path class="cls-3" d="M435.66,68.26a11.68,11.68,0,1,1-3.55-3.55l1.65-2a14.27,14.27,0,1,0,3.92,3.92Z"/>
    <path class="cls-4" d="M425.44,74.93c-.93-.93,5.72-9.24,12-16.58h0c-1.22,1.43-2.45,2.9-3.64,4.34l-1.65,2c-2.19,2.71-4.1,5.21-5.33,7.08a2.89,2.89,0,0,0-.94-.17,2.92,2.92,0,1,0,2.92,2.92,2.89,2.89,0,0,0-.17-.94c1.86-1.23,4.37-3.15,7.08-5.33l2-1.65c1.2-1,2.42-2,3.62-3h-4.51Z"/>
    <path class="cls-1" d="M425.84,13.8a11.66,11.66,0,0,0-11.66,11.66h8.75a2.92,2.92,0,0,1,5.83,0h8.75A11.66,11.66,0,0,0,425.84,13.8Z"/>
    <path class="cls-2" d="M425.84,37.13a11.59,11.59,0,0,0,6.28-1.84c-2.19-2.71-4.1-5.21-5.33-7.07a2.89,2.89,0,0,1-3.86-2.75h-8.75A11.66,11.66,0,0,0,425.84,37.13Z"/>
    <path class="cls-2" d="M428.76,25.47a2.89,2.89,0,0,1-.17.94c1.86,1.23,4.37,3.15,7.07,5.33a11.6,11.6,0,0,0,1.84-6.28Z"/>
    <path class="cls-3" d="M432.12,35.29a11.69,11.69,0,1,1,3.55-3.55l2,1.65a14.27,14.27,0,1,0-3.92,3.92Z"/>
    <path class="cls-4" d="M425.44,25.06l11.35,11.35h4.51c-1.2-1-2.41-2-3.62-3l-2-1.65c-2.71-2.19-5.21-4.1-7.07-5.33a2.89,2.89,0,0,0,.17-.94,3,3,0,1,0-2,2.75c1.23,1.86,3.15,4.37,5.33,7.07l1.65,2c1.19,1.44,2.42,2.91,3.64,4.34h0C431.16,34.31,424.51,26,425.44,25.06Z"/>
    <path class="cls-1" d="M474.71,13.8A11.66,11.66,0,0,0,463,25.47h8.75a2.92,2.92,0,1,1,5.83,0h8.75A11.66,11.66,0,0,0,474.71,13.8Z"/>
    <path class="cls-2" d="M464.89,31.74c2.71-2.19,5.21-4.1,7.07-5.33a2.89,2.89,0,0,1-.17-.94H463A11.6,11.6,0,0,0,464.89,31.74Z"/>
    <path class="cls-2" d="M486.37,25.47h-8.75a2.88,2.88,0,0,1-3.86,2.75c-1.23,1.86-3.15,4.37-5.33,7.08a11.65,11.65,0,0,0,17.94-9.82Z"/>
    <path class="cls-3" d="M464.89,31.74a11.69,11.69,0,1,1,3.55,3.55l-1.65,2a14.27,14.27,0,1,0-3.92-3.92Z"/>
    <path class="cls-4" d="M475.11,25.07c.93.93-5.72,9.24-12,16.58h0c1.22-1.43,2.45-2.9,3.64-4.34l1.65-2c2.19-2.71,4.1-5.21,5.33-7.08a3,3,0,1,0-1.8-1.8c-1.86,1.23-4.37,3.15-7.07,5.33l-2,1.65c-1.2,1-2.42,2-3.61,3h4.51Z"/>
    <path class="cls-1" d="M474.71,86.2a11.66,11.66,0,0,0,11.66-11.66h-8.75a2.92,2.92,0,0,1-5.83,0H463A11.66,11.66,0,0,0,474.71,86.2Z"/>
    <path class="cls-2" d="M471.8,74.54a2.89,2.89,0,0,1,.17-.94c-1.86-1.23-4.37-3.15-7.07-5.33A11.6,11.6,0,0,0,463,74.54Z"/>
    <path class="cls-2" d="M474.71,62.87a11.6,11.6,0,0,0-6.27,1.84c2.19,2.71,4.1,5.21,5.33,7.08a2.88,2.88,0,0,1,.94-.17,2.92,2.92,0,0,1,2.92,2.92h8.75A11.66,11.66,0,0,0,474.71,62.87Z"/>
    <path class="cls-3" d="M468.44,64.71a11.69,11.69,0,1,1-3.55,3.55l-2-1.65a14.27,14.27,0,1,0,3.92-3.92Z"/>
    <path class="cls-4" d="M463.15,58.36c6.24,7.33,12.89,15.65,12,16.58L463.76,63.59h-4.51c1.2,1,2.42,2,3.62,3l2,1.65c2.71,2.19,5.21,4.1,7.07,5.33a2.89,2.89,0,0,0-.17.94,2.92,2.92,0,1,0,2.92-2.92,2.88,2.88,0,0,0-.94.17c-1.23-1.86-3.15-4.37-5.33-7.08l-1.65-2c-1.19-1.44-2.42-2.91-3.63-4.34Z"/>
    <path class="cls-5" d="M475.11,74.94c.93-.93-5.72-9.24-12-16.58h0c-1.13-1.68-1.89-4.78-1.89-8.36s.76-6.67,1.89-8.35h0c6.24-7.33,12.89-15.65,12-16.58L463.77,36.41h-4.53c-1.46,1.37-4.92,2.34-9,2.34s-7.5-1-9-2.34h-4.53L425.44,25.06c-.93.93,5.72,9.25,12,16.58h0c1.13,1.68,1.89,4.78,1.89,8.35s-.76,6.67-1.89,8.35h0c-6.24,7.33-12.89,15.65-12,16.58l11.35-11.35h4.53c1.46-1.37,4.92-2.34,9-2.34s7.5,1,9,2.34h4.53Zm-19-17.21a.2.2,0,1,1-.4,0V54.89a.2.2,0,1,1,.4,0Zm-1.92-2.83v2.83a.2.2,0,1,1-.4,0V54.89a.2.2,0,1,1,.4,0Zm-8.86-12.25a2.22,2.22,0,1,1-2.22,2.22A2.22,2.22,0,0,1,445.33,42.64Zm12.5,15.28a.2.2,0,0,1-.2-.2V54.89a.2.2,0,1,1,.4,0v2.83A.2.2,0,0,1,457.83,57.92Z"/>
    <path class="cls-2" d="M453.79,54.89v2.83a.2.2,0,1,0,.4,0V54.89a.2.2,0,1,0-.4,0Z"/>
    <path class="cls-2" d="M455.91,54.69a.2.2,0,0,0-.2.2v2.83a.2.2,0,1,0,.4,0V54.89A.2.2,0,0,0,455.91,54.69Z"/>
    <path class="cls-2" d="M458,54.89a.2.2,0,1,0-.4,0v2.83a.2.2,0,1,0,.4,0Z"/>
    <circle class="cls-2" cx="445.33" cy="44.87" r="2.22"/>
    <path class="cls-1" d="M526.3,86.48a11.66,11.66,0,1,0,21.55-8.93l-8.08,3.35h0a2.92,2.92,0,0,1-5.39,2.23l-8.08,3.35Z"/>
    <path class="cls-2" d="M547.85,77.55a11.6,11.6,0,0,0-4.1-5.09c-1.67,3.06-3.25,5.78-4.5,7.63a2.89,2.89,0,0,1,.52.81l8.08-3.35Z"/>
    <path class="cls-2" d="M532.61,71.24a11.66,11.66,0,0,0-6.31,15.24l8.08-3.35h0A2.92,2.92,0,0,1,536,79.32a2.88,2.88,0,0,1,.94-.2c.42-2.19,1.24-5.24,2.22-8.58A11.59,11.59,0,0,0,532.61,71.24Z"/>
    <path class="cls-3" d="M543.75,72.46a11.6,11.6,0,0,1,4.1,5.09h0a11.66,11.66,0,1,1-21.55,8.93h0a11.65,11.65,0,0,1,12.81-15.94c.24-.82.49-1.65.75-2.5A14.27,14.27,0,1,0,545,70.16C544.57,70.94,544.15,71.71,543.75,72.46Z"/>
    <path class="cls-4" d="M536.86,82.54c-1.22-.5,1.75-10.73,4.71-19.89h0c-.58,1.79-1.15,3.61-1.7,5.4-.26.84-.51,1.68-.75,2.5-1,3.34-1.8,6.38-2.22,8.58a2.88,2.88,0,0,0-.94.2,2.92,2.92,0,0,0-1.58,3.81h0a2.92,2.92,0,0,0,5.39-2.23h0a2.89,2.89,0,0,0-.52-.81c1.25-1.85,2.83-4.58,4.5-7.63.41-.75.82-1.52,1.24-2.3.73-1.37,1.46-2.78,2.18-4.18L543,67.71Z"/>
    <path class="cls-1" d="M529.07,32.22a11.66,11.66,0,0,0-21.55,8.93l8.08-3.35h0A2.92,2.92,0,1,1,521,35.57l8.08-3.35Z"/>
    <path class="cls-2" d="M507.52,41.15a11.65,11.65,0,0,0,20.33,2.21c-3.06-1.66-5.78-3.24-7.63-4.5a2.88,2.88,0,0,1-.81.52,2.92,2.92,0,0,1-3.81-1.58l-8.08,3.35Z"/>
    <path class="cls-2" d="M529.07,32.22,521,35.57h0a2.89,2.89,0,0,1,.2.94c2.19.42,5.24,1.24,8.58,2.22A11.6,11.6,0,0,0,529.07,32.22Z"/>
    <path class="cls-3" d="M527.85,43.36a11.65,11.65,0,0,1-20.33-2.21h0a11.66,11.66,0,0,1,21.55-8.93h0a11.6,11.6,0,0,1,.7,6.5l2.5.75a14.27,14.27,0,1,0-2.12,5.12Z"/>
    <path class="cls-4" d="M517.77,36.47l14.83,6.14,4.17-1.73c-1.5-.48-3-1-4.5-1.41l-2.5-.75c-3.34-1-6.38-1.8-8.58-2.22a2.89,2.89,0,0,0-.2-.94h0a2.92,2.92,0,1,0-5.39,2.23h0a2.92,2.92,0,0,0,3.81,1.58,2.88,2.88,0,0,0,.81-.52c1.85,1.25,4.58,2.83,7.63,4.5l2.3,1.24c1.65.88,3.35,1.76,5,2.62h0C526.59,42.82,517.27,37.68,517.77,36.47Z"/>
    <path class="cls-1" d="M559,7.21a11.66,11.66,0,0,0-6.31,15.24l8.08-3.35h0a2.92,2.92,0,1,1,5.39-2.23l8.08-3.35A11.66,11.66,0,0,0,559,7.21Z"/>
    <path class="cls-2" d="M567.91,28.76a11.66,11.66,0,0,0,6.31-15.24h0l-8.08,3.35h0a2.88,2.88,0,0,1-2.51,4c-.42,2.19-1.24,5.24-2.22,8.58A11.59,11.59,0,0,0,567.91,28.76Z"/>
    <path class="cls-2" d="M552.67,22.45a11.6,11.6,0,0,0,4.1,5.09c1.66-3.06,3.24-5.78,4.5-7.63a2.89,2.89,0,0,1-.52-.81l-8.08,3.35Z"/>
    <path class="cls-3" d="M556.77,27.54a11.6,11.6,0,0,1-4.1-5.09h0a11.66,11.66,0,1,1,21.55-8.93h0a11.65,11.65,0,0,1-12.81,15.94c-.24.82-.49,1.65-.75,2.5a14.27,14.27,0,1,0-5.12-2.12C556,29.06,556.37,28.29,556.77,27.54Z"/>
    <path class="cls-4" d="M563.66,17.46c1.22.5-1.75,10.73-4.71,19.9h0c.58-1.79,1.15-3.61,1.7-5.4.26-.84.51-1.68.75-2.5,1-3.34,1.8-6.38,2.22-8.58a2.88,2.88,0,0,0,2.51-4h0a2.92,2.92,0,1,0-5.39,2.23h0a2.89,2.89,0,0,0,.52.81c-1.25,1.85-2.83,4.58-4.5,7.63-.41.75-.82,1.52-1.24,2.3-.73,1.37-1.46,2.78-2.18,4.18l4.17-1.73Z"/>
    <path class="cls-1" d="M583.34,66a2.92,2.92,0,0,1-3.81-1.58h0l-8.08,3.35h0A11.66,11.66,0,1,0,593,58.85l-8.08,3.35A2.92,2.92,0,0,1,583.34,66Z"/>
    <path class="cls-2" d="M579.33,63.5c-2.19-.42-5.24-1.24-8.58-2.22a11.6,11.6,0,0,0,.7,6.5l8.08-3.35A2.89,2.89,0,0,1,579.33,63.5Z"/>
    <path class="cls-2" d="M581.11,60.62a2.92,2.92,0,0,1,3.81,1.58h0L593,58.85h0a11.65,11.65,0,0,0-20.33-2.21c3.06,1.67,5.78,3.25,7.63,4.5A2.89,2.89,0,0,1,581.11,60.62Z"/>
    <path class="cls-3" d="M576.77,50.15a14.17,14.17,0,0,0-6.4,5.26l2.3,1.24A11.65,11.65,0,0,1,593,58.85h0a11.66,11.66,0,1,1-21.55,8.93h0a11.6,11.6,0,0,1-.7-6.5l-2.5-.75a14.25,14.25,0,1,0,8.52-10.38Z"/>
    <path class="cls-4" d="M570.75,61.28c3.34,1,6.38,1.8,8.58,2.22a2.89,2.89,0,0,0,.2.94h0a2.92,2.92,0,1,0,5.39-2.23h0a2.88,2.88,0,0,0-4.61-1.06c-1.85-1.25-4.58-2.83-7.63-4.5l-2.3-1.24c-1.65-.88-3.35-1.76-5-2.62h0c8.57,4.39,17.9,9.52,17.39,10.74l-14.83-6.14-4.17,1.73c1.5.48,3,1,4.5,1.41Z"/>
    <path class="cls-5" d="M582.75,63.53c.5-1.22-8.82-6.35-17.39-10.74h0c-1.68-1.12-3.58-3.69-4.94-7s-1.85-6.45-1.45-8.44h0c3-9.17,5.92-19.39,4.71-19.9l-6.14,14.82L553.35,34h0c-.82,1.83-3.65,4-7.38,5.59s-7.3,2-9.17,1.27h0l-4.17,1.73-14.83-6.14c-.5,1.22,8.82,6.35,17.4,10.74h0c1.68,1.12,3.57,3.69,4.94,7s1.85,6.46,1.45,8.44h0c-3,9.17-5.92,19.39-4.71,19.89L543,67.71,547.17,66h0c.82-1.83,3.65-4,7.38-5.59s7.3-2,9.17-1.27h0l4.17-1.73ZM558.6,54.9a.2.2,0,1,1-.37.15l-1.08-2.61a.2.2,0,0,1,.37-.16Zm-1.88,1a.2.2,0,0,1-.26-.11l-1.08-2.61a.2.2,0,0,1,.37-.15l1.08,2.61A.2.2,0,0,1,556.72,55.9ZM542.87,45.1a2.22,2.22,0,1,1-1.2,2.9A2.22,2.22,0,0,1,542.87,45.1Zm17.4,9.33a.2.2,0,0,1-.26-.11l-1.08-2.61a.2.2,0,0,1,.37-.15l1.08,2.61A.2.2,0,0,1,560.27,54.43Z"/>
    <path class="cls-2" d="M555.48,52.91a.2.2,0,0,0-.11.26l1.08,2.61a.2.2,0,0,0,.37-.15L555.75,53A.2.2,0,0,0,555.48,52.91Z"/>
    <path class="cls-2" d="M557.26,52.18a.2.2,0,0,0-.11.26l1.08,2.61a.2.2,0,1,0,.37-.15l-1.08-2.61A.2.2,0,0,0,557.26,52.18Z"/>
    <path class="cls-2" d="M559.3,51.55a.2.2,0,0,0-.37.15L560,54.32a.2.2,0,0,0,.37-.15Z"/>
    <circle class="cls-2" cx="543.72" cy="47.15" r="2.22" transform="translate(23.34 211.65) rotate(-22.5)"/>
    <path class="cls-1" d="M642.07,92.87a11.66,11.66,0,0,0,16.49-16.49l-6.19,6.19h0a2.92,2.92,0,1,1-4.12,4.12h0l-6.19,6.19Z"/>
    <path class="cls-2" d="M658.56,76.38a11.6,11.6,0,0,0-5.74-3.13c-.37,3.46-.78,6.59-1.23,8.77a2.89,2.89,0,0,1,.79.55l6.19-6.19Z"/>
    <path class="cls-2" d="M642.07,92.87l6.19-6.19A2.88,2.88,0,0,1,649,82c-.45-2.19-.86-5.31-1.23-8.77a11.65,11.65,0,0,0-5.74,19.63Z"/>
    <path class="cls-3" d="M652.82,73.24a11.6,11.6,0,0,1,5.74,3.13h0a11.66,11.66,0,0,1-16.49,16.49h0a11.65,11.65,0,0,1,5.74-19.63c-.09-.85-.18-1.72-.26-2.6a14.27,14.27,0,1,0,5.54,0C653,71.53,652.91,72.4,652.82,73.24Z"/>
    <path class="cls-4" d="M650.31,85.19C649,85.19,647.82,74.61,647,65h0c.15,1.87.32,3.78.5,5.64.08.88.17,1.75.26,2.6.37,3.46.78,6.59,1.23,8.77a2.88,2.88,0,0,0-.79,4.67h0a2.92,2.92,0,1,0,4.12-4.12h0a2.89,2.89,0,0,0-.79-.55c.45-2.19.86-5.31,1.23-8.77.09-.85.18-1.72.26-2.6.15-1.55.29-3.13.42-4.69l-3.19,3.19Z"/>
    <path class="cls-1" d="M607.37,41.68a11.66,11.66,0,0,0,0,16.49L613.55,52a2.92,2.92,0,0,1,4.12-4.12l6.18-6.18A11.66,11.66,0,0,0,607.37,41.68Z"/>
    <path class="cls-2" d="M617.68,47.87a2.89,2.89,0,0,1,.55.79c2.19-.45,5.31-.86,8.77-1.23a11.6,11.6,0,0,0-3.13-5.74Z"/>
    <path class="cls-2" d="M623.86,58.18A11.59,11.59,0,0,0,627,52.44c-3.46-.37-6.59-.78-8.77-1.23a2.88,2.88,0,0,1-.55.79,2.92,2.92,0,0,1-4.12,0l-6.18,6.18A11.66,11.66,0,0,0,623.86,58.18Z"/>
    <path class="cls-3" d="M627,52.44a11.69,11.69,0,1,1,0-5l2.6-.26a14.27,14.27,0,1,0,0,5.54Z"/>
    <path class="cls-4" d="M615,49.93h16l3.19-3.19c-1.57.13-3.15.27-4.69.42l-2.6.26c-3.46.37-6.58.78-8.77,1.23a2.89,2.89,0,0,0-.55-.79,2.92,2.92,0,1,0,0,4.12,2.88,2.88,0,0,0,.55-.79c2.19.45,5.31.86,8.77,1.23l2.59.26c1.86.18,3.77.35,5.64.5h0C625.63,52.42,615,51.25,615,49.93Z"/>
    <path class="cls-1" d="M641.92,7.13a11.66,11.66,0,0,0,0,16.49l6.19-6.19a2.92,2.92,0,0,1,4.12-4.12l6.19-6.19A11.66,11.66,0,0,0,641.92,7.13Z"/>
    <path class="cls-2" d="M647.66,26.76c.37-3.46.78-6.59,1.23-8.77a2.89,2.89,0,0,1-.79-.55l-6.19,6.19A11.6,11.6,0,0,0,647.66,26.76Z"/>
    <path class="cls-2" d="M658.42,7.13l-6.19,6.19a2.88,2.88,0,0,1-.79,4.67c.45,2.19.86,5.31,1.23,8.77a11.65,11.65,0,0,0,5.74-19.63Z"/>
    <path class="cls-3" d="M647.66,26.76a11.68,11.68,0,1,1,5,0c.09.85.18,1.72.26,2.6a14.27,14.27,0,1,0-5.54,0C647.49,28.47,647.57,27.6,647.66,26.76Z"/>
    <path class="cls-4" d="M650.17,14.81c1.32,0,2.49,10.58,3.26,20.18h0c-.15-1.87-.32-3.78-.5-5.64-.08-.88-.17-1.75-.26-2.6-.37-3.46-.78-6.59-1.23-8.77a3,3,0,1,0-2.55,0c-.45,2.19-.86,5.31-1.23,8.77-.09.85-.18,1.72-.26,2.6-.15,1.55-.29,3.13-.42,4.69l3.19-3.19Z"/>
    <path class="cls-1" d="M686.93,52.13a2.92,2.92,0,0,1-4.12,0h0l-6.19,6.19a11.66,11.66,0,1,0,16.49-16.49L686.93,48A2.92,2.92,0,0,1,686.93,52.13Z"/>
    <path class="cls-2" d="M682.81,48a2.92,2.92,0,0,1,4.12,0l6.19-6.19a11.65,11.65,0,0,0-19.63,5.74c3.46.37,6.59.78,8.77,1.23A2.89,2.89,0,0,1,682.81,48Z"/>
    <path class="cls-2" d="M682.26,51.35c-2.19.45-5.31.86-8.77,1.23a11.6,11.6,0,0,0,3.13,5.74l6.19-6.19A2.88,2.88,0,0,1,682.26,51.35Z"/>
    <path class="cls-3" d="M674.79,40a14.17,14.17,0,0,0-3.9,7.31l2.6.26a11.69,11.69,0,1,1,0,5l-2.6.26A14.25,14.25,0,1,0,674.79,40Z"/>
    <path class="cls-4" d="M673.49,52.58c3.46-.37,6.59-.78,8.77-1.23a2.88,2.88,0,0,0,.55.79h0a3,3,0,1,0-.55-3.34c-2.19-.45-5.31-.86-8.77-1.23l-2.6-.26c-1.86-.18-3.76-.35-5.64-.5h0c9.6.77,20.18,1.95,20.18,3.27H669.38l-3.19,3.19c1.57-.13,3.15-.27,4.7-.42Z"/>
    <path class="cls-5" d="M685.43,50.07c0-1.32-10.58-2.49-20.18-3.27h0c-2-.39-4.72-2-7.25-4.57S653.83,37,653.44,35h0c-.77-9.6-1.95-20.18-3.26-20.18v16L647,34v0c-.06,2-1.83,5.13-4.68,8s-6,4.62-8,4.68h0l-3.19,3.19H615c0,1.32,10.58,2.49,20.18,3.27h0c2,.39,4.71,2,7.24,4.57S646.65,63,647,65h0c.77,9.6,1.95,20.18,3.26,20.18v-16L653.5,66h0c.06-2,1.83-5.13,4.68-8s6-4.62,8-4.68h0l3.19-3.19Zm-25.61,1.26a.2.2,0,0,1-.29.29l-2-2a.2.2,0,0,1,.29-.29Zm-3.64-.64a.2.2,0,0,1,.29,0l2,2a.2.2,0,0,1-.29.29l-2-2A.2.2,0,0,1,656.18,50.69ZM641.54,48.3a2.22,2.22,0,1,1,0,3.14A2.22,2.22,0,0,1,641.54,48.3Zm19.64,2a.2.2,0,0,1-.29,0l-2-2a.2.2,0,1,1,.29-.29l2,2A.2.2,0,0,1,661.18,50.26Z"/>
    <path class="cls-2" d="M658.18,53a.2.2,0,0,0,.29-.29l-2-2a.2.2,0,0,0-.29.29Z"/>
    <path class="cls-2" d="M657.54,49.33a.2.2,0,0,0,0,.29l2,2a.2.2,0,0,0,.29-.29l-2-2A.2.2,0,0,0,657.54,49.33Z"/>
    <path class="cls-2" d="M659.18,48a.2.2,0,1,0-.29.29l2,2a.2.2,0,1,0,.29-.29Z"/>
    <circle class="cls-2" cx="643.11" cy="49.87" r="2.22" transform="translate(153.1 469.35) rotate(-45)"/>
    <path class="cls-1" d="M759,92.74a11.66,11.66,0,0,0,8.93-21.55h0l-3.35,8.08h0a2.92,2.92,0,0,1-2.23,5.39h0L759,92.74Z"/>
    <path class="cls-2" d="M752.69,77.5A11.66,11.66,0,0,0,759,92.74l3.35-8.08a2.92,2.92,0,0,1-1.58-3.81,2.89,2.89,0,0,1,.52-.81c-1.25-1.85-2.83-4.58-4.5-7.63A11.59,11.59,0,0,0,752.69,77.5Z"/>
    <path class="cls-2" d="M761.43,70.49c1,3.34,1.8,6.38,2.22,8.58a2.89,2.89,0,0,1,.94.2l3.35-8.08A11.6,11.6,0,0,0,761.43,70.49Z"/>
    <path class="cls-3" d="M761.43,70.49a11.6,11.6,0,0,1,6.5.7h0A11.66,11.66,0,0,1,759,92.74h0a11.65,11.65,0,0,1-2.21-20.33l-1.24-2.3A14.27,14.27,0,1,0,760.67,68C760.93,68.83,761.19,69.67,761.43,70.49Z"/>
    <path class="cls-4" d="M763.68,82.49c-1.22.5-6.35-8.82-10.74-17.39h0c.86,1.67,1.74,3.37,2.62,5l1.24,2.3c1.67,3.06,3.25,5.78,4.5,7.63a2.89,2.89,0,0,0-.52.81,2.92,2.92,0,0,0,1.58,3.81h0a2.92,2.92,0,0,0,2.23-5.39h0a2.89,2.89,0,0,0-.94-.2c-.42-2.19-1.24-5.24-2.22-8.58-.24-.82-.49-1.65-.75-2.5-.45-1.49-.93-3-1.41-4.5l-1.73,4.17Z"/>
    <path class="cls-1" d="M707.36,58.72A11.66,11.66,0,0,0,713.67,74h0L717,65.88h0a2.92,2.92,0,1,1,2.23-5.39l3.35-8.08A11.66,11.66,0,0,0,707.36,58.72Z"/>
    <path class="cls-2" d="M722.59,52.41h0l-3.35,8.08h0a2.89,2.89,0,0,1,.81.52c1.85-1.25,4.58-2.83,7.63-4.5A11.6,11.6,0,0,0,722.59,52.41Z"/>
    <path class="cls-2" d="M728.91,67.65a11.59,11.59,0,0,0,.7-6.5c-3.34,1-6.38,1.8-8.58,2.22a2.89,2.89,0,0,1-.2.94A2.92,2.92,0,0,1,717,65.88L713.67,74A11.66,11.66,0,0,0,728.91,67.65Z"/>
    <path class="cls-3" d="M729.61,61.15A11.65,11.65,0,0,1,713.67,74h0a11.66,11.66,0,0,1,8.93-21.55h0a11.6,11.6,0,0,1,5.09,4.1l2.3-1.24a14.27,14.27,0,1,0,2.12,5.12Z"/>
    <path class="cls-4" d="M717.61,63.4l14.83-6.14,1.73-4.17c-1.4.72-2.8,1.45-4.18,2.18l-2.3,1.24c-3.05,1.66-5.78,3.24-7.63,4.5a2.89,2.89,0,0,0-.81-.52h0A2.92,2.92,0,1,0,717,65.88h0a2.92,2.92,0,0,0,3.81-1.58,2.89,2.89,0,0,0,.2-.94c2.19-.42,5.24-1.24,8.58-2.22l2.5-.75c1.79-.55,3.61-1.12,5.4-1.7h0C728.34,61.66,718.11,64.62,717.61,63.4Z"/>
    <path class="cls-1" d="M741.3,7.26a11.66,11.66,0,1,0-8.93,21.55h0l3.35-8.08a2.92,2.92,0,1,1,2.23-5.39h0l3.35-8.08Z"/>
    <path class="cls-2" d="M747.61,22.5A11.66,11.66,0,0,0,741.3,7.26l-3.35,8.08A2.88,2.88,0,0,1,739,20c1.25,1.85,2.83,4.58,4.5,7.63A11.59,11.59,0,0,0,747.61,22.5Z"/>
    <path class="cls-2" d="M738.87,29.51c-1-3.34-1.8-6.38-2.22-8.58a2.88,2.88,0,0,1-.94-.2h0l-3.35,8.08A11.6,11.6,0,0,0,738.87,29.51Z"/>
    <path class="cls-3" d="M738.87,29.51a11.6,11.6,0,0,1-6.5-.7h0A11.66,11.66,0,1,1,741.3,7.26h0a11.65,11.65,0,0,1,2.21,20.33c.41.75.82,1.52,1.24,2.3A14.27,14.27,0,1,0,739.62,32C739.37,31.17,739.11,30.33,738.87,29.51Z"/>
    <path class="cls-4" d="M736.62,17.51c1.22-.51,6.35,8.82,10.74,17.4h0c-.86-1.67-1.74-3.37-2.62-5-.41-.78-.83-1.55-1.24-2.3-1.67-3.06-3.25-5.78-4.5-7.63a2.88,2.88,0,0,0-1.06-4.62h0a2.92,2.92,0,1,0-2.23,5.39h0a2.88,2.88,0,0,0,.94.2c.42,2.19,1.24,5.24,2.22,8.58.24.82.49,1.65.75,2.5.45,1.49.93,3,1.41,4.5l1.73-4.17Z"/>
    <path class="cls-1" d="M783.28,34.12a2.92,2.92,0,1,1-2.23,5.39h0l-3.35,8.08h0A11.66,11.66,0,1,0,786.63,26h0l-3.35,8.08Z"/>
    <path class="cls-2" d="M780.25,39c-1.85,1.25-4.58,2.83-7.63,4.5a11.6,11.6,0,0,0,5.09,4.1l3.35-8.08A2.89,2.89,0,0,1,780.25,39Z"/>
    <path class="cls-2" d="M779.47,35.7a2.92,2.92,0,0,1,3.81-1.58L786.63,26a11.65,11.65,0,0,0-15.94,12.81c3.34-1,6.38-1.8,8.58-2.22A2.89,2.89,0,0,1,779.47,35.7Z"/>
    <path class="cls-3" d="M787.62,23.64a14.25,14.25,0,0,0-19.43,16l2.5-.75A11.65,11.65,0,0,1,786.63,26h0a11.66,11.66,0,1,1-8.93,21.55h0a11.6,11.6,0,0,1-5.09-4.1l-2.3,1.24a14.25,14.25,0,1,0,17.31-21.08Z"/>
    <path class="cls-4" d="M772.61,43.49c3.06-1.66,5.78-3.24,7.63-4.5a2.89,2.89,0,0,0,.81.52h0a2.92,2.92,0,1,0,2.23-5.39h0a2.92,2.92,0,0,0-3.81,1.58,2.89,2.89,0,0,0-.2.94c-2.19.42-5.24,1.24-8.58,2.22l-2.5.75c-1.79.55-3.61,1.12-5.4,1.7h0c9.16-3,19.39-5.92,19.89-4.7l-14.83,6.14-1.73,4.17c1.4-.72,2.8-1.45,4.18-2.18Z"/>
    <path class="cls-5" d="M782.69,36.6c-.5-1.22-10.73,1.74-19.89,4.7h0c-2,.4-5.14-.08-8.44-1.45s-5.87-3.26-7-4.94h0c-4.39-8.57-9.52-17.9-10.74-17.4l6.14,14.83L741,36.51v0c.71,1.87.28,5.44-1.27,9.17s-3.76,6.56-5.59,7.38v0l-1.73,4.17L717.61,63.4c.5,1.22,10.73-1.75,19.9-4.71h0c2-.4,5.14.09,8.44,1.45s5.87,3.26,7,4.94h0c4.39,8.57,9.52,17.9,10.74,17.39l-6.14-14.83,1.73-4.17v0c-.71-1.87-.28-5.44,1.27-9.17s3.76-6.56,5.59-7.38v0l1.73-4.17Zm-23.18,11a.2.2,0,1,1-.15.37l-2.61-1.08a.2.2,0,1,1,.15-.37Zm-3.35.69,2.61,1.08a.2.2,0,1,1-.15.37L756,48.63a.2.2,0,1,1,.15-.37Zm-14.71,3.5a2.22,2.22,0,1,1,1.2,2.9A2.22,2.22,0,0,1,741.46,51.76Zm18.9-5.7a.2.2,0,0,1-.26.11l-2.61-1.08a.2.2,0,0,1,.15-.37l2.61,1.08A.2.2,0,0,1,760.36,46.06Z"/>
    <path class="cls-2" d="M758.63,49.71a.2.2,0,1,0,.15-.37l-2.61-1.08a.2.2,0,1,0-.15.37Z"/>
    <path class="cls-2" d="M756.64,46.59a.2.2,0,0,0,.11.26l2.61,1.08a.2.2,0,1,0,.15-.37l-2.61-1.08A.2.2,0,0,0,756.64,46.59Z"/>
    <path class="cls-2" d="M757.64,44.71a.2.2,0,0,0-.15.37l2.61,1.08a.2.2,0,0,0,.15-.37Z"/>
    <circle class="cls-2" cx="743.51" cy="52.61" r="2.22" transform="translate(410.37 719.39) rotate(-67.5)"/>
  </g>
</svg>
