<svg id="Layer_1" data-name="Layer 1" xmlns="http://www.w3.org/2000/svg" width="800" height="100" viewBox="0 0 800 100">
  <defs>
    <style>
      .cls-1 {
        fill: none;
      }

      .cls-2 {
        fill: #ff932b;
      }

      .cls-3 {
        fill: #804a44;
      }

      .cls-4 {
        fill: #a19397;
      }

      .cls-5 {
        fill: #ff4c61;
      }

      .cls-6 {
        fill: #ff4f4f;
      }

      .cls-7 {
        fill: #db4c61;
      }

      .cls-8 {
        fill: #ffa642;
      }
    </style>
  </defs>
  <g>
    <polygon class="cls-1" points="43.4 75.61 50.59 75.61 57.15 75.61 57.15 72.17 46.18 72.17 43.4 72.17 43.4 75.61"/>
    <polygon class="cls-1" points="462.49 69.36 462.08 64.37 439.48 64.37 439.14 69.36 462.49 69.36"/>
    <path class="cls-1" d="M141.69,5.16a1.72,1.72,0,0,1,1.72,1.72h13.75a1.76,1.76,0,0,1,3.52-.08v.08h16l-.24-1.93a1.72,1.72,0,0,0-1.71-1.51H125.82a1.72,1.72,0,0,0-1.71,1.51l-.24,1.93h16V6.8A1.72,1.72,0,0,1,141.69,5.16Z"/>
    <path class="cls-1" d="M41.69,5.16A1.72,1.72,0,0,1,43.4,6.87H57.15a1.72,1.72,0,0,1,3.44,0h16.1l-.24-1.93a1.72,1.72,0,0,0-1.71-1.51H25.82a1.72,1.72,0,0,0-1.71,1.51l-.24,1.93H40A1.72,1.72,0,0,1,41.69,5.16Z"/>
    <path class="cls-1" d="M157.15,10.31H143.4a1.7,1.7,0,0,1-.26.9l-1.73,39.6h17.91l-1.88-39.55a1.71,1.71,0,0,1-.29-1Z"/>
    <path class="cls-1" d="M441.69,5.16a1.72,1.72,0,0,1,1.72,1.72h13.75a1.79,1.79,0,0,1,3.57-.15v.15h15.95l-.24-1.93a1.72,1.72,0,0,0-1.71-1.51H425.82a1.72,1.72,0,0,0-1.71,1.51l-.24,1.93h16V6.76A1.72,1.72,0,0,1,441.69,5.16Z"/>
    <path class="cls-1" d="M457.15,10.31H443.4a1.7,1.7,0,0,1-.41,1.1l-2.19,33h19.62l-2.74-32.87A1.71,1.71,0,0,1,457.15,10.31Z"/>
    <polygon class="cls-1" points="643.4 75.61 655.48 75.61 657.15 75.61 657.15 72.17 650.97 72.17 643.4 72.17 643.4 75.61"/>
    <polygon class="cls-1" points="643.4 10.31 643.4 58.43 657.15 58.43 657.15 10.31 657.15 10.31 643.4 10.31 643.4 10.31"/>
    <path class="cls-1" d="M557.15,10.31H543.4a1.7,1.7,0,0,1-.26.9l-1.73,39.6h17.91l-1.88-39.55a1.71,1.71,0,0,1-.29-1Z"/>
    <polygon class="cls-1" points="544.24 72.76 544.24 72.76 560.36 72.76 560.15 68.37 540.64 68.37 540.45 72.76 544.24 72.76"/>
    <path class="cls-1" d="M541.69,5.16a1.72,1.72,0,0,1,1.72,1.72h13.75a1.76,1.76,0,0,1,3.52-.08v.08h16l-.24-1.93a1.72,1.72,0,0,0-1.71-1.51H525.82a1.72,1.72,0,0,0-1.71,1.51l-.24,1.93h16V6.8A1.72,1.72,0,0,1,541.69,5.16Z"/>
    <path class="cls-1" d="M641.69,5.16a1.72,1.72,0,0,1,1.72,1.72h13.75a1.72,1.72,0,0,1,3.44,0h16.1l-.24-1.93a1.72,1.72,0,0,0-1.71-1.51H625.82a1.72,1.72,0,0,0-1.71,1.51l-.24,1.93H640A1.72,1.72,0,0,1,641.69,5.16Z"/>
    <polygon class="cls-1" points="242.37 68.36 262.41 68.36 262 63.37 239.54 63.37 239.21 68.36 242.37 68.36"/>
    <polygon class="cls-1" points="43.4 10.31 43.4 58.43 57.15 58.43 57.15 10.31 57.15 10.31 43.4 10.31 43.4 10.31"/>
    <polygon class="cls-1" points="337.83 61.15 366.93 61.15 366.08 56.32 335.46 56.32 334.71 61.15 337.83 61.15"/>
    <path class="cls-1" d="M741.69,5.16a1.72,1.72,0,0,1,1.8,1.64v.08h13.63V6.79a1.72,1.72,0,0,1,1.79-1.64l.21,0,.12,0,.06,0a1.71,1.71,0,0,1,1.29,1.66h16.1l-.24-1.93a1.72,1.72,0,0,0-1.71-1.51H725.82a1.72,1.72,0,0,0-1.71,1.51l-.24,1.93H740A1.72,1.72,0,0,1,741.69,5.16Z"/>
    <path class="cls-1" d="M341.69,5.16a1.72,1.72,0,0,1,1.72,1.72h13.75a1.89,1.89,0,0,1,3.71-.32l.06.32h15.77l-.24-1.93a1.72,1.72,0,0,0-1.71-1.51H325.82a1.72,1.72,0,0,0-1.71,1.51l-.24,1.93h15.81l0-.28A1.72,1.72,0,0,1,341.69,5.16Z"/>
    <path class="cls-1" d="M241.69,5.16a1.72,1.72,0,0,1,1.72,1.72h13.75a1.79,1.79,0,0,1,3.57-.15v.15h15.95l-.24-1.93a1.72,1.72,0,0,0-1.71-1.51H225.82a1.72,1.72,0,0,0-1.71,1.51l-.24,1.93h16V6.76A1.72,1.72,0,0,1,241.69,5.16Z"/>
    <polygon class="cls-1" points="754.15 66.62 754.27 64.13 746.45 64.13 746.58 66.62 754.15 66.62"/>
    <polygon class="cls-1" points="147 72.76 147 72.76 160.36 72.76 160.15 68.37 140.64 68.37 140.45 72.76 147 72.76"/>
    <path class="cls-1" d="M357.15,10.31H343.4a1.72,1.72,0,0,1-1,1.57L338.47,37H362.7l-4.39-25.06A1.71,1.71,0,0,1,357.15,10.31Z"/>
    <path class="cls-1" d="M257.15,10.31H243.4a1.7,1.7,0,0,1-.41,1.1l-2.13,32h19.47l-2.65-31.87A1.71,1.71,0,0,1,257.15,10.31Z"/>
    <polygon class="cls-1" points="745.93 54.17 749.37 54.17 754.77 54.17 756.94 10.31 743.66 10.31 745.93 54.17"/>
    <polygon class="cls-2" points="43.4 6.87 43.4 6.87 43.4 10.31 57.15 10.31 57.15 6.87 57.15 6.87 43.4 6.87"/>
    <path class="cls-3" d="M43.4,10.31a1.72,1.72,0,0,1-3.44,0V58.43H43.4Z"/>
    <path class="cls-3" d="M41.69,5.16A1.72,1.72,0,0,0,40,6.87h0A1.72,1.72,0,0,1,41.69,5.16Z"/>
    <rect class="cls-3" x="39.97" y="72.17" width="3.44" height="3.44"/>
    <path class="cls-3" d="M41.69,5.16A1.72,1.72,0,0,1,43.4,6.87h0A1.72,1.72,0,0,0,41.69,5.16Z"/>
    <path class="cls-3" d="M57.15,6.87h0a1.72,1.72,0,0,1,1.72-1.72A1.72,1.72,0,0,0,57.15,6.87Z"/>
    <path class="cls-3" d="M58.87,12a1.72,1.72,0,0,1-1.72-1.72V58.43h3.44V10.31A1.72,1.72,0,0,1,58.87,12Z"/>
    <path class="cls-3" d="M58.87,5.16a1.72,1.72,0,0,1,1.72,1.72h0A1.72,1.72,0,0,0,58.87,5.16Z"/>
    <rect class="cls-3" x="57.15" y="72.17" width="3.44" height="3.44"/>
    <path class="cls-4" d="M41.69,12a1.72,1.72,0,0,0,1.72-1.72h0V6.87a1.72,1.72,0,0,0-3.44,0v3.44h0A1.72,1.72,0,0,0,41.69,12Z"/>
    <path class="cls-4" d="M58.87,5.16a1.72,1.72,0,0,0-1.72,1.72v3.44h0a1.72,1.72,0,0,0,3.44,0h0V6.87A1.72,1.72,0,0,0,58.87,5.16Z"/>
    <path class="cls-5" d="M36.58,59.75a1.7,1.7,0,0,1,.09-.29A1.71,1.71,0,0,0,36.58,59.75Z"/>
    <path class="cls-5" d="M36.53,60.14a1.71,1.71,0,0,1,0-.35A1.72,1.72,0,0,0,36.53,60.14Z"/>
    <path class="cls-5" d="M36.68,59.45a1.73,1.73,0,0,1,.37-.54A1.72,1.72,0,0,0,36.68,59.45Z"/>
    <path class="cls-5" d="M43.4,58.43H38.25a1.71,1.71,0,0,0-1.19.49,36.7,36.7,0,0,0,9.13,13.26H62.31A1.72,1.72,0,0,0,64,70.46V60.14a1.72,1.72,0,0,0-1.72-1.72H43.4Z"/>
    <path class="cls-6" d="M50.58,75.61A33.73,33.73,0,0,0,57.38,79h8.36V77.33A1.72,1.72,0,0,0,64,75.61H50.58Z"/>
    <path class="cls-5" d="M65.65,81.3a1.72,1.72,0,0,1-.11.27A1.7,1.7,0,0,0,65.65,81.3Z"/>
    <path class="cls-5" d="M65.34,81.86l-.16.17Z"/>
    <path class="cls-5" d="M57.57,79.12l.87.29c.35.12.71.24,1.07.35s.71.19,1.06.28l.95.25c.43.1.87.18,1.31.26l.77.15q1.05.17,2.13.28a1.73,1.73,0,0,1-.07.3,1.7,1.7,0,0,0,.09-.52V79H57.38Z"/>
    <path class="cls-5" d="M64.48,82.42l-.12,0Z"/>
    <path class="cls-5" d="M64.82,82.28l-.15.07Z"/>
    <path class="cls-5" d="M65.1,82.09l-.16.12Z"/>
    <path class="cls-5" d="M65.52,81.59a1.74,1.74,0,0,1-.15.22A1.71,1.71,0,0,0,65.52,81.59Z"/>
    <path class="cls-7" d="M46.18,72.17a36.7,36.7,0,0,1-9.13-13.26h0a1.73,1.73,0,0,0-.37.54v0a1.7,1.7,0,0,0-.09.29v0a1.71,1.71,0,0,0,0,.35V70.46a1.72,1.72,0,0,0,1.72,1.72h7.93Z"/>
    <path class="cls-7" d="M63.59,80.7l-.77-.15c-.44-.08-.88-.16-1.31-.26L60.58,80c-.36-.09-.71-.18-1.06-.28s-.71-.23-1.07-.35l-.87-.29L57.38,79a33.73,33.73,0,0,1-6.8-3.44H36.53a1.72,1.72,0,0,0-1.72,1.72v3.44a1.72,1.72,0,0,0,1.72,1.72H64a1.71,1.71,0,0,0,.33,0l.12,0,.18-.06.15-.07.12-.07.16-.12.07-.06.16-.17,0,0a1.74,1.74,0,0,0,.15-.22v0a1.72,1.72,0,0,0,.11-.27h0a1.73,1.73,0,0,0,.07-.3Q64.64,80.88,63.59,80.7Z"/>
    <path class="cls-2" d="M91.32,96.23,79.85,4.52A5.16,5.16,0,0,0,74.74,0H25.82A5.16,5.16,0,0,0,20.7,4.52L9.24,96.23h3.24l.23,0L23.44,10.31H40V6.87H23.87l.24-1.93a1.72,1.72,0,0,1,1.71-1.51H74.74a1.72,1.72,0,0,1,1.71,1.51l.24,1.93H60.59v3.44H77.11L87.86,96.25l.23,0Z"/>
    <path class="cls-8" d="M9.24,96.23H7.32a1.72,1.72,0,0,0,0,3.44h5.16a1.71,1.71,0,0,0,.23-3.41l-.23,0Z"/>
    <path class="cls-8" d="M93.24,96.23H88.08l-.23,0a1.71,1.71,0,0,0,.23,3.41h5.16a1.72,1.72,0,0,0,0-3.44Z"/>
    <polygon class="cls-2" points="343.4 10.31 357.15 10.31 357.15 6.87 357.15 6.87 343.4 6.87 343.4 6.87 343.4 10.31"/>
    <polygon class="cls-3" points="335.46 56.32 334.01 56.32 331.99 56.32 331.24 61.15 334.71 61.15 335.46 56.32"/>
    <path class="cls-3" d="M342.38,11.88A1.71,1.71,0,0,1,340,10.31V6.87a1.72,1.72,0,0,1,1.72-1.72,1.72,1.72,0,0,0-2,1.43l0,.28-.53,3.44L335,37h3.48Z"/>
    <path class="cls-3" d="M366.08,56.32l.85,4.83h3.49l-.86-4.89a2.94,2.94,0,0,1-.57.06Z"/>
    <path class="cls-3" d="M360.86,6.55a1.72,1.72,0,0,0-2-1.4,1.72,1.72,0,0,1,1.72,1.72v3.44A1.72,1.72,0,0,1,358.87,12a1.7,1.7,0,0,1-.56-.1L362.7,37h3.49l-4.67-26.68-.6-3.44Z"/>
    <path class="cls-4" d="M343.4,10.31h0V6.87h0a1.72,1.72,0,0,0-3.44,0v3.44a1.72,1.72,0,0,0,3.44,0Z"/>
    <path class="cls-4" d="M357.15,6.87h0v3.44h0a1.72,1.72,0,0,0,3.44,0V6.87a1.72,1.72,0,0,0-3.44,0Z"/>
    <path class="cls-5" d="M338.47,37h-6.91a2.55,2.55,0,0,0-2.67,2.42v5.14A37.82,37.82,0,0,0,334,56.32h35a2.94,2.94,0,0,0,.57-.06,2.49,2.49,0,0,0,2.1-2.36V39.41A2.55,2.55,0,0,0,369,37H338.47Z"/>
    <path class="cls-6" d="M337.83,61.15A34.94,34.94,0,0,0,343.44,66h30.9V63.57a2.55,2.55,0,0,0-2.67-2.42H337.83Z"/>
    <path class="cls-5" d="M343.44,66c.52.36,1,.71,1.57,1l.15.09a33.61,33.61,0,0,0,3.94,2l.27.12q1,.41,2,.77l.37.13c.69.23,1.38.45,2.08.64h17.86a2.55,2.55,0,0,0,2.67-2.42V66Z"/>
    <path class="cls-7" d="M328.89,44.55v9.36a2.25,2.25,0,0,0,.46,1.35,2.64,2.64,0,0,0,1.18.88,2.91,2.91,0,0,0,1,.19H334A37.82,37.82,0,0,1,328.89,44.55Z"/>
    <path class="cls-7" d="M351.35,70q-1-.35-2-.77l-.27-.12a33.61,33.61,0,0,1-3.94-2L345,67c-.54-.33-1.06-.68-1.57-1a34.94,34.94,0,0,1-5.61-4.83h-8.94a2.81,2.81,0,0,0-1.89.71,2.3,2.3,0,0,0-.78,1.71V68.4a2.3,2.3,0,0,0,.78,1.71,2.81,2.81,0,0,0,1.89.71H353.8c-.71-.19-1.4-.41-2.08-.64Z"/>
    <path class="cls-2" d="M391.32,96.23,379.85,4.52A5.16,5.16,0,0,0,374.74,0H325.82a5.16,5.16,0,0,0-5.12,4.52L309.24,96.23h3.24l.23,0,10.74-85.94h15.7l.53-3.44H323.87l.24-1.93a1.72,1.72,0,0,1,1.71-1.51h48.92a1.72,1.72,0,0,1,1.71,1.51l.24,1.93H360.92l.6,3.44h15.6l10.74,85.94.23,0Z"/>
    <path class="cls-8" d="M309.24,96.23h-1.92a1.72,1.72,0,0,0,0,3.44h5.16a1.71,1.71,0,0,0,.23-3.41l-.23,0Z"/>
    <path class="cls-8" d="M393.24,96.23h-5.16l-.23,0a1.71,1.71,0,0,0,.23,3.41h5.16a1.72,1.72,0,0,0,0-3.44Z"/>
    <polygon class="cls-2" points="143.4 10.31 157.15 10.31 157.15 6.87 157.15 6.87 143.4 6.87 143.4 6.87 143.4 10.31"/>
    <path class="cls-3" d="M143.14,11.22a1.71,1.71,0,0,1-3.17-.9V6.87a1.72,1.72,0,0,1,1.72-1.72,1.72,1.72,0,0,0-1.79,1.64v.08l-.15,3.44L138,50.81h3.44Z"/>
    <polygon class="cls-3" points="140.64 68.37 137.2 68.37 137.01 72.76 140.45 72.76 140.64 68.37"/>
    <polygon class="cls-3" points="160.36 72.76 163.8 72.76 163.59 68.37 160.15 68.37 160.36 72.76"/>
    <path class="cls-3" d="M160.67,6.79a1.72,1.72,0,0,0-1.8-1.64,1.72,1.72,0,0,1,1.72,1.72v3.44a1.72,1.72,0,0,1-3.15,1l1.88,39.55h3.44l-1.92-40.5-.16-3.44Z"/>
    <path class="cls-4" d="M143.4,10.31V6.87h0a1.72,1.72,0,0,0-3.44,0v3.44a1.72,1.72,0,0,0,3.44,0Z"/>
    <path class="cls-4" d="M157.15,6.87h0v3.44h0a1.72,1.72,0,0,0,3.44,0V6.87a1.72,1.72,0,0,0-3.44,0Z"/>
    <path class="cls-5" d="M133.48,51.36A2.23,2.23,0,0,1,134,51,2.19,2.19,0,0,0,133.48,51.36Z"/>
    <path class="cls-5" d="M132.84,52.32a2.17,2.17,0,0,1,.22-.47A2.18,2.18,0,0,0,132.84,52.32Z"/>
    <path class="cls-5" d="M132.72,53a2.16,2.16,0,0,1,.08-.56A2.17,2.17,0,0,0,132.72,53Z"/>
    <path class="cls-5" d="M141.41,50.81h-6.49a2.17,2.17,0,0,0-1,.23,37.56,37.56,0,0,0,8.45,17.33h-7.5a2.19,2.19,0,0,1-2.19-2.19,2.19,2.19,0,0,0,2.19,2.19h30.72a2.19,2.19,0,0,0,2.19-2.19V53a2.19,2.19,0,0,0-2.19-2.19H141.41Z"/>
    <path class="cls-5" d="M133.07,51.83a2.2,2.2,0,0,1,.38-.44A2.19,2.19,0,0,0,133.07,51.83Z"/>
    <path class="cls-6" d="M147,72.76a34,34,0,0,0,7.14,4.39H170V75a2.19,2.19,0,0,0-2.19-2.19H147Z"/>
    <path class="cls-5" d="M132.72,81.54a2.2,2.2,0,0,1-.44,0,2.2,2.2,0,0,0,.44,0h35.11a2.17,2.17,0,0,0,.6-.09,2.16,2.16,0,0,1-.6.09Z"/>
    <path class="cls-5" d="M130.53,79.34a2.2,2.2,0,0,0,0,.44,2.2,2.2,0,0,1,0-.44Z"/>
    <path class="cls-5" d="M130.9,80.57a2.2,2.2,0,0,0,1.38.92A2.2,2.2,0,0,1,130.9,80.57Z"/>
    <path class="cls-5" d="M169.88,80.12a2.21,2.21,0,0,1-.31.55A2.18,2.18,0,0,0,169.88,80.12Z"/>
    <path class="cls-5" d="M169.53,80.72a2.21,2.21,0,0,1-.44.42A2.2,2.2,0,0,0,169.53,80.72Z"/>
    <path class="cls-5" d="M169.09,81.14a2.18,2.18,0,0,1-.53.26A2.18,2.18,0,0,0,169.09,81.14Z"/>
    <path class="cls-5" d="M154.15,77.15q.77.35,1.56.66l.18.07q.69.27,1.4.51l.28.09q.71.23,1.43.44l.19.06a33.77,33.77,0,0,0,3.36.73l.39.06,1.29.17.53.06,1.24.1.51,0c.58,0,1.15,0,1.74,0s1.09,0,1.63,0a2.18,2.18,0,0,0,.15-.78V77.15Z"/>
    <path class="cls-7" d="M134.92,68.37h7.5A37.56,37.56,0,0,1,134,51h0a2.23,2.23,0,0,0-.49.32l0,0a2.2,2.2,0,0,0-.38.44v0a2.17,2.17,0,0,0-.22.47l0,.13a2.16,2.16,0,0,0-.08.56h0V66.17A2.19,2.19,0,0,0,134.92,68.37Z"/>
    <path class="cls-7" d="M166.51,80.12l-.51,0-1.24-.1-.53-.06-1.29-.17-.39-.06a33.77,33.77,0,0,1-3.36-.73l-.19-.06q-.72-.2-1.43-.44l-.28-.09q-.71-.24-1.4-.51l-.18-.07q-.79-.31-1.56-.66h0A34,34,0,0,1,147,72.76H132.72A2.19,2.19,0,0,0,130.53,75v4.39a2.19,2.19,0,0,0,2.19,2.19h35.11a2.16,2.16,0,0,0,.6-.09l.12,0a2.18,2.18,0,0,0,.53-.26h0a2.21,2.21,0,0,0,.44-.42l0,0a2.21,2.21,0,0,0,.31-.55h0c-.54,0-1.09,0-1.63,0S167.08,80.15,166.51,80.12Z"/>
    <path class="cls-2" d="M191.32,96.23,179.85,4.52A5.16,5.16,0,0,0,174.74,0H125.82a5.16,5.16,0,0,0-5.12,4.52L109.24,96.23h3.24l.23,0,10.74-85.94h16.3l.15-3.44h-16l.24-1.93a1.72,1.72,0,0,1,1.71-1.51h48.92a1.72,1.72,0,0,1,1.71,1.51l.24,1.93h-16l.16,3.44h16.28l10.74,85.94.23,0Z"/>
    <path class="cls-8" d="M109.24,96.23h-1.92a1.72,1.72,0,0,0,0,3.44h5.16a1.71,1.71,0,0,0,.23-3.41l-.23,0Z"/>
    <path class="cls-8" d="M193.24,96.23h-5.16l-.23,0a1.71,1.71,0,0,0,.23,3.41h5.16a1.72,1.72,0,0,0,0-3.44Z"/>
    <polygon class="cls-2" points="243.4 10.31 257.15 10.31 257.15 6.87 257.15 6.87 243.4 6.87 243.4 6.87 243.4 10.31"/>
    <polygon class="cls-3" points="239.54 63.37 237.93 63.37 236.1 63.37 235.76 68.36 239.21 68.36 239.54 63.37"/>
    <path class="cls-3" d="M243,11.41a1.71,1.71,0,0,1-3-1.1V6.87a1.72,1.72,0,0,1,1.72-1.72,1.72,1.72,0,0,0-1.83,1.6v.12l-.23,3.44-2.2,33.1h3.44Z"/>
    <path class="cls-3" d="M260.73,6.73a1.72,1.72,0,0,0-1.86-1.57,1.72,1.72,0,0,1,1.72,1.72v3.44a1.72,1.72,0,0,1-2.91,1.23l2.65,31.87h3.45L261,10.31l-.29-3.44Z"/>
    <polygon class="cls-3" points="262.41 68.36 265.86 68.36 265.44 63.37 262 63.37 262.41 68.36"/>
    <path class="cls-4" d="M243.4,10.31V6.87h0a1.72,1.72,0,0,0-3.44,0v3.44a1.72,1.72,0,0,0,3.44,0Z"/>
    <path class="cls-4" d="M257.15,6.87h0v3.44h0a1.72,1.72,0,0,0,3.44,0V6.87a1.72,1.72,0,0,0-3.44,0Z"/>
    <path class="cls-5" d="M230.37,45.46c0-.05,0-.1,0-.16S230.37,45.4,230.37,45.46Z"/>
    <path class="cls-5" d="M230.48,45l.07-.18Z"/>
    <path class="cls-5" d="M232.81,63.37a2.49,2.49,0,0,1-1-.2A2.49,2.49,0,0,0,232.81,63.37Z"/>
    <path class="cls-5" d="M240.87,43.41h-8.05a2.48,2.48,0,0,0-2.14,1.24l.1-.17a38,38,0,0,0,7.16,18.89h29.81a2.49,2.49,0,0,0,2.49-2.49v-15a2.5,2.5,0,0,0-2.49-2.49H240.87Z"/>
    <path class="cls-5" d="M230.32,60.88h0a2.49,2.49,0,0,0,1.1,2.07A2.49,2.49,0,0,1,230.32,60.88Z"/>
    <path class="cls-6" d="M242.37,68.36a34.37,34.37,0,0,0,6.91,5h23.45V70.86a2.49,2.49,0,0,0-2.49-2.49H242.37Z"/>
    <path class="cls-5" d="M227.82,75.85a2.5,2.5,0,0,0,.05.5,2.5,2.5,0,0,1-.05-.5Z"/>
    <path class="cls-5" d="M228.56,77.61a2.49,2.49,0,0,1-.68-1.26A2.49,2.49,0,0,0,228.56,77.61Z"/>
    <path class="cls-5" d="M271.27,78.11l-.16.06Z"/>
    <path class="cls-5" d="M271.66,77.89l-.14.09Z"/>
    <path class="cls-5" d="M272.12,77.47l-.17.18Z"/>
    <path class="cls-5" d="M272.37,77.12l-.15.22Z"/>
    <path class="cls-5" d="M270.83,78.26l-.14,0Z"/>
    <path class="cls-5" d="M229.82,78.29a2.49,2.49,0,0,1-1.26-.68A2.49,2.49,0,0,0,229.82,78.29Z"/>
    <path class="cls-5" d="M230.32,78.34a2.51,2.51,0,0,1-.5-.05,2.51,2.51,0,0,0,.5.05h0Z"/>
    <path class="cls-5" d="M249.28,73.35l.13.07q.8.44,1.63.83l.1,0a33.49,33.49,0,0,0,3.68,1.47l.37.12q.78.25,1.58.46l.35.09c.64.16,1.3.31,2,.44h.07c.61.12,1.23.21,1.85.3l.56.07q.73.09,1.47.14l.58,0c.67,0,1.34.06,2,.06a32.5,32.5,0,0,0,6.93-.76,2.51,2.51,0,0,1-.12.26,2.47,2.47,0,0,0,.3-1.15V73.35Z"/>
    <path class="cls-7" d="M230.77,44.48l-.1.17-.11.21-.07.18a2.45,2.45,0,0,0-.08.26c0,.05,0,.1,0,.16a2.45,2.45,0,0,0,0,.45v15a2.49,2.49,0,0,0,2.49,2.49h5.12A38,38,0,0,1,230.77,44.48Z"/>
    <path class="cls-7" d="M265.63,77.5c-.68,0-1.35,0-2-.06l-.58,0q-.74-.05-1.47-.14l-.56-.07c-.62-.08-1.24-.18-1.85-.3h-.07c-.66-.13-1.31-.28-2-.44l-.35-.09q-.8-.21-1.58-.46l-.37-.12a33.49,33.49,0,0,1-3.68-1.47l-.1,0q-.83-.39-1.63-.83l-.13-.07a34.37,34.37,0,0,1-6.91-5H230.32a2.49,2.49,0,0,0-2.49,2.49v5a2.49,2.49,0,0,0,2.49,2.49h39.92a2.48,2.48,0,0,0,.45,0l.14,0,.29-.09.16-.06.24-.13.14-.09a2.5,2.5,0,0,0,.29-.24l.17-.18.1-.13.15-.22.06-.12a2.51,2.51,0,0,0,.12-.26A32.5,32.5,0,0,1,265.63,77.5Z"/>
    <path class="cls-2" d="M291.32,96.23,279.85,4.52A5.16,5.16,0,0,0,274.74,0H225.82a5.16,5.16,0,0,0-5.12,4.52L209.24,96.23h3.24l.23,0,10.74-85.94h16.18l.23-3.44h-16l.24-1.93a1.72,1.72,0,0,1,1.71-1.51h48.92a1.72,1.72,0,0,1,1.71,1.51l.24,1.93H260.74l.29,3.44h16.09l10.74,85.94.23,0Z"/>
    <path class="cls-8" d="M209.24,96.23h-1.92a1.72,1.72,0,0,0,0,3.44h5.16a1.71,1.71,0,0,0,.23-3.41l-.23,0Z"/>
    <path class="cls-8" d="M293.24,96.23h-5.16l-.23,0a1.71,1.71,0,0,0,.23,3.41h5.16a1.72,1.72,0,0,0,0-3.44Z"/>
    <polygon class="cls-2" points="443.4 10.31 457.15 10.31 457.15 6.87 457.15 6.87 443.4 6.87 443.4 6.87 443.4 10.31"/>
    <polygon class="cls-3" points="439.14 69.36 439.48 64.37 436.17 64.37 436.03 64.37 435.7 69.36 438.97 69.36 439.14 69.36"/>
    <path class="cls-3" d="M443,11.41a1.71,1.71,0,0,1-3-1.1V6.87a1.72,1.72,0,0,1,1.72-1.72,1.72,1.72,0,0,0-1.83,1.6v.12l-.23,3.44-2.27,34.1h3.44Z"/>
    <path class="cls-3" d="M460.73,6.73a1.72,1.72,0,0,0-1.86-1.57,1.72,1.72,0,0,1,1.72,1.72v3.44a1.72,1.72,0,0,1-2.91,1.23l2.74,32.87h3.45L461,10.31l-.29-3.44Z"/>
    <polygon class="cls-3" points="462.49 69.36 465.94 69.36 465.53 64.37 462.08 64.37 462.49 69.36"/>
    <path class="cls-4" d="M443.4,10.31V6.87h0a1.72,1.72,0,0,0-3.44,0v3.44a1.72,1.72,0,0,0,3.44,0Z"/>
    <path class="cls-4" d="M457.15,6.87h0v3.44h0a1.72,1.72,0,0,0,3.44,0V6.87a1.72,1.72,0,0,0-3.44,0Z"/>
    <path class="cls-5" d="M432.81,64.37a2.49,2.49,0,0,1-1-.2A2.49,2.49,0,0,0,432.81,64.37Z"/>
    <path class="cls-5" d="M430.32,61.88h0a2.49,2.49,0,0,0,1.1,2.07A2.49,2.49,0,0,1,430.32,61.88Z"/>
    <path class="cls-5" d="M440.8,44.41h-7.93a29.43,29.43,0,0,0-.26,5.42,38.48,38.48,0,0,0,3.55,14.54h31.58a2.49,2.49,0,0,0,2.49-2.49v-15a2.49,2.49,0,0,0-2.49-2.49H440.8Z"/>
    <path class="cls-6" d="M439.14,69.36H439a36.07,36.07,0,0,0,4,5h29.73V71.86a2.49,2.49,0,0,0-2.49-2.49H439.14Z"/>
    <path class="cls-5" d="M429.82,79.29a2.49,2.49,0,0,1-1.26-.68A2.49,2.49,0,0,0,429.82,79.29Z"/>
    <path class="cls-5" d="M428.56,78.61a2.49,2.49,0,0,1-.68-1.26A2.49,2.49,0,0,0,428.56,78.61Z"/>
    <path class="cls-5" d="M427.82,76.85a2.5,2.5,0,0,0,.05.5,2.5,2.5,0,0,1-.05-.5Z"/>
    <path class="cls-5" d="M443,74.35l.29.3.59.58.76.71.64.56.75.64.83.65.62.48c.5.37,1,.72,1.53,1.06h-18.7a2.51,2.51,0,0,1-.5-.05,2.51,2.51,0,0,0,.5.05h39.92a2.49,2.49,0,0,0,2.49-2.49V74.35Z"/>
    <path class="cls-7" d="M432.61,49.83a29.43,29.43,0,0,1,.26-5.42h-.06a2.5,2.5,0,0,0-2.49,2.49v15a2.49,2.49,0,0,0,2.49,2.49h3.35A38.48,38.48,0,0,1,432.61,49.83Z"/>
    <path class="cls-7" d="M449,79.34c-.52-.34-1-.7-1.53-1.06l-.62-.48-.83-.65-.75-.64-.64-.56-.76-.71-.59-.58-.29-.3a36.07,36.07,0,0,1-4-5h-8.65a2.49,2.49,0,0,0-2.49,2.49v5a2.49,2.49,0,0,0,2.49,2.49Z"/>
    <path class="cls-2" d="M491.32,96.23,479.85,4.52A5.16,5.16,0,0,0,474.74,0H425.82a5.16,5.16,0,0,0-5.12,4.52L409.24,96.23h3.24l.23,0,10.74-85.94h16.18l.23-3.44h-16l.24-1.93a1.72,1.72,0,0,1,1.71-1.51h48.92a1.72,1.72,0,0,1,1.71,1.51l.24,1.93H460.74l.29,3.44h16.09l10.74,85.94.23,0Z"/>
    <path class="cls-8" d="M409.24,96.23h-1.92a1.72,1.72,0,0,0,0,3.44h5.16a1.71,1.71,0,0,0,.23-3.41l-.23,0Z"/>
    <path class="cls-8" d="M493.24,96.23h-5.16l-.23,0a1.71,1.71,0,0,0,.23,3.41h5.16a1.72,1.72,0,0,0,0-3.44Z"/>
    <polygon class="cls-2" points="543.4 10.31 557.15 10.31 557.15 6.87 557.15 6.87 543.4 6.87 543.4 6.87 543.4 10.31"/>
    <path class="cls-3" d="M543.14,11.22a1.71,1.71,0,0,1-3.17-.9V6.87a1.72,1.72,0,0,1,1.72-1.72,1.72,1.72,0,0,0-1.79,1.64v.08l-.15,3.44L538,50.81h3.44Z"/>
    <polygon class="cls-3" points="540.64 68.37 537.2 68.37 537.01 72.76 540.45 72.76 540.64 68.37"/>
    <path class="cls-3" d="M560.67,6.79a1.72,1.72,0,0,0-1.8-1.64,1.72,1.72,0,0,1,1.72,1.72v3.44a1.72,1.72,0,0,1-3.15,1l1.88,39.55h3.44l-1.92-40.5-.16-3.44Z"/>
    <polygon class="cls-3" points="560.36 72.76 563.8 72.76 563.59 68.37 560.15 68.37 560.36 72.76"/>
    <path class="cls-4" d="M543.4,10.31V6.87h0a1.72,1.72,0,0,0-3.44,0v3.44a1.72,1.72,0,0,0,3.44,0Z"/>
    <path class="cls-4" d="M557.15,6.87h0v3.44h0a1.72,1.72,0,0,0,3.44,0V6.87a1.72,1.72,0,0,0-3.44,0Z"/>
    <path class="cls-5" d="M541.41,50.81h-4.9c0,.17,0,.35,0,.52a38.34,38.34,0,0,0,4.83,17h-6.43a2.19,2.19,0,0,1-2.19-2.19,2.19,2.19,0,0,0,2.19,2.19h30.72a2.19,2.19,0,0,0,2.19-2.19V53a2.19,2.19,0,0,0-2.19-2.19H541.41Z"/>
    <path class="cls-6" d="M544.24,72.76a35.77,35.77,0,0,0,4,4.39H570V75a2.19,2.19,0,0,0-2.19-2.19h-23.6Z"/>
    <path class="cls-5" d="M530.53,79.34s0,0,0,0,0,0,0,0Z"/>
    <path class="cls-5" d="M530.9,80.57a2.19,2.19,0,0,0,1.25.88A2.19,2.19,0,0,1,530.9,80.57Z"/>
    <path class="cls-5" d="M548.23,77.15l.42.39.22.19c.34.3.69.6,1,.89l.31.25c.33.26.65.52,1,.77l.58.41.79.55c.48.32,1,.63,1.45.92H532.72a2.2,2.2,0,0,1-.4,0,2.2,2.2,0,0,0,.4,0h35.11A2.19,2.19,0,0,0,570,79.34V77.15Z"/>
    <path class="cls-2" d="M591.32,96.23,579.85,4.52A5.16,5.16,0,0,0,574.74,0H525.82a5.16,5.16,0,0,0-5.12,4.52L509.24,96.23h3.24l.23,0,10.74-85.94h16.3l.15-3.44h-16l.24-1.93a1.72,1.72,0,0,1,1.71-1.51h48.92a1.72,1.72,0,0,1,1.71,1.51l.24,1.93h-16l.16,3.44h16.28l10.74,85.94.23,0Z"/>
    <path class="cls-8" d="M509.24,96.23h-1.92a1.72,1.72,0,0,0,0,3.44h5.16a1.71,1.71,0,0,0,.23-3.41l-.23,0Z"/>
    <path class="cls-8" d="M593.24,96.23h-5.16l-.23,0a1.71,1.71,0,0,0,.23,3.41h5.16a1.72,1.72,0,0,0,0-3.44Z"/>
    <path class="cls-7" d="M534.92,68.37h6.43a38.34,38.34,0,0,1-4.83-17c0-.17,0-.35,0-.52h-1.59A2.19,2.19,0,0,0,532.72,53h0V66.17A2.19,2.19,0,0,0,534.92,68.37Z"/>
    <path class="cls-7" d="M554,81.54c-.49-.3-1-.6-1.45-.92l-.79-.55-.58-.41c-.34-.25-.66-.51-1-.77l-.31-.25c-.35-.29-.7-.59-1-.89l-.22-.19-.42-.39a35.77,35.77,0,0,1-4-4.39H532.72A2.19,2.19,0,0,0,530.53,75v4.39s0,0,0,0a2.16,2.16,0,0,0,1.62,2.07l.17,0a2.2,2.2,0,0,0,.4,0Z"/>
    <polygon class="cls-2" points="643.4 6.87 643.4 6.87 643.4 10.31 657.15 10.31 657.15 6.87 657.15 6.87 643.4 6.87"/>
    <path class="cls-3" d="M641.69,5.16a1.72,1.72,0,0,1,1.72,1.72h0A1.72,1.72,0,0,0,641.69,5.16Z"/>
    <path class="cls-3" d="M641.69,5.16A1.72,1.72,0,0,0,640,6.87h0A1.72,1.72,0,0,1,641.69,5.16Z"/>
    <path class="cls-3" d="M643.4,58.43V10.31a1.72,1.72,0,0,1-3.44,0V58.43h3.44Z"/>
    <rect class="cls-3" x="639.97" y="72.17" width="3.44" height="3.44"/>
    <path class="cls-3" d="M658.87,12a1.72,1.72,0,0,1-1.72-1.72V58.43h3.44V10.31A1.72,1.72,0,0,1,658.87,12Z"/>
    <path class="cls-3" d="M658.87,5.16a1.72,1.72,0,0,1,1.72,1.72h0A1.72,1.72,0,0,0,658.87,5.16Z"/>
    <rect class="cls-3" x="657.15" y="72.17" width="3.44" height="3.44"/>
    <path class="cls-3" d="M657.15,6.87h0a1.72,1.72,0,0,1,1.72-1.72A1.72,1.72,0,0,0,657.15,6.87Z"/>
    <path class="cls-4" d="M641.69,12a1.72,1.72,0,0,0,1.72-1.72h0V6.87a1.72,1.72,0,0,0-3.44,0v3.44h0A1.72,1.72,0,0,0,641.69,12Z"/>
    <path class="cls-4" d="M658.87,5.16a1.72,1.72,0,0,0-1.72,1.72v3.44h0a1.72,1.72,0,0,0,3.44,0h0V6.87A1.72,1.72,0,0,0,658.87,5.16Z"/>
    <path class="cls-5" d="M643.4,58.43h-1.93A36.68,36.68,0,0,0,651,72.17h11.34A1.72,1.72,0,0,0,664,70.46V60.14a1.72,1.72,0,0,0-1.72-1.72H643.4Z"/>
    <path class="cls-6" d="M655.48,75.61A33.48,33.48,0,0,0,662.62,79h3.12V77.33A1.72,1.72,0,0,0,664,75.61h-8.55Z"/>
    <path class="cls-5" d="M662.85,79.13l.42.13c.81.26,1.63.5,2.47.7V79h-3.12Z"/>
    <path class="cls-7" d="M651,72.17a36.68,36.68,0,0,1-9.5-13.75h-3.22a1.72,1.72,0,0,0-1.72,1.72V70.46a1.72,1.72,0,0,0,1.72,1.72H651Z"/>
    <path class="cls-7" d="M662.85,79.13l-.23-.09a33.48,33.48,0,0,1-7.15-3.44H636.53a1.72,1.72,0,0,0-1.72,1.72v3.44a1.72,1.72,0,0,0,1.72,1.72H664a1.72,1.72,0,0,0,1.72-1.72V80c-.84-.2-1.66-.44-2.47-.7Z"/>
    <path class="cls-2" d="M691.32,96.23,679.85,4.52A5.16,5.16,0,0,0,674.74,0H625.82a5.16,5.16,0,0,0-5.12,4.52L609.24,96.23h3.24l.23,0,10.74-85.94H640V6.87h-16.1l.24-1.93a1.72,1.72,0,0,1,1.71-1.51h48.92a1.72,1.72,0,0,1,1.71,1.51l.24,1.93h-16.1v3.44h16.53l10.74,85.94.23,0Z"/>
    <path class="cls-8" d="M609.24,96.23h-1.92a1.72,1.72,0,0,0,0,3.44h5.16a1.71,1.71,0,0,0,.23-3.41l-.23,0Z"/>
    <path class="cls-8" d="M693.24,96.23h-5.16l-.23,0a1.71,1.71,0,0,0,.23,3.41h5.16a1.72,1.72,0,0,0,0-3.44Z"/>
    <polygon class="cls-2" points="743.66 10.31 756.94 10.31 757.11 6.87 743.49 6.87 743.66 10.31"/>
    <polygon class="cls-3" points="746.45 64.13 743.01 64.13 743.13 66.62 746.58 66.62 746.45 64.13"/>
    <path class="cls-3" d="M743.66,10.31l-.18-3.44V6.79a1.72,1.72,0,0,0-1.8-1.64,1.72,1.72,0,0,1,1.72,1.72v3.44a1.72,1.72,0,0,1-3.13,1l2.22,42.88h3.44Z"/>
    <path class="cls-3" d="M758.87,12a1.72,1.72,0,0,1-1.72-1.72V6.87a1.72,1.72,0,0,1,1.72-1.72l.25,0-.21,0a1.72,1.72,0,0,0-1.79,1.64v.08l-.17,3.44-2.18,43.86h3.44l2.13-43A1.71,1.71,0,0,1,758.87,12Z"/>
    <path class="cls-3" d="M759.3,5.22l-.06,0Z"/>
    <polygon class="cls-3" points="754.15 66.62 757.59 66.62 757.71 64.13 754.27 64.13 754.15 66.62"/>
    <path class="cls-4" d="M741.69,12a1.72,1.72,0,0,0,1.72-1.72V6.87a1.72,1.72,0,0,0-3.44,0h0v3.44h0A1.72,1.72,0,0,0,741.69,12Z"/>
    <path class="cls-4" d="M760.59,6.87a1.71,1.71,0,0,0-1.29-1.66l-.06,0-.12,0-.25,0a1.72,1.72,0,0,0-1.72,1.72v3.44a1.72,1.72,0,0,0,3.44,0h0V6.87Z"/>
    <path class="cls-5" d="M749.37,54.17a34.65,34.65,0,0,0,10.87,8.64v.08a1.25,1.25,0,0,1-.76,1.15,1.25,1.25,0,0,0,.76-1.15V55.41A1.25,1.25,0,0,0,759,54.17h-9.63Z"/>
    <path class="cls-7" d="M760.24,62.89v-.08a34.65,34.65,0,0,1-10.87-8.64h-7.81a1.24,1.24,0,0,0-1.25,1.25v7.47a1.24,1.24,0,0,0,1.25,1.25H759a1.24,1.24,0,0,0,1.25-1.25Z"/>
    <path class="cls-7" d="M746.58,66.62h-6.26a1.25,1.25,0,0,0-1.25,1.25v2.49a1.25,1.25,0,0,0,1.25,1.25h19.93a1.25,1.25,0,0,0,1.25-1.25V67.87a1.25,1.25,0,0,0-1.25-1.25H746.58Z"/>
    <path class="cls-2" d="M791.32,96.23,779.85,4.52A5.16,5.16,0,0,0,774.74,0H725.82a5.16,5.16,0,0,0-5.12,4.52L709.24,96.23h3.24l.23,0,10.74-85.94H740V6.87h-16.1l.24-1.93a1.72,1.72,0,0,1,1.71-1.51h48.92a1.72,1.72,0,0,1,1.71,1.51l.24,1.93h-16.1v3.44h16.53l10.74,85.94.23,0Z"/>
    <path class="cls-8" d="M709.24,96.23h-1.92a1.72,1.72,0,0,0,0,3.44h5.16a1.71,1.71,0,0,0,.23-3.41l-.23,0Z"/>
    <path class="cls-8" d="M793.24,96.23h-5.16l-.23,0a1.71,1.71,0,0,0,.23,3.41h5.16a1.72,1.72,0,0,0,0-3.44Z"/>
  </g>
</svg>
