<svg id="Layer_1" data-name="Layer 1" xmlns="http://www.w3.org/2000/svg" viewBox="0 0 528 100"><defs><style>.cls-1{fill:#666;}.cls-2{fill:#4f6081;}.cls-3{fill:#dadada;}.cls-4{fill:#ff318d;}.cls-5{fill:#e9b6de;}.cls-6{fill:#ababab;}</style></defs><title>Artboard 1 copy 5</title><path class="cls-1" d="M74.87,79.7h0A15.66,15.66,0,0,1,59.26,64.09V26.61A15.66,15.66,0,0,1,74.87,11h0A15.66,15.66,0,0,1,90.49,26.61V64.09A15.66,15.66,0,0,1,74.87,79.7Z"/><path class="cls-2" d="M98.29,53.16a1.56,1.56,0,0,0-1.56,1.56v9.37a21.86,21.86,0,0,1-43.72,0V54.72a1.56,1.56,0,0,0-3.12,0v9.37A25,25,0,0,0,73.31,89v7.89H65.5a1.56,1.56,0,0,0,0,3.12H84.24a1.56,1.56,0,1,0,0-3.12H76.43V89a25,25,0,0,0,23.42-24.9V54.72A1.56,1.56,0,0,0,98.29,53.16Z"/><circle class="cls-3" cx="74.87" cy="15.68" r="1.56"/><circle class="cls-3" cx="70.19" cy="20.37" r="1.56"/><circle class="cls-3" cx="60.82" cy="29.74" r="1.56"/><circle class="cls-3" cx="70.19" cy="29.74" r="1.56"/><circle class="cls-3" cx="65.5" cy="25.05" r="1.56"/><circle class="cls-3" cx="74.87" cy="25.05" r="1.56"/><circle class="cls-3" cx="65.5" cy="34.42" r="1.56"/><circle class="cls-3" cx="74.87" cy="34.42" r="1.56"/><circle class="cls-3" cx="79.56" cy="20.37" r="1.56"/><circle class="cls-3" cx="79.56" cy="29.74" r="1.56"/><circle class="cls-3" cx="84.24" cy="25.05" r="1.56"/><circle class="cls-3" cx="84.24" cy="34.42" r="1.56"/><circle class="cls-3" cx="60.82" cy="39.11" r="1.56"/><circle class="cls-3" cx="70.19" cy="39.11" r="1.56"/><circle class="cls-3" cx="60.82" cy="48.47" r="1.56"/><circle class="cls-3" cx="70.19" cy="48.47" r="1.56"/><circle class="cls-3" cx="65.5" cy="43.79" r="1.56"/><circle class="cls-3" cx="74.87" cy="43.79" r="1.56"/><circle class="cls-3" cx="65.5" cy="53.16" r="1.56"/><circle class="cls-3" cx="74.87" cy="53.16" r="1.56"/><circle class="cls-3" cx="79.56" cy="39.11" r="1.56"/><circle class="cls-3" cx="79.56" cy="48.47" r="1.56"/><circle class="cls-3" cx="84.24" cy="43.79" r="1.56"/><circle class="cls-3" cx="84.24" cy="53.16" r="1.56"/><circle class="cls-3" cx="60.82" cy="57.84" r="1.56"/><circle class="cls-3" cx="70.19" cy="57.84" r="1.56"/><circle class="cls-3" cx="88.93" cy="29.74" r="1.56"/><circle class="cls-3" cx="88.93" cy="39.11" r="1.56"/><circle class="cls-3" cx="88.93" cy="48.47" r="1.56"/><circle class="cls-3" cx="88.93" cy="57.84" r="1.56"/><circle class="cls-3" cx="70.19" cy="67.21" r="1.56"/><circle class="cls-3" cx="65.5" cy="62.53" r="1.56"/><circle class="cls-3" cx="74.87" cy="62.53" r="1.56"/><circle class="cls-3" cx="65.5" cy="71.9" r="1.56"/><circle class="cls-3" cx="74.87" cy="71.9" r="1.56"/><circle class="cls-3" cx="79.56" cy="57.84" r="1.56"/><circle class="cls-3" cx="79.56" cy="67.21" r="1.56"/><circle class="cls-3" cx="84.24" cy="62.53" r="1.56"/><circle class="cls-3" cx="84.24" cy="71.9" r="1.56"/><circle class="cls-3" cx="70.19" cy="76.58" r="1.56"/><circle class="cls-3" cx="79.56" cy="76.58" r="1.56"/><path class="cls-4" d="M181.39,79.7h0a15.66,15.66,0,0,1-15.61-15.61V26.61A15.66,15.66,0,0,1,181.39,11h0A15.66,15.66,0,0,1,197,26.61V64.09A15.66,15.66,0,0,1,181.39,79.7Z"/><path class="cls-2" d="M204.82,53.16a1.56,1.56,0,0,0-1.56,1.56v9.37a21.86,21.86,0,0,1-43.72,0V54.72a1.56,1.56,0,1,0-3.12,0v9.37A25,25,0,0,0,179.83,89v7.89H172a1.56,1.56,0,1,0,0,3.12h18.74a1.56,1.56,0,0,0,0-3.12H183V89a25,25,0,0,0,23.42-24.9V54.72A1.56,1.56,0,0,0,204.82,53.16Z"/><circle class="cls-5" cx="181.39" cy="15.68" r="1.56"/><circle class="cls-5" cx="176.71" cy="20.37" r="1.56"/><circle class="cls-5" cx="167.34" cy="29.74" r="1.56"/><circle class="cls-5" cx="176.71" cy="29.74" r="1.56"/><circle class="cls-5" cx="172.03" cy="25.05" r="1.56"/><circle class="cls-5" cx="181.39" cy="25.05" r="1.56"/><circle class="cls-5" cx="172.03" cy="34.42" r="1.56"/><circle class="cls-5" cx="181.39" cy="34.42" r="1.56"/><circle class="cls-5" cx="186.08" cy="20.37" r="1.56"/><circle class="cls-5" cx="186.08" cy="29.74" r="1.56"/><circle class="cls-5" cx="190.76" cy="25.05" r="1.56"/><circle class="cls-5" cx="190.76" cy="34.42" r="1.56"/><circle class="cls-5" cx="167.34" cy="39.11" r="1.56"/><circle class="cls-5" cx="176.71" cy="39.11" r="1.56"/><circle class="cls-5" cx="167.34" cy="48.47" r="1.56"/><circle class="cls-5" cx="176.71" cy="48.47" r="1.56"/><circle class="cls-5" cx="172.03" cy="43.79" r="1.56"/><circle class="cls-5" cx="181.39" cy="43.79" r="1.56"/><circle class="cls-5" cx="172.03" cy="53.16" r="1.56"/><circle class="cls-5" cx="181.39" cy="53.16" r="1.56"/><circle class="cls-5" cx="186.08" cy="39.11" r="1.56"/><circle class="cls-5" cx="186.08" cy="48.47" r="1.56"/><circle class="cls-5" cx="190.76" cy="43.79" r="1.56"/><circle class="cls-5" cx="190.76" cy="53.16" r="1.56"/><circle class="cls-5" cx="167.34" cy="57.84" r="1.56"/><circle class="cls-5" cx="176.71" cy="57.84" r="1.56"/><circle class="cls-5" cx="195.45" cy="29.74" r="1.56"/><circle class="cls-5" cx="195.45" cy="39.11" r="1.56"/><circle class="cls-5" cx="195.45" cy="48.47" r="1.56"/><circle class="cls-5" cx="195.45" cy="57.84" r="1.56"/><circle class="cls-5" cx="176.71" cy="67.21" r="1.56"/><circle class="cls-5" cx="172.03" cy="62.53" r="1.56"/><circle class="cls-5" cx="181.39" cy="62.53" r="1.56"/><circle class="cls-5" cx="172.03" cy="71.9" r="1.56"/><circle class="cls-5" cx="181.39" cy="71.9" r="1.56"/><circle class="cls-5" cx="186.08" cy="57.84" r="1.56"/><circle class="cls-5" cx="186.08" cy="67.21" r="1.56"/><circle class="cls-5" cx="190.76" cy="62.53" r="1.56"/><circle class="cls-5" cx="190.76" cy="71.9" r="1.56"/><circle class="cls-5" cx="176.71" cy="76.58" r="1.56"/><circle class="cls-5" cx="186.08" cy="76.58" r="1.56"/><path class="cls-4" d="M288.81,79.7h0A15.66,15.66,0,0,1,273.2,64.09V26.61A15.66,15.66,0,0,1,288.81,11h0a15.66,15.66,0,0,1,15.61,15.61V64.09A15.66,15.66,0,0,1,288.81,79.7Z"/><path class="cls-2" d="M312.23,53.16a1.56,1.56,0,0,0-1.56,1.56v9.37a21.86,21.86,0,0,1-43.72,0V54.72a1.56,1.56,0,1,0-3.12,0v9.37A25,25,0,0,0,287.25,89v7.89h-7.81a1.56,1.56,0,1,0,0,3.12h18.74a1.56,1.56,0,0,0,0-3.12h-7.81V89a25,25,0,0,0,23.42-24.9V54.72A1.56,1.56,0,0,0,312.23,53.16Z"/><circle class="cls-5" cx="288.81" cy="15.68" r="1.56"/><circle class="cls-5" cx="284.13" cy="20.37" r="1.56"/><circle class="cls-5" cx="274.76" cy="29.74" r="1.56"/><circle class="cls-5" cx="284.13" cy="29.74" r="1.56"/><circle class="cls-5" cx="279.44" cy="25.05" r="1.56"/><circle class="cls-5" cx="288.81" cy="25.05" r="1.56"/><circle class="cls-5" cx="279.44" cy="34.42" r="1.56"/><circle class="cls-5" cx="288.81" cy="34.42" r="1.56"/><circle class="cls-5" cx="293.49" cy="20.37" r="1.56"/><circle class="cls-5" cx="293.49" cy="29.74" r="1.56"/><circle class="cls-5" cx="298.18" cy="25.05" r="1.56"/><circle class="cls-5" cx="298.18" cy="34.42" r="1.56"/><circle class="cls-5" cx="274.76" cy="39.11" r="1.56"/><circle class="cls-5" cx="284.13" cy="39.11" r="1.56"/><circle class="cls-5" cx="274.76" cy="48.47" r="1.56"/><circle class="cls-5" cx="284.13" cy="48.47" r="1.56"/><circle class="cls-5" cx="279.44" cy="43.79" r="1.56"/><circle class="cls-5" cx="288.81" cy="43.79" r="1.56"/><circle class="cls-5" cx="279.44" cy="53.16" r="1.56"/><circle class="cls-5" cx="288.81" cy="53.16" r="1.56"/><circle class="cls-5" cx="293.49" cy="39.11" r="1.56"/><circle class="cls-5" cx="293.49" cy="48.47" r="1.56"/><circle class="cls-5" cx="298.18" cy="43.79" r="1.56"/><circle class="cls-5" cx="298.18" cy="53.16" r="1.56"/><circle class="cls-5" cx="274.76" cy="57.84" r="1.56"/><circle class="cls-5" cx="284.13" cy="57.84" r="1.56"/><circle class="cls-5" cx="302.86" cy="29.74" r="1.56"/><circle class="cls-5" cx="302.86" cy="39.11" r="1.56"/><circle class="cls-5" cx="302.86" cy="48.47" r="1.56"/><circle class="cls-5" cx="302.86" cy="57.84" r="1.56"/><circle class="cls-5" cx="284.13" cy="67.21" r="1.56"/><circle class="cls-5" cx="279.44" cy="62.53" r="1.56"/><circle class="cls-5" cx="288.81" cy="62.53" r="1.56"/><circle class="cls-5" cx="279.44" cy="71.9" r="1.56"/><circle class="cls-5" cx="288.81" cy="71.9" r="1.56"/><circle class="cls-5" cx="293.49" cy="57.84" r="1.56"/><circle class="cls-5" cx="293.49" cy="67.21" r="1.56"/><circle class="cls-5" cx="298.18" cy="62.53" r="1.56"/><circle class="cls-5" cx="298.18" cy="71.9" r="1.56"/><circle class="cls-5" cx="284.13" cy="76.58" r="1.56"/><circle class="cls-5" cx="293.49" cy="76.58" r="1.56"/><path class="cls-6" d="M256.7,49.14a1.12,1.12,0,0,1-.68-.23,13.67,13.67,0,0,1-5.5-11,13.84,13.84,0,0,1,5.55-11.05,1.12,1.12,0,1,1,1.34,1.8,11.53,11.53,0,0,0,0,18.47,1.12,1.12,0,0,1-.68,2Z"/><path class="cls-4" d="M395.81,79.7h0A15.66,15.66,0,0,1,380.2,64.09V26.61A15.66,15.66,0,0,1,395.81,11h0a15.66,15.66,0,0,1,15.61,15.61V64.09A15.66,15.66,0,0,1,395.81,79.7Z"/><path class="cls-2" d="M419.23,53.16a1.56,1.56,0,0,0-1.56,1.56v9.37a21.86,21.86,0,0,1-43.72,0V54.72a1.56,1.56,0,1,0-3.12,0v9.37A25,25,0,0,0,394.25,89v7.89h-7.81a1.56,1.56,0,1,0,0,3.12h18.74a1.56,1.56,0,0,0,0-3.12h-7.81V89a25,25,0,0,0,23.42-24.9V54.72A1.56,1.56,0,0,0,419.23,53.16Z"/><circle class="cls-5" cx="395.81" cy="15.68" r="1.56"/><circle class="cls-5" cx="391.13" cy="20.37" r="1.56"/><circle class="cls-5" cx="381.76" cy="29.74" r="1.56"/><circle class="cls-5" cx="391.13" cy="29.74" r="1.56"/><circle class="cls-5" cx="386.44" cy="25.05" r="1.56"/><circle class="cls-5" cx="395.81" cy="25.05" r="1.56"/><circle class="cls-5" cx="386.44" cy="34.42" r="1.56"/><circle class="cls-5" cx="395.81" cy="34.42" r="1.56"/><circle class="cls-5" cx="400.49" cy="20.37" r="1.56"/><circle class="cls-5" cx="400.49" cy="29.74" r="1.56"/><circle class="cls-5" cx="405.18" cy="25.05" r="1.56"/><circle class="cls-5" cx="405.18" cy="34.42" r="1.56"/><circle class="cls-5" cx="381.76" cy="39.11" r="1.56"/><circle class="cls-5" cx="391.13" cy="39.11" r="1.56"/><circle class="cls-5" cx="381.76" cy="48.47" r="1.56"/><circle class="cls-5" cx="391.13" cy="48.47" r="1.56"/><circle class="cls-5" cx="386.44" cy="43.79" r="1.56"/><circle class="cls-5" cx="395.81" cy="43.79" r="1.56"/><circle class="cls-5" cx="386.44" cy="53.16" r="1.56"/><circle class="cls-5" cx="395.81" cy="53.16" r="1.56"/><circle class="cls-5" cx="400.49" cy="39.11" r="1.56"/><circle class="cls-5" cx="400.49" cy="48.47" r="1.56"/><circle class="cls-5" cx="405.18" cy="43.79" r="1.56"/><circle class="cls-5" cx="405.18" cy="53.16" r="1.56"/><circle class="cls-5" cx="381.76" cy="57.84" r="1.56"/><circle class="cls-5" cx="391.13" cy="57.84" r="1.56"/><circle class="cls-5" cx="409.86" cy="29.74" r="1.56"/><circle class="cls-5" cx="409.86" cy="39.11" r="1.56"/><circle class="cls-5" cx="409.86" cy="48.47" r="1.56"/><circle class="cls-5" cx="409.86" cy="57.84" r="1.56"/><circle class="cls-5" cx="391.13" cy="67.21" r="1.56"/><circle class="cls-5" cx="386.44" cy="62.53" r="1.56"/><circle class="cls-5" cx="395.81" cy="62.53" r="1.56"/><circle class="cls-5" cx="386.44" cy="71.9" r="1.56"/><circle class="cls-5" cx="395.81" cy="71.9" r="1.56"/><circle class="cls-5" cx="400.49" cy="57.84" r="1.56"/><circle class="cls-5" cx="400.49" cy="67.21" r="1.56"/><circle class="cls-5" cx="405.18" cy="62.53" r="1.56"/><circle class="cls-5" cx="405.18" cy="71.9" r="1.56"/><circle class="cls-5" cx="391.13" cy="76.58" r="1.56"/><circle class="cls-5" cx="400.49" cy="76.58" r="1.56"/><path class="cls-6" d="M363.7,49.14a1.12,1.12,0,0,1-.68-.23,13.67,13.67,0,0,1-5.5-11,13.84,13.84,0,0,1,5.55-11.05,1.12,1.12,0,1,1,1.34,1.8,11.53,11.53,0,0,0,0,18.47,1.12,1.12,0,0,1-.68,2Z"/><path class="cls-6" d="M352.29,54.17a1.12,1.12,0,0,1-.68-.23,19.91,19.91,0,0,1-8-16,20.16,20.16,0,0,1,8.08-16.09,1.12,1.12,0,1,1,1.34,1.8A17.81,17.81,0,0,0,353,52.15a1.12,1.12,0,0,1-.68,2Z"/><path class="cls-4" d="M502.81,79.7h0A15.66,15.66,0,0,1,487.2,64.09V26.61A15.66,15.66,0,0,1,502.81,11h0a15.66,15.66,0,0,1,15.61,15.61V64.09A15.66,15.66,0,0,1,502.81,79.7Z"/><path class="cls-2" d="M526.23,53.16a1.56,1.56,0,0,0-1.56,1.56v9.37a21.86,21.86,0,0,1-43.72,0V54.72a1.56,1.56,0,1,0-3.12,0v9.37A25,25,0,0,0,501.25,89v7.89h-7.81a1.56,1.56,0,1,0,0,3.12h18.74a1.56,1.56,0,0,0,0-3.12h-7.81V89a25,25,0,0,0,23.42-24.9V54.72A1.56,1.56,0,0,0,526.23,53.16Z"/><circle class="cls-5" cx="502.81" cy="15.68" r="1.56"/><circle class="cls-5" cx="498.13" cy="20.37" r="1.56"/><circle class="cls-5" cx="488.76" cy="29.74" r="1.56"/><circle class="cls-5" cx="498.13" cy="29.74" r="1.56"/><circle class="cls-5" cx="493.44" cy="25.05" r="1.56"/><circle class="cls-5" cx="502.81" cy="25.05" r="1.56"/><circle class="cls-5" cx="493.44" cy="34.42" r="1.56"/><circle class="cls-5" cx="502.81" cy="34.42" r="1.56"/><circle class="cls-5" cx="507.49" cy="20.37" r="1.56"/><circle class="cls-5" cx="507.49" cy="29.74" r="1.56"/><circle class="cls-5" cx="512.18" cy="25.05" r="1.56"/><circle class="cls-5" cx="512.18" cy="34.42" r="1.56"/><circle class="cls-5" cx="488.76" cy="39.11" r="1.56"/><circle class="cls-5" cx="498.13" cy="39.11" r="1.56"/><circle class="cls-5" cx="488.76" cy="48.47" r="1.56"/><circle class="cls-5" cx="498.13" cy="48.47" r="1.56"/><circle class="cls-5" cx="493.44" cy="43.79" r="1.56"/><circle class="cls-5" cx="502.81" cy="43.79" r="1.56"/><circle class="cls-5" cx="493.44" cy="53.16" r="1.56"/><circle class="cls-5" cx="502.81" cy="53.16" r="1.56"/><circle class="cls-5" cx="507.49" cy="39.11" r="1.56"/><circle class="cls-5" cx="507.49" cy="48.47" r="1.56"/><circle class="cls-5" cx="512.18" cy="43.79" r="1.56"/><circle class="cls-5" cx="512.18" cy="53.16" r="1.56"/><circle class="cls-5" cx="488.76" cy="57.84" r="1.56"/><circle class="cls-5" cx="498.13" cy="57.84" r="1.56"/><circle class="cls-5" cx="516.86" cy="29.74" r="1.56"/><circle class="cls-5" cx="516.86" cy="39.11" r="1.56"/><circle class="cls-5" cx="516.86" cy="48.47" r="1.56"/><circle class="cls-5" cx="516.86" cy="57.84" r="1.56"/><circle class="cls-5" cx="498.13" cy="67.21" r="1.56"/><circle class="cls-5" cx="493.44" cy="62.53" r="1.56"/><circle class="cls-5" cx="502.81" cy="62.53" r="1.56"/><circle class="cls-5" cx="493.44" cy="71.9" r="1.56"/><circle class="cls-5" cx="502.81" cy="71.9" r="1.56"/><circle class="cls-5" cx="507.49" cy="57.84" r="1.56"/><circle class="cls-5" cx="507.49" cy="67.21" r="1.56"/><circle class="cls-5" cx="512.18" cy="62.53" r="1.56"/><circle class="cls-5" cx="512.18" cy="71.9" r="1.56"/><circle class="cls-5" cx="498.13" cy="76.58" r="1.56"/><circle class="cls-5" cx="507.49" cy="76.58" r="1.56"/><path class="cls-6" d="M470.7,49.14a1.12,1.12,0,0,1-.68-.23,13.67,13.67,0,0,1-5.5-11,13.84,13.84,0,0,1,5.55-11.05,1.12,1.12,0,1,1,1.34,1.8,11.53,11.53,0,0,0,0,18.47,1.12,1.12,0,0,1-.68,2Z"/><path class="cls-6" d="M459.29,54.17a1.12,1.12,0,0,1-.68-.23,19.91,19.91,0,0,1-8-16,20.16,20.16,0,0,1,8.08-16.09,1.12,1.12,0,1,1,1.34,1.8A17.81,17.81,0,0,0,460,52.15a1.12,1.12,0,0,1-.68,2Z"/><path class="cls-6" d="M445.36,59.23a1.12,1.12,0,0,1-.68-.23,26.18,26.18,0,0,1-10.53-21.09,26.51,26.51,0,0,1,10.63-21.16,1.12,1.12,0,1,1,1.34,1.8A24.13,24.13,0,0,0,446,57.21a1.12,1.12,0,0,1-.68,2Z"/></svg>