<?xml version="1.0" encoding="utf-8"?>
<!-- Generator: Adobe Illustrator 19.1.0, SVG Export Plug-In . SVG Version: 6.00 Build 0)  -->
<svg version="1.1" id="Layer_1" xmlns="http://www.w3.org/2000/svg" xmlns:xlink="http://www.w3.org/1999/xlink" x="0px" y="0px"
	 viewBox="-375 287 40 40" style="enable-background:new -375 287 40 40;" xml:space="preserve">
	 <style type="text/css">
	.st0{fill:#2ac3ec;}
</style>
<g>
	<circle class="st0" cx="-362" cy="311.6" r="1.4"/>
	<circle class="st0" cx="-346.8" cy="311.6" r="1.4"/>
	<path class="st0" d="M-362,307.2c-0.8,0-1.5,0.3-2,0.8c-0.3,0.3-0.3,0.8,0,1c0.3,0.3,0.8,0.3,1,0c0.3-0.3,0.6-0.4,1-0.4s0.7,0.1,1,0.4
		c0.1,0.1,0.3,0.2,0.5,0.2c0.2,0,0.4-0.1,0.5-0.2c0.3-0.3,0.3-0.8,0-1C-360.6,307.5-361.3,307.2-362,307.2z"/>
	<path class="st0" d="M-348.8,308c-0.3,0.3-0.3,0.8,0,1c0.3,0.3,0.8,0.3,1,0c0.5-0.5,1.4-0.5,1.9,0c0.1,0.1,0.3,0.2,0.5,0.2s0.4-0.1,0.5-0.2
		c0.3-0.3,0.3-0.8,0-1C-345.9,306.9-347.7,306.9-348.8,308z"/>
	<path class="st0" d="M-353,317.4c-0.4,0.4-0.9,0.6-1.4,0.6c-0.5,0-1-0.2-1.4-0.6c-0.3-0.3-0.8-0.3-1,0c-0.3,0.3-0.3,0.8,0,1
		c0.7,0.7,1.5,1,2.5,1s1.8-0.4,2.5-1c0.3-0.3,0.3-0.8,0-1C-352.3,317.1-352.7,317.1-353,317.4z"/>
	<path class="st0" d="M-337.1,310.9c0-2-1.4-3.7-3.3-4v-12.3c0-1.6-0.8-3.1-2.1-4c-1.2-0.8-2.8-1-4.2-0.5l-4.6-1.6c-3.5-1.2-7.3-1.3-10.8-0.4
		c-4.6,1.3-7.2,4-7.7,7.8c-0.4,0.5-0.6,1-0.8,1.6l-0.4,1.1c-0.2,0.6,0,1.2,0.5,1.5c0.5,0.3,1.1,0.3,1.6-0.2c0.1-0.1,0.3-0.3,0.5-0.4
		v7.3c-1.9,0.3-3.3,2-3.3,4c0,2.1,1.6,3.8,3.6,4c0.5,2.8,1.8,5.4,3.9,7.4c2.6,2.7,6.2,4.2,9.9,4.2h0c3.7,0,7.3-1.5,9.9-4.1
		c2.1-2.1,3.4-4.7,3.9-7.5C-338.6,314.6-337.1,312.9-337.1,310.9z M-370.3,310.9c0-1.2,0.8-2.2,1.9-2.5v4c0,0.3,0,0.7,0,1
		C-369.5,313.1-370.3,312.1-370.3,310.9z M-345.6,321.4c-2.4,2.4-5.5,3.7-8.9,3.7c0,0,0,0,0,0c-3.3,0-6.5-1.3-8.9-3.7
		c-2.4-2.4-3.7-5.6-3.7-8.9v-13.2c0.4,0,0.8,0.2,1.2,0.4c3.1,2.1,6.9,2.8,10.6,2.1c3-0.6,5.7-2,7.8-4.2v2c0,3.2,2.4,5.8,5.5,6.2v6.8
		C-341.9,315.8-343.2,319-345.6,321.4z M-340.4,313.4c0-0.3,0-0.6,0-0.9v-4.1c1.1,0.3,1.9,1.3,1.9,2.5
		C-338.5,312.1-339.3,313.1-340.4,313.4z"/>
</g>
</svg>
