<?xml version="1.0" encoding="iso-8859-1"?>
<!-- Generator: Adobe Illustrator 23.0.6, SVG Export Plug-In . SVG Version: 6.00 Build 0)  -->
<svg version="1.1" xmlns="http://www.w3.org/2000/svg" xmlns:xlink="http://www.w3.org/1999/xlink" x="0px" y="0px"
	 viewBox="625.018 189.789 400.423 100" style="enable-background:new 625.018 189.789 400.423 100;" xml:space="preserve">
<g id="Layer_13">
	<path style="fill:#FDC8A7;" d="M673.609,225.975c0,0-5.248-0.465-9.765-2.214c-4.518-1.749-8.014-4.055-9.713-4.151
		c-1.699-0.097-3.707,2.215-0.476,4.786s11.205,4.85,20.672,3.324C674.366,226.901,673.609,225.975,673.609,225.975z"/>
	<path style="fill:#EA8234;" d="M667.188,224.446c0,0-4.794-1.583-8.18-3.232c-3.386-1.648-4.801-2.629-6.645-1.254
		s-0.828,3.99,2.469,5.903c3.297,1.913,9.168,2.818,11.591,2.677C666.964,227.262,667.188,224.446,667.188,224.446z"/>
	<path style="fill:#FDC8A7;" d="M673.162,225.793c0,0,1.436-0.421,3.278-0.34c1.842,0.081,2.505,0.654,1.926,1.539
		s-2.846,1.691-5.526,0.589C670.16,226.479,673.162,225.793,673.162,225.793z"/>
	<path d="M673.53,236.511l-0.106-0.033c-0.371-0.115-0.578-0.509-0.463-0.88l2.692-8.682c0.115-0.371,0.509-0.578,0.88-0.463
		l0.106,0.033c0.371,0.115,0.578,0.509,0.463,0.88l-2.692,8.682C674.295,236.418,673.901,236.626,673.53,236.511z"/>
	<path style="fill:#433D4F;" d="M652.537,235.01c0,0-1.831,3.033-0.801,5.852c1.03,2.818,8.94,5,8.486,6.455
		s-10.122,1.394-10.122,1.394l-0.545,3c0,0,8.536,0.595,15.737,0.322c7.202-0.273,4.749-6.535,1.294-9.535s-5.457-5.091-5.457-5.091
		L652.537,235.01z"/>
	<path style="fill:#D3E3F9;" d="M650.021,249.147c0,0-0.815-0.678-1.618-0.785c-0.803-0.106-0.926,0.576-1.244,1.273
		c-0.318,0.697-2.241,0.985-2.695,1.318s0.015,0.697,1.47,0.697s3.655-0.126,3.655-0.126L650.021,249.147z"/>
	<path style="fill:#50495B;" d="M648.282,234.195c0,0-2.546,3.849-1.515,6.667c1.03,2.818,8.94,5,8.486,6.455
		c-0.455,1.455-10.122,1.394-10.122,1.394l-0.545,3c0,0,6.299,0.595,13.5,0.322c7.202-0.273,6.986-6.535,3.531-9.535
		s-5.457-5.091-5.457-5.091L648.282,234.195z"/>
	<path style="fill:#FDC8A7;" d="M648.661,211.429c2.245,4.405,7.362,7.161,10.996,5.309c3.634-1.853,4.41-7.612,2.165-12.017
		c-2.246-4.405-6.662-5.788-10.297-3.936C647.891,202.637,646.415,207.024,648.661,211.429z"/>
	<path style="fill:#50495B;" d="M653.139,206.47c-0.542,0.388-0.97,1.664-0.426,2.84c0.544,1.176,1.778,1.858,0.984,3.247
		c-0.794,1.389,1.136,2.494-0.221,3.788c-1.357,1.294-4.393,1.531-5.573-0.532c-1.18-2.063-0.45-4.375-1.199-5.628
		c-0.749-1.253-3.712-3.828-1.039-7.383s4.935-2.79,6.005-3.482c1.07-0.692,3.019-2.238,4.718-1.74s1.82,1.604,2.941,1.919
		c1.121,0.315,3.595,1.376,4.014,3.313c0.419,1.937-0.573,3.467-2.475,3.414c-1.902-0.054-2.234-0.412-3.17,0.258
		c-0.936,0.671-1.74,1.172-2.944,0.917C653.549,207.146,653.139,206.47,653.139,206.47z"/>
	<path style="fill:#F79440;" d="M652.24,219.579c0,0-2.637,3.363-4.447,8.802s-1.928,10.481-1.928,10.481s1.53,1.518,7.322,1.661
		s10.438-1.894,10.438-1.894s-2.75-8.061-3.264-12.019c-0.514-3.958-1.189-6.232-3.238-7.312S653.773,218.32,652.24,219.579z"/>
	<path style="fill:#82CFD2;" d="M645.051,249.147c0,0-0.815-0.678-1.618-0.785c-0.803-0.106-0.926,0.576-1.244,1.273
		c-0.318,0.697-2.241,0.985-2.695,1.318c-0.455,0.333,0.015,0.697,1.47,0.697s3.655-0.126,3.655-0.126L645.051,249.147z"/>
	<path style="fill:#FDC8A7;" d="M657.858,219.783c0,0-0.616-1.309-0.465-2.739c0.151-1.431-3.195-1.434-3.195-1.434l-0.591,3.14
		c0,0,2.599,2.127,4.066,2.425C659.139,221.471,658.367,220.188,657.858,219.783z"/>
	<path style="fill:#F0AE88;" d="M657.402,217.421c0,0-2.05-0.275-3.297-1.314c-0.04,0.213-0.101,0.535-0.101,0.535
		s0.426,0.98,1.736,1.73c1.31,0.75,1.852,0.664,1.852,0.664L657.402,217.421z"/>
	<path style="fill:#C7CFE2;" d="M652.801,243.334c-1.333-0.169-2.054-1.652-1.362-2.805l1.574-2.623
		c1.095-1.826,3.042-3.034,5.171-3.038c0.012,0,0.024,0,0.036,0h9.994c1.916,0,3.719,0.902,4.868,2.434l7.128,9.506L652.801,243.334
		z"/>
	<path style="fill:#C7CFE2;" d="M680.667,234.452c-0.172-0.14-0.362-0.282-0.57-0.422h-8.969l14.184,15.962l8.108-4.054
		C693.42,245.938,683.949,237.129,680.667,234.452z"/>
	<path style="fill:#5CBFFF;" d="M680.111,247.572l4.892-1.138l-7.52-9.97c-0.481-0.641-0.023-1.555,0.778-1.555h3.109
		c-0.613-0.533-1.159-0.998-1.592-1.351c-1.605-1.309-4.645-2.703-11.565-2.703h-10c-3.526,0-6.692-0.245-11.571,0.564
		c-4.634,0.768-13.929,9.555-13.929,9.555 M652.794,243.375c-1.333-0.169-2.054-1.652-1.362-2.805l1.574-2.623
		c1.095-1.826,3.042-3.034,5.171-3.038c0.012,0,0.024,0,0.036,0h9.994c1.916,0,3.719,0.902,4.868,2.434l7.128,9.506L652.794,243.375
		z M704.423,242.942h-6.743c-0.976,0-1.931,0.355-2.743,1.022l-2.333,1.913c-0.278,0.228-0.576,0.406-0.883,0.559l-0.016-0.052
		l-2.666,0.706c-0.004,0.001-0.008,0.001-0.012,0.001l-26.66-4.069l-14.364-2.106h-14.441c-2.73,0-4.944,2.723-4.944,6.081v18.243
		l11.536,4.054h80.75v-6.081C720.902,252.017,713.524,242.942,704.423,242.942z"/>
	<path style="fill:#9CDCFF;" d="M629.628,243.163l63.371,7.781c0.885,0.109,1.781-0.061,2.585-0.527
		c3.85-2.232,16.825-7.924,25.192,10.616c-0.914-10.133-7.904-18.017-16.4-18.017h-6.755c-0.978,0-1.934,0.355-2.748,1.022
		l-1.845,1.334c-0.279,0.228-1.412,0.858-1.719,1.011c0,0-0.859,0.506-3.576,0.465l-13.227-2.058
		c-11.054-1.696-25.119-3.801-26.647-3.801h-14.466C631.877,240.99,630.537,241.845,629.628,243.163z"/>
	<path style="fill:#0086D1;" d="M720.908,271.395h-91.214c-1.12,0-2.027-0.907-2.027-2.027c0-1.12,0.907-2.027,2.027-2.027h91.214
		c1.12,0,2.027,0.907,2.027,2.027C722.935,270.488,722.029,271.395,720.908,271.395z"/>
	<g>
		<path style="fill:#0086D1;" d="M640.289,271.395c-0.117,0-0.238-0.02-0.356-0.061l-11.722-4.054
			c-0.786-0.271-1.263-1.372-1.066-2.456c0.195-1.089,0.992-1.754,1.776-1.475l11.722,4.054c0.786,0.271,1.263,1.372,1.066,2.456
			C641.543,270.781,640.946,271.395,640.289,271.395z"/>
		<path style="fill:#0086D1;" d="M628.566,253.152l2.072,2.867c0.55,0.76,0.858,1.791,0.858,2.867v8.456l-2.931-2.027V253.152z"/>
	</g>
	<path style="fill:#FDC8A7;" d="M672.168,229.402c0,0-5.166-1.036-9.465-3.268c-4.299-2.232-7.523-4.906-9.201-5.188
		c-1.679-0.282-3.927,1.797-0.996,4.705c2.93,2.908,10.608,6.046,20.185,5.563C672.82,230.406,672.168,229.402,672.168,229.402z"/>
	<path style="fill:#FDC8A7;" d="M672.425,229.29c0,0,1.39-0.553,3.232-0.644c1.842-0.091,2.555,0.417,2.062,1.353
		c-0.494,0.936-2.676,1.949-5.447,1.101C669.5,230.253,672.425,229.29,672.425,229.29z"/>
	<path style="fill:#F79440;" d="M665.952,227.181c0,0-4.593-2.098-7.778-4.106c-3.185-2.009-4.485-3.138-6.468-1.973
		c-1.983,1.165-1.259,3.876,1.809,6.138c3.068,2.262,8.805,3.803,11.229,3.927C665.423,229.956,665.952,227.181,665.952,227.181z"/>
	<circle style="fill:#D7DEED;" cx="704.791" cy="269.843" r="10.135"/>
	<path style="fill:#464655;" d="M704.791,282.005c-6.706,0-12.162-5.455-12.162-12.162s5.455-12.162,12.162-12.162
		c6.707,0,12.162,5.455,12.162,12.162S711.497,282.005,704.791,282.005z M704.791,261.735c-4.471,0-8.108,3.636-8.108,8.108
		c0,4.471,3.636,8.108,8.108,8.108c4.472,0,8.108-3.636,8.108-8.108C712.899,265.371,709.262,261.735,704.791,261.735z"/>
	<circle style="fill:#B8BFD4;" cx="704.791" cy="269.843" r="4.054"/>
	<circle style="fill:#D7DEED;" cx="645.571" cy="269.933" r="10.135"/>
	<path style="fill:#464655;" d="M645.571,282.095c-6.706,0-12.162-5.455-12.162-12.162s5.455-12.162,12.162-12.162
		c6.707,0,12.162,5.455,12.162,12.162S652.278,282.095,645.571,282.095z M645.571,261.825c-4.471,0-8.108,3.636-8.108,8.108
		c0,4.472,3.636,8.108,8.108,8.108c4.472,0,8.108-3.636,8.108-8.108S650.043,261.825,645.571,261.825z"/>
	<circle style="fill:#B8BFD4;" cx="645.571" cy="269.933" r="4.054"/>
	
		<line style="fill:none;stroke:#464655;stroke-width:2;stroke-miterlimit:10;" x1="650.294" y1="269.885" x2="653.435" y2="269.832"/>
	
		<line style="fill:none;stroke:#464655;stroke-width:2;stroke-miterlimit:10;" x1="637.623" y1="270.098" x2="641.017" y2="270.041"/>
	
		<line style="fill:none;stroke:#464655;stroke-width:2;stroke-miterlimit:10;" x1="645.684" y1="274.364" x2="645.743" y2="277.488"/>
	
		<line style="fill:none;stroke:#464655;stroke-width:2;stroke-miterlimit:10;" x1="645.454" y1="262.105" x2="645.516" y2="265.377"/>
	
		<line style="fill:none;stroke:#464655;stroke-width:2;stroke-miterlimit:10;" x1="709.58" y1="269.805" x2="712.721" y2="269.752"/>
	
		<line style="fill:none;stroke:#464655;stroke-width:2;stroke-miterlimit:10;" x1="696.909" y1="270.017" x2="700.302" y2="269.961"/>
	
		<line style="fill:none;stroke:#464655;stroke-width:2;stroke-miterlimit:10;" x1="704.97" y1="274.284" x2="705.029" y2="277.408"/>
	
		<line style="fill:none;stroke:#464655;stroke-width:2;stroke-miterlimit:10;" x1="704.74" y1="262.025" x2="704.801" y2="265.297"/>
	<g id="Layer_12">
	</g>
	<path style="fill:#FDC8A7;" d="M773.609,225.975c0,0-5.248-0.465-9.765-2.214c-4.518-1.749-8.014-4.055-9.713-4.151
		c-1.699-0.097-3.707,2.215-0.476,4.786s11.205,4.85,20.672,3.324C774.366,226.901,773.609,225.975,773.609,225.975z"/>
	<path style="fill:#EA8234;" d="M767.188,224.446c0,0-4.794-1.583-8.18-3.232c-3.386-1.648-4.801-2.629-6.645-1.254
		s-0.828,3.99,2.469,5.903c3.297,1.913,9.168,2.818,11.591,2.677C766.964,227.262,767.188,224.446,767.188,224.446z"/>
	<path style="fill:#FDC8A7;" d="M773.162,225.793c0,0,1.436-0.421,3.278-0.34c1.842,0.081,2.505,0.654,1.926,1.539
		s-2.846,1.691-5.526,0.589C770.16,226.479,773.162,225.793,773.162,225.793z"/>
	<path d="M773.53,236.511l-0.106-0.033c-0.371-0.115-0.578-0.509-0.463-0.88l2.692-8.682c0.115-0.371,0.509-0.578,0.88-0.463
		l0.106,0.033c0.371,0.115,0.578,0.509,0.463,0.88l-2.692,8.682C774.295,236.418,773.901,236.626,773.53,236.511z"/>
	<path style="fill:#433D4F;" d="M752.537,235.01c0,0-1.831,3.033-0.801,5.852c1.03,2.818,8.94,5,8.486,6.455
		s-10.122,1.394-10.122,1.394l-0.545,3c0,0,8.536,0.595,15.737,0.322c7.202-0.273,4.749-6.535,1.294-9.535s-5.457-5.091-5.457-5.091
		L752.537,235.01z"/>
	<path style="fill:#D3E3F9;" d="M750.021,249.147c0,0-0.815-0.678-1.618-0.785c-0.803-0.106-0.926,0.576-1.244,1.273
		c-0.318,0.697-2.241,0.985-2.695,1.318s0.015,0.697,1.47,0.697s3.655-0.126,3.655-0.126L750.021,249.147z"/>
	<path style="fill:#50495B;" d="M748.282,234.195c0,0-2.546,3.849-1.515,6.667c1.03,2.818,8.94,5,8.486,6.455
		c-0.455,1.455-10.122,1.394-10.122,1.394l-0.545,3c0,0,6.299,0.595,13.5,0.322c7.202-0.273,6.986-6.535,3.531-9.535
		s-5.457-5.091-5.457-5.091L748.282,234.195z"/>
	<path style="fill:#FDC8A7;" d="M748.661,211.429c2.245,4.405,7.362,7.161,10.996,5.309c3.634-1.853,4.41-7.612,2.165-12.017
		c-2.246-4.405-6.662-5.788-10.297-3.936C747.891,202.637,746.415,207.024,748.661,211.429z"/>
	<path style="fill:#50495B;" d="M753.139,206.47c-0.542,0.388-0.97,1.664-0.426,2.84c0.544,1.176,1.778,1.858,0.984,3.247
		c-0.794,1.389,1.136,2.494-0.221,3.788c-1.357,1.294-4.393,1.531-5.573-0.532c-1.18-2.063-0.45-4.375-1.199-5.628
		c-0.749-1.253-3.712-3.828-1.039-7.383s4.935-2.79,6.005-3.482c1.07-0.692,3.019-2.238,4.718-1.74s1.82,1.604,2.941,1.919
		c1.121,0.315,3.595,1.376,4.014,3.313c0.419,1.937-0.573,3.467-2.475,3.414c-1.902-0.054-2.234-0.412-3.17,0.258
		c-0.936,0.671-1.74,1.172-2.944,0.917C753.549,207.146,753.139,206.47,753.139,206.47z"/>
	<path style="fill:#F79440;" d="M752.24,219.579c0,0-2.637,3.363-4.447,8.802s-1.928,10.481-1.928,10.481s1.53,1.518,7.322,1.661
		s10.438-1.894,10.438-1.894s-2.75-8.061-3.264-12.019c-0.514-3.958-1.189-6.232-3.238-7.312S753.773,218.32,752.24,219.579z"/>
	<path style="fill:#82CFD2;" d="M745.051,249.147c0,0-0.815-0.678-1.618-0.785c-0.803-0.106-0.926,0.576-1.244,1.273
		c-0.318,0.697-2.241,0.985-2.695,1.318c-0.455,0.333,0.015,0.697,1.47,0.697s3.655-0.126,3.655-0.126L745.051,249.147z"/>
	<path style="fill:#FDC8A7;" d="M757.858,219.783c0,0-0.616-1.309-0.465-2.739c0.151-1.431-3.195-1.434-3.195-1.434l-0.591,3.14
		c0,0,2.599,2.127,4.066,2.425C759.139,221.471,758.367,220.188,757.858,219.783z"/>
	<path style="fill:#F0AE88;" d="M757.402,217.421c0,0-2.05-0.275-3.297-1.314c-0.04,0.213-0.101,0.535-0.101,0.535
		s0.426,0.98,1.736,1.73c1.31,0.75,1.852,0.664,1.852,0.664L757.402,217.421z"/>
	<path style="fill:#C7CFE2;" d="M752.801,243.334c-1.333-0.169-2.054-1.652-1.362-2.805l1.574-2.623
		c1.095-1.826,3.042-3.034,5.171-3.038c0.012,0,0.024,0,0.036,0h9.994c1.916,0,3.719,0.902,4.868,2.434l7.128,9.506L752.801,243.334
		z"/>
	<path style="fill:#C7CFE2;" d="M780.667,234.452c-0.172-0.14-0.362-0.282-0.57-0.422h-8.969l14.184,15.962l8.108-4.054
		C793.42,245.938,783.949,237.129,780.667,234.452z"/>
	<path style="fill:#5CBFFF;" d="M780.111,247.572l4.892-1.138l-7.52-9.97c-0.481-0.641-0.023-1.555,0.778-1.555h3.109
		c-0.613-0.533-1.159-0.998-1.592-1.351c-1.605-1.309-4.645-2.703-11.565-2.703h-10c-3.526,0-6.692-0.245-11.571,0.564
		c-4.634,0.768-13.929,9.555-13.929,9.555 M752.794,243.375c-1.333-0.169-2.054-1.652-1.362-2.805l1.574-2.623
		c1.095-1.826,3.042-3.034,5.171-3.038c0.012,0,0.024,0,0.036,0h9.994c1.916,0,3.719,0.902,4.868,2.434l7.128,9.506L752.794,243.375
		z M804.423,242.942h-6.743c-0.976,0-1.931,0.355-2.743,1.022l-2.333,1.913c-0.278,0.228-0.576,0.406-0.883,0.559l-0.016-0.052
		l-2.666,0.706c-0.004,0.001-0.008,0.001-0.012,0.001l-26.66-4.069l-14.364-2.106h-14.441c-2.73,0-4.944,2.723-4.944,6.081v18.243
		l11.536,4.054h80.75v-6.081C820.902,252.017,813.524,242.942,804.423,242.942z"/>
	<path style="fill:#9CDCFF;" d="M729.628,243.163l63.371,7.781c0.885,0.109,1.781-0.061,2.585-0.527
		c3.85-2.232,16.825-7.924,25.192,10.616c-0.914-10.133-7.904-18.017-16.4-18.017h-6.755c-0.978,0-1.934,0.355-2.748,1.022
		l-1.845,1.334c-0.279,0.228-1.412,0.858-1.719,1.011c0,0-0.859,0.506-3.576,0.465l-13.227-2.058
		c-11.054-1.696-25.119-3.801-26.647-3.801h-14.466C731.877,240.99,730.537,241.845,729.628,243.163z"/>
	<path style="fill:#0086D1;" d="M820.908,271.395h-91.214c-1.12,0-2.027-0.907-2.027-2.027c0-1.12,0.907-2.027,2.027-2.027h91.214
		c1.12,0,2.027,0.907,2.027,2.027C822.935,270.488,822.029,271.395,820.908,271.395z"/>
	<g>
		<path style="fill:#0086D1;" d="M740.289,271.395c-0.117,0-0.238-0.02-0.356-0.061l-11.722-4.054
			c-0.786-0.271-1.263-1.372-1.066-2.456c0.195-1.089,0.992-1.754,1.776-1.475l11.722,4.054c0.786,0.271,1.263,1.372,1.066,2.456
			C741.543,270.781,740.946,271.395,740.289,271.395z"/>
		<path style="fill:#0086D1;" d="M728.566,253.152l2.072,2.867c0.55,0.76,0.858,1.791,0.858,2.867v8.456l-2.931-2.027V253.152z"/>
	</g>
	<path style="fill:#FDC8A7;" d="M772.168,229.402c0,0-5.166-1.036-9.465-3.268c-4.299-2.232-7.523-4.906-9.201-5.188
		c-1.679-0.282-3.927,1.797-0.996,4.705c2.93,2.908,10.608,6.046,20.185,5.563C772.82,230.406,772.168,229.402,772.168,229.402z"/>
	<path style="fill:#FDC8A7;" d="M772.425,229.29c0,0,1.39-0.553,3.232-0.644c1.842-0.091,2.555,0.417,2.062,1.353
		c-0.494,0.936-2.676,1.949-5.447,1.101C769.5,230.253,772.425,229.29,772.425,229.29z"/>
	<path style="fill:#F79440;" d="M765.952,227.181c0,0-4.593-2.098-7.778-4.106c-3.185-2.009-4.485-3.138-6.468-1.973
		c-1.983,1.165-1.259,3.876,1.809,6.138c3.068,2.262,8.805,3.803,11.229,3.927C765.423,229.956,765.952,227.181,765.952,227.181z"/>
	<circle style="fill:#D7DEED;" cx="804.791" cy="269.843" r="10.135"/>
	<path style="fill:#464655;" d="M804.791,282.005c-6.706,0-12.162-5.455-12.162-12.162s5.455-12.162,12.162-12.162
		c6.707,0,12.162,5.455,12.162,12.162S811.497,282.005,804.791,282.005z M804.791,261.735c-4.471,0-8.108,3.636-8.108,8.108
		c0,4.471,3.636,8.108,8.108,8.108c4.472,0,8.108-3.636,8.108-8.108C812.899,265.371,809.262,261.735,804.791,261.735z"/>
	<circle style="fill:#B8BFD4;" cx="804.791" cy="269.843" r="4.054"/>
	<circle style="fill:#D7DEED;" cx="745.571" cy="269.933" r="10.135"/>
	<path style="fill:#464655;" d="M745.571,282.095c-6.706,0-12.162-5.455-12.162-12.162s5.455-12.162,12.162-12.162
		c6.707,0,12.162,5.455,12.162,12.162S752.278,282.095,745.571,282.095z M745.571,261.825c-4.471,0-8.108,3.636-8.108,8.108
		c0,4.472,3.636,8.108,8.108,8.108c4.472,0,8.108-3.636,8.108-8.108S750.043,261.825,745.571,261.825z"/>
	<circle style="fill:#B8BFD4;" cx="745.571" cy="269.933" r="4.054"/>
	<path style="fill:#FDC8A7;" d="M873.609,225.975c0,0-5.248-0.465-9.765-2.214c-4.518-1.749-8.014-4.055-9.713-4.151
		c-1.699-0.097-3.707,2.215-0.476,4.786s11.205,4.85,20.672,3.324C874.366,226.901,873.609,225.975,873.609,225.975z"/>
	<path style="fill:#EA8234;" d="M867.188,224.446c0,0-4.794-1.583-8.18-3.232c-3.386-1.648-4.801-2.629-6.645-1.254
		s-0.828,3.99,2.469,5.903c3.297,1.913,9.168,2.818,11.591,2.677C866.964,227.262,867.188,224.446,867.188,224.446z"/>
	<path style="fill:#FDC8A7;" d="M873.162,225.793c0,0,1.436-0.421,3.278-0.34c1.842,0.081,2.505,0.654,1.926,1.539
		s-2.846,1.691-5.526,0.589C870.16,226.479,873.162,225.793,873.162,225.793z"/>
	<path d="M873.53,236.511l-0.106-0.033c-0.371-0.115-0.578-0.509-0.463-0.88l2.692-8.682c0.115-0.371,0.509-0.578,0.88-0.463
		l0.106,0.033c0.371,0.115,0.578,0.509,0.463,0.88l-2.692,8.682C874.295,236.418,873.901,236.626,873.53,236.511z"/>
	<path style="fill:#433D4F;" d="M852.537,235.01c0,0-1.831,3.033-0.801,5.852c1.03,2.818,8.94,5,8.486,6.455
		s-10.122,1.394-10.122,1.394l-0.545,3c0,0,8.536,0.595,15.737,0.322c7.202-0.273,4.749-6.535,1.294-9.535s-5.457-5.091-5.457-5.091
		L852.537,235.01z"/>
	<path style="fill:#D3E3F9;" d="M850.021,249.147c0,0-0.815-0.678-1.618-0.785c-0.803-0.106-0.926,0.576-1.244,1.273
		c-0.318,0.697-2.241,0.985-2.695,1.318s0.015,0.697,1.47,0.697s3.655-0.126,3.655-0.126L850.021,249.147z"/>
	<path style="fill:#50495B;" d="M848.282,234.195c0,0-2.546,3.849-1.515,6.667c1.03,2.818,8.94,5,8.486,6.455
		c-0.455,1.455-10.122,1.394-10.122,1.394l-0.545,3c0,0,6.299,0.595,13.5,0.322c7.202-0.273,6.986-6.535,3.531-9.535
		s-5.457-5.091-5.457-5.091L848.282,234.195z"/>
	<path style="fill:#FDC8A7;" d="M848.661,211.429c2.245,4.405,7.362,7.161,10.996,5.309c3.634-1.853,4.41-7.612,2.165-12.017
		c-2.246-4.405-6.662-5.788-10.297-3.936C847.891,202.637,846.415,207.024,848.661,211.429z"/>
	<path style="fill:#50495B;" d="M853.139,206.47c-0.542,0.388-0.97,1.664-0.426,2.84c0.544,1.176,1.778,1.858,0.984,3.247
		c-0.794,1.389,1.136,2.494-0.221,3.788c-1.357,1.294-4.393,1.531-5.573-0.532c-1.18-2.063-0.45-4.375-1.199-5.628
		c-0.749-1.253-3.712-3.828-1.039-7.383s4.935-2.79,6.005-3.482c1.07-0.692,3.019-2.238,4.718-1.74s1.82,1.604,2.941,1.919
		c1.121,0.315,3.595,1.376,4.014,3.313c0.419,1.937-0.573,3.467-2.475,3.414c-1.902-0.054-2.234-0.412-3.17,0.258
		c-0.936,0.671-1.74,1.172-2.944,0.917C853.549,207.146,853.139,206.47,853.139,206.47z"/>
	<path style="fill:#F79440;" d="M852.24,219.579c0,0-2.637,3.363-4.447,8.802s-1.928,10.481-1.928,10.481s1.53,1.518,7.322,1.661
		s10.438-1.894,10.438-1.894s-2.75-8.061-3.264-12.019c-0.514-3.958-1.189-6.232-3.238-7.312S853.773,218.32,852.24,219.579z"/>
	<path style="fill:#82CFD2;" d="M845.051,249.147c0,0-0.815-0.678-1.618-0.785c-0.803-0.106-0.926,0.576-1.244,1.273
		c-0.318,0.697-2.241,0.985-2.695,1.318c-0.455,0.333,0.015,0.697,1.47,0.697s3.655-0.126,3.655-0.126L845.051,249.147z"/>
	<path style="fill:#FDC8A7;" d="M857.858,219.783c0,0-0.616-1.309-0.465-2.739c0.151-1.431-3.195-1.434-3.195-1.434l-0.591,3.14
		c0,0,2.599,2.127,4.066,2.425C859.139,221.471,858.367,220.188,857.858,219.783z"/>
	<path style="fill:#F0AE88;" d="M857.402,217.421c0,0-2.05-0.275-3.297-1.314c-0.04,0.213-0.101,0.535-0.101,0.535
		s0.426,0.98,1.736,1.73c1.31,0.75,1.852,0.664,1.852,0.664L857.402,217.421z"/>
	<path style="fill:#C7CFE2;" d="M852.801,243.334c-1.333-0.169-2.054-1.652-1.362-2.805l1.574-2.623
		c1.095-1.826,3.042-3.034,5.171-3.038c0.012,0,0.024,0,0.036,0h9.994c1.916,0,3.719,0.902,4.868,2.434l7.128,9.506L852.801,243.334
		z"/>
	<path style="fill:#C7CFE2;" d="M880.667,234.452c-0.172-0.14-0.362-0.282-0.57-0.422h-8.969l14.184,15.962l8.108-4.054
		C893.42,245.938,883.949,237.129,880.667,234.452z"/>
	<path style="fill:#5CBFFF;" d="M880.111,247.572l4.892-1.138l-7.52-9.97c-0.481-0.641-0.023-1.555,0.778-1.555h3.109
		c-0.613-0.533-1.159-0.998-1.592-1.351c-1.605-1.309-4.645-2.703-11.565-2.703h-10c-3.526,0-6.692-0.245-11.571,0.564
		c-4.634,0.768-13.929,9.555-13.929,9.555 M852.794,243.375c-1.333-0.169-2.054-1.652-1.362-2.805l1.574-2.623
		c1.095-1.826,3.042-3.034,5.171-3.038c0.012,0,0.024,0,0.036,0h9.994c1.916,0,3.719,0.902,4.868,2.434l7.128,9.506L852.794,243.375
		z M904.423,242.942h-6.743c-0.976,0-1.931,0.355-2.743,1.022l-2.333,1.913c-0.278,0.228-0.576,0.406-0.883,0.559l-0.016-0.052
		l-2.666,0.706c-0.004,0.001-0.008,0.001-0.012,0.001l-26.66-4.069l-14.364-2.106h-14.441c-2.73,0-4.944,2.723-4.944,6.081v18.243
		l11.536,4.054h80.75v-6.081C920.902,252.017,913.524,242.942,904.423,242.942z"/>
	<path style="fill:#9CDCFF;" d="M829.628,243.163l63.371,7.781c0.885,0.109,1.781-0.061,2.585-0.527
		c3.85-2.232,16.825-7.924,25.192,10.616c-0.914-10.133-7.904-18.017-16.4-18.017h-6.755c-0.978,0-1.934,0.355-2.748,1.022
		l-1.845,1.334c-0.279,0.228-1.412,0.858-1.719,1.011c0,0-0.859,0.506-3.576,0.465l-13.227-2.058
		c-11.054-1.696-25.119-3.801-26.647-3.801h-14.466C831.877,240.99,830.537,241.845,829.628,243.163z"/>
	<path style="fill:#0086D1;" d="M920.908,271.395h-91.214c-1.12,0-2.027-0.907-2.027-2.027c0-1.12,0.907-2.027,2.027-2.027h91.214
		c1.12,0,2.027,0.907,2.027,2.027C922.935,270.488,922.029,271.395,920.908,271.395z"/>
	<g>
		<path style="fill:#0086D1;" d="M840.289,271.395c-0.117,0-0.238-0.02-0.356-0.061l-11.722-4.054
			c-0.786-0.271-1.263-1.372-1.066-2.456c0.195-1.089,0.992-1.754,1.776-1.475l11.722,4.054c0.786,0.271,1.263,1.372,1.066,2.456
			C841.543,270.781,840.946,271.395,840.289,271.395z"/>
		<path style="fill:#0086D1;" d="M828.566,253.152l2.072,2.867c0.55,0.76,0.858,1.791,0.858,2.867v8.456l-2.931-2.027V253.152z"/>
	</g>
	<path style="fill:#FDC8A7;" d="M872.168,229.402c0,0-5.166-1.036-9.465-3.268c-4.299-2.232-7.523-4.906-9.201-5.188
		c-1.679-0.282-3.927,1.797-0.996,4.705c2.93,2.908,10.608,6.046,20.185,5.563C872.82,230.406,872.168,229.402,872.168,229.402z"/>
	<path style="fill:#FDC8A7;" d="M872.425,229.29c0,0,1.39-0.553,3.232-0.644c1.842-0.091,2.555,0.417,2.062,1.353
		c-0.494,0.936-2.676,1.949-5.447,1.101C869.5,230.253,872.425,229.29,872.425,229.29z"/>
	<path style="fill:#F79440;" d="M865.952,227.181c0,0-4.593-2.098-7.778-4.106c-3.185-2.009-4.485-3.138-6.468-1.973
		c-1.983,1.165-1.259,3.876,1.809,6.138c3.068,2.262,8.805,3.803,11.229,3.927C865.423,229.956,865.952,227.181,865.952,227.181z"/>
	<circle style="fill:#D7DEED;" cx="904.791" cy="269.843" r="10.135"/>
	<path style="fill:#464655;" d="M904.791,282.005c-6.706,0-12.162-5.455-12.162-12.162s5.455-12.162,12.162-12.162
		c6.707,0,12.162,5.455,12.162,12.162S911.497,282.005,904.791,282.005z M904.791,261.735c-4.471,0-8.108,3.636-8.108,8.108
		c0,4.471,3.636,8.108,8.108,8.108c4.472,0,8.108-3.636,8.108-8.108C912.899,265.371,909.262,261.735,904.791,261.735z"/>
	<circle style="fill:#B8BFD4;" cx="904.791" cy="269.843" r="4.054"/>
	<circle style="fill:#D7DEED;" cx="845.571" cy="269.933" r="10.135"/>
	<path style="fill:#464655;" d="M845.571,282.095c-6.706,0-12.162-5.455-12.162-12.162s5.455-12.162,12.162-12.162
		c6.707,0,12.162,5.455,12.162,12.162S852.278,282.095,845.571,282.095z M845.571,261.825c-4.471,0-8.108,3.636-8.108,8.108
		c0,4.472,3.636,8.108,8.108,8.108c4.472,0,8.108-3.636,8.108-8.108S850.043,261.825,845.571,261.825z"/>
	<circle style="fill:#B8BFD4;" cx="845.571" cy="269.933" r="4.054"/>
	<path style="fill:#FDC8A7;" d="M973.609,224.975c0,0-5.248-0.465-9.765-2.214c-4.518-1.749-8.014-4.055-9.713-4.151
		c-1.699-0.097-3.707,2.215-0.476,4.786s11.205,4.85,20.672,3.324C974.366,225.901,973.609,224.975,973.609,224.975z"/>
	<path style="fill:#EA8234;" d="M967.188,223.446c0,0-4.794-1.583-8.18-3.232c-3.386-1.648-4.801-2.629-6.645-1.254
		s-0.828,3.99,2.469,5.903c3.297,1.913,9.168,2.818,11.591,2.677C966.964,226.262,967.188,223.446,967.188,223.446z"/>
	<path style="fill:#FDC8A7;" d="M973.162,224.793c0,0,1.436-0.421,3.278-0.34c1.842,0.081,2.505,0.654,1.926,1.539
		s-2.846,1.691-5.526,0.589C970.16,225.479,973.162,224.793,973.162,224.793z"/>
	<path d="M973.53,235.511l-0.106-0.033c-0.371-0.115-0.578-0.509-0.463-0.88l2.692-8.682c0.115-0.371,0.509-0.578,0.88-0.463
		l0.106,0.033c0.371,0.115,0.578,0.509,0.463,0.88l-2.692,8.682C974.295,235.418,973.901,235.626,973.53,235.511z"/>
	<path style="fill:#433D4F;" d="M952.537,234.01c0,0-1.831,3.033-0.801,5.852c1.03,2.818,8.94,5,8.486,6.455
		s-10.122,1.394-10.122,1.394l-0.545,3c0,0,8.536,0.595,15.737,0.322c7.202-0.273,4.749-6.535,1.294-9.535s-5.457-5.091-5.457-5.091
		L952.537,234.01z"/>
	<path style="fill:#D3E3F9;" d="M950.021,248.147c0,0-0.815-0.678-1.618-0.785c-0.803-0.106-0.926,0.576-1.244,1.273
		c-0.318,0.697-2.241,0.985-2.695,1.318s0.015,0.697,1.47,0.697s3.655-0.126,3.655-0.126L950.021,248.147z"/>
	<path style="fill:#50495B;" d="M948.282,233.195c0,0-2.546,3.849-1.515,6.667c1.03,2.818,8.94,5,8.486,6.455
		c-0.455,1.455-10.122,1.394-10.122,1.394l-0.545,3c0,0,6.299,0.595,13.5,0.322c7.202-0.273,6.986-6.535,3.531-9.535
		s-5.457-5.091-5.457-5.091L948.282,233.195z"/>
	<path style="fill:#FDC8A7;" d="M948.661,210.429c2.245,4.405,7.362,7.161,10.996,5.309c3.634-1.853,4.41-7.612,2.165-12.017
		c-2.246-4.405-6.662-5.788-10.297-3.936C947.891,201.637,946.415,206.024,948.661,210.429z"/>
	<path style="fill:#50495B;" d="M953.139,205.47c-0.542,0.388-0.97,1.664-0.426,2.84c0.544,1.176,1.778,1.858,0.984,3.247
		c-0.794,1.389,1.136,2.494-0.221,3.788c-1.357,1.294-4.393,1.531-5.573-0.532c-1.18-2.063-0.45-4.375-1.199-5.628
		c-0.749-1.253-3.712-3.828-1.039-7.383s4.935-2.79,6.005-3.482c1.07-0.692,3.019-2.238,4.718-1.74s1.82,1.604,2.941,1.919
		c1.121,0.315,3.595,1.376,4.014,3.313c0.419,1.937-0.573,3.467-2.475,3.414c-1.902-0.054-2.234-0.412-3.17,0.258
		c-0.936,0.671-1.74,1.172-2.944,0.917C953.549,206.146,953.139,205.47,953.139,205.47z"/>
	<path style="fill:#F79440;" d="M952.24,218.579c0,0-2.637,3.363-4.447,8.802s-1.928,10.481-1.928,10.481s1.53,1.518,7.322,1.661
		s10.438-1.894,10.438-1.894s-2.75-8.061-3.264-12.019c-0.514-3.958-1.189-6.232-3.238-7.312S953.773,217.32,952.24,218.579z"/>
	<path style="fill:#82CFD2;" d="M945.051,248.147c0,0-0.815-0.678-1.618-0.785c-0.803-0.106-0.926,0.576-1.244,1.273
		c-0.318,0.697-2.241,0.985-2.695,1.318c-0.455,0.333,0.015,0.697,1.47,0.697s3.655-0.126,3.655-0.126L945.051,248.147z"/>
	<path style="fill:#FDC8A7;" d="M957.858,218.783c0,0-0.616-1.309-0.465-2.739c0.151-1.431-3.195-1.434-3.195-1.434l-0.591,3.14
		c0,0,2.599,2.127,4.066,2.425C959.139,220.471,958.367,219.188,957.858,218.783z"/>
	<path style="fill:#F0AE88;" d="M957.402,216.421c0,0-2.05-0.275-3.297-1.314c-0.04,0.213-0.101,0.535-0.101,0.535
		s0.426,0.98,1.736,1.73c1.31,0.75,1.852,0.664,1.852,0.664L957.402,216.421z"/>
	<path style="fill:#C7CFE2;" d="M952.801,242.334c-1.333-0.169-2.054-1.652-1.362-2.805l1.574-2.623
		c1.095-1.826,3.042-3.034,5.171-3.038c0.012,0,0.024,0,0.036,0h9.994c1.916,0,3.719,0.902,4.868,2.434l7.128,9.506L952.801,242.334
		z"/>
	<path style="fill:#C7CFE2;" d="M980.667,233.452c-0.172-0.14-0.362-0.282-0.57-0.422h-8.969l14.184,15.962l8.108-4.054
		C993.42,244.938,983.949,236.129,980.667,233.452z"/>
	<path style="fill:#5CBFFF;" d="M980.111,246.572l4.892-1.138l-7.52-9.97c-0.481-0.641-0.023-1.555,0.778-1.555h3.109
		c-0.613-0.533-1.159-0.998-1.592-1.351c-1.605-1.309-4.645-2.703-11.565-2.703h-10c-3.526,0-6.692-0.245-11.571,0.564
		c-4.634,0.768-13.929,9.555-13.929,9.555 M952.794,242.375c-1.333-0.169-2.054-1.652-1.362-2.805l1.574-2.623
		c1.095-1.826,3.042-3.034,5.171-3.038c0.012,0,0.024,0,0.036,0h9.994c1.916,0,3.719,0.902,4.868,2.434l7.128,9.506L952.794,242.375
		z M1004.423,241.942h-6.743c-0.976,0-1.931,0.355-2.743,1.022l-2.333,1.913c-0.278,0.228-0.576,0.406-0.883,0.559l-0.016-0.052
		l-2.666,0.706c-0.004,0.001-0.008,0.001-0.012,0.001l-26.66-4.069l-14.364-2.106h-14.441c-2.73,0-4.944,2.723-4.944,6.081v18.243
		l11.536,4.054h80.75v-6.081C1020.902,251.017,1013.524,241.942,1004.423,241.942z"/>
	<path style="fill:#9CDCFF;" d="M929.628,242.163l63.371,7.781c0.885,0.109,1.781-0.061,2.585-0.527
		c3.85-2.232,16.825-7.924,25.192,10.616c-0.914-10.133-7.904-18.017-16.4-18.017h-6.755c-0.978,0-1.934,0.355-2.748,1.022
		l-1.845,1.334c-0.279,0.228-1.412,0.858-1.719,1.011c0,0-0.859,0.506-3.576,0.465l-13.227-2.058
		c-11.054-1.696-25.119-3.801-26.647-3.801h-14.466C931.877,239.99,930.537,240.845,929.628,242.163z"/>
	<path style="fill:#0086D1;" d="M1020.908,270.395h-91.214c-1.12,0-2.027-0.907-2.027-2.027c0-1.12,0.907-2.027,2.027-2.027h91.214
		c1.12,0,2.027,0.907,2.027,2.027C1022.935,269.488,1022.029,270.395,1020.908,270.395z"/>
	<g>
		<path style="fill:#0086D1;" d="M940.289,270.395c-0.117,0-0.238-0.02-0.356-0.061l-11.722-4.054
			c-0.786-0.271-1.263-1.372-1.066-2.456c0.195-1.089,0.992-1.754,1.776-1.475l11.722,4.054c0.786,0.271,1.263,1.372,1.066,2.456
			C941.543,269.781,940.946,270.395,940.289,270.395z"/>
		<path style="fill:#0086D1;" d="M928.566,252.152l2.072,2.867c0.55,0.76,0.858,1.791,0.858,2.867v8.456l-2.931-2.027V252.152z"/>
	</g>
	<path style="fill:#FDC8A7;" d="M972.168,228.402c0,0-5.166-1.036-9.465-3.268c-4.299-2.232-7.523-4.906-9.201-5.188
		c-1.679-0.282-3.927,1.797-0.996,4.705c2.93,2.908,10.608,6.046,20.185,5.563C972.82,229.406,972.168,228.402,972.168,228.402z"/>
	<path style="fill:#FDC8A7;" d="M972.425,228.29c0,0,1.39-0.553,3.232-0.644c1.842-0.091,2.555,0.417,2.062,1.353
		c-0.494,0.936-2.676,1.949-5.447,1.101C969.5,229.253,972.425,228.29,972.425,228.29z"/>
	<path style="fill:#F79440;" d="M965.952,226.181c0,0-4.593-2.098-7.778-4.106c-3.185-2.009-4.485-3.138-6.468-1.973
		c-1.983,1.165-1.259,3.876,1.809,6.138c3.068,2.262,8.805,3.803,11.229,3.927C965.423,228.956,965.952,226.181,965.952,226.181z"/>
	<circle style="fill:#D7DEED;" cx="1005.121" cy="268.843" r="10.135"/>
	<path style="fill:#464655;" d="M1004.791,281.005c-6.706,0-12.162-5.455-12.162-12.162s5.455-12.162,12.162-12.162
		c6.707,0,12.162,5.455,12.162,12.162S1011.497,281.005,1004.791,281.005z M1004.791,260.735c-4.471,0-8.108,3.636-8.108,8.108
		c0,4.471,3.636,8.108,8.108,8.108c4.472,0,8.108-3.636,8.108-8.108C1012.899,264.371,1009.262,260.735,1004.791,260.735z"/>
	<circle style="fill:#B8BFD4;" cx="1004.791" cy="268.843" r="4.054"/>
	<circle style="fill:#D7DEED;" cx="945.571" cy="268.933" r="10.135"/>
	<path style="fill:#464655;" d="M945.571,281.095c-6.706,0-12.162-5.455-12.162-12.162s5.455-12.162,12.162-12.162
		c6.707,0,12.162,5.455,12.162,12.162S952.278,281.095,945.571,281.095z M945.571,260.825c-4.471,0-8.108,3.636-8.108,8.108
		c0,4.472,3.636,8.108,8.108,8.108c4.472,0,8.108-3.636,8.108-8.108S950.043,260.825,945.571,260.825z"/>
	<circle style="fill:#B8BFD4;" cx="945.571" cy="268.933" r="4.054"/>
</g>
<g id="Layer_14">
	
		<line style="fill:none;stroke:#464655;stroke-width:2;stroke-miterlimit:10;" x1="749.884" y1="272.032" x2="752.753" y2="273.312"/>
	
		<line style="fill:none;stroke:#464655;stroke-width:2;stroke-miterlimit:10;" x1="738.311" y1="266.868" x2="741.411" y2="268.251"/>
	
		<line style="fill:none;stroke:#464655;stroke-width:2;stroke-miterlimit:10;" x1="743.813" y1="274.142" x2="742.546" y2="276.998"/>
	
		<line style="fill:none;stroke:#464655;stroke-width:2;stroke-miterlimit:10;" x1="748.787" y1="262.936" x2="747.46" y2="265.927"/>
	
		<line style="fill:none;stroke:#464655;stroke-width:2;stroke-miterlimit:10;" x1="809.177" y1="271.857" x2="812.046" y2="273.137"/>
	
		<line style="fill:none;stroke:#464655;stroke-width:2;stroke-miterlimit:10;" x1="797.604" y1="266.693" x2="800.704" y2="268.076"/>
	
		<line style="fill:none;stroke:#464655;stroke-width:2;stroke-miterlimit:10;" x1="803.106" y1="273.967" x2="801.839" y2="276.823"/>
	
		<line style="fill:none;stroke:#464655;stroke-width:2;stroke-miterlimit:10;" x1="808.08" y1="262.761" x2="806.753" y2="265.751"/>
	
		<line style="fill:none;stroke:#464655;stroke-width:2;stroke-miterlimit:10;" x1="848.474" y1="273.595" x2="850.504" y2="275.993"/>
	
		<line style="fill:none;stroke:#464655;stroke-width:2;stroke-miterlimit:10;" x1="840.285" y1="263.923" x2="842.479" y2="266.513"/>
	
		<line style="fill:none;stroke:#464655;stroke-width:2;stroke-miterlimit:10;" x1="842.088" y1="272.864" x2="839.708" y2="274.887"/>
	
		<line style="fill:none;stroke:#464655;stroke-width:2;stroke-miterlimit:10;" x1="851.43" y1="264.923" x2="848.937" y2="267.042"/>
	
		<line style="fill:none;stroke:#464655;stroke-width:2;stroke-miterlimit:10;" x1="908.104" y1="273.127" x2="910.349" y2="275.325"/>
	
		<line style="fill:none;stroke:#464655;stroke-width:2;stroke-miterlimit:10;" x1="899.047" y1="264.263" x2="901.473" y2="266.637"/>
	
		<line style="fill:none;stroke:#464655;stroke-width:2;stroke-miterlimit:10;" x1="901.678" y1="272.996" x2="899.497" y2="275.233"/>
	
		<line style="fill:none;stroke:#464655;stroke-width:2;stroke-miterlimit:10;" x1="910.237" y1="264.217" x2="907.953" y2="266.56"/>
	
		<line style="fill:none;stroke:#464655;stroke-width:2;stroke-miterlimit:10;" x1="947.614" y1="273.235" x2="949.048" y2="276.03"/>
	
		<line style="fill:none;stroke:#464655;stroke-width:2;stroke-miterlimit:10;" x1="941.833" y1="261.958" x2="943.381" y2="264.978"/>
	
		<line style="fill:none;stroke:#464655;stroke-width:2;stroke-miterlimit:10;" x1="941.561" y1="271.074" x2="938.784" y2="272.505"/>
	
		<line style="fill:none;stroke:#464655;stroke-width:2;stroke-miterlimit:10;" x1="952.46" y1="265.459" x2="949.551" y2="266.958"/>
	
		<line style="fill:none;stroke:#464655;stroke-width:2;stroke-miterlimit:10;" x1="1006.797" y1="273.115" x2="1008.23" y2="275.91"/>
	
		<line style="fill:none;stroke:#464655;stroke-width:2;stroke-miterlimit:10;" x1="1001.015" y1="261.838" x2="1002.564" y2="264.858"/>
	
		<line style="fill:none;stroke:#464655;stroke-width:2;stroke-miterlimit:10;" x1="1000.744" y1="270.955" x2="997.966" y2="272.386"/>
	
		<line style="fill:none;stroke:#464655;stroke-width:2;stroke-miterlimit:10;" x1="1011.643" y1="265.339" x2="1008.734" y2="266.838"/>
</g>
<g id="Layer_10">
</g>
</svg>
