<?xml version="1.0" encoding="utf-8"?>
<!-- Generator: Adobe Illustrator 17.0.0, SVG Export Plug-In . SVG Version: 6.00 Build 0)  -->
<!DOCTYPE svg PUBLIC "-//W3C//DTD SVG 1.1//EN" "http://www.w3.org/Graphics/SVG/1.1/DTD/svg11.dtd">
<svg version="1.1" id="Layer_1" xmlns="http://www.w3.org/2000/svg" xmlns:xlink="http://www.w3.org/1999/xlink" x="0px" y="0px"
	 width="792px" height="612px" viewBox="0 0 792 612" enable-background="new 0 0 792 612" xml:space="preserve">
<g>
	<path fill="#050505" d="M-476.1-16.83h-29.07v-270.81c16.83-4.59,27.54-19.89,27.54-36.72v-120.87c0-10.71-7.65-18.36-18.36-18.36
		h-541.62c-10.71,0-18.36,7.65-18.36,18.36v120.87c0,18.36,12.24,33.66,27.54,36.72v270.81h-29.07c-4.59,0-9.18,4.59-9.18,9.18
		s6.12,7.65,12.24,7.65h578.34c4.59,0,9.18-4.59,9.18-9.18S-471.51-16.83-476.1-16.83z M-589.32-448.29h38.25v123.93
		c0,10.71-9.18,19.89-19.89,19.89s-19.89-9.18-19.89-19.89v-123.93H-589.32z M-644.4-448.29h38.25v123.93
		c0,10.71-9.18,19.89-19.89,19.89s-19.89-9.18-19.89-19.89v-123.93H-644.4z M-701.01-448.29h38.25v123.93
		c0,10.71-9.18,19.89-19.89,19.89s-19.89-9.18-19.89-19.89v-123.93H-701.01z M-756.09-448.29h38.25v123.93
		c0,10.71-9.18,19.89-19.89,19.89s-19.89-9.18-19.89-19.89v-123.93H-756.09z M-812.7-448.29h38.25v123.93
		c0,10.71-9.18,19.89-19.89,19.89c-10.71,0-19.89-9.18-19.89-19.89v-123.93H-812.7z M-869.31-448.29h38.25v123.93
		c0,10.71-9.18,19.89-19.89,19.89s-19.89-9.18-19.89-19.89v-123.93H-869.31z M-924.39-448.29h38.25v123.93
		c0,10.71-9.18,19.89-19.89,19.89s-19.89-9.18-19.89-19.89v-123.93H-924.39z M-981-448.29h38.25v123.93
		c0,10.71-9.18,19.89-19.89,19.89c-10.71,0-19.89-9.18-19.89-19.89v-123.93H-981z M-1037.61-325.89v-120.87l0,0h38.25v123.93
		c0,4.59-1.53,10.71-6.12,13.77c-4.59,3.06-9.18,6.12-13.77,4.59C-1028.43-306-1037.61-315.18-1037.61-325.89z M-578.61-16.83
		h-113.22v-206.55l0,0h111.69l0,0v206.55H-578.61z M-522-16.83h-38.25v-206.55c0-10.71-7.65-18.36-18.36-18.36H-690.3
		c-10.71,0-18.36,7.65-18.36,18.36v206.55h-299.88v-270.81c6.12-1.53,12.24-4.59,16.83-9.18c1.53-1.53,1.53-1.53,3.06-3.06
		c6.12,7.65,16.83,12.24,27.54,12.24c10.71,0,21.42-4.59,27.54-12.24c6.12,7.65,16.83,12.24,27.54,12.24
		c10.71,0,21.42-4.59,27.54-12.24c6.12,7.65,16.83,12.24,27.54,12.24s21.42-4.59,27.54-12.24c6.12,7.65,16.83,12.24,27.54,12.24
		c10.71,0,21.42-4.59,27.54-12.24c6.12,7.65,16.83,12.24,27.54,12.24s21.42-4.59,27.54-12.24c6.12,7.65,16.83,12.24,27.54,12.24
		s21.42-4.59,27.54-12.24c6.12,7.65,16.83,12.24,27.54,12.24c10.71,0,21.42-4.59,27.54-12.24c6.12,7.65,16.83,12.24,27.54,12.24
		s21.42-4.59,27.54-12.24c1.53,1.53,1.53,1.53,3.06,3.06c4.59,4.59,10.71,7.65,16.83,9.18v270.81H-522z M-526.59-310.59
		c-4.59-3.06-6.12-9.18-6.12-13.77v-123.93h38.25l0,0v120.87c0,10.71-7.65,19.89-18.36,21.42C-517.41-306-522-307.53-526.59-310.59z
		"/>
	<path fill="#050505" d="M-662.76-139.23c-4.59,0-9.18,4.59-9.18,9.18v18.36c0,4.59,4.59,9.18,9.18,9.18c4.59,0,9.18-4.59,9.18-9.18
		v-18.36C-653.58-134.64-658.17-139.23-662.76-139.23z"/>
	<path fill="#050505" d="M-757.62-241.74h-203.49c-6.12,0-9.18,4.59-9.18,9.18v165.24c0,6.12,4.59,9.18,9.18,9.18h203.49
		c6.12,0,9.18-4.59,9.18-9.18v-165.24C-746.91-237.15-751.5-241.74-757.62-241.74z M-765.27-73.44h-188.19v-149.94h188.19
		L-765.27-73.44L-765.27-73.44z"/>
</g>
<g>
	<path fill="#050505" d="M1249.74-351.9c13.77,0,26.01-4.59,36.72-15.3c9.18-9.18,15.3-22.95,15.3-36.72
		c0-13.77-6.12-27.54-15.3-36.72c-9.18-9.18-22.95-15.3-36.72-15.3s-27.54,6.12-36.72,15.3c-19.89,19.89-19.89,53.55,0,73.44
		C1223.73-358.02,1237.5-351.9,1249.74-351.9z M1228.32-426.87c6.12-6.12,13.77-9.18,22.95-9.18c9.18,0,16.83,3.06,22.95,9.18
		c6.12,6.12,9.18,13.77,9.18,22.95c0,9.18-3.06,16.83-9.18,22.95c-12.24,12.24-32.13,12.24-44.37,0l0,0
		C1214.55-394.74,1214.55-414.63,1228.32-426.87z"/>
	<path fill="#050505" d="M1219.14-276.93c-19.89,19.89-19.89,53.55,0,73.44c10.71,10.71,22.95,15.3,36.72,15.3
		s26.01-4.59,36.72-15.3c19.89-19.89,19.89-53.55,0-73.44C1272.69-296.82,1239.03-296.82,1219.14-276.93z M1278.81-217.26
		c-12.24,12.24-32.13,12.24-44.37,0c-12.24-12.24-12.24-32.13,0-44.37c12.24-12.24,32.13-12.24,44.37,0
		C1291.05-249.39,1291.05-229.5,1278.81-217.26z"/>
	<path fill="#050505" d="M1336.95-377.91l-179.01,91.8c-4.59,3.06-7.65,9.18-4.59,13.77c1.53,3.06,6.12,6.12,9.18,6.12
		c1.53,0,3.06,0,4.59-1.53l179.01-91.8c4.59-3.06,7.65-9.18,4.59-13.77C1349.19-377.91,1343.07-379.44,1336.95-377.91z"/>
	<path fill="#050505" d="M1595.52-608.94c0-36.72-29.07-65.79-65.79-65.79h-70.38c-36.72,0-65.79,29.07-65.79,65.79v45.9
		l-96.39-9.18c-12.24-1.53-24.48,3.06-33.66,12.24L1023.3-319.77c-12.24,12.24-12.24,30.6,0,41.31l189.72,189.72
		c6.12,6.12,12.24,9.18,21.42,9.18c7.65,0,15.3-3.06,21.42-9.18l241.74-241.74c9.18-9.18,13.77-21.42,12.24-33.66l-12.24-119.34
		l81.09-81.09C1589.4-575.28,1595.52-592.11,1595.52-608.94z M1395.09-491.13c4.59,15.3,16.83,27.54,30.6,30.6
		c-1.53,3.06-3.06,6.12-6.12,9.18l0,0c-4.59,4.59-10.71,7.65-16.83,7.65c-6.12,0-12.24-3.06-16.83-7.65s-7.65-10.71-7.65-16.83
		s3.06-12.24,7.65-16.83C1388.97-488.07,1392.03-489.6,1395.09-491.13z M1480.77-344.25l-240.21,241.74
		c-1.53,1.53-4.59,3.06-6.12,3.06c-3.06,0-4.59-1.53-6.12-3.06l-191.25-189.72c-3.06-3.06-3.06-9.18,0-13.77l241.74-241.74
		c4.59-4.59,9.18-6.12,15.3-6.12h1.53l97.92,9.18v30.6c-7.65,1.53-15.3,6.12-21.42,12.24c-9.18,9.18-13.77,19.89-13.77,32.13
		c0,12.24,4.59,22.95,13.77,32.13c9.18,9.18,19.89,13.77,32.13,13.77c12.24,0,22.95-4.59,32.13-13.77l0,0
		c9.18-9.18,13.77-19.89,13.77-32.13c0-12.24-4.59-22.95-13.77-32.13c-6.12-6.12-13.77-10.71-21.42-12.24v-29.07l39.78,4.59
		c9.18,1.53,18.36,9.18,18.36,18.36l15.3,157.59C1488.42-354.96,1485.36-348.84,1480.77-344.25z M1561.86-576.81l-68.85,68.85
		l-1.53-12.24c-1.53-19.89-16.83-35.19-36.72-36.72l-41.31-4.59v-48.96c0-24.48,19.89-45.9,45.9-45.9h70.38
		c24.48,0,45.9,19.89,45.9,45.9C1575.63-596.7,1571.04-585.99,1561.86-576.81z"/>
</g>
<g>
	<path fill="#050505" d="M2262.6,6.12c-4.59-22.95-26.01-41.31-50.49-41.31c-6.12,0-10.71,4.59-10.71,10.71s4.59,10.71,10.71,10.71
		c16.83,0,30.6,13.77,30.6,30.6s-13.77,30.6-30.6,30.6c-6.12,0-10.71,4.59-10.71,10.71s4.59,10.71,10.71,10.71
		c24.48,0,45.9-18.36,50.49-41.31h134.64v71.91h-123.93h-19.89h-123.93h-19.89h-123.93h-19.89h-123.93V27.54h143.82h30.6
		c6.12,0,10.71-4.59,10.71-10.71s-4.59-10.71-10.71-10.71h-18.36c4.59-12.24,15.3-19.89,29.07-19.89c16.83,0,30.6,13.77,30.6,30.6
		s-13.77,30.6-30.6,30.6c-6.12,0-10.71,4.59-10.71,10.71c0,6.12,4.59,10.71,10.71,10.71c29.07,0,52.02-22.95,52.02-52.02
		s-22.95-52.02-52.02-52.02c-24.48,0-45.9,18.36-50.49,41.31h-156.06v93.33v30.6v113.22v19.89v123.93v19.89V550.8h143.82h19.89
		h123.93h19.89h123.93h19.89h143.82V406.98v-19.89V263.16v-19.89V130.05v-30.6V6.12H2262.6z M1965.78,530.91h-123.93V406.98h123.93
		V530.91z M1965.78,387.09h-123.93V263.16h123.93V387.09z M1965.78,243.27h-123.93V130.05v-10.71h123.93V243.27z M2109.6,530.91
		h-123.93V406.98h123.93V530.91z M2109.6,387.09h-123.93V263.16h123.93V387.09z M2109.6,243.27h-123.93V119.34h123.93V243.27z
		 M2253.42,530.91h-123.93V406.98h123.93V530.91z M2253.42,387.09h-123.93V263.16h123.93V387.09z M2253.42,243.27h-123.93V119.34
		h123.93V243.27z M2397.24,530.91h-123.93V406.98h123.93V530.91z M2397.24,387.09h-123.93V263.16h123.93V387.09z M2397.24,130.05
		v113.22h-123.93V119.34h123.93V130.05z"/>
	<path fill="#050505" d="M2088.18-13.77c16.83,0,30.6,13.77,30.6,30.6s-13.77,30.6-30.6,30.6c-6.12,0-10.71,4.59-10.71,10.71
		c0,6.12,4.59,10.71,10.71,10.71c29.07,0,52.02-22.95,52.02-52.02s-22.95-52.02-52.02-52.02c-6.12,0-10.71,4.59-10.71,10.71
		S2083.59-13.77,2088.18-13.77z"/>
	<path fill="#050505" d="M2150.91-13.77c16.83,0,30.6,13.77,30.6,30.6s-13.77,30.6-30.6,30.6c-6.12,0-10.71,4.59-10.71,10.71
		c0,6.12,4.59,10.71,10.71,10.71c29.07,0,52.02-22.95,52.02-52.02s-22.95-52.02-52.02-52.02c-6.12,0-10.71,4.59-10.71,10.71
		S2144.79-13.77,2150.91-13.77z"/>
	<path fill="#050505" d="M2143.26,373.32c1.53,1.53,4.59,3.06,7.65,3.06c3.06,0,4.59-1.53,7.65-3.06l33.66-33.66l33.66,33.66
		c1.53,1.53,4.59,3.06,7.65,3.06c3.06,0,4.59-1.53,7.65-3.06c4.59-4.59,4.59-10.71,0-15.3l-33.66-33.66l33.66-33.66
		c4.59-4.59,4.59-10.71,0-15.3c-4.59-4.59-10.71-4.59-15.3,0l-33.66,33.66l-33.66-33.66c-4.59-4.59-10.71-4.59-15.3,0
		c-4.59,4.59-4.59,10.71,0,15.3l33.66,33.66l-33.66,33.66C2138.67,362.61,2138.67,370.26,2143.26,373.32z"/>
</g>
<path fill="#666666" d="M671.4,105.57c-1.53-1.53-4.59-3.06-7.65-3.06h-122.4c0-52.02-42.84-94.86-94.86-94.86
	c-18.36,0-35.19,6.12-50.49,15.3c-15.3-9.18-32.13-15.3-50.49-15.3c-26.01,0-48.96,9.18-67.32,27.54
	c-18.36,18.36-27.54,41.31-27.54,65.79h-122.4c-3.06,1.53-6.12,1.53-7.65,4.59c-3.06,1.53-3.06,4.59-3.06,7.65l7.65,480.42
	c0,6.12,4.59,10.71,10.71,10.71h518.67c6.12,0,10.71-4.59,10.71-10.71l9.18-480.42C674.46,110.16,674.46,107.1,671.4,105.57z
	 M519.93,102.51h-79.56c0-24.48-10.71-47.43-26.01-64.26c9.18-4.59,21.42-7.65,32.13-7.65C486.27,29.07,519.93,61.2,519.93,102.51z
	 M396,50.49c13.77,13.77,22.95,32.13,22.95,52.02h-44.37C373.05,81.09,382.23,62.73,396,50.49z M293.49,50.49
	c13.77-13.77,32.13-21.42,52.02-21.42c12.24,0,22.95,3.06,32.13,7.65c-16.83,16.83-26.01,39.78-26.01,64.26h-79.56
	C272.07,82.62,279.72,64.26,293.49,50.49z M138.96,123.93h79.56l-7.65,459h-64.26L138.96,123.93z M643.86,582.93h-81.09H232.29
	l7.65-459h111.69v76.5c0,6.12,4.59,10.71,10.71,10.71c6.12,0,10.71-4.59,10.71-10.71v-76.5h146.88v76.5
	c0,6.12,4.59,10.71,10.71,10.71c6.12,0,10.71-4.59,10.71-10.71v-76.5h111.69L643.86,582.93z"/>
</svg>
