<?xml version="1.0" encoding="utf-8"?>
<!-- Generator: Adobe Illustrator 17.0.0, SVG Export Plug-In . SVG Version: 6.00 Build 0)  -->
<!DOCTYPE svg PUBLIC "-//W3C//DTD SVG 1.1//EN" "http://www.w3.org/Graphics/SVG/1.1/DTD/svg11.dtd">
<svg version="1.1" id="Layer_1" xmlns="http://www.w3.org/2000/svg" xmlns:xlink="http://www.w3.org/1999/xlink" x="0px" y="0px"
	 width="792px" height="612px" viewBox="0 0 792 612" enable-background="new 0 0 792 612" xml:space="preserve">
<g>
	<path fill="#666666" d="M538.29,53.55c-4.59-22.95-24.48-41.31-48.96-41.31c-6.12,0-10.71,4.59-10.71,10.71s4.59,10.71,10.71,10.71
		c16.83,0,30.6,13.77,30.6,30.6s-13.77,30.6-30.6,30.6c-6.12,0-10.71,4.59-10.71,10.71c0,6.12,4.59,10.71,10.71,10.71
		c24.48,0,45.9-18.36,50.49-41.31h134.64v71.91H550.53h-19.89H406.71h-19.89H262.89h-21.42H117.54V74.97h143.82h30.6
		c6.12,0,10.71-4.59,10.71-10.71s-4.59-10.71-10.71-10.71H273.6c4.59-12.24,15.3-19.89,29.07-19.89c16.83,0,30.6,13.77,30.6,30.6
		s-13.77,30.6-30.6,30.6c-6.12,0-10.71,4.59-10.71,10.71c0,6.12,4.59,10.71,10.71,10.71c29.07,0,52.02-22.95,52.02-52.02
		s-22.95-52.02-52.02-52.02c-24.48,0-45.9,18.36-50.49,41.31H97.65v93.33v30.6V290.7v19.89v123.93v19.89v143.82h143.82h19.89h123.93
		h19.89h123.93H549h143.82V454.41v-19.89V310.59V290.7V177.48v-30.6V53.55H538.29z M241.47,578.34H117.54V454.41h123.93
		L241.47,578.34L241.47,578.34z M241.47,434.52H117.54V310.59h123.93L241.47,434.52L241.47,434.52z M241.47,290.7H117.54V177.48
		v-10.71h123.93L241.47,290.7L241.47,290.7z M385.29,578.34H261.36V454.41h123.93V578.34z M385.29,434.52H261.36V310.59h123.93
		V434.52z M385.29,290.7H261.36V166.77h123.93V290.7z M529.11,578.34H405.18V454.41h123.93V578.34z M529.11,434.52H405.18V310.59
		h123.93V434.52z M529.11,290.7H405.18V166.77h123.93V290.7z M674.46,578.34H550.53V454.41h123.93V578.34z M674.46,434.52H550.53
		V310.59h123.93V434.52z M674.46,177.48V290.7H550.53V166.77h123.93V177.48z"/>
	<path fill="#666666" d="M365.4,33.66c16.83,0,30.6,13.77,30.6,30.6s-13.77,30.6-30.6,30.6c-6.12,0-10.71,4.59-10.71,10.71
		c0,6.12,4.59,10.71,10.71,10.71c29.07,0,52.02-22.95,52.02-52.02s-22.95-52.02-52.02-52.02c-6.12,0-10.71,4.59-10.71,10.71
		S359.28,33.66,365.4,33.66z"/>
	<path fill="#666666" d="M426.6,33.66c16.83,0,30.6,13.77,30.6,30.6s-13.77,30.6-30.6,30.6c-6.12,0-10.71,4.59-10.71,10.71
		c0,6.12,4.59,10.71,10.71,10.71c29.07,0,52.02-22.95,52.02-52.02s-22.95-52.02-52.02-52.02c-6.12,0-10.71,4.59-10.71,10.71
		S420.48,33.66,426.6,33.66z"/>
	<path fill="#666666" d="M418.95,420.75c1.53,1.53,4.59,3.06,7.65,3.06c3.06,0,4.59-1.53,7.65-3.06l33.66-33.66l33.66,33.66
		c1.53,1.53,4.59,3.06,7.65,3.06c3.06,0,4.59-1.53,7.65-3.06c4.59-4.59,4.59-10.71,0-15.3l-33.66-33.66l33.66-33.66
		c4.59-4.59,4.59-10.71,0-15.3c-4.59-4.59-10.71-4.59-15.3,0l-33.66,33.66l-33.66-33.66c-4.59-4.59-10.71-4.59-15.3,0
		c-4.59,4.59-4.59,10.71,0,15.3l33.66,33.66l-33.66,33.66C415.89,410.04,415.89,417.69,418.95,420.75z"/>
</g>
</svg>
