<?xml version="1.0" encoding="utf-8"?>
<!-- Generator: Adobe Illustrator 17.0.0, SVG Export Plug-In . SVG Version: 6.00 Build 0)  -->
<!DOCTYPE svg PUBLIC "-//W3C//DTD SVG 1.1//EN" "http://www.w3.org/Graphics/SVG/1.1/DTD/svg11.dtd">
<svg version="1.1" id="Layer_1" xmlns="http://www.w3.org/2000/svg" xmlns:xlink="http://www.w3.org/1999/xlink" x="0px" y="0px"
	 width="792px" height="612px" viewBox="0 0 792 612" enable-background="new 0 0 792 612" xml:space="preserve">
<g>
	<path fill="#666666" d="M679.05,541.62h-29.07V269.28c16.83-4.59,27.54-19.89,27.54-36.72v-122.4c1.53-9.18-6.12-18.36-16.83-18.36
		H119.07c-9.18,0-18.36,9.18-18.36,18.36v120.87c0,18.36,12.24,33.66,27.54,36.72v270.81h-27.54c-4.59,0-9.18,4.59-9.18,9.18
		s4.59,9.18,9.18,9.18h579.87c4.59,0,9.18-4.59,9.18-9.18S685.17,541.62,679.05,541.62z M567.36,110.16h38.25v123.93
		c0,10.71-9.18,19.89-19.89,19.89s-19.89-9.18-19.89-19.89V110.16H567.36z M510.75,110.16H549v123.93
		c0,10.71-9.18,19.89-19.89,19.89c-10.71,0-19.89-9.18-19.89-19.89V110.16H510.75z M455.67,110.16h38.25v123.93
		c0,10.71-9.18,19.89-19.89,19.89s-19.89-9.18-19.89-19.89V110.16H455.67z M399.06,110.16h38.25v123.93
		c0,10.71-9.18,19.89-19.89,19.89s-19.89-9.18-19.89-19.89V110.16H399.06z M342.45,110.16h38.25v123.93
		c0,10.71-9.18,19.89-19.89,19.89c-10.71,0-19.89-9.18-19.89-19.89V110.16H342.45z M287.37,110.16h38.25v123.93
		c0,10.71-9.18,19.89-19.89,19.89c-10.71,0-19.89-9.18-19.89-19.89V110.16H287.37z M230.76,110.16h38.25v123.93
		c0,10.71-9.18,19.89-19.89,19.89s-18.36-9.18-18.36-19.89V110.16z M174.15,110.16h38.25v123.93c0,10.71-9.18,19.89-19.89,19.89
		c-10.71,0-19.89-9.18-19.89-19.89V110.16H174.15z M119.07,232.56v-122.4l0,0h38.25v123.93c0,4.59-1.53,10.71-6.12,13.77
		c-4.59,3.06-9.18,6.12-13.77,4.59C126.72,252.45,119.07,243.27,119.07,232.56z M578.07,541.62H464.85V335.07l0,0h111.69l0,0v206.55
		H578.07z M633.15,541.62H594.9V335.07c0-10.71-7.65-18.36-18.36-18.36H464.85c-10.71,0-18.36,7.65-18.36,18.36v206.55H146.61
		V269.28c6.12-1.53,12.24-4.59,16.83-9.18c0,0,1.53-1.53,3.06-3.06c6.12,7.65,16.83,12.24,27.54,12.24
		c10.71,0,21.42-4.59,27.54-12.24c6.12,7.65,16.83,12.24,27.54,12.24c10.71,0,21.42-4.59,27.54-12.24
		c6.12,7.65,16.83,12.24,27.54,12.24s21.42-4.59,27.54-12.24c6.12,7.65,16.83,12.24,27.54,12.24c10.71,0,21.42-4.59,27.54-12.24
		c6.12,7.65,16.83,12.24,27.54,12.24c10.71,0,21.42-4.59,27.54-12.24c6.12,7.65,16.83,12.24,27.54,12.24
		c10.71,0,21.42-4.59,27.54-12.24c6.12,7.65,16.83,12.24,27.54,12.24c10.71,0,21.42-4.59,27.54-12.24
		c6.12,7.65,16.83,12.24,27.54,12.24s21.42-4.59,27.54-12.24c1.53,1.53,1.53,1.53,3.06,3.06c4.59,4.59,10.71,7.65,16.83,9.18v272.34
		H633.15z M628.56,247.86c-4.59-3.06-6.12-9.18-6.12-13.77V110.16h38.25l0,0v120.87c0,10.71-7.65,19.89-18.36,21.42
		C637.74,252.45,633.15,250.92,628.56,247.86z"/>
	<path fill="#666666" d="M492.39,419.22c-4.59,0-9.18,4.59-9.18,9.18v18.36c0,4.59,4.59,9.18,9.18,9.18c4.59,0,9.18-4.59,9.18-9.18
		V428.4C501.57,423.81,496.98,419.22,492.39,419.22z"/>
	<path fill="#666666" d="M399.06,316.71H195.57c-6.12,0-9.18,4.59-9.18,9.18v165.24c0,6.12,4.59,9.18,9.18,9.18h203.49
		c6.12,0,9.18-4.59,9.18-9.18V325.89C408.24,321.3,403.65,316.71,399.06,316.71z M391.41,485.01H203.22V335.07h188.19V485.01z"/>
</g>
</svg>
