<?xml version="1.0" encoding="utf-8"?>
<!-- Generator: Adobe Illustrator 17.0.0, SVG Export Plug-In . SVG Version: 6.00 Build 0)  -->
<!DOCTYPE svg PUBLIC "-//W3C//DTD SVG 1.1//EN" "http://www.w3.org/Graphics/SVG/1.1/DTD/svg11.dtd">
<svg version="1.1" id="Layer_1" xmlns="http://www.w3.org/2000/svg" xmlns:xlink="http://www.w3.org/1999/xlink" x="0px" y="0px"
	 width="792px" height="612px" viewBox="0 0 792 612" enable-background="new 0 0 792 612" xml:space="preserve">
<g>
	<path fill="#666666" d="M340.92,330.48c13.77,0,26.01-4.59,36.72-15.3c9.18-9.18,15.3-22.95,15.3-36.72s-6.12-27.54-15.3-36.72
		c-9.18-9.18-22.95-15.3-36.72-15.3c-13.77,0-27.54,6.12-36.72,15.3c-19.89,19.89-19.89,53.55,0,73.44
		C314.91,325.89,327.15,330.48,340.92,330.48z M317.97,255.51c6.12-6.12,13.77-9.18,22.95-9.18c9.18,0,16.83,3.06,22.95,9.18
		s9.18,13.77,9.18,22.95c0,9.18-3.06,16.83-9.18,22.95c-12.24,12.24-32.13,12.24-44.37,0l0,0
		C305.73,289.17,305.73,267.75,317.97,255.51z"/>
	<path fill="#666666" d="M310.32,406.98c-19.89,19.89-19.89,53.55,0,73.44c10.71,10.71,22.95,15.3,36.72,15.3
		c13.77,0,26.01-4.59,36.72-15.3c19.89-19.89,19.89-53.55,0-73.44C363.87,387.09,330.21,387.09,310.32,406.98z M369.99,466.65
		c-12.24,12.24-32.13,12.24-44.37,0s-12.24-32.13,0-44.37s32.13-12.24,44.37,0C382.23,432.99,382.23,454.41,369.99,466.65z"/>
	<path fill="#666666" d="M428.13,306l-179.01,91.8c-4.59,3.06-7.65,9.18-4.59,13.77c1.53,3.06,6.12,6.12,9.18,6.12
		c1.53,0,3.06,0,4.59-1.53l179.01-91.8c4.59-3.06,7.65-9.18,4.59-13.77C440.37,306,434.25,302.94,428.13,306z"/>
	<path fill="#666666" d="M686.7,73.44c0-36.72-29.07-65.79-65.79-65.79h-70.38c-36.72,0-65.79,29.07-65.79,65.79v45.9l-96.39-9.18
		c-12.24-1.53-24.48,3.06-33.66,12.24L114.48,364.14c-12.24,12.24-12.24,30.6,0,41.31L304.2,595.17c6.12,6.12,12.24,9.18,21.42,9.18
		c7.65,0,15.3-3.06,21.42-9.18l241.74-241.74c9.18-9.18,13.77-21.42,12.24-33.66l-12.24-119.34l81.09-81.09
		C680.58,108.63,686.7,91.8,686.7,73.44z M486.27,192.78c4.59,15.3,16.83,27.54,30.6,30.6c-1.53,3.06-3.06,6.12-6.12,9.18l0,0
		c-4.59,4.59-10.71,7.65-16.83,7.65s-12.24-3.06-16.83-7.65c-4.59-4.59-7.65-10.71-7.65-16.83c0-6.12,3.06-12.24,7.65-16.83
		C480.15,195.84,481.68,192.78,486.27,192.78z M571.95,339.66L330.21,581.4c-1.53,1.53-4.59,3.06-6.12,3.06
		c-3.06,0-4.59-1.53-6.12-3.06L128.25,391.68c-3.06-3.06-3.06-9.18,0-13.77L369.99,137.7c4.59-4.59,9.18-6.12,15.3-6.12h1.53
		l97.92,9.18v30.6c-7.65,1.53-15.3,6.12-21.42,12.24c-9.18,9.18-13.77,19.89-13.77,32.13c0,12.24,4.59,22.95,13.77,32.13
		c9.18,9.18,19.89,13.77,32.13,13.77c12.24,0,22.95-4.59,32.13-13.77l0,0c9.18-9.18,13.77-19.89,13.77-32.13
		s-4.59-22.95-13.77-32.13c-6.12-6.12-13.77-10.71-21.42-12.24v-29.07l39.78,4.59c9.18,1.53,18.36,9.18,18.36,18.36l15.3,157.59
		C578.07,328.95,576.54,335.07,571.95,339.66z M653.04,105.57l-68.85,68.85l-1.53-12.24c-1.53-19.89-16.83-35.19-36.72-36.72
		l-41.31-3.06V73.44c0-24.48,19.89-45.9,45.9-45.9h70.38c24.48,0,45.9,19.89,45.9,45.9C666.81,85.68,662.22,97.92,653.04,105.57z"/>
</g>
</svg>
