<?xml version="1.0" encoding="utf-8"?>
<!-- Generator: Adobe Illustrator 23.0.1, SVG Export Plug-In . SVG Version: 6.00 Build 0)  -->
<svg version="1.1" id="Layer_1" xmlns="http://www.w3.org/2000/svg" xmlns:xlink="http://www.w3.org/1999/xlink" x="0px" y="0px"
	 viewBox="0 0 259.8 253.2" style="enable-background:new 0 0 259.8 253.2;" xml:space="preserve">
<style type="text/css">
	.st0{opacity:0.4;fill:#E6E7E8;enable-background:new    ;}
	.st1{fill:none;}
</style>
<title>bomberg</title>
<ellipse class="st0" cx="129.9" cy="126.6" rx="111.9" ry="109"/>
<rect x="30.4" y="55.6" class="st1" width="198.2" height="134.4"/>
<rect x="30.4" y="55.6" class="st1" width="198.2" height="134.4"/>
<g id="VXdwx9_1_">
	
		<image style="overflow:visible;" width="1280" height="704" id="VXdwx9" xlink:href="4447CA8CF68BFF90.png"  transform="matrix(1 0 0 1 -146 397.2)">
	</image>
</g>
<path d="M100.3,119.6c0,3.2,2.2,5.2,6.1,5.2h21.1l2.4,4.9l0,0l2.4-4.9h21.1c3.9,0,6.1-2.1,6.1-5.2c0-2-1.2-3.8-2.9-4.6
	c1.1-0.7,1.7-1.9,1.7-3.2c0-2.8-1.8-4.3-5.4-4.3h-19.3c-0.6,0-0.6,0.5,0,0.6c0.6,0,1.2,0.1,1.8,0.3c0.8,0.5,1,0.9,0.7,1.7l-6,12.8
	l-6.1-12.8c-0.3-0.7,0-1.2,0.6-1.6c0.6-0.2,1.2-0.3,1.8-0.3c0.6-0.1,0.6-0.6,0-0.6h-19.3c-3.6,0-5.4,1.5-5.4,4.3
	c-0.1,1.3,0.6,2.5,1.7,3.2C101.4,115.8,100.3,117.6,100.3,119.6z M139.5,109.9h13.3c1.8,0,2.7,0.7,2.7,2.1c0,1.4-0.9,2.1-2.7,2.1
	h-15.3L139.5,109.9z M136.3,116.6h17.4c2,0,3,1.1,3,2.8s-1.1,2.9-3,2.9h-20.2L136.3,116.6z M107,109.9h13.3l2,4.1H107
	c-1.8,0-2.7-0.7-2.7-2.1S105.2,109.9,107,109.9z M106.1,116.6h17.4l2.8,5.7h-20.2c-1.9,0-3-1.1-3-2.9S104.1,116.6,106.1,116.6
	L106.1,116.6z M149.2,146.2h13.4V144h-13.5v-3.8h13.5v-2.3h-16.1v15.4h16.1v-2.2h-13.5L149.2,146.2z M57.3,144.5
	c1-0.6,1.6-1.7,1.6-2.8c0-2.5-1.7-3.8-5.1-3.8H41.4v15.4h13c3.7,0,5.7-1.8,5.7-4.6C60.1,146.8,59,145.2,57.3,144.5z M43.9,140.1h9.9
	c1.7,0,2.5,0.6,2.5,1.8c0,1.2-0.8,1.8-2.5,1.8h-9.9L43.9,140.1z M54.7,151H43.9V146h10.7c1.8,0,2.8,1,2.8,2.5
	C57.5,150,56.4,151,54.7,151z M136.8,144.5c1-0.6,1.6-1.7,1.6-2.8c0-2.5-1.7-3.8-5.1-3.8h-12.5v15.4h13c3.7,0,5.7-1.8,5.7-4.6
	C139.5,146.8,138.4,145.2,136.8,144.5L136.8,144.5z M123.4,140.1h9.8c1.7,0,2.5,0.6,2.5,1.8c0,1.2-0.8,1.8-2.5,1.8h-9.9L123.4,140.1
	z M134.1,151.1h-10.7V146h10.7c1.8,0,2.8,1,2.8,2.5C136.9,150.1,135.9,151,134.1,151.1L134.1,151.1z M218.4,145.1h-10.1v2.2h7.2
	c0,1.7-3.1,4.2-7.4,4.2c-4.7,0-7.7-2.7-7.7-5.9s3-5.9,7.7-5.9c4.8,0,6.7,2.7,6.7,2.7h2.8c-0.2-0.5-2.2-4.9-9.5-5
	c-6.2,0-10.3,3.6-10.3,8.2s4.1,8.2,10.3,8.2c3.8,0,6.7-1.2,8.7-3.5c1.1-1.2,1.7-2.7,1.7-4.3C218.4,145.6,218.4,145.3,218.4,145.1
	L218.4,145.1z M189.9,142.2c0-2.7-1.9-4.2-5-4.3h-13.2v15.4h2.6v-6.7h8.7l4.4,6.7h3.1l-4.6-6.8C188.1,146.3,189.8,144.4,189.9,142.2
	L189.9,142.2z M174.3,144.3v-4.2h10.3c1.8,0,2.7,0.7,2.7,2.1s-0.9,2.1-2.7,2.1H174.3z M103.8,146.3l-6.3-8.4h-2.7v15.4h2.7v-11.7
	l6.3,8.5l6.2-8.5v11.6h2.6v-15.4h-2.5L103.8,146.3z M76.8,137.4c-6,0-10,3.5-10,8.1s4,8.2,10,8.2c6,0,10.1-3.6,10.1-8.2
	S82.8,137.4,76.8,137.4z M76.8,151.5c-4.5,0-7.4-2.6-7.4-5.9s2.9-5.9,7.4-5.9s7.4,2.7,7.4,5.9S81.3,151.5,76.8,151.5z"/>
</svg>
