<?xml version="1.0" encoding="utf-8"?>
<!-- Generator: Adobe Illustrator 23.0.1, SVG Export Plug-In . SVG Version: 6.00 Build 0)  -->
<svg version="1.1" id="Layer_1" xmlns="http://www.w3.org/2000/svg" xmlns:xlink="http://www.w3.org/1999/xlink" x="0px" y="0px"
	 viewBox="0 0 259.8 253.2" style="enable-background:new 0 0 259.8 253.2;" xml:space="preserve">
<style type="text/css">
	.st0{opacity:0.4;fill:#E6E7E8;enable-background:new    ;}
	.st1{fill:none;}
</style>
<title>bomberg</title>
<ellipse class="st0" cx="129.9" cy="126.6" rx="111.9" ry="109"/>
<rect x="30.4" y="55.6" class="st1" width="198.2" height="134.4"/>
<rect x="30.4" y="55.6" class="st1" width="198.2" height="134.4"/>
<g>
	<path d="M53.8,134.7v-11.6l-4,11.6h-3.2l-4-11.6v11.6h-3v-16.2H44l4.2,11.7l4.2-11.7h4.4v16.2H53.8z"/>
	<path d="M60.6,134.7v-16.2h3v16.2H60.6z"/>
	<path d="M95.7,134.7v-6.6h-7.5v6.6h-3v-16.2h3v6.6h7.5v-6.6h3v16.2H95.7z"/>
	<path d="M111.2,128.1h-4.4l2.2-5.6L111.2,128.1z M117.1,134.8l-6.5-16.2h-3l-6.5,16.2h3.2l1.5-3.7h6.7l1.5,3.7H117.1z"/>
	<path d="M119.4,134.7v-16.2h11.3v3h-8.3v3.7h8.3v3h-8.3v3.7h8.3v3L119.4,134.7z"/>
	<path d="M135,134.7v-16.2h3v13.3h6.9v3L135,134.7z"/>
	<path d="M166.7,134.7l-5.3-7.5l-2.1,2.1v5.3h-3v-16.2h3v6.8l6.6-6.8h4l-6.3,6.6l6.9,9.6L166.7,134.7z"/>
	<path d="M184.5,126.6c0,3.1-2.5,5.5-5.5,5.5s-5.5-2.5-5.5-5.5c0-3.1,2.5-5.5,5.5-5.5c0,0,0,0,0,0
		C182,121.1,184.5,123.5,184.5,126.6L184.5,126.6z M187.5,126.6c0-4.7-3.8-8.5-8.5-8.5c-4.7,0-8.5,3.8-8.5,8.5
		c0,4.7,3.8,8.5,8.5,8.5c0,0,0,0,0,0C183.7,135.1,187.5,131.3,187.5,126.6C187.5,126.6,187.5,126.6,187.5,126.6L187.5,126.6z"/>
	<path d="M201.2,123.9c0,1.4-1.1,2.5-2.5,2.5h-4.8v-5h4.8C200.1,121.4,201.2,122.6,201.2,123.9L201.2,123.9z M204.7,134.7l-3.4-6
		c2.7-1.4,3.7-4.7,2.2-7.4c-0.9-1.8-2.8-2.9-4.8-2.9h-7.8v16.2h3v-5.3h4.3l3.1,5.3H204.7z"/>
	<path d="M213.3,135.1c-2.8,0-5.7-1.2-7.2-3.4l2.5-1.8c1.1,1.5,2.9,2.4,4.7,2.4c1.7,0,3.7-0.5,3.7-2.1c0-1.8-3-2.1-4.4-2.4
		c-2.7-0.6-5.7-1.2-5.7-4.7s3.3-5,6.3-5c2.7-0.1,5.2,1.1,6.8,3.2l-2.4,1.8c-1-1.4-2.6-2.3-4.4-2.2c-1.8,0-3.1,0.6-3.1,1.8
		c0,1.8,2.6,1.9,4.9,2.4c2.4,0.6,5.2,1.3,5.2,4.7C220.2,133.7,216.6,135.1,213.3,135.1z"/>
	<path d="M78.9,129.7c-0.8,1.6-2.5,2.6-4.2,2.5c-3.1,0-5.5-2.5-5.5-5.5c0-3.1,2.5-5.5,5.5-5.5c1.9-0.1,3.7,1,4.4,2.8h3.2
		c-0.9-3.5-4.1-5.8-7.7-5.8c-4.7,0-8.5,3.8-8.5,8.5c0,4.7,3.8,8.5,8.5,8.5c3.5,0.1,6.6-2.1,7.6-5.4L78.9,129.7z"/>
</g>
</svg>
