<svg id="Layer_1" data-name="Layer 1" xmlns="http://www.w3.org/2000/svg" viewBox="0 0 223.8 218"><defs><style>.cls-1{fill:none;}.cls-2{fill:#e6e7e8;opacity:0.4;isolation:isolate;}.cls-3{fill:#fff;}</style></defs><title>rado</title><rect class="cls-1" x="12.4" y="38" width="198.2" height="134.4"/><rect class="cls-1" x="12.4" y="38" width="198.2" height="134.4"/><path d="M129.9,128.3" transform="translate(-18 -17.6)"/><path d="M129.9,128.3" transform="translate(-18 -17.6)"/><ellipse class="cls-2" cx="111.9" cy="109" rx="111.9" ry="109"/><path class="cls-3" d="M69.27,141.87l.38-.38c-.09-1.19-.57-2-1.93-2.11-1.64-.11-2.54.39-2.87,1.65a2.25,2.25,0,0,0,1.48,2.82c.41.18.94.22,1.24.51.47.46,1.08,1.07,1.07,1.61s-.78,1.11-1.31,1.22a1.27,1.27,0,0,1-1.52-1.2c0-.25-.4-.46-.61-.69-.15.32-.45.65-.42.94a2,2,0,0,0,2.09,1.9c1.55.12,2.66-.52,3-1.79a2.16,2.16,0,0,0-1.15-2.74,9.55,9.55,0,0,1-2-.86A1.91,1.91,0,0,1,66,141.3a1.49,1.49,0,0,1,1-1c.46,0,1,.43,1.41.74A6.81,6.81,0,0,1,69.27,141.87Z" transform="translate(-18 -17.6)"/><path d="M88.05,120.23c2.72.57,3.68,2.86,4.52,5.28.59,1.71,1,3.62,3.3,3.82V131c-2.83,0-5.6.16-8.33-.09-.86-.08-1.82-1.12-2.39-2a16.79,16.79,0,0,1-1.42-3.36c-1.9-4.84-2.75-4.76-7.78-4.4a33.57,33.57,0,0,0,.11,6c.18.95,1.49,1.7,2.28,2.54l.31-.25v1.45H64.5v-1.47c2.44-.93,2.75-1.38,2.75-4,0-5.18,0-10.35,0-15.53a2.57,2.57,0,0,0-1.75-2.77c-1.2-.34-1.16-1-1-2,.29,0,.55-.08.81-.08,6.77,0,13.53,0,20.29,0a7,7,0,0,1,6.77,4.21,8.17,8.17,0,0,1-.83,8.52C90.77,118.9,89.27,119.43,88.05,120.23ZM76,107.83v10.46c1.73,0,3.36,0,5,0a3.84,3.84,0,0,0,4-3.55c.57-3.25-.35-5.79-2.4-6.61a2.78,2.78,0,0,0-1-.28C79.69,107.81,77.88,107.83,76,107.83Z" transform="translate(-18 -17.6)"/><path d="M132.63,131H119.39c-.27-.92-.24-1.55.83-2a2,2,0,0,0,.93-1.61,16.6,16.6,0,0,0-.72-3.58c-.07-.25-.59-.52-.91-.53-3,0-6.08,0-9.12,0-.29,0-.78.23-.84.45a15.29,15.29,0,0,0-.81,3.56,2.15,2.15,0,0,0,1,1.72c1.05.44,1,1.09.83,2h-13v-1.63c2-.21,2.47-1.78,2.93-3.47q2.66-9.9,5.43-19.77c.12-.4.61-1,.93-1,5.76-.06,11.52,0,17.35,0,1.09,3.94,2.16,7.82,3.23,11.71.91,3.31,1.85,6.63,2.72,10a3.33,3.33,0,0,0,2,2.5c.42.18.59.93.88,1.42Zm-22.3-10.61h9.36c-1-4.28-2-8.41-2.93-12.59a26,26,0,0,0-2.67,0,1.13,1.13,0,0,0-.79.65C112.29,112.39,111.33,116.33,110.33,120.36Z" transform="translate(-18 -17.6)"/><path d="M134.25,105.09H136q9.53,0,19.06,0a8.1,8.1,0,0,1,8.47,8.59c0,3,0,6,0,9a8,8,0,0,1-8.13,8.34c-6.53,0-13.07,0-19.6,0-.36,0-.71-.05-1.15-.07v-1.48c2.58-1.08,2.86-1.51,2.86-4.38,0-4.86,0-9.71,0-14.57,0-1.77-.52-3-2.36-3.65C134.78,106.74,134.64,105.89,134.25,105.09Zm11.83,2.74v20.51c1.74,0,3.41.08,5.07,0,2.47-.16,3.94-1.47,4-3.93.14-4.18.13-8.36,0-12.53-.07-2.35-1.49-3.87-3.52-4C149.85,107.73,148,107.83,146.08,107.83Z" transform="translate(-18 -17.6)"/><path d="M181.53,131c-1.95,0-3.9,0-5.85,0a7.9,7.9,0,0,1-7.91-8c0-3.31,0-6.63,0-9.94a8,8,0,0,1,7.66-8q6.06-.14,12.12,0a7.92,7.92,0,0,1,7.78,7.87c0,3.4,0,6.81,0,10.21a7.91,7.91,0,0,1-7.81,7.82C185.53,131.05,183.53,131,181.53,131Zm5.54-12.92h0c0-1.64,0-3.27,0-4.9-.1-4.11-1.49-5.44-5.57-5.43h-.28c-3.75,0-5.26,1.55-5.27,5.31v9.13c0,5,1.29,6.27,6.32,6.16,3.1-.06,4.59-1.44,4.74-4.55C187.15,121.92,187.07,120,187.07,118.1Z" transform="translate(-18 -17.6)"/><path d="M81.15,141.94c-.3,1.68-.58,3.37-.89,5.05-.19,1-.25,1.07-1.56.84l-1.6-8.17.45-.28c.27.35.69.66.77,1.05a45.65,45.65,0,0,0,1.22,5c.29-1.63.58-3.26.89-4.89.19-1,.21-1,1.46-1l1.1,5.92h.23a24.23,24.23,0,0,1,.66-3.31c.31-.91-.24-2.37,1.62-2.81-.6,2.89-1.12,5.49-1.7,8.08,0,.24-.58.61-.71.55-.34-.17-.76-.5-.83-.83-.35-1.72-.61-3.47-.9-5.2Z" transform="translate(-18 -17.6)"/><path d="M181.62,147.82c-1.08.38-1.59.13-1.92-.81a26.09,26.09,0,0,0-2.25-4.89v3a19.57,19.57,0,0,1,0,2.17c0,.26-.36.49-.56.73-.17-.22-.48-.44-.48-.67,0-2.57,0-5.14,0-7.66,1-.42,1.46-.12,1.78.73a34.61,34.61,0,0,0,2.4,5.33c0-1.73,0-3.47,0-5.2,0-.35.31-.69.48-1,.19.33.54.66.55,1C181.64,142.91,181.62,145.35,181.62,147.82Z" transform="translate(-18 -17.6)"/><path d="M143.16,143.42l.82,4.44c-.85.35-1.28.12-1.39-.71,0-.27-.06-.54-.08-.81-.19-2.13-.21-2.15-2.58-2a25.67,25.67,0,0,1,0,2.63c0,.35-.36.66-.56,1-.17-.3-.47-.6-.48-.91,0-2.48,0-5,0-7.61,1.64.18,3.36-.64,4.52.9A2.42,2.42,0,0,1,143.16,143.42Zm-3.16.09a6.87,6.87,0,0,0,2.26-.82,1.7,1.7,0,0,0,0-1.69,7,7,0,0,0-2.27-.79Z" transform="translate(-18 -17.6)"/><path d="M189.92,139.45c1.64.16,3.48-.56,4.44,1.12a6.38,6.38,0,0,1,0,6.13c-.93,1.87-2.82,1.12-4.49,1.37Zm1.05,1v6.46c1.92.26,2.47-.07,2.79-1.83a9.64,9.64,0,0,0,.1-2.28C193.74,140.92,193.13,140.41,191,140.46Z" transform="translate(-18 -17.6)"/><path d="M162.93,147.81c.75-2.6,1.48-5.21,2.28-7.79.08-.25.59-.49.92-.51a1,1,0,0,1,.77.51c.74,2.59,1.42,5.21,2.14,7.9-1.91.26-1.11-1.48-2-2.17-.19,0-.63,0-1.07-.06-1-.13-1.54.14-1.65,1.22C164.25,147.57,164.07,148.34,162.93,147.81Zm2-3.17H167l-1-3.71Z" transform="translate(-18 -17.6)"/><path d="M69.27,141.87a6.81,6.81,0,0,0-.8-.81c-.44-.31-1-.76-1.41-.74a1.49,1.49,0,0,0-1,1,1.91,1.91,0,0,0,.68,1.45,9.55,9.55,0,0,0,2,.86,2.16,2.16,0,0,1,1.15,2.74c-.3,1.27-1.41,1.91-3,1.79a2,2,0,0,1-2.09-1.9c0-.29.27-.62.42-.94.21.23.56.44.61.69a1.27,1.27,0,0,0,1.52,1.2c.53-.11,1.31-.79,1.31-1.22s-.6-1.15-1.07-1.61c-.3-.29-.83-.33-1.24-.51A2.25,2.25,0,0,1,64.85,141c.33-1.26,1.23-1.76,2.87-1.65,1.36.09,1.84.92,1.93,2.11Z" transform="translate(-18 -17.6)"/><path d="M127.72,140.47v2.28c.88.84,2.48-.57,3.17,1.28h-3.16v3c.91,0,1.76,0,2.6,0,.26,0,.51.31.76.48-.23.16-.45.45-.68.46-1.21.05-2.43,0-3.74,0v-8.53c1.24,0,2.49,0,3.74,0,.19,0,.37.28.55.43-.2.18-.38.51-.59.52C129.52,140.5,128.67,140.47,127.72,140.47Z" transform="translate(-18 -17.6)"/><path d="M113.9,147.84c.59-2.7,2.59-4.7,3.64-7.37-.9,0-1.7,0-2.48,0-.31,0-.6-.33-.89-.51a3.35,3.35,0,0,1,1-.44c.86-.06,1.72,0,2.59,0,1.19,0,1.44.4.85,1.51-.86,1.59-1.8,3.14-2.71,4.71-.2.35-.37.71-.67,1.26h3.6C118.79,148.08,117,148.37,113.9,147.84Z" transform="translate(-18 -17.6)"/><path d="M103.68,140.81c-.65-.75-2,.3-2.14-1.34,1.52,0,2.92,0,4.31,0,.33,0,.65.29,1,.44a7.06,7.06,0,0,1-1,.53,4,4,0,0,1-1,0V146a5.52,5.52,0,0,1,0,1.22c-.07.27-.35.5-.53.75-.18-.25-.51-.5-.52-.76,0-1.72,0-3.44,0-5.17Z" transform="translate(-18 -17.6)"/><path d="M152.78,147c1,0,1.89,0,2.73,0,.22,0,.43.3.64.46-.22.17-.43.47-.65.48-1.21.05-2.43,0-3.8,0,0-2.69,0-5.3,0-7.9,0-.21.32-.41.49-.62.19.28.54.56.54.84C152.8,142.48,152.78,144.65,152.78,147Z" transform="translate(-18 -17.6)"/><path d="M93,143.73c0-1.18,0-2.36,0-3.53,0-.25.37-.48.57-.71.16.22.46.44.47.67q0,3.6,0,7.2c0,.22-.32.43-.5.65-.18-.25-.52-.49-.53-.75C92.93,146.09,93,144.91,93,143.73Z" transform="translate(-18 -17.6)"/><path class="cls-3" d="M110.33,120.36c1-4,2-8,3-11.91a1.13,1.13,0,0,1,.79-.65,26,26,0,0,1,2.67,0c1,4.18,1.93,8.31,2.93,12.59Z" transform="translate(-18 -17.6)"/><path class="cls-3" d="M146.08,107.83c2,0,3.77-.1,5.58,0,2,.13,3.45,1.65,3.52,4,.12,4.17.13,8.35,0,12.53-.08,2.46-1.55,3.77-4,3.93-1.66.1-3.33,0-5.07,0Z" transform="translate(-18 -17.6)"/><path class="cls-3" d="M140,143.51v-3.3a7,7,0,0,1,2.27.79,1.7,1.7,0,0,1,0,1.69A6.87,6.87,0,0,1,140,143.51Z" transform="translate(-18 -17.6)"/><path class="cls-3" d="M164.94,144.64l1.08-3.71,1,3.71Z" transform="translate(-18 -17.6)"/></svg>