<svg id="Layer_1" data-name="Layer 1" xmlns="http://www.w3.org/2000/svg" viewBox="0 0 223.8 218"><defs><style>.cls-1{fill:none;}.cls-2{fill:#e6e7e8;opacity:0.4;isolation:isolate;}.cls-3{fill:#fff;}</style></defs><title>rayban</title><rect class="cls-1" x="12.4" y="38" width="198.2" height="134.4"/><rect class="cls-1" x="12.4" y="38" width="198.2" height="134.4"/><path d="M129.9,128.3" transform="translate(-18 -17.6)"/><path d="M129.9,128.3" transform="translate(-18 -17.6)"/><ellipse class="cls-2" cx="111.9" cy="109" rx="111.9" ry="109"/><g id="_1htbyU" data-name="1htbyU"><path d="M63.65,82.29H196.11c0,.29,0,.55,0,.8q0,37.25,0,74.48c0,.74-.3.81-.89.81q-40.47,0-80.92,0-24.91,0-49.82,0c-.69,0-.89-.17-.89-.88q0-29.46,0-58.93c0-5.16,0-10.31,0-15.47Zm32.44,35.37h0c0-2.55,0-5.11,0-7.66,0-1.25-.6-1.62-1.71-1-.57.31-1.09.71-1.66,1a2,2,0,0,0-1.1,2c0,5.59,0,11.18.07,16.78a2.07,2.07,0,0,1-1.13,2.05c-1.62.94-3.2,2-4.78,3-.27.18-.67.55-.63.77s.43.6.74.76c1.65.8,3.31,1.58,5,2.32a1.28,1.28,0,0,1,.83,1.35c0,2.58,0,5.16,0,7.73,0,1,.36,1.17,1.22.68.69-.39,1.35-.83,2-1.25a2.3,2.3,0,0,0,1.13-2.13c0-.87-.07-1.73-.09-2.6s.32-1.14,1.14-.75l9.93,4.7a18.47,18.47,0,0,0,2.72,1.15c1.2.34,2.19-.54,2.76-2.28.28-.81-.13-1.52-1.18-2l-3.92-1.85-10.33-4.88a1.64,1.64,0,0,1-1.07-1.7c0-1,0-2,0-3a1.73,1.73,0,0,1,.78-1.53,57.85,57.85,0,0,0,8.63-7.77,18.7,18.7,0,0,0,4.77-8.86,8.67,8.67,0,0,0-1.66-7.56,9.23,9.23,0,0,0-7.19-3.15,26.52,26.52,0,0,0-8.88,1.38,85.53,85.53,0,0,0-19.79,9.58,4.53,4.53,0,0,0-2.24,3.45c-.17,1.5-.17,3-.21,4.54a2.83,2.83,0,0,0,.28.85,3.39,3.39,0,0,0,.86-.4c1.16-.94,2.23-2,3.44-2.86a99.46,99.46,0,0,1,18.61-10.91,21.11,21.11,0,0,1,8.15-2,5.21,5.21,0,0,1,5.5,4.91,11.75,11.75,0,0,1-2.43,8.34A35.43,35.43,0,0,1,97.22,126c-.21.16-.64.31-.82.2s-.29-.53-.3-.81C96.08,122.82,96.09,120.24,96.09,117.66Zm44.31-3.52h.06c0,4,0,8,0,11.92,0,.88.31,1.15,1.15.93a2.77,2.77,0,0,0,.67-.27,5.28,5.28,0,0,0,2.77-5.22c-.23-5.1-.35-10.21-.45-15.32a34.19,34.19,0,0,1,.12-7.43,14.06,14.06,0,0,1,2.93-6.82c.76-.88,1.68-1.65,2.92-1.37s2,1.48,2.32,2.73a3.29,3.29,0,0,1,.1.64,8.76,8.76,0,0,1-.78,4.43,33.12,33.12,0,0,1-5.74,8.37c-1.41,1.64-1.4,3.09.16,4.62,1.1,1.08,2.21,2.14,3.36,3.18a3.32,3.32,0,0,1,1.06,2.93,5.2,5.2,0,0,1-1.1,2.79c-2.15,2.72-4.27,5.47-6.45,8.16a3.4,3.4,0,0,0-.27,4.1,9.81,9.81,0,0,0,.93,1.38c.75,1,1.21,1,1.87-.13a28.33,28.33,0,0,1,1.63-2.64c2.1-2.73,4.3-5.38,6.37-8.14a15.91,15.91,0,0,0,2.13-3.65,3.64,3.64,0,0,0-1.08-4.33c-.75-.63-1.5-1.28-2.29-1.87-1.39-1-2.84-2-4.22-3-1-.74-1-1.53-.08-2.36.26-.24.55-.45.82-.7,1.95-1.83,4-3.57,5.82-5.5a10.64,10.64,0,0,0,3-8.69,5.44,5.44,0,0,0-4.93-5.12,8.3,8.3,0,0,0-5.21,1.41,16.06,16.06,0,0,0-7.51,13.45C140.27,106.42,140.4,110.28,140.4,114.14Zm-17,16.18.25.09a4.88,4.88,0,0,1,.12.75c0,2.21-.06,4.43-.08,6.65q-.06,4.73-.1,9.47c0,.85.18,1,1,1,.56,0,1.11,0,1.67,0s.92-.27.93-1q.07-9.54.19-19.08c0-2,.08-4.1.09-6.15,0-.27-.16-.71-.35-.77a1.07,1.07,0,0,0-.88.24,4.29,4.29,0,0,0-.9,1.21c-.68,1.35-1.3,2.74-2,4.1a8.12,8.12,0,0,1-.91,1.46c-.34.42-.74.34-.94-.17a6.86,6.86,0,0,1-.31-1.34c-.11-.71-.15-1.43-.26-2.15a1.26,1.26,0,0,0-2.43-.4,5.45,5.45,0,0,0-.35.87c-.58,1.56-1.1,3.14-1.76,4.66-.19.44-.76,1-1.15,1s-.87-.62-1.08-1.07a10.3,10.3,0,0,1-.49-1.93,6.29,6.29,0,0,0-.55-1.83c-.56-.86-1.79-.76-2.6.19a1.52,1.52,0,0,1-1.64.58,3.13,3.13,0,0,0-2.51.66,9.79,9.79,0,0,0-3.28,4.58,6.66,6.66,0,0,0-.5,3.47,2,2,0,0,0,2.31,1.85,4.3,4.3,0,0,0,2.87-1.52c.65-.7,1.21-1.49,1.85-2.21a8.18,8.18,0,0,1,1-.84,8.75,8.75,0,0,1,.55,1.05,2.07,2.07,0,0,0,3.25,1.12,5.36,5.36,0,0,0,1.21-1.12c.48-.6.86-1.28,1.33-1.89a6.48,6.48,0,0,1,.85-.8,5.88,5.88,0,0,1,.41,1c.34,1.56,1.64,2.05,2.84,1a13.22,13.22,0,0,0,1.43-1.71Zm48.91-14.75.28.05c0,.34.07.69.12,1,.08.55.15,1.12.78,1.35a1.44,1.44,0,0,0,1.58-.45,7.32,7.32,0,0,0,1.24-1.59c.69-1.26,1.27-2.59,1.95-3.86.17-.33.55-.55.83-.81a4.88,4.88,0,0,1,.62.91c.29.74.44,1.54.76,2.26a2.47,2.47,0,0,0,4,1,15.25,15.25,0,0,0,2.1-2.55c.16-.21.07-.6.09-.92-.29,0-.64-.06-.87.08-1,.59-1.65.24-2.19-.72a7.3,7.3,0,0,1-.55-1.25c-.35-1.08-.6-2.19-1-3.24-.53-1.39-1.72-1.61-2.68-.47a14.47,14.47,0,0,0-1.45,2.31c-.33.59-.56,1.23-.86,1.83-.07.14-.3.19-.45.28a1.29,1.29,0,0,1-.2-.43,12.48,12.48,0,0,0-.14-1.94,1.73,1.73,0,0,0-.76-1.08,1.52,1.52,0,0,0-1.24.21,3,3,0,0,0-.92,1.17c-.82,1.71-1.59,3.45-2.38,5.18a4,4,0,0,1-.51.87.69.69,0,0,1-1.27-.13,7.84,7.84,0,0,1-.46-1.59c-.15-.73-.18-1.49-.37-2.2a1.37,1.37,0,0,0-2.5-.64,2,2,0,0,1-1.52.69,4.44,4.44,0,0,0-2.83,1.15,11.18,11.18,0,0,0-3.63,5.78,9.86,9.86,0,0,0-.28,2.92,1.64,1.64,0,0,0,2.23,1.65,2.83,2.83,0,0,0,1.39-.7c1.25-1.29,2.43-2.65,3.64-4l.49-.55c.14.11.22.14.25.2.12.28.23.57.35.86a2.31,2.31,0,0,0,4,.82,16.9,16.9,0,0,0,1.56-2.33C171.8,116.33,172,116,172.27,115.57Zm-39.43,9.88a4.73,4.73,0,0,0,4.21-2.68,2.15,2.15,0,0,0-1.58-3.15,4.62,4.62,0,0,0-5.19,3.26,1.88,1.88,0,0,0,1,2.12A8.88,8.88,0,0,0,132.84,125.45Zm53.46-19.64a1.32,1.32,0,1,0-1.35,1.3A1.33,1.33,0,0,0,186.3,105.81Z" transform="translate(-18 -17.6)"/><path d="M131.69,166.29c-.48,0-1,.35-1.34-.37,0-.11-.33-.16-.5-.17-.8,0-1.59,0-2.39,0-.45,0-.68.18-.66.64s.26.56.66.55c.87,0,1.74,0,2.6,0a1.68,1.68,0,0,1,1.71,1.83,1.7,1.7,0,0,1-1.65,2c-1,0-1.93,0-2.89,0s-1.67-.68-1.65-1.86c.49,0,1-.3,1.36.39.06.11.34.15.51.16.8,0,1.59,0,2.39,0,.41,0,.64-.14.64-.57s-.2-.64-.66-.63c-.87,0-1.74,0-2.6,0a1.67,1.67,0,0,1-1.71-1.83,1.73,1.73,0,0,1,1.66-2c1,0,2,0,3,0A1.55,1.55,0,0,1,131.69,166.29Z" transform="translate(-18 -17.6)"/><path d="M170.85,168.84c.55,0,1.08-.24,1.45.38.08.14.38.18.58.19.56,0,1.11,0,1.67,0,.86,0,1-.21.83-1.19h-2.71a1.73,1.73,0,0,1-1.88-1.89,1.77,1.77,0,0,1,1.87-1.92c.75,0,1.5,0,2.24,0a1.68,1.68,0,0,1,1.84,1.71,26.53,26.53,0,0,1,0,2.82,1.8,1.8,0,0,1-1.85,1.76,23.62,23.62,0,0,1-2.38,0A1.73,1.73,0,0,1,170.85,168.84Zm2.94-1.91c.33,0,.67,0,1,0s.7-.13.68-.61-.23-.59-.65-.58c-.7,0-1.4,0-2.09,0-.42,0-.64.16-.65.58s.24.64.68.61S173.45,166.93,173.79,166.93Z" transform="translate(-18 -17.6)"/><path d="M89.28,164.45h1.27v6.27c-.67,0-1.35,0-2,0-.17,0-.35-.29-.46-.49-.66-1.28-1.3-2.58-2-3.86-.1-.19-.21-.36-.31-.54l-.2,0v3.83c0,1.16,0,1.16-1.28,1v-1.18c0-1.47,0-2.94,0-4.41,0-.5.15-.66.66-.65,1.61,0,1.61,0,2.34,1.45.59,1.18,1.18,2.35,1.78,3.52l.19,0Z" transform="translate(-18 -17.6)"/><path d="M110.07,169.3v-2.85c0-.36,0-.72,0-1.08,0-1.06.08-1.12,1.22-.85v6.2a18,18,0,0,1-2,0c-.19,0-.41-.3-.52-.51-.66-1.29-1.3-2.58-1.94-3.87-.09-.17-.19-.33-.37-.64a3.81,3.81,0,0,0-.11.58c0,1.3,0,2.6,0,3.9,0,.52-.23.58-.65.58s-.67,0-.66-.58c0-1.87,0-3.75,0-5.73.72,0,1.39,0,2,0,.17,0,.36.28.46.48.65,1.26,1.28,2.54,1.91,3.81l.33.62Z" transform="translate(-18 -17.6)"/><path d="M74.07,166.32c-.55,0-1.09.25-1.43-.39a.47.47,0,0,0-.37-.17,25,25,0,0,0-2.6,0,.83.83,0,0,0-.52.61,23.78,23.78,0,0,0,0,2.39c0,.43.26.64.7.64h2.31c.49,0,.69-.26.71-.72s-.37-.46-.7-.47a5.42,5.42,0,0,0-.57,0c-.5.06-.61-.18-.61-.63s.09-.72.64-.68a18.12,18.12,0,0,0,2,0c.45,0,.56.17.57.59.08,2.45-.31,3.38-3.1,3.21-.51,0-1,0-1.52,0A1.73,1.73,0,0,1,67.86,169c0-.92,0-1.83,0-2.75a1.74,1.74,0,0,1,1.74-1.77,17.9,17.9,0,0,1,2.74,0A1.74,1.74,0,0,1,74.07,166.32Z" transform="translate(-18 -17.6)"/><path d="M137.52,164.41c.66,0,1.3,0,1.94,0,.19,0,.42.3.52.51.66,1.26,1.28,2.53,1.92,3.8.1.21.21.41.32.61l.19,0v-4.86h1.23v6.27a16.59,16.59,0,0,1-1.87,0c-.21,0-.46-.29-.58-.52-.68-1.3-1.33-2.61-2-3.93a.88.88,0,0,0-.45-.42v4.87h-1.23Z" transform="translate(-18 -17.6)"/><path d="M160,165.75c-1.21,0-2.43,0-3.65,0-.54,0-.66.2-.63.68s.13.52.51.51c.7,0,1.4,0,2.1,0,.5,0,.53.27.51.65s0,.69-.5.66-1.1,0-1.66,0c-1,0-1,0-.87,1.17h4.24v1.28h-5.56c0-.25,0-.51,0-.76,0-1.59,0-3.18,0-4.77,0-.55.12-.77.72-.75,1.3.05,2.6,0,3.9,0S160.26,164.43,160,165.75Z" transform="translate(-18 -17.6)"/><path d="M82.14,169.42c0,.33,0,.55,0,.76s0,.29,0,.54H79.73c-.89,0-1.78,0-2.67,0-.18,0-.52-.23-.52-.37,0-1.94,0-3.88,0-5.87H82.1v1.29H80.9c-.81,0-1.63,0-2.45,0-.42,0-.68,0-.68.56s.21.66.69.64c.65,0,1.3,0,2,0s.5.31.5.66,0,.68-.52.65c-.69,0-1.39,0-2.09,0-.44,0-.52.2-.52.57s0,.64.54.63C79.56,169.4,80.81,169.42,82.14,169.42Z" transform="translate(-18 -17.6)"/><path d="M119.31,170.72c-1.72,0-3.4,0-5.08,0a.63.63,0,0,1-.44-.45c0-1.79,0-3.57,0-5.35,0-.16.18-.46.28-.46,1.75,0,3.5,0,5.29,0v1.34c-1.21,0-2.41,0-3.6,0-.54,0-.75.14-.7.69,0,.37.13.52.5.51.63,0,1.26,0,1.88,0s.71.11.73.67-.3.66-.76.64-1.15,0-1.73,0-.62.14-.63.62.23.59.66.58c.89,0,1.78,0,2.67,0C119.5,169.41,119.5,169.41,119.31,170.72Z" transform="translate(-18 -17.6)"/><path d="M179,168.87c.53-.05,1.07-.27,1.44.38.08.13.39.15.6.16.6,0,1.21,0,1.81,0s.76-.09.76-.62-.36-.6-.79-.58-.68,0-1,0c-1.1,0-1.16-.08-.86-1.3.65,0,1.31,0,2,0,.43,0,.71-.11.7-.6s-.27-.6-.71-.59c-.62,0-1.25,0-1.88,0-.2,0-.52,0-.59.16-.37.67-.92.43-1.44.39a1.66,1.66,0,0,1,1.51-1.82,17.21,17.21,0,0,1,3,0,1.88,1.88,0,0,1,1.34,2.53,2.36,2.36,0,0,0,0,1.15,1.87,1.87,0,0,1-1.89,2.58c-.77,0-1.55,0-2.31,0A1.69,1.69,0,0,1,179,168.87Z" transform="translate(-18 -17.6)"/><path d="M152.32,168.86c-.1,1.18-.67,1.79-1.72,1.84-.84,0-1.69,0-2.53,0a1.83,1.83,0,0,1-1.95-2c0-.79,0-1.59,0-2.38a1.8,1.8,0,0,1,1.81-1.87,18.8,18.8,0,0,1,2.6,0,1.77,1.77,0,0,1,1.8,1.83c-.53.08-1.05.31-1.44-.34-.07-.12-.33-.17-.51-.18-.75,0-1.49,0-2.24,0-.52,0-.75.25-.75.76,0,.72,0,1.44,0,2.16,0,.5.22.77.74.77.74,0,1.49,0,2.23,0,.18,0,.45-.06.52-.18C151.25,168.63,151.77,168.82,152.32,168.86Z" transform="translate(-18 -17.6)"/><path d="M93.1,164.45h1.25v3.39a2.87,2.87,0,0,0,0,.93c.11.26.39.59.62.61.77.08,1.54,0,2.31,0,.57,0,.76-.29.76-.81,0-1.18,0-2.36,0-3.54,0-.48.1-.69.63-.68s.68.15.67.66c0,1.2,0,2.41,0,3.61a1.85,1.85,0,0,1-2,2.06c-.85,0-1.69,0-2.53,0a1.65,1.65,0,0,1-1.64-1.62C93.05,167.55,93.1,166,93.1,164.45Z" transform="translate(-18 -17.6)"/><path d="M188.85,170.91l-1.21-.61,2.71-4.61H187.7c-1.15,0-1.16,0-.94-1.23h5.47a1.78,1.78,0,0,1-.38,1.69,41.65,41.65,0,0,0-2.38,3.61C189.25,170.1,189.08,170.47,188.85,170.91Z" transform="translate(-18 -17.6)"/><path d="M168.23,170.65c-1.27.14-1.27.14-1.27-.94s0-1.86,0-2.88l-.89.31-.45-.83A17.33,17.33,0,0,1,167,164.6c.19-.18.61-.17.93-.17.1,0,.3.23.3.36C168.24,166.74,168.23,168.68,168.23,170.65Z" transform="translate(-18 -17.6)"/><path d="M102.86,164.49c0,2,0,3.91,0,5.85,0,.53-.4.35-.68.38s-.6,0-.59-.49c0-1.08,0-2.16,0-3.24v-1.58C101.58,164.32,101.59,164.32,102.86,164.49Z" transform="translate(-18 -17.6)"/><path d="M134,167.47c0-.84,0-1.68,0-2.52,0-.49.21-.56.61-.55s.69,0,.68.56c0,1.73,0,3.46,0,5.18,0,.52-.22.59-.65.59s-.66-.1-.64-.6c0-.88,0-1.77,0-2.66Z" transform="translate(-18 -17.6)"/><path class="cls-3" d="M96.09,117.66c0,2.58,0,5.16,0,7.74,0,.28.1.7.3.81s.61,0,.82-.2a35.43,35.43,0,0,0,7.49-7.18,11.75,11.75,0,0,0,2.43-8.34,5.21,5.21,0,0,0-5.5-4.91,21.11,21.11,0,0,0-8.15,2,99.46,99.46,0,0,0-18.61,10.91c-1.21.86-2.28,1.92-3.44,2.86a3.39,3.39,0,0,1-.86.4,2.83,2.83,0,0,1-.28-.85c0-1.52,0-3,.21-4.54a4.53,4.53,0,0,1,2.24-3.45,85.53,85.53,0,0,1,19.79-9.58,26.52,26.52,0,0,1,8.88-1.38,9.23,9.23,0,0,1,7.19,3.15,8.67,8.67,0,0,1,1.66,7.56,18.7,18.7,0,0,1-4.77,8.86,57.85,57.85,0,0,1-8.63,7.77,1.73,1.73,0,0,0-.78,1.53c0,1,0,2,0,3a1.64,1.64,0,0,0,1.07,1.7l10.33,4.88,3.92,1.85c1,.51,1.46,1.22,1.18,2-.57,1.74-1.56,2.62-2.76,2.28a18.47,18.47,0,0,1-2.72-1.15l-9.93-4.7c-.82-.39-1.16-.16-1.14.75s.07,1.73.09,2.6A2.3,2.3,0,0,1,95,146.18c-.68.42-1.34.86-2,1.25-.86.49-1.21.29-1.22-.68,0-2.57-.07-5.15,0-7.73a1.28,1.28,0,0,0-.83-1.35c-1.67-.74-3.33-1.52-5-2.32-.31-.16-.69-.47-.74-.76s.36-.59.63-.77c1.58-1,3.16-2,4.78-3a2.07,2.07,0,0,0,1.13-2.05c-.05-5.6,0-11.19-.07-16.78a2,2,0,0,1,1.1-2c.57-.31,1.09-.71,1.66-1,1.11-.6,1.71-.23,1.71,1,0,2.55,0,5.11,0,7.66Z" transform="translate(-18 -17.6)"/><path class="cls-3" d="M140.4,114.14c0-3.86-.13-7.72,0-11.57a16.06,16.06,0,0,1,7.51-13.45,8.3,8.3,0,0,1,5.21-1.41,5.44,5.44,0,0,1,4.93,5.12,10.64,10.64,0,0,1-3,8.69c-1.84,1.93-3.87,3.67-5.82,5.5-.27.25-.56.46-.82.7-.88.83-.88,1.62.08,2.36,1.38,1,2.83,2,4.22,3,.79.59,1.54,1.24,2.29,1.87a3.64,3.64,0,0,1,1.08,4.33A15.91,15.91,0,0,1,154,123c-2.07,2.76-4.27,5.41-6.37,8.14a28.33,28.33,0,0,0-1.63,2.64c-.66,1.08-1.12,1.12-1.87.13a9.81,9.81,0,0,1-.93-1.38,3.4,3.4,0,0,1,.27-4.1c2.18-2.69,4.3-5.44,6.45-8.16a5.2,5.2,0,0,0,1.1-2.79,3.32,3.32,0,0,0-1.06-2.93c-1.15-1-2.26-2.1-3.36-3.18-1.56-1.53-1.57-3-.16-4.62a33.12,33.12,0,0,0,5.74-8.37,8.76,8.76,0,0,0,.78-4.43,3.29,3.29,0,0,0-.1-.64c-.37-1.25-.94-2.42-2.32-2.73s-2.16.49-2.92,1.37a14.06,14.06,0,0,0-2.93,6.82,34.19,34.19,0,0,0-.12,7.43c.1,5.11.22,10.22.45,15.32a5.28,5.28,0,0,1-2.77,5.22,2.77,2.77,0,0,1-.67.27c-.84.22-1.15,0-1.15-.93,0-4,0-8,0-11.92Z" transform="translate(-18 -17.6)"/><path class="cls-3" d="M123.36,130.32l-.87,1.09a13.22,13.22,0,0,1-1.43,1.71c-1.2,1.07-2.5.58-2.84-1a5.88,5.88,0,0,0-.41-1,6.48,6.48,0,0,0-.85.8c-.47.61-.85,1.29-1.33,1.89a5.36,5.36,0,0,1-1.21,1.12,2.07,2.07,0,0,1-3.25-1.12,8.75,8.75,0,0,0-.55-1.05,8.18,8.18,0,0,0-1,.84c-.64.72-1.2,1.51-1.85,2.21a4.3,4.3,0,0,1-2.87,1.52,2,2,0,0,1-2.31-1.85,6.66,6.66,0,0,1,.5-3.47,9.79,9.79,0,0,1,3.28-4.58,3.13,3.13,0,0,1,2.51-.66,1.52,1.52,0,0,0,1.64-.58c.81-1,2-1,2.6-.19a6.29,6.29,0,0,1,.55,1.83,10.3,10.3,0,0,0,.49,1.93c.21.45.71,1.07,1.08,1.07s1-.57,1.15-1c.66-1.52,1.18-3.1,1.76-4.66a5.45,5.45,0,0,1,.35-.87,1.26,1.26,0,0,1,2.43.4c.11.72.15,1.44.26,2.15a6.86,6.86,0,0,0,.31,1.34c.2.51.6.59.94.17a8.12,8.12,0,0,0,.91-1.46c.67-1.36,1.29-2.75,2-4.1a4.29,4.29,0,0,1,.9-1.21,1.07,1.07,0,0,1,.88-.24c.19.06.35.5.35.77,0,2-.07,4.1-.09,6.15q-.12,9.54-.19,19.08c0,.69-.26,1-.93,1s-1.11,0-1.67,0c-.83,0-1-.18-1-1q0-4.74.1-9.47c0-2.22.06-4.44.08-6.65a4.88,4.88,0,0,0-.12-.75Zm-13.3-.85c-.11-.17-.24-.53-.4-.55a1.28,1.28,0,0,0-.89.28,9.57,9.57,0,0,0-2.49,4,2.87,2.87,0,0,0,.15,1.13,2.85,2.85,0,0,0,1.06-.39,10.38,10.38,0,0,0,2.41-3.81C110,130,110,129.75,110.06,129.47Z" transform="translate(-18 -17.6)"/><path class="cls-3" d="M172.27,115.57c-.24.38-.47.76-.71,1.13A16.9,16.9,0,0,1,170,119a2.31,2.31,0,0,1-4-.82c-.12-.29-.23-.58-.35-.86,0-.06-.11-.09-.25-.2l-.49.55c-1.21,1.34-2.39,2.7-3.64,4a2.83,2.83,0,0,1-1.39.7,1.64,1.64,0,0,1-2.23-1.65,9.86,9.86,0,0,1,.28-2.92,11.18,11.18,0,0,1,3.63-5.78,4.44,4.44,0,0,1,2.83-1.15,2,2,0,0,0,1.52-.69,1.37,1.37,0,0,1,2.5.64c.19.71.22,1.47.37,2.2a7.84,7.84,0,0,0,.46,1.59.69.69,0,0,0,1.27.13,4,4,0,0,0,.51-.87c.79-1.73,1.56-3.47,2.38-5.18a3,3,0,0,1,.92-1.17,1.52,1.52,0,0,1,1.24-.21,1.73,1.73,0,0,1,.76,1.08,12.48,12.48,0,0,1,.14,1.94,1.29,1.29,0,0,0,.2.43c.15-.09.38-.14.45-.28.3-.6.53-1.24.86-1.83a14.47,14.47,0,0,1,1.45-2.31c1-1.14,2.15-.92,2.68.47.4,1,.65,2.16,1,3.24a7.3,7.3,0,0,0,.55,1.25c.54,1,1.18,1.31,2.19.72.23-.14.58-.06.87-.08,0,.32.07.71-.09.92a15.25,15.25,0,0,1-2.1,2.55,2.47,2.47,0,0,1-4-1c-.32-.72-.47-1.52-.76-2.26a4.88,4.88,0,0,0-.62-.91c-.28.26-.66.48-.83.81-.68,1.27-1.26,2.6-1.95,3.86a7.32,7.32,0,0,1-1.24,1.59,1.44,1.44,0,0,1-1.58.45c-.63-.23-.7-.8-.78-1.35,0-.34-.08-.69-.12-1Zm-10.93,2.15c.08.14.19.51.38.57a1.05,1.05,0,0,0,.83-.21,8.8,8.8,0,0,0,2.36-3.64,2.69,2.69,0,0,0,0-.94c-.33.06-.74,0-1,.2a7.86,7.86,0,0,0-2.52,3.52A3.09,3.09,0,0,0,161.34,117.72Z" transform="translate(-18 -17.6)"/><path class="cls-3" d="M132.84,125.45a8.88,8.88,0,0,1-1.57-.45,1.88,1.88,0,0,1-1-2.12,4.62,4.62,0,0,1,5.19-3.26,2.15,2.15,0,0,1,1.58,3.15A4.73,4.73,0,0,1,132.84,125.45Z" transform="translate(-18 -17.6)"/><path class="cls-3" d="M186.3,105.81a1.34,1.34,0,0,1-1.35,1.3,1.33,1.33,0,1,1,1.35-1.3Z" transform="translate(-18 -17.6)"/><path d="M110.06,129.47c-.07.28-.1.48-.16.66a10.38,10.38,0,0,1-2.41,3.81,2.85,2.85,0,0,1-1.06.39,2.87,2.87,0,0,1-.15-1.13,9.57,9.57,0,0,1,2.49-4,1.28,1.28,0,0,1,.89-.28C109.82,128.94,110,129.3,110.06,129.47Z" transform="translate(-18 -17.6)"/><path d="M161.34,117.72a3.09,3.09,0,0,1,.09-.5A7.86,7.86,0,0,1,164,113.7c.23-.18.64-.14,1-.2a2.69,2.69,0,0,1,0,.94,8.8,8.8,0,0,1-2.36,3.64,1.05,1.05,0,0,1-.83.21C161.53,118.23,161.42,117.86,161.34,117.72Z" transform="translate(-18 -17.6)"/></g></svg>