<svg id="Layer_1" data-name="Layer 1" xmlns="http://www.w3.org/2000/svg" viewBox="0 0 223.8 218"><defs><style>.cls-1{fill:none;}.cls-2{fill:#e6e7e8;opacity:0.4;isolation:isolate;}.cls-3{fill:#fff;}</style></defs><title>tag</title><rect class="cls-1" x="12.4" y="38" width="198.2" height="134.4"/><rect class="cls-1" x="12.4" y="38" width="198.2" height="134.4"/><path d="M129.9,128.3" transform="translate(-18 -17.6)"/><path d="M129.9,128.3" transform="translate(-18 -17.6)"/><ellipse class="cls-2" cx="111.9" cy="109" rx="111.9" ry="109"/><path d="M92.68,137a36,36,0,0,1-5-.08c-.54-.08-1.18-1.06-1.36-1.73-.5-1.93-1.59-2.56-3.53-2.36a37.07,37.07,0,0,1-5.27,0c-1,0-1.73.23-1.91,1.3-.44,2.58-2,3.28-4.44,2.88a15.5,15.5,0,0,0-2.28,0c.21-.69.33-1.21.52-1.7,2.45-6,4.94-11.93,7.33-17.93a1.85,1.85,0,0,1,2-1.4c4.69,0,4.7-.06,6.61,4.25q3.39,7.65,6.77,15.31C92.29,135.92,92.42,136.32,92.68,137ZM80.47,121.4l-2.82,7.44h5.92Z" transform="translate(-18 -17.6)"/><path d="M112,120.81c-2.68-.27-5.11-.89-7.47-.69a6.13,6.13,0,0,0-5.86,6.76,6.57,6.57,0,0,0,6.35,6.24c.8.07,1.61,0,2.51,0V130l-1.84-.2V125.9h6.77c0,3.36,0,6.6,0,9.85,0,.36-.6.93-1,1a21.65,21.65,0,0,1-10.61-.14,10.23,10.23,0,0,1-7.31-10.41c.23-5.11,3.53-9.24,8.55-10,2.47-.39,5.08,0,7.62.18,1.85.11,2.66,1.11,2.34,3A7.84,7.84,0,0,0,112,120.81Z" transform="translate(-18 -17.6)"/><path d="M69.83,115.84v3.88H62.45v16.94H57V119.89H49.59v-4Z" transform="translate(-18 -17.6)"/><path d="M155,127.17H141.23a6.62,6.62,0,0,0,2.63,6.87c3.78,2.5,7.29,1.18,10.7-1.16a2.12,2.12,0,0,1-1.16,2.93c-3.92,2.24-9.05,1.86-11.92-1A10.57,10.57,0,0,1,140,122.44a7.94,7.94,0,0,1,9.22-3.71C152.74,119.67,154.86,122.68,155,127.17Zm-13.6-1.91h11.08c-.61-3.2-2.45-4.82-5.4-4.9S142.18,122,141.37,125.26Z" transform="translate(-18 -17.6)"/><path d="M193.82,127.17H180.23a6.6,6.6,0,0,0,2.82,7c3.69,2.29,7.08,1.08,10.41-1.23a1.73,1.73,0,0,1-.56,2.55c-4.05,2.83-10.12,2.23-13-1.33a10.37,10.37,0,0,1,.79-13.71,8.06,8.06,0,0,1,9-1.2A7.87,7.87,0,0,1,193.82,127.17Zm-2.48-1.81c.06-2.84-2.47-5.17-5.76-5a5.2,5.2,0,0,0-5,5Z" transform="translate(-18 -17.6)"/><path d="M132.83,116.1h1.92v20.61l-1.85.18v-9.54H120v9.35l-2.06.17V116.11l2-.12v9.38h12.94Z" transform="translate(-18 -17.6)"/><path d="M171.41,118.89h2v17.85h-1.93l-.23-2.12a8.14,8.14,0,0,1-7,2.6c-2.93-.32-5.15-2-5.33-4.93-.29-4.42-.08-8.87-.08-13.42l1.88-.12v5.87c0,2.14-.08,4.28.06,6.4.19,3,2,4.66,4.89,4.56,3.13-.12,5.64-2.38,5.66-5.14C171.42,126.63,171.41,122.81,171.41,118.89Z" transform="translate(-18 -17.6)"/><path d="M209.23,122.35c-1.53-1.14-3-2.6-4.94-1.38-2.18,1.37-4.2,3-4.24,6-.05,3.19,0,6.39,0,9.79l-1.91.11V118.93H200v3.73c1-1,1.87-1.76,2.73-2.52,2.1-1.86,4-2.07,6.17-.84C210.42,120.16,210.74,121.07,209.23,122.35Z" transform="translate(-18 -17.6)"/><path class="cls-3" d="M141.37,125.26c.81-3.23,2.87-5,5.68-4.9s4.79,1.7,5.4,4.9Z" transform="translate(-18 -17.6)"/></svg>