<?xml version="1.0" encoding="UTF-8"?>
<svg width="270px" height="168px" viewBox="0 0 270 168" version="1.1" xmlns="http://www.w3.org/2000/svg" xmlns:xlink="http://www.w3.org/1999/xlink">
    <title>tarjeta-lp-visa</title>
    <defs>
        <linearGradient x1="50%" y1="1.456%" x2="50%" y2="100%" id="linearGradient-1">
            <stop stop-color="#6E174C" offset="0%"></stop>
            <stop stop-color="#7C1F58" offset="43.079%"></stop>
            <stop stop-color="#0E0008" offset="100%"></stop>
        </linearGradient>
        <linearGradient x1="49.58%" y1="-2.006%" x2="50.509%" y2="100%" id="linearGradient-2">
            <stop stop-color="#222357" offset="0%"></stop>
            <stop stop-color="#254AA5" offset="100%"></stop>
        </linearGradient>
        <linearGradient x1="50%" y1="4.561%" x2="50%" y2="89.204%" id="linearGradient-3">
            <stop stop-color="#F2DFEF" offset="0%"></stop>
            <stop stop-color="#CDC2CD" offset="100%"></stop>
        </linearGradient>
    </defs>
    <g id="App" stroke="none" stroke-width="1" fill="none" fill-rule="evenodd">
        <g id="AL-1.1" transform="translate(-53.000000, -220.000000)">
            <g id="tarjeta-lp-visa" transform="translate(53.000000, 220.000000)">
                <path d="M14.9756675,168 C6.70306949,168 0,162.239467 0,155.130894 L0,12.8681022 C0,5.75952967 6.70306949,0 14.9756675,0 L255.025335,0 C263.296931,0 270,5.75952967 270,12.8681022 L270,155.131898 C270,162.239467 263.296931,168 255.024332,168 L14.9756675,168 L14.9756675,168 Z" id="Path" fill="#E10098" fill-rule="nonzero"></path>
                <g id="Group" opacity="0.633" transform="translate(11.000000, 40.000000)" fill="url(#linearGradient-1)" fill-rule="nonzero">
                    <path d="M12.308,42.7818651 C12.308,38.862 15.381,35.7111905 19.43,35.7111905 L30.07,35.7111905 L30.07,24.1602381 L17.459,24.1602381 C7.867,24.1592302 0.29,31.6492063 0.29,40.8738413 L0.29,97.0703333 L12.319,97.0703333 L12.309,42.782873 L12.308,42.7818651 Z M96.019,62.8135952 C96.019,77.7481905 83.422,89.9099524 67.913,89.9099524 C52.414,89.9099524 39.817,77.7481905 39.817,62.8135952 C39.817,47.8830317 52.414,35.7202619 67.913,35.7202619 C83.422,35.7202619 96.019,47.8830317 96.019,62.8135952 Z M164.312,62.8135952 C164.312,77.7481905 151.7,89.9099524 136.192,89.9099524 C120.693,89.9099524 108.077,77.7481905 108.077,62.8135952 C108.077,47.8830317 120.693,35.7202619 136.192,35.7202619 C151.7,35.7202619 164.312,47.8830317 164.312,62.8135952 Z M232.582,62.8135952 C232.582,77.7481905 219.979,89.9099524 204.48,89.9099524 C188.967,89.9099524 176.37,77.7481905 176.37,62.8135952 C176.37,47.8830317 188.967,35.7202619 204.48,35.7202619 C219.98,35.7202619 232.581,47.8830317 232.581,62.8135952 L232.582,62.8135952 Z M27.793,126.616984 L39.92,126.616984 L39.92,90.4824603 C47.14,97.2739365 57.012,101.463929 67.913,101.463929 C82.343,101.463929 94.994,94.1190952 102.053,83.1043651 C109.116,94.1190952 121.772,101.463929 136.192,101.463929 C150.607,101.463929 163.288,94.1190952 170.332,83.1043651 C177.394,94.1190952 190.036,101.463929 204.48,101.463929 C226.63,101.463929 244.58,84.1626984 244.58,62.8146032 C244.58,41.4655 226.63,24.1602381 204.48,24.1602381 C190.036,24.1602381 177.394,31.5091032 170.331,42.5329048 C163.288,31.5091032 150.607,24.1602381 136.191,24.1602381 C121.771,24.1602381 109.116,31.5141429 102.053,42.5329048 C94.994,31.5141429 82.343,24.1602381 67.913,24.1602381 C45.763,24.1602381 27.793,41.4655 27.793,62.8146032 L27.793,126.616984 L27.793,126.616984 Z M252.064,98.8765556 L259,98.8765556 L259,0.700515873 L252.064,0.700515873 L252.064,98.8765556 Z" id="Shape"></path>
                </g>
                <g id="Group" transform="translate(17.000000, 19.000000)" fill="#FFFFFF" fill-rule="nonzero">
                    <path d="M14.0148289,13.541125 L8.3534146,13.541125 C7.72436856,13.541125 7.51967898,13.1766736 7.51967898,12.6801458 L7.51668353,0.0306041667 L5.52670139,0.0306041667 L5.52670139,14.4060764 C5.52670139,15.0088611 6.08086099,15.4070764 6.49024016,15.4070764 L14.0148289,15.4070764 L14.0148289,13.5401319 L14.0148289,13.541125 Z" id="Path"></path>
                    <path d="M14.0148289,16.1190972 L14.0148289,17.9900139 L3.9620742,17.9900139 C3.27311902,17.9900139 2.79783979,17.5063958 2.79783979,16.8797778 C2.80383071,16.1449167 2.79783979,0.0296111111 2.79783979,0.0296111111 L4.77983404,0.0296111111 L4.77983404,14.9572222 C4.77983404,15.6126389 5.08237523,16.1190972 5.93108813,16.1190972 L14.0148289,16.1190972 L14.0148289,16.1190972 Z" id="Path"></path>
                    <path d="M0.0500069655,0.0296111111 L2.04398304,0.0296111111 L2.04398304,17.4060972 C2.04398304,18.0356944 2.37747729,18.7000486 3.35199939,18.7000486 L14.0158274,18.7000486 L14.0158274,20.5669931 L2.41741672,20.5669931 C1.09442308,20.5669931 0.0490084797,19.5342153 0.0490084797,18.3028264 L0.0490084797,0.0306041667 L0.0500069655,0.0296111111 Z" id="Path"></path>
                    <path d="M8.26255239,0.0296111111 L10.25553,0.0296111111 L10.25553,10.2332569 C10.25553,10.6036667 10.4342589,10.9581875 11.0013988,10.9581875 L14.0148289,10.9581875 L14.0148289,12.8300972 L9.27501696,12.8300972 C8.54612235,12.8300972 8.26255239,12.3951389 8.26255239,11.896625 L8.26255239,0.0296111111 Z" id="Path"></path>
                    <path d="M11.0103852,7.05547917 L16.6717995,7.05547917 C17.3008455,7.05547917 17.5045366,7.41993056 17.5045366,7.91645833 L17.5075321,20.5650069 L19.4975142,20.5650069 L19.4975142,6.19052778 C19.4975142,5.58774306 18.9433546,5.18853472 18.534974,5.18853472 L11.0093867,5.18853472 L11.0093867,7.05547917 L11.0103852,7.05547917 Z" id="Path"></path>
                    <path d="M11.0093867,4.47651389 L11.0093867,2.60559722 L21.0621414,2.60559722 C21.7500981,2.60559722 22.2273743,3.09020833 22.2273743,3.71682639 C22.2203849,4.4516875 22.2273743,20.566 22.2273743,20.566 L20.2453801,20.566 L20.2453801,5.63938194 C20.2453801,4.98396528 19.9418404,4.47750694 19.094126,4.47750694 L11.0093867,4.47750694 L11.0093867,4.47651389 Z" id="Path"></path>
                    <path d="M24.9732102,20.566 L22.9812311,20.566 L22.9812311,3.19050694 C22.9812311,2.56090972 22.6467383,1.89655556 21.6712177,1.89655556 L11.0093867,1.89655556 L11.0093867,0.0296111111 L22.6067989,0.0296111111 C23.9297925,0.0296111111 24.9732102,1.06238889 24.9732102,2.29377778 L24.9732102,20.566 Z" id="Path"></path>
                    <path d="M16.7626617,20.566 L14.7686856,20.566 L14.7686856,10.3643403 C14.7686856,9.9929375 14.5889582,9.63841667 14.0238153,9.63841667 L11.0103852,9.63841667 L11.0103852,7.76551389 L15.7482002,7.76551389 C16.4770948,7.76551389 16.7626617,8.20245833 16.7626617,8.69898611 L16.7626617,20.566 Z M75.8290857,11.3156875 C75.8290857,10.6275 76.3772544,10.073375 77.0981611,10.073375 L78.9932871,10.073375 L78.9932871,8.04257639 L76.7466941,8.04257639 C75.0392835,8.04257639 73.6883322,9.35936806 73.6883322,10.9810278 L73.6883322,20.8579583 L75.8310827,20.8579583 L75.8290857,11.3156875 Z M42.5315824,20.8559722 L44.6723359,20.8559722 L44.6723359,8.00583333 L42.5315824,8.00583333 L42.5315824,20.8559722 Z M90.8493071,14.1786667 C90.8493071,16.8043056 88.6057096,18.9413611 85.8438979,18.9413611 C83.0830848,18.9413611 80.8394873,16.8043056 80.8394873,14.1786667 C80.8394873,11.5550139 83.0830848,9.41696528 85.8438979,9.41696528 C88.6057096,9.41696528 90.8493071,11.5550139 90.8493071,14.1786667 Z M103.013859,14.1786667 C103.013859,16.8043056 100.767266,18.9413611 98.0054546,18.9413611 C95.2446414,18.9413611 92.99705,16.8043056 92.99705,14.1786667 C92.99705,11.5550139 95.2446414,9.41696528 98.0054546,9.41696528 C100.768265,9.41696528 103.013859,11.5550139 103.013859,14.1786667 Z M115.174417,14.1786667 C115.174417,16.8043056 112.929821,18.9413611 110.169008,18.9413611 C107.406198,18.9413611 105.161602,16.8043056 105.161602,14.1786667 C105.161602,11.5550139 107.406198,9.41696528 110.169008,9.41696528 C112.929821,9.41696528 115.174417,11.5550139 115.174417,14.1786667 Z M78.6977353,25.7845069 L80.85746,25.7845069 L80.85746,19.0416597 C82.2132553,20.290873 83.9957233,20.9809557 85.8438979,20.9721597 C88.4140003,20.9721597 90.6665842,19.6811875 91.9246763,17.7447292 C93.1827683,19.6811875 95.4363507,20.9721597 98.0054546,20.9721597 C100.57356,20.9721597 102.832135,19.6811875 104.086233,17.7447292 C105.344325,19.6811875 107.59591,20.9721597 110.169008,20.9721597 C114.114025,20.9721597 117.311177,17.9314236 117.311177,14.1796597 C117.311177,10.4269028 114.114025,7.38517361 110.169008,7.38517361 C107.59591,7.38517361 105.344325,8.67614583 104.086233,10.6145903 C102.832135,8.67713889 100.57356,7.38517361 98.0054546,7.38517361 C95.4363507,7.38517361 93.1827683,8.67813194 91.9246763,10.6145903 C90.6665842,8.67813194 88.4140003,7.38517361 85.8438979,7.38517361 C81.8978822,7.38517361 78.6977353,10.4269028 78.6977353,14.1786667 L78.6977353,25.7845069 L78.6977353,25.7845069 Z M70.3194412,12.6851111 L60.6521021,12.6851111 C61.3670179,10.6493472 63.3330363,9.34645833 65.4897656,9.34645833 C67.6464949,9.34645833 69.603527,10.6503403 70.3194412,12.6851111 Z M72.3553537,15.7715278 L70.2834958,15.7715278 C69.5705769,17.7099722 67.6524858,19.0138542 65.4907641,19.0138542 C62.8607526,19.0138542 60.6760657,17.1310208 60.4184564,14.5748958 L72.5570478,14.5748958 L72.5570478,14.1786667 C72.5570478,10.4725833 69.3858571,7.45766667 65.4897656,7.45766667 C61.5906787,7.45766667 58.4184894,10.4725833 58.4184894,14.1786667 C58.4184894,17.88475 61.5906787,20.9016528 65.4897656,20.9016528 C68.7747838,20.9016528 71.5825257,18.796375 72.3553537,15.7715278 L72.3553537,15.7715278 Z M53.6996457,20.8559722 L59.0615142,8.00583333 L56.6182196,8.00583333 L52.3037626,18.3485069 L47.9893056,8.00682639 L45.5480079,8.00682639 L50.9078795,20.8569653 L53.6996457,20.8559722 Z M118.371569,20.8559722 L120.514319,20.8559722 L120.514319,3.602625 L118.371569,3.602625 L118.371569,20.8559722 Z M35.1677498,3.602625 L35.1677498,17.6245694 C35.1747392,18.3207014 35.5980972,18.8658889 36.4358268,18.8658889 L41.6978468,18.8658889 L41.6978468,20.8559722 L34.4468431,20.8549792 C33.5322302,20.8549792 33.0010357,20.3236944 33.0010357,19.5540764 L33.0010357,3.60361806 L35.1677498,3.60361806 L35.1677498,3.602625 Z M124.372468,4.86380556 C124.563179,4.86380556 124.686991,4.79429167 124.686991,4.64533333 C124.686991,4.51325694 124.574162,4.42984028 124.4174,4.42984028 L124.020003,4.42984028 L124.020003,4.86380556 L124.372468,4.86380556 L124.372468,4.86380556 Z M123.774375,4.23420833 L124.443361,4.23420833 C124.81979,4.23420833 124.944601,4.45665278 124.944601,4.61057639 C124.944601,4.8449375 124.771863,5.01276389 124.517249,5.02567361 L124.517249,5.03560417 C124.647052,5.0773125 124.740909,5.2024375 124.86572,5.39310417 L125.05044,5.67413889 L124.754888,5.67413889 L124.618096,5.44970833 C124.426386,5.12696528 124.354495,5.06241667 124.168777,5.06241667 L124.020003,5.06241667 L124.020003,5.67413889 L123.774375,5.67413889 L123.774375,4.23420833 L123.774375,4.23420833 Z M123.220216,4.93232639 C123.220216,5.55000694 123.743422,6.05348611 124.392438,6.05348611 C125.041454,6.05348611 125.57165,5.55000694 125.57165,4.93232639 C125.57165,4.31265972 125.042452,3.81513889 124.392438,3.81513889 C123.743422,3.81513889 123.220216,4.31265972 123.220216,4.93232639 Z M122.983575,4.93232639 C122.983575,4.18952083 123.614618,3.59468056 124.391439,3.59468056 C125.173254,3.59468056 125.805295,4.18952083 125.805295,4.93232639 C125.805295,5.67413889 125.173254,6.27593056 124.392438,6.27593056 C123.613619,6.27593056 122.984573,5.67413889 122.984573,4.93232639 L122.983575,4.93232639 Z" id="Shape"></path>
                </g>
                <polygon id="Path" fill="#FFFFFF" fill-rule="nonzero" points="59 29 61 29 61 27 59 27"></polygon>
                <rect id="Rectangle" fill="#FFFFFF" fill-rule="nonzero" x="195" y="126" width="60" height="30" rx="1"></rect>
                <g id="Group" transform="translate(203.000000, 135.000000)" fill="url(#linearGradient-2)" fill-rule="nonzero">
                    <path d="M22.756,4.476 C22.731,6.426 24.52,7.514 25.867,8.161 C27.252,8.825 27.717,9.251 27.712,9.845 C27.702,10.753 26.607,11.155 25.583,11.17 C23.797,11.197 22.758,10.695 21.933,10.314 L21.289,13.281 C22.118,13.658 23.652,13.986 25.242,14 C28.976,14 31.419,12.184 31.432,9.368 C31.447,5.794 26.416,5.597 26.45,3.999 C26.462,3.515 26.93,2.999 27.959,2.867 C28.467,2.8 29.872,2.749 31.464,3.472 L32.089,0.602 C31.0240467,0.207186624 29.897778,0.00339528927 28.762,1.07180931e-15 C25.248,1.07180931e-15 22.776,1.84 22.756,4.476 M38.094,0.246890258 C37.4343165,0.239347551 36.8358875,0.632499213 36.581,1.241 L31.247,13.789 L34.979,13.789 L35.721,11.767 L40.281,11.767 L40.711,13.789 L44,13.789 L41.13,0.246890258 L38.094,0.246890258 M38.616,3.906 L39.693,8.991 L36.743,8.991 L38.616,3.906 M18.232,0.247 L15.29,13.79 L18.845,13.79 L21.786,0.247 L18.232,0.247 M12.972,0.247 L9.272,9.464 L7.774,1.627 C7.598,0.752 6.904,0.247 6.134,0.247 L0.085,0.247 L0,0.641 C1.242,0.906 2.653,1.334 3.508,1.793 C4.031,2.073 4.18,2.317 4.352,2.983 L7.188,13.789 L10.945,13.789 L16.705,0.247 L12.972,0.247" id="Shape"></path>
                </g>
                <g id="Group" transform="translate(23.000000, 54.000000)">
                    <g>
                        <g id="d-link" fill="url(#linearGradient-3)" fill-rule="nonzero">
                            <rect id="d" x="0" y="0" width="36" height="25" rx="3.53"></rect>
                        </g>
                        <rect id="Rectangle" stroke="#848484" stroke-width="0.525" x="0.263" y="0.263" width="35.475" height="24.475" rx="3.53"></rect>
                    </g>
                    <path d="M0,8.286 L12.793,8.286 C14.753,8.286 15.733,7.648 15.733,6.371 C15.733,5.094 14.753,4.455 12.793,4.455 C12.217,4.301 11.929,3.972 11.929,3.469 L11.929,0.804 C11.936,0.417 12.224,0.224 12.793,0.224 M0,16.518 L12.793,16.518 C14.753,16.518 15.733,17.156 15.733,18.433 C15.733,19.71 14.753,20.348 12.793,20.348 C12.217,20.503 11.929,20.832 11.929,21.335 L11.929,24.203 C11.936,24.59 12.224,24.783 12.793,24.783 M35.68,16.518 L22.885,16.518 C20.925,16.518 19.945,17.156 19.945,18.433 C19.945,19.71 20.925,20.348 22.885,20.348 C23.461,20.503 23.749,20.832 23.749,21.335 L23.749,24.203 C23.742,24.59 23.454,24.783 22.885,24.783 M12.106,8.426 L12.106,16.489 M24.088,16.498 L24.088,9.078 C24.371,8.478 24.889,8.194 25.644,8.224 C26.399,8.254 29.782,8.254 35.792,8.224" id="Shape" stroke="#848484" stroke-width="0.683"></path>
                </g>
                <g id="Group" transform="translate(163.000000, 21.000000)" fill="#FFFFFF" fill-rule="nonzero">
                    <circle id="Oval" cx="37" cy="9" r="1"></circle>
                    <path d="M8.334,0.465 L10.18,0 C9.6289511,1.91911921 9.01360426,3.81919019 8.335,5.697 C11.525,2.209 14.865,0.465 18.359,0.465 C21.133,0.795 21.723,2.54 20.128,5.697 C17.062,9.993 12.851,11.71 7.498,10.85 L8.335,10.024 C12.505,11.394 15.845,9.951 18.359,5.697 C19.614,2.267 18.779,0.833 15.853,1.395 C11.465,2.237 8.216,6.482 6.543,9.62 C5.428,11.713 4.107,14.84 2.58,19 L0,19 C2.803,13.853 4.829,9.892 6.077,7.117 C7.324,4.342 8.077,2.125 8.334,0.465 Z" id="Path"></path>
                    <path d="M6,16.126 C6.591,15.454 7.162,14.806 7.713,14.183 C7.24,13.354 7.384,12.775 8.145,12.446 C9.285,11.951 9.365,13.323 8.945,13.753 C10.335,13.809 10.757,14.219 10.21,14.981 C9.57330386,15.8612206 8.90965609,16.7216283 8.22,17.561 C7.86,18.479 8.101,18.761 8.945,18.408 C10.21,17.878 11.488,16.712 12.883,15.448 C14.277,14.183 16.498,13.323 17.273,13.753 C17.791,14.04 17.533,14.605 16.498,15.447 L13.343,17.248 C12.97,18.419 13.402,18.806 14.64,18.408 C15.879,18.011 17.734,16.602 20.206,14.183 L21.016,14.183 L19.783,16.373 C21.92,14.339 23.302,13.466 23.929,13.753 C24.557,14.04 24.557,14.831 23.929,16.126 C25.762,14.257 27.139,13.466 28.057,13.753 C28.976,14.04 28.832,14.913 27.627,16.373 C26.4,17.73 26.166,18.408 26.922,18.408 C27.679,18.408 29.54,17 32.507,14.183 L33.852,14.183 L31.211,17.561 C30.97,18.369 31.25,18.651 32.051,18.408 C32.851,18.165 34.611,16.757 37.331,14.183 L38.606,14.183 L36.116,17.561 C35.754,18.311 35.995,18.593 36.84,18.408 C37.685,18.224 39.113,16.816 41.122,14.183 L42.502,14.183 L39.709,17.935 C39.444,18.566 39.717,18.724 40.526,18.408 C41.741,17.935 43.743,16.538 45.992,14.183 L47.031,14.183 L45.661,16.126 C47.796,14.257 49.256,13.466 50.042,13.753 C50.828,14.04 50.687,14.831 49.619,16.126 C52.036,14.002 53.507,13.211 54.033,13.753 C54.559,14.295 54.416,15.086 53.603,16.126 C52.503,17.231 52.105,17.992 52.405,18.408 C52.705,18.824 53.876,18.146 55.918,16.372 C57.994,10.856 61.846,6.847 67.474,4.345 C69.538,3.695 70.932,3.963 71.656,5.145 L71.962,4.667 C72.042,4.929 71.996,5.217 71.823,5.533 C71.993,7.614 71.531,9.286 70.434,10.55 C69.338,11.814 68.652,12.41 68.374,12.337 C68.128,12.287 68.041,12.08 68.114,11.712 C68.224,11.161 69.313,7.765 71.069,5.916 C70.95,4.728 70.186,4.243 68.776,4.461 C66.661,4.788 63.673,6.965 62.465,8.073 C61.257,9.181 58.235,11.845 55.918,18.883 C55.523,21.428 56.128,23.348 57.733,24.643 C60.141,26.587 67.655,24.221 70.434,20.297 C68,23.466 64.821,25.364 60.897,25.992 C56.181,26.167 54.382,23.356 55.5,17.562 C54.071,18.742 52.926,19.332 52.065,19.332 C50.773,19.332 50.378,18.124 51.105,17.248 C51.6285301,16.622418 52.1811383,16.021757 52.761,15.448 C53.421,14.786 53.421,14.455 52.761,14.455 C52.101,14.455 50.921,15.386 49.223,17.248 L47.775,18.884 L46.59,18.884 L49.224,14.981 C49.444,14.308 49.134,14.218 48.293,14.71 C47.032,15.447 45.541,16.588 44.14,18.884 L42.687,18.884 L44.14,16.372 C42.154,18.154 40.441,19.141 39.001,19.332 C38.219,19.419 37.958,19.03 38.217,18.165 C36.904,19.277 35.669,19.517 34.513,18.884 C34.1,18.303 34.337,17.584 35.223,16.73 C33.12,18.764 31.533,19.632 30.46,19.333 C29.388,19.033 29.306,18.166 30.217,16.73 C28.153,18.764 26.552,19.632 25.413,19.333 C24.274,19.033 24.511,18.047 26.125,16.373 C27.189,15.276 27.455,14.637 26.923,14.455 C26.391,14.274 25.116,15.309 23.098,17.561 L21.723,19.333 L20.662,19.333 L23.097,15 C23.385,14.468 23.257,14.324 22.711,14.567 C22.1455311,14.8245982 21.6385345,15.1948078 21.221,15.655 C20.517,16.355 19.454,17.58 18.031,19.333 L16.456,19.333 L18.436,16.373 C16.282,18.261 14.518,19.248 13.144,19.333 C11.77,19.418 11.276,18.663 11.664,17.067 C9.344,18.943 7.734,19.636 6.833,19.145 C5.931,18.654 6.337,17.49 8.051,15.655 L8.815,14.831 C9.115,14.464 9.115,14.281 8.815,14.281 C8.365,14.281 8.127,14.305 7.833,14.71 C7.636,14.98 7.163,15.566 6.413,16.469 L6,16.126 Z M71.224,6.426 C70.004,7.678 69.114,9.421 68.556,11.656 C68.516,11.926 68.592,11.971 68.783,11.79 C69.068,11.517 70.15,10.707 70.973,9.012 C71.216,8.446 71.338,7.672 71.338,6.692 C71.338,6.412 71.3,6.324 71.224,6.425 L71.224,6.426 Z M13.663,16.414 C15.403,15.669 16.273,15.116 16.273,14.755 C16.273,14.395 16.003,14.297 15.463,14.463 C14.6781659,14.914663 14.0501153,15.5954001 13.663,16.414 L13.663,16.414 Z" id="Shape"></path>
                    <path d="M70.672,14.812 L71.637,13.887 L72.801,13.887 L70.098,17.35 C69.755,17.758 69.678,18.035 69.868,18.182 C70.058,18.328 70.3,18.35 70.593,18.248 C72.301,17.561 74.038,16.185 75.803,14.12 C75.463,13.9 75.431,13.534 75.71,13.019 C76.06,12.476 76.479,12.277 76.965,12.42 C77.695,12.635 77.145,13.337 77.082,13.44 C77.0385339,13.5166209 77.0177264,13.6040124 77.022,13.692 L77.95,13.692 C78.895,13.766 78.949,14.283 78.11,15.242 L76.458,17.283 C76.17,17.582 76.051,17.862 76.101,18.123 C76.151,18.386 76.458,18.405 77.023,18.182 C79.185,17.194 79.642,16.395 81.391,15.021 C82.557,14.104 83.582,13.661 84.467,13.691 C84.811,13.691 85.029,13.906 85.122,14.334 C89.269,7.514 93.814,2.988 95.296,2.004 C96.283,1.347 96.966,1.014 97.342,1.005 C97.716,0.942 98.354,1.475 97.753,2.772 C97.353,3.638 96.093,5.06 93.974,7.04 C91.504,9.208 89.818,10.667 88.914,11.416 C88.009,12.165 87.466,12.699 87.284,13.019 L84.601,17.193 C84.372,17.487 84.298,17.763 84.381,18.02 C84.462,18.278 84.709,18.312 85.122,18.124 C86.319,17.604 87.414,16.808 88.406,15.734 L88.696,16.162 C87.37,17.309 86.156,18.132 85.055,18.634 C84.65,18.846 83.687,18.989 83.18,18.904 C82.842,18.846 82.759,18.511 82.93,17.899 C82.039,18.626 81.217,18.989 80.464,18.989 C79.712,18.989 79.374,18.585 79.454,17.776 L79.552,17.072 C79.116,17.44 78.535,17.832 77.81,18.248 C76.319,19.048 75.316,19.176 74.8,18.634 C74.286,18.091 74.471,17.408 75.357,16.583 C76.338,15.733 76.934,15.143 77.144,14.813 C77.355,14.481 77.295,14.322 76.965,14.334 L76.235,14.334 C74.24,16.383 72.685,17.687 71.572,18.248 C70.458,18.809 69.555,19.056 68.861,18.989 C68.531,18.989 68.401,18.666 68.466,18.02 C67.639,18.742 66.759,19.065 65.826,18.99 C64.912,18.664 64.756,17.921 65.359,16.761 C67.002,14.593 68.957,13.744 69.869,13.744 C70.476,13.744 70.744,14.1 70.672,14.812 L70.672,14.812 Z M70.029,14.289 C69.561,14.142 68.985,14.406 68.303,15.081 C67.28,16.092 66.264,17.241 66.571,17.861 C66.878,18.482 67.693,18.327 69.209,16.684 C70.219,15.589 70.493,14.791 70.029,14.289 L70.029,14.289 Z M84.39,14.249 C83.922,14.104 83.347,14.367 82.665,15.042 C81.642,16.053 80.625,17.202 80.932,17.822 C81.239,18.443 82.054,18.288 83.57,16.645 C84.58,15.55 84.854,14.752 84.39,14.25 L84.39,14.249 Z M88.579,11.105 C91.999,8.413 94.662,5.651 96.57,2.82 C96.808,2.368 96.864,2.019 96.717,1.892 C96.619,1.808 96.424,1.85003696 96.132,2.019 C94.516,2.996 91.998,6.025 88.579,11.105 L88.579,11.105 Z" id="Shape"></path>
                </g>
            </g>
        </g>
    </g>
</svg>