<?xml version="1.0" encoding="UTF-8"?>
<svg width="273px" height="170px" viewBox="0 0 273 170" version="1.1" xmlns="http://www.w3.org/2000/svg" xmlns:xlink="http://www.w3.org/1999/xlink">
    <title>tarjeta-premium</title>
    <defs>
        <linearGradient x1="50%" y1="0%" x2="50%" y2="100%" id="linearGradient-1">
            <stop stop-color="#969696" offset="0%"></stop>
            <stop stop-color="#A7A7A7" offset="43.079%"></stop>
            <stop stop-color="#5D5D5D" offset="100%"></stop>
        </linearGradient>
        <linearGradient x1="50%" y1="0%" x2="50%" y2="100%" id="linearGradient-2">
            <stop stop-color="#969696" offset="0%"></stop>
            <stop stop-color="#BDBDBD" offset="15.927%"></stop>
            <stop stop-color="#5D5D5D" offset="100%"></stop>
        </linearGradient>
        <linearGradient x1="50%" y1="0%" x2="50%" y2="100%" id="linearGradient-3">
            <stop stop-color="#969696" offset="0%"></stop>
            <stop stop-color="#A7A7A7" offset="43.079%"></stop>
            <stop stop-color="#5D5D5D" offset="100%"></stop>
        </linearGradient>
        <linearGradient x1="49.58%" y1="-2.006%" x2="50.509%" y2="100%" id="linearGradient-4">
            <stop stop-color="#222357" offset="0%"></stop>
            <stop stop-color="#254AA5" offset="100%"></stop>
        </linearGradient>
        <linearGradient x1="50%" y1="4.561%" x2="50%" y2="97.433%" id="linearGradient-5">
            <stop stop-color="#AAAAAA" offset="0%"></stop>
            <stop stop-color="#8B8A88" offset="100%"></stop>
        </linearGradient>
    </defs>
    <g id="App" stroke="none" stroke-width="1" fill="none" fill-rule="evenodd">
        <g id="AL-1.3" transform="translate(-53.000000, -218.000000)">
            <g id="tarjeta-premium" transform="translate(53.000000, 218.000000)">
                <path d="M15.0865984,169 C6.75272186,169 0,163.205178 0,156.054292 L0,12.944698 C0,5.79381259 6.75272186,0 15.0865984,0 L256.914411,0 C265.247278,0 272,5.79381259 272,12.944698 L272,156.055302 C272,163.205178 265.247278,169 256.913402,169 L15.0865984,169 L15.0865984,169 Z" id="Path" fill="#676767" fill-rule="nonzero"></path>
                <g id="Group" opacity="0.398" transform="translate(11.000000, 42.000000)" fill-rule="nonzero">
                    <path d="M12.4505637,43.1187302 C12.4505637,39.168 15.5591583,35.992381 19.6550579,35.992381 L30.4183012,35.992381 L30.4183012,24.3504762 L17.6612278,24.3504762 C7.95812355,24.3494603 0.293359073,31.8984127 0.293359073,41.1956825 L0.293359073,97.8346667 L12.4616911,97.8346667 L12.4515753,43.119746 L12.4505637,43.1187302 Z" id="Path" fill="url(#linearGradient-1)"></path>
                    <path d="M97.1311892,63.3081905 C97.1311892,78.360381 84.388278,90.6179048 68.6996371,90.6179048 C53.021112,90.6179048 40.2782008,78.360381 40.2782008,63.3081905 C40.2782008,48.2600635 53.021112,36.0015238 68.6996371,36.0015238 C84.388278,36.0015238 97.1311892,48.2600635 97.1311892,63.3081905 Z M166.215228,63.3081905 C166.215228,78.360381 153.457143,90.6179048 137.769514,90.6179048 C122.090988,90.6179048 109.328857,78.360381 109.328857,63.3081905 C109.328857,48.2600635 122.090988,36.0015238 137.769514,36.0015238 C153.457143,36.0015238 166.215228,48.2600635 166.215228,63.3081905 Z M235.276,63.3081905 C235.276,78.360381 222.527019,90.6179048 206.848494,90.6179048 C191.155807,90.6179048 178.412896,78.360381 178.412896,63.3081905 C178.412896,48.2600635 191.155807,36.0015238 206.848494,36.0015238 C222.528031,36.0015238 235.274988,48.2600635 235.274988,63.3081905 L235.276,63.3081905 Z M28.1149266,127.613968 L40.3823938,127.613968 L40.3823938,91.1949206 C47.6860232,98.039873 57.6723707,102.262857 68.6996371,102.262857 C83.2967799,102.262857 96.0943166,94.8601905 103.235081,83.7587302 C110.379892,94.8601905 123.182486,102.262857 137.769514,102.262857 C152.351483,102.262857 165.179367,94.8601905 172.304958,83.7587302 C179.448757,94.8601905 192.237189,102.262857 206.848494,102.262857 C229.255058,102.262857 247.412973,84.8253968 247.412973,63.3092063 C247.412973,41.792 229.255058,24.3504762 206.848494,24.3504762 C192.237189,24.3504762 179.448757,31.7572063 172.303946,42.8678095 C165.179367,31.7572063 152.351483,24.3504762 137.768502,24.3504762 C123.181475,24.3504762 110.379892,31.7622857 103.235081,42.8678095 C96.0943166,31.7622857 83.2967799,24.3504762 68.6996371,24.3504762 C46.2930734,24.3504762 28.1149266,41.792 28.1149266,63.3092063 L28.1149266,127.613968 L28.1149266,127.613968 Z" id="Shape" fill="url(#linearGradient-2)"></path>
                    <polygon id="Path" fill="url(#linearGradient-3)" points="254.98366 99.6551111 262 99.6551111 262 0.706031746 254.98366 0.706031746"></polygon>
                </g>
                <g id="Group" transform="translate(18.000000, 21.000000)" fill="#FFFFFF" fill-rule="nonzero">
                    <path d="M14.2372865,13.541125 L8.48600848,13.541125 C7.84697759,13.541125 7.63903897,13.1766736 7.63903897,12.6801458 L7.63599596,0.0306041667 L5.61442681,0.0306041667 L5.61442681,14.4060764 C5.61442681,15.0088611 6.1773826,15.4070764 6.59325984,15.4070764 L14.2372865,15.4070764 L14.2372865,13.5401319 L14.2372865,13.541125 Z" id="Path"></path>
                    <path d="M14.2372865,16.1190972 L14.2372865,17.9900139 L4.02496426,17.9900139 C3.32507329,17.9900139 2.84224995,17.5063958 2.84224995,16.8797778 C2.84833596,16.1449167 2.84224995,0.0296111111 2.84224995,0.0296111111 L4.85570442,0.0296111111 L4.85570442,14.9572222 C4.85570442,15.6126389 5.16304785,16.1190972 6.02523238,16.1190972 L14.2372865,16.1190972 L14.2372865,16.1190972 Z" id="Path"></path>
                    <path d="M0.0508007268,0.0296111111 L2.07642722,0.0296111111 L2.07642722,17.4060972 C2.07642722,18.0356944 2.41521502,18.7000486 3.40520573,18.7000486 L14.2383008,18.7000486 L14.2383008,20.5669931 L2.45578841,20.5669931 C1.11179487,20.5669931 0.0497863921,19.5342153 0.0497863921,18.3028264 L0.0497863921,0.0306041667 L0.0508007268,0.0296111111 Z" id="Path"></path>
                    <path d="M8.39370402,0.0296111111 L10.4183162,0.0296111111 L10.4183162,10.2332569 C10.4183162,10.6036667 10.5998821,10.9581875 11.1760242,10.9581875 L14.2372865,10.9581875 L14.2372865,12.8300972 L9.42223945,12.8300972 C8.68177509,12.8300972 8.39370402,12.3951389 8.39370402,11.896625 L8.39370402,0.0296111111 L8.39370402,0.0296111111 Z" id="Path"></path>
                    <path d="M11.1851532,7.05547917 L16.9364313,7.05547917 C17.5754621,7.05547917 17.7823864,7.41993056 17.7823864,7.91645833 L17.7854294,20.5650069 L19.8069986,20.5650069 L19.8069986,6.19052778 C19.8069986,5.58774306 19.2440428,5.18853472 18.8291799,5.18853472 L11.1841389,5.18853472 L11.1841389,7.05547917 L11.1851532,7.05547917 Z" id="Path"></path>
                    <path d="M11.1841389,4.47651389 L11.1841389,2.60559722 L21.3964611,2.60559722 C22.0953378,2.60559722 22.5801898,3.09020833 22.5801898,3.71682639 C22.5730894,4.4516875 22.5801898,20.566 22.5801898,20.566 L20.5667353,20.566 L20.5667353,5.63938194 C20.5667353,4.98396528 20.2583775,4.47750694 19.3972073,4.47750694 L11.1841389,4.47750694 L11.1841389,4.47651389 Z" id="Path"></path>
                    <path d="M25.3696103,20.566 L23.3460125,20.566 L23.3460125,3.19050694 C23.3460125,2.56090972 23.0062104,1.89655556 22.0152053,1.89655556 L11.1841389,1.89655556 L11.1841389,0.0296111111 L22.965637,0.0296111111 C24.3096305,0.0296111111 25.3696103,1.06238889 25.3696103,2.29377778 L25.3696103,20.566 Z" id="Path"></path>
                    <path d="M17.0287357,20.566 L15.0031092,20.566 L15.0031092,10.3643403 C15.0031092,9.9929375 14.820529,9.63841667 14.2464155,9.63841667 L11.1851532,9.63841667 L11.1851532,7.76551389 L15.9981716,7.76551389 C16.738636,7.76551389 17.0287357,8.20245833 17.0287357,8.69898611 L17.0287357,20.566 Z M77.032722,11.3156875 C77.032722,10.6275 77.5895918,10.073375 78.3219414,10.073375 L80.2471488,10.073375 L80.2471488,8.04257639 L77.9648956,8.04257639 C76.2303832,8.04257639 74.8579883,9.35936806 74.8579883,10.9810278 L74.8579883,20.8579583 L77.0347507,20.8579583 L77.032722,11.3156875 Z M43.2066869,20.8559722 L45.3814206,20.8559722 L45.3814206,8.00583333 L43.2066869,8.00583333 L43.2066869,20.8559722 Z M92.2913596,14.1786667 C92.2913596,16.8043056 90.0121494,18.9413611 87.2064995,18.9413611 C84.4018639,18.9413611 82.1226537,16.8043056 82.1226537,14.1786667 C82.1226537,11.5550139 84.4018639,9.41696528 87.2064995,9.41696528 C90.0121494,9.41696528 92.2913596,11.5550139 92.2913596,14.1786667 Z M104.649,14.1786667 C104.649,16.8043056 102.366747,18.9413611 99.5610967,18.9413611 C96.7564611,18.9413611 94.4731936,16.8043056 94.4731936,14.1786667 C94.4731936,11.5550139 96.7564611,9.41696528 99.5610967,9.41696528 C102.367761,9.41696528 104.649,11.5550139 104.649,14.1786667 Z M117.002583,14.1786667 C117.002583,16.8043056 114.722358,18.9413611 111.917723,18.9413611 C109.111058,18.9413611 106.830834,16.8043056 106.830834,14.1786667 C106.830834,11.5550139 109.111058,9.41696528 111.917723,9.41696528 C114.722358,9.41696528 117.002583,11.5550139 117.002583,14.1786667 Z M79.9469057,25.7845069 L82.1409118,25.7845069 L82.1409118,19.0416597 C83.5182276,20.290873 85.3289887,20.9809557 87.2064995,20.9721597 C89.8173971,20.9721597 92.1057363,19.6811875 93.3837981,17.7447292 C94.6618599,19.6811875 96.9512134,20.9721597 99.5610967,20.9721597 C102.169966,20.9721597 104.464391,19.6811875 105.738395,17.7447292 C107.016457,19.6811875 109.303782,20.9721597 111.917723,20.9721597 C115.925359,20.9721597 119.173259,17.9314236 119.173259,14.1796597 C119.173259,10.4269028 115.925359,7.38517361 111.917723,7.38517361 C109.303782,7.38517361 107.016457,8.67614583 105.738395,10.6145903 C104.464391,8.67713889 102.169966,7.38517361 99.5610967,7.38517361 C96.9512134,7.38517361 94.6618599,8.67813194 93.3837981,10.6145903 C92.1057363,8.67813194 89.8173971,7.38517361 87.2064995,7.38517361 C83.1978486,7.38517361 79.9469057,10.4269028 79.9469057,14.1786667 L79.9469057,25.7845069 L79.9469057,25.7845069 Z M71.4356229,12.6851111 L61.6148338,12.6851111 C62.3410975,10.6493472 64.3383226,9.34645833 66.5292857,9.34645833 C68.7202487,9.34645833 70.7083448,10.6503403 71.4356229,12.6851111 Z M73.5038514,15.7715278 L71.3991068,15.7715278 C70.6748718,17.7099722 68.7263347,19.0138542 66.5303,19.0138542 C63.8585423,19.0138542 61.6391779,17.1310208 61.3774795,14.5748958 L73.708747,14.5748958 L73.708747,14.1786667 C73.708747,10.4725833 70.4872199,7.45766667 66.5292857,7.45766667 C62.5683085,7.45766667 59.345767,10.4725833 59.345767,14.1786667 C59.345767,17.88475 62.5683085,20.9016528 66.5292857,20.9016528 C69.866447,20.9016528 72.7187563,18.796375 73.5038514,15.7715278 L73.5038514,15.7715278 Z M54.552021,20.8559722 L59.9989986,8.00583333 L57.5169215,8.00583333 L53.133981,18.3485069 L48.7510406,8.00682639 L46.2709921,8.00682639 L51.715941,20.8569653 L54.552021,20.8559722 Z M120.250483,20.8559722 L122.427245,20.8559722 L122.427245,3.602625 L120.250483,3.602625 L120.250483,20.8559722 Z M35.7259681,3.602625 L35.7259681,17.6245694 C35.7330684,18.3207014 36.1631464,18.8658889 37.0141732,18.8658889 L42.3597173,18.8658889 L42.3597173,20.8559722 L34.9936184,20.8549792 C34.0644878,20.8549792 33.5248617,20.3236944 33.5248617,19.5540764 L33.5248617,3.60361806 L35.7259681,3.60361806 L35.7259681,3.602625 Z M126.346634,4.86380556 C126.540372,4.86380556 126.66615,4.79429167 126.66615,4.64533333 C126.66615,4.51325694 126.55153,4.42984028 126.392279,4.42984028 L125.988574,4.42984028 L125.988574,4.86380556 L126.346634,4.86380556 L126.346634,4.86380556 Z M125.739048,4.23420833 L126.418652,4.23420833 C126.801056,4.23420833 126.927848,4.45665278 126.927848,4.61057639 C126.927848,4.8449375 126.752368,5.01276389 126.493713,5.02567361 L126.493713,5.03560417 C126.625576,5.0773125 126.720924,5.2024375 126.847716,5.39310417 L127.035368,5.67413889 L126.735125,5.67413889 L126.596161,5.44970833 C126.401408,5.12696528 126.328376,5.06241667 126.13971,5.06241667 L125.988574,5.06241667 L125.988574,5.67413889 L125.739048,5.67413889 L125.739048,4.23420833 L125.739048,4.23420833 Z M125.176092,4.93232639 C125.176092,5.55000694 125.707603,6.05348611 126.366921,6.05348611 C127.026239,6.05348611 127.56485,5.55000694 127.56485,4.93232639 C127.56485,4.31265972 127.027253,3.81513889 126.366921,3.81513889 C125.707603,3.81513889 125.176092,4.31265972 125.176092,4.93232639 Z M124.935695,4.93232639 C124.935695,4.18952083 125.576754,3.59468056 126.365907,3.59468056 C127.160131,3.59468056 127.802205,4.18952083 127.802205,4.93232639 C127.802205,5.67413889 127.160131,6.27593056 126.366921,6.27593056 C125.57574,6.27593056 124.936709,5.67413889 124.936709,4.93232639 L124.935695,4.93232639 Z" id="Shape"></path>
                </g>
                <polygon id="Path" fill="#FFFFFF" fill-rule="nonzero" points="62 31 64 31 64 29 62 29"></polygon>
                <rect id="Rectangle" fill="#FFFFFF" fill-rule="nonzero" x="197" y="128" width="60" height="30" rx="1"></rect>
                <g id="Group" transform="translate(205.000000, 138.000000)" fill="url(#linearGradient-4)" fill-rule="nonzero">
                    <path d="M22.756,4.476 C22.731,6.426 24.52,7.514 25.867,8.161 C27.252,8.825 27.717,9.251 27.712,9.845 C27.702,10.753 26.607,11.155 25.583,11.17 C23.797,11.197 22.758,10.695 21.933,10.314 L21.289,13.281 C22.118,13.658 23.652,13.986 25.242,14 C28.976,14 31.419,12.184 31.432,9.368 C31.447,5.794 26.416,5.597 26.45,3.999 C26.462,3.515 26.93,2.999 27.959,2.867 C28.467,2.8 29.872,2.749 31.464,3.472 L32.089,0.602 C31.0240467,0.207186624 29.897778,0.00339528927 28.762,1.07180931e-15 C25.248,1.07180931e-15 22.776,1.84 22.756,4.476 M38.094,0.246890258 C37.4343165,0.239347551 36.8358875,0.632499213 36.581,1.241 L31.247,13.789 L34.979,13.789 L35.721,11.767 L40.281,11.767 L40.711,13.789 L44,13.789 L41.13,0.246890258 L38.094,0.246890258 M38.616,3.906 L39.693,8.991 L36.743,8.991 L38.616,3.906 M18.232,0.247 L15.29,13.79 L18.845,13.79 L21.786,0.247 L18.232,0.247 M12.972,0.247 L9.272,9.464 L7.774,1.627 C7.598,0.752 6.904,0.247 6.134,0.247 L0.085,0.247 L0,0.641 C1.242,0.906 2.653,1.334 3.508,1.793 C4.031,2.073 4.18,2.317 4.352,2.983 L7.188,13.789 L10.945,13.789 L16.705,0.247 L12.972,0.247" id="Shape"></path>
                </g>
                <g id="Group" transform="translate(24.000000, 57.000000)">
                    <g>
                        <g id="e-link" fill="url(#linearGradient-5)" fill-rule="nonzero">
                            <rect id="e" x="0" y="0" width="37" height="25" rx="3.53"></rect>
                        </g>
                        <rect id="Rectangle" stroke="#4A4331" stroke-width="0.525" x="0.270305556" y="0.263" width="36.4604167" height="24.475" rx="3.53"></rect>
                    </g>
                    <path d="M0,8.286 L13.1483611,8.286 C15.1628056,8.286 16.1700278,7.648 16.1700278,6.371 C16.1700278,5.094 15.1628056,4.455 13.1483611,4.455 C12.5563611,4.301 12.2603611,3.972 12.2603611,3.469 L12.2603611,0.804 C12.2675556,0.417 12.5635556,0.224 13.1483611,0.224 M0,16.518 L13.1483611,16.518 C15.1628056,16.518 16.1700278,17.156 16.1700278,18.433 C16.1700278,19.71 15.1628056,20.348 13.1483611,20.348 C12.5563611,20.503 12.2603611,20.832 12.2603611,21.335 L12.2603611,24.203 C12.2675556,24.59 12.5635556,24.783 13.1483611,24.783 M36.6711111,16.518 L23.5206944,16.518 C21.50625,16.518 20.4990278,17.156 20.4990278,18.433 C20.4990278,19.71 21.50625,20.348 23.5206944,20.348 C24.1126944,20.503 24.4086944,20.832 24.4086944,21.335 L24.4086944,24.203 C24.4015,24.59 24.1055,24.783 23.5206944,24.783 M12.4422778,8.426 L12.4422778,16.489 M24.7571111,16.498 L24.7571111,9.078 C25.0479722,8.478 25.5803611,8.194 26.3563333,8.224 C27.1323056,8.254 30.6092778,8.254 36.7862222,8.224" id="Shape" stroke="#4A4331" stroke-width="0.683"></path>
                </g>
                <g id="Group" transform="translate(164.000000, 24.000000)" fill="#FFFFFF" fill-rule="nonzero">
                    <ellipse id="Oval" cx="37.377551" cy="9" rx="1.01020408" ry="1"></ellipse>
                    <path d="M8.41904082,0.465 L10.2838776,0 C9.7272057,1.91911921 9.10557981,3.81919019 8.42005102,5.697 C11.642602,2.209 15.0166837,0.465 18.5463367,0.465 C21.3486429,0.795 21.9446633,2.54 20.3333878,5.697 C17.236102,9.993 12.9821327,11.71 7.5745102,10.85 L8.42005102,10.024 C12.632602,11.394 16.0066837,9.951 18.5463367,5.697 C19.8141429,2.267 18.9706224,0.833 16.0147653,1.395 C11.5819898,2.237 8.29983673,6.482 6.60976531,9.62 C5.48338776,11.713 4.14890816,14.84 2.60632653,19 L0,19 C2.83160204,13.853 4.87827551,9.892 6.1390102,7.117 C7.39873469,4.342 8.15941837,2.125 8.41904082,0.465 Z" id="Path"></path>
                    <path d="M6.06122449,16.126 C6.6582551,15.454 7.23508163,14.806 7.79170408,14.183 C7.31387755,13.354 7.45934694,12.775 8.22811224,12.446 C9.3797449,11.951 9.46056122,13.323 9.03627551,13.753 C10.4404592,13.809 10.8667653,14.219 10.3141837,14.981 C9.67099064,15.8612206 9.00057095,16.7216283 8.30387755,17.561 C7.94020408,18.479 8.18366327,18.761 9.03627551,18.408 C10.3141837,17.878 11.6052245,16.712 13.0144592,15.448 C14.4226837,14.183 16.6663469,13.323 17.4492551,13.753 C17.9725408,14.04 17.7119082,14.605 16.6663469,15.447 L13.4791531,17.248 C13.1023469,18.419 13.5387551,18.806 14.7893878,18.408 C16.0410306,18.011 17.9149592,16.602 20.4121837,14.183 L21.230449,14.183 L19.9848673,16.373 C22.1436735,14.339 23.5397755,13.466 24.1731735,13.753 C24.8075816,14.04 24.8075816,14.831 24.1731735,16.126 C26.0248776,14.257 27.4159286,13.466 28.3432959,13.753 C29.2716735,14.04 29.1262041,14.913 27.9089082,16.373 C26.6693878,17.73 26.433,18.408 27.1967143,18.408 C27.9614388,18.408 29.8414286,17 32.8387041,14.183 L34.1974286,14.183 L31.5294796,17.561 C31.2860204,18.369 31.5688776,18.651 32.378051,18.408 C33.1862143,18.165 34.9641735,16.757 37.7119286,14.183 L38.9999388,14.183 L36.4845306,17.561 C36.1188367,18.311 36.3622959,18.593 37.2159184,18.408 C38.0695408,18.224 39.5121122,16.816 41.5416122,14.183 L42.9356939,14.183 L40.1141939,17.935 C39.8464898,18.566 40.1222755,18.724 40.9395306,18.408 C42.1669286,17.935 44.1893571,16.538 46.4613061,14.183 L47.5109082,14.183 L46.1269286,16.126 C48.2837143,14.257 49.7586122,13.466 50.5526327,13.753 C51.3466531,14.04 51.2042143,14.831 50.1253163,16.126 C52.5669796,14.002 54.0529898,13.211 54.5843571,13.753 C55.1157245,14.295 54.9712653,15.086 54.1499694,16.126 C53.0387449,17.231 52.6366837,17.992 52.9397449,18.408 C53.2428061,18.824 54.4257551,18.146 56.4885918,16.372 C58.5857755,10.856 62.4770816,6.847 68.1625102,4.345 C70.2475714,3.695 71.6557959,3.963 72.3871837,5.145 L72.6963061,4.667 C72.7771224,4.929 72.7306531,5.217 72.5558878,5.533 C72.7276224,7.614 72.2609082,9.286 71.1527143,10.55 C70.0455306,11.814 69.3525306,12.41 69.0716939,12.337 C68.8231837,12.287 68.7352959,12.08 68.8090408,11.712 C68.9201633,11.161 70.0202755,7.765 71.7941939,5.916 C71.6739796,4.728 70.9021837,4.243 69.4777959,4.461 C67.3412143,4.788 64.3227245,6.965 63.102398,8.073 C61.8820714,9.181 58.8292347,11.845 56.4885918,18.883 C56.0895612,21.428 56.7007347,23.348 58.3221122,24.643 C60.7546837,26.587 68.3453571,24.221 71.1527143,20.297 C68.6938776,23.466 65.4824388,25.364 61.518398,25.992 C56.7542755,26.167 54.9369184,23.356 56.0663265,17.562 C54.6227449,18.742 53.4660612,19.332 52.5962755,19.332 C51.2910918,19.332 50.8920612,18.124 51.6264796,17.248 C52.1553519,16.622418 52.7135989,16.021757 53.2993776,15.448 C53.9661122,14.786 53.9661122,14.455 53.2993776,14.455 C52.6326429,14.455 51.440602,15.386 49.7252755,17.248 L48.2625,18.884 L47.0654082,18.884 L49.7262857,14.981 C49.9485306,14.308 49.6353673,14.218 48.7857857,14.71 C47.5119184,15.447 46.0057041,16.588 44.5904082,18.884 L43.1225816,18.884 L44.5904082,16.372 C42.5841429,18.154 40.8536633,19.141 39.3989694,19.332 C38.6089898,19.419 38.3453265,19.03 38.6069694,18.165 C37.2805714,19.277 36.0329694,19.517 34.8651735,18.884 C34.4479592,18.303 34.6873776,17.584 35.5824184,16.73 C33.4579592,18.764 31.8547653,19.632 30.7708163,19.333 C29.6878776,19.033 29.6050408,18.166 30.5253367,16.73 C28.4402755,18.764 26.8229388,19.632 25.6723163,19.333 C24.5216939,19.033 24.7611122,18.047 26.3915816,16.373 C27.4664388,15.276 27.7351531,14.637 27.1977245,14.455 C26.6602959,14.274 25.3722857,15.309 23.3336939,17.561 L21.9446633,19.333 L20.8728367,19.333 L23.3326837,15 C23.6236224,14.468 23.4943163,14.324 22.9427449,14.567 C22.3715059,14.8245982 21.8593358,15.1948078 21.4375408,15.655 C20.7263571,16.355 19.6525102,17.58 18.2149898,19.333 L16.6239184,19.333 L18.6241224,16.373 C16.4481429,18.261 14.6661429,19.248 13.2781224,19.333 C11.890102,19.418 11.3910612,18.663 11.7830204,17.067 C9.43934694,18.943 7.81291837,19.636 6.90272449,19.145 C5.99152041,18.654 6.40166327,17.49 8.13315306,15.655 L8.90494898,14.831 C9.2080102,14.464 9.2080102,14.281 8.90494898,14.281 C8.45035714,14.281 8.20992857,14.305 7.91292857,14.71 C7.71391837,14.98 7.23609184,15.566 6.47843878,16.469 L6.06122449,16.126 Z M71.9507755,6.426 C70.7183265,7.678 69.8192449,9.421 69.255551,11.656 C69.2151429,11.926 69.2919184,11.971 69.4848673,11.79 C69.7727755,11.517 70.8658163,10.707 71.6972143,9.012 C71.9426939,8.446 72.0659388,7.672 72.0659388,6.692 C72.0659388,6.412 72.027551,6.324 71.9507755,6.425 L71.9507755,6.426 Z M13.8024184,16.414 C15.5601735,15.669 16.439051,15.116 16.439051,14.755 C16.439051,14.395 16.1662959,14.297 15.6207857,14.463 C14.8279431,14.914663 14.1934838,15.5954001 13.8024184,16.414 L13.8024184,16.414 Z" id="Shape"></path>
                    <path d="M71.3931429,14.812 L72.3679898,13.887 L73.5438673,13.887 L70.8132857,17.35 C70.4667857,17.758 70.389,18.035 70.5809388,18.182 C70.7728776,18.328 71.0173469,18.35 71.3133367,18.248 C73.0387653,17.561 74.7934898,16.185 76.5765,14.12 C76.2330306,13.9 76.2007041,13.534 76.482551,13.019 C76.8361224,12.476 77.259398,12.277 77.7503571,12.42 C78.4878061,12.635 77.9321939,13.337 77.868551,13.44 C77.8246413,13.5166209 77.8036215,13.6040124 77.8079388,13.692 L78.7454082,13.692 C79.700051,13.766 79.754602,14.283 78.9070408,15.242 L77.2381837,17.283 C76.9472449,17.582 76.8270306,17.862 76.8775408,18.123 C76.928051,18.386 77.2381837,18.405 77.808949,18.182 C79.9930102,17.194 80.4546735,16.395 82.2215204,15.021 C83.3994184,14.104 84.4348776,13.661 85.3289082,13.691 C85.6764184,13.691 85.8966429,13.906 85.9905918,14.334 C90.1799082,7.514 94.7712857,2.988 96.2684082,2.004 C97.2654796,1.347 97.955449,1.014 98.3352857,1.005 C98.713102,0.942 99.3576122,1.475 98.7504796,2.772 C98.346398,3.638 97.0735408,5.06 94.9329184,7.04 C92.4377143,9.208 90.7345102,10.667 89.8212857,11.416 C88.907051,12.165 88.3585102,12.699 88.1746531,13.019 L85.4642755,17.193 C85.2329388,17.487 85.1581837,17.763 85.2420306,18.02 C85.3238571,18.278 85.5733776,18.312 85.9905918,18.124 C87.1998061,17.604 88.3059796,16.808 89.308102,15.734 L89.6010612,16.162 C88.2615306,17.309 87.0351429,18.132 85.9229082,18.634 C85.5137755,18.846 84.540949,18.989 84.0287755,18.904 C83.6873265,18.846 83.6034796,18.511 83.7762245,17.899 C82.8761327,18.626 82.0457449,18.989 81.2850612,18.989 C80.5253878,18.989 80.1839388,18.585 80.2647551,17.776 L80.3637551,17.072 C79.9233061,17.44 79.3363776,17.832 78.6039796,18.248 C77.0977653,19.048 76.0845306,19.176 75.5632653,18.634 C75.0440204,18.091 75.2309082,17.408 76.125949,16.583 C77.1169592,15.733 77.7190408,15.143 77.9311837,14.813 C78.1443367,14.481 78.0837245,14.322 77.7503571,14.334 L77.0129082,14.334 C74.997551,16.383 73.4266837,17.687 72.3023265,18.248 C71.1769592,18.809 70.2647449,19.056 69.5636633,18.989 C69.2302959,18.989 69.0989694,18.666 69.1646327,18.02 C68.3291939,18.742 67.4402143,19.065 66.4976939,18.99 C65.5743673,18.664 65.4167755,17.921 66.0259286,16.761 C67.6856939,14.593 69.6606429,13.744 70.581949,13.744 C71.1951429,13.744 71.4658776,14.1 71.3931429,14.812 L71.3931429,14.812 Z M70.7435816,14.289 C70.2708061,14.142 69.6889286,14.406 68.9999694,15.081 C67.9665306,16.092 66.9401633,17.241 67.2502959,17.861 C67.5604286,18.482 68.3837449,18.327 69.9152143,16.684 C70.9355204,15.589 71.2123163,14.791 70.7435816,14.289 L70.7435816,14.289 Z M85.2511224,14.249 C84.7783469,14.104 84.1974796,14.367 83.5085204,15.042 C82.4750816,16.053 81.4477041,17.202 81.7578367,17.822 C82.0679694,18.443 82.8912857,18.288 84.4227551,16.645 C85.4430612,15.55 85.7198571,14.752 85.2511224,14.25 L85.2511224,14.249 Z M89.4828673,11.105 C92.9377653,8.413 95.6279388,5.651 97.5554082,2.82 C97.7958367,2.368 97.8524082,2.019 97.7039082,1.892 C97.6049082,1.808 97.4079184,1.85003696 97.1129388,2.019 C95.480449,2.996 92.9367551,6.025 89.4828673,11.105 L89.4828673,11.105 Z" id="Shape"></path>
                </g>
            </g>
        </g>
    </g>
</svg>