<?xml version="1.0" encoding="utf-8"?>
<!-- Generator: Adobe Illustrator 21.0.2, SVG Export Plug-In . SVG Version: 6.00 Build 0)  -->
<svg version="1.1" id="Capa_1" xmlns="http://www.w3.org/2000/svg" xmlns:xlink="http://www.w3.org/1999/xlink" x="0px" y="0px"
	 viewBox="0 0 470 491" style="enable-background:new 0 0 470 491;" xml:space="preserve">
<style type="text/css">
	.st0{fill:#FFFFFF;}
	.st1{fill:#FFFFFF;stroke:#FFFFFF;stroke-miterlimit:10;}
	.st2{fill:none;stroke:#FFFFFF;stroke-width:5;stroke-miterlimit:10;}
	.st3{fill:none;stroke:#FFFFFF;stroke-width:7;stroke-linecap:round;stroke-linejoin:round;stroke-miterlimit:10;}
</style>
<g>
	<g>
		<path class="st0" d="M92,285.3c0.9,0,1.8-0.3,2.6-1c1.6-1.4,1.7-3.9,0.3-5.5c-2.8-3.1-4.3-7.1-4.3-11.3c0-9.1,6.9-18.6,17-23.6
			c10.1,5,17,14.5,17,23.6c0,4.2-1.5,8.2-4.3,11.3c-1.4,1.6-1.3,4.1,0.3,5.5c1.6,1.4,4.1,1.3,5.5-0.3c4.1-4.5,6.3-10.4,6.3-16.5
			c0-12.6-9.5-25.5-23.2-31.5c-1-0.4-2.1-0.4-3.1,0c-13.7,6-23.2,18.9-23.2,31.5c0,6.1,2.2,11.9,6.3,16.5
			C89.8,284.9,90.9,285.3,92,285.3L92,285.3z"/>
	</g>
</g>
<path class="st0" d="M30.5,415.5c0.7,0.2,1.4,0.4,2.1,0.6l14.9,60.6c0.4,1.7,2,3,3.8,3h112.5c1.8,0,3.4-1.2,3.8-3l14.9-60.6
	c0.7-0.1,1.4-0.3,2.1-0.6H30.5z M160.7,471.9H54.3l-13.7-55.4H61l6.6,44.3c0.3,1.9,1.9,3.3,3.8,3.3c0.2,0,0.4,0,0.6,0
	c2.1-0.3,3.6-2.3,3.3-4.4l-6.4-43.2h20.5l2.2,44c0.1,2.1,1.8,3.7,3.9,3.7c0.1,0,0.1,0,0.2,0c2.1-0.1,3.8-1.9,3.7-4.1l-2.1-43.6h20.6
	l-2.1,43.6c-0.1,2.1,1.5,4,3.7,4.1c0.1,0,0.1,0,0.2,0c2.1,0,3.8-1.6,3.9-3.7l2.2-44h20.5l-6.4,43.2c-0.3,2.1,1.2,4.1,3.3,4.4
	c0.2,0,0.4,0,0.6,0c1.9,0,3.6-1.4,3.8-3.3l6.5-44.3h20.4L160.7,471.9z"/>
<path class="st0" d="M112.7,294.8h-1.3v-11.7c0-2.1-1.7-3.9-3.9-3.9s-3.9,1.7-3.9,3.9v11.7h-1.3c-5,0-9.1,4.1-9.1,9.1v35.5h7.8
	v-35.5c0-0.7,0.6-1.3,1.3-1.3h10.4c0.7,0,1.3,0.6,1.3,1.3v35.5h7.8v-35.5C121.8,298.9,117.7,294.8,112.7,294.8z"/>
<path class="st0" d="M195.1,400.7c0-12.4-8.7-22.9-20.3-25.6c1.1-3,1.7-6.2,1.7-9.4c0-14.5-11.8-26.3-26.3-26.3H64.8
	c-14.5,0-26.3,11.8-26.3,26.3c0,3.3,0.6,6.4,1.7,9.4c-11.6,2.7-20.3,13.2-20.3,25.6c0,7.6,5.4,14,12.6,15.4h149.9l0,0
	C189.7,414.7,195.1,408.3,195.1,400.7L195.1,400.7z M179.4,408.7H35.7c-4.4,0-8-3.6-8-8c0-10.2,8.3-18.6,18.6-18.6
	c1.4,0,2.8-0.8,3.4-2.1c0.7-1.3,0.6-2.8-0.2-4c-2.1-3.1-3.2-6.7-3.2-10.4c0-10.2,8.3-18.6,18.6-18.6h85.4c10.2,0,18.5,8.3,18.5,18.6
	c0,3.1-0.8,6-2.2,8.7H61.8c-2.1,0-3.9,1.7-3.9,3.9c0,2.1,1.7,3.9,3.9,3.9h106.9c10.2,0,18.5,8.3,18.5,18.6
	C187.3,405.1,183.7,408.7,179.4,408.7z"/>
<g>
	<path class="st0" d="M408.7,283.2c4.6-5,7.6-11.8,7.6-19.3c0-15.6-12.5-28.1-27.6-28.1c-11.5,0-38,17.2-48.6,32.6
		c-10.9-15.4-37.4-32.2-48.4-32.2c-15.1,0-27.6,12.5-27.6,28.2c0,7.2,2.7,13.8,7,18.8h-53.4v67.2h14.6v130.4H309h62.5h76.6V350.5
		h14.6v-67.2L408.7,283.2L408.7,283.2z M388.6,246.2c9.4,0,17.2,7.8,17.2,18.2c0,8.8-6.1,16.4-14.1,18h-42.3
		c-2.7-0.8-3.5-1.8-3.5-2.3C345.9,271.2,377.1,246.2,388.6,246.2L388.6,246.2z M291.6,246.2c11,0,42.8,25,42.8,33.9
		c0,0.8-1.8,1.7-3.2,2.3h-42.6c-7.9-1.6-14.1-9.1-14.1-18C274.4,254.5,282.3,246.2,291.6,246.2L291.6,246.2z M308.8,470.3h-66.2
		V350.5h66.2V470.3z M308.8,340.6H228v-46.9h80.8V340.6L308.8,340.6z M360.9,470.3h-41.7V293.6h41.7V470.3z M437.6,470.3h-66.2
		V350.5h66.2L437.6,470.3L437.6,470.3z M452.1,340.6h-80.8v-46.9h80.8L452.1,340.6L452.1,340.6z"/>
</g>
<g>
	<path class="st1" d="M291.8,137.4c-6.8,7.3-14.8,14.2-22.7,19.7c-11-7.6-21.7-17.7-29.8-28c-10.4-13.3-15.9-26.3-15.9-37.7
		c0-22.4,16-41.3,38-45c2-0.3,3.3-2.2,3-4.1c-0.3-2-2.2-3.3-4.1-3c-12.2,2-23.3,8.4-31.4,17.8c-8.1,9.5-12.6,21.7-12.6,34.3
		c0,13,6,27.6,17.4,42.1c8.3,10.6,19.3,21,30.6,29l-5.1,8.3c-0.7,1.1-0.7,2.5-0.1,3.6s1.8,1.8,3.1,1.8h3.3v51.2c0,2,1.6,3.6,3.6,3.6
		s3.6-1.6,3.6-3.6v-51.2h3.3c2,0,3.6-1.6,3.6-3.6S278,169,276,169h-7.3l3.1-5.1c8.8-5.9,17.7-13.6,25.3-21.7
		c1.4-1.5,1.3-3.7-0.2-5.1C295.4,135.9,293.1,136,291.8,137.4z"/>
	<path class="st1" d="M256,55.3c-15.1,5.5-25.2,20-25.2,36.1c0,2,1.6,3.6,3.6,3.6s3.6-1.6,3.6-3.6c0-13.1,8.2-24.8,20.5-29.3
		c1.9-0.7,2.8-2.7,2.1-4.6C259.9,55.6,257.8,54.6,256,55.3z"/>
	<path class="st1" d="M429.1,57.1c-8.1-9.4-19.2-15.8-31.4-17.8c-2-0.3-3.8,1-4.1,3c-0.3,2,1,3.8,3,4.1c22,3.7,38,22.6,38,45
		c0,11.4-5.5,24.4-15.9,37.7c-8,10.3-18.8,20.4-29.8,28c-7.9-5.5-15.9-12.4-22.7-19.7c-1.4-1.5-3.6-1.5-5.1-0.2
		c-1.5,1.4-1.5,3.6-0.2,5.1c6.9,7.4,15,14.5,23.1,20.2l-5.1,8.3c-0.7,1.1-0.7,2.5-0.1,3.6s1.8,1.8,3.1,1.8h3.3v51.2
		c0,2,1.6,3.6,3.6,3.6s3.6-1.6,3.6-3.6v-51.2h3.3c2,0,3.6-1.6,3.6-3.6s-1.6-3.6-3.6-3.6h-7.3l3.1-5.1c12-8.1,24-19.2,32.8-30.5
		c11.4-14.6,17.4-29.1,17.4-42.1C441.8,78.8,437.3,66.7,429.1,57.1z"/>
	<path class="st1" d="M370.3,116.4c13.3-17,20.3-34.1,20.3-49.2c0-33.9-27.6-61.6-61.6-61.6s-61.6,27.6-61.6,61.6
		c0,15.2,7,32.2,20.3,49.2c9.8,12.6,22.9,25,36.4,34.4l-6.3,10.3c-0.7,1.1-0.7,2.5-0.1,3.6s1.8,1.8,3.1,1.8h4.5v60.9
		c0,2,1.6,3.6,3.6,3.6s3.6-1.6,3.6-3.6v-60.9h4.5c2,0,3.6-1.6,3.6-3.6s-1.6-3.6-3.6-3.6h-9.8l4.3-7.1
		C345.9,142.7,359.9,129.7,370.3,116.4z M293.5,112c-12.3-15.8-18.8-31.3-18.8-44.8c0-30,24.4-54.4,54.4-54.4s54.4,24.4,54.4,54.4
		c0,13.5-6.5,29-18.8,44.8c-9.6,12.3-22.4,24.4-35.6,33.4C315.9,136.3,303.1,124.3,293.5,112z"/>
	<path class="st1" d="M285.5,70.8c2,0,3.6-1.6,3.6-3.6c0-22,17.9-40,40-40c2,0,3.6-1.6,3.6-3.6S331,20,329,20
		c-26,0-47.2,21.2-47.2,47.2C281.9,69.2,283.5,70.8,285.5,70.8L285.5,70.8z"/>
	<path class="st1" d="M291.5,80.1c-0.7-1.9-2.7-2.9-4.6-2.2s-2.9,2.7-2.2,4.6c2.8,8,7.7,16.4,14.4,25c0.7,0.9,1.8,1.4,2.8,1.4
		c0.8,0,1.6-0.2,2.2-0.8c1.6-1.2,1.8-3.5,0.6-5C298.6,95.1,294.1,87.4,291.5,80.1z"/>
</g>
<g>
	<path class="st0" d="M28.2,54.1c-1.2-1.5-3.4-1.8-5-0.6l-3.5,2.7l-3.9,3.1c-1.5,1.2-1.8,3.4-0.6,5c1.2,1.6,3.4,1.8,5,0.6l3.9-3.1
		l3.5-2.7C29.2,57.8,29.4,55.6,28.2,54.1z"/>
	<path class="st0" d="M48.6,38.1c1.2,1.5,3.4,1.8,5,0.6l3.5-2.7l3.9-3.1c1.5-1.2,1.8-3.4,0.6-5s-3.4-1.8-5-0.6l-3.9,3.1l-3.5,2.7
		C47.7,34.3,47.4,36.5,48.6,38.1z"/>
	<path class="st0" d="M36.9,58.9C35,58.7,33.2,60.1,33,62l-0.5,4.4l-0.6,5c-0.2,1.9,1.2,3.7,3.1,3.9c1,0.1,1.9-0.2,2.6-0.7
		c0.7-0.6,1.2-1.4,1.3-2.4l0.6-5l0.5-4.4C40.2,60.9,38.8,59.2,36.9,58.9z"/>
	<path class="st0" d="M39.9,33.2c1,0.1,1.9-0.2,2.6-0.7c0.7-0.6,1.2-1.4,1.3-2.4l0.5-4.4l0.6-5c0.2-1.9-1.2-3.7-3.1-3.9
		C40,16.6,38.2,18,38,19.9l-0.6,5l-0.5,4.4C36.6,31.2,38,33,39.9,33.2z"/>
	<path class="st0" d="M24.2,46.9c0.7-0.6,1.2-1.4,1.3-2.4c0.2-1.9-1.2-3.7-3.1-3.9L18,40.1l-5-0.6c-1.9-0.2-3.7,1.2-3.9,3.1
		c-0.2,1.9,1.2,3.7,3.1,3.9l5,0.6l4.4,0.5C22.6,47.7,23.5,47.5,24.2,46.9z"/>
	<path class="st0" d="M51.3,47.6c-0.2,1.9,1.2,3.7,3.1,3.9l4.4,0.5l5,0.6c1,0.1,1.9-0.2,2.6-0.7c0.7-0.6,1.2-1.4,1.3-2.4
		c0.2-1.9-1.2-3.7-3.1-3.9l-5-0.6l-4.4-0.5C53.3,44.3,51.5,45.7,51.3,47.6z"/>
	<path class="st0" d="M30.4,35.9c1.5-1.2,1.8-3.4,0.6-5l-2.7-3.5l-3.1-3.9c-1.2-1.5-3.4-1.8-5-0.6s-1.8,3.4-0.6,5l3.1,3.9l2.7,3.5
		C26.6,36.8,28.9,37.1,30.4,35.9z"/>
	<path class="st0" d="M193.3,134.2l-53.6-30.1L56.4,57.3l-9-5c-1.2-0.7-2.8-0.6-3.9,0.3c-1.1,0.9-1.6,2.4-1.2,3.7l2.8,9.9l25.8,92
		l16.6,59.2c0.4,1.5,1.8,2.6,3.4,2.6c23.9,0,47.4-8.1,66.2-22.9c18.8-14.8,32.3-35.7,37.9-58.9C195.4,136.6,194.7,135,193.3,134.2z
		 M152.8,191.5c-16.9,13.3-37.8,20.8-59.2,21.4l-6.2-22.2c6.1-1.1,12.2-2.7,18-4.8c0.4-0.1,0.7-0.3,1-0.5c1.2-0.9,1.7-2.5,1.1-4
		c0,0,0,0,0-0.1s-0.1-0.1-0.1-0.2c-0.8-1.7-2.7-2.5-4.4-1.8c-5.7,2.1-11.6,3.6-17.6,4.6l-6.8-24.1c12.7-3.9,24.4-10.1,34.8-18.2
		c10.3-8.1,19.1-18.1,25.9-29.5l21.8,12.3c-9,21.1-25,38.6-45.5,49.4c-1.6,0.9-2.3,2.8-1.6,4.5c0,0.1,0.1,0.1,0.1,0.2c0,0,0,0,0,0.1
		c0.9,1.7,3,2.4,4.8,1.5c5.8-3.1,11.3-6.6,16.4-10.6c13.9-10.9,25-25.2,32-41.5l20.1,11.3C181.9,159.6,169.7,178.2,152.8,191.5z
		 M69.5,127.1c5.6-2.6,11.1-5.6,16.2-9.1c0.1,0,0.1-0.1,0.2-0.1c1.4-1.1,1.8-3.2,0.7-4.8l0,0c-1.1-1.6-3.3-2-4.9-0.9
		c-4.5,3.1-9.2,5.7-14.1,8l-7.7-27.4c3.4-2.1,6.7-4.4,9.8-6.9s6.2-5.1,9-7.9l24.8,13.9c-3.4,4.2-7.1,8.2-11.1,11.8
		c-1.4,1.3-1.6,3.5-0.3,4.9l0,0c1.3,1.4,3.4,1.6,4.8,0.4c0.1,0,0.1-0.1,0.2-0.2c4.6-4.1,8.8-8.7,12.6-13.6l23.3,13.1
		c-12.6,21.1-32.9,37.1-56.4,44.4L69.5,127.1z M57.9,85.7l-6.5-23.1l20.9,11.7C67.9,78.5,63,82.3,57.9,85.7z"/>
</g>
<line class="st2" x1="270.3" y1="160.4" x2="277.3" y2="172.3"/>
<line class="st3" x1="330.6" y1="149.5" x2="337.6" y2="161.4"/>
<line class="st3" x1="389.6" y1="159.8" x2="396.6" y2="171.7"/>
</svg>
