<?xml version="1.0" encoding="utf-8"?>
<!-- Generator: Adobe Illustrator 21.1.0, SVG Export Plug-In . SVG Version: 6.00 Build 0)  -->
<svg version="1.1" id="Capa_1" xmlns="http://www.w3.org/2000/svg" xmlns:xlink="http://www.w3.org/1999/xlink" x="0px" y="0px"
	 viewBox="0 0 500 500" style="enable-background:new 0 0 500 500;" xml:space="preserve">
<style type="text/css">
	.st0{fill:#FFFFFF;}
	.st1{fill:#F1F1F1;}
	.st2{fill:#666666;}
	.st3{fill:#00B594;}
	.st4{fill:#B3B3B3;}
	.st5{fill:#FF319B;}
	.st6{fill:#FF009B;}
</style>
<g>
	<g>
		<path class="st0" d="M203.5,195.5h-16.9l1.8,38.9l-38.9-38.9h-27.1v174.3c0,6.9,4,12.7,9.7,15.7h325.3c5.7-2.9,9.7-8.8,9.7-15.7
			V189.1c0-9.8-7.9-17.7-17.7-17.7H243.1C235.7,185.7,220.7,195.5,203.5,195.5z M217.2,306.3h-3.4l-4.7-15.4l-4.7,15.4h-3.4
			l-6.4-19.4l-6.5,19.4h-3.4l-4.7-15.4l-4.7,15.4h-3.4l-6.4-19.4l-6.5,19.4h-3.4l-4.7-15.4l-4.7,15.4h-3.4l-6.5-19.7h3.6l4.8,16
			l4.8-16h3.3l4.8,16l4.8-16h3.2h0.2h3.4l4.8,16l4.8-16h3.3l4.8,16l4.8-16h3.2h0.2h3.4l4.8,16l4.8-16h3.3l4.8,16l4.8-16h3.4
			L217.2,306.3z M226.3,306.5c-1,0-1.8-0.8-1.8-1.9c0-1.1,0.8-1.8,1.8-1.8c1,0,1.8,0.8,1.8,1.8C228.1,305.7,227.3,306.5,226.3,306.5
			z M412.1,286.6h3.9l6.5,13.1l6.5-13.1h3.9v19.7h-3.1l0-14.7l-6.2,12.7h-2.2l-6.2-12.7v14.7h-3.1V286.6z M398.1,286.5
			c5.9,0,10.4,4.3,10.4,9.9c0,5.6-4.6,10-10.4,10c-5.9,0-10.4-4.4-10.4-10C387.7,290.8,392.2,286.5,398.1,286.5z M378.9,286.5
			c2.8,0,5.6,1.2,7.5,3l-1.9,2.4c-1.4-1.6-3.5-2.5-5.5-2.5c-3.9,0-7,3-7,6.9c0,3.9,3.1,6.9,7,6.9c2,0,4-0.9,5.5-2.3l2,2.2
			c-2,2-4.8,3.2-7.6,3.2c-5.8,0-10.2-4.4-10.2-10C368.5,290.8,373,286.5,378.9,286.5z M364.5,302.8c1,0,1.8,0.8,1.8,1.8
			c0,1.1-0.8,1.9-1.8,1.9c-1,0-1.8-0.8-1.8-1.9C362.7,303.6,363.5,302.8,364.5,302.8z M295.7,233.3c32.7,0,59.3,25.2,59.3,56.2
			c0,13.8-5.3,26.5-14,36.3c0,0,0,0,0,0c-0.3,0.4-0.7,0.7-1,1c-0.9,1-1.9,2-2.9,2.9c-0.5,0.5-1.1,0.9-1.6,1.4
			c-0.9,0.8-1.9,1.6-2.9,2.4c-0.6,0.5-1.3,0.9-1.9,1.3c-1,0.7-2,1.4-3,2c-0.7,0.4-1.4,0.8-2.1,1.2c-1,0.6-2.1,1.1-3.2,1.6
			c-0.7,0.4-1.5,0.7-2.3,1c-1.1,0.5-2.2,0.9-3.4,1.3c-0.8,0.3-1.6,0.6-2.3,0.8c-1.2,0.4-2.4,0.7-3.7,1c-0.8,0.2-1.5,0.4-2.3,0.6
			c-1.4,0.3-2.8,0.5-4.2,0.7c-0.7,0.1-1.4,0.2-2,0.3c-2.1,0.2-4.2,0.3-6.4,0.3c-2.2,0-4.3-0.1-6.4-0.3c-0.7-0.1-1.4-0.2-2-0.3
			c-1.4-0.2-2.8-0.4-4.2-0.7c-0.8-0.2-1.6-0.4-2.3-0.6c-1.2-0.3-2.5-0.6-3.7-1c-0.8-0.2-1.6-0.5-2.3-0.8c-1.1-0.4-2.3-0.8-3.4-1.3
			c-0.8-0.3-1.5-0.7-2.3-1c-1.1-0.5-2.1-1.1-3.2-1.6c-0.7-0.4-1.4-0.8-2.1-1.2c-1-0.6-2-1.3-3-2c-0.6-0.4-1.3-0.9-1.9-1.3
			c-1-0.8-2-1.6-2.9-2.4c-0.5-0.5-1.1-0.9-1.6-1.4c-1-0.9-2-1.9-2.9-2.9c-0.3-0.4-0.7-0.7-1-1c0,0,0,0,0,0c-8.7-9.8-14-22.4-14-36.3
			C236.5,258.5,263,233.3,295.7,233.3z"/>
		<path class="st0" d="M398.1,303.4c3.9,0,7-3.1,7-7c0-3.9-3.2-7-7-7c-3.9,0-7.1,3-7.1,7C391,300.3,394.3,303.4,398.1,303.4z"/>
		<path class="st1" d="M106.3,394.4V406c0,8.6,7,15.7,15.7,15.7h353.5c8.6,0,15.7-7,15.7-15.7v-11.6H106.3z"/>
		<path class="st2" d="M470.7,385.5c3.2-4.4,5.2-9.8,5.2-15.7V189.1c0-14.6-11.9-26.5-26.5-26.5H246.5c-0.8,3.1-2,6.1-3.4,8.8h206.3
			c9.8,0,17.7,7.9,17.7,17.7v180.7c0,6.9-4,12.7-9.7,15.7H132.1c-5.7-2.9-9.7-8.8-9.7-15.7V195.5h-8.8v174.3
			c0,5.9,1.9,11.3,5.2,15.7H97.5V406c0,13.5,11,24.5,24.5,24.5h353.5c13.5,0,24.5-11,24.5-24.5v-20.5H470.7z M491.2,406
			c0,8.6-7,15.7-15.7,15.7H122c-8.6,0-15.7-7-15.7-15.7v-11.6h384.8V406z"/>
		<path class="st0" d="M295.7,289.5c18.8,0,34.9,10.7,42,26.1c5.3-7.5,8.4-16.5,8.4-26.1c0-26.1-22.6-47.4-50.4-47.4
			s-50.4,21.3-50.4,47.4c0,9.6,3.1,18.6,8.4,26.1C260.8,300.3,276.9,289.5,295.7,289.5z M295.7,244.9c11.2,0,20.3,8.6,20.3,19.3
			c0,10.6-9.1,19.3-20.3,19.3c-11.2,0-20.3-8.6-20.3-19.3C275.4,253.6,284.5,244.9,295.7,244.9z"/>
		<path class="st0" d="M295.7,298.4c-16.6,0-30.9,10.2-35.5,24.8c9.4,8.8,22.1,13.8,35.5,13.8s26.1-5,35.5-13.8
			C326.6,308.6,312.4,298.4,295.7,298.4z"/>
		<path class="st3" d="M250.5,325.8c0.3,0.4,0.7,0.7,1,1c0.9,1,1.9,2,2.9,2.9c0.5,0.5,1.1,0.9,1.6,1.4c0.9,0.8,1.9,1.6,2.9,2.4
			c0.6,0.5,1.3,0.9,1.9,1.3c1,0.7,2,1.4,3,2c0.7,0.4,1.4,0.8,2.1,1.2c1,0.6,2.1,1.1,3.2,1.6c0.7,0.4,1.5,0.7,2.3,1
			c1.1,0.5,2.2,0.9,3.4,1.3c0.8,0.3,1.6,0.6,2.3,0.8c1.2,0.4,2.4,0.7,3.7,1c0.8,0.2,1.5,0.4,2.3,0.6c1.4,0.3,2.8,0.5,4.2,0.7
			c0.7,0.1,1.4,0.2,2,0.3c2.1,0.2,4.2,0.3,6.4,0.3c2.2,0,4.3-0.1,6.4-0.3c0.7-0.1,1.4-0.2,2-0.3c1.4-0.2,2.8-0.4,4.2-0.7
			c0.8-0.2,1.6-0.4,2.3-0.6c1.2-0.3,2.5-0.6,3.7-1c0.8-0.2,1.6-0.5,2.3-0.8c1.1-0.4,2.3-0.8,3.4-1.3c0.8-0.3,1.5-0.7,2.3-1
			c1.1-0.5,2.1-1.1,3.2-1.6c0.7-0.4,1.4-0.8,2.1-1.2c1-0.6,2-1.3,3-2c0.6-0.4,1.3-0.9,1.9-1.3c1-0.8,2-1.6,2.9-2.4
			c0.5-0.5,1.1-0.9,1.6-1.4c1-0.9,2-1.9,2.9-2.9c0.3-0.4,0.7-0.7,1-1c0,0,0,0,0,0c8.7-9.8,14-22.4,14-36.3
			c0-31.1-26.5-56.2-59.3-56.2s-59.3,25.2-59.3,56.2C236.5,303.4,241.8,316,250.5,325.8C250.5,325.8,250.5,325.8,250.5,325.8z
			 M295.7,336.9c-13.4,0-26.1-5-35.5-13.8c4.6-14.6,18.9-24.8,35.5-24.8s30.9,10.2,35.5,24.8C321.8,332,309.1,336.9,295.7,336.9z
			 M245.3,289.5c0-26.1,22.6-47.4,50.4-47.4s50.4,21.3,50.4,47.4c0,9.6-3.1,18.6-8.4,26.1c-7.1-15.4-23.2-26.1-42-26.1
			s-34.9,10.7-42,26.1C248.4,308.1,245.3,299.2,245.3,289.5z"/>
		<path class="st0" d="M295.7,274.6c6.3,0,11.4-4.7,11.4-10.4c0-5.7-5.1-10.4-11.4-10.4s-11.4,4.7-11.4,10.4
			C284.3,269.9,289.4,274.6,295.7,274.6z"/>
		<path class="st3" d="M295.7,283.4c11.2,0,20.3-8.6,20.3-19.3c0-10.6-9.1-19.3-20.3-19.3c-11.2,0-20.3,8.6-20.3,19.3
			C275.4,274.8,284.5,283.4,295.7,283.4z M295.7,253.8c6.3,0,11.4,4.7,11.4,10.4c0,5.7-5.1,10.4-11.4,10.4s-11.4-4.7-11.4-10.4
			C284.3,258.5,289.4,253.8,295.7,253.8z"/>
		<path class="st0" d="M110.9,69.8h4.4v0h5c0.1-0.1,0.3-0.1,0.5-0.2c0.5-0.2,0.9-0.5,0.9-0.8c0-0.5-0.2-1-0.6-1.7
			c-2.6-4.5-13.4-12.6-17.4-12.6c-3.9,0-7.3,3.5-7.2,7.7c0,3.7,2.6,6.9,5.9,7.6L110.9,69.8L110.9,69.8z"/>
		<path class="st0" d="M126.8,67.8c-0.1,0.2-0.1,0.3-0.2,0.4c-0.1,0.2-0.1,0.4-0.1,0.6c0,0.2,0.2,0.4,0.8,0.7
			c0.2,0.1,0.4,0.2,0.7,0.3h4.8v0h4.4v0h8.6c3.4-0.7,5.9-3.9,5.9-7.6c0-4.4-3.3-7.7-7.3-7.7c-2.7,0-8.1,3.3-12.3,6.9
			C129.7,63.8,127.6,66.1,126.8,67.8z"/>
		<rect x="76.9" y="74.6" class="st0" width="34" height="19.8"/>
		<rect x="83" y="98.5" class="st0" width="27.9" height="50.5"/>
		<rect x="115.3" y="74.6" class="st0" width="17.5" height="74.5"/>
		<rect x="137.3" y="98.5" class="st0" width="27.9" height="50.5"/>
		<polygon class="st0" points="137.3,94.4 171.3,94.4 171.4,94.4 171.4,74.6 137.3,74.6 		"/>
		<path class="st0" d="M153.1,186.7l25.4,25.4l-1.2-25.4h26.2c19.7,0,35.7-16,35.7-35.7V62.6c0-19.7-16-35.7-35.7-35.7H44.8
			c-19.7,0-35.7,16-35.7,35.7v88.4c0,19.7,16,35.7,35.7,35.7H153.1z M110.9,153.5H78.6v-55h-6.2V70.2H95c-0.9-1-1.7-2.3-2.2-3.6
			c-0.5-1.3-0.8-2.8-0.8-4.3c0-2.5,0.7-4.8,2-6.7c0.8-1.3,1.9-2.3,3.2-3.2c1.2-0.8,2.6-1.5,4.2-1.8c0.8-0.2,1.5-0.2,2.3-0.2
			c2.3,0,6.3,1.8,10.2,4.3c3.9,2.6,7.9,6,10.2,9.2c1.1-1.6,2.7-3.3,4.4-4.9c5.3-4.8,12.4-8.9,16.1-8.9c6.4,0,11.7,5.3,11.7,11.9
			c0,3.2-1.2,6-3.2,8.1h22.7v28.4h-6.1v54.9h-32.3h-0.1H110.9L110.9,153.5z"/>
		<path class="st4" d="M149.5,195.5l38.9,38.9l-1.8-38.9h16.9c17.2,0,32.1-9.8,39.6-24.1c1.5-2.8,2.6-5.8,3.4-8.8
			c1-3.7,1.6-7.6,1.6-11.6V62.6c0-24.6-20-44.6-44.6-44.6H44.8C20.3,18,0.2,38,0.2,62.6v88.4c0,24.6,20,44.6,44.6,44.6h68.7h8.8
			H149.5z M9.1,150.9V62.6c0-19.7,16-35.7,35.7-35.7h158.7c19.7,0,35.7,16,35.7,35.7v88.4c0,19.7-16,35.7-35.7,35.7h-26.2l1.2,25.4
			l-25.4-25.4H44.8C25.1,186.7,9.1,170.6,9.1,150.9z"/>
		<polygon class="st5" points="215.6,302.6 210.8,286.6 207.5,286.6 202.7,302.6 198,286.6 194.6,286.6 194.4,286.6 191.2,286.6 
			186.4,302.6 181.6,286.6 178.4,286.6 173.6,302.6 168.8,286.6 165.5,286.6 165.3,286.6 162,286.6 157.3,302.6 152.5,286.6 
			149.2,286.6 144.5,302.6 139.7,286.6 136.1,286.6 142.7,306.3 146.1,306.3 150.8,290.9 155.5,306.3 158.9,306.3 165.4,286.9 
			171.8,306.3 175.2,306.3 179.9,290.9 184.6,306.3 188,306.3 194.5,286.9 200.9,306.3 204.4,306.3 209.1,290.9 213.8,306.3 
			217.2,306.3 223.7,286.6 220.3,286.6 		"/>
		<path class="st5" d="M226.3,302.8c-1,0-1.8,0.8-1.8,1.8c0,1.1,0.8,1.9,1.8,1.9c1,0,1.8-0.8,1.8-1.9
			C228.1,303.6,227.3,302.8,226.3,302.8z"/>
		<path class="st5" d="M364.5,306.5c1,0,1.8-0.8,1.8-1.9c0-1.1-0.8-1.8-1.8-1.8c-1,0-1.8,0.8-1.8,1.8
			C362.7,305.7,363.5,306.5,364.5,306.5z"/>
		<path class="st5" d="M378.7,306.4c2.8,0,5.6-1.3,7.6-3.2l-2-2.2c-1.5,1.4-3.5,2.3-5.5,2.3c-3.9,0-7-3.1-7-6.9c0-3.9,3.1-6.9,7-6.9
			c2,0,4.1,1,5.5,2.5l1.9-2.4c-1.9-1.9-4.7-3-7.5-3c-5.8,0-10.4,4.3-10.4,9.9C368.5,302,373,306.4,378.7,306.4z"/>
		<path class="st5" d="M398.1,306.4c5.9,0,10.4-4.4,10.4-10c0-5.6-4.6-9.9-10.4-9.9c-5.9,0-10.4,4.3-10.4,9.9
			C387.7,302,392.2,306.4,398.1,306.4z M398.1,289.5c3.9,0,7,3,7,7c0,3.9-3.2,7-7,7c-3.9,0-7.1-3.1-7.1-7
			C391,292.5,394.3,289.5,398.1,289.5z"/>
		<polygon class="st5" points="415.2,291.5 421.4,304.2 423.6,304.2 429.8,291.5 429.8,306.3 432.9,306.3 432.9,286.6 429,286.6 
			422.5,299.7 416,286.6 412.1,286.6 412.1,306.3 415.2,306.3 		"/>
		<rect x="115.3" y="74.4" class="st6" width="17.5" height="0.2"/>
		<path class="st6" d="M97.2,52.4c1.2-0.8,2.6-1.5,4.2-1.8C99.8,51,98.4,51.6,97.2,52.4z"/>
		<polygon class="st6" points="83,149.1 83,98.5 110.9,98.5 110.9,94.4 76.9,94.4 76.9,74.6 110.9,74.6 110.9,74.4 95,74.4 95,70.2 
			110.9,70.2 110.9,70.2 95,70.2 72.5,70.2 72.5,98.5 78.6,98.5 78.6,153.5 110.9,153.5 110.9,149.1 		"/>
		<rect x="115.3" y="70.2" class="st6" width="17.5" height="0"/>
		<path class="st6" d="M121.7,68.9c0-0.5-0.2-1-0.6-1.7C121.5,67.8,121.7,68.4,121.7,68.9L121.7,68.9z"/>
		<path class="st6" d="M126.7,68.3c0-0.1,0.1-0.3,0.2-0.4C126.8,68,126.7,68.1,126.7,68.3z"/>
		<path class="st6" d="M97.2,52.4c-1.2,0.8-2.3,1.9-3.2,3.2C94.9,54.4,96,53.3,97.2,52.4z"/>
		<path class="st6" d="M137.2,70.2h15.6v4.2h-15.6v74.7v4.4h0.1h32.3V98.5h6.1V70.2H153L137.2,70.2L137.2,70.2z M165.2,149.1h-27.9
			V98.5h27.9V149.1z M171.4,74.6v19.8h0h-34V74.6H171.4z"/>
		<path class="st6" d="M94,55.6c-1.3,1.9-2,4.2-2,6.7c0,1.5,0.3,3,0.8,4.3c-0.5-1.3-0.8-2.8-0.8-4.3C92,59.8,92.8,57.5,94,55.6z"/>
		<path class="st6" d="M137.2,149.1V74.4h15.6v-4.2h-15.6v0l15.8,0c2-2.1,3.2-5,3.2-8.1c0-6.6-5.3-11.9-11.7-11.9
			c-3.6,0-10.8,4.1-16.1,8.9c-1.8,1.6-3.3,3.3-4.4,4.9c-2.3-3.3-6.2-6.6-10.2-9.2c-3.9-2.6-7.9-4.3-10.2-4.3c-0.8,0-1.6,0.1-2.3,0.2
			c-1.5,0.3-2.9,0.9-4.2,1.8c-1.2,0.8-2.3,1.9-3.2,3.2c-1.3,1.9-2,4.2-2,6.7c0,1.5,0.3,3,0.8,4.3c0.5,1.3,1.3,2.5,2.2,3.6l15.9,0v0
			H95v4.2h15.9v0.2v19.8v4.2v50.5v4.4h0h26.3V149.1z M144.6,54.6c4,0,7.3,3.3,7.3,7.7c0,3.7-2.6,6.9-5.9,7.6h-8.6v0h-4.4v0H128
			c-0.3-0.1-0.5-0.2-0.7-0.3c-0.6-0.3-0.8-0.5-0.8-0.7c0-0.2,0.1-0.4,0.1-0.6c0-0.1,0.1-0.3,0.2-0.4c0.7-1.7,2.8-4,5.5-6.3
			C136.5,57.9,141.8,54.6,144.6,54.6z M115.3,70.2l17.5,0v0L115.3,70.2L115.3,70.2z M102.4,69.9c-3.4-0.7-5.9-3.9-5.9-7.6
			c0-4.2,3.3-7.7,7.2-7.7c4,0,14.8,8.1,17.4,12.6c0.4,0.6,0.6,1.2,0.6,1.7l0,0c0,0.3-0.4,0.5-0.9,0.8c-0.2,0.1-0.3,0.1-0.5,0.2h-5v0
			h-4.4v0H102.4z M115.3,149.1V74.6v-0.2h17.5v0.2v74.5H115.3z"/>
	</g>
</g>
</svg>
