<?xml version="1.0" encoding="UTF-8"?>
<svg width="270px" height="168px" viewBox="0 0 270 168" version="1.1" xmlns="http://www.w3.org/2000/svg" xmlns:xlink="http://www.w3.org/1999/xlink">
    <title>tarjeta-lp-gris</title>
    <defs>
        <linearGradient x1="50%" y1="0%" x2="50%" y2="100%" id="linearGradient-1">
            <stop stop-color="#FFFFFF" offset="0%"></stop>
            <stop stop-color="#ECECEC" offset="24.392612%"></stop>
            <stop stop-color="#FFFFFF" offset="42.6368316%"></stop>
            <stop stop-color="#EDEDED" offset="59.7859465%"></stop>
            <stop stop-color="#FFFFFF" offset="83.2234465%"></stop>
            <stop stop-color="#DFDFDF" offset="100%"></stop>
        </linearGradient>
    </defs>
    <g id="App" stroke="none" stroke-width="1" fill="none" fill-rule="evenodd">
        <g id="AL-1.7" transform="translate(-53.000000, -292.000000)" fill-rule="nonzero">
            <g id="tarjeta-lp-gris" transform="translate(53.000000, 292.000000)">
                <g id="Tarjeta-Copy-7" fill="#676767">
                    <path d="M14.942028,167.371431 C6.68838058,167.371431 0,161.632982 0,154.551577 L0,12.8198546 C0,5.73844907 6.68838058,0 14.942028,0 L254.451079,0 C262.704726,0 269.393107,5.73844907 269.393107,12.8198546 L269.393107,154.551577 C269.393107,161.632982 262.704726,167.371431 254.451079,167.371431 L14.942028,167.371431 Z" id="XMLID_121_"></path>
                </g>
                <g id="Group-3" opacity="0.1" transform="translate(13.000000, 0.000000)" fill="#FFFFFF">
                    <path d="M115.64977,22.4507352 C115.64977,20.4613591 117.09447,18.8626676 118.997696,18.8626676 L124,18.8626676 L124,13 L118.071429,13 C113.562212,13 110,16.8013863 110,21.4824124 L110,50 L115.654378,50 L115.64977,22.4507352 Z" id="Fill-20"></path>
                    <polygon id="Fill-22" points="25 50 33 50 33 13 25 13"></polygon>
                    <path d="M156.359275,30.2008663 C156.359275,37.6193828 150.199828,43.6607111 142.616759,43.6607111 C135.038482,43.6607111 128.879036,37.6193828 128.879036,30.2008663 C128.879036,22.7846959 135.038482,16.7433676 142.616759,16.7433676 C150.199828,16.7433676 156.359275,22.7846959 156.359275,30.2008663 Z M189.752103,30.2008663 C189.752103,37.6193828 183.585466,43.6607111 176.002397,43.6607111 C168.42412,43.6607111 162.255087,37.6193828 162.255087,30.2008663 C162.255087,22.7846959 168.42412,16.7433676 176.002397,16.7433676 C183.585466,16.7433676 189.752103,22.7846959 189.752103,30.2008663 Z M223.132947,30.2008663 C223.132947,37.6193828 216.971104,43.6607111 209.392828,43.6607111 C201.807362,43.6607111 195.647915,37.6193828 195.647915,30.2008663 C195.647915,22.7846959 201.807362,16.7433676 209.392828,16.7433676 C216.971104,16.7433676 223.132947,22.7846959 223.132947,30.2008663 Z M123,63 L128.929366,63 L128.929366,43.9445948 C132.459664,47.3183541 137.286561,49.3993864 142.616759,49.3993864 C149.67256,49.3993864 155.85837,45.751128 159.309578,40.2799134 C162.763182,45.751128 168.951388,49.3993864 176.002397,49.3993864 C183.051008,49.3993864 189.251198,45.751128 192.695216,40.2799134 C196.14882,45.751128 202.329836,49.3993864 209.392828,49.3993864 C220.223388,49.3993864 229,40.8054503 229,30.2008663 C229,19.5962823 220.223388,11 209.392828,11 C202.329836,11 196.14882,14.6506046 192.695216,20.1265115 C189.251198,14.6506046 183.051008,11 176.002397,11 C168.951388,11 162.763182,14.6529507 159.309578,20.1265115 C155.85837,14.6529507 149.67256,11 142.616759,11 C131.786199,11 123,19.5962823 123,30.2008663 L123,63 Z" id="Fill-24"></path>
                    <path d="M100.82791,27.3864773 L74.1624575,27.3864773 C76.1347329,21.786786 81.5554801,18.1998765 87.5060204,18.1998765 C93.4541525,18.1998765 98.8532263,21.786786 100.82791,27.3864773 Z M106.441309,35.8808274 L100.729176,35.8808274 C98.7617166,41.2177833 93.4710096,44.8046928 87.5060204,44.8046928 C80.2550787,44.8046928 74.2274776,39.6230935 73.5194813,32.5886385 L107,32.5886385 L107,31.4988577 C107,21.2978697 98.2511886,13 87.5060204,13 C76.7512195,13 68,21.2978697 68,31.4988577 C68,41.697561 76.7512195,50 87.5060204,50 C96.5678913,50 104.310096,44.2083977 106.441309,35.8808274 Z" id="Fill-25"></path>
                    <polygon id="Fill-26" points="54.717682 50 69 13 62.4902771 13 50.9965114 42.7792636 39.5027457 13 33 13 47.2776665 50"></polygon>
                    <polygon id="Fill-27" points="232 49 240 49 240 2.9267811e-15 232 2.9267811e-15"></polygon>
                    <path d="M5.73095071,0 L5.73095071,39.8214887 C5.74942275,41.8019535 6.86929023,43.3486022 9.08362614,43.3486022 L23,43.3486022 L23,49 L3.82371248,48.9976423 C1.40387511,48.9976423 0,47.4887167 0,45.3054901 L0,0 L5.73095071,0 Z" id="Fill-28"></path>
                    <polygon id="Fill-30" points="25 8 33 8 33 0 25 0"></polygon>
                </g>
                <g id="Group-3-Copy" opacity="0.1" transform="translate(13.000000, 52.000000)" fill="#FFFFFF">
                    <path d="M115.64977,22.4507352 C115.64977,20.4613591 117.09447,18.8626676 118.997696,18.8626676 L124,18.8626676 L124,13 L118.071429,13 C113.562212,13 110,16.8013863 110,21.4824124 L110,50 L115.654378,50 L115.64977,22.4507352 Z" id="Fill-20"></path>
                    <polygon id="Fill-22" points="25 50 33 50 33 13 25 13"></polygon>
                    <path d="M156.359275,30.2008663 C156.359275,37.6193828 150.199828,43.6607111 142.616759,43.6607111 C135.038482,43.6607111 128.879036,37.6193828 128.879036,30.2008663 C128.879036,22.7846959 135.038482,16.7433676 142.616759,16.7433676 C150.199828,16.7433676 156.359275,22.7846959 156.359275,30.2008663 Z M189.752103,30.2008663 C189.752103,37.6193828 183.585466,43.6607111 176.002397,43.6607111 C168.42412,43.6607111 162.255087,37.6193828 162.255087,30.2008663 C162.255087,22.7846959 168.42412,16.7433676 176.002397,16.7433676 C183.585466,16.7433676 189.752103,22.7846959 189.752103,30.2008663 Z M223.132947,30.2008663 C223.132947,37.6193828 216.971104,43.6607111 209.392828,43.6607111 C201.807362,43.6607111 195.647915,37.6193828 195.647915,30.2008663 C195.647915,22.7846959 201.807362,16.7433676 209.392828,16.7433676 C216.971104,16.7433676 223.132947,22.7846959 223.132947,30.2008663 Z M123,63 L128.929366,63 L128.929366,43.9445948 C132.459664,47.3183541 137.286561,49.3993864 142.616759,49.3993864 C149.67256,49.3993864 155.85837,45.751128 159.309578,40.2799134 C162.763182,45.751128 168.951388,49.3993864 176.002397,49.3993864 C183.051008,49.3993864 189.251198,45.751128 192.695216,40.2799134 C196.14882,45.751128 202.329836,49.3993864 209.392828,49.3993864 C220.223388,49.3993864 229,40.8054503 229,30.2008663 C229,19.5962823 220.223388,11 209.392828,11 C202.329836,11 196.14882,14.6506046 192.695216,20.1265115 C189.251198,14.6506046 183.051008,11 176.002397,11 C168.951388,11 162.763182,14.6529507 159.309578,20.1265115 C155.85837,14.6529507 149.67256,11 142.616759,11 C131.786199,11 123,19.5962823 123,30.2008663 L123,63 Z" id="Fill-24"></path>
                    <path d="M100.82791,27.3864773 L74.1624575,27.3864773 C76.1347329,21.786786 81.5554801,18.1998765 87.5060204,18.1998765 C93.4541525,18.1998765 98.8532263,21.786786 100.82791,27.3864773 Z M106.441309,35.8808274 L100.729176,35.8808274 C98.7617166,41.2177833 93.4710096,44.8046928 87.5060204,44.8046928 C80.2550787,44.8046928 74.2274776,39.6230935 73.5194813,32.5886385 L107,32.5886385 L107,31.4988577 C107,21.2978697 98.2511886,13 87.5060204,13 C76.7512195,13 68,21.2978697 68,31.4988577 C68,41.697561 76.7512195,50 87.5060204,50 C96.5678913,50 104.310096,44.2083977 106.441309,35.8808274 Z" id="Fill-25"></path>
                    <polygon id="Fill-26" points="54.717682 50 69 13 62.4902771 13 50.9965114 42.7792636 39.5027457 13 33 13 47.2776665 50"></polygon>
                    <polygon id="Fill-27" points="232 49 240 49 240 2.9267811e-15 232 2.9267811e-15"></polygon>
                    <path d="M5.73095071,0 L5.73095071,39.8214887 C5.74942275,41.8019535 6.86929023,43.3486022 9.08362614,43.3486022 L23,43.3486022 L23,49 L3.82371248,48.9976423 C1.40387511,48.9976423 0,47.4887167 0,45.3054901 L0,0 L5.73095071,0 Z" id="Fill-28"></path>
                    <polygon id="Fill-30" points="25 8 33 8 33 0 25 0"></polygon>
                </g>
                <g id="Group-3-Copy-2" opacity="0.1" transform="translate(13.000000, 105.000000)" fill="#FFFFFF">
                    <path d="M115.64977,22.4507352 C115.64977,20.4613591 117.09447,18.8626676 118.997696,18.8626676 L124,18.8626676 L124,13 L118.071429,13 C113.562212,13 110,16.8013863 110,21.4824124 L110,50 L115.654378,50 L115.64977,22.4507352 Z" id="Fill-20"></path>
                    <polygon id="Fill-22" points="25 50 33 50 33 13 25 13"></polygon>
                    <path d="M156.359275,30.2008663 C156.359275,37.6193828 150.199828,43.6607111 142.616759,43.6607111 C135.038482,43.6607111 128.879036,37.6193828 128.879036,30.2008663 C128.879036,22.7846959 135.038482,16.7433676 142.616759,16.7433676 C150.199828,16.7433676 156.359275,22.7846959 156.359275,30.2008663 Z M189.752103,30.2008663 C189.752103,37.6193828 183.585466,43.6607111 176.002397,43.6607111 C168.42412,43.6607111 162.255087,37.6193828 162.255087,30.2008663 C162.255087,22.7846959 168.42412,16.7433676 176.002397,16.7433676 C183.585466,16.7433676 189.752103,22.7846959 189.752103,30.2008663 Z M223.132947,30.2008663 C223.132947,37.6193828 216.971104,43.6607111 209.392828,43.6607111 C201.807362,43.6607111 195.647915,37.6193828 195.647915,30.2008663 C195.647915,22.7846959 201.807362,16.7433676 209.392828,16.7433676 C216.971104,16.7433676 223.132947,22.7846959 223.132947,30.2008663 Z M123,63 L128.929366,63 L128.929366,43.9445948 C132.459664,47.3183541 137.286561,49.3993864 142.616759,49.3993864 C149.67256,49.3993864 155.85837,45.751128 159.309578,40.2799134 C162.763182,45.751128 168.951388,49.3993864 176.002397,49.3993864 C183.051008,49.3993864 189.251198,45.751128 192.695216,40.2799134 C196.14882,45.751128 202.329836,49.3993864 209.392828,49.3993864 C220.223388,49.3993864 229,40.8054503 229,30.2008663 C229,19.5962823 220.223388,11 209.392828,11 C202.329836,11 196.14882,14.6506046 192.695216,20.1265115 C189.251198,14.6506046 183.051008,11 176.002397,11 C168.951388,11 162.763182,14.6529507 159.309578,20.1265115 C155.85837,14.6529507 149.67256,11 142.616759,11 C131.786199,11 123,19.5962823 123,30.2008663 L123,63 Z" id="Fill-24"></path>
                    <path d="M100.82791,27.3864773 L74.1624575,27.3864773 C76.1347329,21.786786 81.5554801,18.1998765 87.5060204,18.1998765 C93.4541525,18.1998765 98.8532263,21.786786 100.82791,27.3864773 Z M106.441309,35.8808274 L100.729176,35.8808274 C98.7617166,41.2177833 93.4710096,44.8046928 87.5060204,44.8046928 C80.2550787,44.8046928 74.2274776,39.6230935 73.5194813,32.5886385 L107,32.5886385 L107,31.4988577 C107,21.2978697 98.2511886,13 87.5060204,13 C76.7512195,13 68,21.2978697 68,31.4988577 C68,41.697561 76.7512195,50 87.5060204,50 C96.5678913,50 104.310096,44.2083977 106.441309,35.8808274 Z" id="Fill-25"></path>
                    <polygon id="Fill-26" points="54.717682 50 69 13 62.4902771 13 50.9965114 42.7792636 39.5027457 13 33 13 47.2776665 50"></polygon>
                    <polygon id="Fill-27" points="232 49 240 49 240 2.9267811e-15 232 2.9267811e-15"></polygon>
                    <path d="M5.73095071,0 L5.73095071,39.8214887 C5.74942275,41.8019535 6.86929023,43.3486022 9.08362614,43.3486022 L23,43.3486022 L23,49 L3.82371248,48.9976423 C1.40387511,48.9976423 0,47.4887167 0,45.3054901 L0,0 L5.73095071,0 Z" id="Fill-28"></path>
                    <polygon id="Fill-30" points="25 8 33 8 33 0 25 0"></polygon>
                </g>
                <rect id="Rectangle-11-Copy" fill="url(#linearGradient-1)" x="200" y="113" width="54" height="38" rx="5"></rect>
                <g id="Group-27-Copy-2" transform="translate(208.000000, 125.000000)" fill="#FFFFFF">
                    <path d="M10.320446,9.90606271 L6.17650382,9.90606271 C5.71599909,9.90606271 5.56710056,9.64440822 5.56710056,9.28720262 C5.56710056,8.99777164 5.56469897,0.188181624 5.56469897,0.188181624 L4.10813511,0.188181624 L4.10813511,10.528256 C4.10813511,10.9621247 4.51400369,11.248778 4.81300155,11.248778 L10.320446,11.248778 L10.320446,9.90606271 Z" id="Fill-1"></path>
                    <path d="M10.320446,11.7609208 L10.320446,13.1064138 L2.96317746,13.1064138 C2.45944412,13.1064138 2.11061329,12.7580966 2.11061329,12.3075621 C2.11541647,11.7786978 2.11061329,0.187570542 2.11061329,0.187570542 L3.56117317,0.187570542 L3.56117317,10.9248486 C3.56117317,11.3959378 3.78271978,11.7609208 4.40413098,11.7609208 L10.320446,11.7609208 Z" id="Fill-3"></path>
                    <path d="M0.0998827262,0.187792753 L1.55884817,0.187792753 L1.55884817,12.6861 C1.55884817,13.1388567 1.80320987,13.6171678 2.51708226,13.6171678 L10.320446,13.6171678 L10.320446,14.9593275 L1.83322974,14.9593275 C0.864788889,14.9593275 0.0998827262,14.2171399 0.0998827262,13.3316255 L0.0998827262,0.187792753 Z" id="Fill-6"></path>
                    <path d="M6.11064023,0.187792753 L7.56900528,0.187792753 L7.56900528,7.52689565 C7.56900528,7.79354991 7.69989189,8.04853804 8.11476643,8.04853804 L10.3206261,8.04853804 L10.3206261,9.39514204 L6.85153051,9.39514204 C6.3177773,9.39514204 6.11064023,9.08182329 6.11064023,8.72406216 L6.11064023,0.187792753 Z" id="Fill-9"></path>
                    <path d="M8.12143084,5.2412798 L12.2647726,5.2412798 C12.7258777,5.2412798 12.8747763,5.50348982 12.8747763,5.86069541 C12.8747763,6.14901533 12.8765775,14.9586053 12.8765775,14.9586053 L14.3331413,14.9586053 L14.3331413,4.61908653 C14.3331413,4.18577336 13.9272727,3.89856451 13.6282749,3.89856451 L8.12083044,3.89856451 L8.12143084,5.2412798 Z" id="Fill-11"></path>
                    <path d="M8.12053024,3.38642167 L8.12053024,2.04092873 L15.4783992,2.04092873 C15.9815321,2.04092873 16.3309633,2.38924586 16.3309633,2.83978045 C16.3255598,3.36808919 16.3309633,14.9592164 16.3309633,14.9592164 L14.8804035,14.9592164 L14.8804035,4.22249388 C14.8804035,3.75084916 14.6582565,3.38642167 14.0380461,3.38642167 L8.12053024,3.38642167 Z" id="Fill-13"></path>
                    <path d="M18.3410935,14.959272 L16.8827285,14.959272 L16.8827285,2.46096474 C16.8827285,2.00876356 16.6377664,1.53045249 15.923894,1.53045249 L8.12053024,1.53045249 L8.12053024,0.1877372 L16.6089473,0.1877372 C17.5767877,0.1877372 18.3410935,0.931035942 18.3410935,1.81599476 L18.3410935,14.959272 Z" id="Fill-15"></path>
                    <path d="M12.3312366,14.959272 L10.8722712,14.959272 L10.8722712,7.62128015 C10.8722712,7.35407036 10.7407841,7.09908223 10.3271104,7.09908223 L8.12125072,7.09908223 L8.12125072,5.7519227 L11.5891455,5.7519227 C12.1228987,5.7519227 12.3312366,6.06635251 12.3312366,6.42355811 L12.3312366,14.959272 Z" id="Fill-18"></path>
                </g>
                <g id="Group-27-Copy-3" transform="translate(235.000000, 114.000000)" fill="#FFFFFF">
                    <path d="M10.320446,9.90606271 L6.17650382,9.90606271 C5.71599909,9.90606271 5.56710056,9.64440822 5.56710056,9.28720262 C5.56710056,8.99777164 5.56469897,0.188181624 5.56469897,0.188181624 L4.10813511,0.188181624 L4.10813511,10.528256 C4.10813511,10.9621247 4.51400369,11.248778 4.81300155,11.248778 L10.320446,11.248778 L10.320446,9.90606271 Z" id="Fill-1"></path>
                    <path d="M10.320446,11.7609208 L10.320446,13.1064138 L2.96317746,13.1064138 C2.45944412,13.1064138 2.11061329,12.7580966 2.11061329,12.3075621 C2.11541647,11.7786978 2.11061329,0.187570542 2.11061329,0.187570542 L3.56117317,0.187570542 L3.56117317,10.9248486 C3.56117317,11.3959378 3.78271978,11.7609208 4.40413098,11.7609208 L10.320446,11.7609208 Z" id="Fill-3"></path>
                    <path d="M0.0998827262,0.187792753 L1.55884817,0.187792753 L1.55884817,12.6861 C1.55884817,13.1388567 1.80320987,13.6171678 2.51708226,13.6171678 L10.320446,13.6171678 L10.320446,14.9593275 L1.83322974,14.9593275 C0.864788889,14.9593275 0.0998827262,14.2171399 0.0998827262,13.3316255 L0.0998827262,0.187792753 Z" id="Fill-6"></path>
                    <path d="M6.11064023,0.187792753 L7.56900528,0.187792753 L7.56900528,7.52689565 C7.56900528,7.79354991 7.69989189,8.04853804 8.11476643,8.04853804 L10.3206261,8.04853804 L10.3206261,9.39514204 L6.85153051,9.39514204 C6.3177773,9.39514204 6.11064023,9.08182329 6.11064023,8.72406216 L6.11064023,0.187792753 Z" id="Fill-9"></path>
                    <path d="M8.12143084,5.2412798 L12.2647726,5.2412798 C12.7258777,5.2412798 12.8747763,5.50348982 12.8747763,5.86069541 C12.8747763,6.14901533 12.8765775,14.9586053 12.8765775,14.9586053 L14.3331413,14.9586053 L14.3331413,4.61908653 C14.3331413,4.18577336 13.9272727,3.89856451 13.6282749,3.89856451 L8.12083044,3.89856451 L8.12143084,5.2412798 Z" id="Fill-11"></path>
                    <path d="M8.12053024,3.38642167 L8.12053024,2.04092873 L15.4783992,2.04092873 C15.9815321,2.04092873 16.3309633,2.38924586 16.3309633,2.83978045 C16.3255598,3.36808919 16.3309633,14.9592164 16.3309633,14.9592164 L14.8804035,14.9592164 L14.8804035,4.22249388 C14.8804035,3.75084916 14.6582565,3.38642167 14.0380461,3.38642167 L8.12053024,3.38642167 Z" id="Fill-13"></path>
                    <path d="M18.3410935,14.959272 L16.8827285,14.959272 L16.8827285,2.46096474 C16.8827285,2.00876356 16.6377664,1.53045249 15.923894,1.53045249 L8.12053024,1.53045249 L8.12053024,0.1877372 L16.6089473,0.1877372 C17.5767877,0.1877372 18.3410935,0.931035942 18.3410935,1.81599476 L18.3410935,14.959272 Z" id="Fill-15"></path>
                    <path d="M12.3312366,14.959272 L10.8722712,14.959272 L10.8722712,7.62128015 C10.8722712,7.35407036 10.7407841,7.09908223 10.3271104,7.09908223 L8.12125072,7.09908223 L8.12125072,5.7519227 L11.5891455,5.7519227 C12.1228987,5.7519227 12.3312366,6.06635251 12.3312366,6.42355811 L12.3312366,14.959272 Z" id="Fill-18"></path>
                </g>
                <g id="Group-31-Copy" transform="translate(136.000000, 18.000000)" fill="#FFFFFF">
                    <g id="Group-27">
                        <path d="M13.0363528,13.2080836 L7.80189956,13.2080836 C7.22020937,13.2080836 7.03212702,12.859211 7.03212702,12.3829368 C7.03212702,11.9970289 7.02909343,0.250908832 7.02909343,0.250908832 L5.1892233,0.250908832 L5.1892233,14.0376746 C5.1892233,14.6161662 5.7018994,14.9983707 6.0795809,14.9983707 L13.0363528,14.9983707 L13.0363528,13.2080836 Z" id="Fill-1"></path>
                        <path d="M13.0363528,15.6812278 L13.0363528,17.4752184 L3.742961,17.4752184 C3.10666626,17.4752184 2.66603784,17.0107955 2.66603784,16.4100827 C2.67210501,15.7049304 2.66603784,0.250094055 2.66603784,0.250094055 L4.49832401,0.250094055 L4.49832401,14.5664648 C4.49832401,15.1945838 4.77817235,15.6812278 5.56311282,15.6812278 L13.0363528,15.6812278 Z" id="Fill-3"></path>
                        <path d="M0.126167654,0.250390338 L1.96907137,0.250390338 L1.96907137,16.9148 C1.96907137,17.5184756 2.27773879,18.1562237 3.17947233,18.1562237 L13.0363528,18.1562237 L13.0363528,19.9457701 L2.31565861,19.9457701 C1.09236491,19.9457701 0.126167654,18.9561865 0.126167654,17.7755007 L0.126167654,0.250390338 Z" id="Fill-6"></path>
                        <path d="M7.71870345,0.250390338 L9.56084878,0.250390338 L9.56084878,10.0358609 C9.56084878,10.3913999 9.72617923,10.7313841 10.2502313,10.7313841 L13.0365804,10.7313841 L13.0365804,12.5268561 L8.65456485,12.5268561 C7.98035028,12.5268561 7.71870345,12.1090977 7.71870345,11.6320829 L7.71870345,0.250390338 Z" id="Fill-9"></path>
                        <path d="M10.2586495,6.98837306 L15.4923444,6.98837306 C16.0747929,6.98837306 16.2628753,7.33798642 16.2628753,7.81426055 C16.2628753,8.19868711 16.2651505,19.9448071 16.2651505,19.9448071 L18.1050206,19.9448071 L18.1050206,6.15878204 C18.1050206,5.58103115 17.5923445,5.19808601 17.214663,5.19808601 L10.2578911,5.19808601 L10.2586495,6.98837306 Z" id="Fill-11"></path>
                        <path d="M10.2575119,4.5152289 L10.2575119,2.72123831 L19.5516621,2.72123831 C20.1871985,2.72123831 20.6285853,3.18566114 20.6285853,3.78637393 C20.6217597,4.49078559 20.6285853,19.9456219 20.6285853,19.9456219 L18.7962991,19.9456219 L18.7962991,5.62999183 C18.7962991,5.00113221 18.5156924,4.5152289 17.7322687,4.5152289 L10.2575119,4.5152289 Z" id="Fill-13"></path>
                        <path d="M23.1676971,19.945696 L21.3255517,19.945696 L21.3255517,3.28128632 C21.3255517,2.67835142 21.0161259,2.04060332 20.1143924,2.04060332 L10.2575119,2.04060332 L10.2575119,0.250316267 L20.9797229,0.250316267 C22.2022582,0.250316267 23.1676971,1.24138126 23.1676971,2.42132634 L23.1676971,19.945696 Z" id="Fill-15"></path>
                        <path d="M15.5762989,19.945696 L13.7333951,19.945696 L13.7333951,10.1617069 C13.7333951,9.80542715 13.5673063,9.46544297 13.044771,9.46544297 L10.258422,9.46544297 L10.258422,7.66923027 L14.6389207,7.66923027 C15.3131352,7.66923027 15.5762989,8.08847001 15.5762989,8.56474415 L15.5762989,19.945696 Z" id="Fill-18"></path>
                    </g>
                    <path d="M69.0177749,11.0651033 C69.0177749,10.4199002 69.5337393,9.90140571 70.2134628,9.90140571 L72,9.90140571 L72,8 L69.8826531,8 C68.2722186,8 67,9.23288204 67,10.7510527 L67,20 L69.0194207,20 L69.0177749,11.0651033 Z" id="Fill-20"></path>
                    <polygon id="Fill-22" points="39 20 41 20 41 8 39 8"></polygon>
                    <polygon id="Fill-22" points="39 6 41 6 41 4 39 4"></polygon>
                    <path d="M83.0148548,14.2772063 C83.0148548,16.7024905 80.9810753,18.6775402 78.4772316,18.6775402 C75.9749706,18.6775402 73.9411911,16.7024905 73.9411911,14.2772063 C73.9411911,11.852689 75.9749706,9.87763942 78.4772316,9.87763942 C80.9810753,9.87763942 83.0148548,11.852689 83.0148548,14.2772063 Z M94.0407886,14.2772063 C94.0407886,16.7024905 92.0046351,18.6775402 89.5007914,18.6775402 C86.9985303,18.6775402 84.9615854,16.7024905 84.9615854,14.2772063 C84.9615854,11.852689 86.9985303,9.87763942 89.5007914,9.87763942 C92.0046351,9.87763942 94.0407886,11.852689 94.0407886,14.2772063 Z M105.062766,14.2772063 C105.062766,16.7024905 103.028195,18.6775402 100.525934,18.6775402 C98.0212987,18.6775402 95.9875192,16.7024905 95.9875192,14.2772063 C95.9875192,11.852689 98.0212987,9.87763942 100.525934,9.87763942 C103.028195,9.87763942 105.062766,11.852689 105.062766,14.2772063 Z M72,25 L73.9578095,25 L73.9578095,18.7703483 C75.1234738,19.8733081 76.7172606,20.5536456 78.4772316,20.5536456 C80.8069775,20.5536456 82.8494619,19.3609457 83.9890115,17.5722794 C85.1293524,19.3609457 87.1726282,20.5536456 89.5007914,20.5536456 C91.8281632,20.5536456 93.8753957,19.3609457 95.0125712,17.5722794 C96.1529122,19.3609457 98.1938139,20.5536456 100.525934,20.5536456 C104.102062,20.5536456 107,17.7440895 107,14.2772063 C107,10.810323 104.102062,8 100.525934,8 C98.1938139,8 96.1529122,9.19346688 95.0125712,10.9836672 C93.8753957,9.19346688 91.8281632,8 89.5007914,8 C87.1726282,8 85.1293524,9.19423389 83.9890115,10.9836672 C82.8494619,9.19423389 80.8069775,8 78.4772316,8 C74.9011034,8 72,10.810323 72,14.2772063 L72,25 Z" id="Fill-24"></path>
                    <path d="M63.9426366,12.0547082 L55.0541525,12.0547082 C55.7115776,10.0872492 57.5184934,8.82698364 59.5020068,8.82698364 C61.4847175,8.82698364 63.2844088,10.0872492 63.9426366,12.0547082 Z M65.8137697,15.0392096 L63.9097252,15.0392096 C63.2539055,16.9143563 61.4903365,18.1746218 59.5020068,18.1746218 C57.0850262,18.1746218 55.0758259,16.3540599 54.8398271,13.8824946 L66,13.8824946 L66,13.4995986 C66,9.91546774 63.0837295,7 59.5020068,7 C55.9170732,7 53,9.91546774 53,13.4995986 C53,17.0829268 55.9170732,20 59.5020068,20 C62.5226304,20 65.1033652,17.9651127 65.8137697,15.0392096 Z" id="Fill-25"></path>
                    <polygon id="Fill-26" points="49.2392273 20 54 8 51.8300924 8 47.9988371 17.6581395 44.1675819 8 42 8 46.7592222 20"></polygon>
                    <polygon id="Fill-27" points="108 20 110 20 110 4 108 4"></polygon>
                    <path d="M31.9933742,4 L31.9933742,17.0029351 C31.9997992,17.6496175 32.3893183,18.1546456 33.1595221,18.1546456 L38,18.1546456 L38,20 L31.3299869,19.9992301 C30.4883044,19.9992301 30,19.5065198 30,18.7936294 L30,4 L31.9933742,4 Z" id="Fill-28"></path>
                    <path d="M113.476795,5.41919505 C113.679146,5.41919505 113.810953,5.34210526 113.810953,5.1749226 C113.810953,5.02724458 113.691213,4.93436533 113.523205,4.93436533 L113.101795,4.93436533 L113.101795,5.41919505 L113.476795,5.41919505 Z M112.840965,4.71517028 L113.551052,4.71517028 C113.952042,4.71517028 114.084777,4.96408669 114.084777,5.13591331 C114.084777,5.39876161 113.90099,5.58637771 113.62995,5.60123839 L113.62995,5.6123839 C113.767327,5.65882353 113.867574,5.79814241 114.000309,6.0126935 L114.197092,6.32662539 L113.882426,6.32662539 L113.737624,6.0749226 C113.533416,5.71362229 113.457302,5.64210526 113.26052,5.64210526 L113.101795,5.64210526 L113.101795,6.32662539 L112.840965,6.32662539 L112.840965,4.71517028 Z M112.251547,5.49628483 C112.251547,6.1873065 112.80755,6.7501548 113.497215,6.7501548 C114.187809,6.7501548 114.751238,6.1873065 114.751238,5.49628483 C114.751238,4.80340557 114.187809,4.24613003 113.497215,4.24613003 C112.80755,4.24613003 112.251547,4.80340557 112.251547,5.49628483 Z M112,5.49628483 C112,4.66501548 112.670173,4 113.497215,4 C114.32797,4 115,4.66501548 115,5.49628483 C115,6.32662539 114.32797,7 113.497215,7 C112.670173,7 112,6.32662539 112,5.49628483 Z" id="Fill-29"></path>
                </g>
            </g>
        </g>
    </g>
</svg>