<svg xmlns="http://www.w3.org/2000/svg" width="267" height="166" viewBox="0 0 267 166">
    <defs>
        <linearGradient id="a" x1="50%" x2="50%" y1="0%" y2="100%">
            <stop offset="0%" stop-color="#FFF"/>
            <stop offset="24.393%" stop-color="#ECECEC"/>
            <stop offset="42.637%" stop-color="#FFF"/>
            <stop offset="59.786%" stop-color="#EDEDED"/>
            <stop offset="83.223%" stop-color="#FFF"/>
            <stop offset="100%" stop-color="#DFDFDF"/>
        </linearGradient>
        <linearGradient id="b" x1="50%" x2="50%" y1="64.076%" y2="36.188%">
            <stop offset="0%" stop-color="#F6F6F6"/>
            <stop offset="100%" stop-color="#EFECEB"/>
        </linearGradient>
        <linearGradient id="c" x1="50%" x2="50%" y1="64.076%" y2="43.059%">
            <stop offset="0%" stop-color="#F6F6F6"/>
            <stop offset="20.522%" stop-color="#EEE"/>
            <stop offset="51.669%" stop-color="#EFECEB"/>
            <stop offset="100%" stop-color="#F9F9F9"/>
        </linearGradient>
    </defs>
    <g fill="none" fill-rule="evenodd">
        <g>
            <path fill="#EE3441" fill-rule="nonzero" d="M15.714 165.32c-8.145 0-14.745-5.668-14.745-12.663V12.663C.97 5.668 7.57 0 15.714 0H252.06c8.144 0 14.744 5.668 14.744 12.663v139.994c0 6.995-6.6 12.663-14.744 12.663H15.714z"/>
            <path fill="#DBD5D2" d="M113.361 148.059c6.38 1.87 13.234 2.957 20.24 2.957 38.302 0 69.597-31.295 69.597-69.592 0-19.462-8.098-37.058-21.023-49.67l3.427-3.579c13.856 13.543 22.576 32.383 22.576 53.249 0 41.102-33.474 74.576-74.576 74.576-8.72 0-16.97-1.557-24.755-4.358l-6.232-2.492c65.861-15.417 32.387-110.698 93.577-134.987 4.67-1.714 8.872-1.557 11.83-1.87l-2.489 11.211c-23.667-6.384-32.23 13.234-39.236 38.61h14.169V73.17h-16.97c-8.254 32.23-16.817 68.974-50.135 74.889zm13.078-57.92c-23.198-36.275-63.212-11.986-67.261 10.277-7.628 29.582 23.04 58.854 56.05 41.259 32.851-15.257 30.203-93.882 58.075-117.392 1.244-1.092 2.649-2.183 4.358-2.805l-.935-.779C164.584 11.98 149.636 7 133.602 7c-40.95 0-74.424 33.474-74.424 74.424 0 2.488 0 4.823.309 7.158 1.248-2.178 2.961-4.2 4.518-5.758v-1.4c0-38.306 31.295-69.597 69.597-69.597 14.32 0 27.555 4.358 38.61 11.83-13.234 7.162-20.24 21.953-25.533 38.458h-19.153V73.17h15.883c-8.098 29.425-13.7 60.876-38.61 67.104-68.353 9.185-38.15-100.891 21.64-50.135z"/>
            <path fill="#FFF" d="M126.836 37.027l-1.084 2.233c.27 0 .508-.034.812-.034.339-.338 1.388-1.455 2.132-2.199-.372 0-1.32-.068-1.86 0zm-4.332 5.075c-2.402 1.557-3.011 3.823-2.944 5.38.034 2.91 3.486 4.094 5.888-.034-.237 1.557-.305 1.794-.305 2.301h1.828c0-.372-.068-.676.1-2.199.136-1.049.88-3.959 1.591-6.463-.845-.237-3.79-.541-6.158 1.015zm1.996 5.515c-1.32 1.828-4.06 1.252-2.503-2.3 1.488-3.418 3.89-3.147 4.77-2.978 0 0-.744 3.147-2.267 5.278zm7.275-5.515c.44-1.827 1.083-3.824 1.455-5.075h-2.064c-.203.744-2.2 7.85-2.267 10.219-.203 2.876 3.383 3.823 5.719 1.691 1.251-1.252 1.691-2.369 2.199-3.688 1.32-4.162-2.47-6.463-5.042-3.147zm2.843 3.587c-.745 2.369-1.828 3.112-2.877 3.011-1.32-.068-1.014-2.47-.575-3.654.88-2.504 1.76-2.944 2.876-2.944.88.068 1.388.88.576 3.587zm9.101-4.839c-.44-.44-2.503-.203-3.519 2.64.44-1.59.508-2.268.575-2.64h-2.097c-.034 1.625-1.286 7.478-1.794 8.9h1.996c.136-.949.44-2.64 1.015-4.704.745-2.267 2.064-3.147 3.385-2.199.135-.61.236-1.252.44-1.997zm2.131-1.624c.644 0 1.083-.406 1.253-1.218.203-.812-.17-1.32-.609-1.32-.644 0-1.151.508-1.32 1.151-.203.677.102 1.387.676 1.387zm-3.079 10.523h1.997c.406-2.809 1.082-6.192 1.658-8.899h-1.895c-.44 2.505-1.116 6.328-1.76 8.9zm8.865-7.647c1.32-.135 1.49.373 1.76.61.17-.745.542-1.693.542-1.693-1.624-.372-5.38-.541-7.14 3.655-1.32 3.958 1.455 5.278 2.707 5.346.88.102 1.861-.204 2.369-.373.068-.27.203-.71.304-1.285-.609.406-1.624.71-2.572.507-.913-.169-1.759-1.117-1.251-3.079.507-1.929 1.692-3.62 3.281-3.688zm10.523-1.083c-.236 0-2.232-.236-3.552 0-1.32.272-3.722 1.388-4.838 3.79-1.084 2.437-.711 5.313 1.758 5.313 2.268-.034 3.317-2.437 3.52-2.741a66.235 66.235 0 0 1-.338 2.368h1.895c0-.237-.068-.98.135-2.267.304-2.165 1.049-4.94 1.42-6.463zm-3.01 4.771c-.914 2.2-2.301 2.91-3.012 2.842-.372-.067-1.76-.744-.61-3.281 1.625-3.181 3.824-3.113 4.636-2.944-.203 1.15-.574 2.199-1.015 3.383zm4.025-3.552c-.811 1.76.88 2.876 1.524 3.451 2.063 1.489 1.352 3.316-.271 3.316-1.05.068-1.76-.44-2.504-1.015-.135.778-.203 1.657-.237 1.76.61.202 1.421.372 2.673.439 1.59.068 2.91-.677 3.215-1.93 0 0 .676-1.69-.948-3.28-1.624-1.49-1.928-1.862-1.827-2.572.203-.609 1.387-1.388 3.08 0 .27-.745.37-.948.574-1.557-1.184-.27-4.33-.745-5.279 1.388zm-42.294.237V40.85h-2.166c.88-4.838 2.606-7.714 6.227-5.955.135-.71.304-1.895.304-1.895-1.489.068-7.58.44-8.831 7.85h-2.775l-.372 1.625h2.876c-.474 2.639-1.32 5.345-1.861 6.97-.71 2.198-2.64 4.77-6.463 4.703-3.857-.068-5.48-4.06-5.109-6.26.339-2.267 1.827-5.55 5.786-6.158 1.387-.203 2.436.372 2.944.609-.068-.305-.677-.744-1.185-.947-3.823-1.422-8.865 1.895-9.237 6.496-.305 4.568 3.35 7.005 6.395 7.005 3.587.202 7.174-1.862 8.933-5.448.812-1.963 1.929-6.328 2.064-6.97h2.47zM180.067 36c-.203 1.353-.575 2.74-.88 3.992-.304-.169-5.346-1.252-6.902 3.857-.947 3.486.676 4.873 1.827 5.076 1.184.136 2.199-.305 3.552-2.267-.033.643-.371 1.76-.44 2.064h2.031c.068-.372.135-1.049.372-2.267.575-2.876 1.557-7.275 2.504-10.455-1.184.034-1.692 0-2.064 0zm-1.895 8.29c-.88 2.876-2.639 3.315-3.384 3.045-.372-.034-1.556-.812-.304-3.823 1.387-3.249 3.756-3.012 4.5-2.572-.372 1.759-.609 2.774-.812 3.35z"/>
            <path fill="#FFF" d="M185.796 40.07c-.135-.068-.44-.068-.44-.068-2.199-.067-4.601 1.828-5.143 4.263-.777 2.978.677 5.041 2.64 5.177 1.996.102 2.673-.507 3.18-.778.204-.54.305-.981.44-1.387-.304.406-1.928 1.387-3.18.88-1.286-.474-1.658-1.625-1.388-2.742 1.117.102 2.437.238 4.128-.947 2.03-1.387 2.2-4.161-.237-4.398zm-.371 2.944c-.948 1.59-2.707 1.522-3.35 1.454.067-.304.44-1.252 1.218-2.199 1.319-1.523 3.045-.812 2.132.745zM210.811 42.475V40.85h-2.13c.88-4.838 2.57-7.714 6.19-5.955.137-.71.339-1.895.339-1.895-1.523.068-7.545.44-8.797 7.85h-2.775l-.44 1.625h2.91c-.507 2.639-1.319 5.345-1.826 6.97-.745 2.198-2.707 4.77-6.531 4.703-3.756-.068-5.414-4.06-5.075-6.26.372-2.267 1.792-5.55 5.82-6.158 1.319-.203 2.402.372 2.91.609-.068-.305-.711-.744-1.219-.947-3.756-1.422-8.83 1.895-9.17 6.496-.304 4.568 3.35 7.005 6.362 7.005 3.62.202 7.139-1.862 8.899-5.448.88-1.963 1.962-6.328 2.064-6.97h2.47M254.106 41.194c-.812-.237-3.688-.542-6.09 1.015-2.437 1.556-3.08 3.823-3.011 5.38.135 2.91 3.518 4.094 5.92-.035-.202 1.557-.337 1.794-.337 2.302h1.895c0-.373-.137-.677.135-2.2.135-1.049.812-3.959 1.488-6.462zm-4.128 6.53c-1.32 1.827-4.026 1.252-2.436-2.3 1.421-3.418 3.891-3.148 4.703-2.979 0 0-.71 3.147-2.267 5.279zM225.102 41.194c-.811-.237-3.721-.542-6.09 1.015-2.402 1.556-3.012 3.823-3.012 5.38.136 2.91 3.52 4.094 5.955-.035-.236 1.557-.371 1.794-.304 2.302h1.828c0-.373-.068-.677.1-2.2.136-1.049.88-3.959 1.523-6.462zm-4.161 6.53c-1.32 1.827-3.993 1.252-2.436-2.3 1.522-3.418 3.89-3.148 4.702-2.979 0 0-.676 3.147-2.266 5.279zM217.868 40.173c-.44-.44-2.537-.203-3.518 2.64.372-1.59.439-2.268.541-2.64h-2.064c-.101 1.625-1.32 7.478-1.827 8.9h2.03c.101-.949.372-2.64.981-4.704.71-2.267 2.098-3.147 3.35-2.199.17-.61.305-1.252.507-1.997M244.73 38.504c.609.068 1.048-.373 1.251-1.117.17-.88-.203-1.319-.642-1.387-.609 0-1.116.508-1.32 1.116-.1.71.204 1.388.711 1.388M242.828 41c-.44 2.505-1.117 6.328-1.828 8.9h2.098c.372-2.81.981-6.193 1.624-8.9h-1.894M234.348 44.83c-1.32 3.96 1.454 5.279 2.706 5.347.88.102 1.895-.204 2.369-.373.068-.27.203-.71.338-1.285-.643.406-1.658.71-2.57.507-.949-.169-1.76-1.117-1.287-3.079.508-1.929 1.726-3.62 3.283-3.688 1.319-.135 1.488.373 1.691.609.237-.744.643-1.692.643-1.692-1.658-.372-5.414-.541-7.173 3.655M230.853 41.245c-.677.27-1.556.947-2.639 2.571.27-.982.575-2.2.677-2.809h-1.997c-.236 2.369-1.387 7.41-1.894 8.9h2.03c.17-1.253.812-3.993 1.32-5.144.744-2.334 4.195-4.026 3.823-.507-.44 2.2-1.016 4.906-1.185 5.65h1.827c0-.237.034-.811.17-1.624.067-.812.643-3.011.947-4.703.44-1.827-1.184-3.146-3.079-2.334"/>
            <circle cx="59" cy="45" r="35" fill="#FFF"/>
            <path fill="#EE3441" d="M50.922 71.856c2.526.74 5.24 1.17 8.014 1.17 15.166 0 27.559-12.391 27.559-27.556 0-7.706-3.207-14.674-8.325-19.668l1.357-1.417c5.487 5.362 8.94 12.822 8.94 21.085 0 16.275-13.255 29.53-29.53 29.53-3.454 0-6.72-.617-9.803-1.726l-2.467-.986C72.746 66.183 59.49 28.454 83.72 18.836c1.85-.678 3.513-.616 4.684-.74l-.985 4.44c-9.371-2.529-12.762 5.24-15.536 15.288h5.61V42.2h-6.72c-3.268 12.763-6.658 27.312-19.851 29.655zM56.1 48.92c-9.186-14.364-25.03-4.746-26.634 4.07-3.02 11.713 9.124 23.304 22.195 16.337 13.008-6.042 11.96-37.175 22.996-46.484.493-.433 1.049-.865 1.726-1.111l-.37-.308C71.203 17.972 65.285 16 58.935 16c-16.215 0-29.47 13.255-29.47 29.47 0 .985 0 1.91.123 2.834.494-.862 1.172-1.663 1.789-2.28v-.554c0-15.168 12.392-27.559 27.558-27.559 5.671 0 10.911 1.726 15.289 4.685-5.24 2.836-8.015 8.693-10.11 15.228H56.53V42.2h6.289c-3.207 11.652-5.425 24.106-15.29 26.572-27.065 3.637-15.105-39.95 8.57-19.852z"/>
        </g>
        <rect width="54" height="38" fill="url(#a)" rx="5" transform="translate(198 113)"/>
        <path fill="url(#b)" d="M237.004 133.987a9.07 9.07 0 0 0 2.56.377c4.847 0 8.806-3.99 8.806-8.874a8.865 8.865 0 0 0-2.66-6.333l.434-.457a9.513 9.513 0 0 1 2.856 6.79c0 5.241-4.235 9.51-9.435 9.51a9.126 9.126 0 0 1-3.132-.556l-.788-.317c8.332-1.966 4.097-14.116 11.839-17.214.59-.218 1.122-.198 1.496-.238l-.315 1.43c-2.994-.815-4.077 1.687-4.964 4.923h1.793v1.41h-2.147c-1.044 4.11-2.128 8.795-6.343 9.55zm1.655-7.385c-2.935-4.626-7.998-1.529-8.51 1.31-.965 3.772 2.915 7.505 7.091 5.261 4.157-1.945 3.821-11.971 7.348-14.97.157-.138.335-.278.551-.357l-.118-.1a9.272 9.272 0 0 0-5.456-1.746c-5.181 0-9.416 4.269-9.416 9.49 0 .318 0 .615.04.913a3.64 3.64 0 0 1 .57-.734v-.179c0-4.884 3.96-8.874 8.806-8.874 1.812 0 3.486.555 4.885 1.508-1.675.913-2.561 2.8-3.23 4.904h-2.424v1.41h2.01c-1.025 3.752-1.734 7.763-4.885 8.557-8.648 1.17-4.827-12.866 2.738-6.393z"/>
        <path fill="url(#c)" d="M208.004 146.987a9.07 9.07 0 0 0 2.56.377c4.847 0 8.806-3.99 8.806-8.874a8.865 8.865 0 0 0-2.66-6.333l.434-.457a9.513 9.513 0 0 1 2.856 6.79c0 5.241-4.235 9.51-9.435 9.51a9.126 9.126 0 0 1-3.132-.556l-.788-.317c8.332-1.966 4.097-14.116 11.839-17.214.59-.218 1.122-.198 1.496-.238l-.315 1.43c-2.994-.815-4.077 1.687-4.964 4.923h1.793v1.41h-2.147c-1.044 4.11-2.128 8.795-6.343 9.55zm1.655-7.385c-2.935-4.626-7.998-1.529-8.51 1.31-.965 3.772 2.915 7.505 7.091 5.261 4.157-1.945 3.821-11.971 7.348-14.97.157-.138.335-.278.551-.357l-.118-.1a9.272 9.272 0 0 0-5.456-1.746c-5.181 0-9.416 4.269-9.416 9.49 0 .318 0 .615.04.913a3.64 3.64 0 0 1 .57-.734v-.179c0-4.884 3.96-8.874 8.806-8.874 1.812 0 3.486.555 4.885 1.508-1.675.913-2.561 2.8-3.23 4.904h-2.424v1.41h2.01c-1.025 3.752-1.734 7.763-4.885 8.557-8.648 1.17-4.827-12.866 2.738-6.393z"/>
    </g>
</svg>
