<?xml version="1.0" encoding="utf-8"?>
<!-- Generator: Adobe Illustrator 23.1.1, SVG Export Plug-In . SVG Version: 6.00 Build 0)  -->
<svg version="1.1" id="Layer_1" xmlns="http://www.w3.org/2000/svg" xmlns:xlink="http://www.w3.org/1999/xlink" x="0px" y="0px"
	 viewBox="0 0 507.3 528.8" style="enable-background:new 0 0 507.3 528.8;" xml:space="preserve">
<style type="text/css">
	.st0{opacity:0.73;fill:#F2F2F2;}
	.st1{opacity:0.7;enable-background:new    ;}
	.st2{font-family:'OpenSans';}
	.st3{font-size:60px;}
	.st4{fill:#BCBCBC;}
	.st5{fill:#3F5E6D;}
	.st6{fill:#727272;}
</style>
<title>celulares</title>
<circle class="st0" cx="253.6" cy="213.3" r="213.3"/>
<text transform="matrix(1 0 0 1 119.3333 511.59)" class="st1 st2 st3">Celulares</text>
<path class="st4" d="M196,78.1h115.2c12.7,0.1,22.9,10.3,23,23V350c-0.1,12.7-10.3,22.9-23,23H196c-12.7-0.1-22.9-10.3-23-23V101.1
	C173.1,88.4,183.3,78.1,196,78.1z"/>
<path class="st5" d="M191.4,119.5h124.4c2.5,0,4.6,2.1,4.6,4.6v202.8c0,2.5-2.1,4.6-4.6,4.6H191.4c-2.5,0-4.6-2.1-4.6-4.6V124.1
	C186.8,121.6,188.9,119.5,191.4,119.5z"/>
<path class="st6" d="M253.6,340.7c6.4,0,11.5,5.2,11.5,11.5c0,6.4-5.2,11.5-11.5,11.5c-6.4,0-11.5-5.1-11.5-11.5
	c-0.1-6.3,4.9-11.5,11.2-11.6C253.4,340.7,253.5,340.7,253.6,340.7z M239.8,94.2h27.7c2.5,0,4.6,2.1,4.6,4.6s-2.1,4.6-4.6,4.6h-27.7
	c-2.5,0-4.6-2.1-4.6-4.6S237.3,94.2,239.8,94.2z"/>
</svg>
