<svg id="Layer_1" data-name="Layer 1" xmlns="http://www.w3.org/2000/svg" viewBox="0 0 598.28 122.31"><defs><style>.cls-1{fill:#fff;}.cls-2{fill:#666;}.cls-3{fill:#e10098;}</style></defs><title>click</title><rect class="cls-1" width="598.28" height="122.31"/><path class="cls-2" d="M166.43,75a14.88,14.88,0,0,1-15.12-15.17v-.08a15,15,0,0,1,15.37-15.25c5.57,0,8.89,1.85,11.63,4.55l-4.13,4.76c-2.27-2.07-4.59-3.33-7.54-3.33-5,0-8.55,4.13-8.55,9.19v.08c0,5.06,3.5,9.27,8.55,9.27,3.37,0,5.44-1.35,7.75-3.46l4.13,4.18A15.07,15.07,0,0,1,166.43,75Z" transform="translate(1.54 1.38)"/><path class="cls-2" d="M181.6,74.52V45h6.49v23.6h14.7v5.9Z" transform="translate(1.54 1.38)"/><path class="cls-2" d="M205.87,74.52V45h6.49v29.5Z" transform="translate(1.54 1.38)"/><path class="cls-2" d="M231.44,75a14.88,14.88,0,0,1-15.12-15.17v-.08A15,15,0,0,1,231.7,44.52c5.56,0,8.89,1.85,11.63,4.55l-4.13,4.76c-2.28-2.07-4.6-3.33-7.55-3.33-5,0-8.55,4.13-8.55,9.19v.08c0,5.06,3.5,9.27,8.55,9.27,3.38,0,5.44-1.35,7.76-3.46l4.13,4.18A15.11,15.11,0,0,1,231.44,75Z" transform="translate(1.54 1.38)"/><path class="cls-2" d="M265.66,74.52,256.51,62,253.1,65.5v9h-6.49V45h6.49v12.9l12-12.9h7.83l-12,12.52,12.55,17Z" transform="translate(1.54 1.38)"/><path class="cls-3" d="M285.84,67l-2.52-2.58a6.94,6.94,0,0,1-5.24,2.49c-2.89,0-5-1.81-5-4.51,0-2.15,1.42-3.69,3.87-4.65a5.19,5.19,0,0,1-1.6-3.55,3.91,3.91,0,0,1,4.23-3.82,3.7,3.7,0,0,1,3.9,3.64c0,2.08-1.45,3.36-3.78,4.19L283.32,62a20.66,20.66,0,0,0,1.92-3.57l1.49.69a22.66,22.66,0,0,1-2.31,4L287.21,66Zm-7.9-8.13c-2.13.78-3.07,2.09-3.07,3.46a3.1,3.1,0,0,0,3.34,3.05,5.45,5.45,0,0,0,4-2.09Zm1.53-7a2.29,2.29,0,0,0-2.42,2.33c0,1,.39,1.67,1.6,3,2-.69,3.09-1.65,3.09-3.07A2.18,2.18,0,0,0,279.47,51.89Z" transform="translate(1.54 1.38)"/><path class="cls-3" d="M306.07,75A14.88,14.88,0,0,1,291,59.85v-.08a15,15,0,0,1,15.38-15.25c5.56,0,8.89,1.85,11.62,4.55l-4.13,4.76c-2.27-2.07-4.59-3.33-7.54-3.33-5,0-8.55,4.13-8.55,9.19v.08c0,5.06,3.5,9.27,8.55,9.27,3.37,0,5.44-1.35,7.76-3.46l4.12,4.18A15.07,15.07,0,0,1,306.07,75Z" transform="translate(1.54 1.38)"/><path class="cls-3" d="M334.72,75c-9.1,0-15.63-6.78-15.63-15.17v-.08c0-8.38,6.62-15.25,15.72-15.25s15.63,6.78,15.63,15.17v.08C350.44,68.15,343.82,75,334.72,75Zm8.94-15.25a9,9,0,0,0-8.94-9.27c-5.22,0-8.84,4.13-8.84,9.19v.08A9,9,0,0,0,334.81,69c5.22,0,8.85-4.13,8.85-9.19Z" transform="translate(1.54 1.38)"/><path class="cls-3" d="M354.11,74.52V45h6.48v23.6H375.3v5.9Z" transform="translate(1.54 1.38)"/><path class="cls-3" d="M378.08,74.52V45h6.49v23.6h14.7v5.9Z" transform="translate(1.54 1.38)"/><path class="cls-3" d="M402.05,74.52V45H424.3V50.8H408.5v6h13.9v5.77H408.5v6.19h16v5.78Z" transform="translate(1.54 1.38)"/><path class="cls-3" d="M442,75a14.89,14.89,0,0,1-15.13-15.17v-.08a15,15,0,0,1,15.38-15.25c5.56,0,8.89,1.85,11.63,4.55l-4.13,4.76c-2.28-2.07-4.59-3.33-7.54-3.33-5,0-8.56,4.13-8.56,9.19v.08c0,5.06,3.5,9.27,8.56,9.27,3.37,0,5.43-1.35,7.75-3.46l4.13,4.18A15.09,15.09,0,0,1,442,75Z" transform="translate(1.54 1.38)"/><path class="cls-3" d="M470.52,51V74.52H464V51h-9V45H479.5v6Z" transform="translate(1.54 1.38)"/><path class="cls-2" d="M141.27,75H120.34a4.65,4.65,0,0,1-4.65-4.65V49.46a4.66,4.66,0,0,1,4.65-4.65h20.93a4.66,4.66,0,0,1,4.65,4.65V70.38A4.65,4.65,0,0,1,141.27,75ZM120.34,46.41a3,3,0,0,0-3,3.05V70.38a3,3,0,0,0,3,3.05h20.93a3,3,0,0,0,3-3.05V49.46a3,3,0,0,0-3-3.05Z" transform="translate(1.54 1.38)"/><path class="cls-3" d="M122.71,49.23l16.74,6.58a1.22,1.22,0,0,1,.39,2l-3.76,3.54,9.35,9.68a1.31,1.31,0,0,1,0,1.84l-1.75,1.69a1.3,1.3,0,0,1-1.83,0l-9.4-9.74-3.77,3.56a1.24,1.24,0,0,1-2-.52L121.1,50.75A1.23,1.23,0,0,1,122.71,49.23Z" transform="translate(1.54 1.38)"/></svg>