<?xml version="1.0" encoding="utf-8"?>
<!-- Generator: Adobe Illustrator 23.1.1, SVG Export Plug-In . SVG Version: 6.00 Build 0)  -->
<svg version="1.1" id="Layer_1" xmlns="http://www.w3.org/2000/svg" xmlns:xlink="http://www.w3.org/1999/xlink" x="0px" y="0px"
	 viewBox="0 0 507.3 528.8" style="enable-background:new 0 0 507.3 528.8;" xml:space="preserve">
<style type="text/css">
	.st0{opacity:0.73;fill:#F2F2F2;enable-background:new    ;}
	.st1{opacity:0.7;enable-background:new    ;}
	.st2{font-family:'OpenSans';}
	.st3{font-size:60px;}
	.st4{fill:#BCBCBC;}
	.st5{fill:#3F5E6D;}
	.st6{fill:#727272;}
	.st7{fill:#BDBDBE;}
	.st8{fill:#F1F3F7;}
	.st9{fill:#4B5AA7;}
	.st10{fill:#393D47;}
	.st11{fill:#D6D6D8;}
	.st12{fill:#646B79;}
	.st13{fill:#DEDEDF;}
</style>
<title>celulares</title>
<circle class="st0" cx="253.6" cy="213.3" r="213.3"/>
<text transform="matrix(1 0 0 1 119.3333 511.59)" class="st1 st2 st3">Cómputo</text>
<path class="st4" d="M196,78.1h115.2c12.7,0.1,22.9,10.3,23,23V350c-0.1,12.7-10.3,22.9-23,23H196c-12.7-0.1-22.9-10.3-23-23V101.1
	C173.1,88.4,183.3,78.1,196,78.1z"/>
<path class="st5" d="M191.4,119.5h124.4c2.5,0,4.6,2.1,4.6,4.6v202.8c0,2.5-2.1,4.6-4.6,4.6H191.4c-2.5,0-4.6-2.1-4.6-4.6V124.1
	C186.8,121.6,188.9,119.5,191.4,119.5z"/>
<path class="st6" d="M253.6,340.7c6.4,0,11.5,5.2,11.5,11.5c0,6.4-5.2,11.5-11.5,11.5c-6.4,0-11.5-5.1-11.5-11.5
	c-0.1-6.3,4.9-11.5,11.2-11.6C253.4,340.7,253.5,340.7,253.6,340.7z M239.8,94.2h27.7c2.5,0,4.6,2.1,4.6,4.6s-2.1,4.6-4.6,4.6h-27.7
	c-2.5,0-4.6-2.1-4.6-4.6S237.3,94.2,239.8,94.2z"/>
<g>
	<path class="st7" d="M421.3,70H84.5c-5,0-8.8,4.2-8.8,9.1v249.3h354.7V79.1C430.4,73.9,426.3,70,421.3,70z"/>
	<rect x="93.1" y="86.7" class="st8" width="320" height="224.8"/>
	<rect x="93.1" y="86.7" class="st9" width="320" height="34.2"/>
	<rect x="132.8" y="97" class="st8" width="266.1" height="13.9"/>
	<rect x="93.1" y="296" class="st10" width="320" height="15.8"/>
	<path class="st11" d="M31.8,328.4c0,26.1,20.3,47,45.6,47h350.9c25.3,0,45.6-20.9,45.6-47H31.8z"/>
	<g>
		<rect x="194.6" y="328.4" class="st12" width="116.3" height="10"/>
		<rect x="115.4" y="140.3" class="st12" width="165.7" height="91.5"/>
		<rect x="300.3" y="140.3" class="st12" width="43.3" height="27.6"/>
	</g>
	<rect x="353" y="160.3" class="st13" width="45.9" height="7.6"/>
	<rect x="300.3" y="179.1" class="st12" width="43.3" height="27.6"/>
	<rect x="353" y="199" class="st13" width="45.9" height="7.6"/>
	<rect x="300.3" y="217.5" class="st12" width="43.3" height="27.6"/>
	<rect x="353" y="237.5" class="st13" width="45.9" height="7.6"/>
	<rect x="300.3" y="256.3" class="st12" width="43.3" height="27.6"/>
	<rect x="353" y="276.3" class="st13" width="45.9" height="7.6"/>
</g>
</svg>
