<svg id="Layer_1" data-name="Layer 1" xmlns="http://www.w3.org/2000/svg" viewBox="0 0 598.28 122.31"><defs><style>.cls-1{fill:#fff;}.cls-2{fill:#666;}.cls-3{fill:#e10098;}</style></defs><title>envio</title><rect class="cls-1" width="598.28" height="122.31"/><path class="cls-2" d="M159.07,69.55V40.62h21.81v5.66H165.39v5.87H179v5.66H165.39v6.08h15.7v5.66Z" transform="translate(1.54 1.38)"/><path class="cls-2" d="M205,69.55,191,51.16V69.55h-6.28V40.62h5.86l13.56,17.81V40.62h6.28V69.55Z" transform="translate(1.54 1.38)"/><path class="cls-2" d="M230.1,69.75h-5.62L212.79,40.62h7L227.37,61l7.56-20.37h6.86Z" transform="translate(1.54 1.38)"/><path class="cls-2" d="M244.48,69.55V40.62h6.37V69.55Zm.54-31.2L249.69,31l5.41,2.35-5.29,5Z" transform="translate(1.54 1.38)"/><path class="cls-2" d="M270.06,70c-8.93,0-15.33-6.65-15.33-14.87v-.08c0-8.23,6.49-15,15.41-15S285.47,46.78,285.47,55v.09C285.47,63.31,279,70,270.06,70Zm8.76-15a8.8,8.8,0,0,0-8.76-9.1c-5.12,0-8.68,4-8.68,9v.09a8.79,8.79,0,0,0,8.76,9.09c5.13,0,8.68-4.05,8.68-9Z" transform="translate(1.54 1.38)"/><path class="cls-3" d="M306.5,70c-9.09,0-15.34-6.38-15.34-15V54.9a15,15,0,0,1,15.3-15.08c5.25,0,8.42,1.41,11.46,4l-4,4.87a10.77,10.77,0,0,0-7.63-3c-4.67,0-8.38,4.13-8.38,9.09v.08c0,5.34,3.67,9.25,8.84,9.25a10.21,10.21,0,0,0,6-1.75V58.24h-6.46V52.69H319V65.36A19,19,0,0,1,306.5,70Z" transform="translate(1.54 1.38)"/><path class="cls-3" d="M340.75,69.49l-6.25-9.34h-5v9.34H323V40.32h13.34c6.88,0,11,3.62,11,9.62V50a9.06,9.06,0,0,1-6.25,9l7.13,10.42Zm.13-19.21c0-2.75-1.92-4.17-5-4.17h-6.38v8.38H336c3.13,0,4.92-1.67,4.92-4.13Z" transform="translate(1.54 1.38)"/><path class="cls-3" d="M372.8,69.49l-2.67-6.55H357.8l-2.67,6.55h-6.54l12.5-29.38H367l12.5,29.38ZM364,47.82l-3.88,9.46h7.75Z" transform="translate(1.54 1.38)"/><path class="cls-3" d="M391.39,46.23V69.49H385V46.23h-8.88V40.32h24.17v5.91Z" transform="translate(1.54 1.38)"/><path class="cls-3" d="M403.39,69.49V40.32h6.42V69.49Z" transform="translate(1.54 1.38)"/><path class="cls-3" d="M425.39,69.9A18.58,18.58,0,0,1,413,65.24l3.79-4.55a13.35,13.35,0,0,0,8.71,3.55c2.62,0,4.21-1,4.21-2.75V61.4c0-1.62-1-2.46-5.88-3.71-5.88-1.5-9.67-3.12-9.67-8.91v-.09c0-5.29,4.25-8.79,10.21-8.79a16.88,16.88,0,0,1,10.84,3.71l-3.34,4.83c-2.58-1.79-5.12-2.87-7.58-2.87s-3.75,1.12-3.75,2.54v.08c0,1.92,1.25,2.54,6.29,3.84,5.92,1.54,9.25,3.66,9.25,8.75v.08C436.1,66.65,431.69,69.9,425.39,69.9Z" transform="translate(1.54 1.38)"/><path class="cls-2" d="M434.61,73.46H171.91c-3.54,0-7.09-.08-10.64,0h-.46a1.57,1.57,0,0,0,0,3.14h36a6.91,6.91,0,1,0,9.5,0H388.07a6.91,6.91,0,1,0,9.5,0H423.5c3.55,0,7.1.08,10.64,0h.47A1.57,1.57,0,0,0,434.61,73.46Zm-233,12.12a4,4,0,1,1,4-4A4,4,0,0,1,201.6,85.58Zm191.22,0a4,4,0,1,1,4-4A4,4,0,0,1,392.82,85.58Z" transform="translate(1.54 1.38)"/></svg>