<?xml version="1.0" encoding="utf-8"?>
<!-- Generator: Adobe Illustrator 23.1.1, SVG Export Plug-In . SVG Version: 6.00 Build 0)  -->
<svg version="1.1" id="Layer_1" xmlns="http://www.w3.org/2000/svg" xmlns:xlink="http://www.w3.org/1999/xlink" x="0px" y="0px"
	 viewBox="0 0 507.3 528.8" style="enable-background:new 0 0 507.3 528.8;" xml:space="preserve">
<style type="text/css">
	.st0{opacity:0.73;fill:#F2F2F2;enable-background:new    ;}
	.st1{opacity:0.7;enable-background:new    ;}
	.st2{font-family:'OpenSans';}
	.st3{font-size:60px;}
	.st4{fill:#FFC89F;}
	.st5{fill:#464649;}
	.st6{fill:#F7B081;}
	.st7{fill:#8CC7EC;}
	.st8{fill:#66BAEA;}
</style>
<title>celulares</title>
<circle class="st0" cx="253.6" cy="213.3" r="213.3"/>
<text transform="matrix(1 0 0 1 124.6999 511.59)" class="st1 st2 st3">Infantiles</text>
<g>
	<path class="st4" d="M254.7,62.9c-44.4,0-80.6,36.1-80.6,80.6v24.7c0,2,1.2,3.8,3,4.6l75.4,35.1c0.7,0.3,1.4,0.5,2.2,0.5
		c0.7,0,1.5-0.2,2.2-0.5l75.4-35.1c1.8-0.8,3-2.7,3-4.6v-24.7C335.2,99.1,299.1,62.9,254.7,62.9z"/>
	<path class="st5" d="M224.8,151.8c-5.2,0-9.5-4.3-9.5-9.5c0-5.2,4.3-9.5,9.5-9.5s9.5,4.3,9.5,9.5S230,151.8,224.8,151.8z"/>
	<path class="st5" d="M284.5,151.8c-5.2,0-9.5-4.3-9.5-9.5c0-5.2,4.3-9.5,9.5-9.5c5.2,0,9.5,4.3,9.5,9.5
		C294,147.6,289.7,151.8,284.5,151.8z"/>
	<path class="st6" d="M254.7,62.9c-3.8,0-7.6,0.3-11.2,0.8c39.1,5.5,69.3,39.2,69.3,79.8v11.4L226,195.7l26.4,12.3
		c0.7,0.3,1.4,0.5,2.2,0.5c0.7,0,1.5-0.2,2.2-0.5l75.4-35.1c1.8-0.8,3-2.7,3-4.6v-4.7v-20.1C335.2,99.1,299.1,62.9,254.7,62.9z"/>
	<path class="st7" d="M344,163.9c-4.5-2.8-10-3.2-14.8-1l-74.6,34.8l-74.6-34.8c-4.8-2.2-10.3-1.9-14.8,1c-4.5,2.8-7.1,7.7-7.1,13
		v68.9c0,0.1,0,0.1,0,0.2v46.9c0,53.2,43.3,96.5,96.5,96.5s96.5-43.3,96.5-96.5V176.9C351.1,171.6,348.5,166.8,344,163.9z"/>
	<g>
		<path class="st8" d="M344,163.9c-4.5-2.8-10-3.2-14.8-1l-6.8,3.2c2.8,2.8,4.4,6.7,4.4,10.8v116.1c0,49.1-36.8,89.7-84.3,95.7
			c4,0.5,8,0.8,12.2,0.8c53.2,0,96.5-43.3,96.5-96.5V176.9C351.1,171.6,348.5,166.8,344,163.9z"/>
	</g>
	<polygon class="st8" points="158.2,227.4 158.2,243.5 254.7,197.7 238.3,190.1 	"/>
	<path class="st5" d="M246.4,73.7c-0.1,0-0.3,0-0.4,0c-25.5-2.2-32.2-21-32.5-21.8c-0.9-2.7,0.5-5.6,3.2-6.5
		c2.7-0.9,5.6,0.5,6.5,3.1c0.2,0.5,3.7,9.7,16,13.5c-0.8-5.2-0.6-12.2,3-19.7c1.2-2.6,4.3-3.6,6.8-2.4c2.6,1.2,3.6,4.3,2.4,6.8
		c-5,10.4-0.7,19.1-0.5,19.5c0.9,1.7,0.8,3.6-0.3,5.2C249.7,72.8,248.1,73.7,246.4,73.7z"/>
</g>
</svg>
