<?xml version="1.0" encoding="utf-8"?>
<!-- Generator: Adobe Illustrator 23.1.1, SVG Export Plug-In . SVG Version: 6.00 Build 0)  -->
<svg version="1.1" id="Layer_1" xmlns="http://www.w3.org/2000/svg" xmlns:xlink="http://www.w3.org/1999/xlink" x="0px" y="0px"
	 viewBox="0 0 507.3 528.8" style="enable-background:new 0 0 507.3 528.8;" xml:space="preserve">
<style type="text/css">
	.st0{opacity:0.73;fill:#F2F2F2;enable-background:new    ;}
	.st1{opacity:0.7;enable-background:new    ;}
	.st2{font-family:'OpenSans';}
	.st3{font-size:60px;}
	.st4{fill:#B1C3D0;}
	.st5{fill:#8EADBE;}
	.st6{fill:#E2E4E6;}
	.st7{fill:#3CB44A;}
	.st8{fill:#0E9247;}
	.st9{fill:#00ACDD;}
	.st10{fill:#35495C;}
	.st11{fill:#50BEE7;}
</style>
<title>celulares</title>
<circle class="st0" cx="253.6" cy="213.3" r="213.3"/>
<text transform="matrix(1 0 0 1 77.6784 511.59)" class="st1 st2 st3">Línea Blanca</text>
<g>
	<path class="st4" d="M364,72.5H135.4c-5.7,0-10.4,4.7-10.4,10.4v311.7c0,5.7,4.7,10.4,10.4,10.4H364c5.7,0,10.4-4.7,10.4-10.4V82.9
		C374.4,77.2,369.7,72.5,364,72.5z"/>
	<path class="st5" d="M280.5,119.3c-4.8,0-8.9-3.3-10-7.8c-0.2,0.8-0.4,1.7-0.4,2.6c0,5.7,4.7,10.4,10.4,10.4s10.4-4.6,10.4-10.4
		c0-0.9-0.2-1.8-0.4-2.6C289.4,115.9,285.3,119.3,280.5,119.3z"/>
	<path class="st6" d="M290.9,108.9c0,5.7-4.7,10.4-10.4,10.4s-10.4-4.6-10.4-10.4c0-5.7,4.7-10.4,10.4-10.4S290.9,103.1,290.9,108.9
		z"/>
	<path class="st5" d="M249.3,119.3c-4.8,0-8.9-3.3-10-7.8c-0.2,0.8-0.4,1.7-0.4,2.6c0,5.7,4.7,10.4,10.4,10.4
		c5.7,0,10.4-4.6,10.4-10.4c0-0.9-0.2-1.8-0.4-2.6C258.2,115.9,254.2,119.3,249.3,119.3z"/>
	<path class="st6" d="M259.7,108.9c0,5.7-4.7,10.4-10.4,10.4c-5.7,0-10.4-4.6-10.4-10.4c0-5.7,4.7-10.4,10.4-10.4
		C255.1,98.5,259.7,103.1,259.7,108.9z"/>
	<rect x="301.6" y="98.5" class="st7" width="57.1" height="26"/>
	<rect x="301.6" y="93.3" class="st8" width="57.1" height="5.2"/>
	<path class="st9" d="M312,269.9c0,34.4-27.9,62.3-62.3,62.3c-34.4,0-62.3-27.9-62.3-62.3s27.9-62.3,62.3-62.3
		C284.1,207.6,312,235.5,312,269.9z"/>
	<path class="st10" d="M249.7,353c-45.8,0-83.1-37.3-83.1-83.1c0-45.8,37.3-83.1,83.1-83.1c45.8,0,83.1,37.3,83.1,83.1
		C332.8,315.8,295.5,353,249.7,353z M249.7,207.6c-34.4,0-62.3,28-62.3,62.3s28,62.3,62.3,62.3s62.3-28,62.3-62.3
		S284.1,207.6,249.7,207.6z"/>
	<path class="st5" d="M249.7,353c-44.2,0-80.2-34.5-82.9-77.9c-0.1,1.7-0.3,3.4-0.3,5.2c0,45.9,37.2,83.1,83.1,83.1
		s83.1-37.2,83.1-83.1c0-1.8-0.2-3.5-0.3-5.2C329.9,318.6,293.8,353,249.7,353z"/>
	<path class="st11" d="M191.5,292.3l116.3-44.7c-1.8-4.6-4-9-6.8-13l-113.1,43.5C188.6,283,189.8,287.8,191.5,292.3z"/>
	<path class="st11" d="M213.1,320.3l97.5-37.5c0.9-4.2,1.4-8.5,1.4-12.9c0-4.5-0.5-8.8-1.4-13.1l-114.9,44.2
		C200.1,308.7,206.1,315.2,213.1,320.3z"/>
	<path class="st5" d="M228.9,140V82.9c-5.7,0-10.4,4.7-10.4,10.4V140h-83.1c0,5.7,4.7,10.4,10.4,10.4h57.1h31.2h119.5
		c5.7,0,10.4,4.7,10.4,10.4v223.4c0,5.7-4.7,10.4-10.4,10.4H234.1h-31.2h-57.1c-5.7,0-10.4,4.7-10.4,10.4h114.3h15.6H364
		c5.7,0,10.4-4.7,10.4-10.4V150.4V140H228.9z"/>
</g>
</svg>
