<?xml version="1.0" encoding="utf-8"?>
<!-- Generator: Adobe Illustrator 23.1.1, SVG Export Plug-In . SVG Version: 6.00 Build 0)  -->
<svg version="1.1" id="Layer_1" xmlns="http://www.w3.org/2000/svg" xmlns:xlink="http://www.w3.org/1999/xlink" x="0px" y="0px"
	 viewBox="0 0 507.3 528.8" style="enable-background:new 0 0 507.3 528.8;" xml:space="preserve">
<style type="text/css">
	.st0{opacity:0.73;fill:#F2F2F2;enable-background:new    ;}
	.st1{opacity:0.7;enable-background:new    ;}
	.st2{font-family:'OpenSans';}
	.st3{font-size:60px;}
	.st4{fill:#ECBD83;}
	.st5{fill:#E2A975;}
	.st6{fill:#DBEAFF;}
	.st7{fill:#C3DDFF;}
	.st8{fill:#A4CCFF;}
</style>
<title>celulares</title>
<circle class="st0" cx="253.6" cy="213.3" r="213.3"/>
<text transform="matrix(1 0 0 1 134.2065 511.59)" class="st1 st2 st3">Muebles</text>
<g>
	<path class="st4" d="M451.2,365.9l4,28.1c0.7,5-3.2,9.5-8.2,9.5c-3.3,0-6.3-2-7.6-5l-14-32.6l9.9-7.4L451.2,365.9z"/>
	<path class="st5" d="M451.2,365.9h-25.8l-6.4-15h30.1L451.2,365.9z"/>
	<path class="st6" d="M253.6,275.7H58.4V147.9l7.3-21.3c2.4-0.8,4.9-1.3,7.5-1.3h157.8c12.5,0,22.5,10.1,22.5,22.5V275.7z"/>
	<path class="st6" d="M456.6,275.7H260.9V147.9l7.8-21.3c2.4-0.8,4.9-1.3,7.5-1.3H434c12.5,0,22.6,10.1,22.6,22.5V275.7z"/>
	<path class="st7" d="M253.6,147.9v127.8h15v-149C259.9,129.7,253.6,138.1,253.6,147.9z"/>
	<path class="st7" d="M50.7,147.9v127.8h15v-149C57,129.7,50.7,138.1,50.7,147.9z"/>
	<path class="st7" d="M479.1,193h-10c-7.3,0-13.5,5.2-14.8,12.3l-12.8,70.3H65.7L53,205.3c-1.3-7.1-7.5-12.3-14.8-12.3h-1.8
		l-6.1,8.2l13,129.6c0.7,7.7,7.2,13.6,15,13.6h400.5l15.1-8.7l12.8-134.6C487,196.8,483.6,193,479.1,193z"/>
	<path class="st4" d="M56.1,365.9l-4,28.1c-0.7,5,3.2,9.5,8.2,9.5c3.3,0,6.3-2,7.6-5l14-32.6l-11.4-6.7L56.1,365.9z"/>
	<path class="st7" d="M80.8,245.6h157.8c8.3,0,15,6.7,15,15v22.6c0,8.3-6.7,15-15,15H80.8c-8.3,0-15-6.7-15-15v-22.6
		C65.7,252.3,72.5,245.6,80.8,245.6z"/>
	<path class="st8" d="M80.8,260.6v-15c-8.3,0-15,6.7-15,15v22.6c0,8.3,6.7,15,15,15h157.8c8.3,0,15-6.7,15-15H103.3
		C90.9,283.2,80.8,273.1,80.8,260.6z"/>
	<path class="st7" d="M268.7,245.6h157.8c8.3,0,15,6.7,15,15v22.6c0,8.3-6.7,15-15,15H268.7c-8.3,0-15-6.7-15-15v-22.6
		C253.6,252.3,260.4,245.6,268.7,245.6z"/>
	<path class="st8" d="M268.7,260.6v-15c-8.3,0-15,6.7-15,15v22.6c0,8.3,6.7,15,15,15h157.8c8.3,0,15-6.7,15-15H291.2
		C278.8,283.2,268.7,273.1,268.7,260.6z"/>
	<path class="st8" d="M473.7,335.8H63.6c-7.8,0-14.2-5.9-15-13.6L36.4,193h-8.2c-4.4,0-7.9,3.8-7.5,8.2l13,136
		c0.7,7.7,7.2,13.6,15,13.6h410.1c7.8,0,14.2-5.9,15-13.6L473.7,335.8C473.8,335.8,473.8,335.8,473.7,335.8z"/>
	<g>
		<path class="st7" d="M125.9,178c0,4.1-3.4,7.5-7.5,7.5c-4.2,0-7.5-3.4-7.5-7.5c0-4.2,3.4-7.5,7.5-7.5
			C122.5,170.4,125.9,173.8,125.9,178z"/>
		<path class="st7" d="M193.5,178c0,4.1-3.4,7.5-7.5,7.5c-4.1,0-7.5-3.4-7.5-7.5c0-4.2,3.4-7.5,7.5-7.5
			C190.2,170.4,193.5,173.8,193.5,178z"/>
		<path class="st7" d="M328.8,178c0,4.1-3.4,7.5-7.5,7.5c-4.2,0-7.5-3.4-7.5-7.5c0-4.2,3.4-7.5,7.5-7.5
			C325.4,170.4,328.8,173.8,328.8,178z"/>
		<path class="st7" d="M396.5,178c0,4.1-3.4,7.5-7.5,7.5c-4.1,0-7.5-3.4-7.5-7.5c0-4.2,3.4-7.5,7.5-7.5
			C393.1,170.4,396.5,173.8,396.5,178z"/>
	</g>
	<path class="st5" d="M56.1,365.9h25.8l6.4-15H58.2L56.1,365.9z"/>
</g>
</svg>
