<?xml version="1.0" encoding="utf-8"?>
<!-- Generator: Adobe Illustrator 23.1.1, SVG Export Plug-In . SVG Version: 6.00 Build 0)  -->
<svg version="1.1" id="Layer_1" xmlns="http://www.w3.org/2000/svg" xmlns:xlink="http://www.w3.org/1999/xlink" x="0px" y="0px"
	 viewBox="0 0 507.3 528.8" style="enable-background:new 0 0 507.3 528.8;" xml:space="preserve">
<style type="text/css">
	.st0{opacity:0.73;fill:#F2F2F2;enable-background:new    ;}
	.st1{opacity:0.7;enable-background:new    ;}
	.st2{font-family:'OpenSans';}
	.st3{font-size:60px;}
	.st4{fill:#444455;}
	.st5{fill:#5A5D6F;}
</style>
<title>celulares</title>
<circle class="st0" cx="253.6" cy="213.3" r="213.3"/>
<text transform="matrix(1 0 0 1 121.3333 511.59)" class="st1 st2 st3">Pantallas</text>
<g>
	<path class="st4" d="M270,336.3v-17.2h-41.3v17.2c0,5.7-4.6,10.3-10.3,10.3H208v6.9h82.6v-6.9h-10.3C274.6,346.7,270,342,270,336.3
		z"/>
	<g>
		<path class="st5" d="M345.6,360.4H153c-3.8,0-6.9-3.1-6.9-6.9l0,0c0-3.8,3.1-6.9,6.9-6.9h192.6c3.8,0,6.9,3.1,6.9,6.9l0,0
			C352.5,357.3,349.4,360.4,345.6,360.4z"/>
		<path class="st5" d="M438.5,78.4H60.1c-5.7,0-10.3,4.6-10.3,10.3v230.5c0,5.7,4.6,10.3,10.3,10.3h378.4c5.7,0,10.3-4.6,10.3-10.3
			V88.7C448.8,83,444.2,78.4,438.5,78.4z"/>
	</g>
	<path class="st4" d="M431.6,305.4H67c-1.9,0-3.4-1.5-3.4-3.4V95.6c0-1.9,1.5-3.4,3.4-3.4h364.6c1.9,0,3.4,1.5,3.4,3.4v206.4
		C435.1,303.8,433.5,305.4,431.6,305.4z"/>
</g>
</svg>
