<?xml version="1.0" encoding="utf-8"?>
<!-- Generator: Adobe Illustrator 23.1.1, SVG Export Plug-In . SVG Version: 6.00 Build 0)  -->
<svg version="1.1" id="Layer_1" xmlns="http://www.w3.org/2000/svg" xmlns:xlink="http://www.w3.org/1999/xlink" x="0px" y="0px"
	 viewBox="0 0 507.3 528.8" style="enable-background:new 0 0 507.3 528.8;" xml:space="preserve">
<style type="text/css">
	.st0{opacity:0.73;fill:#F2F2F2;enable-background:new    ;}
	.st1{opacity:0.7;enable-background:new    ;}
	.st2{font-family:'OpenSans';}
	.st3{font-size:60px;}
	.st4{fill:#6DAFDF;}
	.st5{fill:#E8EFF3;}
	.st6{fill:#FFD93B;}
	.st7{fill:#5A5F63;}
	.st8{fill:#E9B02C;}
</style>
<title>celulares</title>
<circle class="st0" cx="253.6" cy="213.3" r="213.3"/>
<text transform="matrix(1 0 0 1 172.7907 511.59)" class="st1 st2 st3">Viajes</text>
<g>
	<ellipse class="st4" cx="269.1" cy="276.8" rx="153.5" ry="149"/>
	<g>
		<path class="st5" d="M186.3,396.8c0,0.1-0.1,0.1-0.1,0.1c0.2,0.1,0.4,0.2,0.7,0.2L186.3,396.8z"/>
		<path class="st5" d="M190.7,186.7l-0.3-0.6c2.6-0.2,2.9-1.9,4.9-2.5c2.3-0.6,1.4,0.2,3.6,0.2c1.8,0,2.8,1.4,4.8,0.6
			c-0.5,0.8-1.4,1.3-2.2,1.9c-1.7,1-3.5,2.1-5.5,2.4C194,189,191.7,188.4,190.7,186.7z"/>
		<path class="st5" d="M212.5,321.1c-0.1,1.3-1,2.4-1.8,3.5c-3.4,4.7-5.7,10.2-6.4,15.9c-0.8,5.5-1,12.2-6.1,14.6
			c-2.9,1.3-6.8,0.8-8.9,3.3c-0.6,0.7-1,1.7-1.3,2.6c-1.5,4.2-3,8.4-4.5,12.6c-1.6-0.2-3.1-0.5-4.7-0.8c1.8,0.7,2.9,3.2,1.7,4.8
			c-1.7-1-4.1-0.1-5.2,1.6c-1,1.7-1,3.8-0.7,5.7c1.2,5.7,5.9,10.5,11.5,12.2c-1.1,1.8-4.2,0.8-5.9-0.6c-12.8-9.7-22.1-23.7-25.7-39
			c-1.3-5.4-1.9-11.1-4.8-15.9c-2.4-4-6.3-7.1-8.7-11.1c-3.4-5.7-3.6-13-7.6-18.3c-2.2-3-5.7-6.8-3.4-9.8c0.9-1.2,2.9-2.3,2.2-3.7
			c-0.2-0.5-0.7-0.8-1-1.2c-1.4-1.6-0.2-3.9,0.7-5.8c1.4-3.3,1.7-7,1.4-10.6c-3.4-3.4-6-7.5-7.6-12c-0.9-2.8-2.1-6.2-5.1-6.4
			c-0.6-2.1-1.3-4.3-1.9-6.4c-0.3,0.7-1.1,1.2-2,1.2c4.6-33.9,20.8-63.9,44.4-86.5c0.5-0.2,1-0.4,1.5-0.7c5.4-2.6,9.9-6.8,15.2-9.7
			c1.1-0.6,2.3-1.2,3.6-1c1.2,0.2,2.3,1.5,1.8,2.6c-0.2,0.5-0.6,0.8-1.1,1.1c-6.3,4.5-13,8.4-20.1,11.5c-0.9,0.4-1.8,0.8-2.2,1.5
			c-0.8,1.3,0.3,3.1,1.7,3.7s3.1,0.4,4.7,0.2c-1.4,1.7-1.9,4.1-1.4,6.2c1.4,0.2,2-1.6,2.5-2.9c2.1-5.1,10.8-6.7,10.6-12.2
			c2.2,1.3,4.8-1.2,6.3-3.2c1.6-2.1,4.9-4.1,6.5-2c0,1.1,0.1,2.2,0.1,3.3c3.1-0.6,6.2-1.1,9.3-1.7c-1.8,1.1-2.6,3.6-1.7,5.4
			c0.9,1.9,3.3,2.9,5.3,2.3c-0.1,1.6-1.7,2.7-3.1,3.6c-3.5,2.2-7.3,4.5-11.3,5.5l0.8,1.9c-0.1,0-0.2,0.1-0.3,0
			c-2.5,0.1-5-1.8-7.7-1.7c-1.6,0.1-3.7,0-4.7,1.5c-0.1,0.2-0.9,3-0.5,2.8c1.5-0.7,3-1.4,4.5-2.1c0.4,1.2,0.4,2.5,0.1,3.7
			c1.8-0.1,3.6,0.4,5.1,1.4c-1.9,3.6-6.2,5.8-10.3,5.2c0-1.2,0.1-2.4,0.1-3.6c-3.4-0.5-6.3,2.2-8.2,4.9c-1.9,2.7-3.5,5.9-6.4,7.6
			c-1.8,1-4,1.3-5.9,2.2c-1.9,0.9-3.7,2.6-3.5,4.6c0.1,1,0.7,1.9,0.6,2.8c-0.2,1.8-2.5,2.5-4,3.6c-2.6,1.9-3.5,5.5-6.3,7.1
			c-2,1.2-4.6,1-6.9,1.5c-2.3,0.5-4.7,2.6-3.9,4.7c-1.1,0.3-2.4-0.6-2.5-1.7c-4.5,7.3-7.7,15.5-9.3,23.9c1.9,1.5,4.1-1.5,4.6-3.8
			c0.6-2.3,2.9-5.2,4.7-3.7c-0.7,3.3-1.3,6.6-2,9.9c-0.1,0.6-0.3,1.3,0,1.9c0.3,0.7,1.1,1.1,1.7,1.6c1.7,1.6,1.3,4.2,1.2,6.5
			c-0.1,2.8,0.7,5.5,2,8c-0.1-0.5-0.2-1-0.3-1.4c2.7,0.5,5.5-0.2,7.7-1.8c1.1-0.9,2.1-2,3.5-2.4c1.4-0.4,2.9,0,4.3,0.5
			c4.3,1.4,8.9,3.1,11.6,6.6c1.4,1.8,2.2,4,3.8,5.5c3.8,3.5,10.7,2.5,14.1,6.4c2.7,3.1,1.9,7.9,0.8,11.9c-1.9-1.2-4.8,1.3-3.8,3.3
			c1.2-1.1,2.5-2.2,4-2.1c1.6,0.1,2.8,2.3,1.6,3.2c3-3.3,9.7-1.4,10.5,2.9c3.9,0.5,7.8,1,11.6,1.6
			C201.2,314.5,213.1,315.6,212.5,321.1z"/>
		<path class="st5" d="M199.3,164.1c-1.6,0.6-3.5-0.3-4-1.9c-0.5-1.6,0.7-3.4,2.4-3.6c1-0.2,2.5,0,2.8-0.9c0.1-0.3,0.1-0.6,0.1-0.9
			c0.1-1.8,1.9-3.3,3.8-3.6c1.9-0.3,3.8,0.1,5.6,0.6c0.6,1.4,0.7,2.9,0.3,4.3c-1.3,0-2.6-0.1-3.8-0.1c0,2.1-0.4,4.6-2.4,5.3
			c-1.8,0.6-4-0.8-5.6,0.2"/>
		<path class="st5" d="M220.5,144.8c3.6-1.4,6.7-3.8,10.3-5.3c6.1-2.6,13-2.4,19.7-2.2c15.1,0.5,30.3,1,45.4,1.5
			c-3.6,1.6-7.3,3.3-10.9,4.9c-3,1.3-6.3,2.7-9.4,1.6c-0.2,2.4,1.9,4.9,4.4,5c-6.5,3.3-14.8-1-21.6,1.7c-2.8,1.1-5.2,3.5-8.3,3.8
			c-1.8,0.2-3.5-0.4-5.3-0.1c-2.9,0.4-5,3-7.2,4.8c-2.6,2.1-6.4,3.5-9.5,2.2c-3.2-1.3-4.5-6.1-1.8-8.1c1.3-1,3.2-1.1,4.7-1.7
			c1.6-0.7,2.9-2.6,1.8-3.9c-0.5-0.6-1.2-0.8-1.7-1.4c-0.4-0.6-0.3-1.5-0.7-2.2c-1.4-2.7-5.9,0.5-8.7-0.7"/>
		<path class="st5" d="M265.6,160.1c2.1-0.3,3.9-1.4,5.9-2.1c2-0.7,4.3-1.1,6.1-0.1c0.5,1.4-1.2,2.5-2.7,2.9
			c-2.8,0.8-5.7,0.8-8.5,0.2"/>
		<path class="st5" d="M388.1,182.6c-0.6,0-1.2,0-1.7-0.2c-2.6-0.7-4.4-2.8-6.5-4.3c-4.9-3.6-11.9-4.5-17.6-2.1
			c1.4-1.8,2.2-4,2.3-6.3l-0.8,0.2c-8.7-5.7-19-11.7-29.2-8.8c-2.3,0.7-4.5,1.7-6.9,2.4c-2.5,0.7-5.3,0.9-7.5,2.2
			c-2.2,1.4-3.6,4.5-1.9,6.4c1.5,1.6,4,1.4,6.1,1.7c2.1,0.3,4.5,2.6,3.2,4.3c-9.8,3.7-19.6,7.5-29.4,11.2c4.3,1.6,6.8,6.6,5.6,11
			c-3.2,0.3-6.2-1.7-9.4-2.1c-4.7-0.5-9.4,3.2-9.8,7.7c-0.4,4.5,3.6,9,8.3,9.2c3.5,0.2,7.1-1.6,10.4-0.6c0.3-3.1,2.7-5.6,5.1-7.6
			c4.6-4,11.1-7.4,16.8-5c1.9,0.8,3.4,2.1,4.9,3.5c3.3,2.9,6.6,5.9,10,8.8c1.2-1,2.4-2.1,3.5-3.1c1.8,2.1,3.6,4.1,5.4,6.2
			c1-0.6,2.1-1.1,3.1-1.7c0.6,1.8,1.2,3.6,1.8,5.3c0.4-1.9,0.8-3.8,1.1-5.6c2.3,0.2,4.7,0.4,6.9-0.5c2.1-0.8,3.8-3.2,3.1-5.3
			c-0.4-1.1-1.4-2.1-1.5-3.3c-0.3-2.4,3.3-3.8,5.5-2.6c2.1,1.2,3.1,3.7,3.9,6c0.7-2.3,1.3-4.5,2-6.7c1.8,5.7,4.6,11,8.2,15.8
			c-7-1.8-14.6-1.5-21.4,0.8c1.9,3,5.5,5,9.1,5.1c1.6,0.1,3.5-0.2,4.6,0.9c0.9,0.8,1,2.1,1.1,3.2c0.3,3.3,0.7,6.5,1,9.7
			c-3.5-3.2-9-3.2-13.9-3.6c-4.9-0.4-10.5-2.1-12-6.6c-2.1,2-3.1,5-2.8,7.8c-5-1.5-10.7-3.7-11.8-8.7c-4,1.2-8.8-1.6-9.6-5.6
			c-0.3-1.4-0.3-3.1-1.5-3.9c-0.7-0.5-1.7-0.5-2.6-0.4c-7.6,0.4-15.1,0.7-22.7,1.1c-4.1,0.2-8.4,0.4-12.1,2.1
			c-3.7,1.7-6.9,5.3-6.7,9.3c-7.2,3.5-13.4,8.9-17.8,15.4c-1.4,2-2.6,4.3-2.3,6.7c0.2,1.8,1.4,3.5,1.6,5.3c0.5,3.1-1.5,5.9-2.5,8.9
			c-2.7,8.5,3.5,17,9.3,23.9c2.7,3.2,5.9,6.7,10.2,7.1c2.7,0.3,5.3-0.7,7.8-1.5c7.3-2.3,15.2-3,22.8-2.3c-1.8,1.2-0.2,4.2,1.9,4.7
			c2.1,0.6,4.5,0,6.5,0.9c4.6,1.9,3.5,8.7,1.1,12.9c1.1-0.1,2.2-0.3,3.3-0.4c-0.7,1.4-1.4,2.9-2.1,4.3c6.5,1.2,8.4,9.7,6.4,15.8
			c-1.9,6.1-6.1,11.6-6.6,18c-0.3,3.5,0.6,7,1.5,10.4c2.2,8.6,4.4,17.2,6.6,25.9c7.7,1.4,12.8-7.9,20.2-10.5c2.8-1,6-1,8.2-2.8
			c2.2-1.8,1.8-6.2-0.8-6.4c3.6-0.1,6.9-3.1,7.2-6.6c0.1-1,0-2,0.2-2.9c0.3-1.4,1.3-2.5,2.3-3.6c6-7.3,10.2-15.9,14.3-24.3
			c1.1-2.3,2.2-4.5,3.3-6.8c4.1-8.4,8.2-16.8,12.3-25.2c1.6-3.3,3.2-6.6,4.8-9.9c-2.1,2.9-7.1,2.2-9.8-0.2c-2.7-2.5-4-6-6-9
			c-1.7-2.6-4.2-4.9-4.9-8c-0.4-1.7-0.2-3.6-0.4-5.4c-0.4-3.9-2.9-7.3-4.4-10.9c-1.6-3.6-2.2-8.2,0.5-11.1
			c6.5,12.8,12.2,25.9,17.4,39.3c0.8-2,2.4-3.6,4.4-4.5c1.5-0.7,3.1-0.9,4.6-1.4c4.1-1.4,7.1-5.3,7.3-9.5c0.2-4.2-2.2-8.4-6.1-10.3
			c-1.9-0.9-4.2-1.3-6-2.6c-1.8-1.2-3-3.7-1.7-5.4c1.2-1.6,3.9-1.4,5.7-0.4c1.8,1.1,3,2.8,4.7,4c1.2,0.9,2.6,1.5,3.9,2.3
			c7.1,4.5,8.2,13.9,9.2,22.1c0.5,4.4,1.2,8.8,2,13.1c0.1-0.9,0.2-1.8,0.2-2.8C425,247.3,411.8,210.7,388.1,182.6z M398.8,232.4
			c-1-0.1-1.9-0.8-2.6-1.5c-1.3-1.1-2.5-2.3-2.8-4c-0.3-1.9,0.8-4-0.2-5.8c-0.4-0.8-1.3-1.4-2-2c-1.8-1.6-3.1-3.8-3.4-6.1
			c-0.3-2,0.5-4.7,2.7-4.9c1-0.1,2.1,0.5,2.5,1.4l-1.5,0.7c2.4,0.4,3.3,4,1.3,5.4c-0.3,0.2-0.6,0.4-0.6,0.7c0,0.2,0.1,0.4,0.3,0.6
			c1.4,1.7,3.6,2.4,5.4,3.5c1.9,1.1,3.7,3,3.2,5.1c-0.6,0.2-1.2,0.4-1.9,0.6c-0.7,0.6-0.3,1.8,0.4,2.5c0.7,0.7,1.5,1.4,1.5,2.3
			C401.1,231.9,399.9,232.5,398.8,232.4z"/>
		<path class="st5" d="M392.9,335.9l-2.6,1.6c0.7,3-1.3,6.4-4.3,7.4c-1.6,0.5-3.7,0.7-4.3,2.2c-0.5,1.3,0.4,2.7,0.5,4.1
			c0.1,2.3-2.2,3.9-3.9,5.5c-1.7,1.6-2.8,4.7-0.7,5.9c0.5,0.3,1,0.4,1.6,0.4c2.3,0.3,4.8,0.6,6.8-0.6c5.6-3.4,1.2-13.8,6.8-17.3
			c0.8-0.5,1.8-0.8,2.2-1.6C396.2,341,391.8,338.3,392.9,335.9z"/>
	</g>
	<path class="st6" d="M225.4,161.5c-1.5,1.1-3.1,2.1-4.7,3c-1.3,0.7-2.2,1.2-2.8,1.4c-3,2.8-6,5.5-8.9,8.5c-2.9,3-5.6,6.1-8.4,9.2
		c0,0.1,0,0.1-0.1,0.2c-8.1,13.9-16.8,27.7-27.2,40.1c136,71.2,183.8,145.4,140.1,195.4c0.1,0,0.2-0.1,0.3-0.1
		c34-13.7,57.2-46.5,54.5-82.2C364.4,284.8,318,223,225.4,161.5z"/>
	<path class="st7" d="M226.4,94.5l-22.1,3.7l-7.8-7.6c-2.4-2.3-6.3-2.3-8.7,0c-2.4,2.3-2.4,6.1,0,8.4l1.7,1.7l-9.8,1.7l-6.4-6.3
		c-2.4-2.3-6.3-2.3-8.7,0c-2.4,2.3-2.4,6.1,0,8.4l0.4,0.4l-25.6,4.3l-19.3-18.7c-6.2-6-13.4-11.1-21.4-14.7
		c-6-2.7-12.7-4.6-18.1-3.6c-2.2,0.4-3.9,2.1-4.3,4.2c-1.2,5.9,1.5,13.3,4.8,19.6c3.5,6.8,8.2,13,13.8,18.4l19.6,19l-4.5,24.9
		l-0.4-0.3c-2.4-2.3-6.3-2.3-8.7,0s-2.4,6.1,0,8.4l6.4,6.3l-1.7,9.5l-1.7-1.6c-2.4-2.3-6.3-2.3-8.7,0c-2.4,2.3-2.4,6.1,0,8.4
		l7.8,7.6l-3.9,21.5c-0.4,2.3,0.4,4.7,2.1,6.3c3.4,3.3,9.2,2.6,11.6-1.5l9.9-16.7c5.8,4.9,12.3,6.8,12.3,6.8s-2.3-7.4-8.4-13.4
		l6.6-11.1c6,5.4,13.1,7.5,13.1,7.5s-2.3-7.5-8.4-13.4c-0.2-0.2-0.5-0.4-0.7-0.7l9.9-16.6l24.9,24.1l-6.9,30
		c-1.1,5.3,2,10.5,7.3,12.2c5.3,1.7,11-0.7,13.5-5.7l9.3-21.9c6,1,12.1,0.9,14.9,0.1c3,1.8,5,2.8,5,2.8s-1-1.9-2.9-4.8
		c0.8-2.7,0.9-8.6-0.1-14.5l22.7-9c1.2-0.5,2.2-1.2,3.1-2.1c3-2.9,4-7,2.7-10.9c-1.7-5.1-7.2-8.2-12.6-7.1l-30.9,6.7L172.1,141
		l17.1-9.6c0.2,0.2,0.4,0.5,0.7,0.7c6.1,6,13.8,8.2,13.8,8.2s-2.1-6.9-7.7-12.7l11.5-6.4c6.1,5.9,13.8,8.1,13.8,8.1s-2-6.3-7-11.9
		l17.2-9.6c4.2-2.4,5-8,1.5-11.3C231.3,94.9,228.8,94.1,226.4,94.5z"/>
	<path class="st8" d="M345.4,379.9c-1,6.9-0.9,6.8-5.6,20.4c2.7-9.7,3.8-11.9,4.4-20.5c5.5-37.3-20.7-84.2-44.9-109.8
		c-12.1-14.3-28.6-30-44.4-42.6c-13.6-11-19.7-14.9-31.1-22.8c-2.6-1.7-3.3-5.2-1.5-7.6c1.8-2.5,5.4-3.2,8-1.4
		c0,0.1,0.1,0.1,0.2,0.2c11.2,8.4,16,11.7,30.7,24.6c16.7,14.7,31.9,30.9,43.5,45.6C329.7,295.9,351.4,339.1,345.4,379.9z"/>
</g>
</svg>
