<?xml version="1.0" encoding="utf-8"?>
<!-- Generator: Adobe Illustrator 23.1.1, SVG Export Plug-In . SVG Version: 6.00 Build 0)  -->
<svg version="1.1" id="Layer_1" xmlns="http://www.w3.org/2000/svg" xmlns:xlink="http://www.w3.org/1999/xlink" x="0px" y="0px"
	 viewBox="0 0 507.3 528.8" style="enable-background:new 0 0 507.3 528.8;" xml:space="preserve">
<style type="text/css">
	.st0{opacity:0.73;fill:#F2F2F2;enable-background:new    ;}
	.st1{opacity:0.7;enable-background:new    ;}
	.st2{font-family:'OpenSans';}
	.st3{font-size:60px;}
	.st4{fill:#D7ECEC;}
	.st5{fill:#D9D9D9;}
	.st6{fill:#F05E71;}
	.st7{fill:#E85066;}
	.st8{fill:#7BCBD7;}
	.st9{fill:#5C5766;}
	.st10{fill:#44B3E3;}
	.st11{fill:#514E5B;}
</style>
<title>celulares</title>
<circle class="st0" cx="253.6" cy="213.3" r="213.3"/>
<text transform="matrix(1 0 0 1 141.7506 511.59)" class="st1 st2 st3">Zapatos</text>
<path class="st4" d="M369,195.7c0,0,48,22.5,62,28.2v24.5l-65.1,34.4H207.2L81.4,173.4c7.8-21,19.3-32.3,27.3-38.1
	c4.5-3.3,10.8-2.2,14.2,2.2c25.9,34.2,59.9,27.3,79.4,19c9.3-3.9,14.4-14,12.1-23.8h26.2l48.4,46.4L369,195.7z"/>
<path class="st5" d="M99.3,189c1.3-5.7,2.9-10.9,4.6-15.6c6-16,14.1-26.5,21.2-33.1c0,0,0,0,0,0c-0.8-0.9-1.5-1.9-2.2-2.8
	c-1.1-1.4-2.4-2.4-3.9-3.1c-3-1.4-6.6-1.3-9.4,0.4c-3.7,2.2-7.1,5.5-10,8.7c-2.4,2.5-4.8,5.5-7.2,8.9c-3.9,5.6-7.7,12.6-10.9,21.1
	L99.3,189z"/>
<path class="st6" d="M158.7,229.8l-14.7,13.7L87,237l-14.3-6.8v-2.5c0-22.9,3.6-40.7,8.7-54.3l36.9,13.1c4.6,1.6,9,3.8,13.1,6.5
	c5.5,3.6,10.5,8,14.6,13c4.1,5.1,7.5,10.7,9.9,16.9L158.7,229.8z"/>
<path class="st6" d="M369,195.7L369,195.7c0,0-10.1,41.3-47.7,24.4c-33-14.9-47.2-24.2-73.3-17.8c-7.5,1.8-15.5-0.3-21-5.6h0
	c-4.5-4.4-6.8-10.2-6.8-16.1c0-4.3,1.2-8.6,3.7-12.4c5.6-8.5,4.8-19.8-2.1-27.3l-7.4-8.1c-1.5-6.3,1.3-12.9,6.9-16.3l3.9-2.4
	c8.4-5.1,19.1-3.8,26.1,3.1C282.8,148.4,329.3,175.8,369,195.7z"/>
<path class="st4" d="M258.5,164.9c-2.7,0.3-5.5-0.5-7.9-2.3c-5-3.8-5.9-10.8-2.1-15.8l15.8-20.7c3.8-4.9,10.8-5.9,15.8-2.1
	c5,3.8,5.9,10.8,2.1,15.8l-15.8,20.7C264.4,163.2,261.5,164.7,258.5,164.9z"/>
<path class="st4" d="M294.1,190.4c-2.7,0.3-5.5-0.5-7.9-2.3c-4.9-3.8-5.9-10.8-2.1-15.8l15.8-20.7c3.8-4.9,10.8-5.9,15.8-2.1
	c4.9,3.8,5.9,10.8,2.1,15.8L302,186C300,188.7,297.1,190.1,294.1,190.4z"/>
<path class="st7" d="M95.2,237.9c0-3.7,0.1-7.3,0.1-10.2c0-19.1,2.5-34.6,6.3-47.2l-20.1-7.1c-0.9,2.5-1.8,5.1-2.6,7.8
	c-2.9,9.9-4.6,20-5.4,30.3c-0.5,6.2-0.6,12.5-0.6,18.8L87,237L95.2,237.9z"/>
<path class="st8" d="M417.1,232.7c-26,15.6-63.7,33.1-101,33.1c-67.1,0-96.1-48.6-243.3-35.5v8.6c0,3.2,0.4,6.3,1.2,9.3l96.7,51.2
	c20.5,2.4,79.7,7.9,186.9,7.9c2.8,0,5.6-0.1,8.3-0.3l51.2-33.3l16.9-25.6L417.1,232.7z"/>
<path class="st9" d="M432.3,224.5c-0.4-0.2-0.9-0.4-1.3-0.5c-4.1,2.8-8.8,5.7-13.9,8.8v14c0,5.9-2.6,11.6-7,15.5
	c-4.5,3.9-11.5,9-21.9,14.2c-12.8,6.4-19.2,20-22.3,30.6c52.7-3.6,72.8-41.5,78.2-54.5c1.1-2.6,1.6-5.4,1.6-8.2
	C445.7,235.7,440.4,227.8,432.3,224.5z"/>
<path class="st10" d="M99.6,261.8c-1.3-3.7-2.4-7.1-3.2-9.8c-1.7-6.4-1.3-16.4-1.2-23.2c-7.2,0.4-14.7,0.9-22.5,1.6
	c0,5.4-0.3,10.9,0.8,16.2c0.1,0.6,0.3,1.2,0.4,1.7L99.6,261.8z"/>
<path class="st9" d="M170.7,299.4c-1.5-0.2-2.7-0.3-3.8-0.5c-2.9-0.4-5.8-1.1-8.5-2.2l-62.9-24.6C84.7,268,76.9,259,74,248.2h14.2
	c11.3,0,22.5,2.3,32.9,6.7l6.6,2.8C146.8,265.9,162,280.8,170.7,299.4z"/>
<path class="st11" d="M104.3,275.6l2.2,0.9c-4.8-8.1-8.2-18.2-10-24.6c-0.3-1-0.5-2.2-0.7-3.4c-2.5-0.2-5.1-0.4-7.7-0.4H74
	c2.4,9.1,8.4,16.9,16.6,21.6c1.6,0.9,3.2,1.7,4.9,2.4L104.3,275.6z"/>
</svg>
