<?xml version="1.0" encoding="UTF-8"?>
<svg width="20px" height="20px" viewBox="0 0 20 20" version="1.1" xmlns="http://www.w3.org/2000/svg" xmlns:xlink="http://www.w3.org/1999/xlink">
    <title>atom / buttons / radio / plp nav level</title>
    <g id="Megamenú-" stroke="none" stroke-width="1" fill="none" fill-rule="evenodd">
        <g id="03.-BLP---Desktop" transform="translate(-82.000000, -201.000000)" fill="#E10098">
            <g id="Title" transform="translate(80.000000, 199.000000)">
                <g id="atom-/-button-/-radio-/-select" transform="translate(2.000000, 2.000000)">
                    <path d="M10,0 C4.48,0 0,4.48 0,10 C0,15.52 4.48,20 10,20 C15.52,20 20,15.52 20,10 C20,4.48 15.52,0 10,0 Z M10,19 C5.0275,19 1,14.9725 1,10 C1,5.0275 5.0275,1 10,1 C14.9725,1 19,5.0275 19,10 C19,14.9725 14.9725,19 10,19 Z" id="Shape"></path>
                    <circle id="Oval" cx="10" cy="10" r="3"></circle>
                </g>
            </g>
        </g>
    </g>
</svg>