<svg enable-background="new 0 0 60 60" viewBox="0 0 60 60" xmlns="http://www.w3.org/2000/svg"><path d="m30.6 1.8c-.3 0-.5.1-.7.3l-27.4 24.9c-.3.3-.4.7-.3 1.1.2.4.5.7 1 .7h54.8c.4 0 .8-.3 1-.7s0-.8-.3-1.1l-27.4-24.9c-.2-.2-.4-.3-.7-.3zm-24.7 24.9 24.7-22.4 24.7 22.4z" fill="#808789"/><path d="m49.4 7.8h-38.9c-.6 0-1 .5-1 1v42.2c0 .6.5 1 1 1h38.9c.6 0 1-.5 1-1v-42.1c0-.6-.4-1.1-1-1.1zm-37.7 1.9h36.8v40.1h-36.8z" fill="#b7b7b7"/><path d="m3.2 26.7c-.2 0-.3 0-.5.1-.3.2-.6.5-.6.9v28.7c0 .6.5 1 1 1h54.9c.6 0 1-.5 1-1v-28.7c0-.4-.2-.7-.6-.9-.1-.1-.3-.1-.5-.1s-.4.1-.6.2l-26.8 19-26.8-19c-.1-.1-.3-.2-.5-.2zm1 28.7v-25.7l25.8 18.3c.2.1.4.2.6.2s.4-.1.6-.2l25.7-18.3v25.7z" fill="#808789"/><path d="m4.2 55.4v-25.7l25.8 18.3c.2.1.4.2.6.2s.4-.1.6-.2l25.7-18.3v25.7z" fill="#fff"/><path d="m11.7 9.7h36.8v21.9h-36.8z" fill="#fff"/><path d="m16.6 12.4c-.3 0-.5.2-.5.4-.1 1.1-.7 1.7-1.8 1.8-.3 0-.4.2-.4.5s.2.5.4.5c1.1.1 1.7.7 1.8 1.8 0 .3.2.4.5.4s.5-.2.5-.4c.1-1.1.7-1.7 1.8-1.8.3 0 .5-.3.4-.5 0-.3-.2-.5-.5-.5-1.1-.1-1.6-.7-1.8-1.8.1-.2-.2-.4-.4-.4zm-.7 2.7c.3-.2.5-.4.7-.7.2.3.4.5.7.7-.3.2-.5.4-.7.7-.2-.2-.4-.5-.7-.7z" fill="#efc75e"/><path d="m43.6 12.4c-.3 0-.5.2-.5.4-.1 1.1-.7 1.7-1.8 1.8-.3 0-.4.2-.4.5s.2.5.4.5c1.1.1 1.7.7 1.8 1.8 0 .3.2.4.5.4s.5-.2.5-.4c.1-1.1.7-1.7 1.8-1.8.3 0 .5-.3.4-.5 0-.3-.2-.5-.5-.5-1.1-.1-1.6-.7-1.8-1.8.1-.2-.2-.4-.4-.4zm-.7 2.7c.3-.2.5-.4.7-.7.2.3.4.5.7.7-.3.2-.5.4-.7.7-.2-.2-.4-.5-.7-.7z" fill="#efc75e"/><path d="m36 21.1c.3 0 .6 0 .9.1 1.8.3 3.1 1.8 3.4 3.6.2 1.4-.1 2.8-1.1 4.3-.9 1.4-1.8 2.5-2.7 3.5-1.8 1.9-3.9 3.5-6.1 5.2 0 0-.1 0-.1.1 0 0-.1 0-.1-.1-2.2-1.7-4.3-3.3-6.1-5.2-.9-1-1.8-2.1-2.7-3.5s-1.3-2.9-1.1-4.3c.3-1.8 1.7-3.2 3.4-3.6.3-.1.6-.1.9-.1 1.6 0 3 .8 3.8 2.1l.1.2c.3.6.7 1.2 1.7 1.2s1.4-.7 1.7-1.2l.1-.2c1-1.3 2.4-2.1 4-2.1m0-1.7c-2.1 0-4.1 1.1-5.3 3-.1.2-.3.6-.3.6s-.2-.4-.3-.6c-1.1-1.9-3.1-3-5.3-3-.4 0-.8 0-1.2.1-2.5.5-4.4 2.5-4.8 5-.3 2 .2 3.9 1.3 5.5.9 1.3 1.8 2.6 2.9 3.7 2.2 2.3 4.8 4.3 7.4 6.3 2.6-2 5.2-3.9 7.4-6.3 1.1-1.1 2-2.4 2.9-3.7 1.1-1.7 1.7-3.5 1.3-5.5-.4-2.5-2.3-4.5-4.8-5-.4-.1-.8-.1-1.2-.1z" fill="#c82982"/></svg>