<?xml version="1.0" standalone="no"?>
<!DOCTYPE svg PUBLIC "-//W3C//DTD SVG 1.1//EN" "http://www.w3.org/Graphics/SVG/1.1/DTD/svg11.dtd" >
<svg xmlns="http://www.w3.org/2000/svg" xmlns:xlink="http://www.w3.org/1999/xlink" version="1.1">
<metadata>
Created by FontForge 20161013 at Mon Dec 15 16:20:11 2014
 By ,,,
Copyright (c) 2014 adidas. All rights reserved.
</metadata>
<defs>
<font id="adineuePROCond-Bold" horiz-adv-x="368" >
  <font-face 
    font-family="adineue PRO Cond"
    font-weight="700"
    font-stretch="normal"
    units-per-em="1000"
    panose-1="2 11 8 3 2 2 1 6 0 4"
    ascent="750"
    descent="-250"
    x-height="510"
    cap-height="685"
    bbox="-130 -213 4968 914"
    underline-thickness="40"
    underline-position="-160"
    unicode-range="U+0020-F8FF"
  />
<missing-glyph horiz-adv-x="232" 
 />
    <glyph glyph-name=".notdef" horiz-adv-x="232" 
 />
    <glyph glyph-name=".null" horiz-adv-x="0" 
 />
    <glyph glyph-name="nonmarkingreturn" horiz-adv-x="333" 
 />
    <glyph glyph-name="space" unicode=" " horiz-adv-x="120" 
 />
    <glyph glyph-name="exclam" unicode="!" horiz-adv-x="163" 
d="M138 685v-503h-114v503h114zM140 0h-118v126h118v-126z" />
    <glyph glyph-name="quotedbl" unicode="&#x22;" horiz-adv-x="301" 
d="M267 466h-93l-13 219h121zM33 466l-15 219h122l-13 -219h-94z" />
    <glyph glyph-name="numbersign" unicode="#" horiz-adv-x="371" 
d="M203 271l5 144h-40l-5 -144h40zM193 0l6 151h-40l-6 -151h-106l6 151h-35v120h39l5 144h-40v119h44l6 151h106l-6 -151h40l6 151h104l-5 -151h36v-119h-40l-5 -144h40v-120h-44l-5 -151h-106z" />
    <glyph glyph-name="dollar" unicode="$" horiz-adv-x="397" 
d="M138 529q0 -39 30 -71v129q-30 -14 -30 -58zM258 163q0 39 -33 74v-139q33 16 33 65zM225 -92h-57v82q-69 9 -108.5 57t-39.5 134v24h115v-23q0 -62 33 -81v182l-9 6q-72 46 -106.5 99.5t-34.5 127.5q0 79 41.5 126t108.5 55v85h57v-86q68 -9 105 -56.5t38 -127.5v-24
h-114v23q0 55 -29 73v-173q1 0 3 -1.5t3 -2.5q77 -51 114 -103t37 -129q0 -79 -41.5 -129t-115.5 -57v-81z" />
    <glyph glyph-name="percent" unicode="%" horiz-adv-x="548" 
d="M112 692q41 0 68.5 -26t27.5 -76v-189q0 -50 -27.5 -75.5t-68.5 -25.5t-68.5 25.5t-27.5 75.5v189q0 50 27.5 76t68.5 26zM230 0h-87l176 685h87zM112 371q20 0 20 28v193q0 29 -20 29q-21 0 -21 -29v-193q0 -28 21 -28zM436 387q41 0 68.5 -26t27.5 -76v-189
q0 -50 -27.5 -75.5t-68.5 -25.5t-68.5 25.5t-27.5 75.5v189q0 50 27.5 76t68.5 26zM436 66q20 0 20 28v193q0 29 -20 29q-21 0 -21 -29v-193q0 -28 21 -28z" />
    <glyph glyph-name="ampersand" unicode="&#x26;" horiz-adv-x="468" 
d="M171 519q0 -41 20 -83q43 35 43 79v38q0 44 -32 44q-31 0 -31 -43v-35zM199 97q27 0 53 20l-97 160q-21 -27 -21 -63v-46q0 -32 17.5 -51.5t47.5 -19.5zM323 0l-16 26q-52 -34 -118 -34q-74 0 -122.5 41.5t-48.5 120.5v54q0 99 81 163q-36 74 -36 140v37q0 74 39.5 112
t100.5 38t100.5 -36.5t39.5 -105.5v-29q0 -69 -25 -108t-75 -73l71 -116q17 75 16 160h113q0 -174 -58 -277l69 -113h-131z" />
    <glyph glyph-name="quotesingle" unicode="'" horiz-adv-x="164" 
d="M129 466h-97l-13 219h125z" />
    <glyph glyph-name="parenleft" unicode="(" horiz-adv-x="242" 
d="M155 265q0 -213 69 -381l-98 -46q-90 174 -90 427q0 250 90 427l97 -46q-68 -178 -68 -381z" />
    <glyph glyph-name="parenright" unicode=")" horiz-adv-x="242" 
d="M87 265q0 213 -69 381l98 46q90 -174 90 -427q0 -250 -90 -427l-97 46q68 178 68 381z" />
    <glyph glyph-name="asterisk" unicode="*" horiz-adv-x="255" 
d="M163 619l46 35l39 -57l-58 -44l58 -45l-39 -56l-46 33v-65h-71v66l-47 -34l-38 56l57 45l-57 44l38 57l47 -35v66h71v-66z" />
    <glyph glyph-name="plus" unicode="+" horiz-adv-x="280" 
d="M196 342h65v-113h-65v-87h-109v87h-68v113h68v86h109v-86z" />
    <glyph glyph-name="comma" unicode="," horiz-adv-x="166" 
d="M142 22l-42 -113h-78l34 91h-34v127h120v-105z" />
    <glyph glyph-name="hyphen" unicode="-" horiz-adv-x="221" 
d="M201 230h-180v108h180v-108z" />
    <glyph glyph-name="period" unicode="." horiz-adv-x="166" 
d="M142 0h-119v127h119v-127z" />
    <glyph glyph-name="slash" unicode="/" horiz-adv-x="250" 
d="M130 0h-117l108 685h117z" />
    <glyph glyph-name="zero" unicode="0" 
d="M184 695q71 0 116.5 -44t45.5 -130v-356q0 -86 -45.5 -130t-116.5 -44q-70 0 -116 45t-46 129v356q0 85 46 129.5t116 44.5zM184 100q21 0 33.5 15.5t12.5 45.5v363q0 31 -12.5 46.5t-33.5 15.5t-34 -15.5t-13 -46.5v-363q0 -30 13 -45.5t34 -15.5z" />
    <glyph glyph-name="one" unicode="1" horiz-adv-x="202" 
d="M175 0h-125v571h-46v114h171v-685z" />
    <glyph glyph-name="two" unicode="2" horiz-adv-x="367" 
d="M337 0h-300v110l136 250q33 61 45 92t12 67q0 33 -13 50t-33 17q-49 0 -49 -72v-25h-113v24q0 93 45.5 137.5t116.5 44.5q72 0 116.5 -44.5t44.5 -132.5q0 -53 -16.5 -101.5t-60.5 -127.5l-101 -182h170v-107z" />
    <glyph glyph-name="three" unicode="3" horiz-adv-x="367" 
d="M186 -9q-72 0 -118 44.5t-46 137.5v26h113v-28q0 -71 50 -71q45 0 45 61v124q0 30 -13.5 45.5t-35.5 15.5q-29 0 -46 -24l-73 71l130 187h-164v105h297v-89l-102 -151q56 -5 89.5 -47t33.5 -116v-117q0 -86 -45 -130t-115 -44z" />
    <glyph glyph-name="four" unicode="4" horiz-adv-x="367" 
d="M319 248h40v-107h-40v-141h-120v141h-185v107l175 436h130v-436zM122 248h77v213z" />
    <glyph glyph-name="five" unicode="5" horiz-adv-x="367" 
d="M185 -9q-71 0 -117 44.5t-46 137.5v26h114v-28q0 -71 48 -71q45 0 45 61v131q0 30 -13 45.5t-34 15.5q-42 0 -45 -56h-107l4 388h288v-107h-179l-2 -139q28 21 72 21q58 0 94.5 -43.5t36.5 -128.5v-123q0 -86 -45 -130t-114 -44z" />
    <glyph glyph-name="six" unicode="6" horiz-adv-x="367" 
d="M185 -9q-71 0 -117 44.5t-46 129.5v109q0 82 30 162l92 249h126l-87 -227q12 4 28 4q59 0 97 -40t38 -115v-142q0 -86 -45.5 -130t-115.5 -44zM185 100q20 0 33 15.5t13 44.5v133q0 30 -13 45.5t-33 15.5q-21 0 -34 -16.5t-13 -49.5v-128q0 -30 13 -45t34 -15z" />
    <glyph glyph-name="seven" unicode="7" horiz-adv-x="359" 
d="M327 580l-152 -580h-127l163 576h-187v109h303v-105z" />
    <glyph glyph-name="eight" unicode="8" horiz-adv-x="367" 
d="M184 -9q-70 0 -116 45t-46 129v77q0 84 53 127q-43 38 -43 108v50q0 82 43 124.5t109 42.5t109 -42.5t43 -124.5v-50q0 -69 -42 -108q52 -42 52 -127v-77q0 -86 -45.5 -130t-116.5 -44zM184 589q-19 0 -30.5 -14t-11.5 -41v-63q0 -57 42 -57q18 0 30 14.5t12 42.5v63
q0 27 -12 41t-30 14zM184 98q21 0 33.5 15t12.5 45v93q0 29 -13 44.5t-33 15.5t-33.5 -15.5t-13.5 -44.5v-93q0 -29 13 -44.5t34 -15.5z" />
    <glyph glyph-name="nine" unicode="9" horiz-adv-x="367" 
d="M224 0h-126l87 227q-12 -4 -28 -4q-59 0 -97 40t-38 115v142q0 86 45.5 130t116.5 44q70 0 116 -45t46 -129v-109q0 -82 -30 -162zM184 585q-21 0 -34 -15.5t-13 -44.5v-133q0 -30 12.5 -45.5t33.5 -15.5q47 0 47 66v128q0 29 -13 44.5t-33 15.5z" />
    <glyph glyph-name="colon" unicode=":" horiz-adv-x="166" 
d="M142 383h-119v127h119v-127zM142 0h-119v127h119v-127z" />
    <glyph glyph-name="semicolon" unicode=";" horiz-adv-x="166" 
d="M142 383h-119v127h119v-127zM142 22l-42 -113h-78l34 91h-34v127h120v-105z" />
    <glyph glyph-name="less" unicode="&#x3c;" horiz-adv-x="280" 
d="M261 371l-122 -88l122 -85v-128l-242 163v102l242 161v-125z" />
    <glyph glyph-name="equal" unicode="=" horiz-adv-x="280" 
d="M261 308h-242v119h242v-119zM261 141h-242v119h242v-119z" />
    <glyph glyph-name="greater" unicode="&#x3e;" horiz-adv-x="280" 
d="M261 335v-102l-242 -163v128l121 85l-121 88v125z" />
    <glyph glyph-name="question" unicode="?" horiz-adv-x="346" 
d="M220 182h-114v186h35q35 0 52 17.5t17 57.5v89q0 27 -11.5 41.5t-30.5 14.5q-43 0 -43 -62v-32h-113v33q0 82 43 124t114 42q68 0 112 -42t44 -123v-96q0 -64 -28.5 -104.5t-76.5 -53.5v-92zM222 0h-118v126h118v-126z" />
    <glyph glyph-name="at" unicode="@" horiz-adv-x="504" 
d="M255 -75q-101 0 -166.5 56.5t-65.5 155.5v281q0 99 64.5 155.5t161.5 56.5q98 0 164.5 -56.5t66.5 -155.5v-233q0 -43 -27.5 -68t-71.5 -25q-56 0 -77 38q-33 -37 -82 -37q-44 0 -68.5 28.5t-24.5 79.5v154q0 50 24.5 78.5t68.5 28.5q40 0 60 -29v24h87v-269
q0 -31 24 -31q22 0 22 33v227q0 75 -48.5 114.5t-116.5 39.5t-115 -39t-47 -115v-279q0 -75 48 -114t119 -39q92 0 143 44l10 -62q-56 -42 -153 -42zM249 169q32 0 32 44v129q0 44 -32 44t-32 -43v-131q0 -43 32 -43z" />
    <glyph glyph-name="A" unicode="A" horiz-adv-x="430" 
d="M255 243l-41 266l-44 -266h85zM293 0l-21 133h-119l-22 -133h-124l124 685h167l125 -685h-130z" />
    <glyph glyph-name="B" unicode="B" horiz-adv-x="393" 
d="M33 0v685h162q76 0 120.5 -43.5t44.5 -123.5v-33q0 -84 -63 -127q80 -39 80 -141v-36q0 -87 -45.5 -134t-117.5 -47h-181zM186 573h-29v-171h26q57 0 57 72v28q0 71 -54 71zM195 288h-38v-176h39q24 0 39 17.5t15 51.5v37q0 35 -15 52.5t-40 17.5z" />
    <glyph glyph-name="C" unicode="C" horiz-adv-x="405" 
d="M382 426h-125v84q0 65 -49 65q-22 0 -36.5 -17t-14.5 -51v-329q0 -34 14 -51.5t36 -17.5q50 0 50 66v68h125v-73q0 -88 -49 -135t-125 -47q-78 0 -129.5 48t-51.5 139v336q0 91 51.5 138.5t129.5 47.5q76 0 125 -46.5t49 -134.5v-90z" />
    <glyph glyph-name="D" unicode="D" horiz-adv-x="420" 
d="M32 0v685h179q82 0 131 -47.5t49 -138.5v-312q0 -92 -49 -139.5t-131 -47.5h-179zM210 567h-49v-449h48q23 0 38 16t15 48v320q0 32 -14.5 48.5t-37.5 16.5z" />
    <glyph glyph-name="E" unicode="E" horiz-adv-x="359" 
d="M33 0v685h309v-116h-181v-163h160v-118h-160v-172h185v-116h-313z" />
    <glyph glyph-name="F" unicode="F" horiz-adv-x="352" 
d="M319 268h-158v-268h-128v685h308v-118h-180v-181h158v-118z" />
    <glyph glyph-name="G" unicode="G" horiz-adv-x="421" 
d="M395 170q0 -88 -51 -135t-130 -47q-81 0 -134 48t-53 139v336q0 91 53 138.5t135 47.5q78 0 129 -46t51 -132v-85h-125v80q0 30 -15 45.5t-40 15.5q-26 0 -42 -17t-16 -51v-329q0 -34 16 -51.5t41 -17.5q56 0 56 66v72h-57v119h182v-196z" />
    <glyph glyph-name="H" unicode="H" horiz-adv-x="430" 
d="M270 0v281h-110v-281h-128v685h128v-285h110v285h128v-685h-128z" />
    <glyph glyph-name="I" unicode="I" horiz-adv-x="195" 
d="M161 0h-128v685h128v-685z" />
    <glyph glyph-name="J" unicode="J" horiz-adv-x="380" 
d="M9 210h127v-37q0 -66 44 -66q48 0 48 66v512h129v-511q0 -87 -49.5 -136.5t-126.5 -49.5q-76 0 -124 49.5t-48 136.5v36z" />
    <glyph glyph-name="K" unicode="K" horiz-adv-x="409" 
d="M266 0l-105 260v-260h-129v685h129v-275l102 275h134l-130 -343l139 -342h-140z" />
    <glyph glyph-name="L" unicode="L" horiz-adv-x="352" 
d="M32 0v685h128v-567h178v-118h-306z" />
    <glyph glyph-name="M" unicode="M" horiz-adv-x="534" 
d="M235 0l-92 422v-422h-110v685h158l79 -397l76 397h156v-685h-109v421l-94 -421h-64z" />
    <glyph glyph-name="N" unicode="N" horiz-adv-x="434" 
d="M278 0l-129 398v-398h-116v685h130l123 -392v392h115v-685h-123z" />
    <glyph glyph-name="O" unicode="O" horiz-adv-x="428" 
d="M214 -12q-81 0 -134 48.5t-53 139.5v334q0 91 53 139t134 48q80 0 133.5 -48.5t53.5 -138.5v-334q0 -91 -53.5 -139.5t-133.5 -48.5zM214 109q25 0 41 17.5t16 53.5v325q0 35 -16 53t-41 18t-41 -18t-16 -53v-325q0 -36 15.5 -53.5t41.5 -17.5z" />
    <glyph glyph-name="P" unicode="P" horiz-adv-x="394" 
d="M203 204h-41v-204h-129v685h175q78 0 124.5 -47.5t46.5 -133.5v-117q0 -88 -47.5 -135.5t-128.5 -47.5zM193 567h-31v-246h29q25 0 41 16.5t16 50.5v111q0 68 -55 68z" />
    <glyph glyph-name="Q" unicode="Q" horiz-adv-x="424" 
d="M301 -52l-28 49q-29 -9 -62 -9q-80 0 -132 48t-52 140v334q0 91 52 139t132 48q79 0 131.5 -48.5t52.5 -138.5v-334q0 -76 -38 -123l35 -61zM157 177q0 -34 15 -51t38 -17l-26 45l81 39v315q0 34 -15 51t-39 17t-39 -17t-15 -51v-331z" />
    <glyph glyph-name="R" unicode="R" horiz-adv-x="399" 
d="M185 567h-25v-213h28q54 0 54 60v91q0 62 -57 62zM258 0l-95 240h-3v-240h-127v685h166q77 0 124.5 -44t47.5 -132v-96q0 -109 -81 -151l113 -262h-145z" />
    <glyph glyph-name="S" unicode="S" horiz-adv-x="387" 
d="M358 514v-30h-121v29q0 67 -48 67q-21 0 -33 -14.5t-12 -40.5q0 -35 21.5 -60.5t70.5 -59.5q68 -47 101.5 -101t33.5 -129q0 -88 -47.5 -137.5t-129.5 -49.5q-80 0 -129 45t-49 147v31h123v-33q0 -72 54 -72q49 0 49 59q0 40 -23 69.5t-66 57.5q-65 44 -99 96t-34 127
q0 85 47 133.5t124 48.5q167 0 167 -183z" />
    <glyph glyph-name="T" unicode="T" horiz-adv-x="382" 
d="M254 0h-128v567h-115v118h360v-118h-117v-567z" />
    <glyph glyph-name="U" unicode="U" horiz-adv-x="421" 
d="M159 685v-507q0 -71 51 -71q23 0 37.5 18t14.5 53v507h130v-507q0 -89 -51 -139.5t-131 -50.5q-79 0 -129.5 50.5t-50.5 139.5v507h129z" />
    <glyph glyph-name="V" unicode="V" horiz-adv-x="430" 
d="M298 0h-167l-124 685h130l80 -509l81 509h125z" />
    <glyph glyph-name="W" unicode="W" horiz-adv-x="588" 
d="M341 0l-47 417l-46 -417h-157l-84 685h120l46 -495l63 495h120l64 -505l47 505h114l-81 -685h-159z" />
    <glyph glyph-name="X" unicode="X" horiz-adv-x="439" 
d="M294 0l-78 225l-78 -225h-132l140 357l-131 328h142l64 -192l64 192h134l-129 -323l143 -362h-139z" />
    <glyph glyph-name="Y" unicode="Y" horiz-adv-x="414" 
d="M271 0h-128v272l-136 413h133l68 -256l71 256h128l-136 -408v-277z" />
    <glyph glyph-name="Z" unicode="Z" horiz-adv-x="347" 
d="M334 575l-187 -458h185v-117h-321v109l182 457h-179v119h320v-110z" />
    <glyph glyph-name="bracketleft" unicode="[" horiz-adv-x="234" 
d="M221 577h-69v-628h69v-109h-185v845h185v-108z" />
    <glyph glyph-name="backslash" unicode="\" horiz-adv-x="250" 
d="M238 0h-117l-108 685h117z" />
    <glyph glyph-name="bracketright" unicode="]" horiz-adv-x="234" 
d="M82 577h-69v108h185v-845h-185v109h69v628z" />
    <glyph glyph-name="asciicircum" unicode="^" horiz-adv-x="315" 
d="M296 84h-103l-36 205l-40 -205h-97l88 399h101z" />
    <glyph glyph-name="underscore" unicode="_" horiz-adv-x="287" 
d="M288 -166h-289v108h289v-108z" />
    <glyph glyph-name="grave" unicode="`" horiz-adv-x="245" 
d="M194 650v-94l-152 55v98z" />
    <glyph glyph-name="a" unicode="a" horiz-adv-x="376" 
d="M185 98q46 0 46 61v191q0 61 -46 61t-46 -60v-193q0 -60 46 -60zM233 509h114v-509h-114v34q-26 -41 -82 -41q-59 0 -93.5 40.5t-34.5 110.5v223q0 69 34.5 109t93.5 40q55 0 82 -40v33z" />
    <glyph glyph-name="b" unicode="b" horiz-adv-x="376" 
d="M143 685v-209q27 40 82 40q59 0 93.5 -39.5t34.5 -107.5v-227q0 -69 -34.5 -109t-93.5 -40q-55 0 -82 40v-33h-114v685h114zM191 98q46 0 46 60v193q0 60 -46 60t-46 -61v-191q0 -61 46 -61z" />
    <glyph glyph-name="c" unicode="c" horiz-adv-x="358" 
d="M223 193h114v-36q0 -82 -44 -124t-111 -42q-69 0 -114 42.5t-45 123.5v198q0 81 44.5 122.5t114.5 41.5q68 0 111.5 -41.5t43.5 -122.5v-54h-114v55q0 57 -41 57q-43 0 -43 -57v-202q0 -56 43 -56q41 0 41 56v39z" />
    <glyph glyph-name="d" unicode="d" horiz-adv-x="376" 
d="M185 98q46 0 46 61v191q0 61 -46 61t-46 -60v-193q0 -60 46 -60zM233 685h114v-685h-114v33q-27 -40 -82 -40q-59 0 -93.5 40t-34.5 109v227q0 68 34.5 107.5t93.5 39.5q55 0 82 -40v209z" />
    <glyph glyph-name="e" unicode="e" horiz-adv-x="357" 
d="M335 152q0 -79 -43.5 -120t-109.5 -41q-69 0 -114 42.5t-45 123.5v198q0 81 45 122.5t114 41.5q66 0 109.5 -41.5t43.5 -122.5v-128h-198v-73q0 -56 43 -56q42 0 42 51v21h113v-18zM137 356v-46h85v46q0 28 -12 42.5t-30 14.5q-43 0 -43 -57z" />
    <glyph glyph-name="f" unicode="f" horiz-adv-x="265" 
d="M250 594h-21q-44 0 -44 -52v-32h63v-107h-63v-403h-116v403h-52v107h52v36q0 71 36 109t99 38h46v-99z" />
    <glyph glyph-name="g" unicode="g" horiz-adv-x="377" 
d="M185 120q21 0 33.5 15.5t12.5 45.5v169q0 30 -12.5 45.5t-33.5 15.5q-46 0 -46 -60v-170q0 -61 46 -61zM233 -22v79q-28 -41 -83 -41q-59 0 -93 40.5t-34 110.5v200q0 69 34 109t93 40q55 0 82 -40v33h115v-530q0 -85 -47 -129t-119 -44q-69 0 -113.5 37t-44.5 113v17
h116v-14q0 -23 12.5 -35t31.5 -12q50 0 50 66z" />
    <glyph glyph-name="h" unicode="h" horiz-adv-x="386" 
d="M243 0v345q0 65 -47 65q-23 0 -37 -17t-14 -47v-346h-116v685h114v-221q37 52 100 52q53 0 84.5 -38t31.5 -99v-379h-116z" />
    <glyph glyph-name="i" unicode="i" horiz-adv-x="174" 
d="M145 574h-116v111h116v-111zM145 -1h-116v511h116v-511z" />
    <glyph glyph-name="j" unicode="j" horiz-adv-x="176" 
d="M146 575h-116v110h116v-110zM146 510v-500q0 -99 -40 -144t-120 -44v107q25 0 34.5 15t9.5 58v508h116z" />
    <glyph glyph-name="k" unicode="k" horiz-adv-x="361" 
d="M226 0l-81 188v-188h-116v685h116v-377l81 202h130l-115 -255l119 -255h-134z" />
    <glyph glyph-name="l" unicode="l" horiz-adv-x="174" 
d="M144 0h-115v685h115v-685z" />
    <glyph glyph-name="m" unicode="m" horiz-adv-x="585" 
d="M145 347v-347h-116v510h114v-47q32 53 97 53q60 0 91 -55q42 55 111 55q53 0 85 -37.5t32 -97.5v-381h-116v347q0 63 -44 63q-21 0 -34 -17t-13 -46v-347h-116v347q0 63 -43 63q-22 0 -35 -17t-13 -46z" />
    <glyph glyph-name="n" unicode="n" horiz-adv-x="386" 
d="M243 0v345q0 65 -47 65q-23 0 -37 -17t-14 -47v-346h-116v510h114v-46q37 52 100 52q53 0 84.5 -38t31.5 -99v-379h-116z" />
    <glyph glyph-name="o" unicode="o" 
d="M184 519q70 0 115.5 -41.5t45.5 -122.5v-198q0 -81 -45.5 -123.5t-115.5 -42.5t-115.5 42.5t-45.5 123.5v198q0 81 45.5 122.5t115.5 41.5zM184 98q20 0 32.5 14t12.5 41v204q0 28 -12.5 42t-32.5 14t-32.5 -14t-12.5 -42v-204q0 -27 12.5 -41t32.5 -14z" />
    <glyph glyph-name="p" unicode="p" horiz-adv-x="377" 
d="M193 98q46 0 46 60v193q0 60 -46 60t-46 -61v-191q0 -61 46 -61zM145 509v-33q27 40 82 40q59 0 93.5 -40t34.5 -109v-223q0 -70 -34.5 -110.5t-93.5 -40.5q-56 0 -82 41v-211h-114v686h114z" />
    <glyph glyph-name="q" unicode="q" horiz-adv-x="376" 
d="M231 509h115v-686h-115v211q-26 -41 -82 -41q-59 0 -93 40.5t-34 110.5v223q0 69 34 109t93 40q55 0 82 -40v33zM184 98q46 0 46 61v191q0 30 -12.5 45.5t-33.5 15.5q-46 0 -46 -60v-193q0 -60 46 -60z" />
    <glyph glyph-name="r" unicode="r" horiz-adv-x="247" 
d="M30 0v510h115v-64q3 8 9.5 20t30 31.5t50.5 19.5v-119q-90 0 -90 -155v-243h-115z" />
    <glyph glyph-name="s" unicode="s" horiz-adv-x="316" 
d="M297 368v-9h-106v14q0 48 -39 48q-16 0 -26 -10t-10 -27q0 -13 4.5 -23.5t20 -22t21.5 -15l30 -17.5q27 -16 41.5 -27t34.5 -31t29.5 -47.5t9.5 -61.5q0 -71 -42 -109.5t-108 -38.5t-107 37t-41 113v7h105v-10q0 -51 42 -51q40 0 40 39q0 17 -11 32.5t-23 24t-35 22.5
q-29 18 -42 27.5t-34.5 30.5t-31 48.5t-9.5 63.5q0 71 41 108t102 37q65 0 104.5 -37t39.5 -115z" />
    <glyph glyph-name="t" unicode="t" horiz-adv-x="264" 
d="M251 101v-101h-60q-128 0 -128 138v265h-47v107h47v135h117v-135h71v-107h-71v-254q0 -48 42 -48h29z" />
    <glyph glyph-name="u" unicode="u" horiz-adv-x="384" 
d="M143 510v-345q0 -66 46 -66q23 0 37 17.5t14 47.5v346h116v-510h-115v45q-36 -51 -98 -51q-53 0 -84.5 38t-31.5 98v380h116z" />
    <glyph glyph-name="v" unicode="v" horiz-adv-x="379" 
d="M267 0h-154l-104 510h126l57 -380l55 380h123z" />
    <glyph glyph-name="w" unicode="w" horiz-adv-x="504" 
d="M283 0l-31 301l-30 -301h-136l-77 510h116l33 -351l42 351h106l44 -357l33 357h113l-76 -510h-137z" />
    <glyph glyph-name="x" unicode="x" horiz-adv-x="356" 
d="M226 0l-52 148l-53 -148h-116l109 257l-108 253h125l49 -141l48 141h115l-104 -249l112 -261h-125z" />
    <glyph glyph-name="y" unicode="y" horiz-adv-x="370" 
d="M359 510l-120 -512q-23 -98 -61.5 -137t-104.5 -39h-35v106h25q46 0 62 73l-120 509h126l53 -312l55 312h120z" />
    <glyph glyph-name="z" unicode="z" horiz-adv-x="308" 
d="M291 415l-151 -311h149v-104h-273v94l155 312h-155v104h275v-95z" />
    <glyph glyph-name="braceleft" unicode="{" horiz-adv-x="245" 
d="M226 -159h-44q-53 1 -86.5 37t-33.5 97q0 41 15.5 96t15.5 80q0 33 -11.5 48t-38.5 14h-20v99h20q27 0 38.5 15t11.5 47q0 26 -15.5 81t-15.5 95q0 62 33.5 98.5t86.5 36.5h44v-109h-14q-35 0 -35 -52q0 -27 14 -78t14 -87q0 -31 -12.5 -55t-24.5 -33l-13 -9q3 0 14 -9
t23.5 -33t12.5 -54q0 -35 -14 -86t-14 -79q0 -49 33 -51h16v-109z" />
    <glyph glyph-name="bar" unicode="|" horiz-adv-x="181" 
d="M149 -143h-117v828h117v-828z" />
    <glyph glyph-name="braceright" unicode="}" horiz-adv-x="245" 
d="M20 -159v109h16q33 2 33 51q0 28 -14 79t-14 86q0 30 12.5 54t23.5 33t14 9q-50 33 -50 97q0 36 14 87t14 78q0 52 -35 52h-14v109h44q53 0 86.5 -36.5t33.5 -98.5q0 -40 -15.5 -95t-15.5 -81q0 -32 11.5 -47t38.5 -15h20v-99h-20q-27 1 -38.5 -14t-11.5 -48
q0 -25 15.5 -80t15.5 -96q0 -61 -33.5 -97t-86.5 -37h-44z" />
    <glyph glyph-name="asciitilde" unicode="~" horiz-adv-x="272" 
d="M15 216v106q27 46 73 46q25 0 61 -20t53 -20q32 0 55 34v-105q-25 -47 -74 -47q-24 0 -60 20t-54 20q-30 -1 -54 -34z" />
    <glyph glyph-name="exclamdown" unicode="&#xa1;" horiz-adv-x="169" 
d="M16 685h113v-126h-113v126zM18 0v503h109v-503h-109z" />
    <glyph glyph-name="cent" unicode="&#xa2;" horiz-adv-x="378" 
d="M360 165q0 -76 -40.5 -118.5t-103.5 -49.5v-89h-51v90q-64 7 -104 49.5t-40 117.5v224q0 75 40 117t104 49v93h51v-92q64 -7 104 -49.5t40 -117.5v-56h-114v57q0 43 -30 56v-339q30 12 30 54v42h114v-38zM137 161q0 -41 28 -53v337q-28 -13 -28 -55v-229z" />
    <glyph glyph-name="sterling" unicode="&#xa3;" horiz-adv-x="365" 
d="M348 38q-37 -48 -99 -48q-33 0 -82.5 27.5t-73.5 27.5q-40 0 -76 -45v114q18 23 40 34v112h-36v113h36v155q0 81 42 123t107 42t105.5 -41t40.5 -121v-32h-111v32q0 57 -35 57q-33 0 -33 -56v-159h91v-113h-91v-115q9 -4 24 -12.5t24.5 -13.5t22.5 -9t25 -4q40 0 79 45
v-113z" />
    <glyph glyph-name="yen" unicode="&#xa5;" horiz-adv-x="414" 
d="M365 122h-94v-122h-128v122h-94v100h94v50l-1 2h-93v100h60l-102 311h133l68 -256l71 256h128l-104 -311h62v-100h-94v-52h94v-100z" />
    <glyph glyph-name="brokenbar" unicode="&#xa6;" horiz-adv-x="181" 
d="M149 361h-117v324h117v-324zM149 -143h-117v323h117v-323z" />
    <glyph glyph-name="section" unicode="&#xa7;" horiz-adv-x="330" 
d="M180 242q5 -3 14 -7.5t12 -6.5q20 12 20 39q0 23 -17.5 37.5t-55.5 32.5q-4 2 -13.5 7t-14.5 8q-23 -8 -23 -37q0 -23 18 -37.5t60 -35.5zM162 -57q-65 0 -104.5 36t-39.5 110v7h101v-11q0 -52 42 -52q38 0 38 39q0 24 -18 38.5t-59 35.5q-60 29 -91.5 62.5t-31.5 95.5
q0 72 53 107q-26 36 -26 85q0 68 39 104t97 36q63 0 101.5 -35.5t38.5 -110.5v-6h-102v10q0 52 -38 52q-15 0 -24.5 -10t-9.5 -27q0 -13 5 -23t20.5 -20.5t23.5 -15t33 -17.5q25 -12 43.5 -23.5t38.5 -29.5t30.5 -44t10.5 -58q0 -73 -54 -111q26 -36 26 -86
q0 -65 -40.5 -101.5t-102.5 -36.5z" />
    <glyph glyph-name="dieresis" unicode="&#xa8;" horiz-adv-x="245" 
d="M240 577h-100v110h100v-110zM104 577h-100v110h100v-110z" />
    <glyph glyph-name="copyright" unicode="&#xa9;" horiz-adv-x="435" 
d="M23 312v182q0 95 56 148.5t139 53.5t139 -53.5t55 -148.5v-182q1 -94 -55 -147.5t-139 -53.5t-139 53t-56 148zM88 313q0 -72 37.5 -107.5t92.5 -35.5t93 36t37 107v180q1 72 -37 107.5t-93 35.5t-92.5 -35.5t-37.5 -107.5v-180zM241 370h69v-23q0 -48 -26 -73t-66 -25
t-66.5 25t-26.5 73v114q0 47 26 71.5t67 24.5q40 0 66 -24.5t26 -71.5v-33h-69v30q0 31 -23 31q-22 0 -22 -31v-111q0 -30 22 -30q23 0 23 31v22z" />
    <glyph glyph-name="ordfeminine" unicode="&#xaa;" horiz-adv-x="243" 
d="M122 424q28 0 28 39v123q0 39 -28 39q-30 0 -30 -38v-124q0 -39 30 -39zM152 687h73v-325h-73v22q-17 -26 -53 -26q-38 0 -59.5 25.5t-21.5 70.5v142q0 45 21.5 70.5t59.5 25.5q36 0 53 -26v21z" />
    <glyph glyph-name="guillemotleft" unicode="&#xab;" horiz-adv-x="383" 
d="M265 283l81 -220h-107l-82 220l82 224h107zM114 283l79 -220h-108l-78 220l78 224h108z" />
    <glyph glyph-name="registered" unicode="&#xae;" horiz-adv-x="435" 
d="M23 312v182q0 95 56 148.5t139 53.5t139 -53.5t55 -148.5v-182q1 -94 -55 -147.5t-139 -53.5t-139 53t-56 148zM88 313q0 -72 37.5 -107.5t92.5 -35.5t93 36t37 107v180q1 72 -37 107.5t-93 35.5t-92.5 -35.5t-37.5 -107.5v-180zM154 252v291h79v-41l2.5 5t7 11t11.5 14
t16 11t21 5v-80q-58 0 -58 -99v-117h-79z" />
    <glyph glyph-name="macron" unicode="&#xaf;" horiz-adv-x="245" 
d="M207 587h-169v97h169v-97z" />
    <glyph glyph-name="degree" unicode="&#xb0;" horiz-adv-x="262" 
d="M132 690q48 0 80 -29t32 -85v-104q0 -56 -32 -85.5t-80 -29.5q-49 0 -81 29.5t-32 85.5v104q0 56 32 85t81 29zM132 440q25 0 25 31v105q0 32 -26 32t-26 -32v-105q0 -31 27 -31z" />
    <glyph glyph-name="plusminus" unicode="&#xb1;" horiz-adv-x="280" 
d="M196 416h65v-113h-65v-86h-109v86h-68v113h68v86h109v-86zM261 0h-242v105h242v-105z" />
    <glyph glyph-name="acute" unicode="&#xb4;" horiz-adv-x="245" 
d="M200 615l-152 -56v94l152 59v-97z" />
    <glyph glyph-name="paragraph" unicode="&#xb6;" horiz-adv-x="348" 
d="M220 0h-72v208q-61 13 -95.5 58.5t-34.5 120.5v117q0 86 46.5 133.5t124.5 47.5h31v-685zM324 0h-72v685h72v-685z" />
    <glyph glyph-name="periodcentered" unicode="&#xb7;" horiz-adv-x="156" 
d="M137 220h-119v127h119v-127z" />
    <glyph glyph-name="cedilla" unicode="&#xb8;" horiz-adv-x="245" 
d="M122 -213q-38 0 -62 24t-23 61h59q0 -30 24 -30q26 0 26 31q0 13 -10 22.5t-25 9.5h-35l38 104h60l-22 -54q60 -13 60 -81q0 -37 -23.5 -62t-66.5 -25z" />
    <glyph glyph-name="ordmasculine" unicode="&#xba;" horiz-adv-x="243" 
d="M122 692q45 0 73.5 -26.5t28.5 -77.5v-127q0 -52 -28.5 -78.5t-73.5 -26.5q-44 0 -73.5 27t-29.5 78v127q0 51 29 77.5t74 26.5zM122 424q29 0 29 35v130q0 35 -29 35t-29 -35v-130q0 -35 29 -35z" />
    <glyph glyph-name="guillemotright" unicode="&#xbb;" horiz-adv-x="353" 
d="M89 283l-82 224h107l81 -224l-81 -220h-107zM239 283l-78 224h107l78 -224l-78 -220h-107z" />
    <glyph glyph-name="onequarter" unicode="&#xbc;" horiz-adv-x="465" 
d="M168 0h-87l176 685h87zM112 305h-81v305h-27v75h108v-380zM427 144h21v-69h-21v-75h-79v75h-105v69l98 236h86v-236zM312 144h36v96z" />
    <glyph glyph-name="onehalf" unicode="&#xbd;" horiz-adv-x="482" 
d="M168 0h-87l176 685h87zM112 305h-81v305h-27v75h108v-380zM460 0h-176v72l75 129q30 53 32 74q1 5 1 11q0 30 -22 30q-23 0 -23 -32v-15h-73v15q0 51 27.5 77t68.5 26q44 0 70.5 -25.5t26.5 -77.5t-44 -124l-54 -90h91v-70z" />
    <glyph glyph-name="threequarters" unicode="&#xbe;" horiz-adv-x="534" 
d="M237 0h-87l176 685h87zM112 300q-41 0 -68.5 26t-27.5 77v14h73v-16q0 -30 23 -30q20 0 20 28v61q0 29 -23 29q-15 0 -24 -13l-47 48l72 92h-91v69h177v-59l-56 -75q30 -4 49 -27.5t19 -65.5v-57q0 -50 -27.5 -75.5t-68.5 -25.5zM496 144h21v-69h-21v-75h-79v75h-105v69
l98 236h86v-236zM381 144h36v96z" />
    <glyph glyph-name="questiondown" unicode="&#xbf;" horiz-adv-x="308" 
d="M79 685h118v-126h-118v126zM132 -8q-68 0 -112 42t-44 123v96q0 64 28.5 104.5t76.5 53.5v92h114v-186h-35q-35 0 -52 -17.5t-17 -57.5v-89q0 -27 11.5 -41.5t30.5 -14.5q43 0 43 62v32h113v-33q0 -82 -43 -124t-114 -42z" />
    <glyph glyph-name="Agrave" unicode="&#xc0;" horiz-adv-x="430" 
d="M287 825v-94l-152 55v98zM255 243l-41 266l-44 -266h85zM293 0l-21 133h-119l-22 -133h-124l124 685h167l125 -685h-130z" />
    <glyph glyph-name="Aacute" unicode="&#xc1;" horiz-adv-x="430" 
d="M293 790l-152 -56v94l152 59v-97zM255 243l-41 266l-44 -266h85zM293 0l-21 133h-119l-22 -133h-124l124 685h167l125 -685h-130z" />
    <glyph glyph-name="Acircumflex" unicode="&#xc2;" horiz-adv-x="430" 
d="M309 821v-90l-94 48l-93 -48v90l93 54zM255 243l-41 266l-44 -266h85zM293 0l-21 133h-119l-22 -133h-124l124 685h167l125 -685h-130z" />
    <glyph glyph-name="Atilde" unicode="&#xc3;" horiz-adv-x="430" 
d="M253 739q-19 0 -47 12t-43 12q-26 0 -39 -21v85q17 30 54 30q19 0 47 -12t43 -12q26 0 39 21v-86q-16 -29 -54 -29zM255 243l-41 266l-44 -266h85zM293 0l-21 133h-119l-22 -133h-124l124 685h167l125 -685h-130z" />
    <glyph glyph-name="Adieresis" unicode="&#xc4;" horiz-adv-x="430" 
d="M333 752h-100v110h100v-110zM197 752h-100v110h100v-110zM255 243l-41 266l-44 -266h85zM293 0l-21 133h-119l-22 -133h-124l124 685h167l125 -685h-130z" />
    <glyph glyph-name="Aring" unicode="&#xc5;" horiz-adv-x="430" 
d="M215 914q34 0 59.5 -25t25.5 -63q0 -37 -25.5 -62t-59.5 -25t-59.5 25t-25.5 62q0 38 25.5 63t59.5 25zM215 865q-14 0 -24 -11t-10 -28q0 -16 10 -27t24 -11t24 11t10 27q0 17 -10 28t-24 11zM255 243l-41 266l-44 -266h85zM293 0l-21 133h-119l-22 -133h-124l124 685
h167l125 -685h-130z" />
    <glyph glyph-name="AE" unicode="&#xc6;" horiz-adv-x="598" 
d="M255 243l-42 269l-43 -269h85zM293 0l-21 133h-120l-21 -133h-124l124 685h449v-116h-259l29 -163h209v-118h-188l30 -172h183v-116h-291z" />
    <glyph glyph-name="Ccedilla" unicode="&#xc7;" horiz-adv-x="405" 
d="M193 -213q-38 0 -62 24t-23 61h59q0 -30 24 -30q26 0 26 31q0 13 -10 22.5t-25 9.5h-35l31 85q-67 9 -109 56t-42 129v336q0 91 51.5 138.5t129.5 47.5q76 0 125 -46.5t49 -134.5v-90h-125v84q0 65 -49 65q-22 0 -36.5 -17t-14.5 -51v-329q0 -34 14 -51.5t36 -17.5
q50 0 50 66v68h125v-73q0 -79 -40 -125t-105 -55l-14 -35q60 -13 60 -81q0 -37 -23.5 -62t-66.5 -25z" />
    <glyph glyph-name="Egrave" unicode="&#xc8;" horiz-adv-x="359" 
d="M267 825v-94l-152 55v98zM33 0v685h309v-116h-181v-163h160v-118h-160v-172h185v-116h-313z" />
    <glyph glyph-name="Eacute" unicode="&#xc9;" horiz-adv-x="359" 
d="M273 790l-152 -56v94l152 59v-97zM33 0v685h309v-116h-181v-163h160v-118h-160v-172h185v-116h-313z" />
    <glyph glyph-name="Ecircumflex" unicode="&#xca;" horiz-adv-x="359" 
d="M289 821v-90l-94 48l-93 -48v90l93 54zM33 0v685h309v-116h-181v-163h160v-118h-160v-172h185v-116h-313z" />
    <glyph glyph-name="Edieresis" unicode="&#xcb;" horiz-adv-x="359" 
d="M313 752h-100v110h100v-110zM177 752h-100v110h100v-110zM33 0v685h309v-116h-181v-163h160v-118h-160v-172h185v-116h-313z" />
    <glyph glyph-name="Igrave" unicode="&#xcc;" horiz-adv-x="195" 
d="M170 825v-94l-152 55v98zM161 0h-128v685h128v-685z" />
    <glyph glyph-name="Iacute" unicode="&#xcd;" horiz-adv-x="195" 
d="M176 790l-152 -56v94l152 59v-97zM161 0h-128v685h128v-685z" />
    <glyph glyph-name="Icircumflex" unicode="&#xce;" horiz-adv-x="195" 
d="M192 821v-90l-94 48l-93 -48v90l93 54zM161 0h-128v685h128v-685z" />
    <glyph glyph-name="Idieresis" unicode="&#xcf;" horiz-adv-x="195" 
d="M216 752h-100v110h100v-110zM80 752h-101v110h101v-110zM161 0h-128v685h128v-685z" />
    <glyph glyph-name="Eth" unicode="&#xd0;" horiz-adv-x="426" 
d="M32 0v286h-30v111h30v288h179q82 0 131 -47.5t49 -138.5v-312q0 -92 -49 -139.5t-131 -47.5h-179zM202 286h-41v-168h48q23 0 38 16t15 48v320q0 32 -14.5 48.5t-37.5 16.5h-49v-170h41v-111z" />
    <glyph glyph-name="Ntilde" unicode="&#xd1;" horiz-adv-x="434" 
d="M255 739q-19 0 -47 12t-43 12q-26 0 -39 -21v85q17 30 54 30q19 0 47 -12t43 -12q26 0 39 21v-86q-16 -29 -54 -29zM278 0l-129 398v-398h-116v685h130l123 -392v392h115v-685h-123z" />
    <glyph glyph-name="Ograve" unicode="&#xd2;" horiz-adv-x="428" 
d="M286 825v-94l-152 55v98zM214 -12q-81 0 -134 48.5t-53 139.5v334q0 91 53 139t134 48q80 0 133.5 -48.5t53.5 -138.5v-334q0 -91 -53.5 -139.5t-133.5 -48.5zM214 109q25 0 41 17.5t16 53.5v325q0 35 -16 53t-41 18t-41 -18t-16 -53v-325q0 -36 15.5 -53.5t41.5 -17.5z
" />
    <glyph glyph-name="Oacute" unicode="&#xd3;" horiz-adv-x="428" 
d="M292 790l-152 -56v94l152 59v-97zM214 -12q-81 0 -134 48.5t-53 139.5v334q0 91 53 139t134 48q80 0 133.5 -48.5t53.5 -138.5v-334q0 -91 -53.5 -139.5t-133.5 -48.5zM214 109q25 0 41 17.5t16 53.5v325q0 35 -16 53t-41 18t-41 -18t-16 -53v-325q0 -36 15.5 -53.5
t41.5 -17.5z" />
    <glyph glyph-name="Ocircumflex" unicode="&#xd4;" horiz-adv-x="428" 
d="M308 821v-90l-94 48l-93 -48v90l93 54zM214 -12q-81 0 -134 48.5t-53 139.5v334q0 91 53 139t134 48q80 0 133.5 -48.5t53.5 -138.5v-334q0 -91 -53.5 -139.5t-133.5 -48.5zM214 109q25 0 41 17.5t16 53.5v325q0 35 -16 53t-41 18t-41 -18t-16 -53v-325q0 -36 15.5 -53.5
t41.5 -17.5z" />
    <glyph glyph-name="Otilde" unicode="&#xd5;" horiz-adv-x="428" 
d="M252 739q-19 0 -47 12t-43 12q-26 0 -39 -21v85q17 30 54 30q19 0 47 -12t43 -12q26 0 39 21v-86q-16 -29 -54 -29zM214 -12q-81 0 -134 48.5t-53 139.5v334q0 91 53 139t134 48q80 0 133.5 -48.5t53.5 -138.5v-334q0 -91 -53.5 -139.5t-133.5 -48.5zM214 109
q25 0 41 17.5t16 53.5v325q0 35 -16 53t-41 18t-41 -18t-16 -53v-325q0 -36 15.5 -53.5t41.5 -17.5z" />
    <glyph glyph-name="Odieresis" unicode="&#xd6;" horiz-adv-x="428" 
d="M332 752h-100v110h100v-110zM196 752h-100v110h100v-110zM214 -12q-81 0 -134 48.5t-53 139.5v334q0 91 53 139t134 48q80 0 133.5 -48.5t53.5 -138.5v-334q0 -91 -53.5 -139.5t-133.5 -48.5zM214 109q25 0 41 17.5t16 53.5v325q0 35 -16 53t-41 18t-41 -18t-16 -53v-325
q0 -36 15.5 -53.5t41.5 -17.5z" />
    <glyph glyph-name="multiply" unicode="&#xd7;" horiz-adv-x="300" 
d="M202 134l-49 64l-50 -64l-81 71l62 81l-62 80l81 71l50 -64l49 64l81 -71l-62 -80l62 -81z" />
    <glyph glyph-name="Oslash" unicode="&#xd8;" horiz-adv-x="435" 
d="M157 505v-219l101 268q-15 22 -44 22q-25 0 -41 -18t-16 -53zM214 109q25 0 41 17.5t16 53.5v197l-95 -254q14 -14 38 -14zM214 -12q-46 0 -83 15l-16 -43h-81l34 89q-41 49 -41 127v334q0 91 53 139t134 48q52 0 91 -20l18 48h78l-36 -96q36 -47 36 -119v-334
q0 -91 -53.5 -139.5t-133.5 -48.5z" />
    <glyph glyph-name="Ugrave" unicode="&#xd9;" horiz-adv-x="421" 
d="M283 825v-94l-152 55v98zM159 685v-507q0 -71 51 -71q23 0 37.5 18t14.5 53v507h130v-507q0 -89 -51 -139.5t-131 -50.5q-79 0 -129.5 50.5t-50.5 139.5v507h129z" />
    <glyph glyph-name="Uacute" unicode="&#xda;" horiz-adv-x="421" 
d="M289 790l-152 -56v94l152 59v-97zM159 685v-507q0 -71 51 -71q23 0 37.5 18t14.5 53v507h130v-507q0 -89 -51 -139.5t-131 -50.5q-79 0 -129.5 50.5t-50.5 139.5v507h129z" />
    <glyph glyph-name="Ucircumflex" unicode="&#xdb;" horiz-adv-x="421" 
d="M305 821v-90l-94 48l-93 -48v90l93 54zM159 685v-507q0 -71 51 -71q23 0 37.5 18t14.5 53v507h130v-507q0 -89 -51 -139.5t-131 -50.5q-79 0 -129.5 50.5t-50.5 139.5v507h129z" />
    <glyph glyph-name="Udieresis" unicode="&#xdc;" horiz-adv-x="421" 
d="M329 752h-100v110h100v-110zM193 752h-100v110h100v-110zM159 685v-507q0 -71 51 -71q23 0 37.5 18t14.5 53v507h130v-507q0 -89 -51 -139.5t-131 -50.5q-79 0 -129.5 50.5t-50.5 139.5v507h129z" />
    <glyph glyph-name="Yacute" unicode="&#xdd;" horiz-adv-x="414" 
d="M285 790l-152 -56v94l152 59v-97zM271 0h-128v272l-136 413h133l68 -256l71 256h128l-136 -408v-277z" />
    <glyph glyph-name="Thorn" unicode="&#xde;" horiz-adv-x="394" 
d="M201 101h-39v-101h-129v685h129v-103h44q79 0 126 -47.5t47 -133.5v-116q0 -89 -47.5 -136.5t-130.5 -47.5zM193 464h-31v-245h29q25 0 41 16t16 50v112q0 67 -55 67z" />
    <glyph glyph-name="germandbls" unicode="&#xdf;" horiz-adv-x="374" 
d="M145 537v-537h-116v537q0 76 40.5 117.5t114.5 41.5q70 0 113 -40.5t43 -118.5v-64q0 -71 -41 -112q51 -41 51 -120v-82q0 -77 -46 -118t-117 -41h-6v106h6q21 0 34 13t13 38v96q0 25 -12 38t-31 13h-10v107h10q36 0 36 50v76q0 53 -41 53t-41 -53z" />
    <glyph glyph-name="agrave" unicode="&#xe0;" horiz-adv-x="376" 
d="M257 650v-94l-152 55v98zM185 98q46 0 46 61v191q0 61 -46 61t-46 -60v-193q0 -60 46 -60zM233 509h114v-509h-114v34q-26 -41 -82 -41q-59 0 -93.5 40.5t-34.5 110.5v223q0 69 34.5 109t93.5 40q55 0 82 -40v33z" />
    <glyph glyph-name="aacute" unicode="&#xe1;" horiz-adv-x="376" 
d="M263 615l-152 -56v94l152 59v-97zM185 98q46 0 46 61v191q0 61 -46 61t-46 -60v-193q0 -60 46 -60zM233 509h114v-509h-114v34q-26 -41 -82 -41q-59 0 -93.5 40.5t-34.5 110.5v223q0 69 34.5 109t93.5 40q55 0 82 -40v33z" />
    <glyph glyph-name="acircumflex" unicode="&#xe2;" horiz-adv-x="376" 
d="M279 646v-90l-94 48l-93 -48v90l93 54zM185 98q46 0 46 61v191q0 61 -46 61t-46 -60v-193q0 -60 46 -60zM233 509h114v-509h-114v34q-26 -41 -82 -41q-59 0 -93.5 40.5t-34.5 110.5v223q0 69 34.5 109t93.5 40q55 0 82 -40v33z" />
    <glyph glyph-name="atilde" unicode="&#xe3;" horiz-adv-x="376" 
d="M223 564q-19 0 -47 12t-43 12q-26 0 -39 -21v85q17 30 54 30q19 0 47 -12t43 -12q26 0 39 21v-86q-16 -29 -54 -29zM185 98q46 0 46 61v191q0 61 -46 61t-46 -60v-193q0 -60 46 -60zM233 509h114v-509h-114v34q-26 -41 -82 -41q-59 0 -93.5 40.5t-34.5 110.5v223
q0 69 34.5 109t93.5 40q55 0 82 -40v33z" />
    <glyph glyph-name="adieresis" unicode="&#xe4;" horiz-adv-x="376" 
d="M303 577h-100v110h100v-110zM167 577h-100v110h100v-110zM185 98q46 0 46 61v191q0 61 -46 61t-46 -60v-193q0 -60 46 -60zM233 509h114v-509h-114v34q-26 -41 -82 -41q-59 0 -93.5 40.5t-34.5 110.5v223q0 69 34.5 109t93.5 40q55 0 82 -40v33z" />
    <glyph glyph-name="aring" unicode="&#xe5;" horiz-adv-x="376" 
d="M185 739q34 0 59.5 -25t25.5 -63q0 -37 -25.5 -62t-59.5 -25t-59.5 25t-25.5 62q0 38 25.5 63t59.5 25zM185 690q-14 0 -24 -11t-10 -28q0 -16 10 -27t24 -11t24 11t10 27q0 17 -10 28t-24 11zM185 98q46 0 46 61v191q0 61 -46 61t-46 -60v-193q0 -60 46 -60zM233 509
h114v-509h-114v34q-26 -41 -82 -41q-59 0 -93.5 40.5t-34.5 110.5v223q0 69 34.5 109t93.5 40q55 0 82 -40v33z" />
    <glyph glyph-name="ae" unicode="&#xe6;" horiz-adv-x="573" 
d="M545 152q0 -75 -32.5 -117t-87.5 -42q-53 0 -78 39v-32h-114v34q-26 -41 -82 -41q-59 0 -93.5 40.5t-34.5 110.5v223q0 69 34.5 109t93.5 40q55 0 82 -40v33h114v-32q25 39 78 39q56 0 88 -41.5t32 -113.5v-134h-198v-72q0 -28 12 -42t31 -14q43 0 43 52v19h112v-18z
M185 98q46 0 46 61v191q0 61 -46 61t-46 -60v-193q0 -60 46 -60zM347 353v-43h86v43q0 57 -43 57t-43 -57z" />
    <glyph glyph-name="ccedilla" unicode="&#xe7;" horiz-adv-x="358" 
d="M169 -213q-38 0 -62 24t-23 61h59q0 -30 24 -30q26 0 26 31q0 13 -10 22.5t-25 9.5h-35l32 88q-59 8 -95.5 50t-36.5 114v198q0 81 44.5 122.5t114.5 41.5q68 0 111.5 -41.5t43.5 -122.5v-54h-114v55q0 57 -41 57q-43 0 -43 -57v-202q0 -56 43 -56q41 0 41 56v39h114v-36
q0 -72 -33.5 -112.5t-88.5 -50.5l-16 -39q60 -13 60 -81q0 -37 -23.5 -62t-66.5 -25z" />
    <glyph glyph-name="egrave" unicode="&#xe8;" horiz-adv-x="357" 
d="M251 650v-94l-152 55v98zM335 152q0 -79 -43.5 -120t-109.5 -41q-69 0 -114 42.5t-45 123.5v198q0 81 45 122.5t114 41.5q66 0 109.5 -41.5t43.5 -122.5v-128h-198v-73q0 -56 43 -56q42 0 42 51v21h113v-18zM137 356v-46h85v46q0 28 -12 42.5t-30 14.5q-43 0 -43 -57z
" />
    <glyph glyph-name="eacute" unicode="&#xe9;" horiz-adv-x="357" 
d="M257 615l-152 -56v94l152 59v-97zM335 152q0 -79 -43.5 -120t-109.5 -41q-69 0 -114 42.5t-45 123.5v198q0 81 45 122.5t114 41.5q66 0 109.5 -41.5t43.5 -122.5v-128h-198v-73q0 -56 43 -56q42 0 42 51v21h113v-18zM137 356v-46h85v46q0 28 -12 42.5t-30 14.5
q-43 0 -43 -57z" />
    <glyph glyph-name="ecircumflex" unicode="&#xea;" horiz-adv-x="357" 
d="M273 646v-90l-94 48l-93 -48v90l93 54zM335 152q0 -79 -43.5 -120t-109.5 -41q-69 0 -114 42.5t-45 123.5v198q0 81 45 122.5t114 41.5q66 0 109.5 -41.5t43.5 -122.5v-128h-198v-73q0 -56 43 -56q42 0 42 51v21h113v-18zM137 356v-46h85v46q0 28 -12 42.5t-30 14.5
q-43 0 -43 -57z" />
    <glyph glyph-name="edieresis" unicode="&#xeb;" horiz-adv-x="357" 
d="M297 577h-100v110h100v-110zM161 577h-100v110h100v-110zM335 152q0 -79 -43.5 -120t-109.5 -41q-69 0 -114 42.5t-45 123.5v198q0 81 45 122.5t114 41.5q66 0 109.5 -41.5t43.5 -122.5v-128h-198v-73q0 -56 43 -56q42 0 42 51v21h113v-18zM137 356v-46h85v46
q0 28 -12 42.5t-30 14.5q-43 0 -43 -57z" />
    <glyph glyph-name="igrave" unicode="&#xec;" horiz-adv-x="174" 
d="M159 650v-94l-152 55v98zM145 -1h-116v511h116v-511z" />
    <glyph glyph-name="iacute" unicode="&#xed;" horiz-adv-x="174" 
d="M165 615l-152 -56v94l152 59v-97zM145 -1h-116v511h116v-511z" />
    <glyph glyph-name="icircumflex" unicode="&#xee;" horiz-adv-x="174" 
d="M181 646v-90l-94 48l-93 -48v90l93 54zM145 -1h-116v511h116v-511z" />
    <glyph glyph-name="idieresis" unicode="&#xef;" horiz-adv-x="174" 
d="M205 577h-100v110h100v-110zM69 577h-100v110h100v-110zM145 -1h-116v511h116v-511z" />
    <glyph glyph-name="eth" unicode="&#xf0;" 
d="M184 -9q-70 0 -115.5 42.5t-45.5 123.5v188q0 80 45.5 122t115.5 42q13 0 19 -1l-12 39l-50 -14v79l27 8l-20 65h115l10 -35l44 12v-80l-23 -6l30 -105q21 -74 21 -164v-150q0 -81 -45.5 -123.5t-115.5 -42.5zM184 98q20 0 32.5 14t12.5 41v194q0 27 -12.5 41t-32.5 14
t-32.5 -14t-12.5 -41v-194q0 -27 12.5 -41t32.5 -14z" />
    <glyph glyph-name="ntilde" unicode="&#xf1;" horiz-adv-x="386" 
d="M231 564q-19 0 -47 12t-43 12q-26 0 -39 -21v85q17 30 54 30q19 0 47 -12t43 -12q26 0 39 21v-86q-16 -29 -54 -29zM243 0v345q0 65 -47 65q-23 0 -37 -17t-14 -47v-346h-116v510h114v-46q37 52 100 52q53 0 84.5 -38t31.5 -99v-379h-116z" />
    <glyph glyph-name="ograve" unicode="&#xf2;" 
d="M256 650v-94l-152 55v98zM184 519q70 0 115.5 -41.5t45.5 -122.5v-198q0 -81 -45.5 -123.5t-115.5 -42.5t-115.5 42.5t-45.5 123.5v198q0 81 45.5 122.5t115.5 41.5zM184 98q20 0 32.5 14t12.5 41v204q0 28 -12.5 42t-32.5 14t-32.5 -14t-12.5 -42v-204q0 -27 12.5 -41
t32.5 -14z" />
    <glyph glyph-name="oacute" unicode="&#xf3;" 
d="M262 615l-152 -56v94l152 59v-97zM184 519q70 0 115.5 -41.5t45.5 -122.5v-198q0 -81 -45.5 -123.5t-115.5 -42.5t-115.5 42.5t-45.5 123.5v198q0 81 45.5 122.5t115.5 41.5zM184 98q20 0 32.5 14t12.5 41v204q0 28 -12.5 42t-32.5 14t-32.5 -14t-12.5 -42v-204
q0 -27 12.5 -41t32.5 -14z" />
    <glyph glyph-name="ocircumflex" unicode="&#xf4;" 
d="M278 646v-90l-94 48l-93 -48v90l93 54zM184 519q70 0 115.5 -41.5t45.5 -122.5v-198q0 -81 -45.5 -123.5t-115.5 -42.5t-115.5 42.5t-45.5 123.5v198q0 81 45.5 122.5t115.5 41.5zM184 98q20 0 32.5 14t12.5 41v204q0 28 -12.5 42t-32.5 14t-32.5 -14t-12.5 -42v-204
q0 -27 12.5 -41t32.5 -14z" />
    <glyph glyph-name="otilde" unicode="&#xf5;" 
d="M222 564q-19 0 -47 12t-43 12q-26 0 -39 -21v85q17 30 54 30q19 0 47 -12t43 -12q26 0 39 21v-86q-16 -29 -54 -29zM184 519q70 0 115.5 -41.5t45.5 -122.5v-198q0 -81 -45.5 -123.5t-115.5 -42.5t-115.5 42.5t-45.5 123.5v198q0 81 45.5 122.5t115.5 41.5zM184 98
q20 0 32.5 14t12.5 41v204q0 28 -12.5 42t-32.5 14t-32.5 -14t-12.5 -42v-204q0 -27 12.5 -41t32.5 -14z" />
    <glyph glyph-name="odieresis" unicode="&#xf6;" 
d="M302 577h-100v110h100v-110zM166 577h-100v110h100v-110zM184 519q70 0 115.5 -41.5t45.5 -122.5v-198q0 -81 -45.5 -123.5t-115.5 -42.5t-115.5 42.5t-45.5 123.5v198q0 81 45.5 122.5t115.5 41.5zM184 98q20 0 32.5 14t12.5 41v204q0 28 -12.5 42t-32.5 14t-32.5 -14
t-12.5 -42v-204q0 -27 12.5 -41t32.5 -14z" />
    <glyph glyph-name="divide" unicode="&#xf7;" horiz-adv-x="280" 
d="M199 393h-115v111h115v-111zM261 229h-242v113h242v-113zM199 65h-115v111h115v-111z" />
    <glyph glyph-name="oslash" unicode="&#xf8;" 
d="M134 352v-133l71 190q-9 4 -21 4q-22 0 -36 -15.5t-14 -45.5zM184 98q22 0 36 15t14 45v127l-68 -184q9 -3 18 -3zM184 -9q-27 0 -56 8l-14 -39h-76l28 76q-43 45 -43 121v198q0 81 45.5 122.5t115.5 41.5q29 0 58 -8l15 39h75l-28 -77q41 -44 41 -118v-198
q0 -81 -45.5 -123.5t-115.5 -42.5z" />
    <glyph glyph-name="ugrave" unicode="&#xf9;" horiz-adv-x="384" 
d="M264 650v-94l-152 55v98zM143 510v-345q0 -66 46 -66q23 0 37 17.5t14 47.5v346h116v-510h-115v45q-36 -51 -98 -51q-53 0 -84.5 38t-31.5 98v380h116z" />
    <glyph glyph-name="uacute" unicode="&#xfa;" horiz-adv-x="384" 
d="M270 615l-152 -56v94l152 59v-97zM143 510v-345q0 -66 46 -66q23 0 37 17.5t14 47.5v346h116v-510h-115v45q-36 -51 -98 -51q-53 0 -84.5 38t-31.5 98v380h116z" />
    <glyph glyph-name="ucircumflex" unicode="&#xfb;" horiz-adv-x="384" 
d="M286 646v-90l-94 48l-93 -48v90l93 54zM143 510v-345q0 -66 46 -66q23 0 37 17.5t14 47.5v346h116v-510h-115v45q-36 -51 -98 -51q-53 0 -84.5 38t-31.5 98v380h116z" />
    <glyph glyph-name="udieresis" unicode="&#xfc;" horiz-adv-x="384" 
d="M310 577h-100v110h100v-110zM174 577h-100v110h100v-110zM143 510v-345q0 -66 46 -66q23 0 37 17.5t14 47.5v346h116v-510h-115v45q-36 -51 -98 -51q-53 0 -84.5 38t-31.5 98v380h116z" />
    <glyph glyph-name="yacute" unicode="&#xfd;" horiz-adv-x="370" 
d="M265 615l-152 -56v94l152 59v-97zM359 510l-120 -512q-23 -98 -61.5 -137t-104.5 -39h-35v106h25q46 0 62 73l-120 509h126l53 -312l55 312h120z" />
    <glyph glyph-name="thorn" unicode="&#xfe;" horiz-adv-x="377" 
d="M193 98q46 0 46 60v193q0 60 -46 60t-46 -61v-191q0 -61 46 -61zM145 685v-209q27 40 82 40q59 0 93.5 -40t34.5 -109v-223q0 -70 -34.5 -110.5t-93.5 -40.5q-56 0 -82 41v-211h-114v862h114z" />
    <glyph glyph-name="ydieresis" unicode="&#xff;" horiz-adv-x="370" 
d="M305 577h-100v110h100v-110zM169 577h-100v110h100v-110zM359 510l-120 -512q-23 -98 -61.5 -137t-104.5 -39h-35v106h25q46 0 62 73l-120 509h126l53 -312l55 312h120z" />
    <glyph glyph-name="Amacron" unicode="&#x100;" horiz-adv-x="430" 
d="M300 762h-169v97h169v-97zM255 243l-41 266l-44 -266h85zM293 0l-21 133h-119l-22 -133h-124l124 685h167l125 -685h-130z" />
    <glyph glyph-name="amacron" unicode="&#x101;" horiz-adv-x="376" 
d="M270 587h-169v97h169v-97zM185 98q46 0 46 61v191q0 61 -46 61t-46 -60v-193q0 -60 46 -60zM233 509h114v-509h-114v34q-26 -41 -82 -41q-59 0 -93.5 40.5t-34.5 110.5v223q0 69 34.5 109t93.5 40q55 0 82 -40v33z" />
    <glyph glyph-name="Abreve" unicode="&#x102;" horiz-adv-x="430" 
d="M304 867v-89q-6 -8 -15.5 -16.5t-30 -17.5t-43.5 -9q-33 0 -57 15t-32 28v89q38 -38 89 -38q47 0 89 38zM255 243l-41 266l-44 -266h85zM293 0l-21 133h-119l-22 -133h-124l124 685h167l125 -685h-130z" />
    <glyph glyph-name="abreve" unicode="&#x103;" horiz-adv-x="376" 
d="M274 692v-89q-6 -8 -15.5 -16.5t-30 -17.5t-43.5 -9q-33 0 -57 15t-32 28v89q38 -38 89 -38q47 0 89 38zM185 98q46 0 46 61v191q0 61 -46 61t-46 -60v-193q0 -60 46 -60zM233 509h114v-509h-114v34q-26 -41 -82 -41q-59 0 -93.5 40.5t-34.5 110.5v223q0 69 34.5 109
t93.5 40q55 0 82 -40v33z" />
    <glyph glyph-name="Aogonek" unicode="&#x104;" horiz-adv-x="430" 
d="M388 -167q-12 -12 -42 -12q-36 0 -57 21t-21 57q0 60 54 101h-29l-21 133h-119l-22 -133h-124l124 685h167l125 -685h-53q-37 -42 -37 -80q0 -36 30 -36q13 0 25 7v-58zM255 243l-41 266l-44 -266h85z" />
    <glyph glyph-name="aogonek" unicode="&#x105;" horiz-adv-x="376" 
d="M328 -167q-12 -12 -42 -12q-36 0 -57 21t-21 57q0 60 54 101h-29v34q-26 -41 -82 -41q-59 0 -93.5 40.5t-34.5 110.5v223q0 69 34.5 109t93.5 40q55 0 82 -40v33h114v-509h-37q-37 -42 -37 -80q0 -36 30 -36q13 0 25 7v-58zM185 98q46 0 46 61v191q0 61 -46 61t-46 -60
v-193q0 -60 46 -60z" />
    <glyph glyph-name="Cacute" unicode="&#x106;" horiz-adv-x="405" 
d="M290 790l-152 -56v94l152 59v-97zM382 426h-125v84q0 65 -49 65q-22 0 -36.5 -17t-14.5 -51v-329q0 -34 14 -51.5t36 -17.5q50 0 50 66v68h125v-73q0 -88 -49 -135t-125 -47q-78 0 -129.5 48t-51.5 139v336q0 91 51.5 138.5t129.5 47.5q76 0 125 -46.5t49 -134.5v-90z
" />
    <glyph glyph-name="cacute" unicode="&#x107;" horiz-adv-x="358" 
d="M257 615l-152 -56v94l152 59v-97zM223 193h114v-36q0 -82 -44 -124t-111 -42q-69 0 -114 42.5t-45 123.5v198q0 81 44.5 122.5t114.5 41.5q68 0 111.5 -41.5t43.5 -122.5v-54h-114v55q0 57 -41 57q-43 0 -43 -57v-202q0 -56 43 -56q41 0 41 56v39z" />
    <glyph glyph-name="Ccircumflex" unicode="&#x108;" horiz-adv-x="405" 
d="M306 821v-90l-94 48l-93 -48v90l93 54zM382 426h-125v84q0 65 -49 65q-22 0 -36.5 -17t-14.5 -51v-329q0 -34 14 -51.5t36 -17.5q50 0 50 66v68h125v-73q0 -88 -49 -135t-125 -47q-78 0 -129.5 48t-51.5 139v336q0 91 51.5 138.5t129.5 47.5q76 0 125 -46.5t49 -134.5
v-90z" />
    <glyph glyph-name="ccircumflex" unicode="&#x109;" horiz-adv-x="358" 
d="M273 646v-90l-94 48l-93 -48v90l93 54zM223 193h114v-36q0 -82 -44 -124t-111 -42q-69 0 -114 42.5t-45 123.5v198q0 81 44.5 122.5t114.5 41.5q68 0 111.5 -41.5t43.5 -122.5v-54h-114v55q0 57 -41 57q-43 0 -43 -57v-202q0 -56 43 -56q41 0 41 56v39z" />
    <glyph glyph-name="Cdotaccent" unicode="&#x10a;" horiz-adv-x="405" 
d="M270 753h-117v109h117v-109zM382 426h-125v84q0 65 -49 65q-22 0 -36.5 -17t-14.5 -51v-329q0 -34 14 -51.5t36 -17.5q50 0 50 66v68h125v-73q0 -88 -49 -135t-125 -47q-78 0 -129.5 48t-51.5 139v336q0 91 51.5 138.5t129.5 47.5q76 0 125 -46.5t49 -134.5v-90z" />
    <glyph glyph-name="cdotaccent" unicode="&#x10b;" horiz-adv-x="358" 
d="M237 578h-117v109h117v-109zM223 193h114v-36q0 -82 -44 -124t-111 -42q-69 0 -114 42.5t-45 123.5v198q0 81 44.5 122.5t114.5 41.5q68 0 111.5 -41.5t43.5 -122.5v-54h-114v55q0 57 -41 57q-43 0 -43 -57v-202q0 -56 43 -56q41 0 41 56v39z" />
    <glyph glyph-name="Ccaron" unicode="&#x10c;" horiz-adv-x="405" 
d="M306 782l-94 -52l-93 52v90l93 -46l94 46v-90zM382 426h-125v84q0 65 -49 65q-22 0 -36.5 -17t-14.5 -51v-329q0 -34 14 -51.5t36 -17.5q50 0 50 66v68h125v-73q0 -88 -49 -135t-125 -47q-78 0 -129.5 48t-51.5 139v336q0 91 51.5 138.5t129.5 47.5q76 0 125 -46.5
t49 -134.5v-90z" />
    <glyph glyph-name="ccaron" unicode="&#x10d;" horiz-adv-x="358" 
d="M273 607l-94 -52l-93 52v90l93 -46l94 46v-90zM223 193h114v-36q0 -82 -44 -124t-111 -42q-69 0 -114 42.5t-45 123.5v198q0 81 44.5 122.5t114.5 41.5q68 0 111.5 -41.5t43.5 -122.5v-54h-114v55q0 57 -41 57q-43 0 -43 -57v-202q0 -56 43 -56q41 0 41 56v39z" />
    <glyph glyph-name="Dcaron" unicode="&#x10e;" horiz-adv-x="420" 
d="M304 782l-94 -52l-93 52v90l93 -46l94 46v-90zM32 0v685h179q82 0 131 -47.5t49 -138.5v-312q0 -92 -49 -139.5t-131 -47.5h-179zM210 567h-49v-449h48q23 0 38 16t15 48v320q0 32 -14.5 48.5t-37.5 16.5z" />
    <glyph glyph-name="dcaron" unicode="&#x10f;" horiz-adv-x="505" 
d="M503 580l-42 -113h-78l34 91h-34v127h120v-105zM185 98q46 0 46 61v191q0 61 -46 61t-46 -60v-193q0 -60 46 -60zM233 685h114v-685h-114v33q-27 -40 -82 -40q-59 0 -93.5 40t-34.5 109v227q0 68 34.5 107.5t93.5 39.5q55 0 82 -40v209z" />
    <glyph glyph-name="Dcroat" unicode="&#x110;" horiz-adv-x="426" 
d="M32 0v286h-30v111h30v288h179q82 0 131 -47.5t49 -138.5v-312q0 -92 -49 -139.5t-131 -47.5h-179zM202 286h-41v-168h48q23 0 38 16t15 48v320q0 32 -14.5 48.5t-37.5 16.5h-49v-170h41v-111z" />
    <glyph glyph-name="dcroat" unicode="&#x111;" horiz-adv-x="376" 
d="M185 98q46 0 46 61v191q0 61 -46 61t-46 -60v-193q0 -60 46 -60zM233 33q-27 -40 -82 -40q-59 0 -93.5 40t-34.5 109v227q0 68 34.5 107.5t93.5 39.5q55 0 82 -40v67h-82v89h82v53h114v-53h30v-89h-30v-543h-114v33z" />
    <glyph glyph-name="Emacron" unicode="&#x112;" horiz-adv-x="359" 
d="M280 762h-169v97h169v-97zM33 0v685h309v-116h-181v-163h160v-118h-160v-172h185v-116h-313z" />
    <glyph glyph-name="emacron" unicode="&#x113;" horiz-adv-x="357" 
d="M264 587h-169v97h169v-97zM335 152q0 -79 -43.5 -120t-109.5 -41q-69 0 -114 42.5t-45 123.5v198q0 81 45 122.5t114 41.5q66 0 109.5 -41.5t43.5 -122.5v-128h-198v-73q0 -56 43 -56q42 0 42 51v21h113v-18zM137 356v-46h85v46q0 28 -12 42.5t-30 14.5q-43 0 -43 -57z
" />
    <glyph glyph-name="Ebreve" unicode="&#x114;" horiz-adv-x="359" 
d="M284 867v-89q-6 -8 -15.5 -16.5t-30 -17.5t-43.5 -9q-33 0 -57 15t-32 28v89q38 -38 89 -38q47 0 89 38zM33 0v685h309v-116h-181v-163h160v-118h-160v-172h185v-116h-313z" />
    <glyph glyph-name="ebreve" unicode="&#x115;" horiz-adv-x="357" 
d="M268 692v-89q-6 -8 -15.5 -16.5t-30 -17.5t-43.5 -9q-33 0 -57 15t-32 28v89q38 -38 89 -38q47 0 89 38zM335 152q0 -79 -43.5 -120t-109.5 -41q-69 0 -114 42.5t-45 123.5v198q0 81 45 122.5t114 41.5q66 0 109.5 -41.5t43.5 -122.5v-128h-198v-73q0 -56 43 -56
q42 0 42 51v21h113v-18zM137 356v-46h85v46q0 28 -12 42.5t-30 14.5q-43 0 -43 -57z" />
    <glyph glyph-name="Edotaccent" unicode="&#x116;" horiz-adv-x="359" 
d="M253 753h-117v109h117v-109zM33 0v685h309v-116h-181v-163h160v-118h-160v-172h185v-116h-313z" />
    <glyph glyph-name="edotaccent" unicode="&#x117;" horiz-adv-x="357" 
d="M237 578h-117v109h117v-109zM335 152q0 -79 -43.5 -120t-109.5 -41q-69 0 -114 42.5t-45 123.5v198q0 81 45 122.5t114 41.5q66 0 109.5 -41.5t43.5 -122.5v-128h-198v-73q0 -56 43 -56q42 0 42 51v21h113v-18zM137 356v-46h85v46q0 28 -12 42.5t-30 14.5q-43 0 -43 -57z
" />
    <glyph glyph-name="Eogonek" unicode="&#x118;" horiz-adv-x="359" 
d="M349 -167q-12 -12 -42 -12q-36 0 -57 21t-21 57q0 60 54 101h-250v685h309v-116h-181v-163h160v-118h-160v-172h185v-116h-15q-37 -42 -37 -80q0 -36 30 -36q13 0 25 7v-58z" />
    <glyph glyph-name="eogonek" unicode="&#x119;" horiz-adv-x="357" 
d="M264 -167q-12 -12 -42 -12q-36 0 -57 21t-21 57q0 54 43 92h-5q-69 0 -114 42.5t-45 123.5v198q0 81 45 122.5t114 41.5q66 0 109.5 -41.5t43.5 -122.5v-128h-198v-73q0 -56 43 -56q42 0 42 51v21h113v-18q0 -116 -91 -150l2 -2q-37 -42 -37 -80q0 -36 30 -36q13 0 25 7
v-58zM137 356v-46h85v46q0 28 -12 42.5t-30 14.5q-43 0 -43 -57z" />
    <glyph glyph-name="Ecaron" unicode="&#x11a;" horiz-adv-x="359" 
d="M289 782l-94 -52l-93 52v90l93 -46l94 46v-90zM33 0v685h309v-116h-181v-163h160v-118h-160v-172h185v-116h-313z" />
    <glyph glyph-name="ecaron" unicode="&#x11b;" horiz-adv-x="357" 
d="M273 607l-94 -52l-93 52v90l93 -46l94 46v-90zM335 152q0 -79 -43.5 -120t-109.5 -41q-69 0 -114 42.5t-45 123.5v198q0 81 45 122.5t114 41.5q66 0 109.5 -41.5t43.5 -122.5v-128h-198v-73q0 -56 43 -56q42 0 42 51v21h113v-18zM137 356v-46h85v46q0 28 -12 42.5
t-30 14.5q-43 0 -43 -57z" />
    <glyph glyph-name="Gcircumflex" unicode="&#x11c;" horiz-adv-x="421" 
d="M308 821v-90l-94 48l-93 -48v90l93 54zM395 170q0 -88 -51 -135t-130 -47q-81 0 -134 48t-53 139v336q0 91 53 138.5t135 47.5q78 0 129 -46t51 -132v-85h-125v80q0 30 -15 45.5t-40 15.5q-26 0 -42 -17t-16 -51v-329q0 -34 16 -51.5t41 -17.5q56 0 56 66v72h-57v119h182
v-196z" />
    <glyph glyph-name="gcircumflex" unicode="&#x11d;" horiz-adv-x="377" 
d="M280 646v-90l-94 48l-93 -48v90l93 54zM185 120q21 0 33.5 15.5t12.5 45.5v169q0 30 -12.5 45.5t-33.5 15.5q-46 0 -46 -60v-170q0 -61 46 -61zM233 -22v79q-28 -41 -83 -41q-59 0 -93 40.5t-34 110.5v200q0 69 34 109t93 40q55 0 82 -40v33h115v-530q0 -85 -47 -129
t-119 -44q-69 0 -113.5 37t-44.5 113v17h116v-14q0 -23 12.5 -35t31.5 -12q50 0 50 66z" />
    <glyph glyph-name="Gbreve" unicode="&#x11e;" horiz-adv-x="421" 
d="M303 867v-89q-6 -8 -15.5 -16.5t-30 -17.5t-43.5 -9q-33 0 -57 15t-32 28v89q38 -38 89 -38q47 0 89 38zM395 170q0 -88 -51 -135t-130 -47q-81 0 -134 48t-53 139v336q0 91 53 138.5t135 47.5q78 0 129 -46t51 -132v-85h-125v80q0 30 -15 45.5t-40 15.5q-26 0 -42 -17
t-16 -51v-329q0 -34 16 -51.5t41 -17.5q56 0 56 66v72h-57v119h182v-196z" />
    <glyph glyph-name="gbreve" unicode="&#x11f;" horiz-adv-x="377" 
d="M275 692v-89q-6 -8 -15.5 -16.5t-30 -17.5t-43.5 -9q-33 0 -57 15t-32 28v89q38 -38 89 -38q47 0 89 38zM185 120q21 0 33.5 15.5t12.5 45.5v169q0 30 -12.5 45.5t-33.5 15.5q-46 0 -46 -60v-170q0 -61 46 -61zM233 -22v79q-28 -41 -83 -41q-59 0 -93 40.5t-34 110.5v200
q0 69 34 109t93 40q55 0 82 -40v33h115v-530q0 -85 -47 -129t-119 -44q-69 0 -113.5 37t-44.5 113v17h116v-14q0 -23 12.5 -35t31.5 -12q50 0 50 66z" />
    <glyph glyph-name="Gdotaccent" unicode="&#x120;" horiz-adv-x="421" 
d="M272 753h-117v109h117v-109zM395 170q0 -88 -51 -135t-130 -47q-81 0 -134 48t-53 139v336q0 91 53 138.5t135 47.5q78 0 129 -46t51 -132v-85h-125v80q0 30 -15 45.5t-40 15.5q-26 0 -42 -17t-16 -51v-329q0 -34 16 -51.5t41 -17.5q56 0 56 66v72h-57v119h182v-196z" />
    <glyph glyph-name="gdotaccent" unicode="&#x121;" horiz-adv-x="377" 
d="M244 578h-117v109h117v-109zM185 120q21 0 33.5 15.5t12.5 45.5v169q0 30 -12.5 45.5t-33.5 15.5q-46 0 -46 -60v-170q0 -61 46 -61zM233 -22v79q-28 -41 -83 -41q-59 0 -93 40.5t-34 110.5v200q0 69 34 109t93 40q55 0 82 -40v33h115v-530q0 -85 -47 -129t-119 -44
q-69 0 -113.5 37t-44.5 113v17h116v-14q0 -23 12.5 -35t31.5 -12q50 0 50 66z" />
    <glyph glyph-name="uni0122" unicode="&#x122;" horiz-adv-x="421" 
d="M395 170q0 -88 -51 -135t-130 -47q-81 0 -134 48t-53 139v336q0 91 53 138.5t135 47.5q78 0 129 -46t51 -132v-85h-125v80q0 30 -15 45.5t-40 15.5q-26 0 -42 -17t-16 -51v-329q0 -34 16 -51.5t41 -17.5q56 0 56 66v72h-57v119h182v-196zM270 -122l-31 -91h-74l25 70h-25
v98h105v-77z" />
    <glyph glyph-name="uni0123" unicode="&#x123;" horiz-adv-x="377" 
d="M123 654l31 91h74l-25 -70h25v-98h-105v77zM185 120q21 0 33.5 15.5t12.5 45.5v169q0 30 -12.5 45.5t-33.5 15.5q-46 0 -46 -60v-170q0 -61 46 -61zM233 -22v79q-28 -41 -83 -41q-59 0 -93 40.5t-34 110.5v200q0 69 34 109t93 40q55 0 82 -40v33h115v-530q0 -85 -47 -129
t-119 -44q-69 0 -113.5 37t-44.5 113v17h116v-14q0 -23 12.5 -35t31.5 -12q50 0 50 66z" />
    <glyph glyph-name="Hcircumflex" unicode="&#x124;" horiz-adv-x="430" 
d="M309 821v-90l-94 48l-93 -48v90l93 54zM270 0v281h-110v-281h-128v685h128v-285h110v285h128v-685h-128z" />
    <glyph glyph-name="hcircumflex" unicode="&#x125;" horiz-adv-x="386" 
d="M184 821v-90l-94 48l-93 -48v90l93 54zM243 0v345q0 65 -47 65q-23 0 -37 -17t-14 -47v-346h-116v685h114v-221q37 52 100 52q53 0 84.5 -38t31.5 -99v-379h-116z" />
    <glyph glyph-name="Hbar" unicode="&#x126;" horiz-adv-x="431" 
d="M160 400h110v90h-110v-90zM160 281v-281h-128v490h-30v111h30v84h128v-84h110v84h128v-84h32v-111h-32v-490h-128v281h-110z" />
    <glyph glyph-name="hbar" unicode="&#x127;" horiz-adv-x="386" 
d="M145 346v-346h-116v543h-31v89h31v53h114v-53h81v-89h-81v-79q37 52 100 52q53 0 84.5 -38t31.5 -99v-379h-116v345q0 65 -47 65q-23 0 -37 -17t-14 -47z" />
    <glyph glyph-name="Itilde" unicode="&#x128;" horiz-adv-x="195" 
d="M136 739q-19 0 -47 12t-43 12q-26 0 -39 -21v85q17 30 54 30q19 0 47 -12t43 -12q26 0 39 21v-86q-16 -29 -54 -29zM161 0h-128v685h128v-685z" />
    <glyph glyph-name="itilde" unicode="&#x129;" horiz-adv-x="174" 
d="M125 564q-19 0 -47 12t-43 12q-26 0 -39 -21v85q17 30 54 30q19 0 47 -12t43 -12q26 0 39 21v-86q-16 -29 -54 -29zM145 -1h-116v511h116v-511z" />
    <glyph glyph-name="Imacron" unicode="&#x12a;" horiz-adv-x="195" 
d="M183 762h-169v97h169v-97zM161 0h-128v685h128v-685z" />
    <glyph glyph-name="imacron" unicode="&#x12b;" horiz-adv-x="174" 
d="M172 587h-169v97h169v-97zM145 -1h-116v511h116v-511z" />
    <glyph glyph-name="Ibreve" unicode="&#x12c;" horiz-adv-x="195" 
d="M187 867v-89q-6 -8 -15.5 -16.5t-30 -17.5t-43.5 -9q-33 0 -57 15t-32 28v89q38 -38 89 -38q47 0 89 38zM161 0h-128v685h128v-685z" />
    <glyph glyph-name="ibreve" unicode="&#x12d;" horiz-adv-x="174" 
d="M176 692v-89q-6 -8 -15.5 -16.5t-30 -17.5t-43.5 -9q-33 0 -57 15t-32 28v89q38 -38 89 -38q47 0 89 38zM145 -1h-116v511h116v-511z" />
    <glyph glyph-name="Iogonek" unicode="&#x12e;" horiz-adv-x="195" 
d="M144 -167q-12 -12 -42 -12q-36 0 -57 21t-21 57q0 60 54 101h-45v685h128v-685h-35q-37 -42 -37 -80q0 -36 30 -36q13 0 25 7v-58z" />
    <glyph glyph-name="iogonek" unicode="&#x12f;" horiz-adv-x="174" 
d="M145 574h-116v111h116v-111zM133 -167q-12 -12 -42 -12q-36 0 -57 21t-21 57q0 61 53 100h-37v511h116v-511h-31q-36 -43 -36 -79t30 -36q13 0 25 7v-58z" />
    <glyph glyph-name="dotlessi" unicode="&#x131;" horiz-adv-x="174" 
d="M145 -1h-116v511h116v-511z" />
    <glyph glyph-name="IJ" unicode="&#x132;" horiz-adv-x="575" 
d="M161 0h-128v685h128v-685zM204 210h127v-37q0 -66 44 -66q48 0 48 66v512h129v-511q0 -87 -49.5 -136.5t-126.5 -49.5q-76 0 -124 49.5t-48 136.5v36z" />
    <glyph glyph-name="ij" unicode="&#x133;" horiz-adv-x="350" 
d="M320 575h-116v110h116v-110zM145 574h-116v111h116v-111zM320 510v-500q0 -99 -40 -144t-120 -44v107q25 0 34.5 15t9.5 58v508h116zM145 -1h-116v511h116v-511z" />
    <glyph glyph-name="Jcircumflex" unicode="&#x134;" horiz-adv-x="380" 
d="M386 821v-90l-94 48l-93 -48v90l93 54zM9 210h127v-37q0 -66 44 -66q48 0 48 66v512h129v-511q0 -87 -49.5 -136.5t-126.5 -49.5q-76 0 -124 49.5t-48 136.5v36z" />
    <glyph glyph-name="jcircumflex" unicode="&#x135;" horiz-adv-x="176" 
d="M182 646v-90l-94 48l-93 -48v90l93 54zM146 510v-500q0 -99 -40 -144t-120 -44v107q25 0 34.5 15t9.5 58v508h116z" />
    <glyph glyph-name="uni0136" unicode="&#x136;" horiz-adv-x="409" 
d="M266 0l-105 260v-260h-129v685h129v-275l102 275h134l-130 -343l139 -342h-140zM263 -122l-31 -91h-74l25 70h-25v98h105v-77z" />
    <glyph glyph-name="uni0137" unicode="&#x137;" horiz-adv-x="361" 
d="M226 0l-81 188v-188h-116v685h116v-377l81 202h130l-115 -255l119 -255h-134zM235 -122l-31 -91h-74l25 70h-25v98h105v-77z" />
    <glyph glyph-name="kgreenlandic" unicode="&#x138;" horiz-adv-x="361" 
d="M226 0l-81 188v-188h-116v510h116v-202l81 202h130l-115 -255l119 -255h-134z" />
    <glyph glyph-name="Lacute" unicode="&#x139;" horiz-adv-x="352" 
d="M173 790l-152 -56v94l152 59v-97zM32 0v685h128v-567h178v-118h-306z" />
    <glyph glyph-name="lacute" unicode="&#x13a;" horiz-adv-x="174" 
d="M165 790l-152 -56v94l152 59v-97zM144 0h-115v685h115v-685z" />
    <glyph glyph-name="uni013B" unicode="&#x13b;" horiz-adv-x="352" 
d="M32 0v685h128v-567h178v-118h-306zM237 -122l-31 -91h-74l25 70h-25v98h105v-77z" />
    <glyph glyph-name="uni013C" unicode="&#x13c;" horiz-adv-x="174" 
d="M144 0h-115v685h115v-685zM140 -122l-31 -91h-74l25 70h-25v98h105v-77z" />
    <glyph glyph-name="Lcaron" unicode="&#x13d;" horiz-adv-x="352" 
d="M333 580l-42 -113h-78l34 91h-34v127h120v-105zM32 0v685h128v-567h178v-118h-306z" />
    <glyph glyph-name="lcaron" unicode="&#x13e;" horiz-adv-x="302" 
d="M299 580l-42 -113h-78l34 91h-34v127h120v-105zM144 0h-115v685h115v-685z" />
    <glyph glyph-name="Ldot" unicode="&#x13f;" horiz-adv-x="352" 
d="M32 0v685h128v-567h178v-118h-306zM321 321h-117v109h117v-109z" />
    <glyph glyph-name="ldot" unicode="&#x140;" horiz-adv-x="297" 
d="M144 0h-115v685h115v-685zM294 251h-117v109h117v-109z" />
    <glyph glyph-name="Lslash" unicode="&#x141;" horiz-adv-x="348" 
d="M338 0h-306v291l-32 -23v98l32 23v296h128v-204l50 36v-97l-50 -36v-266h178v-118z" />
    <glyph glyph-name="lslash" unicode="&#x142;" horiz-adv-x="174" 
d="M144 0h-115v303l-29 -18v97l29 18v285h115v-214l29 18v-98l-29 -18v-373z" />
    <glyph glyph-name="Nacute" unicode="&#x143;" horiz-adv-x="434" 
d="M295 790l-152 -56v94l152 59v-97zM278 0l-129 398v-398h-116v685h130l123 -392v392h115v-685h-123z" />
    <glyph glyph-name="nacute" unicode="&#x144;" horiz-adv-x="386" 
d="M271 615l-152 -56v94l152 59v-97zM243 0v345q0 65 -47 65q-23 0 -37 -17t-14 -47v-346h-116v510h114v-46q37 52 100 52q53 0 84.5 -38t31.5 -99v-379h-116z" />
    <glyph glyph-name="uni0145" unicode="&#x145;" horiz-adv-x="434" 
d="M278 0l-129 398v-398h-116v685h130l123 -392v392h115v-685h-123zM270 -122l-31 -91h-74l25 70h-25v98h105v-77z" />
    <glyph glyph-name="uni0146" unicode="&#x146;" horiz-adv-x="386" 
d="M243 0v345q0 65 -47 65q-23 0 -37 -17t-14 -47v-346h-116v510h114v-46q37 52 100 52q53 0 84.5 -38t31.5 -99v-379h-116zM246 -122l-31 -91h-74l25 70h-25v98h105v-77z" />
    <glyph glyph-name="Ncaron" unicode="&#x147;" horiz-adv-x="434" 
d="M311 782l-94 -52l-93 52v90l93 -46l94 46v-90zM278 0l-129 398v-398h-116v685h130l123 -392v392h115v-685h-123z" />
    <glyph glyph-name="ncaron" unicode="&#x148;" horiz-adv-x="386" 
d="M287 607l-94 -52l-93 52v90l93 -46l94 46v-90zM243 0v345q0 65 -47 65q-23 0 -37 -17t-14 -47v-346h-116v510h114v-46q37 52 100 52q53 0 84.5 -38t31.5 -99v-379h-116z" />
    <glyph glyph-name="napostrophe" unicode="&#x149;" horiz-adv-x="386" 
d="M134 667l-31 -91h-74l25 70h-25v98h105v-77zM243 0v345q0 65 -47 65q-23 0 -37 -17t-14 -47v-346h-116v510h114v-46q37 52 100 52q53 0 84.5 -38t31.5 -99v-379h-116z" />
    <glyph glyph-name="Eng" unicode="&#x14a;" horiz-adv-x="434" 
d="M243 -178v106q22 0 31.5 11.5t10.5 42.5l-136 417v-399h-116v685h130l123 -390v390h115v-676q0 -99 -39.5 -143.5t-118.5 -43.5z" />
    <glyph glyph-name="eng" unicode="&#x14b;" horiz-adv-x="386" 
d="M243 2v343q0 65 -47 65q-23 0 -37 -17t-14 -47v-346h-116v510h114v-46q37 52 100 52q53 0 84.5 -38t31.5 -99v-369q0 -99 -40 -144t-119 -44v107q25 0 34 15t9 58z" />
    <glyph glyph-name="Omacron" unicode="&#x14c;" horiz-adv-x="428" 
d="M299 762h-169v97h169v-97zM214 -12q-81 0 -134 48.5t-53 139.5v334q0 91 53 139t134 48q80 0 133.5 -48.5t53.5 -138.5v-334q0 -91 -53.5 -139.5t-133.5 -48.5zM214 109q25 0 41 17.5t16 53.5v325q0 35 -16 53t-41 18t-41 -18t-16 -53v-325q0 -36 15.5 -53.5t41.5 -17.5z
" />
    <glyph glyph-name="omacron" unicode="&#x14d;" 
d="M269 587h-169v97h169v-97zM184 519q70 0 115.5 -41.5t45.5 -122.5v-198q0 -81 -45.5 -123.5t-115.5 -42.5t-115.5 42.5t-45.5 123.5v198q0 81 45.5 122.5t115.5 41.5zM184 98q20 0 32.5 14t12.5 41v204q0 28 -12.5 42t-32.5 14t-32.5 -14t-12.5 -42v-204q0 -27 12.5 -41
t32.5 -14z" />
    <glyph glyph-name="Obreve" unicode="&#x14e;" horiz-adv-x="428" 
d="M303 867v-89q-6 -8 -15.5 -16.5t-30 -17.5t-43.5 -9q-33 0 -57 15t-32 28v89q38 -38 89 -38q47 0 89 38zM214 -12q-81 0 -134 48.5t-53 139.5v334q0 91 53 139t134 48q80 0 133.5 -48.5t53.5 -138.5v-334q0 -91 -53.5 -139.5t-133.5 -48.5zM214 109q25 0 41 17.5t16 53.5
v325q0 35 -16 53t-41 18t-41 -18t-16 -53v-325q0 -36 15.5 -53.5t41.5 -17.5z" />
    <glyph glyph-name="obreve" unicode="&#x14f;" 
d="M273 692v-89q-6 -8 -15.5 -16.5t-30 -17.5t-43.5 -9q-33 0 -57 15t-32 28v89q38 -38 89 -38q47 0 89 38zM184 519q70 0 115.5 -41.5t45.5 -122.5v-198q0 -81 -45.5 -123.5t-115.5 -42.5t-115.5 42.5t-45.5 123.5v198q0 81 45.5 122.5t115.5 41.5zM184 98q20 0 32.5 14
t12.5 41v204q0 28 -12.5 42t-32.5 14t-32.5 -14t-12.5 -42v-204q0 -27 12.5 -41t32.5 -14z" />
    <glyph glyph-name="Ohungarumlaut" unicode="&#x150;" horiz-adv-x="428" 
d="M341 733h-111l30 147h114zM194 733h-110l29 147h112zM214 -12q-81 0 -134 48.5t-53 139.5v334q0 91 53 139t134 48q80 0 133.5 -48.5t53.5 -138.5v-334q0 -91 -53.5 -139.5t-133.5 -48.5zM214 109q25 0 41 17.5t16 53.5v325q0 35 -16 53t-41 18t-41 -18t-16 -53v-325
q0 -36 15.5 -53.5t41.5 -17.5z" />
    <glyph glyph-name="ohungarumlaut" unicode="&#x151;" 
d="M311 558h-111l30 147h114zM164 558h-110l29 147h112zM184 519q70 0 115.5 -41.5t45.5 -122.5v-198q0 -81 -45.5 -123.5t-115.5 -42.5t-115.5 42.5t-45.5 123.5v198q0 81 45.5 122.5t115.5 41.5zM184 98q20 0 32.5 14t12.5 41v204q0 28 -12.5 42t-32.5 14t-32.5 -14
t-12.5 -42v-204q0 -27 12.5 -41t32.5 -14z" />
    <glyph glyph-name="OE" unicode="&#x152;" horiz-adv-x="583" 
d="M207 0q-81 0 -130.5 47.5t-49.5 138.5v312q0 92 49.5 139.5t131.5 47.5h358v-116h-181v-163h160v-118h-160v-172h185v-116h-363zM208 118h48v449h-46q-23 0 -38 -16t-15 -48v-320q0 -32 14.5 -48.5t36.5 -16.5z" />
    <glyph glyph-name="oe" unicode="&#x153;" horiz-adv-x="567" 
d="M545 152q0 -79 -43.5 -120t-109.5 -41q-63 0 -103 37q-40 -37 -105 -37q-70 0 -115.5 42.5t-45.5 123.5v198q0 81 45.5 122.5t115.5 41.5q64 0 105 -37q40 37 103 37q66 0 109.5 -41.5t43.5 -122.5v-128h-198v-73q0 -56 43 -56q42 0 42 51v21h113v-18zM184 98
q20 0 32.5 14t12.5 41v204q0 28 -12.5 42t-32.5 14t-32.5 -14t-12.5 -42v-204q0 -27 12.5 -41t32.5 -14zM347 356v-46h85v46q0 28 -12 42.5t-30 14.5q-43 0 -43 -57z" />
    <glyph glyph-name="Racute" unicode="&#x154;" horiz-adv-x="399" 
d="M278 790l-152 -56v94l152 59v-97zM185 567h-25v-213h28q54 0 54 60v91q0 62 -57 62zM258 0l-95 240h-3v-240h-127v685h166q77 0 124.5 -44t47.5 -132v-96q0 -109 -81 -151l113 -262h-145z" />
    <glyph glyph-name="racute" unicode="&#x155;" horiz-adv-x="247" 
d="M225 615l-152 -56v94l152 59v-97zM30 0v510h115v-64q3 8 9.5 20t30 31.5t50.5 19.5v-119q-90 0 -90 -155v-243h-115z" />
    <glyph glyph-name="uni0156" unicode="&#x156;" horiz-adv-x="399" 
d="M185 567h-25v-213h28q54 0 54 60v91q0 62 -57 62zM258 0l-95 240h-3v-240h-127v685h166q77 0 124.5 -44t47.5 -132v-96q0 -109 -81 -151l113 -262h-145zM258 -122l-31 -91h-74l25 70h-25v98h105v-77z" />
    <glyph glyph-name="uni0157" unicode="&#x157;" horiz-adv-x="247" 
d="M30 0v510h115v-64q3 8 9.5 20t30 31.5t50.5 19.5v-119q-90 0 -90 -155v-243h-115zM139 -122l-31 -91h-74l25 70h-25v98h105v-77z" />
    <glyph glyph-name="Rcaron" unicode="&#x158;" horiz-adv-x="399" 
d="M294 782l-94 -52l-93 52v90l93 -46l94 46v-90zM185 567h-25v-213h28q54 0 54 60v91q0 62 -57 62zM258 0l-95 240h-3v-240h-127v685h166q77 0 124.5 -44t47.5 -132v-96q0 -109 -81 -151l113 -262h-145z" />
    <glyph glyph-name="rcaron" unicode="&#x159;" horiz-adv-x="247" 
d="M241 607l-94 -52l-93 52v90l93 -46l94 46v-90zM30 0v510h115v-64q3 8 9.5 20t30 31.5t50.5 19.5v-119q-90 0 -90 -155v-243h-115z" />
    <glyph glyph-name="Sacute" unicode="&#x15a;" horiz-adv-x="387" 
d="M270 790l-152 -56v94l152 59v-97zM358 514v-30h-121v29q0 67 -48 67q-21 0 -33 -14.5t-12 -40.5q0 -35 21.5 -60.5t70.5 -59.5q68 -47 101.5 -101t33.5 -129q0 -88 -47.5 -137.5t-129.5 -49.5q-80 0 -129 45t-49 147v31h123v-33q0 -72 54 -72q49 0 49 59q0 40 -23 69.5
t-66 57.5q-65 44 -99 96t-34 127q0 85 47 133.5t124 48.5q167 0 167 -183z" />
    <glyph glyph-name="sacute" unicode="&#x15b;" horiz-adv-x="316" 
d="M234 615l-152 -56v94l152 59v-97zM297 368v-9h-106v14q0 48 -39 48q-16 0 -26 -10t-10 -27q0 -13 4.5 -23.5t20 -22t21.5 -15l30 -17.5q27 -16 41.5 -27t34.5 -31t29.5 -47.5t9.5 -61.5q0 -71 -42 -109.5t-108 -38.5t-107 37t-41 113v7h105v-10q0 -51 42 -51q40 0 40 39
q0 17 -11 32.5t-23 24t-35 22.5q-29 18 -42 27.5t-34.5 30.5t-31 48.5t-9.5 63.5q0 71 41 108t102 37q65 0 104.5 -37t39.5 -115z" />
    <glyph glyph-name="Scircumflex" unicode="&#x15c;" horiz-adv-x="387" 
d="M286 821v-90l-94 48l-93 -48v90l93 54zM358 514v-30h-121v29q0 67 -48 67q-21 0 -33 -14.5t-12 -40.5q0 -35 21.5 -60.5t70.5 -59.5q68 -47 101.5 -101t33.5 -129q0 -88 -47.5 -137.5t-129.5 -49.5q-80 0 -129 45t-49 147v31h123v-33q0 -72 54 -72q49 0 49 59
q0 40 -23 69.5t-66 57.5q-65 44 -99 96t-34 127q0 85 47 133.5t124 48.5q167 0 167 -183z" />
    <glyph glyph-name="scircumflex" unicode="&#x15d;" horiz-adv-x="316" 
d="M250 646v-90l-94 48l-93 -48v90l93 54zM297 368v-9h-106v14q0 48 -39 48q-16 0 -26 -10t-10 -27q0 -13 4.5 -23.5t20 -22t21.5 -15l30 -17.5q27 -16 41.5 -27t34.5 -31t29.5 -47.5t9.5 -61.5q0 -71 -42 -109.5t-108 -38.5t-107 37t-41 113v7h105v-10q0 -51 42 -51
q40 0 40 39q0 17 -11 32.5t-23 24t-35 22.5q-29 18 -42 27.5t-34.5 30.5t-31 48.5t-9.5 63.5q0 71 41 108t102 37q65 0 104.5 -37t39.5 -115z" />
    <glyph glyph-name="uni015E" unicode="&#x15e;" horiz-adv-x="387" 
d="M183 -213q-38 0 -62 24t-23 61h59q0 -30 24 -30q26 0 26 31q0 13 -10 22.5t-25 9.5h-35l31 84q-152 16 -152 191v31h123v-33q0 -72 54 -72q49 0 49 59q0 40 -23 69.5t-66 57.5q-65 44 -99 96t-34 127q0 85 47 133.5t124 48.5q167 0 167 -183v-30h-121v29q0 67 -48 67
q-21 0 -33 -14.5t-12 -40.5q0 -35 21.5 -60.5t70.5 -59.5q68 -47 101.5 -101t33.5 -129q0 -78 -38 -126.5t-106 -58.5l-14 -35q60 -13 60 -81q0 -37 -23.5 -62t-66.5 -25z" />
    <glyph glyph-name="uni015F" unicode="&#x15f;" horiz-adv-x="316" 
d="M148 -213q-38 0 -62 24t-23 61h59q0 -30 24 -30q26 0 26 31q0 13 -10 22.5t-25 9.5h-35l32 87q-56 6 -90.5 43t-34.5 106v7h105v-10q0 -51 42 -51q40 0 40 39q0 17 -11 32.5t-23 24t-35 22.5q-29 18 -42 27.5t-34.5 30.5t-31 48.5t-9.5 63.5q0 71 41 108t102 37
q65 0 104.5 -37t39.5 -115v-9h-106v14q0 48 -39 48q-16 0 -26 -10t-10 -27q0 -13 4.5 -23.5t20 -22t21.5 -15l30 -17.5q27 -16 41.5 -27t34.5 -31t29.5 -47.5t9.5 -61.5q0 -60 -31 -97.5t-82 -47.5l-16 -39q60 -13 60 -81q0 -37 -23.5 -62t-66.5 -25z" />
    <glyph glyph-name="Scaron" unicode="&#x160;" horiz-adv-x="387" 
d="M286 782l-94 -52l-93 52v90l93 -46l94 46v-90zM358 514v-30h-121v29q0 67 -48 67q-21 0 -33 -14.5t-12 -40.5q0 -35 21.5 -60.5t70.5 -59.5q68 -47 101.5 -101t33.5 -129q0 -88 -47.5 -137.5t-129.5 -49.5q-80 0 -129 45t-49 147v31h123v-33q0 -72 54 -72q49 0 49 59
q0 40 -23 69.5t-66 57.5q-65 44 -99 96t-34 127q0 85 47 133.5t124 48.5q167 0 167 -183z" />
    <glyph glyph-name="scaron" unicode="&#x161;" horiz-adv-x="316" 
d="M250 607l-94 -52l-93 52v90l93 -46l94 46v-90zM297 368v-9h-106v14q0 48 -39 48q-16 0 -26 -10t-10 -27q0 -13 4.5 -23.5t20 -22t21.5 -15l30 -17.5q27 -16 41.5 -27t34.5 -31t29.5 -47.5t9.5 -61.5q0 -71 -42 -109.5t-108 -38.5t-107 37t-41 113v7h105v-10q0 -51 42 -51
q40 0 40 39q0 17 -11 32.5t-23 24t-35 22.5q-29 18 -42 27.5t-34.5 30.5t-31 48.5t-9.5 63.5q0 71 41 108t102 37q65 0 104.5 -37t39.5 -115z" />
    <glyph glyph-name="uni0162" unicode="&#x162;" 
d="M179 -213q-38 0 -62 24t-23 61h59q0 -30 24 -30q26 0 26 31q0 13 -10 22.5t-25 9.5h-35l35 95h-42v567h-115v118h360v-118h-117v-567h-27l-18 -45q60 -13 60 -81q0 -37 -23.5 -62t-66.5 -25z" />
    <glyph glyph-name="uni0163" unicode="&#x163;" horiz-adv-x="268" 
d="M154 -213q-38 0 -62 24t-23 61h59q0 -30 24 -30q26 0 26 31q0 13 -10 22.5t-25 9.5h-35l37 100q-82 22 -82 133v265h-47v107h47v135h117v-135h71v-107h-71v-254q0 -48 42 -48h29v-101h-49l-18 -45q60 -13 60 -81q0 -37 -23.5 -62t-66.5 -25z" />
    <glyph glyph-name="Tcaron" unicode="&#x164;" horiz-adv-x="382" 
d="M285 782l-94 -52l-93 52v90l93 -46l94 46v-90zM254 0h-128v567h-115v118h360v-118h-117v-567z" />
    <glyph glyph-name="tcaron" unicode="&#x165;" horiz-adv-x="264" 
d="M331 681l-42 -113h-78l34 91h-34v127h120v-105zM251 101v-101h-60q-128 0 -128 138v265h-47v107h47v135h117v-135h71v-107h-71v-254q0 -48 42 -48h29z" />
    <glyph glyph-name="Tbar" unicode="&#x166;" horiz-adv-x="377" 
d="M336 272h-82v-272h-128v272h-85v111h85v184h-115v118h360v-118h-117v-184h82v-111z" />
    <glyph glyph-name="tbar" unicode="&#x167;" horiz-adv-x="264" 
d="M251 101v-101h-60q-128 0 -128 138v92h-47v106h47v67h-47v107h47v135h117v-135h71v-107h-71v-67h70v-106h-70v-81q0 -48 42 -48h29z" />
    <glyph glyph-name="Utilde" unicode="&#x168;" horiz-adv-x="421" 
d="M249 739q-19 0 -47 12t-43 12q-26 0 -39 -21v85q17 30 54 30q19 0 47 -12t43 -12q26 0 39 21v-86q-16 -29 -54 -29zM159 685v-507q0 -71 51 -71q23 0 37.5 18t14.5 53v507h130v-507q0 -89 -51 -139.5t-131 -50.5q-79 0 -129.5 50.5t-50.5 139.5v507h129z" />
    <glyph glyph-name="utilde" unicode="&#x169;" horiz-adv-x="384" 
d="M230 564q-19 0 -47 12t-43 12q-26 0 -39 -21v85q17 30 54 30q19 0 47 -12t43 -12q26 0 39 21v-86q-16 -29 -54 -29zM143 510v-345q0 -66 46 -66q23 0 37 17.5t14 47.5v346h116v-510h-115v45q-36 -51 -98 -51q-53 0 -84.5 38t-31.5 98v380h116z" />
    <glyph glyph-name="Umacron" unicode="&#x16a;" horiz-adv-x="421" 
d="M296 762h-169v97h169v-97zM159 685v-507q0 -71 51 -71q23 0 37.5 18t14.5 53v507h130v-507q0 -89 -51 -139.5t-131 -50.5q-79 0 -129.5 50.5t-50.5 139.5v507h129z" />
    <glyph glyph-name="umacron" unicode="&#x16b;" horiz-adv-x="384" 
d="M277 587h-169v97h169v-97zM143 510v-345q0 -66 46 -66q23 0 37 17.5t14 47.5v346h116v-510h-115v45q-36 -51 -98 -51q-53 0 -84.5 38t-31.5 98v380h116z" />
    <glyph glyph-name="Ubreve" unicode="&#x16c;" horiz-adv-x="421" 
d="M300 867v-89q-6 -8 -15.5 -16.5t-30 -17.5t-43.5 -9q-33 0 -57 15t-32 28v89q38 -38 89 -38q47 0 89 38zM159 685v-507q0 -71 51 -71q23 0 37.5 18t14.5 53v507h130v-507q0 -89 -51 -139.5t-131 -50.5q-79 0 -129.5 50.5t-50.5 139.5v507h129z" />
    <glyph glyph-name="ubreve" unicode="&#x16d;" horiz-adv-x="384" 
d="M281 692v-89q-6 -8 -15.5 -16.5t-30 -17.5t-43.5 -9q-33 0 -57 15t-32 28v89q38 -38 89 -38q47 0 89 38zM143 510v-345q0 -66 46 -66q23 0 37 17.5t14 47.5v346h116v-510h-115v45q-36 -51 -98 -51q-53 0 -84.5 38t-31.5 98v380h116z" />
    <glyph glyph-name="Uring" unicode="&#x16e;" horiz-adv-x="421" 
d="M211 914q34 0 59.5 -25t25.5 -63q0 -37 -25.5 -62t-59.5 -25t-59.5 25t-25.5 62q0 38 25.5 63t59.5 25zM211 865q-14 0 -24 -11t-10 -28q0 -16 10 -27t24 -11t24 11t10 27q0 17 -10 28t-24 11zM159 685v-507q0 -71 51 -71q23 0 37.5 18t14.5 53v507h130v-507
q0 -89 -51 -139.5t-131 -50.5q-79 0 -129.5 50.5t-50.5 139.5v507h129z" />
    <glyph glyph-name="uring" unicode="&#x16f;" horiz-adv-x="384" 
d="M192 739q34 0 59.5 -25t25.5 -63q0 -37 -25.5 -62t-59.5 -25t-59.5 25t-25.5 62q0 38 25.5 63t59.5 25zM192 690q-14 0 -24 -11t-10 -28q0 -16 10 -27t24 -11t24 11t10 27q0 17 -10 28t-24 11zM143 510v-345q0 -66 46 -66q23 0 37 17.5t14 47.5v346h116v-510h-115v45
q-36 -51 -98 -51q-53 0 -84.5 38t-31.5 98v380h116z" />
    <glyph glyph-name="Uhungarumlaut" unicode="&#x170;" horiz-adv-x="421" 
d="M338 733h-111l30 147h114zM191 733h-110l29 147h112zM159 685v-507q0 -71 51 -71q23 0 37.5 18t14.5 53v507h130v-507q0 -89 -51 -139.5t-131 -50.5q-79 0 -129.5 50.5t-50.5 139.5v507h129z" />
    <glyph glyph-name="uhungarumlaut" unicode="&#x171;" horiz-adv-x="384" 
d="M319 558h-111l30 147h114zM172 558h-110l29 147h112zM143 510v-345q0 -66 46 -66q23 0 37 17.5t14 47.5v346h116v-510h-115v45q-36 -51 -98 -51q-53 0 -84.5 38t-31.5 98v380h116z" />
    <glyph glyph-name="Uogonek" unicode="&#x172;" horiz-adv-x="421" 
d="M235 -179q-36 0 -57 21t-21 57q0 52 40 89q-74 5 -120.5 55t-46.5 135v507h129v-507q0 -71 51 -71q23 0 37.5 18t14.5 53v507h130v-507q0 -76 -38.5 -125t-101.5 -61q-30 -37 -30 -72q0 -36 30 -36q13 0 25 7v-58q-12 -12 -42 -12z" />
    <glyph glyph-name="uogonek" unicode="&#x173;" horiz-adv-x="384" 
d="M333 -167q-12 -12 -42 -12q-36 0 -57 21t-21 57q0 60 54 101h-26v45q-36 -51 -98 -51q-53 0 -84.5 38t-31.5 98v380h116v-345q0 -66 46 -66q23 0 37 17.5t14 47.5v346h116v-510h-41q-37 -42 -37 -80q0 -36 30 -36q13 0 25 7v-58z" />
    <glyph glyph-name="Wcircumflex" unicode="&#x174;" horiz-adv-x="588" 
d="M388 821v-90l-94 48l-93 -48v90l93 54zM341 0l-47 417l-46 -417h-157l-84 685h120l46 -495l63 495h120l64 -505l47 505h114l-81 -685h-159z" />
    <glyph glyph-name="wcircumflex" unicode="&#x175;" horiz-adv-x="504" 
d="M346 646v-90l-94 48l-93 -48v90l93 54zM283 0l-31 301l-30 -301h-136l-77 510h116l33 -351l42 351h106l44 -357l33 357h113l-76 -510h-137z" />
    <glyph glyph-name="Ycircumflex" unicode="&#x176;" horiz-adv-x="414" 
d="M301 821v-90l-94 48l-93 -48v90l93 54zM271 0h-128v272l-136 413h133l68 -256l71 256h128l-136 -408v-277z" />
    <glyph glyph-name="ycircumflex" unicode="&#x177;" horiz-adv-x="370" 
d="M281 646v-90l-94 48l-93 -48v90l93 54zM359 510l-120 -512q-23 -98 -61.5 -137t-104.5 -39h-35v106h25q46 0 62 73l-120 509h126l53 -312l55 312h120z" />
    <glyph glyph-name="Ydieresis" unicode="&#x178;" horiz-adv-x="414" 
d="M325 752h-100v110h100v-110zM189 752h-100v110h100v-110zM271 0h-128v272l-136 413h133l68 -256l71 256h128l-136 -408v-277z" />
    <glyph glyph-name="Zacute" unicode="&#x179;" horiz-adv-x="347" 
d="M252 790l-152 -56v94l152 59v-97zM334 575l-187 -458h185v-117h-321v109l182 457h-179v119h320v-110z" />
    <glyph glyph-name="zacute" unicode="&#x17a;" horiz-adv-x="308" 
d="M232 615l-152 -56v94l152 59v-97zM291 415l-151 -311h149v-104h-273v94l155 312h-155v104h275v-95z" />
    <glyph glyph-name="Zdotaccent" unicode="&#x17b;" horiz-adv-x="347" 
d="M232 753h-117v109h117v-109zM334 575l-187 -458h185v-117h-321v109l182 457h-179v119h320v-110z" />
    <glyph glyph-name="zdotaccent" unicode="&#x17c;" horiz-adv-x="308" 
d="M212 578h-117v109h117v-109zM291 415l-151 -311h149v-104h-273v94l155 312h-155v104h275v-95z" />
    <glyph glyph-name="Zcaron" unicode="&#x17d;" horiz-adv-x="347" 
d="M268 782l-94 -52l-93 52v90l93 -46l94 46v-90zM334 575l-187 -458h185v-117h-321v109l182 457h-179v119h320v-110z" />
    <glyph glyph-name="zcaron" unicode="&#x17e;" horiz-adv-x="308" 
d="M248 607l-94 -52l-93 52v90l93 -46l94 46v-90zM291 415l-151 -311h149v-104h-273v94l155 312h-155v104h275v-95z" />
    <glyph glyph-name="uni0192" unicode="&#x192;" horiz-adv-x="268" 
d="M187 9q0 -99 -40 -143.5t-119 -43.5v106q25 0 34 15t9 58v403h-52v106h52v37q0 70 36 108t98 38h46v-99h-20q-44 0 -44 -51v-33h63v-106h-63v-395z" />
    <glyph glyph-name="uni0218" unicode="&#x218;" horiz-adv-x="387" 
d="M358 514v-30h-121v29q0 67 -48 67q-21 0 -33 -14.5t-12 -40.5q0 -35 21.5 -60.5t70.5 -59.5q68 -47 101.5 -101t33.5 -129q0 -88 -47.5 -137.5t-129.5 -49.5q-80 0 -129 45t-49 147v31h123v-33q0 -72 54 -72q49 0 49 59q0 40 -23 69.5t-66 57.5q-65 44 -99 96t-34 127
q0 85 47 133.5t124 48.5q167 0 167 -183zM246 -122l-31 -91h-74l25 70h-25v98h105v-77z" />
    <glyph glyph-name="uni0219" unicode="&#x219;" horiz-adv-x="316" 
d="M297 368v-9h-106v14q0 48 -39 48q-16 0 -26 -10t-10 -27q0 -13 4.5 -23.5t20 -22t21.5 -15l30 -17.5q27 -16 41.5 -27t34.5 -31t29.5 -47.5t9.5 -61.5q0 -71 -42 -109.5t-108 -38.5t-107 37t-41 113v7h105v-10q0 -51 42 -51q40 0 40 39q0 17 -11 32.5t-23 24t-35 22.5
q-29 18 -42 27.5t-34.5 30.5t-31 48.5t-9.5 63.5q0 71 41 108t102 37q65 0 104.5 -37t39.5 -115zM211 -122l-31 -91h-74l25 70h-25v98h105v-77z" />
    <glyph glyph-name="uni021A" unicode="&#x21a;" horiz-adv-x="382" 
d="M254 0h-128v567h-115v118h360v-118h-117v-567zM244 -122l-31 -91h-74l25 70h-25v98h105v-77z" />
    <glyph glyph-name="uni021B" unicode="&#x21b;" horiz-adv-x="264" 
d="M251 101v-101h-60q-128 0 -128 138v265h-47v107h47v135h117v-135h71v-107h-71v-254q0 -48 42 -48h29zM205 -122l-31 -91h-74l25 70h-25v98h105v-77z" />
    <glyph glyph-name="uni0237" unicode="&#x237;" horiz-adv-x="176" 
d="M146 510v-500q0 -99 -40 -144t-120 -44v107q25 0 34.5 15t9.5 58v508h116z" />
    <glyph glyph-name="circumflex" unicode="&#x2c6;" horiz-adv-x="245" 
d="M216 646v-90l-94 48l-93 -48v90l93 54z" />
    <glyph glyph-name="caron" unicode="&#x2c7;" horiz-adv-x="245" 
d="M216 607l-94 -52l-93 52v90l93 -46l94 46v-90z" />
    <glyph glyph-name="breve" unicode="&#x2d8;" horiz-adv-x="245" 
d="M211 692v-89q-6 -8 -15.5 -16.5t-30 -17.5t-43.5 -9q-33 0 -57 15t-32 28v89q38 -38 89 -38q47 0 89 38z" />
    <glyph glyph-name="dotaccent" unicode="&#x2d9;" horiz-adv-x="245" 
d="M180 578h-117v109h117v-109z" />
    <glyph glyph-name="ring" unicode="&#x2da;" horiz-adv-x="245" 
d="M122 739q34 0 59.5 -25t25.5 -63q0 -37 -25.5 -62t-59.5 -25t-59.5 25t-25.5 62q0 38 25.5 63t59.5 25zM122 690q-14 0 -24 -11t-10 -28q0 -16 10 -27t24 -11t24 11t10 27q0 17 -10 28t-24 11z" />
    <glyph glyph-name="ogonek" unicode="&#x2db;" horiz-adv-x="245" 
d="M146 19l16 -19q-37 -42 -37 -80q0 -36 30 -36q13 0 25 7v-58q-12 -12 -42 -12q-36 0 -57 21t-21 57q0 80 86 120z" />
    <glyph glyph-name="tilde" unicode="&#x2dc;" horiz-adv-x="245" 
d="M160 564q-19 0 -47 12t-43 12q-26 0 -39 -21v85q17 30 54 30q19 0 47 -12t43 -12q26 0 39 21v-86q-16 -29 -54 -29z" />
    <glyph glyph-name="hungarumlaut" unicode="&#x2dd;" horiz-adv-x="245" 
d="M254 558h-111l30 147h114zM107 558h-110l29 147h112z" />
    <glyph glyph-name="uni04D9" unicode="&#x4d9;" horiz-adv-x="343" 
d="M146 -10q-66 0 -109.5 41.5t-43.5 122.5v128h198v73q0 56 -43 56q-42 0 -42 -51v-21h-113v18q0 79 43.5 120t109.5 41q69 0 114 -42.5t45 -123.5v-198q0 -81 -45 -122.5t-114 -41.5zM148 96q43 0 43 57v46h-85v-46q0 -28 12 -42.5t30 -14.5z" />
    <glyph glyph-name="Wgrave" unicode="&#x1e80;" horiz-adv-x="588" 
d="M366 825v-94l-152 55v98zM341 0l-47 417l-46 -417h-157l-84 685h120l46 -495l63 495h120l64 -505l47 505h114l-81 -685h-159z" />
    <glyph glyph-name="wgrave" unicode="&#x1e81;" horiz-adv-x="504" 
d="M324 650v-94l-152 55v98zM283 0l-31 301l-30 -301h-136l-77 510h116l33 -351l42 351h106l44 -357l33 357h113l-76 -510h-137z" />
    <glyph glyph-name="Wacute" unicode="&#x1e82;" horiz-adv-x="588" 
d="M372 790l-152 -56v94l152 59v-97zM341 0l-47 417l-46 -417h-157l-84 685h120l46 -495l63 495h120l64 -505l47 505h114l-81 -685h-159z" />
    <glyph glyph-name="wacute" unicode="&#x1e83;" horiz-adv-x="504" 
d="M330 615l-152 -56v94l152 59v-97zM283 0l-31 301l-30 -301h-136l-77 510h116l33 -351l42 351h106l44 -357l33 357h113l-76 -510h-137z" />
    <glyph glyph-name="Wdieresis" unicode="&#x1e84;" horiz-adv-x="588" 
d="M412 752h-100v110h100v-110zM276 752h-100v110h100v-110zM341 0l-47 417l-46 -417h-157l-84 685h120l46 -495l63 495h120l64 -505l47 505h114l-81 -685h-159z" />
    <glyph glyph-name="wdieresis" unicode="&#x1e85;" horiz-adv-x="504" 
d="M370 577h-100v110h100v-110zM234 577h-100v110h100v-110zM283 0l-31 301l-30 -301h-136l-77 510h116l33 -351l42 351h106l44 -357l33 357h113l-76 -510h-137z" />
    <glyph glyph-name="Ygrave" unicode="&#x1ef2;" horiz-adv-x="414" 
d="M279 825v-94l-152 55v98zM271 0h-128v272l-136 413h133l68 -256l71 256h128l-136 -408v-277z" />
    <glyph glyph-name="ygrave" unicode="&#x1ef3;" horiz-adv-x="370" 
d="M259 650v-94l-152 55v98zM359 510l-120 -512q-23 -98 -61.5 -137t-104.5 -39h-35v106h25q46 0 62 73l-120 509h126l53 -312l55 312h120z" />
    <glyph glyph-name="uni2002" unicode="&#x2002;" horiz-adv-x="301" 
 />
    <glyph glyph-name="uni2003" unicode="&#x2003;" horiz-adv-x="588" 
 />
    <glyph glyph-name="uni2008" unicode="&#x2008;" horiz-adv-x="100" 
 />
    <glyph glyph-name="uni2009" unicode="&#x2009;" horiz-adv-x="30" 
 />
    <glyph glyph-name="uni2010" unicode="&#x2010;" horiz-adv-x="50" 
 />
    <glyph glyph-name="figuredash" unicode="&#x2012;" horiz-adv-x="266" 
d="M254 232h-242v108h242v-108z" />
    <glyph glyph-name="endash" unicode="&#x2013;" horiz-adv-x="266" 
d="M254 231h-242v109h242v-109z" />
    <glyph glyph-name="emdash" unicode="&#x2014;" horiz-adv-x="495" 
d="M483 231h-471v108h471v-108z" />
    <glyph glyph-name="quoteleft" unicode="&#x2018;" horiz-adv-x="166" 
d="M25 572l42 113h78l-34 -91h34v-127h-120v105z" />
    <glyph glyph-name="quoteright" unicode="&#x2019;" horiz-adv-x="166" 
d="M142 580l-42 -113h-78l34 91h-34v127h120v-105z" />
    <glyph glyph-name="quotesinglbase" unicode="&#x201a;" horiz-adv-x="166" 
d="M142 22l-42 -113h-78l34 91h-34v127h120v-105z" />
    <glyph glyph-name="quotedblleft" unicode="&#x201c;" horiz-adv-x="316" 
d="M175 572l42 113h78l-34 -91h34v-127h-120v105zM25 572l42 113h78l-34 -91h34v-127h-120v105z" />
    <glyph glyph-name="quotedblright" unicode="&#x201d;" horiz-adv-x="311" 
d="M287 580l-42 -113h-78l34 91h-34v127h120v-105zM142 580l-42 -113h-78l34 91h-34v127h120v-105z" />
    <glyph glyph-name="quotedblbase" unicode="&#x201e;" horiz-adv-x="316" 
d="M292 22l-42 -113h-78l34 91h-34v127h120v-105zM142 22l-42 -113h-78l34 91h-34v127h120v-105z" />
    <glyph glyph-name="dagger" unicode="&#x2020;" horiz-adv-x="244" 
d="M179 455h49v-111h-49v-487h-113v487h-51v111h51v175h113v-175z" />
    <glyph glyph-name="daggerdbl" unicode="&#x2021;" horiz-adv-x="245" 
d="M179 454h50v-111h-50v-191h50v-111h-50v-184h-113v184h-50v111h50v191h-50v111h50v176h113v-176z" />
    <glyph glyph-name="bullet" unicode="&#x2022;" horiz-adv-x="222" 
d="M111 382q38 0 63.5 -27.5t25.5 -68.5t-25.5 -68.5t-63.5 -27.5t-64 27.5t-26 68.5t26 68.5t64 27.5z" />
    <glyph glyph-name="ellipsis" unicode="&#x2026;" horiz-adv-x="498" 
d="M474 0h-119v127h119v-127zM308 0h-119v127h119v-127zM142 0h-119v127h119v-127z" />
    <glyph glyph-name="guilsinglleft" unicode="&#x2039;" horiz-adv-x="211" 
d="M122 283l82 -220h-115l-82 220l82 224h115z" />
    <glyph glyph-name="guilsinglright" unicode="&#x203a;" horiz-adv-x="211" 
d="M89 283l-82 224h115l82 -224l-82 -220h-115z" />
    <glyph glyph-name="fraction" unicode="&#x2044;" horiz-adv-x="24" 
d="M-26 0h-87l176 685h87z" />
    <glyph glyph-name="Euro" unicode="&#x20ac;" horiz-adv-x="414" 
d="M390 164q0 -85 -47.5 -130.5t-119.5 -45.5q-76 0 -124 47.5t-48 139.5v56h-42v81h42v46h-42v81h42v72q0 91 48 138.5t124 47.5q73 0 120 -45t47 -130v-47h-125v42q0 59 -42 59q-44 0 -44 -69v-68h85v-81h-85v-46h85v-81h-85v-53q0 -34 12 -51.5t31 -17.5q43 0 43 60v25
h125v-30z" />
    <glyph glyph-name="trademark" unicode="&#x2122;" horiz-adv-x="531" 
d="M165 341v-64h-38q-81 0 -81 87v168h-30v68h30v85h74v-85h45v-68h-45v-161q0 -30 26 -30h19zM259 496v-219h-74v323h72v-30q20 33 62 33q38 0 57 -34q27 34 71 34q33 0 53.5 -23.5t20.5 -61.5v-241h-74v219q0 40 -28 40q-13 0 -21 -11t-8 -29v-219h-74v219q0 40 -27 40
q-30 0 -30 -40z" />
    <glyph glyph-name="uni2153" unicode="&#x2153;" horiz-adv-x="496" 
d="M168 0h-87l176 685h87zM112 305h-81v305h-27v75h108v-380zM383 -5q-41 0 -68.5 26t-27.5 77v14h73v-16q0 -30 23 -30q20 0 20 28v61q0 29 -23 29q-15 0 -24 -13l-47 48l72 92h-91v69h177v-59l-56 -75q30 -4 49 -27.5t19 -65.5v-57q0 -50 -27.5 -75.5t-68.5 -25.5z" />
    <glyph glyph-name="uni2154" unicode="&#x2154;" horiz-adv-x="573" 
d="M202 305h-176v72l75 129q33 58 33 85q0 30 -22 30q-23 0 -23 -32v-15h-73v15q0 51 27.5 77t68.5 26q44 0 70.5 -25.5t26.5 -77.5t-44 -124l-54 -90h91v-70zM247 0h-87l176 685h87zM460 -5q-41 0 -68.5 26t-27.5 77v14h73v-16q0 -30 23 -30q20 0 20 28v61q0 29 -23 29
q-15 0 -24 -13l-47 48l72 92h-91v69h177v-59l-56 -75q30 -4 49 -27.5t19 -65.5v-57q0 -50 -27.5 -75.5t-68.5 -25.5z" />
    <glyph glyph-name="minus" unicode="&#x2212;" horiz-adv-x="280" 
d="M261 230h-242v112h242v-112z" />
    <glyph glyph-name="approxequal" unicode="&#x2248;" horiz-adv-x="280" 
d="M261 439v-101q-7 -13 -23.5 -29.5t-35.5 -16.5q-26 0 -66 18.5t-59 18.5q-16 0 -33.5 -12.5t-24.5 -21.5v103q8 13 27 28.5t42 15.5q26 0 63 -18.5t55 -18.5q15 0 32.5 12.5t22.5 21.5zM261 273v-102q-6 -12 -27 -28.5t-44 -16.5q-24 0 -61 18.5t-56 18.5
q-14 0 -30.5 -12t-23.5 -22v102q30 45 58 45q27 0 67 -18.5t59 -18.5q15 0 33.5 13t24.5 21z" />
    <glyph glyph-name="notequal" unicode="&#x2260;" horiz-adv-x="280" 
d="M261 131h-110l-19 -111h-73l19 111h-59v117h80l8 51h-88v116h109l19 112h74l-20 -112h60v-116h-80l-9 -51h89v-117z" />
    <glyph glyph-name="lessequal" unicode="&#x2264;" horiz-adv-x="280" 
d="M261 436l-122 -78l122 -76v-123l-242 151v97l242 149v-120zM261 0h-242v109h242v-109z" />
    <glyph glyph-name="greaterequal" unicode="&#x2265;" horiz-adv-x="280" 
d="M261 407v-98l-242 -150v120l122 77l-122 78v122zM261 0h-242v109h242v-109z" />
    <glyph glyph-name="uniE001" unicode="&#xe001;" horiz-adv-x="408" 
d="M258 243v285l-72 -285h72zM258 0v133h-100l-34 -133h-124l189 685h187v-685h-118z" />
    <glyph glyph-name="uniE002" unicode="&#xe002;" horiz-adv-x="408" 
d="M219 243l-72 285v-285h72zM281 0l-34 133h-100v-133h-115v685h187l189 -685h-127z" />
    <glyph glyph-name="uniE003" unicode="&#xe003;" horiz-adv-x="393" 
d="M33 0v685h172q76 0 120.5 -43.5t44.5 -123.5v-33q0 -88 -67 -130q74 -41 74 -138v-36q0 -87 -45.5 -134t-117.5 -47h-181zM195 573h-38v-171h36q57 0 57 72v28q0 71 -55 71zM195 288h-38v-176h40q24 0 38.5 17.5t14.5 51.5v37q0 35 -15 52.5t-40 17.5z" />
    <glyph glyph-name="uniE004" unicode="&#xe004;" horiz-adv-x="399" 
d="M184 567h-24v-213h26q55 0 55 60v91q0 62 -57 62zM160 240v-240h-127v685h164q78 0 126 -44t48 -132v-96q0 -92 -59 -137l89 -276h-141l-66 240h-34z" />
    <glyph glyph-name="uniE005" unicode="&#xe005;" horiz-adv-x="398" 
d="M185 567h-25v-213h27q54 0 54 60v91q0 62 -56 62zM287 0l-125 240h-2v-240h-127v685h164q78 0 126 -44t48 -132v-96q0 -109 -81 -151l143 -262h-146z" />
    <glyph glyph-name="uniE006" unicode="&#xe006;" horiz-adv-x="633" 
d="M248 0v437l-123 -437h-125l208 685h142v-334l103 334h148v-685h-119v451l-140 -451h-94z" />
    <glyph glyph-name="uniE007" unicode="&#xe007;" horiz-adv-x="633" 
d="M289 0l-140 451v-451h-117v685h148l105 -341v341h140l208 -685h-127l-123 437v-437h-94z" />
    <glyph glyph-name="uniE008" unicode="&#xe008;" horiz-adv-x="408" 
d="M376 0h-187l-189 685h127l134 -528v528h115v-685z" />
    <glyph glyph-name="uniE009" unicode="&#xe009;" horiz-adv-x="408" 
d="M219 0h-187v685h118v-528l134 528h124z" />
    <glyph glyph-name="uniE00A" unicode="&#xe00a;" horiz-adv-x="633" 
d="M453 0l-105 341v-341h-140l-208 685h127l123 -437v437h94l140 -451v451h117v-685h-148z" />
    <glyph glyph-name="uniE00B" unicode="&#xe00b;" horiz-adv-x="633" 
d="M283 0v334l-103 -334h-148v685h119v-451l140 451h94v-437l123 437h125l-208 -685h-142z" />
    <glyph glyph-name="uniE00C" unicode="&#xe00c;" horiz-adv-x="434" 
d="M138 828l-31 -91h-74l25 70h-25v98h105v-77zM278 0l-129 398v-398h-116v685h130l123 -392v392h115v-685h-123z" />
    <glyph glyph-name="uniE00E" unicode="&#xe00e;" horiz-adv-x="361" 
d="M219 0l-48 170l-26 -48v-122h-116v685h116v-364l81 189h130l-108 -198l105 -312h-134z" />
    <glyph glyph-name="uniE011" unicode="&#xe011;" horiz-adv-x="439" 
d="M250 594h-21q-44 0 -44 -52v-32h63v-107h-63v-403h-116v403h-52v107h52v36q0 71 36 109t99 38h46v-99zM410 574h-116v111h116v-111zM410 -1h-116v511h116v-511z" />
    <glyph glyph-name="uniE012" unicode="&#xe012;" horiz-adv-x="439" 
d="M250 594h-21q-44 0 -44 -52v-32h63v-107h-63v-403h-116v403h-52v107h52v36q0 71 36 109t99 38h46v-99zM409 0h-115v685h115v-685z" />
    <glyph glyph-name="uniE013" unicode="&#xe013;" 
d="M22 166v352q0 84 45.5 130t117.5 46t116.5 -46t44.5 -130v-352q0 -83 -44.5 -129t-116.5 -46t-117.5 46t-45.5 129zM137 518v-272l73 330q-10 9 -26 9q-20 0 -33.5 -17.5t-13.5 -49.5zM185 100q20 0 32.5 17t12.5 49v262l-70 -320q11 -8 25 -8z" />
    <glyph glyph-name="uniE014" unicode="&#xe014;" horiz-adv-x="367" 
d="M305 684l-173 -442h67v97h120v-97h40v-107h-40v-135h-120v135h-185v107l175 442h116z" />
    <glyph glyph-name="uniE015" unicode="&#xe015;" horiz-adv-x="340" 
d="M170 638q66 0 108 -40.5t42 -119.5v-326q0 -79 -42 -119.5t-108 -40.5q-65 0 -107.5 41t-42.5 119v326q0 78 42.5 119t107.5 41zM170 94q18 0 30 14t12 40v333q0 27 -12 41t-30 14q-42 0 -42 -55v-333q0 -26 12 -40t30 -14z" />
    <glyph glyph-name="uniE016" unicode="&#xe016;" horiz-adv-x="187" 
d="M162 0h-116v522h-43v107h159v-629z" />
    <glyph glyph-name="uniE017" unicode="&#xe017;" horiz-adv-x="339" 
d="M311 0h-277v103l125 228q30 54 41.5 83.5t11.5 62.5q0 59 -42 59q-44 0 -44 -64v-23h-106v22q0 85 42 126t108 41q67 0 108 -41t41 -122q0 -49 -15 -93.5t-55 -116.5l-93 -165h155v-100z" />
    <glyph glyph-name="uniE018" unicode="&#xe018;" horiz-adv-x="339" 
d="M172 -8q-66 0 -109 41t-43 126v24h106v-26q0 -63 46 -63q39 0 39 54v114q0 27 -12 40.5t-32 13.5q-26 0 -42 -22l-68 67l119 170h-150v98h274v-84l-93 -136q51 -5 82 -44t31 -107v-106q0 -78 -42 -119t-106 -41z" />
    <glyph glyph-name="uniE019" unicode="&#xe019;" horiz-adv-x="339" 
d="M296 228h36v-99h-36v-129h-113v129h-171v99l161 400h123v-400zM113 228h70v192z" />
    <glyph glyph-name="uniE01A" unicode="&#xe01a;" horiz-adv-x="339" 
d="M170 -8q-65 0 -107.5 41t-42.5 126v24h107v-26q0 -63 43 -63q40 0 40 54v120q0 55 -42 55q-38 0 -41 -51h-100l4 357h266v-100h-164l-1 -124q27 18 66 18q53 0 86.5 -40.5t33.5 -117.5v-113q0 -79 -41.5 -119.5t-106.5 -40.5z" />
    <glyph glyph-name="uniE01B" unicode="&#xe01b;" horiz-adv-x="339" 
d="M171 -8q-65 0 -108 41t-43 119v99q0 75 28 151l85 227h117l-81 -209q12 4 27 4q53 0 88.5 -36.5t35.5 -104.5v-131q0 -79 -42 -119.5t-107 -40.5zM171 94q18 0 29.5 13.5t11.5 40.5v120q0 55 -41 55q-42 0 -42 -58v-117q0 -54 42 -54z" />
    <glyph glyph-name="uniE01C" unicode="&#xe01c;" horiz-adv-x="332" 
d="M302 530l-139 -530h-119l150 527h-171v102h279v-99z" />
    <glyph glyph-name="uniE01D" unicode="&#xe01d;" horiz-adv-x="339" 
d="M170 -8q-65 0 -107.5 41t-42.5 119v70q0 76 48 117q-39 36 -39 98v46q0 75 40 114.5t101 39.5t101 -39t40 -115v-46q0 -62 -39 -98q48 -40 48 -117v-70q0 -78 -42.5 -119t-107.5 -41zM170 540q-17 0 -27.5 -13.5t-10.5 -37.5v-57q0 -51 38 -51q17 0 27.5 13t10.5 38v57
q0 24 -10.5 37.5t-27.5 13.5zM170 91q18 0 30 14t12 41v84q0 27 -12 41t-30 14q-19 0 -30.5 -14t-11.5 -41v-84q0 -27 12 -41t30 -14z" />
    <glyph glyph-name="uniE01E" unicode="&#xe01e;" horiz-adv-x="339" 
d="M207 0h-117l80 208q-11 -4 -26 -4q-53 0 -88.5 37t-35.5 105v131q0 79 42 119.5t108 40.5q65 0 107.5 -41t42.5 -119v-99q0 -74 -28 -150zM170 536q-18 0 -30 -14t-12 -41v-121q0 -27 11.5 -40.5t29.5 -13.5q19 0 31 15t12 44v116q0 27 -12 41t-30 14z" />
    <glyph glyph-name="uniE01F" unicode="&#xe01f;" horiz-adv-x="341" 
d="M170 638q66 0 108 -40.5t42 -119.5v-326q0 -79 -42 -119.5t-108 -40.5q-65 0 -107.5 41t-42.5 119v326q0 78 42.5 119t107.5 41zM126 481v-255l67 304q-11 6 -23 6q-44 0 -44 -55zM170 94q20 0 32.5 13.5t12.5 40.5v260l-68 -308q11 -6 23 -6z" />
    <glyph glyph-name="uniE020" unicode="&#xe020;" horiz-adv-x="339" 
d="M282 628l-159 -405h60v88h113v-88h36v-100h-36v-123h-113v123h-171v100l161 405h109z" />
    <glyph glyph-name="uniE02C" unicode="&#xe02c;" horiz-adv-x="340" 
d="M18 0v101h95v428h-71v100h188v-528h94v-101h-306z" />
    <glyph glyph-name="uniE02D" unicode="&#xe02d;" horiz-adv-x="340" 
d="M172 -8q-66 0 -109 41t-43 126v24h106v-26q0 -63 46 -63q39 0 39 54v76q0 55 -44 55h-58v100h52q45 0 45 54v46q0 57 -42 57q-41 0 -41 -59v-23h-106v22q0 82 41.5 122t105.5 40q67 0 108 -39.5t41 -118.5v-33q0 -72 -41 -110q48 -38 48 -117v-68q0 -78 -42 -119
t-106 -41z" />
    <glyph glyph-name="uniE02E" unicode="&#xe02e;" horiz-adv-x="340" 
d="M172 -8q-66 0 -109 41t-43 126v24h106v-26q0 -63 46 -63q39 0 39 54v110q0 27 -12 40.5t-32 13.5h-117l128 220h-152v98h274v-84l-81 -143q46 -9 73.5 -47t27.5 -102v-102q0 -78 -42 -119t-106 -41z" />
    <glyph glyph-name="uniE02F" unicode="&#xe02f;" horiz-adv-x="340" 
d="M320 152q0 -79 -42 -119.5t-108 -40.5q-65 0 -107.5 41t-42.5 119v328q0 79 41 118.5t108 39.5q64 0 105.5 -39t41.5 -120v-17h-106v18q0 56 -41 56q-42 0 -42 -57v-87q32 20 73 20q53 0 86.5 -35t33.5 -104v-121zM170 94q18 0 30 14t12 40v107q0 27 -12 41t-30 14
q-42 0 -42 -55v-107q0 -26 12 -40t30 -14z" />
    <glyph glyph-name="uniE030" unicode="&#xe030;" horiz-adv-x="340" 
d="M170 536q-18 0 -30 -14t-12 -40v-107q0 -27 12 -41t30 -14q42 0 42 55v107q0 26 -12 40t-30 14zM171 -8q-64 0 -105.5 39t-41.5 120v17h106v-18q0 -56 41 -56q42 0 42 57v87q-32 -20 -73 -20q-53 0 -86.5 35t-33.5 104v121q0 79 42 119.5t108 40.5q65 0 107.5 -41
t42.5 -119v-328q0 -79 -41 -118.5t-108 -39.5z" />
    <glyph glyph-name="uniE03D" unicode="&#xe03d;" 
d="M20 0v108h103v470h-78v107h203v-577h102v-108h-330z" />
    <glyph glyph-name="uniE03E" unicode="&#xe03e;" 
d="M186 -9q-72 0 -118 44.5t-46 137.5v26h113v-28q0 -71 51 -71q44 0 44 60v84q0 30 -13.5 45.5t-35.5 15.5h-63v107h56q23 0 36.5 15t13.5 45v50q0 64 -46 64t-46 -66v-26h-114v25q0 89 45 132.5t114 43.5q72 0 117 -43t45 -128v-37q0 -79 -44 -120q51 -41 51 -127v-75
q0 -85 -45 -129.5t-115 -44.5z" />
    <glyph glyph-name="uniE03F" unicode="&#xe03f;" 
d="M186 -9q-72 0 -118 44.5t-46 137.5v26h113v-28q0 -71 51 -71q44 0 44 60v121q0 30 -13.5 45t-35.5 15h-127l140 241h-166v104h296v-89l-88 -158q50 -9 80 -51t30 -111v-112q0 -85 -45 -129.5t-115 -44.5z" />
    <glyph glyph-name="uniE040" unicode="&#xe040;" 
d="M346 165q0 -86 -45.5 -130t-116.5 -44q-70 0 -116 44.5t-46 128.5v360q0 85 44 128t116 43q70 0 114.5 -42.5t44.5 -130.5v-18h-113v20q0 62 -45 62q-47 0 -47 -64v-95q34 22 80 22q57 0 93.5 -38t36.5 -113v-133zM184 101q20 0 33 15.5t13 44.5v117q0 30 -13 45.5
t-33 15.5q-47 0 -47 -61v-117q0 -29 13 -44.5t34 -15.5z" />
    <glyph glyph-name="uniE041" unicode="&#xe041;" 
d="M184 585q-21 0 -34 -15.5t-13 -44.5v-117q0 -30 13 -45.5t34 -15.5q47 0 47 61v117q0 29 -13.5 44.5t-33.5 15.5zM185 -9q-69 0 -113.5 42.5t-44.5 130.5v18h113v-19q0 -62 45 -62q47 0 47 63v95q-34 -22 -80 -22q-57 0 -93.5 38t-36.5 113v133q0 86 45.5 130t116.5 44
q70 0 116 -44.5t46 -128.5v-359q0 -85 -44.5 -128.5t-116.5 -43.5z" />
    <glyph glyph-name="uniE043" unicode="&#xe043;" horiz-adv-x="224" 
d="M112 387q41 0 68.5 -26t27.5 -76v-189q0 -50 -27.5 -75.5t-68.5 -25.5t-68.5 25.5t-27.5 75.5v189q0 50 27.5 76t68.5 26zM112 66q20 0 20 28v193q0 29 -20 29q-21 0 -21 -29v-193q0 -28 21 -28z" />
    <glyph glyph-name="uniE044" unicode="&#xe044;" horiz-adv-x="130" 
d="M112 0h-81v305h-27v75h108v-380z" />
    <glyph glyph-name="uniE045" unicode="&#xe045;" horiz-adv-x="224" 
d="M202 0h-176v72l75 129q30 53 32 74q1 5 1 11q0 30 -22 30q-23 0 -23 -32v-15h-73v15q0 51 27.5 77t68.5 26q44 0 70.5 -25.5t26.5 -77.5t-44 -124l-54 -90h91v-70z" />
    <glyph glyph-name="uniE046" unicode="&#xe046;" horiz-adv-x="224" 
d="M112 -5q-41 0 -68.5 26t-27.5 77v14h73v-16q0 -30 23 -30q20 0 20 28v61q0 29 -23 29q-15 0 -24 -13l-47 48l72 92h-91v69h177v-59l-56 -75q30 -4 49 -27.5t19 -65.5v-57q0 -50 -27.5 -75.5t-68.5 -25.5z" />
    <glyph glyph-name="uniE047" unicode="&#xe047;" horiz-adv-x="224" 
d="M195 144h21v-69h-21v-75h-79v75h-105v69l98 236h86v-236zM80 144h36v96z" />
    <glyph glyph-name="uniE048" unicode="&#xe048;" horiz-adv-x="224" 
d="M111 -5q-41 0 -68 25.5t-27 77.5v14h74v-16q0 -30 21 -30q20 0 20 28v66q0 28 -21 28q-20 0 -20 -28h-69l2 220h171v-70h-101l-1 -63q17 11 40 11q32 0 53 -25t21 -75v-62q0 -50 -27 -75.5t-68 -25.5z" />
    <glyph glyph-name="uniE049" unicode="&#xe049;" horiz-adv-x="224" 
d="M112 -5q-41 0 -68.5 25.5t-27.5 75.5v55q0 49 19 96l51 133h82l-50 -122q4 1 12 1q33 0 55.5 -22t22.5 -63v-78q0 -50 -27 -75.5t-69 -25.5zM112 66q21 0 21 28v66q0 29 -21 29t-21 -30v-65q0 -28 21 -28z" />
    <glyph glyph-name="uniE04A" unicode="&#xe04a;" horiz-adv-x="222" 
d="M198 310l-85 -310h-83l93 309h-104v71h179v-70z" />
    <glyph glyph-name="uniE04B" unicode="&#xe04b;" horiz-adv-x="224" 
d="M112 -5q-41 0 -68.5 25.5t-27.5 75.5v37q0 47 29 71q-24 21 -24 59v23q0 49 26 74t65 25t65 -25t26 -74v-23q0 -38 -24 -59q29 -24 29 -71v-37q0 -50 -27.5 -75.5t-68.5 -25.5zM112 318q-20 0 -20 -27v-31q0 -27 20 -27q19 0 19 27v31q0 27 -19 27zM112 64q20 0 20 28v45
q0 29 -20 29q-21 0 -21 -29v-45q0 -28 21 -28z" />
    <glyph glyph-name="uniE04C" unicode="&#xe04c;" horiz-adv-x="224" 
d="M138 0h-82l50 122q-4 -1 -12 -1q-34 0 -56 22.5t-22 63.5v78q0 50 27 75.5t69 25.5q41 0 68.5 -26t27.5 -75v-56q0 -48 -18 -95zM112 315q-21 0 -21 -29v-66q0 -28 21 -28q20 0 20 29v65q0 29 -20 29z" />
    <glyph glyph-name="uniE04D" unicode="&#xe04d;" horiz-adv-x="223" 
d="M112 692q41 0 68.5 -26t27.5 -76v-189q0 -50 -27.5 -75.5t-68.5 -25.5t-68.5 25.5t-27.5 75.5v189q0 50 27.5 76t68.5 26zM112 371q20 0 20 28v193q0 29 -20 29q-21 0 -21 -29v-193q0 -28 21 -28z" />
    <glyph glyph-name="uniE04E" unicode="&#xe04e;" horiz-adv-x="130" 
d="M112 305h-81v305h-27v75h108v-380z" />
    <glyph glyph-name="uniE04F" unicode="&#xe04f;" horiz-adv-x="224" 
d="M202 305h-176v72l75 129q33 58 33 85q0 30 -22 30q-23 0 -23 -32v-15h-73v15q0 51 27.5 77t68.5 26q44 0 70.5 -25.5t26.5 -77.5t-44 -124l-54 -90h91v-70z" />
    <glyph glyph-name="uniE050" unicode="&#xe050;" horiz-adv-x="224" 
d="M112 300q-41 0 -68.5 26t-27.5 77v14h73v-16q0 -30 23 -30q20 0 20 28v61q0 29 -23 29q-15 0 -24 -13l-47 48l72 92h-91v69h177v-59l-56 -75q30 -4 49 -27.5t19 -65.5v-57q0 -50 -27.5 -75.5t-68.5 -25.5z" />
    <glyph glyph-name="uniE051" unicode="&#xe051;" horiz-adv-x="224" 
d="M195 449h21v-69h-21v-75h-79v75h-105v69l98 236h86v-236zM80 449h36v96z" />
    <glyph glyph-name="uniE052" unicode="&#xe052;" horiz-adv-x="224" 
d="M111 300q-41 0 -68 25.5t-27 77.5v14h74v-16q0 -30 21 -30q20 0 20 28v66q0 28 -21 28q-20 0 -20 -28h-69l2 220h171v-70h-101l-1 -63q17 11 40 11q32 0 53 -25t21 -75v-62q0 -50 -27 -75.5t-68 -25.5z" />
    <glyph glyph-name="uniE053" unicode="&#xe053;" horiz-adv-x="224" 
d="M112 300q-41 0 -68.5 25.5t-27.5 75.5v55q0 48 19 96l51 133h82l-50 -122q4 1 12 1q33 0 55.5 -22t22.5 -63v-78q0 -50 -27 -75.5t-69 -25.5zM112 371q21 0 21 28v66q0 29 -21 29t-21 -30v-65q0 -28 21 -28z" />
    <glyph glyph-name="uniE054" unicode="&#xe054;" horiz-adv-x="222" 
d="M198 615l-85 -310h-83l93 309h-104v71h179v-70z" />
    <glyph glyph-name="uniE055" unicode="&#xe055;" horiz-adv-x="224" 
d="M112 300q-41 0 -68.5 25.5t-27.5 75.5v37q0 47 29 71q-24 21 -24 59v23q0 49 26 74t65 25t65 -25t26 -74v-23q0 -38 -24 -59q29 -24 29 -71v-37q0 -50 -27.5 -75.5t-68.5 -25.5zM112 623q-20 0 -20 -27v-31q0 -27 20 -27q19 0 19 27v31q0 27 -19 27zM112 369q20 0 20 28
v45q0 29 -20 29q-21 0 -21 -29v-45q0 -28 21 -28z" />
    <glyph glyph-name="uniE056" unicode="&#xe056;" horiz-adv-x="224" 
d="M138 305h-82l50 122q-4 -1 -12 -1q-34 0 -56 22t-22 64v78q0 50 27 75.5t69 25.5q41 0 68.5 -26t27.5 -75v-56q0 -48 -18 -95zM112 620q-21 0 -21 -29v-66q0 -28 21 -28q20 0 20 29v65q0 29 -20 29z" />
    <glyph glyph-name="uniE062" unicode="&#xe062;" horiz-adv-x="429" 
d="M157 474q0 -35 19 -75q38 32 38 72v34q0 40 -29 40q-28 0 -28 -39v-32zM183 90q24 0 47 17l-88 144q-18 -25 -18 -55v-42q0 -29 16 -46.5t43 -17.5zM295 0l-14 23q-48 -30 -107 -30q-68 0 -113 37.5t-45 110.5v49q0 91 74 150q-33 68 -33 127v34q0 67 36.5 102t92.5 35
t92.5 -33.5t36.5 -97.5v-26q0 -63 -23 -98.5t-69 -66.5l64 -105q16 64 15 144h105q0 -159 -53 -252l63 -103h-122z" />
    <glyph glyph-name="uniE063" unicode="&#xe063;" horiz-adv-x="365" 
d="M127 486q0 -36 27 -66v119q-27 -13 -27 -53zM237 150q0 35 -30 68v-128q30 15 30 60zM207 -84h-53v75q-63 9 -99.5 52.5t-36.5 122.5v22h106v-21q0 -56 30 -74v167q-2 1 -4.5 2.5t-3.5 2.5q-66 43 -97.5 92t-31.5 117q0 73 37.5 116t99.5 50v78h53v-79q62 -8 96 -52
t35 -117v-22h-105v21q0 51 -26 67v-159q1 -1 5 -3q71 -47 105 -94.5t34 -118.5q0 -73 -38 -118.5t-106 -52.5v-74z" />
    <glyph glyph-name="uniE064" unicode="&#xe064;" horiz-adv-x="347" 
d="M126 148q0 -37 25 -49v310q-25 -13 -25 -51v-210zM331 151q0 -69 -37.5 -108t-95.5 -45v-82h-47v82q-59 6 -95.5 45t-36.5 108v206q0 68 36.5 107t95.5 46v85h47v-85q59 -6 96 -45t37 -108v-51h-105v52q0 39 -28 51v-311q28 12 28 50v38h105v-35z" />
    <glyph glyph-name="uniE065" unicode="&#xe065;" horiz-adv-x="335" 
d="M319 35q-33 -44 -90 -44q-30 0 -76 25t-68 25q-37 0 -69 -41v105q16 21 36 31v103h-33v103h33v143q0 74 39 112.5t98 38.5q60 0 97 -38t37 -111v-29h-102v29q0 53 -32 53q-30 0 -30 -52v-146h83v-103h-83v-106q7 -4 21.5 -12t23 -12t20.5 -8t23 -4q38 0 72 42v-104z" />
    <glyph glyph-name="uniE066" unicode="&#xe066;" horiz-adv-x="380" 
d="M249 0h-118v112h-86v92h86v48h-86v92h55l-94 285h123l62 -235l65 235h118l-95 -285h56v-92h-86v-48h86v-92h-86v-112z" />
    <glyph glyph-name="uniE067" unicode="&#xe067;" horiz-adv-x="375" 
d="M363 151q0 -79 -43.5 -120.5t-109.5 -41.5q-69 0 -113.5 44t-44.5 128v51h-39v74h39v43h-39v74h39v66q0 84 44.5 127.5t113.5 43.5q66 0 109.5 -41.5t43.5 -119.5v-43h-115v39q0 54 -38 54q-41 0 -41 -64v-62h78v-74h-78v-43h78v-74h-78v-49q0 -63 40 -63q39 0 39 55v23
h115v-27z" />
    <glyph glyph-name="uniE068" unicode="&#xe068;" horiz-adv-x="340" 
d="M186 249l5 132h-37l-4 -132h36zM177 0l6 139h-37l-6 -139h-97l6 139h-32v110h35l5 132h-37v109h41l5 139h97l-5 -139h37l5 139h96l-5 -139h33v-109h-37l-4 -132h36v-110h-40l-4 -139h-98z" />
    <glyph glyph-name="uniE07A" unicode="&#xe07a;" horiz-adv-x="358" 
d="M179 0h-148l-33 180v505h162q76 0 120.5 -43.5t44.5 -123.5v-33q0 -84 -61 -128q79 -39 79 -140v-36q0 -87 -46 -134t-118 -47zM205 502q0 71 -55 71h-27v-171h25q57 0 57 72v28zM216 218q0 35 -15.5 52.5t-40.5 17.5h-37v-176h39q24 0 39 17.5t15 51.5v37z" />
    <glyph glyph-name="uniE07B" unicode="&#xe07b;" horiz-adv-x="385" 
d="M176 0h-145l-34 185v500h180q82 0 131 -47.5t49 -138.5v-312q0 -92 -49 -139.5t-132 -47.5zM228 502q0 32 -15 48.5t-37 16.5h-50v-449h48q23 0 38.5 16t15.5 48v320z" />
    <glyph glyph-name="uniE07C" unicode="&#xe07c;" horiz-adv-x="324" 
d="M312 0h-281l-32 177v508h308v-116h-180v-163h159v-118h-159v-172h185v-116z" />
    <glyph glyph-name="uniE07D" unicode="&#xe07d;" horiz-adv-x="312" 
d="M127 0h-96l-33 179v506h308v-118h-179v-181h158v-118h-158v-268z" />
    <glyph glyph-name="uniE07E" unicode="&#xe07e;" horiz-adv-x="397" 
d="M127 281v-281h-96l-32 177v508h128v-285h109v285h128v-685h-128v281h-109z" />
    <glyph glyph-name="uniE07F" unicode="&#xe07f;" horiz-adv-x="160" 
d="M127 0h-96l-32 177v508h128v-685z" />
    <glyph glyph-name="uniE080" unicode="&#xe080;" horiz-adv-x="374" 
d="M127 257v-257h-96l-34 185v500h130v-270l101 270h135l-130 -343l139 -342h-140z" />
    <glyph glyph-name="uniE081" unicode="&#xe081;" horiz-adv-x="317" 
d="M304 0h-273l-34 183v502h128v-567h179v-118z" />
    <glyph glyph-name="uniE082" unicode="&#xe082;" horiz-adv-x="500" 
d="M108 0h-77l-33 179v506h158l79 -392l76 392h156v-685h-109v421l-94 -421h-63l-93 415v-415z" />
    <glyph glyph-name="uniE083" unicode="&#xe083;" horiz-adv-x="400" 
d="M114 392v-392h-83l-33 179v506h131l122 -384v384h116v-685h-123z" />
    <glyph glyph-name="uniE084" unicode="&#xe084;" horiz-adv-x="359" 
d="M127 0h-96l-33 179v506h176q78 0 124 -47.5t46 -133.5v-117q0 -88 -47 -135.5t-128 -47.5h-42v-204zM213 499q0 68 -54 68h-32v-246h29q57 0 57 67v111z" />
    <glyph glyph-name="uniE085" unicode="&#xe085;" horiz-adv-x="364" 
d="M207 505q0 62 -57 62h-25v-213h27q55 0 55 60v91zM125 0h-94l-33 179v506h166q78 0 125 -44t47 -132v-96q0 -110 -82 -145l114 -268h-145l-98 250v-250z" />
    <glyph glyph-name="uniE086" unicode="&#xe086;" horiz-adv-x="333" 
d="M317 0h-286l-24 136l171 430h-179v119h320v-110l-188 -458h186v-117z" />
    <glyph glyph-name="uniE087" unicode="&#xe087;" horiz-adv-x="324" 
d="M-37 274v411h162q76 0 120.5 -43.5t44.5 -123.5v-33q0 -84 -63 -127q80 -39 80 -141v-36q0 -87 -45.5 -134t-117.5 -47h-105zM116 573h-29v-171h26q57 0 57 72v28q0 71 -54 71zM125 288h-38v-176h39q24 0 39 17.5t15 51.5v37q0 35 -15 52.5t-40 17.5z" />
    <glyph glyph-name="uniE088" unicode="&#xe088;" horiz-adv-x="351" 
d="M-37 274v411h179q82 0 131 -47.5t49 -138.5v-312q0 -92 -49 -139.5t-131 -47.5h-103zM141 567h-49v-449h48q23 0 38 16t15 48v320q0 32 -14.5 48.5t-37.5 16.5z" />
    <glyph glyph-name="uniE089" unicode="&#xe089;" horiz-adv-x="288" 
d="M-37 274v411h309v-116h-181v-163h160v-118h-160v-172h185v-116h-237z" />
    <glyph glyph-name="uniE08A" unicode="&#xe08a;" horiz-adv-x="277" 
d="M-37 274v411h308v-118h-180v-181h158v-118h-158v-268h-52z" />
    <glyph glyph-name="uniE08B" unicode="&#xe08b;" horiz-adv-x="362" 
d="M-38 274v411h128v-285h110v285h128v-685h-128v281h-110v-281h-52z" />
    <glyph glyph-name="uniE08C" unicode="&#xe08c;" horiz-adv-x="124" 
d="M-37 274v411h128v-685h-52z" />
    <glyph glyph-name="uniE08D" unicode="&#xe08d;" horiz-adv-x="340" 
d="M-37 274v411h129v-275l102 275h134l-130 -343l139 -342h-140l-105 260v-260h-53z" />
    <glyph glyph-name="uniE08E" unicode="&#xe08e;" horiz-adv-x="283" 
d="M-37 274v411h128v-567h178v-118h-231v4z" />
    <glyph glyph-name="uniE08F" unicode="&#xe08f;" horiz-adv-x="464" 
d="M-37 274v411h158l79 -399l76 399h156v-685h-114v423l-94 -423h-54l-92 420v-420h-39z" />
    <glyph glyph-name="uniE090" unicode="&#xe090;" horiz-adv-x="365" 
d="M-37 274v411h130l123 -392v392h115v-685h-123l-129 398v-398h-40z" />
    <glyph glyph-name="uniE091" unicode="&#xe091;" horiz-adv-x="324" 
d="M-37 274v411h175q78 0 124.5 -47.5t46.5 -133.5v-117q0 -88 -47.5 -135.5t-128.5 -47.5h-41v-204h-53zM123 567h-31v-246h29q25 0 41 16.5t16 50.5v111q0 68 -55 68z" />
    <glyph glyph-name="uniE092" unicode="&#xe092;" horiz-adv-x="329" 
d="M115 567h-25v-213h28q54 0 54 60v91q0 62 -57 62zM-37 274v411h166q77 0 124.5 -44t47.5 -132v-96q0 -109 -81 -151l113 -262h-145l-95 240h-3v-240h-51z" />
    <glyph glyph-name="uniE093" unicode="&#xe093;" horiz-adv-x="296" 
d="M281 0h-242l-51 182l154 384h-179v119h320v-110l-187 -458h185v-117z" />
    <glyph glyph-name="uniE094" unicode="&#xe094;" horiz-adv-x="564" 
d="M-37 274v411h148l105 -341v341h140l208 -685h-127l-123 437v-437h-94l-140 451v-451h-41z" />
    <glyph glyph-name="uniE095" unicode="&#xe095;" horiz-adv-x="339" 
d="M150 243l-72 285v-285h72zM-37 274v411h187l189 -685h-127l-34 133h-100v-133h-39z" />
    <glyph glyph-name="uniE096" unicode="&#xe096;" horiz-adv-x="289" 
d="M142 0h-107l-20 73v201l-137 411h134l69 -247l70 247h128l-137 -407v-278z" />
    <glyph glyph-name="uniE097" unicode="&#xe097;" horiz-adv-x="250" 
d="M40 0l-45 158v409h-110v118h354v-118h-116v-567h-83z" />
    <glyph glyph-name="uniE098" unicode="&#xe098;" horiz-adv-x="326" 
d="M-35 246v439h162q76 0 120.5 -43.5t44.5 -123.5v-33q0 -84 -63 -127q80 -39 80 -141v-36q0 -87 -45.5 -134t-117.5 -47h-106zM118 573h-29v-171h26q57 0 57 72v28q0 71 -54 71zM127 288h-38v-176h39q24 0 39 17.5t15 51.5v37q0 35 -15 52.5t-40 17.5z" />
    <glyph glyph-name="uniE099" unicode="&#xe099;" horiz-adv-x="353" 
d="M-35 246v439h179q82 0 131 -47.5t49 -138.5v-312q0 -92 -49 -139.5t-131 -47.5h-104zM143 567h-49v-449h48q23 0 38 16t15 48v320q0 32 -14.5 48.5t-37.5 16.5z" />
    <glyph glyph-name="uniE09A" unicode="&#xe09a;" horiz-adv-x="291" 
d="M-35 246v439h309v-116h-181v-163h160v-118h-160v-172h185v-116h-238z" />
    <glyph glyph-name="uniE09B" unicode="&#xe09b;" horiz-adv-x="278" 
d="M-35 246v439h308v-118h-180v-181h158v-118h-158v-268h-53z" />
    <glyph glyph-name="uniE09C" unicode="&#xe09c;" horiz-adv-x="363" 
d="M-36 246v439h128v-285h110v285h128v-685h-128v281h-110v-281h-53z" />
    <glyph glyph-name="uniE09D" unicode="&#xe09d;" horiz-adv-x="126" 
d="M-35 246v439h128v-685h-53z" />
    <glyph glyph-name="uniE09E" unicode="&#xe09e;" horiz-adv-x="342" 
d="M-35 246v439h129v-275l102 275h134l-130 -343l139 -342h-140l-105 260v-260h-54z" />
    <glyph glyph-name="uniE09F" unicode="&#xe09f;" horiz-adv-x="284" 
d="M-35 246v439h128v-567h178v-118h-231z" />
    <glyph glyph-name="uniE0A0" unicode="&#xe0a0;" horiz-adv-x="367" 
d="M-35 246v439h130l123 -392v392h115v-685h-123l-129 398v-398h-41z" />
    <glyph glyph-name="uniE0A1" unicode="&#xe0a1;" horiz-adv-x="326" 
d="M-35 246v439h175q78 0 124.5 -47.5t46.5 -133.5v-117q0 -88 -47.5 -135.5t-128.5 -47.5h-41v-204h-54zM125 567h-31v-246h29q25 0 41 16.5t16 50.5v111q0 68 -55 68z" />
    <glyph glyph-name="uniE0A2" unicode="&#xe0a2;" horiz-adv-x="326" 
d="M117 567h-25v-213h28q54 0 54 60v91q0 62 -57 62zM-35 246v439h166q77 0 124.5 -44t47.5 -132v-96q0 -109 -81 -151l113 -262h-145l-95 240h-3v-240h-52z" />
    <glyph glyph-name="uniE0A3" unicode="&#xe0a3;" horiz-adv-x="341" 
d="M152 243l-72 285v-285h72zM-35 246v439h187l189 -685h-127l-34 133h-100v-133h-40z" />
    <glyph glyph-name="uniE0A4" unicode="&#xe0a4;" horiz-adv-x="566" 
d="M-35 246v439h148l105 -341v341h140l208 -685h-127l-123 437v-437h-94l-140 451v-451h-42z" />
    <glyph glyph-name="uniE0A5" unicode="&#xe0a5;" horiz-adv-x="281" 
d="M134 0h-93l-34 108v166l-137 411h134l69 -247l70 247h128l-137 -407v-278z" />
    <glyph glyph-name="uniE0A6" unicode="&#xe0a6;" horiz-adv-x="255" 
d="M0 148v419h-110v118h354v-118h-116v-567h-81z" />
    <glyph glyph-name="uniE0A7" unicode="&#xe0a7;" horiz-adv-x="360" 
d="M180 0h-143l-38 93v517l29 75h133q76 0 120.5 -43.5t44.5 -123.5v-33q0 -85 -61 -128q79 -39 79 -140v-36q0 -87 -46 -134t-118 -47zM207 502q0 71 -55 71h-28v-171h25q58 0 58 72v28zM217 218q0 35 -15 52.5t-40 17.5h-38v-176h39q25 0 39.5 17t14.5 52v37z" />
    <glyph glyph-name="uniE0A8" unicode="&#xe0a8;" horiz-adv-x="377" 
d="M117 243h85l-42 264zM370 0h-130l-21 133h-119l-22 -133h-41l-58 142l100 543h166z" />
    <glyph glyph-name="uniE0A9" unicode="&#xe0a9;" horiz-adv-x="376" 
d="M187 243l-72 285v-285h72zM249 0l-34 133h-100v-133h-78l-37 91v521l28 73h159l189 -685h-127z" />
    <glyph glyph-name="uniE0AA" unicode="&#xe0aa;" horiz-adv-x="386" 
d="M177 0h-140l-39 96v512l30 77h150q82 0 131.5 -47.5t49.5 -138.5v-312q0 -92 -49.5 -139.5t-132.5 -47.5zM229 502q0 32 -14.5 48.5t-37.5 16.5h-50v-449h49q23 0 38 16t15 48v320z" />
    <glyph glyph-name="uniE0AB" unicode="&#xe0ab;" horiz-adv-x="326" 
d="M313 0h-276l-37 91v521l28 73h281v-116h-181v-163h159v-118h-159v-172h185v-116z" />
    <glyph glyph-name="uniE0AC" unicode="&#xe0ac;" horiz-adv-x="313" 
d="M128 0h-91l-38 92v519l29 74h280v-118h-180v-181h158v-118h-158v-268z" />
    <glyph glyph-name="uniE0AD" unicode="&#xe0ad;" horiz-adv-x="398" 
d="M128 281v-281h-91l-37 91v521l28 73h100v-285h109v285h128v-685h-128v281h-109z" />
    <glyph glyph-name="uniE0AE" unicode="&#xe0ae;" horiz-adv-x="161" 
d="M128 0h-91l-37 91v521l28 73h100v-685z" />
    <glyph glyph-name="uniE0AF" unicode="&#xe0af;" horiz-adv-x="373" 
d="M128 257v-257h-91l-39 96v512l30 77h100v-270l102 270h135l-131 -343l139 -342h-140z" />
    <glyph glyph-name="uniE0B0" unicode="&#xe0b0;" horiz-adv-x="318" 
d="M305 0h-268l-38 95v514l29 76h99v-567h178v-118z" />
    <glyph glyph-name="uniE0B1" unicode="&#xe0b1;" horiz-adv-x="501" 
d="M110 0h-73l-38 92v519l29 74h130l78 -391l76 391h157v-685h-110v421l-94 -421h-63l-92 419v-419z" />
    <glyph glyph-name="uniE0B2" unicode="&#xe0b2;" horiz-adv-x="601" 
d="M117 0h-80l-37 91v521l28 73h120l105 -341v341h140l208 -685h-127l-123 437v-437h-94l-140 451v-451z" />
    <glyph glyph-name="uniE0B3" unicode="&#xe0b3;" horiz-adv-x="401" 
d="M116 392v-392h-79l-38 92v519l29 74h102l122 -384v384h117v-685h-124z" />
    <glyph glyph-name="uniE0B4" unicode="&#xe0b4;" horiz-adv-x="360" 
d="M128 0h-91l-38 92v519l29 74h147q78 0 124.5 -47.5t46.5 -133.5v-117q0 -88 -47.5 -135.5t-128.5 -47.5h-42v-204zM214 499q0 68 -54 68h-32v-246h30q25 0 40.5 16.5t15.5 50.5v111z" />
    <glyph glyph-name="uniE0B5" unicode="&#xe0b5;" horiz-adv-x="366" 
d="M208 505q0 62 -56 62h-25v-213h27q54 0 54 60v91zM127 0h-90l-38 92v519l29 74h137q78 0 125 -44t47 -132v-96q0 -110 -82 -145l115 -268h-146l-97 247v-247z" />
    <glyph glyph-name="uniE0B6" unicode="&#xe0b6;" horiz-adv-x="375" 
d="M235 0h-167l-97 536l56 149h47l78 -504l83 504h125z" />
    <glyph glyph-name="uniE0B7" unicode="&#xe0b7;" horiz-adv-x="544" 
d="M248 423l-47 -423h-156l-68 557l50 128h56l46 -500l63 500h116l64 -509l47 509h116l-82 -685h-159z" />
    <glyph glyph-name="uniE0B8" unicode="&#xe0b8;" horiz-adv-x="350" 
d="M203 0h-127v274l-96 287l47 124h46l69 -247l70 247h128l-137 -407v-278z" />
    <glyph glyph-name="uniE0B9" unicode="&#xe0b9;" horiz-adv-x="344" 
d="M216 0h-128v567h-103l43 118h304v-118h-116v-567z" />
    <glyph glyph-name="uniE0BA" unicode="&#xe0ba;" horiz-adv-x="359" 
d="M209 243v285l-72 -285h72zM209 0v133h-100l-34 -133h-39l-50 128l154 557h187v-685h-118z" />
    <glyph glyph-name="uniE0BB" unicode="&#xe0bb;" horiz-adv-x="578" 
d="M193 0v437l-123 -437h-33l-53 129l169 556h142v-334l103 334h148v-685h-119v451l-140 -451h-94z" />
    <glyph glyph-name="uniE0BC" unicode="&#xe0bc;" horiz-adv-x="389" 
d="M129 243h85l-42 264zM382 0h-130l-22 133h-118l-22 -133h-48l-54 125l102 560h167z" />
    <glyph glyph-name="uniE0BD" unicode="&#xe0bd;" horiz-adv-x="393" 
d="M214 0h-137l-44 86v599h162q76 0 120.5 -43.5t44.5 -123.5v-33q0 -85 -62 -128q79 -39 79 -140v-36q0 -87 -45.5 -134t-117.5 -47zM240 502q0 71 -55 71h-28v-171h26q57 0 57 72v28zM250 218q0 35 -15 52.5t-40 17.5h-38v-176h40q24 0 38.5 17.5t14.5 51.5v37z" />
    <glyph glyph-name="uniE0BE" unicode="&#xe0be;" horiz-adv-x="420" 
d="M211 0h-134l-45 87v598h179q82 0 131.5 -47.5t49.5 -138.5v-312q0 -92 -49.5 -139.5t-131.5 -47.5zM262 502q0 32 -14.5 48.5t-37.5 16.5h-49v-449h48q23 0 38 16t15 48v320z" />
    <glyph glyph-name="uniE0BF" unicode="&#xe0bf;" horiz-adv-x="359" 
d="M346 0h-269l-44 84v601h309v-116h-181v-163h160v-118h-160v-172h185v-116z" />
    <glyph glyph-name="uniE0C0" unicode="&#xe0c0;" horiz-adv-x="346" 
d="M161 0h-84l-44 85v600h308v-118h-180v-181h158v-118h-158v-268z" />
    <glyph glyph-name="uniE0C1" unicode="&#xe0c1;" horiz-adv-x="432" 
d="M161 281v-281h-84l-44 84v601h128v-285h110v285h128v-685h-128v281h-110z" />
    <glyph glyph-name="uniE0C2" unicode="&#xe0c2;" horiz-adv-x="195" 
d="M161 0h-84l-44 84v601h128v-685z" />
    <glyph glyph-name="uniE0C3" unicode="&#xe0c3;" horiz-adv-x="409" 
d="M161 257v-257h-84l-45 87v598h129v-270l102 270h135l-131 -343l140 -342h-141z" />
    <glyph glyph-name="uniE0C4" unicode="&#xe0c4;" horiz-adv-x="352" 
d="M338 0h-261l-45 87v598h128v-567h178v-118z" />
    <glyph glyph-name="uniE0C5" unicode="&#xe0c5;" horiz-adv-x="534" 
d="M143 0h-66l-44 85v600h158l78 -392l77 392h156v-685h-109v421l-94 -421h-63l-93 423v-423z" />
    <glyph glyph-name="uniE0C6" unicode="&#xe0c6;" horiz-adv-x="434" 
d="M149 392v-392h-72l-44 85v600h130l123 -384v384h116v-685h-124z" />
    <glyph glyph-name="uniE0C7" unicode="&#xe0c7;" horiz-adv-x="394" 
d="M162 0h-85l-44 85v600h175q78 0 124.5 -47.5t46.5 -133.5v-117q0 -88 -47.5 -135.5t-128.5 -47.5h-41v-204zM248 499q0 68 -55 68h-31v-246h29q25 0 41 16.5t16 50.5v111z" />
    <glyph glyph-name="uniE0C8" unicode="&#xe0c8;" horiz-adv-x="399" 
d="M241 505q0 62 -56 62h-25v-213h27q54 0 54 60v91zM160 0h-83l-44 85v600h166q77 0 124.5 -44t47.5 -132v-96q0 -110 -83 -145l115 -268h-146l-97 247v-247z" />
    <glyph glyph-name="uniE0C9" unicode="&#xe0c9;" horiz-adv-x="384" 
d="M234 243v285l-72 -285h72zM234 0v133h-100l-34 -133h-58l-39 97l162 588h187v-685h-118z" />
    <glyph glyph-name="uniE0CA" unicode="&#xe0ca;" horiz-adv-x="578" 
d="M193 0v437l-123 -437h-26l-57 137l166 548h142v-334l103 334h148v-685h-119v451l-140 -451h-94z" />
    <glyph glyph-name="uniE0CB" unicode="&#xe0cb;" horiz-adv-x="409" 
d="M220 243l-72 285v-285h72zM282 0l-34 133h-100v-133h-71l-44 84v601h187l189 -685h-127z" />
    <glyph glyph-name="uniE0CC" unicode="&#xe0cc;" horiz-adv-x="633" 
d="M289 0l-140 451v-451h-72l-45 86v599h148l105 -341v341h140l208 -685h-127l-123 437v-437h-94z" />
    <glyph glyph-name="uniE0CD" unicode="&#xe0cd;" horiz-adv-x="633" 
d="M283 0v334l-103 -334h-103l-45 86v599h119v-451l140 451h94v-437l123 437h125l-208 -685h-142z" />
    <glyph glyph-name="uniE0CE" unicode="&#xe0ce;" horiz-adv-x="408" 
d="M219 0h-142l-45 86v599h118v-528l134 528h124z" />
    <glyph glyph-name="uniE0CF" unicode="&#xe0cf;" horiz-adv-x="324" 
d="M125 685q76 0 120.5 -43.5t44.5 -123.5v-33q0 -84 -63 -127q80 -39 80 -141v-36q0 -87 -45.5 -134t-117.5 -47h-181v411l76 274h86zM116 573h-29v-171h26q57 0 57 72v28q0 71 -54 71zM125 288h-38v-176h39q24 0 39 17.5t15 51.5v37q0 35 -15 52.5t-40 17.5z" />
    <glyph glyph-name="uniE0D0" unicode="&#xe0d0;" horiz-adv-x="351" 
d="M142 685q82 0 131 -47.5t49 -138.5v-312q0 -92 -49 -139.5t-131 -47.5h-179v411l76 274h103zM141 567h-49v-449h48q23 0 38 16t15 48v320q0 32 -14.5 48.5t-37.5 16.5z" />
    <glyph glyph-name="uniE0D1" unicode="&#xe0d1;" horiz-adv-x="288" 
d="M272 685v-116h-181v-163h160v-118h-160v-172h185v-116h-313v411l75 270v4h234z" />
    <glyph glyph-name="uniE0D2" unicode="&#xe0d2;" horiz-adv-x="277" 
d="M271 685v-118h-180v-181h158v-118h-158v-268h-128v411l76 274h232z" />
    <glyph glyph-name="uniE0D3" unicode="&#xe0d3;" horiz-adv-x="362" 
d="M90 685v-285h110v285h128v-685h-128v281h-110v-281h-128v411l76 274h52z" />
    <glyph glyph-name="uniE0D4" unicode="&#xe0d4;" horiz-adv-x="124" 
d="M91 685v-685h-128v411l76 274h52z" />
    <glyph glyph-name="uniE0D5" unicode="&#xe0d5;" horiz-adv-x="340" 
d="M92 685v-275l102 275h134l-130 -343l139 -342h-140l-105 260v-260h-129v411l76 274h53z" />
    <glyph glyph-name="uniE0D6" unicode="&#xe0d6;" horiz-adv-x="283" 
d="M91 685v-567h178v-118h-306v411l76 274h52z" />
    <glyph glyph-name="uniE0D7" unicode="&#xe0d7;" horiz-adv-x="464" 
d="M165 0l-92 422v-422h-110v411l76 274h82l79 -397l76 397h156v-685h-109v421l-94 -421h-64z" />
    <glyph glyph-name="uniE0D8" unicode="&#xe0d8;" horiz-adv-x="365" 
d="M93 685l123 -392v392h115v-685h-123l-129 398v-398h-116v411l76 274h54z" />
    <glyph glyph-name="uniE0D9" unicode="&#xe0d9;" horiz-adv-x="324" 
d="M138 685q78 0 124.5 -47.5t46.5 -133.5v-117q0 -88 -47.5 -135.5t-128.5 -47.5h-41v-204h-129v411l76 274h99zM123 567h-31v-246h29q25 0 41 16.5t16 50.5v111q0 68 -55 68z" />
    <glyph glyph-name="uniE0DA" unicode="&#xe0da;" horiz-adv-x="329" 
d="M115 567h-25v-213h28q54 0 54 60v91q0 62 -57 62zM129 685q77 0 124.5 -44t47.5 -132v-96q0 -109 -81 -151l113 -262h-145l-95 240h-3v-240h-127v411l76 274h90z" />
    <glyph glyph-name="uniE0DB" unicode="&#xe0db;" horiz-adv-x="326" 
d="M198 0h-128v567h-64l33 118h276v-118h-117v-567z" />
    <glyph glyph-name="uniE0DC" unicode="&#xe0dc;" horiz-adv-x="564" 
d="M82 685v-451l140 451h94v-437l123 437h125l-208 -685h-142v334l-103 -334h-148v411l76 274h43z" />
    <glyph glyph-name="uniE0DD" unicode="&#xe0dd;" horiz-adv-x="339" 
d="M81 685v-528l134 528h124l-189 -685h-187v411l76 274h42z" />
    <glyph glyph-name="uniE0DE" unicode="&#xe0de;" horiz-adv-x="359" 
d="M180 0h-181v503l33 182h129q76 0 120.5 -43.5t44.5 -123.5v-33q0 -85 -62 -128q79 -39 79 -140v-36q0 -87 -45.5 -134t-117.5 -47zM206 502q0 71 -55 71h-28v-171h25q58 0 58 72v28zM216 218q0 35 -15 52.5t-40 17.5h-38v-176h40q24 0 38.5 17.5t14.5 51.5v37z" />
    <glyph glyph-name="uniE0DF" unicode="&#xe0df;" horiz-adv-x="386" 
d="M177 0h-179v497l34 188h145q82 0 131.5 -47.5t49.5 -138.5v-312q0 -92 -49.5 -139.5t-131.5 -47.5zM228 502q0 32 -14.5 48.5t-36.5 16.5h-50v-449h48q23 0 38 16t15 48v320z" />
    <glyph glyph-name="uniE0E0" unicode="&#xe0e0;" horiz-adv-x="325" 
d="M312 0h-313v507l33 178h276v-116h-181v-163h160v-118h-160v-172h185v-116z" />
    <glyph glyph-name="uniE0E1" unicode="&#xe0e1;" horiz-adv-x="312" 
d="M127 0h-128v504l33 181h275v-118h-180v-181h158v-118h-158v-268z" />
    <glyph glyph-name="uniE0E2" unicode="&#xe0e2;" horiz-adv-x="398" 
d="M127 281v-281h-128v507l33 178h95v-285h110v285h128v-685h-128v281h-110z" />
    <glyph glyph-name="uniE0E3" unicode="&#xe0e3;" horiz-adv-x="161" 
d="M127 0h-128v507l33 178h95v-685z" />
    <glyph glyph-name="uniE0E4" unicode="&#xe0e4;" horiz-adv-x="375" 
d="M127 257v-257h-129v497l34 188h95v-270l102 270h135l-131 -343l140 -342h-141z" />
    <glyph glyph-name="uniE0E5" unicode="&#xe0e5;" horiz-adv-x="318" 
d="M304 0h-306v500l34 185h94v-567h178v-118z" />
    <glyph glyph-name="uniE0E6" unicode="&#xe0e6;" horiz-adv-x="500" 
d="M109 0h-110v504l33 181h125l78 -392l77 392h156v-685h-109v421l-95 -421h-63l-92 419v-419z" />
    <glyph glyph-name="uniE0E7" unicode="&#xe0e7;" horiz-adv-x="400" 
d="M115 392v-392h-116v504l33 181h97l123 -384v384h116v-685h-124z" />
    <glyph glyph-name="uniE0E8" unicode="&#xe0e8;" horiz-adv-x="360" 
d="M128 0h-129v504l33 181h142q78 0 124.5 -47.5t46.5 -133.5v-117q0 -88 -47.5 -135.5t-128.5 -47.5h-41v-204zM214 499q0 68 -55 68h-31v-246h29q57 0 57 67v111z" />
    <glyph glyph-name="uniE0E9" unicode="&#xe0e9;" horiz-adv-x="365" 
d="M207 505q0 62 -56 62h-25v-213h27q54 0 54 60v91zM126 0h-127v504l33 181h133q77 0 124.5 -44t47.5 -132v-96q0 -110 -83 -145l115 -268h-146l-97 247v-247z" />
    <glyph glyph-name="uniE0EA" unicode="&#xe0ea;" horiz-adv-x="337" 
d="M210 0h-128v567h-71l21 118h294v-118h-116v-567z" />
    <glyph glyph-name="uniE0EB" unicode="&#xe0eb;" horiz-adv-x="366" 
d="M187 0h-181v440l28 245h134q76 0 121 -43.5t45 -123.5v-33q0 -85 -63 -128q80 -38 80 -140v-36q0 -87 -46 -134t-118 -47zM214 502q0 71 -55 71h-28v-171h25q58 0 58 72v28zM224 218q0 35 -15 52.5t-40 17.5h-38v-176h39q24 0 39 17.5t15 51.5v37z" />
    <glyph glyph-name="uniE0EC" unicode="&#xe0ec;" horiz-adv-x="393" 
d="M185 0h-180v431l29 254h151q82 0 131 -47.5t49 -138.5v-312q0 -92 -49 -139.5t-131 -47.5zM236 502q0 32 -14.5 48.5t-37.5 16.5h-50v-449h49q23 0 38 16t15 48v320z" />
    <glyph glyph-name="uniE0ED" unicode="&#xe0ed;" horiz-adv-x="332" 
d="M320 0h-313v445l27 240h282v-116h-181v-163h159v-118h-159v-172h185v-116z" />
    <glyph glyph-name="uniE0EE" unicode="&#xe0ee;" horiz-adv-x="320" 
d="M135 0h-129v442l28 243h281v-118h-180v-181h158v-118h-158v-268z" />
    <glyph glyph-name="uniE0EF" unicode="&#xe0ef;" horiz-adv-x="405" 
d="M135 281v-281h-128v445l27 240h101v-285h109v285h128v-685h-128v281h-109z" />
    <glyph glyph-name="uniE0F0" unicode="&#xe0f0;" horiz-adv-x="168" 
d="M135 0h-128v445l27 240h101v-685z" />
    <glyph glyph-name="uniE0F1" unicode="&#xe0f1;" horiz-adv-x="383" 
d="M135 257v-257h-130v431l29 254h101v-270l101 270h135l-131 -343l140 -342h-141z" />
    <glyph glyph-name="uniE0F2" unicode="&#xe0f2;" horiz-adv-x="326" 
d="M311 0h-305v435l28 250h100v-567h177v-118z" />
    <glyph glyph-name="uniE0F3" unicode="&#xe0f3;" horiz-adv-x="508" 
d="M117 0h-111v442l28 243h130l79 -392l76 392h156v-685h-109v421l-94 -421h-63l-92 419v-419z" />
    <glyph glyph-name="uniE0F4" unicode="&#xe0f4;" horiz-adv-x="408" 
d="M123 392v-392h-117v442l28 243h103l122 -384v384h116v-685h-124z" />
    <glyph glyph-name="uniE0F5" unicode="&#xe0f5;" horiz-adv-x="367" 
d="M135 0h-129v442l28 243h148q78 0 124 -47.5t46 -133.5v-117q0 -88 -47 -135.5t-128 -47.5h-42v-204zM221 499q0 68 -54 68h-32v-246h30q25 0 40.5 16.5t15.5 50.5v111z" />
    <glyph glyph-name="uniE0F6" unicode="&#xe0f6;" horiz-adv-x="373" 
d="M214 505q0 62 -56 62h-24v-213h26q54 0 54 60v91zM134 0h-128v442l28 243h139q77 0 124 -44t47 -132v-96q0 -110 -82 -145l114 -268h-145l-97 247v-247z" />
    <glyph glyph-name="uniE0F7" unicode="&#xe0f7;" horiz-adv-x="358" 
d="M231 0h-129v567h-81l13 118h313v-118h-116v-567z" />
    <glyph glyph-name="uniE0F8" unicode="&#xe0f8;" horiz-adv-x="326" 
d="M127 685q76 0 120.5 -43.5t44.5 -123.5v-33q0 -84 -63 -127q80 -39 80 -141v-36q0 -87 -45.5 -134t-117.5 -47h-181v439l75 246h87zM118 573h-29v-171h26q57 0 57 72v28q0 71 -54 71zM127 288h-38v-176h39q24 0 39 17.5t15 51.5v37q0 35 -15 52.5t-40 17.5z" />
    <glyph glyph-name="uniE0F9" unicode="&#xe0f9;" horiz-adv-x="353" 
d="M144 685q82 0 131 -47.5t49 -138.5v-312q0 -92 -49 -139.5t-131 -47.5h-179v439l75 246h104zM143 567h-49v-449h48q23 0 38 16t15 48v320q0 32 -14.5 48.5t-37.5 16.5z" />
    <glyph glyph-name="uniE0FA" unicode="&#xe0fa;" horiz-adv-x="291" 
d="M274 685v-116h-181v-163h160v-118h-160v-172h185v-116h-313v439l75 246h234z" />
    <glyph glyph-name="uniE0FB" unicode="&#xe0fb;" horiz-adv-x="278" 
d="M273 685v-118h-180v-181h158v-118h-158v-268h-128v439l75 246h233z" />
    <glyph glyph-name="uniE0FC" unicode="&#xe0fc;" horiz-adv-x="363" 
d="M92 685v-285h110v285h128v-685h-128v281h-110v-281h-128v439l75 246h53z" />
    <glyph glyph-name="uniE0FD" unicode="&#xe0fd;" horiz-adv-x="126" 
d="M93 685v-685h-128v439l75 246h53z" />
    <glyph glyph-name="uniE0FE" unicode="&#xe0fe;" horiz-adv-x="342" 
d="M94 685v-275l102 275h134l-130 -343l139 -342h-140l-105 260v-260h-129v439l75 246h54z" />
    <glyph glyph-name="uniE0FF" unicode="&#xe0ff;" horiz-adv-x="284" 
d="M93 685v-567h178v-118h-306v439l75 246h53z" />
    <glyph glyph-name="uniE100" unicode="&#xe100;" horiz-adv-x="467" 
d="M167 0l-92 422v-422h-110v439l75 246h83l79 -397l76 397h156v-685h-109v421l-94 -421h-64z" />
    <glyph glyph-name="uniE101" unicode="&#xe101;" horiz-adv-x="367" 
d="M95 685l123 -392v392h115v-685h-123l-129 398v-398h-116v439l75 246h55z" />
    <glyph glyph-name="uniE102" unicode="&#xe102;" horiz-adv-x="326" 
d="M140 685q78 0 124.5 -47.5t46.5 -133.5v-117q0 -88 -47.5 -135.5t-128.5 -47.5h-41v-204h-129v439l75 246h100zM125 567h-31v-246h29q25 0 41 16.5t16 50.5v111q0 68 -55 68z" />
    <glyph glyph-name="uniE103" unicode="&#xe103;" horiz-adv-x="326" 
d="M117 567h-25v-213h28q54 0 54 60v91q0 62 -57 62zM131 685q77 0 124.5 -44t47.5 -132v-96q0 -109 -81 -151l113 -262h-145l-95 240h-3v-240h-127v439l75 246h91z" />
    <glyph glyph-name="uniE104" unicode="&#xe104;" horiz-adv-x="320" 
d="M193 0h-129v567h-63l36 118h272v-118h-116v-567z" />
    <glyph glyph-name="uniE105" unicode="&#xe105;" horiz-adv-x="341" 
d="M83 685v-528l134 528h124l-189 -685h-187v439l75 246h43z" />
    <glyph glyph-name="uniE106" unicode="&#xe106;" horiz-adv-x="566" 
d="M84 685v-451l140 451h94v-437l123 437h125l-208 -685h-142v334l-103 -334h-148v439l75 246h44z" />
    <glyph glyph-name="uniE107" unicode="&#xe107;" horiz-adv-x="400" 
d="M98 1h-67l-40 97l107 587h167l125 -685h-130l-22 133h-119zM137 243h85l-42 264z" />
    <glyph glyph-name="uniE108" unicode="&#xe108;" horiz-adv-x="364" 
d="M175 243l-72 285v-285h72zM-12 106v509l29 70h158l189 -685h-127l-34 133h-100v-133h-72z" />
    <glyph glyph-name="uniE109" unicode="&#xe109;" horiz-adv-x="353" 
d="M203 243v285l-72 -285h72zM203 0v133h-100l-34 -133h-38l-51 125l154 560h187v-685h-118z" />
    <glyph glyph-name="uniE10A" unicode="&#xe10a;" horiz-adv-x="348" 
d="M169 0h-138l-43 107v507l29 71h133q76 0 120.5 -43.5t44.5 -123.5v-33q0 -85 -62 -128q79 -38 79 -140v-36q0 -87 -45.5 -134t-117.5 -47zM195 502q0 71 -55 71h-27v-171h25q57 0 57 72v28zM205 218q0 70 -55 70h-37v-176h39q24 0 38.5 17.5t14.5 51.5v37z" />
    <glyph glyph-name="uniE10B" unicode="&#xe10b;" horiz-adv-x="375" 
d="M166 0h-135l-45 110v502l31 73h149q82 0 131.5 -47.5t49.5 -138.5v-312q0 -92 -49.5 -139.5t-131.5 -47.5zM217 502q0 32 -14.5 48.5t-36.5 16.5h-51v-449h49q23 0 38 16t15 48v320z" />
    <glyph glyph-name="uniE10C" unicode="&#xe10c;" horiz-adv-x="314" 
d="M301 0h-270l-43 106v509l29 70h280v-116h-181v-163h160v-118h-160v-172h185v-116z" />
    <glyph glyph-name="uniE10D" unicode="&#xe10d;" horiz-adv-x="301" 
d="M116 0h-85l-44 107v507l30 71h279v-118h-180v-181h158v-118h-158v-268z" />
    <glyph glyph-name="uniE10E" unicode="&#xe10e;" horiz-adv-x="387" 
d="M116 281v-281h-85l-43 106v509l29 70h99v-285h110v285h128v-685h-128v281h-110z" />
    <glyph glyph-name="uniE10F" unicode="&#xe10f;" horiz-adv-x="150" 
d="M116 0h-85l-43 106v509l29 70h99v-685z" />
    <glyph glyph-name="uniE110" unicode="&#xe110;" horiz-adv-x="364" 
d="M116 257v-257h-85l-45 110v502l31 73h99v-270l102 270h135l-131 -343l139 -342h-140z" />
    <glyph glyph-name="uniE111" unicode="&#xe111;" horiz-adv-x="307" 
d="M293 0h-262l-44 109v504l30 72h98v-567h178v-118z" />
    <glyph glyph-name="uniE112" unicode="&#xe112;" horiz-adv-x="489" 
d="M98 0h-67l-44 107v507l30 71h129l78 -392l77 392h156v-685h-110v421l-94 -421h-63l-92 419v-419z" />
    <glyph glyph-name="uniE113" unicode="&#xe113;" horiz-adv-x="589" 
d="M-12 106v509l29 70h119l105 -341v341h140l208 -685h-127l-123 437v-437h-94l-140 451v-451h-74z" />
    <glyph glyph-name="uniE114" unicode="&#xe114;" horiz-adv-x="389" 
d="M104 392v-392h-73l-44 107v507l30 71h101l123 -384v384h116v-685h-124z" />
    <glyph glyph-name="uniE115" unicode="&#xe115;" horiz-adv-x="348" 
d="M116 0h-85l-44 107v507l30 71h146q78 0 124.5 -47.5t46.5 -133.5v-117q0 -88 -47.5 -135.5t-128.5 -47.5h-42v-204zM202 499q0 68 -54 68h-32v-246h30q56 0 56 67v111z" />
    <glyph glyph-name="uniE116" unicode="&#xe116;" horiz-adv-x="354" 
d="M196 505q0 62 -56 62h-25v-213h27q54 0 54 60v91zM115 0h-84l-44 107v507l30 71h137q77 0 124 -44t47 -132v-96q0 -110 -81 -145h-1l115 -268h-145l-98 247v-247z" />
    <glyph glyph-name="uniE117" unicode="&#xe117;" horiz-adv-x="324" 
d="M197 0h-128v567h-101l50 118h295v-118h-116v-567z" />
    <glyph glyph-name="uniE118" unicode="&#xe118;" horiz-adv-x="366" 
d="M177 243l-72 285v-285h72zM177 685l189 -685h-127l-34 133h-100v-133h-115v559l42 126h145z" />
    <glyph glyph-name="uniE119" unicode="&#xe119;" horiz-adv-x="350" 
d="M171 0h-181v557l42 128h120q76 0 120.5 -43.5t44.5 -123.5v-33q0 -85 -62 -128q79 -39 79 -140v-36q0 -87 -45.5 -134t-117.5 -47zM197 502q0 71 -55 71h-28v-171h26q57 0 57 72v28zM207 218q0 35 -15 52.5t-40 17.5h-38v-176h40q24 0 38.5 17.5t14.5 51.5v37z" />
    <glyph glyph-name="uniE11A" unicode="&#xe11a;" horiz-adv-x="377" 
d="M168 0h-179v555l43 130h136q82 0 131.5 -47.5t49.5 -138.5v-312q0 -92 -49.5 -139.5t-131.5 -47.5zM219 502q0 32 -14.5 48.5t-37.5 16.5h-49v-449h48q23 0 38 16t15 48v320z" />
    <glyph glyph-name="uniE11B" unicode="&#xe11b;" horiz-adv-x="316" 
d="M303 0h-313v559l42 126h267v-116h-181v-163h160v-118h-160v-172h185v-116z" />
    <glyph glyph-name="uniE11C" unicode="&#xe11c;" horiz-adv-x="303" 
d="M118 0h-128v558l42 127h266v-118h-180v-181h158v-118h-158v-268z" />
    <glyph glyph-name="uniE11D" unicode="&#xe11d;" horiz-adv-x="389" 
d="M118 281v-281h-128v559l42 126h86v-285h110v285h128v-685h-128v281h-110z" />
    <glyph glyph-name="uniE11E" unicode="&#xe11e;" horiz-adv-x="152" 
d="M118 0h-128v559l42 126h86v-685z" />
    <glyph glyph-name="uniE11F" unicode="&#xe11f;" horiz-adv-x="366" 
d="M118 257v-257h-129v554l43 131h86v-270l102 270h135l-131 -343l140 -342h-141z" />
    <glyph glyph-name="uniE120" unicode="&#xe120;" horiz-adv-x="309" 
d="M295 0h-306v556l43 129h85v-567h178v-118z" />
    <glyph glyph-name="uniE121" unicode="&#xe121;" horiz-adv-x="492" 
d="M100 0h-110v558l42 127h116l78 -392l77 392h156v-685h-109v421l-94 -421h-64l-92 419v-419z" />
    <glyph glyph-name="uniE122" unicode="&#xe122;" horiz-adv-x="591" 
d="M138 685l105 -341v341h140l208 -685h-127l-123 437v-437h-94l-140 451v-451h-117v559l42 126h106z" />
    <glyph glyph-name="uniE123" unicode="&#xe123;" horiz-adv-x="392" 
d="M106 392v-392h-116v558l42 127h89l122 -384v384h116v-685h-124z" />
    <glyph glyph-name="uniE124" unicode="&#xe124;" horiz-adv-x="351" 
d="M119 0h-129v558l42 127h133q78 0 124.5 -47.5t46.5 -133.5v-117q0 -88 -47 -135.5t-129 -47.5h-41v-204zM205 499q0 68 -55 68h-31v-246h29q57 0 57 67v111z" />
    <glyph glyph-name="uniE125" unicode="&#xe125;" horiz-adv-x="356" 
d="M198 505q0 62 -56 62h-25v-213h27q54 0 54 60v91zM117 0h-127v558l42 127h124q77 0 124.5 -44t47.5 -132v-96q0 -110 -82 -145l114 -268h-146l-97 247v-247z" />
    <glyph glyph-name="uniE126" unicode="&#xe126;" horiz-adv-x="342" 
d="M215 0h-129v567h-92l38 118h299v-118h-116v-567z" />
    <glyph glyph-name="uniE127" unicode="&#xe127;" horiz-adv-x="304" 
d="M290 0h-323v109l184 457h-158l39 119h259v-110l-187 -458h186v-117z" />
    <glyph glyph-name="uniE128" unicode="&#xe128;" horiz-adv-x="337" 
d="M214 0h-181v685h161q76 0 121 -43.5t45 -123.5v-33q0 -85 -62 -128q62 -30 76 -102l-63 -225q-39 -30 -97 -30zM240 502q0 71 -55 71h-28v-171h26q57 0 57 72v28zM250 218q0 35 -15 52.5t-40 17.5h-38v-176h40q24 0 38.5 17.5t14.5 51.5v37z" />
    <glyph glyph-name="uniE129" unicode="&#xe129;" horiz-adv-x="338" 
d="M211 0h-179v685h179q82 0 131 -47.5t49 -138.5v-176l-85 -302q-39 -21 -95 -21zM262 502q0 32 -14.5 48.5t-37.5 16.5h-49v-449h48q23 0 38 16t15 48v320z" />
    <glyph glyph-name="uniE12A" unicode="&#xe12a;" horiz-adv-x="323" 
d="M286 0h-253v685h309v-116h-181v-163h160v-118h-160v-172h157z" />
    <glyph glyph-name="uniE12B" unicode="&#xe12b;" horiz-adv-x="361" 
d="M398 274l-76 -274h-52v281h-110v-281h-128v685h128v-285h110v285h128v-411z" />
    <glyph glyph-name="uniE12C" unicode="&#xe12c;" horiz-adv-x="124" 
d="M161 274l-76 -274h-52v685h128v-411z" />
    <glyph glyph-name="uniE12D" unicode="&#xe12d;" horiz-adv-x="465" 
d="M235 0l-92 422v-422h-110v685h158l79 -397l76 397h156v-411l-76 -274h-33v421l-94 -421h-64z" />
    <glyph glyph-name="uniE12E" unicode="&#xe12e;" horiz-adv-x="364" 
d="M401 274l-76 -274h-47l-129 398v-398h-116v685h130l123 -392v392h115v-411z" />
    <glyph glyph-name="uniE12F" unicode="&#xe12f;" horiz-adv-x="511" 
d="M548 274l-76 -274h-43v451l-140 -451h-94v437l-123 -437h-26l-57 137l166 548h142v-334l103 334h148v-411z" />
    <glyph glyph-name="uniE130" unicode="&#xe130;" horiz-adv-x="564" 
d="M601 274l-76 -274h-43v451l-140 -451h-94v437l-123 -437h-125l208 685h142v-334l103 334h148v-411z" />
    <glyph glyph-name="uniE131" unicode="&#xe131;" horiz-adv-x="339" 
d="M258 243v285l-72 -285h72zM376 274l-76 -274h-42v133h-100l-34 -133h-124l189 685h187v-411z" />
    <glyph glyph-name="uniE132" unicode="&#xe132;" horiz-adv-x="288" 
d="M273 278v-205l-20 -73h-107v274l-136 411h133l69 -247l70 247h128z" />
    <glyph glyph-name="uniE133" unicode="&#xe133;" horiz-adv-x="254" 
d="M254 567v-409l-45 -158h-83v567h-116v118h354v-118h-110z" />
    <glyph glyph-name="uniE134" unicode="&#xe134;" horiz-adv-x="293" 
d="M257 0h-246v109l182 457h-179v119h320v-110l-187 -458h143z" />
    <glyph glyph-name="uniE135" unicode="&#xe135;" horiz-adv-x="331" 
d="M214 0h-181v685h162q76 0 120.5 -43.5t44.5 -123.5v-33q0 -85 -62 -128q63 -31 75 -103l-70 -228q-39 -26 -89 -26zM240 502q0 71 -55 71h-28v-171h26q57 0 57 72v28zM250 218q0 35 -15 52.5t-40 17.5h-38v-176h40q24 0 38.5 17.5t14.5 51.5v37z" />
    <glyph glyph-name="uniE136" unicode="&#xe136;" horiz-adv-x="323" 
d="M211 0h-179v685h179q82 0 131 -47.5t49 -138.5v-155l-100 -327q-31 -17 -80 -17zM262 502q0 32 -14.5 48.5t-37.5 16.5h-49v-449h48q23 0 38 16t15 48v320z" />
    <glyph glyph-name="uniE137" unicode="&#xe137;" horiz-adv-x="310" 
d="M273 0h-240v685h309v-116h-181v-163h160v-118h-160v-172h147z" />
    <glyph glyph-name="uniE138" unicode="&#xe138;" horiz-adv-x="363" 
d="M398 246l-75 -246h-53v281h-110v-281h-128v685h128v-285h110v285h128v-439z" />
    <glyph glyph-name="uniE139" unicode="&#xe139;" horiz-adv-x="126" 
d="M161 246l-75 -246h-53v685h128v-439z" />
    <glyph glyph-name="uniE13A" unicode="&#xe13a;" horiz-adv-x="366" 
d="M401 246l-75 -246h-48l-129 398v-398h-116v685h130l123 -392v392h115v-439z" />
    <glyph glyph-name="uniE13B" unicode="&#xe13b;" horiz-adv-x="341" 
d="M258 243v285l-72 -285h72zM376 246l-75 -246h-43v133h-100l-34 -133h-124l189 685h187v-439z" />
    <glyph glyph-name="uniE13C" unicode="&#xe13c;" horiz-adv-x="566" 
d="M601 246l-75 -246h-44v451l-140 -451h-94v437l-123 -437h-125l208 685h142v-334l103 334h148v-439z" />
    <glyph glyph-name="uniE13D" unicode="&#xe13d;" horiz-adv-x="280" 
d="M240 0h-94v274l-136 411h133l69 -247l70 247h128l-137 -407v-172z" />
    <glyph glyph-name="uniE13E" unicode="&#xe13e;" horiz-adv-x="249" 
d="M254 148l-47 -148h-81v567h-116v118h354v-118h-110v-419z" />
    <glyph glyph-name="uniE13F" unicode="&#xe13f;" horiz-adv-x="357" 
d="M214 0h-181v685h162q76 0 120.5 -43.5t44.5 -123.5v-33q0 -85 -62 -128q60 -30 75 -99l-38 -206q-43 -52 -121 -52zM240 502q0 71 -55 71h-28v-171h26q57 0 57 72v28zM250 218q0 35 -15 52.5t-40 17.5h-38v-176h40q24 0 38.5 17.5t14.5 51.5v37z" />
    <glyph glyph-name="uniE140" unicode="&#xe140;" horiz-adv-x="361" 
d="M211 0h-179v685h179q82 0 131 -47.5t49 -138.5v-164l-52 -291q-47 -44 -128 -44zM262 502q0 32 -14.5 48.5t-37.5 16.5h-49v-449h48q23 0 38 16t15 48v320z" />
    <glyph glyph-name="uniE141" unicode="&#xe141;" horiz-adv-x="359" 
d="M336 43q-48 -55 -130 -55q-78 0 -128.5 48t-50.5 139v336q0 91 50.5 138.5t128.5 47.5q74 0 122.5 -47t48.5 -134v-90h-125v87q0 63 -46 63q-49 0 -49 -67v-333q0 -67 48 -67q47 0 47 63v71h120z" />
    <glyph glyph-name="uniE142" unicode="&#xe142;" horiz-adv-x="342" 
d="M311 0h-278v685h309v-116h-181v-163h160v-118h-160v-172h171z" />
    <glyph glyph-name="uniE143" unicode="&#xe143;" horiz-adv-x="396" 
d="M161 281v-281h-128v685h128v-285h110v285h128v-501l-34 -184h-94v281h-110z" />
    <glyph glyph-name="uniE144" unicode="&#xe144;" horiz-adv-x="158" 
d="M127 0h-94v685h128v-500z" />
    <glyph glyph-name="uniE145" unicode="&#xe145;" horiz-adv-x="316" 
d="M285 0h-253v685h128v-567h147z" />
    <glyph glyph-name="uniE146" unicode="&#xe146;" horiz-adv-x="500" 
d="M143 0h-110v685h158l78 -392l77 392h156v-507l-33 -178h-76v421l-94 -421h-64l-92 419v-419z" />
    <glyph glyph-name="uniE147" unicode="&#xe147;" horiz-adv-x="398" 
d="M149 392v-392h-116v685h130l123 -384v384h115v-495l-34 -190h-89z" />
    <glyph glyph-name="uniE148" unicode="&#xe148;" horiz-adv-x="318" 
d="M287 0h-276v109l182 457h-179v119h320v-110l-187 -458h162z" />
    <glyph glyph-name="uniE149" unicode="&#xe149;" horiz-adv-x="408" 
d="M258 243v285l-72 -285h72zM258 0v133h-100l-34 -133h-124l189 685h187v-685h-118z" />
    <glyph glyph-name="uniE14A" unicode="&#xe14a;" horiz-adv-x="287" 
d="M338 0h-306v685h128v-567h125q10 -69 53 -102v-16z" />
    <glyph glyph-name="uniE14B" unicode="&#xe14b;" horiz-adv-x="287" 
d="M338 0h-306v685h128v-567h125q10 -69 53 -102v-16z" />
    <glyph glyph-name="uniE14C" unicode="&#xe14c;" horiz-adv-x="287" 
d="M338 0h-306v685h128v-567h125q10 -69 53 -102v-16z" />
    <glyph glyph-name="uniE14D" unicode="&#xe14d;" horiz-adv-x="287" 
d="M338 0h-306v685h128v-567h125q10 -69 53 -102v-16z" />
    <glyph glyph-name="uniE14E" unicode="&#xe14e;" horiz-adv-x="308" 
d="M338 0h-306v685h128v-567h127q10 -70 51 -102v-16z" />
    <glyph glyph-name="uniE14F" unicode="&#xe14f;" horiz-adv-x="287" 
d="M338 0h-306v685h128v-567h127q10 -70 51 -102v-16z" />
    <glyph glyph-name="uniE150" unicode="&#xe150;" horiz-adv-x="290" 
d="M255 0h-223v685h128v-567h129z" />
    <glyph glyph-name="uniE151" unicode="&#xe151;" horiz-adv-x="308" 
d="M271 0h-239v685h128v-567h148z" />
    <glyph glyph-name="uniE154" unicode="&#xe154;" horiz-adv-x="318" 
d="M346 0h-313v685h248l32 -116h-152v-163h160v-118h-160v-172h185v-116z" />
    <glyph glyph-name="uniE155" unicode="&#xe155;" horiz-adv-x="314" 
d="M161 0h-128v685h243l33 -118h-148v-181h158v-118h-158v-268z" />
    <glyph glyph-name="uniE156" unicode="&#xe156;" horiz-adv-x="361" 
d="M322 685l76 -274v-411h-128v281h-110v-281h-128v685h128v-285h110v285h52z" />
    <glyph glyph-name="uniE157" unicode="&#xe157;" horiz-adv-x="124" 
d="M85 685l76 -274v-411h-128v685h52z" />
    <glyph glyph-name="uniE158" unicode="&#xe158;" horiz-adv-x="464" 
d="M234 0l-92 422v-422h-110v685h158l79 -397l76 397h80l76 -274v-411h-109v421l-94 -421h-64z" />
    <glyph glyph-name="uniE159" unicode="&#xe159;" horiz-adv-x="364" 
d="M325 685l76 -274v-411h-123l-129 398v-398h-116v685h130l123 -392v392h39z" />
    <glyph glyph-name="uniE15A" unicode="&#xe15a;" horiz-adv-x="327" 
d="M255 0h-128v567h-117v118h276l33 -118h-64v-567z" />
    <glyph glyph-name="uniE15B" unicode="&#xe15b;" horiz-adv-x="564" 
d="M525 685l76 -274v-411h-148l-105 341v-341h-140l-208 685h127l123 -437v437h94l140 -451v451h41z" />
    <glyph glyph-name="uniE15C" unicode="&#xe15c;" horiz-adv-x="339" 
d="M300 685l76 -274v-411h-187l-189 685h127l134 -528v528h39z" />
    <glyph glyph-name="uniE15D" unicode="&#xe15d;" horiz-adv-x="328" 
d="M346 0h-313v685h253l37 -116h-162v-163h160v-118h-160v-172h185v-116z" />
    <glyph glyph-name="uniE15E" unicode="&#xe15e;" horiz-adv-x="324" 
d="M161 0h-128v685h251l36 -118h-159v-181h158v-118h-158v-268z" />
    <glyph glyph-name="uniE15F" unicode="&#xe15f;" horiz-adv-x="363" 
d="M323 685l75 -246v-439h-128v281h-110v-281h-128v685h128v-285h110v285h53z" />
    <glyph glyph-name="uniE160" unicode="&#xe160;" horiz-adv-x="126" 
d="M86 685l75 -246v-439h-128v685h53z" />
    <glyph glyph-name="uniE161" unicode="&#xe161;" horiz-adv-x="467" 
d="M235 0l-92 422v-422h-110v685h158l79 -397l76 397h81l75 -246v-439h-109v421l-94 -421h-64z" />
    <glyph glyph-name="uniE162" unicode="&#xe162;" horiz-adv-x="366" 
d="M326 685l75 -246v-439h-123l-129 398v-398h-116v685h130l123 -392v392h40z" />
    <glyph glyph-name="uniE163" unicode="&#xe163;" horiz-adv-x="319" 
d="M255 0h-129v567h-116v118h272l36 -118h-63v-567z" />
    <glyph glyph-name="uniE164" unicode="&#xe164;" horiz-adv-x="341" 
d="M301 685l75 -246v-439h-187l-189 685h127l134 -528v528h40z" />
    <glyph glyph-name="uniE165" unicode="&#xe165;" horiz-adv-x="566" 
d="M526 685l75 -246v-439h-148l-105 341v-341h-140l-208 685h127l123 -437v437h94l140 -451v451h42z" />
    <glyph glyph-name="uniE166" unicode="&#xe166;" horiz-adv-x="334" 
d="M346 0h-313v685h265l24 -115v-1h-161v-163h160v-118h-160v-172h185v-116z" />
    <glyph glyph-name="uniE167" unicode="&#xe167;" horiz-adv-x="330" 
d="M161 0h-128v685h261l25 -118h-158v-181h158v-118h-158v-268z" />
    <glyph glyph-name="uniE168" unicode="&#xe168;" horiz-adv-x="393" 
d="M161 281v-281h-128v685h128v-285h110v285h90l38 -201v-484h-128v281h-110z" />
    <glyph glyph-name="uniE169" unicode="&#xe169;" horiz-adv-x="155" 
d="M161 0h-128v685h90l38 -208v-477z" />
    <glyph glyph-name="uniE16A" unicode="&#xe16a;" horiz-adv-x="488" 
d="M143 0h-110v685h158l78 -392l77 392h110l46 -245v-440h-109v421l-94 -421h-64l-92 419v-419z" />
    <glyph glyph-name="uniE16B" unicode="&#xe16b;" horiz-adv-x="394" 
d="M149 392v-392h-116v685h130l123 -384v384h76l39 -212v-473h-123z" />
    <glyph glyph-name="uniE16C" unicode="&#xe16c;" horiz-adv-x="330" 
d="M254 0h-128v567h-115v118h287l22 -118h-66v-567z" />
    <glyph glyph-name="uniE16D" unicode="&#xe16d;" horiz-adv-x="347" 
d="M346 0h-313v685h281l14 -116h-167v-163h160v-118h-160v-172h185v-116z" />
    <glyph glyph-name="uniE16E" unicode="&#xe16e;" horiz-adv-x="344" 
d="M161 0h-128v685h279l14 -118h-165v-181h158v-118h-158v-268z" />
    <glyph glyph-name="uniE16F" unicode="&#xe16f;" horiz-adv-x="400" 
d="M161 281v-281h-128v685h128v-285h110v285h94l34 -270v-415h-128v281h-110z" />
    <glyph glyph-name="uniE170" unicode="&#xe170;" horiz-adv-x="161" 
d="M161 0h-128v685h94l34 -283v-402z" />
    <glyph glyph-name="uniE171" unicode="&#xe171;" horiz-adv-x="504" 
d="M143 0h-110v685h158l78 -392l77 392h123l33 -266v-419h-109v421l-94 -421h-64l-92 419v-419z" />
    <glyph glyph-name="uniE172" unicode="&#xe172;" horiz-adv-x="403" 
d="M149 392v-392h-116v685h130l123 -384v384h83l32 -266v-419h-123z" />
    <glyph glyph-name="uniE173" unicode="&#xe173;" horiz-adv-x="352" 
d="M254 0h-128v567h-115v118h306l15 -118h-78v-567z" />
    <glyph glyph-name="uniE174" unicode="&#xe174;" horiz-adv-x="366" 
d="M258 243v285l-72 -285h72zM258 0v133h-100l-34 -133h-124l189 685h158l29 -73v-518l-38 -94h-80z" />
    <glyph glyph-name="uniE175" unicode="&#xe175;" horiz-adv-x="350" 
d="M219 243l-72 285v-285h72zM281 0l-34 133h-100v-133h-115v685h187l154 -558l-51 -127h-41z" />
    <glyph glyph-name="uniE176" unicode="&#xe176;" horiz-adv-x="402" 
d="M258 243l-42 264l-43 -264h85zM134 0h-124l124 685h167l109 -596l-36 -88h-78l-22 132h-119z" />
    <glyph glyph-name="uniE177" unicode="&#xe177;" horiz-adv-x="295" 
d="M266 0h-241v685h250l45 -116h-167v-163h160v-118h-160v-172h161z" />
    <glyph glyph-name="uniE178" unicode="&#xe178;" horiz-adv-x="297" 
d="M161 0h-128v685h242l47 -118h-161v-181h158v-118h-158v-268z" />
    <glyph glyph-name="uniE179" unicode="&#xe179;" horiz-adv-x="387" 
d="M161 281v-281h-128v685h128v-285h110v285h96l32 -75v-510l-41 -100h-87v281h-110z" />
    <glyph glyph-name="uniE17A" unicode="&#xe17a;" horiz-adv-x="150" 
d="M121 0h-88v685h97l31 -74v-512z" />
    <glyph glyph-name="uniE17B" unicode="&#xe17b;" horiz-adv-x="493" 
d="M143 0h-110v685h158l78 -392l77 392h129l27 -65v-531l-37 -89h-72v421l-94 -421h-64l-92 419v-419z" />
    <glyph glyph-name="uniE17C" unicode="&#xe17c;" horiz-adv-x="591" 
d="M248 0v437l-123 -437h-125l208 685h142v-334l103 334h119l29 -69v-522l-38 -94h-81v451l-140 -451h-94z" />
    <glyph glyph-name="uniE17D" unicode="&#xe17d;" horiz-adv-x="391" 
d="M149 392v-392h-116v685h130l123 -384v384h85l30 -73v-515l-39 -97h-84z" />
    <glyph glyph-name="uniE17E" unicode="&#xe17e;" horiz-adv-x="320" 
d="M254 0h-128v567h-115v118h288l50 -118h-95v-567z" />
    <glyph glyph-name="uniE17F" unicode="&#xe17f;" horiz-adv-x="367" 
d="M258 243v285l-72 -285h72zM258 0v133h-100l-34 -133h-124l189 685h146l41 -125v-560h-118z" />
    <glyph glyph-name="uniE180" unicode="&#xe180;" horiz-adv-x="324" 
d="M346 0h-313v685h259l38 -116h-169v-163h160v-118h-160v-172h185v-116z" />
    <glyph glyph-name="uniE181" unicode="&#xe181;" horiz-adv-x="317" 
d="M161 0h-128v685h252l38 -118h-162v-181h158v-118h-158v-268z" />
    <glyph glyph-name="uniE182" unicode="&#xe182;" horiz-adv-x="388" 
d="M161 281v-281h-128v685h128v-285h110v285h85l43 -127v-558h-128v281h-110z" />
    <glyph glyph-name="uniE183" unicode="&#xe183;" horiz-adv-x="149" 
d="M161 0h-128v685h84l44 -131v-554z" />
    <glyph glyph-name="uniE184" unicode="&#xe184;" horiz-adv-x="494" 
d="M143 0h-110v685h158l78 -392l77 392h116l40 -121v-564h-109v421l-94 -421h-64l-92 419v-419z" />
    <glyph glyph-name="uniE185" unicode="&#xe185;" horiz-adv-x="592" 
d="M248 0v437l-123 -437h-125l208 685h142v-334l103 334h107l41 -125v-560h-119v451l-140 -451h-94z" />
    <glyph glyph-name="uniE186" unicode="&#xe186;" horiz-adv-x="391" 
d="M149 392v-392h-116v685h130l123 -384v384h73l42 -128v-557h-123z" />
    <glyph glyph-name="uniE187" unicode="&#xe187;" horiz-adv-x="342" 
d="M254 0h-128v567h-115v118h298l39 -118h-94v-567z" />
    <glyph glyph-name="uniE188" unicode="&#xe188;" horiz-adv-x="339" 
d="M192 0h-127v274l-80 240l52 171h26l68 -247l70 247h128l-137 -407v-278z" />
    <glyph glyph-name="uniE189" unicode="&#xe189;" horiz-adv-x="332" 
d="M186 0h-128v273l-72 219l53 193h16l68 -256l71 256h128l-136 -408v-277z" />
    <glyph glyph-name="uniE18A" unicode="&#xe18a;" horiz-adv-x="325" 
d="M332 0h-321v109l182 457h-179v119h278l39 -117l-184 -451h185v-117z" />
    <glyph glyph-name="uniE18B" unicode="&#xe18b;" horiz-adv-x="671" 
d="M271 176v329q0 35 -16 53t-41 18q-26 0 -41.5 -18t-15.5 -53v-325q0 -71 58 -71q21 0 30 13q12 -75 62 -112q-40 -22 -92 -22q-82 0 -135 48.5t-53 139.5v334q0 91 52.5 139t134.5 48q81 0 134 -48.5t53 -138.5v-329q0 -35 15.5 -53t41.5 -18q25 0 40.5 18t15.5 53v324
q0 71 -57 71q-21 0 -30 -12q-11 72 -63 112q39 21 93 21q81 0 134 -48t53 -139v-334q0 -91 -52.5 -139t-133.5 -48q-82 0 -134.5 48t-52.5 139z" />
    <glyph glyph-name="uniE18C" unicode="&#xe18c;" horiz-adv-x="648" 
d="M501 426v84q0 66 -47 66q-18 0 -27 -12q-11 71 -63 111q41 22 91 22q75 0 123 -46.5t48 -134.5v-90h-125zM214 -12q-82 0 -134.5 48.5t-52.5 139.5v334q0 91 52.5 139t134.5 48q81 0 134 -48.5t53 -138.5v-332q0 -34 13.5 -51.5t36.5 -17.5q50 0 50 66v68h125v-73
q0 -88 -49 -135t-125 -47q-79 0 -130 48t-51 139v330q0 35 -16 53t-41 18q-26 0 -41.5 -18t-15.5 -53v-325q0 -71 57 -71q21 0 30 12q11 -73 62 -112q-38 -21 -92 -21z" />
    <glyph glyph-name="uniE18D" unicode="&#xe18d;" horiz-adv-x="664" 
d="M456 -12q-82 0 -133.5 48t-51.5 139v330q0 35 -16 53t-41 18q-26 0 -41.5 -18t-15.5 -53v-325q0 -71 57 -71q22 0 30 12q12 -75 62 -112q-38 -21 -92 -21q-82 0 -134.5 48.5t-52.5 139.5v334q0 91 52.5 139t134.5 48q81 0 134 -48.5t53 -138.5v-332q0 -34 15 -51.5
t39 -17.5q57 0 57 66v72h-58v119h182v-196q1 -88 -50 -135t-130 -47zM512 434v80q0 30 -15 46t-40 16q-21 0 -30 -12q-12 73 -63 111q40 22 92 22q79 0 130 -46t50 -132v-85h-124z" />
    <glyph glyph-name="uniE18E" unicode="&#xe18e;" horiz-adv-x="672" 
d="M547 -51l-27 48q-30 -8 -62 -8q-82 0 -134.5 48t-52.5 139v329q0 35 -16 53t-41 18q-26 0 -41.5 -18t-15.5 -53v-325q0 -71 58 -71q21 0 30 13q12 -75 62 -112q-40 -22 -92 -22q-82 0 -135 48.5t-53 139.5v334q0 91 52.5 139t134.5 48q81 0 134 -48.5t53 -138.5v-329
q0 -35 15.5 -53t41.5 -18q6 0 14 2l23 12q19 17 19 57v324q0 71 -57 71q-21 0 -30 -12q-11 72 -63 112q39 21 93 21q81 0 134 -48t53 -139v-334q0 -76 -38 -123l33 -61z" />
    <glyph glyph-name="uniE18F" unicode="&#xe18f;" horiz-adv-x="364" 
d="M207 505q0 62 -57 62h-25v-213h27q55 0 55 60v91zM125 0h-94l-33 179v506h164q78 0 126 -44t48 -132v-96q0 -108 -82 -147l144 -266h-146l-127 243v-243z" />
    <glyph glyph-name="uniE190" unicode="&#xe190;" horiz-adv-x="398" 
d="M241 505q0 62 -56 62h-25v-213h27q54 0 54 60v91zM160 0h-83l-44 85v600h164q78 0 126 -44t48 -132v-96q0 -108 -83 -147l145 -266h-146l-127 241v-241z" />
    <glyph glyph-name="uniE191" unicode="&#xe191;" horiz-adv-x="372" 
d="M214 505q0 62 -56 62h-25v-213h27q54 0 54 60v91zM133 0h-127v442l28 243h136q78 0 126 -44t48 -132v-96q0 -109 -83 -147l145 -266h-146l-127 243v-243z" />
    <glyph glyph-name="uniE192" unicode="&#xe192;" horiz-adv-x="328" 
d="M115 567h-25v-213h27q54 0 54 60v91q0 62 -56 62zM127 685q78 0 126 -44t48 -132v-96q0 -109 -81 -151l143 -262h-146l-125 240h-2v-240h-127v411l76 274h88z" />
    <glyph glyph-name="uniE193" unicode="&#xe193;" horiz-adv-x="331" 
d="M117 567h-25v-213h27q54 0 54 60v91q0 62 -56 62zM129 685q78 0 126 -44t48 -132v-96q0 -109 -81 -151l143 -262h-146l-125 240h-2v-240h-127v439l75 246h89z" />
    <glyph glyph-name="uniE194" unicode="&#xe194;" horiz-adv-x="365" 
d="M208 505q0 62 -57 62h-24v-213h26q55 0 55 60v91zM127 0h-90l-38 92v519l29 74h135q78 0 126 -44t48 -132v-96q0 -108 -82 -147l144 -266h-146l-126 241v-241z" />
    <glyph glyph-name="uniE195" unicode="&#xe195;" horiz-adv-x="364" 
d="M207 505q0 62 -56 62h-25v-213h27q54 0 54 60v91zM126 0h-127v504l33 181h130q79 0 127 -44t48 -132v-96q0 -108 -83 -147l145 -266h-146l-127 241v-241z" />
    <glyph glyph-name="uniE196" unicode="&#xe196;" horiz-adv-x="331" 
d="M117 567h-25v-213h27q54 0 54 60v91q0 62 -56 62zM-35 246v439h164q78 0 126 -44t48 -132v-96q0 -109 -81 -151l143 -262h-146l-125 240h-2v-240h-52z" />
    <glyph glyph-name="uniE197" unicode="&#xe197;" horiz-adv-x="328" 
d="M115 567h-25v-213h27q54 0 54 60v91q0 62 -56 62zM-37 274v411h164q78 0 126 -44t48 -132v-96q0 -109 -81 -151l143 -262h-146l-125 240h-2v-240h-51z" />
    <glyph glyph-name="uniE198" unicode="&#xe198;" horiz-adv-x="354" 
d="M196 505q0 62 -56 62h-25v-213h27q54 0 54 60v91zM115 0h-84l-44 107v507l30 71h135q78 0 125.5 -44t47.5 -132v-96q0 -108 -82 -147l144 -266h-145l-127 241v-241z" />
    <glyph glyph-name="uniE199" unicode="&#xe199;" horiz-adv-x="356" 
d="M198 505q0 62 -56 62h-25v-213h27q54 0 54 60v91zM117 0h-127v558l42 127h122q78 0 126 -44t48 -132v-96q0 -109 -83 -147l145 -266h-146l-127 243v-243z" />
    <glyph glyph-name="uniE19A" unicode="&#xe19a;" horiz-adv-x="676" 
d="M214 -12q-81 0 -134 48.5t-53 139.5v334q0 91 53 139t134 48q80 0 133.5 -48.5t53.5 -138.5v-334q0 -91 -53.5 -139.5t-133.5 -48.5zM214 109q25 0 41 17.5t16 53.5v325q0 35 -16 53t-41 18t-41 -18t-16 -53v-325q0 -36 15.5 -53.5t41.5 -17.5zM553 -51l-28 48
q-29 -9 -63 -9q-59 2 -98 22q52 40 62 112q10 -13 31 -13q62 -3 62 72v324q0 37 -16.5 55t-45.5 16q-22 0 -30 -12q-11 72 -63 112q41 21 98 21q82 0 134.5 -48t52.5 -139v-334q0 -76 -38 -123l34 -61z" />
    <glyph glyph-name="uniE19B" unicode="&#xe19b;" horiz-adv-x="357" 
d="M244 0l-130 392v-392h-83l-33 179v506h131l122 -384v384h74l42 -128v-557h-123z" />
    <glyph glyph-name="uniE19C" unicode="&#xe19c;" horiz-adv-x="363" 
d="M-2 685h131l122 -384v384h116v-495l-35 -190h-88l-130 392v-392h-83l-33 179v506z" />
    <glyph glyph-name="uniE19D" unicode="&#xe19d;" horiz-adv-x="653" 
d="M506 426v84q0 69 -52 66q-18 0 -27 -12q-12 73 -63 111q40 22 96 22q75 0 123 -46.5t48 -134.5v-90h-125zM214 -12q-81 0 -134 48.5t-53 139.5v334q0 91 53 139t134 48q80 0 133.5 -48.5t53.5 -138.5v-334q0 -91 -53.5 -139.5t-133.5 -48.5zM214 109q25 0 41 17.5
t16 53.5v325q0 35 -16 53t-41 18t-41 -18t-16 -53v-325q0 -36 15.5 -53.5t41.5 -17.5zM457 -12q-55 0 -95 22q50 37 62 112q10 -13 26 -13q56 -3 56 66v68h125v-73q0 -88 -49 -135t-125 -47z" />
    <glyph glyph-name="uniE19E" unicode="&#xe19e;" horiz-adv-x="669" 
d="M517 434v80q1 31 -16 47.5t-44 14.5q-21 0 -30 -12q-12 73 -63 111q40 22 98 22q78 0 129 -46t51 -132v-85h-125zM214 -12q-81 0 -134 48.5t-53 139.5v334q0 91 53 139t134 48q80 0 133.5 -48.5t53.5 -138.5v-334q0 -91 -53.5 -139.5t-133.5 -48.5zM214 109q25 0 41 17.5
t16 53.5v325q0 35 -16 53t-41 18t-41 -18t-16 -53v-325q0 -36 15.5 -53.5t41.5 -17.5zM463 -12q-57 0 -96 22q50 37 62 112q9 -13 28 -13q29 -2 44.5 14.5t15.5 51.5v72h-57v119h182v-196q0 -88 -50.5 -135t-128.5 -47z" />
    <glyph glyph-name="uniE19F" unicode="&#xe19f;" horiz-adv-x="676" 
d="M214 -12q-81 0 -134 48.5t-53 139.5v334q0 91 53 139t134 48q80 0 133.5 -48.5t53.5 -138.5v-334q0 -91 -53.5 -139.5t-133.5 -48.5zM214 109q25 0 41 17.5t16 53.5v325q0 35 -16 53t-41 18t-41 -18t-16 -53v-325q0 -36 15.5 -53.5t41.5 -17.5zM462 -12q-59 2 -98 22
q52 40 62 112q10 -13 31 -13q62 -3 62 72v324q0 37 -16.5 55t-45.5 16q-22 0 -30 -12q-11 72 -63 112q41 21 98 21q82 0 134.5 -48t52.5 -139v-334q0 -91 -52.5 -139t-134.5 -49z" />
    <glyph glyph-name="uniE1A0" unicode="&#xe1a0;" horiz-adv-x="500" 
d="M143 0h-66l-44 85v600h158l78 -392l77 392h156v-507l-33 -178h-76v421l-94 -421h-64l-92 419v-419z" />
    <glyph glyph-name="uniE1A1" unicode="&#xe1a1;" horiz-adv-x="532" 
d="M352 0l-105 341v-341h-140l-153 502l76 169l119 -423v437h94l140 -451v451h117v-685h-148z" />
    <glyph glyph-name="uniF8FF" unicode="&#xf8ff;" horiz-adv-x="5000" 
d="M3288 681v-122h-123v122h123zM4915 624q21 0 36 -15t15 -37t-15 -37t-36 -15t-36 15t-15 37t15 37t36 15zM4915 617q-18 0 -30.5 -13t-12.5 -32t12.5 -32t30.5 -13t30.5 13t12.5 32t-12.5 32t-30.5 13zM4919 590h-12v-15h10q11 0 11 8q0 7 -9 7zM4899 597h21q16 0 16 -14
q0 -11 -13 -13l14 -25h-9l-14 24h-7v-24h-8v52zM3288 511v-511h-123v511h123zM1803 511v-109h-1803v109h1803zM4193 399q-60 0 -104 -44t-44 -103q0 -60 44 -103.5t104 -43.5q56 0 98 43.5t42 103.5q0 59 -42 103t-98 44zM3609 399q-59 0 -102.5 -44t-43.5 -103
q0 -60 43.5 -103.5t102.5 -43.5q60 0 102 43.5t42 103.5t-42 103.5t-102 43.5zM2829 399q-61 0 -103 -43.5t-42 -103.5q0 -61 41.5 -104t103.5 -43q59 0 103 43.5t44 103.5q0 59 -44 103t-103 44zM2242 399q-57 0 -100 -44t-43 -103q0 -60 43 -103.5t100 -43.5
q61 0 105.5 43.5t44.5 103.5q0 59 -44.5 103t-105.5 44zM1803 307v-109h-1803v109h1803zM4511 162h132q0 -30 24 -53t79 -24q41 0 62.5 16t21.5 38t-23 34.5t-57 16t-74.5 12t-74.5 21.5t-57 46t-23 83q0 70 57.5 117t151.5 47q95 0 153 -46t64 -122h-128q-1 14 -3.5 23.5
t-10 21.5t-25 18.5t-44.5 6.5q-79 0 -84 -46q0 -24 32.5 -37t79 -20.5t93 -20t79 -45.5t32.5 -87q0 -87 -64 -129t-166 -42q-101 0 -162.5 47.5t-64.5 123.5zM1803 104v-104h-1803v104h1803zM4333 0v36q-64 -45 -145 -45q-111 0 -189 75.5t-78 185.5t78 187t189 77
q81 0 145 -45v40h127v-511h-127zM2392 0v36q-67 -45 -154 -45q-106 0 -183 76t-77 185t77 186.5t183 77.5q86 0 154 -45v40h126v-511h-126zM3879 681v-681h-126v36q-57 -45 -148 -45q-110 0 -188 76t-78 185q0 110 78.5 187t187.5 77q87 0 148 -45v210h126zM3103 681v-681
h-127v36q-70 -45 -151 -45q-108 0 -186 76t-78 185q0 110 78 187t186 77q81 0 151 -45v210h127z" />
    <glyph glyph-name="uni00200326" horiz-adv-x="210" 
d="M158 -122l-31 -91h-74l25 70h-25v98h105v-77z" />
    <glyph glyph-name="parenleft.cap" horiz-adv-x="241" 
d="M159 302q0 -182 67 -342l-95 -45q-90 158 -90 387q0 226 90 387l95 -45q-67 -163 -67 -342z" />
    <glyph glyph-name="parenright.cap" horiz-adv-x="242" 
d="M15 -40q67 160 67 342q0 179 -67 342l95 45q90 -161 90 -387q0 -229 -90 -387z" />
    <glyph glyph-name="bracketleft.cap" horiz-adv-x="234" 
d="M221 577h-69v-519h69v-108h-185v735h185v-108z" />
    <glyph glyph-name="bracketright.cap" horiz-adv-x="234" 
d="M82 577h-69v108h185v-735h-185v108h69v519z" />
    <glyph glyph-name="braceleft.cap" horiz-adv-x="245" 
d="M202 410q0 -38 -16.5 -63.5t-31.5 -33.5q15 -8 31.5 -33.5t16.5 -63.5q0 -26 -10.5 -65.5t-10.5 -61.5q0 -37 29 -39h14v-110h-41q-50 0 -82 34.5t-32 91.5q0 32 12 74t12 62q0 32 -10 47t-33 14h-20v100h20q23 0 33 15t10 47q0 20 -12 62t-12 73q0 58 32 92t82 34h41
v-109h-12q-31 0 -31 -40q0 -21 10.5 -60.5t10.5 -66.5z" />
    <glyph glyph-name="braceright.cap" horiz-adv-x="245" 
d="M91 313q-15 8 -31.5 33.5t-16.5 63.5q0 27 10.5 66.5t10.5 60.5q0 40 -31 40h-12v109h41q50 0 82 -34t32 -92q0 -31 -12 -73t-12 -62q0 -32 10 -47t33 -15h20v-100h-20q-23 1 -33 -14t-10 -47q0 -20 12 -62t12 -74q0 -57 -32 -91.5t-82 -34.5h-41v110h14q29 2 29 39
q0 22 -10.5 61.5t-10.5 65.5q0 38 16.5 63.5t31.5 33.5z" />
    <glyph glyph-name="at.cap" horiz-adv-x="503" 
d="M255 -12q-101 0 -166.5 56.5t-65.5 155.5v281q0 99 64.5 155.5t161.5 56.5q98 0 164.5 -56.5t66.5 -155.5v-233q0 -43 -27.5 -68t-71.5 -25q-56 0 -77 38q-33 -37 -82 -37q-44 0 -68.5 28.5t-24.5 79.5v154q0 50 24.5 78.5t68.5 28.5q40 0 60 -29v24h87v-269
q0 -31 24 -31q22 0 22 33v227q0 75 -48.5 114.5t-116.5 39.5t-115 -39t-47 -115v-279q0 -75 48 -114t119 -39q92 0 143 44l10 -62q-56 -42 -153 -42zM249 232q32 0 32 44v129q0 44 -32 44t-32 -43v-131q0 -43 32 -43z" />
    </font>
</defs>
</svg>
