<svg xmlns="http://www.w3.org/2000/svg" width="24" height="24" viewBox="0 0 24 24">
    <g fill="none" fill-rule="evenodd">
        <path fill="#E10098" fill-rule="nonzero" stroke="#E10098" stroke-width=".4" d="M16.167 5h-2.083c0 1.034-.935 1.875-2.084 1.875S9.917 6.035 9.917 5H7.833L2 8l1.667 4.125 2.5-.75V20h11.667v-8.625l2.5.75L22 8l-5.833-3zm3.68 6.232l-1.735-.5-1.1-.317V19H6.988v-8.585l-1.1.317-1.734.5L3 8.492 8.044 6h1.153c.36 1.044 1.478 1.806 2.803 1.806S14.443 7.044 14.802 6h1.153L21 8.492l-1.153 2.74z"/>
    </g>
</svg>
