<?xml version="1.0" encoding="utf-8"?>
<!-- Generator: Adobe Illustrator 18.0.0, SVG Export Plug-In . SVG Version: 6.00 Build 0)  -->
<!DOCTYPE svg PUBLIC "-//W3C//DTD SVG 1.1//EN" "http://www.w3.org/Graphics/SVG/1.1/DTD/svg11.dtd">
<svg version="1.1" xmlns="http://www.w3.org/2000/svg" xmlns:xlink="http://www.w3.org/1999/xlink" x="0px" y="0px"
	 viewBox="0 0 12.4 16" enable-background="new 0 0 12.4 16" xml:space="preserve">
<g id="Guías" display="none">
</g>
<g id="Layer_1" display="none">
	<g display="inline">
		<rect x="-386.4" y="14.3" fill="none" width="467.2" height="141.4"/>
		<text transform="matrix(1 0 0 1 -386.4234 32.585)"><tspan x="0" y="0" fill="#666666" font-family="'Roboto-Regular'" font-size="24">Hay estacionamientos públicos cercanos a </tspan><tspan x="0" y="36" fill="#666666" font-family="'Roboto-Regular'" font-size="24">Reforma y siempre está la opción de llegar </tspan><tspan x="0" y="72" fill="#666666" font-family="'Roboto-Regular'" font-size="24">en transporte público para que sea más </tspan><tspan x="0" y="108" fill="#666666" font-family="'Roboto-Regular'" font-size="24">cómodo para ti.</tspan></text>
	</g>
</g>
<g id="Layer_1_copy">
	<g>
		<path fill="#231F20" d="M7.3,11.6c-1-0.1-1.4-0.6-2.1-1c-0.4,2.2-0.9,4.3-2.5,5.4c-0.5-3.3,0.7-5.8,1.2-8.5C3,6,4,2.9,5.9,3.6
			C8.3,4.6,3.9,9.4,6.9,10c3.1,0.6,4.4-5.4,2.5-7.4c-2.8-2.8-8.1-0.1-7.5,4C2,7.6,3,7.9,2.3,9.3C0.5,8.9-0.1,7.5,0,5.6
			c0.1-3.1,2.8-5.2,5.4-5.5c3.4-0.4,6.5,1.2,7,4.4C12.9,8,10.9,11.9,7.3,11.6L7.3,11.6z M7.3,11.6"/>
	</g>
</g>
<g id="Layer_5" display="none">
</g>
<g id="Layer_3" display="none">
</g>
</svg>
