<?xml version="1.0" encoding="utf-8"?>
<!-- Generator: Adobe Illustrator 18.0.0, SVG Export Plug-In . SVG Version: 6.00 Build 0)  -->
<!DOCTYPE svg PUBLIC "-//W3C//DTD SVG 1.1//EN" "http://www.w3.org/Graphics/SVG/1.1/DTD/svg11.dtd">
<svg version="1.1" xmlns="http://www.w3.org/2000/svg" xmlns:xlink="http://www.w3.org/1999/xlink" x="0px" y="0px"
	 viewBox="0 0 19.7 16" enable-background="new 0 0 19.7 16" xml:space="preserve">
<g id="Guías" display="none">
</g>
<g id="Layer_1" display="none">
	<g display="inline">
		<rect x="-353.5" y="14.4" fill="none" width="467.2" height="141.4"/>
		<text transform="matrix(1 0 0 1 -353.4747 32.7196)"><tspan x="0" y="0" fill="#666666" font-family="'Roboto-Regular'" font-size="24">Hay estacionamientos públicos cercanos a </tspan><tspan x="0" y="36" fill="#666666" font-family="'Roboto-Regular'" font-size="24">Reforma y siempre está la opción de llegar </tspan><tspan x="0" y="72" fill="#666666" font-family="'Roboto-Regular'" font-size="24">en transporte público para que sea más </tspan><tspan x="0" y="108" fill="#666666" font-family="'Roboto-Regular'" font-size="24">cómodo para ti.</tspan></text>
	</g>
</g>
<g id="Layer_1_copy">
	<g>
		<g>
			<g>
				<path fill="#666666" d="M19.7,1.9c-0.7,0.3-1.5,0.5-2.3,0.6c0.8-0.5,1.5-1.3,1.8-2.2c-0.8,0.5-1.6,0.8-2.6,1
					C15.8,0.5,14.8,0,13.6,0c-2.2,0-4,1.8-4,4c0,0.3,0,0.6,0.1,0.9C6.3,4.8,3.4,3.2,1.4,0.7C1,1.3,0.8,2,0.8,2.8
					c0,1.4,0.7,2.6,1.8,3.4C2,6.1,1.3,5.9,0.8,5.6c0,0,0,0,0,0.1c0,2,1.4,3.6,3.2,4C3.7,9.7,3.3,9.8,3,9.8c-0.3,0-0.5,0-0.8-0.1
					c0.5,1.6,2,2.8,3.8,2.8c-1.4,1.1-3.1,1.7-5,1.7c-0.3,0-0.6,0-1-0.1C1.8,15.3,3.9,16,6.2,16c7.4,0,11.5-6.2,11.5-11.5
					c0-0.2,0-0.3,0-0.5C18.5,3.4,19.1,2.7,19.7,1.9L19.7,1.9z M19.7,1.9"/>
			</g>
		</g>
	</g>
</g>
<g id="Layer_5" display="none">
</g>
<g id="Layer_3" display="none">
</g>
</svg>
