<?xml version="1.0" encoding="utf-8"?>
<!-- Generator: Adobe Illustrator 18.0.0, SVG Export Plug-In . SVG Version: 6.00 Build 0)  -->
<!DOCTYPE svg PUBLIC "-//W3C//DTD SVG 1.1//EN" "http://www.w3.org/Graphics/SVG/1.1/DTD/svg11.dtd">
<svg version="1.1" xmlns="http://www.w3.org/2000/svg" xmlns:xlink="http://www.w3.org/1999/xlink" x="0px" y="0px"
	 viewBox="0 0 25.1 16" enable-background="new 0 0 25.1 16" xml:space="preserve">
<g id="Guías" display="none">
</g>
<g id="Layer_1" display="none">
	<g display="inline">
		<rect x="-409.4" y="14.3" fill="none" width="467.2" height="141.4"/>
		<text transform="matrix(1 0 0 1 -409.4045 32.58)"><tspan x="0" y="0" fill="#666666" font-family="'Roboto-Regular'" font-size="24">Hay estacionamientos públicos cercanos a </tspan><tspan x="0" y="36" fill="#666666" font-family="'Roboto-Regular'" font-size="24">Reforma y siempre está la opción de llegar </tspan><tspan x="0" y="72" fill="#666666" font-family="'Roboto-Regular'" font-size="24">en transporte público para que sea más </tspan><tspan x="0" y="108" fill="#666666" font-family="'Roboto-Regular'" font-size="24">cómodo para ti.</tspan></text>
	</g>
</g>
<g id="Layer_1_copy">
	<g>
		<path fill="#231F20" d="M8,6.9v2.7h4.5c-0.2,1.2-1.4,3.5-4.5,3.5c-2.7,0-5-2.3-5-5.1c0-2.8,2.2-5.1,5-5.1c1.6,0,2.6,0.7,3.2,1.2
			l2.2-2.1C12,0.8,10.2,0,8,0C3.6,0,0,3.6,0,8s3.6,8,8,8c4.6,0,7.7-3.2,7.7-7.8c0-0.5-0.1-0.9-0.1-1.3H8L8,6.9z"/>
		<path fill="#231F20" d="M25.1,6.9h-2.3V4.6h-2.3v2.3h-2.3v2.3h2.3v2.3h2.3V9.1h2.3V6.9z"/>
	</g>
</g>
<g id="Layer_5" display="none">
</g>
<g id="Layer_3" display="none">
</g>
</svg>
