<svg xmlns="http://www.w3.org/2000/svg" width="47" height="24" viewBox="0 0 47 24">
    <g fill="#ADA8A8" fill-rule="evenodd">
        <g>
            <path d="M.836 7.368c-1.675 2.93-.61 7.378 1.242 10.074C3.002 18.79 3.938 20 5.22 20l.073-.001c.603-.025 1.038-.212 1.459-.392.472-.203.961-.413 1.727-.413.73 0 1.195.203 1.645.4.444.193.9.393 1.575.38 1.445-.027 2.331-1.333 3.114-2.485.816-1.202 1.225-2.37 1.363-2.816l.006-.018c.026-.08-.01-.166-.086-.201l-.012-.005c-.254-.105-2.485-1.103-2.509-3.822-.021-2.21 1.674-3.38 2.014-3.591l.016-.01c.037-.024.062-.062.07-.106.01-.043 0-.088-.024-.124-1.17-1.727-2.964-1.987-3.686-2.018-.105-.01-.213-.016-.321-.016-.848 0-1.66.323-2.314.582-.45.18-.84.334-1.108.334-.301 0-.693-.156-1.146-.338-.606-.242-1.293-.517-2.02-.517h-.051c-1.691.026-3.289 1-4.17 2.545zM11.302 0c-.684.041-1.505.664-1.996 1.513-.417.713-.825 1.903-.717 3.102.007.075.048.133.099.139.046.005.093.008.14.008.67 0 1.392-.547 1.885-1.427.519-.93.781-2.123.702-3.192-.007-.084-.057-.146-.113-.143z" transform="translate(4 2)"/>
        </g>
        <text font-family="GothamBold, Gotham Bold" font-size="11" font-weight="bold">
            <tspan x="24.144" y="15">iOS</tspan>
        </text>
    </g>
</svg>
