<svg xmlns="http://www.w3.org/2000/svg" width="155" height="70" viewBox="0 0 155 70">
    <g fill="none" fill-rule="evenodd">
        <path fill="#EEE" d="M0 0H155V70H0z"/>
        <g fill-rule="nonzero">
            <path fill="#606060" d="M8.674 22.19c-5.11 0-8.624-3.588-8.624-8.43v-.05c0-4.66 3.63-8.482 8.599-8.482 2.952 0 4.734.794 6.44 2.25l-2.275 2.743c-1.263-1.054-2.392-1.664-4.29-1.664-2.627 0-4.71 2.317-4.71 5.11v.05c0 3.003 2.066 5.203 4.969 5.203 1.313 0 2.484-.326 3.395-.987v-2.342h-3.63v-3.12h7.127v7.127c-1.682 1.422-4.007 2.593-7.001 2.593zM30.178 21.914l-1.497-3.68h-6.934l-1.505 3.68h-3.68l7.025-16.519h3.33l7.025 16.52h-3.764zM25.21 9.728l-2.183 5.32h4.358l-2.175-5.32zM45.268 21.914l-3.513-5.244h-2.836v5.244h-3.605V5.512h7.495c3.864 0 6.19 2.041 6.19 5.412v.05c0 2.651-1.431 4.308-3.514 5.085l4.007 5.855h-4.224zm.067-10.806c0-1.548-1.08-2.342-2.836-2.342h-3.588v4.709h3.663c1.757 0 2.769-.937 2.769-2.317v-.05h-.008zM63.284 21.914l-1.497-3.68h-6.934l-1.497 3.68h-3.68l7.026-16.519h3.329l7.026 16.52h-3.773zM58.316 9.728l-2.183 5.32h4.358l-2.175-5.32zM79.921 21.914L71.975 11.484 71.975 21.914 68.412 21.914 68.412 5.512 71.741 5.512 79.428 15.608 79.428 5.512 82.991 5.512 82.991 21.914zM93.178 8.841L93.178 21.914 89.573 21.914 89.573 8.841 84.58 8.841 84.58 5.512 98.172 5.512 98.172 8.841zM99.928 21.914V5.512h3.605v16.402h-3.605zm.302-17.69L102.88.075l3.07 1.339-3.003 2.81h-2.718zM118.673 21.914l-1.497-3.68h-6.934l-1.498 3.68h-3.68l7.026-16.519h3.33l7.025 16.52h-3.772zm-4.969-12.186l-2.183 5.32h4.358l-2.175-5.32zM133.151 21.848h-7.435c-.912 0-1.657-.745-1.657-1.657v-7.435c0-.912.745-1.657 1.657-1.657h7.435c.912 0 1.657.745 1.657 1.657v7.435c-.009.92-.745 1.657-1.657 1.657zm-7.435-10.171c-.594 0-1.08.485-1.08 1.079v7.435c0 .594.486 1.08 1.08 1.08h7.435c.594 0 1.08-.486 1.08-1.08v-7.435c0-.594-.486-1.08-1.08-1.08h-7.435z" transform="translate(10 11)"/>
            <path fill="#ADA8A8" d="M134.624 11.175c-.377-.385-1.18-.46-1.548 0-1.589 2.024-3.187 4.04-4.776 6.064-.895-.736-1.781-1.48-2.676-2.217-1.08-.895-2.635.644-1.548 1.548 1.205.995 2.41 1.999 3.614 2.994.41.343 1.154.494 1.547 0 1.798-2.275 3.597-4.558 5.387-6.834.368-.476.443-1.095 0-1.555z" transform="translate(10 11)"/>
        </g>
        <path fill="#ADA8A8" d="M70.631 41.821c2.201 0 3.984 1.683 3.984 3.759 0 2.076-1.783 3.758-3.984 3.758-1.435 0-2.69-.714-3.392-1.785-.7 1.07-1.96 1.785-3.392 1.785-1.433 0-2.69-.714-3.392-1.785-.701 1.07-1.958 1.785-3.392 1.785-1.083 0-2.064-.408-2.781-1.068V52h-1.205v-6.42c0-2.076 1.785-3.759 3.986-3.759 1.434 0 2.69.715 3.392 1.787.702-1.072 1.959-1.787 3.392-1.787 1.432 0 2.692.715 3.392 1.787.701-1.072 1.957-1.787 3.392-1.787zm-34.5.536l2.407 5.605 2.407-5.605h1.363l-2.991 6.964h-1.558l-2.99-6.964h1.362zM11.153 37v10.425c0 .378.193.777.757.777h6.167v1.12H11.37c-.766 0-1.37-.62-1.37-1.358V37h1.153zm9.605 3.214c.233 0 .55.237.55.594v8.513H20.17v-2.307l-.001-5.184c0-.294-.116-.51-.476-.51h-3.232v-1.106zm1.494-1.607c.396 0 .671.289.671.663-.004.438 0 10.051 0 10.051h-1.142v-8.904c0-.392-.174-.694-.662-.694h-4.657v-1.116h5.79zM23.17 37c.764 0 1.368.62 1.368 1.358v10.963h-1.152V38.896c0-.377-.194-.776-.758-.776h-6.166V37h6.708zm-4.047 4.821c.41 0 .57.257.57.548v6.952h-1.12v-5.977c0-.218-.101-.425-.419-.425h-1.692V41.82h2.66zm33.954.536v1.104h-.962c-.366 0-.644.3-.644.675l.001 5.185h-1.087v-5.367c0-.881.685-1.597 1.552-1.597h1.14zm-18.846 0v6.964h-1.077v-6.964h1.077zm11.578-.536c2.225 0 4.037 1.682 4.037 3.75v.221h-6.934c.147 1.426 1.395 2.476 2.897 2.476 1.235 0 2.331-.727 2.738-1.809h1.183c-.44 1.688-2.044 2.862-3.921 2.862-2.227 0-4.04-1.682-4.04-3.75s1.813-3.75 4.04-3.75zM76.23 39.68v9.642h-1.077V39.68h1.077zm-47.254 0v7.836c.004.39.24.694.706.694h2.932v1.112h-4.04c-.51 0-.806-.297-.806-.727V39.68h1.208zm41.654 3.267c-1.541 0-2.793 1.182-2.793 2.634s1.252 2.634 2.793 2.634c1.54 0 2.792-1.182 2.792-2.634s-1.252-2.634-2.792-2.634zm-6.784 0c-1.54 0-2.794 1.182-2.794 2.634s1.254 2.634 2.794 2.634 2.793-1.182 2.793-2.634-1.253-2.634-2.793-2.634zm-6.784 0c-1.54 0-2.791 1.182-2.791 2.634s1.251 2.634 2.79 2.634c1.542 0 2.793-1.182 2.793-2.634s-1.251-2.634-2.792-2.634zM12.757 37v8.905c0 .39.174.693.663.693h4.657v1.116h-5.79c-.397 0-.672-.289-.672-.662l.001-.18c.003-1.4 0-9.872 0-9.872h1.141zm1.61 0l.001 3.684v3.808c0 .294.117.51.476.51h3.233v1.105H13.78c-.234 0-.55-.236-.55-.593V37h1.136zm31.442 5.875c-1.232 0-2.355.728-2.764 1.863h5.523c-.409-1.135-1.527-1.863-2.76-1.863zM15.965 37v5.978c0 .217.1.425.42.425h1.692V44.5h-2.662c-.41 0-.569-.255-.569-.547V37h1.12zm62.687 2.679c.448 0 .81.356.81.801 0 .445-.362.806-.81.806-.445 0-.806-.361-.806-.806 0-.445.361-.801.806-.801zm0 .131c-.371 0-.67.299-.67.67 0 .37.299.672.67.672.372 0 .676-.302.676-.672 0-.371-.304-.67-.676-.67zm.03.252c.215 0 .287.133.287.225 0 .14-.1.241-.245.25v.005c.074.025.128.1.2.215l.105.168h-.17l-.077-.135c-.11-.193-.151-.232-.257-.232h-.086v.367h-.14v-.863h.382zm-44.451-.383v1.071h-1.077v-1.071h1.077z"/>
    </g>
</svg>
