<svg xmlns="http://www.w3.org/2000/svg" width="24" height="24" viewBox="0 0 24 24">
    <path fill="#ADA8A8" fill-rule="evenodd" d="M18.88 6.531c.763-.5 1.345-1.292 1.625-2.237-.715.464-1.505.8-2.351.98C17.484 4.493 16.523 4 15.462 4c-2.037 0-3.69 1.81-3.69 4.04 0 .317.033.624.094.92-3.071-.17-5.789-1.774-7.613-4.22-.32.594-.5 1.291-.5 2.03 0 1.403.654 2.641 1.642 3.36-.604-.017-1.17-.202-1.669-.503v.049c0 1.958 1.274 3.592 2.96 3.966-.309.09-.637.138-.972.138-.237 0-.466-.024-.697-.072.473 1.605 1.833 2.77 3.45 2.808-1.266 1.08-2.858 1.724-4.588 1.724-.296 0-.587-.019-.879-.054C4.637 19.335 6.576 20 8.663 20c6.788 0 10.501-6.155 10.501-11.49l-.01-.524c.726-.571 1.351-1.28 1.846-2.093-.66.321-1.374.54-2.12.638z"/>
</svg>
