<svg xmlns="http://www.w3.org/2000/svg" width="23" height="17" viewBox="0 0 23 17">
    <path fill="#ADA8A8" fill-rule="evenodd" d="M11.402 0c.566.001 6.836.024 8.458.52.93.28 1.664 1.1 1.915 2.14.394 1.612.442 4.707.447 5.608v.415c-.006.762-.054 4.007-.447 5.677-.25 1.04-.984 1.86-1.915 2.14-1.507.443-7.02.494-8.253.5h-.491c-1.23-.007-6.732-.06-8.254-.52-.93-.28-1.664-1.1-1.915-2.14C.541 12.63.504 9.203.5 8.594v-.187C.504 7.8.54 4.387.947 2.66 1.197 1.62 1.95.78 2.862.5 4.484.023 10.753.001 11.32 0zM8.056 4.722v7.556L15.61 8.5 8.056 4.722z"/>
</svg>
