<?xml version="1.0" encoding="utf-8"?>
<!-- Generator: Adobe Illustrator 21.0.2, SVG Export Plug-In . SVG Version: 6.00 Build 0)  -->
<svg version="1.1" id="Layer_1" xmlns="http://www.w3.org/2000/svg" xmlns:xlink="http://www.w3.org/1999/xlink" x="0px" y="0px"
	 viewBox="0 0 50 50" style="enable-background:new 0 0 50 50;" xml:space="preserve">
<style type="text/css">
	.st0{display:none;}
	.st1{display:inline;fill:#329DC1;}
	.st2{display:inline;fill:#808789;}
	.st3{display:inline;}
	.st4{fill:#808789;}
	.st5{display:inline;fill:#77C5E2;}
	.st6{fill:#B3B3B3;}
	.st7{fill:#DC92B8;}
	.st8{display:inline;fill:#C82982;}
	.st9{display:inline;fill:#DC92B8;}
	.st10{fill:#C82982;stroke:#C82982;stroke-miterlimit:10;}
	.st11{fill:#DC92B8;stroke:#DC92B8;stroke-miterlimit:10;}
	.st12{fill:#F4BE06;}
	.st13{display:inline;fill:#808688;}
	.st14{fill:#808688;}
</style>
<g id="Layer_1_1_" class="st0">
	<path class="st1" d="M19.7,21.1l5.6-3.6c0.3-0.2,0.5-0.7,0.3-1l-1.7-4.4c-0.1-0.3-0.5-0.6-0.8-0.6H11.2c-0.4,0-0.7,0.2-0.8,0.6
		l-1.7,4.4c-0.1,0.4,0,0.8,0.3,1l5.6,3.6 M21.5,15.8h-8.8l4.4-2.6L21.5,15.8z M22.5,13.1l0.6,1.6l-2.7-1.6H22.5z M11.8,13.1h2.1
		l-2.7,1.6L11.8,13.1z M12.4,17.6h9.4l-4.7,3.1L12.4,17.6z"/>
	<path class="st2" d="M17.1,6c-0.5,0-1-0.4-1-1V1c0-0.5,0.4-1,1-1c0.5,0,1,0.4,1,1v4C18.1,5.5,17.7,6,17.1,6z"/>
	<path class="st2" d="M8.1,9.9c-0.3,0-0.5-0.1-0.7-0.3L4.5,6.8C4.4,6.6,4.3,6.3,4.3,6.1c0-0.3,0.1-0.5,0.3-0.7
		C4.7,5.2,5,5.1,5.2,5.1l0,0c0.3,0,0.5,0.1,0.7,0.3l2.8,2.8C8.9,8.4,9,8.6,9,8.9S8.9,9.4,8.8,9.6C8.6,9.8,8.3,9.9,8.1,9.9z"/>
	<g class="st3">
		<path class="st4" d="M26.2,9.9c-0.3,0-0.5-0.1-0.7-0.3s-0.3-0.4-0.3-0.7s0.1-0.5,0.3-0.7l2.8-2.8c0.4-0.4,1-0.4,1.4,0
			C29.9,5.6,30,5.8,30,6.1s-0.1,0.5-0.3,0.7l-2.8,2.8C26.7,9.8,26.5,9.9,26.2,9.9z"/>
	</g>
	<g class="st3">
		<path class="st4" d="M14.7,20.9C8.1,22.1,3,28,3,35c0,7.9,6.4,14.2,14.2,14.2c3,0,5.8-0.9,8.2-2.6c2.3,1.6,5.1,2.6,8.2,2.6
			c7.9,0,14.2-6.4,14.2-14.2c0-7.9-6.4-14.2-14.2-14.2c-3,0-5.8,0.9-8.2,2.6c-1.7-1.2-3.6-2-5.6-2.4 M4.7,35
			c0-6.9,5.6-12.5,12.5-12.5S29.7,28.1,29.7,35c0,2.3-0.6,4.4-1.7,6.4c-0.6-0.5-1.1-1.2-1.6-1.8c0.7-1.4,1.1-3,1.1-4.5
			c0-5.6-4.6-10.2-10.2-10.2S7,29.3,7,35s4.6,10.2,10.2,10.2c1.8,0,3.6-0.5,5.2-1.4c0.5,0.6,1,1.2,1.6,1.7c-2,1.3-4.3,2-6.8,2
			C10.3,47.5,4.7,41.8,4.7,35z M17.2,43.5c-4.7,0-8.5-3.8-8.5-8.5s3.8-8.5,8.5-8.5c1.5,0,3,0.4,4.2,1.1c-1.4,2.2-2.1,4.8-2.1,7.4
			c0,2.7,0.8,5.2,2.1,7.4C20.2,43.1,18.7,43.5,17.2,43.5z M25.4,32.7c0.2,0.7,0.3,1.5,0.3,2.3s-0.1,1.5-0.3,2.3
			c-0.2-0.7-0.3-1.5-0.3-2.3S25.2,33.4,25.4,32.7z M29.4,27.6c1.3-0.7,2.7-1.1,4.2-1.1c4.7,0,8.5,3.8,8.5,8.5s-3.8,8.5-8.5,8.5
			c-1.5,0-3-0.4-4.2-1.1c1.4-2.2,2.1-4.8,2.1-7.4C31.5,32.3,30.7,29.7,29.4,27.6z M33.6,47.5c-6.9,0-12.5-5.6-12.5-12.5
			c0-2.3,0.6-4.4,1.7-6.4c0.6,0.5,1.1,1.2,1.6,1.8c-0.7,1.4-1.1,3-1.1,4.5c0,5.6,4.6,10.2,10.2,10.2S43.8,40.6,43.8,35
			s-4.6-10.2-10.2-10.2c-1.8,0-3.6,0.5-5.2,1.4c-0.5-0.6-1-1.2-1.6-1.7c2-1.3,4.3-2,6.8-2c6.9,0,12.5,5.6,12.5,12.5
			C46.1,41.8,40.5,47.5,33.6,47.5z"/>
		<path class="st4" d="M33.6,49.3c-2.9,0-5.8-0.9-8.2-2.6c-2.4,1.7-5.2,2.6-8.2,2.6C9.3,49.3,2.9,42.9,2.9,35c0-7,5-12.9,11.8-14.1
			v0.2C8,22.2,3.1,28.1,3.1,35c0,7.8,6.3,14.1,14.1,14.1c2.9,0,5.7-0.9,8.1-2.6h0.1h0.1c2.4,1.7,5.2,2.6,8.1,2.6
			c7.8,0,14.1-6.3,14.1-14.1s-6.3-14.1-14.1-14.1c-2.9,0-5.7,0.9-8.1,2.6h-0.1h-0.1c-1.7-1.2-3.6-2-5.6-2.3V21
			c2,0.4,3.9,1.2,5.6,2.3c2.4-1.7,5.2-2.6,8.2-2.6C41.5,20.6,48,27,48,35C48,42.9,41.5,49.3,33.6,49.3z M33.6,47.6
			c-7,0-12.6-5.7-12.6-12.6c0-2.3,0.6-4.5,1.8-6.4l0.1-0.1l0.1,0.1c0.6,0.5,1.1,1.2,1.6,1.9v0.1v0.1c-0.7,1.4-1,2.9-1,4.5
			c0,5.6,4.5,10.1,10.1,10.1s10-4.8,10-10.3c0-5.6-4.5-10.1-10.1-10.1c-1.8,0-3.6,0.5-5.1,1.4l-0.1,0.1l-0.1-0.1
			c-0.5-0.6-1-1.2-1.6-1.7l-0.1-0.1l0.1-0.1c2-1.3,4.4-2,6.8-2c7,0,12.6,5.7,12.6,12.6C46.2,41.9,40.6,47.6,33.6,47.6z M22.9,28.8
			c-1.1,1.9-1.7,4-1.7,6.2c0,6.8,5.6,12.4,12.4,12.4S46,41.8,46,35s-5.6-12.4-12.4-12.4c-2.3,0-4.6,0.7-6.6,1.9c0.5,0.5,1,1,1.4,1.5
			c1.6-0.9,3.4-1.4,5.2-1.4C39.3,24.6,44,29.2,44,35c0,5.7-4.6,10.4-10.4,10.4c-5.7,0-10.4-4.6-10.4-10.4c0-1.6,0.4-3.1,1-4.5
			C23.9,29.8,23.4,29.3,22.9,28.8z M17.2,47.6c-7,0-12.6-5.7-12.6-12.6c0-7,5.7-12.6,12.6-12.6c7,0,12.6,5.7,12.6,12.6
			c0,2.3-0.6,4.5-1.8,6.4l0,0.1l-0.1-0.1c-0.6-0.5-1.1-1.2-1.6-1.9v-0.1v-0.1c0.7-1.4,1-2.9,1-4.5c0-5.6-4.5-10.1-10.1-10.1
			S7.1,29.4,7.1,35s4.5,10.1,10.1,10.1c1.8,0,3.6-0.5,5.1-1.4l0.1-0.1l0.1,0.1c0.5,0.6,1,1.2,1.6,1.7l0.1,0.1l-0.1,0.1
			C22,46.9,19.7,47.6,17.2,47.6z M17.2,22.6c-6.8,0-12.4,5.6-12.4,12.4s5.6,12.4,12.4,12.4c2.3,0,4.6-0.7,6.6-1.9
			c-0.5-0.5-1-1-1.4-1.5c-1.6,0.9-3.4,1.4-5.2,1.4c-5.7,0-10.4-4.6-10.4-10.4c0-5.7,4.6-10.4,10.4-10.4c5.7,0,10.4,4.6,10.4,10.4
			c0,1.6-0.4,3.1-1,4.5c0.4,0.6,0.9,1.2,1.4,1.7c1.1-1.9,1.7-4,1.7-6.2C29.6,28.1,24.1,22.6,17.2,22.6z M33.6,43.6
			c-1.5,0-3-0.4-4.2-1.1l-0.1-0.1l0.1-0.1c1.3-2.2,2-4.7,2-7.3s-0.7-5.1-2.1-7.3l-0.1-0.1l0.1-0.1c1.3-0.7,2.8-1.1,4.3-1.1
			c4.7,0,8.6,3.9,8.6,8.6C42.2,39.7,38.4,43.6,33.6,43.6z M29.6,42.3c1.2,0.7,2.6,1,4,1c4.6,0,8.4-3.8,8.4-8.4s-3.8-8.4-8.4-8.4
			c-1.4,0-2.8,0.4-4,1c1.3,2.2,2,4.8,2,7.3C31.6,37.5,30.9,40.1,29.6,42.3z M17.2,43.6c-4.7,0-8.6-3.9-8.6-8.6s3.9-8.6,8.6-8.6
			c1.5,0,3,0.4,4.2,1.1l0.1,0.1l-0.1,0.1c-1.3,2.2-2,4.7-2,7.3s0.7,5.1,2.1,7.3l0.1,0.1l-0.1,0.1C20.2,43.2,18.7,43.6,17.2,43.6z
			 M17.2,26.6c-4.6,0-8.4,3.8-8.4,8.4s3.8,8.4,8.4,8.4c1.4,0,2.8-0.4,4-1c-1.3-2.2-2-4.8-2-7.3c0-2.6,0.7-5.1,2-7.3
			C20,26.9,18.6,26.6,17.2,26.6z M25.4,37.7l-0.1-0.4C25.1,36.5,25,35.7,25,35c0-0.8,0.1-1.6,0.3-2.3l0.1-0.4l0.1,0.4
			c0.2,0.7,0.3,1.5,0.3,2.3s-0.1,1.5-0.3,2.3L25.4,37.7z M25.4,33.2c-0.1,0.6-0.2,1.2-0.2,1.8s0.1,1.2,0.2,1.8
			c0.1-0.6,0.2-1.2,0.2-1.8C25.6,34.3,25.5,33.7,25.4,33.2z"/>
	</g>
</g>
<g id="Layer_2" class="st0">
	<g class="st3">
		<path class="st4" d="M6.8,29.9c2.1,5.7,6.8,10,12.6,11.7c1,2,3.1,3.3,5.4,3.3c2.4,0,4.4-1.3,5.4-3.3c5.8-1.7,10.5-6,12.6-11.7
			c3.4,0,6.2-2.8,6.2-6.3c0-3.4-2.8-6.2-6.2-6.3C40.5,11,34.7,6.4,28,5.2c-0.1,0-0.2-0.1-0.4-0.1c-0.1,0-0.2,0-0.3,0
			C26.5,5,25.7,5,24.8,5c-8.1,0-15.3,5-18,12.4c-3.4,0-6.2,2.8-6.2,6.3C0.6,27.1,3.4,29.9,6.8,29.9z M29,38.8c0,0.3,0,0.6-0.1,0.8
			c-0.3,1.3-1.7,3-2.9,3.4c-0.4,0.1-0.8,0.2-1.2,0.2c-0.4,0-0.8-0.1-1.2-0.2c-1.2-0.4-2.6-2.1-2.9-3.4c-0.1-0.3-0.1-0.6-0.1-0.8
			h-1.9v0.1c-4.7-1.8-8.5-5.7-10-10.5l-0.3-1l-1,0.1c-0.2,0-0.4,0-0.6,0c-2.2,0-3.9-1.8-3.9-3.9c0-2.2,1.8-3.9,3.9-3.9
			c0.2,0,0.4,0,0.6,0l1,0.1l0.3-1c1.4-4.7,4.9-8.4,9.3-10.3c-1,2.2,0.4,4.9,2.6,5.9c2.8,1.3,7.3,1.5,9.1-1.4
			c0.9-1.3,0.1-2.9-0.9-3.8c-1.4-1.2-3.5-1.4-5.3-0.7c-1.4,0.6-0.8,2.8,0.6,2.3c1-0.4,1.9-0.4,2.9,0.1c1.3,0.7,0.1,1.6-0.8,1.8
			c-1.7,0.5-4.3,0.1-5.7-1.1c-1.7-1.5,0.5-3.3,1.9-3.8c1.5-0.5,3.1-0.6,4.7-0.6C33.5,8.4,39,12.9,40.9,19l0.3,1l1-0.1
			c0.2,0,0.4,0,0.6,0c2.2,0,3.9,1.8,3.9,3.9c0,2.2-1.8,3.9-3.9,3.9c-0.2,0-0.4,0-0.6,0l-1-0.1l-0.3,1c-1.5,4.9-5.3,8.7-10,10.5V39
			L29,38.8z"/>
		<path class="st4" d="M19.9,26c2,0,2-3.1,0-3.1S17.8,26,19.9,26z"/>
		<path class="st4" d="M29.7,25.8c2,0,2-3.1,0-3.1S27.7,25.8,29.7,25.8z"/>
	</g>
	<path class="st5" d="M30,35.8L30,35.8c0.5-0.6,0.8-1.3,0.8-2.1c0-2.4-2.5-4.1-6-4.1s-6,1.7-6,4.1c0,0.8,0.3,1.5,0.8,2.1
		c-0.5,0.9-0.9,2-0.9,3.1c0,3.3,2.7,6.1,6.1,6.1s6.1-2.7,6.1-6.1C30.9,37.8,30.5,36.7,30,35.8z M29.7,35.4L29.7,35.4L29.7,35.4z
		 M29.4,35L29.4,35L29.4,35z M29,34.6L29,34.6L29,34.6z M24.8,31.6c2.2,0,4,0.9,4,2.1c0,0.2-0.1,0.4-0.1,0.6c-1-0.9-2.4-1.4-3.8-1.4
		c-1.5,0-2.8,0.5-3.8,1.4C21,34.1,21,33.9,21,33.7C20.8,32.5,22.6,31.6,24.8,31.6z M20.6,34.6L20.6,34.6L20.6,34.6z M19.9,35.4
		L19.9,35.4L19.9,35.4z M20.2,35L20.2,35L20.2,35z M24.8,42.7c-2.1,0-3.8-1.7-3.8-3.8s1.7-3.8,3.8-3.8s3.8,1.7,3.8,3.8
		C28.6,41,26.9,42.7,24.8,42.7z"/>
</g>
<g id="Layer_3">
	<g>
		<path class="st6" d="M38.6,10.8C39.5,9.8,40,8.5,40,7c0-3-2.4-5.4-5.3-5.4c-2.2,0-7.3,3.3-9.4,6.3c-2.1-3-7.2-6.2-9.4-6.2
			c-2.9,0-5.3,2.4-5.3,5.4c0,1.4,0.5,2.7,1.4,3.6H1.7v13h2.8v25.2h14.8h12.1h14.8V23.7H49v-13L38.6,10.8z M34.7,3.6
			c1.8,0,3.3,1.5,3.3,3.5c0,1.7-1.2,3.2-2.7,3.5h-8.2c-0.5-0.2-0.7-0.3-0.7-0.4C26.4,8.4,32.5,3.6,34.7,3.6L34.7,3.6z M16,3.6
			c2.1,0,8.3,4.8,8.3,6.5c0,0.2-0.4,0.3-0.6,0.4h-8.2C14,10.2,12.8,8.7,12.8,7C12.6,5.2,14.2,3.6,16,3.6L16,3.6z M19.3,46.9H6.5
			V23.7h12.8V46.9z M19.3,21.8H3.7v-9.1h15.6L19.3,21.8L19.3,21.8z M29.4,46.9h-8.1V12.8h8.1V46.9z M44.2,46.9H31.4V23.7h12.8V46.9z
			 M47,21.8H31.4v-9.1H47V21.8L47,21.8z"/>
	</g>
	<path class="st6" d="M31.3,10.8h7.2c1-1,1.5-2.3,1.5-3.8c0-3-2.4-5.4-5.3-5.4c-2.2,0-7.3,3.3-9.4,6.3c-2.1-3-7.2-6.2-9.4-6.2
		c-2.9,0-5.3,2.4-5.3,5.4c0,1.4,0.5,2.7,1.4,3.6h7.3l0,0H12v1.9h7.3v34.2v2h12.1v-2V12.7h7.1v-1.9H31.3L31.3,10.8z M34.7,3.6
		c1.8,0,3.3,1.5,3.3,3.5c0,1.7-1.2,3.2-2.7,3.5h-4l0,0h-2l0,0h-2.2c-0.5-0.2-0.7-0.3-0.7-0.4C26.4,8.4,32.5,3.6,34.7,3.6z
		 M15.4,10.6c-1.5-0.3-2.7-1.8-2.7-3.5c0-1.9,1.5-3.5,3.3-3.5c2.1,0,8.3,4.8,8.3,6.5c0,0.2-0.4,0.3-0.6,0.4h-2.3l0,0h-2l0,0h-4V10.6
		z M21.3,10.8h8l0,0H21.3L21.3,10.8z M29.3,46.9h-8V12.7h8V46.9z"/>
</g>
<g id="Layer_4" class="st0">
	<g class="st3">
		<g>
			<path class="st4" d="M14.8,13H9.1c-0.5,0-0.9,0.4-0.9,0.9v12.8H0.7c-0.5,0-0.9,0.4-0.9,0.9v2.7v12.1v6c0,0.5,0.4,0.9,0.9,0.9
				h47.1c0.5,0,0.9-0.4,0.9-0.9V27.6c0-0.5-0.4-0.9-0.9-0.9h-7.4V13.9c0-0.5-0.4-0.9-0.9-0.9h-5.8H14.8z M9.9,14.8h28.7v3.9
				c-2,3.7-6.3,3.8-6.8,3.8l0,0l0,0c-4.7,0-6.6-4.1-6.7-4.2c-0.1-0.3-0.5-0.5-0.8-0.5l0,0c-0.4,0-0.7,0.2-0.8,0.5
				c-1.9,4.1-6.1,4.3-7,4.3h-0.1l0,0c-3.9,0-5.8-2.7-6.4-3.8L9.9,14.8L9.9,14.8z M46.9,42.7v4.7H1.6v-5.1v-2.5
				C3,41.1,5,42.3,7.9,42.3H8c0.9,0,5.5-0.2,8.2-4.1c1.2,1.7,3.6,4.1,7.8,4.1c0.4,0,5.5,0.1,8.3-4.1c1.2,1.6,3.6,4.1,7.8,4.1
				c0.3,0,4,0,6.8-2.5L46.9,42.7L46.9,42.7z M46.9,30.6v6.1V37c-2.4,3.5-6.7,3.4-6.8,3.4l0,0c-5,0-6.9-4.3-7-4.5
				c-0.1-0.3-0.5-0.5-0.8-0.5l0,0c-0.4,0-0.7,0.2-0.8,0.5c-2.1,4.6-7.2,4.5-7.4,4.5l0,0c-4.8,0-6.8-4-7-4.4
				c-0.1-0.3-0.5-0.6-0.8-0.6c-0.4,0-0.7,0.2-0.8,0.5c-2.1,4.6-7.2,4.5-7.4,4.5l0,0c-3.2,0-5.1-1.7-6.2-3.2V37v-6.8v-1.8h26.6
				c0.5,0,0.9-0.4,0.9-0.9s-0.4-0.9-0.9-0.9H9.9v-5c1.3,1.3,3.4,2.7,6.4,2.7h0.1l0,0c0.9,0,5.3-0.2,7.8-3.9c1.1,1.6,3.5,3.9,7.5,3.9
				c0,0,0,0,0.1,0c0.5,0,4.1-0.1,6.8-2.7v5h-2.8c-0.5,0-0.9,0.4-0.9,0.9s0.4,0.9,0.9,0.9h3.7h1.9h5.5L46.9,30.6L46.9,30.6z"/>
			<path class="st4" d="M47.8,49.4H0.7c-0.5,0-1-0.4-1-1V27.6c0-0.5,0.4-1,1-1H8V13.9c0-0.5,0.4-1,1-1h30.5c0.5,0,1,0.4,1,1v12.7
				h7.3c0.3,0,0.5,0.1,0.7,0.3c0.2,0.2,0.3,0.4,0.3,0.7v20.8C48.8,48.9,48.4,49.4,47.8,49.4z M0.7,26.8c-0.4,0-0.8,0.4-0.8,0.8v20.8
				c0,0.4,0.4,0.8,0.8,0.8h47.1c0.4,0,0.8-0.4,0.8-0.8V27.6c0-0.2-0.1-0.4-0.2-0.6c-0.2-0.2-0.4-0.2-0.6-0.2h-7.5V13.9
				c0-0.4-0.4-0.8-0.8-0.8H9c-0.4,0-0.8,0.4-0.8,0.8v12.9H0.7z M47,47.6H1.5v-7.9l0.2,0.1c1.7,1.5,3.8,2.3,6.2,2.3H8
				c0.9,0,5.5-0.2,8.1-4.1l0.1-0.1l0.1,0.1c1.1,1.5,3.5,4.1,7.7,4.1c0.2,0,5.4,0.1,8.2-4.1l0.1-0.1l0.1,0.1c1.1,1.5,3.5,4.1,7.7,4.1
				c0.2,0,3.9,0.1,6.7-2.5l0.2-0.1V47.6z M1.7,47.4h45.1V40c-2.9,2.5-6.6,2.4-6.7,2.4c-4.2,0-6.7-2.5-7.8-4c-2.9,4.1-7.8,4.1-8.3,4
				c-4.2,0-6.7-2.5-7.8-4c-2.7,3.9-7.3,4.1-8.2,4.1c-0.1,0-0.1,0-0.1,0c-2.3,0-4.4-0.8-6.1-2.2v7.1H1.7z M8,40.6
				C7.9,40.6,7.9,40.6,8,40.6C7.9,40.6,7.9,40.6,8,40.6c-3.3,0-5.3-1.8-6.4-3.3l0,0v-8.9h26.7c0.4,0,0.8-0.4,0.8-0.8
				s-0.4-0.8-0.8-0.8H9.9v-5.4l0.2,0.2c1.2,1.2,3.3,2.6,6.3,2.6h0.1c0.8,0,5.2-0.2,7.7-3.9l0.1-0.1l0.1,0.1c1,1.4,3.4,3.9,7.4,3.9
				c0,0,0,0,0.1,0c0.4,0,4-0.1,6.7-2.7l0.2-0.2v5.4h-2.9c-0.4,0-0.8,0.4-0.8,0.8s0.4,0.8,0.8,0.8H47V37l0,0
				c-2.3,3.3-6.4,3.5-6.8,3.5l0,0l0,0c-5.1,0-7-4.3-7.1-4.5c-0.1-0.3-0.4-0.5-0.7-0.5s-0.6,0.2-0.7,0.5c-0.9,1.9-2.4,3.3-4.5,4
				c-1.6,0.5-2.9,0.5-3,0.5l0,0c-4.9,0-6.9-4-7.1-4.5c-0.1-0.3-0.4-0.5-0.7-0.5c-0.3,0-0.6,0.2-0.7,0.5C13.4,40.4,8.7,40.6,8,40.6z
				 M1.7,37.2c1.1,1.4,3,3.2,6.1,3.2l0,0c0.2,0,5.3,0.1,7.3-4.4c0.2-0.4,0.5-0.6,0.9-0.6s0.8,0.2,0.9,0.6c0.2,0.4,2.2,4.4,6.9,4.4
				l0,0c0.2,0,5.3,0.1,7.3-4.4c0.2-0.4,0.5-0.6,0.9-0.6l0,0c0.4,0,0.7,0.2,0.9,0.6c0.1,0.2,2,4.4,6.9,4.4l0,0c0.5,0,4.5-0.1,6.7-3.4
				v-8.4h-11c-0.5,0-1-0.4-1-1s0.4-1,1-1h2.7v-4.7c-2.7,2.5-6.3,2.6-6.7,2.6h-0.1c-4,0-6.4-2.4-7.5-3.8c-2.6,3.6-7,3.8-7.8,3.8
				c-0.1,0-0.1,0-0.1,0c-3,0-5.1-1.3-6.3-2.5v4.7h18.2c0.5,0,1,0.4,1,1s-0.4,1-1,1H1.7V37.2z M16.5,22.7
				C16.4,22.7,16.4,22.7,16.5,22.7L16.5,22.7c-4,0-5.9-2.7-6.6-3.9l0,0v-4.1h28.9v4l0,0c-2,3.8-6.4,3.9-6.9,3.9h-0.1
				c-4.8,0-6.7-4.1-6.7-4.3c-0.1-0.3-0.4-0.5-0.7-0.5c-0.3,0-0.6,0.2-0.7,0.5C21.7,22.5,17.3,22.7,16.5,22.7z M10,18.7
				c0.7,1.1,2.6,3.7,6.3,3.7l0,0c0,0,0,0,0.1,0c0.8,0,5.1-0.2,6.9-4.2c0.2-0.4,0.5-0.6,0.9-0.6l0,0c0.4,0,0.7,0.2,0.9,0.6
				c0.1,0.2,1.9,4.2,6.6,4.2h0.1c0.5,0,4.7-0.1,6.7-3.8v-3.8H10V18.7z"/>
		</g>
	</g>
	<g class="st3">
		<g>
			<path class="st7" d="M40.4,20.1V14c0-0.5-0.4-0.9-0.9-0.9h-5.8H14.8H9c-0.5,0-0.9,0.4-0.9,0.9v6l1.8,1.6c1.3,1.3,3.4,2.7,6.4,2.7
				h0.1l0,0c0.9,0,5.3-0.2,7.8-3.9c1.1,1.6,3.5,3.9,7.5,3.9c0,0,0,0,0.1,0c0.5,0,4.1-0.1,6.8-2.7L40.4,20.1 M9.9,14.8h28.7v3.9
				c-2,3.7-6.3,3.8-6.8,3.8l0,0l0,0c-4.7,0-6.6-4.1-6.7-4.2c-0.1-0.3-0.5-0.5-0.8-0.5l0,0c-0.4,0-0.7,0.2-0.8,0.5
				c-1.9,4.1-6.1,4.3-7,4.3h-0.1l0,0c-3.9,0-5.8-2.7-6.4-3.8L9.9,14.8L9.9,14.8z"/>
			<path class="st7" d="M16.5,24.5c-0.1,0-0.1,0-0.1,0c-3.2,0-5.3-1.5-6.5-2.7L8,20.1v-6.2c0-0.5,0.4-1,1-1h30.5c0.5,0,1,0.4,1,1
				v6.2l-1.8,1.6c-2.7,2.6-6.4,2.7-6.8,2.7h-0.1c-4,0-6.4-2.4-7.5-3.8C21.7,24.3,17.3,24.5,16.5,24.5z M8.2,20l1.8,1.6
				c1.2,1.2,3.3,2.6,6.4,2.7h0.1c0.8,0,5.2-0.2,7.7-3.9l0.1-0.1l0.1,0.1c1,1.4,3.4,3.9,7.4,3.9c0,0,0,0,0.1,0c0.4,0,4-0.1,6.7-2.7
				l1.8-1.6v-6.1c0-0.4-0.4-0.8-0.8-0.8L9,13.1c-0.4,0-0.8,0.4-0.8,0.8V20z M16.5,22.7C16.4,22.7,16.4,22.7,16.5,22.7L16.5,22.7
				c-4,0-5.9-2.7-6.6-3.9l0,0v-4.1h28.9v4l0,0c-2,3.8-6.4,3.9-6.9,3.9h-0.1c-4.8,0-6.7-4.1-6.7-4.3c-0.1-0.3-0.4-0.5-0.7-0.5
				c-0.3,0-0.6,0.2-0.7,0.5C21.7,22.5,17.3,22.7,16.5,22.7z M10,18.7c0.7,1.1,2.6,3.7,6.3,3.7l0,0c0,0,0,0,0.1,0
				c0.8,0,5.1-0.2,6.9-4.2c0.2-0.4,0.5-0.6,0.9-0.6l0,0c0.4,0,0.7,0.2,0.9,0.6c0.1,0.2,1.9,4.2,6.6,4.2h0.1c0.5,0,4.7-0.1,6.7-3.8
				v-3.8H10V18.7z"/>
		</g>
	</g>
	<g class="st3">
		<g>
			<path class="st7" d="M48.7,37v-9.4c0-0.5-0.4-0.9-0.9-0.9h-7.4h-1.8h-2.8c-0.5,0-0.9,0.4-0.9,0.9s0.4,0.9,0.9,0.9h3.7h1.9h5.5
				v2.1l0,0v6.1V37c-2.4,3.5-6.7,3.4-6.8,3.4l0,0c-5,0-6.9-4.3-7-4.5c-0.1-0.3-0.5-0.5-0.8-0.5l0,0c-0.4,0-0.7,0.2-0.8,0.5
				c-2.1,4.6-7.2,4.5-7.4,4.5l0,0c-4.8,0-6.8-4-7-4.4c-0.1-0.3-0.5-0.6-0.8-0.6c-0.4,0-0.7,0.2-0.8,0.5c-2.1,4.6-7.2,4.5-7.4,4.5
				l0,0c-3.2,0-5.1-1.7-6.2-3.2V37v-6.8v-1.8h26.6c0.5,0,0.9-0.4,0.9-0.9s-0.4-0.9-0.9-0.9H9.9H8.1H0.7c-0.5,0-0.9,0.4-0.9,0.9v2.7
				V37l1.8,2.8C3,41.1,5,42.3,7.8,42.3h0.1c0.9,0,5.5-0.2,8.2-4.1c1.2,1.7,3.6,4.1,7.8,4.1c0.4,0,5.5,0.1,8.3-4.1
				c1.2,1.6,3.6,4.1,7.8,4.1c0.3,0,4,0,6.8-2.5L48.7,37z"/>
			<path class="st7" d="M24.1,42.4c-0.1,0-0.1,0-0.2,0c-4.2,0-6.7-2.5-7.8-4c-2.7,3.9-7.3,4.1-8.2,4.1c-0.1,0-0.1,0-0.1,0
				c-2.4,0-4.5-0.8-6.3-2.4l0,0l-1.8-2.8v-9.5c0-0.5,0.4-1,1-1h27.5c0.5,0,1,0.4,1,1c0,0.5-0.4,1-1,1H1.7v8.6c1.1,1.4,3,3.2,6.1,3.2
				l0,0c0.2,0,5.3,0.1,7.3-4.4c0.2-0.4,0.5-0.6,0.9-0.6s0.8,0.2,0.9,0.6c0.2,0.4,2.2,4.4,6.9,4.4l0,0c0.2,0,5.3,0.1,7.3-4.4
				c0.2-0.4,0.5-0.6,0.9-0.6l0,0c0.4,0,0.7,0.2,0.9,0.6c0.1,0.2,2,4.4,6.9,4.4l0,0c0.5,0,4.5-0.1,6.7-3.4v-8.4h-11c-0.5,0-1-0.4-1-1
				s0.4-1,1-1h12c0.3,0,0.5,0.1,0.7,0.3c0.2,0.2,0.3,0.4,0.3,0.7V37L47,39.8c-2.9,2.6-6.7,2.5-6.9,2.5c-4.2,0-6.7-2.5-7.8-4
				C29.6,42.1,25.2,42.4,24.1,42.4z M1.7,39.8c1.7,1.5,3.8,2.3,6.2,2.3H8c0.9,0,5.5-0.2,8.1-4.1l0.1-0.1l0.1,0.1
				c1.1,1.5,3.5,4.1,7.7,4.1c0.2,0,5.4,0.1,8.2-4.1l0.1-0.1l0.1,0.1c1.1,1.5,3.5,4.1,7.7,4.1c0.2,0,3.9,0.1,6.7-2.5l1.8-2.7v-9.4
				c0-0.2-0.1-0.4-0.2-0.6c-0.2-0.2-0.4-0.2-0.6-0.2h-12c-0.4,0-0.8,0.4-0.8,0.8s0.4,0.8,0.8,0.8H47V37l0,0
				c-2.3,3.3-6.4,3.5-6.8,3.5l0,0l0,0c-5.1,0-7-4.3-7.1-4.5c-0.1-0.3-0.4-0.5-0.7-0.5s-0.6,0.2-0.7,0.5c-0.9,1.9-2.4,3.3-4.5,4
				c-1.6,0.5-2.9,0.5-3,0.5l0,0c-4.9,0-6.9-4-7.1-4.5c-0.1-0.3-0.4-0.5-0.7-0.5c-0.3,0-0.6,0.2-0.7,0.5c-2.1,4.6-7.3,4.5-7.5,4.5
				l0,0c-3.2,0-5.2-1.8-6.3-3.3l0,0v-8.9h26.7c0.4,0,0.8-0.4,0.8-0.8s-0.4-0.8-0.8-0.8H1.1c-0.4,0-0.8,0.4-0.8,0.8V37L1.7,39.8z"/>
		</g>
	</g>
	<g class="st3">
		<g>
			<path class="st7" d="M21.9,2.3V12h-2.2V4.3l0,0l-1.8,0.9l-0.4-1.7L20,2.3L21.9,2.3 M21.9,1H20c-0.2,0-0.4,0-0.6,0.1L17,2.3
				c-0.6,0.3-0.9,0.9-0.7,1.5l0.4,1.7c0.1,0.4,0.4,0.7,0.7,0.9c0.2,0.1,0.4,0.1,0.6,0.1s0.4,0,0.5-0.1V12c0,0.7,0.6,1.3,1.3,1.3H22
				c0.7,0,1.3-0.6,1.3-1.3V2.3C23.3,1.6,22.7,1,21.9,1L21.9,1z"/>
			<path class="st7" d="M30.6,2.3v1.8h-3.7l-0.2,1.5c0.2,0,0.4,0,0.6,0c0.9,0,1.8,0.2,2.5,0.7C30.6,6.8,31,7.6,31,8.7
				c0,1.8-1.5,3.4-4.1,3.4c-1.2,0-2.1-0.3-2.7-0.5l0.4-1.7c0.4,0.2,1.3,0.5,2.2,0.5c0.9,0,1.9-0.4,1.9-1.5c0-1-0.8-1.6-2.7-1.6
				c-0.5,0-0.9,0-1.3,0.1l0.6-5h5.3 M30.6,1h-5.3c-0.7,0-1.2,0.5-1.3,1.2l-0.6,5c-0.1,0.4,0.1,0.8,0.4,1.1c0.1,0.1,0.3,0.2,0.4,0.3
				c0,0-0.1,0-0.1,0.1c-0.4,0.2-0.6,0.5-0.7,0.9L23,11.3c-0.1,0.6,0.1,1.2,0.7,1.5c0.8,0.4,2.1,0.7,3.3,0.7c1.6,0,2.9-0.5,3.9-1.3
				c1-0.9,1.6-2.1,1.6-3.4S32,6.3,31.1,5.5c0.6-0.1,1-0.7,1-1.3V2.3C32,1.6,31.4,1,30.6,1L30.6,1z M25.2,8.7c0.2,0,0.5,0,0.8,0
				c0.9,0,1.3,0.2,1.4,0.2l0,0c-0.1,0-0.3,0.1-0.6,0.1C26.1,9,25.5,8.8,25.2,8.7L25.2,8.7z"/>
		</g>
	</g>
</g>
<g id="Layer_5" class="st0">
	<g class="st3">
		<g>
			<path class="st4" d="M22.6,10.7L18,9.5c-0.5-0.1-1.1,0-1.5,0.3C16.2,10,16,10.4,16,10.7l-0.5,1.9c-0.1,0.3-0.1,0.7,0,1.1
				c0,0.1,0.1,0.2,0.2,0.3c-0.5,1-1,2.2-1.6,3.6l0,0c-0.5,1.2-1,2.5-1.5,3.9c-1.8,0.5-4,2.5-4.7,5L3.6,42.7
				c-0.4,1.6,0.6,3.2,2.3,3.6l4.4,1.2l0,0l4.4,1.2c0.3,0.1,0.6,0.1,0.9,0.1c0.5,0,1-0.1,1.5-0.3c0.7-0.4,1.3-1,1.5-1.8l0.6-2.2l0,0
				l0,0l3.7-14c0.7-2.4-0.3-5.4-1.6-6.7c0.3-2,0.6-4,0.8-5.7l0,0c0.1-0.9,0.2-1.6,0.2-2.3c0.4-0.2,0.7-0.6,0.9-1l0.6-2.1
				C24,11.8,23.5,10.9,22.6,10.7z M16.7,46.2c-0.1,0.2-0.2,0.5-0.5,0.6c-0.3,0.1-0.6,0.2-1,0.1l-4.4-1.2l0,0l-4.4-1.2
				c-0.7-0.2-1.1-0.8-0.9-1.3l0.4-1.3l11.3,3L16.7,46.2z M17.6,43.1L6.3,40l3.3-12.1l11.3,3L17.6,43.1z M21.2,29.1l-11.1-3
				c0.8-1.6,2.5-2.8,3.2-2.8c0.4,0,0.7-0.3,0.9-0.6c0.5-1.3,1-2.6,1.5-3.7h4.5c-0.2,1.3-0.3,2.7-0.6,4.1L19.3,23
				c-0.5-0.1-1,0.2-1.2,0.7c-0.1,0.5,0.2,1,0.7,1.2l1.1,0.3C20.5,25.6,21.3,27.4,21.2,29.1z M21.4,14L21.4,14L21.4,14
				c-0.1,0-0.1,0-0.1,0l0,0c0,0,0,0-0.1,0l0,0h-0.1l0,0c0,0,0,0-0.1,0l0,0l0,0l0,0l0,0l0,0c0,0,0,0-0.1,0l0,0c0,0,0,0-0.1,0.1l0,0
				c0,0,0,0,0,0.1l0,0l0,0l0,0l0,0l0,0l0,0l0,0c0,0,0,0,0,0.1v0.1l0,0l0,0v0.1c0,0.6-0.1,1.3-0.2,2.2h-3.9c0.5-1.1,0.9-2.1,1.3-2.9
				v-0.1l0,0l0,0v-0.1c0,0,0,0,0-0.1l0,0c0,0,0,0,0-0.1l0,0c0,0,0,0,0-0.1l0,0c0,0,0,0,0-0.1l0,0c0,0,0,0,0-0.1l0,0V13l0,0
				c0,0,0,0,0-0.1l0,0l0,0l0,0l0,0l0,0l0,0l0,0c0,0,0,0-0.1-0.1l0,0l0,0l0,0c0,0,0,0-0.1,0l0,0l0,0l0.4-1.6l4,1.1L21.4,14z"/>
		</g>
	</g>
	<g class="st3">
		<g>
			<path class="st4" d="M46.9,42.7l-4.3-16.2c-0.7-2.4-2.9-4.5-4.7-5c-0.5-1.4-1-2.7-1.5-3.9l0,0c-0.6-1.4-1.1-2.6-1.6-3.6
				c0.1-0.1,0.1-0.2,0.2-0.3c0.2-0.4,0.1-0.8,0-1.1l-0.5-1.9c0-0.4-0.2-0.7-0.5-0.9c-0.4-0.3-1-0.4-1.5-0.3l-4.6,1.2
				c-0.4,0.1-0.8,0.4-1,0.8c-0.2,0.4-0.3,0.8-0.2,1.2l0.6,2.1c0.1,0.5,0.5,0.8,0.9,1c0.1,0.7,0.1,1.5,0.2,2.3l0,0
				c0.2,1.7,0.5,3.7,0.8,5.7c-1.3,1.3-2.2,4.2-1.6,6.7l4.3,16.2c0.2,0.8,0.7,1.4,1.5,1.8c0.5,0.2,0.9,0.3,1.5,0.3
				c0.3,0,0.6,0,0.9-0.1l8.9-2.4c0.8-0.2,1.5-0.7,1.9-1.4C47,44.3,47.1,43.5,46.9,42.7z M29.2,14L29.2,14C29.1,14,29.1,14,29.2,14
				c-0.1,0-0.1,0-0.1,0l0,0l-0.4-1.6l4-1.1l0.4,1.6l0,0l0,0c0,0,0,0-0.1,0l0,0l0,0l0,0c0,0,0,0-0.1,0.1l0,0l0,0l0,0l0,0l0,0l0,0l0,0
				c0,0,0,0,0,0.1l0,0v0.1l0,0c0,0,0,0,0,0.1l0,0c0,0,0,0,0,0.1l0,0c0,0,0,0,0,0.1l0,0c0,0,0,0,0,0.1l0,0v0.1v0.1l0,0l0,0v0.1
				c0.4,0.8,0.8,1.8,1.3,2.9h-3.9c-0.1-0.8-0.1-1.5-0.2-2.2v-0.1l0,0l0,0v-0.1v-0.1l0,0l0,0l0,0l0,0l0,0l0,0l0,0c0,0,0,0,0-0.1l0,0
				c0,0,0,0-0.1-0.1l0,0l0,0l0,0l0,0l0,0l0,0c0,0,0,0-0.1,0l0,0C29.4,14.1,29.3,14.1,29.2,14L29.2,14z M30.6,25.1l1.1-0.3
				c0.5-0.1,0.8-0.7,0.7-1.2s-0.7-0.8-1.2-0.7L31,23c-0.2-1.4-0.4-2.8-0.6-4.1h4.5c0.5,1.2,1,2.4,1.5,3.7c0.1,0.4,0.5,0.6,0.9,0.6
				c0.7,0,2.4,1.2,3.2,2.8l-11.1,3C29.2,27.4,30,25.6,30.6,25.1z M32.9,43.1L29.6,31l11.3-3l3.3,12L32.9,43.1z M44.9,43.9
				c-0.2,0.3-0.5,0.5-0.8,0.6l-8.9,2.4c-0.3,0.1-0.7,0.1-1-0.1c-0.3-0.1-0.4-0.3-0.5-0.6l-0.4-1.3l11.3-3l0.4,1.3
				C45.1,43.4,45.1,43.7,44.9,43.9z"/>
		</g>
	</g>
	<g class="st3">
		<g>
			<path class="st4" d="M25.2,0.4c-0.5,0-0.9,0.4-0.9,0.9v2.5c0,0.5,0.4,0.9,0.9,0.9s0.9-0.4,0.9-0.9V1.4
				C26.2,0.8,25.8,0.4,25.2,0.4z"/>
		</g>
	</g>
	<g class="st3">
		<g>
			<path class="st4" d="M22.1,5.2L20.8,3c-0.3-0.5-0.8-0.6-1.3-0.3S18.9,3.5,19.2,4l1.3,2.2c0.2,0.3,0.5,0.5,0.8,0.5
				c0.2,0,0.3,0,0.5-0.1C22.2,6.2,22.3,5.6,22.1,5.2z"/>
		</g>
	</g>
	<g class="st3">
		<g>
			<path class="st4" d="M31,2.6c-0.5-0.3-1-0.1-1.3,0.3l-1.3,2.2c-0.3,0.5-0.1,1,0.3,1.3c0.2,0.1,0.3,0.1,0.5,0.1
				c0.3,0,0.6-0.2,0.8-0.5l1.3-2.2C31.6,3.5,31.4,2.9,31,2.6z"/>
		</g>
	</g>
	<path class="st8" d="M46.2,39.6L46.2,39.6l-3.3-12.2l0,0c0,0-0.3-1.4-0.5-1.7l-1.8,0.5l-11.1,3l-1.8,0.5c0,0-0.1,0.5,0.4,1.8
		l3.4,12.2h-0.1l0.5,1.7l2.1-0.5L44.9,42l1.8-0.5L46.2,39.6z M33.1,43.1L33.1,43.1L29.8,31L41,28l3.3,12.1L33.1,43.1z"/>
	<path class="st9" d="M37.9,39.6l-5-2.9l2.9-5l5,2.9L37.9,39.6z M35,36.1l2.3,1.3l1.3-2.3l-2.3-1.3L35,36.1z"/>
	<path class="st9" d="M12,39.6l-2.9-5l5-2.9l2.9,5L12,39.6z M11.3,35.1l1.3,2.3l2.3-1.3l-1.3-2.3L11.3,35.1z"/>
	<path class="st8" d="M23,29.6l-1.8-0.5l-11.1-3l-1.8-0.5C8,26,7.7,27.4,7.7,27.4l0,0L4.4,39.5h0.1L4,41.4l1.8,0.5l11.1,2.9l2.1,0.5
		l0.5-1.7h-0.1l3.4-12.2C23.1,30.2,23,29.6,23,29.6z M17.5,43.1L6.3,40l3.3-12.1L20.8,31L17.5,43.1L17.5,43.1z"/>
</g>
<g id="Layer_6" class="st0">
	<g class="st3">
		<g>
			<g>
				<path class="st4" d="M7.8,10.1C7.6,9.8,7,9.7,6.7,10l-0.8,0.6L5,11.3c-0.4,0.3-0.4,0.8-0.1,1.2S5.6,13,6,12.7L6.9,12l0.8-0.6
					C8.1,11,8.1,10.5,7.8,10.1z"/>
				<path class="st4" d="M5.5,13L5.5,13c-0.4,0-0.6-0.2-0.7-0.4c-0.3-0.4-0.3-1,0.2-1.3l1.7-1.4c0.2-0.2,0.4-0.2,0.7-0.2
					c0.3,0,0.5,0.2,0.6,0.4l0,0c0.2,0.2,0.2,0.4,0.2,0.7S8,11.3,7.8,11.4L6,12.8C5.9,12.9,5.7,13,5.5,13z M7.2,10
					c-0.2,0-0.3,0-0.4,0.1L5,11.5c-0.3,0.2-0.4,0.7-0.1,1c0.1,0.1,0.3,0.2,0.5,0.3c0.2,0,0.4,0,0.5-0.1l1.7-1.4
					c0.1-0.1,0.2-0.3,0.3-0.5c0-0.2,0-0.4-0.1-0.5l0,0C7.6,10.1,7.5,10,7.2,10L7.2,10z"/>
			</g>
			<g>
				<path class="st4" d="M12.6,6.4c0.3,0.4,0.8,0.4,1.2,0.1l0.8-0.6l0.9-0.7c0.4-0.3,0.4-0.8,0.1-1.2c-0.3-0.4-0.8-0.4-1.2-0.1
					l-0.9,0.7l-0.8,0.6C12.4,5.5,12.3,6,12.6,6.4z"/>
				<path class="st4" d="M13.3,6.8h-0.1c-0.3,0-0.5-0.2-0.6-0.4l0,0c-0.2-0.2-0.2-0.4-0.2-0.7c0-0.3,0.2-0.5,0.4-0.6l1.7-1.4
					c0.2-0.2,0.4-0.2,0.7-0.2s0.5,0.2,0.6,0.4C16,4.1,16,4.3,16,4.6s-0.2,0.5-0.4,0.6l-1.7,1.4C13.7,6.8,13.5,6.8,13.3,6.8z M15,3.8
					c-0.2,0-0.3,0.1-0.4,0.2l-1.7,1.4c-0.1,0.1-0.2,0.3-0.3,0.5c0,0.2,0,0.4,0.1,0.5l0,0c0.1,0.1,0.3,0.2,0.5,0.3
					c0.2,0,0.4,0,0.5-0.1l1.7-1.4c0.1-0.1,0.2-0.3,0.3-0.5c0-0.2,0-0.4-0.1-0.5C15.4,3.9,15.3,3.8,15,3.8L15,3.8z"/>
			</g>
			<g>
				<path class="st4" d="M9.9,11.3c-0.5-0.1-0.9,0.3-1,0.7l-0.1,1l-0.1,1.2c-0.1,0.5,0.3,0.9,0.7,0.9c0.2,0,0.4,0,0.6-0.2
					s0.3-0.3,0.3-0.6l0.1-1.2l0.1-1C10.6,11.8,10.3,11.3,9.9,11.3z"/>
				<path class="st4" d="M9.5,15.2H9.4c-0.3,0-0.5-0.2-0.6-0.4c-0.2-0.2-0.2-0.4-0.2-0.7L8.8,12c0-0.3,0.2-0.5,0.4-0.6
					c0.2-0.2,0.4-0.2,0.7-0.2l0,0l0,0l0,0c0.3,0,0.5,0.2,0.6,0.4c0.2,0.2,0.2,0.4,0.2,0.7l-0.3,2.2c0,0.3-0.2,0.5-0.4,0.6
					C9.9,15.2,9.7,15.2,9.5,15.2z M9.8,11.4c-0.2,0-0.3,0.1-0.4,0.2c-0.1,0.1-0.2,0.3-0.3,0.5l-0.3,2.2c0,0.2,0,0.4,0.1,0.5
					C9.1,14.9,9.2,15,9.4,15s0.4,0,0.5-0.1s0.2-0.3,0.3-0.5l0.3-2.2c0-0.2,0-0.4-0.1-0.5C10.2,11.5,10,11.4,9.8,11.4L9.8,11.4
					L9.8,11.4z"/>
			</g>
			<g>
				<path class="st4" d="M10.6,5.3c0.2,0,0.4,0,0.6-0.2c0.2-0.1,0.3-0.3,0.3-0.6l0.1-1l0.1-1.2c0.1-0.5-0.3-0.9-0.7-0.9
					c-0.5-0.1-0.9,0.3-0.9,0.7L10,3.3l-0.1,1C9.8,4.8,10.1,5.2,10.6,5.3z"/>
				<path class="st4" d="M10.7,5.4h-0.1c-0.3,0-0.5-0.2-0.6-0.4C9.8,4.8,9.7,4.6,9.7,4.3L10,2.1c0-0.3,0.2-0.5,0.4-0.6
					c0.2-0.2,0.4-0.2,0.7-0.2s0.5,0.2,0.6,0.4c0.2,0.2,0.2,0.4,0.2,0.7l-0.3,2.2c0,0.3-0.2,0.5-0.4,0.6C11.1,5.3,10.9,5.4,10.7,5.4z
					 M10.9,1.5c-0.2,0-0.3,0.1-0.4,0.2c-0.1,0.1-0.2,0.3-0.3,0.5L10,4.4c0,0.2,0,0.4,0.1,0.5s0.3,0.2,0.5,0.3l0,0
					c0.2,0,0.4,0,0.5-0.1s0.2-0.3,0.3-0.5l0.3-2.2c0-0.2,0-0.4-0.1-0.5C11.4,1.7,11.2,1.6,10.9,1.5C11,1.5,11,1.5,10.9,1.5z"/>
			</g>
			<g>
				<path class="st4" d="M6.9,8.5c0.2-0.1,0.3-0.3,0.3-0.6C7.3,7.5,6.9,7,6.5,7l-1-0.1L4.3,6.7C3.8,6.7,3.4,7,3.4,7.5
					C3.3,7.9,3.7,8.3,4.1,8.4l1.2,0.1l1,0.1C6.5,8.7,6.7,8.6,6.9,8.5z"/>
				<path class="st4" d="M6.4,8.8L6.4,8.8L4.1,8.5C3.6,8.4,3.2,8,3.3,7.4c0-0.3,0.2-0.5,0.4-0.6c0.2-0.2,0.4-0.2,0.7-0.2l2.2,0.3
					C6.8,6.9,7,7,7.1,7.2c0.2,0.2,0.2,0.4,0.2,0.7c0,0.3-0.2,0.5-0.4,0.6C6.8,8.7,6.6,8.8,6.4,8.8z M4.2,6.8C4,6.8,3.9,6.9,3.8,7
					C3.6,7.1,3.5,7.3,3.5,7.5c0,0.4,0.2,0.7,0.6,0.8l2.2,0.3c0.2,0,0.4,0,0.5-0.1l0,0C7,8.3,7.1,8.1,7.1,7.9c0-0.2,0-0.4-0.1-0.5
					C6.8,7.2,6.7,7.1,6.5,7.1L4.2,6.8C4.3,6.8,4.2,6.8,4.2,6.8z"/>
			</g>
			<g>
				<path class="st4" d="M13.2,8.6c-0.1,0.5,0.3,0.9,0.7,0.9l1,0.1l1.2,0.1c0.2,0,0.4,0,0.6-0.2C16.9,9.4,17,9.2,17,8.9
					C17.1,8.4,16.7,8,16.3,8l-1.1,0l-1-0.1C13.7,7.9,13.3,8.2,13.2,8.6z"/>
				<path class="st4" d="M16.2,9.9h-0.1l-2.2-0.3c-0.5-0.1-0.9-0.5-0.8-1l0,0c0-0.3,0.2-0.5,0.4-0.6c0.2-0.2,0.4-0.2,0.7-0.2
					l2.2,0.3c0.3,0,0.5,0.2,0.6,0.4c0.2,0.2,0.2,0.4,0.2,0.7S17,9.7,16.8,9.8C16.7,9.9,16.5,9.9,16.2,9.9z M13.4,8.6
					c0,0.4,0.2,0.7,0.6,0.8l2.2,0.3c0.2,0,0.4,0,0.5-0.1s0.2-0.3,0.3-0.5c0-0.2,0-0.4-0.1-0.5s-0.3-0.2-0.5-0.3L14.1,8
					c-0.2,0-0.4,0-0.5,0.1C13.5,8.3,13.4,8.5,13.4,8.6L13.4,8.6z"/>
			</g>
			<g>
				<path class="st4" d="M8.4,5.9c0.4-0.3,0.4-0.8,0.1-1.2L7.9,3.9L7.1,3C6.8,2.6,6.3,2.6,6,2.9S5.5,3.7,5.8,4l0.7,0.9l0.6,0.8
					C7.5,6.1,8,6.2,8.4,5.9z"/>
				<path class="st4" d="M7.8,6.2c-0.3,0-0.6-0.1-0.7-0.4L5.7,4.1c-0.3-0.4-0.3-1,0.2-1.3c0.2-0.2,0.4-0.2,0.7-0.2
					c0.3,0,0.5,0.2,0.6,0.4l1.4,1.7c0.2,0.2,0.2,0.4,0.2,0.7c0,0.3-0.2,0.5-0.4,0.6l0,0C8.3,6.1,8,6.2,7.8,6.2z M6.5,2.8
					C6.3,2.8,6.2,2.9,6,2.9C5.9,3.1,5.8,3.2,5.8,3.4s0,0.4,0.1,0.5l1.4,1.7C7.5,6,8,6,8.3,5.8l0,0c0.3-0.2,0.4-0.7,0.1-1L7,3.1
					C6.9,2.9,6.7,2.8,6.5,2.8L6.5,2.8z"/>
			</g>
			<g>
				<path class="st4" d="M46.5,28.9l-12.5-7L14.5,11l-2.1-1.2c-0.3-0.2-0.7-0.1-0.9,0.1s-0.4,0.6-0.3,0.9l0.7,2.3l6,21.5l3.9,13.8
					c0.1,0.4,0.4,0.6,0.8,0.6c5.6,0,11.1-1.9,15.5-5.4s7.6-8.4,8.9-13.8C46.9,29.4,46.8,29.1,46.5,28.9z M37,42.3
					c-4,3.1-8.8,4.9-13.8,5l-1.5-5.2c1.4-0.2,2.8-0.6,4.2-1.1c0.1,0,0.2-0.1,0.2-0.1c0.3-0.2,0.4-0.6,0.3-0.9l0,0c0,0,0,0,0-0.1
					c-0.2-0.4-0.6-0.6-1-0.4c-1.3,0.5-2.7,0.8-4.1,1.1L19.7,35c3-0.9,5.7-2.4,8.1-4.3s4.5-4.2,6.1-6.9l5.1,2.9
					c-2.1,4.9-5.9,9-10.7,11.6c-0.4,0.2-0.5,0.7-0.4,1.1c0,0,0,0,0,0.1l0,0c0.2,0.4,0.7,0.6,1.1,0.3c1.4-0.7,2.6-1.6,3.8-2.5
					c3.3-2.6,5.8-5.9,7.5-9.7l4.7,2.6C43.8,34.8,40.9,39.2,37,42.3z M17.5,27.2c1.3-0.6,2.6-1.3,3.8-2.1l0,0
					c0.3-0.3,0.4-0.8,0.2-1.1l0,0c-0.3-0.4-0.8-0.5-1.1-0.2c-1,0.7-2.2,1.3-3.3,1.9l-1.8-6.4c0.8-0.5,1.6-1,2.3-1.6s1.4-1.2,2.1-1.9
					l5.8,3.3c-0.8,1-1.7,1.9-2.6,2.8c-0.3,0.3-0.4,0.8-0.1,1.2l0,0c0.3,0.3,0.8,0.4,1.1,0.1l0,0c1.1-1,2.1-2,3-3.2l5.5,3.1
					c-3,4.9-7.7,8.7-13.2,10.4L17.5,27.2z M14.8,17.5l-1.5-5.4l4.9,2.7C17.1,15.9,16,16.8,14.8,17.5z"/>
				<path class="st4" d="M22.5,49.1L22.5,49.1c-0.5,0-0.8-0.3-0.9-0.7l-3.9-13.8L11,10.7c-0.1-0.4,0-0.8,0.3-1s0.7-0.3,1-0.1
					l2.1,1.2C34,21.7,34,21.7,34,21.7l12.5,7c0.4,0.2,0.6,0.6,0.5,1c-1.3,5.5-4.5,10.4-8.9,13.9C33.7,47.2,28.1,49.1,22.5,49.1z
					 M11.9,9.7c-0.2,0-0.3,0.1-0.4,0.2c-0.2,0.2-0.3,0.5-0.2,0.7L18,34.4c0,0,2.1,7.5,3.9,13.8c0.1,0.3,0.4,0.5,0.7,0.5l0,0
					c5.5,0,11-1.9,15.4-5.3c4.4-3.4,7.5-8.3,8.8-13.7c0.1-0.3-0.1-0.6-0.3-0.8l-12.5-7c-0.1,0-19.3-10.8-19.5-10.9l-2.1-1.2
					C12.2,9.8,12,9.7,11.9,9.7z M23,47.4L21.5,42h0.1c1.4-0.2,2.8-0.6,4.2-1.1c0.1,0,0.1-0.1,0.2-0.1c0.2-0.2,0.3-0.5,0.2-0.8
					c0,0,0,0,0-0.1c-0.2-0.3-0.5-0.5-0.9-0.4c-1.3,0.5-2.7,0.8-4.1,1.1h-0.1l-1.6-5.8h0.1c2.9-0.9,5.7-2.3,8.1-4.2
					c2.4-1.9,4.5-4.2,6-6.9l0.1-0.1l5.3,3v0.1c-2.1,5-5.9,9.1-10.7,11.6c-0.3,0.2-0.5,0.6-0.3,0.9l0,0c0.1,0.2,0.2,0.3,0.4,0.4
					c0.2,0.1,0.4,0,0.5-0.1c1.3-0.7,2.6-1.5,3.8-2.5c3.2-2.6,5.8-5.9,7.5-9.7l0.1-0.1l4.9,2.8v0.1c-1.3,4.8-4.2,9.2-8.2,12.3
					C33.1,45.5,28.2,47.3,23,47.4L23,47.4z M21.8,42.2l1.4,5c4.9-0.1,9.8-1.9,13.7-5s6.8-7.4,8.1-12.1l-4.5-2.5
					c-1.7,3.8-4.2,7.1-7.5,9.6c-1.2,0.9-2.5,1.8-3.9,2.5c-0.2,0.1-0.5,0.1-0.7,0.1c-0.2-0.1-0.4-0.2-0.6-0.5v-0.1
					c-0.2-0.4,0-1,0.4-1.2c4.7-2.5,8.5-6.5,10.6-11.4l-4.9-2.8c-1.6,2.6-3.6,4.9-6,6.8s-5.1,3.3-8.1,4.3l1.5,5.4
					c1.4-0.2,2.7-0.6,4-1c0.5-0.2,1,0.1,1.2,0.5c0,0,0,0,0,0.1c0.1,0.4,0,0.8-0.3,1.1c-0.1,0-0.2,0-0.3,0.1
					C24.6,41.6,23.2,41.9,21.8,42.2z M19.1,33.4l-1.8-6.2h0.1c1.3-0.6,2.6-1.3,3.8-2.1l0,0c0.3-0.2,0.4-0.6,0.1-1
					c-0.2-0.3-0.7-0.4-1-0.2c-1,0.7-2.2,1.3-3.3,1.9h0l-1.9-6.6h0.1c0.8-0.5,1.6-1,2.3-1.6c0.7-0.6,1.4-1.2,2.1-1.9l0.1-0.1l6,3.4
					l-0.1,0.1c-0.8,1-1.7,1.9-2.6,2.8c-0.3,0.3-0.3,0.7-0.1,1c0.3,0.3,0.7,0.3,1,0.1l0,0c1.1-1,2.1-2,2.9-3.2l0.1-0.1l5.7,3.2
					L32.5,23c-3,5-7.7,8.7-13.3,10.4L19.1,33.4z M17.6,27.3l1.6,5.8c5.4-1.7,10-5.3,13-10.2L27,20c-0.9,1.1-1.9,2.2-2.9,3.1l0,0
					c-0.4,0.3-1,0.3-1.3-0.1s-0.3-1,0.1-1.3c0.9-0.8,1.7-1.7,2.5-2.6l-5.6-3.2c-0.7,0.6-1.3,1.2-2.1,1.8c-0.7,0.6-1.5,1.1-2.2,1.6
					l1.7,6.2c1.1-0.5,2.2-1.1,3.2-1.8c0.4-0.3,1-0.2,1.3,0.2c0.3,0.4,0.2,1-0.2,1.3c0,0,0,0-0.1,0C20.2,26,18.9,26.7,17.6,27.3z
					 M14.7,17.7l-1.6-5.8l5.3,3L18.2,15c-1,1-2.2,1.9-3.4,2.7H14.7z M13.5,12.4l1.4,5C16,16.7,17,15.9,18,15L13.5,12.4z"/>
			</g>
		</g>
		<path class="st10" d="M18.2,14.9c-1,1-2.2,1.9-3.4,2.7l0.5,1.7c0.8-0.5,1.6-1,2.3-1.6c0.7-0.6,1.4-1.2,2.1-1.9L18.2,14.9z"/>
		<path class="st11" d="M17,25.6l0.5,1.6c0,0,5.1-2,9.4-7.4L25.5,19C25.5,19,20.9,23.9,17,25.6z"/>
		<path class="st10" d="M19.2,33.3l0.4,1.6c0,0,8.8-2.1,14.2-11.2l-1.7-0.8C32.2,22.9,28.9,30,19.2,33.3z"/>
		<path class="st11" d="M21.2,40.5l0.4,1.6c0,0,13.1-1.7,18.7-14.7l-1.5-0.8C38.9,26.6,35.1,37.5,21.2,40.5z"/>
	</g>
</g>
<g id="Layer_7" class="st0">
	<g class="st3">
		<g>
			<path class="st12" d="M27.4,11.4c-0.3,0-0.5-0.1-0.7-0.3s-0.3-0.4-0.4-0.7c0-0.3,0.1-0.6,0.3-0.8c0.5-0.6,0.8-1.3,0.8-2
				c0-1.7-1.2-3.4-3.1-4.4c-1.8,1-3.1,2.7-3.1,4.4c0,0.8,0.3,1.5,0.8,2c0.4,0.4,0.3,1.1-0.1,1.5c-0.2,0.2-0.4,0.3-0.7,0.3l0,0l0,0
				c-0.3,0-0.6-0.1-0.8-0.4c-0.8-1-1.3-2.2-1.3-3.5c0-2.6,2-5.3,4.8-6.5c0.3-0.1,0.6-0.1,0.8,0c2.8,1.2,4.8,3.9,4.8,6.5
				c0,1.3-0.5,2.5-1.3,3.5C28,11.3,27.7,11.4,27.4,11.4L27.4,11.4z"/>
		</g>
	</g>
	<g class="st3">
		<path class="st7" d="M35.4,49.8H13.1c-0.4,0-0.8-0.3-0.9-0.7l-2.9-12V37c0-0.1,0-0.1,0.1-0.2L9,36.7h30.4l-0.3,0.1
			c0.1,0,0.2,0.1,0.2,0.2v0.1l-2.9,12C36.3,49.5,35.9,49.8,35.4,49.8z M13.9,47.9h20.8l2.6-10.6h-3.6l-1.3,8.6
			c-0.1,0.5-0.5,0.8-0.9,0.8h-0.1c-0.5-0.1-0.9-0.6-0.8-1.1l1.2-8.3H28l-0.4,8.5c0,0.5-0.5,0.9-1,0.9s-0.9-0.5-0.9-1l0.4-8.4h-3.7
			l0.4,8.4c0,0.5-0.4,1-0.9,1l0,0c-0.5,0-0.9-0.4-1-0.9l-0.4-8.5h-3.7l1.2,8.3c0.1,0.5-0.3,1-0.8,1.1h-0.1c-0.5,0-0.9-0.4-0.9-0.8
			l-1.3-8.6h-3.6L13.9,47.9z"/>
	</g>
	<path class="st13" d="M27.3,22h-1.9v-7.2c0,0,0-0.1-0.1-0.1h-2.1c0,0-0.1,0-0.1,0.1V22h-1.9v-7.2c0-1.1,0.9-2,2-2h0.1v-2.1
		c0-0.5,0.4-1,1-1s1,0.4,1,1v2.1h0.1c1.1,0,2,0.9,2,2V22H27.3z"/>
	<g class="st3">
		<path class="st14" d="M41.7,34c0-2.5-1.7-4.5-4-5.1c0.2-0.6,0.3-1.2,0.3-1.9c0-2.9-2.3-5.2-5.2-5.2H15.9c-2.9,0-5.2,2.3-5.2,5.2
			c0,0.6,0.1,1.3,0.3,1.9c-2.3,0.5-4,2.6-4,5.1c0,1.5,1.1,2.8,2.5,3.1h29.7l0,0C40.6,36.8,41.7,35.5,41.7,34L41.7,34z M38.5,35.6H10
			c-0.9,0-1.6-0.7-1.6-1.6c0-2,1.7-3.7,3.7-3.7c0.3,0,0.5-0.2,0.7-0.4c0.1-0.3,0.1-0.6,0-0.8c-0.4-0.6-0.6-1.3-0.6-2.1
			c0-2,1.7-3.7,3.7-3.7h16.9c2,0,3.7,1.7,3.7,3.7c0,0.6-0.2,1.2-0.4,1.7H15.2c-0.4,0-0.8,0.3-0.8,0.8c0,0.4,0.3,0.8,0.8,0.8h21.2
			c2,0,3.7,1.7,3.7,3.7C40.1,34.9,39.4,35.6,38.5,35.6z"/>
		<path class="st14" d="M9.4,37.2L9.4,37.2c-1.6-0.3-2.7-1.7-2.7-3.3c0-2.5,1.6-4.6,4-5.2c-0.2-0.6-0.3-1.1-0.3-1.7
			c0-3,2.4-5.4,5.4-5.4h16.9c3,0,5.4,2.4,5.4,5.4c0,0.6-0.1,1.2-0.3,1.7c2.3,0.6,4,2.8,4,5.2l0,0l0,0c0,1.6-1.1,2.9-2.7,3.2l0,0
			L9.4,37.2z M15.8,23.5c-1.9,0-3.5,1.6-3.5,3.5c0,0.7,0.2,1.4,0.6,2c0.2,0.3,0.2,0.7,0.1,1c-0.2,0.3-0.5,0.5-0.8,0.5
			c-1.9,0-3.5,1.6-3.5,3.5c0,0.8,0.6,1.4,1.4,1.4h28.5c0.8,0,1.4-0.6,1.4-1.4c0-1.9-1.6-3.5-3.5-3.5H15.2c-0.5,0-1-0.4-1-1
			s0.4-1,1-1h20.7c0.2-0.5,0.4-1,0.4-1.5c0-1.9-1.6-3.5-3.5-3.5H15.8z"/>
	</g>
</g>
<g id="Layer_8" class="st0">
	<path class="st2" d="M9.5,12c-3.2,1.2-5.3,4.2-5.3,7.6c0,0.4,0.3,0.8,0.8,0.8s0.8-0.3,0.8-0.8c0-2.7,1.7-5.2,4.3-6.2
		c0.4-0.1,0.6-0.6,0.5-1C10.3,12.1,9.9,11.9,9.5,12z"/>
	<path class="st2" d="M40.2,12c3.2,1.2,5.3,4.2,5.3,7.6c0,0.4-0.3,0.8-0.8,0.8S44,20,44,19.6c0-2.7-1.7-5.2-4.3-6.2
		c-0.4-0.1-0.6-0.6-0.5-1C39.4,12.1,39.8,11.9,40.2,12z"/>
	<path class="st2" d="M15.7,15.3c0.4,0,0.8-0.3,0.8-0.8c0-4.6,3.8-8.4,8.4-8.4c0.4,0,0.8-0.3,0.8-0.8c0-0.4-0.3-0.8-0.8-0.8
		C19.4,4.5,15,9,15,14.4C14.9,14.9,15.3,15.3,15.7,15.3L15.7,15.3z"/>
	<path class="st2" d="M15.7,15.4c-0.5,0-0.9-0.4-0.9-0.9c0-5.5,4.5-10,10-10c0.5,0,0.9,0.4,0.9,0.9s-0.4,0.9-0.9,0.9
		c-4.6,0-8.3,3.7-8.3,8.3C16.6,15,16.2,15.4,15.7,15.4z M24.9,4.7c-5.4,0-9.8,4.4-9.8,9.8c0,0.4,0.3,0.7,0.7,0.7s0.7-0.3,0.7-0.7
		C16.5,9.8,20.3,6,25,6c0.4,0,0.7-0.3,0.7-0.7C25.5,5,25.2,4.7,24.9,4.7z"/>
	<path class="st2" d="M17,17.2c-0.1-0.4-0.6-0.6-1-0.5s-0.6,0.6-0.5,1c0.6,1.7,1.6,3.5,3,5.3c0.1,0.2,0.4,0.3,0.6,0.3
		s0.3-0.1,0.5-0.2c0.3-0.3,0.4-0.7,0.1-1.1C18.5,20.4,17.5,18.8,17,17.2z"/>
	<path class="st2" d="M19.2,23.4c-0.3,0-0.5-0.1-0.7-0.3c-1.4-1.8-2.4-3.6-3-5.3c-0.2-0.4,0.1-0.9,0.5-1.1c0.2-0.1,0.5-0.1,0.7,0
		s0.4,0.3,0.4,0.5l0,0c0.5,1.5,1.5,3.1,2.8,4.8c0.1,0.2,0.2,0.4,0.2,0.6S20,23,19.8,23.2C19.6,23.4,19.4,23.4,19.2,23.4z M16.3,16.8
		c-0.1,0-0.1,0-0.2,0c-0.3,0.1-0.5,0.5-0.4,0.8c0.6,1.7,1.6,3.4,3,5.2c0.2,0.3,0.6,0.3,0.9,0.1c0.1-0.1,0.2-0.3,0.2-0.4
		c0-0.2,0-0.3-0.1-0.5c-1.3-1.7-2.3-3.3-2.8-4.9l0,0c-0.1-0.2-0.2-0.3-0.3-0.4C16.5,16.9,16.4,16.8,16.3,16.8z"/>
	<path class="st2" d="M18.1,29.3c-0.3-0.3-0.8-0.3-1.1,0c-1.4,1.5-3.1,3-4.8,4.1C10,31.8,7.7,29.7,6,27.5c-2.2-2.8-3.3-5.5-3.3-7.9
		c0-4.7,3.4-8.7,8-9.5c0.4-0.1,0.7-0.5,0.6-0.9c-0.1-0.4-0.5-0.7-0.9-0.6C7.8,9,5.5,10.4,3.8,12.3c-1.7,2-2.7,4.6-2.7,7.2
		c0,2.7,1.3,5.8,3.7,8.9c1.7,2.2,4.1,4.4,6.4,6.1l-1.1,1.8c-0.1,0.2-0.1,0.5,0,0.8s0.4,0.4,0.7,0.4h0.7v10.8c0,0.4,0.3,0.8,0.8,0.8
		c0.4,0,0.8-0.3,0.8-0.8V37.5h0.7c0.4,0,0.8-0.3,0.8-0.8c0-0.1,0-0.2-0.1-0.3v-0.1l-1-1.8c1.7-1.2,3.4-2.7,4.8-4.2
		C18.4,30,18.4,29.5,18.1,29.3z M12.2,36l0.3-0.5l0.3,0.5H12.2z"/>
	<path class="st2" d="M45.9,12.4c-1.7-2-4-3.3-6.6-3.7c-0.4-0.1-0.8,0.2-0.9,0.6c-0.1,0.4,0.2,0.8,0.6,0.9c4.6,0.8,8,4.8,8,9.5
		c0,2.4-1.2,5.1-3.3,7.9c-1.7,2.2-4,4.3-6.3,5.9c-1.7-1.2-3.3-2.6-4.8-4.1c-0.3-0.3-0.8-0.3-1.1,0c-0.3,0.3-0.3,0.8,0,1.1
		c1.5,1.6,3.2,3.1,4.9,4.3l-1.1,1.7c-0.1,0.2-0.1,0.5,0,0.8c0.1,0.2,0.4,0.4,0.7,0.4h0.7v10.8c0,0.4,0.3,0.8,0.8,0.8
		c0.4,0,0.8-0.3,0.8-0.8V37.7H39c0.4,0,0.8-0.3,0.8-0.8c0-0.1,0-0.3-0.1-0.4c0,0,0,0,0-0.1l-1-1.8c2.4-1.7,4.7-3.9,6.4-6.1
		c2.4-3.1,3.7-6.1,3.7-8.9C48.6,17,47.6,14.4,45.9,12.4z M37.4,36l0.3-0.5L38,36H37.4z"/>
	<path class="st1" d="M24.7,1.6c-7.1,0-12.9,5.8-12.9,12.9c0,3.2,1.5,6.8,4.3,10.4c2.1,2.6,4.8,5.3,7.7,7.2l-1.3,2.2
		c-0.1,0.2-0.1,0.5,0,0.8c0.1,0.2,0.4,0.4,0.7,0.4h0.9v12.8c0,0.4,0.3,0.8,0.8,0.8c0.4,0,0.8-0.3,0.8-0.8V35.4h0.9
		c0.4,0,0.7-0.3,0.7-0.6c0-0.2,0-0.3,0-0.5L25.9,32c2.7-2,5.4-4.5,7.4-7.1c2.8-3.6,4.3-7.2,4.3-10.4C37.6,7.4,31.8,1.6,24.7,1.6z
		 M24.3,33.9l0.5-0.8l0.4,0.8H24.3z M32.1,24c-2,2.6-4.7,5.1-7.5,7c-2.8-1.9-5.5-4.4-7.5-7c-2.6-3.3-4-6.6-4-9.4
		c0-6.3,5.1-11.4,11.4-11.4s11.4,5.1,11.4,11.4C36.1,17.4,34.7,20.6,32.1,24z"/>
	<path class="st1" d="M15.7,15.3c0.4,0,0.8-0.3,0.8-0.8c0-4.6,3.8-8.4,8.4-8.4c0.4,0,0.8-0.3,0.8-0.8c0-0.4-0.3-0.8-0.8-0.8
		C19.4,4.5,15,9,15,14.4C14.9,14.9,15.3,15.3,15.7,15.3L15.7,15.3z"/>
	<path class="st1" d="M15.7,15.4c-0.5,0-0.9-0.4-0.9-0.9c0-5.5,4.5-10,10-10c0.5,0,0.9,0.4,0.9,0.9s-0.4,0.9-0.9,0.9
		c-4.6,0-8.3,3.7-8.3,8.3C16.5,15,16.2,15.4,15.7,15.4z M24.8,4.7c-5.4,0-9.8,4.4-9.8,9.8c0,0.4,0.3,0.7,0.7,0.7s0.7-0.3,0.7-0.7
		c0-4.7,3.8-8.5,8.5-8.5c0.4,0,0.7-0.3,0.7-0.7C25.5,5,25.2,4.7,24.8,4.7z"/>
	<path class="st1" d="M17,17.2c-0.1-0.4-0.6-0.6-1-0.5s-0.6,0.6-0.5,1c0.6,1.7,1.6,3.5,3,5.3c0.1,0.2,0.4,0.3,0.6,0.3
		s0.3-0.1,0.5-0.2c0.3-0.3,0.4-0.7,0.1-1.1C18.4,20.4,17.5,18.8,17,17.2z"/>
	<path class="st1" d="M19.2,23.4c-0.3,0-0.5-0.1-0.7-0.3c-1.4-1.8-2.4-3.6-3-5.3c-0.2-0.4,0.1-0.9,0.5-1.1c0.2-0.1,0.5-0.1,0.7,0
		s0.4,0.3,0.4,0.5l0,0c0.5,1.5,1.5,3.1,2.8,4.8c0.3,0.4,0.2,0.9-0.1,1.2C19.5,23.4,19.3,23.4,19.2,23.4z M16.2,16.8
		c-0.1,0-0.1,0-0.2,0c-0.2,0.1-0.3,0.2-0.4,0.3c-0.1,0.2-0.1,0.3,0,0.5c0.6,1.7,1.6,3.4,3,5.2c0.2,0.3,0.6,0.3,0.9,0.1
		c0.3-0.2,0.3-0.6,0.1-0.9c-1.3-1.7-2.3-3.3-2.8-4.9l0,0c-0.1-0.2-0.2-0.3-0.3-0.4C16.4,16.9,16.3,16.8,16.2,16.8z"/>
</g>
</svg>
