<?xml version="1.0" encoding="UTF-8" standalone="no"?><!DOCTYPE svg PUBLIC "-//W3C//DTD SVG 1.1//EN" "http://www.w3.org/Graphics/SVG/1.1/DTD/svg11.dtd"><svg width="100%" height="100%" viewBox="0 0 53 53" version="1.1" xmlns="http://www.w3.org/2000/svg" xmlns:xlink="http://www.w3.org/1999/xlink" xml:space="preserve" xmlns:serif="http://www.serif.com/" style="fill-rule:evenodd;clip-rule:evenodd;stroke-miterlimit:10;"><rect id="addImageIcon-Wap-new" x="0" y="0" width="52.8" height="52.8" style="fill:none;"/><clipPath id="_clip1"><rect x="0" y="0" width="52.8" height="52.8"/></clipPath><g clip-path="url(#_clip1)"><g id="Layer1"><circle cx="26.4" cy="26.4" r="26.15" style="fill:none;stroke:#d8d8d8;stroke-width:0.51px;"/></g><g><path d="M30.596,22.3l-1.211,0l-1.154,-1.73c-0.058,-0.115 -0.202,-0.173 -0.317,-0.173l-3.114,0c-0.116,0 -0.231,0.058 -0.318,0.173l-1.211,1.73l-1.124,0c-0.837,0 -1.529,0.692 -1.529,1.528l0,5.018c0,0.836 0.692,1.557 1.557,1.557l8.45,0c0.836,0 1.557,-0.721 1.557,-1.557l0,-5.018c-0.029,-0.836 -0.721,-1.528 -1.586,-1.528Zm0,7.325l-8.421,0c-0.432,0 -0.778,-0.375 -0.778,-0.808l0,-4.989c0,-0.432 0.346,-0.778 0.778,-0.778l1.327,0c0.115,0 0.231,-0.058 0.317,-0.173l1.211,-1.73l2.711,0l1.153,1.73c0.058,0.115 0.202,0.173 0.318,0.173l1.413,0c0.432,0 0.778,0.346 0.778,0.778l0,5.018c0,0.433 -0.375,0.779 -0.807,0.779Z" style="fill:#666;fill-rule:nonzero;"/><path d="M26.414,23.194c-1.499,0 -2.681,1.211 -2.681,2.682c0,1.47 1.211,2.682 2.681,2.682c1.471,0 2.682,-1.212 2.682,-2.682c0,-1.471 -1.182,-2.682 -2.682,-2.682Zm0,4.643c-1.067,0 -1.932,-0.865 -1.932,-1.932c0,-1.067 0.865,-1.932 1.932,-1.932c1.067,0 1.932,0.865 1.932,1.932c0,1.067 -0.865,1.932 -1.932,1.932Z" style="fill:#666;fill-rule:nonzero;"/><path d="M30.019,23.8c-0.288,0 -0.519,0.23 -0.519,0.519c0,0.288 0.231,0.519 0.519,0.519c0.288,0 0.519,-0.231 0.519,-0.519c0,-0.289 -0.231,-0.519 -0.519,-0.519Z" style="fill:#666;fill-rule:nonzero;"/></g></g></svg>