<?xml version="1.0" encoding="utf-8"?>
<!-- Generator: Adobe Illustrator 23.1.1, SVG Export Plug-In . SVG Version: 6.00 Build 0)  -->
<svg version="1.1" id="Layer_1" xmlns="http://www.w3.org/2000/svg" xmlns:xlink="http://www.w3.org/1999/xlink" x="0px" y="0px"
	 viewBox="0 0 507.3 528.8" style="enable-background:new 0 0 507.3 528.8;" xml:space="preserve">
<style type="text/css">
	.st0{opacity:0.73;fill:#F2F2F2;enable-background:new    ;}
	.st1{opacity:0.7;enable-background:new    ;}
	.st2{font-family:'OpenSans';}
	.st3{font-size:60px;}
	.st4{fill:#27A2DB;}
	.st5{fill:#2D93BA;}
	.st6{fill:#FFFFFF;}
	.st7{fill:#64798A;}
	.st8{fill:#3A556A;}
</style>
<title>celulares</title>
<circle class="st0" cx="253.6" cy="213.3" r="213.3"/>
<text transform="matrix(1 0 0 1 150.3333 511.59)" class="st1 st2 st3">Ropa Él</text>
<g>
	<rect x="160.1" y="94.9" class="st4" width="180.9" height="263.1"/>
	<g>
		<path class="st5" d="M105,151v47.9h55.1v-104l0,0C129.7,94.9,105,120,105,151z"/>
		<path class="st5" d="M396.2,151v47.9h-55.1v-104l0,0C371.5,94.9,396.2,120,396.2,151z"/>
	</g>
	<g>
		<rect x="105.6" y="175.1" class="st6" width="55.1" height="11.3"/>
		<rect x="341.7" y="175.1" class="st6" width="55.1" height="11.3"/>
		<rect x="160.1" y="333.4" class="st6" width="180.9" height="11.3"/>
		<rect x="160.1" y="326" class="st6" width="180.9" height="3.5"/>
	</g>
	<g>
		<polygon class="st7" points="218.9,137.4 182.3,137.4 182.3,94.9 218.9,62 		"/>
		<polygon class="st7" points="283.4,137.4 320.1,137.4 320.1,94.9 283.4,62 		"/>
	</g>
	<rect x="218.9" y="62" class="st8" width="64.5" height="33"/>
	<g>
		<polygon class="st5" points="218.9,94.9 218.9,137.4 238.3,137.4 251.2,148.2 264,137.4 283.4,137.4 283.4,94.9 		"/>
		<ellipse class="st5" cx="240.6" cy="160" rx="5.2" ry="5.3"/>
		<ellipse class="st5" cx="240.6" cy="184.7" rx="5.2" ry="5.3"/>
	</g>
</g>
</svg>
