<?xml version="1.0" encoding="utf-8"?>
<!-- Generator: Adobe Illustrator 23.1.1, SVG Export Plug-In . SVG Version: 6.00 Build 0)  -->
<svg version="1.1" id="Layer_1" xmlns="http://www.w3.org/2000/svg" xmlns:xlink="http://www.w3.org/1999/xlink" x="0px" y="0px"
	 viewBox="0 0 595.2 119.6" style="enable-background:new 0 0 595.2 119.6;" xml:space="preserve">
<style type="text/css">
	.st0{fill:#FFFFFF;stroke:#000000;stroke-miterlimit:10;}
	.st1{fill:#666666;}
	.st2{fill:#E10098;}
</style>
<rect x="-1.5" y="-1.4" class="st0" width="598.3" height="122.3"/>
<title>garantia</title>
<g>
	<path class="st1" d="M111,75.5c-9.4,0-15.8-6.6-15.8-15.5V60c-0.1-8.5,6.8-15.5,15.3-15.6c0.2,0,0.3,0,0.5,0
		c5.4,0,8.7,1.5,11.8,4.1l-4.1,5c-2.3-1.9-4.4-3-7.9-3c-4.8,0-8.6,4.3-8.6,9.4V60c0,5.5,3.8,9.5,9.1,9.5c2.2,0.1,4.4-0.6,6.2-1.8
		v-4.3h-6.7v-5.7h13.1v13.1C120.3,73.9,115.8,75.6,111,75.5z"/>
	<path class="st1" d="M150.5,75l-2.8-6.7H135l-2.8,6.7h-6.7l12.9-30.3h6.1L157.4,75L150.5,75z M141.4,52.7l-4,9.8h8L141.4,52.7z"/>
	<path class="st1" d="M178.1,75l-6.4-9.7h-5.2V75h-6.6V45h13.8c7.1,0,11.3,3.7,11.3,9.9V55c0.2,4.2-2.4,8-6.4,9.3l7.3,10.7L178.1,75
		z M178.3,55.2c0-2.8-2-4.3-5.2-4.3h-6.6v8.6h6.7C176.4,59.6,178.3,57.9,178.3,55.2L178.3,55.2z"/>
	<path class="st1" d="M211.2,75l-2.7-6.7h-12.7L193,75h-6.7l12.9-30.3h6.1L218.1,75L211.2,75z M202.1,52.7l-4,9.8h8L202.1,52.7z"/>
	<path class="st1" d="M241.7,75l-14.6-19.1V75h-6.5V45h6.1l14.1,18.5V45h6.5V75L241.7,75z"/>
	<path class="st1" d="M266,51.1v24h-6.6v-24h-9.2V45h24.9v6.1H266z"/>
	<path class="st1" d="M278.4,75V45h6.6V75L278.4,75z M278.9,42.6l4.8-7.6l5.6,2.4l-5.5,5.2L278.9,42.6z"/>
	<path class="st1" d="M312.7,75l-2.8-6.7h-12.7l-2.8,6.7h-6.8l12.9-30.3h6.1L319.6,75L312.7,75z M303.6,52.7l-4,9.8h8L303.6,52.7z"
		/>
	<path class="st2" d="M349.9,62.3h-10.2c-1.1,0-1.5-0.7-1.5-1.7c0-0.8,0-24.3,0-24.3h-3.6v27.6c0,1,0.7,1.8,1.7,1.9h13.6L349.9,62.3
		z"/>
	<path class="st2" d="M349.9,67.2v3.6h-18.2c-1.1,0-2.1-0.9-2.1-2c0,0,0-0.1,0-0.1c0-1.4,0-32.3,0-32.3h3.6V65
		c0,1.3,0.5,2.2,2.1,2.2L349.9,67.2z"/>
	<path class="st2" d="M324.6,36.3h3.6v33.3c-0.1,1.2,0.8,2.3,2,2.5c0.1,0,0.3,0,0.4,0h19.3v3.6h-20.9c-2.4,0-4.3-2-4.3-4.3
		L324.6,36.3z"/>
	<path class="st2" d="M339.5,36.3h3.6v19.6c-0.1,0.7,0.4,1.3,1.1,1.4c0.1,0,0.2,0,0.3,0h5.5v3.6h-8.6c-0.9,0.1-1.7-0.5-1.8-1.4
		c0-0.1,0-0.3,0-0.4V36.3z"/>
	<path class="st2" d="M344.4,49.8h10.2c1.1,0,1.5,0.7,1.5,1.6c0,0.8,0,24.3,0,24.3h3.6V48.2c0-1-0.8-1.8-1.7-1.9h-13.6L344.4,49.8z"
		/>
	<path class="st2" d="M344.4,44.9v-3.6h18.2c1.1,0,2.1,0.9,2.1,2c0,0,0,0.1,0,0.1c0,1.4,0,32.3,0,32.3h-3.6V47.1
		c0-1.3-0.5-2.2-2.1-2.2H344.4z"/>
	<path class="st2" d="M369.7,75.8h-3.6V42.4c0.1-1.2-0.8-2.3-2-2.5c-0.1,0-0.2,0-0.4,0h-19.3v-3.6h20.9c2.4,0,4.3,2,4.3,4.3
		L369.7,75.8z"/>
	<path class="st2" d="M354.8,75.8h-3.6V56.2c0.1-0.7-0.4-1.3-1.1-1.4c-0.1,0-0.2,0-0.3,0h-5.5v-3.6h8.6c0.9-0.1,1.7,0.6,1.8,1.5
		c0,0.1,0,0.2,0,0.3V75.8z"/>
	<path class="st2" d="M452.3,58.7c0-1.2,0.9-2.2,2.1-2.2c0,0,0,0,0.1,0h3.2v-3.6h-3.8c-2.9,0-5.2,2.3-5.2,5.2c0,0,0,0,0,0v17.6h3.6
		V58.7z"/>
	<rect x="395.7" y="52.8" class="st2" width="3.6" height="23"/>
	<path class="st2" d="M457.2,84.6h3.7V72.5c4.8,4.7,12.5,4.6,17.2-0.2c0.6-0.6,1.2-1.3,1.6-2.1c3.5,5.7,11,7.5,16.7,4
		c1.6-1,3-2.3,4-4c3.5,5.7,11,7.5,16.7,4c5.7-3.5,7.5-11,4-16.7c-3.5-5.7-11-7.5-16.7-4c-1.6,1-3,2.4-4,4c-3.5-5.7-11-7.5-16.7-4
		c-1.6,1-3,2.4-4,4c-3.5-5.7-11-7.5-16.7-4c-3.6,2.2-5.8,6.1-5.8,10.3L457.2,84.6z M510.6,55.3c4.7,0,8.5,3.8,8.5,8.5
		s-3.8,8.5-8.5,8.5c-4.7,0-8.5-3.8-8.5-8.5c0,0,0,0,0,0C502.1,59.1,505.9,55.3,510.6,55.3 M489.9,55.3c4.7,0,8.5,3.8,8.5,8.5
		c0,4.7-3.8,8.5-8.5,8.5c-4.7,0-8.5-3.8-8.5-8.5c0,0,0,0,0,0C481.4,59.1,485.3,55.3,489.9,55.3 M469.3,55.3c4.7,0,8.5,3.8,8.5,8.5
		c0,4.7-3.8,8.5-8.5,8.5c-4.7,0-8.5-3.8-8.5-8.5c0,0,0,0,0,0C460.8,59.1,464.6,55.3,469.3,55.3"/>
	<path class="st2" d="M434.7,75.8c5.5,0,10.4-3.8,11.7-9.2h-3.5c-1.6,4.5-6.5,6.9-11,5.3c-3.2-1.1-5.5-4.1-5.8-7.5h20.6v-0.7
		c0-6.6-5.4-12-12-12c-6.6,0-12,5.4-12,12S428.1,75.8,434.7,75.8C434.7,75.8,434.7,75.8,434.7,75.8 M434.7,55.2c3.7,0,7,2.4,8.2,6
		h-16.4C427.7,57.6,431,55.2,434.7,55.2"/>
	<polygon class="st2" points="414.7,75.8 423.8,52.8 419.7,52.8 412.3,71.3 405,52.8 400.9,52.8 410,75.8 	"/>
	<rect x="524.5" y="44.9" class="st2" width="3.6" height="30.8"/>
	<path class="st2" d="M383.3,44.9v25c-0.1,1.1,0.7,2.1,1.9,2.2c0.1,0,0.2,0,0.3,0h8.9v3.6H382c-1.2,0.1-2.3-0.8-2.4-2
		c0-0.1,0-0.2,0-0.3V44.9H383.3z"/>
	<path class="st2" d="M534.7,49.7c-1.3,0-2.4-1.1-2.4-2.4s1.1-2.4,2.4-2.4c1.3,0,2.4,1.1,2.4,2.4S536.1,49.7,534.7,49.7 M534.7,45.3
		c-1.1,0-2,0.9-2,2c0,1.1,0.9,2,2,2c1.1,0,2-0.9,2-2C536.7,46.2,535.8,45.3,534.7,45.3 M533.7,46.1h1.2c0.6,0,0.8,0.4,0.8,0.7
		c0,0.4-0.3,0.7-0.7,0.7c0,0,0,0,0,0l0,0c0.2,0.1,0.4,0.3,0.6,0.6l0.3,0.5h-0.5l-0.2-0.4c-0.3-0.6-0.5-0.7-0.8-0.7h-0.2v1.1h-0.4
		V46.1z M534.7,47.2c0.3,0,0.5-0.1,0.5-0.4c0-0.3-0.2-0.4-0.5-0.4h-0.7v0.8L534.7,47.2z"/>
	<rect x="395.7" y="44.9" class="st2" width="3.6" height="3.7"/>
	<path class="st1" d="M85,75.6H63.7c-2.6,0-4.7-2.1-4.7-4.7V49.6c0-2.6,2.1-4.7,4.7-4.7H85c2.6,0,4.7,2.1,4.7,4.7v21.3
		C89.8,73.5,87.7,75.6,85,75.6z M63.7,46.5c-1.7,0-3.1,1.4-3.1,3.1v21.3c0,1.7,1.4,3.1,3.1,3.1H85c1.7,0,3.1-1.4,3.1-3.1V49.6
		c0-1.7-1.4-3.1-3.1-3.1H63.7z"/>
	<path class="st2" d="M89.3,44.6c-1.1-1.1-3.4-1.3-4.4,0L71.2,62l-7.7-6.4c-3.1-2.6-7.5,1.9-4.4,4.4l10.3,8.6c1.2,1,3.3,1.4,4.4,0
		L89.3,49C90.3,47.7,90.5,45.9,89.3,44.6z"/>
</g>
</svg>
