<?xml version="1.0" encoding="utf-8"?>
<!-- Generator: Adobe Illustrator 23.1.1, SVG Export Plug-In . SVG Version: 6.00 Build 0)  -->
<svg version="1.1" id="Layer_1" xmlns="http://www.w3.org/2000/svg" xmlns:xlink="http://www.w3.org/1999/xlink" x="0px" y="0px"
	 viewBox="0 0 507.3 528.8" style="enable-background:new 0 0 507.3 528.8;" xml:space="preserve">
<style type="text/css">
	.st0{opacity:0.73;fill:#F2F2F2;enable-background:new    ;}
	.st1{opacity:0.7;enable-background:new    ;}
	.st2{font-family:'OpenSans';}
	.st3{font-size:60px;}
	.st4{fill:#303C42;}
	.st5{fill:#8D6E63;}
	.st6{opacity:0.1;enable-background:new    ;}
	.st7{fill:#5C6671;}
	.st8{fill:url(#SVGID_1_);}
	.st9{fill:url(#SVGID_2_);}
	.st10{fill:url(#SVGID_3_);}
	.st11{fill:url(#SVGID_4_);}
</style>
<title>celulares</title>
<circle class="st0" cx="253.6" cy="213.3" r="213.3"/>
<text transform="matrix(1 0 0 1 153.8356 511.59)" class="st1 st2 st3">Relojes</text>
<g>
	<path class="st4" d="M339.7,162.8h-6.3v-12.7c0-14-11.4-25.4-25.4-25.4h-0.6l-5.8-57.8c-0.3-3.2-3.1-5.7-6.3-5.7h-88.9
		c-3.3,0-6,2.5-6.3,5.7l-5.8,57.8h-0.6c-14,0-25.4,11.4-25.4,25.4v127c0,14,11.4,25.4,25.4,25.4h0.6l5.8,57.8
		c0.3,3.2,3.1,5.7,6.3,5.7h88.9c3.3,0,6-2.5,6.3-5.7l5.8-57.8h0.6c14,0,25.4-11.4,25.4-25.4c3.5,0,6.3-2.8,6.3-6.3v-38.1
		c0-3.5-2.8-6.3-6.3-6.3v-25.4h6.3c3.5,0,6.3-2.8,6.3-6.3v-25.4C346,165.7,343.2,162.8,339.7,162.8z"/>
	<polygon class="st5" points="212.1,73.9 289.5,73.9 294.5,124.7 207,124.7 	"/>
	<polygon class="st6" points="208.2,112 207,124.7 294.5,124.7 293.3,112 	"/>
	<polygon class="st5" points="289.5,353.3 212.1,353.3 207,302.5 294.5,302.5 	"/>
	<polygon class="st6" points="293.3,315.2 294.5,302.5 207,302.5 208.2,315.2 	"/>
	<path class="st7" d="M320.6,277.1c0,7-5.7,12.7-12.7,12.7H193.6c-7,0-12.7-5.7-12.7-12.7v-127c0-7,5.7-12.7,12.7-12.7h114.3
		c7,0,12.7,5.7,12.7,12.7L320.6,277.1L320.6,277.1z"/>
	
		<linearGradient id="SVGID_1_" gradientUnits="userSpaceOnUse" x1="-171.7847" y1="-65.624" x2="-169.6174" y2="-64.6127" gradientTransform="matrix(21.3333 0 0 21.3333 3863.3286 1569.3529)">
		<stop  offset="0" style="stop-color:#FFFFFF;stop-opacity:5.000000e-02"/>
		<stop  offset="1" style="stop-color:#FFFFFF;stop-opacity:0"/>
	</linearGradient>
	<polygon class="st8" points="180.9,207.3 250.8,137.4 269.8,137.4 180.9,226.3 	"/>
	
		<linearGradient id="SVGID_2_" gradientUnits="userSpaceOnUse" x1="-171.253" y1="-64.9787" x2="-168.5469" y2="-63.7165" gradientTransform="matrix(21.3333 0 0 21.3333 3863.3286 1569.3529)">
		<stop  offset="0" style="stop-color:#FFFFFF;stop-opacity:5.000000e-02"/>
		<stop  offset="1" style="stop-color:#FFFFFF;stop-opacity:0"/>
	</linearGradient>
	<polygon class="st9" points="180.9,245.4 288.9,137.4 301.6,137.4 180.9,258.1 	"/>
	
		<linearGradient id="SVGID_3_" gradientUnits="userSpaceOnUse" x1="-173.2192" y1="-65.3593" x2="-165.4598" y2="-61.7414" gradientTransform="matrix(21.3333 0 0 21.3333 3863.3286 1569.3529)">
		<stop  offset="0" style="stop-color:#FFFFFF;stop-opacity:0.2"/>
		<stop  offset="1" style="stop-color:#FFFFFF;stop-opacity:0"/>
	</linearGradient>
	<path class="st10" d="M320.6,277.1c0,7-5.7,12.7-12.7,12.7H193.6c-7,0-12.7-5.7-12.7-12.7v-127c0-7,5.7-12.7,12.7-12.7h114.3
		c7,0,12.7,5.7,12.7,12.7L320.6,277.1L320.6,277.1z"/>
	
		<linearGradient id="SVGID_4_" gradientUnits="userSpaceOnUse" x1="-173.9424" y1="-65.6968" x2="-164.7366" y2="-61.4039" gradientTransform="matrix(21.3333 0 0 21.3333 3863.3286 1569.3529)">
		<stop  offset="0" style="stop-color:#FFFFFF;stop-opacity:0.2"/>
		<stop  offset="1" style="stop-color:#FFFFFF;stop-opacity:0"/>
	</linearGradient>
	<path class="st11" d="M339.7,162.8h-6.3v-12.7c0-14-11.4-25.4-25.4-25.4h-0.6l-5.8-57.8c-0.3-3.2-3.1-5.7-6.3-5.7h-88.9
		c-3.3,0-6,2.5-6.3,5.7l-5.8,57.8h-0.6c-14,0-25.4,11.4-25.4,25.4v127c0,14,11.4,25.4,25.4,25.4h0.6l5.8,57.8
		c0.3,3.2,3.1,5.7,6.3,5.7h88.9c3.3,0,6-2.5,6.3-5.7l5.8-57.8h0.6c14,0,25.4-11.4,25.4-25.4c3.5,0,6.3-2.8,6.3-6.3v-38.1
		c0-3.5-2.8-6.3-6.3-6.3v-25.4h6.3c3.5,0,6.3-2.8,6.3-6.3v-25.4C346,165.7,343.2,162.8,339.7,162.8z"/>
</g>
</svg>
