<?xml version="1.0" encoding="utf-8"?>
<!-- Generator: Adobe Illustrator 23.1.1, SVG Export Plug-In . SVG Version: 6.00 Build 0)  -->
<svg version="1.1" id="Layer_1" xmlns="http://www.w3.org/2000/svg" xmlns:xlink="http://www.w3.org/1999/xlink" x="0px" y="0px"
	 viewBox="0 0 507.3 528.8" style="enable-background:new 0 0 507.3 528.8;" xml:space="preserve">
<style type="text/css">
	.st0{opacity:0.73;fill:#F2F2F2;enable-background:new    ;}
	.st1{opacity:0.7;enable-background:new    ;}
	.st2{font-family:'OpenSans';}
	.st3{font-size:60px;}
	.st4{fill:#232575;}
	.st5{fill:#6A8092;}
	.st6{fill:#9EACBA;}
	.st7{fill:#BDCFDF;}
	.st8{fill:#FFDB58;}
	.st9{fill:#6194D1;}
	.st10{fill:#77A9F2;}
</style>
<title>celulares</title>
<circle class="st0" cx="253.6" cy="213.3" r="213.3"/>
<text transform="matrix(1 0 0 1 104.3333 511.59)" class="st1 st2 st3">Videojuegos</text>
<path class="st4" d="M399.8,133.4H109.2c-3.4,0-6.1,2.6-6.1,5.9v15.3c0,3.2,2.7,5.9,6.1,5.9h290.7c3.4,0,6.1-2.6,6.1-5.9v-15.3
	C406,136.1,403.2,133.4,399.8,133.4z"/>
<g>
	<path class="st5" d="M254.5,133.4H109.2c-3.4,0-6.1,2.6-6.1,5.9v15.3c0,3.2,2.7,5.9,6.1,5.9h145.3V133.4z"/>
	<path class="st5" d="M410.8,90H98.2c-5.1,0-9.2,3.9-9.2,8.8v29.4c0,4.9,4.1,8.8,9.2,8.8h312.7c5.1,0,9.2-3.9,9.2-8.8V98.8
		C420,93.9,415.9,90,410.8,90z"/>
</g>
<g>
	<path class="st6" d="M254.5,90H98.2c-5.1,0-9.2,3.9-9.2,8.8v29.4c0,4.9,4.1,8.8,9.2,8.8h156.3V90z"/>
	<path class="st6" d="M410.8,146.9H98.2c-5.1,0-9.2,3.9-9.2,8.8v80.4c0,4.9,4.1,8.8,9.2,8.8h312.7c5.1,0,9.2-3.9,9.2-8.8v-80.4
		C420,150.8,415.9,146.9,410.8,146.9z"/>
</g>
<path class="st7" d="M254.5,146.9H98.2c-5.1,0-9.2,3.9-9.2,8.8v80.4c0,4.9,4.1,8.8,9.2,8.8h156.3V146.9z"/>
<path class="st8" d="M139.4,180.3H120c-3.6,0-6.5,2.8-6.5,6.2s2.9,6.2,6.5,6.2h19.4c3.6,0,6.5-2.8,6.5-6.2S143,180.3,139.4,180.3z"
	/>
<g>
	<path class="st4" d="M347.6,207.7h-19.4c-5.4,0-9.7,4.2-9.7,9.3c0,5.1,4.3,9.3,9.7,9.3h19.4c5.4,0,9.7-4.2,9.7-9.3
		C357.3,211.8,352.9,207.7,347.6,207.7z"/>
	<path class="st4" d="M180.8,207.7h-19.4c-5.4,0-9.7,4.2-9.7,9.3c0,5.1,4.3,9.3,9.7,9.3h19.4c5.4,0,9.7-4.2,9.7-9.3
		C190.5,211.8,186.2,207.7,180.8,207.7z"/>
</g>
<path class="st9" d="M403.9,345.9l-22.4-97.5c-2.7-11.9-10.1-22-20.8-28.6c-10.7-6.5-23.4-8.7-35.7-6.1l-23.4,5h-94.2l-23.4-5
	c-12.4-2.6-25.1-0.5-35.7,6.1c-10.7,6.5-18.1,16.7-20.8,28.6l-22.4,97.5c-1.4,6.1-0.2,12.4,3.3,17.7c3.5,5.3,8.9,8.9,15.3,10.3
	c13.2,2.8,26.7,0.5,38.1-6.5c11.4-7,19.2-17.8,22.2-30.5l2.3-10.1c5.9,5,13.6,8.1,22.1,8.1c14.6,0,27.1-9.1,31.6-21.7l29.4,0
	c4.7,12.3,17,21.1,31.4,21.1c8.4,0,16.1-3,22-8l2.4,10.6c2.9,12.7,10.8,23.5,22.2,30.5c8.2,5,17.5,7.6,27.1,7.6
	c3.7,0,7.4-0.4,11-1.2c6.4-1.4,11.8-5,15.3-10.3C404.2,358.3,405.3,352,403.9,345.9z"/>
<path class="st10" d="M254.5,218.7h-47.1l-23.4-5c-12.4-2.6-25.1-0.5-35.7,6.1c-10.7,6.5-18.1,16.7-20.8,28.6l-22.4,97.5
	c-1.4,6.1-0.2,12.4,3.3,17.7c3.5,5.3,8.9,8.9,15.3,10.3c13.2,2.8,26.7,0.5,38.1-6.5c11.4-7,19.2-17.8,22.2-30.5l2.3-10.1
	c5.9,5,13.6,8.1,22.1,8.1c14.6,0,27.1-9.1,31.6-21.7l14.6,0V218.7z"/>
<g>
	<ellipse class="st7" cx="344.7" cy="254" rx="9.4" ry="9"/>
	<ellipse class="st7" cx="344.7" cy="282.6" rx="9.4" ry="9"/>
	<ellipse class="st7" cx="359.6" cy="268.3" rx="9.4" ry="9"/>
	<ellipse class="st7" cx="329.8" cy="268.3" rx="9.4" ry="9"/>
</g>
<path class="st4" d="M285,270.2H224c-3.1,0-5.7-2.4-5.7-5.4v-26.4c0-3,2.5-5.4,5.7-5.4H285c3.1,0,5.7,2.4,5.7,5.4v26.4
	C290.7,267.7,288.2,270.2,285,270.2z"/>
<ellipse class="st5" cx="208.4" cy="302.8" rx="19.1" ry="18.4"/>
<g>
	<ellipse class="st4" cx="300.6" cy="302.2" rx="19.1" ry="18.4"/>
	<path class="st4" d="M185.9,256.5h-6.7c-1.2,0-2.1-0.9-2.1-2.1V248c0-1.1-1-2.1-2.1-2.1h-10.4c-1.2,0-2.1,0.9-2.1,2.1v6.4
		c0,1.1-1,2.1-2.1,2.1h-6.7c-1.2,0-2.1,0.9-2.1,2.1v10c0,1.1,1,2.1,2.1,2.1h6.7c1.2,0,2.1,0.9,2.1,2.1v6.4c0,1.1,1,2.1,2.1,2.1H175
		c1.2,0,2.1-0.9,2.1-2.1v-6.4c0-1.1,1-2.1,2.1-2.1h6.7c1.2,0,2.1-0.9,2.1-2.1v-10C188,257.4,187.1,256.5,185.9,256.5z"/>
</g>
</svg>
