<svg xmlns="http://www.w3.org/2000/svg" width="191" height="191" viewBox="0 0 191 191">
  <defs>
    <style>
      .cls-1 {
        fill: #fffd45;
      }

      .cls-2 {
        fill: #cb226a;
      }

      .cls-3 {
        fill: #ff318e;
      }

      .cls-4 {
        fill: #f1f1f1;
      }

      .cls-5 {
        fill: #c7c7c7;
      }

      .cls-6 {
        fill: #ff85bb;
      }
    </style>
  </defs>
  <title>Asset 11</title>
  <g id="Layer_2" data-name="Layer 2">
    <g id="Layer_1-2" data-name="Layer 1">
      <circle class="cls-1" cx="95.5" cy="95.5" r="95.5"/>
      <g>
        <rect class="cls-2" x="32.8" y="88.7" width="125.5" height="62.7"/>
        <polygon class="cls-3" points="95.5 25.9 32.8 88.7 158.2 88.7 95.5 25.9"/>
        <polygon id="_Path_" data-name="&lt;Path&gt;" class="cls-4" points="143.5 44.2 47.5 44.2 47.5 101.4 95.5 133.1 143.5 101.1 143.5 44.2"/>
        <rect class="cls-5" x="63.2" y="63.4" width="64.6" height="4.2"/>
        <rect class="cls-5" x="63.2" y="73.9" width="64.6" height="4.2"/>
        <rect class="cls-5" x="63.2" y="84.4" width="64.6" height="4.2"/>
        <rect class="cls-5" x="63.2" y="95" width="64.6" height="4.2"/>
        <polygon class="cls-3" points="158.2 88.7 95.5 120 95.5 151.4 158.2 151.4 158.2 88.7"/>
        <polygon class="cls-6" points="32.8 88.7 95.5 120 95.5 151.4 32.8 151.4 32.8 88.7"/>
      </g>
    </g>
  </g>
</svg>
