<?xml version="1.0" encoding="utf-8"?>
<!-- Generator: Adobe Illustrator 18.0.0, SVG Export Plug-In . SVG Version: 6.00 Build 0)  -->
<!DOCTYPE svg PUBLIC "-//W3C//DTD SVG 1.1//EN" "http://www.w3.org/Graphics/SVG/1.1/DTD/svg11.dtd">
<svg version="1.1" id="Layer_1" xmlns="http://www.w3.org/2000/svg" xmlns:xlink="http://www.w3.org/1999/xlink" x="0px" y="0px" width="120" height="40"
	 viewBox="0 0 120 39.6" enable-background="new 0 0 120 39.6" xml:space="preserve">
	   <defs>
     <style>
		.cls1{
		  fill:#ff009d;
		}
	 </style>
  </defs>
<g>
	<path class="cls1" d="M6.6,16.7h7.7v-2H8.5c-0.6,0-0.9-0.4-0.9-0.9c0-0.4,0-13.7,0-13.7h-2v15.6C5.6,16.2,6.2,16.7,6.6,16.7z"/>
	<path class="cls1"  d="M2.8,18.3c0,0.7,0.5,1.2,1.2,1.2h10.3v-2H6c-0.9,0-1.2-0.5-1.2-1.3V0h-2C2.8,0,2.8,17.5,2.8,18.3z"/>
	<path class="cls1"  d="M2.4,22.3h11.8v-2H3.4c-1,0-1.3-0.7-1.3-1.4V0H0v19.8C0,21.1,1.1,22.3,2.4,22.3z"/>
	<path class="cls1"  d="M9.4,13.9h4.8v-2h-3.1c-0.6,0-0.8-0.4-0.8-0.8V0h-2v12.9C8.4,13.4,8.7,13.9,9.4,13.9z"/>
	<path class="cls1"  d="M19.8,6.7c0-0.7-0.6-1.1-1-1.1h-7.7l0,2H17c0.6,0,0.8,0.4,0.8,0.9c0,0.4,0,13.7,0,13.7h2V6.7z"/>
	<path class="cls1"  d="M22.6,22.3c0,0,0-17.5,0-18.3c0-0.7-0.5-1.2-1.2-1.2H11.2v2h8.2c0.9,0,1.2,0.5,1.2,1.3v16.2H22.6z"/>
	<path class="cls1"  d="M23.4,3.4v18.8h2V2.5C25.4,1.1,24.4,0,23,0H11.2v2h10.9C23.1,2,23.4,2.7,23.4,3.4z"/>
	<path class="cls1"  d="M17.1,22.3V9.4c0-0.5-0.3-1-1-1h-4.8v2h3.1c0.6,0,0.8,0.4,0.8,0.8v11.1H17.1z"/>
	<path class="cls1"  d="M72.1,12.6c0-0.7,0.5-1.3,1.2-1.3h1.8v-2H73c-1.6,0-2.9,1.3-2.9,3v10h2.1L72.1,12.6z"/>
	<rect class="cls1" x="40.2" y="9.3" width="2.1" height="13"/>
	<path class="cls1"  d="M74.8,27.2h2.1v-6.8c1.2,1.2,2.9,1.9,4.8,1.9c2.5,0,4.6-1.3,5.8-3.3c1.2,2,3.4,3.3,5.8,3.3c2.5,0,4.6-1.3,5.8-3.3
		c1.2,2,3.4,3.3,5.8,3.3c3.8,0,6.8-3.1,6.8-6.8c0-3.8-3.1-6.9-6.8-6.9c-2.5,0-4.6,1.3-5.8,3.3c-1.2-2-3.4-3.3-5.8-3.3
		c-2.5,0-4.6,1.3-5.8,3.3c-1.2-2-3.4-3.3-5.8-3.3c-3.8,0-6.9,3.1-6.9,6.9V27.2z M105,10.7c2.6,0,4.8,2.2,4.8,4.8
		c0,2.6-2.2,4.8-4.8,4.8c-2.6,0-4.8-2.2-4.8-4.8C100.2,12.9,102.4,10.7,105,10.7z M93.3,10.7c2.6,0,4.8,2.2,4.8,4.8
		c0,2.6-2.2,4.8-4.8,4.8c-2.6,0-4.8-2.2-4.8-4.8C88.5,12.9,90.7,10.7,93.3,10.7z M81.7,10.7c2.6,0,4.8,2.2,4.8,4.8
		c0,2.6-2.2,4.8-4.8,4.8c-2.6,0-4.8-2.2-4.8-4.8C76.9,12.9,79,10.7,81.7,10.7z"/>
	<path class="cls1"  d="M66.8,17.1c-0.7,2-2.5,3.3-4.6,3.3c-2.5,0-4.6-1.9-4.9-4.5h11.6v-0.4c0-3.7-3-6.8-6.8-6.8c-3.7,0-6.8,3-6.8,6.8
		c0,3.7,3,6.8,6.8,6.8c3.2,0,5.8-2.1,6.6-5.2H66.8z M62.2,10.6c2.1,0,3.9,1.3,4.6,3.4h-9.3C58.2,12,60.1,10.6,62.2,10.6z"/>
	<polygon class="cls1" points="56,9.3 53.7,9.3 49.5,19.7 45.4,9.3 43.1,9.3 48.2,22.3 50.9,22.3 	"/>
	<rect class="cls1" x="112.9" y="4.9" width="2.1" height="17.4"/>
	<path class="cls1"  d="M32.4,22.3l7,0v-2h-5c-0.8,0-1.2-0.5-1.2-1.3l0-14.1H31v16.1C31,21.7,31.5,22.3,32.4,22.3z"/>
	<path class="cls1"  d="M118.6,7.6c0.7,0,1.4-0.6,1.4-1.4c0-0.7-0.6-1.3-1.4-1.3c-0.7,0-1.3,0.6-1.3,1.3C117.3,6.9,117.9,7.6,118.6,7.6z
		 M118.6,5.1c0.6,0,1.1,0.5,1.1,1.1c0,0.6-0.5,1.1-1.1,1.1c-0.6,0-1.1-0.5-1.1-1.1C117.5,5.6,118,5.1,118.6,5.1z"/>
	<path class="cls1"  d="M118.3,6.3h0.1c0.2,0,0.2,0.1,0.4,0.4l0.1,0.2h0.3l-0.2-0.3c-0.1-0.2-0.2-0.3-0.3-0.4v0c0.2,0,0.4-0.2,0.4-0.4
		c0-0.2-0.1-0.4-0.5-0.4h-0.6v1.5h0.2V6.3z M118.3,5.7h0.4c0.2,0,0.3,0.1,0.3,0.2c0,0.2-0.1,0.2-0.3,0.2h-0.3V5.7z"/>
	<rect class="cls1" x="40.2" y="4.9" width="2.1" height="2.1"/>
	<path class="cls1"  d="M10.7,33.9c-0.3,0.2-0.8,0.5-1.5,0.9L8.8,34l-0.6-0.9c0.6-0.3,0.9-0.6,0.9-0.9c0-0.2-0.2-0.4-0.7-0.6
		c-0.8,0.3-1.2,0.8-1.2,1.3c0,0,0,0.1,0,0.1c-0.7,0.9-1.4,1.6-2.3,2.1c-0.9,0.6-1.7,0.9-2.5,0.9c-0.9,0-1.3-0.4-1.3-1.3
		c1,0,1.8-0.2,2.6-0.6c0.7-0.4,1.1-0.9,1.1-1.4c0-0.3-0.1-0.6-0.4-0.8c-0.3-0.2-0.6-0.3-1.1-0.3c-0.9,0-1.7,0.3-2.4,0.9
		c-0.7,0.6-1,1.3-1,2.2c0,0.6,0.2,1,0.5,1.4c0.4,0.3,0.9,0.5,1.5,0.5c1,0,2-0.4,3.1-1c0.9-0.6,1.6-1.3,2.2-2.1
		c0.1,0.3,0.3,0.6,0.6,0.9l0.4,0.6c-0.8,0.3-1.4,0.6-1.7,0.8c-0.3,0.2-0.5,0.5-0.5,0.7c0,0.2,0.1,0.4,0.4,0.5
		c0.2,0.2,0.5,0.2,0.9,0.2c0.6,0,1.1-0.2,1.6-0.5c0.4-0.3,0.7-0.7,0.7-1.2c0-0.2-0.1-0.4-0.2-0.6c1.2-0.6,2.2-1.3,2.9-2.1L12,32.8
		C11.5,33.3,11.1,33.6,10.7,33.9z M2,32.9c0.4-0.4,0.8-0.6,1.3-0.6c0.4,0,0.6,0.2,0.6,0.6c0,0.4-0.3,0.8-0.8,1.1
		c-0.5,0.3-1.1,0.5-1.9,0.5C1.4,33.8,1.6,33.3,2,32.9z M8.4,36.7c-0.2,0.2-0.4,0.3-0.7,0.3c-0.4,0-0.6-0.1-0.6-0.4
		c0-0.3,0.5-0.6,1.5-1.1c0.1,0.2,0.1,0.3,0.1,0.5C8.7,36.3,8.6,36.5,8.4,36.7z"/>
	<path class="cls1"  d="M18.3,31.8c-0.6,0-1.2,0.2-1.8,0.7l0.4-1.7c-0.6,0.2-1.2,0.3-1.9,0.3c-0.5,0-0.9-0.1-1.2-0.2c0.1,0.3,0.2,0.6,0.3,0.7
		c0.1,0.1,0.4,0.2,0.7,0.2c0.2,0,0.5,0,0.8-0.1l-1.5,6.4c-0.1,0.5-0.2,0.8-0.2,1c0,0.3,0.1,0.4,0.4,0.4c0.2,0,0.5-0.1,0.8-0.1
		c-0.1-0.1-0.1-0.3-0.1-0.5c0-0.3,0-0.6,0.1-1l0.4-1.6c0.3,0.2,0.8,0.3,1.3,0.3c0.9,0,1.7-0.3,2.4-0.9c0.7-0.6,1-1.3,1-2.1
		c0-0.5-0.2-1-0.6-1.3C19.3,32,18.9,31.8,18.3,31.8z M18.6,35.6c-0.4,0.4-0.9,0.6-1.6,0.6c-0.5,0-0.9-0.2-1.3-0.5l0.6-2.5
		c0.6-0.5,1.1-0.7,1.6-0.7c0.4,0,0.7,0.1,0.9,0.4c0.2,0.3,0.4,0.6,0.4,1.1C19.2,34.6,19,35.1,18.6,35.6z"/>
	<path class="cls1"  d="M38.5,35.6c-0.4,0.2-0.7,0.3-1,0.3c-0.6,0-0.9-0.3-0.9-1c0-0.6,0.2-1.5,0.6-2.7c0,0,0-0.1,0.1-0.2h2.9c0.4,0,0.7,0,0.8-0.1
		c0.1-0.1,0.3-0.3,0.3-0.6c-0.3,0.1-0.6,0.2-1.1,0.2h-2.7c0.3-0.7,0.6-1.2,0.8-1.5c-0.1,0-0.2,0-0.3,0c-0.4,0-0.8,0.1-1,0.3
		c-0.2,0.2-0.4,0.5-0.6,0.9l-0.1,0.3h-0.8c-0.3,0-0.5,0-0.7,0.1c-0.1,0-0.2,0.1-0.3,0.2c0,0-0.1,0-0.1,0c-0.5,0-1.1,0.3-1.8,0.9
		c-0.7,0.6-1.3,1.4-2,2.5l0.3-1.3c0.2-0.7,0.3-1.1,0.3-1.3c0-0.3-0.1-0.4-0.4-0.4c-0.2,0-0.5,0-0.9,0.2c0.1,0.1,0.2,0.3,0.2,0.4
		c0,0.1,0,0.1,0,0.2c-0.6,0.7-1.1,1.3-1.7,1.8c-0.7,0.5-1.2,0.8-1.5,0.8c-0.4,0-0.5-0.3-0.5-1c0-0.5,0-1,0.1-1.4l0.1-0.4
		c0.1-0.4,0.3-0.8,0.5-1c-0.1,0-0.2,0-0.2,0c-0.6,0-1,0.1-1.1,0.4c-0.6-0.3-1.2-0.4-1.7-0.4c-0.9,0-1.6,0.3-2.3,1
		c-0.7,0.7-1,1.5-1,2.4c0,0.5,0.1,0.8,0.3,1.1c0.2,0.3,0.5,0.4,0.9,0.4c0.5,0,1.1-0.3,1.7-0.8c0.7-0.5,1.2-1.2,1.6-2
		c0,0.4,0,0.7,0,0.9c0,1,0.4,1.6,1.1,1.6c0.6,0,1.3-0.3,2.1-1c0.5-0.4,1-0.8,1.4-1.4c0,0.1,0,0.1,0,0.2l-0.3,1.1
		c-0.1,0.5-0.2,0.9-0.2,1c0,0.3,0.2,0.4,0.5,0.4c0.1,0,0.3,0,0.6-0.1l0-0.1c0-0.2,0.2-0.6,0.5-1.1c0.3-0.5,0.7-1,1.1-1.5
		c0.7-0.8,1.2-1.2,1.7-1.2c0.2,0,0.4,0.1,0.6,0.3c0.5-0.3,0.8-0.6,0.8-0.8c0-0.1,0-0.2-0.1-0.2c0,0,0.1,0,0.1,0h0.9l-0.2,0.7
		c-0.3,1-0.5,1.8-0.5,2.3c0,0.5,0.1,0.9,0.4,1.2c0.3,0.3,0.6,0.5,1,0.5c0.5,0,1-0.2,1.6-0.5c0.6-0.3,0.9-0.7,0.9-0.9
		c0-0.1,0-0.2-0.1-0.4C39.1,35.2,38.9,35.4,38.5,35.6z M25.6,33.2c-1.4,1.8-2.4,2.7-2.9,2.7c-0.5,0-0.7-0.3-0.7-0.9
		c0-0.7,0.2-1.4,0.6-1.9c0.4-0.5,0.8-0.8,1.4-0.8c0.5,0,1.1,0.2,1.8,0.6C25.7,33.1,25.6,33.1,25.6,33.2z"/>
	<path class="cls1"  d="M44.8,35.2c-0.9,0.6-1.7,0.9-2.5,0.9c-0.9,0-1.3-0.4-1.3-1.3c1,0,1.8-0.2,2.6-0.6c0.8-0.4,1.1-0.9,1.1-1.4
		c0-0.3-0.1-0.6-0.4-0.8c-0.3-0.2-0.6-0.3-1.1-0.3c-0.9,0-1.7,0.3-2.4,0.9c-0.7,0.6-1,1.3-1,2.2c0,0.6,0.2,1,0.5,1.4
		c0.4,0.3,0.9,0.5,1.5,0.5c1,0,2-0.4,3.1-1c1.1-0.7,2-1.6,2.7-2.6l-0.4-0.2C46.5,33.8,45.7,34.6,44.8,35.2z M41.8,32.9
		c0.4-0.4,0.8-0.6,1.3-0.6c0.4,0,0.6,0.2,0.6,0.6c0,0.4-0.3,0.8-0.8,1.1c-0.5,0.3-1.1,0.5-1.9,0.5C41.2,33.8,41.4,33.3,41.8,32.9z"
		/>
	<path class="cls1"  d="M61.8,35c-0.9,0.6-1.7,0.9-2.5,0.9c-0.9,0-1.3-0.4-1.3-1.3c1,0,1.8-0.2,2.6-0.6c0.7-0.4,1.1-0.9,1.1-1.4
		c0-0.3-0.1-0.6-0.4-0.8c-0.3-0.2-0.6-0.3-1.1-0.3c-0.9,0-1.7,0.3-2.4,0.9c-0.4,0.4-0.7,0.8-0.8,1.3c-0.3,0.3-0.6,0.6-1,0.9
		c-0.8,0.7-1.3,1-1.7,1c-0.3,0-0.5-0.3-0.5-0.8c0-0.4,0.1-0.8,0.2-1.4l1.1-4.8c-0.6,0.2-1.2,0.3-1.9,0.3c-0.5,0-0.9-0.1-1.2-0.2
		c0.1,0.3,0.2,0.6,0.3,0.7c0.1,0.1,0.4,0.2,0.7,0.2c0.2,0,0.5,0,0.8-0.1L53.4,32c-0.6-0.3-1.2-0.4-1.7-0.4c-0.9,0-1.6,0.3-2.3,1
		c-0.7,0.7-1,1.5-1,2.4c0,0.5,0.1,0.8,0.3,1.1c0.2,0.3,0.5,0.4,0.9,0.4c0.5,0,1-0.2,1.6-0.7c0.6-0.5,1.2-1.1,1.7-2
		c-0.1,0.4-0.1,0.9-0.1,1.3c0,0.9,0.4,1.4,1.1,1.4c0.5,0,1.3-0.4,2.2-1.1c0.3-0.2,0.5-0.5,0.8-0.7c0,0.6,0.2,1,0.5,1.3
		c0.4,0.3,0.9,0.5,1.5,0.5c1,0,2-0.3,3.1-1c1.1-0.7,2-1.6,2.6-2.6l-0.4-0.2C63.5,33.6,62.7,34.4,61.8,35z M58.8,32.7
		c0.4-0.4,0.8-0.6,1.3-0.6c0.4,0,0.6,0.2,0.6,0.6c0,0.4-0.3,0.8-0.8,1.1c-0.5,0.3-1.1,0.5-1.9,0.5C58.2,33.6,58.4,33.1,58.8,32.7z
		 M53,33c-1.4,1.8-2.3,2.7-2.8,2.7c-0.5,0-0.7-0.3-0.7-0.9c0-0.7,0.2-1.4,0.6-1.9c0.4-0.5,0.8-0.8,1.4-0.8c0.5,0,1.1,0.2,1.8,0.6
		C53.1,32.9,53.1,33,53,33z"/>
	<path class="cls1"  d="M81.9,35c-0.7,0.6-1.3,0.9-1.7,0.9c-0.4,0-0.5-0.2-0.5-0.5c0-0.1,0-0.4,0.1-0.8l0.2-0.8c0.1-0.4,0.1-0.7,0.1-1
		c0-0.3-0.1-0.4-0.4-0.4c-0.1,0-0.4,0-0.9,0.1c0.1,0.1,0.2,0.2,0.2,0.4c0,0,0,0.1,0,0.1c-1.3,1.9-2.2,2.8-2.9,2.8
		c-0.3,0-0.4-0.2-0.4-0.5c0-0.2,0-0.5,0.1-0.9l0.2-0.7c0.2-0.7,0.2-1.1,0.2-1.3c0-0.5-0.3-0.8-0.8-0.8c-0.5,0-1,0.3-1.7,1
		c-0.7,0.6-1.3,1.5-1.9,2.6l0.3-1.3c0.2-0.8,0.3-1.3,0.3-1.5c0-0.5-0.2-0.8-0.6-0.8c-1,0-2.1,1.1-3.3,3.3l0.1-1.3
		c0.1-0.7,0.1-1.1,0.1-1.2c0-0.3-0.2-0.5-0.5-0.5c-0.2,0-0.5,0.1-0.9,0.2c0.2,0.2,0.3,0.4,0.3,0.8c0,0.3,0,0.6-0.1,0.9l-0.1,0.9
		c-0.1,0.8-0.2,1.2-0.2,1.3c0,0.3,0.2,0.5,0.5,0.5c0.2,0,0.3,0,0.5-0.1c-0.1-0.1-0.1-0.1-0.1-0.2c0-0.2,0.4-0.9,1.1-2
		c0.7-1.1,1.3-1.7,1.7-1.7c0.2,0,0.3,0.1,0.3,0.3c0,0.1-0.1,0.5-0.2,1.2L70.9,35c0,0.2-0.1,0.3-0.1,0.5c-0.1,0.4-0.2,0.6-0.2,0.7
		c0,0.3,0.2,0.4,0.5,0.4c0.1,0,0.2,0,0.2,0c0.1,0,0.2,0,0.3-0.1c0,0,0-0.1,0-0.1c0-0.2,0.4-0.8,1.3-2c1-1.3,1.6-1.9,2-1.9
		c0.2,0,0.2,0.1,0.2,0.2c0,0.1,0,0.4-0.1,0.8l-0.1,0.6c-0.1,0.6-0.2,1-0.2,1.3c0,0.8,0.4,1.2,1.1,1.2c0.9,0,1.9-0.8,3.1-2.4
		c0,0.1,0,0.1,0,0.2l-0.1,0.5c-0.1,0.3-0.1,0.5-0.1,0.6c0,0.3,0.1,0.6,0.4,0.8c0.2,0.2,0.5,0.3,0.9,0.3c0.6,0,1.4-0.3,2.2-1
		c0.8-0.7,1.6-1.6,2.4-2.7L84,32.7C83.3,33.6,82.6,34.4,81.9,35z"/>
	<path class="cls1"  d="M79.9,30.7L79.9,30.7c-0.2,0.2-0.2,0.3-0.2,0.5c0,0.1,0.1,0.2,0.2,0.2c0.2,0,0.6-0.2,1.2-0.6c0.4-0.3,0.7-0.6,0.8-1
		c-0.2,0.2-0.6,0.4-1,0.6C80.4,30.6,80.1,30.7,79.9,30.7z"/>
	<path class="cls1"  d="M91.4,31.9c-0.1,0.5-0.3,1.1-0.7,1.8c-0.4,0.7-0.9,1.4-1.5,2c-0.2-1.2-0.5-2.2-0.8-3c-0.4-0.8-0.8-1.3-1.2-1.3
		c-0.2,0-0.5,0.1-0.8,0.2c0.5,0.4,0.9,1.1,1.3,2c0.4,0.9,0.5,1.7,0.5,2.4c0,0.2,0,0.4-0.1,0.7c0.5,0,0.8-0.1,1-0.2
		c0.2-0.1,0.4-0.3,0.7-0.6c0.6-0.6,1.1-1.3,1.6-2c0.5-0.7,0.7-1.2,0.7-1.3C92.1,32.3,91.9,32.1,91.4,31.9z"/>
	<path class="cls1"  d="M94.2,30.7C94.1,30.8,94,31,94,31.2c0,0.1,0.1,0.2,0.2,0.2c0.2,0,0.6-0.2,1.2-0.6c0.4-0.3,0.7-0.6,0.8-1
		c-0.2,0.2-0.6,0.4-1,0.6C94.8,30.6,94.5,30.7,94.2,30.7L94.2,30.7z"/>
	<path class="cls1"  d="M113.3,34.7c-0.6,0.5-1.2,0.8-1.5,0.8c-0.4,0-0.5-0.3-0.5-1c0-0.5,0.1-1,0.2-1.4l0.1-0.4c0.1-0.4,0.3-0.8,0.5-1
		c-0.1,0-0.2,0-0.2,0c-0.6,0-1,0.1-1.1,0.4c-0.6-0.3-1.2-0.4-1.7-0.4c-0.9,0-1.6,0.3-2.3,1c-0.3,0.3-0.5,0.6-0.7,1
		c-0.3,0.4-0.7,0.8-1.2,1.1c-0.8,0.7-1.3,1-1.7,1c-0.3,0-0.5-0.3-0.5-0.8c0-0.4,0.1-0.8,0.2-1.4l1.1-4.8c-0.6,0.2-1.2,0.3-1.9,0.3
		c-0.5,0-0.9-0.1-1.2-0.2c0.1,0.3,0.2,0.6,0.3,0.7c0.1,0.1,0.4,0.2,0.7,0.2c0.2,0,0.5,0,0.8-0.1l-0.6,2.3c-0.6-0.3-1.2-0.4-1.7-0.4
		c-0.9,0-1.6,0.3-2.3,1c-0.3,0.3-0.6,0.7-0.7,1.1c-0.4,0.5-0.8,0.9-1.2,1.3c-0.7,0.6-1.3,0.9-1.7,0.9c-0.4,0-0.5-0.2-0.5-0.5
		c0-0.1,0-0.4,0.1-0.8l0.2-0.8c0.1-0.4,0.2-0.7,0.2-1c0-0.3-0.1-0.4-0.4-0.4c-0.1,0-0.4,0-0.8,0.1c0.1,0.1,0.2,0.2,0.2,0.4
		c0,0.3-0.1,0.8-0.3,1.5l-0.1,0.5C93,35.1,93,35.3,93,35.4c0,0.3,0.1,0.6,0.4,0.8c0.2,0.2,0.6,0.3,0.9,0.3c0.6,0,1.4-0.3,2.2-1
		c0.3-0.2,0.6-0.5,0.9-0.8c0,0.1,0,0.2,0,0.3c0,0.5,0.1,0.8,0.3,1.1c0.2,0.3,0.5,0.4,0.9,0.4c0.5,0,1-0.2,1.6-0.7
		c0.6-0.5,1.2-1.1,1.7-2c-0.1,0.4-0.1,0.9-0.1,1.3c0,0.9,0.3,1.4,1.1,1.4c0.6,0,1.3-0.4,2.2-1.1c0.3-0.2,0.5-0.5,0.8-0.7
		c0,0.1,0,0.2,0,0.3c0,0.5,0.1,0.8,0.3,1.1c0.2,0.3,0.5,0.4,0.9,0.4c0.5,0,1.1-0.3,1.7-0.8c0.7-0.5,1.2-1.2,1.6-2c0,0.4,0,0.7,0,0.9
		c0,1,0.4,1.6,1.1,1.6c0.6,0,1.3-0.3,2.1-1c0.8-0.6,1.6-1.4,2.2-2.4l-0.4-0.2C114.6,33.5,114,34.1,113.3,34.7z M101.8,33
		c-1.4,1.8-2.3,2.7-2.8,2.7c-0.5,0-0.7-0.3-0.7-0.9c0-0.7,0.2-1.4,0.6-1.9c0.4-0.5,0.8-0.8,1.4-0.8c0.5,0,1.1,0.2,1.8,0.6
		C101.9,32.9,101.9,33,101.8,33z M110.3,33c-1.4,1.8-2.4,2.7-2.9,2.7c-0.5,0-0.7-0.3-0.7-0.9c0-0.7,0.2-1.4,0.6-1.9
		c0.4-0.5,0.8-0.8,1.4-0.8c0.5,0,1.1,0.2,1.8,0.6C110.3,32.9,110.3,33,110.3,33z"/>
	<path class="cls1"  d="M118.3,30.3L118.3,30.3c0.3,0,0.5-0.2,0.5-0.6c0-0.2-0.1-0.5-0.6-0.5h-0.8v1.9h0.3v-0.8h0.2c0.2,0,0.3,0.1,0.6,0.5l0.2,0.3
		h0.4l-0.2-0.4C118.6,30.5,118.5,30.4,118.3,30.3z M118.2,30.1h-0.4v-0.6h0.5c0.2,0,0.3,0.1,0.3,0.3C118.6,30,118.4,30.1,118.2,30.1
		z"/>
	<path class="cls1"  d="M118.2,28.4c-1,0-1.7,0.8-1.7,1.7c0,1,0.8,1.8,1.7,1.8c1,0,1.8-0.8,1.8-1.8C119.9,29.2,119.2,28.4,118.2,28.4z M118.2,31.7
		c-0.8,0-1.5-0.7-1.5-1.5c0-0.8,0.6-1.5,1.5-1.5c0.8,0,1.5,0.7,1.5,1.5C119.7,31,119,31.7,118.2,31.7z"/>
</g>
</svg>
