<svg xmlns="http://www.w3.org/2000/svg" width="45.85" height="47" viewBox="0 0 45.85 47">
  <defs>
    <style>
      .cls-1 {
        fill: #fe0099;
      }

      .cls-2 {
        fill: #ecefef;
      }

      .cls-3 {
        fill: #5d5d5d;
        opacity: 0.3;
        isolation: isolate;
      }

      .cls-4 {
        fill: #8dbcd3;
      }

      .cls-5 {
        fill: #9cd0ea;
      }

      .cls-6 {
        fill: #fbffff;
      }

      .cls-7 {
        fill: #c1e9fd;
      }

      .cls-8 {
        fill: #3e4e5c;
      }

      .cls-9 {
        fill: #e3c655;
      }
    </style>
  </defs>
  <title>Asset 11</title>
  <g id="Layer_2" data-name="Layer 2">
    <g id="BUSQUEDA_DE_PRODUCTOS" data-name="BUSQUEDA DE PRODUCTOS">
      <g>
        <path class="cls-1" d="M7.78,41.13Q7,40.39,6.22,39.58,7,40.39,7.78,41.13Z"/>
        <path class="cls-1" d="M6.11,39.46q-.77-.85-1.46-1.78Q5.33,38.61,6.11,39.46Z"/>
        <path class="cls-1" d="M22.93,0C10.26,0,0,10.52,0,23.5A23.78,23.78,0,0,0,4.62,37.65l6.26-6.42.9-.93L11.54,30a.62.62,0,0,1,0-.86l1-1a.58.58,0,0,1,.84,0l.5.51L15.53,27a13.07,13.07,0,0,1,1.23-16.64,12.28,12.28,0,0,1,17.67,0,13,13,0,0,1,0,18.1,12.27,12.27,0,0,1-16.27,1.23l-1.7,1.74.67.69a.62.62,0,0,1,0,.86l-1,1a.58.58,0,0,1-.84,0l-.21-.21L11,37.92l-1.26,1.3h0l-1.94,2A22.51,22.51,0,0,0,22.93,47c12.66,0,22.93-10.52,22.93-23.5S35.59,0,22.93,0Z"/>
        <path class="cls-2" d="M15.12,27.52V30l1.35,1.38,1.7-1.74a12.27,12.27,0,0,0,16.27-1.23,13,13,0,0,0,0-18.1,12.28,12.28,0,0,0-17.67,0A13.07,13.07,0,0,0,15.53,27l-1.7,1.74,0,0ZM19.18,9.91a11.55,11.55,0,0,1,7.32-2.11,11.76,11.76,0,0,1,7.06,2.93c.43.38-.2,1-.63.64a10.71,10.71,0,0,0-6.59-2.68,10.85,10.85,0,0,0-6.72,2C19.15,11,18.72,10.25,19.18,9.91ZM19,12.58a9.24,9.24,0,0,1,13.3,0,9.81,9.81,0,0,1,0,13.63,9.24,9.24,0,0,1-13.3,0A9.81,9.81,0,0,1,19,12.58Z"/>
        <polygon class="cls-2" points="13.88 28.77 15.12 30.04 15.12 27.52 13.88 28.77"/>
        <polygon class="cls-3" points="13.88 28.77 15.12 30.04 15.12 27.52 13.88 28.77"/>
        <path class="cls-4" d="M32.26,26.22a9.81,9.81,0,0,0,0-13.63,9.24,9.24,0,0,0-13.3,0,9.81,9.81,0,0,0,0,13.63A9.24,9.24,0,0,0,32.26,26.22ZM19.37,13a8.67,8.67,0,0,1,12.46,0,9.2,9.2,0,0,1,0,12.77,8.67,8.67,0,0,1-12.46,0A9.2,9.2,0,0,1,19.37,13Z"/>
        <path class="cls-5" d="M31.84,25.79a9.2,9.2,0,0,0,0-12.77,8.67,8.67,0,0,0-12.46,0,9.2,9.2,0,0,0,0,12.77A8.67,8.67,0,0,0,31.84,25.79ZM30.31,14.73a1,1,0,0,1,1.42,0,1,1,0,0,1,0,1.46,1,1,0,0,1-1.42,0A1,1,0,0,1,30.31,14.73Zm-3.6,4.2a3.6,3.6,0,0,1,5.18,0,3.82,3.82,0,0,1,0,5.31,3.6,3.6,0,0,1-5.18,0A3.82,3.82,0,0,1,26.71,18.93Z"/>
        <path class="cls-6" d="M19.62,10.71a10.85,10.85,0,0,1,6.72-2,10.71,10.71,0,0,1,6.59,2.68c.43.38,1.06-.26.63-.64a11.76,11.76,0,0,0-7.06-2.93,11.55,11.55,0,0,0-7.32,2.11C18.72,10.25,19.15,11,19.62,10.71Z"/>
        <path class="cls-7" d="M31.9,24.24a3.82,3.82,0,0,0,0-5.31,3.6,3.6,0,0,0-5.18,0,3.82,3.82,0,0,0,0,5.31A3.6,3.6,0,0,0,31.9,24.24Z"/>
        <path class="cls-7" d="M31.73,16.19a1,1,0,0,0,0-1.46,1,1,0,0,0-1.42,0,1,1,0,0,0,0,1.46A1,1,0,0,0,31.73,16.19Z"/>
        <path class="cls-8" d="M9.79,32.36l1.1-1.14L4.62,37.65h0l0,0q.69.93,1.46,1.78l.11.12q.74.81,1.56,1.55l.07.07h0l1.94-2Z"/>
        <polygon class="cls-8" points="11.05 37.92 15.13 33.74 15.11 33.72 11.05 37.92"/>
        <polygon class="cls-1" points="9.79 39.22 11.05 37.92 9.79 39.21 9.79 39.22"/>
        <polygon class="cls-3" points="9.79 39.22 11.05 37.92 9.79 39.21 9.79 39.22"/>
        <polygon class="cls-1" points="11.78 30.3 10.89 31.23 11.79 30.31 11.78 30.3"/>
        <polygon class="cls-3" points="11.78 30.3 10.89 31.23 11.79 30.31 11.78 30.3"/>
        <polygon class="cls-8" points="9.79 39.21 11.05 37.92 15.11 33.72 11.79 30.31 10.89 31.23 9.79 32.37 9.79 39.21"/>
        <polygon class="cls-3" points="9.79 39.21 11.05 37.92 15.11 33.72 11.79 30.31 10.89 31.23 9.79 32.37 9.79 39.21"/>
        <path class="cls-9" d="M15.11,33.72l0,0,.21.21a.58.58,0,0,0,.84,0l1-1a.62.62,0,0,0,0-.86l-.67-.69L15.12,30l-1.24-1.27,0,0-.5-.51a.58.58,0,0,0-.84,0l-1,1a.62.62,0,0,0,0,.86l.25.25h0Z"/>
      </g>
    </g>
  </g>
</svg>
