<?xml version="1.0" encoding="utf-8"?>
<!-- Generator: Adobe Illustrator 23.0.2, SVG Export Plug-In . SVG Version: 6.00 Build 0)  -->
<svg version="1.1" id="Layer_1" xmlns="http://www.w3.org/2000/svg" xmlns:xlink="http://www.w3.org/1999/xlink" x="0px" y="0px"
	 viewBox="0 0 921.2 120.3" style="enable-background:new 0 0 921.2 120.3;" xml:space="preserve">
<style type="text/css">
	.st0{fill:#FFFFFF;stroke:#000000;stroke-miterlimit:10;}
	.st1{fill:#E50695;}
</style>
<rect x="-12" y="-11" class="st0" width="940.2" height="138.8"/>
<g>
	<g>
		<g>
			<path class="st1" d="M580,73.6l-1.4-0.5l0,0h14.5l0.4,5l0,0c-0.4-3.4-2.7-4.5-5.8-4.5H583v9.5h2.2c3.1,0,3.8-1.9,3.8-3.8l0,0v7.8
				l0,0c0-2.2-0.8-3.6-3.9-3.6H583v9.8h4c4.8,0,7.5-0.6,7.5-5.6l0,0v6h-16l0,0l1.4-0.5V73.6z"/>
			<path class="st1" d="M597.4,86.6L597.4,86.6c0,5,3.4,7.3,6.9,7.3c2.8,0,4.9-1.8,4.9-4.4c0-3.1-1.6-4-5-4.5
				c-4.6-0.7-6.8-1.5-6.8-6.5c0-3.4,2.2-5.8,5.5-5.8c3,0,4.2,1.8,5.2,1.8c0.7,0,1.2-0.7,1.3-1.1l0,0v6.2l0,0
				c-0.3-3.4-2.6-6.4-6.5-6.4c-2.5,0-4.3,1.6-4.3,4.4c0,2.7,1,3.2,5.9,4.1c4.3,0.8,6.1,2.2,6.1,6c0,3.9-2.1,6.7-6.4,6.7
				c-2.9,0-4.5-1.5-5.6-1.5c-0.7,0-1.2,0.7-1.2,1.2l0,0V86.6z"/>
			<path class="st1" d="M619.2,73.6h-0.6c-5.2,0-6.9,0.8-6.9,5.6l0,0v-6.1h18v6.1l0,0c0-4.8-1.6-5.6-6.9-5.6h-0.6v19.8l3,0.5l0,0
				h-9.1l0,0l3-0.5V73.6z"/>
		</g>
		<path class="st1" d="M436.5,73.6l-2.7-0.5l0,0h15.8l0.4,5l0,0c-0.1-3.4-2.6-4.5-5.8-4.5h-4.7v9.5h2.2c3.1,0,3.8-1.9,3.8-3.8l0,0
			v7.8l0,0c0-2.2-0.8-3.6-3.9-3.6h-2.2v9.8l2.8,0.5l0,0h-8.5l0,0l2.7-0.5V73.6z"/>
		<path class="st1" d="M563.2,73.6l-2.7-0.5l0,0h15.8l0.4,5l0,0c-0.1-3.4-2.6-4.5-5.8-4.5h-4.7v9.5h2.2c3.1,0,3.8-1.9,3.8-3.8l0,0
			v7.8l0,0c0-2.2-0.8-3.6-3.9-3.6h-2.2v9.8l2.8,0.5l0,0h-8.5l0,0l2.7-0.5V73.6z"/>
		<path class="st1" d="M446.4,93.9c0.4,0,1.4-0.2,2.2-1.3l14.1-21l0,0.6v21.3l1.8,0.5h-0.1h-7.2h0.1l2.6-0.5v-7h-5.4l-3.7,5.8
			c-0.3,0.4-0.4,0.6-0.4,0.7c0,0.2,0.1,0.9,1.1,0.9h0.1h-0.1H446.4 M459.8,78.4L459.8,78.4l-5.1,7.6h5.1L459.8,78.4z"/>
		<path class="st1" d="M467.7,86.6L467.7,86.6c0,5,3.4,7.3,6.9,7.3c2.8,0,4.9-1.8,4.9-4.4c0-3.1-1.6-4-5-4.5
			c-4.6-0.7-6.8-1.5-6.8-6.5c0-3.4,2.2-5.8,5.5-5.8c3,0,4.2,1.8,5.2,1.8c0.7,0,1.2-0.7,1.3-1.1l0,0v6.2l0,0
			c-0.3-3.4-2.6-6.4-6.5-6.4c-2.5,0-4.3,1.6-4.3,4.4c0,2.7,1,3.2,5.9,4.1c4.3,0.8,6.1,2.2,6.1,6c0,3.9-2.1,6.7-6.4,6.7
			c-2.9,0-4.5-1.5-5.6-1.5c-0.7,0-1.2,0.7-1.2,1.2l0,0V86.6z"/>
		<path class="st1" d="M485.8,73.6l-2.6-0.5l0,0h8.4l0,0l-2.8,0.5V83h10.7v-9.4l-2.8-0.5l0,0h8.4l0,0l-2.6,0.5v19.8l2.6,0.5l0,0
			h-8.4l0,0l2.8-0.5v-10h-10.7v10l2.8,0.5l0,0h-8.4l0,0l2.6-0.5V73.6z"/>
		<path class="st1" d="M511.2,73.6l-2.7-0.5l0,0h8.4l0,0l-2.7,0.5v19.8l2.7,0.5l0,0h-8.4l0,0l2.7-0.5V73.6z"/>
		<path class="st1" d="M528.8,72.7c5,0,9.3,4.8,9.3,10.8c0,6-4.3,10.8-9.3,10.8c-5,0-9.3-4.8-9.3-10.8
			C519.5,77.5,523.9,72.7,528.8,72.7z M528.8,94.4c5.2,0,6-7,6-10.8c0-3.9-0.7-10.8-6-10.8c-5.2,0-6,7-6,10.8
			C522.9,87.4,523.6,94.4,528.8,94.4z"/>
		<path class="st1" d="M537.9,93.9c1.4,0,2.8-0.7,2.8-2.2V73.6l-2.8-0.5l0,0h6.2l11.1,15.4h0.1V75.2c0-1.2-1.6-2.1-2.9-2.1l0,0h6.2
			l0,0c-1.3,0-2.8,0.9-2.8,2.1v18.9h-0.4l-14.1-19.5h-0.1v17.2c0,1.4,1.6,2.2,3,2.2l0,0H537.9L537.9,93.9z"/>
	</g>
	<g>
		<path class="st1" d="M291.5,0v62.6h338.2V0H291.5z M315.5,50.7L303,14h-4.1v-1.3H313V14h-4.3l9.4,27.8h0.1l9-27.8H322v-1.3h10.6
			V14h-4l-11.8,36.7H315.5z M362.4,49.9h-14v-1.3h4.5l-3.8-12.2h-10.6l-4,12.2h4.8v1.3h-10.9v-1.3h4.4l12.1-36.4h2.2l11.5,36.4h3.9
			V49.9z M394.7,49.9h-1.5l-1.6-2.3c-2.6,2.2-5.6,3.1-8.7,3.1c-10.3,0-16.1-9-16.1-19.7c0-11,8.5-19.2,16.3-19.2
			c3.3,0,5.5,1.1,8.2,2.9l1.9-1.7h0.8v9.5h-1.3c-1.2-5.3-4.1-9.5-9.9-9.5c-3.6,0-6.3,2.4-7.4,4.5c-2.2,4.1-2.3,12-2.3,15
			c0,9.6,1.2,16.5,10,16.5c5.4,0,8.8-4.5,10.2-9.4h1.3V49.9z M433.6,49.9h-14v-1.3h4.5l-3.8-12.2h-10.6l-4,12.2h4.8v1.3h-10.9v-1.3
			h4.4l12.1-36.4h2.2l11.5,36.4h3.9V49.9z M465.9,49.9h-1.5l-1.6-2.3c-2.6,2.2-5.6,3.1-8.7,3.1c-10.3,0-16.1-9-16.1-19.7
			c0-11,8.5-19.2,16.3-19.2c3.3,0,5.5,1.1,8.2,2.9l1.9-1.7h0.8v9.5H464c-1.2-5.3-4.1-9.5-9.9-9.5c-3.6,0-6.3,2.4-7.4,4.5
			c-2.2,4.1-2.3,12-2.3,15c0,9.6,1.2,16.5,10,16.5c5.4,0,8.8-4.5,10.2-9.4h1.3V49.9z M486.2,14h-4.8v34.6h4.8v1.3h-15v-1.3h4.8V14
			h-4.8v-1.3h15V14z M506.6,50.7c-9.6,0-16-9.6-16-19.5c0-9.9,6.4-19.4,16-19.4c9.6,0,16,9.5,16,19.4
			C522.5,41.1,516.1,50.7,506.6,50.7z M560,14h-4.3v36.7h-1.4l-20.9-35.6h-0.1v33.5h4.3v1.3h-10.3v-1.3h4.3V14h-4.3v-1.3h10.9
			l15.8,26.9h0.1V14h-4.3v-1.3H560V14z M593,49.9h-29v-1.3h4.9V14H564v-1.3h28.2v9.1H591c-0.9-6.6-4.4-7.8-9.5-7.8h-7.2v16
			c5.6,0,7.4-0.1,8.2-6h1.2v14.1h-1.2c-0.3-6-2.7-6.7-8.2-6.7v17.2h6.7c7.4,0,9.8-0.9,11.2-9.1h1.4L593,49.9z M610.2,50.7
			c-3.1,0-6.2-0.8-8.5-3.1l-2.4,2.4h-0.8v-9.6h1.1c1.5,5.1,5.3,9,10.7,9c4.8,0,9.4-3.2,9.4-8.1c0-3.3-0.8-4.8-5.1-6.5
			c-2.1-0.8-10.7-3.6-11.5-4.2c-3.2-2-4.5-5.4-4.5-8.5c0-2.3,0.7-4.2,2.3-6.3c1.7-2.2,4.4-4,8.6-4c2.6,0,6.2,1.6,7.3,2.4l2.1-1.6
			h0.8v8.7h-1.1c-1.2-4.6-4.5-8.2-9.5-8.2c-3.8,0-7.9,2.6-7.9,6.8c0,9.2,21.1,3.3,21.1,18.4C622.3,46,617.5,50.7,610.2,50.7z"/>
		<path class="st1" d="M506.6,13.2c-7.7,0-9.6,6.6-9.6,18.1c0,11.5,1.9,18.2,9.6,18.2c7.7,0,9.6-6.7,9.6-18.2
			C516.2,19.8,514.2,13.2,506.6,13.2z"/>
		<polygon class="st1" points="343.9,19.7 339,34.8 348.5,34.8 344,19.7 		"/>
		<polygon class="st1" points="415,19.7 410.1,34.8 419.7,34.8 415.1,19.7 		"/>
		<path class="st1" d="M339,34.8l4.9-15.1h0.1l4.6,15.1H339z"/>
		<path class="st1" d="M410.1,34.8l4.9-15.1h0.1l4.6,15.1H410.1z"/>
		<path class="st1" d="M506.6,49.5c-7.7,0-9.6-6.7-9.6-18.2c0-11.5,1.9-18.1,9.6-18.1c7.7,0,9.6,6.6,9.6,18.1
			C516.2,42.8,514.2,49.5,506.6,49.5z"/>
	</g>
</g>
</svg>
